#N canvas 331 129 906 562 10;
#X obj 116 98 loadbang;
#N canvas 527 107 502 352 timing 0;
#X obj 33 15 inlet;
#X floatatom 162 159 5 0 0 0 - - -;
#X obj 90 56 /;
#X msg 90 37 60000 \$1;
#X msg 90 16 120;
#X obj 161 138 r out;
#X obj 146 227 s phase;
#X obj 32 96 metro 125;
#X obj 90 76 / 4;
#X obj 62 138 f 0;
#X obj 91 138 + 1;
#X obj 121 138 % 16;
#X obj 32 225 s beat;
#X obj 62 159 sel 0;
#X obj 166 204 print phase;
#X obj 32 115 t b b;
#X obj 32 60 t a b;
#X msg 237 150 -1;
#X obj 145 183 f 0;
#X connect 0 0 16 0;
#X connect 1 0 18 1;
#X connect 2 0 8 0;
#X connect 3 0 2 0;
#X connect 4 0 3 0;
#X connect 5 0 1 0;
#X connect 7 0 15 0;
#X connect 8 0 7 1;
#X connect 9 0 13 0;
#X connect 9 0 10 0;
#X connect 10 0 11 0;
#X connect 11 0 9 1;
#X connect 13 0 18 0;
#X connect 15 0 12 0;
#X connect 15 1 9 0;
#X connect 16 0 7 0;
#X connect 16 1 17 0;
#X connect 17 0 6 0;
#X connect 18 0 6 0;
#X connect 18 0 14 0;
#X restore 44 157 pd timing;
#X obj 45 133 tgl 15 0 empty empty empty 17 7 0 10 -262144 -1 -1 1
1;
#X obj 321 208 s mastervolume;
#X obj 321 71 vsl 15 128 0 1 0 0 empty empty empty 0 -9 0 10 -262144
-1 -1 0 1;
#X obj 44 184 layers;
#X obj 670 292 catch~ right;
#X obj 584 292 catch~ left;
#X obj 584 323 soundoutput;
#X obj 549 99 * 0.5;
#X obj 548 119 + 0.5;
#X floatatom 563 138 5 0 0 0 - - -;
#X obj 551 195 * 0.35;
#X obj 551 217 + 0.01;
#X obj 549 37 osc~ 0.06;
#X obj 549 169 d-sq;
#X obj 47 284 modallistening;
#X obj 98 184 analyse3band;
#X obj 44 24 soundinput;
#X obj 44 69 s~ inleft;
#N canvas 0 22 664 553 stateengine 0;
#X obj 166 238 bng 15 250 50 0 empty empty empty 17 7 0 10 -262144
-1 -1;
#X obj 119 188 select 1;
#X obj 118 166 change;
#X obj 57 80 r energylow;
#X floatatom 151 26 5 -100 100 0 - - -;
#X obj 301 238 bng 15 250 50 0 empty empty empty 17 7 0 10 -262144
-1 -1;
#X obj 254 188 select 1;
#X obj 253 166 change;
#X floatatom 287 25 5 -100 100 0 - - -;
#X obj 192 80 r energymid;
#X obj 443 238 bng 15 250 50 0 empty empty empty 17 7 0 10 -262144
-1 -1;
#X obj 396 188 select 1;
#X obj 395 166 change;
#X floatatom 428 21 5 -100 100 0 - - -;
#X obj 334 80 r energyhi;
#X obj 118 145 > 0.8;
#X obj 253 145 > 0.8;
#X obj 395 145 > 0.8;
#X obj 141 55 * 0.01;
#X obj 285 58 * 0.01;
#X obj 428 61 * 0.01;
#X floatatom 40 135 5 0 0 0 - - -;
#X floatatom 180 119 5 0 0 0 - - -;
#X floatatom 313 118 5 0 0 0 - - -;
#X obj 252 375 * 1;
#X obj 257 436 s out;
#X obj 158 413 f 0;
#X obj 190 413 + 1;
#X obj 223 414 % 7;
#X msg 163 376 bang;
#X floatatom 166 442 5 0 0 0 - - -;
#X msg 116 244 2;
#X msg 254 250 3;
#X msg 400 249 4;
#X connect 1 0 0 0;
#X connect 1 0 31 0;
#X connect 2 0 1 0;
#X connect 3 0 15 0;
#X connect 3 0 21 0;
#X connect 4 0 18 0;
#X connect 6 0 5 0;
#X connect 6 0 32 0;
#X connect 7 0 6 0;
#X connect 8 0 19 0;
#X connect 9 0 16 0;
#X connect 9 0 22 0;
#X connect 11 0 10 0;
#X connect 11 0 33 0;
#X connect 12 0 11 0;
#X connect 13 0 20 0;
#X connect 14 0 17 0;
#X connect 14 0 23 0;
#X connect 15 0 2 0;
#X connect 16 0 7 0;
#X connect 17 0 12 0;
#X connect 18 0 15 1;
#X connect 19 0 16 1;
#X connect 20 0 17 1;
#X connect 24 0 25 0;
#X connect 26 0 27 0;
#X connect 26 0 25 0;
#X connect 26 0 30 0;
#X connect 27 0 28 0;
#X connect 28 0 26 1;
#X connect 29 0 26 0;
#X connect 31 0 24 0;
#X connect 32 0 24 0;
#X connect 33 0 24 0;
#X restore 159 235 pd stateengine;
#X obj 325 494 soundoutput;
#X obj 433 399 loadbang;
#X floatatom 343 447 5 0 0 0 - - -;
#X floatatom 474 455 5 0 0 0 - - -;
#X obj 338 420 pipe 8000;
#X msg 440 428 1;
#N canvas 63 312 632 374 phaser 1;
#X obj 120 77 rpole~;
#X obj 120 52 rzero_rev~;
#X obj 120 126 rpole~;
#X obj 120 101 rzero_rev~;
#X obj 120 174 rpole~;
#X obj 120 149 rzero_rev~;
#X obj 120 223 rpole~;
#X obj 120 198 rzero_rev~;
#X obj 234 61 phasor~ 0.3;
#X obj 73 16 inlet~;
#X obj 73 297 outlet~;
#X obj 234 32 inlet modfreq;
#X obj 234 93 expr~ 1 - 0.03 - 0.6*abs($v1-0.5)*abs($v1-0.5);
#X obj 120 266 *~;
#X obj 379 31 inlet;
#X obj 134 14 r~ \$0-fb-r;
#X obj 157 323 s~ \$0-fb-r;
#X obj 155 293 *~ 0.8;
#X connect 0 0 3 0;
#X connect 1 0 0 0;
#X connect 2 0 5 0;
#X connect 3 0 2 0;
#X connect 4 0 7 0;
#X connect 5 0 4 0;
#X connect 6 0 13 0;
#X connect 7 0 6 0;
#X connect 8 0 12 0;
#X connect 9 0 1 0;
#X connect 9 0 10 0;
#X connect 11 0 8 0;
#X connect 12 0 1 1;
#X connect 12 0 0 1;
#X connect 12 0 3 1;
#X connect 12 0 2 1;
#X connect 12 0 5 1;
#X connect 12 0 4 1;
#X connect 12 0 7 1;
#X connect 12 0 6 1;
#X connect 13 0 10 0;
#X connect 13 0 17 0;
#X connect 14 0 13 1;
#X connect 15 0 1 0;
#X connect 17 0 16 0;
#X restore 411 462 pd phaser;
#N canvas 618 257 628 370 phaser 0;
#X obj 94 74 rpole~;
#X obj 94 49 rzero_rev~;
#X obj 94 123 rpole~;
#X obj 94 98 rzero_rev~;
#X obj 94 171 rpole~;
#X obj 94 146 rzero_rev~;
#X obj 94 220 rpole~;
#X obj 94 195 rzero_rev~;
#X obj 208 58 phasor~ 0.3;
#X obj 47 13 inlet~;
#X obj 47 294 outlet~;
#X obj 208 29 inlet modfreq;
#X obj 208 90 expr~ 1 - 0.03 - 0.6*abs($v1-0.5)*abs($v1-0.5);
#X obj 94 263 *~;
#X obj 353 28 inlet;
#X obj 157 323 s~ \$0-fb;
#X obj 134 14 r~ \$0-fb;
#X obj 155 294 *~ 0.8;
#X connect 0 0 3 0;
#X connect 1 0 0 0;
#X connect 2 0 5 0;
#X connect 3 0 2 0;
#X connect 4 0 7 0;
#X connect 5 0 4 0;
#X connect 6 0 13 0;
#X connect 7 0 6 0;
#X connect 8 0 12 0;
#X connect 9 0 1 0;
#X connect 9 0 10 0;
#X connect 11 0 8 0;
#X connect 12 0 1 1;
#X connect 12 0 0 1;
#X connect 12 0 3 1;
#X connect 12 0 2 1;
#X connect 12 0 5 1;
#X connect 12 0 4 1;
#X connect 12 0 7 1;
#X connect 12 0 6 1;
#X connect 13 0 10 0;
#X connect 13 0 17 0;
#X connect 14 0 13 1;
#X connect 16 0 1 0;
#X connect 17 0 15 0;
#X restore 300 462 pd phaser;
#X obj 41 378 soundoutput;
#X obj 41 324 r player1;
#X obj 133 321 r player2;
#X obj 227 322 r player3;
#X obj 329 324 r player4;
#X obj 226 348 samplelooper;
#X obj 132 348 samplelooper;
#X obj 328 350 samplelooper;
#X obj 41 348 samplelooper;
#X obj 132 379 soundoutput;
#X obj 226 380 soundoutput;
#X obj 546 64 avg~;
#X msg 116 120 \; pd dsp 1 \; inputvolume 1 \; mastervolume 1;
#X obj 46 46 *~ 10;
#X obj 45 207 r phase;
#X obj 47 230 == 2;
#X obj 82 227 == 3;
#X obj 46 254 ||;
#X connect 0 0 41 0;
#X connect 0 0 2 0;
#X connect 2 0 1 0;
#X connect 4 0 3 0;
#X connect 6 0 8 1;
#X connect 7 0 8 0;
#X connect 9 0 10 0;
#X connect 10 0 11 0;
#X connect 10 0 15 0;
#X connect 12 0 13 0;
#X connect 13 0 24 0;
#X connect 13 0 25 0;
#X connect 13 0 27 1;
#X connect 14 0 40 0;
#X connect 15 0 12 0;
#X connect 18 0 42 0;
#X connect 22 0 26 0;
#X connect 25 0 23 0;
#X connect 25 0 28 1;
#X connect 26 0 27 2;
#X connect 26 0 28 2;
#X connect 27 0 21 1;
#X connect 28 0 21 0;
#X connect 30 0 37 0;
#X connect 31 0 35 0;
#X connect 32 0 34 0;
#X connect 33 0 36 0;
#X connect 34 0 39 0;
#X connect 34 1 39 1;
#X connect 35 0 38 0;
#X connect 35 1 38 1;
#X connect 36 0 21 0;
#X connect 36 0 28 0;
#X connect 36 1 21 1;
#X connect 36 1 27 0;
#X connect 37 0 29 0;
#X connect 37 1 29 1;
#X connect 40 0 9 0;
#X connect 42 0 19 0;
#X connect 43 0 44 0;
#X connect 43 0 45 0;
#X connect 44 0 46 0;
#X connect 45 0 46 1;
#X connect 46 0 16 0;
