#N canvas 15 34 761 668 10;
#N canvas 0 22 727 430 biquad~ 0;
#X obj 66 25 inlet~;
#X obj 67 369 outlet~;
#X obj 193 369 outlet~;
#X obj 335 369 outlet~;
#X obj 66 80 biquad~ 1.86972 -0.872325 0.000650245 0.00130049 0.000650245
;
#X text 185 59 lo x3;
#X obj 66 100 biquad~ 1.86972 -0.872325 0.000650245 0.00130049 0.000650245
;
#X obj 66 120 biquad~ 1.86972 -0.872325 0.000650245 0.00130049 0.000650245
;
#X obj 194 172 biquad~ 1.36591 -0.385279 0.307361 0 -0.307361;
#X text 329 152 mid x3;
#X obj 194 192 biquad~ 1.36591 -0.385279 0.307361 0 -0.307361;
#X obj 194 212 biquad~ 1.36591 -0.385279 0.307361 0 -0.307361;
#X obj 336 263 biquad~ 1.63386 -0.729864 0.840931 -1.68186 0.840931
;
#X text 476 241 hi x2;
#X obj 336 283 biquad~ 1.63386 -0.729864 0.840931 -1.68186 0.840931
;
#X connect 0 0 4 0;
#X connect 0 0 8 0;
#X connect 0 0 12 0;
#X connect 4 0 6 0;
#X connect 6 0 7 0;
#X connect 7 0 1 0;
#X connect 8 0 10 0;
#X connect 10 0 11 0;
#X connect 11 0 2 0;
#X connect 12 0 14 0;
#X connect 14 0 3 0;
#X restore 195 54 pd biquad~;
#X obj 339 84 env~ 8192;
#X obj 194 112 pack f f f;
#X obj 266 83 env~ 8192;
#X obj 194 83 env~ 8192;
#X obj 194 153 t a a;
#X obj 314 128 unpack f f f;
#X obj 314 148 +;
#X obj 314 169 +;
#X obj 314 190 pow -1;
#X obj 194 185 unpack f f f;
#X obj 194 239 *;
#X obj 234 239 *;
#X obj 275 240 *;
#X obj 194 449 vsl 15 128 0 1 0 0 empty empty empty 0 -9 0 10 -262144
-1 -1 2334 1;
#X obj 234 447 vsl 15 128 0 1 0 0 empty empty empty 0 -9 0 10 -262144
-1 -1 1311 1;
#X obj 275 447 vsl 15 128 0 1 0 0 empty empty empty 0 -9 0 10 -262144
-1 -1 0 1;
#N canvas 66 389 145 195 hip 0;
#X obj 19 12 inlet;
#X obj 19 41 t a a;
#X obj 51 89 +;
#X obj 19 115 -;
#X obj 19 140 outlet;
#X obj 51 66 * 0.03;
#X obj 87 91 * 0.97;
#X connect 0 0 1 0;
#X connect 1 0 3 0;
#X connect 1 1 5 0;
#X connect 2 0 3 1;
#X connect 2 0 6 0;
#X connect 3 0 4 0;
#X connect 5 0 2 0;
#X connect 6 0 2 1;
#X restore 194 306 pd hip;
#N canvas 200 439 145 195 hip 0;
#X obj 19 12 inlet;
#X obj 19 41 t a a;
#X obj 51 89 +;
#X obj 19 115 -;
#X obj 19 140 outlet;
#X obj 51 66 * 0.03;
#X obj 87 91 * 0.97;
#X connect 0 0 1 0;
#X connect 1 0 3 0;
#X connect 1 1 5 0;
#X connect 2 0 3 1;
#X connect 2 0 6 0;
#X connect 3 0 4 0;
#X connect 5 0 2 0;
#X connect 6 0 2 1;
#X restore 234 284 pd hip;
#N canvas 200 439 145 195 hip 0;
#X obj 19 12 inlet;
#X obj 19 41 t a a;
#X obj 51 89 +;
#X obj 19 115 -;
#X obj 19 140 outlet;
#X obj 51 66 * 0.03;
#X obj 87 90 * 0.97;
#X connect 0 0 1 0;
#X connect 1 0 3 0;
#X connect 1 1 5 0;
#X connect 2 0 3 1;
#X connect 2 0 6 0;
#X connect 3 0 4 0;
#X connect 5 0 2 0;
#X connect 6 0 2 1;
#X restore 275 263 pd hip;
#X obj 194 328 *;
#X obj 234 327 *;
#X obj 275 330 *;
#X obj 343 275 loadbang;
#N canvas 200 439 145 195 lop 0;
#X obj 19 12 inlet;
#X obj 19 63 +;
#X obj 19 90 outlet;
#X obj 19 40 * 0.3;
#X obj 55 64 * 0.7;
#X connect 0 0 3 0;
#X connect 1 0 2 0;
#X connect 1 0 4 0;
#X connect 3 0 1 0;
#X connect 4 0 1 1;
#X restore 275 360 pd lop;
#N canvas 200 439 145 195 lop 0;
#X obj 19 12 inlet;
#X obj 19 63 +;
#X obj 19 90 outlet;
#X obj 19 40 * 0.3;
#X obj 55 64 * 0.7;
#X connect 0 0 3 0;
#X connect 1 0 2 0;
#X connect 1 0 4 0;
#X connect 3 0 1 0;
#X connect 4 0 1 1;
#X restore 234 380 pd lop;
#N canvas 200 439 145 195 lop 0;
#X obj 19 12 inlet;
#X obj 19 63 +;
#X obj 19 90 outlet;
#X obj 19 40 * 0.3;
#X obj 55 64 * 0.7;
#X connect 0 0 3 0;
#X connect 1 0 2 0;
#X connect 1 0 4 0;
#X connect 3 0 1 0;
#X connect 4 0 1 1;
#X restore 194 400 pd lop;
#X msg 344 298 20;
#X obj 177 23 soundinput;
#X obj 236 616 vsl 15 128 -1 1 0 0 empty empty empty 0 -9 0 10 -262144
-1 -1 7729 1;
#X obj 150 621 vsl 15 128 -1 1 0 0 empty empty empty 0 -9 0 10 -262144
-1 -1 9935 1;
#X obj 276 616 vsl 15 128 -1 1 0 0 empty empty empty 0 -9 0 10 -262144
-1 -1 4834 1;
#X floatatom 404 496 5 0 10 0 - - -;
#X obj 150 592 lchange_lpf;
#X obj 311 650 s energylow;
#X obj 404 651 s energymid;
#X obj 495 650 s energyhi;
#X obj 329 593 lchange_lpf;
#X obj 235 589 lchange_lpf;
#X connect 0 0 4 0;
#X connect 0 1 3 0;
#X connect 0 2 1 0;
#X connect 1 0 2 2;
#X connect 2 0 5 0;
#X connect 3 0 2 1;
#X connect 4 0 2 0;
#X connect 5 0 10 0;
#X connect 5 1 6 0;
#X connect 6 0 7 0;
#X connect 6 1 7 1;
#X connect 6 2 8 1;
#X connect 7 0 8 0;
#X connect 8 0 9 0;
#X connect 9 0 11 1;
#X connect 9 0 12 1;
#X connect 9 0 13 1;
#X connect 10 0 11 0;
#X connect 10 1 12 0;
#X connect 10 2 13 0;
#X connect 11 0 17 0;
#X connect 12 0 18 0;
#X connect 13 0 19 0;
#X connect 14 0 33 0;
#X connect 15 0 38 0;
#X connect 16 0 37 0;
#X connect 17 0 20 0;
#X connect 18 0 21 0;
#X connect 19 0 22 0;
#X connect 20 0 26 0;
#X connect 21 0 25 0;
#X connect 22 0 24 0;
#X connect 23 0 27 0;
#X connect 24 0 16 0;
#X connect 25 0 15 0;
#X connect 26 0 14 0;
#X connect 27 0 22 1;
#X connect 27 0 21 1;
#X connect 27 0 20 1;
#X connect 28 0 0 0;
#X connect 28 1 0 0;
#X connect 32 0 33 1;
#X connect 32 0 37 1;
#X connect 32 0 38 1;
#X connect 33 0 30 0;
#X connect 33 0 34 0;
#X connect 37 0 31 0;
#X connect 37 0 36 0;
#X connect 38 0 29 0;
#X connect 38 0 35 0;
