#N canvas 460 67 824 593 10;
#X obj 339 275 -;
#X obj 289 442 tanh;
#X obj 356 303 /;
#X text 370 383 Sensitivity Gain;
#X text 348 445 Squashing function;
#X obj 170 228 +;
#X obj 359 199 +;
#X obj 391 200 * 0.99;
#X obj 306 63 inlet;
#X text 475 149 short-term loudness;
#X text 445 199 long-term loudness;
#X text 329 38 sensitivity gain;
#X obj 142 64 inlet;
#X obj 288 473 outlet;
#X text 177 36 input;
#X obj 358 222 * 0.01;
#X obj 402 179 -;
#X msg 403 157 1 \$1;
#X floatatom 458 73 5 0 0 0 - - -;
#X obj 457 95 * 0.001;
#X floatatom 457 121 5 0 0 0 - - -;
#X obj 358 244 t f f;
#X text 258 134 short-term loudness;
#X obj 176 181 -;
#X msg 177 159 1 \$1;
#X floatatom 199 96 5 0 0 0 - - -;
#X obj 198 118 * 0.001;
#X floatatom 199 141 5 0 0 0 - - -;
#X obj 190 204 * 0.96;
#X obj 169 255 * 0.04;
#X obj 290 415 * 2;
#X connect 0 0 2 0;
#X connect 1 0 13 0;
#X connect 2 0 30 0;
#X connect 5 0 28 0;
#X connect 5 0 29 0;
#X connect 6 0 7 0;
#X connect 6 0 15 0;
#X connect 7 0 6 1;
#X connect 8 0 30 1;
#X connect 12 0 5 0;
#X connect 12 0 6 0;
#X connect 15 0 21 0;
#X connect 16 0 15 1;
#X connect 17 0 16 0;
#X connect 18 0 19 0;
#X connect 19 0 20 0;
#X connect 20 0 17 0;
#X connect 20 0 7 1;
#X connect 21 0 0 1;
#X connect 21 1 2 1;
#X connect 23 0 29 1;
#X connect 24 0 23 0;
#X connect 25 0 26 0;
#X connect 26 0 27 0;
#X connect 27 0 24 0;
#X connect 27 0 28 1;
#X connect 28 0 5 1;
#X connect 29 0 0 0;
#X connect 30 0 1 0;
