#N canvas 322 22 790 807 10;
#X msg 261 57 phrygian;
#X msg 330 33 pentatonic;
#X msg 328 59 mixolydian;
#X obj 300 144 s mode;
#X msg 262 30 aeolian;
#X msg 242 80 ionian;
#X msg 326 83 dorian;
#X msg 324 103 lydian;
#X obj 188 184 r mode;
#X obj 284 176 + 1;
#X obj 311 176 % 8;
#X obj 253 151 bng 15 250 50 0 empty empty empty 17 7 0 10 -262144
-1 -1;
#X obj 447 245 mtof;
#X floatatom 323 210 5 0 0 0 - - -;
#X obj 258 175 f 0;
#X obj 257 200 + 1;
#X obj 41 335 moses;
#X obj 76 284 +;
#X obj 72 310 / 2;
#X obj 71 355 moses;
#X obj 106 284 +;
#X obj 102 310 / 2;
#X obj 111 335 moses;
#X obj 146 284 +;
#X obj 142 310 / 2;
#X obj 141 357 moses;
#X obj 176 284 +;
#X obj 172 310 / 2;
#X obj 33 389 bng 15 250 50 0 empty empty empty 17 7 0 10 -262144 -1
-1;
#X obj 73 388 bng 15 250 50 0 empty empty empty 17 7 0 10 -262144 -1
-1;
#X obj 111 396 bng 15 250 50 0 empty empty empty 17 7 0 10 -262144
-1 -1;
#X obj 148 396 bng 15 250 50 0 empty empty empty 17 7 0 10 -262144
-1 -1;
#X obj 185 397 bng 15 250 50 0 empty empty empty 17 7 0 10 -262144
-1 -1;
#X obj 181 335 moses;
#X obj 212 284 +;
#X obj 212 310 / 2;
#X obj 211 357 moses;
#X obj 242 284 +;
#X obj 242 310 / 2;
#X obj 211 396 bng 15 250 50 0 empty empty empty 17 7 0 10 -262144
-1 -1;
#X obj 248 396 bng 15 250 50 0 empty empty empty 17 7 0 10 -262144
-1 -1;
#X msg 31 422 1;
#X msg 70 420 2;
#X msg 104 422 3;
#X msg 148 422 4;
#X msg 185 423 5;
#X msg 218 423 6;
#X obj 25 232 t f f;
#X obj 24 261 -;
#X obj 29 207 / 12;
#X obj 54 250 int;
#X obj 24 283 * 12;
#X obj 479 101 * 12;
#X obj 464 145 +;
#X obj 531 312 vline~;
#X obj 378 376 *~;
#X msg 526 251 0.5;
#X obj 26 182 ftom;
#X obj 25 140 change;
#X obj 96 481 f;
#X obj 106 505 change;
#X obj 82 551 d-debounce;
#X obj 81 523 t b f;
#X obj 79 582 f;
#X obj 479 124 +;
#X obj 142 191 f;
#X floatatom 139 157 5 0 0 0 - - -;
#X msg 235 109 locrian;
#X obj 448 267 * 1;
#X msg 531 282 0 10 \, 1 20 10 \, 0 100 30;
#X msg 426 54 1;
#X obj 143 116 loadbang;
#X msg 141 137 6;
#X obj 447 223 f;
#X obj 417 103 r beat;
#X obj 418 123 del 50;
#X obj 447 203 spigot 0;
#X obj 499 161 change;
#X obj 418 154 t b b;
#X msg 498 181 1;
#X msg 469 181 0;
#X msg 588 329 timediff 1;
#X obj 372 296 osc~;
#X obj 141 223 d-modes aeolian;
#X msg 581 310 time 750;
#X obj 447 335 lop~ 1000;
#X obj 446 314 lop~ 5500;
#X obj 383 274 * 2;
#X obj 363 333 hip~ 4000;
#X obj 226 6 loadbang;
#X obj 599 236 loadbang;
#X obj 26 21 r~ inleft;
#X obj 74 41 r~ inright;
#X obj 26 73 aubiopitch~;
#X obj 447 378 *~;
#X msg 602 354 flutter 0.02;
#X obj 533 686 throw~ left;
#X obj 390 688 throw~ right;
#X obj 448 288 osc~;
#X obj 390 412 d-fbdelay~;
#X msg 591 377 hi 300 \, lo 8000;
#X obj 442 637 reverb;
#X floatatom 551 574 5 0 0 0 - - -;
#X floatatom 82 180 5 0 0 0 - - -;
#X obj 390 616 *~ 0.5;
#X obj 442 614 *~ 0.5;
#X obj 533 614 *~ 0.5;
#X obj 552 535 loadbang;
#X msg 552 555 70;
#X obj 26 96 int;
#X obj 26 115 moses 90;
#X connect 0 0 3 0;
#X connect 1 0 3 0;
#X connect 2 0 3 0;
#X connect 4 0 3 0;
#X connect 5 0 3 0;
#X connect 6 0 3 0;
#X connect 7 0 3 0;
#X connect 8 0 83 1;
#X connect 9 0 10 0;
#X connect 10 0 14 1;
#X connect 11 0 14 0;
#X connect 12 0 68 0;
#X connect 12 0 87 0;
#X connect 14 0 9 0;
#X connect 14 0 13 0;
#X connect 14 0 15 0;
#X connect 15 0 83 2;
#X connect 16 0 28 0;
#X connect 16 0 41 0;
#X connect 16 1 19 0;
#X connect 17 0 18 0;
#X connect 18 0 16 1;
#X connect 19 0 29 0;
#X connect 19 0 42 0;
#X connect 19 1 22 0;
#X connect 20 0 21 0;
#X connect 21 0 19 1;
#X connect 22 0 30 0;
#X connect 22 0 43 0;
#X connect 22 1 25 0;
#X connect 23 0 24 0;
#X connect 24 0 22 1;
#X connect 25 0 31 0;
#X connect 25 0 44 0;
#X connect 25 1 33 0;
#X connect 26 0 27 0;
#X connect 27 0 25 1;
#X connect 33 0 32 0;
#X connect 33 0 45 0;
#X connect 33 1 36 0;
#X connect 34 0 35 0;
#X connect 35 0 33 1;
#X connect 36 0 39 0;
#X connect 36 0 46 0;
#X connect 36 1 40 0;
#X connect 37 0 38 0;
#X connect 38 0 36 1;
#X connect 41 0 59 0;
#X connect 42 0 59 0;
#X connect 43 0 59 0;
#X connect 44 0 59 0;
#X connect 45 0 59 0;
#X connect 46 0 59 0;
#X connect 47 0 48 0;
#X connect 47 1 50 0;
#X connect 48 0 51 0;
#X connect 49 0 47 0;
#X connect 50 0 48 1;
#X connect 50 0 52 0;
#X connect 51 0 16 0;
#X connect 52 0 64 0;
#X connect 53 0 73 1;
#X connect 53 0 77 0;
#X connect 54 0 55 1;
#X connect 54 0 94 1;
#X connect 55 0 99 0;
#X connect 56 0 69 0;
#X connect 57 0 49 0;
#X connect 58 0 57 0;
#X connect 59 0 60 0;
#X connect 59 0 62 0;
#X connect 60 0 63 0;
#X connect 61 0 63 0;
#X connect 62 0 61 0;
#X connect 62 1 63 1;
#X connect 63 0 83 2;
#X connect 64 0 53 1;
#X connect 65 0 64 1;
#X connect 65 0 83 0;
#X connect 66 0 65 0;
#X connect 67 0 3 0;
#X connect 68 0 98 0;
#X connect 69 0 54 0;
#X connect 70 0 83 2;
#X connect 71 0 72 0;
#X connect 72 0 66 0;
#X connect 73 0 12 0;
#X connect 73 0 56 0;
#X connect 74 0 75 0;
#X connect 75 0 78 0;
#X connect 76 0 73 0;
#X connect 77 0 79 0;
#X connect 78 0 80 0;
#X connect 78 1 76 0;
#X connect 79 0 76 1;
#X connect 80 0 76 1;
#X connect 81 0 99 2;
#X connect 82 0 88 0;
#X connect 83 0 17 0;
#X connect 83 1 17 1;
#X connect 83 1 20 0;
#X connect 83 2 20 1;
#X connect 83 2 23 0;
#X connect 83 3 23 1;
#X connect 83 3 26 0;
#X connect 83 4 26 1;
#X connect 83 4 34 0;
#X connect 83 5 34 1;
#X connect 83 5 37 0;
#X connect 83 6 37 1;
#X connect 83 8 53 0;
#X connect 84 0 99 2;
#X connect 85 0 94 0;
#X connect 86 0 85 0;
#X connect 87 0 82 0;
#X connect 88 0 55 0;
#X connect 89 0 4 0;
#X connect 90 0 84 0;
#X connect 90 0 95 0;
#X connect 91 0 93 0;
#X connect 92 0 93 0;
#X connect 93 0 109 0;
#X connect 94 0 99 1;
#X connect 95 0 99 2;
#X connect 98 0 86 0;
#X connect 99 0 104 0;
#X connect 99 0 105 0;
#X connect 99 1 106 0;
#X connect 100 0 99 2;
#X connect 101 0 97 0;
#X connect 101 1 96 0;
#X connect 102 0 101 1;
#X connect 103 0 49 0;
#X connect 104 0 97 0;
#X connect 105 0 101 0;
#X connect 106 0 96 0;
#X connect 107 0 108 0;
#X connect 108 0 102 0;
#X connect 109 0 110 0;
#X connect 110 0 58 0;
