#N canvas 424 305 626 417 10;
#X obj 57 17 inlet;
#X obj 58 289 outlet~;
#X obj 115 289 outlet~;
#X obj 289 41 openpanel;
#X msg 288 62 open \$1;
#X msg 290 19 bang;
#X obj 149 257 bng 15 250 50 0 empty empty empty 17 7 0 10 -262144
-1 -1;
#X msg 135 17 bang;
#X msg 172 17 loop 1;
#X msg 102 18 0;
#X msg 228 17 loop 0;
#X obj 57 219 readsf~ 2;
#X msg 142 143 1;
#X obj 308 223 readsf~ 2;
#X obj 285 157 tgl 15 0 empty empty empty 17 7 0 10 -262144 -1 -1 0
1;
#X obj 327 156 == 0;
#X obj 302 190 spigot 0;
#X obj 236 190 spigot 0;
#X obj 58 73 delay 50;
#X obj 58 93 t b b b;
#X msg 178 142 0;
#X obj 57 52 route bang stop;
#X obj 123 73 delay 50;
#X obj 123 93 t b b;
#X connect 0 0 21 0;
#X connect 3 0 4 0;
#X connect 4 0 11 0;
#X connect 5 0 3 0;
#X connect 7 0 11 0;
#X connect 8 0 11 0;
#X connect 9 0 11 0;
#X connect 10 0 11 0;
#X connect 11 0 1 0;
#X connect 11 1 2 0;
#X connect 11 2 6 0;
#X connect 12 0 16 0;
#X connect 12 0 17 0;
#X connect 13 0 1 0;
#X connect 13 1 2 0;
#X connect 14 0 15 0;
#X connect 14 0 17 1;
#X connect 15 0 16 1;
#X connect 16 0 13 0;
#X connect 17 0 11 0;
#X connect 18 0 19 0;
#X connect 19 0 20 0;
#X connect 19 1 14 0;
#X connect 19 2 12 0;
#X connect 20 0 17 0;
#X connect 20 0 16 0;
#X connect 21 0 18 0;
#X connect 21 1 22 0;
#X connect 21 2 17 0;
#X connect 21 2 16 0;
#X connect 22 0 23 0;
#X connect 23 0 20 0;
#X connect 23 1 14 0;
