#N canvas 415 156 767 576 10;
#X obj 23 20 r phase;
#X obj 51 102 sel \$1;
#X obj 433 551 s \$2;
#X obj 310 403 symbol \$4;
#X obj 433 403 symbol \$6;
#X obj 551 401 symbol \$8;
#X obj 311 230 f 0;
#X obj 342 230 + 1;
#X obj 372 230 % \$5;
#X obj 431 230 f 0;
#X obj 464 230 + 1;
#X obj 551 230 f 0;
#X obj 584 230 + 1;
#X obj 496 230 % \$7;
#X obj 615 230 % \$9;
#X obj 310 348 spigot 0;
#X obj 432 350 spigot 0;
#X obj 551 348 spigot 0;
#X obj 361 311 == 0;
#X obj 483 312 == 1;
#X obj 602 311 == 2;
#X obj 21 48 t a a;
#X obj 327 103 change;
#X obj 327 131 spigot 0;
#X obj 378 103 == \$1;
#X text 227 82 only go if we're on the correct phase (== \$1);
#X obj 431 103 r beat;
#X obj 431 131 spigot 0;
#X msg 309 468 bang \, open \$1;
#X msg 327 153 0;
#X obj 550 253 sel 0;
#X obj 432 254 sel 0;
#X obj 310 253 sel 0;
#X obj 310 424 sel null;
#X msg 296 444 stop;
#X obj 51 133 random \$3;
#X obj 52 256 t a b;
#X obj 67 167 change;
#X text 58 186 retrigger when we select new sample;
#X text 308 167 retrigger on downbeat;
#X text 233 46 eg sfile 1 player3 2 bass-1.wav 16 null 16;
#X text 106 24;
#X text 231 1 arguments: sfile <phase> <player> <num samples (max 3)>
<sample.wav|null> <length in 1/4 beats> [<sample.wav|null> <length
in 1/4 beats> [...]];
#X msg 432 467 bang \, open \$1;
#X obj 433 423 sel null;
#X msg 416 445 stop;
#X msg 550 466 bang \, open \$1;
#X obj 550 422 sel null;
#X msg 541 441 stop;
#X connect 0 0 21 0;
#X connect 1 0 35 0;
#X connect 3 0 33 0;
#X connect 4 0 44 0;
#X connect 5 0 47 0;
#X connect 6 0 7 0;
#X connect 6 0 32 0;
#X connect 7 0 8 0;
#X connect 8 0 6 1;
#X connect 9 0 10 0;
#X connect 9 0 31 0;
#X connect 10 0 13 0;
#X connect 11 0 12 0;
#X connect 11 0 30 0;
#X connect 12 0 14 0;
#X connect 13 0 9 1;
#X connect 14 0 11 1;
#X connect 15 0 3 0;
#X connect 16 0 4 0;
#X connect 17 0 5 0;
#X connect 18 0 15 1;
#X connect 19 0 16 1;
#X connect 20 0 17 1;
#X connect 21 0 22 0;
#X connect 21 1 1 0;
#X connect 21 1 24 0;
#X connect 22 0 23 0;
#X connect 23 0 29 0;
#X connect 24 0 23 1;
#X connect 24 0 27 1;
#X connect 26 0 27 0;
#X connect 27 0 6 0;
#X connect 27 0 9 0;
#X connect 27 0 11 0;
#X connect 28 0 2 0;
#X connect 29 0 6 1;
#X connect 29 0 9 1;
#X connect 29 0 11 1;
#X connect 30 0 17 0;
#X connect 31 0 16 0;
#X connect 32 0 15 0;
#X connect 33 0 34 0;
#X connect 33 1 28 0;
#X connect 34 0 2 0;
#X connect 35 0 36 0;
#X connect 35 0 37 0;
#X connect 36 0 18 0;
#X connect 36 0 19 0;
#X connect 36 0 20 0;
#X connect 37 0 23 0;
#X connect 43 0 2 0;
#X connect 44 0 45 0;
#X connect 44 1 43 0;
#X connect 45 0 2 0;
#X connect 46 0 2 0;
#X connect 47 0 48 0;
#X connect 47 1 46 0;
#X connect 48 0 2 0;
