#N canvas 212 73 719 420 10;
#X obj 118 43 inlet~;
#X obj 195 43 inlet~;
#X obj 115 179 vcf~ 4;
#X obj 192 181 vcf~ 4;
#X obj 271 41 inlet;
#X obj 113 265 outlet~;
#X obj 191 265 outlet~;
#X msg 271 77 bang;
#X obj 213 147 vline~;
#X obj 134 146 vline~;
#X msg 133 113 400 2000 \, 6000 2000 2000;
#X msg 311 114 6000 2000 \, 400 2000 2000;
#X connect 0 0 2 0;
#X connect 1 0 3 0;
#X connect 2 0 5 0;
#X connect 3 0 6 0;
#X connect 4 0 7 0;
#X connect 7 0 11 0;
#X connect 7 0 10 0;
#X connect 8 0 3 1;
#X connect 9 0 2 1;
#X connect 10 0 9 0;
#X connect 11 0 8 0;
