#N canvas 450 82 1035 693 10;
#X obj 112 293 bass;
#X obj 112 110 f;
#X obj 147 111 + 1;
#X obj 113 66 tgl 15 0 empty empty empty 17 7 0 10 -262144 -1 -1 1
1;
#X floatatom 178 64 5 0 0 0 - - -;
#X obj 303 382 percsamp ride.wav;
#X obj 780 470 noise~;
#X obj 303 318 random 10;
#X obj 303 338 / 20;
#X obj 302 358 + 0.5;
#X obj 878 513 vline~;
#X obj 878 429 r beat;
#X obj 113 139 s beat;
#X obj 220 129 r beat;
#X obj 186 89 s bpm;
#X obj 183 111 % 32768;
#X obj 879 448 % 8;
#X obj 159 520 soundoutput;
#X obj 113 261 walking;
#X obj 112 237 r beat;
#X obj 780 511 *~ 1000;
#X obj 780 532 clip~ -1 1;
#X obj 780 554 vcf~ 2;
#X obj 780 575 *~ 0.003;
#X obj 780 490 lop~ 2000;
#X msg 878 492 1400 200 \, 200 1200 200;
#X obj 728 604 *~ 1;
#X obj 780 604 *~ 2;
#X obj 113 89 metro 250;
#X obj 113 38 loadbang;
#X obj 182 433 rev2~;
#X floatatom 225 357 5 0 0 0 - - -;
#X msg 226 333 96;
#X obj 226 313 loadbang;
#X obj 510 272 mtof;
#X obj 656 480 r beat;
#X obj 510 247 + 24;
#X obj 649 540 moses 32;
#X obj 656 517 % 64;
#X obj 879 469 sel 0 2 4;
#X obj 510 386 *~;
#X msg 433 624 bang;
#X obj 432 672 sel 1;
#X obj 610 325 vline~;
#X obj 433 562 % 8;
#X obj 432 582 sel 0 1 2 3 4 5 6 7;
#X obj 509 334 phasor~;
#X obj 433 648 random 2;
#X obj 592 581 random 2;
#X obj 592 628 + 27;
#X obj 663 670 + 32;
#X msg 667 563 bang;
#X msg 592 559 bang;
#X obj 591 603 * 5;
#X obj 665 582 random 2;
#X obj 662 606 sel 0 1 2;
#X msg 651 632 0;
#X msg 682 633 -7;
#X msg 726 637 -2;
#X obj 510 311 line~;
#X msg 511 291 \$1 10;
#X obj 810 37 r #accelerate;
#X obj 810 61 unpack 0 0 0;
#X obj 710 110 -;
#X msg 708 200 bang;
#X obj 708 155 change;
#X obj 709 177 sel 1;
#X obj 713 82 t f f;
#X obj 765 110 -;
#X msg 763 200 bang;
#X obj 763 155 change;
#X obj 764 177 sel 1;
#X obj 768 82 t f f;
#X obj 934 137 -;
#X msg 932 227 bang;
#X obj 932 182 change;
#X obj 933 204 sel 1;
#X obj 937 109 t f f;
#X msg 504 174 0;
#X msg 540 146 -7;
#X msg 612 126 -2;
#X msg 453 109 27;
#X msg 486 111 32;
#X obj 454 77 moses 32;
#X obj 513 224 + 32;
#X obj 432 532 r beat;
#X obj 611 273 spigot;
#X msg 705 246 0;
#X obj 453 33 r beat;
#X msg 205 38 100;
#X obj 221 150 % 24;
#X obj 222 174 sel 0 3 5 6 9 11 12 15 17 18 21 23;
#X obj 710 133 < -1.5;
#X obj 763 133 > 1.5;
#X obj 933 160 < -2;
#X obj 455 57 % 96;
#X obj 113 330 *~ 3;
#X obj 164 329 *~ 3;
#X obj 277 427 *~ 0.4;
#X obj 330 428 *~ 0.8;
#X msg 573 122 -9;
#X obj 832 119 -;
#X msg 830 209 bang;
#X obj 830 164 change;
#X obj 831 186 sel 1;
#X obj 835 91 t f f;
#X obj 830 142 > 1.5;
#X msg 611 301 0.5 10 \, 0 800 50;
#X obj 583 188 r beat;
#X obj 584 208 % 3;
#X obj 583 228 sel 0 1;
#X msg 669 235 1;
#X connect 0 0 96 0;
#X connect 0 0 97 0;
#X connect 1 0 2 0;
#X connect 1 0 12 0;
#X connect 2 0 15 0;
#X connect 3 0 28 0;
#X connect 4 0 14 0;
#X connect 4 0 28 1;
#X connect 5 0 98 0;
#X connect 5 0 99 0;
#X connect 6 0 24 0;
#X connect 7 0 8 0;
#X connect 8 0 9 0;
#X connect 9 0 5 0;
#X connect 10 0 22 1;
#X connect 11 0 16 0;
#X connect 13 0 90 0;
#X connect 15 0 1 1;
#X connect 16 0 39 0;
#X connect 18 0 0 0;
#X connect 19 0 18 0;
#X connect 20 0 21 0;
#X connect 21 0 22 0;
#X connect 22 0 23 0;
#X connect 23 0 26 0;
#X connect 23 0 27 0;
#X connect 24 0 20 0;
#X connect 25 0 10 0;
#X connect 28 0 1 0;
#X connect 29 0 3 0;
#X connect 29 0 89 0;
#X connect 30 0 17 0;
#X connect 30 1 17 1;
#X connect 31 0 30 1;
#X connect 32 0 31 0;
#X connect 33 0 32 0;
#X connect 34 0 60 0;
#X connect 35 0 38 0;
#X connect 36 0 34 0;
#X connect 37 0 52 0;
#X connect 37 1 51 0;
#X connect 38 0 37 0;
#X connect 39 0 25 0;
#X connect 40 0 30 0;
#X connect 41 0 47 0;
#X connect 43 0 40 1;
#X connect 44 0 45 0;
#X connect 45 0 41 0;
#X connect 45 2 41 0;
#X connect 45 3 41 0;
#X connect 45 5 41 0;
#X connect 46 0 40 0;
#X connect 47 0 42 0;
#X connect 48 0 53 0;
#X connect 51 0 54 0;
#X connect 52 0 48 0;
#X connect 53 0 49 0;
#X connect 54 0 55 0;
#X connect 55 0 56 0;
#X connect 55 1 57 0;
#X connect 55 2 58 0;
#X connect 56 0 50 0;
#X connect 57 0 50 0;
#X connect 58 0 50 0;
#X connect 59 0 46 0;
#X connect 60 0 59 0;
#X connect 61 0 62 0;
#X connect 62 0 67 0;
#X connect 62 0 72 0;
#X connect 62 1 105 0;
#X connect 62 2 77 0;
#X connect 63 0 92 0;
#X connect 64 0 78 0;
#X connect 64 0 7 0;
#X connect 65 0 66 0;
#X connect 66 0 64 0;
#X connect 67 0 63 1;
#X connect 67 1 63 0;
#X connect 68 0 93 0;
#X connect 69 0 79 0;
#X connect 69 0 7 0;
#X connect 70 0 71 0;
#X connect 71 0 69 0;
#X connect 72 0 68 1;
#X connect 72 1 68 0;
#X connect 73 0 94 0;
#X connect 74 0 80 0;
#X connect 75 0 76 0;
#X connect 76 0 74 0;
#X connect 77 0 73 1;
#X connect 77 1 73 0;
#X connect 78 0 84 0;
#X connect 79 0 84 0;
#X connect 80 0 84 0;
#X connect 81 0 84 1;
#X connect 82 0 84 1;
#X connect 83 0 81 0;
#X connect 83 1 82 0;
#X connect 84 0 36 0;
#X connect 84 0 111 0;
#X connect 85 0 44 0;
#X connect 86 0 107 0;
#X connect 86 0 87 0;
#X connect 87 0 86 1;
#X connect 88 0 95 0;
#X connect 89 0 4 0;
#X connect 90 0 91 0;
#X connect 91 0 7 0;
#X connect 91 1 7 0;
#X connect 91 2 7 0;
#X connect 91 3 7 0;
#X connect 91 4 7 0;
#X connect 91 5 7 0;
#X connect 91 6 7 0;
#X connect 91 7 7 0;
#X connect 91 8 7 0;
#X connect 91 9 7 0;
#X connect 91 10 7 0;
#X connect 91 11 7 0;
#X connect 92 0 65 0;
#X connect 93 0 70 0;
#X connect 94 0 75 0;
#X connect 95 0 83 0;
#X connect 96 0 17 0;
#X connect 96 0 30 0;
#X connect 97 0 17 1;
#X connect 98 0 17 0;
#X connect 99 0 17 1;
#X connect 99 0 30 0;
#X connect 100 0 84 0;
#X connect 101 0 106 0;
#X connect 102 0 100 0;
#X connect 103 0 104 0;
#X connect 104 0 102 0;
#X connect 105 0 101 1;
#X connect 105 1 101 0;
#X connect 106 0 103 0;
#X connect 107 0 43 0;
#X connect 108 0 109 0;
#X connect 109 0 110 0;
#X connect 110 0 86 0;
#X connect 110 2 86 0;
#X connect 111 0 86 1;
