#N canvas 174 318 744 539 10;
#X obj 24 244 *~;
#X obj 73 25 inlet;
#X obj 24 83 mtof;
#X floatatom 73 49 5 0 0 0 - - -;
#X obj 113 107 vline~;
#X obj 23 102 vline~;
#X obj 23 354 outlet~;
#X obj 23 333 vcf~ 3;
#X obj 43 311 vline~;
#X obj 23 176 osc~;
#X obj 64 178 osc~;
#X obj 116 177 osc~;
#X obj 64 156 *~ 2;
#X obj 64 198 *~ 0.5;
#X obj 116 199 *~ 0.25;
#X obj 116 157 *~ 3;
#X obj 24 265 clip~ -0.5 0.5;
#X msg 43 290 4000 10 \, 1000 300 20;
#X msg 112 86 1 20 \, 0.6 30 20 \, 0 800 60;
#X connect 0 0 16 0;
#X connect 1 0 3 0;
#X connect 2 0 5 0;
#X connect 3 0 2 0;
#X connect 3 0 18 0;
#X connect 3 0 17 0;
#X connect 4 0 0 1;
#X connect 5 0 9 0;
#X connect 5 0 12 0;
#X connect 5 0 15 0;
#X connect 7 0 6 0;
#X connect 8 0 7 1;
#X connect 9 0 0 0;
#X connect 10 0 13 0;
#X connect 11 0 14 0;
#X connect 12 0 10 0;
#X connect 13 0 0 0;
#X connect 14 0 0 0;
#X connect 15 0 11 0;
#X connect 16 0 7 0;
#X connect 17 0 8 0;
#X connect 18 0 4 0;
