#N canvas 187 333 450 300 10;
#X obj 50 193 phasor~ 10000;
#X obj 50 132 osc~ 100;
#X obj 50 173 +~ 10000;
#X obj 50 152 *~ 10000;
#X obj 50 236 outlet~;
#X obj 50 216 *~;
#X obj 231 115 inlet;
#X floatatom 165 67 5 0 0 0 - - -;
#X obj 165 87 mtof;
#X floatatom 164 108 5 0 0 0 - - -;
#X obj 115 132 *;
#X floatatom 114 109 5 0 0 0 - - -;
#X obj 231 183 *~;
#X obj 231 160 vline~;
#X msg 232 138 0.5 5 \, 0 500 20;
#X connect 0 0 5 0;
#X connect 1 0 3 0;
#X connect 2 0 0 0;
#X connect 3 0 2 0;
#X connect 5 0 4 0;
#X connect 6 0 14 0;
#X connect 7 0 8 0;
#X connect 8 0 9 0;
#X connect 9 0 2 1;
#X connect 9 0 10 1;
#X connect 10 0 3 1;
#X connect 11 0 10 0;
#X connect 12 0 5 1;
#X connect 13 0 12 0;
#X connect 13 0 12 1;
#X connect 14 0 13 0;
