#N canvas 452 216 450 300 10;
#X obj 68 253 outlet~;
#X obj 67 199 *~;
#X obj 199 93 inlet;
#X obj 75 147 *~;
#X obj 69 224 *~ 0.6;
#X floatatom 57 51 5 0 0 0 - - -;
#X obj 91 176 vline~;
#X msg 198 117 1 2 \, 0 120 2;
#X obj 57 114 phasor~ 1000;
#X floatatom 119 35 5 0 0 0 - - -;
#X obj 58 93 *~ 2000;
#X obj 57 72 osc~ 179;
#X connect 1 0 4 0;
#X connect 2 0 7 0;
#X connect 3 0 1 0;
#X connect 4 0 0 0;
#X connect 5 0 11 0;
#X connect 6 0 1 1;
#X connect 7 0 6 0;
#X connect 8 0 1 0;
#X connect 9 0 10 1;
#X connect 10 0 8 0;
#X connect 11 0 10 0;
