#N canvas 473 84 750 461 10;
#X obj 28 247 soundfiler;
#X msg 27 225 read -resize \$1 \$2;
#X obj 33 126 symbol \$1;
#X obj 35 64 loadbang;
#X msg 35 84 bang;
#X obj 34 103 t b b;
#X obj 94 417 outlet~;
#X obj 52 156 symbol \$0-sample1;
#X obj 106 134 symbol \$0-sample2;
#X obj 158 64 table \$0-sample1;
#X obj 161 84 table \$0-sample2;
#X obj 28 201 pack s s s;
#X obj 27 278 tabplay~ \$0-sample1;
#X obj 346 53 inlet;
#X obj 170 280 tabplay~ \$0-sample1;
#X obj 311 282 tabplay~ \$0-sample1;
#X obj 346 113 f;
#X obj 385 114 + 1;
#X obj 420 115 % 4;
#X obj 425 301 tabplay~ \$0-sample1;
#X obj 28 328 *~ 1;
#X obj 170 321 *~ 1;
#X obj 310 321 *~ 1;
#X obj 424 333 *~ 1;
#X obj 346 150 pack 0 0;
#X obj 347 75 t b f;
#X obj 324 191 route 0 1 2 3;
#X connect 1 0 0 0;
#X connect 2 0 11 0;
#X connect 3 0 4 0;
#X connect 4 0 5 0;
#X connect 5 0 2 0;
#X connect 5 1 7 0;
#X connect 5 1 8 0;
#X connect 7 0 11 1;
#X connect 8 0 11 2;
#X connect 11 0 1 0;
#X connect 12 0 20 0;
#X connect 13 0 25 0;
#X connect 14 0 21 0;
#X connect 15 0 22 0;
#X connect 16 0 17 0;
#X connect 16 0 24 0;
#X connect 17 0 18 0;
#X connect 18 0 16 1;
#X connect 19 0 23 0;
#X connect 20 0 6 0;
#X connect 21 0 6 0;
#X connect 22 0 6 0;
#X connect 23 0 6 0;
#X connect 24 0 26 0;
#X connect 25 0 16 0;
#X connect 25 1 24 1;
#X connect 26 0 12 0;
#X connect 26 0 20 1;
#X connect 26 1 14 0;
#X connect 26 1 21 1;
#X connect 26 2 15 0;
#X connect 26 2 22 1;
#X connect 26 3 19 0;
#X connect 26 3 23 1;
