#N canvas 219 381 666 311 10;
#X obj 39 75 random 100;
#X obj 39 26 inlet;
#X obj 43 258 outlet;
#X msg 42 237 bang;
#X obj 94 257 outlet;
#X msg 93 236 bang;
#X obj 150 258 outlet;
#X msg 149 237 bang;
#X obj 207 260 outlet;
#X msg 206 239 bang;
#X obj 259 260 outlet;
#X msg 258 239 bang;
#X obj 314 260 outlet;
#X msg 313 239 bang;
#X obj 371 262 outlet;
#X msg 370 241 bang;
#X obj 423 262 outlet;
#X msg 422 241 bang;
#X obj 40 97 moses \$1;
#X obj 92 119 moses \$2;
#X obj 146 140 moses \$3;
#X obj 199 164 moses \$4;
#X obj 251 186 moses \$5;
#X obj 305 207 moses \$6;
#X obj 381 195 moses \$7;
#X obj 435 216 moses \$8;
#X msg 40 50 bang;
#X connect 0 0 18 0;
#X connect 1 0 26 0;
#X connect 3 0 2 0;
#X connect 5 0 4 0;
#X connect 7 0 6 0;
#X connect 9 0 8 0;
#X connect 11 0 10 0;
#X connect 13 0 12 0;
#X connect 15 0 14 0;
#X connect 17 0 16 0;
#X connect 18 0 3 0;
#X connect 18 1 19 0;
#X connect 19 0 5 0;
#X connect 19 1 20 0;
#X connect 20 0 7 0;
#X connect 20 1 21 0;
#X connect 21 0 9 0;
#X connect 21 1 22 0;
#X connect 22 0 11 0;
#X connect 22 1 23 0;
#X connect 23 0 13 0;
#X connect 23 1 24 0;
#X connect 24 0 15 0;
#X connect 24 1 25 0;
#X connect 25 0 17 0;
#X connect 26 0 0 0;
