#N canvas 219 381 666 311 10;
#X obj 39 75 random 100;
#X obj 39 26 inlet;
#X obj 42 282 outlet;
#X msg 40 50 bang;
#X obj 40 97 moses \$2;
#X obj 93 119 moses \$4;
#X obj 146 140 moses \$6;
#X obj 39 176 float \$1;
#X obj 61 201 float \$3;
#X obj 123 206 float \$5;
#X obj 198 210 float \$7;
#X msg 39 154 bang;
#X msg 84 152 bang;
#X msg 125 175 bang;
#X msg 200 187 bang;
#X connect 0 0 4 0;
#X connect 1 0 3 0;
#X connect 3 0 0 0;
#X connect 4 0 11 0;
#X connect 4 1 5 0;
#X connect 5 0 12 0;
#X connect 5 1 6 0;
#X connect 6 0 13 0;
#X connect 6 1 14 0;
#X connect 7 0 2 0;
#X connect 8 0 2 0;
#X connect 9 0 2 0;
#X connect 10 0 2 0;
#X connect 11 0 7 0;
#X connect 12 0 8 0;
#X connect 13 0 9 0;
#X connect 14 0 10 0;
