#N canvas 317 193 827 700 10;
#X floatatom 144 260 5 0 0 0 - - -;
#X floatatom 313 498 5 0 0 0 - - -;
#X obj 149 166 f;
#X obj 290 216 - 1;
#X msg 322 190 -1;
#X msg 367 191 1;
#X obj 289 122 t f b;
#X obj 320 170 moses 0.5;
#X obj 25 152 sel 0;
#X obj 55 396 sel 0;
#X msg 132 414 0;
#X msg 55 416 12;
#X obj 237 526 +;
#X obj 27 174 del 415;
#X obj 54 376 random 2;
#X obj 55 355 sel 1;
#X obj 55 335 > 8;
#X obj 133 391 sel 0;
#X obj 132 371 random 2;
#X obj 131 351 sel 1;
#X obj 130 331 < 4;
#X obj 70 152 * 0.75;
#X obj 26 127 random 2;
#X obj 238 550 + 30;
#X msg 315 471 27;
#X msg 348 473 32;
#X obj 102 95 randist2 2 25 5 50 7 75 9;
#X obj 75 19 inlet;
#X obj 239 574 outlet;
#X obj 289 95 randist2 0 80 4 95 11 100;
#X obj 316 419 % 64;
#X obj 316 439 moses 32;
#X obj 321 148 random 2;
#X obj 75 42 % 24;
#X obj 73 65 sel 0 6 12 18;
#X connect 0 0 12 0;
#X connect 0 0 16 0;
#X connect 0 0 20 0;
#X connect 1 0 23 1;
#X connect 2 0 0 0;
#X connect 3 0 0 0;
#X connect 4 0 3 1;
#X connect 5 0 3 1;
#X connect 6 0 3 0;
#X connect 6 1 32 0;
#X connect 7 0 4 0;
#X connect 7 1 5 0;
#X connect 8 0 13 0;
#X connect 9 0 11 0;
#X connect 10 0 12 1;
#X connect 11 0 12 1;
#X connect 12 0 23 0;
#X connect 14 0 9 0;
#X connect 15 0 14 0;
#X connect 16 0 15 0;
#X connect 17 0 10 0;
#X connect 18 0 17 0;
#X connect 19 0 18 0;
#X connect 20 0 19 0;
#X connect 21 0 13 1;
#X connect 22 0 8 0;
#X connect 23 0 28 0;
#X connect 24 0 1 0;
#X connect 25 0 1 0;
#X connect 26 0 0 0;
#X connect 27 0 30 0;
#X connect 27 0 33 0;
#X connect 29 0 6 0;
#X connect 29 0 2 1;
#X connect 30 0 31 0;
#X connect 31 0 24 0;
#X connect 31 1 25 0;
#X connect 32 0 7 0;
#X connect 33 0 34 0;
#X connect 34 0 2 0;
#X connect 34 0 22 0;
#X connect 34 1 26 0;
#X connect 34 2 26 0;
#X connect 34 3 29 0;
