#N canvas 547 74 465 367 10;
#X obj 37 240 pack f f f;
#X msg 37 291 \$1 \$2 \$3;
#X obj 37 212 m_minorscale;
#X floatatom 103 103 5 0 0 0 - - -;
#X obj 130 212 m_minorscale;
#X floatatom 144 103 5 0 0 0 - - -;
#X floatatom 185 103 5 0 0 0 - - -;
#X obj 222 212 m_minorscale;
#X obj 222 188 f;
#X obj 130 188 f;
#X obj 37 188 f;
#X obj 16 112 t b b b;
#X obj 37 325 outlet;
#X obj 103 65 unpack f f f;
#X obj 16 72 inlet;
#X obj 103 35 route \$2;
#X obj 17 44 t 1 b 0;
#X obj 103 12 r \$1-savereturn;
#X obj 17 -7 r \$1-querysend;
#X obj 17 14 route \$2;
#X obj 153 269 s \$1-queryreturn;
#X obj 153 245 pack f f f;
#X obj 37 263 spigot 1;
#X obj 303 71 r \$1-rootnote;
#X connect 0 0 22 0;
#X connect 1 0 12 0;
#X connect 2 0 0 0;
#X connect 3 0 10 1;
#X connect 4 0 0 1;
#X connect 5 0 9 1;
#X connect 6 0 8 1;
#X connect 7 0 0 2;
#X connect 8 0 7 0;
#X connect 8 0 21 2;
#X connect 9 0 4 0;
#X connect 9 0 21 1;
#X connect 10 0 2 0;
#X connect 10 0 21 0;
#X connect 11 0 10 0;
#X connect 11 1 9 0;
#X connect 11 2 8 0;
#X connect 13 0 3 0;
#X connect 13 1 5 0;
#X connect 13 2 6 0;
#X connect 14 0 11 0;
#X connect 15 0 13 0;
#X connect 16 0 22 1;
#X connect 16 1 11 0;
#X connect 16 2 22 1;
#X connect 17 0 15 0;
#X connect 18 0 19 0;
#X connect 19 0 16 0;
#X connect 21 0 20 0;
#X connect 22 0 1 0;
#X connect 23 0 7 1;
#X connect 23 0 4 1;
#X connect 23 0 2 1;
#X coords 0 -1 1 1 125 20 2 100 100;
