#N canvas 154 78 808 257 10;
#N canvas 90 22 1039 638 \$0-DSP 0;
#X obj 352 246 *~;
#X obj 430 205 vline~;
#X obj 322 400 cos~;
#X obj 369 178 +~;
#X obj 338 122 mtof;
#X obj 338 146 sig~;
#X obj 429 129 line~;
#X obj 384 148 *~;
#X obj 367 51 t f b b;
#X obj 338 97 - 12;
#X obj 323 334 *~ 2;
#X obj 369 311 +~;
#X obj 385 267 *~;
#X obj 370 401 cos~;
#X obj 369 333 *~ 2;
#X obj 385 289 *~ 0.2;
#X obj 452 -4 r \$0-LFO;
#X obj 352 205 osc~ 500;
#X msg 430 167 1 5 \, 0.5 100 6 \, 0 300 707;
#X obj 384 122 osc~ 6;
#X obj 114 8 inlet;
#X obj 114 84 moses 1;
#X obj 114 36 unpack f f;
#X obj 181 62 s \$0-off;
#X msg 429 104 0 \, \$1 500;
#X obj 459 44 m_scale 0 1 8 16;
#X obj 429 82 f;
#X obj 452 23 m_scale 0 1 6 16;
#X obj 322 600 outlet~;
#X obj 378 600 outlet~;
#X obj 248 426 r \$0-off;
#X obj 322 573 *~ 0.4;
#X obj 322 534 samphold~;
#X obj 413 512 phasor~ 4222;
#X obj 322 471 *~;
#X obj 413 463 r \$0-Crush!;
#X obj 413 488 m_scale 0 1 20000 200;
#X obj 340 452 lop~ 80;
#X connect 0 0 10 0;
#X connect 0 0 12 0;
#X connect 0 0 12 1;
#X connect 0 0 11 0;
#X connect 1 0 0 1;
#X connect 2 0 34 0;
#X connect 3 0 17 0;
#X connect 4 0 5 0;
#X connect 5 0 3 0;
#X connect 6 0 7 1;
#X connect 7 0 3 1;
#X connect 8 0 9 0;
#X connect 8 1 18 0;
#X connect 8 2 26 0;
#X connect 9 0 4 0;
#X connect 10 0 2 0;
#X connect 11 0 14 0;
#X connect 12 0 15 0;
#X connect 13 0 34 0;
#X connect 14 0 13 0;
#X connect 15 0 11 1;
#X connect 16 0 25 0;
#X connect 16 0 27 0;
#X connect 17 0 0 0;
#X connect 18 0 1 0;
#X connect 19 0 7 0;
#X connect 20 0 22 0;
#X connect 21 1 8 0;
#X connect 22 0 21 0;
#X connect 22 1 23 0;
#X connect 24 0 6 0;
#X connect 25 0 26 0;
#X connect 26 0 24 0;
#X connect 27 0 19 0;
#X connect 30 0 37 0;
#X connect 31 0 28 0;
#X connect 31 0 29 0;
#X connect 32 0 31 0;
#X connect 33 0 32 1;
#X connect 34 0 32 0;
#X connect 35 0 36 0;
#X connect 36 0 33 0;
#X connect 37 0 34 1;
#X restore -86 188 pd \$0-DSP;
#X obj -86 32 inlet~;
#X obj -86 230 outlet~;
#X obj -26 230 outlet~;
#X obj 508 225 outlet;
#X obj 508 32 inlet;
#N canvas 292 97 385 385 \$0-PARAMETERS 0;
#X obj 110 298 outlet;
#X obj -48 5 inlet;
#X obj -48 37 route tick bpm rootnote;
#X obj 106 132 cnv 15 187 134 empty empty RJC_Parameters 10 12 1 14
-162280 -262144 0;
#X obj 106 106 cnv 15 187 20 empty empty 8-bit_Lead 55 11 1 14 -261234
-33289 0;
#X obj 57 68 s \$0-rootnote;
#X obj 110 194 rjc_parameter_floatrange \$0 LFO 0.285;
#X obj -48 130 s \$0-tick;
#X obj 110 156 rjc_parameter_floatrange \$0 Crush!;
#X obj 110 232 rjc_parameter_floatrange \$0 Pattern 0;
#X connect 1 0 2 0;
#X connect 2 0 7 0;
#X connect 2 2 5 0;
#X connect 2 3 8 0;
#X connect 6 0 9 0;
#X connect 8 0 6 0;
#X connect 9 0 0 0;
#X coords 0 -1 1 1 198 171 2 100 100;
#X restore 508 51 pd \$0-PARAMETERS;
#N canvas 202 79 560 251 MODULE_INFO 0;
#X text 65 157 decorator: s1m1-s2m1;
#X text 65 177 tags:;
#X text 66 101 description: Creates low resolution lead synth line.
Use Crush! to sweep to bit-crushed glitches. LFO gives the lead some
wobble. Select between four presets with the Pattern control. In expert
mode you can create your own patterns.;
#X text 66 81 authors: Reality Jockey;
#X text 66 57 name: 8 bit Lead;
#X restore -86 9 pd MODULE_INFO;
#N canvas 530 77 707 737 \$0-INPUT 0;
#X obj 629 124 bng 30 250 50 0 empty empty Save -4 -10 1 16 -258113
-1 -1;
#N canvas 0 22 772 701 Play 0;
#X obj 50 82 route 1 2 3 4 5 6 7 8 9 10 11 12 13 14 15 16;
#X obj 213 513 list;
#X obj 230 493 list;
#X obj 248 473 list;
#X obj 265 453 list;
#X obj 283 433 list;
#X obj 301 412 list;
#X obj 318 392 list;
#X obj 336 371 list;
#X obj 354 350 list;
#X obj 371 329 list;
#X obj 389 309 list;
#X obj 406 289 list;
#X obj 424 269 list;
#X obj 442 248 list;
#X obj 459 228 list;
#X obj 477 207 list;
#X obj 50 60 inlet;
#X obj 451 109 sel 0 1 2 3 4 5 6 7 8 9 10 11 12 13 14 15;
#X obj 451 55 inlet tick;
#X obj 477 528 list trim;
#X obj 477 579 outlet;
#X connect 0 0 1 1;
#X connect 0 1 2 1;
#X connect 0 2 3 1;
#X connect 0 3 4 1;
#X connect 0 4 5 1;
#X connect 0 5 6 1;
#X connect 0 6 7 1;
#X connect 0 7 8 1;
#X connect 0 8 9 1;
#X connect 0 9 10 1;
#X connect 0 10 11 1;
#X connect 0 11 12 1;
#X connect 0 12 13 1;
#X connect 0 13 14 1;
#X connect 0 14 15 1;
#X connect 0 15 16 1;
#X connect 1 0 20 0;
#X connect 2 0 20 0;
#X connect 3 0 20 0;
#X connect 4 0 20 0;
#X connect 5 0 20 0;
#X connect 6 0 20 0;
#X connect 7 0 20 0;
#X connect 8 0 20 0;
#X connect 9 0 20 0;
#X connect 10 0 20 0;
#X connect 11 0 20 0;
#X connect 12 0 20 0;
#X connect 13 0 20 0;
#X connect 14 0 20 0;
#X connect 15 0 20 0;
#X connect 16 0 20 0;
#X connect 17 0 0 0;
#X connect 18 0 1 0;
#X connect 18 1 2 0;
#X connect 18 2 3 0;
#X connect 18 3 4 0;
#X connect 18 4 5 0;
#X connect 18 5 6 0;
#X connect 18 6 7 0;
#X connect 18 7 8 0;
#X connect 18 8 9 0;
#X connect 18 9 10 0;
#X connect 18 10 11 0;
#X connect 18 11 12 0;
#X connect 18 12 13 0;
#X connect 18 13 14 0;
#X connect 18 14 15 0;
#X connect 18 15 16 0;
#X connect 19 0 18 0;
#X connect 20 0 21 0;
#X restore 259 656 pd Play;
#X obj 276 523 s \$0-save;
#X obj 259 683 outlet;
#X obj 100 160 abs/step_note \$0;
#X obj 100 180 abs/step_toggle \$0;
#X obj 305 543 r \$0-tick;
#X obj 127 304 until;
#X obj 127 328 f;
#X obj 162 327 + 1;
#X msg 170 304 1;
#X msg 259 387 set;
#X obj 127 436 pack f f f;
#X msg 127 457 add2 \$1 \$2 \$3 \, addcomma;
#X obj 127 361 t f f f;
#X msg 127 284 16;
#X obj 150 413 s \$0-note;
#X obj 173 387 s \$0-toggle;
#X obj 107 256 t b b 1 b;
#X obj 124 125 abs/m_m2pspell;
#X obj 124 64 r \$0-pitchspell;
#X obj 305 615 int;
#X obj 305 636 change;
#X obj 305 585 / 2;
#X obj 305 565 mod 32;
#X text 212 134 After making changes \, click 'Save' then save the
patch -->;
#X text 104 109 Note Selection;
#N canvas 28 429 566 351 patternselect 0;
#X obj 12 35 inlet;
#X obj 12 331 outlet;
#X obj 403 75 inlet;
#X msg 12 142 1 50 1 \, 2 55 1 \, 3 62 1 \, 4 55 1 \, 5 53 1 \, 6 57
1 \, 7 53 1 \, 8 62 1 \, 9 55 1 \, 10 0 1 \, 11 43 1 \, 12 0 1 \, 13
62 1 \, 14 0 1 \, 15 58 1 \, 16 0 1 \,;
#X msg 27 194 1 86 1 \, 2 0 1 \, 3 0 1 \, 4 0 1 \, 5 0 1 \, 6 0 1 \,
7 0 1 \, 8 0 1 \, 9 0 1 \, 10 0 1 \, 11 0 1 \, 12 0 1 \, 13 0 0 \,
14 0 0 \, 15 0 0 \, 16 0 0 \,;
#X msg 43 237 1 84 1 \, 2 0 1 \, 3 86 1 \, 4 0 1 \, 5 0 1 \, 6 0 1
\, 7 0 1 \, 8 0 0 \, 9 0 0 \, 10 0 0 \, 11 0 0 \, 12 0 0 \, 13 89 1
\, 14 0 1 \, 15 86 1 \, 16 0 0 \,;
#X msg 59 283 1 77 1 \, 2 0 1 \, 3 0 1 \, 4 62 1 \, 5 0 1 \, 6 0 1
\, 7 0 0 \, 8 55 1 \, 9 36 1 \, 10 45 1 \, 11 0 0 \, 12 0 0 \, 13 91
1 \, 14 0 1 \, 15 0 1 \, 16 0 0 \,;
#X obj 12 114 abs/switch 1;
#X obj 113 115 abs/switch 2;
#X obj 222 114 abs/switch 3;
#X obj 322 114 abs/switch 4;
#X connect 0 0 7 0;
#X connect 0 0 8 0;
#X connect 0 0 9 0;
#X connect 0 0 10 0;
#X connect 2 0 7 1;
#X connect 2 0 8 1;
#X connect 2 0 9 1;
#X connect 2 0 10 1;
#X connect 3 0 1 0;
#X connect 4 0 1 0;
#X connect 5 0 1 0;
#X connect 6 0 1 0;
#X connect 7 0 3 0;
#X connect 8 0 4 0;
#X connect 9 0 5 0;
#X connect 10 0 6 0;
#X restore 259 498 pd patternselect;
#X obj 336 379 r \$0-Pattern;
#X obj 336 431 int;
#X obj 336 473 t b f;
#X obj 336 452 change -1;
#X obj 336 405 m_scale 0 1 1 4;
#X connect 0 0 18 0;
#X connect 1 0 3 0;
#X connect 4 0 12 1;
#X connect 5 0 12 2;
#X connect 6 0 24 0;
#X connect 7 0 8 0;
#X connect 8 0 9 0;
#X connect 8 0 14 0;
#X connect 9 0 8 1;
#X connect 10 0 8 1;
#X connect 11 0 27 0;
#X connect 12 0 13 0;
#X connect 13 0 27 0;
#X connect 14 0 12 0;
#X connect 14 1 16 0;
#X connect 14 2 17 0;
#X connect 15 0 7 0;
#X connect 18 0 27 0;
#X connect 18 1 15 0;
#X connect 18 2 10 0;
#X connect 18 3 11 0;
#X connect 20 0 19 0;
#X connect 21 0 22 0;
#X connect 22 0 1 1;
#X connect 23 0 21 0;
#X connect 24 0 23 0;
#X connect 27 0 2 0;
#X connect 27 0 1 0;
#X connect 28 0 32 0;
#X connect 29 0 31 0;
#X connect 30 0 27 0;
#X connect 30 1 27 1;
#X connect 31 0 30 0;
#X connect 32 0 29 0;
#X coords 0 -1 1 1 582 120 2 100 100;
#X restore -86 51 pd \$0-INPUT;
#X connect 0 0 2 0;
#X connect 0 1 3 0;
#X connect 5 0 6 0;
#X connect 6 0 4 0;
#X connect 8 0 0 0;
