#N canvas 283 256 864 374 10;
#X obj 113 86 pack f f f;
#X obj 84 297 outlet~;
#X obj 264 292 outlet~;
#X obj 113 115 route 1 2 3 4 5 6 7 8;
#X floatatom 69 81 5 0 0 0 - - -;
#X msg 685 205 0;
#X obj 686 243 s sv-jitter;
#X msg 722 208 0.1;
#X obj 113 29 unpack f f;
#X obj 113 5 inlet;
#X obj 252 38 r panic;
#X obj 252 68 d-for 0 127;
#X msg 252 89 \$1 0;
#X obj 113 59 poly 8 0;
#X obj 132 175 synthvoice;
#X obj 344 175 synthvoice;
#X obj 313 153 synthvoice;
#X obj 239 175 synthvoice;
#X obj 205 153 synthvoice;
#X obj 103 154 synthvoice;
#X obj 41 173 synthvoice;
#X obj 7 153 synthvoice;
#X obj 243 226 d-pan~ 0.6;
#X obj 32 226 d-pan~ 0.4;
#X connect 0 0 3 0;
#X connect 3 0 21 0;
#X connect 3 1 19 0;
#X connect 3 2 18 0;
#X connect 3 3 16 0;
#X connect 3 4 20 0;
#X connect 3 5 14 0;
#X connect 3 6 17 0;
#X connect 3 7 15 0;
#X connect 5 0 6 0;
#X connect 7 0 6 0;
#X connect 8 0 13 0;
#X connect 8 1 13 1;
#X connect 9 0 8 0;
#X connect 10 0 11 0;
#X connect 11 0 12 0;
#X connect 12 0 8 0;
#X connect 13 0 0 0;
#X connect 13 0 4 0;
#X connect 13 1 0 1;
#X connect 13 2 0 2;
#X connect 14 0 23 0;
#X connect 15 0 23 0;
#X connect 16 0 22 0;
#X connect 17 0 22 0;
#X connect 18 0 23 0;
#X connect 19 0 22 0;
#X connect 20 0 22 0;
#X connect 21 0 23 0;
#X connect 22 0 1 0;
#X connect 22 1 2 0;
#X connect 23 0 1 0;
#X connect 23 1 2 0;
