#N canvas 146 62 287 404 10;
#X obj 4 251 osc~;
#X obj 4 346 *~;
#X obj 4 5 inlet;
#X obj 4 367 outlet~;
#N canvas 335 144 280 317 env4pow 0;
#X obj 61 46 vline~;
#X obj 20 132 outlet~;
#X obj 61 1 inlet;
#X obj 93 249 outlet~;
#X obj 91 169 min~;
#X obj 115 137 *~ -1;
#X obj 113 116 -~ 1;
#X msg 61 23 0 \, 1 \$1 0;
#X obj 93 222 *~;
#X obj 92 192 *~ 2;
#X obj 33 81 *~;
#X obj 33 105 *~;
#X connect 0 0 6 0;
#X connect 0 0 4 0;
#X connect 0 0 10 0;
#X connect 0 0 10 1;
#X connect 2 0 7 0;
#X connect 4 0 9 0;
#X connect 5 0 4 1;
#X connect 6 0 5 0;
#X connect 7 0 0 0;
#X connect 8 0 3 0;
#X connect 9 0 8 0;
#X connect 9 0 8 1;
#X connect 10 0 11 0;
#X connect 10 0 11 1;
#X connect 11 0 1 0;
#X restore 4 134 pd env4pow;
#X obj 4 229 +~;
#X obj 39 92 * 300;
#X obj 39 51 swap 1;
#X obj 39 72 -;
#X obj 4 75 * 130;
#X obj 39 114 + 500;
#X obj 4 28 t f f f f b;
#X obj 146 31 inlet;
#X obj 4 156 *~;
#X obj 38 160 *;
#X obj 38 181 pow 0.5;
#X obj 146 52 *;
#X obj 146 73 pow 0.5;
#X obj 146 94 lop~ 10;
#X obj 22 206 lop~ 10;
#X obj 21 323 lop~ 10;
#X connect 0 0 1 0;
#X connect 1 0 3 0;
#X connect 2 0 11 0;
#X connect 4 0 13 0;
#X connect 4 1 20 0;
#X connect 5 0 0 0;
#X connect 6 0 10 0;
#X connect 7 0 8 0;
#X connect 7 1 8 1;
#X connect 8 0 6 0;
#X connect 9 0 4 0;
#X connect 10 0 14 0;
#X connect 10 0 14 1;
#X connect 11 0 9 0;
#X connect 11 1 7 0;
#X connect 12 0 16 0;
#X connect 12 0 16 1;
#X connect 13 0 5 0;
#X connect 14 0 15 0;
#X connect 15 0 19 0;
#X connect 16 0 17 0;
#X connect 17 0 18 0;
#X connect 18 0 13 1;
#X connect 19 0 5 1;
#X connect 20 0 1 1;
