#N canvas 228 71 687 441 10;
#X obj 133 71 vsl 15 128 0 1 0 0 empty empty empty 0 -9 0 10 -262144
-1 -1 639 1;
#X obj 133 217 reality-bubble;
#X obj 163 247 dac~;
#X obj 239 136 line;
#X obj 236 6 adc~;
#X obj 239 37 env~;
#X obj 238 61 - 70;
#X obj 238 88 max 0;
#X msg 239 113 \$1 200;
#X obj 239 159 moses 10;
#X obj 281 207 line;
#X msg 281 184 \$1 500;
#X obj 281 230 - 10;
#X obj 281 254 / 10;
#X obj 336 164 > 9;
#X obj 336 187 change;
#X obj 337 212 sel 1;
#X obj 338 238 s pingme;
#X connect 0 0 1 0;
#X connect 1 0 2 0;
#X connect 1 1 2 1;
#X connect 3 0 9 0;
#X connect 4 0 5 0;
#X connect 4 1 5 0;
#X connect 5 0 6 0;
#X connect 6 0 7 0;
#X connect 7 0 8 0;
#X connect 8 0 3 0;
#X connect 9 1 11 0;
#X connect 10 0 12 0;
#X connect 11 0 10 0;
#X connect 12 0 13 0;
#X connect 12 0 14 0;
#X connect 13 0 0 0;
#X connect 14 0 15 0;
#X connect 15 0 16 0;
#X connect 16 0 17 0;
