#N canvas 0 22 1024 516 10;
#X obj 356 158 random 1000;
#X obj 271 166 random 100;
#X obj 271 193 > 70;
#X obj 331 86 loadbang;
#X obj 271 243 f;
#X obj 301 243 + 1;
#X obj 271 222 sel 1;
#X obj 271 286 pack f f;
#X obj 331 134 t b b;
#X obj 207 426 *~ 0.1;
#X obj 219 332 route 1 2 3 4 5 6 7 8;
#X obj 271 265 mod 8;
#X obj 331 108 metro 70;
#X obj 356 181 / 400;
#X obj 218 355 bub;
#X obj 233 364 bub;
#X obj 243 374 bub;
#X obj 253 384 bub;
#X obj 263 394 bub;
#X obj 273 404 bub;
#X obj 283 414 bub;
#X obj 293 424 bub;
#X obj 303 434 bub;
#X obj 451 109 + 0.3;
#X obj 446 136 * 1000;
#X obj 514 122 swap 100;
#X obj 512 148 -;
#X obj 514 92 * 100;
#X obj 356 207 + 0.5;
#X obj 457 200 + 50;
#X obj 460 62 t f f;
#X obj 460 35 inlet intensity;
#X msg 561 60 0.1;
#X obj 564 34 loadbang;
#X obj 241 485 delwrite~ \$0-waterwobble 800;
#X obj 616 309 vd~ \$0-waterwobble;
#X obj 753 282 vd~ \$0-waterwobble;
#X obj 617 238 osc~ 0.1317;
#X obj 754 211 osc~ 0.01711;
#X obj 887 280 vd~ \$0-waterwobble;
#X obj 888 209 osc~ 0.0919;
#X obj 888 256 +~ 100;
#X obj 617 261 *~ 20;
#X obj 754 234 *~ 30;
#X obj 888 232 *~ 40;
#X obj 561 473 s~ \$0-fb;
#X obj 310 459 r~ \$0-fb;
#X obj 523 323 * 0.3;
#X obj 560 434 *~;
#X obj 751 309 *~ 0.5;
#X obj 754 258 +~ 400;
#X obj 617 285 +~ 700;
#X obj 616 335 *~ 0.3;
#X obj 727 463 outlet~ r;
#X obj 653 465 outlet~ l;
#X obj 654 443 *~ 0.2;
#X obj 726 438 *~ 0.8;
#X obj 770 437 *~ 0.2;
#X obj 608 442 *~ 0.8;
#X obj 207 447 hip~ 300;
#X connect 0 0 13 0;
#X connect 1 0 2 0;
#X connect 2 0 6 0;
#X connect 3 0 12 0;
#X connect 4 0 5 0;
#X connect 4 0 11 0;
#X connect 5 0 4 1;
#X connect 6 0 4 0;
#X connect 7 0 10 0;
#X connect 8 0 1 0;
#X connect 8 1 0 0;
#X connect 9 0 59 0;
#X connect 10 0 14 0;
#X connect 10 1 15 0;
#X connect 10 2 16 0;
#X connect 10 3 17 0;
#X connect 10 4 18 0;
#X connect 10 5 19 0;
#X connect 10 6 20 0;
#X connect 10 7 21 0;
#X connect 10 8 22 0;
#X connect 11 0 7 0;
#X connect 12 0 8 0;
#X connect 13 0 28 0;
#X connect 14 0 9 0;
#X connect 15 0 9 0;
#X connect 16 0 9 0;
#X connect 17 0 9 0;
#X connect 18 0 9 0;
#X connect 19 0 9 0;
#X connect 20 0 9 0;
#X connect 21 0 9 0;
#X connect 22 0 9 0;
#X connect 23 0 24 0;
#X connect 24 0 22 1;
#X connect 24 0 21 1;
#X connect 24 0 20 1;
#X connect 24 0 19 1;
#X connect 24 0 18 1;
#X connect 24 0 17 1;
#X connect 24 0 16 1;
#X connect 24 0 15 1;
#X connect 24 0 14 1;
#X connect 25 0 26 0;
#X connect 25 1 26 1;
#X connect 26 0 2 1;
#X connect 26 0 29 0;
#X connect 27 0 25 0;
#X connect 28 0 7 1;
#X connect 29 0 12 1;
#X connect 30 0 23 0;
#X connect 30 1 27 0;
#X connect 31 0 30 0;
#X connect 31 0 47 0;
#X connect 32 0 30 0;
#X connect 33 0 32 0;
#X connect 35 0 52 0;
#X connect 36 0 49 0;
#X connect 37 0 42 0;
#X connect 38 0 43 0;
#X connect 39 0 48 0;
#X connect 39 0 56 0;
#X connect 39 0 55 0;
#X connect 40 0 44 0;
#X connect 41 0 39 0;
#X connect 42 0 51 0;
#X connect 43 0 50 0;
#X connect 44 0 41 0;
#X connect 46 0 34 0;
#X connect 47 0 48 1;
#X connect 48 0 45 0;
#X connect 49 0 48 0;
#X connect 49 0 54 0;
#X connect 49 0 53 0;
#X connect 50 0 36 0;
#X connect 51 0 35 0;
#X connect 52 0 48 0;
#X connect 52 0 57 0;
#X connect 52 0 58 0;
#X connect 55 0 54 0;
#X connect 56 0 53 0;
#X connect 58 0 54 0;
#X connect 59 0 34 0;
