#N canvas 329 328 289 259 10;
#X obj -59 -92 mod 12;
#X msg -59 -22 C;
#X msg -23 -22 D;
#X msg 14 -22 E;
#X msg 33 -22 F;
#X msg 69 -22 G;
#X msg 106 -22 A;
#X msg 143 -22 B;
#X obj 179 -70 / 12;
#X obj 179 -49 int;
#X obj 105 25 list append;
#X msg -41 -38 C#;
#X msg -4 -38 D#;
#X msg 51 -38 F#;
#X msg 88 -38 G#;
#X msg 125 -38 A#;
#X obj 105 46 list trim;
#X obj 105 73 unpack s f;
#X symbolatom 103 103 3 0 0 0 - - -;
#X floatatom 132 103 3 0 0 0 - - -;
#X obj -59 -122 inlet;
#X obj -59 -69 select 0 1 2 3 4 5 6 7 8 9 10 11;
#X floatatom 21 -111 5 0 0 0 - - -;
#X connect 0 0 21 0;
#X connect 1 0 10 0;
#X connect 2 0 10 0;
#X connect 3 0 10 0;
#X connect 4 0 10 0;
#X connect 5 0 10 0;
#X connect 6 0 10 0;
#X connect 7 0 10 0;
#X connect 8 0 9 0;
#X connect 9 0 10 1;
#X connect 10 0 16 0;
#X connect 11 0 10 0;
#X connect 12 0 10 0;
#X connect 13 0 10 0;
#X connect 14 0 10 0;
#X connect 15 0 10 0;
#X connect 16 0 17 0;
#X connect 17 0 18 0;
#X connect 17 1 19 0;
#X connect 20 0 8 0;
#X connect 20 0 0 0;
#X connect 21 0 1 0;
#X connect 21 1 11 0;
#X connect 21 2 2 0;
#X connect 21 3 12 0;
#X connect 21 4 3 0;
#X connect 21 5 4 0;
#X connect 21 6 13 0;
#X connect 21 7 5 0;
#X connect 21 8 14 0;
#X connect 21 9 6 0;
#X connect 21 10 15 0;
#X connect 21 11 7 0;
#X connect 22 0 0 0;
#X connect 22 0 8 0;
#X coords 0 -1 1 1 58 20 2 100 100;
