#N struct 1005rect float s float e float l;
#N struct 1005lines float x;
#N struct 1005cursor float x;
#N canvas 24 56 1142 527 10;
#X obj 162 480 outlet~;
#X obj 222 480 outlet~;
#N canvas 802 36 189 259 \$0-DSP 0;
#X obj 7 207 outlet~;
#X obj 47 187 outlet~;
#X obj 88 75 inlet STOP;
#X obj 7 50 inlet START;
#X obj 99 117 loadbang;
#X msg 99 139 fade 10;
#X msg 88 96 stop;
#X obj 7 161 s_playtable2;
#X connect 2 0 6 0;
#X connect 3 0 7 0;
#X connect 4 0 5 0;
#X connect 5 0 7 1;
#X connect 6 0 7 1;
#X connect 7 0 0 0;
#X connect 7 1 1 0;
#X restore 162 454 pd \$0-DSP;
#X text -76 510 JW;
#X text 946 508 Stereo Version;
#X obj -46 210 inlet~;
#X obj 859 211 outlet;
#N canvas 6 22 1207 886 \$0-INPUT 0;
#X obj 73 -15 r \$0-tick;
#X obj 317 812 outlet;
#X obj 73 10 t f f;
#X obj 105 808 outlet;
#X text 72 -34 Has to be sent tick @ 32 per bar;
#N canvas 26 46 1111 514 loopselect 0;
#N canvas 297 741 249 64 \$0lines 0;
#X obj 18 8 struct \$0lines float x;
#X obj 18 28 drawpolygon 999 1 0 2 0 167;
#X restore 252 284 pd \$0lines;
#N canvas 585 631 598 263 \$0rect 0;
#X text 441 49 main bar;
#X text 439 199 loop selector;
#X text 439 169 loop length main bar;
#X text 440 89 begin selector: black;
#X text 440 129 end selector: red;
#X obj 6 9 struct \$0rect float s float e float l;
#X text 439 229 loop start line;
#X obj 6 228 drawpolygon 0 3 0 15 0 35;
#X obj 6 35 filledpolygon 777 0 1 s(0:1024)(0:1024)(1) 50 e(0:1024)(0:1024)(1)
50 e(0:1024)(0:1024)(1) 150 e(0:1024)(0:1024)(1) 150 s(0:1024)(0:1024)(1)
150;
#X obj 6 85 drawpolygon 0 10 s(0:1024)(0:1024)(1) 50 s(0:1024)(0:1024)(1)
152;
#X obj 6 122 drawpolygon 900 10 e(0:1024)(0:1024)(1) 50 e(0:1024)(0:1024)(1)
152;
#X obj 6 160 filledpolygon 777 0 1 0 15 l(0:1024)(0:1024)(1) 15 l(0:1024)(0:1024)(1)
35 l(0:1024)(0:1024)(1) 35 0 35;
#X obj 6 198 drawpolygon 9 10 l(0:1024)(0:1024)(1) 15 l(0:1024)(0:1024)(1)
36;
#X restore 252 244 pd \$0rect;
#N canvas 314 601 240 86 \$0cursor 0;
#X obj 7 28 struct \$0cursor float x;
#X obj 7 48 drawpolygon 900 1 0 11 0 169;
#X restore 252 264 pd \$0cursor;
#N canvas 611 22 480 799 setup 0;
#X obj 38 694 pointer;
#X obj 6 605 t b b;
#X obj 38 627 \$0;
#X obj 38 649 makefilename pd-%ddata;
#X msg 38 671 traverse \$1 \, bang;
#X msg 66 112 \; \$1 clear \;;
#X obj 66 68 \$0;
#X obj 66 90 makefilename pd-%ddata;
#X text 256 68 clear the data;
#X obj 6 40 t b b b b;
#X obj 6 14 inlet;
#X obj 135 539 pointer;
#X obj 26 354 t b b;
#X obj 58 376 \$0;
#X obj 58 398 makefilename pd-%ddata;
#X msg 135 516 traverse \$1 \, bang;
#X obj 26 493 until;
#X obj 26 514 f;
#X obj 57 514 + 1;
#X obj 26 426 t b b;
#X obj 26 561 append \$0lines x;
#X text 195 374 create the grid markers;
#X obj 162 273 pointer;
#X obj 46 178 t b b;
#X obj 78 200 \$0;
#X obj 78 222 makefilename pd-%ddata;
#X msg 162 250 traverse \$1 \, bang;
#X obj 46 296 append \$0cursor x;
#X msg 46 259 0;
#X text 235 199 create the cursor;
#X obj 46 319 s \$0cursorp;
#X text 207 624 create loop selection;
#X obj 6 771 append \$0rect s e l;
#X obj 19 722 r \$0-settings;
#X obj 26 537 * 16;
#X obj 58 448 0;
#X msg 6 747 0 128 128;
#X obj 26 448 65;
#X connect 0 0 32 3;
#X connect 1 0 36 0;
#X connect 1 1 2 0;
#X connect 2 0 3 0;
#X connect 3 0 4 0;
#X connect 4 0 0 0;
#X connect 6 0 7 0;
#X connect 7 0 5 0;
#X connect 9 0 1 0;
#X connect 9 1 12 0;
#X connect 9 2 23 0;
#X connect 9 3 6 0;
#X connect 10 0 9 0;
#X connect 11 0 20 1;
#X connect 12 0 19 0;
#X connect 12 1 13 0;
#X connect 13 0 14 0;
#X connect 14 0 15 0;
#X connect 15 0 11 0;
#X connect 16 0 17 0;
#X connect 17 0 18 0;
#X connect 17 0 34 0;
#X connect 18 0 17 1;
#X connect 19 0 37 0;
#X connect 19 1 35 0;
#X connect 22 0 27 1;
#X connect 23 0 28 0;
#X connect 23 1 24 0;
#X connect 24 0 25 0;
#X connect 25 0 26 0;
#X connect 26 0 22 0;
#X connect 27 0 30 0;
#X connect 28 0 27 0;
#X connect 33 0 36 0;
#X connect 34 0 20 0;
#X connect 35 0 17 1;
#X connect 36 0 32 0;
#X connect 37 0 16 0;
#X restore 252 337 pd setup;
#X obj 143 410 r \$0cursorp;
#X obj 97 430 pointer;
#N canvas 684 110 276 235 save 0;
#X obj 90 90 r \$0-looplength;
#X obj 55 138 pack f f f;
#X obj 69 47 r \$0-loopend;
#X obj 55 26 r \$0-loopstart;
#X obj 90 114 t b f;
#X obj 69 67 t b f;
#X msg 55 159 set \$1 \$2 \$3;
#X obj 55 184 s \$0-settings;
#X obj 162 161 loadbang;
#X msg 162 185 0 128 128;
#X obj 162 206 s \$0-startup;
#X connect 0 0 4 0;
#X connect 1 0 6 0;
#X connect 2 0 5 0;
#X connect 3 0 1 0;
#X connect 4 0 1 0;
#X connect 4 1 1 2;
#X connect 5 0 1 0;
#X connect 5 1 1 1;
#X connect 6 0 7 0;
#X connect 6 0 9 0;
#X connect 8 0 9 0;
#X connect 9 0 10 0;
#X restore 317 337 pd save;
#X obj 2 361 change;
#X text 8 205 Inspired by s-arranger from Chris Mccormick's s-abstractions
;
#X obj 48 336 s \$0-loopstart;
#X obj 78 316 s \$0-loopend;
#X obj 108 296 s \$0-looplength;
#X obj 252 317 loadbang;
#X text 249 228 template definitions:;
#X obj 2 226 inlet;
#X obj 2 422 mod 32;
#X obj 2 454 set \$0cursor x;
#N canvas 344 290 363 421 lookup 0;
#X obj 17 10 inlet;
#X obj 17 166 until;
#X msg 17 88 traverse \$1 \, next;
#X obj 17 36 \$0;
#X obj 17 62 makefilename pd-%ddata;
#X obj 17 114 pointer \$0rect;
#X msg 66 140 next;
#X obj 17 140 t b p;
#X obj 66 166 get \$0rect s e l;
#X obj 120 208 outlet;
#X obj 175 208 outlet;
#X obj 120 187 change;
#X obj 175 187 change;
#X obj 66 227 change -1;
#X obj 66 248 outlet;
#X connect 0 0 3 0;
#X connect 1 0 6 0;
#X connect 2 0 5 0;
#X connect 3 0 4 0;
#X connect 4 0 2 0;
#X connect 5 0 7 0;
#X connect 5 2 1 1;
#X connect 6 0 5 0;
#X connect 7 0 1 0;
#X connect 7 1 8 0;
#X connect 8 0 13 0;
#X connect 8 1 11 0;
#X connect 8 2 12 0;
#X connect 11 0 9 0;
#X connect 12 0 10 0;
#X connect 13 0 14 0;
#X restore 48 276 pd lookup;
#X obj 2 251 t f b b;
#X obj 1 1 cnv 15 1080 198 empty empty empty 20 12 0 14 -191407 -66577
0;
#N canvas 0 22 334 341 display 0;
#X obj 21 233 + 1;
#X obj 44 147 div 8;
#X obj 21 213 div 32;
#X obj 44 167 mod 4;
#X obj 44 187 + 1;
#X obj 67 96 mod 8;
#X obj 67 117 + 1;
#X obj 21 76 t f f f;
#X obj 21 273 pack f f f;
#X text 25 58 Inlet - tick @ 32 per bar;
#X text 34 298 Outlet - Bar \, Beat \, Division (tick);
#X obj 21 319 outlet;
#X obj 21 40 inlet;
#X connect 0 0 8 0;
#X connect 1 0 3 0;
#X connect 2 0 0 0;
#X connect 3 0 4 0;
#X connect 4 0 8 1;
#X connect 5 0 6 0;
#X connect 6 0 8 2;
#X connect 7 0 2 0;
#X connect 7 1 1 0;
#X connect 7 2 5 0;
#X connect 8 0 11 0;
#X connect 12 0 7 0;
#X restore 502 308 pd display;
#X obj 502 284 r \$0-loopstart;
#X obj 502 210 r \$0-loopend;
#X obj 502 255 unpack f f f;
#X obj 502 331 unpack f f f;
#N canvas 0 22 312 361 display 0;
#X obj 21 233 + 1;
#X obj 44 147 div 8;
#X obj 21 213 div 32;
#X obj 44 167 mod 4;
#X obj 44 187 + 1;
#X obj 67 96 mod 8;
#X obj 67 117 + 1;
#X obj 21 76 t f f f;
#X obj 21 273 pack f f f;
#X text 25 58 Inlet - tick @ 32 per bar;
#X text 34 298 Outlet - Bar \, Beat \, Division (tick);
#X obj 21 319 outlet;
#X obj 21 40 inlet;
#X connect 0 0 8 0;
#X connect 1 0 3 0;
#X connect 2 0 0 0;
#X connect 3 0 4 0;
#X connect 4 0 8 1;
#X connect 5 0 6 0;
#X connect 6 0 8 2;
#X connect 7 0 2 0;
#X connect 7 1 1 0;
#X connect 7 2 5 0;
#X connect 8 0 11 0;
#X connect 12 0 7 0;
#X restore 502 234 pd display;
#N canvas 330 26 334 341 display 0;
#X obj 21 233 + 1;
#X obj 44 147 div 8;
#X obj 21 213 div 32;
#X obj 44 167 mod 4;
#X obj 44 187 + 1;
#X obj 67 96 mod 8;
#X obj 67 117 + 1;
#X obj 21 76 t f f f;
#X obj 21 273 pack f f f;
#X text 25 58 Inlet - tick @ 32 per bar;
#X text 34 298 Outlet - Bar \, Beat \, Division (tick);
#X obj 21 319 outlet;
#X obj 21 39 inlet;
#X connect 0 0 8 0;
#X connect 1 0 3 0;
#X connect 2 0 0 0;
#X connect 3 0 4 0;
#X connect 4 0 8 1;
#X connect 5 0 6 0;
#X connect 6 0 8 2;
#X connect 7 0 2 0;
#X connect 7 1 1 0;
#X connect 7 2 5 0;
#X connect 8 0 11 0;
#X connect 12 0 7 0;
#X restore 503 379 pd display;
#X obj 503 402 unpack f f f;
#X obj 503 355 r \$0-looplength;
#X text 5 162 Loop Length;
#X text 239 153 Start;
#X text 247 177 End;
#X text 19 30 Loop;
#X text 5 81 Sample;
#X text 62 6 1;
#X text 27 6 Bar;
#X text 93 6 2;
#X text 124 6 3;
#X text 154 6 4;
#X text 186 6 5;
#X text 217 6 6;
#X text 248 6 7;
#X text 280 6 8;
#X text 311 6 9;
#X text 338 6 10;
#X text 369 6 11;
#X text 400 6 12;
#X text 431 6 13;
#X text 462 6 14;
#X text 493 6 15;
#X text 524 6 16;
#X obj 280 150 nbx 2 20 -1e+37 1e+37 0 0 \$0-numbox-out \$0-numbox-in
empty 0 -8 1 12 -262144 -227289 -1 0 256;
#X obj 320 150 nbx 2 20 -1e+37 1e+37 0 0 \$0-numbox-out \$0-numbox-in
empty 0 -8 1 12 -262144 -227289 -1 0 256;
#X obj 360 150 nbx 2 20 -1e+37 1e+37 0 0 \$0-numbox-out \$0-numbox-in
empty 0 -8 1 12 -262144 -227289 -1 0 256;
#X obj 280 174 nbx 2 20 -1e+37 1e+37 0 0 \$0-numbox-out \$0-numbox-in
empty 0 -8 1 12 -262144 -227289 -1 0 256;
#X obj 320 174 nbx 2 20 -1e+37 1e+37 0 0 \$0-numbox-out \$0-numbox-in
empty 0 -8 1 12 -262144 -227289 -1 0 256;
#X obj 360 174 nbx 2 20 -1e+37 1e+37 0 0 \$0-numbox-out \$0-numbox-in
empty 0 -8 1 12 -262144 -227289 -1 0 256;
#X obj 88 161 nbx 2 20 -1e+37 1e+37 0 0 \$0-numbox-out \$0-numbox-in
empty 0 -8 1 12 -262144 -227289 -1 0 256;
#X obj 128 161 nbx 2 20 -1e+37 1e+37 0 0 \$0-numbox-out \$0-numbox-in
empty 0 -8 1 12 -262144 -227289 -1 0 256;
#X obj 168 161 nbx 2 20 -1e+37 1e+37 0 0 \$0-numbox-out \$0-numbox-in
empty 0 -8 1 12 -262144 -227289 -1 0 256;
#X text 91 134 Bar;
#X text 128 134 Beat;
#X text 172 134 Div;
#X text 282 134 Bar;
#X text 319 134 Beat;
#X text 363 134 Div;
#X obj 41 382 r \$0-looplength;
#X text 555 6 17;
#X obj 1049 20 cnv 10 25 113 empty empty empty 20 12 0 14 -1 -66577
0;
#X obj 53 21 cnv 15 1020 111 empty empty empty 20 12 0 14 -183803 -66577
0;
#N canvas 134 279 1056 500 \$0data 0;
#X scalar 1005rect 0 128 128 \;;
#X scalar 1005lines 0 \;;
#X scalar 1005lines 16 \;;
#X scalar 1005lines 32 \;;
#X scalar 1005lines 48 \;;
#X scalar 1005lines 64 \;;
#X scalar 1005lines 80 \;;
#X scalar 1005lines 96 \;;
#X scalar 1005lines 112 \;;
#X scalar 1005lines 128 \;;
#X scalar 1005lines 144 \;;
#X scalar 1005lines 160 \;;
#X scalar 1005lines 176 \;;
#X scalar 1005lines 192 \;;
#X scalar 1005lines 208 \;;
#X scalar 1005lines 224 \;;
#X scalar 1005lines 240 \;;
#X scalar 1005lines 256 \;;
#X scalar 1005lines 272 \;;
#X scalar 1005lines 288 \;;
#X scalar 1005lines 304 \;;
#X scalar 1005lines 320 \;;
#X scalar 1005lines 336 \;;
#X scalar 1005lines 352 \;;
#X scalar 1005lines 368 \;;
#X scalar 1005lines 384 \;;
#X scalar 1005lines 400 \;;
#X scalar 1005lines 416 \;;
#X scalar 1005lines 432 \;;
#X scalar 1005lines 448 \;;
#X scalar 1005lines 464 \;;
#X scalar 1005lines 480 \;;
#X scalar 1005lines 496 \;;
#X scalar 1005lines 512 \;;
#X scalar 1005lines 528 \;;
#X scalar 1005lines 544 \;;
#X scalar 1005lines 560 \;;
#X scalar 1005lines 576 \;;
#X scalar 1005lines 592 \;;
#X scalar 1005lines 608 \;;
#X scalar 1005lines 624 \;;
#X scalar 1005lines 640 \;;
#X scalar 1005lines 656 \;;
#X scalar 1005lines 672 \;;
#X scalar 1005lines 688 \;;
#X scalar 1005lines 704 \;;
#X scalar 1005lines 720 \;;
#X scalar 1005lines 736 \;;
#X scalar 1005lines 752 \;;
#X scalar 1005lines 768 \;;
#X scalar 1005lines 784 \;;
#X scalar 1005lines 800 \;;
#X scalar 1005lines 816 \;;
#X scalar 1005lines 832 \;;
#X scalar 1005lines 848 \;;
#X scalar 1005lines 864 \;;
#X scalar 1005lines 880 \;;
#X scalar 1005lines 896 \;;
#X scalar 1005lines 912 \;;
#X scalar 1005lines 928 \;;
#X scalar 1005lines 944 \;;
#X scalar 1005lines 960 \;;
#X scalar 1005lines 976 \;;
#X scalar 1005lines 992 \;;
#X scalar 1005lines 1008 \;;
#X scalar 1005lines 1024 \;;
#X scalar 1005cursor 0 \;;
#X coords -15 0 500 150 500 101 1;
#X restore 53 20 pd \$0data;
#X text 586 6 18;
#X text 618 6 19;
#X text 649 6 20;
#X text 680 6 21;
#X text 711 6 22;
#X text 743 6 23;
#X text 773 6 24;
#X text 804 6 25;
#X text 835 6 26;
#X text 866 6 27;
#X text 897 6 28;
#X text 928 6 29;
#X text 959 6 30;
#X text 990 6 31;
#X text 1021 6 32;
#X text 1052 6 33;
#X connect 4 0 5 1;
#X connect 5 0 16 1;
#X connect 7 0 15 0;
#X connect 12 0 3 0;
#X connect 14 0 18 0;
#X connect 15 0 16 0;
#X connect 17 0 9 0;
#X connect 17 1 10 0;
#X connect 17 2 11 0;
#X connect 18 0 7 0;
#X connect 18 1 5 0;
#X connect 18 2 17 0;
#X connect 20 0 24 0;
#X connect 21 0 20 0;
#X connect 22 0 25 0;
#X connect 23 0 54 0;
#X connect 23 1 55 0;
#X connect 23 2 56 0;
#X connect 24 0 51 0;
#X connect 24 1 52 0;
#X connect 24 2 53 0;
#X connect 25 0 23 0;
#X connect 26 0 27 0;
#X connect 27 0 57 0;
#X connect 27 1 58 0;
#X connect 27 2 59 0;
#X connect 28 0 26 0;
#X connect 66 0 15 1;
#X coords 0 0 1 1 1082 200 1 0 0;
#X restore 105 116 pd loopselect;
#X obj 158 50 r \$0-pdgui;
#X obj 183 105 cnv 5 1004 11 empty empty empty 20 12 0 14 -1 -66577
0;
#X obj 183 105 cnv 5 522 11 empty empty empty 20 12 0 14 -1 -66577
0;
#X obj 184 106 cnv 15 1002 10 empty empty empty 20 12 0 14 -191407
-66577 0;
#X obj 184 106 cnv 15 520 10 empty empty empty 20 12 0 14 -191407 -66577
0;
#X obj 105 73 spigot 1;
#X obj 175 419 r \$0-open;
#X obj 175 445 list prepend open;
#X obj 175 471 list trim;
#X obj 356 758 r \$0-loopend;
#X obj 317 782 sel 32;
#X obj 36 457 r \$0-loopstart;
#X obj 119 347 r \$0-looplength;
#X obj 316 349 unpack f f f;
#X obj 316 327 r \$0-startup;
#X obj 73 489 sel 0;
#X obj 105 560 timer;
#X obj 73 516 t b b;
#X obj 105 778 list trim;
#X obj 151 629 f;
#X obj 105 680 pack f f;
#X obj 105 727 list prepend 1 1;
#X obj 105 753 list prepend \$1;
#X msg 105 703 \$1 \$2;
#X obj 158 654 -;
#X obj 105 602 t f b f;
#X msg 175 530 info;
#X obj 207 587 unpack s f f f;
#X obj 73 392 mod 128;
#X obj 137 375 r \$0-switch;
#X obj 137 396 sel 1;
#X obj 175 497 t b a;
#X obj 73 413 t f f;
#X obj 207 561 u_samplebank2 \$0-loop;
#X connect 0 0 2 0;
#X connect 2 0 34 0;
#X connect 2 1 11 0;
#X connect 6 0 11 1;
#X connect 11 0 5 0;
#X connect 12 0 13 0;
#X connect 13 0 14 0;
#X connect 14 0 37 0;
#X connect 15 0 16 1;
#X connect 16 0 1 0;
#X connect 17 0 21 1;
#X connect 18 0 34 1;
#X connect 19 0 21 1;
#X connect 19 1 16 1;
#X connect 19 2 34 1;
#X connect 20 0 19 0;
#X connect 21 0 23 0;
#X connect 22 0 31 0;
#X connect 23 0 22 1;
#X connect 23 1 22 0;
#X connect 24 0 3 0;
#X connect 25 0 30 0;
#X connect 26 0 29 0;
#X connect 27 0 28 0;
#X connect 28 0 24 0;
#X connect 29 0 27 0;
#X connect 30 0 26 1;
#X connect 31 0 26 0;
#X connect 31 1 25 0;
#X connect 31 2 30 1;
#X connect 32 0 39 0;
#X connect 33 0 28 1;
#X connect 33 1 25 1;
#X connect 34 0 38 0;
#X connect 35 0 36 0;
#X connect 36 0 22 1;
#X connect 37 0 32 0;
#X connect 37 1 39 0;
#X connect 38 0 21 0;
#X connect 38 1 16 0;
#X connect 39 0 33 0;
#X coords 0 -1 1 1 1092 221 1 100 100;
#X restore -46 233 pd \$0-INPUT;
#X obj 859 105 inlet;
#X text -37 119 The blue marker sets the LOOP LENGTH;
#X text -37 149 The black marker sets the START POINT for the loop
;
#X obj -55 115 cnv 5 10 20 empty empty empty 20 12 0 14 -4160 -66577
0;
#X obj -55 145 cnv 5 10 20 empty empty empty 20 12 0 14 -1 -66577 0
;
#X obj -55 175 cnv 5 10 20 empty empty empty 20 12 0 14 -258113 -66577
0;
#X text -37 178 The red marker sets the END POINT for the loop;
#X obj 345 130 nbx 2 20 -1e+37 1e+37 0 0 \$0-numbox-out \$0-numbox-in
empty 0 -8 1 12 -262144 -227289 -1 0 256;
#X obj 385 130 nbx 2 20 -1e+37 1e+37 0 0 \$0-numbox-out \$0-numbox-in
empty 0 -8 1 12 -262144 -227289 -1 0 256;
#X obj 425 130 nbx 2 20 -1e+37 1e+37 0 0 \$0-numbox-out \$0-numbox-in
empty 0 -8 1 12 -262144 -227289 -1 0 256;
#X text 466 115 The transport at the bottom shows a more accurate measurement
of the selection. The first two numbers represent the Bar and Beat
value respectively \, the last number is a smaller division in ticks.
;
#X text 342 94 NOTE: Drag the markers by clicking at either the extreme
top or bottom.;
#X text -58 94 EDITING:;
#X text 342 168 SAVING:;
#X text 342 184 Press 'cmd + s' to save the selection after editing.
This will make sure the settings are reloaded for next time.;
#X text 133 20 This sample playback module is opened everytime you
drag a sample onto a pad. It enables the control of playback for samples.
;
#N canvas 762 504 408 234 \$0-PARAMETERS 0;
#X obj 105 105 cnv 15 187 70 empty empty RJC_Parameters 10 12 1 14
-191407 -262144 0;
#X obj 109 188 outlet;
#X obj -84 164 s \$0-tick;
#X obj -84 5 inlet;
#X obj -36 134 s \$0-open;
#X obj 12 102 s \$0-pdgui;
#X obj -84 37 route tick open pdgui switch;
#X obj 60 68 s \$0-switch;
#X connect 3 0 6 0;
#X connect 6 0 2 0;
#X connect 6 1 4 0;
#X connect 6 2 5 0;
#X connect 6 3 7 0;
#X connect 6 4 1 0;
#X coords 0 -1 1 1 197 80 2 100 100;
#X restore 859 125 pd \$0-PARAMETERS;
#N canvas 411 146 450 166 MODULE_INFO 0;
#X text 14 39 authors: Reality Jockey;
#X text 14 127 dtype: s1m1-s2m1;
#X text 14 147 tags:;
#X text 14 59 description: With expert mode enabled you can set the
start point \, end point and loop length for the sample. Select 'Edit
Module' from the Edit menu (or right-click on the pad) to open up the
PD window. The Pitch parameter controls the playback speed of the sample.
;
#X text 14 19 name: Sample Player;
#X restore -58 28 pd MODULE_INFO;
#X connect 2 0 0 0;
#X connect 2 1 1 0;
#X connect 7 0 2 0;
#X connect 7 1 2 1;
#X connect 8 0 24 0;
#X connect 24 0 6 0;
