#N canvas 265 121 872 679 10;
#X msg 62 81 40 43 45 50 54 57;
#X msg 61 106 40 44 47 50 54 57;
#X msg 61 128 40 42 46 50 54 57;
#X msg 62 154 40 43 47 50 54 57;
#X obj 63 198 list prepend 0;
#X floatatom 10 192 5 0 0 0 - - -;
#X msg 63 59 40 43 45 50 54 57 60;
#X msg 63 38 40 43 45 50 54 57 60 62;
#X msg 60 300 40 42 44 46 47 49 51;
#X msg 59 275 40 42 44 45 47 49 51;
#X msg 60 345 40 42 44 46 47 49 51 54 56;
#X obj 164 191 s note-len;
#X obj 95 255 s notes;
#X obj 284 74 keyname;
#X obj 279 119 pack 0 s;
#X obj 281 142 route 1;
#X obj 282 97 spigot;
#X obj 316 53 tgl 15 0 empty empty key-input 0 -6 0 8 -262144 -1 -1
0 1;
#X obj 393 38 inlet;
#X obj 421 440 outlet;
#X msg 591 287 /onoff;
#X obj 591 308 s GW1;
#X msg 609 234 /onoff;
#X obj 592 144 route q w e r t;
#X msg 629 185 /onoff;
#X msg 682 187 /onoff;
#X msg 739 184 /onoff;
#X obj 609 255 s GW2;
#X obj 629 206 s GW3;
#X obj 682 208 s GW4;
#X obj 739 205 s GW5;
#X obj 378 372 symbol;
#X obj 281 195 select F1 F2 F3 F4 F5 F6 F7 F8 F9 F10;
#X obj 281 167 symbol;
#X msg 243 307 F1;
#X msg 269 307 F2;
#X msg 297 308 F3;
#X msg 328 309 F4;
#X msg 358 310 F5;
#X msg 386 309 F6;
#X msg 416 310 F7;
#X msg 438 311 F8;
#X msg 467 308 F9;
#X msg 497 307 F10;
#X msg 60 323 40 42 44 46 47 49 51 54;
#X obj 73 219 t a b;
#X msg 119 221 const 0;
#X obj 404 99 list;
#X obj 405 77 r CHORD;
#X obj 591 111 r QWERT;
#X obj 58 174 list length;
#X connect 0 0 4 0;
#X connect 0 0 50 0;
#X connect 1 0 4 0;
#X connect 1 0 50 0;
#X connect 2 0 4 0;
#X connect 2 0 50 0;
#X connect 3 0 4 0;
#X connect 3 0 50 0;
#X connect 4 0 45 0;
#X connect 6 0 4 0;
#X connect 6 0 50 0;
#X connect 7 0 4 0;
#X connect 7 0 50 0;
#X connect 8 0 4 0;
#X connect 8 0 50 0;
#X connect 9 0 4 0;
#X connect 9 0 50 0;
#X connect 10 0 4 0;
#X connect 10 0 50 0;
#X connect 13 0 16 0;
#X connect 13 1 14 1;
#X connect 14 0 15 0;
#X connect 15 0 23 0;
#X connect 15 0 33 0;
#X connect 16 0 14 0;
#X connect 17 0 16 1;
#X connect 18 0 16 1;
#X connect 20 0 21 0;
#X connect 22 0 27 0;
#X connect 23 0 20 0;
#X connect 23 1 22 0;
#X connect 23 2 24 0;
#X connect 23 3 25 0;
#X connect 23 4 26 0;
#X connect 24 0 28 0;
#X connect 25 0 29 0;
#X connect 26 0 30 0;
#X connect 31 0 19 0;
#X connect 32 0 7 0;
#X connect 32 0 34 0;
#X connect 32 1 6 0;
#X connect 32 1 35 0;
#X connect 32 2 0 0;
#X connect 32 2 36 0;
#X connect 32 3 1 0;
#X connect 32 3 37 0;
#X connect 32 4 2 0;
#X connect 32 4 38 0;
#X connect 32 5 3 0;
#X connect 32 5 39 0;
#X connect 32 6 9 0;
#X connect 32 6 40 0;
#X connect 32 7 8 0;
#X connect 32 7 41 0;
#X connect 32 8 44 0;
#X connect 32 8 42 0;
#X connect 32 9 10 0;
#X connect 32 9 43 0;
#X connect 33 0 32 0;
#X connect 34 0 31 0;
#X connect 35 0 31 0;
#X connect 36 0 31 0;
#X connect 37 0 31 0;
#X connect 38 0 31 0;
#X connect 39 0 31 0;
#X connect 40 0 31 0;
#X connect 41 0 31 0;
#X connect 42 0 31 0;
#X connect 43 0 31 0;
#X connect 44 0 4 0;
#X connect 44 0 50 0;
#X connect 45 0 12 0;
#X connect 45 1 46 0;
#X connect 46 0 12 0;
#X connect 47 0 33 0;
#X connect 48 0 47 0;
#X connect 49 0 23 0;
#X connect 50 0 5 0;
#X connect 50 0 11 0;
