#N canvas 531 268 672 500 10;
#X obj 383 45 inlet;
#X obj 328 348 outlet;
#X msg 363 185 n;
#X msg 361 255 s;
#X msg 328 219 w;
#X msg 397 219 e;
#X msg 397 185 n e;
#X msg 328 185 n w;
#X msg 396 255 s e;
#X msg 328 255 s w;
#X obj 328 328 list prepend /go;
#X obj 114 123 bng 15 250 50 0 empty empty empty 0 -6 0 8 -262144 -1
-1;
#X obj 132 123 bng 15 250 50 0 empty empty ^ 5 10 0 8 -262144 -1 -1
;
#X obj 151 123 bng 15 250 50 0 empty empty empty 0 -6 0 8 -262144 -1
-1;
#X obj 151 141 bng 15 250 50 0 empty empty > 5 10 0 8 -262144 -1 -1
;
#X obj 151 159 bng 15 250 50 0 empty empty empty 0 -6 0 8 -262144 -1
-1;
#X obj 131 159 bng 15 250 50 0 empty empty v 5 10 0 8 -262144 -1 -1
;
#X obj 114 159 bng 15 250 50 0 empty empty empty 0 -6 0 8 -262144 -1
-1;
#X obj 114 141 bng 15 250 50 0 empty empty < 5 10 0 8 -262144 -1 -1
;
#X obj 391 73 select 0 1 2 3 4 5 6 7;
#X connect 0 0 19 0;
#X connect 2 0 10 0;
#X connect 3 0 10 0;
#X connect 4 0 10 0;
#X connect 5 0 10 0;
#X connect 6 0 10 0;
#X connect 7 0 10 0;
#X connect 8 0 10 0;
#X connect 9 0 10 0;
#X connect 10 0 1 0;
#X connect 11 0 7 0;
#X connect 12 0 2 0;
#X connect 13 0 6 0;
#X connect 14 0 5 0;
#X connect 15 0 8 0;
#X connect 16 0 3 0;
#X connect 17 0 9 0;
#X connect 18 0 4 0;
#X connect 19 0 2 0;
#X connect 19 1 6 0;
#X connect 19 2 5 0;
#X connect 19 3 8 0;
#X connect 19 4 3 0;
#X connect 19 5 9 0;
#X connect 19 6 4 0;
#X connect 19 7 7 0;
#X coords 0 -1 1 1 80 80 1 100 100;
