#N canvas 0 0 644 594 10;
#X obj 136 32 inlet;
#X obj 136 57 route /x /y;
#X obj 135 79 mod 6;
#X obj 140 159 +;
#X floatatom 190 159 5 0 0 0 - - -;
#X obj 139 211 pack 0 0;
#X obj 174 112 * 12;
#X obj 140 187 makenote 100 150;
#X floatatom 253 162 5 0 0 0 - - -;
#X obj 191 83 r note-len;
#X obj 139 135 tabread notes;
#X obj 139 247 list prepend 1;
#X obj 139 269 list trim;
#X obj 358 147 t a b;
#X obj 416 164 random 127;
#X obj 139 293 outlet;
#X obj 285 116 r piano-note-len;
#X connect 0 0 1 0;
#X connect 1 0 2 0;
#X connect 1 1 6 0;
#X connect 2 0 10 0;
#X connect 3 0 4 0;
#X connect 3 0 13 0;
#X connect 5 0 11 0;
#X connect 6 0 3 1;
#X connect 7 0 5 0;
#X connect 7 1 5 1;
#X connect 8 0 7 2;
#X connect 9 0 2 1;
#X connect 10 0 3 0;
#X connect 11 0 12 0;
#X connect 12 0 15 0;
#X connect 13 0 7 0;
#X connect 13 1 14 0;
#X connect 14 0 7 1;
#X connect 16 0 7 2;
