#N canvas 493 184 786 591 10;
#X obj 309 214 t b a;
#X msg 262 155 /w \$1;
#X floatatom 57 72 5 0 0 0 w - -;
#X floatatom 112 72 5 0 0 0 h - -;
#X msg 262 133 /h \$1;
#X obj 309 131 go-selecta;
#X obj 77 514 table \$0-orient;
#X obj 193 335 route /size /pos;
#X obj 309 101 f;
#X obj 399 101 tabread \$0-orient;
#X obj 177 470 f;
#X obj 309 39 inlet;
#X obj 262 314 outlet;
#X obj 262 257 gridwalker \$1 \$2;
#X floatatom 56 89 5 0 0 0 gx - #0-gx;
#X floatatom 112 89 5 0 0 0 gy - #0-gy;
#X obj 175 226 loadbang;
#X obj 75 131 bng 15 250 50 0 empty empty empty 0 -6 0 8 -241291 -1
-1;
#X obj 60 52 hsl 64 15 4 -4 0 0 \$0-scale empty empty -2 -6 0 8 -262144
-1 -1 0 1;
#X obj 137 54 bng 15 250 50 0 empty empty upd 0 -6 0 8 -262144 -1 -1
;
#X obj 57 113 bng 15 250 50 0 empty empty empty 0 -6 0 8 -262144 -1
-1;
#X obj 75 113 bng 15 250 50 0 empty empty ^ 5 10 0 8 -262144 -1 -1
;
#X obj 94 113 bng 15 250 50 0 empty empty empty 0 -6 0 8 -262144 -1
-1;
#X obj 94 131 bng 15 250 50 0 empty empty > 5 10 0 8 -262144 -1 -1
;
#X obj 94 149 bng 15 250 50 0 empty empty empty 0 -6 0 8 -262144 -1
-1;
#X obj 74 149 bng 15 250 50 0 empty empty v 5 10 0 8 -262144 -1 -1
;
#X obj 57 149 bng 15 250 50 0 empty empty empty 0 -6 0 8 -262144 -1
-1;
#X obj 57 131 bng 15 250 50 0 empty empty < 5 10 0 8 -262144 -1 -1
;
#X obj 425 164 inlet;
#X obj 246 364 s \$0-newpos;
#X obj 399 80 r \$0-newpos;
#X text 489 77 from gridwalker-outlet;
#X text 476 166 remote control;
#N canvas 221 183 914 319 \$0-set-orientations 0;
#X obj 24 90 0;
#X msg 24 111 const \$1;
#X obj 24 133 s \$0-orient;
#X obj 24 70 inlet;
#X msg 111 112 const \$1;
#X obj 111 134 s \$0-orient;
#X obj 111 71 inlet;
#X msg 205 113 const \$1;
#X obj 205 135 s \$0-orient;
#X obj 205 72 inlet;
#X msg 291 112 const \$1;
#X obj 291 134 s \$0-orient;
#X obj 291 71 inlet;
#X msg 376 112 const \$1;
#X obj 376 134 s \$0-orient;
#X obj 376 71 inlet;
#X msg 462 112 const \$1;
#X obj 462 134 s \$0-orient;
#X obj 462 71 inlet;
#X msg 546 112 const \$1;
#X obj 546 134 s \$0-orient;
#X obj 546 71 inlet;
#X msg 632 113 const \$1;
#X obj 632 135 s \$0-orient;
#X obj 632 72 inlet;
#X obj 111 91 1;
#X obj 205 92 2;
#X obj 291 91 3;
#X obj 376 91 4;
#X obj 462 91 5;
#X obj 547 91 6;
#X obj 632 92 7;
#X obj 699 72 inlet;
#X obj 722 168 f 0;
#X obj 751 169 + 1;
#X msg 762 128 0;
#X obj 722 196 pack 0 0;
#X obj 722 218 s \$0-orient;
#X obj 712 121 until;
#X obj 711 97 t f b;
#X obj 784 168 random 7;
#X obj 717 141 t b b;
#X connect 0 0 1 0;
#X connect 1 0 2 0;
#X connect 3 0 0 0;
#X connect 4 0 5 0;
#X connect 6 0 25 0;
#X connect 7 0 8 0;
#X connect 9 0 26 0;
#X connect 10 0 11 0;
#X connect 12 0 27 0;
#X connect 13 0 14 0;
#X connect 15 0 28 0;
#X connect 16 0 17 0;
#X connect 18 0 29 0;
#X connect 19 0 20 0;
#X connect 21 0 30 0;
#X connect 22 0 23 0;
#X connect 24 0 31 0;
#X connect 25 0 4 0;
#X connect 26 0 7 0;
#X connect 27 0 10 0;
#X connect 28 0 13 0;
#X connect 29 0 16 0;
#X connect 30 0 19 0;
#X connect 31 0 22 0;
#X connect 32 0 39 0;
#X connect 33 0 36 0;
#X connect 33 0 34 0;
#X connect 34 0 33 1;
#X connect 35 0 33 1;
#X connect 36 0 37 0;
#X connect 38 0 41 0;
#X connect 39 0 38 0;
#X connect 39 1 35 0;
#X connect 40 0 36 1;
#X connect 41 0 33 0;
#X connect 41 1 40 0;
#X restore 21 492 pd \$0-set-orientations;
#N canvas 140 72 892 639 \$0-gem-visualisation 1;
#X obj 192 18 inlet;
#X obj 192 40 s \$0-paint-this;
#X obj 562 33 r \$0-onoff;
#X connect 0 0 1 0;
#X restore 283 287 pd \$0-gem-visualisation;
#X obj 425 252 s \$0-gx;
#X obj 490 260 s \$0-gy;
#X obj 425 227 unpack 0 0;
#X obj 493 304 moses 7;
#X obj 539 331 b;
#X msg 496 371 const \$1;
#X obj 498 397 s \$0-orient;
#X obj 119 151 tgl 24 0 \$0-onoff \$0-onoff on/off 0 -6 0 8 -99865
-262144 -1 1 1;
#X obj 309 78 spigot;
#X obj 346 56 r \$0-onoff;
#N canvas 470 154 553 535 \$0-onoff 0;
#X obj 109 95 inlet;
#X obj 31 92 loadbang;
#X obj 109 148 f 0;
#X obj 135 149 + 1;
#X obj 163 150 mod 2;
#X obj 109 122 b;
#X obj 109 178 s \$0-onoff;
#X connect 0 0 5 0;
#X connect 1 0 2 0;
#X connect 2 0 3 0;
#X connect 2 0 6 0;
#X connect 3 0 4 0;
#X connect 4 0 2 1;
#X connect 5 0 2 0;
#X restore 532 241 pd \$0-onoff;
#X obj 425 184 route /gem /orient /onoff /play;
#X obj 585 215 s \$0-onoff;
#X connect 0 0 13 0;
#X connect 0 1 13 0;
#X connect 1 0 13 0;
#X connect 2 0 1 0;
#X connect 3 0 4 0;
#X connect 4 0 13 0;
#X connect 5 0 0 0;
#X connect 7 0 10 1;
#X connect 7 1 29 0;
#X connect 8 0 5 0;
#X connect 9 0 8 1;
#X connect 10 0 33 8;
#X connect 11 0 43 0;
#X connect 13 0 7 0;
#X connect 13 0 12 0;
#X connect 13 0 34 0;
#X connect 16 0 13 0;
#X connect 17 0 10 0;
#X connect 19 0 13 0;
#X connect 20 0 33 7;
#X connect 21 0 33 0;
#X connect 22 0 33 1;
#X connect 23 0 33 2;
#X connect 24 0 33 3;
#X connect 25 0 33 4;
#X connect 26 0 33 5;
#X connect 27 0 33 6;
#X connect 28 0 46 0;
#X connect 30 0 9 0;
#X connect 37 0 35 0;
#X connect 37 1 36 0;
#X connect 38 0 40 0;
#X connect 38 1 39 0;
#X connect 39 0 10 0;
#X connect 40 0 41 0;
#X connect 43 0 8 0;
#X connect 44 0 43 1;
#X connect 46 0 37 0;
#X connect 46 1 38 0;
#X connect 46 2 45 0;
#X connect 46 3 47 0;
#X connect 46 4 13 0;
#X coords 0 -1 1 1 130 150 1 30 30;
