#N canvas 455 334 481 387 10;
#N canvas 0 0 461 387 \$0-structure 0;
#X obj 87 97 value \$0-w;
#X obj 86 120 value \$0-h;
#X obj 83 184 value \$0-pos;
#X obj 83 247 value \$0-x;
#X obj 83 268 value \$0-y;
#X text 89 73 width and height of grid;
#X text 82 159 current position as index from 0 to "size of grid";
#X text 83 223 and position as x \, y coordinates;
#X text 27 319 [value] objects can be set and read everywhere in a
patch;
#X restore 180 145 pd \$0-structure;
#N canvas 341 361 486 403 \$0-init 0;
#X obj 236 44 loadbang;
#X obj 92 225 value \$0-w;
#X obj 176 224 value \$0-h;
#X obj 92 280 *;
#X obj 92 306 s \$0-size;
#X obj 92 157 t b b;
#X obj 236 71 t b b;
#X obj 92 30 inlet;
#X obj 92 55 route /w /h;
#X obj 128 89 t b f;
#X obj 92 119 t b f;
#X text 233 26 init to arguments of patch;
#X text 138 279 multiply width and height to get size of grid;
#N canvas 100 99 450 300 \$0-init-from-args 0;
#X obj 87 136 select 0;
#X obj 89 110 f \$1;
#X obj 93 86 t b b;
#X obj 86 167 10;
#X obj 90 200 outlet;
#X obj 174 136 select 0;
#X obj 173 167 10;
#X obj 177 200 outlet;
#X obj 176 110 f \$2;
#X obj 97 61 inlet;
#X connect 0 0 3 0;
#X connect 0 1 4 0;
#X connect 1 0 0 0;
#X connect 2 0 1 0;
#X connect 2 1 8 0;
#X connect 3 0 4 0;
#X connect 5 0 6 0;
#X connect 5 1 7 0;
#X connect 6 0 7 0;
#X connect 8 0 5 0;
#X connect 9 0 2 0;
#X restore 266 117 pd \$0-init-from-args;
#X connect 0 0 6 0;
#X connect 1 0 3 0;
#X connect 2 0 3 1;
#X connect 3 0 4 0;
#X connect 5 0 1 0;
#X connect 5 1 2 0;
#X connect 6 0 5 0;
#X connect 6 1 13 0;
#X connect 7 0 8 0;
#X connect 8 0 10 0;
#X connect 8 1 9 0;
#X connect 9 0 5 0;
#X connect 9 1 2 0;
#X connect 10 0 5 0;
#X connect 10 1 1 0;
#X connect 13 0 1 0;
#X connect 13 1 2 0;
#X restore 122 204 pd \$0-init;
#X text 180 123 grid etc;
#N canvas 373 368 465 425 \$0-access 0;
#N canvas 406 300 453 455 \$0-pos2xy 0;
#X obj 94 96 value \$0-pos;
#X obj 189 196 value \$0-w;
#X obj 72 70 t b b b;
#X obj 94 188 t f f;
#X obj 72 35 inlet;
#X obj 94 159 mod;
#X obj 110 133 r \$0-size;
#X obj 331 43 inlet;
#X obj 331 121 value \$0-pos;
#X obj 173 279 value \$0-y;
#X obj 94 278 value \$0-x;
#X obj 112 35 r \$0-pos2xy;
#X obj 94 245 mod;
#X obj 173 252 div;
#X obj 331 92 mod;
#X obj 347 67 r \$0-size;
#X connect 0 0 5 0;
#X connect 1 0 12 1;
#X connect 1 0 13 1;
#X connect 2 0 9 0;
#X connect 2 1 0 0;
#X connect 2 2 1 0;
#X connect 3 0 12 0;
#X connect 3 1 13 0;
#X connect 4 0 2 0;
#X connect 5 0 3 0;
#X connect 6 0 5 1;
#X connect 7 0 14 0;
#X connect 11 0 2 0;
#X connect 12 0 10 0;
#X connect 13 0 9 0;
#X connect 14 0 8 0;
#X connect 15 0 14 1;
#X restore 62 315 pd \$0-pos2xy;
#N canvas 168 35 714 363 \$0-xy2pos 0;
#X obj 252 121 value \$0-w;
#X obj 94 22 inlet;
#X obj 94 258 value \$0-pos;
#X obj 94 51 t b b b;
#X obj 441 72 inlet;
#X obj 137 22 r \$0-xy2pos;
#X obj 94 230 mod;
#X obj 112 208 r \$0-size;
#X obj 441 235 value \$0-x;
#X obj 441 115 unpack 0 0;
#X obj 441 156 t a b;
#X obj 471 181 value \$0-w;
#X obj 441 208 mod;
#X obj 549 158 t a b;
#X obj 549 210 mod;
#X obj 579 181 value \$0-h;
#X obj 549 237 value \$0-y;
#X obj 94 117 value \$0-x;
#X obj 172 120 value \$0-y;
#X obj 172 145 +;
#X obj 94 180 +;
#X connect 0 0 19 1;
#X connect 1 0 3 0;
#X connect 3 0 17 0;
#X connect 3 1 18 0;
#X connect 3 2 0 0;
#X connect 4 0 9 0;
#X connect 5 0 3 0;
#X connect 6 0 2 0;
#X connect 7 0 6 1;
#X connect 9 0 10 0;
#X connect 9 1 13 0;
#X connect 10 0 12 0;
#X connect 10 1 11 0;
#X connect 11 0 12 1;
#X connect 12 0 8 0;
#X connect 13 0 14 0;
#X connect 13 1 15 0;
#X connect 14 0 16 0;
#X connect 15 0 14 1;
#X connect 17 0 20 0;
#X connect 18 0 19 0;
#X connect 19 0 20 1;
#X connect 20 0 6 0;
#X restore 101 261 pd \$0-xy2pos;
#X obj 62 30 inlet;
#X obj 62 290 t b f;
#X obj 101 240 t b a;
#N canvas 468 321 484 464 \$0-go 0;
#X obj 122 38 inlet;
#X obj 254 265 1;
#X obj 281 265 -1;
#X obj 276 313 value \$0-x;
#X obj 276 405 value \$0-x;
#X obj 276 344 +;
#X obj 152 201 select n s e w;
#X obj 276 382 mod;
#X obj 254 290 t b b f b;
#X obj 63 126 s \$0-xy2pos;
#X obj 124 262 1;
#X obj 151 262 -1;
#X obj 146 342 +;
#X obj 146 379 mod;
#X obj 124 287 t b b f b;
#X obj 312 345 value \$0-w;
#X obj 182 342 value \$0-h;
#X obj 146 310 value \$0-y;
#X obj 146 402 value \$0-y;
#X obj 152 126 list split 1;
#X obj 191 147 list split 1;
#X obj 122 64 t b a;
#X connect 0 0 21 0;
#X connect 1 0 8 0;
#X connect 2 0 8 0;
#X connect 3 0 5 0;
#X connect 5 0 7 0;
#X connect 6 0 10 0;
#X connect 6 1 11 0;
#X connect 6 2 1 0;
#X connect 6 3 2 0;
#X connect 7 0 4 0;
#X connect 8 1 3 0;
#X connect 8 2 5 1;
#X connect 8 3 15 0;
#X connect 10 0 14 0;
#X connect 11 0 14 0;
#X connect 12 0 13 0;
#X connect 13 0 18 0;
#X connect 14 1 17 0;
#X connect 14 2 12 1;
#X connect 14 3 16 0;
#X connect 15 0 7 1;
#X connect 16 0 13 1;
#X connect 17 0 12 0;
#X connect 19 0 6 0;
#X connect 19 1 20 0;
#X connect 20 0 6 0;
#X connect 21 0 9 0;
#X connect 21 1 19 0;
#X restore 140 215 pd \$0-go;
#N canvas 466 441 670 323 \$0-bang 0;
#X obj 62 25 inlet;
#X obj 63 142 value \$0-pos;
#X obj 157 121 value \$0-x;
#X obj 262 123 value \$0-y;
#X obj 63 45 b;
#X msg 65 169 /pos \$1;
#X obj 170 267 outlet;
#X msg 237 173 /y \$1;
#X msg 142 171 /x \$1;
#X msg 351 173 /size \$1;
#X obj 352 122 f;
#X obj 367 99 r \$0-size;
#X obj 482 121 value \$0-w;
#X msg 482 142 /w \$1;
#X obj 561 122 value \$0-h;
#X msg 561 142 /h \$1;
#X obj 78 94 t b b b;
#X connect 0 0 4 0;
#X connect 1 0 5 0;
#X connect 2 0 8 0;
#X connect 3 0 7 0;
#X connect 4 0 10 0;
#X connect 4 0 12 0;
#X connect 4 0 14 0;
#X connect 4 0 16 0;
#X connect 5 0 6 0;
#X connect 7 0 6 0;
#X connect 8 0 6 0;
#X connect 9 0 6 0;
#X connect 10 0 9 0;
#X connect 11 0 10 1;
#X connect 12 0 13 0;
#X connect 13 0 6 0;
#X connect 14 0 15 0;
#X connect 15 0 6 0;
#X connect 16 0 1 0;
#X connect 16 1 2 0;
#X connect 16 2 3 0;
#X restore 179 167 pd \$0-bang;
#X obj 179 191 outlet;
#X obj 62 58 list trim;
#X obj 62 87 route /pos /xy /go bang;
#X obj 218 136 outlet;
#X connect 2 0 8 0;
#X connect 3 0 0 0;
#X connect 3 1 0 1;
#X connect 4 0 1 0;
#X connect 4 1 1 1;
#X connect 6 0 7 0;
#X connect 8 0 9 0;
#X connect 9 0 3 0;
#X connect 9 1 4 0;
#X connect 9 2 5 0;
#X connect 9 3 6 0;
#X connect 9 4 10 0;
#X restore 43 143 pd \$0-access;
#X obj 43 118 inlet;
#X obj 43 168 outlet;
#X text 132 184 (re)initialize;
#X connect 3 0 5 0;
#X connect 3 1 1 0;
#X connect 4 0 3 0;
