#N canvas 356 283 540 484 10;
#X obj 61 206 cnv 15 250 30 empty empty empty 20 12 0 14 -261689 -66577
0;
#X obj 73 244 route /x /y;
#X obj 73 436 hradio 15 1 0 8 empty empty empty 0 -6 0 8 -262144 -1
-1 5;
#X obj 73 213 gridwalker 8 8;
#X obj 56 311 vradio 15 1 0 8 empty empty empty 0 -6 0 8 -262144 -1
-1 3;
#X floatatom 73 58 5 0 0 0 - - -;
#X obj 73 86 mod 64;
#X msg 382 106 n;
#X msg 381 217 s;
#X msg 347 160 w;
#X msg 416 160 e;
#X msg 416 126 n e;
#X msg 347 126 n w;
#X msg 415 196 s e;
#X msg 347 196 s w;
#X obj 347 269 list prepend /go;
#X obj 347 319 s \$0-to-gw;
#X obj 87 160 r \$0-to-gw;
#X floatatom 163 273 5 0 0 0 - - -;
#X floatatom 119 273 5 0 0 0 - - -;
#X text 179 214 grid of size 8x8;
#X obj 18 10 cnv 15 500 25 empty empty gridwalker 20 12 0 14 -258699
-262144 0;
#X obj 73 182 t b a;
#X text 379 87 Gare du Nord;
#X text 378 244 Gare Montparnasse;
#X text 134 86 keep in range of grid;
#X msg 73 111 /pos \$1;
#X text 346 61 Walk the town:;
#X obj 110 298 swap 7;
#X obj 110 326 -;
#X connect 1 0 2 0;
#X connect 1 0 19 0;
#X connect 1 1 18 0;
#X connect 1 1 28 0;
#X connect 3 0 1 0;
#X connect 5 0 6 0;
#X connect 6 0 26 0;
#X connect 7 0 15 0;
#X connect 8 0 15 0;
#X connect 9 0 15 0;
#X connect 10 0 15 0;
#X connect 11 0 15 0;
#X connect 12 0 15 0;
#X connect 13 0 15 0;
#X connect 14 0 15 0;
#X connect 15 0 16 0;
#X connect 17 0 22 0;
#X connect 22 0 3 0;
#X connect 22 1 3 0;
#X connect 26 0 22 0;
#X connect 28 0 29 0;
#X connect 28 1 29 1;
#X connect 29 0 4 0;
