#N canvas 605 232 504 431 10;
#X obj 74 40 inlet;
#X obj 154 371 outlet;
#X obj 74 71 unpack 0 0;
#X obj 213 204 change;
#X msg 232 116 1;
#X msg 302 120 2;
#X msg 363 118 3;
#X msg 58 139 10;
#X msg 128 143 20;
#X msg 189 141 30;
#X obj 213 184 +;
#X floatatom 239 229 5 0 0 0 - - -;
#X msg 154 341 /orient \$1;
#X obj 106 306 0;
#X obj 106 276 select 11 12 13 21 23 31 32 33 22;
#X obj 131 306 1;
#X obj 158 306 2;
#X obj 186 307 3;
#X obj 213 306 4;
#X obj 239 306 5;
#X obj 268 307 6;
#X obj 296 308 7;
#X obj 322 307 8;
#X obj 62 96 moses -1;
#X obj 127 118 moses 1;
#X obj 236 73 moses -1;
#X obj 301 95 moses 1;
#X connect 0 0 2 0;
#X connect 2 0 23 0;
#X connect 2 1 25 0;
#X connect 3 0 11 0;
#X connect 3 0 14 0;
#X connect 4 0 10 1;
#X connect 5 0 10 1;
#X connect 6 0 10 1;
#X connect 7 0 10 0;
#X connect 8 0 10 0;
#X connect 9 0 10 0;
#X connect 10 0 3 0;
#X connect 12 0 1 0;
#X connect 13 0 12 0;
#X connect 14 0 13 0;
#X connect 14 1 15 0;
#X connect 14 2 16 0;
#X connect 14 3 17 0;
#X connect 14 4 18 0;
#X connect 14 5 19 0;
#X connect 14 6 20 0;
#X connect 14 7 21 0;
#X connect 14 8 22 0;
#X connect 15 0 12 0;
#X connect 16 0 12 0;
#X connect 17 0 12 0;
#X connect 18 0 12 0;
#X connect 19 0 12 0;
#X connect 20 0 12 0;
#X connect 21 0 12 0;
#X connect 22 0 12 0;
#X connect 23 0 7 0;
#X connect 23 1 24 0;
#X connect 24 0 8 0;
#X connect 24 1 9 0;
#X connect 25 0 4 0;
#X connect 25 1 26 0;
#X connect 26 0 5 0;
#X connect 26 1 6 0;
