#N canvas 0 0 839 584 10;
#X msg 179 185 bang;
#X obj 179 263 makenote 80 1000;
#X obj 179 298 pack 0 0;
#X obj 179 208 random 30;
#X obj 179 237 + 40;
#X msg 301 211 40 \, 44 \, 56 \, 60;
#X obj 232 187 metro 100;
#X floatatom 260 315 5 0 0 2 decay - -;
#X floatatom 315 264 5 0 0 0 - - -;
#X msg 128 318 clear;
#X msg 92 318 stop;
#X obj 179 361 polypoly 12 1 voice~;
#X obj 184 395 ezdac~;
#X obj 512 221 s NOTEDUR;
#X floatatom 517 190 5 0 0 0 - - -;
#X floatatom 316 155 5 0 0 0 - - -;
#X msg 277 163 0;
#X obj 230 131 tgl 15 0 empty empty empty 17 7 0 10 -262144 -1 -1 0
1;
#X msg 342 323 30 voice~;
#X msg 345 344 1 voice~;
#X connect 0 0 3 0;
#X connect 1 0 2 0;
#X connect 1 1 2 1;
#X connect 2 0 11 0;
#X connect 3 0 4 0;
#X connect 4 0 1 0;
#X connect 5 0 1 0;
#X connect 6 0 3 0;
#X connect 7 0 11 1;
#X connect 8 0 1 2;
#X connect 9 0 11 0;
#X connect 10 0 11 0;
#X connect 11 0 12 0;
#X connect 11 1 12 1;
#X connect 14 0 13 0;
#X connect 15 0 6 1;
#X connect 16 0 6 0;
#X connect 17 0 6 0;
#X connect 18 0 11 2;
#X connect 19 0 11 2;
