#N canvas 473 221 469 428 10;
#X obj 142 194 fb.adsr~;
#X obj 82 51 inlet;
#X obj 82 115 stripnote;
#X obj 82 81 unpack 0 0;
#X obj 195 120 f;
#X text 240 120 dur;
#X obj 82 144 mtof;
#X obj 82 166 osc~;
#X obj 83 223 *~;
#X obj 83 332 outlet~;
#X obj 195 55 r NOTEDUR;
#X obj 324 38 inlet;
#X obj 149 331 outlet~;
#N canvas 0 0 450 300 pan 0;
#X text 264 126 0=left \, 1=right;
#X text 260 108 Arg. 1: Panning;
#X text 181 86 * ~M_PI/2;
#X obj 117 85 * 1.5708;
#X obj 39 172 *~ 0.7;
#X obj 120 172 *~ 0.7;
#X text 257 142 (not used currently);
#X obj 117 60 inlet;
#X obj 38 62 inlet~;
#X obj 39 203 outlet~;
#X obj 120 203 outlet~;
#X obj 76 150 cos;
#X obj 157 151 sin;
#X connect 3 0 11 0;
#X connect 3 0 12 0;
#X connect 4 0 9 0;
#X connect 5 0 10 0;
#X connect 7 0 3 0;
#X connect 8 0 4 0;
#X connect 8 0 5 0;
#X connect 11 0 4 1;
#X connect 12 0 5 1;
#X restore 83 300 pd pan;
#X obj 122 251 random 1001;
#X obj 122 277 / 1000;
#X obj 122 230 loadbang;
#X obj 195 144 - 50;
#X obj 195 170 max 50;
#X connect 0 0 8 1;
#X connect 1 0 3 0;
#X connect 2 0 6 0;
#X connect 2 1 0 0;
#X connect 3 0 2 0;
#X connect 3 1 2 1;
#X connect 4 0 17 0;
#X connect 6 0 7 0;
#X connect 7 0 8 0;
#X connect 8 0 13 0;
#X connect 10 0 4 0;
#X connect 13 0 9 0;
#X connect 13 1 12 0;
#X connect 14 0 15 0;
#X connect 15 0 13 1;
#X connect 16 0 14 0;
#X connect 17 0 18 0;
#X connect 18 0 0 1;
