#N canvas 103 267 953 438 10;
#N canvas 0 22 807 334 \$0-input 0;
#X obj 77 47 inlet~;
#X obj 77 216 outlet~;
#X connect 0 0 1 0;
#X coords 0 0 1 1 85 40 0;
#X restore -37 73 pd \$0-input;
#N canvas 457 103 186 286 \$0-DSP 0;
#N canvas 78 33 656 343 save_load 0;
#X obj 73 103 f;
#X obj 40 78 bng 15 250 50 0 empty empty save -30 7 0 10 -262144 -1
-1;
#X obj 73 252 pack s s;
#X obj 126 229 symbol;
#X msg 73 278 \; \$2 write \$1;
#X obj 315 163 makefilename pat%d.txt;
#X obj 315 273 pack s s;
#X obj 368 250 symbol;
#X msg 315 297 \; \$2 read \$1;
#X obj 91 90 hradio 10 1 0 4 empty empty empty 0 -8 0 10 -262144 -1
-1 0;
#X obj 315 98 hradio 10 1 0 4 empty empty empty 0 -8 0 10 -262144 -1
-1 0;
#X text 89 10 SAVE;
#X text 312 53 LOAD;
#X obj 73 145 makefilename pat%d.txt;
#N canvas 569 154 449 600 load-table 0;
#X obj 256 278 f;
#X obj 256 318 symbol;
#X obj 128 127 + 1;
#X obj 100 127 f;
#X obj 100 94 until;
#X obj 100 416 list trim;
#X msg 172 82 0;
#X obj 100 387 list prepend;
#X obj 181 345 mod 32;
#X obj 100 365 list prepend;
#N canvas 0 22 599 398 num2let 0;
#X obj 84 296 outlet;
#X obj 487 44 bng 15 250 50 0 empty empty empty 17 7 0 10 -262144 -1
-1;
#X obj 84 -32 inlet;
#X msg 84 30 a;
#X msg 94 40 b;
#X msg 104 50 c;
#X msg 114 60 d;
#X msg 124 70 e;
#X msg 134 80 f;
#X msg 144 90 g;
#X msg 154 100 h;
#X msg 164 110 i;
#X msg 174 120 j;
#X msg 184 130 k;
#X msg 194 140 l;
#X msg 204 150 m;
#X msg 214 160 n;
#X msg 224 170 o;
#X msg 234 181 p;
#X msg 244 190 q;
#X msg 256 201 r;
#X msg 264 210 s;
#X msg 274 220 t;
#X msg 284 230 u;
#X msg 293 240 v;
#X msg 304 250 w;
#X msg 314 260 x;
#X msg 324 270 y;
#X msg 334 280 z;
#X obj 84 -2 select 0 1 2 3 4 5 6 7 8 9 10 11 12 13 14 15 16 17 18
19 20 21 22 23 24 25;
#X connect 2 0 29 0;
#X connect 3 0 0 0;
#X connect 4 0 0 0;
#X connect 5 0 0 0;
#X connect 6 0 0 0;
#X connect 7 0 0 0;
#X connect 8 0 0 0;
#X connect 9 0 0 0;
#X connect 10 0 0 0;
#X connect 11 0 0 0;
#X connect 12 0 0 0;
#X connect 13 0 0 0;
#X connect 14 0 0 0;
#X connect 15 0 0 0;
#X connect 16 0 0 0;
#X connect 17 0 0 0;
#X connect 18 0 0 0;
#X connect 19 0 0 0;
#X connect 20 0 0 0;
#X connect 21 0 0 0;
#X connect 22 0 0 0;
#X connect 23 0 0 0;
#X connect 24 0 0 0;
#X connect 25 0 0 0;
#X connect 26 0 0 0;
#X connect 27 0 0 0;
#X connect 28 0 0 0;
#X connect 29 0 3 0;
#X connect 29 1 4 0;
#X connect 29 2 5 0;
#X connect 29 3 6 0;
#X connect 29 4 7 0;
#X connect 29 5 8 0;
#X connect 29 6 9 0;
#X connect 29 7 10 0;
#X connect 29 8 11 0;
#X connect 29 9 12 0;
#X connect 29 10 13 0;
#X connect 29 11 14 0;
#X connect 29 12 15 0;
#X connect 29 13 16 0;
#X connect 29 14 17 0;
#X connect 29 15 18 0;
#X connect 29 16 19 0;
#X connect 29 17 20 0;
#X connect 29 18 21 0;
#X connect 29 19 22 0;
#X connect 29 20 23 0;
#X connect 29 21 24 0;
#X connect 29 22 25 0;
#X connect 29 23 26 0;
#X connect 29 24 27 0;
#X connect 29 25 28 0;
#X connect 29 26 1 0;
#X restore 256 298 pd num2let;
#X obj 100 52 t b b;
#X obj 100 31 inlet;
#X obj 274 254 div 32;
#X obj 100 165 t f f b f;
#X msg 100 72 224;
#X obj 100 282 tabread \$0-pattern-l;
#X obj 100 473 route a b c d e f g;
#X obj 39 535 s \$0-a;
#X obj 90 535 s \$0-b;
#X obj 141 535 s \$0-c;
#X obj 192 535 s \$0-d;
#X obj 244 535 s \$0-e;
#X obj 350 535 s \$0-g;
#X obj 297 535 s \$0-f;
#X connect 0 0 10 0;
#X connect 1 0 7 1;
#X connect 2 0 3 1;
#X connect 3 0 2 0;
#X connect 3 0 14 0;
#X connect 4 0 3 0;
#X connect 5 0 17 0;
#X connect 6 0 3 1;
#X connect 6 0 0 1;
#X connect 7 0 5 0;
#X connect 8 0 9 1;
#X connect 9 0 7 0;
#X connect 10 0 1 0;
#X connect 11 0 15 0;
#X connect 11 1 6 0;
#X connect 12 0 11 0;
#X connect 13 0 0 1;
#X connect 14 0 16 0;
#X connect 14 1 8 0;
#X connect 14 2 0 0;
#X connect 14 3 13 0;
#X connect 15 0 4 0;
#X connect 16 0 9 0;
#X connect 17 0 18 0;
#X connect 17 1 19 0;
#X connect 17 2 20 0;
#X connect 17 3 21 0;
#X connect 17 4 22 0;
#X connect 17 5 24 0;
#X connect 17 6 23 0;
#X restore 372 143 pd load-table;
#X obj 73 26 r \$0-save;
#X obj 91 70 r \$0-patnum;
#X obj 315 77 r \$0-patnum;
#X obj 73 47 bang;
#X obj 368 208 \$0;
#X msg 368 229 \$1-pattern-l;
#X obj 315 185 t s b;
#X obj 315 113 t b f;
#X obj 126 189 \$0;
#X msg 126 208 \$1-pattern;
#X obj 73 168 t s b;
#X obj 149 256 print;
#X connect 0 0 13 0;
#X connect 1 0 0 0;
#X connect 2 0 4 0;
#X connect 3 0 2 1;
#X connect 3 0 26 0;
#X connect 5 0 21 0;
#X connect 6 0 8 0;
#X connect 7 0 6 1;
#X connect 9 0 0 1;
#X connect 10 0 22 0;
#X connect 13 0 25 0;
#X connect 15 0 18 0;
#X connect 16 0 9 0;
#X connect 17 0 10 0;
#X connect 18 0 0 0;
#X connect 19 0 20 0;
#X connect 20 0 7 0;
#X connect 21 0 6 0;
#X connect 21 1 19 0;
#X connect 22 0 14 0;
#X connect 22 1 5 0;
#X connect 23 0 24 0;
#X connect 24 0 3 0;
#X connect 25 0 2 0;
#X connect 25 1 23 0;
#X restore 18 89 pd save_load;
#N canvas 639 87 423 318 counter 0;
#X obj 27 144 r \$0-tick;
#X obj 27 228 change;
#X obj 45 65 + 1;
#X obj 27 207 mod 32;
#X obj 27 186 / 4;
#X obj 277 97 r \$0-Rate;
#X obj 277 139 int;
#X obj 277 159 sel 0 1 2;
#X obj 277 118 m_scale 0 1 3 0;
#X obj 27 251 s \$0-step;
#X msg 277 183 2;
#X msg 297 207 4;
#X msg 317 232 8;
#X obj 27 165 mod;
#X obj 45 23 r \$0-Length-s;
#X msg 199 90 32;
#X obj 45 87 *;
#X msg 149 90 16;
#X obj 99 113 t b f;
#X obj 45 44 f;
#X obj 149 113 t b f;
#X obj 204 112 t b f;
#X msg 99 91 8;
#X connect 0 0 13 0;
#X connect 1 0 9 0;
#X connect 2 0 16 0;
#X connect 3 0 1 0;
#X connect 4 0 3 0;
#X connect 5 0 8 0;
#X connect 6 0 7 0;
#X connect 7 0 10 0;
#X connect 7 0 22 0;
#X connect 7 1 11 0;
#X connect 7 1 17 0;
#X connect 7 2 12 0;
#X connect 7 2 15 0;
#X connect 7 3 15 0;
#X connect 8 0 6 0;
#X connect 10 0 4 1;
#X connect 11 0 4 1;
#X connect 12 0 4 1;
#X connect 13 0 4 0;
#X connect 14 0 19 0;
#X connect 15 0 21 0;
#X connect 16 0 13 1;
#X connect 17 0 20 0;
#X connect 18 0 19 0;
#X connect 18 1 16 1;
#X connect 19 0 2 0;
#X connect 20 0 19 0;
#X connect 20 1 16 1;
#X connect 21 0 19 0;
#X connect 21 1 16 1;
#X connect 22 0 18 0;
#X restore 18 147 pd counter;
#N canvas 727 321 512 363 swinger 0;
#X msg 103 183 0;
#N canvas 436 148 221 230 odd_even_ID 0;
#X obj 102 42 / 2;
#X obj 102 62 wrap;
#X obj 49 166 ==;
#X obj 49 139 unpack f f;
#X obj 49 115 pack f f;
#X obj 116 85 bang;
#X obj 102 20 inlet;
#X obj 49 192 outlet;
#X connect 0 0 1 0;
#X connect 1 0 4 1;
#X connect 1 0 5 0;
#X connect 2 0 7 0;
#X connect 3 0 2 0;
#X connect 3 1 2 1;
#X connect 4 0 3 0;
#X connect 5 0 4 0;
#X connect 6 0 0 0;
#X restore 103 63 pd odd_even_ID;
#X obj 121 244 s del;
#X msg 268 104 0;
#X obj 268 81 sel 15;
#X obj 103 111 moses 1;
#X obj 305 -21 m_scale 0 1 15 2;
#X obj 305 -48 r \$0-Swing;
#X obj 397 33 r \$0-bpm;
#X obj 328 130 /;
#X obj 305 41 t f b f;
#X obj 149 182 f;
#X obj 103 16 r \$0-step;
#X obj 397 63 t b f;
#X obj 328 110 f;
#X obj 305 20 f;
#X msg 103 133 bang;
#X msg 149 133 bang;
#X connect 0 0 2 0;
#X connect 1 0 5 0;
#X connect 3 0 11 0;
#X connect 4 0 3 0;
#X connect 5 0 16 0;
#X connect 5 1 17 0;
#X connect 6 0 15 0;
#X connect 7 0 6 0;
#X connect 8 0 13 0;
#X connect 9 0 11 0;
#X connect 10 0 4 0;
#X connect 10 1 14 0;
#X connect 10 2 9 1;
#X connect 11 0 2 0;
#X connect 12 0 1 0;
#X connect 13 0 15 0;
#X connect 13 1 14 1;
#X connect 14 0 9 0;
#X connect 15 0 10 0;
#X connect 16 0 0 0;
#X connect 17 0 11 0;
#X restore 18 175 pd swinger;
#N canvas 104 205 578 549 progress 0;
#X obj 51 166 sel 31;
#X obj 51 389 f;
#X obj 81 389 + 1;
#X obj 118 475 s \$0-patnum-r;
#X obj 51 410 mod 4;
#X obj 125 97 m_accel_magnitude;
#X obj 345 42 r \$0-Progress;
#X obj 51 144 r \$0-step;
#X obj 90 55 r \$0-Length-s;
#X obj 90 76 + 1;
#X obj 90 97 * 4;
#X obj 90 118 - 1;
#X obj 428 247 symbol;
#X msg 428 268 label \$1;
#X obj 428 289 s \$0-progtypelabel;
#X obj 125 119 abs/exceed 2.5;
#N canvas 0 22 450 300 debounce 0;
#X msg 155 74 0;
#X msg 177 112 1;
#X obj 85 66 spigot 1;
#X obj 85 92 t a b b;
#X obj 85 44 inlet;
#X obj 85 153 outlet;
#X obj 108 129 del 1000;
#X connect 0 0 2 1;
#X connect 1 0 2 1;
#X connect 2 0 3 0;
#X connect 3 0 5 0;
#X connect 3 1 6 0;
#X connect 3 2 0 0;
#X connect 4 0 2 0;
#X connect 6 0 1 0;
#X restore 125 141 pd debounce;
#X obj 51 305 list trim;
#X obj 51 285 list prepend;
#X obj 207 416 random 4;
#X msg 363 198 Seq_auto;
#X msg 382 178 Rnd_auto;
#X msg 419 138 Rnd_shake;
#X msg 400 158 Seq_shake;
#X msg 345 218 Static;
#X obj 51 236 spigot;
#X msg 62 215 1;
#X msg 94 215 0;
#X obj 125 234 spigot;
#X msg 136 213 1;
#X msg 168 213 0;
#X msg 51 349 bang;
#X msg 125 350 bang;
#X msg 200 350 bang;
#X msg 274 350 bang;
#X obj 345 91 sel 0 1 2 3 4;
#X msg 435 120 Paging;
#X obj 51 325 route Seq_auto Rnd_auto Seq_shake Rnd_shake Paging;
#X obj 205 234 spigot;
#X msg 216 213 1;
#X msg 248 213 0;
#X obj 205 56 r \$0-page;
#X connect 0 0 25 0;
#X connect 1 0 2 0;
#X connect 1 0 4 0;
#X connect 2 0 1 1;
#X connect 4 0 3 0;
#X connect 5 0 15 0;
#X connect 6 0 35 0;
#X connect 7 0 0 0;
#X connect 8 0 9 0;
#X connect 9 0 10 0;
#X connect 10 0 11 0;
#X connect 11 0 0 1;
#X connect 12 0 13 0;
#X connect 13 0 14 0;
#X connect 15 0 16 0;
#X connect 16 0 28 0;
#X connect 17 0 37 0;
#X connect 18 0 17 0;
#X connect 19 0 3 0;
#X connect 20 0 18 1;
#X connect 20 0 12 0;
#X connect 21 0 18 1;
#X connect 21 0 12 0;
#X connect 22 0 12 0;
#X connect 22 0 18 1;
#X connect 23 0 12 0;
#X connect 23 0 18 1;
#X connect 24 0 18 1;
#X connect 24 0 12 0;
#X connect 25 0 18 0;
#X connect 26 0 25 1;
#X connect 27 0 25 1;
#X connect 28 0 18 0;
#X connect 29 0 28 1;
#X connect 30 0 28 1;
#X connect 31 0 1 0;
#X connect 32 0 19 0;
#X connect 33 0 1 0;
#X connect 34 0 19 0;
#X connect 35 0 24 0;
#X connect 35 1 20 0;
#X connect 35 1 26 0;
#X connect 35 1 30 0;
#X connect 35 1 40 0;
#X connect 35 2 21 0;
#X connect 35 2 26 0;
#X connect 35 2 30 0;
#X connect 35 2 40 0;
#X connect 35 3 23 0;
#X connect 35 3 27 0;
#X connect 35 3 29 0;
#X connect 35 3 40 0;
#X connect 35 4 22 0;
#X connect 35 4 27 0;
#X connect 35 4 29 0;
#X connect 35 4 40 0;
#X connect 35 5 36 0;
#X connect 35 5 39 0;
#X connect 36 0 18 1;
#X connect 36 0 12 0;
#X connect 37 0 31 0;
#X connect 37 1 32 0;
#X connect 37 2 33 0;
#X connect 37 3 34 0;
#X connect 37 4 3 0;
#X connect 38 0 18 0;
#X connect 39 0 38 1;
#X connect 40 0 38 1;
#X connect 41 0 38 0;
#X restore 18 64 pd progress;
#N canvas 0 22 450 300 sounds 0;
#X obj 27 171 outlet~;
#X obj 83 171 outlet~;
#N canvas 455 146 352 439 electrodrums 0;
#N canvas 237 75 707 418 kit1 0;
#X msg 10 113 bd;
#X msg 97 113 sn;
#X msg 193 113 hh;
#X msg 293 113 cp;
#X obj 10 376 outlet~;
#N canvas 491 48 504 376 tom1 0;
#X obj 79 104 line~;
#X obj 79 174 *~;
#X msg 134 74 1 \, 0 \$1;
#X obj 134 4 t b b;
#X obj 79 152 osc~ 50;
#X obj 134 26 del 2;
#X msg 79 74 0 \, 1 2;
#X obj 79 261 outlet~;
#X obj 134 -17 inlet;
#X obj 79 196 hip~ 1000;
#X obj 134 48 f 207;
#X text 195 109 This is the work of diplidito (Pd user);
#X obj 79 128 *~ 400;
#X obj 139 241 m_scale 0 1 0 2;
#X obj 79 217 *~;
#X obj 139 221 r \$0-e-vol;
#X connect 0 0 1 1;
#X connect 0 0 12 0;
#X connect 1 0 9 0;
#X connect 2 0 0 0;
#X connect 3 0 5 0;
#X connect 3 1 6 0;
#X connect 4 0 1 0;
#X connect 5 0 10 0;
#X connect 6 0 0 0;
#X connect 8 0 3 0;
#X connect 9 0 14 0;
#X connect 10 0 2 0;
#X connect 12 0 4 0;
#X connect 13 0 14 1;
#X connect 14 0 7 0;
#X connect 15 0 13 0;
#X restore 387 113 pd tom1;
#N canvas 393 28 504 376 tom2 0;
#X obj 79 104 line~;
#X obj 79 174 *~;
#X msg 134 74 1 \, 0 \$1;
#X obj 134 4 t b b;
#X obj 79 152 osc~ 50;
#X obj 134 26 del 2;
#X msg 79 74 0 \, 1 2;
#X obj 79 241 outlet~;
#X obj 134 -17 inlet;
#X obj 79 196 hip~ 1000;
#X obj 134 48 f 207;
#X text 195 109 This is the work of diplidito (Pd user);
#X obj 79 128 *~ 300;
#X obj 79 219 *~;
#X obj 139 241 m_scale 0 1 0 2;
#X obj 139 221 r \$0-f-vol;
#X connect 0 0 1 1;
#X connect 0 0 12 0;
#X connect 1 0 9 0;
#X connect 2 0 0 0;
#X connect 3 0 5 0;
#X connect 3 1 6 0;
#X connect 4 0 1 0;
#X connect 5 0 10 0;
#X connect 6 0 0 0;
#X connect 8 0 3 0;
#X connect 9 0 13 0;
#X connect 10 0 2 0;
#X connect 12 0 4 0;
#X connect 13 0 7 0;
#X connect 14 0 13 1;
#X connect 15 0 14 0;
#X restore 484 113 pd tom2;
#N canvas 459 209 551 543 ride 0;
#X obj 234 338 line~;
#X obj 55 355 *~;
#X obj 55 187 samphold~;
#X obj 155 187 samphold~;
#X obj 106 145 phasor~ 5000;
#X obj 206 145 phasor~ 5000;
#X obj 162 212 noise~;
#X obj 55 276 +~;
#X obj 162 245 *~ 0.02;
#X msg 295 300 1 \, 0 \$1;
#X obj 295 166 t b b;
#X obj 56 401 hip~ 5000;
#X obj 155 84 - 4;
#X obj 55 41 r \$0-rpitch;
#X obj 56 461 outlet~;
#X obj 295 28 inlet;
#X obj 360 152 r \$0-rd;
#X obj 295 210 del 3;
#X msg 234 304 0 \, 1 10;
#X text 195 109 This is the work of diplidito (Pd user);
#X obj 55 124 osc~ 50;
#X obj 155 124 osc~ 46;
#X obj 295 269 f 343;
#X obj 56 429 *~;
#X obj 89 429 r \$0-g-vol;
#X connect 0 0 1 1;
#X connect 1 0 11 0;
#X connect 2 0 7 0;
#X connect 3 0 7 0;
#X connect 4 0 2 1;
#X connect 5 0 3 1;
#X connect 6 0 8 0;
#X connect 7 0 1 0;
#X connect 8 0 7 1;
#X connect 9 0 0 0;
#X connect 10 0 17 0;
#X connect 10 1 18 0;
#X connect 11 0 23 0;
#X connect 13 0 12 0;
#X connect 15 0 10 0;
#X connect 17 0 22 0;
#X connect 18 0 0 0;
#X connect 20 0 2 0;
#X connect 21 0 3 0;
#X connect 22 0 9 0;
#X connect 23 0 14 0;
#X connect 24 0 23 1;
#X restore 583 113 pd ride;
#X obj 254 8 inlet;
#X obj 254 38 route a b c d e f g;
#X obj 387 93 bang;
#X obj 484 93 bang;
#X obj 583 93 bang;
#X obj 10 180 abs/s_drumelectro \$0;
#X connect 0 0 13 0;
#X connect 1 0 13 0;
#X connect 2 0 13 0;
#X connect 3 0 13 0;
#X connect 5 0 4 0;
#X connect 6 0 4 0;
#X connect 7 0 4 0;
#X connect 8 0 9 0;
#X connect 9 0 0 0;
#X connect 9 1 1 0;
#X connect 9 2 2 0;
#X connect 9 3 3 0;
#X connect 9 4 10 0;
#X connect 9 5 11 0;
#X connect 9 6 12 0;
#X connect 10 0 5 0;
#X connect 11 0 6 0;
#X connect 12 0 7 0;
#X connect 13 0 4 0;
#X restore 22 284 pd kit1;
#X obj 22 221 list trim;
#X obj 22 387 outlet~;
#N canvas 0 22 710 331 kit2 0;
#X msg 30 127 kd 60;
#X msg 114 127 sd 60;
#X msg 208 123 hh 60;
#X msg 599 118 cb 60;
#X msg 412 120 hb 60;
#X msg 498 120 lb 60;
#X msg 311 120 hc 60;
#X obj 147 257 outlet~;
#X obj 77 9 inlet;
#X obj 77 60 route a b c d e f g;
#X obj 147 230 *~ 4;
#X obj 147 203 abs/s_epkit \$0;
#X connect 0 0 11 0;
#X connect 1 0 11 0;
#X connect 2 0 11 0;
#X connect 3 0 11 0;
#X connect 4 0 11 0;
#X connect 5 0 11 0;
#X connect 6 0 11 0;
#X connect 8 0 9 0;
#X connect 9 0 0 0;
#X connect 9 1 1 0;
#X connect 9 2 2 0;
#X connect 9 3 6 0;
#X connect 9 4 4 0;
#X connect 9 5 5 0;
#X connect 9 6 3 0;
#X connect 10 0 7 0;
#X connect 11 0 10 0;
#X restore 83 283 pd kit2;
#X obj 22 242 route kit1 kit2;
#X obj 22 200 list prepend;
#X msg 94 176 kit1;
#X msg 137 177 kit2;
#X obj 22 175 r \$0-bang;
#X obj 95 76 r \$0-kitselect;
#X obj 95 97 + 0.5;
#X obj 95 118 int;
#X obj 95 139 sel 0;
#X text 179 178 New kits go here!;
#X text 137 242 here!;
#X text 146 284 and here!;
#X connect 0 0 2 0;
#X connect 1 0 4 0;
#X connect 3 0 2 0;
#X connect 4 0 0 0;
#X connect 4 1 3 0;
#X connect 5 0 1 0;
#X connect 6 0 5 1;
#X connect 7 0 5 1;
#X connect 8 0 5 0;
#X connect 9 0 10 0;
#X connect 10 0 11 0;
#X connect 11 0 12 0;
#X connect 12 0 6 0;
#X connect 12 1 7 0;
#X restore 50 128 pd electrodrums;
#X connect 2 0 0 0;
#X connect 2 0 1 0;
#X restore 18 202 pd sounds;
#X obj 18 229 outlet~;
#X obj 78 229 outlet~;
#X obj 18 118 abs/steps \$0;
#X connect 4 0 5 0;
#X connect 4 1 6 0;
#X restore -37 120 pd \$0-DSP;
#X obj -37 18 inlet~;
#X obj -37 184 outlet~;
#X obj 23 184 outlet~;
#X obj 81 378 outlet;
#X obj 81 57 inlet;
#N canvas 273 100 1007 493 \$0-PARAMETERS 0;
#X obj 290 389 outlet;
#X obj -75 108 s \$0-tick;
#X obj -75 46 inlet;
#X obj 106 106 cnv 15 790 20 empty empty Step_sequencer 345 11 1 14
-261234 -33289 0;
#X obj 106 132 cnv 15 790 250 empty empty empty 20 12 0 14 -162280
-66577 0;
#X text 147 136 1;
#X text 237 136 5;
#X text 324 137 9;
#X text 408 137 13;
#X text 497 137 17;
#X text 584 137 21;
#X text 672 137 25;
#X text 759 136 29;
#X obj 141 151 hradio 22 1 0 32 dummy55 \$0-step empty 0 -8 0 10 -228856
-1 -262144 9;
#X text 83 180 a;
#X text 83 203 b;
#X text 82 226 c;
#X text 81 248 d;
#X text 82 271 e;
#X text 81 295 f;
#X text 82 316 g;
#X obj 649 342 hradio 20 1 0 4 \$0-patnum \$0-patload Pattern 1 30
1 14 -227289 -262144 -262144 0;
#X obj -28 139 s \$0-bpm;
#X obj 731 345 hradio 15 1 0 8 \$0-Length-s \$0-lengthload Length 37
25 1 14 -227289 -262144 -262144 7;
#X obj 115 178 vsl 15 15 0 1 0 0 \$0-a-vol \$0-vol-load empty 0 -9
0 10 -1 -228856 -1 1400 1;
#X obj 115 201 vsl 15 15 0 1 0 0 \$0-b-vol \$0-vol-load empty 0 -9
0 10 -1 -228856 -1 1400 1;
#X obj 115 224 vsl 15 15 0 1 0 0 \$0-c-vol \$0-vol-load empty 0 -9
0 10 -1 -228856 -1 1400 1;
#X obj 115 247 vsl 15 15 0 1 0 0 \$0-d-vol \$0-vol-load empty 0 -9
0 10 -1 -228856 -1 1400 1;
#X obj 115 270 vsl 15 15 0 1 0 0 \$0-e-vol \$0-vol-load empty 0 -9
0 10 -1 -228856 -1 1400 1;
#X obj 115 293 vsl 15 15 0 1 0 0 \$0-f-vol \$0-vol-load empty 0 -9
0 10 -1 -228856 -1 1400 1;
#X obj 115 316 vsl 15 15 0 1 0 0 \$0-g-vol \$0-vol-load empty 0 -9
0 10 -1 -228856 -1 1400 1;
#X obj -48 208 loadbang;
#X msg -48 229 1;
#X obj 699 364 vsl 30 13 0 1 0 0 \$0-save dummyb save 2 7 0 10 -227289
-227289 -262144 0 1;
#X obj 290 342 rjc_parameter_floatrange \$0 Rate 0.4;
#X obj 471 344 hradio 17 1 0 6 \$0-Progress \$0-Progressload Progress_type
40 30 1 14 -227289 -262144 -262144 0;
#X obj -48 250 s \$0-vol-load;
#X obj 110 342 rjc_parameter_floatrange \$0 Swing 0;
#X obj 495 176 abs/step-sequencer-strip \$0 16;
#N canvas 243 338 858 304 (subpatch) 0;
#X array \$0-pattern-l 224 float 1;
#A 0 1 0 0 0 0 0 0 0 1 0 0 0 0 0 0 1 0 0 1 0 0 0 0 0 0 0 0 0 0 0 0
0 0 0 0 0 1 0 0 0 0 0 0 0 1 0 0 0 0 0 0 0 0 0 1 0 0 0 0 0 0 0 1 0 1
1 1 1 1 1 1 1 1 1 1 1 1 1 1 1 1 1 1 0 0 0 0 0 0 0 0 0 0 0 0 0 0 0 0
0 1 0 0 0 0 0 0 0 0 0 0 0 0 0 0 0 0 0 0 0 0 0 0 0 0 0 0 0 0 0 0 0 0
0 0 0 0 0 0 0 0 0 0 0 0 0 0 0 0 0 0 0 0 0 0 0 0 0 0 0 0 0 0 0 0 0 0
0 0 0 0 0 0 0 0 0 0 0 0 0 0 0 0 0 0 0 0 0 0 0 0 0 0 0 0 0 0 0 0 0 0
0 0 0 0 0 0 0 0 0 0 0 0 0 0 0 0 0 1 0 0 0 0 0;
#X coords 0 1 223 0 223 140 1;
#X restore 385 -49 graph;
#N canvas 243 338 858 304 (subpatch) 0;
#X array \$0-pattern 224 float 1;
#A 0 1 0 0 0 0 0 0 0 1 0 0 0 0 0 0 1 0 0 1 0 0 0 0 0 0 0 0 0 0 0 0
0 0 0 0 0 1 0 0 0 0 0 0 0 1 0 0 0 0 0 0 0 0 0 1 0 0 0 0 0 0 0 1 0 1
1 1 1 1 1 1 1 1 1 1 1 1 1 1 1 1 1 1 0 0 0 0 0 0 0 0 0 0 0 0 0 0 0 0
0 1 0 0 0 0 0 0 0 0 0 0 0 0 0 0 0 0 0 0 0 0 0 0 0 0 0 0 0 0 0 0 0 0
0 0 0 0 0 0 0 0 0 0 0 0 0 0 0 0 0 0 0 0 0 0 0 0 0 0 0 0 0 0 0 0 0 0
0 0 0 0 0 0 0 0 0 0 0 0 0 0 0 0 0 0 0 0 0 0 0 0 0 0 0 0 0 0 0 0 0 0
0 0 0 0 0 0 0 0 0 0 0 0 0 0 0 0 0 1 0 0 0 0 0;
#X coords 0 1 223 0 223 140 1;
#X restore 152 -48 graph;
#X obj 135 176 abs/step-sequencer-strip \$0 0;
#X obj 157 176 abs/step-sequencer-strip \$0 1;
#X obj 179 176 abs/step-sequencer-strip \$0 2;
#X obj 201 176 abs/step-sequencer-strip \$0 3;
#X obj 225 176 abs/step-sequencer-strip \$0 4;
#X obj 247 176 abs/step-sequencer-strip \$0 5;
#X obj 269 176 abs/step-sequencer-strip \$0 6;
#X obj 291 176 abs/step-sequencer-strip \$0 7;
#X obj 315 176 abs/step-sequencer-strip \$0 8;
#X obj 337 176 abs/step-sequencer-strip \$0 9;
#X obj 359 176 abs/step-sequencer-strip \$0 10;
#X obj 381 176 abs/step-sequencer-strip \$0 11;
#X obj 405 176 abs/step-sequencer-strip \$0 12;
#X obj 427 176 abs/step-sequencer-strip \$0 13;
#X obj 449 176 abs/step-sequencer-strip \$0 14;
#X obj 471 176 abs/step-sequencer-strip \$0 15;
#X obj 517 176 abs/step-sequencer-strip \$0 17;
#X obj 539 176 abs/step-sequencer-strip \$0 18;
#X obj 561 176 abs/step-sequencer-strip \$0 19;
#X obj 585 176 abs/step-sequencer-strip \$0 20;
#X obj 607 176 abs/step-sequencer-strip \$0 21;
#X obj 629 176 abs/step-sequencer-strip \$0 22;
#X obj 651 176 abs/step-sequencer-strip \$0 23;
#X obj 675 176 abs/step-sequencer-strip \$0 24;
#X obj 697 176 abs/step-sequencer-strip \$0 25;
#X obj 719 176 abs/step-sequencer-strip \$0 26;
#X obj 741 176 abs/step-sequencer-strip \$0 27;
#X obj 765 176 abs/step-sequencer-strip \$0 28;
#X obj 787 176 abs/step-sequencer-strip \$0 29;
#X obj 809 176 abs/step-sequencer-strip \$0 30;
#X obj 831 176 abs/step-sequencer-strip \$0 31;
#X obj 857 180 vsl 12 12 0 1 0 0 \$0-a-clear-bang dummyb c 3 5 0 10
-1 -86277 -228856 0 1;
#X obj 857 203 vsl 12 12 0 1 0 0 \$0-b-clear-bang dummyb c 3 5 0 10
-1 -86277 -228856 0 1;
#X obj 857 226 vsl 12 12 0 1 0 0 \$0-c-clear-bang dummyb c 3 5 0 10
-1 -86277 -228856 0 1;
#X obj 857 249 vsl 12 12 0 1 0 0 \$0-d-clear-bang dummyb c 3 5 0 10
-1 -86277 -228856 0 1;
#X obj 857 272 vsl 12 12 0 1 0 0 \$0-e-clear-bang dummyb c 3 5 0 10
-1 -86277 -228856 0 1;
#X obj 857 295 vsl 12 12 0 1 0 0 \$0-f-clear-bang dummyb c 3 5 0 10
-1 -86277 -228856 0 1;
#X obj 857 318 vsl 12 12 0 1 0 0 \$0-g-clear-bang dummyb c 3 5 0 10
-1 -86277 -228856 0 1;
#X obj 875 180 vsl 12 12 0 1 0 0 \$0-a-rand-bang dummyb r 3 5 0 10
-1 -86277 -228856 0 1;
#X obj 875 203 vsl 12 12 0 1 0 0 \$0-b-rand-bang dummyb r 3 5 0 10
-1 -86277 -228856 0 1;
#X obj 875 226 vsl 12 12 0 1 0 0 \$0-c-rand-bang dummyb r 3 5 0 10
-1 -86277 -228856 0 1;
#X obj 875 249 vsl 12 12 0 1 0 0 \$0-d-rand-bang dummyb r 3 5 0 10
-1 -86277 -228856 0 1;
#X obj 875 272 vsl 12 12 0 1 0 0 \$0-e-rand-bang dummyb r 3 5 0 10
-1 -86277 -228856 0 1;
#X obj 875 295 vsl 12 12 0 1 0 0 \$0-f-rand-bang dummyb r 3 5 0 10
-1 -86277 -228856 0 1;
#X obj 875 318 vsl 12 12 0 1 0 0 \$0-g-rand-bang dummyb r 3 5 0 10
-1 -86277 -228856 0 1;
#X obj 856 155 vsl 14 14 0 1 0 0 \$0-clear-bang dummyb C 4 7 0 10 -1
-86277 -228856 0 1;
#X obj 874 155 vsl 14 14 0 1 0 0 \$0-rand-bang dummyb R 4 7 0 10 -1
-86277 -228856 0 1;
#X obj 853 342 hradio 20 1 0 2 \$0-kitselect \$0-kitselectload Kit
11 30 1 14 -227289 -262144 -262144 0;
#N canvas 0 22 398 689 paramsload 0;
#X obj 28 38 loadbang;
#X msg 28 85 7;
#X obj 92 38 r \$0-Length;
#X msg 92 84 set \$1;
#X obj 93 132 r \$0-patnum-r;
#X obj 29 132 loadbang;
#X msg 93 183 set \$1;
#X msg 29 182 0;
#X obj 93 153 t b f;
#X obj 136 153 r \$0-patnum;
#X obj 92 61 t b f;
#X obj 135 61 r \$0-Length-s;
#X obj 29 153 del 50;
#X obj 28 59 del 50;
#X obj 29 205 s \$0-patload;
#X obj 28 106 s \$0-lengthload;
#X obj 34 240 loadbang;
#X msg 129 331 set \$1;
#X msg 57 366 0;
#X obj 97 311 t b f;
#X obj 57 414 s \$0-kitselectload;
#X obj 57 386 spigot 0;
#X obj 96 245 r \$0-kitselect;
#X obj 34 261 t b b b;
#X obj 96 291 spigot;
#X msg 92 365 1;
#X msg 128 365 0;
#X msg 121 269 1;
#X msg 157 269 0;
#X text 239 72 Length param;
#X text 238 177 Pattern number;
#X text 238 318 Kit selector;
#X obj 36 456 loadbang;
#X obj 101 443 r \$0-Progress;
#X msg 101 464 set \$1;
#X msg 36 490 0;
#X obj 36 511 s \$0-Progressload;
#X text 232 474 Progress type;
#X connect 0 0 13 0;
#X connect 1 0 15 0;
#X connect 2 0 10 0;
#X connect 3 0 1 0;
#X connect 4 0 8 0;
#X connect 5 0 12 0;
#X connect 6 0 7 0;
#X connect 7 0 14 0;
#X connect 8 0 7 0;
#X connect 8 1 6 0;
#X connect 9 0 6 0;
#X connect 10 0 1 0;
#X connect 10 1 3 0;
#X connect 11 0 3 0;
#X connect 12 0 7 0;
#X connect 13 0 1 0;
#X connect 16 0 23 0;
#X connect 17 0 18 0;
#X connect 18 0 21 0;
#X connect 19 0 18 0;
#X connect 19 1 17 0;
#X connect 21 0 20 0;
#X connect 22 0 24 0;
#X connect 23 0 26 0;
#X connect 23 0 27 0;
#X connect 23 1 18 0;
#X connect 23 2 25 0;
#X connect 23 2 28 0;
#X connect 24 0 19 0;
#X connect 25 0 21 1;
#X connect 26 0 21 1;
#X connect 27 0 24 1;
#X connect 28 0 24 1;
#X connect 32 0 35 0;
#X connect 33 0 34 0;
#X connect 34 0 35 0;
#X connect 35 0 36 0;
#X restore 613 75 pd paramsload;
#X obj -23 343 s \$0-page;
#X obj -23 285 r #touch;
#X obj -23 311 route swipe;
#X obj -75 79 route tick bpm;
#X obj 576 342 hsl 69 20 0 1 0 0 \$0-dum \$0-progtypelabel Static 0
12 1 12 -227289 -227289 -262144 0 1;
#X connect 2 0 93 0;
#X connect 31 0 32 0;
#X connect 32 0 36 0;
#X connect 34 0 0 0;
#X connect 37 0 34 0;
#X connect 91 0 92 0;
#X connect 92 0 90 0;
#X connect 93 0 1 0;
#X connect 93 1 22 0;
#X connect 93 2 37 0;
#X coords 0 -1 1 1 802 287 2 100 100;
#X restore 81 82 pd \$0-PARAMETERS;
#N canvas 77 321 544 215 MODULE_INFO 0;
#X text 53 48 authors: Reality Jockey;
#X text 50 164 decorator: s1m1-s2m1;
#X text 50 187 tags:;
#X text 53 27 name: Step_sequencer;
#X text 52 67 description: 32 step sequencer with ability to save patterns.
Loaded with some old-school drum sounds. Comes with controls for swing
amount \, rate (crotchets/quavers/semi-quavers) and progress type:
1 static \, 2 sequential auto \, 3 random auto \, 4 sequential on-shake
\, 5 random on-shake \, and 6 paging (Change in Expert mode).;
#X restore -37 -14 pd MODULE_INFO;
#N canvas 0 22 450 300 reminder 0;
#X obj 100 100 cnv 15 415 30 empty empty empty 20 12 0 14 -261234 -66577
0;
#X text 102 101 Note: Don't forget to save this Pd patch after making
your changes by clicking File --> Save!;
#X coords 0 -1 1 1 415 30 2 100 100;
#X restore 256 382 pd reminder;
#X connect 1 0 3 0;
#X connect 1 1 4 0;
#X connect 2 0 0 0;
#X connect 6 0 7 0;
#X connect 7 0 5 0;
