#N canvas 582 49 372 251 10;
#X obj 19 65 inlet~ MIC;
#X obj 155 200 outlet;
#X obj 155 65 inlet;
#N canvas 9 654 458 222 MODULE_INFO 0;
#X text 64 79 authors: Reality Jockey;
#X text 66 57 name: Time Cruising;
#X text 65 171 tags:;
#X text 65 151 decorator: s1m1-s2m1;
#X text 64 98 description: Think reversing reality in real-time is
impossible? This module takes mic input and plays it backwards. The
flux parameter influences the "flux dispersal rate".;
#X restore 19 23 pd MODULE_INFO;
#X obj 19 200 outlet~;
#X obj 79 200 outlet~;
#N canvas 128 191 924 696 \$0-DSP 0;
#X obj 290 559 outlet~;
#X obj 350 559 outlet~;
#X msg 716 269 stop;
#X msg 146 277 stop;
#X obj 290 520 u_robinpolymono 2 s_playtable;
#X obj 303 147 + 1;
#X obj 266 147 f;
#X msg 728 296 clear \, start;
#X msg 158 306 clear \, start;
#X obj 267 114 metro 240;
#X obj 266 170 mod 2;
#X obj 266 194 sel 0 1;
#X obj 339 222 t b b b;
#X obj 266 222 t b b b;
#X obj 266 32 loadbang;
#X obj 364 490 list trim;
#X obj 288 391 list trim;
#X obj 288 366 list prepend \$0-liverec2;
#X obj 364 465 list prepend \$0-liverec1;
#X obj 296 -27 inlet~;
#X obj 398 65 int;
#X obj 398 21 r \$0-Flux;
#X obj 287 343 pack 1 -1 f f;
#X obj 344 316 t f f;
#X obj 365 441 pack 1 -1 f f;
#X obj 422 414 t f f;
#X obj 397 43 m_scale 0 1 80 1000;
#X obj -19 334 u_record \$0-liverec2 1000;
#X obj 551 327 u_record \$0-liverec1 1000;
#X connect 2 0 28 1;
#X connect 3 0 27 1;
#X connect 4 0 0 0;
#X connect 4 0 1 0;
#X connect 5 0 6 1;
#X connect 6 0 5 0;
#X connect 6 0 10 0;
#X connect 7 0 28 1;
#X connect 8 0 27 1;
#X connect 9 0 6 0;
#X connect 10 0 11 0;
#X connect 11 0 13 0;
#X connect 11 1 12 0;
#X connect 12 0 8 0;
#X connect 12 1 24 0;
#X connect 12 2 2 0;
#X connect 13 0 7 0;
#X connect 13 1 22 0;
#X connect 13 2 3 0;
#X connect 14 0 9 0;
#X connect 15 0 4 0;
#X connect 16 0 4 0;
#X connect 17 0 16 0;
#X connect 18 0 15 0;
#X connect 19 0 27 0;
#X connect 19 0 28 0;
#X connect 20 0 9 1;
#X connect 20 0 23 0;
#X connect 20 0 25 0;
#X connect 21 0 26 0;
#X connect 22 0 17 0;
#X connect 23 0 22 2;
#X connect 23 1 22 3;
#X connect 24 0 18 0;
#X connect 25 0 24 2;
#X connect 25 1 24 3;
#X connect 26 0 20 0;
#X restore 19 150 pd \$0-DSP;
#N canvas 0 22 156 169 \$0-INPUT 0;
#X obj 36 27 inlet~;
#X obj 36 106 outlet~;
#X obj 36 52 hip~ 400;
#X obj 36 78 lop~ 3000;
#X connect 0 0 2 0;
#X connect 2 0 3 0;
#X connect 3 0 1 0;
#X coords 0 0 1 1 85 40 0;
#X restore 19 105 pd \$0-INPUT;
#N canvas 349 388 378 295 \$0-PARAMETERS 0;
#X obj 110 215 outlet;
#X obj 43 45 inlet;
#X obj 106 132 cnv 15 187 61 empty empty RJC_Parameters 10 12 1 14
-162280 -262144 0;
#X obj 106 106 cnv 15 187 20 empty empty Time_Cruising 43 11 1 14 -261234
-33289 0;
#X obj 43 77 route tick;
#X obj 110 154 rjc_parameter_floatrange \$0 Flux 0.17;
#X connect 1 0 4 0;
#X connect 4 1 5 0;
#X connect 5 0 0 0;
#X coords 0 -1 1 1 199 99 2 100 100;
#X restore 155 91 pd \$0-PARAMETERS;
#X connect 0 0 7 0;
#X connect 2 0 8 0;
#X connect 6 0 4 0;
#X connect 6 1 5 0;
#X connect 7 0 6 0;
#X connect 8 0 1 0;
