#N canvas 60 72 1174 679 10;
#N canvas 109 383 506 356 compress 0;
#X obj 129 23 inlet~;
#X obj 110 276 outlet~;
#X obj 338 253 outlet~;
#X obj 326 28 inlet~;
#X obj 145 148 /;
#X obj 217 31 block~ 64;
#X obj 131 209 d-smooth~;
#X msg 144 128 0.5 \$1;
#X obj 146 84 env~;
#X obj 145 108 dbtorms;
#X obj 109 233 *~ 1;
#X obj 326 70 +~ 0;
#X obj 129 58 +~ 0;
#X obj 406 160 /;
#X obj 397 184 d-smooth~;
#X msg 403 138 0.5 \$1;
#X obj 403 118 dbtorms;
#X obj 404 95 env~;
#X obj 215 159 delwrite~ \$0-compdelr 100;
#X obj -19 181 delread~ \$0-compdell 3;
#X obj -15 153 delwrite~ \$0-compdell 100;
#X obj 213 182 delread~ \$0-compdelr 3;
#X obj 326 208 *~ 1;
#X connect 0 0 12 0;
#X connect 3 0 11 0;
#X connect 4 0 6 0;
#X connect 7 0 4 0;
#X connect 8 0 9 0;
#X connect 9 0 7 0;
#X connect 10 0 1 0;
#X connect 11 0 17 0;
#X connect 11 0 18 0;
#X connect 12 0 8 0;
#X connect 12 0 20 0;
#X connect 13 0 14 0;
#X connect 15 0 13 0;
#X connect 16 0 15 0;
#X connect 17 0 16 0;
#X connect 19 0 10 0;
#X connect 21 0 22 0;
#X connect 22 0 2 0;
#X restore 514 522 pd compress;
#X msg 149 61 0.0001;
#X obj 476 214 osc~;
#X obj 527 211 phasor~;
#X obj 525 330 vline~;
#X obj 475 354 *~;
#X obj 562 53 loadbang;
#X obj 570 134 mtof;
#X obj 527 257 *~ 0.5;
#X obj 477 186 * 2;
#X msg 662 128 bang;
#X msg 563 86 24;
#X obj 662 193 delay 4000;
#X obj 660 161 metro 6000;
#X obj 384 382 -~;
#X obj 353 349 sig~ 1;
#X obj 206 408 *~;
#X obj 137 406 *~;
#X obj 528 233 lop~ 50;
#X msg 112 136 0;
#X msg 160 134 1;
#X obj 747 253 tr808-bd~;
#X msg 751 224 trigger;
#X msg 528 286 0.8 2 \, 1 1 2 \, 0.8 30 60 \, 0.7 200 190 \, 0.5 600
390 \, 0.15 1000 990 \, 0 1200 2990;
#X obj 749 180 delay 3050;
#X obj 239 343 *~ 1;
#X obj 64 343 *~ 1;
#X obj 119 60 f 1;
#X msg 111 158 octaves \$1;
#X obj 160 109 loadbang;
#X msg 111 87 speed \$1;
#X obj 122 12 loadbang;
#X obj 673 63 loadbang;
#X obj 564 412 line~;
#X msg 185 139 micbalance 0.6;
#X obj 405 354 *~ 0.5;
#X obj 566 356 loadbang;
#X obj 478 434 *~;
#X obj 478 385 *~ 0.5;
#X msg 564 380 0 \, 1 20000;
#X obj 173 288 d-pan~ 0.8;
#X obj 63 285 d-pan~ 0.2;
#X msg 815 224 decay 1.3 \, click 0.2;
#X msg 123 33 0.004;
#X obj 825 156 + 3020;
#X obj 824 129 random 30;
#X obj 858 436 fallingoverdrums;
#X obj 631 254 bng 15 250 50 0 empty empty empty 17 7 0 10 -262144
-1 -1;
#X msg 646 391 0;
#X obj 836 361 spigot 1;
#X msg 857 395 down;
#X msg 920 373 level 0 10;
#X obj 969 413 tgl 15 0 empty empty empty 17 7 0 10 -262144 -1 -1 1
1;
#X obj 1038 374 vsl 15 128 0 1 0 0 empty empty empty 0 -9 0 10 -262144
-1 -1 0 1;
#X msg 785 383 up;
#X obj 1023 109 switch~;
#X obj 1020 78 tgl 15 0 empty empty empty 17 7 0 10 -262144 -1 -1 1
1;
#X obj 1006 26 loadbang;
#X msg 897 394 level 2 10000;
#X text 374 398 duck;
#X text 456 248 bass tone;
#X obj 429 112 *~ 1;
#X obj 185 214 glitchengine 0;
#N canvas 0 22 470 320 compress 0;
#X obj 135 251 *~;
#X obj 177 227 /;
#X obj 48 102 delwrite~ \$0-in 100;
#X obj 49 126 delread~ \$0-in 46;
#X obj 130 277 outlet~;
#X obj 173 156 env~;
#X obj 169 177 dbtorms;
#X msg 175 203 1 \$1;
#X obj 108 41 inlet~;
#X connect 0 0 4 0;
#X connect 1 0 0 1;
#X connect 3 0 0 0;
#X connect 5 0 6 0;
#X connect 6 0 7 0;
#X connect 7 0 1 0;
#X connect 8 0 2 0;
#X connect 8 0 5 0;
#X restore 286 185 pd compress;
#X obj 393 58 +~;
#X obj 513 594 soundoutput;
#X obj 371 15 soundinput;
#X obj 853 478 *~ 0.1;
#X obj 790 464 *~ 0.1;
#X obj 357 261 *~ 0.1;
#X obj 171 237 glitchengine 6;
#X obj 63 213 glitchengine 0;
#X obj 61 237 glitchengine 6;
#X connect 0 0 65 0;
#X connect 0 1 65 1;
#X connect 1 0 30 0;
#X connect 2 0 5 0;
#X connect 3 0 18 0;
#X connect 4 0 5 1;
#X connect 4 0 35 0;
#X connect 5 0 38 0;
#X connect 6 0 11 0;
#X connect 7 0 3 0;
#X connect 7 0 9 0;
#X connect 8 0 5 0;
#X connect 9 0 2 0;
#X connect 10 0 13 0;
#X connect 11 0 7 0;
#X connect 12 0 27 0;
#X connect 12 0 54 0;
#X connect 13 0 1 0;
#X connect 13 0 23 0;
#X connect 13 0 12 0;
#X connect 13 0 24 0;
#X connect 13 0 47 0;
#X connect 13 0 49 0;
#X connect 14 0 16 1;
#X connect 14 0 17 1;
#X connect 15 0 14 0;
#X connect 16 0 0 1;
#X connect 17 0 0 0;
#X connect 18 0 8 0;
#X connect 19 0 28 0;
#X connect 20 0 28 0;
#X connect 21 0 37 0;
#X connect 22 0 21 0;
#X connect 23 0 4 0;
#X connect 24 0 22 0;
#X connect 24 0 45 0;
#X connect 25 0 16 0;
#X connect 26 0 17 0;
#X connect 27 0 30 0;
#X connect 28 0 62 0;
#X connect 28 0 70 0;
#X connect 28 0 71 0;
#X connect 28 0 72 0;
#X connect 29 0 20 0;
#X connect 29 0 34 0;
#X connect 30 0 62 0;
#X connect 30 0 70 0;
#X connect 30 0 71 0;
#X connect 30 0 72 0;
#X connect 31 0 43 0;
#X connect 32 0 42 0;
#X connect 32 0 10 0;
#X connect 33 0 37 1;
#X connect 34 0 62 0;
#X connect 34 0 70 0;
#X connect 34 0 71 0;
#X connect 34 0 72 0;
#X connect 35 0 14 1;
#X connect 36 0 39 0;
#X connect 37 0 0 1;
#X connect 37 0 0 0;
#X connect 38 0 37 0;
#X connect 39 0 33 0;
#X connect 40 0 26 0;
#X connect 40 1 25 0;
#X connect 41 0 26 0;
#X connect 41 1 25 0;
#X connect 42 0 21 0;
#X connect 43 0 27 1;
#X connect 43 0 27 0;
#X connect 44 0 24 1;
#X connect 45 0 44 0;
#X connect 46 0 68 0;
#X connect 46 1 67 0;
#X connect 48 0 33 0;
#X connect 49 0 50 0;
#X connect 50 0 46 0;
#X connect 51 0 46 0;
#X connect 52 0 46 1;
#X connect 53 0 67 1;
#X connect 53 0 68 1;
#X connect 54 0 46 0;
#X connect 56 0 55 0;
#X connect 57 0 56 0;
#X connect 57 0 58 0;
#X connect 57 0 52 0;
#X connect 58 0 46 0;
#X connect 61 0 46 2;
#X connect 62 0 40 0;
#X connect 63 0 62 1;
#X connect 63 0 70 1;
#X connect 63 0 71 1;
#X connect 63 0 72 1;
#X connect 64 0 61 0;
#X connect 64 0 63 0;
#X connect 66 0 64 0;
#X connect 66 0 69 0;
#X connect 66 1 64 1;
#X connect 66 1 69 0;
#X connect 67 0 0 1;
#X connect 68 0 0 0;
#X connect 69 0 0 0;
#X connect 69 0 0 1;
#X connect 70 0 40 0;
#X connect 71 0 41 0;
#X connect 72 0 41 0;
