#N canvas 113 22 594 695 10;
#X obj 41 335 moses;
#X obj 76 284 +;
#X obj 72 310 / 2;
#X obj 71 355 moses;
#X obj 106 284 +;
#X obj 102 310 / 2;
#X obj 111 335 moses;
#X obj 146 284 +;
#X obj 142 310 / 2;
#X obj 141 357 moses;
#X obj 176 284 +;
#X obj 172 310 / 2;
#X obj 33 389 bng 15 250 50 0 empty empty empty 17 7 0 10 -262144 -1
-1;
#X obj 73 388 bng 15 250 50 0 empty empty empty 17 7 0 10 -262144 -1
-1;
#X obj 111 396 bng 15 250 50 0 empty empty empty 17 7 0 10 -262144
-1 -1;
#X obj 148 396 bng 15 250 50 0 empty empty empty 17 7 0 10 -262144
-1 -1;
#X obj 185 397 bng 15 250 50 0 empty empty empty 17 7 0 10 -262144
-1 -1;
#X obj 181 335 moses;
#X obj 212 284 +;
#X obj 212 310 / 2;
#X obj 211 357 moses;
#X obj 242 284 +;
#X obj 242 310 / 2;
#X obj 211 396 bng 15 250 50 0 empty empty empty 17 7 0 10 -262144
-1 -1;
#X obj 248 396 bng 15 250 50 0 empty empty empty 17 7 0 10 -262144
-1 -1;
#X msg 31 422 1;
#X msg 70 420 2;
#X msg 104 422 3;
#X msg 148 422 4;
#X msg 185 423 5;
#X msg 218 423 6;
#X obj 25 232 t f f;
#X obj 24 269 -;
#X obj 29 207 / 12;
#X obj 54 251 int;
#X obj 24 291 * 12;
#X obj 29 165 ftom;
#X obj 28 143 change;
#X obj 96 481 f;
#X floatatom 128 159 5 0 0 0 - - -;
#X floatatom 279 307 5 0 0 0 - - -;
#X floatatom 256 337 5 0 0 0 - - -;
#X floatatom 256 357 5 0 0 0 - - -;
#X floatatom 264 378 5 0 0 0 - - -;
#X floatatom 270 404 5 0 0 0 - - -;
#X floatatom 268 424 5 0 0 0 - - -;
#X obj 371 577 outlet;
#X obj 28 60 inlet;
#X text 218 25 autotune;
#X obj 128 191 f \$1;
#X obj 128 128 d-default \$1 6;
#X text 171 48 \$1: base note (0-12) (C=0) (default 6/F);
#X text 171 59 \$2: mode (default Ionian/major);
#X text 236 80 inlet: untuned frequency;
#X text 236 90 outlet: tuned frequency;
#X obj 372 483 + \$3;
#X obj 372 512 mtof;
#X text 171 70 \$3: detune (-0.5 - 0.5) (default 0);
#X obj 361 233 * 12;
#X obj 346 277 +;
#X obj 361 256 +;
#X floatatom 231 482 5 0 0 0 - - -;
#X floatatom 272 468 5 0 0 0 - - -;
#X floatatom 16 357 5 0 0 0 - - -;
#X obj 34 314 + 6;
#X msg 246 435 7;
#X obj 358 213 - 1;
#X obj 60 558 spigot 0;
#X obj 146 560 spigot 1;
#X msg 52 599 1;
#X obj 188 529 == 0;
#X obj 27 97 route justoctave basenote;
#X obj 130 225 d-modes \$2 \$1 0.001 --------;
#X connect 0 0 12 0;
#X connect 0 0 25 0;
#X connect 0 1 3 0;
#X connect 1 0 2 0;
#X connect 2 0 0 1;
#X connect 2 0 45 0;
#X connect 3 0 13 0;
#X connect 3 0 26 0;
#X connect 3 1 6 0;
#X connect 4 0 5 0;
#X connect 5 0 3 1;
#X connect 5 0 44 0;
#X connect 6 0 14 0;
#X connect 6 0 27 0;
#X connect 6 1 9 0;
#X connect 7 0 8 0;
#X connect 8 0 6 1;
#X connect 8 0 43 0;
#X connect 9 0 15 0;
#X connect 9 0 28 0;
#X connect 9 1 17 0;
#X connect 10 0 11 0;
#X connect 11 0 9 1;
#X connect 11 0 42 0;
#X connect 17 0 16 0;
#X connect 17 0 29 0;
#X connect 17 1 20 0;
#X connect 18 0 19 0;
#X connect 19 0 17 1;
#X connect 19 0 41 0;
#X connect 20 0 23 0;
#X connect 20 0 30 0;
#X connect 20 1 24 0;
#X connect 20 1 65 0;
#X connect 21 0 22 0;
#X connect 22 0 20 1;
#X connect 22 0 40 0;
#X connect 25 0 38 0;
#X connect 26 0 38 0;
#X connect 27 0 38 0;
#X connect 28 0 38 0;
#X connect 29 0 38 0;
#X connect 30 0 38 0;
#X connect 31 0 32 0;
#X connect 31 1 34 0;
#X connect 32 0 35 0;
#X connect 33 0 31 0;
#X connect 34 0 32 1;
#X connect 34 0 66 0;
#X connect 35 0 63 0;
#X connect 35 0 64 0;
#X connect 36 0 33 0;
#X connect 37 0 36 0;
#X connect 38 0 67 0;
#X connect 38 0 68 0;
#X connect 39 0 49 0;
#X connect 47 0 71 0;
#X connect 49 0 60 1;
#X connect 49 0 72 0;
#X connect 50 0 39 0;
#X connect 55 0 56 0;
#X connect 56 0 46 0;
#X connect 58 0 60 0;
#X connect 59 0 55 0;
#X connect 60 0 59 1;
#X connect 64 0 0 0;
#X connect 65 0 38 0;
#X connect 66 0 58 0;
#X connect 67 0 69 0;
#X connect 68 0 72 2;
#X connect 69 0 72 2;
#X connect 70 0 68 1;
#X connect 71 0 70 0;
#X connect 71 0 67 1;
#X connect 71 1 50 0;
#X connect 71 2 37 0;
#X connect 72 0 1 0;
#X connect 72 0 61 0;
#X connect 72 1 1 1;
#X connect 72 1 4 0;
#X connect 72 1 62 0;
#X connect 72 2 4 1;
#X connect 72 2 7 0;
#X connect 72 3 7 1;
#X connect 72 3 10 0;
#X connect 72 4 10 1;
#X connect 72 4 18 0;
#X connect 72 5 18 1;
#X connect 72 5 21 0;
#X connect 72 6 21 1;
#X connect 72 8 59 0;
