#N canvas 613 292 458 308 10;
#X obj 127 172 +;
#X obj 157 172 * 0.995;
#X obj 126 195 * 0.005;
#X obj 112 62 inlet;
#X obj 133 249 outlet;
#X obj 201 88 d-default \$1 0.995;
#X obj 171 132 d-1-;
#X obj 200 60 inlet;
#X text 238 212 message-rate lpf;
#X text 189 233 \$1 should be like 0.995 \, 0.999;
#X connect 0 0 1 0;
#X connect 0 0 2 0;
#X connect 1 0 0 1;
#X connect 2 0 4 0;
#X connect 3 0 0 0;
#X connect 5 0 1 1;
#X connect 5 0 6 0;
#X connect 6 0 2 1;
#X connect 7 0 5 0;
