#N canvas 24 293 490 340 10;
#X obj 39 21 inlet;
#X msg 40 64 bang;
#X obj 40 254 outlet;
#X obj 40 220 + \$1;
#X obj 82 95 - \$1;
#X text 115 273 output a random number between;
#X obj 134 21 inlet;
#X obj 40 125 random 1e+07;
#X obj 40 146 / 1e+07;
#X obj 84 21 inlet;
#X obj 40 193 * 1;
#X obj 83 49 t b a;
#X obj 40 168 d-sq;
#X obj 134 48 d-default \$2 1;
#X obj 134 72 f \$2;
#X text 100 142 generate random number between 0..1;
#X text 77 169 square;
#X text 72 194 multiply by range;
#X text 74 222 add base offset;
#X text 115 284 \$1 and \$2 (default 0..1) \, with square probability
;
#X text 113 296 distribution;
#X connect 0 0 1 0;
#X connect 1 0 7 0;
#X connect 3 0 2 0;
#X connect 4 0 10 1;
#X connect 6 0 13 0;
#X connect 7 0 8 0;
#X connect 8 0 12 0;
#X connect 9 0 11 0;
#X connect 10 0 3 0;
#X connect 11 0 4 0;
#X connect 11 1 4 1;
#X connect 11 1 3 1;
#X connect 12 0 10 0;
#X connect 13 0 14 0;
#X connect 14 0 4 0;
