#N canvas 378 349 569 313 10;
#X obj 188 30 inlet;
#X obj 95 31 inlet~;
#X obj 44 86 tabplay~ \$1;
#X obj 44 222 tabwrite~ \$1;
#X obj 238 96 d-default \$2 0.5;
#X msg 187 154 start \$1;
#X obj 188 52 route start mix;
#X text 168 183 mix new input into a table;
#X text 166 196 \$1 is the table \, \$2 is the mix (default 0.5);
#X text 172 253 (mix=1 means all new \, mix=0 means all old);
#X text 163 220 left inlet is signal \, right is control;
#X text 176 231 control messages are as for tabwrite~ and tabplay~
;
#X text 176 242 plus mix <0..1> to control the mix;
#X obj 108 152 -;
#X msg 109 130 1 \$1;
#X obj 44 177 *~ 0.5;
#X obj 95 178 *~ 0.5;
#X connect 0 0 6 0;
#X connect 1 0 16 0;
#X connect 2 0 15 0;
#X connect 4 0 14 0;
#X connect 4 0 16 1;
#X connect 5 0 3 0;
#X connect 6 0 5 0;
#X connect 6 0 2 0;
#X connect 6 1 4 0;
#X connect 6 2 2 0;
#X connect 6 2 3 0;
#X connect 13 0 15 1;
#X connect 14 0 13 0;
#X connect 15 0 3 0;
#X connect 16 0 3 0;
