#N canvas 321 53 548 653 10;
#X obj 279 130 tgl 15 0 empty empty empty 17 7 0 10 -262144 -1 -1 1
1;
#X msg 259 102 1;
#X obj 70 79 f;
#X obj 70 103 spigot 0;
#X obj 172 103 spigot 1;
#X msg 290 102 0;
#X text 272 60 go!;
#X msg 352 103 0;
#X msg 387 103 1;
#X text 366 62 stop;
#X msg 268 78 bang;
#X msg 365 78 bang;
#X obj 279 250 tgl 15 0 empty empty empty 17 7 0 10 -262144 -1 -1 1
1;
#X msg 259 222 1;
#X obj 70 199 f;
#X obj 70 223 spigot 0;
#X obj 172 223 spigot 1;
#X msg 290 222 0;
#X text 272 180 go!;
#X msg 352 223 0;
#X msg 387 223 1;
#X text 366 182 stop;
#X msg 268 198 bang;
#X msg 365 198 bang;
#X obj 279 390 tgl 15 0 empty empty empty 17 7 0 10 -262144 -1 -1 1
1;
#X msg 259 362 1;
#X obj 70 339 f;
#X obj 70 363 spigot 0;
#X obj 172 363 spigot 1;
#X msg 290 362 0;
#X text 272 320 go!;
#X msg 352 363 0;
#X msg 387 363 1;
#X text 366 322 stop;
#X msg 268 338 bang;
#X msg 365 338 bang;
#X obj 279 520 tgl 15 0 empty empty empty 17 7 0 10 -262144 -1 -1 1
1;
#X msg 259 492 1;
#X obj 70 469 f;
#X obj 70 493 spigot 0;
#X obj 172 493 spigot 1;
#X msg 290 492 0;
#X text 272 450 go!;
#X msg 352 493 0;
#X msg 387 493 1;
#X text 366 452 stop;
#X msg 268 468 bang;
#X msg 365 468 bang;
#X obj 70 244 spigot 1;
#X obj 70 384 spigot 1;
#X obj 70 514 spigot 1;
#X obj 70 124 spigot 1;
#X obj 148 540 f;
#X msg 20 96 0;
#X msg 35 96 1;
#X msg 20 216 0;
#X msg 35 216 1;
#X msg 20 356 0;
#X msg 35 356 1;
#X msg 20 486 0;
#X msg 35 486 1;
#X msg 126 620 \; inject-\$1 1;
#X obj 138 599 random 4;
#X obj 138 572 bng 15 250 50 0 empty empty empty 17 7 0 10 -262144
-1 -1;
#X obj 138 176 bng 15 250 50 0 empty empty empty 17 7 0 10 -262144
-1 -1;
#X obj 124 323 bng 15 250 50 0 empty empty empty 17 7 0 10 -262144
-1 -1;
#X obj 130 453 bng 15 250 50 0 empty empty empty 17 7 0 10 -262144
-1 -1;
#X obj 79 547 bng 15 250 50 0 empty empty empty 17 7 0 10 -262144 -1
-1;
#X floatatom 236 622 5 0 0 0 - - -;
#X obj 34 36 r inject-0;
#X obj 34 56 t a b;
#X obj 34 156 r inject-1;
#X obj 34 176 t a b;
#X obj 34 296 r inject-2;
#X obj 34 316 t a b;
#X obj 34 426 r inject-3;
#X obj 34 446 t a b;
#X connect 1 0 0 0;
#X connect 1 0 3 1;
#X connect 2 0 3 0;
#X connect 2 0 4 0;
#X connect 3 0 51 0;
#X connect 4 0 10 0;
#X connect 5 0 4 1;
#X connect 7 0 3 1;
#X connect 7 0 0 0;
#X connect 8 0 4 1;
#X connect 10 0 1 0;
#X connect 10 0 5 0;
#X connect 11 0 7 0;
#X connect 11 0 8 0;
#X connect 13 0 12 0;
#X connect 13 0 15 1;
#X connect 14 0 15 0;
#X connect 14 0 16 0;
#X connect 15 0 48 0;
#X connect 16 0 22 0;
#X connect 17 0 16 1;
#X connect 19 0 15 1;
#X connect 19 0 12 0;
#X connect 20 0 16 1;
#X connect 22 0 13 0;
#X connect 22 0 17 0;
#X connect 23 0 19 0;
#X connect 23 0 20 0;
#X connect 25 0 24 0;
#X connect 25 0 27 1;
#X connect 26 0 27 0;
#X connect 26 0 28 0;
#X connect 27 0 49 0;
#X connect 28 0 34 0;
#X connect 29 0 28 1;
#X connect 31 0 27 1;
#X connect 31 0 24 0;
#X connect 32 0 28 1;
#X connect 34 0 25 0;
#X connect 34 0 29 0;
#X connect 35 0 31 0;
#X connect 35 0 32 0;
#X connect 37 0 36 0;
#X connect 37 0 39 1;
#X connect 38 0 39 0;
#X connect 38 0 40 0;
#X connect 39 0 50 0;
#X connect 40 0 46 0;
#X connect 41 0 40 1;
#X connect 43 0 39 1;
#X connect 43 0 36 0;
#X connect 44 0 40 1;
#X connect 46 0 37 0;
#X connect 46 0 41 0;
#X connect 47 0 43 0;
#X connect 47 0 44 0;
#X connect 48 0 26 0;
#X connect 48 0 65 0;
#X connect 49 0 38 0;
#X connect 49 0 66 0;
#X connect 50 0 52 0;
#X connect 50 0 67 0;
#X connect 51 0 14 0;
#X connect 51 0 64 0;
#X connect 52 0 2 0;
#X connect 53 0 50 1;
#X connect 54 0 48 1;
#X connect 54 0 49 1;
#X connect 54 0 51 1;
#X connect 55 0 51 1;
#X connect 56 0 49 1;
#X connect 56 0 50 1;
#X connect 56 0 48 1;
#X connect 57 0 48 1;
#X connect 58 0 50 1;
#X connect 58 0 51 1;
#X connect 58 0 49 1;
#X connect 59 0 49 1;
#X connect 60 0 51 1;
#X connect 60 0 48 1;
#X connect 60 0 50 1;
#X connect 62 0 61 0;
#X connect 62 0 68 0;
#X connect 63 0 62 0;
#X connect 69 0 70 0;
#X connect 70 0 2 0;
#X connect 70 1 53 0;
#X connect 70 1 54 0;
#X connect 71 0 72 0;
#X connect 72 0 14 0;
#X connect 72 1 55 0;
#X connect 72 1 56 0;
#X connect 73 0 74 0;
#X connect 74 0 26 0;
#X connect 74 1 57 0;
#X connect 74 1 58 0;
#X connect 75 0 76 0;
#X connect 76 0 38 0;
#X connect 76 1 59 0;
#X connect 76 1 60 0;
