#N canvas 39 98 1241 666 10;
#X obj 313 309 del;
#X msg 236 280 start \$1;
#X obj 252 224 t b a b;
#X msg 312 352 stop;
#X msg 290 123 bang;
#X obj 315 153 metro 100;
#X obj 369 283 * 36;
#X obj 65 281 wrap~;
#X obj 65 305 *~ 44100;
#X obj 66 256 /~ 44100;
#X obj 65 207 *~ 44100;
#X obj 61 184 phasor~ 1;
#X obj 329 124 loadbang;
#X msg 602 142 11025;
#X msg 660 145 44100;
#X msg 719 143 88200;
#X obj 63 161 /;
#X obj 335 231 random 1000;
#X obj 419 250 / 1000;
#X obj 244 186 random 44100;
#X obj 598 257 / 689.062;
#X obj 613 367 vline~;
#X obj 555 394 *~;
#X msg 612 341 1 10 \, 0.8 30 10 \, 0 200 40;
#X obj 835 272 t f f;
#X obj 834 309 -;
#X obj 839 247 / 12;
#X obj 864 291 int;
#X obj 834 331 * 12;
#X obj 66 230 +~;
#X msg 595 234 justoctave \$1;
#X obj 596 211 tgl 15 0 empty empty empty 17 7 0 10 -262144 -1 -1 1
1;
#X obj 401 167 d-random-sq 120 1200;
#X obj 555 342 osc~;
#X obj 722 121 loadbang;
#X msg 596 191 1;
#X obj 219 186 bng 15 250 50 0 empty empty empty 17 7 0 10 -262144
-1 -1;
#X floatatom 651 323 10 0 0 0 - - -;
#X obj 597 300 * 689.062;
#X msg 724 236 basenote 2;
#X msg 726 215 basenote 6;
#X obj 87 545 outlet~;
#X obj 65 325 tabread4~ \$0-buf;
#X obj 372 380 table \$0-buf 88200;
#X obj 632 179 s \$0-tablesize;
#X obj 419 233 r \$0-tablesize;
#X obj 137 100 r \$0-tablesize;
#X obj 353 188 s \$0-grab;
#X obj 230 164 r \$0-grab;
#X obj 560 547 d-tabwritemix~ \$0-buf 0.5;
#X msg 745 196 basenote \$1;
#X obj 748 173 d-default \$1 6;
#X obj 465 134 * 120;
#X obj 523 140 * 1200;
#X obj 466 104 /;
#X msg 465 82 1 \$1;
#X obj 215 4 inlet;
#X text 512 63 relative speed;
#X obj 396 97 t b a;
#X msg 877 509 0.03 200 \, 0.02 30 200 \, 0 10 230;
#X obj 992 320 vline~;
#X obj 956 359 *~;
#X text 739 65 just octaves?;
#X obj 555 438 *~ 0.05;
#X obj 953 440 *~ 0.1;
#X obj 235 28 route speed octaves micbalance;
#X obj 691 66 f;
#X obj 805 363 f;
#X obj 598 418 -;
#X obj 805 383 * 0.15;
#X msg 598 402 0.15 \$1;
#X floatatom 629 455 5 0 0 0 - - -;
#X floatatom 823 410 5 0 0 0 - - -;
#X obj 907 8 inlet~;
#X obj 962 486 *~;
#X obj 1038 459 line~;
#X obj 1037 421 loadbang;
#X obj 342 71 max 1e-07;
#X obj 594 277 d-autotune 6 aeolian 0;
#X obj 328 267 * 15;
#X msg 60 136 22050 \$1;
#X msg 1039 442 0 \, 2 1000;
#X connect 0 0 3 0;
#X connect 1 0 49 1;
#X connect 2 0 0 0;
#X connect 2 1 1 0;
#X connect 2 2 17 0;
#X connect 3 0 49 1;
#X connect 4 0 5 0;
#X connect 5 0 32 0;
#X connect 5 0 47 0;
#X connect 6 0 29 1;
#X connect 7 0 8 0;
#X connect 8 0 42 0;
#X connect 9 0 7 0;
#X connect 10 0 29 0;
#X connect 11 0 10 0;
#X connect 12 0 5 0;
#X connect 13 0 44 0;
#X connect 14 0 44 0;
#X connect 15 0 44 0;
#X connect 16 0 11 0;
#X connect 17 0 6 0;
#X connect 17 0 79 0;
#X connect 18 0 6 1;
#X connect 19 0 20 0;
#X connect 19 0 2 0;
#X connect 20 0 26 0;
#X connect 20 0 78 0;
#X connect 21 0 22 1;
#X connect 22 0 63 0;
#X connect 23 0 21 0;
#X connect 23 0 60 0;
#X connect 24 0 25 0;
#X connect 24 1 27 0;
#X connect 25 0 28 0;
#X connect 26 0 24 0;
#X connect 27 0 25 1;
#X connect 29 0 9 0;
#X connect 30 0 78 0;
#X connect 31 0 30 0;
#X connect 32 0 5 1;
#X connect 33 0 22 0;
#X connect 34 0 15 0;
#X connect 34 0 35 0;
#X connect 35 0 31 0;
#X connect 38 0 10 1;
#X connect 38 0 23 0;
#X connect 38 0 33 0;
#X connect 38 0 37 0;
#X connect 39 0 78 0;
#X connect 40 0 78 0;
#X connect 42 0 41 0;
#X connect 42 0 49 0;
#X connect 45 0 18 0;
#X connect 46 0 10 1;
#X connect 46 0 9 1;
#X connect 46 0 8 1;
#X connect 46 0 80 0;
#X connect 46 0 19 1;
#X connect 48 0 19 0;
#X connect 48 0 36 0;
#X connect 50 0 78 0;
#X connect 51 0 50 0;
#X connect 52 0 32 1;
#X connect 53 0 32 2;
#X connect 54 0 52 0;
#X connect 54 0 53 0;
#X connect 55 0 54 0;
#X connect 56 0 65 0;
#X connect 58 0 5 0;
#X connect 58 1 55 0;
#X connect 60 0 61 1;
#X connect 61 0 64 0;
#X connect 63 0 49 0;
#X connect 64 0 74 0;
#X connect 65 0 77 0;
#X connect 65 1 66 0;
#X connect 65 2 67 0;
#X connect 66 0 31 0;
#X connect 67 0 69 0;
#X connect 68 0 63 1;
#X connect 68 0 71 0;
#X connect 69 0 70 0;
#X connect 69 0 64 1;
#X connect 69 0 72 0;
#X connect 70 0 68 0;
#X connect 73 0 61 0;
#X connect 74 0 49 0;
#X connect 75 0 74 1;
#X connect 76 0 81 0;
#X connect 77 0 58 0;
#X connect 78 0 38 0;
#X connect 79 0 0 1;
#X connect 80 0 16 0;
#X connect 81 0 75 0;
