#N canvas 507 88 746 633 10;
#N canvas 875 307 208 203 counter 0;
#X obj 10 16 inlet;
#X obj 10 145 outlet;
#X obj 10 119 f;
#X obj 44 120 + 1;
#X obj 10 96 until;
#X obj 10 44 t b b;
#X obj 54 73 0;
#X obj 10 75 200;
#X connect 0 0 5 0;
#X connect 2 0 3 0;
#X connect 2 0 1 0;
#X connect 3 0 2 1;
#X connect 4 0 2 0;
#X connect 5 0 7 0;
#X connect 5 1 6 0;
#X connect 6 0 2 1;
#X connect 7 0 4 0;
#X restore 462 213 pd counter;
#X obj 462 191 t b f;
#X obj 164 270 line~;
#X msg 163 249 0 \, 192 5;
#X obj 165 352 *~;
#X obj 21 418 *~;
#X obj 37 289 line~;
#X obj 37 311 dbtorms~;
#X obj 254 292 osc~ 50;
#X obj 65 260 pack 0 1000;
#N canvas 826 261 287 340 curve 0;
#N canvas 750 295 241 238 gleichung 0;
#X obj 123 85 + 1;
#X obj 78 85 * -1;
#X obj 123 12 inlet;
#X obj 16 5 inlet;
#X obj 16 68 *;
#X obj 16 47 t f f;
#X obj 16 111 *;
#X obj 16 90 t f f;
#X obj 16 137 *;
#X obj 16 166 +;
#X obj 76 135 *;
#X obj 16 24 t f f;
#X obj 16 191 outlet;
#X connect 0 0 10 1;
#X connect 1 0 8 1;
#X connect 2 0 1 0;
#X connect 2 0 0 0;
#X connect 3 0 11 0;
#X connect 4 0 7 0;
#X connect 5 0 4 0;
#X connect 5 1 4 1;
#X connect 6 0 8 0;
#X connect 7 0 6 0;
#X connect 7 1 6 1;
#X connect 8 0 9 0;
#X connect 9 0 12 0;
#X connect 10 0 9 1;
#X connect 11 0 5 0;
#X connect 11 1 10 0;
#X restore 31 52 pd gleichung;
#X obj 31 17 inlet;
#X obj 31 230 outlet;
#X obj 136 12 inlet;
#N canvas 750 295 229 226 gleichung 0;
#X obj 123 85 + 1;
#X obj 78 85 * -1;
#X obj 123 12 inlet;
#X obj 16 5 inlet;
#X obj 16 68 *;
#X obj 16 47 t f f;
#X obj 16 111 *;
#X obj 16 90 t f f;
#X obj 16 137 *;
#X obj 16 166 +;
#X obj 76 135 *;
#X obj 16 24 t f f;
#X obj 16 191 outlet;
#X connect 0 0 10 1;
#X connect 1 0 8 1;
#X connect 2 0 1 0;
#X connect 2 0 0 0;
#X connect 3 0 11 0;
#X connect 4 0 7 0;
#X connect 5 0 4 0;
#X connect 5 1 4 1;
#X connect 6 0 8 0;
#X connect 7 0 6 0;
#X connect 7 1 6 1;
#X connect 8 0 9 0;
#X connect 9 0 12 0;
#X connect 10 0 9 1;
#X connect 11 0 5 0;
#X connect 11 1 10 0;
#X restore 31 72 pd gleichung;
#N canvas 750 295 229 226 gleichung 0;
#X obj 123 85 + 1;
#X obj 78 85 * -1;
#X obj 123 12 inlet;
#X obj 16 5 inlet;
#X obj 16 68 *;
#X obj 16 47 t f f;
#X obj 16 111 *;
#X obj 16 90 t f f;
#X obj 16 137 *;
#X obj 16 166 +;
#X obj 76 135 *;
#X obj 16 24 t f f;
#X obj 16 191 outlet;
#X connect 0 0 10 1;
#X connect 1 0 8 1;
#X connect 2 0 1 0;
#X connect 2 0 0 0;
#X connect 3 0 11 0;
#X connect 4 0 7 0;
#X connect 5 0 4 0;
#X connect 5 1 4 1;
#X connect 6 0 8 0;
#X connect 7 0 6 0;
#X connect 7 1 6 1;
#X connect 8 0 9 0;
#X connect 9 0 12 0;
#X connect 10 0 9 1;
#X connect 11 0 5 0;
#X connect 11 1 10 0;
#X restore 31 92 pd gleichung;
#N canvas 750 295 229 226 gleichung 0;
#X obj 123 85 + 1;
#X obj 78 85 * -1;
#X obj 123 12 inlet;
#X obj 16 5 inlet;
#X obj 16 68 *;
#X obj 16 47 t f f;
#X obj 16 111 *;
#X obj 16 90 t f f;
#X obj 16 137 *;
#X obj 16 166 +;
#X obj 76 135 *;
#X obj 16 24 t f f;
#X obj 16 191 outlet;
#X connect 0 0 10 1;
#X connect 1 0 8 1;
#X connect 2 0 1 0;
#X connect 2 0 0 0;
#X connect 3 0 11 0;
#X connect 4 0 7 0;
#X connect 5 0 4 0;
#X connect 5 1 4 1;
#X connect 6 0 8 0;
#X connect 7 0 6 0;
#X connect 7 1 6 1;
#X connect 8 0 9 0;
#X connect 9 0 12 0;
#X connect 10 0 9 1;
#X connect 11 0 5 0;
#X connect 11 1 10 0;
#X restore 31 112 pd gleichung;
#N canvas 750 295 229 226 gleichung 0;
#X obj 123 85 + 1;
#X obj 78 85 * -1;
#X obj 123 12 inlet;
#X obj 16 5 inlet;
#X obj 16 68 *;
#X obj 16 47 t f f;
#X obj 16 111 *;
#X obj 16 90 t f f;
#X obj 16 137 *;
#X obj 16 166 +;
#X obj 76 135 *;
#X obj 16 24 t f f;
#X obj 16 191 outlet;
#X connect 0 0 10 1;
#X connect 1 0 8 1;
#X connect 2 0 1 0;
#X connect 2 0 0 0;
#X connect 3 0 11 0;
#X connect 4 0 7 0;
#X connect 5 0 4 0;
#X connect 5 1 4 1;
#X connect 6 0 8 0;
#X connect 7 0 6 0;
#X connect 7 1 6 1;
#X connect 8 0 9 0;
#X connect 9 0 12 0;
#X connect 10 0 9 1;
#X connect 11 0 5 0;
#X connect 11 1 10 0;
#X restore 31 132 pd gleichung;
#N canvas 750 295 229 226 gleichung 0;
#X obj 123 85 + 1;
#X obj 78 85 * -1;
#X obj 123 12 inlet;
#X obj 16 5 inlet;
#X obj 16 68 *;
#X obj 16 47 t f f;
#X obj 16 111 *;
#X obj 16 90 t f f;
#X obj 16 137 *;
#X obj 16 166 +;
#X obj 76 135 *;
#X obj 16 24 t f f;
#X obj 16 191 outlet;
#X connect 0 0 10 1;
#X connect 1 0 8 1;
#X connect 2 0 1 0;
#X connect 2 0 0 0;
#X connect 3 0 11 0;
#X connect 4 0 7 0;
#X connect 5 0 4 0;
#X connect 5 1 4 1;
#X connect 6 0 8 0;
#X connect 7 0 6 0;
#X connect 7 1 6 1;
#X connect 8 0 9 0;
#X connect 9 0 12 0;
#X connect 10 0 9 1;
#X connect 11 0 5 0;
#X connect 11 1 10 0;
#X restore 31 152 pd gleichung;
#N canvas 750 295 229 226 gleichung 0;
#X obj 123 85 + 1;
#X obj 78 85 * -1;
#X obj 123 12 inlet;
#X obj 16 5 inlet;
#X obj 16 68 *;
#X obj 16 47 t f f;
#X obj 16 111 *;
#X obj 16 90 t f f;
#X obj 16 137 *;
#X obj 16 166 +;
#X obj 76 135 *;
#X obj 16 24 t f f;
#X obj 16 191 outlet;
#X connect 0 0 10 1;
#X connect 1 0 8 1;
#X connect 2 0 1 0;
#X connect 2 0 0 0;
#X connect 3 0 11 0;
#X connect 4 0 7 0;
#X connect 5 0 4 0;
#X connect 5 1 4 1;
#X connect 6 0 8 0;
#X connect 7 0 6 0;
#X connect 7 1 6 1;
#X connect 8 0 9 0;
#X connect 9 0 12 0;
#X connect 10 0 9 1;
#X connect 11 0 5 0;
#X connect 11 1 10 0;
#X restore 31 172 pd gleichung;
#N canvas 750 295 229 226 gleichung 0;
#X obj 123 85 + 1;
#X obj 78 85 * -1;
#X obj 123 12 inlet;
#X obj 16 5 inlet;
#X obj 16 68 *;
#X obj 16 47 t f f;
#X obj 16 111 *;
#X obj 16 90 t f f;
#X obj 16 137 *;
#X obj 16 166 +;
#X obj 76 135 *;
#X obj 16 24 t f f;
#X obj 16 191 outlet;
#X connect 0 0 10 1;
#X connect 1 0 8 1;
#X connect 2 0 1 0;
#X connect 2 0 0 0;
#X connect 3 0 11 0;
#X connect 4 0 7 0;
#X connect 5 0 4 0;
#X connect 5 1 4 1;
#X connect 6 0 8 0;
#X connect 7 0 6 0;
#X connect 7 1 6 1;
#X connect 8 0 9 0;
#X connect 9 0 12 0;
#X connect 10 0 9 1;
#X connect 11 0 5 0;
#X connect 11 1 10 0;
#X restore 31 192 pd gleichung;
#X obj 136 35 + 0.1;
#X obj 136 58 * 0.6;
#X connect 0 0 4 0;
#X connect 1 0 0 0;
#X connect 3 0 11 0;
#X connect 4 0 5 0;
#X connect 5 0 6 0;
#X connect 6 0 7 0;
#X connect 7 0 8 0;
#X connect 8 0 9 0;
#X connect 9 0 10 0;
#X connect 10 0 2 0;
#X connect 11 0 12 0;
#X connect 12 0 0 1;
#X connect 12 0 4 1;
#X connect 12 0 5 1;
#X connect 12 0 6 1;
#X connect 12 0 7 1;
#X connect 12 0 8 1;
#X connect 12 0 9 1;
#X connect 12 0 10 1;
#X restore 462 309 pd curve;
#X obj 461 148 t f f;
#X obj 461 169 *;
#X obj 254 270 line~;
#X obj 65 239 del 3;
#X obj 462 237 t f f;
#X obj 462 332 tabwrite \$0-attack;
#X obj 21 168 tabplay~ \$0-attack;
#X obj 298 271 f 0.58;
#X obj 21 118 t b;
#X obj 164 128 *;
#X obj 164 167 rmstodb;
#X obj 252 189 exp;
#X obj 252 168 + 5.1;
#X obj 252 146 * 3.2;
#X obj 35 245 f;
#X obj 21 39 route trigger gain decay click;
#X obj 21 9 inlet;
#X obj 281 13 loadbang;
#X obj 338 48 0.4;
#X obj 396 50 0.4;
#X obj 353 387 del;
#X obj 323 366 t b b;
#X obj 353 427 0;
#X obj 323 428 1;
#X obj 323 456 t a;
#X obj 364 495 switch~;
#X obj 323 521 outlet;
#X obj 369 365 + 3;
#X obj 22 495 outlet~;
#X text 473 415 Author: Roman Haefeli;
#X msg 473 444 version 0.0.1;
#X text 279 65 gain;
#X text 334 65 decay;
#X text 400 69 click;
#X obj 164 107 t f f;
#X text 372 522 switch~;
#X obj 281 47 0.8;
#X obj 165 299 d-gt~ 38;
#X obj 462 263 moses 39;
#X obj 462 286 / 40;
#X obj 461 351 table \$0-attack 39;
#X obj 76 440 tabwrite~ out;
#X obj 130 464 table out 200;
#X obj 54 333 d-lt~ 39;
#X obj 21 360 *~;
#X msg 255 249 500 \, 50 5;
#X connect 0 0 15 0;
#X connect 1 0 0 0;
#X connect 1 1 10 1;
#X connect 2 0 48 0;
#X connect 2 0 54 0;
#X connect 3 0 2 0;
#X connect 4 0 5 0;
#X connect 5 0 39 0;
#X connect 5 0 52 0;
#X connect 6 0 7 0;
#X connect 7 0 5 1;
#X connect 8 0 4 1;
#X connect 9 0 6 0;
#X connect 10 0 16 0;
#X connect 11 0 12 0;
#X connect 11 1 12 1;
#X connect 12 0 1 0;
#X connect 13 0 8 0;
#X connect 14 0 9 0;
#X connect 15 0 49 0;
#X connect 15 1 16 1;
#X connect 17 0 55 0;
#X connect 18 0 8 1;
#X connect 19 0 17 0;
#X connect 19 0 14 0;
#X connect 19 0 3 0;
#X connect 19 0 56 0;
#X connect 19 0 18 0;
#X connect 19 0 25 0;
#X connect 19 0 32 0;
#X connect 19 0 52 0;
#X connect 20 0 21 0;
#X connect 21 0 25 1;
#X connect 22 0 9 1;
#X connect 22 0 38 0;
#X connect 23 0 22 0;
#X connect 24 0 23 0;
#X connect 25 0 6 0;
#X connect 26 0 19 0;
#X connect 26 1 45 0;
#X connect 26 2 24 0;
#X connect 26 3 11 0;
#X connect 27 0 26 0;
#X connect 28 0 29 0;
#X connect 28 0 30 0;
#X connect 28 0 47 0;
#X connect 29 0 24 0;
#X connect 30 0 11 0;
#X connect 31 0 33 0;
#X connect 32 0 34 0;
#X connect 32 1 31 0;
#X connect 33 0 35 0;
#X connect 34 0 35 0;
#X connect 35 0 36 0;
#X connect 35 0 37 0;
#X connect 38 0 31 1;
#X connect 45 0 20 0;
#X connect 45 1 20 1;
#X connect 47 0 45 0;
#X connect 48 0 4 0;
#X connect 49 0 50 0;
#X connect 50 0 10 0;
#X connect 54 0 55 1;
#X connect 55 0 5 0;
#X connect 56 0 13 0;
