#N canvas 666 330 450 324 10;
#X obj 12 300 tabwrite \$1-loop;
#X obj 12 235 random 255;
#X obj 12 257 / 255;
#X obj 35 209 tabread \$1-prob;
#X obj 12 37 t b 0;
#X obj 12 133 f;
#X obj 40 133 + 1;
#X obj 12 15 r \$1-makeloop;
#X obj 12 279 <;
#X obj 12 154 t b f f;
#X obj 12 112 until;
#X obj 12 63 16;
#X obj 56 37 r loop-length;
#X obj 35 181 mod 16;
#X msg 193 228 \; \$1-loop resize \$2;
#X obj 193 204 pack s f;
#X obj 193 182 symbol \$1;
#X obj 193 158 t b f;
#X obj 12 86 t f f;
#X connect 1 0 2 0;
#X connect 2 0 8 0;
#X connect 3 0 8 1;
#X connect 4 0 11 0;
#X connect 4 1 5 1;
#X connect 5 0 6 0;
#X connect 5 0 9 0;
#X connect 6 0 5 1;
#X connect 7 0 4 0;
#X connect 8 0 0 0;
#X connect 9 0 1 0;
#X connect 9 1 13 0;
#X connect 9 2 0 1;
#X connect 10 0 5 0;
#X connect 11 0 18 0;
#X connect 12 0 11 1;
#X connect 13 0 3 0;
#X connect 15 0 14 0;
#X connect 16 0 15 0;
#X connect 17 0 16 0;
#X connect 17 1 15 1;
#X connect 18 0 10 0;
#X connect 18 1 17 0;
