#N canvas 40 78 450 300 10;
#X obj 8 8 inlet~;
#X obj 138 175 outlet~;
#X obj 138 152 vd~ \$0-r;
#X obj 138 9 inlet~;
#X obj 138 79 delwrite~ \$0-r 10;
#X obj 8 79 delwrite~ \$0-l 10;
#X obj 138 108 random 10000;
#X obj 138 130 / 1000;
#X obj 8 176 outlet~;
#X obj 8 109 random 10000;
#X obj 8 131 / 1000;
#X obj 8 153 vd~ \$0-l;
#X obj 280 9 inlet;
#X connect 0 0 5 0;
#X connect 2 0 1 0;
#X connect 3 0 4 0;
#X connect 6 0 7 0;
#X connect 7 0 2 0;
#X connect 9 0 10 0;
#X connect 10 0 11 0;
#X connect 11 0 8 0;
#X connect 12 0 6 0;
#X connect 12 0 9 0;
