#N canvas 363 83 450 300 10;
#X obj 16 257 table \$1 44100;
#X msg 21 115 start;
#X obj 128 44 sel 1 0;
#X msg 183 94 stop;
#X obj 151 69 t b b;
#X obj 151 117 delay 1;
#X obj 21 92 t b b;
#X obj 128 23 inlet;
#X msg 151 161 \; \$1 normalize \;;
#X obj 151 140 symbol \$1;
#X obj 53 140 symbol \$1;
#X msg 53 161 \; \$1 const 0 \;;
#X obj 36 216 tabwrite~ \$1;
#X obj 22 23 inlet~;
#X connect 1 0 12 0;
#X connect 2 0 6 0;
#X connect 2 1 4 0;
#X connect 3 0 12 0;
#X connect 4 0 5 0;
#X connect 4 1 3 0;
#X connect 5 0 9 0;
#X connect 6 0 1 0;
#X connect 6 1 10 0;
#X connect 7 0 2 0;
#X connect 9 0 8 0;
#X connect 10 0 11 0;
#X connect 13 0 12 0;
