#N canvas 0 0 310 377 10;
#X obj 39 41 env~;
#X obj 39 63 dbtorms;
#X obj 39 84 moses 0;
#X obj 85 205 line~;
#X obj 17 241 *~;
#X msg 85 172 \$1 1;
#X msg 39 172 \$1 1;
#X obj 17 263 outlet~;
#X obj 18 18 inlet~;
#X obj 85 149 /;
#X msg 85 127 1;
#X obj 85 105 t b f;
#X connect 0 0 1 0;
#X connect 1 0 2 0;
#X connect 2 0 6 0;
#X connect 2 1 11 0;
#X connect 3 0 4 1;
#X connect 4 0 7 0;
#X connect 5 0 3 0;
#X connect 6 0 3 0;
#X connect 8 0 0 0;
#X connect 8 0 4 0;
#X connect 9 0 5 0;
#X connect 10 0 9 0;
#X connect 11 0 10 0;
#X connect 11 1 9 1;
