#N canvas 0 0 450 300 10;
#X obj 11 252 outlet~;
#X obj 11 13 r choose-new-samples;
#X obj 11 59 random;
#X obj 11 79 + 1;
#X msg 11 125 set \$2-\$1;
#X obj 50 36 r \$1-samples;
#X obj 64 60 loadbang;
#X obj 64 80 symbol \$1;
#X obj 11 102 pack f s;
#X obj 30 153 r \$1-shot;
#X obj 314 11 samplerate~ 44100;
#X obj 11 229 tabread4~;
#X obj 30 196 vline~;
#X obj 107 153 s new-sample;
#X msg 30 175 0 \, 88200 2000;
#X connect 1 0 2 0;
#X connect 2 0 3 0;
#X connect 3 0 8 0;
#X connect 4 0 11 0;
#X connect 4 0 13 0;
#X connect 5 0 2 1;
#X connect 6 0 7 0;
#X connect 7 0 8 1;
#X connect 8 0 4 0;
#X connect 9 0 14 0;
#X connect 11 0 0 0;
#X connect 12 0 11 0;
#X connect 14 0 12 0;
