#N canvas 127 148 995 523 10;
#X obj 715 66 metro 10;
#X obj 715 29 loadbang;
#X msg 779 29 bang;
#X obj 715 88 f;
#X obj 744 88 + 1;
#X obj 715 239 cos;
#X obj 715 270 + 1;
#X obj 715 324 *;
#X obj 715 213 * 0.01;
#X obj 754 127 random 1000;
#X obj 754 148 / 1000;
#X obj 783 66 inlet;
#X obj 83 320 outlet~;
#X msg 783 88 bang;
#X obj 747 271 inlet;
#X obj 22 23 s-spooky~ \$1 \$1;
#X obj 715 349 s \$1/location;
#X obj 754 174 * 0.05;
#X obj 45 208 *~;
#X obj 165 231 *~;
#X obj 282 143 cos~;
#X obj 188 322 outlet~;
#X obj 366 45 *~ 2;
#X obj 366 66 -~ 1;
#X obj 205 114 cos~;
#X obj 370 103 +~ 0.25;
#X obj 366 23 phasor~ 0.1;
#X obj 747 293 * 0.5;
#X obj 108 192 *~ 0.5;
#X connect 0 0 3 0;
#X connect 1 0 0 0;
#X connect 2 0 0 0;
#X connect 3 0 4 0;
#X connect 3 0 8 0;
#X connect 4 0 3 1;
#X connect 5 0 6 0;
#X connect 6 0 7 0;
#X connect 7 0 16 0;
#X connect 8 0 5 0;
#X connect 9 0 10 0;
#X connect 10 0 17 0;
#X connect 11 0 13 0;
#X connect 13 0 9 0;
#X connect 14 0 27 0;
#X connect 15 0 18 0;
#X connect 15 0 19 0;
#X connect 15 0 28 0;
#X connect 17 0 8 1;
#X connect 18 0 12 0;
#X connect 19 0 21 0;
#X connect 20 0 19 1;
#X connect 22 0 23 0;
#X connect 23 0 24 0;
#X connect 23 0 25 0;
#X connect 24 0 18 1;
#X connect 25 0 20 0;
#X connect 26 0 22 0;
#X connect 27 0 7 1;
#X connect 28 0 12 0;
#X connect 28 0 21 0;
