#N canvas 918 22 267 248 10;
#N canvas 389 221 796 530 filter 0;
#X obj 21 26 inlet~;
#X obj 111 26 inlet~;
#X obj 21 479 outlet~;
#X obj 151 479 outlet~;
#N canvas 180 22 988 555 simple_reson_lp1 0;
#X obj -68 405 cpole~;
#X obj -59 455 czero~;
#X obj -57 503 outlet~;
#X obj -253 145 inlet~;
#X obj -77 371 *~;
#X obj 31 118 /~ 2;
#X obj 32 238 cos~;
#X obj 95 182 -~ 0.25;
#X obj 96 203 cos~;
#X obj 96 256 *~;
#X obj 225 183 clip~ 0.05 0.99;
#X obj 236 144 inlet~;
#X obj -60 305 *~;
#X obj -81 266 +~ 2;
#X obj -84 237 *~ 0.5;
#X obj -27 279 -~;
#X obj 32 90 clip~ 0 1;
#X obj 36 34 /~ 11025;
#X obj 34 5 inlet~;
#X text -123 141 audio in;
#X text 81 5 cutoff;
#X text 287 143 resonance;
#X text 55 368 zero at nyquist;
#X text 99 35 1/4 samplerate;
#X text -128 198 attenuation factor;
#X text -128 214 (1-x)*(1/2*angle+2);
#X text 70 118 pi/2 for audio cos;
#X text -381 304 pole: cos(angle) \, sin(angle)+res;
#X text 39 220 cosine;
#X text 147 191 sine;
#X text -378 286 multiply input by attenuation factor;
#X text -404 106 4/2008 martin brinkmann;
#X text -405 8 slightly crude (especially the attenuatiun factor) lowpass
filter design \, made without knowing too much of the math involved.
frequency is not very exact \, but at least it sounds like a reson
filter :-);
#X text -404 63 a pole is moved along the unit-circle on a kind of
rugby-egg-shaped path \, while a zero sits at -1 \, 0 (nyquist frequency)
\, which makes a resonant lowpass filter.;
#X text 100 54 cutoff (or angle on the unit circle \, usually 0..pi
(0..nyquist) \, but here 0..0.5 because of the cos~ audio object);
#X obj -32 246 sig~ 1;
#X obj 37 392 sig~ -1;
#X obj 104 393 sig~ 0;
#X obj -125 401 cpole~;
#X obj -116 451 czero~;
#X obj -135 504 outlet~;
#X obj -310 141 inlet~;
#X obj -134 367 *~;
#X obj 453 131 samplerate~;
#X obj 453 101 loadbang;
#X obj 453 161 * 0.25;
#X connect 0 0 1 0;
#X connect 0 1 1 1;
#X connect 1 0 2 0;
#X connect 3 0 4 0;
#X connect 4 0 0 0;
#X connect 5 0 7 0;
#X connect 5 0 6 0;
#X connect 6 0 0 2;
#X connect 6 0 15 1;
#X connect 6 0 38 2;
#X connect 7 0 8 0;
#X connect 8 0 9 0;
#X connect 9 0 0 3;
#X connect 9 0 38 3;
#X connect 10 0 9 1;
#X connect 11 0 10 0;
#X connect 12 0 4 1;
#X connect 12 0 42 1;
#X connect 13 0 12 0;
#X connect 14 0 13 0;
#X connect 15 0 12 1;
#X connect 16 0 5 0;
#X connect 16 0 14 0;
#X connect 17 0 16 0;
#X connect 18 0 17 0;
#X connect 35 0 15 0;
#X connect 36 0 1 2;
#X connect 36 0 39 2;
#X connect 37 0 1 3;
#X connect 37 0 39 3;
#X connect 38 0 39 0;
#X connect 38 1 39 1;
#X connect 39 0 40 0;
#X connect 41 0 42 0;
#X connect 42 0 38 0;
#X connect 43 0 45 0;
#X connect 44 0 43 0;
#X connect 45 0 17 1;
#X restore 225 369 pd simple_reson_lp1;
#X obj 311 269 mtof;
#X obj 225 409 *~ 4;
#X obj 355 409 *~ 4;
#X obj 311 239 unpack f f f;
#X obj 380 379 f;
#N canvas 873 26 322 474 scale 0;
#X obj 15 26 inlet;
#X obj 178 24 inlet;
#X obj 83 25 inlet;
#X obj 100 393 pack f f f;
#X obj 109 233 t a a a;
#X obj 100 363 +;
#X obj 133 363 +;
#X obj 167 363 +;
#X obj 83 302 unpack f f f;
#X text 86 42 from;
#X obj 190 166 unpack f f f;
#X obj 182 233 -;
#X obj 215 233 -;
#X obj 249 233 -;
#X obj 180 116 unpack f f f;
#X obj 124 275 *;
#X obj 157 275 *;
#X obj 190 275 *;
#X text 184 40 to;
#X obj 100 423 outlet;
#X obj 82 121 t a a;
#X connect 0 0 4 0;
#X connect 1 0 14 0;
#X connect 2 0 20 0;
#X connect 3 0 19 0;
#X connect 4 0 15 0;
#X connect 4 1 16 0;
#X connect 4 2 17 0;
#X connect 5 0 3 0;
#X connect 6 0 3 1;
#X connect 7 0 3 2;
#X connect 8 0 5 1;
#X connect 8 1 6 1;
#X connect 8 2 7 1;
#X connect 10 0 11 1;
#X connect 10 1 12 1;
#X connect 10 2 13 1;
#X connect 11 0 15 1;
#X connect 12 0 16 1;
#X connect 13 0 17 1;
#X connect 14 0 11 0;
#X connect 14 1 12 0;
#X connect 14 2 13 0;
#X connect 15 0 5 0;
#X connect 16 0 6 0;
#X connect 17 0 7 0;
#X connect 20 0 8 0;
#X connect 20 1 10 0;
#X restore 312 210 pd scale;
#X obj 323 58 hsl 128 15 0 1 0 0 empty empty empty -2 -8 0 10 -262144
-1 -1 0 1;
#X obj 107 241 hsl 128 15 0 1 0 0 empty empty empty -2 -8 0 10 -262144
-1 -1 0 1;
#X obj 311 329 line~;
#N canvas 0 22 441 403 dry-wet 0;
#X obj 22 26 inlet~;
#X obj 122 26 inlet~;
#X obj 212 26 inlet;
#X obj 122 349 outlet~;
#X obj 22 349 outlet~;
#X obj 322 349 outlet~;
#X obj 222 349 outlet~;
#X obj 282 226 line~;
#X obj 122 289 *~;
#X obj 52 289 *~;
#X obj 212 226 line~;
#X obj 212 106 * 1.5708;
#X obj 212 136 cos;
#X obj 282 136 sin;
#X obj 212 166 clip 0 1;
#X obj 282 166 clip 0 1;
#X msg 212 196 \$1 200;
#X msg 282 196 \$1 200;
#X obj 92 289 *~;
#X obj 22 289 *~;
#X obj 282 26 loadbang;
#X msg 282 56 0;
#X connect 0 0 19 0;
#X connect 0 0 18 0;
#X connect 1 0 9 0;
#X connect 1 0 8 0;
#X connect 2 0 11 0;
#X connect 7 0 8 1;
#X connect 7 0 18 1;
#X connect 8 0 5 0;
#X connect 9 0 3 0;
#X connect 10 0 9 1;
#X connect 10 0 19 1;
#X connect 11 0 13 0;
#X connect 11 0 12 0;
#X connect 12 0 14 0;
#X connect 13 0 15 0;
#X connect 14 0 16 0;
#X connect 15 0 17 0;
#X connect 16 0 10 0;
#X connect 17 0 7 0;
#X connect 18 0 6 0;
#X connect 19 0 4 0;
#X connect 20 0 21 0;
#X connect 21 0 11 0;
#X restore 21 246 pd dry-wet;
#X msg 472 107 normal;
#X msg 311 299 \$1 100;
#X msg 366 145 77 0.2 1;
#X msg 643 112 full;
#X msg 634 156 111 0.1 0.4;
#X msg 398 165 38 0.4 2;
#X msg 666 176 44 0.3 1.5;
#X msg 541 175 77 0.1 0.6;
#X msg 509 155 127 0 0.1;
#X obj 366 125 t b b;
#X obj 509 135 t b b;
#X obj 634 136 t b b;
#X obj 505 47 r filter-style;
#X obj 505 77 route deep normal full;
#X msg 327 96 deep;
#X obj 88 216 r filter;
#X obj 371 90 loadbang;
#X obj 313 34 r filter-frequency;
#X connect 0 0 14 0;
#X connect 1 0 14 1;
#X connect 4 0 6 0;
#X connect 4 1 7 0;
#X connect 5 0 16 0;
#X connect 6 0 2 0;
#X connect 7 0 3 0;
#X connect 8 0 5 0;
#X connect 8 1 4 3;
#X connect 8 2 9 0;
#X connect 9 0 7 1;
#X connect 9 0 6 1;
#X connect 10 0 8 0;
#X connect 11 0 10 0;
#X connect 12 0 14 2;
#X connect 13 0 4 2;
#X connect 14 0 2 0;
#X connect 14 1 3 0;
#X connect 14 2 4 0;
#X connect 14 3 4 1;
#X connect 15 0 25 0;
#X connect 16 0 13 0;
#X connect 17 0 10 2;
#X connect 18 0 26 0;
#X connect 19 0 10 2;
#X connect 20 0 10 1;
#X connect 21 0 10 1;
#X connect 22 0 10 1;
#X connect 23 0 10 2;
#X connect 24 0 17 0;
#X connect 24 1 20 0;
#X connect 25 0 23 0;
#X connect 25 1 22 0;
#X connect 26 0 19 0;
#X connect 26 1 21 0;
#X connect 27 0 28 0;
#X connect 28 0 24 0;
#X connect 28 1 25 0;
#X connect 28 2 26 0;
#X connect 29 0 24 0;
#X connect 30 0 14 2;
#X connect 31 0 24 0;
#X connect 32 0 10 0;
#X restore 24 118 pd filter;
#N canvas 342 166 603 362 delay 0;
#X obj 27 33 inlet~;
#X obj 117 33 inlet~;
#X obj 27 209 outlet~;
#X obj 101 209 outlet~;
#N canvas 0 22 507 373 write 0;
#X obj 41 43 inlet~;
#X obj 141 43 inlet~;
#X obj 41 343 outlet~;
#X obj 41 293 delwrite~ ch1 1000;
#X obj 141 263 delwrite~ ch2 1000;
#X obj 221 51 inlet;
#X obj 221 81 clip 0 0.995;
#X obj 293 171 r~ ch2feed;
#X obj 203 171 r~ ch1feed;
#X obj 203 201 *~;
#X obj 293 201 *~;
#X obj 221 141 line~;
#X msg 221 111 \$1 50;
#X connect 0 0 3 0;
#X connect 1 0 4 0;
#X connect 5 0 6 0;
#X connect 6 0 12 0;
#X connect 7 0 10 0;
#X connect 8 0 9 0;
#X connect 9 0 3 0;
#X connect 10 0 4 0;
#X connect 11 0 10 1;
#X connect 11 0 9 1;
#X connect 12 0 11 0;
#X restore 121 75 pd write;
#N canvas 455 297 350 237 read 0;
#X obj 34 40 inlet~;
#X obj 34 210 outlet~;
#X obj 184 210 outlet~;
#X obj 214 40 inlet;
#X obj 34 140 vd~ ch1;
#X obj 184 140 vd~ ch2;
#X obj 101 96 line~;
#X obj 54 170 s~ ch1feed;
#X obj 204 170 s~ ch2feed;
#X msg 101 66 \$1 11;
#X connect 3 0 9 0;
#X connect 4 0 1 0;
#X connect 4 0 7 0;
#X connect 5 0 2 0;
#X connect 5 0 8 0;
#X connect 6 0 4 0;
#X connect 6 0 5 0;
#X connect 9 0 6 0;
#X restore 121 105 pd read;
#X obj 123 164 hsl 128 15 0 1 0 0 empty empty empty -2 -8 0 10 -262144
-1 -1 0 1;
#N canvas 28 214 623 396 dry-wet2 0;
#X obj 22 26 inlet~;
#X obj 122 26 inlet~;
#X obj 372 26 inlet;
#X obj 122 349 outlet~;
#X obj 22 349 outlet~;
#X obj 442 226 line~;
#X obj 122 289 *~;
#X obj 52 289 *~;
#X obj 372 226 line~;
#X obj 372 106 * 1.5708;
#X obj 372 136 cos;
#X obj 442 136 sin;
#X obj 372 166 clip 0 1;
#X obj 442 166 clip 0 1;
#X msg 372 196 \$1 200;
#X msg 442 196 \$1 200;
#X obj 92 289 *~;
#X obj 22 289 *~;
#X obj 442 26 loadbang;
#X msg 442 56 0;
#X obj 192 26 inlet~;
#X obj 292 26 inlet~;
#X connect 0 0 17 0;
#X connect 1 0 7 0;
#X connect 2 0 9 0;
#X connect 5 0 6 1;
#X connect 5 0 16 1;
#X connect 6 0 3 0;
#X connect 7 0 3 0;
#X connect 8 0 7 1;
#X connect 8 0 17 1;
#X connect 9 0 11 0;
#X connect 9 0 10 0;
#X connect 10 0 12 0;
#X connect 11 0 13 0;
#X connect 12 0 14 0;
#X connect 13 0 15 0;
#X connect 14 0 8 0;
#X connect 15 0 5 0;
#X connect 16 0 4 0;
#X connect 17 0 4 0;
#X connect 18 0 19 0;
#X connect 19 0 9 0;
#X connect 20 0 16 0;
#X connect 21 0 6 0;
#X restore 27 179 pd dry-wet2;
#X obj 417 71 hsl 128 15 0 1 0 0 empty empty empty -2 -8 0 10 -262144
-1 -1 0 1;
#X obj 379 160 * 5;
#X obj 379 191 pow 4;
#X obj 379 251 clip 2 500;
#X obj 379 221 + 2;
#X obj 379 130 +;
#X obj 379 100 * 0.2;
#X obj 413 130 * 0.8;
#X obj 217 121 hsl 128 15 0 1 0 0 empty empty empty -2 -8 0 10 -262144
-1 -1 0 1;
#X text 414 54 delay;
#X text 216 103 feedback;
#X floatatom 436 212 5 0 0 0 - - -;
#X obj 174 33 r feedback;
#X obj 184 193 r delay;
#X obj 379 30 r delay-time;
#X connect 0 0 7 0;
#X connect 0 0 4 0;
#X connect 1 0 7 1;
#X connect 1 0 4 1;
#X connect 4 0 5 0;
#X connect 5 0 7 2;
#X connect 5 1 7 3;
#X connect 6 0 7 4;
#X connect 7 0 2 0;
#X connect 7 1 3 0;
#X connect 8 0 14 0;
#X connect 9 0 10 0;
#X connect 10 0 12 0;
#X connect 11 0 5 1;
#X connect 12 0 11 0;
#X connect 12 0 19 0;
#X connect 13 0 9 0;
#X connect 13 0 15 0;
#X connect 14 0 13 0;
#X connect 15 0 13 1;
#X connect 16 0 4 2;
#X connect 20 0 4 2;
#X connect 21 0 7 4;
#X connect 22 0 14 0;
#X restore 24 148 pd delay;
#X obj 24 178 soundoutput;
#N canvas 583 22 613 711 play 0;
#X obj 37 657 outlet~;
#X obj 72 487 vline~;
#X obj 72 427 list append;
#X obj 72 397 metro;
#X obj 184 316 / 22.05;
#X obj 72 286 t a a;
#X obj 37 627 tabread4~ wr;
#X obj 147 657 outlet~;
#X obj 147 627 tabread4~ wr2;
#X obj 72 336 list append;
#X obj 72 366 t b a;
#X msg 72 457 stop \, 0 \, \$1 \$2;
#X obj 280 384 pack;
#X msg 280 414 \$2 \$1;
#X obj 280 444 /;
#X msg 278 308 1;
#X msg 316 308 2;
#X msg 353 308 4;
#X msg 388 308 8;
#X msg 420 309 16;
#X msg 457 307 32;
#X msg 488 307 64;
#X msg 138 241 88827;
#X obj 37 513 +~;
#X obj 36 286 sig~;
#X msg 46 115 88827 177655;
#X msg 36 256 \$1;
#X obj 36 215 t a a;
#X msg 72 235 \$2 \$1;
#X obj 72 255 -;
#X msg 36 90 0 88827;
#X obj 293 532 * 22.05;
#X obj 275 602 sig~;
#X obj 275 572 *;
#X floatatom 370 542 5 0 0 0 - - -;
#X obj 293 502 / 8;
#X obj 155 379 tgl 15 0 empty empty empty 17 7 0 10 -262144 -1 -1 0
1;
#X msg 47 137 177655 266482;
#X msg 47 159 266482 355308;
#X msg 189 91 355308 444135;
#X msg 189 111 444135 532962;
#X msg 189 131 532962 621789;
#X msg 189 151 621789 710616;
#X obj 144 20 r play;
#X obj 144 50 select 0 1 2 3 4 5 6 7;
#X obj 309 242 r jump;
#X obj 225 527 r jump2;
#X obj 308 264 change;
#X connect 1 0 23 1;
#X connect 2 0 11 0;
#X connect 3 0 2 0;
#X connect 4 0 9 1;
#X connect 4 0 3 1;
#X connect 4 0 12 1;
#X connect 4 0 35 0;
#X connect 5 0 9 0;
#X connect 5 1 4 0;
#X connect 6 0 0 0;
#X connect 8 0 7 0;
#X connect 9 0 10 0;
#X connect 10 0 3 0;
#X connect 10 1 2 1;
#X connect 11 0 1 0;
#X connect 12 0 13 0;
#X connect 13 0 14 0;
#X connect 14 0 3 1;
#X connect 15 0 12 0;
#X connect 16 0 12 0;
#X connect 17 0 12 0;
#X connect 18 0 12 0;
#X connect 19 0 12 0;
#X connect 20 0 12 0;
#X connect 21 0 12 0;
#X connect 22 0 5 0;
#X connect 23 0 6 0;
#X connect 23 0 8 0;
#X connect 24 0 23 0;
#X connect 25 0 27 0;
#X connect 26 0 24 0;
#X connect 27 0 26 0;
#X connect 27 1 28 0;
#X connect 28 0 29 0;
#X connect 29 0 5 0;
#X connect 30 0 27 0;
#X connect 31 0 33 1;
#X connect 32 0 23 0;
#X connect 33 0 32 0;
#X connect 34 0 33 0;
#X connect 35 0 31 0;
#X connect 36 0 3 1;
#X connect 37 0 27 0;
#X connect 38 0 27 0;
#X connect 39 0 27 0;
#X connect 40 0 27 0;
#X connect 41 0 27 0;
#X connect 42 0 27 0;
#X connect 43 0 44 0;
#X connect 44 0 30 0;
#X connect 44 1 25 0;
#X connect 44 2 37 0;
#X connect 44 3 38 0;
#X connect 44 4 39 0;
#X connect 44 5 40 0;
#X connect 44 6 41 0;
#X connect 44 7 42 0;
#X connect 45 0 47 0;
#X connect 46 0 33 0;
#X connect 47 0 12 0;
#X restore 24 88 pd play;
#N canvas 121 22 1138 596 sequencing 0;
#X obj 28 120 metro 4028.44;
#X obj 950 340 s feedback;
#X msg 960 321 0.5;
#X obj 950 270 s delay;
#X msg 950 240 0;
#X msg 989 240 0.5;
#X msg 967 382 0.5;
#X obj 950 402 s delay-time;
#X floatatom 87 194 5 0 0 0 - - -;
#X obj 28 30 r #transport;
#X obj 28 60 route play;
#X obj 28 90 sel 1;
#X obj 28 200 s play;
#N canvas 154 305 385 337 loopSome 0;
#X obj 19 28 inlet;
#X obj 59 298 list split 1;
#X obj 19 268 list split 0;
#X obj 19 148 f;
#X obj 49 148 + 1;
#X obj 79 148 mod 8;
#X obj 19 58 f;
#X obj 49 58 + 1;
#X obj 79 58 mod 8;
#X obj 264 188 t a b;
#X msg 93 29 0;
#X obj 72 98 - 1;
#X obj 19 118 select 0;
#X obj 19 178 t b a a;
#X msg 19 238 8 4 3 1 4 2 6 2;
#X text 125 149 number of loops;
#X obj 93 208 outlet;
#X text 138 238 amount of looping the loops;
#X connect 0 0 6 0;
#X connect 1 0 9 0;
#X connect 2 1 1 0;
#X connect 3 0 4 0;
#X connect 3 0 13 0;
#X connect 4 0 5 0;
#X connect 5 0 3 1;
#X connect 6 0 7 0;
#X connect 6 0 12 0;
#X connect 7 0 8 0;
#X connect 8 0 6 1;
#X connect 9 0 11 0;
#X connect 9 1 10 0;
#X connect 10 0 6 1;
#X connect 11 0 12 1;
#X connect 12 0 3 0;
#X connect 13 0 14 0;
#X connect 13 1 2 1;
#X connect 13 2 16 0;
#X connect 14 0 2 0;
#X restore 28 170 pd loopSome;
#X obj 950 210 s filter-style;
#X msg 950 180 normal;
#X msg 1004 180 full;
#X msg 1054 180 deep;
#X obj 953 120 hsl 128 15 0 1 0 0 empty empty empty -2 -8 0 10 -262144
-1 -1 0 1;
#X obj 953 60 hsl 128 15 0 1 0 0 empty empty empty -2 -8 0 10 -262144
-1 -1 0 1;
#X obj 950 90 s filter;
#X obj 225 216 s jump;
#X msg 331 174 4;
#X msg 366 174 8;
#X msg 400 174 16;
#X msg 435 173 32;
#X msg 466 173 64;
#X msg 478 213 2;
#X obj 457 239 s jump2;
#X msg 440 213 0;
#X obj 953 362 hsl 128 15 0 1 0 0 empty empty empty -2 -8 0 10 -262144
-1 -1 0 1;
#X obj 953 302 hsl 128 15 0 1 0 0 empty empty empty -2 -8 0 10 -262144
-1 -1 0 1;
#X obj 52 145 s global_bang;
#X obj 331 60 accelerate;
#N canvas 0 22 665 523 rjAxisShaker 0;
#X obj 35 33 r accelerate;
#X obj 35 153 abs;
#X obj 35 223 sel 1;
#X obj 35 123 -;
#X obj 35 93 t a a;
#X obj 35 63 route x y z;
#X text 369 71 Inspired by Roman Haefeli's Amenshake;
#X obj 35 283 spigot 1;
#X obj 119 443 change;
#X obj 427 188 unpack f f f;
#X msg 55 313 1 0 0;
#X obj 427 348 t a;
#X obj 87 223 t a a;
#X obj 165 153 abs;
#X obj 165 223 sel 1;
#X obj 165 123 -;
#X obj 165 93 t a a;
#X obj 165 283 spigot 1;
#X obj 249 443 change;
#X obj 217 223 t a a;
#X msg 185 313 0 1 0;
#X obj 295 153 abs;
#X obj 295 223 sel 1;
#X obj 295 123 -;
#X obj 295 93 t a a;
#X obj 295 283 spigot 1;
#X obj 379 443 change;
#X obj 347 223 t a a;
#X msg 315 313 0 0 1;
#X obj 166 386 t b b;
#X msg 198 416 0;
#X msg 133 249 1;
#X text 370 51 Author: Enrique Erne;
#X text 369 31 Version: 2008-09-21;
#X obj 119 473 outlet;
#X obj 249 473 outlet;
#X obj 379 473 outlet;
#X text 80 184 sensitivity;
#X text 64 113 dif2last;
#X obj 35 353 delay 400;
#X obj 165 353 delay 400;
#X obj 295 353 delay 400;
#X text 38 373 timeout;
#X obj 35 183 > 1.5;
#X obj 165 183 > 1.5;
#X obj 295 183 > 1.5;
#X connect 0 0 5 0;
#X connect 1 0 43 0;
#X connect 2 0 7 0;
#X connect 3 0 1 0;
#X connect 4 0 3 1;
#X connect 4 1 3 0;
#X connect 5 0 4 0;
#X connect 5 1 16 0;
#X connect 5 2 24 0;
#X connect 7 0 10 0;
#X connect 7 0 39 0;
#X connect 8 0 34 0;
#X connect 9 0 12 0;
#X connect 9 1 19 0;
#X connect 9 2 27 0;
#X connect 10 0 11 0;
#X connect 11 0 9 0;
#X connect 12 0 7 1;
#X connect 12 1 8 0;
#X connect 13 0 44 0;
#X connect 14 0 17 0;
#X connect 15 0 13 0;
#X connect 16 0 15 1;
#X connect 16 1 15 0;
#X connect 17 0 20 0;
#X connect 17 0 40 0;
#X connect 18 0 35 0;
#X connect 19 0 17 1;
#X connect 19 1 18 0;
#X connect 20 0 11 0;
#X connect 21 0 45 0;
#X connect 22 0 25 0;
#X connect 23 0 21 0;
#X connect 24 0 23 1;
#X connect 24 1 23 0;
#X connect 25 0 28 0;
#X connect 25 0 41 0;
#X connect 26 0 36 0;
#X connect 27 0 25 1;
#X connect 27 1 26 0;
#X connect 28 0 11 0;
#X connect 29 0 31 0;
#X connect 29 1 30 0;
#X connect 30 0 26 0;
#X connect 30 0 18 0;
#X connect 30 0 8 0;
#X connect 31 0 7 1;
#X connect 31 0 17 1;
#X connect 31 0 25 1;
#X connect 39 0 29 0;
#X connect 40 0 29 0;
#X connect 41 0 29 0;
#X connect 43 0 2 0;
#X connect 44 0 14 0;
#X connect 45 0 22 0;
#X restore 331 80 pd rjAxisShaker;
#X obj 184 265 touch;
#N canvas 95 213 351 263 rjTouch 0;
#X obj 29 27 r touch;
#X obj 29 87 route 1 2;
#X obj 29 57 route updown;
#X obj 162 27 r #touch;
#X obj 162 57 route xy;
#X obj 162 87 unpack f f f;
#X obj 202 117 / 320;
#X obj 252 117 / -320;
#X obj 252 147 + 1;
#X obj 252 177 clip 0 1;
#X obj 29 207 outlet;
#X obj 202 207 outlet;
#X obj 252 207 outlet;
#X connect 0 0 2 0;
#X connect 1 0 10 0;
#X connect 2 0 1 0;
#X connect 3 0 4 0;
#X connect 4 0 5 0;
#X connect 5 1 6 0;
#X connect 5 2 7 0;
#X connect 6 0 11 0;
#X connect 7 0 8 0;
#X connect 8 0 9 0;
#X connect 9 0 12 0;
#X restore 184 285 pd rjTouch;
#X obj 184 306 tgl 15 0 empty empty empty 17 7 0 10 -262144 -1 -1 0
1;
#X floatatom 228 308 5 0 0 0 - - -;
#X floatatom 286 307 5 0 0 0 - - -;
#N canvas 390 22 333 305 simpleAudioIn 0;
#X obj 23 56 env~;
#X obj 123 206 +;
#X obj 157 206 * 0.9;
#X obj 123 176 * 0.1;
#X obj 23 206 +;
#X obj 23 176 * 0.01;
#X obj 57 206 * 0.99;
#N canvas 0 22 275 284 mapTo_0-1 0;
#X obj 25 34 inlet;
#X obj 25 214 outlet;
#N canvas 0 22 317 277 autorange 0;
#X obj 25 27 inlet;
#X obj 215 27 inlet;
#X obj 25 227 outlet;
#X obj 165 226 outlet;
#X obj 25 197 t a a;
#X obj 25 167 moses 100;
#X obj 203 166 >;
#X obj 165 137 t a a;
#X obj 165 196 spigot;
#X obj 177 92 unpack f f;
#X msg 177 62 100 0;
#X text 223 61 reset;
#X obj 25 57 t a a;
#X connect 0 0 12 0;
#X connect 1 0 10 0;
#X connect 4 0 2 0;
#X connect 4 1 5 1;
#X connect 5 0 4 0;
#X connect 6 0 8 1;
#X connect 7 0 8 0;
#X connect 7 1 6 0;
#X connect 8 0 6 1;
#X connect 8 0 3 0;
#X connect 9 0 5 1;
#X connect 9 1 6 1;
#X connect 10 0 9 0;
#X connect 12 0 5 0;
#X connect 12 1 7 0;
#X restore 57 94 pd autorange;
#X msg 150 54 reset;
#X obj 25 64 t a a;
#X obj 25 124 -;
#X obj 25 184 clip 0 1;
#X obj 25 154 /;
#X obj 75 154 -;
#X obj 85 124 t b a;
#X obj 104 215 hsl 128 15 0 1 0 0 empty empty empty -2 -8 0 10 -262144
-1 -1 0 1;
#X connect 0 0 4 0;
#X connect 2 0 5 1;
#X connect 2 0 9 0;
#X connect 2 1 8 0;
#X connect 3 0 2 1;
#X connect 4 0 5 0;
#X connect 4 1 2 0;
#X connect 5 0 7 0;
#X connect 6 0 1 0;
#X connect 6 0 10 0;
#X connect 7 0 6 0;
#X connect 8 0 7 1;
#X connect 9 0 8 0;
#X connect 9 1 8 1;
#X restore 23 86 pd mapTo_0-1;
#X obj 23 116 spigot;
#X obj 143 26 loadbang;
#X obj 143 56 delay 2000;
#X msg 143 86 1;
#X obj 23 236 outlet;
#X obj 123 236 outlet;
#X obj 23 146 t a a;
#X obj 23 26 soundinput;
#X connect 0 0 7 0;
#X connect 1 0 2 0;
#X connect 1 0 13 0;
#X connect 2 0 1 1;
#X connect 3 0 1 0;
#X connect 4 0 6 0;
#X connect 4 0 12 0;
#X connect 5 0 4 0;
#X connect 6 0 4 1;
#X connect 7 0 8 0;
#X connect 8 0 14 0;
#X connect 9 0 10 0;
#X connect 10 0 11 0;
#X connect 11 0 8 1;
#X connect 14 0 5 0;
#X connect 14 1 3 0;
#X connect 15 0 0 0;
#X restore 575 59 pd simpleAudioIn;
#X obj 597 109 hsl 128 15 0 1 0 0 empty empty empty -2 -8 0 10 -262144
-1 -1 0 1;
#X obj 698 82 hsl 128 15 0 1 0 0 empty empty empty -2 -8 0 10 -262144
-1 -1 0 1;
#X obj 549 217 r play;
#X obj 434 128 sel 1;
#X obj 383 129 sel 1;
#X obj 332 129 sel 1;
#X obj 549 247 select 0 1 2 3 4 5 6 7;
#X obj 225 186 f 1;
#X obj 338 101 tgl 15 0 empty empty empty 17 7 0 10 -262144 -1 -1 0
1;
#X obj 395 101 tgl 15 0 empty empty empty 17 7 0 10 -262144 -1 -1 0
1;
#X obj 454 100 tgl 15 0 empty empty empty 17 7 0 10 -262144 -1 -1 0
1;
#X obj 226 93 r global_bang;
#X obj 226 160 spigot;
#X obj 226 113 t b b;
#X msg 267 141 1;
#X msg 298 141 0;
#X obj 950 150 s filter-frequency;
#X obj 298 455 s delay-time;
#X obj 217 455 s feedback;
#X obj 392 455 s filter;
#X obj 458 455 s filter-frequency;
#X msg 452 340 \; filter 1 \; filter-style deep \; filter-frequency
0.5 \; delay 0 \; delay-time 0.5 \; feedback 0.25;
#X obj 122 454 s delay;
#X msg 122 424 0;
#X msg 161 424 0.5;
#X obj 122 389 sel 0 1;
#X obj 829 188 spigot;
#X obj 867 158 == 0;
#X obj 767 255 s filter-frequency;
#X obj 853 140 == 6;
#X msg 669 393 \; filter 1 \; filter-style full;
#X obj 551 269 del 4000;
#X msg 553 294 \; filter-style normal;
#X msg 704 313 \; filter 0 \; filter-style full;
#X connect 0 0 13 0;
#X connect 0 0 32 0;
#X connect 2 0 1 0;
#X connect 4 0 3 0;
#X connect 5 0 3 0;
#X connect 6 0 7 0;
#X connect 9 0 10 0;
#X connect 10 0 11 0;
#X connect 11 0 0 0;
#X connect 13 0 12 0;
#X connect 13 0 8 0;
#X connect 15 0 14 0;
#X connect 16 0 14 0;
#X connect 17 0 14 0;
#X connect 18 0 57 0;
#X connect 19 0 20 0;
#X connect 22 0 21 0;
#X connect 23 0 21 0;
#X connect 24 0 21 0;
#X connect 25 0 21 0;
#X connect 26 0 21 0;
#X connect 27 0 28 0;
#X connect 29 0 28 0;
#X connect 30 0 7 0;
#X connect 31 0 1 0;
#X connect 34 0 46 0;
#X connect 34 0 49 0;
#X connect 34 1 45 0;
#X connect 34 1 50 0;
#X connect 34 2 44 0;
#X connect 34 2 51 0;
#X connect 36 0 37 0;
#X connect 36 0 66 0;
#X connect 36 1 38 0;
#X connect 36 1 59 0;
#X connect 36 1 61 0;
#X connect 36 2 39 0;
#X connect 36 2 58 0;
#X connect 40 0 41 0;
#X connect 40 1 42 0;
#X connect 40 1 67 0;
#X connect 43 0 47 0;
#X connect 43 0 68 0;
#X connect 43 0 70 0;
#X connect 44 0 25 0;
#X connect 44 0 56 0;
#X connect 45 0 24 0;
#X connect 45 0 56 0;
#X connect 46 0 23 0;
#X connect 46 0 56 0;
#X connect 47 0 62 0;
#X connect 47 0 72 0;
#X connect 47 1 74 0;
#X connect 47 6 71 0;
#X connect 47 7 74 0;
#X connect 48 0 21 0;
#X connect 52 0 54 0;
#X connect 53 0 48 0;
#X connect 54 0 55 0;
#X connect 54 1 53 0;
#X connect 55 0 53 1;
#X connect 56 0 53 1;
#X connect 64 0 63 0;
#X connect 65 0 63 0;
#X connect 66 0 64 0;
#X connect 66 1 65 0;
#X connect 67 0 69 0;
#X connect 68 0 67 1;
#X connect 70 0 67 1;
#X connect 72 0 73 0;
#X restore 24 58 pd sequencing;
#N canvas 0 22 450 300 load_song 0;
#X obj 33 39 loadbang;
#X obj 34 99 soundfiler;
#X msg 34 69 read KLFWTIL.wav wr wr2;
#X obj 81 160 table wr 799680;
#X obj 81 190 table wr2 799680;
#X connect 0 0 2 0;
#X connect 2 0 1 0;
#X restore 24 28 pd load_song;
#X obj 161 69 loadbang;
#X msg 161 99 \; pd dsp 1;
#X text 26 203 Author: Enrique Erne;
#X connect 0 0 1 0;
#X connect 0 1 1 1;
#X connect 1 0 2 0;
#X connect 1 1 2 1;
#X connect 3 0 0 0;
#X connect 3 1 0 1;
#X connect 6 0 7 0;
