#N canvas 497 297 546 422 10;
#X obj 146 19 inlet~;
#X obj 146 375 outlet~;
#X obj 146 292 +~;
#X obj 164 264 *~;
#X obj 164 89 mtof;
#X obj 1 137 block~ 1;
#X obj 146 317 s-jail;
#X obj 164 111 expr 8000 / $f1;
#X obj 164 66 r \$1-length;
#X obj 1 111 table \$1-del 2000;
#X obj 172 347 delwrite~ \$1-del 2000;
#X obj 164 136 delread~ \$1-del;
#X obj 182 214 r \$1-Ghosting;
#X obj 182 239 m_scale 0 1 0.5 1;
#X connect 0 0 2 0;
#X connect 2 0 6 0;
#X connect 3 0 2 1;
#X connect 4 0 7 0;
#X connect 6 0 1 0;
#X connect 6 0 10 0;
#X connect 7 0 11 0;
#X connect 8 0 4 0;
#X connect 11 0 3 0;
#X connect 12 0 13 0;
#X connect 13 0 3 1;
#X coords 0 0 1 1 120 80 0;
