#N canvas 8 43 674 658 10;
#X obj 62 7 r accelerate;
#X obj 62 40 route x y z;
#X obj 62 129 clip -1 1;
#X obj 62 149 / 2;
#X obj 62 169 + 0.5;
#X obj 131 129 clip -1 1;
#X obj 131 149 / 2;
#X obj 131 169 + 0.5;
#X obj 201 129 clip -1 1;
#X obj 201 149 / 2;
#X obj 201 169 + 0.5;
#X obj 62 278 mtof;
#X obj 62 303 d-smooth~;
#X obj 131 278 mtof;
#X obj 131 303 d-smooth~;
#X obj 201 278 mtof;
#X obj 201 303 d-smooth~;
#X obj 201 358 d-saw~;
#X obj 131 357 d-saw~;
#X obj 118 617 soundoutput;
#X obj 202 106 d-alpf;
#X obj 33 357 d-saw~;
#X obj 201 189 * 12;
#X obj 62 191 * 12;
#X obj 64 254 + 44;
#X obj 75 330 osc~;
#X obj 77 367 *~ 0.5;
#X obj 144 329 osc~;
#X obj 215 329 osc~;
#X obj 227 375 *~ 0.5;
#N canvas 99 286 613 440 fxchain 0;
#X obj 252 385 outlet~;
#X obj 330 379 outlet~;
#X obj 23 20 inlet~;
#X obj 90 17 inlet~;
#X obj 272 288 throw~ fxfbl;
#X obj 362 288 throw~ fxfbr;
#X obj 12 58 catch~ fxfbl;
#X obj 100 46 catch~ fxfbr;
#X obj 13 87 *~ 0.8;
#X obj 104 74 *~ 0.8;
#X obj 37 166 hip~ 500;
#X obj 97 166 hip~ 500;
#X msg 433 41 crosstalk 1;
#X obj 156 93 *~ 0.3;
#X obj 206 93 *~ 0.3;
#X obj 35 194 d-reverb2-light~ 40 95;
#X msg 334 45 fb \$1;
#X obj 342 18 inlet;
#X obj 234 81 d-fbdelay~ 450 1 0.56 30 10653 0.57 0.01 1;
#X connect 2 0 10 0;
#X connect 2 0 13 0;
#X connect 3 0 11 0;
#X connect 3 0 14 0;
#X connect 6 0 8 0;
#X connect 7 0 9 0;
#X connect 8 0 10 0;
#X connect 9 0 11 0;
#X connect 10 0 15 0;
#X connect 11 0 15 1;
#X connect 12 0 18 2;
#X connect 13 0 18 0;
#X connect 14 0 18 1;
#X connect 15 0 18 0;
#X connect 15 1 18 1;
#X connect 16 0 18 2;
#X connect 17 0 16 0;
#X connect 18 0 4 0;
#X connect 18 0 0 0;
#X connect 18 1 5 0;
#X connect 18 1 1 0;
#X restore 126 528 pd fxchain;
#N canvas 216 212 450 349 filter 0;
#X obj 210 238 d-biquadcalc-lowpass 1000 50;
#X msg 213 61 1000 50;
#X obj 213 31 loadbang;
#X obj 57 52 inlet~;
#X obj 137 59 inlet~;
#X obj 89 322 outlet~;
#X obj 190 320 outlet~;
#N canvas 692 312 450 300 touch 0;
#X obj 56 41 r #touch;
#X obj 56 115 unpack f f f;
#X obj 53 219 outlet;
#X text 202 169 y goes from -64 to 406;
#X text 200 154 x goes from 2 to 318;
#X obj 125 222 outlet;
#X text 365 154 320;
#X obj 53 165 / 320;
#X floatatom 190 219 5 0 0 0 - - -;
#X text 365 167 470;
#X obj 56 79 route xy down up;
#X floatatom 182 146 5 0 0 0 - - -;
#X floatatom 82 149 5 0 0 0 - - -;
#X text 254 207 safe y area: 10 326;
#X obj 125 140 - 10;
#X obj 125 164 / 316;
#X obj 125 190 clip 0 1;
#X connect 0 0 10 0;
#X connect 1 1 7 0;
#X connect 1 1 12 0;
#X connect 1 2 11 0;
#X connect 1 2 14 0;
#X connect 7 0 2 0;
#X connect 10 0 1 0;
#X connect 10 1 1 0;
#X connect 10 2 1 0;
#X connect 14 0 15 0;
#X connect 15 0 16 0;
#X connect 16 0 5 0;
#X restore 305 40 pd touch;
#X obj 292 118 mtof;
#X obj 350 119 exp;
#X floatatom 331 156 5 0 0 0 - - -;
#X floatatom 385 161 5 0 0 0 - - -;
#X obj 306 184 pack f f;
#X obj 296 70 * 80;
#X obj 350 72 * 5.7;
#X obj 190 288 d-biquad~;
#X obj 88 289 d-biquad~;
#X obj 350 97 + 1.5;
#X obj 295 93 + 40;
#X obj 40 40;
#X connect 0 0 15 1;
#X connect 0 0 16 1;
#X connect 1 0 0 0;
#X connect 2 0 1 0;
#X connect 3 0 16 0;
#X connect 4 0 15 0;
#X connect 7 0 13 0;
#X connect 7 1 14 0;
#X connect 8 0 10 0;
#X connect 8 0 12 0;
#X connect 9 0 11 0;
#X connect 9 0 12 1;
#X connect 12 0 0 0;
#X connect 13 0 18 0;
#X connect 14 0 17 0;
#X connect 15 0 6 0;
#X connect 16 0 5 0;
#X connect 17 0 9 0;
#X connect 18 0 8 0;
#X restore 129 498 pd filter;
#X obj 38 425 d-pan~ 0.25;
#X obj 137 418 d-pan~ 0.51;
#X obj 230 409 d-pan~ 0.8;
#X obj 200 251 + 44;
#X obj 384 269 soundinput;
#X obj 330 395 *~ 0.2;
#X obj 425 304 env~;
#X obj 425 328 clip 0 100;
#X obj 133 253 + 20;
#X obj 130 190 * 24;
#X obj 425 363 dbtorms;
#X floatatom 523 351 5 0 0 0 - - -;
#X obj 158 381 *~ 3;
#X obj 123 382 *~ 2;
#X floatatom 497 451 5 0 0 0 - - -;
#X obj 166 470 *~ 0.55;
#X obj 118 474 *~ 0.55;
#X obj 132 106 d-alpf;
#X obj 62 106 d-alpf;
#X obj 392 52 accelerate;
#X obj 377 123 touch;
#X obj 406 441 d-lin-to-exp;
#X obj 260 509 clip 0 1;
#X obj 102 587 d-anaclip~;
#X obj 192 587 d-anaclip~;
#X obj 274 476 * 0.7;
#X floatatom 407 487 5 0 0 0 - - -;
#X floatatom 327 515 5 0 0 0 - - -;
#X obj 425 399 d-energypump 0.992;
#X obj 189 554 *~ 2;
#X obj 105 560 *~ 2;
#X connect 0 0 1 0;
#X connect 1 0 50 0;
#X connect 1 1 49 0;
#X connect 1 2 20 0;
#X connect 2 0 3 0;
#X connect 3 0 4 0;
#X connect 4 0 23 0;
#X connect 5 0 6 0;
#X connect 6 0 7 0;
#X connect 7 0 41 0;
#X connect 8 0 9 0;
#X connect 9 0 10 0;
#X connect 10 0 22 0;
#X connect 11 0 12 0;
#X connect 12 0 21 0;
#X connect 12 0 25 0;
#X connect 13 0 14 0;
#X connect 14 0 18 0;
#X connect 14 0 27 0;
#X connect 15 0 16 0;
#X connect 16 0 17 0;
#X connect 16 0 28 0;
#X connect 17 0 34 0;
#X connect 18 0 45 0;
#X connect 20 0 8 0;
#X connect 21 0 32 0;
#X connect 22 0 35 0;
#X connect 23 0 24 0;
#X connect 24 0 11 0;
#X connect 25 0 26 0;
#X connect 26 0 32 0;
#X connect 27 0 44 0;
#X connect 28 0 29 0;
#X connect 29 0 34 0;
#X connect 30 0 62 0;
#X connect 30 1 61 0;
#X connect 31 0 30 0;
#X connect 31 1 30 1;
#X connect 32 0 48 0;
#X connect 32 1 47 0;
#X connect 33 0 48 0;
#X connect 33 1 47 0;
#X connect 34 0 48 0;
#X connect 34 1 47 0;
#X connect 35 0 15 0;
#X connect 36 0 37 0;
#X connect 36 0 38 0;
#X connect 36 1 38 0;
#X connect 36 1 37 0;
#X connect 37 0 30 0;
#X connect 37 0 30 1;
#X connect 38 0 39 0;
#X connect 39 0 42 0;
#X connect 40 0 13 0;
#X connect 41 0 40 0;
#X connect 42 0 43 0;
#X connect 42 0 60 0;
#X connect 44 0 33 0;
#X connect 45 0 33 0;
#X connect 47 0 31 1;
#X connect 48 0 31 0;
#X connect 49 0 5 0;
#X connect 50 0 2 0;
#X connect 53 0 57 0;
#X connect 53 0 58 0;
#X connect 54 0 30 2;
#X connect 55 0 19 0;
#X connect 56 0 19 1;
#X connect 57 0 54 0;
#X connect 57 0 59 0;
#X connect 60 0 46 0;
#X connect 60 0 53 0;
#X connect 61 0 56 0;
#X connect 62 0 55 0;
