#N canvas 0 22 1200 693 12;
#X obj 475 201 route 1 2 3 4 5 6 7 8;
#X obj 265 261 unpack;
#X floatatom 266 287 5 0 0 0 - - -;
#X floatatom 309 288 5 0 0 0 - - -;
#X floatatom 358 287 5 0 0 0 - - -;
#X floatatom 159 273 5 0 0 0 - - -;
#X floatatom 216 271 5 0 0 0 - - -;
#X floatatom 137 432 5 0 0 0 - - -;
#X obj 223 233 fiddle~ 1024 1 8 8;
#X obj 72 511 +~;
#X msg 300 15 amp-range 40 50;
#X msg 302 44 vibrato 50 0.5;
#X msg 304 102 npartial 8;
#X msg 303 74 reattack 500 10;
#X obj 45 205 s~ sound;
#X obj 747 72 s q;
#X obj 317 404 s 1-freq;
#X obj 395 405 s 2-freq;
#X obj 474 406 s 3-freq;
#X obj 552 407 s 4-freq;
#X obj 631 410 s 5-freq;
#X obj 709 411 s 6-freq;
#X obj 788 412 s 7-freq;
#X obj 866 413 s 8-freq;
#X obj 34 252 catch~ sum;
#X obj 334 303 unpack;
#X obj 378 351 s 1-vol;
#X obj 396 303 unpack;
#X obj 453 303 unpack;
#X obj 515 303 unpack;
#X obj 578 304 unpack;
#X obj 640 304 unpack;
#X obj 697 304 unpack;
#X obj 759 304 unpack;
#X obj 440 351 s 2-vol;
#X obj 497 351 s 3-vol;
#X obj 559 351 s 4-vol;
#X obj 622 352 s 5-vol;
#X obj 684 352 s 6-vol;
#X obj 741 352 s 7-vol;
#X obj 803 352 s 8-vol;
#X obj 183 433 r~ sound;
#X obj 897 57 pack 0 0;
#X obj 898 31 t b;
#X floatatom 895 9 5 0 0 0 - - -;
#X floatatom 966 11 5 0 0 0 - - -;
#X floatatom 93 353 5 0 0 0 - - -;
#X obj 133 213 env~;
#X floatatom 133 241 5 0 0 0 - - -;
#X obj 897 82 s 1-hilbert;
#X floatatom 321 339 5 0 0 0 - - -;
#X obj 32 327 hip~ 50;
#X obj 33 302 hip~ 50;
#X obj 34 276 hip~ 10;
#X obj 244 378 moses 55;
#X obj 317 377 moses 110;
#X obj 395 378 moses 220;
#X obj 474 378 moses 440;
#X obj 553 379 moses 800;
#X obj 632 379 moses 1760;
#X obj 718 379 moses 3520;
#X obj 805 378 moses 7540;
#N canvas 132 22 958 610 reverb 0;
#X obj 13 19 inlet~;
#X obj 277 215 +~;
#X obj 319 215 +~;
#X obj 67 276 outlet~;
#X obj 137 276 outlet~;
#X obj 238 334 +~;
#X obj 347 335 +~;
#X obj 280 334 -~;
#X obj 387 334 -~;
#X obj 237 390 +~;
#X obj 281 391 +~;
#X obj 325 392 -~;
#X obj 364 392 -~;
#X obj 324 474 *~ 0;
#X obj 282 473 *~ 0;
#X obj 237 472 *~ 0;
#X obj 365 475 *~ 0;
#X obj 632 365 inlet;
#X obj 632 437 / 200;
#X obj 632 389 min 100;
#X obj 632 412 max 0;
#X obj 238 583 delwrite~ loop-del1 60;
#X obj 283 561 delwrite~ loop-del2 71.9345;
#X obj 364 515 delwrite~ loop-del4 95.945;
#X obj 298 154 delread~ loop-del1 60;
#X obj 340 179 delread~ loop-del2 71.9345;
#X obj 408 233 delread~ loop-del4 95.945;
#X obj 386 208 delread~ loop-del3 86.7545;
#X obj 325 538 delwrite~ loop-del3 86.7545;
#X text 286 42 "early echo" generators \, which also increase echo
density. Open one to see what they do.;
#X text 300 115 Get the outputs of the recirculating delays. Add the
inputs to two of them.;
#X text 420 313 Do a power-conserving mix of them in pairs. First combine
(1 \, 2) and (3 \, 4)...;
#X text 402 385 ...then (1 \, 3) and (2 \, 4);
#X text 446 469 The two mixing stages have a combined gain of 2 \,
so the recirculation gain is limited to 0.5.;
#X text 586 542 Put the signals back into the;
#X text 584 557 recirculating delays.;
#X text 29 296 Tap outputs from here.;
#X text 708 381 0 to 100 to control reverb;
#X text 719 396 time.;
#X text 691 364 feedback gain on a scale of;
#X obj 13 43 rev echo-del1 5.43216;
#X obj 13 91 rev echo-del3 13.4367;
#X obj 12 115 rev echo-del4 21.5463;
#X obj 13 139 rev echo-del5 34.3876;
#X obj 12 164 rev echo-del6 55.5437;
#X obj 13 67 rev echo-del2 8.45346;
#X connect 0 0 40 0;
#X connect 1 0 3 0;
#X connect 1 0 5 0;
#X connect 1 0 7 0;
#X connect 2 0 4 0;
#X connect 2 0 5 1;
#X connect 2 0 7 1;
#X connect 5 0 9 0;
#X connect 5 0 11 0;
#X connect 6 0 11 1;
#X connect 6 0 9 1;
#X connect 7 0 10 0;
#X connect 7 0 12 0;
#X connect 8 0 10 1;
#X connect 8 0 12 1;
#X connect 9 0 15 0;
#X connect 10 0 14 0;
#X connect 11 0 13 0;
#X connect 12 0 16 0;
#X connect 13 0 28 0;
#X connect 14 0 22 0;
#X connect 15 0 21 0;
#X connect 16 0 23 0;
#X connect 17 0 19 0;
#X connect 18 0 16 1;
#X connect 18 0 15 1;
#X connect 18 0 14 1;
#X connect 18 0 13 1;
#X connect 19 0 20 0;
#X connect 20 0 18 0;
#X connect 24 0 1 1;
#X connect 25 0 2 1;
#X connect 26 0 6 1;
#X connect 26 0 8 1;
#X connect 27 0 6 0;
#X connect 27 0 8 0;
#X connect 40 0 45 0;
#X connect 40 1 45 1;
#X connect 41 0 42 0;
#X connect 41 1 42 1;
#X connect 42 0 43 0;
#X connect 42 1 43 1;
#X connect 43 0 44 0;
#X connect 43 1 44 1;
#X connect 44 0 1 0;
#X connect 44 1 2 0;
#X connect 45 0 41 0;
#X connect 45 1 41 1;
#X restore 25 423 pd reverb;
#X floatatom 121 303 5 0 0 0 - - -;
#X obj 95 450 rjhilli 1;
#X obj 804 328 * 200;
#X obj 876 -14 hsl 127 15 0.001 21 0 0 empty empty brainsyncfreq -2
-8 0 20 -258113 -1 -1 0 1;
#X obj 1055 -15 hsl 127 15 0.001 0.8 0 0 empty empty brainsyncpan -2
-8 0 20 -257985 -1 -1 0 1;
#X obj 490 104 osc~;
#X floatatom 490 31 5 0 0 0 - - -;
#X obj 318 441 rjvcf 1;
#X obj 491 80 line~;
#X msg 490 51 \$1 150;
#X obj 441 327 * 80;
#X obj 498 327 * 90;
#X obj 560 327 * 100;
#X obj 623 328 * 120;
#X obj 686 328 * 140;
#X obj 741 328 * 160;
#X obj 554 27 t b;
#X obj 575 93 line~;
#X obj 491 133 *~;
#X obj 727 485 r~ 1-son;
#X obj 727 510 r~ 6-son;
#X obj 727 534 r~ 7-son;
#X obj 727 559 r~ 8-son;
#X floatatom 770 588 5 0 0 0 - - -;
#X floatatom 747 206 5 0 0 0 - - -;
#X msg 747 48 249;
#X obj 747 23 loadbang;
#X obj 46 181 *~ 2.05;
#X obj 869 108 * 0.5;
#X obj 384 442 rjvcf 2;
#X obj 450 443 rjvcf 3;
#X obj 516 444 rjvcf 4;
#X obj 584 442 rjvcf 5;
#X obj 649 443 rjvcf 6;
#X obj 716 444 rjvcf 7;
#X obj 782 445 rjvcf 8;
#X obj 489 158 *~ 0.05;
#X obj 814 153 * 0.25;
#X msg 863 44 700;
#X obj 724 -14 hsl 127 15 40 5000 0 0 empty empty playspeed -2 -8 0
20 -4032 -1 -1 0 1;
#X obj 813 176 line 10;
#X obj 868 131 line 20;
#X obj 32 351 *~ 4;
#X obj 53 461 *~ 5;
#X msg 192 388 62;
#X obj 379 327 * 120;
#X msg 790 67 1.834 0.8;
#X floatatom 135 170 5 0 0 0 - - -;
#X obj 134 148 - 60;
#X obj 134 91 env~;
#X obj 82 90 t b f;
#X obj 180 148 line~ 10;
#X floatatom 137 118 5 0 0 0 - - -;
#X obj 680 179 *~ 1.5;
#X obj 1036 50 accelerate;
#X obj 18 485 *~ 0.6;
#X obj 553 51 del 540;
#X obj 180 28 moses 17;
#X msg 181 56 0;
#X text 1110 166 then you get:;
#X obj 1021 79 r accelerate;
#X obj 1021 122 spigot;
#X obj 1060 100 tgl 15 0 empty empty empty 17 7 0 10 -262144 -1 -1
0 1;
#X obj 912 156 route magnitude;
#X obj 1025 317 hsl 128 15 0 2 0 0 empty empty empty -2 -8 0 10 -262144
-1 -1 0 1;
#X obj 1024 364 hsl 128 15 -1.57 1.57 0 0 empty empty empty -2 -8 0
10 -262144 -1 -1 0 1;
#X obj 1021 347 route pitch;
#X obj 1025 407 hsl 128 15 -1.57 1.57 0 0 empty empty empty -2 -8 0
10 -262144 -1 -1 0 1;
#X obj 1022 390 route roll;
#X obj 1024 451 hsl 128 15 -1 1 0 0 empty empty empty -2 -8 0 10 -262144
-1 -1 0 1;
#X obj 1023 498 hsl 128 15 -1 1 0 0 empty empty empty -2 -8 0 10 -262144
-1 -1 0 1;
#X obj 1024 541 hsl 128 15 -1 1 0 0 empty empty empty -2 -8 0 10 -262144
-1 -1 0 1;
#X obj 1021 434 route x;
#X obj 1020 481 route y;
#X obj 1021 524 route z;
#X text 1092 103 <- turn on;
#X text 1174 298 - magnitude -;
#X text 1173 388 - roll -;
#X text 1174 430 - x -;
#X text 1173 480 - y -;
#X text 1173 522 - z -;
#X text 1174 346 - pitch -;
#X floatatom 1097 475 5 0 0 0 - - -;
#X obj 991 184 moses 1.2;
#X msg 1071 276 0;
#X floatatom 1107 227 5 0 0 0 - - -;
#X msg 907 215 bang;
#X msg 1059 216 bang;
#X obj 924 239 timer;
#X floatatom 964 424 5 0 0 0 - - -;
#X obj 904 265 f;
#X msg 977 212 bang;
#X floatatom 961 262 5 0 0 0 - - -;
#X obj 912 184 moses 0.7;
#X obj 905 291 moses 100;
#X obj 902 384 moses;
#X obj 948 384 moses;
#X obj 914 339 t f f f;
#X obj 968 362 + 30;
#X obj 727 624 *~ 3;
#X obj 495 -20 metro;
#X obj 493 -45 tgl 15 0 empty empty empty 17 7 0 10 -262144 -1 -1 0
1;
#X msg 631 78 0 160;
#X msg 630 53 1 5;
#X obj 452 14 f;
#X obj 28 385 rjdel 1 5000 0.7;
#X obj 823 537 rjdel 4 5000 0.9;
#X obj 680 153 rjdel 2 5000 0.74;
#X obj 634 590 rjdel 3 5000 0.9;
#X obj 932 445 / 238;
#X msg 953 508 21;
#X obj 953 484 t b f;
#X obj 974 535 -;
#X floatatom 975 579 5 0 0 0 - - -;
#X obj 103 511 *~ 0.4;
#X obj 77 -38 loadbang;
#X msg 78 -8 \; pd dsp 1 \;;
#X obj 1087 22 loadbang;
#X obj 49 609 soundoutput;
#X obj 289 150 soundinput;
#X obj 110 482 *~ 0;
#X msg 83 118 60;
#X obj 291 190 *~ 1;
#X obj 40 562 *~ 0.5;
#X obj 103 565 *~ 0.5;
#X connect 0 0 25 0;
#X connect 0 1 27 0;
#X connect 0 2 28 0;
#X connect 0 3 29 0;
#X connect 0 4 30 0;
#X connect 0 5 31 0;
#X connect 0 6 32 0;
#X connect 0 7 33 0;
#X connect 1 0 2 0;
#X connect 1 1 3 0;
#X connect 7 0 106 1;
#X connect 8 0 5 0;
#X connect 8 1 6 0;
#X connect 8 2 1 0;
#X connect 8 3 4 0;
#X connect 8 4 0 0;
#X connect 9 0 186 0;
#X connect 9 0 187 0;
#X connect 10 0 8 0;
#X connect 11 0 8 0;
#X connect 12 0 8 0;
#X connect 13 0 8 0;
#X connect 24 0 53 0;
#X connect 25 0 50 0;
#X connect 25 0 54 0;
#X connect 25 1 108 0;
#X connect 27 0 55 0;
#X connect 27 1 73 0;
#X connect 28 0 56 0;
#X connect 28 1 74 0;
#X connect 29 0 57 0;
#X connect 29 1 75 0;
#X connect 30 0 58 0;
#X connect 30 1 76 0;
#X connect 31 0 59 0;
#X connect 31 1 77 0;
#X connect 32 0 60 0;
#X connect 32 1 78 0;
#X connect 33 0 61 0;
#X connect 33 1 65 0;
#X connect 41 0 183 0;
#X connect 42 0 49 0;
#X connect 43 0 42 0;
#X connect 45 0 43 0;
#X connect 46 0 105 1;
#X connect 47 0 48 0;
#X connect 51 0 105 0;
#X connect 52 0 51 0;
#X connect 53 0 52 0;
#X connect 54 1 55 0;
#X connect 55 0 16 0;
#X connect 55 1 56 0;
#X connect 56 0 17 0;
#X connect 56 1 57 0;
#X connect 57 0 18 0;
#X connect 57 1 58 0;
#X connect 58 0 19 0;
#X connect 58 1 59 0;
#X connect 59 0 20 0;
#X connect 59 1 60 0;
#X connect 60 0 21 0;
#X connect 60 1 61 0;
#X connect 61 0 22 0;
#X connect 61 1 23 0;
#X connect 62 0 118 0;
#X connect 62 1 64 0;
#X connect 63 0 62 1;
#X connect 64 0 177 0;
#X connect 65 0 40 0;
#X connect 66 0 42 0;
#X connect 66 0 44 0;
#X connect 67 0 45 0;
#X connect 67 0 42 1;
#X connect 68 0 81 0;
#X connect 69 0 72 0;
#X connect 69 0 79 0;
#X connect 71 0 68 0;
#X connect 72 0 71 0;
#X connect 73 0 34 0;
#X connect 74 0 35 0;
#X connect 75 0 36 0;
#X connect 76 0 37 0;
#X connect 77 0 38 0;
#X connect 78 0 39 0;
#X connect 79 0 166 0;
#X connect 79 0 119 0;
#X connect 80 0 81 1;
#X connect 81 0 99 0;
#X connect 82 0 169 0;
#X connect 83 0 171 0;
#X connect 84 0 171 0;
#X connect 85 0 169 0;
#X connect 85 0 171 0;
#X connect 86 0 162 1;
#X connect 87 0 116 1;
#X connect 88 0 15 0;
#X connect 89 0 88 0;
#X connect 89 0 101 0;
#X connect 89 0 107 0;
#X connect 89 0 109 0;
#X connect 90 0 14 0;
#X connect 91 0 104 0;
#X connect 99 0 62 0;
#X connect 99 0 170 0;
#X connect 100 0 103 0;
#X connect 101 0 91 0;
#X connect 101 0 100 0;
#X connect 102 0 91 0;
#X connect 102 0 100 0;
#X connect 102 0 163 1;
#X connect 102 0 168 1;
#X connect 103 0 171 1;
#X connect 104 0 169 1;
#X connect 104 0 170 1;
#X connect 105 0 106 0;
#X connect 105 0 168 0;
#X connect 106 0 9 0;
#X connect 107 0 62 1;
#X connect 108 0 26 0;
#X connect 109 0 49 0;
#X connect 111 0 110 0;
#X connect 111 0 114 0;
#X connect 112 0 115 0;
#X connect 112 0 120 0;
#X connect 113 0 184 0;
#X connect 113 1 111 1;
#X connect 116 0 9 0;
#X connect 118 0 186 0;
#X connect 119 0 165 0;
#X connect 120 0 121 0;
#X connect 120 1 113 0;
#X connect 121 0 114 0;
#X connect 123 0 124 0;
#X connect 124 0 126 0;
#X connect 124 0 129 0;
#X connect 124 0 131 0;
#X connect 124 0 135 0;
#X connect 124 0 136 0;
#X connect 124 0 137 0;
#X connect 125 0 124 1;
#X connect 126 0 127 0;
#X connect 126 0 148 0;
#X connect 126 0 156 0;
#X connect 129 0 128 0;
#X connect 131 0 130 0;
#X connect 132 0 145 0;
#X connect 135 0 132 0;
#X connect 136 0 133 0;
#X connect 137 0 134 0;
#X connect 146 0 154 0;
#X connect 146 1 150 0;
#X connect 149 0 151 0;
#X connect 149 0 153 0;
#X connect 150 0 151 0;
#X connect 150 0 153 0;
#X connect 151 0 153 1;
#X connect 151 0 155 0;
#X connect 153 0 157 0;
#X connect 154 0 151 1;
#X connect 156 0 149 0;
#X connect 156 1 146 0;
#X connect 156 1 154 0;
#X connect 157 1 160 0;
#X connect 158 1 159 0;
#X connect 159 0 152 0;
#X connect 159 0 102 0;
#X connect 159 0 172 0;
#X connect 160 0 158 0;
#X connect 160 1 158 1;
#X connect 160 2 161 0;
#X connect 161 0 159 1;
#X connect 162 0 9 0;
#X connect 162 0 168 0;
#X connect 163 0 167 0;
#X connect 164 0 163 0;
#X connect 165 0 80 0;
#X connect 166 0 80 0;
#X connect 167 0 69 0;
#X connect 168 0 62 0;
#X connect 169 0 162 0;
#X connect 170 0 116 0;
#X connect 171 0 162 0;
#X connect 172 0 174 0;
#X connect 173 0 175 0;
#X connect 174 0 173 0;
#X connect 174 1 175 1;
#X connect 175 0 176 0;
#X connect 175 0 66 0;
#X connect 177 0 186 0;
#X connect 177 0 187 0;
#X connect 178 0 163 0;
#X connect 178 0 179 0;
#X connect 180 0 125 0;
#X connect 182 0 112 0;
#X connect 182 0 185 0;
#X connect 183 0 9 1;
#X connect 184 0 111 0;
#X connect 185 0 8 0;
#X connect 185 0 47 0;
#X connect 185 0 90 0;
#X connect 186 0 181 0;
#X connect 187 0 181 1;
