#N canvas 0 0 450 300 12;
#X obj 19 152 +~;
#X obj 19 53 inlet~;
#X obj 78 53 inlet;
#X obj 19 206 outlet~;
#X obj 138 58 inlet;
#X obj 140 81 / 100;
#X obj 40 128 *~ \$3;
#X obj 40 104 delread~ \$1-rjdel \$2;
#X obj 19 176 delwrite~ \$1-rjdel \$2;
#X connect 0 0 3 0;
#X connect 0 0 8 0;
#X connect 1 0 0 0;
#X connect 2 0 7 0;
#X connect 4 0 5 0;
#X connect 5 0 6 1;
#X connect 6 0 0 1;
#X connect 7 0 6 0;
