#N canvas 746 9 397 692 12;
#X obj 177 125 cos~;
#X obj 220 103 +~ -0.25;
#X obj 220 126 cos~;
#X obj 12 145 *~;
#X obj 78 145 *~;
#X obj 39 198 -~;
#X obj 177 79 phasor~;
#X obj 12 107 hilbert~;
#X obj 13 273 outlet~;
#X obj 177 -2 r \$1-hilbert;
#X obj 177 51 line~ 250;
#X obj 12 79 inlet~;
#X obj 44 230 *~;
#X obj 180 25 unpack;
#X connect 0 0 3 1;
#X connect 1 0 2 0;
#X connect 2 0 4 1;
#X connect 3 0 5 0;
#X connect 3 0 8 0;
#X connect 4 0 5 1;
#X connect 5 0 12 0;
#X connect 6 0 1 0;
#X connect 6 0 0 0;
#X connect 7 0 3 0;
#X connect 7 1 4 0;
#X connect 9 0 13 0;
#X connect 10 0 6 0;
#X connect 11 0 7 0;
#X connect 12 0 8 0;
#X connect 13 0 10 0;
#X connect 13 1 12 1;
