#N canvas 71 55 549 403 10;
#N canvas 351 186 528 200 MODULE_INFO 0;
#X text 64 79 authors: Reality Jockey;
#X text 65 140 decorator: s1m1-s2m1;
#X text 65 160 tags:;
#X text 66 57 name: Ring Modulator;
#X text 65 99 description: The ringmodulator twists and bends your
voice. Frequency affects the rate of change \, Warp determines the
intensity.;
#X restore 22 21 pd MODULE_INFO;
#X obj 22 87 inlet~ MIC;
#X obj 245 260 outlet;
#X obj 22 260 outlet~;
#X obj 82 260 outlet~;
#X obj 245 105 inlet;
#N canvas 553 146 552 472 \$0-PARAMETERS 0;
#X obj 110 248 outlet;
#X obj -48 45 inlet;
#X obj -48 77 route tick bpm rootnote;
#X obj 106 132 cnv 15 187 100 empty empty RJC_Parameters 10 12 1 14
-162280 -262144 0;
#X obj 106 106 cnv 15 187 20 empty empty Ring_Modulator 38 11 1 14
-261234 -33289 0;
#X obj 110 161 rjc_parameter_floatrange \$0 Frequency 0.7;
#X obj 110 196 rjc_parameter_floatrange \$0 Warp 0.5;
#X connect 1 0 2 0;
#X connect 2 3 5 0;
#X connect 5 0 6 0;
#X connect 6 0 0 0;
#X coords 0 -1 1 1 200 138 2 100 100;
#X restore 245 121 pd \$0-PARAMETERS;
#N canvas 646 144 466 325 \$0-DSP 1;
#X obj 30 52 inlet~;
#X obj 30 288 outlet~;
#X obj 94 287 outlet~;
#X obj 30 176 *~;
#X obj 220 18 r \$0-Frequency;
#X obj 48 146 osc~ 440;
#X obj 30 259 c_xfade;
#X obj 220 60 mtof;
#X obj 220 39 m_scale 0 1 1 100;
#X obj 53 229 *~;
#X obj 71 199 osc~ 440;
#X obj 164 143 m_scale 0 1 1 50;
#X obj 192 189 r \$0-Warp;
#X connect 0 0 3 0;
#X connect 3 0 6 0;
#X connect 3 0 9 0;
#X connect 4 0 8 0;
#X connect 4 0 11 0;
#X connect 5 0 3 1;
#X connect 6 0 2 0;
#X connect 6 0 1 0;
#X connect 7 0 5 0;
#X connect 8 0 7 0;
#X connect 9 0 6 1;
#X connect 10 0 9 1;
#X connect 11 0 10 0;
#X connect 12 0 6 2;
#X restore 22 206 pd \$0-DSP;
#N canvas 220 88 370 279 \$0-INPUT 0;
#X obj 66 47 inlet~;
#X obj 66 203 outlet~;
#X obj 66 132 *~ 4;
#X connect 0 0 2 0;
#X connect 2 0 1 0;
#X restore 22 139 pd \$0-INPUT;
#X connect 1 0 8 0;
#X connect 5 0 6 0;
#X connect 6 0 2 0;
#X connect 7 0 3 0;
#X connect 7 1 4 0;
#X connect 8 0 7 0;
