#N canvas 123 203 921 528 10;
#X declare -path .;
#X declare -path rj;
#N canvas 0 0 450 300 init 0;
#X obj 63 59 declare -path .;
#X obj 62 83 declare -path rj;
#X restore 54 31 pd init;
#X obj 123 392 soundoutput;
#X obj 122 361 catch~ L;
#X obj 225 361 catch~ R;
#X obj 121 85 g_channelstrip one;
#X obj 122 334 throw~ L;
#X obj 155 313 throw~ R;
#N canvas 0 0 747 350 store 0;
#X obj 155 98 inlet;
#X obj 88 128 outlet;
#X obj 208 97 loadbang;
#X msg 155 128 aux2name dubdel \, aux2 0.177215 \, pan 0.472441 \,
level 91 \, mute 0 \,;
#X connect 0 0 3 0;
#X connect 2 0 3 0;
#X connect 3 0 1 0;
#X restore 264 61 pd store;
#N canvas 0 0 806 672 dubdelay 0;
#X obj 137 105 e_dubdel somedel;
#X obj 136 45 inlet~;
#X msg 246 69 dry 0.2 \, bq 2 \, basedur 500 \, bpitch 83 \, feedback
0.99 \, dell 2 \, delr 3 \,;
#X obj 246 50 loadbang;
#X obj 191 146 throw~ R;
#X obj 138 180 throw~ L;
#X connect 0 0 5 0;
#X connect 0 1 4 0;
#X connect 1 0 0 0;
#X connect 1 0 0 1;
#X connect 2 0 0 2;
#X connect 3 0 2 0;
#X restore 282 234 pd dubdelay;
#X obj 283 209 catch~ dubdel;
#N canvas 0 0 902 541 make 0;
#X obj 176 403 s pd-images;
#X obj 165 155 until;
#X obj 163 110 max;
#X obj 168 181 f;
#X obj 201 181 + 1;
#X obj 170 227 t a a;
#X obj 202 251 * 30;
#X obj 168 294 pack 0 0;
#X msg 176 342 obj 30 \$2 smiley \$1;
#X msg 161 53 256;
#X msg 329 340 clear;
#X msg 199 55 64;
#X msg 237 59 128;
#X obj 165 130 t f b;
#X obj 444 155 until;
#X obj 442 110 max;
#X obj 480 181 + 1;
#X obj 449 227 t a a;
#X obj 481 251 * 30;
#X obj 447 294 pack 0 0;
#X msg 650 342 clear;
#X obj 444 130 t f b;
#X msg 440 53 16;
#X obj 455 403 s pd-synths;
#X msg 455 342 obj 30 \$2 squaresynth~ \$1;
#X obj 447 181 f 1;
#X connect 1 0 3 0;
#X connect 2 0 13 0;
#X connect 3 0 4 0;
#X connect 3 0 5 0;
#X connect 4 0 3 1;
#X connect 5 0 7 0;
#X connect 5 1 6 0;
#X connect 6 0 7 1;
#X connect 7 0 8 0;
#X connect 8 0 0 0;
#X connect 9 0 2 0;
#X connect 10 0 0 0;
#X connect 11 0 2 0;
#X connect 12 0 2 0;
#X connect 13 0 1 0;
#X connect 13 1 10 0;
#X connect 14 0 25 0;
#X connect 15 0 21 0;
#X connect 16 0 25 1;
#X connect 17 0 19 0;
#X connect 17 1 18 0;
#X connect 18 0 19 1;
#X connect 19 0 24 0;
#X connect 20 0 23 0;
#X connect 21 0 14 0;
#X connect 21 1 20 0;
#X connect 22 0 15 0;
#X connect 24 0 23 0;
#X connect 25 0 16 0;
#X connect 25 0 17 0;
#X restore 474 97 pd make smiles;
#N canvas 0 0 1141 738 inputs 0;
#X obj 81 40 r #touch;
#X obj 81 99 list split 1;
#X obj 121 139 unpack 0 0;
#X floatatom 292 186 5 0 0 1 index - -;
#X obj 121 160 m_touch2grid 16x16 16 16;
#X obj 81 61 route down xy;
#X obj 286 272 tabread pat;
#X obj 286 244 t a a;
#X obj 286 350 tabwrite pat;
#X obj 286 304 select 0 1;
#X msg 286 328 1;
#X msg 319 328 0;
#X obj 286 451 s SMILEYS;
#X obj 286 427 list prepend;
#X floatatom 236 235 5 0 0 0 - - -;
#X obj 740 221 > 2.6;
#X obj 740 283 select 1;
#X msg 740 306 const 0;
#N canvas 79 298 269 329 magnitude 0;
#X obj 14 17 r #accelerate;
#X obj 14 48 unpack f f f;
#X obj 14 108 *;
#X obj 76 108 *;
#X obj 135 108 *;
#X obj 14 138 +;
#X obj 14 168 +;
#X obj 14 198 pow 0.5;
#X msg 14 78 \$1 \$1;
#X msg 76 78 \$1 \$1;
#X msg 135 78 \$1 \$1;
#X obj 14 225 outlet;
#X connect 0 0 1 0;
#X connect 1 0 8 0;
#X connect 1 1 9 0;
#X connect 1 2 10 0;
#X connect 2 0 5 0;
#X connect 3 0 5 1;
#X connect 4 0 6 1;
#X connect 5 0 6 0;
#X connect 6 0 7 0;
#X connect 7 0 11 0;
#X connect 8 0 2 0;
#X connect 9 0 3 0;
#X connect 10 0 4 0;
#X restore 740 197 pd magnitude;
#X obj 740 330 s pat;
#X obj 697 351 s ALLOFF;
#X msg 814 308 const 1;
#X msg 690 227 1;
#X obj 286 219 change;
#X obj 690 172 r \$0-SHAKE;
#X obj 740 245 change -1;
#X connect 0 0 5 0;
#X connect 1 1 2 0;
#X connect 2 0 4 0;
#X connect 2 1 4 1;
#X connect 4 2 3 0;
#X connect 4 2 23 0;
#X connect 5 0 1 0;
#X connect 5 1 1 0;
#X connect 6 0 9 0;
#X connect 7 0 6 0;
#X connect 7 1 8 1;
#X connect 7 1 13 1;
#X connect 9 0 10 0;
#X connect 9 1 11 0;
#X connect 10 0 8 0;
#X connect 10 0 13 0;
#X connect 11 0 8 0;
#X connect 11 0 13 0;
#X connect 13 0 12 0;
#X connect 14 0 7 0;
#X connect 15 0 25 0;
#X connect 16 0 17 0;
#X connect 16 0 20 0;
#X connect 17 0 19 0;
#X connect 18 0 15 0;
#X connect 21 0 19 0;
#X connect 22 0 16 0;
#X connect 23 0 7 0;
#X connect 24 0 22 0;
#X connect 25 0 16 0;
#X restore 474 76 pd inputs;
#N canvas 369 269 805 574 mktanh 0;
#N canvas 0 0 450 300 tanh 0;
#X obj 105 29 inlet;
#X obj 105 119 t a a;
#X obj 105 73 * 2;
#X obj 105 94 exp;
#X obj 105 172 / 1;
#X obj 105 199 outlet;
#X obj 105 148 - 1;
#X obj 137 148 + 1;
#X text 289 97 exp(2x) - 1;
#X text 290 125 exp(2x) + 1;
#X text 240 109 tanh = -----------;
#X obj 105 51 f;
#X connect 0 0 11 0;
#X connect 1 0 6 0;
#X connect 1 1 7 0;
#X connect 2 0 3 0;
#X connect 3 0 1 0;
#X connect 4 0 5 0;
#X connect 6 0 4 0;
#X connect 7 0 4 1;
#X connect 11 0 2 0;
#X restore 82 319 pd tanh;
#X msg 467 201 6.28319;
#X obj 82 292 * 6.28319;
#X obj 82 138 until;
#X obj 82 198 t a a;
#X obj 112 168 + 1;
#X obj 82 168 f 0;
#X msg 127 136 0;
#X obj 82 108 t f b;
#X obj 82 262 - 1;
#X obj 82 56 loadbang;
#X text 466 179 2PI;
#X msg 82 84 5000;
#X obj 82 237 / 2500;
#X obj 82 374 table tanh 5000;
#X obj 82 348 tabwrite tanh;
#X connect 0 0 15 0;
#X connect 2 0 0 0;
#X connect 3 0 6 0;
#X connect 4 0 13 0;
#X connect 4 1 15 1;
#X connect 5 0 6 1;
#X connect 6 0 5 0;
#X connect 6 0 4 0;
#X connect 7 0 6 1;
#X connect 8 0 3 0;
#X connect 8 1 7 0;
#X connect 9 0 2 0;
#X connect 10 0 12 0;
#X connect 12 0 8 0;
#X connect 13 0 9 0;
#X restore 476 144 pd mktanh;
#N canvas 0 0 683 598 filter 0;
#X obj 282 284 mtof;
#X obj 202 347 line~;
#X obj 202 326 pack 0 20;
#X obj 283 166 osc~ 0.2;
#X obj 282 209 snapshot~;
#X msg 351 149 1;
#X obj 351 125 loadbang;
#X obj 282 264 + 75;
#X obj 282 237 * 25;
#X obj 351 169 metro 50;
#X obj 141 340 inlet~;
#X obj 141 415 outlet~;
#X obj 140 378 vcf~ 7;
#X connect 0 0 2 0;
#X connect 1 0 12 1;
#X connect 2 0 1 0;
#X connect 3 0 4 0;
#X connect 4 0 8 0;
#X connect 5 0 9 0;
#X connect 6 0 5 0;
#X connect 7 0 0 0;
#X connect 8 0 7 0;
#X connect 9 0 4 0;
#X connect 10 0 12 0;
#X connect 12 0 11 0;
#X restore 122 55 pd filter;
#X obj 599 190 s \$0-SHAKE;
#X obj 599 162 bng 24 250 50 0 empty empty empty 17 7 0 10 -262144
-1 -1;
#X obj 598 113 rj_image smiley-off-big.jpg;
#X msg 598 92 move 160 160 \, visible 1;
#X obj 598 71 loadbang;
#N canvas 0 0 450 300 images 0;
#X obj 30 0 smiley 0;
#X obj 30 30 smiley 1;
#X obj 30 60 smiley 2;
#X obj 30 90 smiley 3;
#X obj 30 120 smiley 4;
#X obj 30 150 smiley 5;
#X obj 30 180 smiley 6;
#X obj 30 210 smiley 7;
#X obj 30 240 smiley 8;
#X obj 30 270 smiley 9;
#X obj 30 300 smiley 10;
#X obj 30 330 smiley 11;
#X obj 30 360 smiley 12;
#X obj 30 390 smiley 13;
#X obj 30 420 smiley 14;
#X obj 30 450 smiley 15;
#X obj 30 480 smiley 16;
#X obj 30 510 smiley 17;
#X obj 30 540 smiley 18;
#X obj 30 570 smiley 19;
#X obj 30 600 smiley 20;
#X obj 30 630 smiley 21;
#X obj 30 660 smiley 22;
#X obj 30 690 smiley 23;
#X obj 30 720 smiley 24;
#X obj 30 750 smiley 25;
#X obj 30 780 smiley 26;
#X obj 30 810 smiley 27;
#X obj 30 840 smiley 28;
#X obj 30 870 smiley 29;
#X obj 30 900 smiley 30;
#X obj 30 930 smiley 31;
#X obj 30 960 smiley 32;
#X obj 30 990 smiley 33;
#X obj 30 1020 smiley 34;
#X obj 30 1050 smiley 35;
#X obj 30 1080 smiley 36;
#X obj 30 1110 smiley 37;
#X obj 30 1140 smiley 38;
#X obj 30 1170 smiley 39;
#X obj 30 1200 smiley 40;
#X obj 30 1230 smiley 41;
#X obj 30 1260 smiley 42;
#X obj 30 1290 smiley 43;
#X obj 30 1320 smiley 44;
#X obj 30 1350 smiley 45;
#X obj 30 1380 smiley 46;
#X obj 30 1410 smiley 47;
#X obj 30 1440 smiley 48;
#X obj 30 1470 smiley 49;
#X obj 30 1500 smiley 50;
#X obj 30 1530 smiley 51;
#X obj 30 1560 smiley 52;
#X obj 30 1590 smiley 53;
#X obj 30 1620 smiley 54;
#X obj 30 1650 smiley 55;
#X obj 30 1680 smiley 56;
#X obj 30 1710 smiley 57;
#X obj 30 1740 smiley 58;
#X obj 30 1770 smiley 59;
#X obj 30 1800 smiley 60;
#X obj 30 1830 smiley 61;
#X obj 30 1860 smiley 62;
#X obj 30 1890 smiley 63;
#X obj 30 1920 smiley 64;
#X obj 30 1950 smiley 65;
#X obj 30 1980 smiley 66;
#X obj 30 2010 smiley 67;
#X obj 30 2040 smiley 68;
#X obj 30 2070 smiley 69;
#X obj 30 2100 smiley 70;
#X obj 30 2130 smiley 71;
#X obj 30 2160 smiley 72;
#X obj 30 2190 smiley 73;
#X obj 30 2220 smiley 74;
#X obj 30 2250 smiley 75;
#X obj 30 2280 smiley 76;
#X obj 30 2310 smiley 77;
#X obj 30 2340 smiley 78;
#X obj 30 2370 smiley 79;
#X obj 30 2400 smiley 80;
#X obj 30 2430 smiley 81;
#X obj 30 2460 smiley 82;
#X obj 30 2490 smiley 83;
#X obj 30 2520 smiley 84;
#X obj 30 2550 smiley 85;
#X obj 30 2580 smiley 86;
#X obj 30 2610 smiley 87;
#X obj 30 2640 smiley 88;
#X obj 30 2670 smiley 89;
#X obj 30 2700 smiley 90;
#X obj 30 2730 smiley 91;
#X obj 30 2760 smiley 92;
#X obj 30 2790 smiley 93;
#X obj 30 2820 smiley 94;
#X obj 30 2850 smiley 95;
#X obj 30 2880 smiley 96;
#X obj 30 2910 smiley 97;
#X obj 30 2940 smiley 98;
#X obj 30 2970 smiley 99;
#X obj 30 3000 smiley 100;
#X obj 30 3030 smiley 101;
#X obj 30 3060 smiley 102;
#X obj 30 3090 smiley 103;
#X obj 30 3120 smiley 104;
#X obj 30 3150 smiley 105;
#X obj 30 3180 smiley 106;
#X obj 30 3210 smiley 107;
#X obj 30 3240 smiley 108;
#X obj 30 3270 smiley 109;
#X obj 30 3300 smiley 110;
#X obj 30 3330 smiley 111;
#X obj 30 3360 smiley 112;
#X obj 30 3390 smiley 113;
#X obj 30 3420 smiley 114;
#X obj 30 3450 smiley 115;
#X obj 30 3480 smiley 116;
#X obj 30 3510 smiley 117;
#X obj 30 3540 smiley 118;
#X obj 30 3570 smiley 119;
#X obj 30 3600 smiley 120;
#X obj 30 3630 smiley 121;
#X obj 30 3660 smiley 122;
#X obj 30 3690 smiley 123;
#X obj 30 3720 smiley 124;
#X obj 30 3750 smiley 125;
#X obj 30 3780 smiley 126;
#X obj 30 3810 smiley 127;
#X obj 30 3840 smiley 128;
#X obj 30 3870 smiley 129;
#X obj 30 3900 smiley 130;
#X obj 30 3930 smiley 131;
#X obj 30 3960 smiley 132;
#X obj 30 3990 smiley 133;
#X obj 30 4020 smiley 134;
#X obj 30 4050 smiley 135;
#X obj 30 4080 smiley 136;
#X obj 30 4110 smiley 137;
#X obj 30 4140 smiley 138;
#X obj 30 4170 smiley 139;
#X obj 30 4200 smiley 140;
#X obj 30 4230 smiley 141;
#X obj 30 4260 smiley 142;
#X obj 30 4290 smiley 143;
#X obj 30 4320 smiley 144;
#X obj 30 4350 smiley 145;
#X obj 30 4380 smiley 146;
#X obj 30 4410 smiley 147;
#X obj 30 4440 smiley 148;
#X obj 30 4470 smiley 149;
#X obj 30 4500 smiley 150;
#X obj 30 4530 smiley 151;
#X obj 30 4560 smiley 152;
#X obj 30 4590 smiley 153;
#X obj 30 4620 smiley 154;
#X obj 30 4650 smiley 155;
#X obj 30 4680 smiley 156;
#X obj 30 4710 smiley 157;
#X obj 30 4740 smiley 158;
#X obj 30 4770 smiley 159;
#X obj 30 4800 smiley 160;
#X obj 30 4830 smiley 161;
#X obj 30 4860 smiley 162;
#X obj 30 4890 smiley 163;
#X obj 30 4920 smiley 164;
#X obj 30 4950 smiley 165;
#X obj 30 4980 smiley 166;
#X obj 30 5010 smiley 167;
#X obj 30 5040 smiley 168;
#X obj 30 5070 smiley 169;
#X obj 30 5100 smiley 170;
#X obj 30 5130 smiley 171;
#X obj 30 5160 smiley 172;
#X obj 30 5190 smiley 173;
#X obj 30 5220 smiley 174;
#X obj 30 5250 smiley 175;
#X obj 30 5280 smiley 176;
#X obj 30 5310 smiley 177;
#X obj 30 5340 smiley 178;
#X obj 30 5370 smiley 179;
#X obj 30 5400 smiley 180;
#X obj 30 5430 smiley 181;
#X obj 30 5460 smiley 182;
#X obj 30 5490 smiley 183;
#X obj 30 5520 smiley 184;
#X obj 30 5550 smiley 185;
#X obj 30 5580 smiley 186;
#X obj 30 5610 smiley 187;
#X obj 30 5640 smiley 188;
#X obj 30 5670 smiley 189;
#X obj 30 5700 smiley 190;
#X obj 30 5730 smiley 191;
#X obj 30 5760 smiley 192;
#X obj 30 5790 smiley 193;
#X obj 30 5820 smiley 194;
#X obj 30 5850 smiley 195;
#X obj 30 5880 smiley 196;
#X obj 30 5910 smiley 197;
#X obj 30 5940 smiley 198;
#X obj 30 5970 smiley 199;
#X obj 30 6000 smiley 200;
#X obj 30 6030 smiley 201;
#X obj 30 6060 smiley 202;
#X obj 30 6090 smiley 203;
#X obj 30 6120 smiley 204;
#X obj 30 6150 smiley 205;
#X obj 30 6180 smiley 206;
#X obj 30 6210 smiley 207;
#X obj 30 6240 smiley 208;
#X obj 30 6270 smiley 209;
#X obj 30 6300 smiley 210;
#X obj 30 6330 smiley 211;
#X obj 30 6360 smiley 212;
#X obj 30 6390 smiley 213;
#X obj 30 6420 smiley 214;
#X obj 30 6450 smiley 215;
#X obj 30 6480 smiley 216;
#X obj 30 6510 smiley 217;
#X obj 30 6540 smiley 218;
#X obj 30 6570 smiley 219;
#X obj 30 6600 smiley 220;
#X obj 30 6630 smiley 221;
#X obj 30 6660 smiley 222;
#X obj 30 6690 smiley 223;
#X obj 30 6720 smiley 224;
#X obj 30 6750 smiley 225;
#X obj 30 6780 smiley 226;
#X obj 30 6810 smiley 227;
#X obj 30 6840 smiley 228;
#X obj 30 6870 smiley 229;
#X obj 30 6900 smiley 230;
#X obj 30 6930 smiley 231;
#X obj 30 6960 smiley 232;
#X obj 30 6990 smiley 233;
#X obj 30 7020 smiley 234;
#X obj 30 7050 smiley 235;
#X obj 30 7080 smiley 236;
#X obj 30 7110 smiley 237;
#X obj 30 7140 smiley 238;
#X obj 30 7170 smiley 239;
#X obj 30 7200 smiley 240;
#X obj 30 7230 smiley 241;
#X obj 30 7260 smiley 242;
#X obj 30 7290 smiley 243;
#X obj 30 7320 smiley 244;
#X obj 30 7350 smiley 245;
#X obj 30 7380 smiley 246;
#X obj 30 7410 smiley 247;
#X obj 30 7440 smiley 248;
#X obj 30 7470 smiley 249;
#X obj 30 7500 smiley 250;
#X obj 30 7530 smiley 251;
#X obj 30 7560 smiley 252;
#X obj 30 7590 smiley 253;
#X obj 30 7620 smiley 254;
#X obj 30 7650 smiley 255;
#X restore 474 55 pd images;
#N canvas 0 0 484 514 synths 0;
#X obj 30 30 squaresynth~ 1;
#X obj 30 60 squaresynth~ 2;
#X obj 30 90 squaresynth~ 3;
#X obj 30 120 squaresynth~ 4;
#X obj 30 150 squaresynth~ 5;
#X obj 30 180 squaresynth~ 6;
#X obj 30 210 squaresynth~ 7;
#X obj 30 240 squaresynth~ 8;
#X obj 30 270 squaresynth~ 9;
#X obj 30 300 squaresynth~ 10;
#X obj 30 330 squaresynth~ 11;
#X obj 30 360 squaresynth~ 12;
#X obj 30 390 squaresynth~ 13;
#X obj 30 420 squaresynth~ 14;
#X obj 30 450 squaresynth~ 15;
#X obj 30 480 squaresynth~ 16;
#X restore 475 120 pd synths;
#X obj 122 31 catch~ SYNTHS;
#N canvas 0 0 529 317 time 0;
#X obj 268 94 r PRE-BEAT;
#X obj 268 118 select 0;
#X obj 268 215 s BASE;
#X obj 268 143 f 0;
#X obj 268 167 mod 12;
#X obj 268 192 + 48;
#X obj 298 144 + 2;
#X obj 60 78 tgl 15 0 empty empty empty 17 7 0 10 -262144 -1 -1 1 1
;
#X obj 60 36 loadbang;
#X msg 60 57 1;
#X obj 60 193 s BEAT;
#X obj 60 122 f 0;
#X obj 90 121 + 1;
#X obj 60 142 mod 16;
#X obj 60 97 metro 125;
#X obj 128 165 f 0;
#X obj 158 164 + 1;
#X obj 60 166 t f f;
#X obj 127 142 select 0;
#X obj 128 213 s PRE-BEAT;
#X floatatom 182 183 5 0 0 0 - - -;
#X obj 128 185 mod 8;
#X connect 0 0 1 0;
#X connect 1 0 3 0;
#X connect 3 0 4 0;
#X connect 4 0 5 0;
#X connect 4 0 6 0;
#X connect 5 0 2 0;
#X connect 6 0 3 1;
#X connect 7 0 14 0;
#X connect 8 0 9 0;
#X connect 9 0 7 0;
#X connect 11 0 13 0;
#X connect 12 0 11 1;
#X connect 13 0 12 0;
#X connect 13 0 17 0;
#X connect 14 0 11 0;
#X connect 15 0 21 0;
#X connect 16 0 15 1;
#X connect 17 0 10 0;
#X connect 17 1 18 0;
#X connect 18 0 15 0;
#X connect 21 0 16 0;
#X connect 21 0 19 0;
#X connect 21 0 20 0;
#X restore 474 32 pd time;
#X obj 585 32 table pat 256;
#X obj 685 215 s pat;
#X text 681 149 all on/off;
#X msg 685 190 const \$1;
#X obj 685 169 tgl 15 0 empty empty empty 17 7 0 10 -262144 -1 -1 0
1;
#X connect 2 0 1 0;
#X connect 3 0 1 1;
#X connect 4 0 5 0;
#X connect 4 1 6 0;
#X connect 4 4 7 0;
#X connect 7 0 4 1;
#X connect 9 0 8 0;
#X connect 13 0 4 0;
#X connect 15 0 14 0;
#X connect 17 0 16 0;
#X connect 18 0 17 0;
#X connect 21 0 13 0;
#X connect 26 0 24 0;
#X connect 27 0 26 0;
