#N canvas 292 210 849 511 10;
#X msg 624 250 move \$1 \$2;
#X obj 624 32 loadbang;
#X obj 624 60 f \$1;
#X floatatom 709 197 5 0 0 0 - - -;
#X obj 709 150 * 20;
#X obj 709 173 + 10;
#X text 748 177 center;
#X floatatom 635 199 5 0 0 0 - - -;
#X obj 624 152 * 20;
#X obj 624 175 + 10;
#X text 663 179 center;
#X obj 624 132 mod 16;
#X obj 709 130 div 16;
#X obj 624 100 t a a;
#X obj 624 228 pack 0 0;
#X obj 624 277 s \$0-pos;
#X obj 37 180 tabread pat;
#X obj 37 201 select 1;
#X obj 37 27 r BEAT;
#X obj 55 124 * 16;
#X obj 89 261 f \$1;
#X obj 55 84 f \$1;
#X obj 37 154 +;
#X obj 55 57 loadbang;
#X obj 89 293 mod 16;
#X obj 89 323 swap 16;
#X obj 89 351 -;
#X obj 55 104 mod 16;
#X obj 89 239 loadbang;
#X msg 214 134 visible \$1;
#X obj 148 102 r \$0-pos;
#X obj 214 28 r SMILEYS;
#X obj 214 52 route \$1;
#X obj 214 155 rj_image smiley-on.jpg;
#X obj 226 80 r ALLOFF;
#X msg 226 100 0;
#X obj 304 83 loadbang;
#X floatatom 73 147 5 0 0 0 - - -;
#X floatatom 103 383 5 0 0 0 - - -;
#X obj 37 433 send;
#X msg 89 410 symbol \$1-NOTE;
#X connect 0 0 15 0;
#X connect 1 0 2 0;
#X connect 2 0 13 0;
#X connect 4 0 5 0;
#X connect 5 0 3 0;
#X connect 5 0 14 1;
#X connect 8 0 9 0;
#X connect 9 0 7 0;
#X connect 9 0 14 0;
#X connect 11 0 8 0;
#X connect 12 0 4 0;
#X connect 13 0 11 0;
#X connect 13 1 12 0;
#X connect 14 0 0 0;
#X connect 16 0 17 0;
#X connect 17 0 39 0;
#X connect 18 0 22 0;
#X connect 19 0 22 1;
#X connect 19 0 37 0;
#X connect 20 0 24 0;
#X connect 21 0 27 0;
#X connect 22 0 16 0;
#X connect 23 0 21 0;
#X connect 24 0 25 0;
#X connect 25 0 26 0;
#X connect 25 1 26 1;
#X connect 26 0 38 0;
#X connect 26 0 40 0;
#X connect 27 0 19 0;
#X connect 28 0 20 0;
#X connect 29 0 33 0;
#X connect 30 0 33 0;
#X connect 31 0 32 0;
#X connect 32 0 29 0;
#X connect 34 0 35 0;
#X connect 35 0 29 0;
#X connect 36 0 35 0;
#X connect 40 0 39 1;
