#N canvas 363 271 857 624 10;
#X obj 82 192 mtof;
#X obj 82 455 *~;
#X obj 82 231 osc~;
#X obj 82 310 +~ 2500;
#X obj 83 286 *~ 1000;
#X obj 83 334 tabread~ tanh;
#X obj 219 403 lop~ 50;
#X msg 203 290 0 50;
#X obj 218 333 vline~;
#X msg 256 291 0.787402 8 0 \, 0.551181 30 8 \, 0 50 80;
#X obj 82 110 f \$1;
#X obj 82 84 loadbang;
#X obj 256 243 r \$1-NOTE;
#X obj 82 159 m_majorscale 56;
#X obj 152 85 r BASE;
#X obj 152 110 t b a;
#X obj 82 134 - 1;
#X obj 82 500 throw~ SYNTHS;
#X connect 0 0 2 0;
#X connect 1 0 17 0;
#X connect 2 0 4 0;
#X connect 3 0 5 0;
#X connect 4 0 3 0;
#X connect 5 0 1 0;
#X connect 6 0 1 1;
#X connect 7 0 8 0;
#X connect 8 0 6 0;
#X connect 9 0 8 0;
#X connect 10 0 16 0;
#X connect 11 0 10 0;
#X connect 12 0 9 0;
#X connect 13 0 0 0;
#X connect 14 0 15 0;
#X connect 15 0 10 0;
#X connect 15 1 13 1;
#X connect 16 0 13 0;
