#N canvas 0 0 839 459 10;
#N canvas 0 0 450 300 samples 0;
#X obj 118 158 s_fplaytable;
#X obj 138 71 inlet;
#X obj 191 73 inlet;
#X obj 237 72 inlet;
#X msg 122 134 bd-2;
#X msg 306 71 sd-2;
#X msg 350 73 hh-2;
#X obj 125 266 throw~ L;
#X obj 229 262 throw~ R;
#X obj 115 206 e_pan 0.5;
#X obj 216 158 s_fplaytable;
#X obj 316 160 s_fplaytable;
#X msg 220 134 sd-2;
#X msg 320 136 hh-2;
#X obj 213 206 e_pan 0.7;
#X obj 313 208 e_pan 0.4;
#X obj 316 184 *~ 0.6;
#X obj 217 181 *~ 0.6;
#X obj 116 182 *~ 0.6;
#X connect 0 0 18 0;
#X connect 1 0 4 0;
#X connect 2 0 12 0;
#X connect 3 0 13 0;
#X connect 4 0 0 0;
#X connect 9 0 7 0;
#X connect 9 1 8 0;
#X connect 10 0 17 0;
#X connect 11 0 16 0;
#X connect 12 0 10 0;
#X connect 13 0 11 0;
#X connect 14 0 7 0;
#X connect 14 1 8 0;
#X connect 15 0 7 0;
#X connect 15 1 8 0;
#X connect 16 0 15 0;
#X connect 17 0 14 0;
#X connect 18 0 9 0;
#X restore 387 160 pd samples;
#X obj 392 61 u_samplebank sd-2 sd-2-22.wav;
#X obj 392 40 u_samplebank bd-2 bd-2-22.wav;
#X obj 392 82 u_samplebank hh-2 hh-2-22.wav;
#X obj 388 128 route 1 2 3;
#X obj 399 299 rj_image smiley-off-big.jpg;
#X msg 399 278 move 160 160 \, visible 1;
#X obj 399 257 loadbang;
#X obj 130 347 makefilename load:%d;
#X msg 130 380 text \$1;
#X obj 130 211 loadbang;
#X symbolatom 45 392 10 0 0 0 - - -;
#X obj 130 429 rj_text abc;
#X obj 212 380 loadbang;
#X obj 130 264 b;
#X msg 212 403 move 1000 1000;
#X obj 130 236 del 1000;
#X msg 281 347 move 160 30;
#X obj 130 295 u_loadmeter;
#X connect 4 0 0 0;
#X connect 4 1 0 1;
#X connect 4 2 0 2;
#X connect 6 0 5 0;
#X connect 7 0 6 0;
#X connect 8 0 9 0;
#X connect 8 0 11 0;
#X connect 9 0 12 0;
#X connect 13 0 15 0;
#X connect 14 0 17 0;
#X connect 14 0 18 0;
#X connect 15 0 12 0;
#X connect 16 0 14 0;
#X connect 17 0 12 0;
#X connect 18 0 8 0;
