#N canvas 114 402 466 261 10;
#N canvas 643 73 528 220 MODULE_INFO 0;
#X text 66 57 name: Circle Cutter;
#X text 64 79 authors: Reality Jockey;
#X text 65 163 decorator: s1m1-s2m1;
#X text 65 183 tags:;
#X text 65 99 description: Circle Cutter utilises the same effect seen
in Cutter while spinning the input signal around the users head. Sharpness
increases the cutting signal \, reduces the dry level and shortens
each audio snippet. Speed increases the cycle rate.;
#X restore 22 21 pd MODULE_INFO;
#X obj 22 49 inlet~ MIC;
#X obj 215 220 outlet;
#X obj 22 222 outlet~;
#X obj 118 222 outlet~;
#X obj 215 39 inlet;
#N canvas 620 450 482 367 \$0-PARAMETERS 0;
#X obj 110 275 outlet;
#X obj -48 107 s \$0-tick;
#X obj -48 45 inlet;
#X obj -48 77 route tick bpm rootnote;
#X obj 106 132 cnv 15 187 127 empty empty RJC_Parameters 10 12 1 14
-162280 -262144 0;
#X obj 106 106 cnv 15 187 20 empty empty Circle_Cutter 50 11 1 14 -261234
-33289 0;
#X obj 110 197 rjc_parameter_floatrange \$0 Speed 0.06;
#X obj 110 160 rjc_parameter_floatrange \$0 Sharpness 0.9;
#X connect 2 0 3 0;
#X connect 3 0 1 0;
#X connect 3 3 7 0;
#X connect 6 0 0 0;
#X connect 7 0 6 0;
#X coords 0 -1 1 1 200 165 2 100 100;
#X restore 215 55 pd \$0-PARAMETERS;
#N canvas 147 36 263 357 \$0-DSP 0;
#X obj 20 62 inlet~;
#N canvas 76 54 258 430 cuttingfader 0;
#X obj 37 167 sel 0;
#X obj 37 250 line~;
#X obj 19 -55 inlet~;
#X obj 19 328 outlet~;
#X obj 69 30 sel 0;
#X obj 19 285 *~;
#X obj 37 137 mod 2;
#X obj 37 -22 inlet;
#X msg 109 108 2;
#X obj 69 56 random 4;
#X obj 69 82 sel 0 1 2 3;
#X msg 37 201 0 5;
#X msg 71 223 1 1;
#X obj 69 4 mod 3;
#X obj 71 201 del 88;
#X msg 69 108 1;
#X msg 144 109 3;
#X obj 110 148 r \$0-Sharpness;
#X obj 110 175 * 90;
#X connect 0 0 11 0;
#X connect 0 0 14 0;
#X connect 1 0 5 1;
#X connect 2 0 5 0;
#X connect 4 0 9 0;
#X connect 5 0 3 0;
#X connect 6 0 0 0;
#X connect 7 0 6 0;
#X connect 7 0 13 0;
#X connect 8 0 6 1;
#X connect 9 0 10 0;
#X connect 10 0 15 0;
#X connect 10 1 8 0;
#X connect 10 2 16 0;
#X connect 10 3 8 0;
#X connect 11 0 1 0;
#X connect 12 0 1 0;
#X connect 13 0 4 0;
#X connect 14 0 12 0;
#X connect 15 0 6 1;
#X connect 16 0 6 1;
#X connect 17 0 18 0;
#X connect 18 0 14 1;
#X restore 40 118 pd cuttingfader;
#X obj 20 274 e_circlepan;
#X obj 40 240 *~ 1.4;
#X obj 94 251 phasor~;
#X obj 40 85 inlet~;
#X obj 94 203 r \$0-Speed;
#X obj 142 23 r \$0-tick;
#X obj 142 73 sel 0;
#X obj 142 95 f 0;
#X obj 173 95 + 1;
#X obj 142 50 mod 2;
#X obj 79 148 r \$0-Sharpness;
#X obj 94 304 outlet~;
#X obj 20 324 outlet~;
#X obj 79 174 * 2;
#X obj 94 226 * 2;
#X connect 0 0 2 0;
#X connect 1 0 3 0;
#X connect 2 0 14 0;
#X connect 2 1 13 0;
#X connect 3 0 2 0;
#X connect 4 0 2 1;
#X connect 5 0 1 0;
#X connect 6 0 16 0;
#X connect 7 0 11 0;
#X connect 8 0 9 0;
#X connect 9 0 10 0;
#X connect 9 0 1 1;
#X connect 10 0 9 1;
#X connect 11 0 8 0;
#X connect 12 0 15 0;
#X connect 15 0 3 1;
#X connect 16 0 4 0;
#X restore 22 168 pd \$0-DSP;
#N canvas 221 88 267 255 \$0-INPUT 0;
#X obj 16 17 inlet~;
#X obj 16 223 outlet~;
#X obj 180 124 hip~ 150;
#X obj 180 97 hip~ 150;
#X obj 16 197 *~ 0.15;
#X obj 16 39 *~ 0.8;
#X obj 180 221 outlet~;
#X obj 62 112 r \$0-Sharpness;
#X obj 62 154 -;
#X obj 62 175 * 2;
#X obj 62 134 swap 1;
#X connect 0 0 5 0;
#X connect 2 0 6 0;
#X connect 3 0 2 0;
#X connect 4 0 1 0;
#X connect 5 0 3 0;
#X connect 5 0 4 0;
#X connect 7 0 10 0;
#X connect 8 0 9 0;
#X connect 9 0 4 1;
#X connect 10 0 8 0;
#X connect 10 1 8 1;
#X restore 22 91 pd \$0-INPUT;
#X connect 1 0 8 0;
#X connect 5 0 6 0;
#X connect 6 0 2 0;
#X connect 7 0 3 0;
#X connect 7 1 4 0;
#X connect 8 0 7 0;
#X connect 8 1 7 1;
