#N canvas 162 340 372 294 10;
#X obj 118 245 outlet;
#X obj 118 44 inlet;
#N canvas 77 321 536 241 MODULE_INFO 0;
#X text 66 101 description: Glitch-Punk random techno blip sequence.
Density controls the average number of blips played per bar. The complexity
control changes their timbre - a higher setting increases harshness.
;
#X text 66 81 authors: Reality Jockey;
#X text 66 57 name: Z-Tech;
#X text 65 157 decorator: s1m1-s2m1;
#X text 64 177 tags:;
#X restore -5 18 pd MODULE_INFO;
#X obj -5 245 outlet~;
#X obj 55 245 outlet~;
#X obj -5 44 inlet~;
#N canvas 747 194 529 484 \$0-PARAMETERS 0;
#X obj 110 275 outlet;
#X obj -48 391 s \$0-tick;
#X obj -48 45 inlet;
#X obj -48 77 route tick bpm rootnote;
#X obj 106 132 cnv 15 187 127 empty empty RJC_Parameters 10 12 1 14
-162280 -262144 0;
#X obj 110 159 rjc_parameter_floatrange \$0 Density 0.5;
#X obj 110 189 rjc_parameter_floatrange \$0 Complexity 0.5;
#X obj 106 106 cnv 15 187 20 empty empty Z-Tech 70 11 1 14 -261234
-33289 0;
#X obj 4 322 m_bpm2ms;
#X obj 4 345 / 4;
#X obj 4 367 s \$0-bpm;
#X obj 57 295 s \$0-rootnote;
#X obj 110 219 rjc_parameter_floatrange \$0 Pan_Width 0.25;
#X connect 2 0 3 0;
#X connect 3 0 1 0;
#X connect 3 1 8 0;
#X connect 3 2 11 0;
#X connect 3 3 5 0;
#X connect 5 0 6 0;
#X connect 6 0 12 0;
#X connect 8 0 9 0;
#X connect 9 0 10 0;
#X connect 12 0 0 0;
#X coords 0 -1 1 1 200 165 2 100 100;
#X restore 118 70 pd \$0-PARAMETERS;
#N canvas 225 62 520 866 \$0-DSP 0;
#N canvas 171 118 467 394 pingpong 0;
#X obj -130 191 *~ 0.12;
#X obj 72 189 *~ 0.12;
#X obj -156 141 * 5;
#X obj 48 139 * 6;
#X obj -156 234 *~ 0.3;
#X obj 48 233 *~ 0.3;
#X obj -160 80 delwrite~ \$0-a 10000;
#X obj -8 71 delwrite~ \$0-b 10000;
#X obj -156 162 delread~ \$0-a 300;
#X obj 48 160 delread~ \$0-b 1200;
#X obj -130 214 s~ \$0-dfb;
#X obj 72 213 s~ \$0-dfa;
#X obj -160 48 r~ \$0-dfa;
#X obj -8 49 r~ \$0-dfb;
#X obj 48 259 outlet~;
#X obj -157 258 outlet~;
#X obj -134 14 inlet~;
#X obj 163 25 inlet period;
#X connect 0 0 10 0;
#X connect 1 0 11 0;
#X connect 2 0 8 0;
#X connect 3 0 9 0;
#X connect 4 0 15 0;
#X connect 5 0 14 0;
#X connect 8 0 0 0;
#X connect 8 0 4 0;
#X connect 9 0 1 0;
#X connect 9 0 5 0;
#X connect 12 0 6 0;
#X connect 13 0 7 0;
#X connect 16 0 6 0;
#X connect 16 0 7 0;
#X connect 16 0 15 0;
#X connect 16 0 14 0;
#X connect 17 0 3 0;
#X connect 17 0 2 0;
#X coords 0 0 1 1 130 100 0;
#X restore 22 494 pd pingpong delay;
#N canvas 0 22 1024 516 seq 0;
#X msg 181 27 145.669 149.606 0.141732 2.51969 0.23622;
#X obj 234 482 outlet;
#X msg 204 122 89.3307 362.205 0.214567 0.820472 0.181102;
#X msg 199 99 69.6457 677.165 0.198819 1.84409 0.0708661;
#X msg 195 75 69.6457 574.803 0.198819 0.426772 0.0708661;
#X msg 272 340 97.2047 149.606 0.931102 0.166929 0.0708661;
#X msg 532 228 55.1181 889.764 0.1 330.709 0.708661;
#X obj 99 -5 inlet;
#X msg 282 365 326.772 39.3701 0.19685 1.02362 0.125984;
#X msg 298 390 212.598 62.9921 0.212598 1.9685 0.173228;
#X msg 549 273 500 850.394 0.00448819 8.11024 1;
#X msg 552 298 102.362 850.394 0.0182677 8.11024 1;
#X msg 187 50 263.78 889.764 0.015276 13.3071 0.251969;
#X msg 536 252 59.0551 889.764 0.149843 236.22 0.0393701;
#X msg 211 142 255.906 425.197 0.04 0.166929 0.0708661;
#X msg 311 418 267.717 78.7402 0.787402 0.0787402 0.023622;
#X msg 217 164 267.717 440.945 0.0124409 6.14173 0.551181;
#X msg 233 207 161.417 440.945 0.0124409 2.12598 0.307087;
#X msg 223 185 149.606 251.969 0.051811 2.44094 0.228346;
#X obj 258 1 sel 0 1 2 3 4 5 6 7 8 9;
#X obj 255 -22 random 10;
#X obj 538 202 sel 0 1 2 3 4 5 6 7 8 9;
#X obj 541 174 random 4;
#X obj 271 299 sel 0 1 2 3 4 5 6 7 8 9;
#X obj 274 271 random 4;
#X obj 526 49 sel 0 1 2;
#X connect 0 0 1 0;
#X connect 2 0 1 0;
#X connect 3 0 1 0;
#X connect 4 0 1 0;
#X connect 5 0 1 0;
#X connect 6 0 1 0;
#X connect 7 0 25 0;
#X connect 8 0 1 0;
#X connect 9 0 1 0;
#X connect 10 0 1 0;
#X connect 11 0 1 0;
#X connect 12 0 1 0;
#X connect 13 0 1 0;
#X connect 14 0 1 0;
#X connect 15 0 1 0;
#X connect 16 0 1 0;
#X connect 17 0 1 0;
#X connect 18 0 1 0;
#X connect 19 0 0 0;
#X connect 19 1 12 0;
#X connect 19 2 4 0;
#X connect 19 3 3 0;
#X connect 19 4 2 0;
#X connect 19 5 14 0;
#X connect 19 6 16 0;
#X connect 19 7 18 0;
#X connect 19 8 17 0;
#X connect 20 0 19 0;
#X connect 21 0 6 0;
#X connect 21 1 13 0;
#X connect 21 2 10 0;
#X connect 21 3 11 0;
#X connect 22 0 21 0;
#X connect 23 0 5 0;
#X connect 23 1 8 0;
#X connect 23 2 9 0;
#X connect 23 3 15 0;
#X connect 24 0 23 0;
#X connect 25 0 24 0;
#X connect 25 1 22 0;
#X connect 25 2 20 0;
#X restore 22 342 pd seq s1;
#X obj 22 300 f;
#X obj 64 321 + 1;
#X obj 22 321 mod 3;
#X obj 22 278 t b;
#N canvas 0 22 1003 516 tzzp 0;
#X obj 97 -87 vline~;
#X obj 96 202 *~;
#X obj 98 263 *~;
#X obj 320 -82 r~ \$0-fb;
#X obj 302 199 s~ \$0-fb;
#X obj 292 -27 +~;
#X obj 319 -59 *~;
#X obj 292 -57 *~;
#X obj 125 -181 unpack f f f f f;
#X obj 97 -219 t b a;
#X obj 97 -53 *~;
#X obj 97 10 *~;
#X obj 201 407 outlet~;
#X obj 97 -240 inlet;
#X text 259 401 ajf 2009;
#N canvas 0 22 493 300 about 0;
#X text 201 95 Andy;
#X text 29 23 The idea of the zz range of synths is to produce versatile
time domain waveform generators using as few units as possible. This
kind of design is ideal for RjDj or other mobile type music synthesis
;
#X restore 248 -188 pd about;
#X obj 275 112 *~;
#X obj 291 -6 wrap~;
#X obj 276 131 *~ -4;
#X obj 275 87 -~ 0.5;
#X obj 277 152 +~ 1;
#X obj 290 16 -~ 0.5;
#X obj 274 64 *~ 2;
#X obj 321 110 *~;
#X obj 320 62 *~ 2;
#X obj 321 85 +~ 0.5;
#X obj 322 129 *~ 4;
#X obj 323 150 -~ 1;
#X obj 296 175 +~;
#X obj 273 41 max~ 0;
#X obj 320 39 min~ 0;
#X obj 115 106 *~;
#X obj 131 -12 wrap~;
#X obj 116 125 *~ -4;
#X obj 115 81 -~ 0.5;
#X obj 117 146 +~ 1;
#X obj 130 10 -~ 0.5;
#X obj 114 58 *~ 2;
#X obj 161 104 *~;
#X obj 160 56 *~ 2;
#X obj 161 79 +~ 0.5;
#X obj 162 123 *~ 4;
#X obj 163 144 -~ 1;
#X obj 136 169 +~;
#X obj 113 35 max~ 0;
#X obj 160 33 min~ 0;
#X text 232 370 Version of tzz synth that replaces triangle with a
bipolar parabolic wave generator instead;
#X obj 164 -117 t b f;
#X obj 173 -89 *;
#X obj 151 -150 * 0.001;
#X obj 349 -154 inlet;
#X obj 335 -108 lop~ 1;
#X obj 320 -37 *~;
#X obj 289 -151 loadbang;
#X msg 289 -128 1;
#X obj 199 213 -~;
#X obj 199 233 *~;
#X obj 411 72 inlet volume;
#X obj 445 -60 mtof;
#X obj 449 -38 / 100000;
#X obj 167 377 hip~ 30;
#X obj 510 -107 inlet mnote freq;
#X obj 541 23 -;
#X obj 414 116 sig~;
#X obj 150 291 *~;
#X obj 542 -27 log;
#X obj 409 229 *~;
#X obj 443 -82 - 3;
#X obj 541 40 pow 3;
#X obj 541 -48 + 10;
#X obj 539 -6 swap 5.2;
#N canvas 0 22 914 567 tanh-special 0;
#X obj 241 65 inlet~;
#X text 493 89 __;
#X text 575 89 __;
#X text 527 89 __;
#X text 626 89 __;
#X text 493 106 1 +;
#X text 529 106 3 +;
#X text 577 106 5 +;
#X text 627 106 7 +;
#X text 443 32 As a continued fraction;
#X obj 240 148 *~;
#X obj 165 265 /~;
#X obj 165 350 /~;
#X obj 165 288 /~;
#X obj 165 321 /~;
#X text 427 78 tanh(z) = z z^2 4z^2 9z^2 ...;
#X obj 322 175 *~ 4;
#X obj 321 206 +~ 3;
#X obj 385 174 *~ 9;
#X obj 455 175 *~ 16;
#X obj 454 205 +~ 7;
#X obj 165 401 outlet~;
#X obj 165 372 *~ 576;
#X obj 241 89 *~ 0.308319;
#X text 276 114 1/pi;
#X text 217 335 coefficients tweakd for super juicy 303 sound \, Andy
Farnell 2009;
#X obj 240 206 +~ 1.14;
#X obj 384 205 +~ 5.222;
#X text 683 107 ajf;
#X connect 0 0 23 0;
#X connect 10 0 16 0;
#X connect 10 0 18 0;
#X connect 10 0 19 0;
#X connect 10 0 26 0;
#X connect 11 0 13 0;
#X connect 12 0 22 0;
#X connect 13 0 14 0;
#X connect 14 0 12 0;
#X connect 16 0 17 0;
#X connect 17 0 13 1;
#X connect 18 0 27 0;
#X connect 19 0 20 0;
#X connect 20 0 12 1;
#X connect 22 0 21 0;
#X connect 23 0 10 1;
#X connect 23 0 10 0;
#X connect 23 0 11 0;
#X connect 26 0 11 1;
#X connect 27 0 14 1;
#X restore 162 352 pd tanh-special;
#X obj 80 -141 t f f f;
#X msg 49 -112 1 0 0 \, 0 \$1 0;
#X obj 52 230 lop~ 200;
#X obj 415 95 / 10;
#X connect 0 0 10 0;
#X connect 1 0 74 0;
#X connect 2 0 64 0;
#X connect 3 0 6 0;
#X connect 5 0 17 0;
#X connect 6 0 52 0;
#X connect 7 0 5 0;
#X connect 8 0 72 0;
#X connect 8 1 49 0;
#X connect 8 2 11 1;
#X connect 8 3 7 1;
#X connect 8 4 6 1;
#X connect 9 1 8 0;
#X connect 10 0 11 0;
#X connect 10 0 32 0;
#X connect 10 0 7 0;
#X connect 11 0 1 0;
#X connect 13 0 9 0;
#X connect 16 0 18 0;
#X connect 17 0 21 0;
#X connect 18 0 20 0;
#X connect 19 0 16 0;
#X connect 19 0 16 1;
#X connect 20 0 28 0;
#X connect 21 0 29 0;
#X connect 21 0 30 0;
#X connect 22 0 19 0;
#X connect 23 0 26 0;
#X connect 24 0 25 0;
#X connect 25 0 23 0;
#X connect 25 0 23 1;
#X connect 26 0 27 0;
#X connect 27 0 28 1;
#X connect 28 0 55 0;
#X connect 28 0 4 0;
#X connect 29 0 22 0;
#X connect 30 0 24 0;
#X connect 31 0 33 0;
#X connect 32 0 36 0;
#X connect 33 0 35 0;
#X connect 34 0 31 0;
#X connect 34 0 31 1;
#X connect 35 0 43 0;
#X connect 36 0 44 0;
#X connect 36 0 45 0;
#X connect 37 0 34 0;
#X connect 38 0 41 0;
#X connect 39 0 40 0;
#X connect 40 0 38 0;
#X connect 40 0 38 1;
#X connect 41 0 42 0;
#X connect 42 0 43 1;
#X connect 43 0 1 1;
#X connect 43 0 2 1;
#X connect 43 0 55 1;
#X connect 44 0 37 0;
#X connect 45 0 39 0;
#X connect 47 0 48 0;
#X connect 47 1 48 1;
#X connect 48 0 10 1;
#X connect 49 0 47 0;
#X connect 50 0 51 0;
#X connect 51 0 52 1;
#X connect 51 0 56 1;
#X connect 52 0 5 1;
#X connect 53 0 54 0;
#X connect 54 0 51 0;
#X connect 55 0 56 0;
#X connect 56 0 2 1;
#X connect 57 0 75 0;
#X connect 58 0 59 0;
#X connect 59 0 49 1;
#X connect 60 0 12 0;
#X connect 61 0 67 0;
#X connect 61 0 69 0;
#X connect 62 0 68 0;
#X connect 63 0 66 0;
#X connect 64 0 71 0;
#X connect 65 0 70 0;
#X connect 66 0 64 1;
#X connect 67 0 58 0;
#X connect 68 0 66 1;
#X connect 69 0 65 0;
#X connect 70 0 62 0;
#X connect 70 1 62 1;
#X connect 71 0 60 0;
#X connect 72 1 73 0;
#X connect 72 2 48 0;
#X connect 73 0 0 0;
#X connect 74 0 2 0;
#X connect 75 0 63 0;
#X restore 22 468 pd tzzp;
#X obj 22 71 t b;
#X obj 22 716 outlet~;
#X obj 138 717 outlet~;
#X obj 22 190 / 10000;
#X obj 22 212 sqrt;
#X obj 22 234 * 10000;
#X obj 22 168 random 10000;
#X obj 142 194 * 10000;
#X obj 22 256 moses 5000;
#X obj 22 7 / 2;
#X obj 22 28 int;
#X obj 22 49 change;
#X obj 142 31 + 0.25;
#X obj 196 31 > 0.8;
#X obj 142 8 t f f;
#X obj 78 81 spigot;
#X obj 78 125 sel 0;
#X obj 78 103 random 6;
#X obj 138 469 r \$0-bpm;
#X obj 142 -15 r \$0-Density;
#X obj 37 373 r \$0-Complexity;
#X obj 52 395 loadbang;
#X msg 52 418 0.8;
#X obj 68 440 r \$0-rootnote;
#X obj 22 -40 r \$0-tick;
#X obj 217 500 change;
#X obj 217 433 mod 8;
#X obj 217 477 int;
#X obj 217 455 / 4;
#X obj 40 566 random 4;
#X obj 22 -14 t f b f;
#X obj 156 571 random 4;
#X obj 156 615 * 0.2;
#X obj 40 615 * 0.2;
#X obj 40 590 + 1;
#X obj 156 592 + 1;
#X obj 138 691 *~;
#X obj 22 690 *~;
#X obj 217 521 sel 0 1;
#X obj 156 663 vline~;
#X msg 156 639 \$1 50;
#X obj 40 665 vline~;
#X msg 40 639 \$1 50;
#X obj 261 685 /;
#X obj 261 636 t b f;
#X obj 261 659 1;
#X obj 229 549 r \$0-Pan_Width;
#X obj 229 591 int;
#X obj 229 570 m_scale 0 1 1 15.9;
#X obj 229 611 t f f;
#X connect 0 0 44 0;
#X connect 0 1 43 0;
#X connect 1 0 6 0;
#X connect 2 0 4 0;
#X connect 3 0 2 1;
#X connect 4 0 3 0;
#X connect 4 0 1 0;
#X connect 5 0 2 0;
#X connect 6 0 0 0;
#X connect 7 0 13 0;
#X connect 10 0 11 0;
#X connect 11 0 12 0;
#X connect 12 0 15 0;
#X connect 13 0 10 0;
#X connect 14 0 15 1;
#X connect 15 0 5 0;
#X connect 16 0 17 0;
#X connect 17 0 18 0;
#X connect 18 0 7 0;
#X connect 19 0 14 0;
#X connect 20 0 22 1;
#X connect 21 0 19 0;
#X connect 21 1 20 0;
#X connect 22 0 24 0;
#X connect 23 0 13 0;
#X connect 24 0 23 0;
#X connect 25 0 0 1;
#X connect 26 0 21 0;
#X connect 27 0 6 1;
#X connect 28 0 29 0;
#X connect 29 0 6 2;
#X connect 30 0 6 3;
#X connect 31 0 37 0;
#X connect 32 0 45 0;
#X connect 33 0 35 0;
#X connect 34 0 32 0;
#X connect 35 0 34 0;
#X connect 36 0 41 0;
#X connect 37 0 16 0;
#X connect 37 1 22 0;
#X connect 37 2 33 0;
#X connect 38 0 42 0;
#X connect 39 0 47 0;
#X connect 40 0 49 0;
#X connect 41 0 40 0;
#X connect 42 0 39 0;
#X connect 43 0 9 0;
#X connect 44 0 8 0;
#X connect 45 0 36 0;
#X connect 45 1 38 0;
#X connect 46 0 43 1;
#X connect 47 0 46 0;
#X connect 48 0 44 1;
#X connect 49 0 48 0;
#X connect 50 0 39 1;
#X connect 50 0 40 1;
#X connect 51 0 52 0;
#X connect 51 1 50 1;
#X connect 52 0 50 0;
#X connect 53 0 55 0;
#X connect 54 0 56 0;
#X connect 55 0 54 0;
#X connect 56 0 38 1;
#X connect 56 0 36 1;
#X connect 56 1 51 0;
#X restore -5 179 pd \$0-DSP;
#N canvas 221 88 370 279 \$0-INPUT 0;
#X obj 66 47 inlet~;
#X obj 66 203 outlet~;
#X connect 0 0 1 0;
#X restore -5 110 pd \$0-INPUT;
#X connect 1 0 6 0;
#X connect 5 0 8 0;
#X connect 6 0 0 0;
#X connect 7 0 3 0;
#X connect 7 1 4 0;
