#N canvas 341 256 615 333 10;
#X obj 98 17 inlet;
#X obj 105 291 outlet;
#X obj 308 30 inlet;
#X obj 105 135 * 1;
#X obj 105 168 +;
#X obj 105 196 t f f;
#X obj 137 221 * 0;
#X obj 180 124 t f f;
#X msg 212 147 1 \$1;
#X obj 212 170 -;
#X obj 189 13 loadbang;
#X obj 189 39 i \$1;
#X text 266 100 y[n]=(1-a)*x[n-1]+a*y[n-1];
#X connect 0 0 3 0;
#X connect 2 0 7 0;
#X connect 3 0 4 0;
#X connect 4 0 5 0;
#X connect 5 0 1 0;
#X connect 5 1 6 0;
#X connect 6 0 4 1;
#X connect 7 0 6 1;
#X connect 7 1 8 0;
#X connect 8 0 9 0;
#X connect 9 0 3 1;
#X connect 10 0 11 0;
#X connect 11 0 7 0;
