#N canvas 409 100 858 592 12;
#X obj 717 41 loadbang;
#X msg 717 68 \; pd dsp 1 \;;
#X obj 108 441 soundoutput;
#N canvas 174 65 778 372 notes 0;
#X text 70 40 IOscine: a sine scene;
#X text 87 75 just create a number of sinewaves and modulate them based
on the input signal;
#X restore 83 -14 pd notes;
#X obj 69 292 catch~ IO_left;
#X obj 105 29 soundinput;
#X obj 560 180 s input_soundfile;
#X obj 104 135 s IOscine_osc_left;
#X msg 560 159 /home/nap/pdworkshop/strauss.wav;
#X msg 428 -23 (c) 2008 IOhannes m zmölnig;
#X obj 248 387 catch~ IO_right;
#X obj 63 162 myscines;
#N canvas 428 122 692 539 noisecontrol 0;
#X obj 122 57 accelerate;
#X obj 122 82 r accelerate;
#X obj 122 113 route magnitude;
#X obj 122 495 s IOscine_noise_lop;
#X obj 122 463 line;
#X obj 122 434 pack 0 100;
#X text 144 138 0..>2;
#X text 281 139 jumps should go through;
#X text 281 157 then drop off slowly;
#X obj 122 174 min 3;
#X obj 122 378 * 1000;
#X obj 122 405 change;
#X obj 340 386 mtof;
#X obj 340 362 + 30;
#X obj 340 339 * 60;
#X obj 340 443 max 0;
#X obj 340 469 min 2000;
#X obj 340 415 - 50;
#X obj 224 243 tgl 15 0 empty empty empty 17 7 0 10 -262144 -1 -1 1
1;
#X obj 123 295 f;
#X obj 122 325 maxdecay 0.999;
#X obj 123 197 max 1;
#X obj 123 220 - 1;
#X obj 126 248 / 2;
#X obj 122 354 t f;
#X obj 220 185 loadbang;
#X msg 222 212 1;
#X obj 220 267 metro 100;
#X connect 1 0 2 0;
#X connect 2 0 9 0;
#X connect 4 0 3 0;
#X connect 5 0 4 0;
#X connect 9 0 21 0;
#X connect 10 0 11 0;
#X connect 11 0 5 0;
#X connect 12 0 17 0;
#X connect 13 0 12 0;
#X connect 14 0 13 0;
#X connect 15 0 16 0;
#X connect 16 0 11 0;
#X connect 17 0 15 0;
#X connect 18 0 27 0;
#X connect 19 0 20 0;
#X connect 20 0 24 0;
#X connect 21 0 22 0;
#X connect 22 0 23 0;
#X connect 23 0 19 0;
#X connect 24 0 14 0;
#X connect 25 0 26 0;
#X connect 26 0 18 0;
#X connect 27 0 19 0;
#X restore 541 66 pd noisecontrol;
#N canvas 567 122 692 539 graincontrol 0;
#N canvas 362 135 632 567 slider 0;
#X obj 130 13 r #touch;
#X obj 130 48 route xy;
#X obj 130 76 route 1;
#X obj 130 106 unpack;
#X obj 135 179 t f f;
#X obj 137 207 -;
#X obj 139 250 > 0;
#X obj 139 277 t f;
#X obj 199 108 t b;
#X msg 199 248 0;
#X floatatom 139 305 5 0 0 0 - - -;
#X obj 139 327 change;
#X obj 244 364 t b b;
#X obj 251 388 timer;
#X obj 139 352 t f b;
#X obj 143 438 > 200;
#X obj 141 388 select 0;
#X obj 143 416 f;
#X obj 143 461 select 1;
#X obj 143 518 outlet;
#X msg 144 488 left2right;
#X obj 312 272 t f;
#X floatatom 312 300 5 0 0 0 - - -;
#X obj 312 322 change;
#X obj 417 359 t b b;
#X obj 424 383 timer;
#X obj 312 347 t f b;
#X obj 316 433 > 200;
#X obj 314 383 select 0;
#X obj 316 411 f;
#X obj 316 456 select 1;
#X msg 317 483 right2left;
#X obj 314 236 < 0;
#X obj 136 228 t f f;
#X connect 0 0 1 0;
#X connect 1 0 2 0;
#X connect 1 1 8 0;
#X connect 2 0 3 0;
#X connect 3 0 4 0;
#X connect 4 0 5 1;
#X connect 4 1 5 0;
#X connect 5 0 33 0;
#X connect 6 0 7 0;
#X connect 7 0 10 0;
#X connect 8 0 9 0;
#X connect 9 0 7 0;
#X connect 10 0 11 0;
#X connect 11 0 14 0;
#X connect 12 0 13 0;
#X connect 12 1 13 1;
#X connect 13 0 17 1;
#X connect 14 0 16 0;
#X connect 14 1 12 0;
#X connect 15 0 18 0;
#X connect 16 0 17 0;
#X connect 17 0 15 0;
#X connect 18 0 20 0;
#X connect 20 0 19 0;
#X connect 21 0 22 0;
#X connect 22 0 23 0;
#X connect 23 0 26 0;
#X connect 24 0 25 0;
#X connect 24 1 25 1;
#X connect 25 0 29 1;
#X connect 26 0 28 0;
#X connect 26 1 24 0;
#X connect 27 0 30 0;
#X connect 28 0 29 0;
#X connect 29 0 27 0;
#X connect 30 0 31 0;
#X connect 31 0 19 0;
#X connect 32 0 21 0;
#X connect 33 0 6 0;
#X connect 33 1 32 0;
#X restore 210 169 pd slider;
#X obj 210 197 route left2right right2left;
#X obj 210 223 t b;
#X msg 210 245 1;
#X obj 340 223 t b;
#X msg 340 245 -1;
#X obj 215 354 min 123;
#X obj 215 382 max -36;
#X obj 215 279 t f;
#X obj 215 434 mtof;
#X obj 215 477 s IOscine_interpol_osc;
#X msg 332 302 0;
#X obj 332 280 loadbang;
#X obj 215 331 + 80;
#X obj 213 305 * 10;
#X obj 213 407 t f f f;
#X obj 469 329 + 36;
#X obj 469 353 / 160;
#X obj 469 377 * 10;
#X obj 469 400 i;
#X obj 469 424 s IOscine_page;
#X floatatom 269 444 5 0 0 0 - - -;
#X connect 0 0 1 0;
#X connect 1 0 2 0;
#X connect 1 1 4 0;
#X connect 2 0 3 0;
#X connect 3 0 8 0;
#X connect 4 0 5 0;
#X connect 5 0 8 0;
#X connect 6 0 7 0;
#X connect 7 0 15 0;
#X connect 8 0 14 0;
#X connect 9 0 10 0;
#X connect 9 0 21 0;
#X connect 11 0 8 0;
#X connect 12 0 11 0;
#X connect 13 0 6 0;
#X connect 14 0 13 0;
#X connect 15 0 9 0;
#X connect 15 1 13 1;
#X connect 15 2 16 0;
#X connect 16 0 17 0;
#X connect 17 0 18 0;
#X connect 18 0 19 0;
#X connect 19 0 20 0;
#X restore 538 93 pd graincontrol;
#X obj 428 8 print IOscine;
#X obj 237 320 line~;
#X obj 125 407 *~;
#X obj 245 410 *~;
#X obj 239 212 r #transport;
#X obj 239 236 route play;
#X obj 240 261 select 1 0;
#X msg 238 293 1 1000;
#X msg 315 293 0 100;
#X obj 104 113 fiddle~ 1024 1 8 8;
#X obj 105 57 +~;
#N canvas 698 287 450 427 pres_sig~ 0;
#X obj 128 32 inlet~;
#X obj 129 248 outlet~;
#X connect 0 0 1 0;
#X restore 105 83 pd pres_sig~;
#N canvas 277 133 703 581 base 0;
#N canvas 0 0 450 431 bumm 0;
#X obj 135 200 *~;
#X obj 151 153 vline~;
#X obj 136 176 osc~ 80;
#X obj 152 24 inlet;
#X obj 307 76 inlet;
#X msg 206 121 0 5 \, 1 10 5 \, 0 \$1 15;
#X obj 152 51 unpack;
#X obj 106 112 vline~;
#X msg 106 86 \$1 5;
#X obj 41 10 loadbang;
#X obj 52 57 select 0;
#X msg 52 84 80;
#X obj 211 72 select 0;
#X msg 211 99 1000;
#X obj 136 250 *~ 0.3;
#X obj 133 296 outlet~;
#X connect 0 0 14 0;
#X connect 1 0 0 1;
#X connect 2 0 0 0;
#X connect 3 0 6 0;
#X connect 4 0 2 1;
#X connect 5 0 1 0;
#X connect 6 0 10 0;
#X connect 6 1 12 0;
#X connect 7 0 2 0;
#X connect 8 0 7 0;
#X connect 9 0 11 0;
#X connect 10 0 11 0;
#X connect 10 1 8 0;
#X connect 11 0 8 0;
#X connect 12 0 13 0;
#X connect 12 1 5 0;
#X connect 13 0 5 0;
#X connect 14 0 15 0;
#X restore 149 450 pd bumm;
#X obj 132 6 r IOscine_page;
#X obj 132 104 + 1;
#X text 187 57 10...10000;
#X text 193 70 1...1;
#X msg 166 340 bang;
#X obj 323 171 hradio 15 1 0 10 empty empty empty 0 -8 0 10 -262144
-1 -1 0;
#N canvas 0 0 823 513 gensequence 0;
#X obj 171 90 random 7;
#X obj 171 137 until;
#X obj 173 467 outlet;
#X obj 148 63 t b b f b;
#X msg 260 112 set;
#X msg 176 412 add2 \$1;
#X obj 152 24 inlet;
#X floatatom 238 37 5 0 0 0 - - -;
#X obj 171 160 random 4;
#X obj 171 274 * 10;
#X msg 173 441 80 110 100 90 100 90 80;
#X obj 176 312 + 80;
#X obj 182 370 +;
#X obj 171 113 + 5;
#X connect 0 0 13 0;
#X connect 1 0 8 0;
#X connect 3 0 10 0;
#X connect 3 1 0 0;
#X connect 3 3 4 0;
#X connect 4 0 10 0;
#X connect 5 0 10 0;
#X connect 6 0 3 0;
#X connect 7 0 3 0;
#X connect 8 0 9 0;
#X connect 9 0 11 0;
#X connect 10 0 2 0;
#X connect 11 0 12 0;
#X connect 12 0 5 0;
#X connect 13 0 1 0;
#X restore 58 268 pd gensequence;
#N canvas 0 0 823 513 rhythm 0;
#X obj 171 90 random 7;
#X obj 171 113 + 2;
#X obj 171 137 until;
#X obj 173 377 outlet;
#X msg 173 351 863.333 234 1103.33 530 1028.67 1223.33 1170;
#X obj 148 63 t b b f b;
#X msg 260 112 set;
#X msg 176 322 add2 \$1;
#X obj 171 158 random 600;
#X obj 171 235 * 100;
#X obj 152 24 inlet;
#X obj 171 269 + 10;
#X floatatom 238 37 5 0 0 0 - - -;
#X obj 171 186 / 6;
#X obj 171 210 + 10;
#X obj 258 219 * 2;
#X connect 0 0 1 0;
#X connect 1 0 2 0;
#X connect 2 0 8 0;
#X connect 4 0 3 0;
#X connect 5 0 4 0;
#X connect 5 1 0 0;
#X connect 5 2 15 0;
#X connect 5 3 6 0;
#X connect 6 0 4 0;
#X connect 7 0 4 0;
#X connect 8 0 13 0;
#X connect 9 0 11 0;
#X connect 10 0 5 0;
#X connect 11 0 7 0;
#X connect 12 0 5 0;
#X connect 13 0 14 0;
#X connect 14 0 9 0;
#X connect 15 0 9 1;
#X restore 185 164 pd rhythm;
#N canvas 0 0 685 376 autosequencer 0;
#X obj 147 154 list split 1;
#X obj 147 128 list prepend;
#X obj 212 98 t b a;
#X obj 255 181 t b;
#X floatatom 155 180 5 0 0 0 - - -;
#X obj 148 214 del;
#X obj 149 238 t b b;
#X obj 212 73 list prepend 1000 333 333 250;
#X msg 215 42 bang;
#X obj 111 25 inlet;
#X obj 146 264 outlet;
#X obj 113 50 t b a;
#X connect 0 0 4 0;
#X connect 0 0 5 0;
#X connect 0 1 1 1;
#X connect 0 2 3 0;
#X connect 1 0 0 0;
#X connect 2 0 1 0;
#X connect 2 1 1 1;
#X connect 3 0 7 0;
#X connect 5 0 6 0;
#X connect 6 0 10 0;
#X connect 6 1 1 0;
#X connect 7 0 2 0;
#X connect 8 0 7 0;
#X connect 9 0 11 0;
#X connect 11 0 7 0;
#X connect 11 1 7 1;
#X restore 149 365 pd autosequencer;
#N canvas 0 0 450 300 slavesequencer 0;
#X obj 147 154 list split 1;
#X obj 147 128 list prepend;
#X obj 212 98 t b a;
#X obj 255 181 t b;
#X msg 215 42 bang;
#X obj 143 48 inlet;
#X obj 146 264 outlet;
#X obj 288 15 inlet;
#X obj 113 93 t b;
#X obj 212 73 list prepend 80;
#X floatatom 176 199 5 0 0 0 - - -;
#X obj 288 43 t b a;
#X connect 0 0 6 0;
#X connect 0 0 10 0;
#X connect 0 1 1 1;
#X connect 0 2 3 0;
#X connect 1 0 0 0;
#X connect 2 0 1 0;
#X connect 2 1 1 1;
#X connect 3 0 9 0;
#X connect 4 0 9 0;
#X connect 5 0 8 0;
#X connect 7 0 11 0;
#X connect 8 0 1 0;
#X connect 9 0 2 0;
#X connect 11 0 9 0;
#X connect 11 1 9 1;
#X restore 148 391 pd slavesequencer;
#X obj 146 131 t f f f;
#X obj 149 425 pack 0 1000;
#X obj 339 35 r accelerate;
#X obj 339 66 route magnitude;
#X obj 339 93 > 2;
#X obj 132 74 i;
#X obj 504 172 list prepend magnitude;
#X obj 341 119 select 1;
#X obj 148 498 *~;
#X obj 370 305 metro 1000;
#X obj 369 362 select 0;
#X msg 458 279 bang;
#X obj 369 392 i;
#X obj 408 389 + 1;
#X obj 450 389 % 2;
#X msg 485 324 bang;
#X obj 373 517 line~;
#X obj 368 492 pack 0 10000;
#X obj 368 330 random 60;
#X obj 373 279 t b b;
#X obj 380 252 loadbang;
#X msg 461 358 1;
#X obj 150 527 throw~ IO_both;
#X obj 464 426 select 0 1;
#X msg 444 453 60;
#X msg 482 452 30;
#X obj 500 482 t f;
#X obj 386 427 t f f f;
#X obj 582 426 i;
#X obj 343 141 t b b;
#X obj 582 452 select 0;
#X msg 584 477 1;
#X connect 0 0 19 0;
#X connect 1 0 16 0;
#X connect 2 0 11 0;
#X connect 5 0 9 0;
#X connect 6 0 2 0;
#X connect 7 0 10 1;
#X connect 8 0 9 0;
#X connect 9 0 10 0;
#X connect 10 0 12 0;
#X connect 11 0 7 0;
#X connect 11 1 8 0;
#X connect 12 0 0 0;
#X connect 13 0 14 0;
#X connect 14 0 15 0;
#X connect 14 0 17 0;
#X connect 15 0 18 0;
#X connect 16 0 2 0;
#X connect 18 0 40 0;
#X connect 19 0 33 0;
#X connect 20 0 29 0;
#X connect 21 0 23 0;
#X connect 22 0 20 0;
#X connect 23 0 24 0;
#X connect 23 0 38 0;
#X connect 24 0 25 0;
#X connect 25 0 23 1;
#X connect 26 0 29 0;
#X connect 27 0 19 1;
#X connect 28 0 27 0;
#X connect 29 0 21 0;
#X connect 30 0 20 0;
#X connect 30 1 32 0;
#X connect 31 0 30 0;
#X connect 32 0 23 0;
#X connect 34 0 35 0;
#X connect 34 1 36 0;
#X connect 35 0 37 0;
#X connect 36 0 37 0;
#X connect 37 0 29 1;
#X connect 38 0 28 0;
#X connect 38 1 34 0;
#X connect 38 2 39 1;
#X connect 39 0 41 0;
#X connect 40 0 16 0;
#X connect 40 1 39 0;
#X connect 41 0 42 0;
#X connect 42 0 23 0;
#X restore 446 287 pd base;
#N canvas 0 0 450 300 ringbuffer 0;
#X obj 117 74 inlet~;
#X obj 225 78 inlet~;
#X obj 107 240 throw~ IO_left;
#X obj 263 241 throw~ IO_right;
#X obj 117 129 delay~ 6000;
#X obj 247 129 delay~ 6000;
#X obj 244 155 *~ 0.2;
#X obj 114 156 *~ 0.2;
#X connect 0 0 4 0;
#X connect 1 0 5 0;
#X connect 4 0 7 0;
#X connect 5 0 6 0;
#X connect 6 0 2 0;
#X connect 7 0 3 0;
#X restore 324 466 pd ringbuffer;
#X obj 127 358 catch~ IO_both;
#X connect 0 0 1 0;
#X connect 4 0 16 0;
#X connect 4 0 27 0;
#X connect 5 0 24 0;
#X connect 5 1 24 1;
#X connect 8 0 6 0;
#X connect 9 0 14 0;
#X connect 10 0 17 0;
#X connect 10 0 27 1;
#X connect 15 0 16 1;
#X connect 15 0 17 1;
#X connect 16 0 2 0;
#X connect 17 0 2 1;
#X connect 18 0 19 0;
#X connect 19 0 20 0;
#X connect 20 0 21 0;
#X connect 20 1 22 0;
#X connect 21 0 15 0;
#X connect 22 0 15 0;
#X connect 23 4 7 0;
#X connect 24 0 25 0;
#X connect 25 0 23 0;
#X connect 28 0 16 0;
#X connect 28 0 17 0;
