#N canvas 243 100 450 300 10;
#X obj 104 63 inlet~;
#X obj 113 203 outlet~;
#N canvas 0 0 450 300 in 0;
#X obj 143 64 inlet~;
#X obj 142 203 outlet~;
#X obj 144 141 delwrite~ \$0-delay \$1;
#X connect 0 0 2 0;
#X restore 104 103 pd in;
#N canvas 0 0 450 300 out 0;
#X obj 143 64 inlet~;
#X obj 142 203 outlet~;
#X obj 143 141 delread~ \$0-delay \$1;
#X obj 258 64 inlet;
#X connect 2 0 1 0;
#X connect 3 0 2 0;
#X restore 108 134 pd out;
#X obj 188 66 inlet;
#X connect 0 0 2 0;
#X connect 2 0 3 0;
#X connect 3 0 1 0;
#X connect 4 0 3 1;
