#N canvas 202 52 450 300 10;
#X obj 134 35 inlet~;
#X obj 134 175 outlet~;
#X obj 133 71 lop~ \$1;
#X obj 133 91 lop~ \$1;
#X obj 133 111 lop~ \$1;
#X obj 133 131 lop~ \$1;
#X obj 194 34 inlet;
#X obj 196 59 t f f f f;
#X connect 0 0 2 0;
#X connect 2 0 3 0;
#X connect 3 0 4 0;
#X connect 4 0 5 0;
#X connect 5 0 1 0;
#X connect 6 0 7 0;
#X connect 7 0 2 1;
#X connect 7 1 3 1;
#X connect 7 2 4 1;
#X connect 7 3 5 1;
