#N canvas 239 133 450 443 10;
#X obj 128 183 max;
#X obj 128 258 t f f;
#X obj 128 79 inlet;
#X obj 128 349 outlet;
#X obj 128 321 max;
#X obj 128 150 t f f;
#X obj 187 217 * 0.99;
#X obj 211 111 loadbang;
#X obj 211 134 f \$1;
#X obj 211 158 select 0;
#X obj 290 103 inlet;
#X connect 0 0 1 0;
#X connect 1 0 4 0;
#X connect 1 1 6 0;
#X connect 2 0 5 0;
#X connect 4 0 3 0;
#X connect 5 0 0 0;
#X connect 5 1 4 1;
#X connect 6 0 0 1;
#X connect 7 0 8 0;
#X connect 8 0 9 0;
#X connect 9 1 6 1;
#X connect 10 0 6 1;
