#N canvas 0 0 679 379 10;
#X obj 95 61 inlet~;
#X obj 106 246 throw~ IO_left;
#X obj 258 17 inlet;
#X obj 115 171 *~;
#X obj 258 40 osc~ 0.1;
#X obj 257 84 *~ 0.5;
#X obj 257 61 +~ 1;
#X obj 236 191 *~;
#X obj 260 115 -~ 1;
#X obj 262 137 *~ -1;
#X obj 233 246 throw~ IO_right;
#X obj 362 37 loadbang;
#X obj 365 71 random 100;
#X msg 441 30 bang;
#X floatatom 377 116 5 0 0 0 - - -;
#X obj 365 92 / 300;
#X connect 0 0 3 0;
#X connect 0 0 7 0;
#X connect 2 0 4 0;
#X connect 3 0 1 0;
#X connect 4 0 6 0;
#X connect 5 0 3 1;
#X connect 5 0 8 0;
#X connect 6 0 5 0;
#X connect 7 0 10 0;
#X connect 8 0 9 0;
#X connect 9 0 7 1;
#X connect 11 0 12 0;
#X connect 12 0 15 0;
#X connect 13 0 12 0;
#X connect 15 0 4 0;
#X connect 15 0 14 0;
