#N canvas 225 239 624 445 10;
#X obj 94 263 osc~;
#X obj 95 343 *~;
#X obj 139 259 line~;
#X obj 139 239 pack 0 100;
#X obj 87 237 line~;
#X obj 89 76 unpack;
#X obj 87 55 route \$2;
#X obj 27 121 select 0;
#X obj 87 28 r IOscine_osc_\$1;
#X obj 205 68 r IOscine_interpol_osc;
#X obj 208 168 r IOscine_interpol_gain;
#X obj 211 95 r IOscine_osc_fmul;
#X obj 87 214 pack 0 10000;
#X obj 139 158 change;
#X obj 217 214 del 10000;
#X obj 139 178 t f b;
#X msg 217 236 0 10000;
#X obj 27 101 change;
#X obj 29 79 * 1;
#X obj 56 150 1p1z 0.9;
#X obj 104 120 r IOscine_osc_1p1z;
#X obj 95 296 *~;
#X obj 354 284 lopnoise~ 60;
#X obj 354 261 r IOscine_noise_lop;
#X obj 95 372 pan~;
#X connect 0 0 21 0;
#X connect 1 0 24 0;
#X connect 2 0 1 1;
#X connect 3 0 2 0;
#X connect 4 0 0 0;
#X connect 5 0 18 0;
#X connect 5 1 13 0;
#X connect 6 0 5 0;
#X connect 7 1 19 0;
#X connect 8 0 6 0;
#X connect 9 0 12 1;
#X connect 10 0 3 1;
#X connect 11 0 18 1;
#X connect 12 0 4 0;
#X connect 13 0 15 0;
#X connect 14 0 16 0;
#X connect 15 0 3 0;
#X connect 15 1 14 0;
#X connect 16 0 2 0;
#X connect 17 0 7 0;
#X connect 18 0 17 0;
#X connect 19 0 12 0;
#X connect 20 0 19 1;
#X connect 21 0 1 0;
#X connect 22 0 21 1;
#X connect 23 0 22 0;
