#N canvas 44 122 1049 323 10;
#X obj -86 32 inlet~;
#N canvas 530 77 707 720 \$0-INPUT 0;
#X obj 629 124 bng 30 250 50 0 empty empty Save -4 -10 1 16 -258113
-1 -1;
#N canvas 0 22 772 701 Play 0;
#X obj 50 82 route 1 2 3 4 5 6 7 8 9 10 11 12 13 14 15 16;
#X obj 213 513 list;
#X obj 230 493 list;
#X obj 248 473 list;
#X obj 265 453 list;
#X obj 283 433 list;
#X obj 301 412 list;
#X obj 318 392 list;
#X obj 336 371 list;
#X obj 354 350 list;
#X obj 371 329 list;
#X obj 389 309 list;
#X obj 406 289 list;
#X obj 424 269 list;
#X obj 442 248 list;
#X obj 459 228 list;
#X obj 477 207 list;
#X obj 50 60 inlet;
#X obj 451 109 sel 0 1 2 3 4 5 6 7 8 9 10 11 12 13 14 15;
#X obj 451 55 inlet tick;
#X obj 477 528 list trim;
#X obj 477 579 outlet;
#X connect 0 0 1 1;
#X connect 0 1 2 1;
#X connect 0 2 3 1;
#X connect 0 3 4 1;
#X connect 0 4 5 1;
#X connect 0 5 6 1;
#X connect 0 6 7 1;
#X connect 0 7 8 1;
#X connect 0 8 9 1;
#X connect 0 9 10 1;
#X connect 0 10 11 1;
#X connect 0 11 12 1;
#X connect 0 12 13 1;
#X connect 0 13 14 1;
#X connect 0 14 15 1;
#X connect 0 15 16 1;
#X connect 1 0 20 0;
#X connect 2 0 20 0;
#X connect 3 0 20 0;
#X connect 4 0 20 0;
#X connect 5 0 20 0;
#X connect 6 0 20 0;
#X connect 7 0 20 0;
#X connect 8 0 20 0;
#X connect 9 0 20 0;
#X connect 10 0 20 0;
#X connect 11 0 20 0;
#X connect 12 0 20 0;
#X connect 13 0 20 0;
#X connect 14 0 20 0;
#X connect 15 0 20 0;
#X connect 16 0 20 0;
#X connect 17 0 0 0;
#X connect 18 0 1 0;
#X connect 18 1 2 0;
#X connect 18 2 3 0;
#X connect 18 3 4 0;
#X connect 18 4 5 0;
#X connect 18 5 6 0;
#X connect 18 6 7 0;
#X connect 18 7 8 0;
#X connect 18 8 9 0;
#X connect 18 9 10 0;
#X connect 18 10 11 0;
#X connect 18 11 12 0;
#X connect 18 12 13 0;
#X connect 18 13 14 0;
#X connect 18 14 15 0;
#X connect 18 15 16 0;
#X connect 19 0 18 0;
#X connect 20 0 21 0;
#X restore 259 656 pd Play;
#X obj 276 523 s \$0-save;
#X obj 259 683 outlet;
#X obj 100 160 abs/step_note \$0;
#X obj 100 180 abs/step_toggle \$0;
#X obj 305 543 r \$0-tick;
#X obj 127 304 until;
#X obj 127 328 f;
#X obj 162 327 + 1;
#X msg 170 304 1;
#X msg 259 387 set;
#X obj 127 436 pack f f f;
#X msg 127 457 add2 \$1 \$2 \$3 \, addcomma;
#X obj 127 361 t f f f;
#X msg 127 284 16;
#X obj 150 413 s \$0-note;
#X obj 173 387 s \$0-toggle;
#X obj 107 256 t b b 1 b;
#X obj 124 125 abs/m_m2pspell;
#X obj 124 64 r \$0-pitchspell;
#X obj 305 615 int;
#X obj 305 636 change;
#X obj 305 585 / 2;
#X obj 305 565 mod 32;
#X text 212 134 After making changes \, click 'Save' then save the
patch -->;
#X text 104 109 Note Selection;
#N canvas 28 429 566 351 patternselect 0;
#X obj 12 35 inlet;
#X obj 12 331 outlet;
#X obj 403 75 inlet;
#X msg 12 142 1 50 1 \, 2 55 1 \, 3 62 1 \, 4 55 1 \, 5 53 1 \, 6 57
1 \, 7 53 1 \, 8 62 1 \, 9 55 1 \, 10 0 1 \, 11 43 1 \, 12 0 1 \, 13
62 1 \, 14 0 1 \, 15 58 1 \, 16 0 1 \,;
#X msg 27 194 1 86 1 \, 2 0 1 \, 3 0 1 \, 4 0 1 \, 5 0 1 \, 6 0 1 \,
7 0 1 \, 8 0 1 \, 9 0 1 \, 10 0 1 \, 11 0 1 \, 12 0 1 \, 13 0 0 \,
14 0 0 \, 15 0 0 \, 16 0 0 \,;
#X msg 43 237 1 84 1 \, 2 0 1 \, 3 86 1 \, 4 0 1 \, 5 0 1 \, 6 0 1
\, 7 0 1 \, 8 0 0 \, 9 0 0 \, 10 0 0 \, 11 0 0 \, 12 0 0 \, 13 89 1
\, 14 0 1 \, 15 86 1 \, 16 0 0 \,;
#X msg 59 283 1 77 1 \, 2 0 1 \, 3 0 1 \, 4 62 1 \, 5 0 1 \, 6 0 1
\, 7 0 0 \, 8 55 1 \, 9 36 1 \, 10 45 1 \, 11 0 0 \, 12 0 0 \, 13 91
1 \, 14 0 1 \, 15 0 1 \, 16 0 0 \,;
#X obj 12 114 abs/switch 1;
#X obj 113 115 abs/switch 2;
#X obj 222 114 abs/switch 3;
#X obj 322 114 abs/switch 4;
#X connect 0 0 7 0;
#X connect 0 0 8 0;
#X connect 0 0 9 0;
#X connect 0 0 10 0;
#X connect 2 0 7 1;
#X connect 2 0 8 1;
#X connect 2 0 9 1;
#X connect 2 0 10 1;
#X connect 3 0 1 0;
#X connect 4 0 1 0;
#X connect 5 0 1 0;
#X connect 6 0 1 0;
#X connect 7 0 3 0;
#X connect 8 0 4 0;
#X connect 9 0 5 0;
#X connect 10 0 6 0;
#X restore 259 498 pd patternselect;
#X obj 336 379 r \$0-Pattern;
#X obj 336 431 int;
#X obj 336 473 t b f;
#X obj 336 452 change -1;
#X obj 336 405 m_scale 0 1 1 4;
#X connect 0 0 18 0;
#X connect 1 0 3 0;
#X connect 4 0 12 1;
#X connect 5 0 12 2;
#X connect 6 0 24 0;
#X connect 7 0 8 0;
#X connect 8 0 9 0;
#X connect 8 0 14 0;
#X connect 9 0 8 1;
#X connect 10 0 8 1;
#X connect 11 0 27 0;
#X connect 12 0 13 0;
#X connect 13 0 27 0;
#X connect 14 0 12 0;
#X connect 14 1 16 0;
#X connect 14 2 17 0;
#X connect 15 0 7 0;
#X connect 18 0 27 0;
#X connect 18 1 15 0;
#X connect 18 2 10 0;
#X connect 18 3 11 0;
#X connect 20 0 19 0;
#X connect 21 0 22 0;
#X connect 22 0 1 1;
#X connect 23 0 21 0;
#X connect 24 0 23 0;
#X connect 27 0 2 0;
#X connect 27 0 1 0;
#X connect 28 0 32 0;
#X connect 29 0 31 0;
#X connect 30 0 27 0;
#X connect 30 1 27 1;
#X connect 31 0 30 0;
#X connect 32 0 29 0;
#X coords 0 -1 1 1 582 120 2 100 100;
#X restore -86 58 pd \$0-INPUT;
#N canvas 114 126 423 469 \$0-DSP 0;
#N canvas 78 80 682 535 megahip 0;
#X obj 71 261 inlet~;
#X obj 71 397 outlet~;
#X obj 180 261 inlet~;
#X obj 180 397 outlet~;
#X msg 270 246 \$1 100;
#X obj 270 93 r \$0-Hipass;
#X obj 270 149 m_scale 0 1 60 2000;
#X obj 180 310 hip~ 2000;
#X obj 180 332 hip~ 2000;
#X obj 180 358 hip~ 2000;
#X obj 71 357 hip~ 2000;
#X obj 71 331 hip~ 2000;
#X obj 71 310 hip~ 2000;
#X obj 270 267 line;
#X connect 0 0 12 0;
#X connect 2 0 7 0;
#X connect 4 0 13 0;
#X connect 5 0 6 0;
#X connect 6 0 4 0;
#X connect 7 0 8 0;
#X connect 8 0 9 0;
#X connect 9 0 3 0;
#X connect 10 0 1 0;
#X connect 11 0 10 0;
#X connect 12 0 11 0;
#X connect 13 0 7 1;
#X connect 13 0 8 1;
#X connect 13 0 9 1;
#X connect 13 0 10 1;
#X connect 13 0 11 1;
#X connect 13 0 12 1;
#X restore 103 185 pd megahip;
#N canvas 139 22 1097 720 remedysynth 0;
#X msg 713 144 pwmdepth \$1;
#X msg 847 143 pwmfreq \$1;
#X obj 713 170 s \$0-s_osc;
#X obj 518 170 s \$0-s_osc;
#X obj 188 257 mtof;
#X obj 614 169 s \$0-s_osc;
#X msg 614 147 phase \$1;
#X msg 518 147 trislope \$1;
#X obj 230 79 line;
#X obj 188 281 s_osc saw1 saw;
#X obj 368 248 mtof;
#X obj 368 224 - \$1;
#X msg 230 59 \$1 2;
#X msg 398 203 0.18;
#X obj 398 13 loadbang;
#X msg 518 126 0.165;
#X msg 614 126 1.04;
#X obj 144 281 osc~;
#X obj 144 257 mtof;
#X obj 144 231 - 12;
#X obj 222 658 outlet~ LEFT;
#X obj 390 659 outlet~ RIGHT;
#X obj 474 210 r \$0-s_osc;
#X obj 369 273 s_osc saw3 square;
#X obj 222 531 e_bitcrusher;
#X msg 394 485 depth \$1;
#X obj 509 296 phasor~;
#X obj 510 275 mtof;
#X obj 509 320 *~;
#X obj 510 254 + 24;
#X obj 394 465 + 1;
#X obj 394 397 r \$0-Bitcrush;
#X obj 577 295 lop~ 20;
#X obj 577 254 r \$0-Phasor;
#X obj 577 275 m_scale 0 1 0 2;
#X obj 230 300 r \$0-Saw;
#X obj 387 301 r \$0-Square;
#X msg 791 116 4.5;
#X msg 674 103 9;
#X obj 394 418 m_scale 0 1 1 0;
#X obj 394 445 * 5;
#X obj 184 0 inlet;
#X obj 184 38 moses 1;
#X obj 184 19 unpack f f;
#X obj 279 59 s \$0-off;
#X obj 240 457 r \$0-off;
#X obj 222 431 *~ 1;
#X msg 303 511 dry \$1;
#X msg 305 489 0.2;
#X obj 325 463 loadbang;
#X obj 222 593 delwrite~ synth 30;
#X obj 222 613 delread~ synth 30;
#X obj 222 496 *~;
#X obj 241 476 lop~ 200;
#X obj 230 321 lop~ 20;
#X obj 188 341 *~;
#X obj 387 323 lop~ 20;
#X obj 369 343 *~;
#X connect 0 0 2 0;
#X connect 1 0 2 0;
#X connect 4 0 9 0;
#X connect 6 0 5 0;
#X connect 7 0 3 0;
#X connect 8 0 19 0;
#X connect 8 0 4 0;
#X connect 8 0 11 0;
#X connect 8 0 29 0;
#X connect 9 0 55 0;
#X connect 10 0 23 0;
#X connect 11 0 10 0;
#X connect 12 0 8 0;
#X connect 13 0 11 1;
#X connect 14 0 15 0;
#X connect 14 0 16 0;
#X connect 14 0 13 0;
#X connect 14 0 38 0;
#X connect 14 0 37 0;
#X connect 15 0 7 0;
#X connect 16 0 6 0;
#X connect 17 0 55 0;
#X connect 18 0 17 0;
#X connect 19 0 18 0;
#X connect 22 0 9 1;
#X connect 22 0 23 1;
#X connect 23 0 57 0;
#X connect 24 0 21 0;
#X connect 24 0 50 0;
#X connect 25 0 24 1;
#X connect 26 0 28 0;
#X connect 27 0 26 0;
#X connect 28 0 46 0;
#X connect 29 0 27 0;
#X connect 30 0 25 0;
#X connect 31 0 39 0;
#X connect 32 0 28 1;
#X connect 33 0 34 0;
#X connect 34 0 32 0;
#X connect 35 0 54 0;
#X connect 36 0 56 0;
#X connect 37 0 1 0;
#X connect 38 0 0 0;
#X connect 39 0 40 0;
#X connect 40 0 30 0;
#X connect 41 0 43 0;
#X connect 42 1 12 0;
#X connect 43 0 42 0;
#X connect 43 1 44 0;
#X connect 45 0 53 0;
#X connect 46 0 52 0;
#X connect 47 0 24 1;
#X connect 48 0 47 0;
#X connect 49 0 48 0;
#X connect 51 0 20 0;
#X connect 52 0 24 0;
#X connect 53 0 52 1;
#X connect 54 0 55 1;
#X connect 55 0 46 0;
#X connect 56 0 57 1;
#X connect 57 0 46 0;
#X restore 103 124 pd remedysynth;
#X obj 103 326 outlet~;
#X obj 170 326 outlet~;
#X obj 103 51 inlet;
#N canvas 111 28 744 616 tiltpan 0;
#X obj 246 188 r #accelerate;
#N canvas 123 50 608 497 accelpan 0;
#X text 190 183 * ~M_PI/2;
#X obj 117 175 * 1.5708;
#X obj 117 60 inlet;
#X obj 38 62 inlet~;
#X obj 39 351 outlet~;
#X obj 130 355 outlet~;
#X obj 58 207 cos;
#X obj 147 209 sin;
#X msg 168 132 0.5;
#X obj 201 133 f \$1;
#N canvas 0 22 715 450 check-arg 0;
#X obj 179 184 makefilename $%d-EMPTY;
#X obj 52 185 symbol \$1-EMPTY;
#X msg 69 156 bang;
#X obj 52 217 select DUMMY;
#X obj 52 39 loadbang;
#X obj 52 62 t b b;
#X obj 179 157 1;
#X obj 52 294 outlet;
#X text 182 85 Using an idiom by IOhannes;
#X msg 133 250 1;
#X msg 52 246 0;
#X text 182 247 Output 0 if no \$1 argument present \, and 1 if \$1
is present even if it's 0!;
#X connect 0 0 3 1;
#X connect 1 0 3 0;
#X connect 2 0 1 0;
#X connect 3 0 10 0;
#X connect 3 1 9 0;
#X connect 4 0 5 0;
#X connect 5 0 1 0;
#X connect 5 1 6 0;
#X connect 6 0 0 0;
#X connect 9 0 7 0;
#X connect 10 0 7 0;
#X restore 168 59 pd check-arg;
#X obj 168 85 select 0 1;
#X obj 130 324 *~;
#X obj 39 320 *~;
#X obj 147 293 line~;
#X obj 147 267 pack 0 10;
#X obj 58 296 line~;
#X obj 58 270 pack 0 10;
#X obj 76 88 inlet~;
#X connect 1 0 6 0;
#X connect 1 0 7 0;
#X connect 2 0 1 0;
#X connect 3 0 13 0;
#X connect 6 0 17 0;
#X connect 7 0 15 0;
#X connect 8 0 1 0;
#X connect 9 0 1 0;
#X connect 10 0 11 0;
#X connect 11 0 8 0;
#X connect 11 1 9 0;
#X connect 12 0 5 0;
#X connect 13 0 4 0;
#X connect 14 0 12 1;
#X connect 15 0 14 0;
#X connect 16 0 13 1;
#X connect 17 0 16 0;
#X connect 18 0 12 0;
#X restore 50 353 pd accelpan;
#X obj 246 235 unpack f f f;
#X obj 246 260 m_scale -1 1 0 1;
#X obj 246 286 * 10;
#X obj 246 307 int;
#X obj 246 328 * 0.1;
#X text 297 308 removing dirtyness;
#X obj 50 212 inlet~;
#X obj 87 235 inlet~;
#X obj 50 425 outlet~;
#X obj 124 406 outlet~;
#X connect 0 0 2 0;
#X connect 1 0 10 0;
#X connect 1 1 11 0;
#X connect 2 0 3 0;
#X connect 3 0 4 0;
#X connect 4 0 5 0;
#X connect 5 0 6 0;
#X connect 6 0 1 2;
#X connect 8 0 1 0;
#X connect 9 0 1 1;
#X restore 103 262 pd tiltpan;
#N canvas 0 22 1104 607 stereofilter 0;
#X obj 251 406 e_reslop mylop 2000;
#X msg 432 343 freq \$1;
#X msg 593 345 q \$1;
#X obj 80 407 e_reslop mylop 2000;
#X obj 593 298 clip 20 127;
#X obj 726 299 clip 50 115;
#X obj 637 243 * 100;
#X obj 250 483 *~;
#X obj 79 483 *~;
#X obj 349 436 lop~ 10;
#X obj 413 219 loadbang;
#X msg 413 241 1;
#X obj 593 321 m_scale 20 127 9 0;
#X obj 726 321 m_scale 115 50 1 6;
#X obj 597 46 r #accelerate;
#X obj 637 156 line;
#X obj 637 222 * 2;
#X obj 637 179 + 1;
#X obj 637 200 max 0.1;
#X obj 250 507 *~ 0.6;
#X obj 79 507 *~ 0.6;
#X obj 597 67 unpack f f f;
#X msg 637 135 \$1 200;
#X obj 80 347 inlet~;
#X obj 251 348 inlet~;
#X obj 250 529 outlet~;
#X obj 79 529 outlet~;
#X obj 637 102 clip -1 0;
#X obj 432 301 clip 20 127;
#X obj 432 321 m_scale 20 127 85 3000;
#X connect 0 0 7 0;
#X connect 1 0 0 1;
#X connect 1 0 3 1;
#X connect 2 0 0 1;
#X connect 2 0 3 1;
#X connect 3 0 8 0;
#X connect 4 0 12 0;
#X connect 5 0 13 0;
#X connect 6 0 4 0;
#X connect 6 0 5 0;
#X connect 6 0 28 0;
#X connect 7 0 19 0;
#X connect 8 0 20 0;
#X connect 9 0 7 1;
#X connect 9 0 8 1;
#X connect 10 0 11 0;
#X connect 11 0 7 1;
#X connect 11 0 8 1;
#X connect 11 0 6 0;
#X connect 12 0 2 0;
#X connect 13 0 9 0;
#X connect 14 0 21 0;
#X connect 15 0 17 0;
#X connect 16 0 6 0;
#X connect 17 0 18 0;
#X connect 18 0 16 0;
#X connect 19 0 25 0;
#X connect 20 0 26 0;
#X connect 21 1 27 0;
#X connect 22 0 15 0;
#X connect 23 0 3 0;
#X connect 24 0 0 0;
#X connect 27 0 22 0;
#X connect 28 0 29 0;
#X connect 29 0 1 0;
#X restore 103 236 pd stereofilter;
#N canvas 457 39 497 372 pattern 0;
#X obj 77 280 *~;
#X obj 198 280 *~;
#X obj 365 58 mod 2;
#X text 408 85 pattern;
#X obj 365 81 == 0;
#X obj 365 102 * 1.5;
#X obj 197 155 inlet~;
#X obj 77 155 inlet~;
#X obj 77 306 outlet~;
#X obj 198 306 outlet~;
#X obj 365 31 r \$0-tick;
#X obj 305 180 pipe 30;
#X obj 305 226 lop~ 10;
#X obj 365 226 lop~ 12;
#X connect 0 0 8 0;
#X connect 1 0 9 0;
#X connect 2 0 4 0;
#X connect 4 0 5 0;
#X connect 5 0 11 0;
#X connect 5 0 13 0;
#X connect 6 0 1 0;
#X connect 7 0 0 0;
#X connect 10 0 2 0;
#X connect 11 0 12 0;
#X connect 12 0 0 1;
#X connect 13 0 1 1;
#X restore 103 209 pd pattern;
#X obj 103 291 *~ 0.7;
#X obj 170 291 *~ 0.7;
#X connect 0 0 7 0;
#X connect 0 1 7 1;
#X connect 1 0 0 0;
#X connect 1 1 0 1;
#X connect 4 0 1 0;
#X connect 5 0 8 0;
#X connect 5 1 9 0;
#X connect 6 0 5 0;
#X connect 6 1 5 1;
#X connect 7 0 6 0;
#X connect 7 1 6 1;
#X connect 8 0 2 0;
#X connect 9 0 3 0;
#X restore -86 209 pd \$0-DSP;
#X obj -86 253 outlet~;
#X obj -26 253 outlet~;
#X obj 530 253 outlet;
#X obj 530 32 inlet;
#N canvas 176 142 634 505 \$0-PARAMETERS 0;
#X obj 303 314 outlet;
#X obj -48 107 s \$0-tick;
#X obj -48 45 inlet;
#X obj -48 77 route tick bpm rootnote;
#X obj 299 132 cnv 15 187 146 empty empty empty 10 12 1 14 -162280
-262144 0;
#X obj 106 132 cnv 15 187 146 empty empty RJC_Parameters 10 12 1 14
-162280 -262144 0;
#X obj 106 106 cnv 15 380 20 empty empty Remedy 155 11 1 14 -261234
-33289 0;
#X obj 110 153 rjc_parameter_floatrange \$0 Saw 0.9;
#X obj 110 188 rjc_parameter_floatrange \$0 Square 0.7;
#X obj 110 223 rjc_parameter_floatrange \$0 Phasor 0.2;
#X obj 303 153 rjc_parameter_floatrange \$0 Bitcrush;
#X obj 303 188 rjc_parameter_floatrange \$0 Hipass;
#X obj 303 223 rjc_parameter_floatrange \$0 Pattern 0.1;
#X connect 2 0 3 0;
#X connect 3 0 1 0;
#X connect 3 3 7 0;
#X connect 7 0 8 0;
#X connect 8 0 9 0;
#X connect 9 0 10 0;
#X connect 10 0 11 0;
#X connect 11 0 12 0;
#X connect 12 0 0 0;
#X coords 0 -1 1 1 392 185 2 100 100;
#X restore 530 58 pd \$0-PARAMETERS;
#N canvas 77 321 498 216 MODULE_INFO 0;
#X text 65 148 DECORATOR: s1m1-s2m1;
#X text 65 168 TAGS:;
#X text 66 78 AUTHORS: Reality Jockey;
#X text 66 57 NAME: Remedy;
#X text 65 98 DESCRIPTION: Sawtooth synth. Tilt the device towards
you to sweep the lo-pass filter and sideways to control panning. The
pattern it plays can be edited in expert mode.;
#X restore -86 7 pd MODULE_INFO;
#X connect 1 0 2 0;
#X connect 2 0 3 0;
#X connect 2 1 4 0;
#X connect 6 0 7 0;
#X connect 7 0 5 0;
