#N canvas 0 22 510 337 10;
#N canvas 93 135 503 278 MODULE_INFO 0;
#X text 65 159 decorator: s1m1-s2m1;
#X text 66 57 name: The Pianist;
#X text 66 78 authors: Reality Jockey \, Andy Farnell;
#X text 65 179 tags: ambient pleasant floaty generative;
#X text 65 98 description: The Pianist plays you randomly generated
chords. Articulate is the difference between playing the notes together
and spreading out and MajMin chooses between major and minor chords.
;
#X restore 67 -8 pd MODULE_INFO;
#X obj 66 286 outlet~;
#X obj 126 286 outlet~;
#X obj 299 203 outlet;
#X obj 299 32 inlet;
#N canvas 466 68 611 493 \$0-DSP 0;
#X obj 205 368 outlet~;
#X obj 266 369 outlet~;
#N canvas 72 176 827 636 piano 0;
#X obj 322 401 *~ 0.25;
#X obj 328 348 pack f 2;
#X obj 381 302 random 120;
#X obj 381 325 + 10;
#X obj 37 292 u_listser;
#X obj 102 270 u_listmap;
#X obj 186 270 m_majorscale 60;
#X obj 349 282 t f b;
#X obj 85 115 del;
#N canvas 0 22 646 369 rand6seq 0;
#X msg 324 246;
#X msg 338 57 6;
#X obj 338 80 until;
#X msg 383 58 0;
#X obj 338 168 f;
#X obj 428 193 +;
#X obj 428 137 t f b;
#X obj 455 157 random 3;
#X obj 338 206 u_collect;
#X obj 455 176 + 1;
#X obj 304 30 t b b b b;
#X obj 304 6 inlet;
#X obj 324 269 outlet;
#X text 276 289 generate a monotomic sequence of six ints starting
at zero and increasing by between 1 and 4 each step;
#X connect 0 0 12 0;
#X connect 1 0 2 0;
#X connect 2 0 4 0;
#X connect 3 0 4 1;
#X connect 4 0 6 0;
#X connect 4 0 8 0;
#X connect 5 0 4 1;
#X connect 6 0 5 0;
#X connect 6 1 7 0;
#X connect 7 0 9 0;
#X connect 8 0 0 0;
#X connect 9 0 5 1;
#X connect 10 0 8 1;
#X connect 10 1 0 0;
#X connect 10 2 1 0;
#X connect 10 3 3 0;
#X connect 11 0 10 0;
#X restore 102 244 pd rand6seq;
#X obj 85 143 f;
#X obj 47 34 t f f b;
#X obj 58 188 t b;
#X obj 68 77 spigot;
#X msg 123 136 0;
#X obj -156 -96 t b b;
#X obj 45 4 t f b b;
#X msg 113 62 1;
#X obj 334 139 / 127;
#X obj 334 164 * 50;
#X obj 334 187 + 35;
#X obj -17 61 pow;
#X obj -77 -53 swap 1;
#X obj -76 -32 -;
#X obj -76 -12 + 0.01;
#X obj 57 -100 swap 60000;
#X obj 43 -74 /;
#X obj 42 -52 / 4;
#X obj 46 -22 f 125;
#X obj -77 -76 pow 2;
#X obj 54 -121 inlet tempo;
#X obj 334 115 inlet rootnote;
#X obj -79 -123 inlet articulation;
#X obj -157 -123 inlet trig;
#X obj 321 422 outlet~;
#X obj 516 397 *~ 0.25;
#X obj 515 418 outlet~;
#X obj 283 78 route maj min;
#X obj 211 245 m_minorscale 60;
#X obj 322 215 t f f;
#X msg 361 -13 maj;
#X msg 395 -14 min;
#X obj 283 25 list prepend;
#X obj 283 50 list trim;
#X obj 361 -38 sel 0 1;
#X obj 361 -66 inlet majmin;
#X msg 350 253 70;
#X obj 322 374 abs/u_makepoly 6 1 p1 MYINSr;
#X connect 0 0 34 0;
#X connect 1 0 47 0;
#X connect 2 0 3 0;
#X connect 3 0 1 1;
#X connect 4 0 7 0;
#X connect 4 1 14 0;
#X connect 5 0 4 1;
#X connect 5 1 42 0;
#X connect 6 0 5 1;
#X connect 7 0 1 0;
#X connect 7 1 2 0;
#X connect 8 0 10 0;
#X connect 9 0 5 0;
#X connect 10 0 12 0;
#X connect 10 0 21 0;
#X connect 11 0 13 0;
#X connect 11 1 10 1;
#X connect 12 0 4 0;
#X connect 13 0 8 0;
#X connect 14 0 13 1;
#X connect 15 0 28 0;
#X connect 15 1 9 0;
#X connect 16 0 11 0;
#X connect 16 1 17 0;
#X connect 16 2 12 0;
#X connect 17 0 13 1;
#X connect 18 0 19 0;
#X connect 19 0 20 0;
#X connect 20 0 39 0;
#X connect 21 0 11 0;
#X connect 22 0 23 0;
#X connect 22 1 23 1;
#X connect 23 0 24 0;
#X connect 24 0 21 1;
#X connect 25 0 26 0;
#X connect 25 1 26 1;
#X connect 26 0 27 0;
#X connect 27 0 28 1;
#X connect 28 0 16 0;
#X connect 29 0 22 0;
#X connect 30 0 25 0;
#X connect 31 0 18 0;
#X connect 32 0 29 0;
#X connect 33 0 15 0;
#X connect 35 0 36 0;
#X connect 37 0 6 0;
#X connect 37 1 38 0;
#X connect 38 0 5 1;
#X connect 39 0 38 1;
#X connect 39 1 6 1;
#X connect 40 0 42 1;
#X connect 41 0 42 1;
#X connect 42 0 43 0;
#X connect 43 0 37 0;
#X connect 44 0 40 0;
#X connect 44 1 41 0;
#X connect 45 0 44 0;
#X connect 46 0 7 0;
#X connect 47 0 0 0;
#X connect 47 1 35 0;
#X restore 207 249 pd piano guts;
#X obj 251 100 r \$0-bpm;
#X obj 273 71 r \$0-rootnote;
#X obj 147 135 r \$0-tick;
#X obj 147 157 mod 64;
#X obj 147 179 sel 0;
#X obj 251 130 / 6;
#X obj 227 330 e_reverb rev1;
#X obj 315 284 loadbang;
#X msg 315 308 amp 86 \, hall 90 \, freq 6000 \, damp 60;
#X obj 229 156 r \$0-Articulate;
#X obj 295 223 int;
#X obj 295 203 + 0.5;
#X obj 295 182 r \$0-MajMin;
#X connect 2 0 0 0;
#X connect 2 0 9 0;
#X connect 2 1 1 0;
#X connect 2 1 9 0;
#X connect 3 0 8 0;
#X connect 4 0 2 3;
#X connect 5 0 6 0;
#X connect 6 0 7 0;
#X connect 7 0 2 0;
#X connect 8 0 2 2;
#X connect 9 0 0 0;
#X connect 9 1 1 0;
#X connect 10 0 11 0;
#X connect 11 0 9 1;
#X connect 12 0 2 1;
#X connect 13 0 2 4;
#X connect 14 0 13 0;
#X connect 15 0 14 0;
#X restore 67 129 pd \$0-DSP;
#N canvas 0 22 807 334 \$0-INPUT 0;
#X obj 77 47 inlet~;
#X obj 77 216 outlet~;
#X connect 0 0 1 0;
#X coords 0 0 1 1 85 40 0;
#X restore 67 69 pd \$0-INPUT;
#X obj 67 18 inlet~ MIC;
#N canvas 108 83 738 351 \$0-PARAMETERS 0;
#X obj 109 250 outlet;
#X obj -49 121 s \$0-tick;
#X obj -49 -5 inlet;
#X obj 106 132 cnv 15 187 97 empty empty RJC_Parameters 10 12 1 14
-162280 -262144 0;
#X obj 106 106 cnv 15 187 20 empty empty The_Pianist 52 11 1 14 -261234
-33289 0;
#X obj 3 96 s \$0-bpm;
#X obj 56 74 s \$0-rootnote;
#X obj 109 194 rjc_parameter_floatrange \$0 MajMin 0;
#X obj -49 27 route tick bpm rootnote;
#X obj 109 160 rjc_parameter_floatrange \$0 Articulate 0.5;
#X connect 2 0 8 0;
#X connect 7 0 0 0;
#X connect 8 0 1 0;
#X connect 8 1 5 0;
#X connect 8 2 6 0;
#X connect 8 3 9 0;
#X connect 9 0 7 0;
#X coords 0 -1 1 1 199 135 2 100 100;
#X restore 299 58 pd \$0-PARAMETERS;
#X connect 4 0 8 0;
#X connect 5 0 1 0;
#X connect 5 1 2 0;
#X connect 7 0 6 0;
#X connect 8 0 3 0;
