#N canvas 149 63 947 796 10;
#X declare -path .;
#X declare -path ./rj;
#X declare -path ./list-abs;
#X obj 100 529 hip~ 80;
#X obj 102 619 soundoutput;
#N canvas 0 0 450 300 init 0;
#X obj 41 63 declare -path .;
#X obj 41 85 declare -path ./rj;
#X obj 248 68 loadbang;
#X msg 248 90 cosinesum 1024 0 1;
#X obj 248 112 s \$0-cos;
#X obj 42 106 declare -path ./list-abs;
#X connect 2 0 3 0;
#X connect 3 0 4 0;
#X restore 45 34 pd init;
#X obj 46 10 table \$0-cos 1027;
#X obj 205 529 hip~ 80;
#X floatatom 258 554 5 0 0 0 - - -;
#X obj 310 537 loadbang;
#X obj 654 92 loadbang;
#X obj 206 554 *~ 2;
#X obj 101 554 *~ 2;
#N canvas 707 326 480 381 random-delsin 0;
#X obj 153 173 + 0.37;
#X obj 153 85 b;
#X obj 153 23 tgl 15 0 empty empty empty 17 7 0 10 -262144 -1 -1 0
1;
#X msg 122 256 delsin \$1;
#X obj 153 59 metro 24000;
#X obj 177 24 loadbang;
#X obj 122 278 outlet;
#N canvas 509 285 450 300 seed 0;
#X obj 106 86 r~ SOUNDIN;
#X obj 106 131 snapshot~;
#X floatatom 119 179 12 0 0 0 - - -;
#X obj 96 34 loadbang;
#X obj 95 58 delay 2135;
#X msg 62 210 seed \$1;
#X obj 106 154 * 1278.12;
#X obj 62 238 outlet;
#X connect 0 0 1 0;
#X connect 1 0 6 0;
#X connect 3 0 4 0;
#X connect 4 0 1 0;
#X connect 5 0 7 0;
#X connect 6 0 2 0;
#X connect 6 0 5 0;
#X restore 195 84 pd seed;
#X floatatom 103 197 5 0 0 0 - - -;
#X obj 153 108 random 1000;
#X obj 153 138 / 100000;
#X msg 160 199 bang;
#X obj 121 229 random 10000;
#X connect 0 0 8 0;
#X connect 1 0 9 0;
#X connect 2 0 4 0;
#X connect 3 0 6 0;
#X connect 4 0 1 0;
#X connect 4 0 12 0;
#X connect 5 0 4 0;
#X connect 7 0 9 0;
#X connect 9 0 10 0;
#X connect 10 0 0 0;
#X connect 11 0 12 0;
#X connect 12 0 3 0;
#X restore 667 137 pd random-delsin;
#X obj 103 82 soundinput;
#X obj 102 161 lop~ 5000;
#X obj 101 197 e_specdelay x 512;
#X obj 520 62 u_loadmeter;
#N canvas 0 0 971 826 compress 0;
#X obj 138 312 e_dynproc xxxxx;
#X msg 240 276 comp2 1 \, comp1 21 \, makeup 493 \, rel 724 \, att
20 \, thresh 78.9873 \,;
#X obj 333 117 loadbang;
#X obj 139 96 inlet~;
#X obj 138 344 outlet~;
#X obj 140 197 e_dynproc xxxxx;
#X text 268 199 noise gate;
#X msg 242 171 comp2 152 \, comp1 1 \, rel 200 \, att 20 \, thresh
70 \,;
#X text 265 310 compress;
#X connect 0 0 4 0;
#X connect 1 0 0 2;
#X connect 2 0 1 0;
#X connect 2 0 7 0;
#X connect 3 0 5 0;
#X connect 3 0 5 1;
#X connect 5 0 0 0;
#X connect 5 0 0 1;
#X connect 7 0 5 2;
#X restore 103 133 pd compress;
#X obj 698 260 u_loadmeter;
#X obj 698 293 list prepend LOAD;
#X obj 698 341 s NETPRINT;
#X obj 762 321 tgl 15 0 empty empty empty 17 7 0 10 -262144 -1 -1 0
1;
#N canvas 0 0 450 300 netprinter 0;
#X obj 138 55 inlet;
#X obj 138 159 spigot;
#X obj 138 190 netsend 1;
#X msg 219 159 connect 192.168.0.1 9000;
#X obj 219 128 loadbang;
#X obj 138 86 list prepend send;
#X obj 138 108 list trim;
#X obj 189 56 r NETPRINT;
#X obj 138 216 outlet;
#X floatatom 290 51 5 0 0 0 - - -;
#X msg 222 181 disconnect;
#X obj 341 68 inlet;
#X obj 334 101 select 1 0;
#X connect 0 0 5 0;
#X connect 1 0 2 0;
#X connect 2 0 1 1;
#X connect 2 0 8 0;
#X connect 3 0 2 0;
#X connect 5 0 6 0;
#X connect 6 0 1 0;
#X connect 7 0 5 0;
#X connect 9 0 5 0;
#X connect 10 0 2 0;
#X connect 11 0 12 0;
#X connect 12 0 3 0;
#X connect 12 1 10 0;
#X restore 697 363 pd netprinter;
#X obj 698 227 loadbang;
#X obj 698 319 spigot 1;
#N canvas 0 0 818 447 limit 0;
#X obj 138 192 e_dynproc xxxxx;
#X obj 240 131 loadbang;
#X obj 139 96 inlet~;
#X obj 138 224 outlet~;
#X msg 240 153 comp2 1 \, comp1 122 \, thresh 91.1392 \,;
#X connect 0 0 3 0;
#X connect 1 0 4 0;
#X connect 2 0 0 0;
#X connect 2 0 0 1;
#X connect 4 0 0 2;
#X restore 101 595 pd limit;
#N canvas 0 0 818 447 limit 0;
#X obj 138 192 e_dynproc xxxxx;
#X obj 240 131 loadbang;
#X obj 139 96 inlet~;
#X obj 138 224 outlet~;
#X msg 240 153 comp2 1 \, comp1 122 \, thresh 91.1392 \,;
#X connect 0 0 3 0;
#X connect 1 0 4 0;
#X connect 2 0 0 0;
#X connect 2 0 0 1;
#X connect 4 0 0 2;
#X restore 206 595 pd limit;
#X msg 310 558 7;
#X obj 195 133 s~ SOUNDIN;
#X obj 786 344 tgl 15 0 empty empty empty 17 7 0 10 -262144 -1 -1 0
1;
#X msg 654 115 delay-depth 0.3 \, pansin 26;
#N canvas 0 0 1022 650 gain-feed 0;
#X msg 257 254 randgain bang \, randfeed bang;
#X obj 257 42 loadbang;
#X msg 257 71 1;
#X obj 257 95 tgl 15 0 empty empty empty 17 7 0 10 -262144 -1 -1 1
1;
#X msg 493 264 fbsin \$1;
#X floatatom 509 243 5 0 0 0 - - -;
#X floatatom 626 251 5 0 0 0 - - -;
#X msg 567 309 gain-sin \$1;
#X obj 493 222 random 10000;
#X obj 585 224 random 10000;
#X obj 257 113 metro 8000;
#X obj 257 151 f;
#X obj 289 152 ==;
#X obj 257 187 select 0 1;
#X obj 515 398 outlet;
#X obj 493 195 t b b;
#X connect 0 0 14 0;
#X connect 1 0 2 0;
#X connect 2 0 3 0;
#X connect 3 0 10 0;
#X connect 4 0 14 0;
#X connect 5 0 4 0;
#X connect 6 0 7 0;
#X connect 7 0 14 0;
#X connect 8 0 4 0;
#X connect 9 0 7 0;
#X connect 10 0 15 0;
#X connect 11 0 12 0;
#X connect 11 0 13 0;
#X connect 12 0 11 1;
#X connect 13 0 0 0;
#X connect 13 1 15 0;
#X connect 15 0 8 0;
#X connect 15 1 9 0;
#X restore 676 160 pd gain-feed;
#X msg 789 321 0;
#X obj 837 295 loadbang;
#X msg 833 322 1;
#X connect 0 0 9 0;
#X connect 4 0 8 0;
#X connect 5 0 8 1;
#X connect 5 0 9 1;
#X connect 6 0 25 0;
#X connect 7 0 28 0;
#X connect 8 0 24 0;
#X connect 9 0 23 0;
#X connect 10 0 13 1;
#X connect 11 0 15 0;
#X connect 11 0 26 0;
#X connect 12 0 13 0;
#X connect 13 0 0 0;
#X connect 13 1 4 0;
#X connect 15 0 12 0;
#X connect 16 0 17 0;
#X connect 17 0 22 0;
#X connect 19 0 22 1;
#X connect 21 0 16 0;
#X connect 22 0 18 0;
#X connect 23 0 1 0;
#X connect 24 0 1 1;
#X connect 25 0 5 0;
#X connect 27 0 20 1;
#X connect 28 0 13 1;
#X connect 29 0 13 1;
#X connect 30 0 27 0;
#X connect 31 0 30 0;
#X connect 32 0 27 0;
