#N canvas 36 286 680 355 10;
#X obj 142 73 netreceive 9000 1;
#X floatatom 142 126 5 0 0 0 - - -;
#X obj 296 97 u_loadmeter;
#X obj 296 130 list prepend LOAD;
#X obj 296 178 s NETPRINT;
#X obj 360 158 tgl 15 0 empty empty empty 17 7 0 10 -262144 -1 -1 0
1;
#N canvas 0 0 450 300 netprinter 0;
#X obj 138 55 inlet;
#X obj 138 159 spigot;
#X obj 138 190 netsend 1;
#X msg 219 159 connect 192.168.0.1 9000;
#X obj 219 128 loadbang;
#X obj 138 86 list prepend send;
#X obj 138 108 list trim;
#X obj 189 56 r NETPRINT;
#X obj 138 216 outlet;
#X floatatom 290 51 5 0 0 0 - - -;
#X msg 222 181 disconnect;
#X obj 341 68 inlet;
#X connect 0 0 5 0;
#X connect 1 0 2 0;
#X connect 2 0 1 1;
#X connect 2 0 8 0;
#X connect 3 0 2 0;
#X connect 5 0 6 0;
#X connect 6 0 1 0;
#X connect 7 0 5 0;
#X connect 9 0 5 0;
#X connect 10 0 2 0;
#X connect 11 0 10 0;
#X restore 295 200 pd netprinter;
#X obj 296 64 loadbang;
#X obj 296 156 spigot;
#X floatatom 189 124 5 0 0 0 - - -;
#X obj 142 101 route LOAD vol limit;
#X floatatom 231 124 5 0 0 0 - - -;
#X connect 0 0 10 0;
#X connect 2 0 3 0;
#X connect 3 0 8 0;
#X connect 5 0 8 1;
#X connect 7 0 2 0;
#X connect 8 0 4 0;
#X connect 10 0 1 0;
#X connect 10 1 9 0;
#X connect 10 2 11 0;
