#N canvas 869 34 634 888 10;
#X obj 64 10 table amenbreak;
#N canvas 232 90 344 298 INIT 0;
#X obj 82 113 soundfiler;
#X obj 12 26 loadbang;
#X msg 82 87 read -resize amen.wav amenbreak;
#X obj 82 135 s sample.length;
#X msg 32 207 \; pd dsp 1;
#X msg 52 163 4828.95;
#X text 107 162 1/16th in samples;
#X obj 52 185 s 16th;
#X obj 12 49 t b b b b;
#X obj 12 244 s trigger;
#X obj 100 23 inlet;
#X connect 0 0 3 0;
#X connect 1 0 8 0;
#X connect 2 0 0 0;
#X connect 5 0 7 0;
#X connect 8 0 9 0;
#X connect 8 1 4 0;
#X connect 8 2 5 0;
#X connect 8 3 2 0;
#X connect 10 0 8 0;
#X restore 7 9 pd INIT;
#X obj 27 636 vline~;
#X obj 80 422 r sample.length;
#X obj 27 444 pack f f;
#X obj 27 474 t a a;
#X msg 59 496 \$2 \$1;
#X obj 59 517 -;
#X obj 27 571 list append;
#X obj 25 815 soundoutput;
#X obj 207 615 delay;
#X obj 207 636 s eof;
#X obj 28 665 tabread~ amenbreak;
#X obj 176 452 r 16th;
#X obj 27 414 *;
#X msg 27 358 0;
#X obj 27 322 r eof;
#X msg 188 358 2;
#X msg 122 358 28;
#X msg 221 358 12;
#X msg 288 359 60;
#X obj 102 315 sel 0 1 2 3 4 5 6 7;
#X msg 59 358 16;
#X msg 154 358 8;
#N canvas 681 301 530 462 trigger_logic 0;
#X obj 20 71 random 8;
#X obj 125 281 r 16th;
#X obj 52 282 + 2;
#X obj 52 311 *;
#X obj 52 338 delay;
#X obj 52 359 s trigger;
#X obj 20 5 r trigger;
#X obj 52 125 random 6;
#X obj 20 381 outlet;
#X obj 52 168 t a b;
#X obj 84 192 f;
#X obj 84 215 - 1;
#X obj 84 237 sel 0;
#X msg 84 258 2;
#X obj 20 92 t a b b;
#X msg 365 189 1;
#X obj 365 124 inlet;
#X obj 365 147 spigot 1;
#X obj 365 168 t b b;
#X msg 448 168 0;
#X msg 449 194 1;
#X obj 136 18 inlet;
#X obj 239 19 inlet;
#X text 239 36 average segment length;
#X text 114 69 selection of start-points;
#X text 367 97 trigger 'breaky';
#X obj 394 237 s breaky;
#X obj 52 148 * 2;
#X msg 176 145 2;
#X obj 125 303 samp2ms;
#X connect 0 0 14 0;
#X connect 1 0 29 0;
#X connect 2 0 3 0;
#X connect 3 0 4 0;
#X connect 4 0 5 0;
#X connect 6 0 0 0;
#X connect 7 0 27 0;
#X connect 9 0 2 0;
#X connect 9 1 10 0;
#X connect 10 0 11 0;
#X connect 11 0 10 1;
#X connect 11 0 12 0;
#X connect 12 0 13 0;
#X connect 12 0 20 0;
#X connect 13 0 2 1;
#X connect 14 0 8 0;
#X connect 14 1 7 0;
#X connect 15 0 2 1;
#X connect 15 0 28 0;
#X connect 16 0 17 0;
#X connect 17 0 18 0;
#X connect 18 0 15 0;
#X connect 18 1 19 0;
#X connect 19 0 17 1;
#X connect 19 0 26 0;
#X connect 20 0 17 1;
#X connect 20 0 26 0;
#X connect 21 0 0 1;
#X connect 22 0 7 1;
#X connect 27 0 9 0;
#X connect 28 0 10 1;
#X connect 29 0 3 1;
#X restore 102 227 pd trigger_logic;
#X text 112 209 1-8;
#X text 246 209 breaky;
#X obj 103 184 + 1;
#X obj 7 31 accelerate.local;
#N canvas 560 119 987 546 accel.analysis 0;
#X obj 279 105 r accelerate;
#X obj 280 155 t f f b;
#X obj 303 186 f;
#X obj 280 212 -;
#X obj 280 233 abs;
#X obj 280 282 sel 1;
#X obj 280 350 outlet;
#X obj 3 342 outlet;
#X obj 107 342 outlet;
#X obj 5 61 r accelerate;
#X obj 5 86 route roll pitch;
#X obj 248 309 t b b;
#X obj 5 153 + 1.5;
#X obj 4 274 int;
#X obj 107 226 + 1.5;
#X obj 107 276 int;
#X obj 107 253 * 2;
#X obj 107 303 spigot 1;
#X obj 162 263 r breaky;
#X obj 245 331 0;
#X obj 5 177 / 3;
#X obj 6 200 t f f;
#X obj 6 225 *;
#X obj 4 249 * 8;
#X text 18 35 get orientation;
#X text 268 69 detect shaking -> breaky;
#X obj 743 101 r accelerate;
#X obj 743 127 route roll pitch;
#X obj 743 160 t f f b;
#X obj 761 192 f;
#X obj 743 216 -;
#X obj 801 160 t f f b;
#X obj 819 192 f;
#X obj 801 216 -;
#X obj 743 346 b;
#X text 745 70 detect 'movement';
#X obj 776 396 0;
#X obj 743 373 1;
#X obj 743 430 s movement;
#X obj 776 374 del 2000;
#X obj 743 277 moses -0.2;
#X obj 801 248 moses -0.2;
#X obj 875 270 moses 0.2;
#X obj 817 299 moses 0.2;
#X obj 280 258 > 0.7;
#X obj 279 131 route magnitude;
#X obj 472 90 r accelerate;
#X obj 472 115 route magnitude;
#X obj 472 140 < 1;
#X obj 471 165 sel 0;
#X obj 471 192 s reverse;
#X connect 0 0 45 0;
#X connect 1 0 3 0;
#X connect 1 1 2 1;
#X connect 1 2 2 0;
#X connect 2 0 3 1;
#X connect 3 0 4 0;
#X connect 4 0 44 0;
#X connect 5 0 11 0;
#X connect 9 0 10 0;
#X connect 10 0 12 0;
#X connect 10 1 14 0;
#X connect 11 0 19 0;
#X connect 11 1 6 0;
#X connect 12 0 20 0;
#X connect 13 0 7 0;
#X connect 14 0 16 0;
#X connect 15 0 17 0;
#X connect 16 0 15 0;
#X connect 17 0 8 0;
#X connect 18 0 17 1;
#X connect 19 0 17 1;
#X connect 19 0 8 0;
#X connect 20 0 21 0;
#X connect 21 0 22 0;
#X connect 21 1 22 1;
#X connect 22 0 23 0;
#X connect 23 0 13 0;
#X connect 26 0 27 0;
#X connect 27 0 28 0;
#X connect 27 1 31 0;
#X connect 28 0 30 0;
#X connect 28 1 29 1;
#X connect 28 2 29 0;
#X connect 29 0 30 1;
#X connect 30 0 40 0;
#X connect 31 0 33 0;
#X connect 31 1 32 1;
#X connect 31 2 32 0;
#X connect 32 0 33 1;
#X connect 33 0 41 0;
#X connect 34 0 37 0;
#X connect 34 0 39 0;
#X connect 36 0 38 0;
#X connect 37 0 38 0;
#X connect 39 0 36 0;
#X connect 40 0 34 0;
#X connect 40 1 43 0;
#X connect 41 0 34 0;
#X connect 41 1 42 0;
#X connect 42 1 34 0;
#X connect 43 1 34 0;
#X connect 44 0 5 0;
#X connect 45 0 1 0;
#X connect 46 0 47 0;
#X connect 47 0 48 0;
#X connect 48 0 49 0;
#X connect 49 0 50 0;
#X restore 110 70 pd accel.analysis;
#X msg 90 358 4;
#X obj 155 186 + 1;
#X obj 25 774 bp~ 12000 3;
#X text 174 210 1-6;
#X obj 25 713 throw~ sumL;
#X obj 111 715 throw~ sumR;
#X obj 25 749 catch~ sumL;
#X obj 124 774 bp~ 12000 3;
#X obj 124 749 catch~ sumR;
#X obj 102 276 t a b;
#X obj 172 252 r movement;
#X obj 160 279 s trigger.instr;
#X msg 254 359 0;
#X obj 102 252 spigot 1;
#N canvas 590 256 260 270 ff/bwd 0;
#X obj 20 25 inlet;
#X msg 20 184 \$1 \, \$2 \$3;
#X obj 20 235 outlet;
#X msg 100 184 \$2 \, \$1 \$3;
#X obj 20 159 list;
#X obj 100 161 list;
#X obj 20 47 t b a;
#X obj 20 83 f;
#X obj 20 105 sel 0 1;
#X obj 100 135 t a b;
#X msg 166 107 0;
#X msg 132 64 1;
#X obj 132 41 inlet;
#X connect 0 0 6 0;
#X connect 1 0 2 0;
#X connect 3 0 2 0;
#X connect 4 0 1 0;
#X connect 5 0 3 0;
#X connect 6 0 7 0;
#X connect 6 1 4 1;
#X connect 6 1 5 1;
#X connect 7 0 8 0;
#X connect 8 0 4 0;
#X connect 8 1 9 0;
#X connect 9 0 5 0;
#X connect 9 1 10 0;
#X connect 10 0 7 1;
#X connect 11 0 7 1;
#X connect 12 0 11 0;
#X restore 27 610 pd ff/bwd;
#X obj 29 687 *~ 1.5;
#N canvas 810 325 167 341 turn_it_off 0;
#X obj 22 264 mtof;
#X obj 22 240 line 120 2;
#X obj 22 287 outlet;
#X msg 22 194 45 3000;
#X msg 88 193 127 1000;
#X obj 22 140 delay 10000;
#X obj 22 73 sel 0 1;
#X msg 44 108 stop;
#X obj 22 37 inlet;
#X connect 0 0 2 0;
#X connect 1 0 0 0;
#X connect 3 0 1 0;
#X connect 4 0 1 0;
#X connect 5 0 3 0;
#X connect 6 0 5 0;
#X connect 6 1 7 0;
#X connect 6 1 4 0;
#X connect 7 0 5 0;
#X connect 8 0 6 0;
#X restore 308 739 pd turn_it_off;
#X obj 309 696 r movement;
#X obj 173 552 r reverse;
#X obj 59 540 samp2ms;
#X obj 334 768 print;
#X connect 2 0 12 0;
#X connect 3 0 4 1;
#X connect 4 0 5 0;
#X connect 5 0 8 0;
#X connect 5 1 6 0;
#X connect 6 0 7 0;
#X connect 7 0 49 0;
#X connect 8 0 44 0;
#X connect 10 0 11 0;
#X connect 12 0 45 0;
#X connect 13 0 14 1;
#X connect 14 0 4 0;
#X connect 15 0 14 0;
#X connect 16 0 15 0;
#X connect 17 0 14 0;
#X connect 18 0 14 0;
#X connect 19 0 14 0;
#X connect 20 0 14 0;
#X connect 21 0 22 0;
#X connect 21 1 30 0;
#X connect 21 2 18 0;
#X connect 21 3 23 0;
#X connect 21 4 17 0;
#X connect 21 5 19 0;
#X connect 21 6 42 0;
#X connect 21 7 20 0;
#X connect 22 0 14 0;
#X connect 23 0 14 0;
#X connect 24 0 43 0;
#X connect 27 0 24 0;
#X connect 29 0 27 0;
#X connect 29 1 31 0;
#X connect 29 2 24 2;
#X connect 30 0 14 0;
#X connect 31 0 24 1;
#X connect 32 0 9 0;
#X connect 36 0 32 0;
#X connect 37 0 9 1;
#X connect 38 0 37 0;
#X connect 39 0 21 0;
#X connect 39 1 41 0;
#X connect 40 0 43 1;
#X connect 42 0 14 0;
#X connect 43 0 39 0;
#X connect 44 0 2 0;
#X connect 45 0 34 0;
#X connect 45 0 35 0;
#X connect 46 0 37 1;
#X connect 46 0 32 1;
#X connect 47 0 46 0;
#X connect 47 0 50 0;
#X connect 48 0 44 1;
#X connect 49 0 8 1;
#X connect 49 0 10 0;
