#N canvas 869 34 634 888 10;
#X obj 64 10 table amenbreak;
#N canvas 232 90 344 298 INIT 0;
#X obj 82 113 soundfiler;
#X obj 12 26 loadbang;
#X msg 82 87 read -resize amen.wav amenbreak;
#X obj 82 135 s sample.length;
#X msg 32 207 \; pd dsp 1;
#X msg 52 163 4828.95;
#X text 107 162 1/16th in samples;
#X obj 52 185 s 16th;
#X obj 12 49 t b b b b;
#X obj 12 244 s trigger;
#X obj 100 23 inlet;
#X connect 0 0 3 0;
#X connect 1 0 8 0;
#X connect 2 0 0 0;
#X connect 5 0 7 0;
#X connect 8 0 9 0;
#X connect 8 1 4 0;
#X connect 8 2 5 0;
#X connect 8 3 2 0;
#X connect 10 0 8 0;
#X restore 7 9 pd INIT;
#X obj 27 636 vline~;
#X obj 80 422 r sample.length;
#X obj 27 444 pack f f;
#X obj 27 474 t a a;
#X msg 59 496 \$2 \$1;
#X obj 59 517 -;
#X obj 27 571 list append;
#X obj 25 815 soundoutput;
#X obj 207 615 delay;
#X obj 207 636 s eof;
#X obj 28 665 tabread~ amenbreak;
#X obj 195 441 r 16th;
#X obj 27 414 *;
#X msg 27 358 0;
#X obj 27 322 r eof;
#X msg 188 358 2;
#X msg 122 358 28;
#X msg 221 358 12;
#X msg 288 359 60;
#X obj 102 315 sel 0 1 2 3 4 5 6 7;
#X msg 59 358 16;
#X msg 154 358 8;
#N canvas 681 301 530 462 trigger_logic 0;
#X obj 20 71 random 8;
#X obj 125 281 r 16th;
#X obj 52 282 + 2;
#X obj 52 311 *;
#X obj 52 338 delay;
#X obj 52 359 s trigger;
#X obj 20 5 r trigger;
#X obj 52 125 random 6;
#X obj 20 381 outlet;
#X obj 52 168 t a b;
#X obj 84 192 f;
#X obj 84 215 - 1;
#X obj 84 237 sel 0;
#X msg 84 258 2;
#X obj 20 92 t a b b;
#X msg 365 189 1;
#X obj 365 124 inlet;
#X obj 365 147 spigot 1;
#X obj 365 168 t b b;
#X msg 448 168 0;
#X msg 449 194 1;
#X obj 136 18 inlet;
#X obj 239 19 inlet;
#X text 239 36 average segment length;
#X text 114 69 selection of start-points;
#X text 367 97 trigger 'breaky';
#X obj 394 237 s breaky;
#X obj 52 148 * 2;
#X msg 176 145 2;
#X obj 125 303 samp2ms;
#X connect 0 0 14 0;
#X connect 1 0 29 0;
#X connect 2 0 3 0;
#X connect 3 0 4 0;
#X connect 4 0 5 0;
#X connect 6 0 0 0;
#X connect 7 0 27 0;
#X connect 9 0 2 0;
#X connect 9 1 10 0;
#X connect 10 0 11 0;
#X connect 11 0 10 1;
#X connect 11 0 12 0;
#X connect 12 0 13 0;
#X connect 12 0 20 0;
#X connect 13 0 2 1;
#X connect 14 0 8 0;
#X connect 14 1 7 0;
#X connect 15 0 2 1;
#X connect 15 0 28 0;
#X connect 16 0 17 0;
#X connect 17 0 18 0;
#X connect 18 0 15 0;
#X connect 18 1 19 0;
#X connect 19 0 17 1;
#X connect 19 0 26 0;
#X connect 20 0 17 1;
#X connect 20 0 26 0;
#X connect 21 0 0 1;
#X connect 22 0 7 1;
#X connect 27 0 9 0;
#X connect 28 0 10 1;
#X connect 29 0 3 1;
#X restore 102 227 pd trigger_logic;
#X text 112 209 1-8;
#X text 246 209 breaky;
#X obj 103 184 + 1;
#X obj 7 31 accelerate.local;
#N canvas 560 119 987 546 accel.analysis 0;
#X obj 279 105 r accelerate;
#X obj 280 155 t f f b;
#X obj 303 186 f;
#X obj 280 212 -;
#X obj 280 233 abs;
#X obj 280 282 sel 1;
#X obj 280 350 outlet;
#X obj 3 342 outlet;
#X obj 107 342 outlet;
#X obj 5 61 r accelerate;
#X obj 5 86 route roll pitch;
#X obj 248 309 t b b;
#X obj 5 153 + 1.5;
#X obj 4 274 int;
#X obj 107 226 + 1.5;
#X obj 107 276 int;
#X obj 107 253 * 2;
#X obj 107 303 spigot 1;
#X obj 162 263 r breaky;
#X obj 245 331 0;
#X obj 5 177 / 3;
#X obj 6 200 t f f;
#X obj 6 225 *;
#X obj 4 249 * 8;
#X text 18 35 get orientation;
#X text 268 69 detect shaking -> breaky;
#X obj 743 101 r accelerate;
#X obj 743 127 route roll pitch;
#X obj 743 160 t f f b;
#X obj 761 192 f;
#X obj 743 216 -;
#X obj 801 160 t f f b;
#X obj 819 192 f;
#X obj 801 216 -;
#X obj 743 346 b;
#X text 745 70 detect 'movement';
#X obj 776 396 0;
#X obj 743 373 1;
#X obj 743 430 s movement;
#X obj 776 374 del 2000;
#X obj 743 277 moses -0.2;
#X obj 801 248 moses -0.2;
#X obj 875 270 moses 0.2;
#X obj 817 299 moses 0.2;
#X obj 280 258 > 0.7;
#X obj 279 131 route magnitude;
#X obj 472 90 r accelerate;
#X obj 472 115 route magnitude;
#X obj 472 140 < 1;
#X obj 471 165 sel 0;
#X obj 471 192 s reverse;
#X connect 0 0 45 0;
#X connect 1 0 3 0;
#X connect 1 1 2 1;
#X connect 1 2 2 0;
#X connect 2 0 3 1;
#X connect 3 0 4 0;
#X connect 4 0 44 0;
#X connect 5 0 11 0;
#X connect 9 0 10 0;
#X connect 10 0 12 0;
#X connect 10 1 14 0;
#X connect 11 0 19 0;
#X connect 11 1 6 0;
#X connect 12 0 20 0;
#X connect 13 0 7 0;
#X connect 14 0 16 0;
#X connect 15 0 17 0;
#X connect 16 0 15 0;
#X connect 17 0 8 0;
#X connect 18 0 17 1;
#X connect 19 0 17 1;
#X connect 19 0 8 0;
#X connect 20 0 21 0;
#X connect 21 0 22 0;
#X connect 21 1 22 1;
#X connect 22 0 23 0;
#X connect 23 0 13 0;
#X connect 26 0 27 0;
#X connect 27 0 28 0;
#X connect 27 1 31 0;
#X connect 28 0 30 0;
#X connect 28 1 29 1;
#X connect 28 2 29 0;
#X connect 29 0 30 1;
#X connect 30 0 40 0;
#X connect 31 0 33 0;
#X connect 31 1 32 1;
#X connect 31 2 32 0;
#X connect 32 0 33 1;
#X connect 33 0 41 0;
#X connect 34 0 37 0;
#X connect 34 0 39 0;
#X connect 36 0 38 0;
#X connect 37 0 38 0;
#X connect 39 0 36 0;
#X connect 40 0 34 0;
#X connect 40 1 43 0;
#X connect 41 0 34 0;
#X connect 41 1 42 0;
#X connect 42 1 34 0;
#X connect 43 1 34 0;
#X connect 44 0 5 0;
#X connect 45 0 1 0;
#X connect 46 0 47 0;
#X connect 47 0 48 0;
#X connect 48 0 49 0;
#X connect 49 0 50 0;
#X restore 110 70 pd accel.analysis;
#X msg 90 358 4;
#X obj 155 186 + 1;
#X obj 25 774 bp~ 12000 3;
#N canvas 6 9 491 458 bassline 0;
#X obj 191 273 vline~;
#X obj 93 326 *~;
#X obj 191 296 dbtorms~;
#X msg 195 184 100;
#X msg 227 184 110;
#X obj 195 126 random 3;
#X obj 195 151 sel 0 1 2;
#X obj 92 278 osc~ 30;
#X obj 195 90 t b b;
#X obj 299 127 random 3;
#X obj 299 152 sel 0 1 2;
#X msg 299 185 500;
#X msg 331 185 1000;
#X msg 370 185 2000;
#X obj 191 221 pack f f;
#X msg 191 247 \$1 5 \, 0 \$2 5;
#X msg 260 185 90;
#X obj 238 334 s~ yoyo;
#X obj 88 19 r mode;
#X obj 88 246 mtof;
#X obj 93 421 throw~ sumL;
#X obj 182 421 throw~ sumR;
#X obj 93 391 *~ 0.5;
#X obj 206 4 inlet;
#X obj 206 28 switch~;
#X obj 195 65 r trigger.instr;
#N canvas 263 322 872 290 wrap 0;
#X obj 23 29 inlet;
#X obj 23 206 outlet;
#X obj 23 51 / 12;
#X obj 23 140 * 12;
#X obj 23 161 + 0.1;
#X obj 23 182 int;
#X obj 65 95 int;
#X obj 23 94 float;
#X obj 23 116 -;
#X obj 23 72 t a a;
#X connect 0 0 2 0;
#X connect 2 0 9 0;
#X connect 3 0 4 0;
#X connect 4 0 5 0;
#X connect 5 0 1 0;
#X connect 6 0 8 1;
#X connect 7 0 8 0;
#X connect 8 0 3 0;
#X connect 9 0 7 0;
#X connect 9 1 6 0;
#X restore 88 202 pd wrap;
#X obj 88 223 + 31;
#X obj 122 140 - 5;
#X obj 88 44 t b f;
#X obj 88 118 f;
#X obj 122 118 f;
#X obj 88 89 sel 0 1 2 3;
#X obj 88 65 random 4;
#X obj 88 176 + 5;
#X obj 94 356 tanh~;
#X connect 0 0 2 0;
#X connect 1 0 35 0;
#X connect 2 0 1 1;
#X connect 2 0 17 0;
#X connect 3 0 14 0;
#X connect 4 0 14 0;
#X connect 5 0 6 0;
#X connect 6 0 3 0;
#X connect 6 1 4 0;
#X connect 6 2 16 0;
#X connect 7 0 1 0;
#X connect 8 0 5 0;
#X connect 8 1 9 0;
#X connect 9 0 10 0;
#X connect 10 0 11 0;
#X connect 10 1 12 0;
#X connect 10 2 13 0;
#X connect 11 0 14 1;
#X connect 12 0 14 1;
#X connect 13 0 14 1;
#X connect 14 0 15 0;
#X connect 15 0 0 0;
#X connect 16 0 14 0;
#X connect 18 0 29 0;
#X connect 19 0 7 0;
#X connect 22 0 20 0;
#X connect 22 0 21 0;
#X connect 23 0 24 0;
#X connect 25 0 8 0;
#X connect 26 0 27 0;
#X connect 27 0 19 0;
#X connect 28 0 34 0;
#X connect 29 0 33 0;
#X connect 29 1 30 1;
#X connect 29 1 31 1;
#X connect 30 0 34 0;
#X connect 31 0 28 0;
#X connect 32 0 30 0;
#X connect 32 1 30 0;
#X connect 32 2 30 0;
#X connect 32 3 31 0;
#X connect 33 0 32 0;
#X connect 34 0 26 0;
#X connect 35 0 22 0;
#X restore 338 452 pd bassline;
#X text 174 210 1-6;
#N canvas 523 262 505 484 cheap_pad 0;
#X obj 12 245 vline~;
#X obj 12 373 *~;
#X obj 12 268 dbtorms~;
#X obj 12 76 random 2;
#X obj 12 98 sel 1;
#X obj 12 122 t b b;
#X obj 108 147 sel 0 1 2 3 4;
#X msg 108 178 45;
#X msg 140 179 50;
#X msg 12 225 88 2 \, 70 300 5;
#X obj 134 215 t a a;
#X obj 166 237 s mode;
#X obj 13 400 throw~ sumL;
#X obj 122 374 *~;
#X obj 123 401 throw~ sumR;
#X obj 22 7 inlet;
#X obj 22 29 switch~;
#X obj 108 126 f;
#X msg 172 179 52;
#X msg 203 180 57;
#X msg 238 181 62;
#X obj 12 54 r trigger.instr;
#X obj 241 2 r accelerate;
#X obj 241 22 route pitch;
#X obj 241 86 int;
#X obj 241 42 * 4;
#X obj 241 63 + 2.5;
#X obj 241 115 moses 0;
#X msg 203 122 0;
#X obj 287 137 moses 4;
#X msg 333 158 4;
#X floatatom 121 79 5 0 0 0 - - -;
#N canvas 505 176 674 637 cheap_pad 0;
#X obj 31 85 phasor~;
#X obj 177 114 phasor~;
#X obj 258 113 phasor~;
#X obj 27 50 mtof;
#X obj 28 302 outlet~;
#X obj 27 26 inlet;
#X obj 101 89 * 1.2001;
#X obj 101 110 phasor~;
#X obj 178 91 * 1.498;
#X obj 258 91 * 1.79;
#X obj 258 159 tabread4~ input;
#X obj 177 185 tabread4~ input;
#X obj 102 207 tabread4~ input;
#X obj 32 223 tabread4~ input;
#X obj 385 36 soundinput;
#X obj 401 370 tabwrite~ input;
#X obj 402 343 *~;
#X obj 421 314 vline~;
#N canvas 327 138 172 123 samp2ms 0;
#X obj 71 54 samplerate~;
#X obj 7 97 outlet;
#X obj 7 1 inlet;
#X obj 71 33 loadbang;
#X obj 7 23 * 1000;
#X obj 7 76 /;
#X connect 0 0 5 1;
#X connect 2 0 4 0;
#X connect 3 0 0 0;
#X connect 4 0 5 0;
#X connect 5 0 1 0;
#X restore 484 208 pd samp2ms;
#X obj 417 429 table input 500;
#X obj 258 136 *~ 500;
#X obj 176 162 *~ 500;
#X obj 102 184 *~ 500;
#X obj 32 200 *~ 500;
#X msg 484 186 500;
#X msg 421 287 0 \, 1 2 \, 0 2 \$1;
#X obj 484 233 - 2;
#X obj 421 260 f;
#X obj 364 228 t b b;
#X obj 364 199 r trigger.instr;
#X obj 484 165 loadbang;
#X obj 335 201 bng 15 250 50 0 empty empty empty 17 7 0 10 -262144
-1 -1;
#X obj 387 95 *~ 10;
#X obj 88 383 phasor~;
#X obj 234 412 phasor~;
#X obj 315 411 phasor~;
#X obj 84 348 mtof;
#X obj 165 601 outlet~;
#X obj 158 408 phasor~;
#X obj 315 457 tabread4~ input;
#X obj 234 483 tabread4~ input;
#X obj 159 505 tabread4~ input;
#X obj 89 521 tabread4~ input;
#X obj 315 434 *~ 500;
#X obj 233 460 *~ 500;
#X obj 159 482 *~ 500;
#X obj 89 498 *~ 500;
#X obj 158 387 * 1.199;
#X obj 235 389 * 1.508;
#X obj 315 389 * 1.8001;
#X obj 388 129 tanh~;
#X connect 0 0 23 0;
#X connect 1 0 21 0;
#X connect 2 0 20 0;
#X connect 3 0 0 0;
#X connect 3 0 6 0;
#X connect 3 0 8 0;
#X connect 3 0 9 0;
#X connect 5 0 3 0;
#X connect 5 0 36 0;
#X connect 6 0 7 0;
#X connect 7 0 22 0;
#X connect 8 0 1 0;
#X connect 9 0 2 0;
#X connect 10 0 4 0;
#X connect 11 0 4 0;
#X connect 12 0 4 0;
#X connect 13 0 4 0;
#X connect 14 0 32 0;
#X connect 16 0 15 0;
#X connect 17 0 16 1;
#X connect 18 0 26 0;
#X connect 20 0 10 0;
#X connect 21 0 11 0;
#X connect 22 0 12 0;
#X connect 23 0 13 0;
#X connect 24 0 18 0;
#X connect 25 0 17 0;
#X connect 26 0 27 1;
#X connect 27 0 25 0;
#X connect 28 0 15 0;
#X connect 28 1 27 0;
#X connect 29 0 28 0;
#X connect 30 0 24 0;
#X connect 31 0 28 0;
#X connect 32 0 50 0;
#X connect 33 0 46 0;
#X connect 34 0 44 0;
#X connect 35 0 43 0;
#X connect 36 0 33 0;
#X connect 36 0 47 0;
#X connect 36 0 48 0;
#X connect 36 0 49 0;
#X connect 38 0 45 0;
#X connect 39 0 37 0;
#X connect 40 0 37 0;
#X connect 41 0 37 0;
#X connect 42 0 37 0;
#X connect 43 0 39 0;
#X connect 44 0 40 0;
#X connect 45 0 41 0;
#X connect 46 0 42 0;
#X connect 47 0 38 0;
#X connect 48 0 34 0;
#X connect 49 0 35 0;
#X connect 50 0 16 0;
#X restore 134 269 pd cheap_pad;
#X connect 0 0 2 0;
#X connect 1 0 12 0;
#X connect 2 0 1 0;
#X connect 2 0 13 0;
#X connect 3 0 4 0;
#X connect 4 0 5 0;
#X connect 5 0 9 0;
#X connect 5 1 17 0;
#X connect 6 0 7 0;
#X connect 6 1 8 0;
#X connect 6 2 18 0;
#X connect 6 3 19 0;
#X connect 6 4 20 0;
#X connect 6 5 20 0;
#X connect 7 0 10 0;
#X connect 8 0 10 0;
#X connect 9 0 0 0;
#X connect 10 0 32 0;
#X connect 10 1 11 0;
#X connect 13 0 14 0;
#X connect 15 0 16 0;
#X connect 17 0 6 0;
#X connect 18 0 10 0;
#X connect 19 0 10 0;
#X connect 20 0 10 0;
#X connect 21 0 3 0;
#X connect 22 0 23 0;
#X connect 23 0 25 0;
#X connect 24 0 27 0;
#X connect 24 0 17 1;
#X connect 25 0 26 0;
#X connect 26 0 24 0;
#X connect 27 0 28 0;
#X connect 27 1 29 0;
#X connect 28 0 17 1;
#X connect 29 1 30 0;
#X connect 30 0 17 1;
#X connect 31 0 17 1;
#X connect 32 0 1 1;
#X connect 32 1 13 1;
#X restore 338 365 pd cheap_pad;
#X obj 25 713 throw~ sumL;
#X obj 111 715 throw~ sumR;
#X obj 25 749 catch~ sumL;
#X obj 124 774 bp~ 12000 3;
#X obj 124 749 catch~ sumR;
#X obj 102 276 t a b;
#X obj 172 252 r movement;
#X obj 160 279 s trigger.instr;
#X msg 254 359 0;
#X obj 338 318 r cheap_pad;
#X obj 338 403 r bassline;
#X obj 102 252 spigot 1;
#N canvas 590 256 260 270 ff/bwd 0;
#X obj 20 25 inlet;
#X msg 20 184 \$1 \, \$2 \$3;
#X obj 20 235 outlet;
#X msg 100 184 \$2 \, \$1 \$3;
#X obj 20 159 list;
#X obj 100 161 list;
#X obj 20 47 t b a;
#X obj 20 83 f;
#X obj 20 105 sel 0 1;
#X obj 100 135 t a b;
#X msg 166 107 0;
#X msg 132 64 1;
#X obj 132 41 inlet;
#X connect 0 0 6 0;
#X connect 1 0 2 0;
#X connect 3 0 2 0;
#X connect 4 0 1 0;
#X connect 5 0 3 0;
#X connect 6 0 7 0;
#X connect 6 1 4 1;
#X connect 6 1 5 1;
#X connect 7 0 8 0;
#X connect 8 0 4 0;
#X connect 8 1 9 0;
#X connect 9 0 5 0;
#X connect 9 1 10 0;
#X connect 10 0 7 1;
#X connect 11 0 7 1;
#X connect 12 0 11 0;
#X restore 27 610 pd ff/bwd;
#X obj 29 687 *~ 1.5;
#N canvas 810 325 167 341 turn_it_off 0;
#X obj 22 264 mtof;
#X obj 22 240 line 120 2;
#X obj 22 287 outlet;
#X msg 22 194 45 3000;
#X msg 88 193 127 1000;
#X obj 22 140 delay 10000;
#X obj 22 73 sel 0 1;
#X msg 44 108 stop;
#X obj 22 37 inlet;
#X connect 0 0 2 0;
#X connect 1 0 0 0;
#X connect 3 0 1 0;
#X connect 4 0 1 0;
#X connect 5 0 3 0;
#X connect 6 0 5 0;
#X connect 6 1 7 0;
#X connect 6 1 4 0;
#X connect 7 0 5 0;
#X connect 8 0 6 0;
#X restore 308 739 pd turn_it_off;
#X obj 308 694 r movement;
#X obj 173 552 r reverse;
#X obj 59 540 samp2ms;
#X obj 469 312 ==;
#X obj 506 313 t a;
#X obj 546 382 t a;
#X obj 469 255 loadbang;
#X obj 501 357 sel 1;
#X obj 501 382 == 0;
#X obj 469 335 t a a;
#X obj 501 434 print bass;
#X obj 469 406 print pad;
#X obj 469 281 metro 15000;
#X connect 2 0 12 0;
#X connect 3 0 4 1;
#X connect 4 0 5 0;
#X connect 5 0 8 0;
#X connect 5 1 6 0;
#X connect 6 0 7 0;
#X connect 7 0 53 0;
#X connect 8 0 48 0;
#X connect 10 0 11 0;
#X connect 12 0 49 0;
#X connect 13 0 14 1;
#X connect 14 0 4 0;
#X connect 15 0 14 0;
#X connect 16 0 15 0;
#X connect 17 0 14 0;
#X connect 18 0 14 0;
#X connect 19 0 14 0;
#X connect 20 0 14 0;
#X connect 21 0 22 0;
#X connect 21 1 30 0;
#X connect 21 2 18 0;
#X connect 21 3 23 0;
#X connect 21 4 17 0;
#X connect 21 5 19 0;
#X connect 21 6 44 0;
#X connect 21 7 20 0;
#X connect 22 0 14 0;
#X connect 23 0 14 0;
#X connect 24 0 47 0;
#X connect 27 0 24 0;
#X connect 29 0 27 0;
#X connect 29 1 31 0;
#X connect 29 2 24 2;
#X connect 30 0 14 0;
#X connect 31 0 24 1;
#X connect 32 0 9 0;
#X connect 38 0 32 0;
#X connect 39 0 9 1;
#X connect 40 0 39 0;
#X connect 41 0 21 0;
#X connect 41 1 43 0;
#X connect 42 0 47 1;
#X connect 44 0 14 0;
#X connect 45 0 35 0;
#X connect 46 0 33 0;
#X connect 47 0 41 0;
#X connect 48 0 2 0;
#X connect 49 0 36 0;
#X connect 49 0 37 0;
#X connect 50 0 39 1;
#X connect 50 0 32 1;
#X connect 51 0 50 0;
#X connect 52 0 48 1;
#X connect 53 0 8 1;
#X connect 53 0 10 0;
#X connect 54 0 55 0;
#X connect 54 0 60 0;
#X connect 55 0 54 1;
#X connect 56 0 59 1;
#X connect 57 0 63 0;
#X connect 58 0 59 0;
#X connect 59 0 56 0;
#X connect 59 0 33 0;
#X connect 59 0 61 0;
#X connect 60 0 35 0;
#X connect 60 0 62 0;
#X connect 60 1 58 0;
#X connect 63 0 54 0;
