#N canvas 137 359 197 145 10;
#X obj 83 66 samplerate~;
#X obj 19 109 outlet;
#X obj 19 13 inlet;
#X obj 83 45 loadbang;
#X obj 19 35 * 1000;
#X obj 19 88 /;
#X connect 0 0 5 1;
#X connect 2 0 4 0;
#X connect 3 0 0 0;
#X connect 4 0 5 0;
#X connect 5 0 1 0;
