#N canvas 257 60 414 319 10;
#N canvas 735 392 132 210 tanh 0;
#X obj 6 93 exp;
#X obj 6 69 * 2;
#X obj 55 95 exp;
#X obj 55 73 * 2;
#X obj 6 138 /;
#X obj 6 114 - 1;
#X obj 55 115 + 1;
#X obj 6 18 inlet;
#X obj 6 41 t a a;
#X obj 6 160 outlet;
#X connect 0 0 5 0;
#X connect 1 0 0 0;
#X connect 2 0 6 0;
#X connect 3 0 2 0;
#X connect 4 0 9 0;
#X connect 5 0 4 0;
#X connect 6 0 4 1;
#X connect 7 0 8 0;
#X connect 8 0 1 0;
#X connect 8 1 3 0;
#X restore 243 222 pd tanh;
#X obj 243 95 until;
#X obj 243 122 f;
#X obj 278 124 + 1;
#X obj 243 150 t a a;
#X obj 243 252 tabwrite \$0.lookup;
#X obj 243 199 - 10;
#X obj 26 103 tabread~ \$0.lookup;
#X msg 243 65 4000;
#X obj 243 179 / 200;
#X obj 26 35 inlet~;
#X obj 26 129 outlet~;
#X obj 243 42 loadbang;
#X obj 27 163 table \$0.lookup 4000;
#X obj 26 59 +~ 1;
#X obj 26 79 *~ 2000;
#X connect 0 0 5 0;
#X connect 1 0 2 0;
#X connect 2 0 3 0;
#X connect 2 0 4 0;
#X connect 3 0 2 1;
#X connect 4 0 9 0;
#X connect 4 1 5 1;
#X connect 6 0 0 0;
#X connect 7 0 11 0;
#X connect 8 0 1 0;
#X connect 9 0 6 0;
#X connect 10 0 14 0;
#X connect 12 0 8 0;
#X connect 14 0 15 0;
#X connect 15 0 7 0;
