#N canvas 0 22 649 363 10;
#N canvas 381 126 450 300 10osc 0;
#X obj 85 113 osc~ 440;
#X obj 85 134 osc~ 440;
#X obj 85 154 osc~ 440;
#X obj 85 175 osc~ 440;
#X obj 84 93 osc~ 440;
#X obj 154 113 osc~ 440;
#X obj 154 134 osc~ 440;
#X obj 154 154 osc~ 440;
#X obj 154 175 osc~ 440;
#X obj 153 93 osc~ 440;
#X restore 92 32 pd 10osc;
#N canvas 381 126 450 300 10osc 0;
#X obj 85 113 osc~ 440;
#X obj 85 134 osc~ 440;
#X obj 85 154 osc~ 440;
#X obj 85 175 osc~ 440;
#X obj 84 93 osc~ 440;
#X obj 154 113 osc~ 440;
#X obj 154 134 osc~ 440;
#X obj 154 154 osc~ 440;
#X obj 154 175 osc~ 440;
#X obj 153 93 osc~ 440;
#X restore 25 32 pd 10osc;
#N canvas 381 126 450 300 10osc 0;
#X obj 85 113 osc~ 440;
#X obj 85 134 osc~ 440;
#X obj 85 154 osc~ 440;
#X obj 85 175 osc~ 440;
#X obj 84 93 osc~ 440;
#X obj 154 113 osc~ 440;
#X obj 154 134 osc~ 440;
#X obj 154 154 osc~ 440;
#X obj 154 175 osc~ 440;
#X obj 153 93 osc~ 440;
#X restore 92 53 pd 10osc;
#N canvas 381 126 450 300 10osc 0;
#X obj 85 113 osc~ 440;
#X obj 85 134 osc~ 440;
#X obj 85 154 osc~ 440;
#X obj 85 175 osc~ 440;
#X obj 84 93 osc~ 440;
#X obj 154 113 osc~ 440;
#X obj 154 134 osc~ 440;
#X obj 154 154 osc~ 440;
#X obj 154 175 osc~ 440;
#X obj 153 93 osc~ 440;
#X restore 25 53 pd 10osc;
#N canvas 381 126 450 300 10osc 0;
#X obj 85 113 osc~ 440;
#X obj 85 134 osc~ 440;
#X obj 85 154 osc~ 440;
#X obj 85 175 osc~ 440;
#X obj 84 93 osc~ 440;
#X obj 154 113 osc~ 440;
#X obj 154 134 osc~ 440;
#X obj 154 154 osc~ 440;
#X obj 154 175 osc~ 440;
#X obj 153 93 osc~ 440;
#X restore 92 74 pd 10osc;
#N canvas 381 126 450 300 10osc 0;
#X obj 85 113 osc~ 440;
#X obj 85 134 osc~ 440;
#X obj 85 154 osc~ 440;
#X obj 85 175 osc~ 440;
#X obj 84 93 osc~ 440;
#X obj 154 113 osc~ 440;
#X obj 154 134 osc~ 440;
#X obj 154 154 osc~ 440;
#X obj 154 175 osc~ 440;
#X obj 153 93 osc~ 440;
#X restore 25 74 pd 10osc;
#X text 160 52 This patch simulates the CPU limit of iPhone 3g for
those;
#X text 159 71 developing on iTouch 2g. Add this patch to a scene when
;
#X text 159 91 testing your scene on iTouch 2g \, and don't forget
to remove;
#X text 160 110 it when submitting the scene;
#X text 159 33 The iTouch 2g is faster than the iPhone 3g;
#X text 175 160 the iPhone 3g also has less memory available \, because
;
#X text 175 184 of other processes running. We simulate this by allocating
;
#X text 174 210 the equivalent amount of memory;
#X obj 10 159 table \$0-extramem 3e+06;
