#N canvas 117 217 778 340 10;
#N canvas 381 126 450 300 10osc 0;
#X obj 85 113 osc~ 440;
#X obj 85 134 osc~ 440;
#X obj 85 154 osc~ 440;
#X obj 85 175 osc~ 440;
#X obj 84 93 osc~ 440;
#X obj 154 113 osc~ 440;
#X obj 154 134 osc~ 440;
#X obj 154 154 osc~ 440;
#X obj 154 175 osc~ 440;
#X obj 153 93 osc~ 440;
#X restore 92 32 pd 10osc;
#N canvas 381 126 450 300 10osc 0;
#X obj 85 113 osc~ 440;
#X obj 85 134 osc~ 440;
#X obj 85 154 osc~ 440;
#X obj 85 175 osc~ 440;
#X obj 84 93 osc~ 440;
#X obj 154 113 osc~ 440;
#X obj 154 134 osc~ 440;
#X obj 154 154 osc~ 440;
#X obj 154 175 osc~ 440;
#X obj 153 93 osc~ 440;
#X restore 25 32 pd 10osc;
#N canvas 381 126 450 300 10osc 0;
#X obj 85 113 osc~ 440;
#X obj 85 134 osc~ 440;
#X obj 85 154 osc~ 440;
#X obj 85 175 osc~ 440;
#X obj 84 93 osc~ 440;
#X obj 154 113 osc~ 440;
#X obj 154 134 osc~ 440;
#X obj 154 154 osc~ 440;
#X obj 154 175 osc~ 440;
#X obj 153 93 osc~ 440;
#X restore 92 53 pd 10osc;
#N canvas 381 126 450 300 10osc 0;
#X obj 85 113 osc~ 440;
#X obj 85 134 osc~ 440;
#X obj 85 154 osc~ 440;
#X obj 85 175 osc~ 440;
#X obj 84 93 osc~ 440;
#X obj 154 113 osc~ 440;
#X obj 154 134 osc~ 440;
#X obj 154 154 osc~ 440;
#X obj 154 175 osc~ 440;
#X obj 153 93 osc~ 440;
#X restore 25 53 pd 10osc;
#N canvas 381 126 450 300 10osc 0;
#X obj 85 113 osc~ 440;
#X obj 85 134 osc~ 440;
#X obj 85 154 osc~ 440;
#X obj 85 175 osc~ 440;
#X obj 84 93 osc~ 440;
#X obj 154 113 osc~ 440;
#X obj 154 134 osc~ 440;
#X obj 154 154 osc~ 440;
#X obj 154 175 osc~ 440;
#X obj 153 93 osc~ 440;
#X restore 92 74 pd 10osc;
#N canvas 381 126 450 300 10osc 0;
#X obj 85 113 osc~ 440;
#X obj 85 134 osc~ 440;
#X obj 85 154 osc~ 440;
#X obj 85 175 osc~ 440;
#X obj 84 93 osc~ 440;
#X obj 154 113 osc~ 440;
#X obj 154 134 osc~ 440;
#X obj 154 154 osc~ 440;
#X obj 154 175 osc~ 440;
#X obj 153 93 osc~ 440;
#X restore 25 74 pd 10osc;
#N canvas 381 126 450 300 10osc 0;
#X obj 85 113 osc~ 440;
#X obj 85 134 osc~ 440;
#X obj 85 154 osc~ 440;
#X obj 85 175 osc~ 440;
#X obj 84 93 osc~ 440;
#X obj 154 113 osc~ 440;
#X obj 154 134 osc~ 440;
#X obj 154 154 osc~ 440;
#X obj 154 175 osc~ 440;
#X obj 153 93 osc~ 440;
#X restore 92 96 pd 10osc;
#N canvas 381 126 450 300 10osc 0;
#X obj 85 113 osc~ 440;
#X obj 85 134 osc~ 440;
#X obj 85 154 osc~ 440;
#X obj 85 175 osc~ 440;
#X obj 84 93 osc~ 440;
#X obj 154 113 osc~ 440;
#X obj 154 134 osc~ 440;
#X obj 154 154 osc~ 440;
#X obj 154 175 osc~ 440;
#X obj 153 93 osc~ 440;
#X restore 25 96 pd 10osc;
#N canvas 381 126 450 300 10osc 0;
#X obj 85 113 osc~ 440;
#X obj 85 134 osc~ 440;
#X obj 85 154 osc~ 440;
#X obj 85 175 osc~ 440;
#X obj 84 93 osc~ 440;
#X obj 154 113 osc~ 440;
#X obj 154 134 osc~ 440;
#X obj 154 154 osc~ 440;
#X obj 154 175 osc~ 440;
#X obj 153 93 osc~ 440;
#X restore 92 117 pd 10osc;
#N canvas 381 126 450 300 10osc 0;
#X obj 85 113 osc~ 440;
#X obj 85 134 osc~ 440;
#X obj 85 154 osc~ 440;
#X obj 85 175 osc~ 440;
#X obj 84 93 osc~ 440;
#X obj 154 113 osc~ 440;
#X obj 154 134 osc~ 440;
#X obj 154 154 osc~ 440;
#X obj 154 175 osc~ 440;
#X obj 153 93 osc~ 440;
#X restore 25 117 pd 10osc;
#N canvas 381 126 450 300 10osc 0;
#X obj 85 113 osc~ 440;
#X obj 85 134 osc~ 440;
#X obj 85 154 osc~ 440;
#X obj 85 175 osc~ 440;
#X obj 84 93 osc~ 440;
#X obj 154 113 osc~ 440;
#X obj 154 134 osc~ 440;
#X obj 154 154 osc~ 440;
#X obj 154 175 osc~ 440;
#X obj 153 93 osc~ 440;
#X restore 92 138 pd 10osc;
#N canvas 381 126 450 300 10osc 0;
#X obj 85 113 osc~ 440;
#X obj 85 134 osc~ 440;
#X obj 85 154 osc~ 440;
#X obj 85 175 osc~ 440;
#X obj 84 93 osc~ 440;
#X obj 154 113 osc~ 440;
#X obj 154 134 osc~ 440;
#X obj 154 154 osc~ 440;
#X obj 154 175 osc~ 440;
#X obj 153 93 osc~ 440;
#X restore 25 138 pd 10osc;
#N canvas 381 126 450 300 10osc 0;
#X obj 85 113 osc~ 440;
#X obj 85 134 osc~ 440;
#X obj 85 154 osc~ 440;
#X obj 85 175 osc~ 440;
#X obj 84 93 osc~ 440;
#X obj 154 113 osc~ 440;
#X obj 154 134 osc~ 440;
#X obj 154 154 osc~ 440;
#X obj 154 175 osc~ 440;
#X obj 153 93 osc~ 440;
#X restore 92 160 pd 10osc;
#N canvas 381 126 450 300 10osc 0;
#X obj 85 113 osc~ 440;
#X obj 85 134 osc~ 440;
#X obj 85 154 osc~ 440;
#X obj 85 175 osc~ 440;
#X obj 84 93 osc~ 440;
#X obj 154 113 osc~ 440;
#X obj 154 134 osc~ 440;
#X obj 154 154 osc~ 440;
#X obj 154 175 osc~ 440;
#X obj 153 93 osc~ 440;
#X restore 25 160 pd 10osc;
#N canvas 381 126 450 300 10osc 0;
#X obj 85 113 osc~ 440;
#X obj 85 134 osc~ 440;
#X obj 85 154 osc~ 440;
#X obj 85 175 osc~ 440;
#X obj 84 93 osc~ 440;
#X obj 154 113 osc~ 440;
#X obj 154 134 osc~ 440;
#X obj 154 154 osc~ 440;
#X obj 154 175 osc~ 440;
#X obj 153 93 osc~ 440;
#X restore 92 181 pd 10osc;
#N canvas 381 126 450 300 10osc 0;
#X obj 85 113 osc~ 440;
#X obj 85 134 osc~ 440;
#X obj 85 154 osc~ 440;
#X obj 85 175 osc~ 440;
#X obj 84 93 osc~ 440;
#X obj 154 113 osc~ 440;
#X obj 154 134 osc~ 440;
#X obj 154 154 osc~ 440;
#X obj 154 175 osc~ 440;
#X obj 153 93 osc~ 440;
#X restore 25 181 pd 10osc;
#N canvas 381 126 450 300 10osc 0;
#X obj 85 113 osc~ 440;
#X obj 85 134 osc~ 440;
#X obj 85 154 osc~ 440;
#X obj 85 175 osc~ 440;
#X obj 84 93 osc~ 440;
#X obj 154 113 osc~ 440;
#X obj 154 134 osc~ 440;
#X obj 154 154 osc~ 440;
#X obj 154 175 osc~ 440;
#X obj 153 93 osc~ 440;
#X restore 92 202 pd 10osc;
#N canvas 381 126 450 300 10osc 0;
#X obj 85 113 osc~ 440;
#X obj 85 134 osc~ 440;
#X obj 85 154 osc~ 440;
#X obj 85 175 osc~ 440;
#X obj 84 93 osc~ 440;
#X obj 154 113 osc~ 440;
#X obj 154 134 osc~ 440;
#X obj 154 154 osc~ 440;
#X obj 154 175 osc~ 440;
#X obj 153 93 osc~ 440;
#X restore 25 202 pd 10osc;
#X text 181 31 This patch shows you the amount of processing needed
;
#X text 180 49 to reach the 80% cpu limit on the iPhone 3g;
#X obj 231 121 loadbang;
#X msg 230 140 1;
#X text 332 101 when developing a scene on your desktop computer;
#X text 331 139 compare your scene load with the load you see here
;
#X msg 160 166 \; pd dsp 1;
#X text 331 158 (audio has to be on) and work hard to stay below :-)
;
#N canvas 0 22 657 379 loadmeter 0;
#X obj 296 156 cputime;
#X obj 296 100 metro 1000;
#X obj 296 128 t b b;
#X obj 296 216 * 0.1;
#X obj 296 185 int;
#X obj 294 73 inlet;
#X obj 295 246 outlet;
#X text 380 249 by Miller S. Puckette;
#X connect 0 0 4 0;
#X connect 1 0 2 0;
#X connect 2 0 0 0;
#X connect 2 1 0 1;
#X connect 3 0 6 0;
#X connect 4 0 3 0;
#X connect 5 0 1 0;
#X restore 231 162 pd loadmeter;
#X floatatom 231 182 5 0 0 0 - - -;
#X text 332 120 use the u_loadmeter patch from rjlib or copy this one
\,;
#X connect 20 0 21 0;
#X connect 20 0 24 0;
#X connect 21 0 26 0;
#X connect 26 0 27 0;
