#N canvas 773 80 655 446 10;
#X obj 102 256 gemwin;
#X msg 102 232 dimen 320 320 \, create \, 1;
#N canvas 0 0 792 510 button1 0;
#X obj 68 275 list prepend;
#X obj 68 62 r \$0-mousepos;
#X obj 168 83 change;
#X obj 168 108 select 0 1;
#X text 259 108 on 1: send "down 0 x y" once \, then set prepender
to "xy 0";
#X text 260 89 on 0: send "up 0 x y" once \, then close prepender;
#X obj 68 93 t b a;
#X obj 68 241 list;
#X obj 68 116 spigot;
#X obj 117 175 t b b;
#X obj 191 176 t b b b;
#X obj 68 317 list trim;
#X obj 68 381 s #touch;
#X obj 168 62 r \$0-b1;
#X msg 149 204 up 1;
#X msg 191 203 xy 1;
#X msg 238 202 down 1;
#X connect 0 0 11 0;
#X connect 1 0 6 0;
#X connect 2 0 3 0;
#X connect 2 0 8 1;
#X connect 3 0 9 0;
#X connect 3 1 10 0;
#X connect 6 0 8 0;
#X connect 6 1 7 1;
#X connect 7 0 0 0;
#X connect 8 0 7 0;
#X connect 9 0 7 0;
#X connect 9 1 14 0;
#X connect 10 0 15 0;
#X connect 10 1 7 0;
#X connect 10 2 16 0;
#X connect 11 0 12 0;
#X connect 13 0 2 0;
#X connect 14 0 0 1;
#X connect 15 0 0 1;
#X connect 16 0 0 1;
#X restore 351 217 pd button1;
#X msg 101 342;
#N canvas 0 0 450 300 show 0;
#X obj 41 39 inlet;
#X obj 186 36 inlet;
#X obj 41 124 outlet;
#X msg 186 76 set;
#X obj 41 59 list prepend set;
#X obj 41 83 list trim;
#X connect 0 0 4 0;
#X connect 1 0 3 0;
#X connect 3 0 2 0;
#X connect 4 0 5 0;
#X connect 5 0 2 0;
#X restore 101 318 pd show;
#X obj 101 294 r #touch;
#X obj 102 193 bng 32 250 50 0 empty empty empty 17 7 0 10 -4034 -1
-1;
#N canvas 0 0 493 310 gemmouse 0;
#X floatatom 83 189 9 0 0 1 X-position - -;
#X floatatom 110 159 8 0 0 1 Y-position - -;
#X floatatom 137 125 2 0 0 1 left-Button - -;
#X floatatom 164 103 2 0 0 1 middle-Button - -;
#X floatatom 192 80 2 0 0 1 right-Button - -;
#X obj 83 35 gemmouse 320 320;
#X obj 83 214 pack 0 0;
#X obj 83 242 s \$0-mousepos;
#X obj 232 139 s \$0-b1;
#X obj 302 94 s \$0-b2;
#X obj 288 117 s \$0-b3;
#X connect 0 0 6 0;
#X connect 1 0 6 1;
#X connect 2 0 8 0;
#X connect 3 0 10 0;
#X connect 4 0 9 0;
#X connect 5 0 0 0;
#X connect 5 1 1 0;
#X connect 5 2 2 0;
#X connect 5 3 3 0;
#X connect 5 4 4 0;
#X connect 6 0 7 0;
#X restore 351 193 pd gemmouse;
#X text 120 103 left mouse button: finger 1;
#X text 114 122 right mouse button: finger 2;
#X text 108 142 middle mouse button: finger 3;
#X text 78 57 For right-handed three button mouses this translates
GEM-window mouse events to #touch messages like this:;
#X text 143 198 create touchsceen emu win;
#X text 67 30 RjDj touchscreen emulator for GEM.;
#X msg 158 318 clear;
#N canvas 0 0 792 510 button3 0;
#X obj 68 275 list prepend;
#X obj 68 62 r \$0-mousepos;
#X obj 168 83 change;
#X obj 168 108 select 0 1;
#X text 259 108 on 1: send "down 0 x y" once \, then set prepender
to "xy 0";
#X text 260 89 on 0: send "up 0 x y" once \, then close prepender;
#X obj 68 93 t b a;
#X obj 68 241 list;
#X obj 68 116 spigot;
#X obj 117 175 t b b;
#X obj 191 176 t b b b;
#X obj 68 317 list trim;
#X obj 68 381 s #touch;
#X obj 168 62 r \$0-b3;
#X msg 149 204 up 3;
#X msg 191 203 xy 3;
#X msg 238 202 down 3;
#X connect 0 0 11 0;
#X connect 1 0 6 0;
#X connect 2 0 3 0;
#X connect 2 0 8 1;
#X connect 3 0 9 0;
#X connect 3 1 10 0;
#X connect 6 0 8 0;
#X connect 6 1 7 1;
#X connect 7 0 0 0;
#X connect 8 0 7 0;
#X connect 9 0 7 0;
#X connect 9 1 14 0;
#X connect 10 0 15 0;
#X connect 10 1 7 0;
#X connect 10 2 16 0;
#X connect 11 0 12 0;
#X connect 13 0 2 0;
#X connect 14 0 0 1;
#X connect 15 0 0 1;
#X connect 16 0 0 1;
#X restore 352 259 pd button3;
#N canvas 0 0 792 510 button2 0;
#X obj 68 275 list prepend;
#X obj 68 62 r \$0-mousepos;
#X obj 168 83 change;
#X obj 168 108 select 0 1;
#X text 259 108 on 1: send "down 0 x y" once \, then set prepender
to "xy 0";
#X text 260 89 on 0: send "up 0 x y" once \, then close prepender;
#X obj 68 93 t b a;
#X obj 68 241 list;
#X obj 68 116 spigot;
#X obj 117 175 t b b;
#X obj 191 176 t b b b;
#X obj 68 317 list trim;
#X obj 68 381 s #touch;
#X msg 149 204 up 2;
#X msg 191 203 xy 2;
#X msg 238 202 down 2;
#X obj 168 62 r \$0-b2;
#X connect 0 0 11 0;
#X connect 1 0 6 0;
#X connect 2 0 3 0;
#X connect 2 0 8 1;
#X connect 3 0 9 0;
#X connect 3 1 10 0;
#X connect 6 0 8 0;
#X connect 6 1 7 1;
#X connect 7 0 0 0;
#X connect 8 0 7 0;
#X connect 9 0 7 0;
#X connect 9 1 13 0;
#X connect 10 0 14 0;
#X connect 10 1 7 0;
#X connect 10 2 15 0;
#X connect 11 0 12 0;
#X connect 13 0 0 1;
#X connect 14 0 0 1;
#X connect 15 0 0 1;
#X connect 16 0 2 0;
#X restore 352 238 pd button2;
#X connect 1 0 0 0;
#X connect 4 0 3 0;
#X connect 5 0 4 0;
#X connect 6 0 1 0;
#X connect 14 0 4 1;
