#N canvas 575 110 314 434 10;
#X symbolatom 13 147 20 0 0 0 - #0.set.local.ip #0.local.ip;
#X text 10 128 local ip:;
#X text 162 128 iphone's ip:;
#X symbolatom 162 146 20 0 0 0 - #0.set.iphone.ip #0.iphone.ip;
#N canvas 0 22 284 189 DEBUG 0;
#X obj 12 71 r #touch;
#X obj 112 74 r #accelerate;
#X obj 12 130 print #touch;
#X obj 112 132 print #accelerate;
#X obj 12 105 spigot;
#X obj 112 104 spigot;
#X obj 77 29 inlet;
#X connect 0 0 4 0;
#X connect 1 0 5 0;
#X connect 4 0 2 0;
#X connect 5 0 3 0;
#X connect 6 0 4 1;
#X connect 6 0 5 1;
#X restore 14 398 pd DEBUG;
#X obj 14 374 tgl 15 0 empty empty empty 17 7 0 10 -262144 -1 -1 0
1;
#X obj 14 195 tgl 25 0 \$0.up.down \$0.set.up.down connect 30 13 1
20 -262144 -1 -1 0 1;
#X text 84 369 Author: Roman Haefeli;
#N canvas 1078 508 431 269 INIT 0;
#X obj 15 35 loadbang;
#X obj 142 123 r \$0.local.ip;
#X obj 275 122 r \$0.iphone.ip;
#X msg 126 168 symbol 192.168.1.47;
#X msg 264 171 symbol 192.168.1.52;
#X obj 126 201 s \$0.set.local.ip;
#X obj 264 202 s \$0.set.iphone.ip;
#X obj 15 63 t b b b;
#X msg 142 145 set symbol \$1;
#X msg 275 143 set symbol \$1;
#X text 159 92 ----- state saving ------;
#X obj 15 201 s \$0.up.down;
#X msg 15 145 1;
#X connect 0 0 7 0;
#X connect 1 0 8 0;
#X connect 2 0 9 0;
#X connect 3 0 5 0;
#X connect 4 0 6 0;
#X connect 7 1 3 0;
#X connect 7 2 4 0;
#X connect 8 0 3 0;
#X connect 9 0 4 0;
#X connect 12 0 11 0;
#X restore 78 398 pd INIT;
#N canvas 64 46 348 480 connection 0;
#X obj 16 283 netsend;
#X msg 204 203 connect \$1 9878;
#X obj 18 349 netreceive 9876;
#X obj 18 443 s #touch;
#X obj 100 442 s #accelerate;
#X obj 204 107 t b b;
#X obj 236 129 s \$0.get.iphone.ip;
#X obj 236 148 r \$0.iphone.ip;
#X obj 204 171 list append;
#X obj 16 306 s \$0.conn.state;
#X obj 16 24 r \$0.conn.state;
#X obj 16 47 sel 1;
#X obj 16 70 t b b;
#X obj 16 134 list append;
#X obj 48 92 s \$0.get.local.ip;
#X obj 48 111 r \$0.local.ip;
#X msg 16 159 send \$1;
#X obj 204 39 r \$0.up.down;
#X obj 204 65 sel 1 0;
#X msg 227 232 disconnect;
#X obj 18 420 route #touch #accelerate;
#X obj 120 378 print connection;
#X obj 212 293 r \$0.conn.state;
#X msg 212 315 set \$1;
#X obj 187 345 s \$0.set.up.down;
#X obj 162 295 sel 0;
#X msg 162 315 set 0;
#X connect 0 0 9 0;
#X connect 1 0 0 0;
#X connect 2 0 20 0;
#X connect 2 1 21 0;
#X connect 2 1 25 0;
#X connect 5 0 8 0;
#X connect 5 1 6 0;
#X connect 7 0 8 1;
#X connect 8 0 1 0;
#X connect 10 0 11 0;
#X connect 11 0 12 0;
#X connect 12 0 13 0;
#X connect 12 1 14 0;
#X connect 13 0 16 0;
#X connect 15 0 13 1;
#X connect 16 0 0 0;
#X connect 17 0 18 0;
#X connect 18 0 5 0;
#X connect 18 1 19 0;
#X connect 19 0 0 0;
#X connect 20 0 3 0;
#X connect 20 1 4 0;
#X connect 22 0 23 0;
#X connect 23 0 24 0;
#X connect 25 0 26 0;
#X connect 26 0 24 0;
#X restore 135 398 pd connection;
#X text 83 352 Version: 2008-07-14;
#N canvas 126 244 432 467 accelerometer_variables 0;
#X obj 12 14 accelerate;
#X text 101 16 <- put this in your scene patch to access data;
#X text 137 74 then you get:;
#X obj 17 99 r accelerate;
#X obj 17 142 spigot;
#X obj 56 120 tgl 15 0 empty empty empty 17 7 0 10 -262144 -1 -1 0
1;
#X obj 51 171 route magnitude;
#X obj 54 188 hsl 128 15 0 2 0 0 empty empty empty -2 -8 0 10 -262144
-1 -1 0 1;
#X obj 53 235 hsl 128 15 -1.57 1.57 0 0 empty empty empty -2 -8 0 10
-262144 -1 -1 0 1;
#X obj 50 218 route pitch;
#X obj 54 278 hsl 128 15 -1.57 1.57 0 0 empty empty empty -2 -8 0 10
-262144 -1 -1 0 1;
#X obj 51 261 route roll;
#X obj 53 322 hsl 128 15 -1 1 0 0 empty empty empty -2 -8 0 10 -262144
-1 -1 0 1;
#X obj 52 369 hsl 128 15 -1 1 0 0 empty empty empty -2 -8 0 10 -262144
-1 -1 0 1;
#X obj 53 412 hsl 128 15 -1 1 0 0 empty empty empty -2 -8 0 10 -262144
-1 -1 0 1;
#X obj 50 305 route x;
#X obj 49 352 route y;
#X obj 50 395 route z;
#X text 88 123 <- turn on;
#X text 203 169 - magnitude -;
#X text 202 259 - roll -;
#X text 203 301 - x -;
#X text 202 351 - y -;
#X text 202 393 - z -;
#X text 203 217 - pitch -;
#X connect 3 0 4 0;
#X connect 4 0 6 0;
#X connect 4 0 9 0;
#X connect 4 0 11 0;
#X connect 4 0 15 0;
#X connect 4 0 16 0;
#X connect 4 0 17 0;
#X connect 5 0 4 1;
#X connect 6 0 7 0;
#X connect 9 0 8 0;
#X connect 11 0 10 0;
#X connect 15 0 12 0;
#X connect 16 0 13 0;
#X connect 17 0 14 0;
#X restore 13 296 pd accelerometer_variables;
#N canvas 562 244 421 506 touchpad_variables 0;
#X text 63 15 <- put this in your scene patch to access data;
#X obj 13 14 touch;
#X obj 13 77 r touch;
#X obj 48 159 route tap;
#X obj 48 180 route 1 2;
#X obj 48 201 bng 15 250 50 0 empty empty empty 17 7 0 10 -262144 -1
-1;
#X obj 78 202 bng 15 250 50 0 empty empty empty 17 7 0 10 -262144 -1
-1;
#X obj 48 296 route speed;
#X obj 48 318 route 1 2;
#X obj 51 365 hsl 128 15 0 127 0 0 empty empty empty -2 -8 0 10 -262144
-1 -1 0 1;
#X obj 81 342 hsl 128 15 0 127 0 0 empty empty empty -2 -8 0 10 -262144
-1 -1 0 1;
#X obj 49 246 route 1 2;
#X obj 49 224 route updown;
#X obj 49 269 tgl 15 0 empty empty empty 17 7 0 10 -262144 -1 -1 0
1;
#X obj 79 270 tgl 15 0 empty empty empty 17 7 0 10 -262144 -1 -1 0
1;
#X obj 13 121 spigot;
#X obj 52 101 tgl 15 0 empty empty empty 17 7 0 10 -262144 -1 -1 0
1;
#X text 78 99 monitor;
#X text 114 60 then you get:;
#X obj 49 419 route 1 2;
#X obj 52 466 hsl 128 15 -3.1415 3.1415 0 0 empty empty empty -2 -8
0 10 -262144 -1 -1 0 1;
#X obj 82 443 hsl 128 15 -3.1415 3.1415 0 0 empty empty empty -2 -8
0 10 -262144 -1 -1 0 1;
#X obj 49 397 route direction;
#X text 209 163 - tap -;
#X text 206 224 - updown -;
#X text 207 294 - speed -;
#X text 205 399 - direction -;
#X connect 2 0 15 0;
#X connect 3 0 4 0;
#X connect 4 0 5 0;
#X connect 4 1 6 0;
#X connect 7 0 8 0;
#X connect 8 0 9 0;
#X connect 8 1 10 0;
#X connect 11 0 13 0;
#X connect 11 1 14 0;
#X connect 12 0 11 0;
#X connect 15 0 3 0;
#X connect 15 0 7 0;
#X connect 15 0 12 0;
#X connect 15 0 22 0;
#X connect 16 0 15 1;
#X connect 19 0 20 0;
#X connect 19 1 21 0;
#X connect 22 0 19 0;
#X restore 13 317 pd touchpad_variables;
#X text 8 6 GET SENSOR DATA FROM iPhone;
#X text 8 15 ---------------------------;
#X text 12 37 In order to use this patch \, load the;
#X text 13 69 Application on your iPhone.;
#X text 12 110 -- 1 ------------------------------------;
#X text 13 176 -- 2 ------------------------------------;
#X text 7 227 ------------------------------------------;
#X text 12 264 howto use sensor data:;
#X text 12 275 ----------------------;
#X msg 169 97 symbol 192.168.1.52;
#X msg 13 91 symbol 192.168.1.47;
#X text 12 53 'zzSendSensors' scene with your RjDj;
#X connect 5 0 4 0;
