#N canvas 0 22 959 677 10;
#N canvas 0 22 450 300 fade 0;
#X obj 86 97 inlet~;
#X obj 152 97 inlet~;
#X obj 87 208 outlet~;
#X obj 211 97 inlet;
#X obj 211 137 vline~;
#X obj 151 146 -~;
#X obj 151 166 *~;
#X connect 0 0 5 1;
#X connect 0 0 2 0;
#X connect 1 0 5 0;
#X connect 3 0 4 0;
#X connect 4 0 6 1;
#X connect 5 0 6 0;
#X connect 6 0 2 0;
#X restore 64 -30 pd fade;
#N canvas 0 22 893 299 angle 0;
#X obj 116 19 r #accelerate;
#X obj 115 44 unpack f f f;
#X obj 196 79 t f f;
#X obj 152 152 sel 1;
#X obj 264 155 sel 1;
#X obj 154 195 outlet up;
#X obj 264 198 outlet down;
#X obj 152 116 < -0.75;
#X obj 264 119 > 0.75;
#X text 351 126 this turns the data coming out of the accelerometer
z-axis into two bangs;
#X connect 0 0 1 0;
#X connect 1 2 2 0;
#X connect 2 0 7 0;
#X connect 2 1 8 0;
#X connect 3 0 5 0;
#X connect 4 0 6 0;
#X connect 7 0 3 0;
#X connect 8 0 4 0;
#X restore 105 -91 pd angle;
#X msg 104 -62 0;
#X msg 157 -62 1;
#N canvas 554 117 387 383 onset_detection 0;
#X obj 37 87 *~;
#X obj 100 66 line~;
#X msg 100 43 0 \, 1 200;
#X obj 100 20 loadbang;
#X obj 37 44 inlet~;
#X obj 36 209 -;
#X obj 36 231 abs;
#X obj 33 301 outlet;
#N canvas 365 118 333 256 highpass 0;
#X obj 86 86 inlet~;
#X obj 84 168 outlet~;
#X obj 86 114 hip~ 3000;
#X obj 84 136 hip~ 3000;
#X connect 0 0 2 0;
#X connect 2 0 3 0;
#X connect 3 0 1 0;
#X restore 36 116 pd highpass;
#X obj 33 281 sel 1;
#X obj 35 252 > 25;
#X obj 37 143 env~ 64;
#X text 266 397 comment;
#X text 32 329 Send bang if the mic receives an onset;
#X obj 36 164 t f f;
#X connect 0 0 8 0;
#X connect 1 0 0 1;
#X connect 2 0 1 0;
#X connect 3 0 2 0;
#X connect 4 0 0 0;
#X connect 5 0 6 0;
#X connect 6 0 10 0;
#X connect 8 0 11 0;
#X connect 9 0 7 0;
#X connect 10 0 9 0;
#X connect 11 0 14 0;
#X connect 14 0 5 1;
#X connect 14 1 5 0;
#X restore 24 92 pd onset_detection;
#X obj 24 114 bng 15 250 50 0 empty empty empty 17 7 0 10 -262144 -1
-1;
#X text 22 66 Send bang if the mic receives an onset;
#N canvas 0 22 872 603 angle 0;
#X obj 271 27 r #accelerate;
#X obj 270 52 unpack f f f;
#X obj 307 124 < -0.5;
#X obj 419 127 > 0.5;
#X obj 351 87 t f f;
#X obj 345 213 == 0;
#X obj 394 215 == 0;
#X obj 305 155 t f f;
#X obj 416 159 t f f;
#X obj 368 245 &&;
#X obj 306 302 sel 1;
#X obj 369 301 sel 1;
#X obj 447 302 sel 1;
#X obj 307 389 outlet up;
#X obj 367 428 outlet middle;
#X obj 453 485 outlet down;
#X connect 0 0 1 0;
#X connect 1 2 4 0;
#X connect 2 0 7 0;
#X connect 3 0 8 0;
#X connect 4 0 2 0;
#X connect 4 1 3 0;
#X connect 5 0 9 0;
#X connect 6 0 9 1;
#X connect 7 0 10 0;
#X connect 7 1 5 0;
#X connect 8 0 6 0;
#X connect 8 1 12 0;
#X connect 9 0 11 0;
#X connect 10 0 13 0;
#X connect 11 0 14 0;
#X connect 12 0 15 0;
#X restore 204 -94 pd angle;
#N canvas 565 184 118 133 tap 0;
#X obj 16 16 r #touch;
#X obj 16 37 route down;
#X msg 16 59 tap \$1;
#X obj 16 81 outlet;
#X connect 0 0 1 0;
#X connect 1 0 2 0;
#X connect 2 0 3 0;
#X restore 415 209 pd tap;
#N canvas 226 304 213 331 speed 0;
#X obj 114 30 r #touch;
#X obj 114 52 list;
#X obj 8 58 t b b;
#X obj 8 36 metro 40;
#N canvas 335 294 251 502 speed_1 0;
#X msg 43 55 \$2 \$1 \$3 \$4;
#X obj 43 76 route 1;
#X obj 43 158 unpack f f;
#X obj 43 194 t f f b;
#X obj 61 220 f;
#X obj 43 243 -;
#X obj 110 194 t f f b;
#X obj 128 220 f;
#X obj 110 243 -;
#X obj 146 145 unpack f f;
#X obj 43 98 route up xy down;
#X obj 43 278 pack f f;
#X obj 43 322 unpack f f;
#X obj 43 345 t f f;
#X obj 43 369 *;
#X obj 110 344 t f f;
#X obj 110 368 *;
#X obj 43 393 +;
#X obj 43 416 pow 0.5;
#N canvas 541 449 106 125 lop 0;
#X obj 6 13 inlet;
#X obj 6 82 outlet;
#X obj 6 35 * 0.3;
#X obj 6 59 +;
#X obj 35 58 * 0.7;
#X connect 0 0 2 0;
#X connect 2 0 3 0;
#X connect 3 0 4 0;
#X connect 3 0 1 0;
#X connect 4 0 3 1;
#X restore 43 439 pd lop;
#X obj 43 12 inlet;
#X obj 86 12 inlet;
#X obj 43 484 outlet;
#X obj 43 34 list append 0 0 0 0;
#X obj 43 460 change;
#X obj 57 301 s \$0.delta.1;
#X connect 0 0 1 0;
#X connect 1 0 10 0;
#X connect 2 0 3 0;
#X connect 2 1 6 0;
#X connect 3 0 5 0;
#X connect 3 1 4 1;
#X connect 3 2 4 0;
#X connect 4 0 5 1;
#X connect 5 0 11 0;
#X connect 6 0 8 0;
#X connect 6 1 7 1;
#X connect 6 2 7 0;
#X connect 7 0 8 1;
#X connect 8 0 11 1;
#X connect 9 0 4 1;
#X connect 9 1 7 1;
#X connect 10 0 2 0;
#X connect 10 1 2 0;
#X connect 10 2 9 0;
#X connect 11 0 12 0;
#X connect 11 0 25 0;
#X connect 12 0 13 0;
#X connect 12 1 15 0;
#X connect 13 0 14 0;
#X connect 13 1 14 1;
#X connect 14 0 17 0;
#X connect 15 0 16 0;
#X connect 15 1 16 1;
#X connect 16 0 17 1;
#X connect 17 0 18 0;
#X connect 18 0 19 0;
#X connect 19 0 24 0;
#X connect 20 0 23 0;
#X connect 21 0 23 1;
#X connect 23 0 0 0;
#X connect 24 0 22 0;
#X restore 8 159 pd speed_1;
#N canvas 312 276 236 526 speed_2 0;
#X msg 43 55 \$2 \$1 \$3 \$4;
#X obj 43 76 route 1;
#X obj 43 158 unpack f f;
#X obj 43 194 t f f b;
#X obj 61 220 f;
#X obj 43 243 -;
#X obj 110 194 t f f b;
#X obj 128 220 f;
#X obj 110 243 -;
#X obj 146 145 unpack f f;
#X obj 43 98 route up xy down;
#X obj 43 278 pack f f;
#X obj 43 327 unpack f f;
#X obj 43 350 t f f;
#X obj 43 374 *;
#X obj 110 349 t f f;
#X obj 110 373 *;
#X obj 43 398 +;
#X obj 43 421 pow 0.5;
#N canvas 541 449 106 125 lop 0;
#X obj 6 13 inlet;
#X obj 6 82 outlet;
#X obj 6 35 * 0.3;
#X obj 6 59 +;
#X obj 35 58 * 0.7;
#X connect 0 0 2 0;
#X connect 2 0 3 0;
#X connect 3 0 4 0;
#X connect 3 0 1 0;
#X connect 4 0 3 1;
#X restore 43 444 pd lop;
#X obj 43 12 inlet;
#X obj 86 12 inlet;
#X obj 43 489 outlet;
#X obj 43 34 list append 0 0 0 0;
#X obj 43 465 change;
#X obj 54 305 s \$0.delta.2;
#X connect 0 0 1 0;
#X connect 1 0 10 0;
#X connect 2 0 3 0;
#X connect 2 1 6 0;
#X connect 3 0 5 0;
#X connect 3 1 4 1;
#X connect 3 2 4 0;
#X connect 4 0 5 1;
#X connect 5 0 11 0;
#X connect 6 0 8 0;
#X connect 6 1 7 1;
#X connect 6 2 7 0;
#X connect 7 0 8 1;
#X connect 8 0 11 1;
#X connect 9 0 4 1;
#X connect 9 1 7 1;
#X connect 10 0 2 0;
#X connect 10 1 2 0;
#X connect 10 2 9 0;
#X connect 11 0 12 0;
#X connect 11 0 25 0;
#X connect 12 0 13 0;
#X connect 12 1 15 0;
#X connect 13 0 14 0;
#X connect 13 1 14 1;
#X connect 14 0 17 0;
#X connect 15 0 16 0;
#X connect 15 1 16 1;
#X connect 16 0 17 1;
#X connect 17 0 18 0;
#X connect 18 0 19 0;
#X connect 19 0 24 0;
#X connect 20 0 23 0;
#X connect 21 0 23 1;
#X connect 23 0 0 0;
#X connect 24 0 22 0;
#X restore 90 160 pd speed_2;
#X msg 8 191 speed 1 \$1;
#X msg 90 191 speed 2 \$1;
#X obj 8 13 loadbang;
#X obj 8 231 outlet;
#X connect 0 0 1 0;
#X connect 1 0 4 1;
#X connect 1 0 5 1;
#X connect 2 0 4 0;
#X connect 2 1 5 0;
#X connect 3 0 2 0;
#X connect 4 0 6 0;
#X connect 5 0 7 0;
#X connect 6 0 9 0;
#X connect 7 0 9 0;
#X connect 8 0 3 0;
#X restore 415 232 pd speed;
#N canvas 129 241 258 271 updown 0;
#X obj 16 13 r #touch;
#X obj 16 41 list;
#X msg 16 63 \$2 \$1;
#X obj 16 86 route 1 2;
#X obj 16 120 route down up;
#X msg 16 181 updown 1 \$1;
#X msg 16 149 1;
#X msg 60 150 0;
#X obj 116 121 route down up;
#X msg 116 150 1;
#X msg 160 151 0;
#X msg 116 182 updown 2 \$1;
#X obj 16 224 outlet;
#X connect 0 0 1 0;
#X connect 1 0 2 0;
#X connect 2 0 3 0;
#X connect 3 0 4 0;
#X connect 3 1 8 0;
#X connect 4 0 6 0;
#X connect 4 1 7 0;
#X connect 5 0 12 0;
#X connect 6 0 5 0;
#X connect 7 0 5 0;
#X connect 8 0 9 0;
#X connect 8 1 10 0;
#X connect 9 0 11 0;
#X connect 10 0 11 0;
#X connect 11 0 12 0;
#X restore 415 254 pd updown;
#N canvas 553 103 273 244 direction 0;
#X obj 144 26 r \$0.delta.2;
#X obj 21 24 r \$0.delta.1;
#X obj 21 68 atan2;
#X msg 21 49 \$2 \$1;
#X obj 21 90 t f f b;
#X obj 43 113 f;
#X obj 21 158 * 0.5;
#X obj 21 138 +;
#X msg 21 182 direction 1 \$1;
#X obj 144 70 atan2;
#X msg 144 51 \$2 \$1;
#X obj 144 92 t f f b;
#X obj 166 115 f;
#X obj 144 160 * 0.5;
#X obj 144 140 +;
#X msg 144 184 direction 2 \$1;
#X obj 21 204 outlet;
#X connect 0 0 10 0;
#X connect 1 0 3 0;
#X connect 2 0 4 0;
#X connect 3 0 2 0;
#X connect 4 0 7 0;
#X connect 4 1 5 1;
#X connect 4 2 5 0;
#X connect 5 0 7 1;
#X connect 6 0 8 0;
#X connect 7 0 6 0;
#X connect 8 0 16 0;
#X connect 9 0 11 0;
#X connect 10 0 9 0;
#X connect 11 0 14 0;
#X connect 11 1 12 1;
#X connect 11 2 12 0;
#X connect 12 0 14 1;
#X connect 13 0 15 0;
#X connect 14 0 13 0;
#X connect 15 0 16 0;
#X restore 415 301 pd direction;
#N canvas 79 298 269 329 magnitude 0;
#X obj 14 17 r #accelerate;
#X obj 14 48 unpack f f f;
#X obj 14 108 *;
#X obj 76 108 *;
#X obj 135 108 *;
#X obj 14 138 +;
#X obj 14 168 +;
#X obj 14 198 pow 0.5;
#X msg 14 78 \$1 \$1;
#X msg 76 78 \$1 \$1;
#X msg 135 78 \$1 \$1;
#X obj 14 258 outlet;
#X connect 0 0 1 0;
#X connect 1 0 8 0;
#X connect 1 1 9 0;
#X connect 1 2 10 0;
#X connect 2 0 5 0;
#X connect 3 0 5 1;
#X connect 4 0 6 1;
#X connect 5 0 6 0;
#X connect 6 0 7 0;
#X connect 7 0 11 0;
#X connect 8 0 2 0;
#X connect 9 0 3 0;
#X connect 10 0 4 0;
#X restore 414 -106 pd magnitude;
#N canvas 143 130 366 291 pitch 0;
#X obj 31 25 r #accelerate;
#X obj 31 85 /;
#X obj 31 115 atan;
#X obj 31 145 * -1;
#X obj 31 55 list split 1;
#X obj 31 205 outlet;
#X connect 0 0 4 0;
#X connect 1 0 2 0;
#X connect 2 0 3 0;
#X connect 3 0 5 0;
#X connect 4 1 1 0;
#X restore 414 -84 pd pitch;
#N canvas 256 44 307 244 roll 0;
#X obj 14 17 r #accelerate;
#X obj 14 47 unpack f f f;
#X obj 14 77 /;
#X obj 14 107 atan;
#X obj 14 167 outlet;
#X connect 0 0 1 0;
#X connect 1 0 2 0;
#X connect 1 2 2 1;
#X connect 2 0 3 0;
#X connect 3 0 4 0;
#X restore 414 -63 pd roll;
#N canvas 166 94 327 239 x_y_z 0;
#X obj 14 17 r #accelerate;
#X msg 14 47 x \$1 \, y \$2 \, z \$3;
#X obj 14 77 outlet;
#X connect 0 0 1 0;
#X connect 1 0 2 0;
#X restore 414 -41 pd x_y_z;
#N canvas 0 22 223 279 status 0;
#X obj 14 17 r #accelerate;
#X obj 14 77 f 150;
#X obj 14 107 del;
#X obj 14 167 change;
#X obj 14 47 t b b;
#X obj 104 117 f 1;
#X obj 14 137 f 0;
#X obj 14 227 outlet;
#X connect 0 0 4 0;
#X connect 1 0 2 0;
#X connect 2 0 6 0;
#X connect 3 0 7 0;
#X connect 4 0 1 0;
#X connect 4 1 5 0;
#X connect 5 0 3 0;
#X connect 6 0 3 0;
#X restore 413 -8 pd status;
#N canvas 0 22 987 546 accel.analysis 0;
#X obj 279 105 r accelerate;
#X obj 280 155 t f f b;
#X obj 303 186 f;
#X obj 280 212 -;
#X obj 280 233 abs;
#X obj 280 282 sel 1;
#X obj 280 350 outlet;
#X obj 3 342 outlet;
#X obj 107 342 outlet;
#X obj 5 61 r accelerate;
#X obj 5 86 route roll pitch;
#X obj 248 309 t b b;
#X obj 5 153 + 1.5;
#X obj 4 274 int;
#X obj 107 226 + 1.5;
#X obj 107 276 int;
#X obj 107 253 * 2;
#X obj 107 303 spigot 1;
#X obj 162 263 r breaky;
#X obj 245 331 0;
#X obj 5 177 / 3;
#X obj 6 200 t f f;
#X obj 6 225 *;
#X obj 4 249 * 8;
#X text 18 35 get orientation;
#X text 268 69 detect shaking -> breaky;
#X obj 743 101 r accelerate;
#X obj 743 127 route roll pitch;
#X obj 743 160 t f f b;
#X obj 761 192 f;
#X obj 743 216 -;
#X obj 801 160 t f f b;
#X obj 819 192 f;
#X obj 801 216 -;
#X obj 743 346 b;
#X text 745 70 detect 'movement';
#X obj 776 396 0;
#X obj 743 373 1;
#X obj 743 430 s movement;
#X obj 776 374 del 2000;
#X obj 743 277 moses -0.2;
#X obj 801 248 moses -0.2;
#X obj 875 270 moses 0.2;
#X obj 817 299 moses 0.2;
#X obj 280 258 > 0.7;
#X obj 279 131 route magnitude;
#X obj 472 90 r accelerate;
#X obj 472 115 route magnitude;
#X obj 472 140 < 1;
#X obj 471 165 sel 0;
#X obj 471 192 s reverse;
#X connect 0 0 45 0;
#X connect 1 0 3 0;
#X connect 1 1 2 1;
#X connect 1 2 2 0;
#X connect 2 0 3 1;
#X connect 3 0 4 0;
#X connect 4 0 44 0;
#X connect 5 0 11 0;
#X connect 9 0 10 0;
#X connect 10 0 12 0;
#X connect 10 1 14 0;
#X connect 11 0 19 0;
#X connect 11 1 6 0;
#X connect 12 0 20 0;
#X connect 13 0 7 0;
#X connect 14 0 16 0;
#X connect 15 0 17 0;
#X connect 16 0 15 0;
#X connect 17 0 8 0;
#X connect 18 0 17 1;
#X connect 19 0 17 1;
#X connect 19 0 8 0;
#X connect 20 0 21 0;
#X connect 21 0 22 0;
#X connect 21 1 22 1;
#X connect 22 0 23 0;
#X connect 23 0 13 0;
#X connect 26 0 27 0;
#X connect 27 0 28 0;
#X connect 27 1 31 0;
#X connect 28 0 30 0;
#X connect 28 1 29 1;
#X connect 28 2 29 0;
#X connect 29 0 30 1;
#X connect 30 0 40 0;
#X connect 31 0 33 0;
#X connect 31 1 32 1;
#X connect 31 2 32 0;
#X connect 32 0 33 1;
#X connect 33 0 41 0;
#X connect 34 0 37 0;
#X connect 34 0 39 0;
#X connect 36 0 38 0;
#X connect 37 0 38 0;
#X connect 39 0 36 0;
#X connect 40 0 34 0;
#X connect 40 1 43 0;
#X connect 41 0 34 0;
#X connect 41 1 42 0;
#X connect 42 1 34 0;
#X connect 43 1 34 0;
#X connect 44 0 5 0;
#X connect 45 0 1 0;
#X connect 46 0 47 0;
#X connect 47 0 48 0;
#X connect 48 0 49 0;
#X connect 49 0 50 0;
#X restore 414 41 pd accel.analysis;
#X text 532 41 get orientation \,;
#X text 633 42 detect shaking -> breaky \,;
#X text 790 41 detect 'movement';
#N canvas 123 105 844 442 accel.analysis2 0;
#X obj 285 87 r accelerate;
#X obj 286 137 t f f b;
#X obj 309 168 f;
#X obj 286 194 -;
#X obj 286 215 abs;
#X obj 286 264 sel 1;
#X obj 286 332 outlet;
#X obj 9 324 outlet;
#X obj 123 392 outlet;
#X obj 11 43 r accelerate;
#X obj 11 68 route roll pitch;
#X obj 254 291 t b b;
#X obj 11 135 + 1.5;
#X obj 10 256 int;
#X obj 113 208 + 1.5;
#X obj 113 258 int;
#X obj 251 313 0;
#X obj 11 159 / 3;
#X obj 12 182 t f f;
#X obj 12 207 *;
#X text 4 15 get orientation;
#X text 274 51 detect shaking -> breaky;
#X obj 639 61 r accelerate;
#X obj 639 87 route roll pitch;
#X obj 639 120 t f f b;
#X obj 657 152 f;
#X obj 639 176 -;
#X obj 697 120 t f f b;
#X obj 715 152 f;
#X obj 697 176 -;
#X obj 639 306 b;
#X text 641 30 detect 'movement';
#X obj 672 356 0;
#X obj 639 333 1;
#X obj 639 390 s movement;
#X obj 286 240 > 0.7;
#X obj 285 113 route magnitude;
#X obj 478 72 r accelerate;
#X obj 478 97 route magnitude;
#X obj 478 147 sel 0;
#X obj 478 174 s reverse;
#X obj 478 122 > 0.3;
#X obj 10 231 * 4;
#X obj 113 235 * 2;
#X obj 639 237 moses -0.4;
#X obj 698 208 moses -0.4;
#X obj 713 259 moses 0.4;
#X obj 771 230 moses 0.4;
#X obj 672 334 del 1200;
#X connect 0 0 36 0;
#X connect 1 0 3 0;
#X connect 1 1 2 1;
#X connect 1 2 2 0;
#X connect 2 0 3 1;
#X connect 3 0 4 0;
#X connect 4 0 35 0;
#X connect 5 0 11 0;
#X connect 9 0 10 0;
#X connect 10 0 12 0;
#X connect 10 1 14 0;
#X connect 11 0 16 0;
#X connect 11 1 6 0;
#X connect 12 0 17 0;
#X connect 13 0 7 0;
#X connect 14 0 43 0;
#X connect 15 0 8 0;
#X connect 16 0 8 0;
#X connect 17 0 18 0;
#X connect 18 0 19 0;
#X connect 18 1 19 1;
#X connect 19 0 42 0;
#X connect 22 0 23 0;
#X connect 23 0 24 0;
#X connect 23 1 27 0;
#X connect 24 0 26 0;
#X connect 24 1 25 1;
#X connect 24 2 25 0;
#X connect 25 0 26 1;
#X connect 26 0 44 0;
#X connect 27 0 29 0;
#X connect 27 1 28 1;
#X connect 27 2 28 0;
#X connect 28 0 29 1;
#X connect 29 0 45 0;
#X connect 30 0 33 0;
#X connect 30 0 48 0;
#X connect 32 0 34 0;
#X connect 33 0 34 0;
#X connect 35 0 5 0;
#X connect 36 0 1 0;
#X connect 37 0 38 0;
#X connect 38 0 41 0;
#X connect 39 0 40 0;
#X connect 41 0 39 0;
#X connect 42 0 13 0;
#X connect 43 0 15 0;
#X connect 44 0 30 0;
#X connect 44 1 46 0;
#X connect 45 0 30 0;
#X connect 45 1 47 0;
#X connect 46 1 30 0;
#X connect 47 1 30 0;
#X connect 48 0 32 0;
#X restore 414 66 pd accel.analysis2;
#N canvas 0 22 1024 720 map-touch 0;
#X text 805 573 down finger x y;
#X text 806 591 up finger x y;
#X text 807 610 xy finger x y;
#N canvas 369 52 776 448 make-penta 0;
#X obj 104 66 inlet;
#N canvas 0 22 619 485 quickmajor 0;
#X obj 45 81 t a a;
#X obj 110 146 * 12;
#X obj 45 237 +;
#X obj 45 304 outlet;
#X obj 45 41 inlet;
#X obj 289 191 loadbang;
#X obj 293 45 inlet;
#X text 293 24 base note;
#X text 41 18 major step;
#X obj 289 237 s \$0-major;
#X obj 45 175 tabread \$0-major;
#X floatatom 57 146 5 0 0 0 - - -;
#X msg 289 214 0 0 2 4 5 7 9 11;
#X obj 289 261 table \$0-major 7;
#X obj 45 120 mod 7;
#X obj 110 120 div 7;
#X obj 45 260 +;
#X connect 0 0 14 0;
#X connect 0 1 15 0;
#X connect 1 0 2 1;
#X connect 2 0 16 0;
#X connect 4 0 0 0;
#X connect 5 0 12 0;
#X connect 6 0 16 1;
#X connect 10 0 2 0;
#X connect 12 0 9 0;
#X connect 14 0 10 0;
#X connect 14 0 11 0;
#X connect 15 0 1 0;
#X connect 16 0 3 0;
#X restore 104 284 pd quickmajor;
#X obj 104 198 moses 3;
#X obj 150 224 + 1;
#X text 301 118 Lets use a pentatonic scale here \, which in C only
has the scale steps: C \, D \, E \, G \, A.;
#X text 296 155 These are the steps 0 \, 1 \, 2 \, 4 \, 5 in a major
scale.;
#X obj 104 102 clip 0 4;
#X floatatom 50 67 5 0 0 0 - - -;
#X obj 104 130 int;
#X floatatom 113 319 5 0 0 0 - - -;
#X floatatom 209 255 5 0 0 1 base_note - -;
#X obj 192 64 inlet;
#X text 299 181 So we let 0 \, 1 and 2 pass unchanged \, and add 1
to 3 and 4 to make them 4 and 5;
#X text 217 286 "quickmajor" converts to midi notes.;
#X obj 104 359 outlet;
#X text 193 42 base note;
#X text 55 39 penta steps 0...4;
#X connect 0 0 6 0;
#X connect 1 0 9 0;
#X connect 1 0 14 0;
#X connect 2 0 1 0;
#X connect 2 1 3 0;
#X connect 3 0 1 0;
#X connect 6 0 8 0;
#X connect 7 0 6 0;
#X connect 8 0 2 0;
#X connect 10 0 1 1;
#X connect 11 0 1 1;
#X restore 889 80 pd make-penta;
#X floatatom 730 271 5 0 0 1 base_note - -;
#X obj 910 -4 loadbang;
#X floatatom 898 109 5 0 0 0 - - -;
#X msg 910 17 48;
#X obj 722 67 r #touch;
#X obj 722 119 route down xy;
#N canvas 469 318 738 484 map-finger-to-octave 0;
#X obj 120 96 unpack 0 0;
#X obj 80 32 inlet;
#X text 215 94 x y;
#X floatatom 158 198 5 0 0 0 - - -;
#X floatatom 137 255 5 0 0 0 - - -;
#X obj 120 228 div 64;
#X text 186 222 The screen is 320 px large. We divided it into 5 parts
\, each of which is 320/5 = 64 pixels high.;
#X msg 617 172 320;
#X obj 617 199 / 5;
#X floatatom 617 224 5 0 0 0 - - -;
#X obj 120 375 outlet;
#X text 185 252 [div 64] gives us the index number from 0 to 4;
#X obj 120 163 select 1;
#X obj 120 193 f;
#X obj 80 58 list split 1;
#X text 190 135 we're only interested in the right side of the screen.
;
#X obj 120 136 >= 220;
#X obj 120 337 -;
#X msg 120 313 4 \$1;
#X text 172 323 finally we invert the direction because y=0 is the
top of the screen \, which feel unnatural for notes;
#X connect 0 0 16 0;
#X connect 0 1 13 1;
#X connect 1 0 14 0;
#X connect 3 0 5 0;
#X connect 5 0 4 0;
#X connect 5 0 18 0;
#X connect 7 0 8 0;
#X connect 8 0 9 0;
#X connect 12 0 13 0;
#X connect 13 0 5 0;
#X connect 14 1 0 0;
#X connect 16 0 12 0;
#X connect 17 0 10 0;
#X connect 18 0 17 0;
#X restore 722 202 pd map-finger-to-octave;
#X obj 722 246 * 12;
#X obj 722 226 + 1;
#X obj 910 47 t b a;
#X obj 889 139 s \$0-key;
#X obj 813 436 r #touch;
#X obj 621 572 s \$0-drumset;
#X obj 301 86 r \$0-touchdown;
#X text 376 115 ignore center region;
#X obj 301 175 select 0 1;
#N canvas 0 22 619 485 quickmajor 0;
#X obj 45 81 t a a;
#X obj 110 146 * 12;
#X obj 45 237 +;
#X obj 45 304 outlet;
#X obj 45 41 inlet;
#X obj 289 191 loadbang;
#X obj 293 45 inlet;
#X text 293 24 base note;
#X text 41 18 major step;
#X obj 289 237 s \$0-major;
#X obj 45 175 tabread \$0-major;
#X floatatom 57 146 5 0 0 0 - - -;
#X msg 289 214 0 0 2 4 5 7 9 11;
#X obj 289 261 table \$0-major 7;
#X obj 45 120 mod 7;
#X obj 110 120 div 7;
#X obj 45 260 +;
#X connect 0 0 14 0;
#X connect 0 1 15 0;
#X connect 1 0 2 1;
#X connect 2 0 16 0;
#X connect 4 0 0 0;
#X connect 5 0 12 0;
#X connect 6 0 16 1;
#X connect 10 0 2 0;
#X connect 12 0 9 0;
#X connect 14 0 10 0;
#X connect 14 0 11 0;
#X connect 15 0 1 0;
#X connect 16 0 3 0;
#X restore 301 331 pd quickmajor;
#X obj 382 246 loadbang;
#X msg 382 267 48;
#X obj 382 297 t b a;
#X obj 301 364 s \$0-key;
#X text 362 144 right hand \, three fingers: 0 \, 1 \, 2;
#X msg 301 204 4;
#X msg 334 204 5;
#X text 81 176 left hand \, two fingers: 0 \, 1;
#X obj 301 113 route 0 2;
#X obj 412 619 +;
#X msg 436 591 1;
#X msg 401 590 -1;
#X obj 456 619 f 1;
#X floatatom 412 664 5 0 0 0 - - -;
#X obj 412 685 s \$0-octave;
#X obj 449 243 r \$0-octave;
#X obj 449 285 * 12;
#X floatatom 496 342 5 0 0 0 - - -;
#X obj 412 643 clip 3 5;
#X obj 546 324 s DEBUG;
#X obj 546 294 list prepend TOUCH-OCT;
#X obj 401 550 select 0 1;
#N canvas 0 22 1086 424 octave-button 0;
#X obj 92 92 r \$0-touchdown;
#X obj 205 217 == 2;
#X text 259 217 only left index finger;
#X obj 138 251 spigot;
#X obj 92 147 route 2;
#X text 157 148 ignore right hand (x-grid == 2);
#X obj 138 183 unpack 0 0;
#X obj 138 375 outlet;
#X obj 567 213 == 2;
#X text 621 213 only left index finger;
#X obj 500 247 spigot;
#X obj 454 143 route 2;
#X text 519 144 ignore right hand (x-grid == 2);
#X obj 500 179 unpack 0 0;
#X obj 500 371 outlet;
#X obj 454 88 r \$0-touchup;
#X obj 898 205 == 2;
#X text 952 205 only left index finger;
#X obj 831 239 spigot;
#X obj 785 135 route 2;
#X text 850 136 ignore right hand (x-grid == 2);
#X obj 831 171 unpack 0 0;
#X obj 785 80 r \$0-touchxy;
#X obj 831 287 t a b;
#X obj 831 265 change;
#X connect 0 0 4 0;
#X connect 1 0 3 1;
#X connect 3 0 7 0;
#X connect 4 1 6 0;
#X connect 6 0 3 0;
#X connect 6 1 1 0;
#X connect 8 0 10 1;
#X connect 10 0 14 0;
#X connect 11 1 13 0;
#X connect 13 0 10 0;
#X connect 13 1 8 0;
#X connect 15 0 11 0;
#X connect 16 0 18 1;
#X connect 18 0 24 0;
#X connect 19 1 21 0;
#X connect 21 0 18 0;
#X connect 21 1 16 0;
#X connect 22 0 19 0;
#X connect 23 0 7 0;
#X connect 23 1 14 0;
#X connect 24 0 23 0;
#X restore 401 433 pd octave-button;
#X obj 510 462 b;
#N canvas 0 22 450 300 once 0;
#X obj 144 113 inlet;
#X obj 144 171 spigot 1;
#X obj 211 110 inlet;
#X msg 207 137 1;
#X msg 208 172 0;
#X obj 144 208 t a b;
#X obj 144 237 outlet;
#X connect 0 0 1 0;
#X connect 1 0 5 0;
#X connect 2 0 3 0;
#X connect 3 0 1 1;
#X connect 4 0 1 1;
#X connect 5 0 6 0;
#X connect 5 1 4 0;
#X restore 401 500 pd once;
#X obj 621 432 r \$0-touchdown;
#X obj 621 465 route 1;
#X obj 621 491 route 0 1;
#X obj 621 517 b;
#X obj 621 545 f;
#X obj 649 545 ==;
#X connect 3 0 6 0;
#X connect 3 0 14 0;
#X connect 5 0 7 0;
#X connect 7 0 13 0;
#X connect 8 0 9 0;
#X connect 9 0 10 0;
#X connect 9 1 10 0;
#X connect 10 0 12 0;
#X connect 11 0 4 0;
#X connect 12 0 11 0;
#X connect 13 0 3 0;
#X connect 13 1 3 1;
#X connect 17 0 29 0;
#X connect 19 0 26 0;
#X connect 19 1 27 0;
#X connect 20 0 24 0;
#X connect 21 0 22 0;
#X connect 22 0 23 0;
#X connect 23 0 20 0;
#X connect 23 1 20 1;
#X connect 26 0 20 0;
#X connect 27 0 20 0;
#X connect 29 0 19 0;
#X connect 29 1 20 0;
#X connect 30 0 39 0;
#X connect 31 0 30 0;
#X connect 32 0 30 0;
#X connect 33 0 30 1;
#X connect 34 0 35 0;
#X connect 36 0 37 0;
#X connect 36 0 41 0;
#X connect 37 0 38 0;
#X connect 37 0 23 0;
#X connect 39 0 33 0;
#X connect 39 0 34 0;
#X connect 41 0 40 0;
#X connect 42 0 32 0;
#X connect 42 1 31 0;
#X connect 43 0 45 0;
#X connect 43 1 44 0;
#X connect 44 0 45 1;
#X connect 45 0 42 0;
#X connect 46 0 47 0;
#X connect 47 0 48 0;
#X connect 48 0 49 0;
#X connect 48 1 49 0;
#X connect 49 0 50 0;
#X connect 50 0 51 0;
#X connect 50 0 16 0;
#X connect 51 0 50 1;
#X restore 415 347 pd map-touch;
#N canvas 0 22 626 409 map-accel 0;
#X obj 199 34 r #accelerate;
#X obj 199 78 unpack 0 0 0;
#X obj 197 241 int;
#X obj 197 281 change;
#X obj 239 154 clip 3 8;
#X obj 239 181 s \$0-reso;
#X obj 197 261 clip 80 120;
#X obj 199 55 speedlim 50;
#N canvas 0 22 450 300 scale 0;
#X obj 207 184 f \$1;
#X obj 377 181 f \$4;
#X obj 327 182 f \$3;
#X obj 257 182 f \$2;
#X obj 207 95 inlet;
#X obj 257 95 inlet;
#X obj 327 95 inlet;
#X obj 377 95 inlet;
#X obj 121 64 inlet;
#X obj 121 568 outlet;
#X text 619 59 ARGS;
#X text 629 105 2: input_high_border;
#X text 629 131 3: output_low_border;
#X text 629 153 4: output_high_border;
#X text 184 64 scale [from_low \, from_hi] to [to_low \, to_hi];
#X obj 426 136 t b b b b;
#X obj 426 94 loadbang;
#X obj 121 535 +;
#X text 239 307 inh-inl;
#X text 364 296 outh-outl;
#X obj 121 498 *;
#X text 153 348 - inl;
#X text 153 536 + outl;
#X obj 257 247 t b a;
#X obj 377 235 t b a;
#X msg 435 115 bang;
#X obj 121 374 / 1;
#X obj 121 350 -;
#X obj 327 297 -;
#X obj 327 276 swap;
#X obj 207 281 swap;
#X obj 207 306 -;
#N canvas 0 22 549 462 mapping 0;
#X obj 103 74 inlet;
#X obj 103 358 outlet;
#X obj 133 265 pow 1;
#X obj 206 75 inlet;
#X obj 206 120 select 1;
#X obj 187 254 * 2;
#X obj 187 227 - 1;
#X msg 187 276 10 \$1;
#X obj 206 96 route float dB;
#N canvas 477 233 525 407 demux3 0;
#X obj 88 263 outlet;
#X obj 88 226 spigot 1;
#X obj 171 264 outlet;
#X obj 171 227 spigot 0;
#X obj 241 264 outlet;
#X obj 241 227 spigot 0;
#X obj 265 152 unpack 0 0 0;
#X obj 88 51 inlet;
#X obj 265 57 inlet;
#X msg 265 109 1 0 0;
#X msg 311 110 0 1 0;
#X msg 360 110 0 0 1;
#X obj 265 83 select 0 1 2;
#X connect 1 0 0 0;
#X connect 3 0 2 0;
#X connect 5 0 4 0;
#X connect 6 0 1 1;
#X connect 6 1 3 1;
#X connect 6 2 5 1;
#X connect 7 0 1 0;
#X connect 7 0 3 0;
#X connect 7 0 5 0;
#X connect 8 0 12 0;
#X connect 9 0 6 0;
#X connect 10 0 6 0;
#X connect 11 0 6 0;
#X connect 12 0 9 0;
#X connect 12 1 10 0;
#X connect 12 2 11 0;
#X restore 103 204 pd demux3;
#X msg 206 142 0;
#X msg 259 142 1;
#X msg 301 143 2;
#X obj 187 302 pow;
#X connect 0 0 9 0;
#X connect 2 0 1 0;
#X connect 3 0 8 0;
#X connect 4 0 10 0;
#X connect 4 1 11 0;
#X connect 5 0 7 0;
#X connect 6 0 5 0;
#X connect 7 0 13 0;
#X connect 8 0 4 0;
#X connect 8 0 2 1;
#X connect 8 1 12 0;
#X connect 9 0 1 0;
#X connect 9 1 2 0;
#X connect 9 2 6 0;
#X connect 10 0 9 1;
#X connect 11 0 9 1;
#X connect 12 0 9 1;
#X connect 13 0 1 0;
#X restore 121 464 pd mapping;
#X obj 630 273 inlet;
#X obj 630 322 list append \$5;
#X obj 683 391 list trim;
#X obj 630 370 select 0;
#X msg 698 295 symbol dB;
#X msg 630 391 1;
#X obj 565 272 loadbang;
#X text 630 252 mapping;
#X obj 630 297 t a b;
#X obj 630 345 list split 1;
#X text 630 180 5: mapping: float is a pow-exponent \, "dB" can be
used to use a dB scaling (optional \, default is linear);
#X obj 207 145 unpack 0 0 0 0;
#X obj 207 125 route list;
#X text 629 83 1: input_low_border or list of four values;
#N canvas 172 83 586 377 LICENSE-GPL 0;
#X text 57 88 This program is free software: you can redistribute it
and/or modify it under the terms of the GNU General Public License
as published by the Free Software Foundation \, either version 3 of
the License \, or (at your option) any later version.;
#X text 58 168 This program is distributed in the hope that it will
be useful \, but WITHOUT ANY WARRANTY \; without even the implied warranty
of MERCHANTABILITY or FITNESS FOR A PARTICULAR PURPOSE. See the GNU
General Public License for more details.;
#X text 57 261 You should have received a copy of the GNU General Public
License along with this program. If not \, see <http://www.gnu.org/licenses/>.
;
#X text 61 54 Copyright (C) 2009 \, Reality Jockey Ltd.;
#X text 60 325 See the file LICENSE.txt for the full license text.
;
#X restore 742 39 pd LICENSE-GPL;
#X connect 0 0 27 1;
#X connect 0 0 30 0;
#X connect 1 0 24 0;
#X connect 2 0 17 1;
#X connect 2 0 29 0;
#X connect 3 0 23 0;
#X connect 4 0 45 0;
#X connect 5 0 3 0;
#X connect 6 0 2 0;
#X connect 7 0 1 0;
#X connect 8 0 27 0;
#X connect 15 0 0 0;
#X connect 15 1 3 0;
#X connect 15 2 2 0;
#X connect 15 3 1 0;
#X connect 16 0 15 0;
#X connect 17 0 9 0;
#X connect 20 0 17 0;
#X connect 23 0 30 0;
#X connect 23 1 30 1;
#X connect 24 0 29 0;
#X connect 24 1 29 1;
#X connect 25 0 15 0;
#X connect 26 0 32 0;
#X connect 27 0 26 0;
#X connect 28 0 20 1;
#X connect 29 0 28 0;
#X connect 29 1 28 1;
#X connect 30 0 31 0;
#X connect 30 1 31 1;
#X connect 31 0 26 1;
#X connect 32 0 20 0;
#X connect 33 0 41 0;
#X connect 34 0 42 0;
#X connect 35 0 32 1;
#X connect 36 0 38 0;
#X connect 36 1 35 0;
#X connect 37 0 34 0;
#X connect 38 0 32 1;
#X connect 39 0 34 0;
#X connect 41 0 34 0;
#X connect 41 1 34 1;
#X connect 42 0 36 0;
#X connect 44 0 0 0;
#X connect 44 1 3 0;
#X connect 44 2 2 0;
#X connect 44 3 1 0;
#X connect 45 0 44 0;
#X connect 45 1 0 0;
#X restore 245 122 pd scale;
#X obj 482 47 loadbang;
#X msg 288 87 -2;
#X msg 318 87 2;
#X msg 347 87 3;
#X msg 378 87 8;
#X msg 320 184 -2;
#X msg 350 184 2;
#X msg 379 184 80;
#X msg 410 184 120;
#N canvas 0 22 732 419 scale 0;
#X obj 207 184 f \$1;
#X obj 377 181 f \$4;
#X obj 327 182 f \$3;
#X obj 257 182 f \$2;
#X obj 207 95 inlet;
#X obj 257 95 inlet;
#X obj 327 95 inlet;
#X obj 377 95 inlet;
#X obj 121 64 inlet;
#X obj 121 568 outlet;
#X text 619 59 ARGS;
#X text 629 105 2: input_high_border;
#X text 629 131 3: output_low_border;
#X text 629 153 4: output_high_border;
#X text 184 64 scale [from_low \, from_hi] to [to_low \, to_hi];
#X obj 426 136 t b b b b;
#X obj 426 94 loadbang;
#X obj 121 535 +;
#X text 239 307 inh-inl;
#X text 364 296 outh-outl;
#X obj 121 498 *;
#X text 153 348 - inl;
#X text 153 536 + outl;
#X obj 257 247 t b a;
#X obj 377 235 t b a;
#X msg 435 115 bang;
#X obj 121 374 / 1;
#X obj 121 350 -;
#X obj 327 297 -;
#X obj 327 276 swap;
#X obj 207 281 swap;
#X obj 207 306 -;
#N canvas 0 22 549 462 mapping 0;
#X obj 103 74 inlet;
#X obj 103 358 outlet;
#X obj 133 265 pow 1;
#X obj 206 75 inlet;
#X obj 206 120 select 1;
#X obj 187 254 * 2;
#X obj 187 227 - 1;
#X msg 187 276 10 \$1;
#X obj 206 96 route float dB;
#N canvas 477 233 525 407 demux3 0;
#X obj 88 263 outlet;
#X obj 88 226 spigot 1;
#X obj 171 264 outlet;
#X obj 171 227 spigot 0;
#X obj 241 264 outlet;
#X obj 241 227 spigot 0;
#X obj 265 152 unpack 0 0 0;
#X obj 88 51 inlet;
#X obj 265 57 inlet;
#X msg 265 109 1 0 0;
#X msg 311 110 0 1 0;
#X msg 360 110 0 0 1;
#X obj 265 83 select 0 1 2;
#X connect 1 0 0 0;
#X connect 3 0 2 0;
#X connect 5 0 4 0;
#X connect 6 0 1 1;
#X connect 6 1 3 1;
#X connect 6 2 5 1;
#X connect 7 0 1 0;
#X connect 7 0 3 0;
#X connect 7 0 5 0;
#X connect 8 0 12 0;
#X connect 9 0 6 0;
#X connect 10 0 6 0;
#X connect 11 0 6 0;
#X connect 12 0 9 0;
#X connect 12 1 10 0;
#X connect 12 2 11 0;
#X restore 103 204 pd demux3;
#X msg 206 142 0;
#X msg 259 142 1;
#X msg 301 143 2;
#X obj 187 302 pow;
#X connect 0 0 9 0;
#X connect 2 0 1 0;
#X connect 3 0 8 0;
#X connect 4 0 10 0;
#X connect 4 1 11 0;
#X connect 5 0 7 0;
#X connect 6 0 5 0;
#X connect 7 0 13 0;
#X connect 8 0 4 0;
#X connect 8 0 2 1;
#X connect 8 1 12 0;
#X connect 9 0 1 0;
#X connect 9 1 2 0;
#X connect 9 2 6 0;
#X connect 10 0 9 1;
#X connect 11 0 9 1;
#X connect 12 0 9 1;
#X connect 13 0 1 0;
#X restore 121 464 pd mapping;
#X obj 630 273 inlet;
#X obj 630 322 list append \$5;
#X obj 683 391 list trim;
#X obj 630 370 select 0;
#X msg 698 295 symbol dB;
#X msg 630 391 1;
#X obj 565 272 loadbang;
#X text 630 252 mapping;
#X obj 630 297 t a b;
#X obj 630 345 list split 1;
#X text 630 180 5: mapping: float is a pow-exponent \, "dB" can be
used to use a dB scaling (optional \, default is linear);
#X obj 207 145 unpack 0 0 0 0;
#X obj 207 125 route list;
#X text 629 83 1: input_low_border or list of four values;
#N canvas 172 83 586 377 LICENSE-GPL 0;
#X text 57 88 This program is free software: you can redistribute it
and/or modify it under the terms of the GNU General Public License
as published by the Free Software Foundation \, either version 3 of
the License \, or (at your option) any later version.;
#X text 58 168 This program is distributed in the hope that it will
be useful \, but WITHOUT ANY WARRANTY \; without even the implied warranty
of MERCHANTABILITY or FITNESS FOR A PARTICULAR PURPOSE. See the GNU
General Public License for more details.;
#X text 57 261 You should have received a copy of the GNU General Public
License along with this program. If not \, see <http://www.gnu.org/licenses/>.
;
#X text 61 54 Copyright (C) 2009 \, Reality Jockey Ltd.;
#X text 60 325 See the file LICENSE.txt for the full license text.
;
#X restore 742 39 pd LICENSE-GPL;
#X connect 0 0 27 1;
#X connect 0 0 30 0;
#X connect 1 0 24 0;
#X connect 2 0 17 1;
#X connect 2 0 29 0;
#X connect 3 0 23 0;
#X connect 4 0 45 0;
#X connect 5 0 3 0;
#X connect 6 0 2 0;
#X connect 7 0 1 0;
#X connect 8 0 27 0;
#X connect 15 0 0 0;
#X connect 15 1 3 0;
#X connect 15 2 2 0;
#X connect 15 3 1 0;
#X connect 16 0 15 0;
#X connect 17 0 9 0;
#X connect 20 0 17 0;
#X connect 23 0 30 0;
#X connect 23 1 30 1;
#X connect 24 0 29 0;
#X connect 24 1 29 1;
#X connect 25 0 15 0;
#X connect 26 0 32 0;
#X connect 27 0 26 0;
#X connect 28 0 20 1;
#X connect 29 0 28 0;
#X connect 29 1 28 1;
#X connect 30 0 31 0;
#X connect 30 1 31 1;
#X connect 31 0 26 1;
#X connect 32 0 20 0;
#X connect 33 0 41 0;
#X connect 34 0 42 0;
#X connect 35 0 32 1;
#X connect 36 0 38 0;
#X connect 36 1 35 0;
#X connect 37 0 34 0;
#X connect 38 0 32 1;
#X connect 39 0 34 0;
#X connect 41 0 34 0;
#X connect 41 1 34 1;
#X connect 42 0 36 0;
#X connect 44 0 0 0;
#X connect 44 1 3 0;
#X connect 44 2 2 0;
#X connect 44 3 1 0;
#X connect 45 0 44 0;
#X connect 45 1 0 0;
#X restore 198 219 pd scale;
#X obj 197 312 outlet;
#X connect 0 0 7 0;
#X connect 1 0 18 0;
#X connect 1 1 8 0;
#X connect 2 0 6 0;
#X connect 3 0 19 0;
#X connect 4 0 5 0;
#X connect 6 0 3 0;
#X connect 7 0 1 0;
#X connect 8 0 4 0;
#X connect 9 0 10 0;
#X connect 9 0 11 0;
#X connect 9 0 12 0;
#X connect 9 0 13 0;
#X connect 9 0 14 0;
#X connect 9 0 15 0;
#X connect 9 0 16 0;
#X connect 9 0 17 0;
#X connect 10 0 8 1;
#X connect 11 0 8 2;
#X connect 12 0 8 3;
#X connect 13 0 8 4;
#X connect 14 0 18 1;
#X connect 15 0 18 2;
#X connect 16 0 18 3;
#X connect 17 0 18 4;
#X connect 18 0 2 0;
#X restore 414 18 pd map-accel;
#N canvas 0 22 721 361 touch2grid 0;
#X obj 67 61 r #touch;
#X obj 67 82 route down;
#X obj 67 120 list split 1;
#X obj 254 63 r #touch;
#X obj 254 122 list split 1;
#X obj 421 67 r #touch;
#X obj 421 126 list split 1;
#X obj 254 84 route up;
#X obj 421 88 route xy;
#X obj 107 237 outlet;
#X obj 294 239 outlet;
#X obj 461 243 outlet;
#X connect 0 0 1 0;
#X connect 1 0 2 0;
#X connect 2 1 9 0;
#X connect 3 0 7 0;
#X connect 4 1 10 0;
#X connect 5 0 8 0;
#X connect 6 1 11 0;
#X connect 7 0 4 0;
#X connect 8 0 6 0;
#X restore 413 386 pd touch2grid;
#X obj 413 457 s \$0-touchdown;
#X obj 457 428 s \$0-touchup;
#X obj 501 407 s \$0-touchxy;
#N canvas 0 22 675 557 breath 0;
#X obj 154 133 env~;
#X obj 155 176 clip 0 30;
#X obj 156 196 / 30;
#X obj 209 129 * -1;
#X obj 209 150 + 100;
#X obj 154 156 +;
#X msg 208 108 70;
#X obj 208 86 loadbang;
#X text 204 65 threshold (between 0 and 100);
#X obj 154 40 inlet~;
#N canvas 477 248 450 300 follower 0;
#X obj 142 99 +;
#X text 228 99 long-term loudness;
#X obj 142 64 inlet;
#X text 177 36 input;
#X obj 174 100 * 0.94;
#X obj 142 122 * 0.06;
#X obj 142 168 outlet;
#X connect 0 0 4 0;
#X connect 0 0 5 0;
#X connect 2 0 0 0;
#X connect 4 0 0 1;
#X connect 5 0 6 0;
#X restore 156 218 pd follower;
#X obj 156 246 outlet;
#X text 426 37 from Amaury;
#X connect 0 0 5 0;
#X connect 1 0 2 0;
#X connect 2 0 10 0;
#X connect 3 0 4 0;
#X connect 3 0 5 1;
#X connect 4 0 1 2;
#X connect 4 0 2 1;
#X connect 5 0 1 0;
#X connect 6 0 3 0;
#X connect 7 0 6 0;
#X connect 9 0 0 0;
#X connect 10 0 11 0;
#X restore 25 192 pd breath;
#X obj 25 216 sig~;
#N canvas 333 300 649 466 touchinput 0;
#X obj 122 110 route 1 2;
#X obj 99 39 route down xy up;
#X obj 195 91 route 1 2;
#X msg 197 127 1;
#X obj 215 222 moses 50;
#X msg 216 248 0;
#X obj 99 69 route 1 2;
#X obj 215 197 unpack;
#X obj 115 265 line;
#N canvas 100 187 455 426 interact 0;
#X obj 46 219 -;
#X obj 48 191 t f f;
#X obj 67 59 unpack;
#X obj 68 32 inlet;
#X obj 67 114 atan2;
#X obj 66 398 outlet;
#X obj 119 84 - 240;
#X obj 47 170 change;
#X msg 185 158 stop \, bang;
#X msg 185 202 0;
#X obj 186 181 del 40;
#X obj 231 62 inlet;
#X msg 224 109 stop;
#X msg 327 191 1;
#X obj 116 357 * 0.5;
#X obj 66 357 +;
#X obj 65 332 * -10;
#X obj 68 84 - 170;
#X floatatom 118 61 5 0 0 0 - - -;
#X floatatom 119 21 5 0 0 0 - - -;
#X obj 47 240 moses 5;
#X obj 28 265 moses -5;
#X obj 116 290 - 6.28319;
#X obj 29 290 + 6.28319;
#X obj 118 39 t b f;
#X connect 0 0 20 0;
#X connect 1 0 0 1;
#X connect 1 1 0 0;
#X connect 2 0 17 0;
#X connect 2 1 6 0;
#X connect 3 0 2 0;
#X connect 4 0 7 0;
#X connect 4 0 8 0;
#X connect 6 0 4 1;
#X connect 7 0 1 0;
#X connect 8 0 10 0;
#X connect 9 0 16 0;
#X connect 10 0 9 0;
#X connect 11 0 12 0;
#X connect 11 0 13 0;
#X connect 12 0 10 0;
#X connect 13 0 5 0;
#X connect 14 0 15 1;
#X connect 15 0 14 0;
#X connect 15 0 5 0;
#X connect 16 0 15 0;
#X connect 17 0 4 0;
#X connect 18 0 4 0;
#X connect 19 0 24 0;
#X connect 20 0 21 0;
#X connect 20 1 22 0;
#X connect 21 0 23 0;
#X connect 21 1 16 0;
#X connect 22 0 16 0;
#X connect 23 0 16 0;
#X connect 24 0 18 0;
#X connect 24 1 4 1;
#X restore 125 197 pd interact;
#X msg 78 111 0;
#X obj 100 17 r #touch;
#X msg 114 242 \$1 50;
#X msg 236 304 0;
#X msg 277 306 4;
#X obj 115 327 outlet;
#X obj 163 285 print;
#X connect 0 0 9 0;
#X connect 1 0 6 0;
#X connect 1 1 0 0;
#X connect 1 2 2 0;
#X connect 2 0 3 0;
#X connect 2 1 3 0;
#X connect 2 1 14 0;
#X connect 3 0 9 1;
#X connect 4 0 5 0;
#X connect 6 0 10 0;
#X connect 6 1 13 0;
#X connect 7 1 4 0;
#X connect 8 0 15 0;
#X connect 9 0 12 0;
#X connect 10 0 12 0;
#X connect 11 0 1 0;
#X connect 11 0 16 0;
#X connect 12 0 8 0;
#X restore 415 324 pd touchinput;
#N canvas 0 22 591 412 touchtoggle 0;
#X obj 413 158 r #touch;
#X obj 413 185 route down up;
#X msg 412 264 0;
#X msg 460 286 1;
#X obj 414 240 unpack 0 0 0;
#X obj 461 264 unpack 0 0 0;
#X obj 401 330 outlet;
#X connect 0 0 1 0;
#X connect 1 0 4 0;
#X connect 1 1 5 0;
#X connect 2 0 6 0;
#X connect 3 0 6 0;
#X connect 4 0 2 0;
#X connect 5 0 3 0;
#X restore 415 275 pd touchtoggle;
#N canvas 0 22 450 300 accel-U 0;
#X obj 104 324 list prepend 3;
#X obj 64 66 r #accelerate;
#X obj 64 121 unpack 0 0 0;
#X floatatom 144 271 5 0 0 0 - - -;
#X obj 64 457 -;
#X obj 64 433 t a a;
#X obj 159 494 hsl 128 15 -2 2 0 0 empty empty -2-2 -2 -8 0 10 -262144
-1 -1 0 1;
#N canvas 0 22 576 436 updown 0;
#X obj 225 158 * -1;
#X msg 283 227 1;
#X obj 163 116 inlet;
#X msg 221 229 0;
#X msg 159 224 -1;
#X obj 289 116 inlet;
#X obj 185 274 change;
#X obj 185 296 outlet;
#X msg 340 208 set -100;
#X obj 159 179 moses -0.5;
#X obj 227 198 moses 0.5;
#X connect 0 0 9 1;
#X connect 1 0 6 0;
#X connect 2 0 9 0;
#X connect 3 0 6 0;
#X connect 4 0 6 0;
#X connect 5 0 0 0;
#X connect 5 0 8 0;
#X connect 5 0 10 1;
#X connect 6 0 7 0;
#X connect 8 0 6 0;
#X connect 9 0 4 0;
#X connect 9 1 10 0;
#X connect 10 0 3 0;
#X connect 10 1 1 0;
#X restore 64 541 pd updown;
#X obj 82 604 hradio 15 1 0 3 empty empty empty 0 -8 0 10 -262144 -1
-1 0;
#X obj 82 583 + 1;
#X floatatom 125 522 5 0 0 0 - - -;
#X obj 104 303 clip -3 3;
#X msg 160 545 set \$1;
#X msg 162 564 0.72;
#X obj 218 547 loadbang;
#X obj 244 344 list prepend 10;
#X obj 104 245 +;
#X obj 104 271 * 1;
#X obj 244 321 * -1;
#X floatatom 169 63 5 0 0 0 - - -;
#X obj 244 299 + 1;
#X text 284 317 add earth gravity;
#X obj 64 93 speedlim 30;
#X obj 104 220 speedlim 150;
#X obj 175 259 speedlim 150;
#X obj 64 641 outlet;
#X obj 104 353 outlet;
#X obj 244 373 outlet;
#X connect 0 0 26 0;
#X connect 1 0 22 0;
#X connect 2 0 5 0;
#X connect 2 1 23 0;
#X connect 2 2 24 0;
#X connect 3 0 17 1;
#X connect 4 0 7 0;
#X connect 5 0 4 1;
#X connect 5 1 4 0;
#X connect 7 0 25 0;
#X connect 9 0 8 0;
#X connect 10 0 7 1;
#X connect 10 0 12 0;
#X connect 11 0 0 0;
#X connect 12 0 13 0;
#X connect 13 0 10 0;
#X connect 14 0 13 0;
#X connect 15 0 27 0;
#X connect 16 0 17 0;
#X connect 17 0 11 0;
#X connect 18 0 15 0;
#X connect 19 0 22 1;
#X connect 20 0 18 0;
#X connect 22 0 2 0;
#X connect 23 0 16 0;
#X connect 24 0 20 0;
#X restore 415 98 pd accel-U;
#N canvas 0 22 567 385 XY_magnitude-U 0;
#N canvas 0 22 450 300 activity 0;
#X obj 102 47 inlet;
#X obj 102 76 > 2;
#X obj 159 43 inlet;
#X obj 102 111 change;
#X msg 159 74 set -100;
#X obj 102 151 outlet;
#X connect 0 0 1 0;
#X connect 1 0 3 0;
#X connect 2 0 1 1;
#X connect 2 0 4 0;
#X connect 3 0 5 0;
#X connect 4 0 3 0;
#X restore 180 96 pd activity;
#X floatatom 254 75 5 0 0 0 - - -;
#X msg 289 98 set \$1;
#X msg 291 117 0.1;
#X obj 347 100 loadbang;
#X obj 180 130 tgl 15 0 empty empty empty 17 7 0 10 -262144 -1 -1 0
1;
#X obj 180 148 select 0 1;
#X msg 205 175 stop;
#X msg 268 196 1;
#X msg 180 217 0;
#X msg 137 173 stop;
#N canvas 0 22 513 361 xy-magnitude 0;
#X obj 122 71 r #accelerate;
#X floatatom 227 68 5 0 0 0 - - -;
#X obj 122 128 unpack 0 0 0;
#X obj 126 162 t a a;
#X obj 126 188 *;
#X obj 125 213 +;
#X obj 173 162 t a a;
#X obj 173 188 *;
#X obj 123 273 outlet;
#X obj 122 98 speedlim 50;
#X connect 0 0 9 0;
#X connect 1 0 9 1;
#X connect 2 0 3 0;
#X connect 2 1 6 0;
#X connect 3 0 4 0;
#X connect 3 1 4 1;
#X connect 4 0 5 0;
#X connect 5 0 8 0;
#X connect 6 0 7 0;
#X connect 6 1 7 1;
#X connect 7 0 5 1;
#X connect 9 0 2 0;
#X restore 180 34 pd xy-magnitude;
#X floatatom 204 61 5 0 0 0 - - -;
#X obj 268 172 delay 1000;
#X obj 180 195 delay 2000;
#X obj 180 281 outlet;
#X connect 0 0 5 0;
#X connect 1 0 2 0;
#X connect 1 0 0 1;
#X connect 2 0 3 0;
#X connect 3 0 1 0;
#X connect 4 0 3 0;
#X connect 5 0 6 0;
#X connect 6 0 7 0;
#X connect 6 0 14 0;
#X connect 6 1 10 0;
#X connect 6 1 13 0;
#X connect 7 0 13 0;
#X connect 8 0 15 0;
#X connect 9 0 15 0;
#X connect 10 0 14 0;
#X connect 11 0 12 0;
#X connect 11 0 0 0;
#X connect 13 0 8 0;
#X connect 14 0 9 0;
#X restore 415 121 pd XY_magnitude-U;
#X text 21 -131 GET ORIENTATION;
#X text 23 -5 may be used to change from one audio input to another
considering orientation of the device.;
#X text 21 47 GET INFO FROM LIVE AUDIO INPUT;
#X text 411 181 GET DATA FROM TOUCHSCREEN;
#X text 411 -132 GET DATA FROM ACCELEROMETER;
#X text 22 171 Breath controller;
#N canvas 0 22 1009 720 (subpatch) 0;
#X obj 68 255 fiddle~;
#X obj 67 275 mtof;
#X obj 155 372 osc~;
#X floatatom 28 256 5 0 0 0 - - -;
#X obj 181 524 *~;
#X obj 244 448 *~;
#X obj 276 419 line~;
#X obj 156 492 cos~;
#X obj 156 472 +~;
#X obj 276 396 pack 0 50;
#X floatatom 125 254 5 0 0 0 - - -;
#X obj 139 425 *~;
#X obj 115 350 / 100;
#X obj 115 330 - 55;
#X text 44 155 sing into the mic to control AM synthesis with your
voice;
#X text 13 688 (C) Copyright 2004 Hans-Christoph Steiner <hans@at.or.at>
;
#X text 232 704 released under the GNU GPL;
#X obj 3 86 nbx 3 18 -1e+37 1e+37 0 0 empty empty empty -9 -10 1 14
-124831 -1 -1 0 256;
#X obj 6 65 hsl 130 18 0.01 1 1 0 empty empty master_amplitude 10 9
1 14 -24198 -1 -1 0 0;
#X obj 3 3 pddp/dsp;
#X obj 155 348 line~;
#X msg 155 327 \$1 1;
#X obj 115 395 line~;
#X msg 115 374 \$1 1;
#X obj 6 25 hsl 128 15 0.1 1 1 0 empty empty voice_level 10 8 0 12
-225271 -1 -1 0 1;
#X obj 186 559 outlet~;
#X obj 3 43 nbx 3 18 -1e+37 1e+37 0 0 empty empty empty -9 -10 1 14
-124831 -1 -1 0 256;
#X obj -23 376 outlet;
#X obj 273 549 outlet~;
#X obj 69 313 i;
#X obj 240 180 adc~;
#X connect 0 0 1 0;
#X connect 0 0 3 0;
#X connect 0 3 10 0;
#X connect 0 3 13 0;
#X connect 1 0 27 0;
#X connect 1 0 29 0;
#X connect 2 0 11 1;
#X connect 4 0 25 0;
#X connect 5 0 28 0;
#X connect 6 0 5 1;
#X connect 7 0 4 0;
#X connect 8 0 7 0;
#X connect 9 0 6 0;
#X connect 11 0 8 0;
#X connect 12 0 23 0;
#X connect 13 0 12 0;
#X connect 18 0 17 0;
#X connect 18 0 4 1;
#X connect 20 0 2 0;
#X connect 21 0 20 0;
#X connect 22 0 11 0;
#X connect 23 0 22 0;
#X connect 24 0 9 0;
#X connect 24 0 26 0;
#X connect 29 0 21 0;
#X connect 30 0 5 0;
#X connect 30 0 0 0;
#X coords 0 1 100 -1 140 110 1 0 0;
#X restore 24 351 graph;
#N canvas 0 22 759 597 (subpatch) 0;
#X obj 205 102 fiddle~;
#X obj 204 125 mtof;
#X floatatom 165 106 5 0 0 0 - - -;
#X obj 254 405 *~;
#X obj 271 386 r \$0-master-amp;
#X obj 4 4 vsl 40 100 0 1 0 0 \$0-master-amp empty volume 3 80 1 11
-225271 -1 -1 0 0;
#X floatatom 262 104 5 0 0 0 - - -;
#X obj 252 298 osc~;
#X obj 257 233 +~;
#X obj 273 202 *~;
#X obj 252 178 osc~;
#X obj 150 186 phasor~;
#X obj 290 163 * 5;
#X obj 250 158 * 2;
#X text 327 75 sing into the mic to control the FM synthesizer;
#X text 150 538 (C) Copyright 2004 Hans-Christoph Steiner <hans@at.or.at>
;
#X text 369 554 released under the GNU GPL;
#X obj 48 2 pddp/dsp;
#X text 450 499 Mono;
#X obj 258 435 outlet~;
#X floatatom 91 160 5 0 0 0 - - -;
#X obj 82 193 outlet;
#X obj 144 386 *~;
#X obj 48 25 vsl 40 60 0 1 0 0 empty empty volume-retour 0 75 1 11
-159808 -1 -1 0 0;
#X obj 390 430 outlet~;
#X obj 204 148 i;
#X obj 204 14 adc~;
#X connect 0 0 1 0;
#X connect 0 0 2 0;
#X connect 0 3 6 0;
#X connect 0 3 12 0;
#X connect 1 0 20 0;
#X connect 1 0 25 0;
#X connect 3 0 19 0;
#X connect 4 0 3 1;
#X connect 7 0 3 0;
#X connect 8 0 7 0;
#X connect 9 0 8 1;
#X connect 10 0 9 0;
#X connect 11 0 8 0;
#X connect 12 0 9 1;
#X connect 13 0 10 0;
#X connect 20 0 21 0;
#X connect 22 0 24 0;
#X connect 23 0 22 1;
#X connect 25 0 11 0;
#X connect 25 0 13 0;
#X connect 26 0 0 0;
#X connect 26 0 22 0;
#X coords 0 1 100 -1 115 110 1 0 0;
#X restore 178 351 graph;
#X text 24 333 Tracking mic AM;
#X text 178 332 Tracking mic FM;
#X obj 133 279 tgl 15 0 empty empty empty 17 7 0 10 -262144 -1 -1 0
1;
#X obj 240 280 tgl 15 0 empty empty empty 17 7 0 10 -262144 -1 -1 0
1;
#X text 77 261 Enable bonk analysis;
#X text 208 261 Enable fiddle analysis;
#N canvas 0 22 775 445 bonk&fiddle-analyse-------------- 0;
#X obj 177 322 bonk~;
#X obj 177 395 * 12;
#X obj 177 420 div 7;
#X obj 177 370 + 1;
#X obj 177 345 unpack f f f;
#X obj 248 445 + 100;
#X obj 177 445 + 36;
#X obj 177 273 *~;
#X obj 401 274 *~;
#X obj 591 399 unpack;
#X floatatom 591 449 0 0 0 0 - - -;
#X floatatom 605 426 0 0 0 0 - - -;
#X obj 591 359 route 1 2 3 4;
#X obj 641 399 unpack;
#X floatatom 641 449 0 0 0 0 - - -;
#X floatatom 655 426 0 0 0 0 - - -;
#X obj 688 399 unpack;
#X floatatom 688 449 0 0 0 0 - - -;
#X floatatom 702 426 0 0 0 0 - - -;
#X obj 456 399 unpack;
#X floatatom 456 449 0 0 0 0 - - -;
#X floatatom 470 426 0 0 0 0 - - -;
#X floatatom 530 449 0 0 0 0 - - -;
#X obj 401 328 fiddle~ 1024 1 20 3;
#X text 592 473 individual sinusoidal components;
#X obj 428 451 bng 15 250 50 0 empty empty empty 17 7 0 10 -262144
-1 -1;
#X floatatom 401 450 0 0 0 0 - - -;
#X text 520 470 amplitude;
#X text 530 485 (dB);
#X text 443 470 raw pitch;
#X obj 591 494 ftom;
#X obj 641 495 ftom;
#X obj 688 496 ftom;
#X text 174 522 This is what you get;
#X text 60 448 Change offset -->;
#X obj 169 185 inlet~;
#X obj 243 183 inlet;
#X obj 439 178 inlet;
#X obj 177 545 outlet;
#X obj 248 545 outlet;
#X obj 421 594 outlet;
#X obj 556 585 outlet;
#X obj 593 538 pack f f f;
#X obj 475 568 outlet;
#X connect 0 1 4 0;
#X connect 1 0 2 0;
#X connect 2 0 6 0;
#X connect 3 0 1 0;
#X connect 4 1 3 0;
#X connect 4 2 5 0;
#X connect 5 0 39 0;
#X connect 6 0 38 0;
#X connect 7 0 0 0;
#X connect 8 0 23 0;
#X connect 9 0 10 0;
#X connect 9 1 11 0;
#X connect 10 0 30 0;
#X connect 12 0 9 0;
#X connect 12 1 13 0;
#X connect 12 2 16 0;
#X connect 13 0 14 0;
#X connect 13 1 15 0;
#X connect 14 0 31 0;
#X connect 16 0 17 0;
#X connect 16 1 18 0;
#X connect 17 0 32 0;
#X connect 19 0 20 0;
#X connect 19 1 21 0;
#X connect 22 0 43 0;
#X connect 23 0 26 0;
#X connect 23 1 25 0;
#X connect 23 2 19 0;
#X connect 23 3 22 0;
#X connect 23 4 12 0;
#X connect 26 0 40 0;
#X connect 30 0 42 0;
#X connect 31 0 42 1;
#X connect 32 0 42 2;
#X connect 35 0 7 0;
#X connect 35 0 8 0;
#X connect 36 0 7 1;
#X connect 37 0 8 1;
#X connect 42 0 41 0;
#X restore 27 298 pd bonk&fiddle-analyse--------------;
#X text 23 245 Bonk~ or Fiddle~;
#X text 22 -115 Play one or the other inlet at given angle change;
#X obj 386 -146 bng 15 250 50 0 empty empty empty 17 7 0 10 -262144
-1 -1;
#X obj 386 478 bng 15 250 50 0 empty empty empty 17 7 0 10 -262144
-1 -1;
#X text 21 28 ------------------------------------------------------------
;
#X text 397 154 ------------------------------------------------------------
;
#X text 536 65 almost the same;
#X text 495 -107 sums up all accel paramaters and takes the square
root;
#X obj 504 -43 route x y z;
#X text 473 -41 use;
#X text 584 -42 to get each value;
#N canvas 123 103 339 298 ARGO 0;
#X obj 101 101 cnv 12 104 34 empty ColorAmpli empty 20 12 0 14 -261299
-1 1.04858e+06;
#X obj 180 104 cnv 10 20 10 empty ColorAmpli Trig 1 5 1 14 -261299
-1 1.04858e+06;
#X obj 101 101 cnv 4 10 4 empty empty empty 20 12 0 14 -1 -66577 0
;
#X obj 101 131 cnv 4 10 4 empty empty empty 20 12 0 14 -1 -66577 0
;
#X obj 51 66 inlet~;
#X obj 48 220 threshold~ 10 100 0 100;
#X obj 179 115 tgl 15 0 \$0-A \$0-B empty 17 7 0 10 -262144 -1 -1 0
1;
#X msg 48 247 1;
#X msg 184 246 0;
#X msg 62 198 set \$1 20 \$2 20;
#X obj 100 106 nbx 4 12 -1 1 0 1 \$0-A ColorAmpli HighLimit 40 7 1
9 -261299 -1 -1 0.1 256;
#X obj 62 176 pack 1 2;
#X obj 100 118 nbx 4 12 -1 1 0 1 \$0-A ColorAmpli LowLimit 40 7 1 9
-261299 -1 -1 0.05 256;
#X obj 82 153 t b f;
#X text 95 136 0..1;
#X obj 228 266 outlet~;
#X obj 227 240 expr~ 2 * $v1 -1;
#X obj 69 287 outlet;
#X connect 4 0 5 0;
#X connect 5 0 7 0;
#X connect 5 1 8 0;
#X connect 6 0 16 0;
#X connect 7 0 6 0;
#X connect 7 0 17 0;
#X connect 8 0 6 0;
#X connect 8 0 17 0;
#X connect 9 0 5 0;
#X connect 10 0 11 0;
#X connect 11 0 9 0;
#X connect 12 0 13 0;
#X connect 13 0 11 0;
#X connect 13 1 11 1;
#X connect 16 0 15 0;
#X coords 0 -1 1 1 106 36 1 100 100;
#X restore 164 108 pd ARGO;
#N canvas 347 177 411 322 ARGO 0;
#X obj 101 101 cnv 12 164 15 empty ColorAmpli empty 20 12 0 14 -261299
-1 1.04858e+06;
#X obj 165 104 cnv 10 20 10 empty ColorAmpli DetectEnvelope 1 5 1 14
-261299 -1 1.04858e+06;
#X obj 101 101 cnv 4 10 4 empty empty empty 20 12 0 14 -1 -66577 0
;
#X obj 101 112 cnv 4 10 4 empty empty empty 20 12 0 14 -1 -66577 0
;
#X obj 50 296 outlet~;
#X obj 51 46 inlet~;
#X obj 51 75 abs~;
#X obj 50 269 lop~ 5;
#X obj 113 102 nbx 4 12 0.1 9999 0 1 \$0-A ColorTime ms 40 7 1 9 -208064
-1 -1 10 256;
#X obj 83 245 /;
#X msg 82 220 1;
#X obj 82 195 t b f;
#X text 108 22 Freq(Hz) = 1 / 2 x pi x Time constant(sec);
#X text 162 37 = 1 / 6.28 x (Time constant(ms) / 1000);
#X text 163 51 = 1 / 6.28 x (Time constant(ms) / 1000);
#X text 164 66 = 1 / 0.00628 x Time constant(ms);
#X obj 82 173 * 0.00628;
#X text 95 136 Env;
#X obj 50 143 *~ 1;
#X connect 5 0 6 0;
#X connect 6 0 18 0;
#X connect 7 0 4 0;
#X connect 8 0 16 0;
#X connect 9 0 7 1;
#X connect 10 0 9 0;
#X connect 11 0 10 0;
#X connect 11 1 9 1;
#X connect 16 0 11 0;
#X connect 18 0 7 0;
#X coords 0 -1 1 1 166 17 1 100 100;
#X restore 164 91 pd ARGO;
#X obj 164 144 tgl 20 0 empty empty empty 17 7 0 10 -262144 -1 -1 0
1;
#X obj 841 380 bng 15 250 50 0 empty empty empty 0 -6 0 8 -262144 -1
-1;
#X msg 833 300 record;
#X msg 834 342 stop;
#X msg 834 321 play;
#X msg 805 268 tempo \$1;
#X floatatom 805 250 5 0 0 0 - - -;
#X msg 805 230 loop \$1;
#X obj 804 212 tgl 15 0 empty empty empty 0 -6 0 8 -262144 -1 -1 0
1;
#X floatatom 726 301 5 0 0 0 - - -;
#X msg 726 317 a \$1;
#X floatatom 765 301 5 0 0 0 - - -;
#X floatatom 793 405 5 0 0 0 - - -;
#X floatatom 754 405 5 0 0 0 - - -;
#X msg 765 317 b \$1;
#X msg 676 317 foo \$1;
#X obj 754 380 route a b foo;
#X floatatom 676 301 5 0 0 0 - - -;
#X floatatom 829 404 5 0 0 0 - - -;
#N canvas 0 22 1024 705 Qtrack 0;
#X obj 295 398 cnv 15 100 100 empty empty empty 20 12 0 14 -258699
-66577 0;
#X obj 81 93 cnv 15 100 100 empty empty empty 20 12 0 14 -258699 -66577
0;
#X obj 34 287 cnv 15 100 100 empty empty empty 20 12 0 14 -258699 -66577
0;
#X msg 535 267 clear;
#X text 408 618 This outlet gets a bang when you hit the end of the
sequence.;
#X msg 535 245 print;
#X obj 224 43 inlet;
#X obj 98 23 inlet;
#X obj 122 139 timer;
#X obj 315 437 qlist;
#X msg 536 290 bang;
#X msg 338 140 tempo \$1;
#X obj 125 226 * 1;
#X obj 655 595 outlet;
#X obj 100 99 t a b b;
#X obj 39 196 t b a;
#X msg 253 201 clear;
#X msg 220 199 1;
#X obj 98 68 spigot;
#X obj 317 120 t f f b;
#X msg 337 261 0;
#X obj 308 180 t b b;
#X obj 15 261 f;
#X obj 105 413 list append;
#X text 146 22 inlet: data to be recorded;
#X text 579 294 sequenced automagically;
#X obj 106 435 route list;
#X obj 219 143 t b b b;
#X obj 103 298 loadbang;
#X text 107 460 add <receive symbol> <time> <data>;
#X obj 54 312 t b f;
#X msg 41 332 add;
#X obj 33 359 pack s f s;
#X text 533 14 Sequencer abstraction. Interface to qlist.;
#X text 582 27 Copyleft )c( Alexandre Quessy 2006;
#X obj 534 163 list prepend write;
#X obj 534 182 route list;
#X obj 533 223 route list;
#X obj 533 204 list prepend read;
#X msg 377 259 rewind;
#X text 354 40 inlet: record \, play \, tempo \, clear \, print \,
read <file.txt> \, write <file.txt> \, stop \, loop <1 \, 0>;
#X text 45 270 Add cue and set receive symbol;
#X obj 226 81 route record play tempo clear print read write stop loop
;
#X obj 534 110 spigot;
#X text 309 158 play;
#X text 323 105 tempo;
#X text 230 128 rec;
#X text 392 214 stop;
#X obj 377 231 t b b;
#X obj 536 314 spigot;
#X msg 234 332 1;
#X text 235 315 enable playing;
#X obj 102 320 symbol \$1-r;
#X obj 115 509 cnv 15 100 100 empty empty empty 20 12 0 14 -258699
-66577 0;
#X text 72 609 this outlet gets the lines in sequence.;
#X obj 142 583 outlet;
#X obj 142 545 r \$1-r;
#X text -344 113 This one is an interface to qlist.;
#X text -347 181 If you want to save your chart \, you will need the
unique id to be the same when you open your patch again and read the
file. Therefore \, I recommend using a symbol or a number as a unique
id \, instead of a dollar-0.;
#X text -186 89 GNU public license v2.0;
#X obj -349 -12 cnv 15 15 15 empty empty seq.qtrack 20 12 0 24 -262144
-66577 0;
#X obj -349 71 cnv 15 400 1 empty empty empty 20 12 0 14 -66577 -66577
0;
#X text -346 134 You can record a sequence of any list. It will be
played back with the same timing. You can use arbitrary selectors and
lists of any length.;
#X text -351 19 seq.qtrack <unique id>;
#X text -350 33 Description: Can record any stream of messages and
play it back at different speeds in loop or not.;
#X text -344 248 Comments: This patch is quite powerful and you should
really think about using it if you want to play back complex rhythms
and such. It wraps qlist.;
#X text -343 296 Todo: create a multitrack version;
#X text -187 74 Author: Alexandre Quessy 2006;
#X connect 3 0 9 0;
#X connect 5 0 9 0;
#X connect 6 0 42 0;
#X connect 7 0 18 0;
#X connect 8 0 12 0;
#X connect 9 1 13 0;
#X connect 9 1 43 0;
#X connect 10 0 49 0;
#X connect 11 0 9 0;
#X connect 12 0 22 1;
#X connect 14 0 15 0;
#X connect 14 1 8 0;
#X connect 14 2 8 1;
#X connect 15 0 22 0;
#X connect 15 1 23 1;
#X connect 16 0 9 0;
#X connect 17 0 18 1;
#X connect 18 0 14 0;
#X connect 19 0 12 1;
#X connect 19 1 11 0;
#X connect 20 0 18 1;
#X connect 21 0 10 0;
#X connect 21 1 20 0;
#X connect 22 0 30 0;
#X connect 23 0 26 0;
#X connect 26 0 9 0;
#X connect 27 0 17 0;
#X connect 27 0 50 0;
#X connect 27 1 16 0;
#X connect 27 2 8 0;
#X connect 28 0 52 0;
#X connect 30 0 31 0;
#X connect 30 1 32 1;
#X connect 31 0 32 0;
#X connect 32 0 23 0;
#X connect 35 0 36 0;
#X connect 36 0 9 0;
#X connect 37 0 9 0;
#X connect 38 0 37 0;
#X connect 39 0 9 0;
#X connect 42 0 27 0;
#X connect 42 1 21 0;
#X connect 42 2 19 0;
#X connect 42 3 3 0;
#X connect 42 4 5 0;
#X connect 42 5 38 0;
#X connect 42 5 50 0;
#X connect 42 6 35 0;
#X connect 42 7 48 0;
#X connect 42 8 43 1;
#X connect 43 0 21 0;
#X connect 48 0 39 0;
#X connect 48 1 20 0;
#X connect 49 0 9 0;
#X connect 50 0 49 1;
#X connect 52 0 32 2;
#X connect 56 0 55 0;
#X restore 754 359 pd Qtrack;
#X text 639 181 A WAY TO RECORD AND PLAYBACK MOVEMENTS OR INPUTS;
#X obj 618 182 bng 15 250 50 0 empty empty empty 17 7 0 10 -262144
-1 -1;
#X obj 618 478 bng 15 250 50 0 empty empty empty 17 7 0 10 -262144
-1 -1;
#X connect 1 0 2 0;
#X connect 1 1 3 0;
#X connect 2 0 0 2;
#X connect 3 0 0 2;
#X connect 4 0 5 0;
#X connect 24 0 25 0;
#X connect 24 1 26 0;
#X connect 24 2 27 0;
#X connect 28 0 29 0;
#X connect 44 0 48 1;
#X connect 45 0 48 2;
#X connect 51 0 52 0;
#X connect 60 0 62 0;
#X connect 61 0 60 0;
#X connect 64 0 81 1;
#X connect 65 0 81 1;
#X connect 66 0 81 1;
#X connect 67 0 81 1;
#X connect 68 0 67 0;
#X connect 69 0 81 1;
#X connect 70 0 69 0;
#X connect 71 0 72 0;
#X connect 72 0 81 0;
#X connect 73 0 76 0;
#X connect 76 0 81 0;
#X connect 77 0 81 0;
#X connect 78 0 75 0;
#X connect 78 1 74 0;
#X connect 78 2 80 0;
#X connect 78 3 63 0;
#X connect 79 0 77 0;
#X connect 81 0 78 0;
#X connect 83 0 84 0;
