#N canvas 623 187 528 487 10;
#X obj 87 28 inlet;
#X obj 87 105 gemhead;
#X obj 87 146 pix_image \$1;
#X obj 87 50 list trim;
#X obj 87 71 route visible move;
#X obj 87 288 translateXYZ;
#X obj 263 151 unpack 0 0;
#X obj 87 219 pix_texture;
#X obj 87 244 pix_info -------------;
#X obj 87 426 rectangle;
#X msg 101 188 quality 0;
#X obj 101 166 loadbang;
#X obj 207 343 / 320;
#X obj 207 371 * 4;
#X floatatom 207 395 8 0 0 0 - - -;
#X msg 207 318 1;
#X obj 130 370 * 0.0125;
#X obj 108 395 * 0.0125;
#X obj 207 297 loadbang;
#X obj 263 179 / 320;
#X obj 263 199 * 8;
#X obj 263 221 - 4;
#X obj 330 177 / 320;
#X obj 330 197 * -8;
#X obj 330 219 + 4;
#X obj 87 125 alpha;
#X connect 0 0 3 0;
#X connect 1 0 25 0;
#X connect 2 0 7 0;
#X connect 3 0 4 0;
#X connect 4 0 1 0;
#X connect 4 1 6 0;
#X connect 5 0 9 0;
#X connect 6 0 19 0;
#X connect 6 1 22 0;
#X connect 7 0 8 0;
#X connect 8 0 5 0;
#X connect 8 1 17 0;
#X connect 8 2 16 0;
#X connect 10 0 7 0;
#X connect 11 0 10 0;
#X connect 12 0 13 0;
#X connect 13 0 14 0;
#X connect 13 0 16 1;
#X connect 13 0 17 1;
#X connect 15 0 12 0;
#X connect 16 0 9 2;
#X connect 17 0 9 1;
#X connect 18 0 15 0;
#X connect 19 0 20 0;
#X connect 20 0 21 0;
#X connect 21 0 5 1;
#X connect 22 0 23 0;
#X connect 23 0 24 0;
#X connect 24 0 5 2;
#X connect 25 0 2 0;
