#N canvas 518 64 413 297 10;
#N canvas 473 269 528 200 MODULE_INFO 0;
#X text 64 49 authors: Reality Jockey;
#X text 65 120 decorator: s1m1-s2m1;
#X text 65 140 tags:;
#X text 65 27 name: Generative Drums;
#X text 65 69 description: Generates a random drumbeat. Density ranges
from a occasional minimal blips to fullblown chaos. Time is synced
to the master BPM.;
#X restore 26 38 pd MODULE_INFO;
#X obj 26 66 inlet~ MIC;
#X obj 169 232 outlet;
#X obj 26 202 outlet~;
#X obj 86 202 outlet~;
#X obj 169 91 inlet;
#N canvas 529 122 393 323 \$0-PARAMETERS 0;
#X obj 110 230 outlet;
#X obj -8 173 s \$0-tick;
#X obj -8 45 inlet;
#X obj 106 132 cnv 15 187 87 empty empty RJC_Parameters 10 12 1 14
-162280 -262144 0;
#X obj 106 106 cnv 15 187 20 empty empty Generative_Drums 35 11 1 14
-261234 -33289 0;
#X obj -8 77 route tick;
#X obj 110 154 rjc_parameter_floatrange \$0 Density 0.82;
#X obj 110 186 rjc_parameter_floatrange \$0 Speed 0.5;
#X connect 2 0 5 0;
#X connect 5 0 1 0;
#X connect 5 1 6 0;
#X connect 6 0 7 0;
#X connect 7 0 0 0;
#X coords 0 -1 1 1 200 125 2 100 100;
#X restore 169 107 pd \$0-PARAMETERS;
#N canvas 147 36 760 509 \$0-DSP 0;
#X obj 110 302 outlet~;
#X obj 182 301 outlet~;
#N canvas 248 41 1032 717 drums 0;
#X obj 269 560 outlet~;
#X obj 534 472 random 6;
#X obj 328 560 outlet~;
#X obj 269 461 e_pan 0.5;
#X obj 168 342 random 20;
#X obj 168 384 + 0.2;
#X obj 168 363 * 0.03;
#X obj 168 320 sel 0 8;
#X obj 488 536 *~;
#X obj 534 493 / 5;
#X obj 514 513 lop~ 10;
#X obj 361 461 *~ 3;
#X obj 487 560 outlet~ REVERB;
#N canvas 267 22 260 272 bong 0;
#X obj 54 134 *~;
#X obj 120 82 vline~;
#X msg 120 56 1 2 \, 0 20 2;
#X obj 54 56 osc~ 294;
#X obj 54 108 phasor~ 147;
#X obj 54 82 *~ 480;
#X obj 54 161 *~ 0.2;
#X obj 120 26 inlet;
#X obj 54 192 outlet~;
#X connect 0 0 6 0;
#X connect 1 0 0 1;
#X connect 2 0 1 0;
#X connect 3 0 5 0;
#X connect 4 0 0 0;
#X connect 5 0 4 0;
#X connect 6 0 8 0;
#X connect 7 0 2 0;
#X restore 361 321 pd bong;
#N canvas 398 59 277 291 bassdrum 0;
#X obj 72 188 *~;
#X msg 72 110 1000 \, 930 20;
#X obj 72 162 osc~ 100;
#X msg 137 136 0.6 \, 0 20;
#X obj 72 136 vline~;
#X obj 137 162 vline~;
#X obj 72 76 inlet;
#X obj 72 219 outlet~;
#X connect 0 0 7 0;
#X connect 1 0 3 0;
#X connect 1 0 4 0;
#X connect 2 0 0 0;
#X connect 3 0 5 0;
#X connect 4 0 2 0;
#X connect 5 0 0 1;
#X connect 6 0 1 0;
#X restore 270 321 pd bassdrum;
#N canvas 0 22 333 243 hihat 0;
#X obj 93 103 +~ 10000;
#X obj 93 77 *~ 10000;
#X obj 93 155 *~;
#X obj 186 129 *~;
#X obj 186 103 vline~;
#X obj 93 51 osc~ 1400;
#X obj 93 129 phasor~ 1000;
#X msg 186 77 0.5 5 \, 0 20 5;
#X obj 186 51 inlet;
#X obj 93 186 outlet~;
#X connect 0 0 6 0;
#X connect 1 0 0 0;
#X connect 2 0 9 0;
#X connect 3 0 2 1;
#X connect 4 0 3 0;
#X connect 4 0 3 1;
#X connect 5 0 1 0;
#X connect 6 0 2 0;
#X connect 7 0 4 0;
#X connect 8 0 7 0;
#X restore 422 321 pd hihat;
#N canvas 0 22 317 266 snare 0;
#X obj 62 77 noise~;
#X obj 111 170 *~;
#X obj 168 127 line~;
#X obj 91 140 *~ 0.4;
#X obj 95 118 osc~ 1040;
#X msg 168 98 0.8 \, 0 20;
#X obj 62 98 lop~ 400;
#X obj 168 64 inlet;
#X obj 111 204 outlet~;
#X connect 0 0 6 0;
#X connect 1 0 8 0;
#X connect 2 0 1 1;
#X connect 3 0 1 0;
#X connect 4 0 3 0;
#X connect 5 0 2 0;
#X connect 6 0 3 0;
#X connect 7 0 5 0;
#X restore 492 321 pd snare;
#N canvas 0 22 400 326 noise 0;
#X obj 83 86 noise~;
#X obj 83 192 *~;
#X obj 83 107 lop~ 1000;
#X obj 163 143 vline~;
#X obj 83 128 hip~ 2500;
#X obj 83 148 *~ 0.4;
#X msg 163 122 0.3 15 \, 1 20 5 \, 0 25 25;
#X obj 163 86 inlet;
#X obj 83 223 outlet~;
#X connect 0 0 2 0;
#X connect 1 0 8 0;
#X connect 2 0 4 0;
#X connect 3 0 1 1;
#X connect 4 0 5 0;
#X connect 5 0 1 0;
#X connect 6 0 3 0;
#X connect 7 0 6 0;
#X restore 562 321 pd noise;
#X obj 422 342 *~ 0.5;
#X obj 562 342 *~ 0.3;
#X obj 492 342 *~ 2;
#X obj 412 500 *~ 0.01;
#X obj 534 442 sel 1 23;
#X obj 288 355 *~ 0.5;
#X obj 169 294 mod 16;
#X obj 307 123 r \$0-Density;
#X obj 675 122 inlet;
#X obj 270 282 abs/play bd;
#X obj 738 225 pack f f;
#X obj 738 71 t b b;
#X obj 770 93 t b b;
#X obj 803 117 t b b;
#X obj 738 -26 r \$0-Speed;
#X msg 738 162 1;
#X msg 770 162 2;
#X msg 803 161 4;
#X msg 826 183 32;
#X msg 860 183 64;
#X msg 894 183 128;
#X obj 738 37 sel 0 1 2 3;
#X obj 836 138 t b b;
#X msg 836 161 8;
#X msg 928 183 256;
#X obj 676 282 abs/play noise;
#X obj 361 282 abs/play bong;
#X obj 568 282 abs/play snare;
#X obj 461 282 abs/play hihat;
#X obj 738 16 int;
#X obj 738 -5 m_scale 0 1 3 0;
#X connect 1 0 9 0;
#X connect 3 0 0 0;
#X connect 3 1 2 0;
#X connect 4 0 6 0;
#X connect 5 0 3 1;
#X connect 6 0 5 0;
#X connect 7 0 4 0;
#X connect 7 1 4 0;
#X connect 8 0 12 0;
#X connect 9 0 10 0;
#X connect 10 0 8 1;
#X connect 11 0 0 0;
#X connect 11 0 2 0;
#X connect 11 0 21 0;
#X connect 13 0 11 0;
#X connect 14 0 3 0;
#X connect 14 0 23 0;
#X connect 15 0 18 0;
#X connect 16 0 20 0;
#X connect 17 0 19 0;
#X connect 18 0 11 0;
#X connect 19 0 11 0;
#X connect 20 0 11 0;
#X connect 21 0 8 0;
#X connect 22 0 1 0;
#X connect 22 1 1 0;
#X connect 23 0 8 0;
#X connect 24 0 7 0;
#X connect 25 0 27 1;
#X connect 25 0 43 1;
#X connect 25 0 44 1;
#X connect 25 0 45 1;
#X connect 25 0 46 1;
#X connect 26 0 24 0;
#X connect 26 0 22 0;
#X connect 26 0 27 0;
#X connect 26 0 43 0;
#X connect 26 0 44 0;
#X connect 26 0 45 0;
#X connect 26 0 46 0;
#X connect 27 0 14 0;
#X connect 28 0 27 2;
#X connect 28 0 43 2;
#X connect 28 0 44 2;
#X connect 28 0 45 2;
#X connect 28 0 46 2;
#X connect 29 0 33 0;
#X connect 29 1 36 0;
#X connect 30 0 34 0;
#X connect 30 1 37 0;
#X connect 31 0 35 0;
#X connect 31 1 38 0;
#X connect 32 0 48 0;
#X connect 33 0 28 0;
#X connect 34 0 28 0;
#X connect 35 0 28 0;
#X connect 36 0 28 1;
#X connect 37 0 28 1;
#X connect 38 0 28 1;
#X connect 39 0 29 0;
#X connect 39 1 30 0;
#X connect 39 2 31 0;
#X connect 39 3 40 0;
#X connect 40 0 41 0;
#X connect 40 1 42 0;
#X connect 41 0 28 0;
#X connect 42 0 28 1;
#X connect 43 0 17 0;
#X connect 44 0 13 0;
#X connect 45 0 16 0;
#X connect 46 0 15 0;
#X connect 47 0 39 0;
#X connect 48 0 47 0;
#X restore 111 72 pd drums;
#X obj 277 191 e_reverb;
#X obj 330 143 loadbang;
#X msg 330 164 amp 80 \, hall 80 \, freq 5000 \, damp 70 \, dry 0;
#X obj 111 12 inlet;
#X connect 2 0 0 0;
#X connect 2 1 1 0;
#X connect 2 2 3 0;
#X connect 3 0 0 0;
#X connect 3 1 1 0;
#X connect 4 0 5 0;
#X connect 5 0 3 1;
#X connect 6 0 2 0;
#X restore 26 147 pd \$0-DSP;
#N canvas 371 47 699 451 \$0-INPUT 0;
#X obj 17 202 abs/sequence bd;
#X obj 17 137 sel 0 10 20 30 40 50;
#X obj 17 28 r \$0-tick;
#X obj 17 91 b;
#X obj 131 202 abs/sequence bong;
#X obj 259 202 abs/sequence hihat;
#X obj 394 202 abs/sequence snare;
#X obj 529 202 abs/sequence noise;
#X obj 17 112 random 51;
#X obj 100 96 outlet;
#X connect 1 0 0 0;
#X connect 1 1 4 0;
#X connect 1 2 5 0;
#X connect 1 4 6 0;
#X connect 1 5 7 0;
#X connect 2 0 3 0;
#X connect 2 0 9 0;
#X connect 3 0 8 0;
#X connect 8 0 1 0;
#X restore 26 108 pd \$0-INPUT;
#X connect 5 0 6 0;
#X connect 6 0 2 0;
#X connect 7 0 3 0;
#X connect 7 1 4 0;
#X connect 8 0 7 0;
