#N canvas 354 31 805 725 10;
#X obj 383 13 loadbang;
#X obj 178 494 clip~ -1 1;
#X obj 60 501 clip~ -1 1;
#X obj 192 530 hip~ 5;
#X obj 70 532 hip~ 5;
#X obj 142 148 bng 15 250 50 0 empty empty empty 17 7 0 10 -262144
-1 -1;
#X msg 145 257 trigger;
#X obj 159 346 clip~ -1 1;
#X obj 145 179 metro 200;
#X obj 160 228 delay 100;
#X obj 102 227 delay 50;
#X obj 182 398 *~ 0.5;
#X msg 157 145 stop;
#X obj 244 228 delay 150;
#X obj 157 325 *~ 400;
#X obj 70 27 soundinput;
#X obj 100 672 soundoutput;
#X msg 262 173 tune 1;
#X obj 159 372 *~ 1;
#X obj 248 324 tgl 15 0 empty empty empty 17 7 0 10 -262144 -1 -1 0
1;
#X msg 248 301 bang;
#X msg 27 264 click 1 \, decay 0.4;
#X obj 244 348 * 0.3;
#X obj 247 374 + 0.7;
#X obj 74 114 *~ 1000;
#X obj 69 91 hip~ 100;
#X obj 245 204 test;
#X obj 156 300 tr808-bd~;
#X connect 0 0 21 0;
#X connect 0 0 8 0;
#X connect 0 0 5 0;
#X connect 1 0 3 0;
#X connect 2 0 4 0;
#X connect 3 0 16 1;
#X connect 4 0 16 0;
#X connect 5 0 8 0;
#X connect 6 0 20 0;
#X connect 6 0 27 0;
#X connect 7 0 18 0;
#X connect 8 0 6 0;
#X connect 8 0 10 0;
#X connect 8 0 9 0;
#X connect 8 0 26 0;
#X connect 9 0 6 0;
#X connect 10 0 6 0;
#X connect 11 0 3 0;
#X connect 11 0 4 0;
#X connect 12 0 8 0;
#X connect 13 0 6 0;
#X connect 14 0 7 0;
#X connect 15 0 25 0;
#X connect 15 1 25 0;
#X connect 17 0 27 0;
#X connect 18 0 11 0;
#X connect 19 0 22 0;
#X connect 20 0 19 0;
#X connect 21 0 27 0;
#X connect 22 0 23 0;
#X connect 23 0 18 1;
#X connect 24 0 2 0;
#X connect 24 0 1 0;
#X connect 25 0 24 0;
#X connect 26 0 13 0;
#X connect 27 0 14 0;
