#N canvas 270 57 805 725 10;
#X obj 493 143 d-random -80 80;
#X obj 489 115 d-random-log 20 22050;
#X obj 448 75 metro 5000;
#X obj 484 45 d-random-sq 500 5000;
#X obj 384 92 bng 15 250 50 0 empty empty empty 17 7 0 10 -262144 -1
-1;
#X obj 493 333 d-random -80 80;
#X obj 489 305 d-random-log 20 22050;
#X obj 448 265 metro 5000;
#X obj 489 239 d-random-sq 500 5000;
#X obj 383 13 loadbang;
#X obj 77 455 d-biquad~ 3000;
#X obj 171 459 d-biquad~ 3000;
#X obj 471 387 d-biquadcalc-equalizer;
#X obj 446 200 d-biquadcalc-equalizer;
#X obj 192 530 hip~ 5;
#X obj 70 532 hip~ 5;
#X obj 497 176 d-random-log 0.2 1000;
#X obj 498 365 d-random-log 0.2 1000;
#X obj 156 300 tr808-bd~;
#X obj 142 148 bng 15 250 50 0 empty empty empty 17 7 0 10 -262144
-1 -1;
#X msg 145 257 trigger;
#X obj 159 346 clip~ -1 1;
#X obj 145 179 metro 200;
#X obj 160 228 delay 100;
#X obj 90 207 d-every 16;
#X obj 102 227 delay 50;
#X obj 182 398 *~ 0.5;
#X obj 339 365 r~ fbl;
#X obj 391 359 r~ fbr;
#X obj 261 515 s~ fbr;
#X obj 135 517 s~ fbl;
#X obj 345 389 *~ 0.1;
#X obj 398 384 *~ 0.1;
#X obj 310 653 *~ 0.1;
#X obj 420 653 *~ 0.1;
#X msg 157 145 stop;
#X obj 165 205 d-every 8 2;
#X obj 250 202 d-every 13;
#X obj 244 228 delay 150;
#X obj 157 325 *~ 400;
#X obj 70 27 soundinput;
#X msg 262 173 tune 1;
#X obj 159 372 *~ 1;
#X obj 248 324 tgl 15 0 empty empty empty 17 7 0 10 -262144 -1 -1 0
1;
#X msg 248 301 bang;
#X msg 27 264 click 1 \, decay 0.4;
#X obj 244 348 * 0.3;
#X obj 247 374 + 0.7;
#X obj 74 66 d-compress~ 10 10;
#X obj 74 114 *~ 1000;
#X obj 69 91 hip~ 100;
#X text 546 82 left chan shifting biquad;
#X text 529 278 right chan shifting biquad;
#X obj 331 444 d-fbdelay~ 600.564 1 0.606299 21.9907 17302.3 1 0.5
0.1;
#X obj 66 490 clip~ -0.99 0.99;
#X obj 176 487 clip~ -0.99 0.99;
#X obj 166 566 *~ 0.3;
#X obj 74 565 *~ 0.3;
#X obj 86 654 soundoutput;
#X obj 57 623 d-anaclip~;
#X obj 162 623 d-anaclip~;
#X obj 57 594 *~ 2;
#X obj 162 594 *~ 2;
#X text 373 425 ***** BUSTED UP VERSION OF FBDELAY ******;
#X connect 0 0 13 1;
#X connect 1 0 13 0;
#X connect 2 0 3 0;
#X connect 2 0 1 0;
#X connect 2 0 0 0;
#X connect 2 0 16 0;
#X connect 3 0 2 1;
#X connect 4 0 2 0;
#X connect 4 0 7 0;
#X connect 5 0 12 1;
#X connect 6 0 12 0;
#X connect 7 0 8 0;
#X connect 7 0 6 0;
#X connect 7 0 5 0;
#X connect 7 0 17 0;
#X connect 8 0 7 1;
#X connect 9 0 2 0;
#X connect 9 0 7 0;
#X connect 9 0 45 0;
#X connect 9 0 22 0;
#X connect 9 0 19 0;
#X connect 10 0 30 0;
#X connect 10 0 54 0;
#X connect 11 0 29 0;
#X connect 11 0 55 0;
#X connect 12 0 10 1;
#X connect 13 0 11 1;
#X connect 14 0 56 0;
#X connect 15 0 57 0;
#X connect 16 0 13 2;
#X connect 17 0 12 2;
#X connect 18 0 39 0;
#X connect 19 0 22 0;
#X connect 20 0 18 0;
#X connect 20 0 44 0;
#X connect 21 0 42 0;
#X connect 22 0 20 0;
#X connect 22 0 24 0;
#X connect 22 0 36 0;
#X connect 22 0 37 0;
#X connect 23 0 20 0;
#X connect 24 0 25 0;
#X connect 25 0 20 0;
#X connect 26 0 14 0;
#X connect 26 0 15 0;
#X connect 27 0 31 0;
#X connect 28 0 32 0;
#X connect 31 0 53 0;
#X connect 32 0 53 1;
#X connect 33 0 10 0;
#X connect 33 0 54 0;
#X connect 34 0 11 0;
#X connect 34 0 55 0;
#X connect 35 0 22 0;
#X connect 36 0 23 0;
#X connect 37 0 38 0;
#X connect 38 0 20 0;
#X connect 39 0 21 0;
#X connect 40 0 48 0;
#X connect 40 1 48 0;
#X connect 41 0 18 0;
#X connect 42 0 26 0;
#X connect 42 0 10 0;
#X connect 42 0 11 0;
#X connect 43 0 46 0;
#X connect 44 0 43 0;
#X connect 45 0 18 0;
#X connect 46 0 47 0;
#X connect 47 0 42 1;
#X connect 48 0 50 0;
#X connect 49 0 10 0;
#X connect 49 0 11 0;
#X connect 50 0 49 0;
#X connect 53 0 33 0;
#X connect 53 1 34 0;
#X connect 54 0 15 0;
#X connect 55 0 14 0;
#X connect 56 0 62 0;
#X connect 57 0 61 0;
#X connect 59 0 58 0;
#X connect 60 0 58 1;
#X connect 61 0 59 0;
#X connect 62 0 60 0;
