#N canvas 26 24 1111 730 10;
#X obj 8 168 cnv 15 148 160 empty empty empty 20 12 0 14 -220917 -66577
0;
#X obj 98 455 inlet~;
#X obj 305 553 inlet~;
#X obj 46 689 outlet~;
#X obj 374 692 s~ \$0-fbr;
#X obj 183 690 s~ \$0-fbl;
#X obj 372 499 hip~ 0;
#X obj 372 539 lop~ 22050;
#X obj 188 542 lop~ 22050;
#X obj 185 502 hip~ 0;
#X obj 185 599 *~;
#X obj 372 603 *~;
#X obj 13 173 vsl 15 128 1 3000 0 0 empty empty empty 0 -9 0 10 -262144
-1 -1 2539 1;
#X text 10 304 time;
#X obj 81 173 vsl 15 128 10 22050 1 0 empty empty empty 0 -9 0 10 -262144
-1 -1 1300 1;
#X obj 96 173 vsl 15 128 10 22050 1 0 empty empty empty 0 -9 0 10 -262144
-1 -1 12300 1;
#X obj 54 173 vsl 15 128 0 1 0 0 empty empty empty 0 -9 0 10 -262144
-1 -1 7700 1;
#X obj 204 573 d-smooth~;
#X obj 125 173 vsl 15 128 0 1 0 0 empty empty empty 0 -9 0 10 -262144
-1 -1 12700 1;
#X obj 48 645 d-drywet~;
#X obj 287 694 outlet~;
#X obj 55 12 r panic;
#X text 80 303 hi;
#X text 98 303 lo;
#X text 123 303 lvl;
#X obj 195 290 delwrite~ \$0-left 4000;
#X obj 185 466 vd~ \$0-left;
#X obj 372 456 vd~ \$0-right;
#X obj 373 267 delwrite~ \$0-right 4000;
#X obj 28 173 vsl 15 128 0.25 4 1 0 empty empty empty 0 -9 0 10 -262144
-1 -1 6350 1;
#X obj 368 296 t b a;
#X obj 764 28 inlet;
#X obj 610 163 random 100;
#X obj 610 185 / 100;
#X obj 610 210 d-sq;
#X obj 610 136 metro 500;
#X obj 668 86 random 1000;
#X obj 668 111 + 500;
#X text 704 292 flutter;
#X obj 372 422 *~;
#X obj 185 423 *~;
#X obj 608 262 + 0.985;
#X obj 609 236 * 0.05;
#X obj 600 73 loadbang;
#X obj 688 242 + 1;
#X msg 54 141 0.3;
#X obj 369 317 * 1;
#X floatatom 12 340 5 0 0 0 - - -;
#X obj 40 305 bng 12 250 50 0 empty empty empty 17 7 0 10 -262144 -1
-1;
#X msg 68 370 1;
#X text 58 302 fb;
#X obj 373 629 *~;
#X obj 187 623 *~;
#X obj 604 348 sig~ 1;
#X obj 619 382 -~;
#X obj 536 319 line;
#X msg 537 298 \$1 700;
#X obj 296 488 * 22050;
#X floatatom 293 521 10 0 0 0 - - -;
#X obj 617 441 *~ 10;
#X obj 617 493 -~ 9;
#X obj 830 163 random 100;
#X obj 830 185 / 100;
#X obj 830 210 d-sq;
#X obj 830 136 metro 500;
#X obj 888 86 random 1000;
#X obj 888 111 + 500;
#X obj 828 262 + 0.985;
#X obj 829 236 * 0.05;
#X obj 897 221 + 1;
#X obj 817 94 bng 15 250 50 0 empty empty empty 17 7 0 10 -262144 -1
-1;
#X obj 814 348 sig~ 1;
#X obj 829 382 -~;
#X obj 827 441 *~ 10;
#X obj 827 493 -~ 9;
#X obj 439 489 * 22050;
#X obj 764 327 line;
#X msg 765 306 \$1 700;
#X floatatom 453 521 10 0 0 0 - - -;
#X obj 679 582 f;
#X msg 281 165 bang;
#X obj 679 633 print d-fbdelay~-args;
#X obj 141 315 bng 15 250 50 0 empty empty empty 17 7 0 10 -262144
-1 -1;
#X text 89 314 dumpargs;
#X obj 679 609 pack f f f f f f f f;
#X obj 321 191 f;
#X obj 196 254 r~ \$0-fbl;
#X obj 379 230 r~ \$0-fbr;
#X obj 17 44 d-default \$1 500;
#X obj 27 64 d-default \$2 1;
#X obj 137 44 d-default \$3 0.3;
#X obj 145 63 d-default \$4 0;
#X obj 265 45 d-default \$5 22050;
#X obj 704 164 d-default \$7 0.01;
#X obj 392 569 d-smooth~;
#X obj 607 310 d-smooth~ 700;
#X obj 827 310 d-smooth~ 700;
#X obj 286 647 d-drywet~;
#X obj 829 411 +~ 1;
#X obj 617 413 +~ 1;
#X obj 9 115 route time timediff fb hi lo lvl flutter dumpargs crosstalk
;
#X obj 367 182 print d_default-outside;
#X obj 276 64 d-default \$6 0.5;
#X obj 321 155 d-default \$8 1;
#X obj 185 387 sig~;
#X obj 372 369 sig~;
#X obj 373 656 d-pan~;
#X obj 187 650 d-pan~;
#X floatatom 527 353 5 0 0 0 - - -;
#X floatatom 755 359 5 0 0 0 - - -;
#X obj 897 197 * -0.5;
#X obj 688 222 * -0.5;
#X text 392 415 NOTENOTE NOTE BUSTEDUP VERSION !!!;
#X text 396 398 **************************************;
#X text 389 436 ***************************************;
#X obj 543 253 * 10;
#X obj 763 253 * 10;
#X obj 760 277 - 8;
#X obj 542 277 - 8;
#X text 389 424 lop frequency can go negative!!;
#X connect 1 0 19 0;
#X connect 1 0 10 0;
#X connect 2 0 97 0;
#X connect 2 0 11 0;
#X connect 6 0 7 0;
#X connect 7 0 11 0;
#X connect 7 0 97 1;
#X connect 8 0 10 0;
#X connect 8 0 19 1;
#X connect 9 0 8 0;
#X connect 10 0 52 0;
#X connect 11 0 51 0;
#X connect 12 0 46 0;
#X connect 12 0 47 0;
#X connect 12 0 79 1;
#X connect 12 0 104 0;
#X connect 14 0 9 1;
#X connect 14 0 6 1;
#X connect 14 0 84 3;
#X connect 15 0 57 1;
#X connect 15 0 75 1;
#X connect 15 0 84 4;
#X connect 16 0 17 0;
#X connect 16 0 84 2;
#X connect 16 0 94 0;
#X connect 17 0 10 1;
#X connect 18 0 19 2;
#X connect 18 0 84 5;
#X connect 18 0 97 2;
#X connect 19 0 3 0;
#X connect 21 0 45 0;
#X connect 26 0 9 0;
#X connect 27 0 6 0;
#X connect 29 0 30 0;
#X connect 29 0 84 1;
#X connect 30 0 46 0;
#X connect 30 1 46 1;
#X connect 31 0 100 0;
#X connect 32 0 33 0;
#X connect 33 0 34 0;
#X connect 34 0 42 0;
#X connect 35 0 36 0;
#X connect 35 0 32 0;
#X connect 36 0 37 0;
#X connect 37 0 35 1;
#X connect 39 0 27 0;
#X connect 40 0 26 0;
#X connect 41 0 95 0;
#X connect 41 0 115 0;
#X connect 42 0 41 0;
#X connect 43 0 35 0;
#X connect 43 0 64 0;
#X connect 44 0 41 1;
#X connect 45 0 16 0;
#X connect 46 0 105 0;
#X connect 48 0 49 0;
#X connect 49 0 29 0;
#X connect 51 0 106 0;
#X connect 52 0 107 0;
#X connect 53 0 54 0;
#X connect 54 0 99 0;
#X connect 55 0 57 0;
#X connect 55 0 108 0;
#X connect 56 0 55 0;
#X connect 57 0 8 1;
#X connect 57 0 58 0;
#X connect 59 0 60 0;
#X connect 60 0 52 1;
#X connect 61 0 62 0;
#X connect 62 0 63 0;
#X connect 63 0 68 0;
#X connect 64 0 65 0;
#X connect 64 0 61 0;
#X connect 65 0 66 0;
#X connect 66 0 64 1;
#X connect 67 0 96 0;
#X connect 67 0 116 0;
#X connect 68 0 67 0;
#X connect 69 0 67 1;
#X connect 70 0 64 0;
#X connect 71 0 72 0;
#X connect 72 0 98 0;
#X connect 73 0 74 0;
#X connect 74 0 51 1;
#X connect 75 0 7 1;
#X connect 75 0 78 0;
#X connect 76 0 75 0;
#X connect 76 0 109 0;
#X connect 77 0 76 0;
#X connect 79 0 84 0;
#X connect 80 0 79 0;
#X connect 82 0 80 0;
#X connect 84 0 81 0;
#X connect 85 0 84 7;
#X connect 85 0 106 1;
#X connect 85 0 107 1;
#X connect 86 0 25 0;
#X connect 87 0 28 0;
#X connect 88 0 12 0;
#X connect 89 0 29 0;
#X connect 90 0 16 0;
#X connect 91 0 14 0;
#X connect 92 0 15 0;
#X connect 93 0 42 1;
#X connect 93 0 68 1;
#X connect 93 0 84 6;
#X connect 93 0 111 0;
#X connect 93 0 110 0;
#X connect 94 0 11 1;
#X connect 95 0 40 1;
#X connect 95 0 54 1;
#X connect 96 0 39 1;
#X connect 96 0 72 1;
#X connect 97 0 20 0;
#X connect 98 0 73 0;
#X connect 99 0 59 0;
#X connect 100 0 12 0;
#X connect 100 1 29 0;
#X connect 100 2 16 0;
#X connect 100 3 14 0;
#X connect 100 4 15 0;
#X connect 100 5 18 0;
#X connect 100 6 93 0;
#X connect 100 7 80 0;
#X connect 100 8 103 0;
#X connect 102 0 18 0;
#X connect 103 0 85 0;
#X connect 104 0 40 0;
#X connect 105 0 39 0;
#X connect 106 0 4 0;
#X connect 106 1 5 0;
#X connect 107 0 5 0;
#X connect 107 1 4 0;
#X connect 110 0 69 0;
#X connect 111 0 44 0;
#X connect 115 0 118 0;
#X connect 116 0 117 0;
#X connect 117 0 77 0;
#X connect 118 0 56 0;
#X coords 0 -1 1 1 150 180 1 7 150;
