#N canvas 27 39 408 280 10;
#N canvas 279 35 899 523 \$0-DSP 0;
#X obj 295 404 outlet~;
#X obj 377 405 outlet~;
#X obj 296 28 inlet~;
#N canvas 0 22 1200 644 funkyverb 0;
#X obj 161 497 +~;
#X obj 520 105 inlet;
#X obj 184 407 *~;
#X obj 486 412 *~;
#X obj 285 412 *~;
#X obj 387 412 *~;
#X obj 443 546 -~;
#X obj 364 545 -~;
#X obj 239 537 +~;
#X obj 161 534 +~;
#X obj 162 444 +~;
#X obj 262 440 +~;
#X obj 464 501 -~;
#X obj 387 499 +~;
#X obj 239 500 -~;
#X obj 452 105 inlet;
#X obj 609 429 line~;
#X obj 509 374 line~;
#X obj 530 500 *~;
#X obj 599 501 *~;
#X obj 609 357 dbtorms;
#X obj 609 403 pack 0 30;
#X obj 520 211 pack 0 50;
#X obj 9 390 inlet~;
#X obj 530 525 outlet~;
#X obj 599 525 outlet~;
#X obj 520 187 / 200;
#X obj 520 162 clip 0 100;
#X obj 52 236 lop~;
#X obj 625 143 f \$3;
#X obj 696 143 f \$4;
#X obj 367 106 loadbang;
#X obj 625 167 moses 1;
#X msg 631 193 3000;
#X obj 705 193 clip 0 100;
#N canvas 308 22 492 612 early-reflect 0;
#X obj 84 119 -~;
#X obj 49 119 +~;
#X obj 50 195 +~;
#X obj 85 196 -~;
#X obj 84 275 -~;
#X obj 49 274 +~;
#X obj 82 349 -~;
#X obj 48 350 +~;
#X obj 83 428 -~;
#X obj 49 428 +~;
#X obj 65 7 inlet~;
#X obj 49 508 outlet~;
#X obj 119 507 outlet~;
#X obj 174 -3 r~ \$0-ER;
#X obj 110 66 delwrite~ \$0-ref1 79.2546;
#X obj 107 145 delwrite~ \$0-ref2 47.5337;
#X obj 106 223 delwrite~ \$0-ref3 29.796;
#X obj 102 300 delwrite~ \$0-ref4 23.392;
#X obj 106 376 delwrite~ \$0-ref5 20.364;
#X obj 119 453 delwrite~ \$0-ref6 17.645;
#X obj 110 90 vd~ \$0-ref1 75.2546;
#X obj 107 169 vd~ \$0-ref2 43.5337;
#X obj 106 247 vd~ \$0-ref3 25.796;
#X obj 102 324 vd~ \$0-ref4 19.392;
#X obj 106 400 vd~ \$0-ref5 16.364;
#X obj 119 477 vd~ \$0-ref6 13.645;
#X obj 246 429 +~ 13.645;
#X obj 256 349 +~ 16.364;
#X obj 266 269 +~ 19.392;
#X obj 276 189 +~ 25.796;
#X obj 286 109 +~ 43.5337;
#X obj 296 39 +~ 75.2546;
#X connect 0 0 15 0;
#X connect 1 0 3 0;
#X connect 1 0 2 0;
#X connect 2 0 5 0;
#X connect 2 0 4 0;
#X connect 3 0 16 0;
#X connect 4 0 17 0;
#X connect 5 0 7 0;
#X connect 5 0 6 0;
#X connect 6 0 18 0;
#X connect 7 0 9 0;
#X connect 7 0 8 0;
#X connect 8 0 19 0;
#X connect 9 0 11 0;
#X connect 10 0 1 0;
#X connect 10 0 0 0;
#X connect 10 0 14 0;
#X connect 13 0 26 0;
#X connect 13 0 27 0;
#X connect 13 0 28 0;
#X connect 13 0 29 0;
#X connect 13 0 30 0;
#X connect 13 0 31 0;
#X connect 20 0 1 1;
#X connect 20 0 0 1;
#X connect 21 0 2 1;
#X connect 21 0 3 1;
#X connect 22 0 5 1;
#X connect 22 0 4 1;
#X connect 23 0 7 1;
#X connect 23 0 6 1;
#X connect 24 0 9 1;
#X connect 24 0 8 1;
#X connect 25 0 12 0;
#X connect 26 0 25 0;
#X connect 27 0 24 0;
#X connect 28 0 23 0;
#X connect 29 0 22 0;
#X connect 30 0 21 0;
#X connect 31 0 20 0;
#X restore 9 416 pd early-reflect;
#X obj 618 216 f;
#X obj 618 105 inlet;
#X obj 696 109 inlet;
#X obj 705 216 f;
#X obj 705 239 * 0.01;
#X obj 705 263 pack 0 50;
#X obj 705 287 line~;
#X obj 29 269 -~;
#X obj 28 300 *~;
#X obj 16 331 +~;
#X obj 132 240 lop~;
#X obj 106 274 -~;
#X obj 105 309 *~;
#X obj 95 333 +~;
#X obj 214 245 lop~;
#X obj 188 273 -~;
#X obj 187 314 *~;
#X obj 176 339 +~;
#X obj 308 249 lop~;
#X obj 281 274 -~;
#X obj 281 318 *~;
#X obj 258 342 +~;
#X obj 609 379 * 0.125;
#X text 403 10 control inlets:;
#X text 400 29 1: output level \, dB \, 0-100;
#X text 399 79 4: high frequency damping \, 0-100;
#X text 400 62 3: crossover frequency in Hz. (3000 default);
#X text 400 45 2: liveness \, 0-100 \, usually between 85 and 100;
#X obj 452 137 f 80;
#X obj 520 138 f 80;
#X obj 16 121 vd~ \$0-del1 58.6435;
#X obj 94 143 vd~ \$0-del2 69.4325;
#X obj 176 165 vd~ \$0-del3 74.5234;
#X obj 258 189 vd~ \$0-del4 86.1244;
#X obj 17 92 +~ 58.6435;
#X obj 97 102 +~ 69.4325;
#X obj 177 122 +~ 74.5234;
#X obj 257 142 +~ 86.1244;
#X obj 161 641 delwrite~ \$0-del1 62.6435;
#X obj 240 617 delwrite~ \$0-del2 73.4325;
#X obj 365 595 delwrite~ \$0-del3 78.5234;
#X obj 444 573 delwrite~ \$0-del4 90.1244;
#X obj 17 51 *~ 4;
#X obj 138 75 s~ \$0-ER;
#X obj 17 32 osc~ 5;
#X obj 134 44 m_scale 0 1 1 10;
#X obj 134 20 r \$0-Wobble;
#X connect 0 0 9 0;
#X connect 0 0 7 0;
#X connect 1 0 65 0;
#X connect 2 0 10 1;
#X connect 3 0 12 1;
#X connect 3 0 13 1;
#X connect 4 0 11 1;
#X connect 5 0 13 0;
#X connect 5 0 12 0;
#X connect 6 0 77 0;
#X connect 7 0 76 0;
#X connect 8 0 75 0;
#X connect 9 0 74 0;
#X connect 10 0 14 0;
#X connect 10 0 0 0;
#X connect 10 0 18 0;
#X connect 11 0 0 1;
#X connect 11 0 14 1;
#X connect 11 0 19 0;
#X connect 12 0 8 1;
#X connect 12 0 6 1;
#X connect 13 0 9 1;
#X connect 13 0 7 1;
#X connect 14 0 8 0;
#X connect 14 0 6 0;
#X connect 15 0 64 0;
#X connect 16 0 18 1;
#X connect 16 0 19 1;
#X connect 17 0 4 1;
#X connect 17 0 2 1;
#X connect 17 0 5 1;
#X connect 17 0 3 1;
#X connect 18 0 24 0;
#X connect 19 0 25 0;
#X connect 20 0 58 0;
#X connect 21 0 16 0;
#X connect 22 0 17 0;
#X connect 23 0 35 0;
#X connect 26 0 22 0;
#X connect 27 0 26 0;
#X connect 28 0 43 0;
#X connect 29 0 32 0;
#X connect 30 0 34 0;
#X connect 31 0 29 0;
#X connect 31 0 30 0;
#X connect 31 0 64 0;
#X connect 31 0 65 0;
#X connect 32 0 33 0;
#X connect 32 1 36 0;
#X connect 33 0 36 0;
#X connect 34 0 39 0;
#X connect 35 0 10 0;
#X connect 35 1 11 0;
#X connect 36 0 28 1;
#X connect 36 0 46 1;
#X connect 36 0 50 1;
#X connect 36 0 54 1;
#X connect 37 0 36 0;
#X connect 38 0 30 0;
#X connect 39 0 40 0;
#X connect 40 0 41 0;
#X connect 41 0 42 0;
#X connect 42 0 44 1;
#X connect 42 0 48 1;
#X connect 42 0 52 1;
#X connect 42 0 56 1;
#X connect 43 0 44 0;
#X connect 44 0 45 1;
#X connect 45 0 2 0;
#X connect 46 0 47 0;
#X connect 47 0 48 0;
#X connect 48 0 49 1;
#X connect 49 0 4 0;
#X connect 50 0 51 0;
#X connect 51 0 52 0;
#X connect 52 0 53 1;
#X connect 53 0 5 0;
#X connect 54 0 55 0;
#X connect 55 0 56 0;
#X connect 56 0 57 1;
#X connect 57 0 3 0;
#X connect 58 0 21 0;
#X connect 64 0 20 0;
#X connect 65 0 27 0;
#X connect 66 0 28 0;
#X connect 66 0 43 1;
#X connect 66 0 45 0;
#X connect 67 0 46 0;
#X connect 67 0 47 1;
#X connect 67 0 49 0;
#X connect 68 0 53 0;
#X connect 68 0 50 0;
#X connect 68 0 51 1;
#X connect 69 0 57 0;
#X connect 69 0 55 1;
#X connect 69 0 54 0;
#X connect 70 0 66 0;
#X connect 78 0 70 0;
#X connect 78 0 71 0;
#X connect 78 0 72 0;
#X connect 78 0 73 0;
#X connect 78 0 79 0;
#X connect 80 0 78 0;
#X connect 81 0 80 0;
#X connect 82 0 81 0;
#X restore 295 179 pd funkyverb;
#X msg 315 136 90;
#X msg 345 136 85;
#X msg 375 136 3000;
#X msg 412 136 10;
#X obj 315 57 loadbang;
#X obj 295 249 clip~ -1 1;
#X obj 375 249 clip~ -1 1;
#X obj 295 332 e_platereverb;
#X msg 383 305 dry \$1;
#X obj 537 153 r \$0-Space;
#X obj 537 179 m_scale 0 1 1 0;
#X msg 447 136 1;
#X msg 447 305 decay \$1;
#X obj 295 374 *~ 1.5;
#X obj 377 374 *~ 1.5;
#X obj 195 324 *~ 0.2;
#X connect 2 0 3 0;
#X connect 2 0 19 0;
#X connect 3 0 9 0;
#X connect 3 1 10 0;
#X connect 4 0 3 1;
#X connect 5 0 3 2;
#X connect 6 0 3 3;
#X connect 7 0 3 4;
#X connect 8 0 4 0;
#X connect 8 0 5 0;
#X connect 8 0 6 0;
#X connect 8 0 7 0;
#X connect 8 0 15 0;
#X connect 9 0 11 0;
#X connect 10 0 11 1;
#X connect 11 0 17 0;
#X connect 11 1 18 0;
#X connect 12 0 11 2;
#X connect 13 0 14 0;
#X connect 14 0 12 0;
#X connect 15 0 16 0;
#X connect 16 0 11 2;
#X connect 17 0 0 0;
#X connect 18 0 1 0;
#X connect 19 0 1 0;
#X connect 19 0 0 0;
#X restore 21 123 pd \$0-DSP;
#X obj 21 17 inlet~;
#X obj 21 187 outlet~;
#X obj 81 187 outlet~;
#X obj 139 187 outlet;
#X obj 139 36 inlet;
#N canvas 69 233 642 408 \$0-PARAMETERS 0;
#X obj 110 247 outlet;
#X obj 110 48 inlet;
#X obj 106 132 cnv 15 187 97 empty empty RJC_Parameters 10 12 1 14
-162280 -262144 0;
#X obj 106 106 cnv 15 187 20 empty empty Spacewobble 50 11 1 14 -261234
-33289 0;
#X obj 110 157 rjc_parameter_floatrange \$0 Wobble 0.3;
#X obj 110 192 rjc_parameter_floatrange \$0 Space;
#X connect 1 0 4 0;
#X connect 4 0 5 0;
#X connect 5 0 0 0;
#X coords 0 -1 1 1 199 135 2 100 100;
#X restore 139 52 pd \$0-PARAMETERS;
#N canvas 421 93 496 215 MODULE_INFO 0;
#X text 66 57 NAME: Spacewobble;
#X text 66 78 AUTHORS: Reality Jockey;
#X text 65 148 DECORATOR: s1m1-s2m1;
#X text 65 168 TAGS:;
#X text 65 98 DESCRIPTION: Launch your voice into space! Warp the time-space
continuum with Wobble and travel deeper into the far reaches of the
universe with Space.;
#X restore 23 -18 pd MODULE_INFO;
#N canvas 0 22 807 334 \$0-INPUT 0;
#X obj 77 47 inlet~;
#X obj 77 235 outlet~;
#X obj 77 184 lop~ 4000;
#X obj 77 163 lop~ 4000;
#X obj 77 121 hip~ 400;
#X obj 77 142 hip~ 400;
#X obj 77 88 *~ 4;
#X connect 0 0 6 0;
#X connect 2 0 1 0;
#X connect 3 0 2 0;
#X connect 4 0 5 0;
#X connect 5 0 3 0;
#X connect 6 0 4 0;
#X coords 0 0 1 1 85 40 0;
#X restore 21 76 pd \$0-INPUT;
#X connect 0 0 2 0;
#X connect 0 1 3 0;
#X connect 1 0 8 0;
#X connect 5 0 6 0;
#X connect 6 0 4 0;
#X connect 8 0 0 0;
