#N canvas 58 405 593 327 10;
#N canvas 337 127 1009 512 \$0-DSP 0;
#X obj 109 74 inlet~;
#X obj 108 446 outlet~ LEFT;
#X obj 400 445 outlet~ RIGHT;
#X msg 350 100 grain-rate \$1;
#X obj 351 78 * 50;
#X msg 453 99 size \$1;
#X obj 454 79 * 1000;
#X obj 107 156 u_makepoly 2 1 e_graindelread TAG \$0-delay;
#X obj 109 404 *~;
#X msg 124 356 0;
#X msg 156 357 1;
#X obj 126 378 lop~ 0.5;
#X msg 420 358 0;
#X msg 450 358 1;
#X obj 419 379 lop~ 0.5;
#X obj 400 404 *~;
#X obj 786 231 mod 8;
#X obj 786 252 sel 0;
#X obj 125 336 del 1000;
#X obj 420 339 del 1000;
#X obj 786 272 u_wrandom;
#X obj 846 231 loadbang;
#X obj 784 209 r \$0-tick;
#X obj 771 107 int;
#X obj 772 48 * -1;
#X obj 772 67 + 1;
#X msg 845 250 100 15 15;
#X obj 773 87 * 24;
#X obj 420 318 t b b;
#X obj 126 315 t b b;
#X obj 113 97 delwrite~ \$0-delay 2000;
#X obj 269 -5 loadbang;
#X msg 268 20 pan-r 0.787402 \, delay-r 400 \, delay 500 \, size-r
0 \, size 100 \, vol-r 0.133858 \, vol 0.9 \, bw 1 \, phase 0.4819
\, grain-rate 15 \,;
#X obj 352 57 r \$0-Rate;
#X obj 454 58 r \$0-Size;
#X obj 526 58 r \$0-Delay;
#X obj 526 79 * 5000;
#X msg 525 99 delay \$1;
#X msg 611 118 delay \$1;
#X obj 611 56 r \$0-BW;
#X obj 610 77 * 30;
#X obj 610 97 int;
#X obj 774 25 r \$0-Occur;
#X obj 773 134 moses 1;
#X obj 786 293 spigot 1;
#X obj 772 160 t b b;
#X msg 804 180 0;
#X msg 851 178 1;
#X obj 819 158 t a b;
#X obj 788 314 sel 1;
#X connect 0 0 30 0;
#X connect 3 0 7 1;
#X connect 4 0 3 0;
#X connect 5 0 7 1;
#X connect 6 0 5 0;
#X connect 7 0 8 0;
#X connect 7 1 15 0;
#X connect 8 0 1 0;
#X connect 9 0 11 0;
#X connect 10 0 11 0;
#X connect 11 0 8 1;
#X connect 12 0 14 0;
#X connect 13 0 14 0;
#X connect 14 0 15 1;
#X connect 15 0 2 0;
#X connect 16 0 17 0;
#X connect 17 0 20 0;
#X connect 18 0 9 0;
#X connect 19 0 12 0;
#X connect 20 0 44 0;
#X connect 21 0 26 0;
#X connect 22 0 16 0;
#X connect 23 0 43 0;
#X connect 24 0 25 0;
#X connect 25 0 27 0;
#X connect 26 0 20 1;
#X connect 27 0 23 0;
#X connect 28 0 19 0;
#X connect 28 1 13 0;
#X connect 29 0 18 0;
#X connect 29 1 10 0;
#X connect 31 0 32 0;
#X connect 32 0 7 1;
#X connect 33 0 4 0;
#X connect 34 0 6 0;
#X connect 35 0 36 0;
#X connect 36 0 37 0;
#X connect 37 0 7 1;
#X connect 38 0 7 1;
#X connect 39 0 40 0;
#X connect 40 0 41 0;
#X connect 41 0 38 0;
#X connect 42 0 24 0;
#X connect 43 0 45 0;
#X connect 43 1 48 0;
#X connect 44 0 49 0;
#X connect 45 0 13 0;
#X connect 45 0 10 0;
#X connect 45 1 46 0;
#X connect 46 0 44 1;
#X connect 47 0 44 1;
#X connect 48 0 16 1;
#X connect 48 1 47 0;
#X connect 49 0 28 0;
#X connect 49 0 29 0;
#X restore 33 188 pd \$0-DSP;
#N canvas 108 62 700 325 MODULE_INFO 0;
#X text 65 194 DTYPE: s1m1-s2m1;
#X text 66 81 authors: Reality Jockey;
#X text 66 57 name: GrainDelay;
#X text 64 214 tags:;
#X text 63 106 description: GrainDelay granulates and delays the mic
input. If you want to hear it all the time turn the Occur knob to the
right \, if not more to the left. Delay sets the deley time. Change
Rate \, BW \, and Size to modify the nature of the grains.;
#X restore 32 29 pd MODULE_INFO;
#X obj 173 269 outlet;
#X obj 173 63 inlet;
#N canvas 487 279 596 432 \$0-PARAMETERS 0;
#X obj -48 45 inlet;
#X obj -48 77 route tick bpm rootnote;
#X obj 299 132 cnv 15 187 132 empty empty empty 10 12 1 14 -162280
-262144 0;
#X obj 106 132 cnv 15 187 132 empty empty empty 10 12 1 14 -162280
-262144 0;
#X obj 106 106 cnv 15 380 20 empty empty Delay 160 11 1 14 -261234
-33289 0;
#X obj 4 194 s \$0-bpm;
#X obj 303 277 outlet;
#X obj 4 106 t b f;
#X obj 4 148 /;
#X obj 4 127 60000;
#X obj 57 275 s \$0-rootnote;
#X obj 108 135 rjc_parameter_floatrange \$0 Rate 0.5;
#X obj 109 168 rjc_parameter_floatrange \$0 Size 0.5;
#X obj -47 217 s \$0-tick;
#X obj 302 138 rjc_parameter_floatrange \$0 BW 0.05;
#X obj 109 200 rjc_parameter_floatrange \$0 Occur 0.75;
#X obj 109 232 rjc_parameter_floatrange \$0 Delay 0.2;
#X connect 0 0 1 0;
#X connect 1 0 13 0;
#X connect 1 1 7 0;
#X connect 1 2 10 0;
#X connect 1 3 11 0;
#X connect 7 0 9 0;
#X connect 7 1 8 1;
#X connect 8 0 5 0;
#X connect 9 0 8 0;
#X connect 11 0 12 0;
#X connect 12 0 15 0;
#X connect 14 0 6 0;
#X connect 15 0 16 0;
#X connect 16 0 14 0;
#X coords 0 -1 1 1 392 170 2 100 100;
#X restore 173 89 pd \$0-PARAMETERS;
#N canvas 0 22 807 334 \$0-INPUT 0;
#X text 172 123 blabla;
#X obj 77 47 inlet~;
#X obj 79 216 outlet~;
#X connect 1 0 2 0;
#X coords 0 0 1 1 85 40 0;
#X restore 33 140 pd \$0-INPUT;
#X obj 33 270 outlet~;
#X obj 93 270 outlet~;
#X obj 33 61 inlet~ MIC;
#X connect 0 0 6 0;
#X connect 0 1 7 0;
#X connect 3 0 4 0;
#X connect 4 0 2 0;
#X connect 5 0 0 0;
#X connect 8 0 5 0;
