#N canvas 78 -4 455 504 10;
#X obj -14 344 cos~;
#X obj 115 251 *~;
#N canvas 0 0 800 516 wql-tanh 0;
#X obj 241 65 inlet~;
#X text 493 89 __;
#X text 575 89 __;
#X text 527 89 __;
#X text 626 89 __;
#X text 493 106 1 +;
#X text 529 106 3 +;
#X text 577 106 5 +;
#X text 627 106 7 +;
#X text 443 32 As a continued fraction;
#X obj 240 148 *~;
#X obj 165 265 /~;
#X obj 165 350 /~;
#X obj 165 288 /~;
#X obj 165 321 /~;
#X text 427 78 tanh(z) = z z^2 4z^2 9z^2 ...;
#X obj 292 175 *~ 4;
#X obj 291 206 +~ 3;
#X obj 335 174 *~ 9;
#X obj 334 205 +~ 5;
#X obj 375 175 *~ 16;
#X obj 374 205 +~ 7;
#X obj 240 206 +~ 1;
#X obj 165 401 outlet~;
#X obj 165 372 *~ 576;
#X obj 241 89 *~ 0.308319;
#X text 276 114 1/pi;
#X text 217 381 ajf;
#X connect 0 0 25 0;
#X connect 10 0 16 0;
#X connect 10 0 18 0;
#X connect 10 0 20 0;
#X connect 10 0 22 0;
#X connect 11 0 13 0;
#X connect 12 0 24 0;
#X connect 13 0 14 0;
#X connect 14 0 12 0;
#X connect 16 0 17 0;
#X connect 17 0 13 1;
#X connect 18 0 19 0;
#X connect 19 0 14 1;
#X connect 20 0 21 0;
#X connect 21 0 12 1;
#X connect 22 0 11 1;
#X connect 24 0 23 0;
#X connect 25 0 10 1;
#X connect 25 0 10 0;
#X connect 25 0 11 0;
#X restore 53 531 pd wql-tanh;
#X obj 201 185 u_dispatch \$0 od;
#X obj 54 487 *~;
#X obj 100 417 r \$0-od;
#X obj 100 438 sig~;
#X obj 201 208 u_dispatch \$0 cy;
#X obj 46 253 r \$0-cy;
#X obj 58 95 f 100;
#X obj 131 175 sig~ 1;
#X obj 131 199 -~;
#X obj 54 465 *~;
#X obj -13 322 +~ 0.25;
#N canvas 0 0 800 516 fdb 0;
#X obj 147 106 *~;
#X obj 148 133 -~ 0.5;
#X obj 148 200 *~ 2;
#X obj 151 70 inlet~;
#X obj 149 302 outlet~;
#X obj 219 70 inlet~;
#X obj 160 236 -~;
#X obj 161 263 *~;
#X obj 286 69 inlet~;
#X connect 0 0 1 0;
#X connect 1 0 2 0;
#X connect 2 0 4 0;
#X connect 2 0 6 1;
#X connect 3 0 0 0;
#X connect 3 0 0 1;
#X connect 5 0 6 0;
#X connect 6 0 7 0;
#X connect 7 0 4 0;
#X connect 8 0 7 1;
#X restore 54 511 pd fdb;
#X obj 88 471 r \$0-h2;
#X obj 200 233 u_dispatch \$0 h2;
#X obj 88 491 sig~;
#X obj 90 41 /;
#X obj 90 8 t b f;
#X obj 71 -13 r \$0-cy;
#X text 104 511 ajf 2009;
#X obj 90 62 * 1000;
#X obj 52 551 *~;
#N canvas 199 80 164 339 swenv 0;
#X obj 27 259 +~;
#X obj 26 149 line~;
#X obj 60 253 line~;
#X obj 60 177 snapshot~;
#X obj 60 201 - 1;
#X msg 60 229 \$1 \, 0 40;
#X msg 26 127 0 \, 1 \$1;
#X obj 28 286 outlet~;
#X obj 26 47 t f b;
#X obj 26 19 inlet;
#X obj 6 310 outlet~;
#X connect 0 0 3 0;
#X connect 0 0 7 0;
#X connect 1 0 0 0;
#X connect 1 0 10 0;
#X connect 2 0 0 1;
#X connect 3 0 4 0;
#X connect 4 0 5 0;
#X connect 5 0 2 0;
#X connect 6 0 1 0;
#X connect 8 0 6 0;
#X connect 8 1 3 0;
#X connect 9 0 8 0;
#X restore 58 116 pd swenv;
#X text 133 559 Uses switched ramp envelope and cycle based oscillator
with waveshaping to derive harmonics. Good for techno bass and synth
sounds;
#X obj -19 188 q8_sqrt~;
#X obj 29 221 -~;
#X obj 29 243 *~;
#X obj 56 224 sig~;
#X obj 56 202 r \$0-sk;
#X obj 201 258 u_dispatch \$0 sk;
#X obj 201 280 u_dispatch \$0 dt;
#X obj 53 571 hip~ 80;
#X obj 53 591 outlet~;
#X obj 201 162 inlet;
#X obj 71 -61 inlet;
#X obj 226 93 loadbang;
#X text 133 537 Efficient \, click free bass and kick synthesiser;
#X msg 226 118 cy 100 \, dt 0 \, od 1 \, sk 0 \, h2 0.5 \,;
#X obj 46 273 sig~;
#X obj 30 294 *~;
#X obj 130 369 r \$0-dt;
#X obj 58 371 min~;
#X obj 38 338 wrap~;
#X obj 79 328 *~ -1;
#X obj 79 348 +~ 1;
#X obj 53 399 -~;
#X obj 53 421 *~;
#X obj 38 317 *~ 2;
#X obj 130 390 sig~;
#X obj 101 87 del;
#X obj 144 142 switch~;
#X msg 159 115 1;
#X obj 71 -37 t b f b;
#X msg 120 115 0;
#X connect 0 0 12 0;
#X connect 0 0 47 1;
#X connect 1 0 12 1;
#X connect 2 0 23 0;
#X connect 3 0 7 0;
#X connect 4 0 14 0;
#X connect 4 0 14 1;
#X connect 5 0 6 0;
#X connect 6 0 4 1;
#X connect 7 0 16 0;
#X connect 8 0 40 0;
#X connect 9 0 24 0;
#X connect 10 0 11 0;
#X connect 11 0 1 0;
#X connect 11 0 1 1;
#X connect 11 0 23 1;
#X connect 12 0 4 0;
#X connect 13 0 0 0;
#X connect 14 0 2 0;
#X connect 15 0 17 0;
#X connect 16 0 31 0;
#X connect 17 0 14 2;
#X connect 18 0 22 0;
#X connect 19 0 18 0;
#X connect 19 1 18 1;
#X connect 20 0 18 0;
#X connect 22 0 9 1;
#X connect 22 0 51 0;
#X connect 23 0 33 0;
#X connect 24 0 27 0;
#X connect 24 0 26 0;
#X connect 24 1 11 1;
#X connect 26 0 27 1;
#X connect 26 0 41 0;
#X connect 27 0 28 0;
#X connect 28 0 41 0;
#X connect 29 0 28 1;
#X connect 30 0 29 0;
#X connect 31 0 32 0;
#X connect 33 0 34 0;
#X connect 35 0 3 0;
#X connect 36 0 54 0;
#X connect 37 0 39 0;
#X connect 39 0 3 0;
#X connect 40 0 41 1;
#X connect 41 0 13 0;
#X connect 41 0 49 0;
#X connect 42 0 50 0;
#X connect 43 0 47 0;
#X connect 44 0 43 0;
#X connect 44 0 45 0;
#X connect 45 0 46 0;
#X connect 46 0 43 1;
#X connect 47 0 48 0;
#X connect 48 0 12 0;
#X connect 49 0 44 0;
#X connect 50 0 48 1;
#X connect 51 0 55 0;
#X connect 53 0 52 0;
#X connect 54 0 9 0;
#X connect 54 1 19 0;
#X connect 54 2 53 0;
#X connect 55 0 52 0;
