#N canvas 0 0 575 462 10;
#X obj 167 192 rzero~ 0.999;
#X obj 167 215 rzero~ 0.999;
#X obj 168 316 *~;
#X obj 256 276 *~;
#X obj 255 251 *~;
#X obj 255 221 line~;
#X obj 167 167 clip~ -0.3 0.3;
#X obj 106 129 osc~ 123;
#X obj 168 129 osc~ 800;
#X obj 230 129 osc~ 2003;
#X obj 134 71 inlet;
#X obj 134 96 unpack f f f f;
#X msg 255 197 1 \, 0 \$1;
#N canvas 0 0 800 516 wql-tanh 0;
#X obj 241 65 inlet~;
#X text 493 89 __;
#X text 575 89 __;
#X text 527 89 __;
#X text 626 89 __;
#X text 493 106 1 +;
#X text 529 106 3 +;
#X text 577 106 5 +;
#X text 627 106 7 +;
#X text 443 32 As a continued fraction;
#X obj 240 148 *~;
#X obj 165 265 /~;
#X obj 165 350 /~;
#X obj 165 288 /~;
#X obj 165 321 /~;
#X text 427 78 tanh(z) = z z^2 4z^2 9z^2 ...;
#X obj 292 175 *~ 4;
#X obj 291 206 +~ 3;
#X obj 335 174 *~ 9;
#X obj 334 205 +~ 5;
#X obj 375 175 *~ 16;
#X obj 374 205 +~ 7;
#X obj 240 206 +~ 1;
#X obj 165 401 outlet~;
#X obj 165 372 *~ 576;
#X obj 241 89 *~ 0.308319;
#X text 276 114 1/pi;
#X connect 0 0 25 0;
#X connect 10 0 16 0;
#X connect 10 0 18 0;
#X connect 10 0 20 0;
#X connect 10 0 22 0;
#X connect 11 0 13 0;
#X connect 12 0 24 0;
#X connect 13 0 14 0;
#X connect 14 0 12 0;
#X connect 16 0 17 0;
#X connect 17 0 13 1;
#X connect 18 0 19 0;
#X connect 19 0 14 1;
#X connect 20 0 21 0;
#X connect 21 0 12 1;
#X connect 22 0 11 1;
#X connect 24 0 23 0;
#X connect 25 0 10 1;
#X connect 25 0 10 0;
#X connect 25 0 11 0;
#X restore 167 360 pd wql-tanh;
#X obj 167 340 *~ 3;
#X obj 166 386 outlet~;
#X connect 0 0 1 0;
#X connect 1 0 2 0;
#X connect 2 0 14 0;
#X connect 3 0 2 1;
#X connect 4 0 3 0;
#X connect 4 0 3 1;
#X connect 5 0 4 0;
#X connect 5 0 4 1;
#X connect 5 0 2 1;
#X connect 6 0 0 0;
#X connect 7 0 6 0;
#X connect 8 0 6 0;
#X connect 9 0 6 0;
#X connect 10 0 11 0;
#X connect 11 0 7 0;
#X connect 11 1 8 0;
#X connect 11 2 9 0;
#X connect 11 3 12 0;
#X connect 12 0 5 0;
#X connect 13 0 15 0;
#X connect 14 0 13 0;
