#N canvas 201 26 1249 799 10;
#X obj 230 9 loadbang;
#X msg 221 111 \; pd dsp 1;
#X obj 222 89 del 200;
#X obj 601 747 soundoutput;
#X obj 67 269 % 16;
#X obj 68 223 metro 150;
#X obj 67 246 countevent 16384;
#X obj 165 431 main0;
#X obj 304 569 sne;
#X obj 330 484 hhe;
#X obj 207 393 main1;
#X obj 477 437 spigot;
#X obj 747 604 *~ 0;
#X obj 857 554 line;
#X obj 260 577 bde;
#X obj 477 462 tome;
#X msg 893 531 0 1000;
#X obj 553 527 scratchbox;
#X obj 699 531 orchhit;
#X msg 851 510 1 500;
#X msg 795 508 0 100;
#X obj 126 266 % 64;
#X obj 52 378 bng 15 250 50 0 empty empty empty 17 7 0 10 -262144 -1
-1;
#X msg 1030 417 52;
#X msg 962 416 64;
#X obj 1014 332 bng 15 250 50 0 empty empty empty 17 7 0 10 -262144
-1 -1;
#X msg 1113 410 56;
#X msg 1140 410 55;
#X obj 1097 351 countevent 8;
#X obj 1121 373 moses 4;
#X obj 956 457 pitchamp;
#X msg 774 482 1 100;
#X obj 347 25 strike_accel;
#X obj 219 532 spigot;
#X obj 587 175 change;
#X obj 640 175 change;
#X text 566 106 scratch1;
#X text 632 119 scratch2;
#X obj 637 366 spigot;
#X msg 640 393 0;
#X obj 626 341 sel 0 31;
#X obj 693 319 spigot;
#X msg 748 370 2;
#X msg 786 371 3;
#X obj 585 148 > 30;
#X obj 687 368 random 5;
#X obj 821 371 random 4;
#X obj 889 371 random 5;
#X obj 790 402 random 6;
#X obj 814 426 spigot;
#X obj 695 148 > 100;
#X obj 701 177 change;
#X text 703 127 scratch3;
#X obj 699 341 sel 0 7 15 23 31 39 47 55;
#X obj 980 305 sel 0 4 8 12;
#X obj 643 478 f;
#X obj 609 445 bng 15 250 50 0 empty empty empty 17 7 0 10 -262144
-1 -1;
#X obj 1129 253 loadbang;
#X obj 874 280 spigot;
#X obj 289 388 < 1;
#X floatatom 506 158 5 0 0 0 - - -;
#X obj 829 58 r #touch;
#X obj 829 85 route down up;
#X msg 825 134 0;
#X msg 873 155 1;
#X obj 827 110 unpack 0 0 0;
#X obj 874 134 unpack 0 0 0;
#X obj 383 179 s ebus2;
#X obj 1055 459 pitchamp;
#X obj 1140 456 pitchamp;
#X obj 555 210 < 15;
#X obj 555 233 change;
#X obj 1034 248 line~;
#X obj 923 631 *~;
#X msg 1096 213 1 5000;
#X obj 641 147 > 70;
#X obj 832 687 juicysaw;
#X msg 1034 220 0.12 5000;
#X obj 331 523 e_alias 100;
#X msg 400 502 alias 27;
#X obj 401 480 loadbang;
#X obj 836 632 bng 15 250 50 0 empty empty empty 17 7 0 10 -262144
-1 -1;
#X obj 379 213 s juicypan;
#X obj 601 684 mix _______;
#X obj 601 718 *~ 3;
#X obj 703 716 *~ 3;
#X connect 0 0 2 0;
#X connect 0 0 5 0;
#X connect 2 0 1 0;
#X connect 4 0 7 0;
#X connect 4 0 10 0;
#X connect 4 0 22 0;
#X connect 4 0 58 0;
#X connect 5 0 6 0;
#X connect 6 0 4 0;
#X connect 6 0 21 0;
#X connect 7 0 33 0;
#X connect 7 1 8 0;
#X connect 7 2 9 0;
#X connect 8 0 83 1;
#X connect 9 0 78 0;
#X connect 10 0 11 0;
#X connect 10 1 15 1;
#X connect 11 0 15 0;
#X connect 12 0 83 4;
#X connect 13 0 12 1;
#X connect 14 0 83 0;
#X connect 15 0 83 3;
#X connect 16 0 13 0;
#X connect 17 0 83 4;
#X connect 18 0 12 0;
#X connect 19 0 13 0;
#X connect 20 0 13 0;
#X connect 21 0 40 0;
#X connect 21 0 41 0;
#X connect 23 0 68 0;
#X connect 24 0 30 0;
#X connect 25 0 24 0;
#X connect 25 0 23 0;
#X connect 25 0 28 0;
#X connect 26 0 69 0;
#X connect 27 0 69 0;
#X connect 28 0 29 0;
#X connect 29 0 26 0;
#X connect 29 1 27 0;
#X connect 30 0 73 0;
#X connect 31 0 13 0;
#X connect 32 0 9 1;
#X connect 32 0 82 0;
#X connect 32 1 8 1;
#X connect 32 1 67 0;
#X connect 32 3 7 2;
#X connect 32 4 7 1;
#X connect 32 5 17 1;
#X connect 32 6 44 0;
#X connect 32 6 50 0;
#X connect 32 6 60 0;
#X connect 32 6 70 0;
#X connect 32 6 75 0;
#X connect 32 7 11 1;
#X connect 32 7 59 0;
#X connect 32 8 18 0;
#X connect 33 0 14 0;
#X connect 34 0 38 1;
#X connect 34 0 58 1;
#X connect 34 0 74 0;
#X connect 35 0 41 1;
#X connect 35 0 31 0;
#X connect 38 0 39 0;
#X connect 39 0 55 0;
#X connect 40 0 38 0;
#X connect 40 1 38 0;
#X connect 41 0 53 0;
#X connect 42 0 55 0;
#X connect 43 0 55 0;
#X connect 44 0 34 0;
#X connect 45 0 55 0;
#X connect 46 0 49 0;
#X connect 47 0 49 0;
#X connect 48 0 49 0;
#X connect 49 0 55 0;
#X connect 50 0 51 0;
#X connect 51 0 49 1;
#X connect 53 0 45 0;
#X connect 53 2 48 0;
#X connect 53 4 42 0;
#X connect 53 5 43 0;
#X connect 53 7 46 0;
#X connect 53 8 47 0;
#X connect 54 0 25 0;
#X connect 54 2 25 0;
#X connect 55 0 17 0;
#X connect 55 0 17 2;
#X connect 56 0 55 0;
#X connect 57 0 23 0;
#X connect 57 0 26 0;
#X connect 58 0 54 0;
#X connect 59 0 33 1;
#X connect 61 0 62 0;
#X connect 62 0 65 0;
#X connect 62 1 66 0;
#X connect 63 0 56 0;
#X connect 65 0 63 0;
#X connect 66 0 64 0;
#X connect 68 0 73 0;
#X connect 69 0 73 0;
#X connect 70 0 71 0;
#X connect 71 0 77 0;
#X connect 72 0 73 1;
#X connect 73 0 83 5;
#X connect 74 0 72 0;
#X connect 75 0 35 0;
#X connect 76 0 83 6;
#X connect 77 0 72 0;
#X connect 78 0 83 2;
#X connect 79 0 78 1;
#X connect 80 0 79 0;
#X connect 83 0 84 0;
#X connect 83 1 85 0;
#X connect 84 0 3 0;
#X connect 85 0 3 1;
