#N canvas 780 378 365 333 10;
#X obj 58 99 line~;
#X obj 58 148 *~;
#X obj 174 124 line~;
#X obj 56 40 inlet;
#X obj 57 268 outlet~;
#X obj 58 122 osc~ 100;
#X obj 59 208 lop~ 200;
#X obj 80 240 *~ 1;
#X msg 57 73 200 \, 80 50;
#X msg 174 104 0.8 \, 0.005 200;
#X connect 0 0 5 0;
#X connect 1 0 6 0;
#X connect 2 0 1 1;
#X connect 3 0 8 0;
#X connect 5 0 1 0;
#X connect 6 0 7 0;
#X connect 7 0 4 0;
#X connect 8 0 0 0;
#X connect 8 0 9 0;
#X connect 9 0 2 0;
