#N canvas 780 378 365 333 10;
#X obj 58 99 line~;
#X obj 58 148 *~;
#X obj 174 124 line~;
#X obj 56 40 inlet;
#X obj 57 268 outlet~;
#X obj 59 208 lop~ 200;
#X obj 204 40 inlet;
#X obj 166 172 * -100;
#X obj 162 199 + 100;
#X obj 80 240 *~ 1;
#X obj 254 196 / -4;
#X obj 254 217 + 0.25;
#X obj 255 238 clip 0 1;
#X obj 163 225 moses 30;
#X msg 57 73 200 \, 100 30;
#X obj 58 122 noise~;
#X msg 174 104 0.8 \, 0.005 300;
#X connect 0 0 15 0;
#X connect 1 0 5 0;
#X connect 2 0 1 1;
#X connect 3 0 14 0;
#X connect 5 0 9 0;
#X connect 6 0 7 0;
#X connect 6 0 10 0;
#X connect 7 0 8 0;
#X connect 8 0 13 0;
#X connect 9 0 4 0;
#X connect 10 0 11 0;
#X connect 11 0 12 0;
#X connect 13 1 5 1;
#X connect 14 0 0 0;
#X connect 14 0 16 0;
#X connect 15 0 1 0;
#X connect 16 0 2 0;
