#N canvas 0 22 605 388 10;
#X obj 27 33 inlet~;
#X obj 117 33 inlet~;
#X obj 27 209 outlet~;
#X obj 101 209 outlet~;
#N canvas 0 22 507 373 write 0;
#X obj 41 43 inlet~;
#X obj 141 43 inlet~;
#X obj 41 343 outlet~;
#X obj 41 293 delwrite~ ch1 1000;
#X obj 141 263 delwrite~ ch2 1000;
#X obj 221 51 inlet;
#X obj 221 81 clip 0 0.995;
#X obj 293 171 r~ ch2feed;
#X obj 203 171 r~ ch1feed;
#X obj 203 201 *~;
#X obj 293 201 *~;
#X obj 221 141 line~;
#X msg 221 111 \$1 50;
#X connect 0 0 3 0;
#X connect 1 0 4 0;
#X connect 5 0 6 0;
#X connect 6 0 12 0;
#X connect 7 0 10 0;
#X connect 8 0 9 0;
#X connect 9 0 3 0;
#X connect 10 0 4 0;
#X connect 11 0 10 1;
#X connect 11 0 9 1;
#X connect 12 0 11 0;
#X restore 121 75 pd write;
#N canvas 455 297 350 237 read 0;
#X obj 34 40 inlet~;
#X obj 34 210 outlet~;
#X obj 184 210 outlet~;
#X obj 214 40 inlet;
#X obj 34 140 vd~ ch1;
#X obj 184 140 vd~ ch2;
#X obj 101 96 line~;
#X obj 54 170 s~ ch1feed;
#X obj 204 170 s~ ch2feed;
#X msg 101 66 \$1 11;
#X connect 3 0 9 0;
#X connect 4 0 1 0;
#X connect 4 0 7 0;
#X connect 5 0 2 0;
#X connect 5 0 8 0;
#X connect 6 0 4 0;
#X connect 6 0 5 0;
#X connect 9 0 6 0;
#X restore 121 105 pd read;
#X obj 123 164 hsl 128 15 0 1 0 0 empty empty empty -2 -8 0 10 -262144
-1 -1 0 1;
#N canvas 28 214 623 396 dry-wet2 0;
#X obj 22 26 inlet~;
#X obj 122 26 inlet~;
#X obj 372 26 inlet;
#X obj 122 349 outlet~;
#X obj 22 349 outlet~;
#X obj 442 226 line~;
#X obj 122 289 *~;
#X obj 52 289 *~;
#X obj 372 226 line~;
#X obj 372 106 * 1.5708;
#X obj 372 136 cos;
#X obj 442 136 sin;
#X obj 372 166 clip 0 1;
#X obj 442 166 clip 0 1;
#X msg 372 196 \$1 200;
#X msg 442 196 \$1 200;
#X obj 92 289 *~;
#X obj 22 289 *~;
#X obj 442 26 loadbang;
#X msg 442 56 0;
#X obj 192 26 inlet~;
#X obj 292 26 inlet~;
#X connect 0 0 17 0;
#X connect 1 0 7 0;
#X connect 2 0 9 0;
#X connect 5 0 6 1;
#X connect 5 0 16 1;
#X connect 6 0 3 0;
#X connect 7 0 3 0;
#X connect 8 0 7 1;
#X connect 8 0 17 1;
#X connect 9 0 11 0;
#X connect 9 0 10 0;
#X connect 10 0 12 0;
#X connect 11 0 13 0;
#X connect 12 0 14 0;
#X connect 13 0 15 0;
#X connect 14 0 8 0;
#X connect 15 0 5 0;
#X connect 16 0 4 0;
#X connect 17 0 4 0;
#X connect 18 0 19 0;
#X connect 19 0 9 0;
#X connect 20 0 16 0;
#X connect 21 0 6 0;
#X restore 27 179 pd dry-wet2;
#X obj 417 71 hsl 128 15 0 1 0 0 empty empty empty -2 -8 0 10 -262144
-1 -1 0 1;
#X obj 379 160 * 5;
#X obj 379 191 pow 4;
#X obj 379 251 clip 2 500;
#X obj 379 221 + 2;
#X obj 379 130 +;
#X obj 379 100 * 0.2;
#X obj 413 130 * 0.8;
#X obj 217 121 hsl 128 15 0 1 0 0 empty empty empty -2 -8 0 10 -262144
-1 -1 0 1;
#X text 414 54 delay;
#X text 216 103 feedback;
#X floatatom 436 212 5 0 0 0 - - -;
#X obj 174 33 r feedback;
#X obj 184 193 r delay;
#X obj 379 30 r delay-time;
#X connect 0 0 7 0;
#X connect 0 0 4 0;
#X connect 1 0 7 1;
#X connect 1 0 4 1;
#X connect 4 0 5 0;
#X connect 5 0 7 2;
#X connect 5 1 7 3;
#X connect 6 0 7 4;
#X connect 7 0 2 0;
#X connect 7 1 3 0;
#X connect 8 0 14 0;
#X connect 9 0 10 0;
#X connect 10 0 12 0;
#X connect 11 0 5 1;
#X connect 12 0 11 0;
#X connect 12 0 19 0;
#X connect 13 0 9 0;
#X connect 13 0 15 0;
#X connect 14 0 13 0;
#X connect 15 0 13 1;
#X connect 16 0 4 2;
#X connect 20 0 4 2;
#X connect 21 0 7 4;
#X connect 22 0 14 0;
