#N canvas 0 22 276 173 10;
#X obj 68 90 f;
#X obj 68 61 bng 15 250 50 0 empty empty empty 17 7 0 10 -262144 -1
-1;
#X obj 106 89 -;
#X obj 100 45 inlet;
#X obj 107 115 outlet;
#X connect 0 0 2 1;
#X connect 1 0 0 0;
#X connect 2 0 4 0;
#X connect 3 0 1 0;
#X connect 3 0 0 1;
#X connect 3 0 2 0;
