#N canvas 604 67 820 589 10;
#X obj 359 199 +;
#X text 445 199 long-term loudness;
#X obj 142 64 inlet;
#X text 177 36 input;
#X obj 402 179 -;
#X msg 403 157 1 \$1;
#X floatatom 458 73 5 0 0 0 - - -;
#X obj 457 95 * 0.001;
#X floatatom 457 121 5 0 0 0 - - -;
#X text 475 149 comment;
#X obj 391 200 * 0.94;
#X obj 358 222 * 0.06;
#X obj 362 268 outlet;
#X connect 0 0 10 0;
#X connect 0 0 11 0;
#X connect 2 0 0 0;
#X connect 4 0 11 1;
#X connect 5 0 4 0;
#X connect 6 0 7 0;
#X connect 7 0 8 0;
#X connect 8 0 5 0;
#X connect 8 0 10 1;
#X connect 10 0 0 1;
#X connect 11 0 12 0;
