#N canvas 293 80 963 670 10;
#X obj 660 159 line;
#X obj 657 43 r #accelerate;
#X obj 658 65 unpack 0 0 0;
#X obj 660 111 + 1;
#X obj 659 88 * 2;
#N canvas 109 295 649 466 touchinput 0;
#X obj 122 110 route 1 2;
#X obj 99 39 route down xy up;
#X obj 195 91 route 1 2;
#X msg 197 127 1;
#X obj 215 222 moses 50;
#X msg 216 248 0;
#X obj 99 69 route 1 2;
#X obj 215 197 unpack;
#X obj 115 265 line;
#N canvas 203 211 455 426 interact 0;
#X obj 66 219 -;
#X obj 68 191 t f f;
#X obj 67 59 unpack;
#X obj 68 32 inlet;
#X obj 67 114 atan2;
#X obj 66 398 outlet;
#X obj 67 240 moses 1;
#X obj 67 284 moses -1;
#X obj 113 262 - 6.283;
#X obj 67 304 + 6.283;
#X obj 119 84 - 240;
#X obj 68 149 change;
#X msg 185 158 stop \, bang;
#X msg 185 202 0;
#X obj 186 181 del 40;
#X obj 231 62 inlet;
#X msg 224 109 stop;
#X msg 327 191 1;
#X obj 116 357 * 0.5;
#X obj 66 357 +;
#X obj 65 332 * -10;
#X obj 68 84 - 170;
#X connect 0 0 6 0;
#X connect 1 0 0 1;
#X connect 1 1 0 0;
#X connect 2 0 21 0;
#X connect 2 1 10 0;
#X connect 3 0 2 0;
#X connect 4 0 11 0;
#X connect 4 0 12 0;
#X connect 6 0 7 0;
#X connect 6 1 8 0;
#X connect 7 0 9 0;
#X connect 7 1 20 0;
#X connect 8 0 20 0;
#X connect 9 0 20 0;
#X connect 10 0 4 1;
#X connect 11 0 1 0;
#X connect 12 0 14 0;
#X connect 13 0 20 0;
#X connect 14 0 13 0;
#X connect 15 0 16 0;
#X connect 15 0 17 0;
#X connect 16 0 14 0;
#X connect 17 0 5 0;
#X connect 18 0 19 1;
#X connect 19 0 18 0;
#X connect 19 0 5 0;
#X connect 20 0 19 0;
#X connect 21 0 4 0;
#X restore 125 197 pd interact;
#X msg 78 111 0;
#X obj 100 17 r #touch;
#X msg 114 242 \$1 50;
#X msg 236 304 0;
#X msg 277 306 4;
#X obj 115 327 outlet;
#X obj 163 285 print;
#X connect 0 0 9 0;
#X connect 1 0 6 0;
#X connect 1 1 0 0;
#X connect 1 2 2 0;
#X connect 2 0 3 0;
#X connect 2 1 3 0;
#X connect 2 1 14 0;
#X connect 3 0 9 1;
#X connect 4 0 5 0;
#X connect 6 0 10 0;
#X connect 6 1 13 0;
#X connect 7 1 4 0;
#X connect 8 0 15 0;
#X connect 9 0 12 0;
#X connect 10 0 12 0;
#X connect 11 0 1 0;
#X connect 11 0 16 0;
#X connect 12 0 8 0;
#X restore 551 76 pd touchinput;
#X obj 734 211 line;
#X obj 733 166 + 1;
#X obj 586 348 outlet;
#X obj 733 239 outlet;
#X obj 847 330 outlet;
#X msg 659 136 \$1 20;
#X obj 733 189 \$1 20;
#X obj 824 221 line;
#X obj 823 199 \$1 20;
#X connect 0 0 8 0;
#X connect 1 0 2 0;
#X connect 2 0 4 0;
#X connect 2 1 7 0;
#X connect 2 2 14 0;
#X connect 3 0 11 0;
#X connect 4 0 3 0;
#X connect 6 0 9 0;
#X connect 7 0 12 0;
#X connect 11 0 0 0;
#X connect 12 0 6 0;
#X connect 13 0 10 0;
#X connect 14 0 13 0;
