#N canvas 240 34 1227 672 10;
#X obj 112 571 sel 0 1 2 3 4 5 6 7;
#X obj -166 381 sel 0 1 2 3 4 5 6 7 8 9 10 11 12 13 14 15;
#X obj 248 604 outlet;
#X obj 150 232 inlet;
#X obj 137 332 / 2;
#X obj -85 506 outlet;
#X connect 0 2 2 0;
#X connect 0 5 2 0;
#X connect 0 6 2 0;
#X connect 1 2 5 0;
#X connect 1 6 5 0;
#X connect 1 10 5 0;
#X connect 1 14 5 0;
#X connect 3 0 1 0;
#X connect 3 0 4 0;
#X connect 4 0 0 0;
