#N canvas 156 121 768 506 10;
#X obj 90 206 c_adsr;
#X msg 56 143 1;
#X msg 251 153 1;
#X obj 230 35 t b f;
#X obj 300 192 c_adsr_mes;
#X obj 289 230 +;
#X obj 169 276 phasor~;
#X obj 107 152 unpack f f f f f;
#X obj 309 144 unpack f f f f f;
#X obj 191 302 *~;
#X obj 235 252 mtof;
#X msg 322 24 64;
#X msg 366 27 71;
#X obj 170 339 e_reslop mylop 2000;
#X obj 171 444 outlet~;
#X obj 501 65 vsl 15 128 500 6000 0 0 empty empty empty 0 -9 0 10 -262144
-1 -1 6102 1;
#X msg 285 305 freq \$1;
#X msg 376 305 q 2;
#X msg 309 121 7 2000 1000 0 0;
#X obj 583 67 r zact2;
#X floatatom 593 98 5 0 0 0 - - -;
#X obj 566 126 > 100;
#X obj 566 148 sel 1;
#X obj 551 22 r y;
#X obj 527 63 * -3000;
#X obj 528 84 + 5000;
#X obj 527 256 follower_lpf;
#X msg 107 129 1 3000 2000 0.05 0;
#X obj 392 280 loadbang;
#X connect 0 0 9 1;
#X connect 1 0 0 0;
#X connect 2 0 4 0;
#X connect 3 0 1 0;
#X connect 3 0 2 0;
#X connect 3 0 27 0;
#X connect 3 0 18 0;
#X connect 3 1 5 1;
#X connect 4 0 5 0;
#X connect 5 0 10 0;
#X connect 6 0 9 0;
#X connect 7 0 0 1;
#X connect 7 1 0 2;
#X connect 7 2 0 3;
#X connect 7 3 0 4;
#X connect 7 4 0 5;
#X connect 8 0 4 1;
#X connect 8 1 4 2;
#X connect 8 2 4 3;
#X connect 8 3 4 4;
#X connect 8 4 4 5;
#X connect 9 0 13 0;
#X connect 10 0 6 0;
#X connect 11 0 3 0;
#X connect 12 0 3 0;
#X connect 13 0 14 0;
#X connect 15 0 16 0;
#X connect 16 0 13 1;
#X connect 17 0 13 1;
#X connect 18 0 8 0;
#X connect 19 0 20 0;
#X connect 19 0 21 0;
#X connect 21 0 22 0;
#X connect 22 0 11 0;
#X connect 23 0 24 0;
#X connect 24 0 25 0;
#X connect 25 0 26 0;
#X connect 26 0 15 0;
#X connect 27 0 7 0;
#X connect 28 0 17 0;
