#N canvas 474 193 685 568 10;
#X obj 117 186 soundfiler;
#X obj 90 281 phasor~;
#X obj 115 232 /;
#X obj 60 16 inlet speed;
#X obj 152 15 inlet sample;
#X obj 133 410 outlet~;
#X obj 147 280 table \$0-sample1;
#X obj 90 347 tabread4~ \$0-sample1;
#X obj 164 97 symbol \$0-sample1;
#X obj 152 58 t a b b;
#X obj 89 254 * 1;
#X floatatom 41 301 5 0 0 0 - - -;
#X obj 289 14 inlet pos;
#X obj 288 40 / 4;
#X msg 116 210 22050 \$1;
#X obj 90 324 *~ 22050;
#X obj 118 141 pack s s;
#X msg 118 163 read -resize \$1 \$2;
#X obj 335 81 bng 15 250 50 0 empty empty empty 17 7 0 10 -262144 -1
-1;
#X obj 367 14 inlet trig;
#X obj 429 164 bng 15 250 50 0 empty empty empty 17 7 0 10 -262144
-1 -1;
#X obj 323 149 * 1000;
#X obj 408 102 delay;
#X msg 510 125 1 100;
#X obj 477 285 vline~;
#X msg 531 151 0 500;
#X obj 139 379 *~;
#X obj 384 58 bng 15 250 50 0 empty empty empty 17 7 0 10 -262144 -1
-1;
#X obj 322 173 + 500;
#X connect 0 0 14 0;
#X connect 0 0 15 1;
#X connect 1 0 15 0;
#X connect 2 0 10 1;
#X connect 2 0 21 0;
#X connect 3 0 10 0;
#X connect 4 0 9 0;
#X connect 7 0 26 0;
#X connect 8 0 16 1;
#X connect 9 0 16 0;
#X connect 9 1 8 0;
#X connect 10 0 1 0;
#X connect 10 0 11 0;
#X connect 12 0 13 0;
#X connect 12 0 18 0;
#X connect 13 0 1 1;
#X connect 14 0 2 0;
#X connect 15 0 7 0;
#X connect 16 0 17 0;
#X connect 17 0 0 0;
#X connect 19 0 23 0;
#X connect 19 0 27 0;
#X connect 21 0 28 0;
#X connect 22 0 20 0;
#X connect 22 0 25 0;
#X connect 23 0 24 0;
#X connect 24 0 26 1;
#X connect 25 0 24 0;
#X connect 26 0 5 0;
#X connect 27 0 22 0;
#X connect 28 0 22 1;
