#N canvas 177 121 1263 752 10;
#X obj 117 557 sel 0 1 2 3 4 5 6 7;
#X obj 576 165 sel 0 1 2 3 4 5 6 7 8 9 10 11 12 13 14 15;
#X obj 378 592 spigot;
#X msg 485 567 0;
#X msg 416 566 1;
#X obj 552 294 spigot;
#X msg 591 268 0;
#X msg 553 269 1;
#X obj 531 240 sel 1 3;
#X obj 707 404 outlet;
#X obj 55 201 inlet;
#X obj 56 333 / 2;
#X obj 453 593 spigot;
#X msg 450 566 1;
#X obj 550 174 bng 15 250 50 0 empty empty empty 17 7 0 10 -262144
-1 -1;
#X obj 90 599 bng 15 250 50 0 empty empty empty 17 7 0 10 -262144 -1
-1;
#X obj 368 192 b;
#X obj 407 503 countevent 8;
#X obj 189 138 inlet;
#X obj 408 119 inlet;
#X text 395 86 snare activity;
#X obj 266 600 spigot;
#X obj 265 624 outlet;
#X obj 197 633 spigot;
#X obj 205 702 outlet;
#X text 181 106 bd activity;
#X floatatom 250 235 5 0 0 0 - - -;
#X obj 226 161 > 15;
#X obj 408 141 > 8;
#X obj 370 220 random 20;
#X obj 715 632 spigot;
#X obj 589 568 sel 0 1 2 3 4 5 6 7 8 9 10 11 12 13 14 15;
#X msg 757 598 1;
#X msg 790 609 0;
#X floatatom 431 187 5 0 0 0 - - -;
#X obj 459 141 > 20;
#X obj 423 539 sel 3 7;
#X text 65 175 metro;
#X connect 0 0 15 0;
#X connect 0 0 17 0;
#X connect 0 0 23 0;
#X connect 0 1 23 0;
#X connect 0 2 21 0;
#X connect 0 3 23 0;
#X connect 0 4 23 0;
#X connect 0 6 21 0;
#X connect 0 7 23 0;
#X connect 1 0 9 0;
#X connect 1 0 14 0;
#X connect 1 1 9 0;
#X connect 1 2 9 0;
#X connect 1 3 9 0;
#X connect 1 4 9 0;
#X connect 1 5 9 0;
#X connect 1 6 9 0;
#X connect 1 7 9 0;
#X connect 1 8 9 0;
#X connect 1 9 9 0;
#X connect 1 10 9 0;
#X connect 1 11 2 0;
#X connect 1 11 9 0;
#X connect 1 12 9 0;
#X connect 1 13 5 0;
#X connect 1 13 9 0;
#X connect 1 14 9 0;
#X connect 1 15 12 0;
#X connect 2 0 21 0;
#X connect 3 0 2 1;
#X connect 3 0 12 1;
#X connect 4 0 2 1;
#X connect 5 0 9 0;
#X connect 6 0 5 1;
#X connect 7 0 5 1;
#X connect 8 0 7 0;
#X connect 8 1 6 0;
#X connect 10 0 11 0;
#X connect 10 0 16 0;
#X connect 10 0 31 0;
#X connect 11 0 0 0;
#X connect 12 0 21 0;
#X connect 13 0 12 1;
#X connect 16 0 29 0;
#X connect 17 0 8 0;
#X connect 17 0 36 0;
#X connect 18 0 27 0;
#X connect 19 0 28 0;
#X connect 19 0 34 0;
#X connect 19 0 35 0;
#X connect 21 0 22 0;
#X connect 23 0 24 0;
#X connect 27 0 23 1;
#X connect 27 0 26 0;
#X connect 28 0 21 1;
#X connect 29 0 1 0;
#X connect 30 0 24 0;
#X connect 31 0 30 0;
#X connect 31 2 30 0;
#X connect 31 3 30 0;
#X connect 31 5 30 0;
#X connect 31 6 30 0;
#X connect 31 8 30 0;
#X connect 32 0 30 1;
#X connect 33 0 30 1;
#X connect 35 0 4 0;
#X connect 36 1 13 0;
#X connect 36 2 4 0;
#X connect 36 2 13 0;
