#N canvas 118 213 934 668 10;
#X obj 379 29 loadbang;
#X obj 321 530 *~;
#X obj 388 530 *~;
#X text 761 301 master;
#X obj 387 580 outlet~;
#X obj 312 579 outlet~;
#X obj 73 254 inlet~;
#X obj 163 254 inlet~;
#X obj 250 254 inlet~;
#X obj 95 427 catch~ masterL;
#X obj 217 427 catch~ masterR;
#X obj 327 249 inlet~;
#X obj 429 250 inlet~;
#X obj 513 251 inlet~;
#X obj 759 108 buseffects;
#X obj 388 426 catch~ obus1;
#X obj 526 301 mixchannel;
#X obj 268 302 mixchannel;
#X obj 91 302 mixchannel;
#X obj 181 302 mixchannel;
#X obj 355 301 mixchannel;
#X obj 442 300 mixchannel;
#X obj 486 427 catch~ obus2;
#X msg 210 214 0.6;
#X msg 226 241 0.2;
#X msg 220 268 0;
#X msg 259 212 0.2;
#X msg 299 212 0.3;
#X obj 628 303 mixchannel;
#X obj 627 228 inlet~;
#X msg 687 278 0.4;
#X msg 601 274 0.2;
#X msg 763 276 10;
#X msg 95 214 0.2;
#X msg 555 274 0.02;
#X msg 474 274 0.1;
#X msg 178 214 0.15;
#X obj 593 39 r juicypan;
#X obj 595 119 follower_lpf;
#X obj 594 73 + 1;
#X obj 595 95 / 4;
#X obj 596 142 clip 0 1;
#X floatatom 690 192 5 0 0 0 - - -;
#X msg 637 278 0.06;
#X msg 380 275 0.1;
#X connect 0 0 32 0;
#X connect 0 0 34 0;
#X connect 0 0 35 0;
#X connect 0 0 44 0;
#X connect 0 0 26 0;
#X connect 0 0 27 0;
#X connect 0 0 31 0;
#X connect 0 0 36 0;
#X connect 0 0 23 0;
#X connect 0 0 33 0;
#X connect 0 0 24 0;
#X connect 0 0 30 0;
#X connect 0 0 43 0;
#X connect 1 0 5 0;
#X connect 2 0 4 0;
#X connect 6 0 18 0;
#X connect 7 0 19 0;
#X connect 8 0 17 0;
#X connect 9 0 1 0;
#X connect 10 0 2 0;
#X connect 11 0 20 0;
#X connect 12 0 21 0;
#X connect 13 0 16 0;
#X connect 15 0 1 0;
#X connect 15 0 2 0;
#X connect 22 0 1 0;
#X connect 22 0 2 0;
#X connect 23 0 19 2;
#X connect 24 0 19 4;
#X connect 25 0 19 3;
#X connect 26 0 17 1;
#X connect 27 0 17 3;
#X connect 29 0 28 0;
#X connect 30 0 28 2;
#X connect 31 0 16 4;
#X connect 32 0 2 1;
#X connect 32 0 1 1;
#X connect 33 0 18 1;
#X connect 34 0 16 1;
#X connect 35 0 21 1;
#X connect 36 0 19 1;
#X connect 37 0 39 0;
#X connect 38 0 41 0;
#X connect 39 0 40 0;
#X connect 40 0 38 0;
#X connect 41 0 42 0;
#X connect 41 0 28 2;
#X connect 43 0 28 1;
#X connect 44 0 20 1;
#X coords 0 0 1 1 85 20 0;
