#N canvas 129 308 619 316 10;
#X obj 129 56 inlet~;
#X obj 185 56 inlet;
#X obj 235 56 inlet;
#X obj 146 116 *~ 1;
#X text 187 29 volume;
#X text 246 29 pan;
#X obj 175 154 pan;
#X obj 109 198 throw~ masterL;
#X obj 228 199 throw~ masterR;
#X obj 313 56 inlet;
#X text 308 30 send bus1;
#X obj 312 106 *~ 0;
#X obj 312 138 throw~ ibus1;
#X obj 414 56 inlet;
#X obj 413 106 *~ 0;
#X text 409 30 send bus2;
#X obj 413 138 throw~ ibus2;
#X connect 0 0 3 0;
#X connect 0 0 11 0;
#X connect 0 0 14 0;
#X connect 1 0 3 1;
#X connect 2 0 6 1;
#X connect 3 0 6 0;
#X connect 6 0 7 0;
#X connect 6 1 8 0;
#X connect 9 0 11 1;
#X connect 11 0 12 0;
#X connect 13 0 14 1;
#X connect 14 0 16 0;
