#N canvas 0 22 450 300 10;
#X obj 87 43 inlet~;
#X obj 237 42 inlet;
#X obj 261 80 * -1;
#X obj 233 107 + 1;
#X obj 173 219 outlet~;
#X obj 173 189 +~;
#X obj 73 219 outlet~;
#X obj 73 189 +~;
#X obj 49 154 *~ 0.5;
#X obj 102 154 *~ 0.5;
#X obj 161 155 *~ 0.5;
#X obj 215 155 *~ 0.5;
#X connect 0 0 8 0;
#X connect 0 0 10 0;
#X connect 1 0 2 0;
#X connect 1 0 9 1;
#X connect 1 0 10 1;
#X connect 2 0 3 0;
#X connect 3 0 8 1;
#X connect 3 0 11 1;
#X connect 5 0 4 0;
#X connect 7 0 6 0;
#X connect 8 0 7 0;
#X connect 9 0 7 1;
#X connect 10 0 5 0;
#X connect 11 0 5 1;
