#N canvas 0 22 789 450 10;
#X obj 360 233 c_adsr;
#X obj 422 354 *~;
#X msg 326 170 1;
#X msg 521 180 1;
#X obj 500 62 t b f;
#X obj 570 219 c_adsr_mes;
#X obj 559 257 +;
#X obj 439 303 phasor~;
#X obj 488 272 mtof;
#X obj 377 179 unpack f f f f f;
#X obj 579 171 unpack f f f f f;
#X obj 419 391 outlet~;
#X obj 498 35 inlet;
#X msg 377 156 1 200 100 10 500;
#X obj 448 273 * 2;
#X msg 579 148 1 100 0 0 0;
#X connect 0 0 1 1;
#X connect 1 0 11 0;
#X connect 2 0 0 0;
#X connect 3 0 5 0;
#X connect 4 0 2 0;
#X connect 4 0 3 0;
#X connect 4 0 13 0;
#X connect 4 0 15 0;
#X connect 4 1 6 1;
#X connect 5 0 6 0;
#X connect 6 0 8 0;
#X connect 7 0 1 0;
#X connect 8 0 14 0;
#X connect 9 0 0 1;
#X connect 9 1 0 2;
#X connect 9 2 0 3;
#X connect 9 3 0 4;
#X connect 9 4 0 5;
#X connect 10 0 5 1;
#X connect 10 1 5 2;
#X connect 10 2 5 3;
#X connect 10 3 5 4;
#X connect 10 4 5 5;
#X connect 12 0 4 0;
#X connect 13 0 9 0;
#X connect 14 0 7 0;
#X connect 15 0 10 0;
