#N canvas 0 22 694 452 10;
#X obj 394 29 inlet;
#X obj 289 26 inlet;
#X text 373 4 speed;
#X text 268 0 unit;
#X obj 53 102 loadbang;
#X msg 75 155 seekimpose_low.wav;
#X msg 74 178 atomic_low.wav;
#X msg 76 133 question_low.wav;
#X obj 362 410 outlet~;
#X msg 72 200 burning_low.wav;
#X obj 288 46 t f b;
#X msg 206 95 0;
#X obj 302 77 pack f f;
#X obj 353 44 b;
#X obj 305 100 route 0 1 2 3 4;
#X obj 441 121 inlet;
#X obj 434 186 bng 15 250 50 0 empty empty empty 17 7 0 10 -262144
-1 -1;
#X obj 346 239 loop;
#X obj 357 260 loop;
#X obj 374 313 loop;
#X obj 366 283 loop;
#X connect 0 0 12 1;
#X connect 0 0 13 0;
#X connect 1 0 10 0;
#X connect 4 0 5 0;
#X connect 4 0 6 0;
#X connect 4 0 7 0;
#X connect 4 0 9 0;
#X connect 5 0 18 1;
#X connect 6 0 20 1;
#X connect 7 0 17 1;
#X connect 9 0 19 1;
#X connect 10 0 12 0;
#X connect 10 1 11 0;
#X connect 11 0 17 0;
#X connect 11 0 17 2;
#X connect 11 0 18 0;
#X connect 11 0 18 2;
#X connect 11 0 19 0;
#X connect 11 0 19 2;
#X connect 11 0 20 0;
#X connect 11 0 20 2;
#X connect 12 0 14 0;
#X connect 13 0 12 0;
#X connect 14 0 17 0;
#X connect 14 1 18 0;
#X connect 14 2 20 0;
#X connect 14 3 19 0;
#X connect 15 0 16 0;
#X connect 15 0 17 3;
#X connect 15 0 18 3;
#X connect 15 0 19 3;
#X connect 15 0 20 3;
#X connect 17 0 8 0;
#X connect 18 0 8 0;
#X connect 19 0 8 0;
#X connect 20 0 8 0;
