#N canvas 0 22 559 318 10;
#X obj 150 41 noise~;
#X obj 229 258 outlet~;
#X obj 150 93 *~ 0.3;
#X obj 171 194 *~;
#X obj 244 199 line~;
#X obj 232 38 inlet;
#X obj 78 128 bp~ 3500 2;
#X obj 70 48 r vert;
#X obj 317 89 t b b;
#X msg 351 126 1;
#X obj 312 164 pack 0 f;
#X obj 75 88 * 5000;
#X obj 391 92 * 70;
#X obj 405 143 + 15;
#X obj 336 42 inlet;
#X connect 0 0 2 0;
#X connect 2 0 6 0;
#X connect 3 0 1 0;
#X connect 4 0 3 1;
#X connect 5 0 8 0;
#X connect 6 0 3 0;
#X connect 7 0 11 0;
#X connect 8 0 10 0;
#X connect 8 1 9 0;
#X connect 9 0 4 0;
#X connect 10 0 4 0;
#X connect 11 0 6 1;
#X connect 12 0 13 0;
#X connect 13 0 10 1;
#X connect 14 0 12 0;
