#N canvas 511 76 652 475 12;
#X obj 133 319 osc~ 330;
#X obj 131 293 osc~ 180;
#X obj 218 258 noise~;
#X obj 164 385 +~;
#X obj 229 342 vcf~ 10;
#X obj 55 82 hsl 40 10 0 1 0 0 \$0-decay \$0-decayinput decay -2 -6
1 8 -258699 -1 -1 300 1;
#X obj 55 59 hsl 40 10 0 1 0 0 \$0-attack \$0-attackinput attack -2
-6 1 8 -258699 -1 -1 0 1;
#X obj 55 103 hsl 40 10 0 1 0 0 \$0-cutoff \$0-cutoffinput cutoff -2
-6 1 8 -258699 -1 -1 1600 1;
#X obj 298 167 r \$0-cutoff;
#X obj 180 168 phasor~ 175;
#X obj 199 193 phasor~ 224;
#X obj 163 437 outlet~;
#X obj 375 65 inlet control;
#X obj 364 120 s \$0-attackinput;
#X obj 420 170 s \$0-decayinput;
#X obj 477 146 s \$0-cutoffinput;
#X obj 364 13 loadbang;
#N canvas 691 151 494 344 env 0;
#X obj 101 145 pack 1 f;
#X obj 116 116 delay;
#X obj 116 174 pack 0 f;
#X obj 101 204 line~;
#X obj 208 101 r \$0-decay;
#X obj 202 11 r \$0-attack;
#X obj 101 231 expr~ pow($v1 \, 3);
#X obj 101 46 inlet bang;
#X obj 101 258 outlet~;
#X obj 202 37 * 300;
#X obj 208 126 * 500;
#X floatatom 266 64 5 0 0 0 - - -;
#X floatatom 275 148 5 0 0 0 - - -;
#X obj 202 63 + 1;
#X obj 209 147 + 1;
#X obj 69 104 bng 15 250 50 0 empty empty empty 17 7 0 10 -262144 -1
-1;
#X obj 382 159 bng 15 250 50 0 empty empty empty 17 7 0 10 -262144
-1 -1;
#X obj 385 182 metro 1;
#X obj 384 211 snapshot~;
#X floatatom 381 246 5 0 0 0 - - -;
#X obj 172 94 + 2;
#X connect 0 0 3 0;
#X connect 1 0 2 0;
#X connect 2 0 3 0;
#X connect 3 0 6 0;
#X connect 3 0 18 0;
#X connect 4 0 10 0;
#X connect 5 0 9 0;
#X connect 6 0 8 0;
#X connect 7 0 0 0;
#X connect 7 0 1 0;
#X connect 7 0 15 0;
#X connect 9 0 13 0;
#X connect 10 0 12 0;
#X connect 10 0 14 0;
#X connect 13 0 0 1;
#X connect 13 0 11 0;
#X connect 13 0 20 0;
#X connect 14 0 2 1;
#X connect 15 0 0 0;
#X connect 15 0 1 0;
#X connect 16 0 17 0;
#X connect 17 0 18 0;
#X connect 18 0 19 0;
#X connect 20 0 1 1;
#X restore 364 247 pd env;
#X obj 298 242 /~ 2;
#X obj 297 306 +~;
#X obj 163 412 *~;
#X obj 317 277 *~;
#X obj 364 228 bng 15 250 50 0 empty empty empty 17 7 0 10 -262144
-1 -1;
#X obj 298 192 * 2000;
#X obj 298 217 + 10;
#X obj 364 203 inlet bang;
#X obj 124 118 metro 1;
#X obj 124 165 osc~;
#X obj 124 99 bng 15 250 50 0 empty empty empty 17 7 0 10 -262144 -1
-1;
#X obj 124 142 random 2000;
#X obj 124 75 loadbang;
#X obj 124 190 *~ 0.3;
#X obj 39 266 noise~;
#X obj 39 292 lop~ 1000;
#X obj 108 265 * 1200;
#X obj 364 93 route attack decay cutoff;
#X msg 364 38 attack 0 \, decay 0.1 \, cutoff 0.5;
#X obj 193 222 *~ 0.04;
#X obj 150 345 *~ 0.6;
#X connect 0 0 38 0;
#X connect 1 0 38 0;
#X connect 2 0 4 0;
#X connect 3 0 20 0;
#X connect 4 0 3 0;
#X connect 8 0 23 0;
#X connect 8 0 34 0;
#X connect 9 0 37 0;
#X connect 10 0 37 0;
#X connect 12 0 35 0;
#X connect 16 0 36 0;
#X connect 17 0 20 1;
#X connect 17 0 21 1;
#X connect 18 0 19 0;
#X connect 18 0 21 0;
#X connect 19 0 4 1;
#X connect 20 0 11 0;
#X connect 21 0 19 1;
#X connect 22 0 17 0;
#X connect 23 0 24 0;
#X connect 24 0 18 0;
#X connect 25 0 22 0;
#X connect 26 0 29 0;
#X connect 27 0 31 0;
#X connect 28 0 26 0;
#X connect 29 0 27 0;
#X connect 30 0 28 0;
#X connect 31 0 4 0;
#X connect 32 0 33 0;
#X connect 33 0 3 0;
#X connect 34 0 33 1;
#X connect 35 0 13 0;
#X connect 35 1 14 0;
#X connect 35 2 15 0;
#X connect 36 0 35 0;
#X connect 37 0 4 0;
#X connect 38 0 3 0;
#X coords 0 -1 1 1 50 85 1 50 30;
