#N canvas 288 71 1093 575 10;
#X obj 376 306 getshake;
#X obj 419 153 vsl 15 128 -2 2 0 0 empty empty empty 0 -9 0 10 -262144
-1 -1 10563 1;
#X obj 449 155 vsl 15 128 -2 2 0 0 empty empty empty 0 -9 0 10 -262144
-1 -1 8890 1;
#X obj 476 152 vsl 15 128 -2 2 0 0 empty empty empty 0 -9 0 10 -262144
-1 -1 3293 1;
#X floatatom 369 91 5 0 0 0 - - -;
#X obj 586 209 lchange_lpf;
#X obj 591 258 + 1;
#X text 342 111 sne level;
#X text 434 111 bde level;
#X floatatom 894 119 5 0 0 0 - - -;
#X msg 510 48 30;
#X text 911 135 bd stroke;
#X msg 939 76 10;
#X msg 414 48 30;
#X obj 590 235 / 1;
#X obj 864 158 change;
#X msg 899 76 0.8;
#X text 623 246 scratch speed;
#X obj 319 350 outlet;
#X obj 374 351 outlet;
#X obj 427 351 outlet;
#X obj 479 352 outlet;
#X obj 539 352 outlet;
#X text 313 379 x;
#X text 378 379 y;
#X text 432 381 z;
#X text 482 382 x.act;
#X text 543 382 z.act;
#X obj 919 363 outlet;
#X obj 659 352 outlet;
#X text 660 383 scratch.speed;
#X text 930 388 hit.nb;
#X obj 443 14 loadbang;
#X obj 788 353 outlet;
#X text 789 381 x.act2;
#X msg 825 213 \$1 20;
#X obj 827 257 > 0;
#X obj 826 234 line;
#X obj 827 278 change;
#X obj 851 351 outlet;
#X text 847 376 z.reverse;
#X obj 866 97 delta_accum;
#X obj 341 69 delta_accum;
#X obj 437 69 delta_accum;
#X obj 685 93 delta_accum;
#X msg 760 69 130;
#X msg 719 72 0.2;
#X obj 864 135 > 1.9;
#X floatatom 559 423 5 0 0 0 - - -;
#X obj 512 92 delta_accum;
#X obj 981 364 outlet;
#X text 995 390 z.act2;
#X obj 971 439 s zact2;
#X msg 585 71 110;
#X obj 399 421 s y;
#X msg 547 70 0.3;
#X connect 0 0 1 0;
#X connect 0 0 18 0;
#X connect 0 1 2 0;
#X connect 0 1 19 0;
#X connect 0 1 54 0;
#X connect 0 2 3 0;
#X connect 0 2 20 0;
#X connect 1 0 5 0;
#X connect 1 0 42 0;
#X connect 1 0 44 0;
#X connect 3 0 35 0;
#X connect 3 0 41 0;
#X connect 3 0 43 0;
#X connect 3 0 49 0;
#X connect 5 0 14 0;
#X connect 6 0 29 0;
#X connect 10 0 43 2;
#X connect 12 0 41 2;
#X connect 13 0 42 2;
#X connect 14 0 6 0;
#X connect 15 0 28 0;
#X connect 16 0 41 1;
#X connect 32 0 13 0;
#X connect 32 0 10 0;
#X connect 32 0 16 0;
#X connect 32 0 12 0;
#X connect 32 0 45 0;
#X connect 32 0 46 0;
#X connect 32 0 53 0;
#X connect 32 0 55 0;
#X connect 35 0 37 0;
#X connect 36 0 38 0;
#X connect 37 0 36 0;
#X connect 38 0 39 0;
#X connect 41 0 9 0;
#X connect 41 0 47 0;
#X connect 42 0 4 0;
#X connect 42 0 21 0;
#X connect 43 0 22 0;
#X connect 43 0 48 0;
#X connect 44 0 33 0;
#X connect 45 0 44 2;
#X connect 46 0 44 1;
#X connect 47 0 15 0;
#X connect 49 0 50 0;
#X connect 49 0 52 0;
#X connect 53 0 49 2;
#X connect 55 0 49 1;
