#N canvas 263 344 400 321 10;
#X obj 140 56 inlet;
#X obj 140 257 outlet;
#N canvas 566 453 714 319 MODULE_INFO 0;
#X text 64 79 authors: Reaity Jockey;
#X text 66 57 name: Pitchshift;
#X text 66 176 decorator: s1m1-s2m1;
#X text 66 196 tags:;
#X text 65 99 description: This module enables you to pitch any microphone
input up or down. Select menacing rumbles or chipmunk squeaks using
the Growl/Squeak control and use Detune to control the amount of pitching.
Try it out on your voice!;
#X restore 22 28 pd MODULE_INFO;
#X obj 22 56 inlet~ MIC;
#N canvas 449 382 392 357 \$0-PARAMETERS 0;
#X obj 110 275 outlet;
#X obj 110 62 inlet;
#X obj 106 132 cnv 15 187 127 empty empty RJC_Parameters 10 12 1 14
-162280 -262144 0;
#X obj 106 106 cnv 15 187 20 empty empty Pitchshift 60 11 1 14 -261234
-33289 0;
#X obj 110 166 rjc_parameter_floatrange \$0 Detune 0.5;
#X obj 110 201 rjc_parameter_floatrange \$0 Growl/Squeak 0;
#X connect 1 0 4 0;
#X connect 4 0 5 0;
#X connect 5 0 0 0;
#X coords 0 -1 1 1 200 165 2 100 100;
#X restore 140 82 pd \$0-PARAMETERS;
#N canvas 666 24 299 509 \$0-DSP 0;
#X obj 29 430 e_pitchshift;
#X msg 110 403 pitch \$1;
#X obj 110 75 int;
#X obj 110 377 *;
#X obj 154 167 int;
#X obj 154 148 + 0.499;
#X obj 154 188 sel 0 1;
#X msg 152 234 1;
#X obj 156 349 f;
#X obj 110 324 t f b;
#X msg 124 212 -1;
#X obj 124 297 f;
#X obj 124 258 t b f;
#X obj 29 30 inlet~;
#X obj 110 30 r \$0-Detune;
#X obj 154 127 r \$0-Growl/Squeak;
#X obj 110 51 m_scale 0 1 1 10.9;
#X obj 110 98 t f f;
#X obj 29 470 outlet~;
#X connect 0 0 18 0;
#X connect 1 0 0 1;
#X connect 2 0 17 0;
#X connect 3 0 1 0;
#X connect 4 0 6 0;
#X connect 5 0 4 0;
#X connect 6 0 10 0;
#X connect 6 1 7 0;
#X connect 7 0 12 0;
#X connect 8 0 3 1;
#X connect 9 0 3 0;
#X connect 9 1 8 0;
#X connect 10 0 12 0;
#X connect 11 0 9 0;
#X connect 12 0 11 0;
#X connect 12 1 8 0;
#X connect 13 0 0 0;
#X connect 14 0 16 0;
#X connect 15 0 5 0;
#X connect 16 0 2 0;
#X connect 17 0 9 0;
#X connect 17 1 11 1;
#X restore 22 185 pd \$0-DSP;
#X obj 22 257 outlet~;
#X obj 79 257 outlet~;
#N canvas 221 88 370 279 \$0-INPUT 0;
#X obj 66 47 inlet~;
#X obj 66 203 outlet~;
#X connect 0 0 1 0;
#X restore 22 108 pd \$0-INPUT;
#X connect 0 0 4 0;
#X connect 3 0 8 0;
#X connect 4 0 1 0;
#X connect 5 0 7 0;
#X connect 5 0 6 0;
#X connect 8 0 5 0;
