#N canvas 3 22 1009 693 12;
#X declare -path .;
#X declare -path ./lib;
#X obj 526 505 hip~ 5;
#X obj 364 233 line~;
#X obj 305 398 hip~ 50;
#X obj 288 341 lop~ 3000;
#X obj 427 265 clip~ -0.99 0.99;
#N canvas 292 48 707 676 compress_limit 0;
#X obj 23 14 inlet~;
#X obj 24 373 /~;
#X obj 24 402 outlet~;
#X obj 461 135 dbtorms;
#X obj 461 114 + 3;
#X obj 461 159 + 0.1;
#X obj 461 206 moses 1;
#X obj 461 276 f;
#X obj 461 252 + 0.5;
#X obj 461 229 * 0.5;
#X obj 461 42 env~ 128 64;
#X obj 461 323 line~;
#X obj 562 43 env~ 1024 128;
#X obj 461 86 max;
#X msg 461 300 \$1 4;
#N canvas 0 22 600 400 delay-writer 0;
#X obj 96 107 inlet~;
#X obj 96 180 outlet~;
#X obj 116 144 delwrite~ in 50;
#X connect 0 0 1 0;
#X connect 0 0 2 0;
#X restore 24 281 pd delay-writer;
#N canvas 0 22 280 330 delay-reader 0;
#X obj 96 107 inlet~;
#X obj 89 267 outlet~;
#X obj 112 163 inlet~;
#X obj 89 237 +~;
#X obj 112 198 delread~ in 20;
#X connect 0 0 3 0;
#X connect 2 0 4 0;
#X connect 3 0 1 0;
#X connect 4 0 3 1;
#X restore 23 309 pd delay-reader;
#X obj 175 158 samplerate~;
#X obj 174 71 loadbang;
#X floatatom 241 242 5 0 0 0 - - -;
#X msg 193 99 bang;
#X msg 133 238 128000;
#X obj 146 200 t b f;
#X obj 144 272 /;
#X floatatom 204 302 5 0 0 0 - - -;
#X obj 462 181 env+ 11;
#X connect 0 0 10 0;
#X connect 0 0 12 0;
#X connect 0 0 15 0;
#X connect 1 0 2 0;
#X connect 3 0 5 0;
#X connect 4 0 3 0;
#X connect 5 0 25 0;
#X connect 6 0 9 0;
#X connect 6 1 7 0;
#X connect 7 0 14 0;
#X connect 8 0 7 0;
#X connect 9 0 8 0;
#X connect 10 0 13 0;
#X connect 11 0 1 1;
#X connect 12 0 13 1;
#X connect 13 0 4 0;
#X connect 14 0 11 0;
#X connect 15 0 16 0;
#X connect 16 0 1 0;
#X connect 17 0 19 0;
#X connect 17 0 22 0;
#X connect 18 0 17 0;
#X connect 20 0 17 0;
#X connect 21 0 23 0;
#X connect 22 0 21 0;
#X connect 22 1 23 1;
#X connect 23 0 24 0;
#X connect 23 0 16 1;
#X connect 25 0 6 0;
#X restore 508 72 pd compress_limit;
#X obj 508 102 *~ 1;
#X obj 508 40 *~ 1;
#X floatatom 996 64 5 0 0 0 - - -;
#X obj 564 40 env~;
#X obj 999 165 select 1;
#X obj 991 138 > 50;
#X msg 995 541 90;
#N canvas 32 22 952 695 verb 0;
#X obj 23 14 inlet~;
#X obj 25 657 outlet~;
#X msg 206 441 amp \$1;
#X msg 278 442 hall \$1;
#X msg 203 631 freq \$1;
#X msg 315 632 damp \$1;
#X obj 207 316 vsl 15 100 0 100 0 0 empty empty amplitude 0 -9 0 10
-262144 -1 -1 8910 1;
#X floatatom 207 422 5 0 0 0 - - -;
#X obj 291 236 vsl 15 100 0 100 0 0 empty empty hall_(room_size) 0
-9 0 10 -262144 -1 -1 0 1;
#X floatatom 278 423 5 0 0 0 - - -;
#X obj 204 505 vsl 15 100 0 5000 0 0 empty empty filter_freq 0 -9 0
10 -262144 -1 -1 0 1;
#X floatatom 204 611 5 0 0 0 - - -;
#X obj 315 506 vsl 15 100 0 100 0 0 empty empty damping 0 -9 0 10 -262144
-1 -1 0 1;
#X floatatom 315 612 5 0 0 0 - - -;
#X obj 135 660 outlet~;
#X obj 209 16 inlet;
#X obj 638 440 line;
#X obj 29 582 grg.e_reverb rev1;
#X connect 0 0 17 0;
#X connect 2 0 17 1;
#X connect 3 0 17 1;
#X connect 4 0 17 1;
#X connect 5 0 17 1;
#X connect 6 0 7 0;
#X connect 7 0 2 0;
#X connect 8 0 9 0;
#X connect 9 0 3 0;
#X connect 10 0 11 0;
#X connect 11 0 4 0;
#X connect 12 0 13 0;
#X connect 13 0 5 0;
#X connect 15 0 6 0;
#X connect 17 0 1 0;
#X connect 17 1 14 0;
#X restore 563 592 pd verb;
#X text 755 6 input = verb force on;
#X obj 556 446 tgl 15 1 empty empty empty 17 7 0 10 -262144 -1 -1 1
1;
#X obj 532 470 *~ 1;
#X floatatom 660 552 5 0 0 0 - - -;
#X obj 508 7 soundinput;
#N canvas 11 112 661 353 INIT 0;
#X obj 96 74 declare -path .;
#X text 58 29 Here are some useful settings to include in most patches:
;
#X text 230 72 This will let RjDj find additional ressources like soundfiles
in your scene directory.;
#X msg 101 213 \; pd dsp 1;
#X obj 101 186 loadbang;
#X text 186 188 not necessary \, but doesn't hurt: This switches on
audio computation on startup.;
#X text 252 115 This will let RjDj find additional ressources like
soundfiles in your scene directory.;
#X obj 100 120 declare -path ./lib;
#X connect 4 0 3 0;
#X restore 14 10 pd INIT;
#X obj 512 653 soundoutput;
#N canvas 101 22 705 592 xytouch 0;
#X obj 16 16 r #touch;
#X obj 15 72 route xy;
#X obj 44 111 route 1 2;
#X obj 32 154 unpack 1 2;
#X obj 118 154 unpack 1 2;
#X obj 52 233 outlet;
#X obj 116 238 outlet;
#X obj 201 241 outlet;
#X obj 277 240 outlet;
#X obj 163 81 print;
#X connect 0 0 1 0;
#X connect 0 0 9 0;
#X connect 1 0 2 0;
#X connect 2 0 3 0;
#X connect 2 1 4 0;
#X connect 3 0 5 0;
#X connect 3 1 6 0;
#X connect 4 0 7 0;
#X connect 4 1 8 0;
#X restore 217 14 pd xytouch;
#X obj 418 135 loadbang;
#X floatatom 163 61 5 0 0 0 - - -;
#X floatatom 50 349 5 0 0 0 - - -;
#X floatatom 18 454 5 0 0 0 - - -;
#X obj 0 399 mtof;
#X obj 12 44 accelerate;
#N canvas 38 29 799 592 randomverb 0;
#X obj -95 10 metro 500;
#X obj -65 105 mtof;
#X obj -165 132 * 10;
#X floatatom -107 141 0 0 120 0 - - -;
#X obj -77 -43 tgl 15 1 empty empty empty 17 7 0 10 -262144 -1 -1 1
1;
#X floatatom -39 136 0 0 120 0 - - -;
#X obj -94 43 random 20;
#X obj -190 42 random 5;
#X obj -145 103 + 5;
#X obj -81 -117 loadbang;
#X msg -98 -88 1;
#X obj -85 71 + 90;
#X obj -118 224 outlet;
#X connect 0 0 6 0;
#X connect 0 0 7 0;
#X connect 1 0 0 1;
#X connect 1 0 5 0;
#X connect 2 0 3 0;
#X connect 2 0 12 0;
#X connect 4 0 0 0;
#X connect 6 0 11 0;
#X connect 7 0 8 0;
#X connect 8 0 2 0;
#X connect 9 0 10 0;
#X connect 10 0 4 0;
#X connect 11 0 1 0;
#X restore 694 457 pd randomverb;
#N canvas 0 22 754 687 spikes 0;
#X floatatom 178 124 0 0 0 0 - - -;
#N canvas 101 22 705 592 klicks 0;
#X obj 16 16 r #touch;
#X obj 15 81 route down;
#X obj 20 362 s touch;
#X msg 20 340 tap \$1;
#X obj 408 105 route xy;
#X obj 28 140 route 1 2;
#X obj 437 144 route 1 2;
#X obj 436 185 unpack 1 2;
#X obj 511 187 unpack 1 2;
#X obj 133 139 route 1 2;
#X obj 120 84 route up;
#X obj 53 213 delay 200;
#X obj 53 180 t b 1;
#X obj 133 315 spigot;
#X obj 124 392 print KLICK1;
#X obj 210 213 delay 200;
#X obj 210 180 t b 1;
#X obj 213 315 spigot;
#X msg 210 241 0;
#X msg 53 237 0;
#X obj 221 377 print KLICK2;
#X text 265 255 short klick detection;
#X obj 131 444 outlet;
#X obj 207 445 outlet;
#X obj 241 36 print Touch;
#X connect 0 0 1 0;
#X connect 0 0 4 0;
#X connect 0 0 10 0;
#X connect 0 0 24 0;
#X connect 1 0 3 0;
#X connect 1 0 5 0;
#X connect 3 0 2 0;
#X connect 4 0 6 0;
#X connect 5 0 12 0;
#X connect 5 1 16 0;
#X connect 6 0 7 0;
#X connect 6 1 8 0;
#X connect 9 0 13 0;
#X connect 9 1 17 0;
#X connect 10 0 9 0;
#X connect 11 0 19 0;
#X connect 12 0 11 0;
#X connect 12 1 13 1;
#X connect 13 0 14 0;
#X connect 13 0 22 0;
#X connect 15 0 18 0;
#X connect 16 0 15 0;
#X connect 16 1 17 1;
#X connect 17 0 20 0;
#X connect 17 0 23 0;
#X connect 18 0 17 1;
#X connect 19 0 13 1;
#X restore 24 3 pd klicks;
#X obj 27 412 line~;
#X obj 90 89 unpack;
#X floatatom 219 124 0 0 0 0 - - -;
#X obj 143 582 outlet~;
#X obj 144 489 *~;
#X obj 230 379 loadbang;
#X msg 230 413 0;
#X obj 162 457 line~;
#X obj 214 580 outlet~;
#X msg 336 154 1 20;
#X obj 24 37 t b a b;
#N canvas 262 121 450 300 limitto0-320 0;
#X obj 60 73 moses 0;
#X obj 125 160 moses 320;
#X obj 60 98 t b;
#X msg 60 126 0;
#X obj 151 190 t b;
#X msg 151 218 320;
#X obj 60 41 inlet;
#X obj 142 258 outlet;
#X connect 0 0 2 0;
#X connect 0 1 1 0;
#X connect 1 0 7 0;
#X connect 1 1 4 0;
#X connect 2 0 3 0;
#X connect 3 0 1 0;
#X connect 4 0 5 0;
#X connect 5 0 7 0;
#X connect 6 0 0 0;
#X restore 49 192 pd limitto0-320;
#N canvas 262 121 450 300 limitto0-320 0;
#X obj 60 73 moses 0;
#X obj 125 160 moses 320;
#X obj 60 98 t b;
#X msg 60 126 0;
#X obj 151 190 t b;
#X msg 151 218 320;
#X obj 60 41 inlet;
#X obj 142 258 outlet;
#X connect 0 0 2 0;
#X connect 0 1 1 0;
#X connect 1 0 7 0;
#X connect 1 1 4 0;
#X connect 2 0 3 0;
#X connect 3 0 1 0;
#X connect 4 0 5 0;
#X connect 5 0 7 0;
#X connect 6 0 0 0;
#X restore 112 163 pd limitto0-320;
#X obj 48 229 m_scale 0 320 2 4000 2.7;
#X obj 31 313 pack 1 2;
#X obj 127 339 delay;
#X obj 127 303 t b a;
#X msg 127 368 0 300;
#X obj 114 262 m_scale 0 320 200 4000 2.7;
#X obj 359 405 print spike;
#X obj 155 522 hip~ 5;
#X obj 26 455 vd~ longdel 2000;
#X obj 133 552 *~ 0.7;
#X obj 218 549 *~ 0.5;
#X connect 1 0 12 0;
#X connect 2 0 23 0;
#X connect 3 0 0 0;
#X connect 3 0 13 0;
#X connect 3 1 4 0;
#X connect 3 1 14 0;
#X connect 6 0 22 0;
#X connect 7 0 8 0;
#X connect 8 0 9 0;
#X connect 9 0 6 1;
#X connect 11 0 9 0;
#X connect 12 1 3 0;
#X connect 12 2 11 0;
#X connect 13 0 15 0;
#X connect 14 0 20 0;
#X connect 15 0 16 0;
#X connect 16 0 2 0;
#X connect 16 0 21 0;
#X connect 17 0 19 0;
#X connect 18 0 17 0;
#X connect 18 1 17 1;
#X connect 19 0 9 0;
#X connect 20 0 16 1;
#X connect 20 0 18 0;
#X connect 22 0 24 0;
#X connect 22 0 25 0;
#X connect 23 0 6 0;
#X connect 24 0 5 0;
#X connect 25 0 10 0;
#X restore 315 486 pd spikes;
#N canvas 262 121 450 300 limitto0-320 0;
#X obj 60 73 moses 0;
#X obj 125 160 moses 320;
#X obj 60 98 t b;
#X msg 60 126 0;
#X obj 151 190 t b;
#X msg 151 218 320;
#X obj 60 41 inlet;
#X obj 142 258 outlet;
#X connect 0 0 2 0;
#X connect 0 1 1 0;
#X connect 1 0 7 0;
#X connect 1 1 4 0;
#X connect 2 0 3 0;
#X connect 3 0 1 0;
#X connect 4 0 5 0;
#X connect 5 0 7 0;
#X connect 6 0 0 0;
#X restore 31 97 pd limitto0-320;
#X floatatom 82 447 5 0 0 0 - - -;
#X obj 71 383 mtof;
#X floatatom 49 276 5 0 0 0 - - -;
#X obj 96 422 print;
#N canvas 64 22 897 686 modulation+turnarround 0;
#X obj 167 -174 r accelerate;
#X obj 165 -134 route x;
#X obj 559 -146 route y;
#X obj 418 -146 route z;
#X obj 174 303 line~;
#X msg 161 278 \$1 20;
#X obj 67 431 *~;
#X floatatom 249 -104 5 0 0 0 - - -;
#X obj 174 -68 moses 0;
#X floatatom 80 131 5 0 0 0 - - -;
#X obj 55 467 outlet~;
#X obj 157 22 t b;
#X msg 151 50 0;
#X obj 224 18 t b;
#X msg 218 46 0;
#X floatatom 317 321 5 0 0 0 - - -;
#X msg 245 301 \$1 20;
#X obj 27 400 cos~ 16;
#X obj 73 -31 moses -0.2;
#X obj 271 -37 moses 0.2;
#X obj 246 212 * 1;
#X obj 159 202 * 1;
#X obj 15 272 t b;
#X floatatom 96 349 5 0 0 0 - - -;
#X obj 35 371 line~;
#X msg 36 343 \$1 200;
#X obj 285 243 m_scale 0 1 0 5 3;
#X floatatom 356 -125 5 0 0 0 - - -;
#X obj 417 -82 > 0;
#X obj 422 -42 sel 1;
#X obj 425 309 print ZZZZZZZZZZZZ;
#X floatatom 612 -97 5 0 0 0 - - -;
#X obj 563 -46 moses -0.6;
#X obj 556 -15 t b;
#X obj 631 -11 t b;
#X floatatom 612 69 5 0 0 0 - - -;
#X obj 419 23 spigot 1;
#X msg 604 25 1;
#X msg 554 21 0;
#X obj 503 182 random 100;
#X floatatom 691 352 5 0 0 0 - - -;
#X floatatom 486 277 5 0 0 0 - - -;
#X obj 539 211 t f f;
#X obj 587 363 pack;
#X obj 591 401 outlet;
#X obj 643 123 print YYYYYYY;
#X obj 370 133 m_speedlimit 300;
#X obj 432 56 random 400;
#X msg 4 333 0.05;
#X obj -37 300 m_scale -0.5 -1 0.05 5 3;
#X obj 26 240 moses -0.6;
#X obj 449 93 + 200;
#X obj 620 296 m_scale 0 99 200 800;
#X obj 680 -104 s y;
#X obj 132 247 m_scale 0 -1 0 10 3;
#X floatatom 295 352 5 0 0 0 - - -;
#X floatatom 241 340 5 0 0 0 - - -;
#X obj 666 156 random 4;
#X obj 721 192 + 2;
#X obj 729 226 s del2;
#X obj 540 249 m_scale 0 99 100 2000 3;
#X connect 0 0 1 0;
#X connect 0 0 2 0;
#X connect 0 0 3 0;
#X connect 1 0 7 0;
#X connect 1 0 8 0;
#X connect 2 0 31 0;
#X connect 2 0 32 0;
#X connect 2 0 53 0;
#X connect 3 0 27 0;
#X connect 3 0 28 0;
#X connect 4 0 6 1;
#X connect 5 0 4 0;
#X connect 6 0 10 0;
#X connect 8 0 13 0;
#X connect 8 0 18 0;
#X connect 8 1 11 0;
#X connect 8 1 19 0;
#X connect 11 0 12 0;
#X connect 12 0 21 0;
#X connect 13 0 14 0;
#X connect 14 0 20 0;
#X connect 17 0 6 0;
#X connect 18 0 9 0;
#X connect 18 0 21 0;
#X connect 18 1 11 0;
#X connect 19 0 13 0;
#X connect 19 1 20 0;
#X connect 20 0 26 0;
#X connect 21 0 50 0;
#X connect 21 0 54 0;
#X connect 22 0 48 0;
#X connect 24 0 17 0;
#X connect 25 0 24 0;
#X connect 26 0 15 0;
#X connect 26 0 16 0;
#X connect 28 0 29 0;
#X connect 29 0 36 0;
#X connect 32 0 33 0;
#X connect 32 1 34 0;
#X connect 33 0 38 0;
#X connect 34 0 37 0;
#X connect 36 0 46 0;
#X connect 36 0 47 0;
#X connect 37 0 36 1;
#X connect 37 0 35 0;
#X connect 38 0 36 1;
#X connect 38 0 35 0;
#X connect 39 0 42 0;
#X connect 42 0 60 0;
#X connect 42 1 52 0;
#X connect 43 0 44 0;
#X connect 46 0 39 0;
#X connect 46 0 57 0;
#X connect 47 0 51 0;
#X connect 48 0 25 0;
#X connect 49 0 23 0;
#X connect 49 0 25 0;
#X connect 50 0 49 0;
#X connect 50 1 22 0;
#X connect 51 0 46 1;
#X connect 52 0 40 0;
#X connect 52 0 43 1;
#X connect 54 0 5 0;
#X connect 54 0 55 0;
#X connect 57 0 58 0;
#X connect 58 0 59 0;
#X connect 60 0 41 0;
#X connect 60 0 43 0;
#X restore 211 109 pd modulation+turnarround;
#X obj 228 537 snapshot~;
#X obj 11 241 m_scale 0 320 60 123;
#X obj 42 522 r y;
#X floatatom 52 566 5 0 0.99 0 - - -;
#N canvas 0 22 594 601 delTimeYaxis 0;
#X obj 148 72 moses 0;
#X floatatom 82 413 5 0 0 0 - - -;
#X obj 131 162 t b;
#X msg 125 190 0;
#X obj 198 158 t b;
#X msg 192 186 0;
#X obj 47 109 moses -0.2;
#X obj 245 103 moses 0.2;
#X obj 336 13 r y;
#X floatatom 346 57 5 0 0.99 0 - - -;
#X floatatom 237 402 5 0 0 0 - - -;
#X obj 125 356 * 10;
#X obj 220 352 * 10;
#X obj 173 514 outlet;
#X obj 209 473 sel 0;
#X connect 0 0 4 0;
#X connect 0 0 6 0;
#X connect 0 1 2 0;
#X connect 0 1 7 0;
#X connect 2 0 3 0;
#X connect 3 0 11 0;
#X connect 4 0 5 0;
#X connect 5 0 12 0;
#X connect 6 0 11 0;
#X connect 6 1 2 0;
#X connect 7 0 4 0;
#X connect 7 1 12 0;
#X connect 8 0 9 0;
#X connect 8 0 0 0;
#X connect 11 0 1 0;
#X connect 11 0 14 0;
#X connect 12 0 10 0;
#X connect 12 0 14 0;
#X connect 14 1 13 0;
#X restore 98 479 pd delTimeYaxis;
#X floatatom 114 525 5 0 0 0 - - -;
#X obj 154 505 t f b;
#X floatatom 233 623 5 0 0 0 - - -;
#X obj 171 611 +;
#X msg 297 170 \$1 50;
#X floatatom 90 652 5 0 0 0 - - -;
#X obj 168 566 * 1;
#X floatatom 284 601 5 0 0 0 - - -;
#X obj -11 302 m_scale 0 320 40 20;
#X obj 427 305 delwrite~ longdel 2000;
#X obj 572 377 hip~ 50;
#X obj 563 347 lop~ 3000;
#X obj 694 244 clip~ -0.99 0.99;
#X obj 694 284 delwrite~ shortdel 2000;
#X obj 464 382 line~;
#X obj 399 383 *~;
#X msg 459 347 \$1 100;
#X obj 748 358 line~;
#X obj 656 339 *~;
#X msg 742 333 \$1 10;
#X obj 395 431 vd~ longdel 1000;
#X obj 617 424 vd~ shortdel 1000;
#X obj 370 200 t list;
#X obj 532 147 unpack 1 1;
#X obj 598 282 pack 1 1;
#X obj 675 393 line~;
#X obj 560 207 f;
#X obj 621 178 t b f;
#X floatatom 696 180 5 0 0 0 - - -;
#N canvas 262 121 450 300 limitto20-2000 0;
#X obj 60 98 t b;
#X obj 151 190 t b;
#X obj 60 41 inlet;
#X obj 142 258 outlet;
#X obj 125 160 moses 2000;
#X msg 151 218 2000;
#X obj 60 73 moses 100;
#X msg 60 126 100;
#X connect 0 0 7 0;
#X connect 1 0 5 0;
#X connect 2 0 6 0;
#X connect 4 0 3 0;
#X connect 4 1 1 0;
#X connect 5 0 3 0;
#X connect 6 0 0 0;
#X connect 6 1 4 0;
#X connect 7 0 4 0;
#X restore 166 644 pd limitto20-2000;
#X msg 417 164 1000;
#X obj 614 470 *~ 0.5;
#X obj 659 136 r del2;
#X obj 102 203 m_scale 0 320 1.4 0.4;
#X obj 819 340 clip~ -0.99 0.99;
#X obj 832 444 line~;
#X obj 819 374 delwrite~ shortdel2 2000;
#X obj 802 490 vd~ shortdel2 1000;
#X obj 622 312 pack 1 1;
#X obj 647 246 / 5;
#X obj 771 404 *~;
#X floatatom 870 207 5 0 0 0 - - -;
#X floatatom 556 288 5 0 0 0 - - -;
#X obj 554 249 / 3;
#X obj 586 501 hip~ 5;
#X obj 747 563 hip~ 5;
#X obj 744 624 *~ 0.3;
#X obj 599 223 * 8;
#X obj 650 213 * 12;
#X obj 250 565 m_scale 100 2000 1 5;
#X obj 705 96 m_scale 0 320 1.05 0.7;
#X obj 580 543 *~ 0.5;
#X obj 523 566 *~ 0.5;
#X connect 0 0 93 0;
#X connect 1 0 36 0;
#X connect 1 0 61 0;
#X connect 2 0 56 0;
#X connect 3 0 2 0;
#X connect 4 0 50 0;
#X connect 5 0 6 0;
#X connect 6 0 0 0;
#X connect 6 0 50 0;
#X connect 6 0 54 0;
#X connect 7 0 5 0;
#X connect 8 0 11 0;
#X connect 9 0 8 0;
#X connect 10 0 12 0;
#X connect 11 0 10 0;
#X connect 12 0 17 0;
#X connect 13 0 20 0;
#X connect 13 1 20 1;
#X connect 15 0 16 1;
#X connect 16 0 0 0;
#X connect 17 0 13 1;
#X connect 18 0 7 0;
#X connect 18 0 9 0;
#X connect 21 0 23 0;
#X connect 21 0 30 0;
#X connect 21 1 74 0;
#X connect 21 1 91 0;
#X connect 22 0 71 0;
#X connect 26 0 25 0;
#X connect 26 0 2 1;
#X connect 26 0 51 1;
#X connect 28 0 17 0;
#X connect 29 0 16 0;
#X connect 29 1 50 0;
#X connect 30 0 37 0;
#X connect 30 0 49 0;
#X connect 32 0 31 0;
#X connect 32 0 34 0;
#X connect 32 0 3 1;
#X connect 32 0 52 1;
#X connect 35 0 61 0;
#X connect 35 1 63 0;
#X connect 36 0 43 0;
#X connect 36 0 44 1;
#X connect 36 0 90 0;
#X connect 37 0 32 0;
#X connect 37 0 33 0;
#X connect 38 0 39 0;
#X connect 40 0 41 0;
#X connect 40 0 42 0;
#X connect 42 0 47 0;
#X connect 42 1 36 0;
#X connect 44 0 70 0;
#X connect 45 0 63 0;
#X connect 47 0 44 0;
#X connect 49 0 24 0;
#X connect 49 0 26 0;
#X connect 51 0 59 0;
#X connect 52 0 51 0;
#X connect 53 0 54 0;
#X connect 55 0 56 1;
#X connect 56 0 4 0;
#X connect 57 0 55 0;
#X connect 58 0 59 1;
#X connect 58 0 81 1;
#X connect 59 0 75 0;
#X connect 60 0 58 0;
#X connect 61 0 3 0;
#X connect 61 0 16 0;
#X connect 62 0 52 0;
#X connect 62 0 0 0;
#X connect 62 0 72 0;
#X connect 62 0 85 0;
#X connect 63 0 1 0;
#X connect 63 0 64 0;
#X connect 64 0 67 1;
#X connect 64 0 80 0;
#X connect 64 0 84 0;
#X connect 64 1 88 0;
#X connect 64 1 89 0;
#X connect 65 0 66 0;
#X connect 66 0 62 0;
#X connect 67 0 84 0;
#X connect 68 0 67 0;
#X connect 68 1 84 1;
#X connect 70 0 46 0;
#X connect 70 0 45 0;
#X connect 71 0 1 0;
#X connect 72 0 4 0;
#X connect 73 0 69 0;
#X connect 74 0 57 0;
#X connect 75 0 77 0;
#X connect 76 0 78 0;
#X connect 78 0 81 0;
#X connect 78 0 86 0;
#X connect 78 0 72 0;
#X connect 79 0 76 0;
#X connect 80 0 79 0;
#X connect 80 0 82 0;
#X connect 81 0 53 0;
#X connect 84 0 65 0;
#X connect 84 0 83 0;
#X connect 85 0 92 0;
#X connect 86 0 87 0;
#X connect 87 0 20 1;
#X connect 88 0 65 1;
#X connect 89 0 79 1;
#X connect 90 0 48 0;
#X connect 90 0 47 1;
#X connect 91 0 60 0;
#X connect 92 0 20 0;
#X connect 93 0 13 0;
#X connect 93 0 20 1;
#X connect 93 0 20 0;
