#N canvas 35 101 1360 799 10;
#X obj 230 9 loadbang;
#X msg 221 111 \; pd dsp 1;
#X obj 222 89 del 200;
#X obj 521 729 soundoutput;
#X obj 67 269 % 16;
#X obj 68 223 metro 150;
#X obj 67 246 countevent 16384;
#X obj 395 350 getshake;
#X obj 149 407 main0;
#X obj 304 556 sne;
#X obj 346 557 hhe;
#X obj 519 701 mix;
#X obj 207 393 main1;
#X obj 264 310 sel 0 15;
#X msg 456 394 \$1 20;
#X obj 458 438 > 0;
#X obj 457 415 line;
#X obj 458 459 change;
#X obj 399 531 spigot;
#X obj 419 153 vsl 15 128 -2 2 0 0 empty empty empty 0 -9 0 10 -262144
-1 -1 9477 1;
#X obj 449 155 vsl 15 128 -2 2 0 0 empty empty empty 0 -9 0 10 -262144
-1 -1 9410 1;
#X obj 476 152 vsl 15 128 -2 2 0 0 empty empty empty 0 -9 0 10 -262144
-1 -1 3293 1;
#X obj 341 69 delta_accum;
#X floatatom 369 91 5 0 0 0 - - -;
#X obj 437 69 delta_accum;
#X floatatom 465 91 5 0 0 0 - - -;
#X obj 586 209 lchange_lpf;
#X obj 591 258 + 1;
#X obj 832 46 delta_accum;
#X obj 811 646 *~ 0;
#X obj 909 643 line;
#X obj 831 115 sel 0 1;
#X text 342 111 sne level;
#X text 434 111 bde level;
#X obj 547 71 delta_accum;
#X floatatom 575 93 5 0 0 0 - - -;
#X msg 510 48 30;
#X obj 258 555 bde;
#X obj 399 556 tome;
#X msg 945 620 0 1000;
#X obj 831 69 > 45;
#X text 592 109 bd stroke;
#X msg 620 50 10;
#X msg 414 48 30;
#X obj 590 235 / 1;
#X obj 572 500 scratchbox;
#X obj 712 502 orchhit;
#X obj 545 132 change;
#X msg 580 50 0.8;
#X obj 545 109 > 1.5;
#X floatatom 297 423 5 0 0 0 - - -;
#X msg 905 25 70;
#X obj 470 490 sel 0 1;
#X msg 903 599 1 500;
#X msg 847 597 0 100;
#X obj 489 537 bng 15 250 50 0 empty empty empty 17 7 0 10 -262144
-1 -1;
#X obj 830 92 change;
#X obj 128 270 % 64;
#X obj 265 380 random 5;
#X msg 571 464 4;
#X msg 826 571 \$1 100;
#X connect 0 0 2 0;
#X connect 0 0 5 0;
#X connect 0 0 43 0;
#X connect 0 0 36 0;
#X connect 0 0 51 0;
#X connect 0 0 48 0;
#X connect 0 0 42 0;
#X connect 2 0 1 0;
#X connect 4 0 8 0;
#X connect 4 0 12 0;
#X connect 5 0 6 0;
#X connect 6 0 4 0;
#X connect 6 0 57 0;
#X connect 7 0 10 1;
#X connect 7 0 19 0;
#X connect 7 1 9 1;
#X connect 7 1 20 0;
#X connect 7 2 14 0;
#X connect 7 2 21 0;
#X connect 8 0 37 0;
#X connect 8 1 9 0;
#X connect 8 2 10 0;
#X connect 9 0 11 1;
#X connect 10 0 11 2;
#X connect 11 0 3 0;
#X connect 11 1 3 1;
#X connect 12 0 18 0;
#X connect 12 1 38 1;
#X connect 13 0 58 0;
#X connect 14 0 16 0;
#X connect 15 0 17 0;
#X connect 16 0 15 0;
#X connect 17 0 18 1;
#X connect 17 0 52 0;
#X connect 18 0 38 0;
#X connect 19 0 22 0;
#X connect 19 0 26 0;
#X connect 19 0 28 0;
#X connect 21 0 24 0;
#X connect 21 0 34 0;
#X connect 21 0 37 1;
#X connect 22 0 23 0;
#X connect 22 0 8 3;
#X connect 24 0 25 0;
#X connect 24 0 8 1;
#X connect 26 0 44 0;
#X connect 27 0 45 1;
#X connect 28 0 40 0;
#X connect 29 0 11 4;
#X connect 30 0 29 1;
#X connect 31 0 39 0;
#X connect 31 1 53 0;
#X connect 34 0 35 0;
#X connect 34 0 8 2;
#X connect 34 0 49 0;
#X connect 36 0 24 2;
#X connect 37 0 11 0;
#X connect 38 0 11 3;
#X connect 39 0 30 0;
#X connect 40 0 56 0;
#X connect 40 0 60 0;
#X connect 42 0 34 2;
#X connect 43 0 22 2;
#X connect 44 0 27 0;
#X connect 45 0 29 0;
#X connect 46 0 29 0;
#X connect 47 0 46 0;
#X connect 48 0 34 1;
#X connect 49 0 47 0;
#X connect 51 0 28 2;
#X connect 52 0 60 0;
#X connect 52 0 55 0;
#X connect 52 1 54 0;
#X connect 53 0 30 0;
#X connect 54 0 30 0;
#X connect 56 0 31 0;
#X connect 57 0 13 0;
#X connect 58 0 45 0;
#X connect 58 0 50 0;
#X connect 59 0 45 0;
#X connect 60 0 30 0;
