#N canvas 0 22 958 615 10;
#X obj 169 91 delta;
#X obj 170 120 abs;
#X obj 136 197 line;
#X obj 170 141 +;
#X obj 152 168 - 0.1;
#X obj 137 227 clip 0 100;
#X obj 137 251 outlet;
#X obj 170 69 inlet;
#X obj 224 68 inlet;
#X obj 277 69 inlet;
#X connect 0 0 1 0;
#X connect 1 0 3 0;
#X connect 3 0 4 0;
#X connect 4 0 5 0;
#X connect 5 0 3 1;
#X connect 5 0 6 0;
#X connect 7 0 0 0;
#X connect 8 0 4 1;
#X connect 9 0 5 2;
