#N canvas 0 22 521 365 10;
#X obj 98 230 outlet~;
#X obj 186 198 line~;
#X obj 97 176 *~;
#X obj 60 149 *~;
#X obj 99 201 *~ 0.4;
#X obj 99 123 noise~;
#X obj 78 92 phasor~ 200;
#X obj 232 38 inlet;
#X obj 317 89 t b b;
#X msg 351 126 1;
#X obj 312 164 pack 0 f;
#X obj 391 92 * 70;
#X obj 405 143 + 15;
#X obj 336 42 inlet;
#X connect 1 0 2 1;
#X connect 2 0 4 0;
#X connect 3 0 2 0;
#X connect 4 0 0 0;
#X connect 5 0 3 1;
#X connect 6 0 3 0;
#X connect 7 0 8 0;
#X connect 8 0 10 0;
#X connect 8 1 9 0;
#X connect 9 0 1 0;
#X connect 10 0 1 0;
#X connect 11 0 12 0;
#X connect 12 0 10 1;
#X connect 13 0 11 0;
