#N canvas 618 360 797 477 10;
#X obj 238 411 outlet~;
#X obj 13 256 line~;
#X obj 237 311 *~;
#X obj 202 268 *~;
#X obj 218 243 noise~;
#X obj 125 101 inlet;
#X obj 73 134 t b b;
#X msg 139 158 1;
#X obj 27 179 pack 0 f;
#X obj 202 222 osc~ 200;
#X obj 21 283 *~;
#X obj 238 387 *~ 0.02;
#X msg 183 158 100;
#X obj 309 112 inlet;
#X obj 235 346 bp~ 10000;
#X obj 345 246 loadbang;
#X msg 300 315 1;
#X obj 309 132 + 0.5;
#X obj 309 197 moses 50;
#X obj 310 172 + 500;
#X floatatom 402 222 5 0 0 0 - - -;
#X obj 309 151 * 1000;
#X connect 1 0 10 0;
#X connect 1 0 10 1;
#X connect 2 0 14 0;
#X connect 3 0 2 0;
#X connect 4 0 3 1;
#X connect 5 0 6 0;
#X connect 6 0 8 0;
#X connect 6 1 7 0;
#X connect 6 1 12 0;
#X connect 7 0 1 0;
#X connect 8 0 1 0;
#X connect 9 0 3 0;
#X connect 10 0 2 1;
#X connect 11 0 0 0;
#X connect 12 0 8 1;
#X connect 13 0 17 0;
#X connect 14 0 11 0;
#X connect 15 0 16 0;
#X connect 16 0 14 2;
#X connect 17 0 21 0;
#X connect 18 1 14 1;
#X connect 18 1 20 0;
#X connect 19 0 18 0;
#X connect 21 0 19 0;
