#N canvas 0 22 697 430 10;
#X obj 150 232 inlet;
#X obj 339 129 sel 0 1 2 3 4 5 6 7 8 9 10 11 12 13 14 15;
#X obj 424 328 outlet;
#X obj 341 168 bng 15 250 50 0 empty empty empty 17 7 0 10 -262144
-1 -1;
#X obj 576 326 outlet;
#X floatatom 302 269 5 0 0 0 - - -;
#X obj 300 230 line;
#X msg 297 206 1 \, 0 2000;
#X connect 0 0 1 0;
#X connect 1 0 3 0;
#X connect 1 0 2 0;
#X connect 1 0 7 0;
#X connect 1 1 2 0;
#X connect 1 2 2 0;
#X connect 1 3 2 0;
#X connect 1 4 2 0;
#X connect 1 5 2 0;
#X connect 1 6 2 0;
#X connect 1 7 2 0;
#X connect 1 8 2 0;
#X connect 1 9 2 0;
#X connect 1 10 2 0;
#X connect 1 11 2 0;
#X connect 1 12 2 0;
#X connect 1 13 2 0;
#X connect 1 14 2 0;
#X connect 1 15 2 0;
#X connect 6 0 5 0;
#X connect 6 0 4 0;
#X connect 7 0 6 0;
