#N canvas 458 322 626 428 10;
#X obj 117 186 soundfiler;
#X obj 90 281 phasor~;
#X obj 115 232 /;
#X obj 60 16 inlet speed;
#X obj 152 15 inlet sample;
#X obj 90 377 outlet~;
#X obj 242 376 outlet~;
#X obj 242 357 tabread4~ \$0-sample2;
#X obj 269 281 table \$0-sample2;
#X obj 147 280 table \$0-sample1;
#X obj 90 357 tabread4~ \$0-sample1;
#X obj 164 97 symbol \$0-sample1;
#X obj 297 97 symbol \$0-sample2;
#X obj 118 141 pack s s s;
#X msg 118 163 read -resize \$1 \$2 \$3;
#X obj 152 58 t a b b;
#X obj 89 254 * 1;
#X floatatom 41 301 5 0 0 0 - - -;
#X obj 289 14 inlet pos;
#X obj 288 40 / 4;
#X msg 116 210 22050 \$1;
#X obj 90 324 *~ 22050;
#X obj 243 331 *~ 22050;
#X connect 0 0 20 0;
#X connect 0 0 21 1;
#X connect 0 0 22 1;
#X connect 1 0 21 0;
#X connect 1 0 22 0;
#X connect 2 0 16 1;
#X connect 3 0 16 0;
#X connect 4 0 15 0;
#X connect 7 0 6 0;
#X connect 10 0 5 0;
#X connect 11 0 13 1;
#X connect 12 0 13 2;
#X connect 13 0 14 0;
#X connect 14 0 0 0;
#X connect 15 0 13 0;
#X connect 15 1 11 0;
#X connect 15 2 12 0;
#X connect 16 0 1 0;
#X connect 16 0 17 0;
#X connect 18 0 19 0;
#X connect 19 0 1 1;
#X connect 20 0 2 0;
#X connect 21 0 10 0;
#X connect 22 0 7 0;
