#N canvas 403 52 857 614 10;
#X obj 150 205 inlet~;
#X obj 243 206 inlet~;
#X obj 333 204 inlet~;
#X obj 420 203 inlet~;
#X obj 151 277 pan;
#X obj 244 278 pan;
#X obj 334 276 pan;
#X obj 419 277 pan;
#X msg 379 250 0.5;
#X msg 196 251 0.7;
#X msg 300 252 0.2;
#X obj 379 29 loadbang;
#X msg 466 249 0.8;
#X obj 154 471 *~;
#X obj 221 471 *~;
#X text 369 445 master;
#X obj 220 521 outlet~;
#X obj 145 520 outlet~;
#X obj 150 241 *~ 0.6;
#X msg 314 447 3;
#X obj 512 206 inlet~;
#X obj 511 280 pan;
#X msg 558 252 0.8;
#X obj 243 242 *~ 0.25;
#X obj 333 240 *~ 0.6;
#X obj 420 239 *~ 0.6;
#X obj 512 242 *~ 0.1;
#X connect 0 0 18 0;
#X connect 1 0 23 0;
#X connect 2 0 24 0;
#X connect 3 0 25 0;
#X connect 4 0 13 0;
#X connect 4 1 14 0;
#X connect 5 0 13 0;
#X connect 5 1 14 0;
#X connect 6 0 13 0;
#X connect 6 1 14 0;
#X connect 7 0 13 0;
#X connect 7 1 14 0;
#X connect 8 0 6 2;
#X connect 9 0 4 2;
#X connect 10 0 5 2;
#X connect 11 0 9 0;
#X connect 11 0 10 0;
#X connect 11 0 8 0;
#X connect 11 0 12 0;
#X connect 11 0 19 0;
#X connect 11 0 22 0;
#X connect 12 0 7 2;
#X connect 13 0 17 0;
#X connect 14 0 16 0;
#X connect 18 0 4 0;
#X connect 18 0 4 1;
#X connect 19 0 14 1;
#X connect 19 0 13 1;
#X connect 20 0 26 0;
#X connect 21 0 13 0;
#X connect 21 1 14 0;
#X connect 22 0 21 2;
#X connect 23 0 5 0;
#X connect 23 0 5 1;
#X connect 24 0 6 0;
#X connect 24 0 6 1;
#X connect 25 0 7 0;
#X connect 25 0 7 1;
#X connect 26 0 21 0;
#X connect 26 0 21 1;
#X coords 0 -1 1 1 85 20 1 100 100;
