#N canvas 0 22 919 629 10;
#X obj 212 234 loop;
#X msg 202 155 brain_low.wav;
#X obj 139 136 0;
#X obj 97 136 1.763;
#X obj 127 241 line~;
#X obj 160 281 *~;
#X msg 122 215 1 \, 0 800;
#X obj 138 116 delay 800;
#X obj 137 47 inlet;
#X obj 160 306 outlet~;
#X obj 249 123 loadbang;
#X obj 129 83 b;
#X connect 0 0 5 0;
#X connect 1 0 0 1;
#X connect 2 0 0 0;
#X connect 2 0 0 2;
#X connect 3 0 0 0;
#X connect 4 0 5 1;
#X connect 5 0 9 0;
#X connect 6 0 4 0;
#X connect 7 0 2 0;
#X connect 8 0 11 0;
#X connect 10 0 1 0;
#X connect 11 0 3 0;
#X connect 11 0 6 0;
#X connect 11 0 7 0;
