#N canvas 474 261 710 521 10;
#X obj 248 147 /;
#X obj 162 175 * 1;
#X obj 162 208 phasor~;
#X obj 161 258 tabread4~ scratchbuf;
#X obj 162 232 *~ 22050;
#X obj 161 283 bp~ 800 10;
#X msg 247 115 22050 \$1;
#X obj 247 88 r recordsize;
#X floatatom 249 196 5 0 0 0 - - -;
#X obj 148 100 bang;
#X obj 74 48 inlet speed;
#X obj 161 313 outlet~;
#X text 348 87 this global has been set by loop recorder;
#X msg 162 135 1;
#X connect 0 0 8 0;
#X connect 0 0 1 1;
#X connect 1 0 2 0;
#X connect 2 0 4 0;
#X connect 3 0 5 0;
#X connect 4 0 3 0;
#X connect 5 0 11 0;
#X connect 6 0 0 0;
#X connect 7 0 6 0;
#X connect 7 0 4 1;
#X connect 7 0 9 0;
#X connect 9 0 13 0;
#X connect 10 0 9 0;
#X connect 10 0 1 0;
#X connect 13 0 1 0;
