#N canvas 0 22 450 300 10;
#X obj 164 43 inlet~;
#X obj 87 43 inlet~;
#X obj 237 42 inlet;
#X obj 261 80 * -1;
#X obj 240 124 + 1;
#X obj 202 154 *~;
#X obj 173 219 outlet~;
#X obj 149 154 *~;
#X obj 173 189 +~;
#X connect 0 0 5 0;
#X connect 1 0 7 0;
#X connect 2 0 3 0;
#X connect 2 0 7 1;
#X connect 3 0 4 0;
#X connect 4 0 5 1;
#X connect 5 0 8 1;
#X connect 7 0 8 0;
#X connect 8 0 6 0;
