#N canvas 162 340 372 294 10;
#X obj 118 245 outlet;
#X obj 118 44 inlet;
#N canvas 77 321 536 241 MODULE_INFO 0;
#X text 65 157 decorator: s1m1-s2m1;
#X text 64 177 tags:;
#X text 65 81 authors: Andy Farnell \, Reality Jockey;
#X text 66 57 name: Fabulous Bass;
#X text 67 102 description: Generates fabulous bass lines \, all linked
to rootnote. Choose from 127 different but equally fab lines \, and
smooth out the sound with a fab filter.;
#X restore -5 18 pd MODULE_INFO;
#X obj -5 245 outlet~;
#X obj 55 245 outlet~;
#X obj -5 44 inlet~;
#N canvas 563 220 529 484 \$0-PARAMETERS 0;
#X obj 110 275 outlet;
#X obj -48 391 s \$0-tick;
#X obj -48 45 inlet;
#X obj -48 77 route tick bpm rootnote;
#X obj 106 132 cnv 15 187 127 empty empty RJC_Parameters 10 12 1 14
-162280 -262144 0;
#X obj 106 106 cnv 15 187 20 empty empty Fabulous_Bass 40 11 1 14 -261234
-33289 0;
#X obj 4 322 m_bpm2ms;
#X obj 4 345 / 4;
#X obj 4 367 s \$0-bpm;
#X obj 57 295 s \$0-rootnote;
#X obj 110 153 rjc_parameter_floatrange \$0 Bassline 0.2;
#X obj 110 187 rjc_parameter_floatrange \$0 Filter 0.75;
#X obj 110 221 rjc_parameter_floatrange \$0 Octave 0.3;
#X connect 2 0 3 0;
#X connect 3 0 1 0;
#X connect 3 1 6 0;
#X connect 3 2 9 0;
#X connect 3 3 10 0;
#X connect 6 0 7 0;
#X connect 7 0 8 0;
#X connect 10 0 11 0;
#X connect 11 0 12 0;
#X connect 12 0 0 0;
#X coords 0 -1 1 1 200 165 2 100 100;
#X restore 118 70 pd \$0-PARAMETERS;
#N canvas 162 38 471 483 \$0-DSP 0;
#N canvas 0 22 1024 516 3OJSyn 0;
#X obj 254 286 s_blsaw;
#X obj 302 285 s_blsaw;
#X obj 360 286 s_blsaw;
#X obj 303 150 mtof;
#X obj 303 175 sig~;
#X obj 254 219 +~;
#X obj 359 222 -~;
#X obj 303 321 *~ 0.33;
#X obj 424 87 vline~;
#X obj 423 122 *~;
#X obj 422 150 *~;
#X obj 421 179 *~;
#X obj 304 376 *~;
#X msg 424 63 1 5 \, 0 900 50;
#X obj 303 43 t f b;
#X obj 303 246 *~ 0.5;
#X obj 421 317 +~ 30;
#X obj 303 350 vcf~ 1.6;
#X obj 421 209 *~;
#X obj 422 291 *~ 1000;
#X obj 422 264 *~;
#X obj 422 235 *~ 1.33;
#X obj 303 401 outlet~;
#X obj 303 14 inlet;
#X text 340 377 junoish \, ajf 2010;
#X connect 0 0 7 0;
#X connect 1 0 7 0;
#X connect 2 0 7 0;
#X connect 3 0 4 0;
#X connect 4 0 5 0;
#X connect 4 0 6 0;
#X connect 4 0 15 0;
#X connect 5 0 0 0;
#X connect 6 0 2 0;
#X connect 7 0 17 0;
#X connect 8 0 9 0;
#X connect 8 0 9 1;
#X connect 8 0 11 1;
#X connect 8 0 6 1;
#X connect 9 0 10 0;
#X connect 9 0 10 1;
#X connect 9 0 5 1;
#X connect 10 0 11 0;
#X connect 11 0 12 1;
#X connect 11 0 18 0;
#X connect 11 0 18 1;
#X connect 12 0 22 0;
#X connect 13 0 8 0;
#X connect 14 0 3 0;
#X connect 14 1 13 0;
#X connect 15 0 1 0;
#X connect 16 0 17 1;
#X connect 17 0 12 0;
#X connect 18 0 21 0;
#X connect 19 0 16 0;
#X connect 20 0 19 0;
#X connect 21 0 20 1;
#X connect 21 0 20 0;
#X connect 23 0 14 0;
#X restore 55 83 pd 3OJSyn;
#X obj 54 10 mod 4;
#N canvas 648 126 725 724 gbl 0;
#X obj 315 145 f;
#X obj 351 144 f;
#X obj 388 148 f;
#X obj 419 108 + 12;
#X obj 454 108 + 24;
#X obj 162 205 sel 0 1 2 3;
#X obj 183 270 f;
#X obj 216 269 f;
#X obj 250 266 f;
#X obj 282 265 f;
#X obj 262 204 route 0 1 2 3;
#X obj 263 80 unpack f f;
#X obj 262 180 pack f f;
#X obj 269 -23 unpack f f f f;
#X msg 266 40 0 \$1;
#X msg 293 11 1 \$1;
#X msg 337 36 2 \$1;
#X msg 364 7 3 \$1;
#X msg 493 108 127;
#X obj 425 148 f;
#X obj 352 65 t f f f b;
#X obj 331 107 sel 0 1 2 3;
#X obj 243 296 moses 127;
#X obj 258 -167 t f f;
#X obj 294 -142 mod 4;
#X obj 246 -142 div 4;
#X obj 258 -192 div 15;
#X obj 358 -195 mod 15;
#X obj 302 -220 t f f;
#X obj 358 -168 t f f;
#X obj 388 -140 mod 4;
#X obj 342 -139 div 4;
#X obj 301 -243 int;
#X obj 302 -291 / 127;
#X obj 301 -268 * 239;
#X obj 269 -110 pack f f f f;
#X obj 269 -43 list;
#X obj 347 -46 t b f;
#X obj 269 -83 t b l;
#X obj 304 -315 inlet select bassline;
#X obj 240 331 outlet bassline;
#X obj 119 164 inlet step 0 to 3;
#X text 320 308 ajf2005;
#X text 371 -245 Big Gay Al's Fabulous bassline generator;
#X obj 362 -111 inlet rootnote;
#X obj 469 -219 r \$0-Octave;
#X obj 469 -177 int;
#X obj 469 -156 * 12;
#X obj 469 -198 m_scale 0 1 -4 4;
#X obj 362 -68 +;
#X obj 469 -135 t b f;
#X obj 362 -90 f;
#X connect 0 0 12 1;
#X connect 1 0 12 1;
#X connect 2 0 12 1;
#X connect 3 0 1 1;
#X connect 4 0 2 1;
#X connect 5 0 6 0;
#X connect 5 1 7 0;
#X connect 5 2 8 0;
#X connect 5 3 9 0;
#X connect 6 0 22 0;
#X connect 7 0 22 0;
#X connect 8 0 22 0;
#X connect 9 0 22 0;
#X connect 10 0 6 1;
#X connect 10 1 7 1;
#X connect 10 2 8 1;
#X connect 10 3 9 1;
#X connect 11 0 12 0;
#X connect 11 1 21 0;
#X connect 12 0 10 0;
#X connect 13 0 14 0;
#X connect 13 1 15 0;
#X connect 13 2 16 0;
#X connect 13 3 17 0;
#X connect 14 0 11 0;
#X connect 15 0 11 0;
#X connect 16 0 11 0;
#X connect 17 0 11 0;
#X connect 18 0 19 1;
#X connect 19 0 12 1;
#X connect 20 0 0 1;
#X connect 20 1 3 0;
#X connect 20 2 4 0;
#X connect 20 3 18 0;
#X connect 21 0 0 0;
#X connect 21 1 1 0;
#X connect 21 2 2 0;
#X connect 21 3 19 0;
#X connect 22 0 40 0;
#X connect 23 0 25 0;
#X connect 23 1 24 0;
#X connect 24 0 35 1;
#X connect 25 0 35 0;
#X connect 26 0 23 0;
#X connect 27 0 29 0;
#X connect 28 0 26 0;
#X connect 28 1 27 0;
#X connect 29 0 31 0;
#X connect 29 1 30 0;
#X connect 30 0 35 3;
#X connect 31 0 35 2;
#X connect 32 0 28 0;
#X connect 33 0 34 0;
#X connect 34 0 32 0;
#X connect 35 0 38 0;
#X connect 36 0 13 0;
#X connect 37 0 36 0;
#X connect 37 1 20 0;
#X connect 38 0 36 0;
#X connect 38 1 36 1;
#X connect 39 0 33 0;
#X connect 41 0 5 0;
#X connect 44 0 51 0;
#X connect 45 0 48 0;
#X connect 46 0 47 0;
#X connect 47 0 50 0;
#X connect 48 0 46 0;
#X connect 49 0 37 0;
#X connect 50 0 51 0;
#X connect 50 1 49 1;
#X connect 51 0 49 0;
#X restore 54 45 pd gbl gen;
#X obj 55 311 outlet~;
#X obj 54 -88 r \$0-tick;
#X obj 133 -27 m_scale 0 1 0 127;
#X obj 133 -49 r \$0-Bassline;
#X obj 300 -107 r \$0-rootnote;
#X obj 54 -46 int;
#X obj 54 -25 change;
#X obj 54 -67 / 2;
#X obj 55 215 e_lop2;
#X obj 135 126 tgl 15 0 empty empty empty 17 7 0 10 -262144 -1 -1 1
1;
#X obj 135 146 metro 50;
#X obj 135 167 snapshot~;
#X obj 135 188 m_scale -1 1 2000 5000;
#X obj 69 142 osc~ 0.7;
#X obj 135 105 loadbang;
#X obj 140 214 r \$0-Filter;
#X msg 140 276 2.4;
#X obj 140 235 m_scale 0 1 3 5000 dB;
#X obj 140 258 loadbang;
#X obj 55 286 e_lop2;
#X connect 0 0 11 0;
#X connect 1 0 2 0;
#X connect 2 0 0 0;
#X connect 4 0 10 0;
#X connect 5 0 2 1;
#X connect 6 0 5 0;
#X connect 7 0 2 2;
#X connect 8 0 9 0;
#X connect 9 0 1 0;
#X connect 10 0 8 0;
#X connect 11 0 22 0;
#X connect 12 0 13 0;
#X connect 13 0 14 0;
#X connect 14 0 15 0;
#X connect 15 0 11 1;
#X connect 16 0 14 0;
#X connect 17 0 12 0;
#X connect 18 0 20 0;
#X connect 19 0 22 2;
#X connect 20 0 22 1;
#X connect 21 0 19 0;
#X connect 22 0 3 0;
#X restore -5 179 pd \$0-DSP;
#N canvas 221 88 370 279 \$0-INPUT 0;
#X obj 66 47 inlet~;
#X obj 66 203 outlet~;
#X connect 0 0 1 0;
#X restore -5 110 pd \$0-INPUT;
#X connect 1 0 6 0;
#X connect 5 0 8 0;
#X connect 6 0 0 0;
#X connect 7 0 3 0;
#X connect 7 0 4 0;
