#N canvas 336 280 450 300 10;
#X text 269 185 0=left \, 1=right;
#X text 265 167 Arg. 1: Panning;
#X text 181 86 * ~M_PI/2;
#X obj 117 85 * 1.5708;
#X obj 39 172 *~ 0.7;
#X obj 120 172 *~ 0.7;
#X text 262 201 (not used currently);
#X obj 117 60 inlet;
#X obj 38 62 inlet~;
#X obj 39 203 outlet~;
#X obj 120 203 outlet~;
#X obj 76 150 cos;
#X obj 157 151 sin;
#X obj 282 46 loadbang;
#X obj 281 71 f \$1;
#X obj 279 104 select 0;
#X msg 279 128 0.5;
#X connect 3 0 11 0;
#X connect 3 0 12 0;
#X connect 4 0 9 0;
#X connect 5 0 10 0;
#X connect 7 0 3 0;
#X connect 8 0 4 0;
#X connect 8 0 5 0;
#X connect 11 0 4 1;
#X connect 12 0 5 1;
#X connect 13 0 14 0;
#X connect 14 0 15 0;
#X connect 15 0 16 0;
#X connect 15 1 3 0;
#X connect 16 0 3 0;
