#N canvas 409 278 742 627 10;
#X obj 230 552 outlet;
#X obj 283 553 outlet;
#X obj 230 510 t a a;
#X obj 283 531 * -1;
#X obj 79 44 inlet;
#X obj 401 53 inlet;
#X obj 230 155 unpack 0 0;
#X obj 376 157 unpack 0 0;
#X obj 79 149 s \$0-K;
#X obj 107 126 s \$0-D;
#X obj 230 347 * 0;
#X obj 248 323 r \$0-K;
#X obj 425 347 * 0;
#X obj 443 323 r \$0-D;
#X obj 133 102 s \$0-l;
#X obj 230 218 -;
#X obj 230 295 - 0;
#X obj 248 271 r \$0-l;
#X obj 230 415 +;
#X obj 425 224 -;
#X obj 34 43 r L1;
#X obj 79 73 route K D l bang reset;
#X text 473 223 v2 - v1;
#X text 270 219 x2 - x1;
#X obj 376 135 list;
#X obj 230 131 list;
#X obj 230 103 t b b;
#X obj 304 99 b;
#X obj 230 447 * -1;
#X connect 2 0 0 0;
#X connect 2 1 3 0;
#X connect 3 0 1 0;
#X connect 4 0 21 0;
#X connect 5 0 24 1;
#X connect 6 0 15 0;
#X connect 6 1 19 0;
#X connect 7 0 15 1;
#X connect 7 1 19 1;
#X connect 10 0 18 0;
#X connect 11 0 10 1;
#X connect 12 0 18 1;
#X connect 13 0 12 1;
#X connect 15 0 16 0;
#X connect 16 0 10 0;
#X connect 17 0 16 1;
#X connect 18 0 28 0;
#X connect 19 0 12 0;
#X connect 20 0 21 0;
#X connect 21 0 8 0;
#X connect 21 1 9 0;
#X connect 21 2 14 0;
#X connect 21 3 26 0;
#X connect 21 4 27 0;
#X connect 21 5 25 1;
#X connect 24 0 7 0;
#X connect 25 0 6 0;
#X connect 26 0 25 0;
#X connect 26 1 24 0;
#X connect 27 0 25 1;
#X connect 27 0 24 1;
#X connect 28 0 2 0;
