#N canvas 451 298 722 529 10;
#X obj 114 301 hsl 128 15 -100 100 0 0 empty empty empty -2 -8 0 10
-262144 -1 -1 5320 1;
#X floatatom 111 273 5 0 0 0 - - -;
#X msg 57 184 reset;
#X msg 162 173 1;
#X msg 128 173 -1;
#X floatatom 140 193 5 0 0 0 - - -;
#X obj 68 334 t a a;
#X obj 68 361 -;
#X floatatom 68 385 5 0 0 0 v - -;
#X msg 111 253 \$1;
#X obj 402 307 hsl 128 15 -100 100 0 0 empty empty empty -2 -8 0 10
-262144 -1 -1 5103 1;
#X floatatom 399 274 5 0 0 0 - - -;
#X msg 399 254 \$1;
#X obj 331 173 s L1;
#X obj 287 103 tgl 15 0 empty empty empty 17 7 0 10 -262144 -1 -1 1
1;
#X msg 211 113 reset;
#X obj 287 150 t a a;
#X msg 387 133 K \$1;
#X msg 440 133 D \$1;
#X floatatom 387 110 5 0 0 0 - - -;
#X floatatom 440 111 5 0 0 0 - - -;
#X obj 287 173 s M1;
#X obj 276 228 l1;
#X obj 287 123 metro 50;
#X obj 111 231 m1;
#X msg 440 251 \$2;
#X floatatom 440 276 5 0 0 0 - - -;
#X floatatom 489 111 5 0 0 0 - - -;
#X msg 489 133 l \$1;
#X obj 399 232 m1;
#X floatatom 100 125 5 0 0 0 - - -;
#X msg 100 146 x \$1;
#X obj 97 95 hsl 128 15 -100 100 0 0 empty empty empty -2 -8 0 10 -262144
-1 -1 4400 1;
#N canvas 296 117 613 799 mms 1;
#X obj 97 52 mm1;
#X msg 97 29 x \$1;
#X floatatom 97 13 5 0 0 0 - - -;
#X msg 272 699 x \$1;
#X floatatom 272 683 5 0 0 0 - - -;
#X floatatom 280 320 5 0 0 0 - - -;
#X obj 279 52 t a a;
#X obj 277 74 -;
#X floatatom 283 30 5 0 0 0 - - -;
#X floatatom 289 105 5 0 0 0 - - -;
#X obj 277 270 t a a;
#X obj 275 292 -;
#X floatatom 281 248 5 0 0 0 - - -;
#X obj 97 98 mm1;
#X obj 98 146 mm1;
#X obj 96 197 mm1;
#X obj 96 248 mm1;
#X obj 95 300 mm1;
#X obj 95 346 mm1;
#X obj 96 394 mm1;
#X obj 94 445 mm1;
#X obj 94 496 mm1;
#X obj 94 543 mm1;
#X obj 94 589 mm1;
#X obj 95 637 mm1;
#X obj 93 688 mm1;
#X obj 93 739 mm1;
#X connect 0 1 13 0;
#X connect 1 0 0 0;
#X connect 2 0 1 0;
#X connect 3 0 26 0;
#X connect 4 0 3 0;
#X connect 5 0 18 0;
#X connect 6 0 7 1;
#X connect 6 1 7 0;
#X connect 7 0 0 0;
#X connect 7 0 9 0;
#X connect 8 0 6 0;
#X connect 10 0 11 1;
#X connect 10 1 11 0;
#X connect 11 0 5 0;
#X connect 12 0 10 0;
#X connect 13 0 0 1;
#X connect 13 1 14 0;
#X connect 14 0 13 1;
#X connect 14 1 15 0;
#X connect 15 0 14 1;
#X connect 15 1 16 0;
#X connect 16 0 15 1;
#X connect 16 1 17 0;
#X connect 17 0 16 1;
#X connect 17 1 18 0;
#X connect 18 0 17 1;
#X connect 18 1 19 0;
#X connect 19 0 18 1;
#X connect 19 1 20 0;
#X connect 20 0 19 1;
#X connect 20 1 21 0;
#X connect 21 0 20 1;
#X connect 21 1 22 0;
#X connect 22 0 21 1;
#X connect 22 1 23 0;
#X connect 23 0 22 1;
#X connect 23 1 24 0;
#X connect 24 0 23 1;
#X connect 24 1 25 0;
#X connect 25 0 24 1;
#X connect 26 0 25 1;
#X restore 293 397 pd mms;
#X obj 542 168 s M1;
#X floatatom 542 111 5 0 0 0 - - -;
#X msg 542 129 drag \$1;
#X obj 462 426 hsl 128 15 -100 100 0 0 empty empty empty -2 -8 0 10
-262144 -1 -1 5103 1;
#X floatatom 459 393 5 0 0 0 - - -;
#X msg 459 373 \$1;
#X obj 336 347 l1;
#X msg 500 370 \$2;
#X floatatom 500 395 5 0 0 0 - - -;
#X obj 459 351 m1;
#X obj 364 386 l1;
#X msg 604 129 mass \$1;
#X floatatom 604 109 5 0 0 0 - - -;
#X obj 387 78 unpack 0 0 0 0 0;
#X obj 387 31 loadbang;
#X msg 387 54 1 0.8 0 1 10;
#X connect 1 0 6 0;
#X connect 1 0 0 0;
#X connect 2 0 24 0;
#X connect 3 0 5 0;
#X connect 4 0 5 0;
#X connect 5 0 24 0;
#X connect 6 0 7 1;
#X connect 6 1 7 0;
#X connect 7 0 8 0;
#X connect 9 0 1 0;
#X connect 11 0 10 0;
#X connect 12 0 11 0;
#X connect 14 0 23 0;
#X connect 15 0 16 0;
#X connect 16 0 21 0;
#X connect 16 1 13 0;
#X connect 17 0 13 0;
#X connect 18 0 13 0;
#X connect 19 0 17 0;
#X connect 20 0 18 0;
#X connect 22 1 29 0;
#X connect 23 0 16 0;
#X connect 24 0 9 0;
#X connect 24 0 22 0;
#X connect 24 0 44 0;
#X connect 25 0 26 0;
#X connect 27 0 28 0;
#X connect 28 0 13 0;
#X connect 29 0 12 0;
#X connect 29 0 22 1;
#X connect 29 0 25 0;
#X connect 29 0 40 0;
#X connect 30 0 31 0;
#X connect 31 0 24 0;
#X connect 32 0 30 0;
#X connect 35 0 36 0;
#X connect 36 0 34 0;
#X connect 38 0 37 0;
#X connect 39 0 38 0;
#X connect 40 0 29 0;
#X connect 40 1 43 0;
#X connect 41 0 42 0;
#X connect 43 0 39 0;
#X connect 43 0 40 1;
#X connect 43 0 41 0;
#X connect 43 0 44 1;
#X connect 44 0 24 0;
#X connect 44 1 43 0;
#X connect 45 0 34 0;
#X connect 46 0 45 0;
#X connect 47 0 19 0;
#X connect 47 1 20 0;
#X connect 47 2 27 0;
#X connect 47 3 35 0;
#X connect 47 4 46 0;
#X connect 48 0 49 0;
#X connect 49 0 47 0;
