#N canvas 260 46 530 525 10;
#N canvas 0 0 462 361 structure 0;
#X obj 88 154 value \$0-x;
#X obj 128 124 value \$0-v;
#X obj 271 105 value \$0-m;
#X obj 169 104 value \$0-f;
#X obj 271 57 loadbang;
#X msg 271 79 1;
#X obj 88 77 unpack 0 0 0;
#X obj 88 56 inlet;
#X obj 220 59 inlet;
#X obj 157 54 inlet;
#X connect 4 0 5 0;
#X connect 5 0 2 0;
#X connect 6 0 0 0;
#X connect 6 1 1 0;
#X connect 6 2 3 0;
#X connect 7 0 6 0;
#X connect 8 0 2 0;
#X connect 9 0 0 0;
#X restore 239 139 pd structure;
#N canvas 775 629 450 300 GetState 0;
#X obj 84 77 value \$0-x;
#X obj 166 76 value \$0-v;
#X obj 84 15 inlet;
#X obj 84 161 outlet;
#X obj 84 35 t b b;
#X obj 166 161 outlet;
#X connect 0 0 3 0;
#X connect 1 0 5 0;
#X connect 2 0 4 0;
#X connect 4 0 0 0;
#X connect 4 1 1 0;
#X restore 134 189 pd GetState;
#N canvas 685 206 383 237 SetState 0;
#X obj 76 31 inlet;
#X obj 76 98 value \$0-x;
#X obj 175 98 value \$0-v;
#X obj 175 32 inlet;
#X obj 76 64 clip -100 100;
#X connect 0 0 4 0;
#X connect 3 0 2 0;
#X connect 4 0 1 0;
#X restore 134 287 pd SetState;
#N canvas 0 0 450 300 ParticleDeriv 0;
#X obj 142 53 inlet;
#X obj 224 242 outlet;
#X obj 142 94 t b b;
#X obj 142 136 value \$0-v;
#X obj 224 135 value \$0-f;
#X obj 224 161 t a b;
#X obj 256 183 value \$0-m;
#X obj 224 183 /;
#X text 227 209 xdot = v \, vdot = f/m;
#X obj 142 239 outlet;
#X connect 0 0 2 0;
#X connect 2 0 3 0;
#X connect 2 1 4 0;
#X connect 3 0 9 0;
#X connect 4 0 5 0;
#X connect 5 0 7 0;
#X connect 5 1 6 0;
#X connect 6 0 7 1;
#X connect 7 0 1 0;
#X restore 225 189 pd ParticleDeriv;
#X obj 134 230 +;
#X obj 208 233 +;
#X obj 111 155 t b b b;
#N canvas 435 244 526 351 clearForces 0;
#X obj 162 225 value \$0-f;
#X obj 130 55 inlet;
#X obj 130 268 outlet;
#X obj 130 83 t b b;
#X obj 162 115 value \$0-v;
#X obj 162 188 * 0;
#X obj 180 145 r \$0-drag;
#X text 220 188 add a bit of drag as: f = -drag * v;
#X obj 180 166 * -1;
#X connect 1 0 3 0;
#X connect 3 0 2 0;
#X connect 3 1 4 0;
#X connect 4 0 5 0;
#X connect 5 0 0 0;
#X connect 6 0 8 0;
#X connect 8 0 5 1;
#X restore 111 328 pd clearForces;
#X obj 111 395 value \$0-x;
#X obj 111 452 outlet;
#X obj 111 62 inlet;
#X msg 239 115 0 0 0;
#N canvas 0 0 378 312 accumF 0;
#X obj 67 98 value \$0-f;
#X obj 67 127 +;
#X obj 67 153 value \$0-f;
#X obj 67 76 t b a;
#X obj 67 53 inlet;
#X connect 0 0 1 0;
#X connect 1 0 2 0;
#X connect 3 0 0 0;
#X connect 3 1 1 1;
#X connect 4 0 3 0;
#X restore 157 115 pd accumF;
#X obj 111 353 t b b;
#X obj 111 423 pack 0 0;
#X obj 198 394 value \$0-v;
#X obj 66 60 r M1;
#X obj 111 83 route bang float reset mass x drag;
#X obj 306 107 s \$0-drag;
#X connect 1 0 4 0;
#X connect 1 1 5 0;
#X connect 3 0 4 1;
#X connect 3 1 5 1;
#X connect 4 0 2 0;
#X connect 5 0 2 1;
#X connect 6 0 7 0;
#X connect 6 1 1 0;
#X connect 6 2 3 0;
#X connect 7 0 13 0;
#X connect 8 0 14 0;
#X connect 10 0 17 0;
#X connect 11 0 0 0;
#X connect 13 0 8 0;
#X connect 13 1 15 0;
#X connect 14 0 9 0;
#X connect 15 0 14 1;
#X connect 16 0 17 0;
#X connect 17 0 6 0;
#X connect 17 1 12 0;
#X connect 17 2 11 0;
#X connect 17 3 0 2;
#X connect 17 4 0 1;
#X connect 17 5 18 0;
