#N canvas 0 0 450 300 10;
#X obj 30 63 inlet;
#X obj 30 125 outlet;
#X obj 30 99 m1;
#X obj 63 98 l1;
#X obj 81 63 inlet;
#X obj 81 126 outlet;
#X obj 14 154 list prepend \$1;
#X obj 14 183 s MINFO;
#X obj 155 41 r MSET;
#X obj 155 66 route \$1;
#X obj 155 90 list trim;
#X connect 0 0 2 0;
#X connect 2 0 3 0;
#X connect 2 0 1 0;
#X connect 2 0 6 0;
#X connect 3 0 2 0;
#X connect 3 1 5 0;
#X connect 4 0 3 1;
#X connect 6 0 7 0;
#X connect 8 0 9 0;
#X connect 9 0 10 0;
#X connect 10 0 2 0;
