#N canvas 716 634 450 300 10;
#X obj 284 27 inlet;
#X obj 284 179 outlet;
#X obj 110 121 hsl 128 15 -100 100 0 0 empty empty empty -2 -8 0 10
-262144 -1 -1 0 1;
#X floatatom 203 105 5 0 0 0 - - -;
#X msg 203 85 \$1;
#X obj 283 63 m1;
#X obj 316 62 l1;
#X obj 336 30 inlet;
#X obj 336 182 outlet;
#X obj 181 103 tgl 15 0 empty empty empty 17 7 0 10 -262144 -1 -1 0
1;
#X obj 201 64 spigot 1;
#X connect 0 0 5 0;
#X connect 3 0 2 0;
#X connect 4 0 3 0;
#X connect 5 0 6 0;
#X connect 5 0 1 0;
#X connect 5 0 10 0;
#X connect 6 0 5 0;
#X connect 6 1 8 0;
#X connect 7 0 6 1;
#X connect 9 0 10 1;
#X connect 10 0 4 0;
#X coords 0 -1 1 1 150 40 1 100 100;
