#N canvas 323 210 692 461 10;
#X obj 321 69 loadbang;
#X msg 321 158 freq \$1;
#X obj 321 136 tmtof;
#X obj 399 152 loadbang;
#X obj 321 111 f \$1;
#X obj 134 79 inlet;
#X obj 136 292 outlet~;
#N canvas 554 453 432 359 selector 0;
#X obj 70 78 select T D t k S;
#X msg 157 108 17 2;
#X msg 136 140 34 2;
#X msg 115 174 32 2;
#X msg 87 203 19 3;
#X msg 75 237 30 4;
#X obj 153 227 outlet;
#X obj 70 48 inlet;
#X connect 0 0 5 0;
#X connect 0 1 4 0;
#X connect 0 2 3 0;
#X connect 0 3 2 0;
#X connect 0 4 1 0;
#X connect 1 0 6 0;
#X connect 2 0 6 0;
#X connect 3 0 6 0;
#X connect 4 0 6 0;
#X connect 5 0 6 0;
#X connect 7 0 0 0;
#X restore 134 104 pd selector;
#X obj 178 165 unpack 0 0;
#X obj 171 248 line~;
#X msg 170 226 \$1 10;
#X obj 135 233 *~;
#X obj 134 134 t b a;
#X msg 356 185 feedback 0.9 \, lpfreq 10000;
#X obj 134 194 rj/s_guitar xxx;
#X connect 0 0 4 0;
#X connect 1 0 14 1;
#X connect 2 0 1 0;
#X connect 3 0 13 0;
#X connect 4 0 2 0;
#X connect 5 0 7 0;
#X connect 7 0 12 0;
#X connect 8 0 2 0;
#X connect 8 1 10 0;
#X connect 9 0 11 1;
#X connect 10 0 9 0;
#X connect 11 0 6 0;
#X connect 12 0 14 0;
#X connect 12 1 8 0;
#X connect 13 0 14 1;
#X connect 14 0 11 0;
