#N canvas 449 307 477 353 10;
#X obj 128 214 c_xfade;
#X obj 174 165 == 0;
#N canvas 341 266 450 300 playtable1 0;
#X floatatom 123 49 5 0 0 0 - - -;
#X obj 136 70 + 5;
#X obj 88 32 inlet;
#X obj 86 161 outlet~;
#X obj 87 114 tabosc4~ POSTABLE1;
#X obj 223 115 tabosc4~ POSTABLE1;
#X obj 88 90 tmtof;
#X connect 0 0 6 0;
#X connect 1 0 5 0;
#X connect 2 0 6 0;
#X connect 4 0 3 0;
#X connect 5 0 3 0;
#X connect 6 0 1 0;
#X connect 6 0 4 0;
#X restore 150 136 pd playtable1;
#N canvas 341 266 450 300 playtable0 0;
#X floatatom 123 49 5 0 0 0 - - -;
#X obj 136 70 + 5;
#X obj 88 32 inlet;
#X obj 86 161 outlet~;
#X obj 87 114 tabosc4~ POSTABLE0;
#X obj 223 115 tabosc4~ POSTABLE0;
#X obj 88 90 tmtof;
#X connect 0 0 6 0;
#X connect 1 0 5 0;
#X connect 2 0 6 0;
#X connect 4 0 3 0;
#X connect 5 0 3 0;
#X connect 6 0 1 0;
#X connect 6 0 4 0;
#X restore 127 90 pd playtable0;
#X obj 127 50 inlet;
#X obj 127 245 outlet~;
#X obj 241 47 inlet;
#X obj 174 192 pack 0 5;
#X connect 0 0 5 0;
#X connect 1 0 7 0;
#X connect 2 0 0 1;
#X connect 3 0 0 0;
#X connect 4 0 3 0;
#X connect 4 0 2 0;
#X connect 6 0 1 0;
#X connect 7 0 0 2;
