#N canvas 0 22 1003 516 10;
#X obj 149 131 vline~;
#X obj 204 230 wrap~;
#X obj 220 383 cos~;
#X obj 203 205 *~;
#X obj 292 171 *;
#X msg 427 66 1;
#X obj 263 229 wrap~;
#X obj 279 382 cos~;
#X obj 262 204 *~;
#X obj 328 174 *;
#X obj 66 140 *~;
#X obj 66 111 vline~;
#X obj 133 166 -~;
#X obj 323 230 wrap~;
#X obj 339 383 cos~;
#X obj 322 205 *~;
#X obj 365 175 *;
#X obj 401 174 *;
#X obj 382 231 wrap~;
#X obj 398 384 cos~;
#X obj 381 206 *~;
#X obj 449 230 wrap~;
#X obj 465 383 cos~;
#X obj 448 205 *~;
#X obj 283 122 t f f f f f f f;
#X obj 433 175 *;
#X msg 647 64 6.06;
#X obj 497 229 wrap~;
#X obj 513 382 cos~;
#X obj 496 204 *~;
#X obj 479 174 *;
#X msg 689 63 7.07;
#X obj 564 230 wrap~;
#X obj 580 383 cos~;
#X obj 563 205 *~;
#X obj 546 175 *;
#X obj -5 251 sig~ 1;
#X obj -3 278 -~;
#X obj 215 424 *~;
#X obj 326 416 *~;
#X obj 274 414 *~;
#X obj 398 410 *~;
#X obj 465 408 *~;
#X obj 517 407 *~;
#X obj 584 408 *~;
#X obj 733 163 noise~;
#X obj 733 187 lop~ 2;
#X obj 221 354 +~;
#X obj 65 166 *~;
#X obj 52 192 *~;
#X obj 229 327 *~;
#X msg 67 88 1 \, 0 1000;
#X obj 734 215 *~ 3;
#X obj 332 347 +~;
#X obj 340 320 *~;
#X obj 786 161 noise~;
#X obj 786 185 lop~ 2;
#X obj 463 520 +~;
#X obj 502 488 +~;
#X obj 516 466 *~;
#X obj 203 130 mtof;
#X obj 62 220 *~ 0.0005;
#X obj 836 158 noise~;
#X obj 836 182 lop~ 2;
#X obj 465 335 +~;
#X obj 473 308 *~;
#X obj 515 333 +~;
#X obj 523 306 *~;
#X obj 579 331 +~;
#X obj 587 304 *~;
#X obj 837 208 *~ 12;
#X obj 260 48 swap 1;
#X obj 255 72 /;
#X obj 150 76 f;
#X msg 150 99 0 \, 1 \$1;
#X obj 289 100 *;
#X obj 200 156 t f f f;
#X obj 165 55 * 1000;
#X obj 254 95 * 6;
#X obj 332 539 switch~;
#X obj 80 -13 inlet;
#X msg 331 503 1;
#X obj 401 559 env~;
#X obj 360 568 > 10;
#X obj 60 58 t b b;
#X obj 456 579 outlet~;
#X obj 515 576 outlet~;
#X obj 629 -9 inlet;
#X obj 77 11 unpack f f;
#X obj 261 24 + 0.5;
#X obj 52 308 *~ 0.7;
#X obj 48 347 *~ 0.2;
#X obj 51 380 *~ 0.1;
#X obj 46 421 *~ 0.08;
#X obj 50 459 *~ 0.04;
#X obj 51 498 *~ 0.02;
#X obj 61 531 *~ 0.01;
#N canvas 0 22 450 300 xf2x 0;
#X obj 78 44 inlet~;
#X obj 77 198 outlet~;
#X obj 141 136 -~;
#X obj 141 156 *~;
#X obj 201 87 inlet~;
#X obj 140 100 *~;
#X connect 0 0 1 0;
#X connect 0 0 2 1;
#X connect 0 0 5 0;
#X connect 0 0 5 1;
#X connect 2 0 3 0;
#X connect 3 0 1 0;
#X connect 4 0 3 1;
#X connect 5 0 2 0;
#X restore -3 308 pd xf2x;
#X obj 126 314 sig~;
#N canvas 0 22 450 300 xf2x 0;
#X obj 78 44 inlet~;
#X obj 77 198 outlet~;
#X obj 141 136 -~;
#X obj 141 156 *~;
#X obj 201 87 inlet~;
#X obj 140 100 *~;
#X connect 0 0 1 0;
#X connect 0 0 2 1;
#X connect 0 0 5 0;
#X connect 0 0 5 1;
#X connect 2 0 3 0;
#X connect 3 0 1 0;
#X connect 4 0 3 1;
#X connect 5 0 2 0;
#X restore -3 348 pd xf2x;
#N canvas 0 22 450 300 xf2x 0;
#X obj 78 44 inlet~;
#X obj 77 198 outlet~;
#X obj 141 136 -~;
#X obj 141 156 *~;
#X obj 201 87 inlet~;
#X obj 140 100 *~;
#X connect 0 0 1 0;
#X connect 0 0 2 1;
#X connect 0 0 5 0;
#X connect 0 0 5 1;
#X connect 2 0 3 0;
#X connect 3 0 1 0;
#X connect 4 0 3 1;
#X connect 5 0 2 0;
#X restore -3 384 pd xf2x;
#N canvas 0 22 450 300 xf2x 0;
#X obj 78 44 inlet~;
#X obj 77 198 outlet~;
#X obj 141 136 -~;
#X obj 141 156 *~;
#X obj 201 87 inlet~;
#X obj 140 100 *~;
#X connect 0 0 1 0;
#X connect 0 0 2 1;
#X connect 0 0 5 0;
#X connect 0 0 5 1;
#X connect 2 0 3 0;
#X connect 3 0 1 0;
#X connect 4 0 3 1;
#X connect 5 0 2 0;
#X restore -3 424 pd xf2x;
#N canvas 0 22 450 300 xf2x 0;
#X obj 78 44 inlet~;
#X obj 77 198 outlet~;
#X obj 141 136 -~;
#X obj 141 156 *~;
#X obj 201 87 inlet~;
#X obj 140 100 *~;
#X connect 0 0 1 0;
#X connect 0 0 2 1;
#X connect 0 0 5 0;
#X connect 0 0 5 1;
#X connect 2 0 3 0;
#X connect 3 0 1 0;
#X connect 4 0 3 1;
#X connect 5 0 2 0;
#X restore -1 461 pd xf2x;
#N canvas 0 22 450 300 xf2x 0;
#X obj 78 44 inlet~;
#X obj 77 198 outlet~;
#X obj 141 136 -~;
#X obj 141 156 *~;
#X obj 201 87 inlet~;
#X obj 140 100 *~;
#X connect 0 0 1 0;
#X connect 0 0 2 1;
#X connect 0 0 5 0;
#X connect 0 0 5 1;
#X connect 2 0 3 0;
#X connect 3 0 1 0;
#X connect 4 0 3 1;
#X connect 5 0 2 0;
#X restore 1 499 pd xf2x;
#N canvas 0 22 450 300 xf2x 0;
#X obj 78 44 inlet~;
#X obj 77 198 outlet~;
#X obj 141 136 -~;
#X obj 141 156 *~;
#X obj 201 87 inlet~;
#X obj 140 100 *~;
#X connect 0 0 1 0;
#X connect 0 0 2 1;
#X connect 0 0 5 0;
#X connect 0 0 5 1;
#X connect 2 0 3 0;
#X connect 3 0 1 0;
#X connect 4 0 3 1;
#X connect 5 0 2 0;
#X restore 1 531 pd xf2x;
#X obj 126 270 / 127;
#X obj 127 292 pow 2;
#X obj 261 2 pow 0.31;
#X obj 393 450 *~ 0.13;
#X msg 468 66 2.02;
#X msg 514 65 3.03;
#X msg 565 64 4.04;
#X msg 609 63 5.05;
#X obj 403 506 *~;
#X obj 423 354 / 127;
#X obj 502 512 *~ 0.5;
#X obj 460 549 *~ 0.4;
#X obj 787 211 *~ 6;
#X text 528 547 ad hoc sparse pno \, ajf 2010;
#X obj 394 477 *~;
#X obj -79 188 sig~ 1;
#X obj -78 215 -~;
#X obj -76 261 clip~ 0 1;
#X obj -78 238 *~ 50;
#X obj 522 30 t b b b b b b b;
#X obj 64 34 t b f f b b;
#N canvas 0 22 885 488 rnd 0;
#X obj 138 80 random 1000;
#X obj 134 37 inlet;
#X obj 134 59 t b f;
#X obj 137 133 +;
#X obj 137 155 outlet;
#X obj 137 102 / 100000;
#X connect 0 0 5 0;
#X connect 1 0 2 0;
#X connect 2 0 0 0;
#X connect 2 1 3 1;
#X connect 3 0 4 0;
#X connect 5 0 3 0;
#X restore 680 98 pd rnd;
#N canvas 0 22 885 488 rnd 0;
#X obj 138 80 random 1000;
#X obj 134 37 inlet;
#X obj 134 59 t b f;
#X obj 137 133 +;
#X obj 137 155 outlet;
#X obj 138 102 / 100000;
#X connect 0 0 5 0;
#X connect 1 0 2 0;
#X connect 2 0 0 0;
#X connect 2 1 3 1;
#X connect 3 0 4 0;
#X connect 5 0 3 0;
#X restore 633 97 pd rnd;
#N canvas 0 22 885 488 rnd 0;
#X obj 138 80 random 1000;
#X obj 134 37 inlet;
#X obj 134 59 t b f;
#X obj 137 133 +;
#X obj 137 155 outlet;
#X obj 138 102 / 100000;
#X connect 0 0 5 0;
#X connect 1 0 2 0;
#X connect 2 0 0 0;
#X connect 2 1 3 1;
#X connect 3 0 4 0;
#X connect 5 0 3 0;
#X restore 577 98 pd rnd;
#N canvas 0 22 885 488 rnd 0;
#X obj 138 80 random 1000;
#X obj 134 37 inlet;
#X obj 134 59 t b f;
#X obj 137 133 +;
#X obj 137 155 outlet;
#X obj 138 102 / 100000;
#X connect 0 0 5 0;
#X connect 1 0 2 0;
#X connect 2 0 0 0;
#X connect 2 1 3 1;
#X connect 3 0 4 0;
#X connect 5 0 3 0;
#X restore 522 102 pd rnd;
#N canvas 0 22 885 488 rnd 0;
#X obj 138 80 random 1000;
#X obj 134 37 inlet;
#X obj 134 59 t b f;
#X obj 137 133 +;
#X obj 137 155 outlet;
#X obj 138 102 / 100000;
#X connect 0 0 5 0;
#X connect 1 0 2 0;
#X connect 2 0 0 0;
#X connect 2 1 3 1;
#X connect 3 0 4 0;
#X connect 5 0 3 0;
#X restore 471 103 pd rnd;
#N canvas 0 22 885 488 rnd 0;
#X obj 138 80 random 1000;
#X obj 134 37 inlet;
#X obj 134 59 t b f;
#X obj 137 133 +;
#X obj 137 155 outlet;
#X obj 138 102 / 100000;
#X connect 0 0 5 0;
#X connect 1 0 2 0;
#X connect 2 0 0 0;
#X connect 2 1 3 1;
#X connect 3 0 4 0;
#X connect 5 0 3 0;
#X restore 423 103 pd rnd;
#N canvas 0 22 450 300 sin 0;
#X obj 145 90 cos~;
#X obj 145 45 inlet~;
#X obj 145 66 +~ 0.75;
#X obj 145 111 outlet~;
#X connect 0 0 3 0;
#X connect 1 0 2 0;
#X connect 2 0 0 0;
#X restore 401 534 pd sin;
#X connect 0 0 12 1;
#X connect 0 0 37 1;
#X connect 1 0 47 0;
#X connect 2 0 38 1;
#X connect 3 0 1 0;
#X connect 4 0 3 1;
#X connect 5 0 4 1;
#X connect 6 0 7 0;
#X connect 7 0 40 1;
#X connect 8 0 6 0;
#X connect 9 0 8 1;
#X connect 10 0 48 0;
#X connect 10 0 48 1;
#X connect 10 0 54 0;
#X connect 11 0 10 0;
#X connect 11 0 10 1;
#X connect 11 0 50 0;
#X connect 12 0 3 0;
#X connect 12 0 8 0;
#X connect 12 0 15 0;
#X connect 12 0 20 0;
#X connect 12 0 23 0;
#X connect 12 0 29 0;
#X connect 12 0 34 0;
#X connect 13 0 53 0;
#X connect 14 0 39 1;
#X connect 15 0 13 0;
#X connect 16 0 15 1;
#X connect 17 0 20 1;
#X connect 18 0 19 0;
#X connect 19 0 41 0;
#X connect 20 0 18 0;
#X connect 21 0 64 0;
#X connect 22 0 42 0;
#X connect 23 0 21 0;
#X connect 24 0 4 0;
#X connect 24 1 9 0;
#X connect 24 2 16 0;
#X connect 24 3 17 0;
#X connect 24 4 25 0;
#X connect 24 5 30 0;
#X connect 24 6 35 0;
#X connect 25 0 23 1;
#X connect 26 0 127 0;
#X connect 27 0 66 0;
#X connect 28 0 43 0;
#X connect 29 0 27 0;
#X connect 30 0 29 1;
#X connect 31 0 126 0;
#X connect 32 0 68 0;
#X connect 33 0 44 0;
#X connect 34 0 32 0;
#X connect 35 0 34 1;
#X connect 36 0 37 0;
#X connect 37 0 97 0;
#X connect 38 0 108 0;
#X connect 39 0 108 0;
#X connect 40 0 108 0;
#X connect 41 0 108 0;
#X connect 42 0 108 0;
#X connect 43 0 108 0;
#X connect 44 0 108 0;
#X connect 45 0 46 0;
#X connect 46 0 52 0;
#X connect 47 0 2 0;
#X connect 48 0 49 0;
#X connect 48 0 49 1;
#X connect 48 0 65 0;
#X connect 48 0 67 0;
#X connect 48 0 69 0;
#X connect 49 0 61 0;
#X connect 49 0 121 1;
#X connect 50 0 47 1;
#X connect 51 0 11 0;
#X connect 52 0 50 1;
#X connect 53 0 14 0;
#X connect 54 0 53 1;
#X connect 55 0 56 0;
#X connect 56 0 117 0;
#X connect 57 0 116 0;
#X connect 58 0 115 0;
#X connect 59 0 58 1;
#X connect 60 0 76 0;
#X connect 61 0 12 0;
#X connect 62 0 63 0;
#X connect 63 0 70 0;
#X connect 64 0 22 0;
#X connect 65 0 64 1;
#X connect 66 0 28 0;
#X connect 67 0 66 1;
#X connect 68 0 33 0;
#X connect 69 0 68 1;
#X connect 70 0 69 1;
#X connect 70 0 67 1;
#X connect 70 0 65 1;
#X connect 71 0 72 0;
#X connect 71 1 72 1;
#X connect 72 0 78 0;
#X connect 73 0 74 0;
#X connect 74 0 0 0;
#X connect 75 0 24 0;
#X connect 76 0 107 0;
#X connect 76 1 75 1;
#X connect 77 0 73 1;
#X connect 78 0 75 0;
#X connect 78 0 77 0;
#X connect 80 0 88 0;
#X connect 81 0 79 0;
#X connect 82 0 83 0;
#X connect 83 0 79 0;
#X connect 84 0 51 0;
#X connect 84 1 73 0;
#X connect 88 0 125 0;
#X connect 88 1 114 0;
#X connect 89 0 71 0;
#X connect 90 0 38 0;
#X connect 91 0 40 0;
#X connect 92 0 39 0;
#X connect 93 0 41 1;
#X connect 94 0 42 1;
#X connect 95 0 43 1;
#X connect 96 0 44 1;
#X connect 97 0 99 0;
#X connect 97 0 90 0;
#X connect 98 0 97 1;
#X connect 98 0 99 1;
#X connect 98 0 100 1;
#X connect 98 0 101 1;
#X connect 98 0 102 1;
#X connect 98 0 103 1;
#X connect 98 0 104 1;
#X connect 99 0 91 0;
#X connect 99 0 100 0;
#X connect 100 0 101 0;
#X connect 100 0 92 0;
#X connect 101 0 93 0;
#X connect 101 0 102 0;
#X connect 102 0 103 0;
#X connect 102 0 94 0;
#X connect 103 0 95 0;
#X connect 103 0 104 0;
#X connect 104 0 96 0;
#X connect 105 0 106 0;
#X connect 106 0 98 0;
#X connect 107 0 89 0;
#X connect 108 0 119 0;
#X connect 109 0 131 0;
#X connect 110 0 130 0;
#X connect 111 0 129 0;
#X connect 112 0 128 0;
#X connect 113 0 57 0;
#X connect 113 0 132 0;
#X connect 114 0 113 1;
#X connect 115 0 57 1;
#X connect 115 0 86 0;
#X connect 115 0 116 0;
#X connect 116 0 82 0;
#X connect 116 0 85 0;
#X connect 117 0 54 1;
#X connect 119 0 113 0;
#X connect 120 0 121 0;
#X connect 121 0 123 0;
#X connect 122 0 119 1;
#X connect 123 0 122 0;
#X connect 124 0 5 0;
#X connect 124 1 109 0;
#X connect 124 2 110 0;
#X connect 124 3 111 0;
#X connect 124 4 112 0;
#X connect 124 5 26 0;
#X connect 124 6 31 0;
#X connect 125 0 84 0;
#X connect 125 1 60 0;
#X connect 125 2 105 0;
#X connect 125 3 124 0;
#X connect 125 4 81 0;
#X connect 126 0 35 1;
#X connect 127 0 30 1;
#X connect 128 0 25 1;
#X connect 129 0 17 1;
#X connect 130 0 16 1;
#X connect 131 0 9 1;
#X connect 132 0 58 0;
#X connect 132 0 59 1;
#X connect 132 0 59 0;
