#N canvas 228 105 723 469 10;
#X obj 60 198 soundoutput;
#X obj 132 -215 loadbang;
#N canvas 444 84 761 507 drumloopold 0;
#X obj 161 404 hip~ 5;
#X obj 158 426 outlet~;
#X obj 163 357 vline~;
#X obj 232 127 r sample.length;
#X obj 160 178 t a a;
#X msg 192 200 \$2 \$1;
#X obj 192 221 -;
#X obj 160 254 list append;
#X obj 328 294 delay;
#X obj 328 315 s eof;
#X obj 160 118 *;
#X obj 160 148 list append;
#X text 257 149 append sample endpoint;
#X text 251 255 append playback duration;
#N canvas 816 447 128 220 convert_ms2samps 0;
#X obj 10 11 inlet;
#X obj 10 180 outlet;
#X obj 10 36 unpack f f;
#X obj 10 152 pack f f;
#X obj 28 64 loadbang;
#X obj 28 106 * 0.001;
#X obj 28 85 samplerate~;
#X obj 10 127 *;
#X connect 0 0 2 0;
#X connect 2 0 7 0;
#X connect 2 1 3 1;
#X connect 3 0 1 0;
#X connect 4 0 6 0;
#X connect 5 0 7 1;
#X connect 6 0 5 0;
#X connect 7 0 3 0;
#X restore 160 329 pd convert_ms2samps;
#X obj 160 380 tabread~ drumloop;
#X msg 146 61 0;
#X obj 114 34 r eof;
#X obj 240 90 r 8th;
#X obj 29 9 r beatposition;
#X obj 47 65 loadbang;
#X msg 428 61 40;
#N canvas 503 433 168 172 list 0;
#X obj 20 25 inlet;
#X obj 21 141 outlet;
#X obj 20 86 list;
#X obj 21 52 t b a;
#X msg 20 111 \$1 0 \, \$2 \$3;
#X connect 0 0 3 0;
#X connect 2 0 4 0;
#X connect 3 0 2 0;
#X connect 3 1 2 1;
#X connect 4 0 1 0;
#X restore 161 291 pd list;
#X obj 163 17 sel 0 1 2 3 4 5 6;
#X msg 184 60 12;
#X msg 262 59 18;
#X msg 298 59 15;
#X msg 376 59 7;
#X msg 336 56 8;
#X msg 218 59 17;
#X connect 0 0 1 0;
#X connect 2 0 15 0;
#X connect 3 0 11 1;
#X connect 4 0 7 0;
#X connect 4 1 5 0;
#X connect 5 0 6 0;
#X connect 6 0 7 1;
#X connect 6 0 8 0;
#X connect 7 0 22 0;
#X connect 8 0 9 0;
#X connect 10 0 11 0;
#X connect 11 0 4 0;
#X connect 14 0 2 0;
#X connect 15 0 0 0;
#X connect 16 0 10 0;
#X connect 17 0 16 0;
#X connect 18 0 10 1;
#X connect 19 0 23 0;
#X connect 20 0 16 0;
#X connect 21 0 10 0;
#X connect 22 0 14 0;
#X connect 23 0 16 0;
#X connect 23 1 24 0;
#X connect 23 2 29 0;
#X connect 23 3 25 0;
#X connect 23 4 26 0;
#X connect 23 5 28 0;
#X connect 23 6 27 0;
#X connect 24 0 10 0;
#X connect 25 0 10 0;
#X connect 26 0 10 0;
#X connect 27 0 10 0;
#X connect 28 0 10 0;
#X connect 29 0 10 0;
#X restore 458 -70 pd drumloopold;
#N canvas 442 180 288 292 loop 0;
#X obj 32 195 hip~ 5;
#X obj 33 118 +~ 1;
#X obj 33 222 outlet~;
#X obj 34 148 tabread4~ array4;
#X obj 26 19 phasor~ 0.2;
#X obj 33 91 *~ 110000;
#X connect 0 0 2 0;
#X connect 1 0 3 0;
#X connect 3 0 0 0;
#X connect 4 0 5 0;
#X connect 5 0 1 0;
#X restore -45 15 pd loop B-;
#N canvas 222 63 275 259 loop 0;
#X obj 35 133 hip~ 5;
#X obj 35 80 +~ 1;
#X obj 34 172 outlet~;
#X obj 35 21 phasor~ 0.2;
#X obj 36 54 *~ 110000;
#X obj 35 106 tabread4~ array3;
#X connect 0 0 2 0;
#X connect 1 0 5 0;
#X connect 3 0 4 0;
#X connect 4 0 1 0;
#X connect 5 0 0 0;
#X restore 77 15 pd loop E-;
#N canvas 89 95 293 287 loop 0;
#X obj 22 151 hip~ 5;
#X obj 22 90 +~ 1;
#X obj 21 190 outlet~;
#X obj 24 35 phasor~ 0.2;
#X obj 22 63 *~ 110000;
#X obj 22 118 tabread4~ array1;
#X connect 0 0 2 0;
#X connect 1 0 5 0;
#X connect 3 0 4 0;
#X connect 4 0 1 0;
#X connect 5 0 0 0;
#X restore 194 15 pd loop C maj;
#N canvas 600 78 218 217 loop 0;
#X obj 14 137 hip~ 5;
#X obj 14 81 +~ 1;
#X obj 13 176 outlet~;
#X obj 16 21 phasor~ 0.2;
#X obj 14 54 *~ 110000;
#X obj 15 110 tabread4~ array2;
#X connect 0 0 2 0;
#X connect 1 0 5 0;
#X connect 3 0 4 0;
#X connect 4 0 1 0;
#X connect 5 0 0 0;
#X restore 317 10 pd loop D maj;
#X obj -45 126 *~;
#X obj 76 123 *~;
#X obj 320 122 *~;
#X obj 193 128 *~;
#X obj -21 -27 bng 15 250 50 0 empty empty empty 17 7 0 10 -262144
-1 -1;
#X obj 94 -21 bng 15 250 50 0 empty empty empty 17 7 0 10 -262144 -1
-1;
#X obj 209 -24 bng 15 250 50 0 empty empty empty 17 7 0 10 -262144
-1 -1;
#X obj 326 -22 bng 15 250 50 0 empty empty empty 17 7 0 10 -262144
-1 -1;
#X msg 212 70 1 100;
#X msg 337 67 1 100;
#X obj 198 -216 accelerate;
#N canvas 118 163 844 442 accel.analysis 0;
#X obj 285 87 r accelerate;
#X obj 286 137 t f f b;
#X obj 309 168 f;
#X obj 286 194 -;
#X obj 286 215 abs;
#X obj 286 264 sel 1;
#X obj 286 332 outlet;
#X obj 9 324 outlet;
#X obj 123 392 outlet;
#X obj 11 43 r accelerate;
#X obj 11 68 route roll pitch;
#X obj 254 291 t b b;
#X obj 11 135 + 1.5;
#X obj 10 256 int;
#X obj 113 208 + 1.5;
#X obj 113 258 int;
#X obj 251 313 0;
#X obj 11 159 / 3;
#X obj 12 182 t f f;
#X obj 12 207 *;
#X text 4 15 get orientation;
#X text 274 51 detect shaking -> breaky;
#X obj 639 61 r accelerate;
#X obj 639 87 route roll pitch;
#X obj 639 120 t f f b;
#X obj 657 152 f;
#X obj 639 176 -;
#X obj 697 120 t f f b;
#X obj 715 152 f;
#X obj 697 176 -;
#X obj 639 306 b;
#X text 641 30 detect 'movement';
#X obj 672 356 0;
#X obj 639 333 1;
#X obj 639 390 s movement;
#X obj 286 240 > 0.7;
#X obj 285 113 route magnitude;
#X obj 478 72 r accelerate;
#X obj 478 97 route magnitude;
#X obj 478 147 sel 0;
#X obj 478 174 s reverse;
#X obj 478 122 > 0.3;
#X obj 10 231 * 4;
#X obj 113 235 * 2;
#X obj 639 237 moses -0.4;
#X obj 698 208 moses -0.4;
#X obj 713 259 moses 0.4;
#X obj 771 230 moses 0.4;
#X obj 672 334 del 1200;
#X connect 0 0 36 0;
#X connect 1 0 3 0;
#X connect 1 1 2 1;
#X connect 1 2 2 0;
#X connect 2 0 3 1;
#X connect 3 0 4 0;
#X connect 4 0 35 0;
#X connect 5 0 11 0;
#X connect 9 0 10 0;
#X connect 10 0 12 0;
#X connect 10 1 14 0;
#X connect 11 0 16 0;
#X connect 11 1 6 0;
#X connect 12 0 17 0;
#X connect 13 0 7 0;
#X connect 14 0 43 0;
#X connect 15 0 8 0;
#X connect 16 0 8 0;
#X connect 17 0 18 0;
#X connect 18 0 19 0;
#X connect 18 1 19 1;
#X connect 19 0 42 0;
#X connect 22 0 23 0;
#X connect 23 0 24 0;
#X connect 23 1 27 0;
#X connect 24 0 26 0;
#X connect 24 1 25 1;
#X connect 24 2 25 0;
#X connect 25 0 26 1;
#X connect 26 0 44 0;
#X connect 27 0 29 0;
#X connect 27 1 28 1;
#X connect 27 2 28 0;
#X connect 28 0 29 1;
#X connect 29 0 45 0;
#X connect 30 0 33 0;
#X connect 30 0 48 0;
#X connect 32 0 34 0;
#X connect 33 0 34 0;
#X connect 35 0 5 0;
#X connect 36 0 1 0;
#X connect 37 0 38 0;
#X connect 38 0 41 0;
#X connect 39 0 40 0;
#X connect 41 0 39 0;
#X connect 42 0 13 0;
#X connect 43 0 15 0;
#X connect 44 0 30 0;
#X connect 44 1 46 0;
#X connect 45 0 30 0;
#X connect 45 1 47 0;
#X connect 46 1 30 0;
#X connect 47 1 30 0;
#X connect 48 0 32 0;
#X restore 4 -214 pd accel.analysis;
#X floatatom 4 -192 5 0 0 0 - - -;
#X floatatom 65 -188 5 0 0 0 - - -;
#X obj -26 -52 sel 0 1 2 3;
#X obj -23 -75 int;
#X obj 134 -197 tgl 15 0 empty empty empty 17 7 0 10 -262144 -1 -1
1 1;
#X obj 133 -181 metro 476;
#X obj 133 -159 s metro;
#X obj 51 -97 s beatposition;
#X obj 52 -141 int;
#X obj 52 -118 change;
#N canvas 409 144 585 473 soundfiles 0;
#X obj 362 -73 table drumloop;
#X msg 90 22 read -resize C_22050.aif array1;
#X msg 92 43 read -resize D_22050.aif array2;
#X msg 90 63 read -resize E_22050.aif array3;
#X msg 88 86 read -resize H_22050.aif array4;
#X obj 359 -32 table array2;
#X obj 360 -52 table array1;
#X obj 362 -9 table array3;
#X obj 361 11 table array4;
#X obj 93 191 soundfiler;
#X obj 15 -81 loadbang;
#X obj 86 241 s sample.length;
#X msg 36 313 \; pd dsp 1;
#X obj 16 -60 t b b b b;
#X obj 16 350 s trigger;
#X obj 103 -84 inlet;
#X obj 86 220 samp2ms;
#X text 109 292 1/16th in ms;
#X text 203 243 in ms;
#X obj 56 291 s 8th;
#X msg 56 269 475.625;
#X obj 177 193 soundfiler;
#X msg 88 107 read -resize drums_melody.aif drumloop;
#X connect 1 0 21 0;
#X connect 2 0 21 0;
#X connect 3 0 21 0;
#X connect 4 0 21 0;
#X connect 9 0 16 0;
#X connect 10 0 13 0;
#X connect 13 0 14 0;
#X connect 13 1 12 0;
#X connect 13 2 20 0;
#X connect 13 3 1 0;
#X connect 13 3 2 0;
#X connect 13 3 3 0;
#X connect 13 3 4 0;
#X connect 13 3 22 0;
#X connect 15 0 13 0;
#X connect 16 0 11 0;
#X connect 20 0 19 0;
#X connect 22 0 9 0;
#X restore 278 -194 pd soundfiles;
#X obj 279 -214 bng 15 250 50 0 empty empty empty 17 7 0 10 -262144
-1 -1;
#X obj 92 172 *~ 1;
#X obj 455 113 *~ 0.4;
#X obj 494 -36 r movement;
#X obj 495 -15 tgl 15 0 empty empty empty 17 7 0 10 -262144 -1 -1 0
1;
#X obj 494 6 sel 0 1;
#X msg 551 30 0.4 200;
#X obj 495 54 line;
#X msg -29 76 0.65 100;
#X msg 98 71 1 100;
#X msg 149 69 0 400;
#X msg 31 77 0 400;
#X msg 275 70 0 400;
#X msg 386 67 0 400;
#X obj -25 105 line~;
#X obj 95 99 line~;
#X obj 206 99 line~;
#X obj 333 95 line~;
#X msg 494 29 0 2000;
#X connect 1 0 23 0;
#X connect 2 0 32 0;
#X connect 3 0 7 0;
#X connect 4 0 8 0;
#X connect 5 0 10 0;
#X connect 6 0 9 0;
#X connect 7 0 31 0;
#X connect 8 0 31 0;
#X connect 9 0 31 0;
#X connect 10 0 31 0;
#X connect 11 0 38 0;
#X connect 11 0 40 0;
#X connect 11 0 42 0;
#X connect 11 0 43 0;
#X connect 12 0 39 0;
#X connect 12 0 41 0;
#X connect 12 0 42 0;
#X connect 12 0 43 0;
#X connect 13 0 15 0;
#X connect 13 0 41 0;
#X connect 13 0 40 0;
#X connect 13 0 43 0;
#X connect 14 0 16 0;
#X connect 14 0 42 0;
#X connect 14 0 40 0;
#X connect 14 0 41 0;
#X connect 15 0 46 0;
#X connect 16 0 47 0;
#X connect 18 0 19 0;
#X connect 18 1 20 0;
#X connect 19 0 22 1;
#X connect 20 0 27 1;
#X connect 21 0 11 0;
#X connect 21 1 12 0;
#X connect 21 2 13 0;
#X connect 21 3 14 0;
#X connect 22 0 21 0;
#X connect 23 0 24 0;
#X connect 24 0 22 0;
#X connect 24 0 25 0;
#X connect 24 0 27 0;
#X connect 27 0 28 0;
#X connect 28 0 26 0;
#X connect 30 0 29 0;
#X connect 31 0 0 0;
#X connect 31 0 0 1;
#X connect 32 0 31 0;
#X connect 33 0 34 0;
#X connect 34 0 35 0;
#X connect 35 0 48 0;
#X connect 35 1 36 0;
#X connect 36 0 37 0;
#X connect 37 0 32 1;
#X connect 38 0 44 0;
#X connect 39 0 45 0;
#X connect 40 0 45 0;
#X connect 41 0 44 0;
#X connect 42 0 46 0;
#X connect 43 0 47 0;
#X connect 44 0 7 1;
#X connect 45 0 8 1;
#X connect 46 0 10 1;
#X connect 47 0 9 1;
#X connect 48 0 37 0;
