#N canvas 323 133 436 216 10;
#N canvas 94 347 520 224 MODULE_INFO 0;
#X text 64 79 authors: Reality Jockey;
#X text 66 57 name: Glitcher;
#X text 65 99 description: Glitcher applies random pitchshift and repeater
effects to warp the incoming audio. This module is affected by BPM.
;
#X text 65 140 decorator: s1m1-s2m1;
#X text 66 163 tags:;
#X restore 31 -44 pd MODULE_INFO;
#X obj 33 0 inlet~;
#X obj 33 133 outlet~;
#X obj 93 133 outlet~;
#N canvas 130 22 680 678 \$0-DSP 0;
#X obj 32 254 inlet~;
#X obj 390 248 inlet~;
#X obj 34 380 e_pitchshift;
#X msg 115 353 pitch \$1;
#X obj 115 327 line;
#X obj 115 203 sel 0;
#X obj 34 406 e_repeater repea;
#X obj 143 379 random 1000;
#X obj 389 380 e_pitchshift;
#X msg 470 353 pitch \$1;
#X obj 470 249 random 40;
#X obj 470 275 - 20;
#X obj 470 327 line;
#X obj 389 406 e_repeater repea;
#X obj 498 379 random 1000;
#X obj 470 203 sel 16;
#X obj 34 507 *~;
#X obj 98 506 *~;
#X obj 316 512 *~;
#X obj 368 512 *~;
#X obj 115 301 pack \$1 \$2;
#X obj 182 229 random 2000;
#X obj 115 249 random 48;
#X obj 115 275 - 24;
#X obj 189 462 pipe 3200;
#X obj 537 229 random 2000;
#X obj 470 301 pack \$1 \$2;
#N canvas 0 22 476 363 sine 0;
#X msg 267 -298 192;
#X obj 193 -79 min;
#X obj 216 -142 * -1;
#X obj 221 -256 t f f f;
#X obj 220 -110 +;
#X obj 275 -208 / 2;
#X obj 201 -59 /;
#X obj 174 -189 mod 192;
#X obj 175 -163 t f f f;
#X obj 268 -321 loadbang;
#X obj 197 -29 outlet;
#X obj 155 -276 inlet;
#X connect 0 0 3 0;
#X connect 1 0 6 0;
#X connect 2 0 4 0;
#X connect 3 0 7 1;
#X connect 3 1 4 1;
#X connect 3 2 5 0;
#X connect 4 0 1 1;
#X connect 5 0 6 1;
#X connect 6 0 10 0;
#X connect 7 0 8 0;
#X connect 8 0 1 0;
#X connect 8 1 2 0;
#X connect 9 0 0 0;
#X connect 11 0 7 0;
#X restore 189 430 pd sine;
#X obj 285 615 outlet~ RIGHT;
#X obj 124 616 outlet~ LEFT;
#X obj 187 110 r \$0-tick;
#X obj 225 143 mod 32;
#X obj 189 406 r \$0-tick;
#X obj 264 -4 r \$0-Rate;
#X obj 264 14 m_scale 0 1 3 1;
#X obj 264 52 int;
#X obj 264 33 + 0.4999;
#X obj 264 71 change;
#X obj 264 90 sel 1 2 3;
#X obj 264 110 16;
#X obj 291 110 24;
#X obj 318 110 32;
#X obj 368 102 m_scale 0 1 1000 10000;
#X obj 530 133 m_scale 0 1 30 100;
#X obj 175 211 + 8;
#X obj 368 47 r \$0-Glitch;
#X obj 537 275 clip 20 10000;
#X obj 182 275 clip 20 10000;
#X connect 0 0 2 0;
#X connect 1 0 8 0;
#X connect 2 0 6 0;
#X connect 3 0 2 1;
#X connect 4 0 3 0;
#X connect 5 0 7 0;
#X connect 5 0 21 0;
#X connect 5 0 22 0;
#X connect 6 0 17 0;
#X connect 6 0 16 0;
#X connect 7 0 6 1;
#X connect 8 0 13 0;
#X connect 9 0 8 1;
#X connect 10 0 11 0;
#X connect 11 0 26 0;
#X connect 12 0 9 0;
#X connect 13 0 18 0;
#X connect 13 0 19 0;
#X connect 14 0 13 1;
#X connect 15 0 10 0;
#X connect 15 0 14 0;
#X connect 15 0 25 0;
#X connect 16 0 29 0;
#X connect 17 0 28 0;
#X connect 18 0 29 0;
#X connect 19 0 28 0;
#X connect 20 0 4 0;
#X connect 21 0 47 0;
#X connect 22 0 23 0;
#X connect 23 0 20 0;
#X connect 24 0 16 1;
#X connect 24 0 19 1;
#X connect 25 0 46 0;
#X connect 26 0 12 0;
#X connect 27 0 18 1;
#X connect 27 0 17 1;
#X connect 27 0 24 0;
#X connect 27 0 16 1;
#X connect 30 0 31 0;
#X connect 31 0 5 0;
#X connect 31 0 15 0;
#X connect 32 0 27 0;
#X connect 33 0 34 0;
#X connect 34 0 36 0;
#X connect 35 0 37 0;
#X connect 36 0 35 0;
#X connect 37 0 38 0;
#X connect 38 0 39 0;
#X connect 38 1 40 0;
#X connect 38 2 41 0;
#X connect 39 0 31 1;
#X connect 40 0 31 1;
#X connect 41 0 31 1;
#X connect 42 0 25 1;
#X connect 42 0 21 1;
#X connect 43 0 10 1;
#X connect 43 0 44 0;
#X connect 44 0 22 1;
#X connect 45 0 42 0;
#X connect 45 0 43 0;
#X connect 46 0 26 1;
#X connect 47 0 20 1;
#X restore 33 85 pd \$0-DSP;
#N canvas 0 22 323 313 \$0-INPUT 0;
#X obj 77 47 inlet~;
#X obj 77 216 outlet~;
#X obj 77 95 hip~ 100;
#X obj 77 117 hip~ 100;
#X obj 77 169 *~ 0.9;
#X obj 152 216 outlet~;
#X connect 0 0 2 0;
#X connect 2 0 3 0;
#X connect 3 0 4 0;
#X connect 4 0 1 0;
#X connect 4 0 5 0;
#X coords 0 0 1 1 85 40 0;
#X restore 33 42 pd \$0-INPUT;
#X obj 186 133 outlet;
#X obj 186 -18 inlet;
#N canvas 405 128 376 306 \$0-PARAMETERS 0;
#X obj 106 132 cnv 15 187 97 empty empty empty 10 12 1 14 -162280 -262144
0;
#X obj 106 106 cnv 15 187 20 empty empty Glitcher 65 11 1 14 -261234
-33289 0;
#X obj 43 30 inlet;
#X obj 43 50 route tick;
#X obj 43 70 s \$0-tick;
#X obj 110 255 outlet;
#X obj 110 182 rjc_parameter_floatrange \$0 Glitch 0.2;
#X obj 110 147 rjc_parameter_floatrange \$0 Rate 0;
#X connect 2 0 3 0;
#X connect 3 0 4 0;
#X connect 3 1 7 0;
#X connect 6 0 5 0;
#X connect 7 0 6 0;
#X coords 0 -1 1 1 199 135 2 100 100;
#X restore 186 -2 pd \$0-PARAMETERS;
#X connect 1 0 5 0;
#X connect 4 0 2 0;
#X connect 4 1 3 0;
#X connect 5 0 4 0;
#X connect 5 1 4 1;
#X connect 7 0 8 0;
#X connect 8 0 6 0;
#X coords 0 0 1 1 85 60 0;
