#N canvas 641 246 450 324 10;
#X obj 12 178 random 255;
#X obj 12 200 / 255;
#X obj 12 37 t b 0;
#X obj 12 106 f;
#X obj 40 106 + 1;
#X obj 12 222 <;
#X obj 12 127 t b f f;
#X obj 12 85 until;
#X obj 90 179 inlet;
#X text 137 181 seed;
#X obj 56 37 r \$1-loop-length;
#X obj 12 243 tabwrite \$1-\$2-loop;
#X obj 34 152 tabread \$1-\$2-prob;
#X obj 12 15 r \$1-\$2-makeloop;
#X obj 12 63 32;
#X connect 0 0 1 0;
#X connect 1 0 5 0;
#X connect 2 0 14 0;
#X connect 2 1 3 1;
#X connect 3 0 4 0;
#X connect 3 0 6 0;
#X connect 4 0 3 1;
#X connect 5 0 11 0;
#X connect 6 0 0 0;
#X connect 6 1 12 0;
#X connect 6 2 11 1;
#X connect 7 0 3 0;
#X connect 8 0 0 0;
#X connect 10 0 14 1;
#X connect 12 0 5 1;
#X connect 13 0 2 0;
#X connect 14 0 7 0;
