#N canvas 373 131 296 353 10;
#X obj 11 332 outlet~;
#X obj 11 59 random;
#X obj 11 79 + 1;
#X obj 90 142 loadbang;
#X obj 11 309 tabread4~;
#X obj 119 279 vline~;
#X msg 119 258 0 \, 44100 1000;
#X obj 50 35 r \$1-\$2-samples;
#X obj 44 205 symbol \$2;
#X obj 11 13 r \$1-choose-new-samples;
#X obj 119 236 r \$1-\$2-shot;
#X obj 78 228 \$1;
#X obj 11 103 t f b b;
#X obj 11 248 pack f s f;
#X msg 11 270 set \$3-\$2-\$1;
#X connect 1 0 2 0;
#X connect 2 0 12 0;
#X connect 3 0 8 0;
#X connect 4 0 0 0;
#X connect 5 0 4 0;
#X connect 6 0 5 0;
#X connect 7 0 1 1;
#X connect 8 0 13 1;
#X connect 9 0 1 0;
#X connect 10 0 6 0;
#X connect 11 0 13 2;
#X connect 12 0 13 0;
#X connect 12 1 8 0;
#X connect 12 2 11 0;
#X connect 13 0 14 0;
#X connect 14 0 4 0;
