#N canvas 340 96 905 596 10;
#X obj 86 330 vd~ test1 500;
#X obj 86 307 line~;
#X obj 79 86 loadbang;
#X obj 157 85 bng 15 250 50 0 empty empty empty 17 7 0 10 -262144 -1
-1;
#X obj 444 449 delwrite~ test1 6000;
#X obj 86 227 + 1;
#X obj 444 387 soundinput;
#X text 448 38 Analysis modules needed:;
#X obj 454 60 analysesimpleonset;
#X obj 351 58 r analyse;
#X text 173 401 create echo field with fixed delay;
#X text 48 430 playback direct input;
#X text 528 386 feedback delay of sine tone and input;
#X text 53 42 Generate 2 random lines for pitch shifting;
#X obj 351 80 route simpleonset;
#X obj 51 489 soundoutput;
#X obj 181 476 soundoutput;
#X obj 52 458 soundinput;
#X obj 711 258 s onset_threshold;
#X obj 712 191 loadbang;
#X floatatom 711 236 5 0 0 0 - - -;
#X msg 713 285 \; #transport play 1;
#X floatatom 189 85 5 0 0 0 - - -;
#X msg 86 288 \$1 1000;
#X obj 87 204 random 4;
#N canvas 658 267 568 391 seq 0;
#X obj 110 260 bd;
#X obj 227 266 sn;
#X obj 154 39 inlet;
#X obj 237 351 outlet~;
#X obj 298 263 hh;
#X obj 217 45 inlet;
#X obj 275 46 inlet;
#X obj 341 47 inlet;
#X obj 298 290 vcf~ 3;
#X obj 453 233 line~;
#X msg 453 186 \$1 200;
#X obj 444 59 inlet;
#N canvas 0 22 450 300 seq1 0;
#X obj 46 85 sel 0 1 2 3 4 5 6 7 8 9 10 11 12 13 14 15 16;
#X obj 76 39 inlet;
#X obj 43 197 outlet;
#X obj 161 205 outlet;
#X obj 332 209 outlet;
#X connect 0 0 2 0;
#X connect 0 2 4 0;
#X connect 0 4 3 0;
#X connect 0 6 4 0;
#X connect 0 7 2 0;
#X connect 0 8 2 0;
#X connect 0 10 4 0;
#X connect 0 12 2 0;
#X connect 0 14 3 0;
#X connect 0 14 4 0;
#X connect 1 0 0 0;
#X restore 99 113 pd seq1;
#X connect 0 0 3 0;
#X connect 1 0 3 0;
#X connect 2 0 12 0;
#X connect 4 0 8 0;
#X connect 5 0 0 0;
#X connect 6 0 1 0;
#X connect 7 0 4 0;
#X connect 8 0 3 0;
#X connect 9 0 8 1;
#X connect 10 0 9 0;
#X connect 11 0 10 0;
#X connect 12 0 0 0;
#X connect 12 1 1 0;
#X connect 12 2 4 0;
#X restore 275 281 pd seq;
#X obj 126 137 f;
#X obj 159 138 + 1;
#X obj 158 161 % 16;
#X obj 397 122 moses 7;
#X floatatom 40 416 5 0 0 0 - - -;
#X msg 217 331 0.2;
#N canvas 0 22 450 300 noisy 0;
#X obj 128 55 env~;
#X obj 102 273 outlet;
#X obj 178 276 outlet;
#X obj 127 159 +;
#X obj 128 32 inlet~;
#X floatatom 42 208 5 0 0 0 - - -;
#X obj 168 162 * 0.98;
#X obj 126 185 * 0.02;
#X obj 192 33 inlet;
#X obj 192 86 f;
#X msg 193 58 bang;
#X obj 192 119 * 50;
#X obj 266 277 outlet;
#X obj 116 235 moses 80;
#X connect 0 0 3 0;
#X connect 0 0 9 1;
#X connect 3 0 6 0;
#X connect 3 0 7 0;
#X connect 4 0 0 0;
#X connect 6 0 3 1;
#X connect 7 0 5 0;
#X connect 7 0 12 0;
#X connect 7 0 13 0;
#X connect 8 0 10 0;
#X connect 9 0 11 0;
#X connect 10 0 9 0;
#X connect 11 0 3 1;
#X connect 13 0 1 0;
#X connect 13 1 2 0;
#X restore 226 153 pd noisy;
#X obj 373 218 change;
#X obj 374 238 sel 1;
#X obj 398 144 bng 15 250 50 0 empty empty empty 17 7 0 10 -262144
-1 -1;
#X obj 444 142 bng 15 250 50 0 empty empty empty 17 7 0 10 -262144
-1 -1;
#X obj 374 256 tgl 15 0 empty empty empty 17 7 0 10 -262144 -1 -1 1
1;
#X obj 556 269 base;
#X msg 556 245 40;
#X msg 592 245 43;
#X obj 556 289 *~ 0.3;
#X obj 351 101 moses 5;
#X msg 711 214 3;
#X obj 557 223 sel 1;
#X obj 558 157 soundinput;
#X floatatom 557 204 5 0 0 0 - - -;
#X obj 372 198 > 80;
#X obj 422 217 loadbang;
#X msg 488 217 bang;
#X obj 374 317 line~;
#X obj 356 339 *~;
#X msg 374 297 0.5 10;
#X msg 429 297 0 4000;
#X obj 256 423 delread~ test1 1000;
#N canvas 0 22 450 300 hilow 0;
#X floatatom 90 173 5 0 0 0 - - -;
#X obj 90 107 env~;
#X floatatom 188 178 5 0 0 0 - - -;
#X obj 184 109 env~;
#X obj 91 192 >;
#X floatatom 90 214 5 0 0 0 - - -;
#X obj 90 126 +;
#X obj 131 129 * 0.98;
#X obj 89 152 * 0.02;
#X obj 201 131 +;
#X obj 242 134 * 0.98;
#X obj 200 157 * 0.02;
#X obj 91 38 inlet~;
#X obj 89 241 outlet;
#X obj 90 86 bp~ 100 6;
#X obj 184 86 bp~ 500 10;
#X connect 0 0 4 0;
#X connect 1 0 6 0;
#X connect 2 0 4 1;
#X connect 3 0 9 0;
#X connect 4 0 5 0;
#X connect 5 0 13 0;
#X connect 6 0 7 0;
#X connect 6 0 8 0;
#X connect 7 0 6 1;
#X connect 8 0 0 0;
#X connect 9 0 10 0;
#X connect 9 0 11 0;
#X connect 10 0 9 1;
#X connect 11 0 2 0;
#X connect 12 0 14 0;
#X connect 12 0 15 0;
#X connect 14 0 1 0;
#X connect 15 0 3 0;
#X restore 558 180 pd hilow;
#X obj 313 260 * 400;
#X obj 86 356 *~ 0.6;
#X obj 86 268 + 1000;
#X obj 79 108 metro 250;
#X obj 86 380 lop~ 1000;
#X obj 180 449 delread~ test1 1500;
#X obj 374 274 sel 0;
#X obj 423 240 metro 180000;
#X obj 86 247 * 300;
#X msg 184 331 0.8;
#X connect 0 0 32 0;
#X connect 0 0 57 0;
#X connect 0 0 16 0;
#X connect 0 0 16 1;
#X connect 1 0 0 0;
#X connect 2 0 59 0;
#X connect 3 0 59 0;
#X connect 5 0 64 0;
#X connect 6 0 4 0;
#X connect 6 1 4 0;
#X connect 9 0 14 0;
#X connect 14 0 42 0;
#X connect 14 0 56 0;
#X connect 17 0 15 0;
#X connect 17 1 15 1;
#X connect 19 0 43 0;
#X connect 20 0 18 0;
#X connect 22 0 59 1;
#X connect 23 0 1 0;
#X connect 24 0 5 0;
#X connect 25 0 51 0;
#X connect 26 0 27 0;
#X connect 27 0 28 0;
#X connect 28 0 26 1;
#X connect 28 0 25 0;
#X connect 29 0 25 3;
#X connect 29 0 35 0;
#X connect 29 1 25 1;
#X connect 29 1 36 0;
#X connect 31 0 57 1;
#X connect 32 0 65 0;
#X connect 32 1 31 0;
#X connect 32 2 47 0;
#X connect 33 0 34 0;
#X connect 34 0 37 0;
#X connect 37 0 62 0;
#X connect 38 0 41 0;
#X connect 39 0 38 0;
#X connect 40 0 38 0;
#X connect 41 0 51 0;
#X connect 42 1 29 0;
#X connect 43 0 20 0;
#X connect 44 0 39 0;
#X connect 44 1 40 0;
#X connect 45 0 55 0;
#X connect 46 0 44 0;
#X connect 47 0 33 0;
#X connect 48 0 63 0;
#X connect 49 0 63 0;
#X connect 50 0 51 1;
#X connect 52 0 50 0;
#X connect 53 0 50 0;
#X connect 54 0 16 1;
#X connect 55 0 46 0;
#X connect 56 0 25 4;
#X connect 57 0 60 0;
#X connect 58 0 23 0;
#X connect 59 0 26 0;
#X connect 59 0 24 0;
#X connect 60 0 4 0;
#X connect 61 0 16 0;
#X connect 62 0 52 0;
#X connect 62 1 53 0;
#X connect 63 0 37 0;
#X connect 64 0 58 0;
#X connect 65 0 57 1;
