#N canvas 468 242 559 318 10;
#X obj 141 48 noise~;
#X obj 229 258 outlet~;
#X obj 171 194 *~;
#X obj 229 121 line~;
#X obj 232 38 inlet;
#X floatatom 75 27 5 0 0 0 - - -;
#X obj 75 47 osc~ 340;
#X msg 230 83 1 \, 0 70;
#X obj 163 129 *~ 0.2;
#X connect 0 0 8 0;
#X connect 2 0 1 0;
#X connect 3 0 2 1;
#X connect 4 0 7 0;
#X connect 5 0 6 0;
#X connect 6 0 8 0;
#X connect 7 0 3 0;
#X connect 8 0 2 0;
