#N canvas 46 43 452 282 10;
#N canvas 473 269 499 173 MODULE_INFO 0;
#X text 64 49 authors: Reality Jockey;
#X text 65 133 decorator: s1m1-s2m1;
#X text 65 153 tags:;
#X text 65 69 description: Based on the original 'Love by Air' App
- Voler creates a moving texture of sound with sampled reality. The
Uplifts parameter changes the time between each 'uplift' and Direction
dictates whether the effect rises or falls.;
#X text 68 27 name: AIR_Voler;
#X restore 53 17 pd MODULE_INFO;
#X obj 53 47 inlet~ MIC;
#X obj 191 229 outlet;
#X obj 53 229 outlet~;
#X obj 113 229 outlet~;
#X obj 191 47 inlet;
#N canvas 432 22 287 570 \$0-DSP 0;
#X obj 23 310 lop~ 3000;
#X obj 40 283 catch~ FB;
#X obj 40 162 e_freqshift;
#X msg 114 141 freq \$1;
#X obj 23 453 e_pan;
#N canvas 708 109 139 319 clfo 0;
#X obj 24 141 * 6.2824;
#X obj 24 161 cos;
#X obj 24 241 outlet;
#X obj 24 101 mod 512;
#X obj 24 121 / 512;
#X obj 70 76 inlet;
#X obj 24 56 r \$0-tick;
#X obj 24 201 * 0.4;
#X obj 24 181 + 1;
#X obj 24 222 + 0.1;
#X connect 0 0 1 0;
#X connect 1 0 8 0;
#X connect 3 0 4 0;
#X connect 4 0 0 0;
#X connect 5 0 3 1;
#X connect 5 0 4 1;
#X connect 6 0 3 0;
#X connect 7 0 9 0;
#X connect 8 0 7 0;
#X connect 9 0 2 0;
#X restore 55 430 pd clfo;
#X obj 40 243 hip~ 400;
#X obj 40 205 lop~ 4500;
#X obj 40 224 lop~ 4500;
#N canvas 0 22 599 480 wql-tanh 0;
#X obj 140 70 inlet~;
#X text 392 94 __;
#X text 474 94 __;
#X text 426 94 __;
#X text 525 94 __;
#X text 392 111 1 +;
#X text 428 111 3 +;
#X text 476 111 5 +;
#X text 526 111 7 +;
#X text 342 37 As a continued fraction;
#X obj 139 153 *~;
#X obj 64 270 /~;
#X obj 64 355 /~;
#X obj 64 293 /~;
#X obj 64 326 /~;
#X text 326 83 tanh(z) = z z^2 4z^2 9z^2 ...;
#X obj 191 180 *~ 4;
#X obj 190 211 +~ 3;
#X obj 234 179 *~ 9;
#X obj 233 210 +~ 5;
#X obj 274 180 *~ 16;
#X obj 273 210 +~ 7;
#X obj 139 211 +~ 1;
#X obj 64 406 outlet~;
#X obj 64 377 *~ 576;
#X obj 140 94 *~ 0.308319;
#X text 175 119 1/pi;
#X connect 0 0 25 0;
#X connect 10 0 16 0;
#X connect 10 0 18 0;
#X connect 10 0 20 0;
#X connect 10 0 22 0;
#X connect 11 0 13 0;
#X connect 12 0 24 0;
#X connect 13 0 14 0;
#X connect 14 0 12 0;
#X connect 16 0 17 0;
#X connect 17 0 13 1;
#X connect 18 0 19 0;
#X connect 19 0 14 1;
#X connect 20 0 21 0;
#X connect 21 0 12 1;
#X connect 22 0 11 1;
#X connect 24 0 23 0;
#X connect 25 0 10 1;
#X connect 25 0 10 0;
#X connect 25 0 11 0;
#X restore 23 119 pd wql-tanh;
#X obj 23 521 outlet~;
#X obj 55 502 outlet~;
#X obj 40 263 throw~ FB;
#X obj 23 14 inlet~;
#X obj 23 361 clip~ -1 1;
#X obj 40 183 *~ 0.7;
#X obj 40 55 m_scale 0 1 1000 1;
#X obj 114 119 m_scale 0 1 -400 400;
#X obj 114 98 r \$0-Direction;
#X obj 55 408 m_scale 0 1 500 10;
#X obj 55 385 r \$0-Pan_Speed;
#X obj 40 34 r \$0-Uplifts;
#X obj 40 77 delread~ \$0-abc 585.5;
#X obj 45 333 delwrite~ \$0-abc 1000;
#X connect 0 0 14 0;
#X connect 0 0 23 0;
#X connect 1 0 0 0;
#X connect 2 0 15 0;
#X connect 3 0 2 1;
#X connect 4 0 10 0;
#X connect 4 1 11 0;
#X connect 5 0 4 1;
#X connect 6 0 12 0;
#X connect 7 0 8 0;
#X connect 8 0 6 0;
#X connect 9 0 0 0;
#X connect 13 0 9 0;
#X connect 14 0 4 0;
#X connect 15 0 7 0;
#X connect 16 0 22 0;
#X connect 17 0 3 0;
#X connect 18 0 17 0;
#X connect 19 0 5 0;
#X connect 20 0 19 0;
#X connect 21 0 16 0;
#X connect 22 0 2 0;
#X restore 53 165 pd \$0-DSP;
#N canvas 586 69 160 217 \$0-INPUT 0;
#X obj 41 28 inlet~;
#X obj 41 164 outlet~;
#X obj 41 63 hip~ 100;
#X obj 41 84 hip~ 100;
#X obj 41 105 lop~ 5000;
#X obj 41 126 lop~ 5000;
#X connect 0 0 2 0;
#X connect 2 0 3 0;
#X connect 3 0 4 0;
#X connect 4 0 5 0;
#X connect 5 0 1 0;
#X restore 53 105 pd \$0-INPUT;
#N canvas 483 144 346 291 \$0-PARAMETERS 0;
#X obj 110 252 outlet;
#X obj 43 70 s \$0-tick;
#X obj 43 5 inlet;
#X obj 106 132 cnv 15 187 107 empty empty empty 10 12 1 14 -162280
-262144 0;
#X obj 106 106 cnv 15 187 20 empty empty AIR_Voler 50 11 1 14 -261234
-33289 0;
#X obj 43 37 route tick;
#X obj 110 171 rjc_parameter_floatrange \$0 Direction 0.7;
#X obj 110 205 rjc_parameter_floatrange \$0 Pan_Speed 0.2;
#X obj 110 136 rjc_parameter_floatrange \$0 Uplifts 0.7;
#X connect 2 0 5 0;
#X connect 5 0 1 0;
#X connect 5 1 8 0;
#X connect 6 0 7 0;
#X connect 7 0 0 0;
#X connect 8 0 6 0;
#X coords 0 -1 1 1 200 146 2 100 100;
#X restore 191 73 pd \$0-PARAMETERS;
#X connect 1 0 7 0;
#X connect 5 0 8 0;
#X connect 6 0 3 0;
#X connect 6 1 4 0;
#X connect 7 0 6 0;
#X connect 8 0 2 0;
