#N canvas 149 308 785 500 10;
#N canvas 678 112 567 355 MODULE_INFO 0;
#X text 64 79 authors: Reality Jockey \, Damien Stewart;
#X text 66 205 decorator: s1m1-s2m1;
#X text 66 226 tags:;
#X text 65 99 description: From the scene made by Damien Stewart. Eargasm
makes your input material resonate certain chosen frequencies. The
notes of the chord can be changed within Pd. Delay times are tempo-synced
but the DelTime parameter gives control of the beat division.;
#X text 66 57 name: Eargasm;
#X restore 14 3 pd MODULE_INFO;
#X obj 14 34 inlet~;
#X obj 14 232 outlet~;
#X obj 74 232 outlet~;
#X obj 132 424 outlet;
#X obj 132 -26 inlet;
#N canvas 227 132 943 668 \$0-PARAMETERS 0;
#X obj 301 463 outlet;
#X obj -118 45 inlet;
#X obj 518 374 int;
#X obj 518 394 + 1;
#X obj 518 414 t b f;
#X obj 582 326 t f b;
#X obj 582 283 * 2;
#X obj 550 444 f;
#X obj 518 464 /;
#X obj 582 219 t b f;
#X obj 582 240 60000;
#X obj 582 261 /;
#X obj 582 304 f;
#X obj 518 190 t f b;
#X obj 582 199 r \$0-bpm;
#X obj 518 354 * 9;
#X obj 518 488 s \$0-Delay;
#X obj 518 129 r \$0-DelTime;
#X obj -118 340 s \$0-tick;
#X obj -118 77 route tick bpm rootnote;
#X obj 106 132 cnv 15 384 322 empty empty RJC_Parameters 10 12 1 14
-162280 -262144 0;
#X obj 106 106 cnv 15 384 20 empty empty Eargasm 158 11 1 14 -261234
-33289 0;
#X obj -13 300 s \$0-rootnote;
#X obj -66 319 s \$0-bpm;
#X obj 468 137 bng 15 250 50 0 \$0-clear empty Clear -40 8 1 15 -227289
-1 -262144;
#X obj 53 503 u_collect;
#X obj 21 467 t b f;
#X obj 53 541 s \$0-freqs;
#X obj 109 155 abs/octave \$0 0;
#X text 194 291 Note: Only 3 notes at a time!;
#X text 260 137 Click here to begin -->;
#X obj 111 383 rjc_parameter_floatrange \$0 DelTime 0.3;
#X obj 111 418 rjc_parameter_floatrange \$0 Cut-off 1;
#X obj 301 383 rjc_parameter_floatrange \$0 DelFeedback 0.75;
#X obj 301 418 rjc_parameter_floatrange \$0 Octave 0.45;
#X obj 126 486 t b b b;
#X msg 126 510 set;
#X obj 126 465 r \$0-clear;
#X msg 172 510 set -1 -1 -1;
#X obj 518 150 m_scale 0 1 1 0;
#X connect 1 0 19 0;
#X connect 2 0 3 0;
#X connect 3 0 4 0;
#X connect 4 0 8 0;
#X connect 4 1 7 0;
#X connect 5 0 8 0;
#X connect 5 1 7 0;
#X connect 6 0 12 0;
#X connect 7 0 8 1;
#X connect 8 0 16 0;
#X connect 9 0 10 0;
#X connect 9 1 11 1;
#X connect 10 0 11 0;
#X connect 11 0 6 0;
#X connect 12 0 5 0;
#X connect 13 0 15 0;
#X connect 13 1 12 0;
#X connect 14 0 9 0;
#X connect 15 0 2 0;
#X connect 17 0 39 0;
#X connect 19 0 18 0;
#X connect 19 1 23 0;
#X connect 19 2 22 0;
#X connect 19 3 31 0;
#X connect 25 0 27 0;
#X connect 26 0 27 0;
#X connect 26 1 25 0;
#X connect 28 0 26 0;
#X connect 31 0 32 0;
#X connect 32 0 33 0;
#X connect 33 0 34 0;
#X connect 34 0 0 0;
#X connect 35 0 36 0;
#X connect 35 1 27 0;
#X connect 35 2 38 0;
#X connect 36 0 27 0;
#X connect 37 0 35 0;
#X connect 38 0 27 0;
#X connect 39 0 13 0;
#X coords 0 -1 1 1 396 360 2 100 100;
#X restore 132 55 pd \$0-PARAMETERS;
#N canvas 321 221 257 383 \$0-DSP 0;
#N canvas 407 83 424 435 compression 0;
#X obj 41 110 env~;
#X obj 41 131 / 100;
#X obj 23 45 hip~ 5;
#X text 74 45 remove DC offset;
#X obj 23 360 *~;
#X obj 23 18 inlet~;
#X obj 23 69 *~ 0.15;
#X obj 23 389 outlet~;
#X obj 41 308 line~;
#X obj 41 277 pack 0 10;
#X text 116 277 smooth from signal rate to audio rate;
#X text 113 297 first arg / right inlet sets smooth time;
#X obj 41 200 exp;
#X obj 41 177 * 2;
#X obj 73 201 exp;
#X obj 73 177 * 2;
#X obj 41 245 /;
#X obj 41 222 - 1;
#X obj 73 222 + 1;
#X obj 41 154 t a a;
#X text 108 202 tanh;
#X connect 0 0 1 0;
#X connect 1 0 19 0;
#X connect 2 0 6 0;
#X connect 4 0 7 0;
#X connect 5 0 2 0;
#X connect 6 0 4 0;
#X connect 6 0 0 0;
#X connect 8 0 4 1;
#X connect 9 0 8 0;
#X connect 12 0 17 0;
#X connect 13 0 12 0;
#X connect 14 0 18 0;
#X connect 15 0 14 0;
#X connect 16 0 9 0;
#X connect 17 0 16 0;
#X connect 18 0 16 1;
#X connect 19 0 13 0;
#X connect 19 1 15 0;
#X restore 20 287 pd compression;
#N canvas 21 395 227 241 delay 0;
#X obj 17 21 inlet~;
#X obj 17 195 outlet~;
#X obj 37 70 *~ 1;
#N canvas 443 58 312 375 delay 0;
#X obj 18 251 outlet~;
#X obj 34 109 hip~ 450;
#X obj 18 25 inlet;
#X obj 34 133 delwrite~ \$0-a 10000;
#X obj 18 170 delread~ \$0-a 292.754;
#X obj 34 45 catch~ \$0-delayeargasm;
#X obj 87 251 s~ \$0-dfa;
#X obj 48 84 r~ \$0-dfa;
#X obj 87 228 *~ 0.4;
#X obj 126 189 r \$0-DelFeedback;
#X obj 126 208 m_scale 0 1 0.1 0.95;
#X connect 1 0 3 0;
#X connect 2 0 4 0;
#X connect 4 0 0 0;
#X connect 4 0 8 0;
#X connect 5 0 1 0;
#X connect 7 0 1 0;
#X connect 8 0 6 0;
#X connect 9 0 10 0;
#X connect 10 0 8 1;
#X coords 0 0 1 1 130 100 0;
#X restore 85 147 pd delay;
#X obj 85 24 inlet;
#X obj 37 98 throw~ \$0-delayeargasm;
#X connect 0 0 2 0;
#X connect 0 0 1 0;
#X connect 2 0 5 0;
#X connect 3 0 1 0;
#X connect 4 0 3 0;
#X restore 20 167 pd delay;
#N canvas 67 283 561 459 resonator 0;
#X obj 116 318 loadbang;
#X obj 13 68 inlet~;
#X obj 13 434 outlet~;
#X msg 116 367 drywet 0.86;
#N canvas 498 536 782 488 resonator 0;
#X obj 53 163 inlet~;
#X obj 53 422 outlet~;
#X msg 191 191 freq \$1;
#X msg 281 193 freq \$1;
#X msg 371 193 freq \$1;
#X obj 191 80 inlet;
#X obj 191 104 route freq fb drywet;
#X obj 53 305 *~ 3;
#X obj 124 298 *~ 1;
#X obj 214 302 *~ 1;
#X obj 304 302 *~ 1;
#X msg 451 193 fb \$1;
#X obj 191 136 unpack f f f;
#X obj 105 260 abs/d-resunit~;
#X obj 214 259 abs/d-resunit~;
#X obj 332 259 abs/d-resunit~;
#X obj 53 373 abs/d-drywet~ 0.5;
#X connect 0 0 7 0;
#X connect 0 0 13 0;
#X connect 0 0 14 0;
#X connect 0 0 15 0;
#X connect 2 0 13 1;
#X connect 3 0 14 1;
#X connect 4 0 15 1;
#X connect 5 0 6 0;
#X connect 6 0 12 0;
#X connect 6 1 11 0;
#X connect 6 2 16 2;
#X connect 7 0 16 0;
#X connect 8 0 16 1;
#X connect 9 0 16 1;
#X connect 10 0 16 1;
#X connect 11 0 13 1;
#X connect 11 0 14 1;
#X connect 11 0 15 1;
#X connect 12 0 2 0;
#X connect 12 1 3 0;
#X connect 12 2 4 0;
#X connect 13 0 8 0;
#X connect 14 0 9 0;
#X connect 15 0 10 0;
#X connect 16 0 1 0;
#X restore 13 383 pd resonator;
#X obj 94 84 r \$0-freqs;
#X msg 208 367 fb 0.98;
#X obj 176 84 loadbang;
#X obj 94 262 pack f f f;
#X msg 94 289 freq \$1 \$2 \$3;
#X obj 94 144 list split 1;
#X obj 134 167 list split 1;
#X obj 174 190 list split 1;
#X obj 94 179 +;
#X obj 134 201 +;
#X obj 174 218 +;
#X obj 94 200 mtof;
#X obj 134 222 mtof;
#X obj 174 239 mtof;
#X obj 245 21 r \$0-Octave;
#X obj 245 63 int;
#X obj 245 84 t b f;
#X obj 277 108 * 12;
#X obj 245 42 m_scale 0 1 2 6;
#X msg 94 122 12 17 19;
#X connect 0 0 3 0;
#X connect 0 0 6 0;
#X connect 1 0 4 0;
#X connect 3 0 4 1;
#X connect 4 0 2 0;
#X connect 5 0 24 0;
#X connect 6 0 4 1;
#X connect 7 0 24 0;
#X connect 8 0 9 0;
#X connect 9 0 4 1;
#X connect 10 0 13 0;
#X connect 10 1 11 0;
#X connect 11 0 14 0;
#X connect 11 1 12 0;
#X connect 12 0 15 0;
#X connect 13 0 16 0;
#X connect 14 0 17 0;
#X connect 15 0 18 0;
#X connect 16 0 8 0;
#X connect 17 0 8 1;
#X connect 18 0 8 2;
#X connect 19 0 23 0;
#X connect 20 0 21 0;
#X connect 21 0 24 0;
#X connect 21 1 22 0;
#X connect 22 0 15 1;
#X connect 22 0 14 1;
#X connect 22 0 13 1;
#X connect 23 0 20 0;
#X connect 24 0 10 0;
#X restore 20 60 pd resonator;
#X obj 20 238 lop~ 3000;
#X obj 20 258 lop~ 3000;
#X obj 20 17 inlet~;
#X obj 20 347 outlet~;
#X obj 112 347 outlet~;
#X obj 73 111 r \$0-Delay;
#X obj 80 216 m_scale 0 1 100 3000;
#X obj 80 195 r \$0-Cut-off;
#X connect 0 0 6 0;
#X connect 0 0 7 0;
#X connect 1 0 3 0;
#X connect 2 0 1 0;
#X connect 3 0 4 0;
#X connect 4 0 0 0;
#X connect 5 0 2 0;
#X connect 8 0 1 1;
#X connect 9 0 3 1;
#X connect 9 0 4 1;
#X connect 10 0 9 0;
#X restore 14 161 pd \$0-DSP;
#N canvas 48 65 470 296 \$0-INPUT 0;
#X obj 19 100 inlet~ MIC;
#X obj 19 220 outlet~ TO-BODY;
#N canvas 689 161 298 511 nofeedback 0;
#X obj 48 28 inlet~;
#X obj 52 346 outlet~;
#N canvas 500 156 450 300 monsterlop 0;
#X obj 138 260 outlet~;
#X obj 136 16 inlet~;
#X obj 138 47 lop~ \$1;
#X obj 310 17 inlet;
#X obj 138 72 lop~ \$1;
#X obj 139 97 lop~ \$1;
#X obj 138 122 lop~ \$1;
#X obj 138 148 lop~ \$1;
#X obj 138 173 lop~ \$1;
#X obj 139 198 lop~ \$1;
#X obj 138 223 lop~ \$1;
#X connect 1 0 2 0;
#X connect 2 0 4 0;
#X connect 3 0 2 1;
#X connect 3 0 4 1;
#X connect 3 0 5 1;
#X connect 3 0 6 1;
#X connect 3 0 7 1;
#X connect 3 0 8 1;
#X connect 3 0 9 1;
#X connect 3 0 10 1;
#X connect 4 0 5 0;
#X connect 5 0 6 0;
#X connect 6 0 7 0;
#X connect 7 0 8 0;
#X connect 8 0 9 0;
#X connect 9 0 10 0;
#X connect 10 0 0 0;
#X restore 52 277 pd monsterlop;
#X obj 140 224 loadbang;
#X msg 140 245 3000;
#X obj 77 193 min 3000;
#X obj 77 217 max 80;
#X obj 75 63 env~ 1024;
#X obj 77 168 +;
#X obj 77 143 * 0.05;
#X obj 109 169 * 0.95;
#X obj 52 300 hip~ 80;
#X obj 52 323 hip~ 80;
#X obj 76 118 m_scale 85 90 3500 80;
#X obj 76 88 clip 85 90;
#X connect 0 0 7 0;
#X connect 0 0 2 0;
#X connect 2 0 11 0;
#X connect 3 0 4 0;
#X connect 4 0 2 1;
#X connect 5 0 6 0;
#X connect 6 0 2 1;
#X connect 7 0 14 0;
#X connect 8 0 5 0;
#X connect 8 0 10 0;
#X connect 9 0 8 0;
#X connect 10 0 8 1;
#X connect 11 0 12 0;
#X connect 12 0 1 0;
#X connect 13 0 9 0;
#X connect 14 0 13 0;
#X restore 19 140 pd nofeedback;
#X text 119 141 <-- Low-pass filtered if the signal is too hot;
#X obj 19 180 *~ 0.6;
#X connect 0 0 2 0;
#X connect 2 0 4 0;
#X connect 4 0 1 0;
#X restore 14 84 pd \$0-INPUT;
#X text 138 -7 Use the keyboard below to choose the notes you would
like the microphone input to resonate. Start by pressing the Clear
button on the top right and then toggle on 3 notes.;
#X text 138 35 Clear must be pressed before toggling on new notes.
;
#X connect 1 0 8 0;
#X connect 5 0 6 0;
#X connect 6 0 4 0;
#X connect 7 0 2 0;
#X connect 7 1 3 0;
#X connect 8 0 7 0;
