#N canvas 271 0 1013 913 10;
#X obj 8 168 cnv 15 148 160 empty empty empty 20 12 0 14 -220917 -66577
0;
#X obj 275 339 inlet~;
#X obj 435 339 inlet~;
#X obj 46 689 outlet~;
#X obj 413 250 hip~ 5;
#X obj 234 241 hip~ 5;
#X obj 235 272 lop~ 22050;
#X obj 411 274 lop~ 22050;
#X obj 372 664 s~ \$0-fbr;
#X obj 183 647 s~ \$0-fbl;
#X obj 185 376 line~;
#X obj 372 362 line~;
#X msg 370 336 \$1 10;
#X obj 372 499 hip~ 0;
#X obj 372 539 lop~ 22050;
#X obj 185 545 lop~ 22050;
#X obj 185 502 hip~ 0;
#X obj 185 599 *~;
#X obj 372 603 *~;
#X obj 13 177 vsl 15 128 1 3000 0 0 empty empty empty 0 -9 0 10 -262144
-1 -1 3172 1;
#X text 10 310 time;
#X obj 81 177 vsl 15 128 10 22050 1 0 empty empty empty 0 -9 0 10 -262144
-1 -1 9429 1;
#X obj 96 177 vsl 15 128 10 22050 1 0 empty empty empty 0 -9 0 10 -262144
-1 -1 12264 1;
#X obj 54 177 vsl 15 128 0 1 0 0 empty empty empty 0 -9 0 10 -262144
-1 -1 3810 1;
#X obj 204 573 d-smooth~;
#X obj 389 573 d-smooth~;
#X obj 125 177 vsl 15 128 0 1 0 0 empty empty empty 0 -9 0 10 -262144
-1 -1 6350 1;
#X obj 56 650 d-drywet~;
#X obj 287 694 outlet~;
#X obj 292 665 d-drywet~;
#X msg 184 339 \$1 10;
#X obj 55 12 r panic;
#X text 80 309 hi;
#X text 98 309 lo;
#X text 123 309 lvl;
#X obj 249 391 delwrite~ \$0-left 4000;
#X obj 185 466 vd~ \$0-left;
#X obj 372 456 vd~ \$0-right;
#X obj 420 364 delwrite~ \$0-right 4000;
#X obj 28 177 vsl 15 128 0.666667 1.5 1 0 empty empty empty 0 -9 0
10 -262144 -1 -1 6350 1;
#X obj 368 296 t b a;
#X obj 764 28 inlet;
#X obj 233 212 r~ \$0-fbr;
#X obj 412 213 r~ \$0-fbl;
#X obj 610 157 random 100;
#X obj 610 179 / 100;
#X obj 610 204 d-sq;
#X obj 610 136 metro 500;
#X obj 668 86 random 1000;
#X obj 668 111 + 500;
#X floatatom 615 288 5 0 0 0 - - -;
#X text 704 292 flutter;
#X obj 372 422 *~;
#X obj 185 423 *~;
#X obj 608 256 + 0.985;
#X obj 609 230 * 0.05;
#X obj 608 310 d-smooth~ 700;
#X obj 600 73 loadbang;
#X obj 698 206 / -2;
#X obj 698 226 + 1;
#X floatatom 714 276 10 0 0 0 - - -;
#X obj 17 44 d-default \$1 500;
#X obj 27 64 d-default \$2 1;
#X obj 137 44 d-default \$3 0.3;
#X obj 145 63 d-default \$4 0;
#X obj 265 45 d-default \$5 22050;
#X msg 54 141 0.3;
#X obj 276 64 d-default \$6 0.5;
#X obj 698 184 d-default \$7 0.01;
#X obj 369 317 * 1;
#X floatatom 492 449 5 0 0 0 - - -;
#X floatatom 12 340 5 0 0 0 - - -;
#X obj 40 311 bng 12 250 50 0 empty empty empty 17 7 0 10 -262144 -1
-1;
#X msg 68 370 1;
#X text 58 308 fb;
#X obj 9 114 route time timediff fb hi lo lvl flutter;
#X connect 1 0 27 0;
#X connect 1 0 35 0;
#X connect 2 0 29 0;
#X connect 2 0 38 0;
#X connect 4 0 7 0;
#X connect 5 0 6 0;
#X connect 6 0 35 0;
#X connect 7 0 38 0;
#X connect 10 0 53 0;
#X connect 11 0 52 0;
#X connect 12 0 11 0;
#X connect 13 0 14 0;
#X connect 14 0 18 0;
#X connect 14 0 29 1;
#X connect 15 0 17 0;
#X connect 15 0 27 1;
#X connect 16 0 15 0;
#X connect 17 0 9 0;
#X connect 18 0 8 0;
#X connect 19 0 30 0;
#X connect 19 0 69 0;
#X connect 19 0 71 0;
#X connect 21 0 16 1;
#X connect 21 0 13 1;
#X connect 22 0 15 1;
#X connect 22 0 14 1;
#X connect 23 0 24 0;
#X connect 23 0 25 0;
#X connect 24 0 17 1;
#X connect 25 0 18 1;
#X connect 26 0 27 2;
#X connect 26 0 29 2;
#X connect 27 0 3 0;
#X connect 29 0 28 0;
#X connect 30 0 10 0;
#X connect 31 0 66 0;
#X connect 36 0 16 0;
#X connect 37 0 13 0;
#X connect 39 0 40 0;
#X connect 40 0 69 0;
#X connect 40 1 69 1;
#X connect 41 0 75 0;
#X connect 42 0 5 0;
#X connect 43 0 4 0;
#X connect 44 0 45 0;
#X connect 45 0 46 0;
#X connect 46 0 55 0;
#X connect 47 0 48 0;
#X connect 47 0 44 0;
#X connect 48 0 49 0;
#X connect 49 0 47 1;
#X connect 52 0 37 0;
#X connect 53 0 36 0;
#X connect 54 0 50 0;
#X connect 54 0 56 0;
#X connect 55 0 54 0;
#X connect 56 0 52 1;
#X connect 56 0 53 1;
#X connect 57 0 47 0;
#X connect 58 0 59 0;
#X connect 59 0 54 1;
#X connect 59 0 60 0;
#X connect 61 0 19 0;
#X connect 62 0 39 0;
#X connect 63 0 23 0;
#X connect 64 0 21 0;
#X connect 65 0 22 0;
#X connect 66 0 23 0;
#X connect 67 0 26 0;
#X connect 68 0 58 0;
#X connect 68 0 55 1;
#X connect 69 0 12 0;
#X connect 69 0 70 0;
#X connect 72 0 73 0;
#X connect 73 0 39 0;
#X connect 75 0 19 0;
#X connect 75 1 39 0;
#X connect 75 2 23 0;
#X connect 75 3 21 0;
#X connect 75 4 22 0;
#X connect 75 5 26 0;
#X connect 75 6 68 0;
#X coords 0 -1 1 1 150 180 1 7 150;
