#N canvas 0 101 983 637 10;
#X obj 35 49 inlet;
#X text 7 22 base key (midi note);
#X obj 125 117 loadbang;
#X text 260 152 Dorian;
#X text 132 153 Ionian/major;
#X text 369 151 Phrygian;
#X text 488 151 Lydian;
#X text 602 151 Mixolydian;
#X text 722 151 Aeolian;
#X text 503 188 Locrian;
#X obj 112 350 + 2;
#X obj 169 350 + 2;
#X obj 253 356 + 2;
#X obj 323 355 + 1;
#X obj 415 350 + 2;
#X obj 485 357 + 2;
#X text 608 192 pentatonic;
#X text 732 195 pentatonic minor;
#X text 718 249 in sen;
#X obj 266 70 symbol \$1;
#X obj 267 46 loadbang;
#X obj 199 28 inlet;
#X text 200 0 mode;
#X obj 733 122 print ***d-modesBADMODE***;
#X obj 561 357 + 2;
#X obj 144 279 unpack f f f f f f f;
#X msg 134 169 2 2 1 2 2 2 1;
#X msg 263 170 2 1 2 2 2 1 2;
#X msg 373 168 1 2 2 2 1 2 2;
#X msg 494 168 2 2 2 1 2 2 1;
#X msg 607 167 2 2 1 2 2 1 2;
#X msg 724 167 2 1 2 2 1 2 2;
#X msg 507 205 1 2 2 1 2 2 2;
#X msg 612 209 2 2 3 2 3 2 2;
#X msg 735 211 2 1 4 2 3 2 1;
#X msg 716 265 1 3 2 3 2 1 3;
#X obj 43 373 random 100;
#X obj 27 437 +;
#X obj 42 401 * 0.001;
#X obj 28 465 outlet;
#X obj 187 398 random 100;
#X obj 171 462 +;
#X obj 186 426 * 0.001;
#X obj 172 490 outlet;
#X obj 253 424 random 100;
#X obj 237 488 +;
#X obj 252 452 * 0.001;
#X obj 238 516 outlet;
#X obj 338 418 random 100;
#X obj 322 482 +;
#X obj 337 446 * 0.001;
#X obj 323 510 outlet;
#X obj 430 392 random 100;
#X obj 414 456 +;
#X obj 429 420 * 0.001;
#X obj 415 484 outlet;
#X obj 489 425 random 100;
#X obj 473 489 +;
#X obj 488 453 * 0.001;
#X obj 474 517 outlet;
#X obj 576 430 random 100;
#X obj 560 494 +;
#X obj 575 458 * 0.001;
#X obj 561 522 outlet;
#X obj 107 408 random 100;
#X obj 91 472 +;
#X obj 106 436 * 0.001;
#X obj 92 500 outlet;
#X obj 266 110 select ionian dorian phrygian lydian mixolydian aeolian
locrian pentatonic pentatonic_altered in_sen;
#X obj 35 89 f \$2;
#X obj 780 516 outlet;
#X obj 721 395 f;
#X obj 751 395 f;
#X obj 781 395 f;
#X obj 811 395 f;
#X obj 720 415 f;
#X obj 751 415 f;
#X obj 781 415 f;
#X obj 811 415 f;
#X obj 719 348 sel 1 2 3 4 5 6 7 8;
#X text 433 9 right inlet: send in a number \, right outlet gets that
degree;
#X text 524 22 of the scale as a MIDI note;
#X obj 83 56 loadbang;
#X obj 713 42 inlet;
#X obj 721 323 f 0;
#X obj 201 44 t b b a;
#X connect 0 0 69 0;
#X connect 2 0 26 0;
#X connect 2 0 36 0;
#X connect 2 0 64 0;
#X connect 2 0 40 0;
#X connect 2 0 44 0;
#X connect 2 0 48 0;
#X connect 2 0 52 0;
#X connect 2 0 56 0;
#X connect 2 0 60 0;
#X connect 10 0 11 0;
#X connect 10 0 65 0;
#X connect 11 0 12 0;
#X connect 11 0 41 0;
#X connect 12 0 13 0;
#X connect 12 0 45 0;
#X connect 13 0 14 0;
#X connect 13 0 49 0;
#X connect 14 0 15 0;
#X connect 14 0 53 0;
#X connect 15 0 24 0;
#X connect 15 0 57 0;
#X connect 19 0 68 0;
#X connect 20 0 19 0;
#X connect 21 0 85 0;
#X connect 24 0 61 0;
#X connect 25 0 10 1;
#X connect 25 1 11 1;
#X connect 25 2 12 1;
#X connect 25 3 13 1;
#X connect 25 4 14 1;
#X connect 25 5 15 1;
#X connect 25 6 24 1;
#X connect 26 0 25 0;
#X connect 27 0 25 0;
#X connect 28 0 25 0;
#X connect 29 0 25 0;
#X connect 30 0 25 0;
#X connect 31 0 25 0;
#X connect 32 0 25 0;
#X connect 33 0 25 0;
#X connect 34 0 25 0;
#X connect 35 0 25 0;
#X connect 36 0 38 0;
#X connect 37 0 39 0;
#X connect 37 0 71 1;
#X connect 38 0 37 1;
#X connect 40 0 42 0;
#X connect 41 0 43 0;
#X connect 41 0 73 1;
#X connect 42 0 41 1;
#X connect 44 0 46 0;
#X connect 45 0 47 0;
#X connect 45 0 74 1;
#X connect 46 0 45 1;
#X connect 48 0 50 0;
#X connect 49 0 51 0;
#X connect 49 0 75 1;
#X connect 50 0 49 1;
#X connect 52 0 54 0;
#X connect 53 0 55 0;
#X connect 53 0 76 1;
#X connect 54 0 53 1;
#X connect 56 0 58 0;
#X connect 57 0 59 0;
#X connect 57 0 77 1;
#X connect 58 0 57 1;
#X connect 60 0 62 0;
#X connect 61 0 63 0;
#X connect 61 0 78 1;
#X connect 62 0 61 1;
#X connect 64 0 66 0;
#X connect 65 0 67 0;
#X connect 65 0 72 1;
#X connect 66 0 65 1;
#X connect 68 0 26 0;
#X connect 68 1 27 0;
#X connect 68 2 28 0;
#X connect 68 3 29 0;
#X connect 68 4 30 0;
#X connect 68 5 31 0;
#X connect 68 6 32 0;
#X connect 68 7 33 0;
#X connect 68 8 34 0;
#X connect 68 9 35 0;
#X connect 68 10 23 0;
#X connect 69 0 10 0;
#X connect 69 0 37 0;
#X connect 71 0 70 0;
#X connect 72 0 70 0;
#X connect 73 0 70 0;
#X connect 74 0 70 0;
#X connect 75 0 70 0;
#X connect 76 0 70 0;
#X connect 77 0 70 0;
#X connect 78 0 70 0;
#X connect 79 0 71 0;
#X connect 79 1 72 0;
#X connect 79 2 73 0;
#X connect 79 3 74 0;
#X connect 79 4 75 0;
#X connect 79 5 76 0;
#X connect 79 6 77 0;
#X connect 79 7 78 0;
#X connect 82 0 69 0;
#X connect 83 0 84 0;
#X connect 84 0 79 0;
#X connect 85 0 84 0;
#X connect 85 1 69 0;
#X connect 85 2 19 0;
