#N canvas 436 272 450 300 10;
#X obj 97 99 phase 0 out;
#X obj 96 125 isbigger onset 30;
#X obj 97 147 phase 1 out;
#X obj 98 202 phase 2 out;
#X msg 97 55 bang;
#X obj 245 61 metro 300;
#X floatatom 257 88 5 0 0 0 - - -;
#X obj 276 169 r out;
#X floatatom 275 197 5 0 0 0 - - -;
#X obj 235 37 tgl 15 0 empty empty empty 17 7 0 10 -262144 -1 -1 1
1;
#X msg 256 107 \; analyse onset \$1;
#X obj 98 169 isbigger onset 30;
#X connect 0 0 1 0;
#X connect 1 0 2 0;
#X connect 2 0 11 0;
#X connect 4 0 0 0;
#X connect 6 0 10 0;
#X connect 7 0 8 0;
#X connect 9 0 5 0;
#X connect 11 0 3 0;
