#N canvas 218 340 1123 591 10;
#X obj 499 401 sfile 7 player3 1 null 16;
#X obj 499 417 sfile 7 player4 1 null 16;
#X text 30 10 phase 0;
#X text 23 122 phase 1;
#X text 26 236 phase 2;
#X text 32 355 phase 3;
#X text 512 245 phase 6;
#X text 510 347 phase 7;
#X obj 15 156 sfile 1 player2 1 Bruits_verse_4bars.wav 64;
#X obj 15 188 sfile 1 player4 1 null 128;
#X obj 15 204 sfile 1 player5 1 null 128;
#X obj 17 30 sfile 0 player1 1 null 64;
#X obj 17 46 sfile 0 player2 1 Bruits_verse_4bars.wav 64;
#X obj 17 62 sfile 0 player3 1 null 64;
#X obj 17 78 sfile 0 player4 1 null 64;
#X obj 17 94 sfile 0 player5 1 null 64;
#X obj 18 286 sfile 2 player3 1 Percu_verse1_2bars.wav 32;
#X obj 18 254 sfile 2 player1 1 Guitar_verse_8bars.wav 128;
#X obj 18 270 sfile 2 player2 1 Bruits_verse_4bars.wav 64;
#X obj 496 84 sfile 4 player4 1 Accordeon_chorus1_8bars.wav 128;
#X text 507 122 phase 5;
#X text 508 19 phase 4;
#X obj 20 372 sfile 3 player1 1 Guitar_verse_8bars.wav 128;
#X obj 20 388 sfile 3 player2 1 Bruits_verse_4bars.wav 64;
#X obj 20 420 sfile 3 player3 1 Percu_verse1_2bars.wav 32;
#X obj 20 436 sfile 3 player4 1 GuitElec_verse2_4bars.wav 64;
#X obj 498 291 sfile 6 player3 1 null 128;
#X obj 498 307 sfile 6 player4 1 null 128;
#X obj 498 323 sfile 6 player5 1 null 128;
#X obj 495 155 sfile 5 player2 1 Percu_chorus1_4bars.wav 64;
#X obj 495 171 sfile 5 player3 2 Percu_chorus2_1bars.wav 128 null 128
;
#X obj 495 187 sfile 5 player4 1 Accordeon_chorus1_8bars.wav 128;
#X obj 495 218 sfile 5 player6 1 GuitElec_chorus1_4bars.wav 64;
#X obj 495 203 sfile 5 player5 1 Voz_chorus_2bars.wav 128;
#X obj 498 275 sfile 6 player2 1 Bruits_verse_4bars.wav 64;
#X obj 499 369 sfile 7 player1 1 null 16;
#X obj 499 385 sfile 7 player2 1 null 16;
#X obj 499 433 sfile 7 player5 1 null 16;
#X obj 498 259 sfile 6 player1 1 Accordeon_chorus1_8bars.wav 128;
#X obj 15 140 sfile 1 player1 1 Guitar_verse_8bars.wav 128;
#X obj 496 100 sfile 4 player5 1 null 128;
#X obj 18 332 sfile 2 player5 1 null 16;
#X obj 21 455 sfile 3 player5 1 null 128;
#X obj 18 302 sfile 2 player4 1 GuitElec_verse1_4bars.wav 64;
#X obj 15 172 sfile 1 player3 1 GuitElec_Intro_4bars.wav 64;
#X obj 496 68 sfile 4 player3 1 null 128;
#X obj 496 36 sfile 4 player1 1 Guitar_chorus1_4bars.wav 128;
#X obj 496 52 sfile 4 player2 1 Percu_chorus1_4bars.wav 64;
#X obj 495 139 sfile 5 player1 1 Guitar_chorus1_4bars.wav 128;
