#N canvas 512 221 607 459 10;
#X obj 58 114 readsf~ 2;
#X obj 169 26 adc~;
#X obj 59 411 outlet~;
#X obj 125 411 outlet~;
#X obj 146 335 *~ 1;
#X obj 59 334 *~ 0;
#X obj 102 334 *~ 0;
#X obj 203 272 inlet;
#X obj 111 307 == 0;
#X obj 57 44 inlet;
#X msg 58 90 open \$1 \, 1;
#X obj 58 68 symbol;
#X obj 189 336 *~ 1;
#X obj 209 193 r inputvolume;
#X obj 191 223 *~ 10;
#X obj 150 222 *~ 10;
#X obj 227 52 env~;
#X obj 224 143 line~;
#X obj 194 167 *~;
#X obj 148 170 *~;
#X msg 285 100 1 20;
#X obj 228 73 moses 50;
#X msg 228 102 0 1000;
#X connect 0 0 5 0;
#X connect 0 1 6 0;
#X connect 0 2 11 0;
#X connect 1 0 16 0;
#X connect 1 0 19 0;
#X connect 1 1 16 0;
#X connect 1 1 18 0;
#X connect 4 0 2 0;
#X connect 5 0 2 0;
#X connect 6 0 3 0;
#X connect 7 0 8 0;
#X connect 7 0 4 1;
#X connect 7 0 12 1;
#X connect 8 0 6 1;
#X connect 8 0 5 1;
#X connect 9 0 11 0;
#X connect 10 0 0 0;
#X connect 11 0 10 0;
#X connect 12 0 3 0;
#X connect 13 0 14 1;
#X connect 13 0 15 1;
#X connect 14 0 12 0;
#X connect 15 0 4 0;
#X connect 16 0 21 0;
#X connect 17 0 18 1;
#X connect 17 0 19 1;
#X connect 18 0 14 0;
#X connect 19 0 15 0;
#X connect 20 0 17 0;
#X connect 21 0 22 0;
#X connect 21 1 20 0;
#X connect 22 0 17 0;
