#N canvas 598 94 238 326 10;
#X obj 67 196 tabplay~ \$0s0;
#X obj 108 173 f;
#X obj 67 149 metro;
#X obj 67 173 t b b;
#X obj 93 239 *~;
#X obj 108 218 declip;
#X obj 67 69 inlet;
#X obj 168 21 inlet;
#X obj 153 46 bng 15 250 50 0 empty empty empty 0 -6 0 8 -262144 -1
-1;
#N canvas 394 259 527 352 tables 0;
#X obj 13 130 soundfiler;
#X obj 14 41 openpanel;
#X obj 13 86 pack s s;
#X msg 13 108 read -resize \$1 \$2;
#X obj 14 63 t s b;
#X obj 82 41 f \$0;
#X obj 63 64 makefilename %ds0;
#X obj 114 41 table \$0s0;
#X obj 267 194 table \$0sx;
#X obj 82 86 makefilename %dsx;
#X msg 81 250 \; 1139sx resize 22 \; 1139sx bounds 0 512 21 0 \; 1139sx
0 8 16 20 24 28 32 40 48 56 64 80 96 112 128 160 192 224 256 320 384
448 512;
#X msg 129 153 add;
#X msg 158 153 set;
#X obj 89 130 t b s s s b b;
#X msg 81 215 add2 \$1 0 8 16 20 24 28 32 40 48 56 64 80 96 112 128
160 192 224 256 320 384 448 512;
#X msg 101 173 add \$1 resize 22;
#X msg 89 194 add \$1 bounds 0 512 21 0;
#X obj 13 155 outlet;
#X obj 14 18 inlet;
#X connect 0 0 17 0;
#X connect 1 0 4 0;
#X connect 2 0 3 0;
#X connect 3 0 0 0;
#X connect 4 0 2 0;
#X connect 4 1 5 0;
#X connect 5 0 6 0;
#X connect 5 0 9 0;
#X connect 6 0 2 1;
#X connect 9 0 13 0;
#X connect 11 0 10 0;
#X connect 12 0 10 0;
#X connect 13 0 10 0;
#X connect 13 1 14 0;
#X connect 13 2 16 0;
#X connect 13 3 15 0;
#X connect 13 4 11 0;
#X connect 13 5 12 0;
#X connect 14 0 10 0;
#X connect 15 0 10 0;
#X connect 16 0 10 0;
#X connect 18 0 1 0;
#X restore 138 69 pd tables;
#X obj 93 287 outlet~;
#X obj 93 263 *~ 1;
#X obj 154 196 route 0 1;
#X obj 154 173 spigot 1;
#X obj 154 220 f 0;
#X obj 184 220 f 1;
#X obj 134 116 inlet;
#X obj 67 93 t f f;
#X obj 17 161 route 1;
#X obj 17 184 f 1;
#X obj 123 94 / 44.1;
#X connect 0 0 4 0;
#X connect 1 0 5 0;
#X connect 2 0 3 0;
#X connect 3 0 0 0;
#X connect 3 1 1 0;
#X connect 4 0 11 0;
#X connect 5 0 4 1;
#X connect 6 0 13 0;
#X connect 6 0 17 0;
#X connect 7 0 8 0;
#X connect 8 0 9 0;
#X connect 9 0 20 0;
#X connect 11 0 10 0;
#X connect 12 0 14 0;
#X connect 12 1 15 0;
#X connect 13 0 12 0;
#X connect 14 0 11 1;
#X connect 15 0 11 1;
#X connect 16 0 13 1;
#X connect 17 0 2 0;
#X connect 17 1 18 0;
#X connect 18 0 19 0;
#X connect 19 0 11 1;
#X connect 20 0 1 1;
#X connect 20 0 2 1;
