#N canvas 828 109 483 654 10;
#X obj 2 593 table \$0-a;
#X obj 16 22 inlet~;
#X obj 16 567 outlet~;
#X obj 51 199 phasor~;
#X obj 25 319 *~;
#X obj 38 228 samphold~;
#X obj 25 250 *~;
#X obj 39 155 1000;
#X obj 51 179 /;
#X obj 23 199 sig~;
#X obj 268 147 samphold~;
#X floatatom 235 130 5 0 0 0 - - -;
#X obj 235 147 osc~;
#X msg 260 105 1;
#X obj 260 82 loadbang;
#X obj 269 239 snapshot~;
#X obj 285 197 change;
#X obj 285 175 env~;
#X obj 335 208 bng 15 250 50 0 empty empty empty 17 7 0 10 -262144
-1 -1;
#N canvas 0 0 450 300 cfet 0;
#X obj 22 104 +~;
#X obj 22 127 outlet~;
#X obj 22 18 inlet~;
#X obj 35 82 *~;
#X obj 35 60 -~;
#X obj 65 18 inlet~;
#X obj 108 18 inlet;
#X obj 108 47 line 500;
#X floatatom 168 20 5 0 0 0 - - -;
#X connect 0 0 1 0;
#X connect 2 0 0 0;
#X connect 2 0 4 1;
#X connect 3 0 0 1;
#X connect 4 0 3 0;
#X connect 5 0 4 0;
#X connect 6 0 7 0;
#X connect 7 0 3 1;
#X connect 8 0 7 0;
#X restore 15 366 pd cfet;
#X obj 207 37 tgl 15 0 empty empty empty 17 7 0 10 -262144 -1 -1 0
1;
#X obj 210 15 touch;
#X obj 247 15 r touch;
#X obj 247 37 route tap;
#X obj 247 60 route 1 2;
#X obj 228 38 bng 15 250 50 0 empty empty empty 17 7 0 10 -262144 -1
-1;
#N canvas 0 0 242 383 env 0;
#X obj 46 37 -~ 0.5;
#X obj 47 189 clip~ -0.5 0.5;
#X obj 47 163 *~ 1;
#X obj 99 130 moses 1;
#X msg 62 130 1;
#X obj 47 219 cos~;
#X obj 46 67 wrap~;
#X obj 46 101 -~ 0.5;
#X obj 47 277 *~ -0.5;
#X obj 47 247 -~ 1;
#X obj 46 5 inlet~;
#X obj 47 313 outlet~;
#X obj 99 36 inlet;
#X obj 99 88 f 32;
#X obj 138 36 loadbang;
#X floatatom 141 63 5 0 0 0 - - -;
#X connect 0 0 6 0;
#X connect 1 0 5 0;
#X connect 2 0 1 0;
#X connect 3 0 4 0;
#X connect 3 1 2 1;
#X connect 4 0 2 1;
#X connect 5 0 9 0;
#X connect 6 0 7 0;
#X connect 7 0 2 0;
#X connect 8 0 11 0;
#X connect 9 0 8 0;
#X connect 10 0 0 0;
#X connect 12 0 13 0;
#X connect 13 0 3 0;
#X connect 14 0 13 0;
#X connect 15 0 13 1;
#X restore 40 296 pd env;
#N canvas 0 0 450 300 once 0;
#X obj 89 162 spigot;
#X obj 34 59 inlet;
#X obj 89 111 t a b;
#X obj 126 140 f 1;
#X obj 89 194 t a b;
#X obj 119 216 f 0;
#X obj 89 247 outlet;
#X obj 207 56 inlet;
#X obj 207 79 bang;
#X obj 207 102 f 1;
#X obj 34 80 route bang;
#X obj 34 110 t b b;
#X obj 34 162 spigot;
#X obj 34 194 t b b;
#X connect 0 0 4 0;
#X connect 1 0 10 0;
#X connect 2 0 0 0;
#X connect 2 1 3 0;
#X connect 3 0 0 1;
#X connect 3 0 12 1;
#X connect 4 0 6 0;
#X connect 4 1 5 0;
#X connect 5 0 3 1;
#X connect 7 0 8 0;
#X connect 8 0 9 0;
#X connect 9 0 3 1;
#X connect 10 0 11 0;
#X connect 10 1 2 0;
#X connect 11 0 12 0;
#X connect 11 1 3 0;
#X connect 12 0 13 0;
#X connect 13 0 6 0;
#X connect 13 1 5 0;
#X restore 269 312 pd once;
#X obj 269 263 t b b;
#X obj 300 333 bng 15 250 50 0 empty empty empty 17 7 0 10 -262144
-1 -1;
#X obj 84 296 env~;
#X floatatom 84 319 5 0 0 0 - - -;
#X obj 210 254 bonk~;
#X obj 210 210 loadbang;
#X obj 210 277 bng 15 250 50 0 empty empty empty 17 7 0 10 -262144
-1 -1;
#X obj 197 506 timer;
#X floatatom 197 528 12 0 0 0 - - -;
#X obj 210 297 tgl 15 0 empty empty empty 17 7 0 10 -262144 -1 -1 1
1;
#X obj 210 317 sel 0;
#X obj 247 411 bng 15 250 50 0 empty empty empty 17 7 0 10 -262144
-1 -1;
#X msg 286 475 stop;
#X obj 79 63 f \$0;
#X msg 98 155 \; 1064-a resize 48654.5;
#X msg 110 87 set;
#X msg 98 109 add;
#X obj 79 87 pack;
#X obj 85 26 t b b b b b f;
#X obj 88 574 hsl 128 15 0 1 0 0 empty empty empty -2 -8 0 10 -262144
-1 -1 11972 1;
#X obj 25 272 tabread4~ \$0-a;
#X obj 243 500 tabwrite~ \$0-a;
#X msg 98 131 add2 \$1-a resize \$2;
#X msg 210 232 minvel 10;
#N canvas 0 0 450 300 cfet 0;
#X obj 22 104 +~;
#X obj 22 127 outlet~;
#X obj 22 18 inlet~;
#X obj 35 82 *~;
#X obj 35 60 -~;
#X obj 65 18 inlet~;
#X obj 108 18 inlet;
#X obj 108 47 line 500;
#X floatatom 168 20 5 0 0 0 - - -;
#X connect 0 0 1 0;
#X connect 2 0 0 0;
#X connect 2 0 4 1;
#X connect 3 0 0 1;
#X connect 4 0 3 0;
#X connect 5 0 4 0;
#X connect 6 0 7 0;
#X connect 7 0 3 1;
#X connect 8 0 7 0;
#X restore 15 544 pd cfet;
#X obj 73 593 hsl 128 15 0 1 0 0 empty empty empty -2 -8 0 10 -262144
-1 -1 728 1;
#X obj 34 506 oscdist;
#X obj 97 499 inlet;
#X obj 79 549 1;
#X obj 105 549 -;
#X obj 84 527 t b f;
#X obj 121 317 f;
#X obj 148 317 + 1;
#X obj 121 370 t b b;
#X floatatom 85 347 5 0 0 0 - - -;
#X floatatom 174 320 5 0 0 0 - - -;
#X msg 158 370 0;
#X obj 134 421 f;
#X obj 161 421 + 1;
#X msg 134 398 0;
#X floatatom 134 442 5 0 0 0 - - -;
#X obj 161 71 t f f;
#X obj 23 88 f;
#X obj 121 344 moses 10;
#X obj 326 48 keys;
#N canvas 979 500 450 300 distort 0;
#X obj 40 30 inlet~;
#X obj 41 216 outlet~;
#X obj 41 110 clip~ -0.1 0.1;
#X obj 182 23 inlet~;
#X obj 188 207 outlet~;
#X obj 183 103 clip~ -0.1 0.1;
#X obj 42 165 *~ 3;
#X obj 188 173 *~ 3;
#X obj 183 128 delwrite~ \$0.phaseshift 10;
#X obj 186 151 delread~ \$0.phaseshift 10;
#X connect 0 0 2 0;
#X connect 2 0 6 0;
#X connect 3 0 5 0;
#X connect 5 0 8 0;
#X connect 6 0 1 0;
#X connect 7 0 4 0;
#X connect 9 0 7 0;
#X restore 325 27 pd distort;
#X obj 24 463 reverb;
#X floatatom 84 443 5 0 0 0 - - -;
#X obj 84 421 line 50;
#X obj 84 399 pack;
#X obj 84 377 * 2;
#X msg 206 340 1;
#X msg 235 340 0;
#X obj 210 386 t b b b b;
#X msg 294 372 0;
#X obj 330 360 del 100;
#X msg 339 382 1;
#X obj 247 453 t b b b;
#X floatatom 341 228 5 0 0 0 - - -;
#X obj 301 406 spigot 1;
#X obj 210 364 spigot 1;
#X obj 285 218 bang;
#X obj 269 333 bang;
#X obj 247 431 del 50;
#X obj 296 287 del 20;
#X obj 39 133 t b b f;
#X obj 40 425 min 90;
#X obj 160 49 * 22.05;
#X obj 39 111 / 22.05;
#X obj 15 59 *~ 1;
#X obj 90 469 moses 150;
#X obj 141 524 del 1000;
#X obj 140 546 bang;
#X obj 173 547 bng 15 250 50 0 empty empty empty 17 7 0 10 -262144
-1 -1;
#X connect 1 0 32 0;
#X connect 1 0 49 0;
#X connect 1 0 97 0;
#X connect 3 0 5 1;
#X connect 3 0 6 0;
#X connect 3 0 10 1;
#X connect 3 0 26 0;
#X connect 4 0 19 1;
#X connect 4 0 30 0;
#X connect 5 0 6 1;
#X connect 6 0 48 0;
#X connect 7 0 8 0;
#X connect 8 0 3 0;
#X connect 9 0 5 0;
#X connect 10 0 15 0;
#X connect 10 0 17 0;
#X connect 11 0 12 0;
#X connect 12 0 10 0;
#X connect 13 0 12 0;
#X connect 14 0 13 0;
#X connect 15 0 28 0;
#X connect 16 0 18 0;
#X connect 16 0 86 0;
#X connect 16 0 89 0;
#X connect 17 0 16 0;
#X connect 19 0 74 0;
#X connect 19 0 52 0;
#X connect 22 0 23 0;
#X connect 23 0 24 0;
#X connect 24 0 25 0;
#X connect 25 0 20 0;
#X connect 26 0 4 1;
#X connect 27 0 29 0;
#X connect 27 0 90 0;
#X connect 28 0 27 0;
#X connect 28 1 92 0;
#X connect 30 0 31 0;
#X connect 32 0 34 0;
#X connect 33 0 51 0;
#X connect 34 0 59 0;
#X connect 34 0 87 0;
#X connect 35 0 36 0;
#X connect 35 0 46 0;
#X connect 35 0 99 1;
#X connect 37 0 38 0;
#X connect 38 0 88 0;
#X connect 38 1 39 0;
#X connect 38 1 82 0;
#X connect 38 1 83 0;
#X connect 39 0 91 0;
#X connect 40 0 49 0;
#X connect 41 0 45 0;
#X connect 43 0 42 0;
#X connect 44 0 42 0;
#X connect 45 0 50 0;
#X connect 46 0 70 0;
#X connect 46 1 42 0;
#X connect 46 2 41 0;
#X connect 46 3 44 0;
#X connect 46 4 43 0;
#X connect 46 5 95 0;
#X connect 47 0 19 2;
#X connect 48 0 4 0;
#X connect 50 0 42 0;
#X connect 51 0 32 0;
#X connect 52 0 2 0;
#X connect 53 0 52 2;
#X connect 54 0 52 1;
#X connect 55 0 53 0;
#X connect 55 0 58 0;
#X connect 56 0 57 0;
#X connect 57 0 47 0;
#X connect 58 0 56 0;
#X connect 58 1 57 1;
#X connect 59 0 60 0;
#X connect 59 0 62 0;
#X connect 59 0 71 0;
#X connect 60 0 59 1;
#X connect 61 0 54 1;
#X connect 61 0 54 2;
#X connect 61 0 54 3;
#X connect 61 1 64 0;
#X connect 63 0 71 1;
#X connect 64 0 59 0;
#X connect 65 0 66 0;
#X connect 65 0 68 0;
#X connect 65 0 78 0;
#X connect 66 0 65 1;
#X connect 67 0 65 0;
#X connect 69 0 45 1;
#X connect 69 1 70 1;
#X connect 70 0 9 0;
#X connect 70 0 96 0;
#X connect 71 1 61 0;
#X connect 74 0 54 0;
#X connect 74 1 54 0;
#X connect 76 0 75 0;
#X connect 76 0 94 0;
#X connect 76 0 98 0;
#X connect 77 0 76 0;
#X connect 78 0 77 0;
#X connect 79 0 88 1;
#X connect 80 0 88 1;
#X connect 81 0 35 0;
#X connect 81 1 49 0;
#X connect 81 2 67 0;
#X connect 81 3 80 0;
#X connect 82 0 87 1;
#X connect 83 0 84 0;
#X connect 84 0 87 1;
#X connect 85 0 79 0;
#X connect 85 1 35 1;
#X connect 85 2 40 0;
#X connect 87 0 37 0;
#X connect 88 0 81 0;
#X connect 89 0 15 0;
#X connect 90 0 65 0;
#X connect 91 0 85 0;
#X connect 92 0 27 1;
#X connect 93 0 7 0;
#X connect 93 2 8 1;
#X connect 94 0 74 1;
#X connect 95 0 69 0;
#X connect 96 0 93 0;
#X connect 97 0 19 0;
#X connect 98 1 34 0;
#X connect 98 1 99 0;
#X connect 99 0 34 0;
#X connect 99 0 100 0;
#X connect 100 0 54 1;
#X connect 100 0 54 2;
#X connect 100 0 54 3;
#X connect 100 0 101 0;
