#N canvas 101 122 810 444 10;
#X declare -path .;
#X declare -path rj;
#X obj 47 27 r #touch;
#X floatatom 534 106 5 0 0 0 - - -;
#X floatatom 531 140 5 0 0 0 - - -;
#X obj 633 36 declare -path .;
#X obj 635 59 declare -path rj;
#X floatatom 543 172 5 0 0 0 - - -;
#X floatatom 537 197 5 0 0 0 - - -;
#X floatatom 532 229 5 0 0 0 - - -;
#X floatatom 529 257 5 0 0 0 - - -;
#X floatatom 527 293 5 0 0 0 - - -;
#X floatatom 545 323 5 0 0 0 - - -;
#X floatatom 553 352 5 0 0 0 - - -;
#X floatatom 528 379 5 0 0 0 - - -;
#X obj 87 172 m_touch2grid 2x5 2 5;
#X obj 47 61 route down;
#X obj 47 119 unpack 0 0 0;
#X text 145 117 rm finger;
#X obj 48 319 s \$0-touchdown;
#X obj 395 72 r \$0-touchdown;
#X obj 129 255 pack 0 0;
#X text 147 280 <grid#> <y> <finger>;
#X obj 48 278 list prepend;
#X obj 395 106 showcontrol 0 freq;
#X obj 395 349 showcontrol 8 achtung;
#X obj 395 378 showcontrol 9 end;
#X obj 395 140 showcontrol 1 vol;
#X obj 395 169 showcontrol 2 zwei;
#X obj 395 198 showcontrol 3 drei;
#X obj 395 227 showcontrol 4 vier;
#X obj 395 256 showcontrol 5 five;
#X obj 395 291 showcontrol 6 six;
#X obj 395 320 showcontrol 7 sieben;
#X connect 0 0 14 0;
#X connect 13 2 19 0;
#X connect 14 0 15 0;
#X connect 15 0 21 0;
#X connect 15 1 13 0;
#X connect 15 2 13 1;
#X connect 15 2 19 1;
#X connect 18 0 22 0;
#X connect 19 0 21 1;
#X connect 21 0 17 0;
#X connect 22 0 25 0;
#X connect 22 1 1 0;
#X connect 23 0 24 0;
#X connect 23 1 11 0;
#X connect 24 1 12 0;
#X connect 25 0 26 0;
#X connect 25 1 2 0;
#X connect 26 0 27 0;
#X connect 26 1 5 0;
#X connect 27 0 28 0;
#X connect 27 1 6 0;
#X connect 28 0 29 0;
#X connect 28 1 7 0;
#X connect 29 0 30 0;
#X connect 29 1 8 0;
#X connect 30 0 31 0;
#X connect 30 1 9 0;
#X connect 31 0 23 0;
#X connect 31 1 10 0;
