#N canvas 221 273 836 493 10;
#X obj 264 64 inlet;
#X obj 317 226 outlet;
#X obj 406 94 inlet;
#X obj 517 33 loadbang;
#X obj 517 58 f \$1;
#X floatatom 527 142 5 0 0 0 - - -;
#X obj 517 114 mod 2;
#X obj 577 117 div 2;
#X obj 517 193 * 320;
#X obj 517 168 / 2;
#X obj 577 193 * 320;
#X obj 577 168 / 5;
#X obj 517 89 t a a;
#X obj 517 262 pack 0 0;
#X msg 517 289 move \$1 \$2;
#N canvas 0 0 561 430 spinner 0;
#X obj 83 275 +;
#X obj 83 102 div 10;
#X obj 83 152 t f f;
#X obj 83 185 -;
#X obj 83 346 outlet;
#X obj 119 274 f;
#X obj 83 53 inlet;
#X obj 257 50 inlet;
#X obj 180 50 inlet;
#X floatatom 105 304 5 0 0 0 - - -;
#X floatatom 101 78 5 0 0 0 - - -;
#X obj 83 127 change;
#X obj 172 102 r \$0-resolution;
#X msg 256 143 0;
#X text 308 50 down event;
#X obj 83 211 * -1;
#X text 135 215 invert direction.;
#X connect 0 0 5 0;
#X connect 0 0 4 0;
#X connect 0 0 9 0;
#X connect 1 0 11 0;
#X connect 2 0 3 1;
#X connect 2 1 3 0;
#X connect 3 0 15 0;
#X connect 5 0 0 1;
#X connect 6 0 1 0;
#X connect 7 0 13 0;
#X connect 8 0 0 1;
#X connect 10 0 1 0;
#X connect 11 0 2 0;
#X connect 12 0 1 1;
#X connect 13 0 3 1;
#X connect 15 0 0 0;
#X restore 264 195 pd spinner;
#X floatatom 218 131 5 0 0 0 - - -;
#X msg 264 279 text \$1;
#N canvas 316 425 688 456 updownxy 0;
#X obj 192 22 inlet;
#X obj 188 418 outlet;
#X obj 107 233 spigot;
#X msg 192 201 1;
#X msg 144 192 0;
#X obj 107 60 r #touch;
#X obj 107 354 unpack 0 0 0;
#X obj 107 84 route xy up;
#X text 232 393 adjust by down-pos;
#X obj 238 421 outlet;
#X obj 188 393 -;
#X obj 192 69 t b f b;
#X obj 167 237 s \$0-active;
#X text 279 46 <y> <finger>;
#X obj 192 46 unpack 0 0;
#X obj 144 158 select -1;
#X obj 107 253 t a a;
#X obj 107 331 list;
#X obj 107 304 select -1;
#X msg 144 129 \$1;
#X msg 107 278 \$1;
#X connect 0 0 14 0;
#X connect 2 0 16 0;
#X connect 3 0 2 1;
#X connect 3 0 12 0;
#X connect 4 0 2 1;
#X connect 4 0 12 0;
#X connect 5 0 7 0;
#X connect 6 2 10 0;
#X connect 7 0 2 0;
#X connect 7 1 19 0;
#X connect 10 0 1 0;
#X connect 11 0 3 0;
#X connect 11 1 10 1;
#X connect 11 2 9 0;
#X connect 14 0 11 0;
#X connect 14 1 15 1;
#X connect 14 1 18 1;
#X connect 15 0 4 0;
#X connect 16 0 20 0;
#X connect 16 1 17 1;
#X connect 17 0 6 0;
#X connect 18 0 17 0;
#X connect 19 0 15 0;
#X connect 20 0 18 0;
#X restore 264 131 pd updownxy;
#X obj 406 282 outlet;
#X floatatom 202 232 5 0 0 0 - - -;
#X text 401 67 set directly;
#X text 232 33 touch messages prepended with grid#;
#X msg 417 239 size 25;
#X obj 577 229 + 32;
#X obj 127 325 g_showtext 0 500 500;
#X obj 517 230 + 180;
#N canvas 0 0 629 350 show-text 0;
#X obj 247 140 pack 0 0;
#X msg 247 166 move \$1 \$2;
#X obj 102 197 g_showtext \$2 500 500;
#X obj 102 32 inlet;
#X obj 247 88 unpack 0 0;
#X obj 247 114 + 110;
#X obj 318 112 + 22;
#X obj 102 55 t b a;
#X msg 102 101 size 12;
#X connect 0 0 1 0;
#X connect 1 0 2 1;
#X connect 3 0 7 0;
#X connect 4 0 5 0;
#X connect 4 1 6 0;
#X connect 5 0 0 0;
#X connect 6 0 0 1;
#X connect 7 0 8 0;
#X connect 7 1 4 0;
#X connect 8 0 2 1;
#X restore 631 267 pd show-text;
#X obj 631 238 pack 0 0;
#X obj 264 97 route \$1;
#X obj 396 327 r \$0-active;
#X obj 396 352 select 0 1;
#X msg 396 378 size 25;
#X msg 429 404 size 35;
#X connect 0 0 29 0;
#X connect 2 0 15 1;
#X connect 3 0 4 0;
#X connect 3 0 23 0;
#X connect 4 0 12 0;
#X connect 6 0 5 0;
#X connect 6 0 9 0;
#X connect 7 0 11 0;
#X connect 8 0 26 0;
#X connect 8 0 28 0;
#X connect 9 0 8 0;
#X connect 10 0 24 0;
#X connect 10 0 28 1;
#X connect 11 0 10 0;
#X connect 12 0 6 0;
#X connect 12 1 7 0;
#X connect 13 0 14 0;
#X connect 14 0 25 1;
#X connect 15 0 17 0;
#X connect 15 0 20 0;
#X connect 15 0 19 0;
#X connect 16 0 15 0;
#X connect 17 0 25 1;
#X connect 18 0 15 0;
#X connect 18 1 15 2;
#X connect 23 0 25 1;
#X connect 24 0 13 1;
#X connect 26 0 13 0;
#X connect 28 0 27 0;
#X connect 29 0 18 0;
#X connect 29 1 1 0;
#X connect 30 0 31 0;
#X connect 31 0 32 0;
#X connect 31 1 33 0;
#X connect 32 0 25 1;
#X connect 33 0 25 1;
