#N canvas 80 41 1200 644 10;
#X obj 101 101 cnv 15 580 18 empty empty empty 20 12 0 14 -233017 -66577
0;
#X obj 180 284 f;
#X obj 205 284 f;
#X obj 230 284 f;
#X obj 255 284 f;
#X obj 280 284 f;
#X obj 305 284 f;
#X obj 330 284 f;
#X obj 355 284 f;
#X obj 140 182 sel 1 2 3 4 5 6 7 8 9 10 11 12 13 14 15 16;
#X obj 28 -58 unpack f f;
#X obj 380 284 f;
#X obj 405 284 f;
#X obj 430 284 f;
#X obj 455 284 f;
#X obj 480 284 f;
#X obj 505 284 f;
#X obj 530 284 f;
#X obj 555 284 f;
#X obj 256 382 outlet note;
#X obj 245 -133 route 1 2 3 4 5 6 7 8 9 10 11 12 13 14 15 16;
#X obj 56 -25 unpack f f;
#X obj 91 10 unpack f f;
#X obj 133 37 unpack f f;
#X obj 179 -60 unpack f f;
#X obj 213 -34 unpack f f;
#X obj 254 -5 unpack f f;
#X obj 307 22 unpack f f;
#X obj 365 -62 unpack f f;
#X obj 406 -29 unpack f f;
#X obj 450 7 unpack f f;
#X obj 507 35 unpack f f;
#X obj 555 -64 unpack f f;
#X obj 605 -32 unpack f f;
#X obj 642 -12 unpack f f;
#X obj 668 17 unpack f f;
#X obj 103 103 nbx 3 14 0 127 0 0 empty empty empty 0 -8 0 10 -262144
-1 -1 0 256;
#X obj 139 103 nbx 3 14 0 127 0 0 empty empty empty 0 -8 0 10 -262144
-1 -1 0 256;
#X obj 175 103 nbx 3 14 0 127 0 0 empty empty empty 0 -8 0 10 -262144
-1 -1 0 256;
#X obj 211 103 nbx 3 14 0 127 0 0 empty empty empty 0 -8 0 10 -262144
-1 -1 0 256;
#X obj 247 103 nbx 3 14 0 127 0 0 empty empty empty 0 -8 0 10 -262144
-1 -1 10 256;
#X obj 283 103 nbx 3 14 0 127 0 0 empty empty empty 0 -8 0 10 -262144
-1 -1 12 256;
#X obj 319 103 nbx 3 14 0 127 0 0 empty empty empty 0 -8 0 10 -262144
-1 -1 3 256;
#X obj 355 103 nbx 3 14 0 127 0 0 empty empty empty 0 -8 0 10 -262144
-1 -1 0 256;
#X obj 391 103 nbx 3 14 0 127 0 0 empty empty empty 0 -8 0 10 -262144
-1 -1 0 256;
#X obj 427 103 nbx 3 14 0 127 0 0 empty empty empty 0 -8 0 10 -262144
-1 -1 0 256;
#X obj 463 103 nbx 3 14 0 127 0 0 empty empty empty 0 -8 0 10 -262144
-1 -1 0 256;
#X obj 499 103 nbx 3 14 0 127 0 0 empty empty empty 0 -8 0 10 -262144
-1 -1 0 256;
#X obj 535 103 nbx 3 14 0 127 0 0 empty empty empty 0 -8 0 10 -262144
-1 -1 0 256;
#X obj 571 103 nbx 3 14 0 127 0 0 empty empty empty 0 -8 0 10 -262144
-1 -1 0 256;
#X obj 607 103 nbx 3 14 0 127 0 0 empty empty empty 0 -8 0 10 -262144
-1 -1 0 256;
#X obj 643 103 nbx 3 14 0 127 0 0 empty empty empty 0 -8 0 10 -262144
-1 -1 0 256;
#X obj 245 -160 r \$1-save;
#X obj -28 -108 r \$1-note;
#X obj 654 161 s \$1-pitchspell;
#X connect 1 0 19 0;
#X connect 2 0 19 0;
#X connect 3 0 19 0;
#X connect 4 0 19 0;
#X connect 5 0 19 0;
#X connect 6 0 19 0;
#X connect 7 0 19 0;
#X connect 8 0 19 0;
#X connect 9 0 1 0;
#X connect 9 1 2 0;
#X connect 9 2 3 0;
#X connect 9 3 4 0;
#X connect 9 4 5 0;
#X connect 9 5 6 0;
#X connect 9 6 7 0;
#X connect 9 7 8 0;
#X connect 9 8 11 0;
#X connect 9 9 12 0;
#X connect 9 10 13 0;
#X connect 9 11 14 0;
#X connect 9 12 15 0;
#X connect 9 13 16 0;
#X connect 9 14 17 0;
#X connect 9 15 18 0;
#X connect 10 0 36 0;
#X connect 11 0 19 0;
#X connect 12 0 19 0;
#X connect 13 0 19 0;
#X connect 14 0 19 0;
#X connect 15 0 19 0;
#X connect 16 0 19 0;
#X connect 17 0 19 0;
#X connect 18 0 19 0;
#X connect 20 0 10 0;
#X connect 20 1 21 0;
#X connect 20 2 22 0;
#X connect 20 3 23 0;
#X connect 20 4 24 0;
#X connect 20 5 25 0;
#X connect 20 6 26 0;
#X connect 20 7 27 0;
#X connect 20 8 28 0;
#X connect 20 9 29 0;
#X connect 20 10 30 0;
#X connect 20 11 31 0;
#X connect 20 12 32 0;
#X connect 20 13 33 0;
#X connect 20 14 34 0;
#X connect 20 15 35 0;
#X connect 21 0 37 0;
#X connect 22 0 38 0;
#X connect 23 0 39 0;
#X connect 24 0 40 0;
#X connect 25 0 41 0;
#X connect 26 0 42 0;
#X connect 27 0 43 0;
#X connect 28 0 44 0;
#X connect 29 0 45 0;
#X connect 30 0 46 0;
#X connect 31 0 47 0;
#X connect 32 0 48 0;
#X connect 33 0 49 0;
#X connect 34 0 50 0;
#X connect 35 0 51 0;
#X connect 36 0 1 1;
#X connect 36 0 54 0;
#X connect 37 0 2 1;
#X connect 37 0 54 0;
#X connect 38 0 3 1;
#X connect 38 0 54 0;
#X connect 39 0 4 1;
#X connect 39 0 54 0;
#X connect 40 0 5 1;
#X connect 40 0 54 0;
#X connect 41 0 6 1;
#X connect 41 0 54 0;
#X connect 42 0 7 1;
#X connect 42 0 54 0;
#X connect 43 0 8 1;
#X connect 43 0 54 0;
#X connect 44 0 11 1;
#X connect 44 0 54 0;
#X connect 45 0 12 1;
#X connect 45 0 54 0;
#X connect 46 0 13 1;
#X connect 46 0 54 0;
#X connect 47 0 14 1;
#X connect 47 0 54 0;
#X connect 48 0 15 1;
#X connect 48 0 54 0;
#X connect 49 0 16 1;
#X connect 49 0 54 0;
#X connect 50 0 17 1;
#X connect 50 0 54 0;
#X connect 51 0 18 1;
#X connect 51 0 54 0;
#X connect 52 0 20 0;
#X connect 53 0 9 0;
#X coords 0 -1 1 1 582 20 2 100 100;
