#N canvas 0 22 450 300 10;
#X obj 174 73 inlet;
#X obj 174 185 outlet;
#X obj 227 93 inlet;
#X obj 227 114 / \$1;
#X obj 227 135 == 1;
#X obj 174 164 spigot 0;
#X connect 0 0 5 0;
#X connect 2 0 3 0;
#X connect 3 0 4 0;
#X connect 4 0 5 1;
#X connect 5 0 1 0;
