#N canvas 16 313 419 292 10;
#N canvas 473 269 528 200 MODULE_INFO 0;
#X text 65 140 decorator: s1m1-s2m1;
#X text 65 160 tags:;
#X text 66 57 name: Ghostwave;
#X text 64 79 authors: Chris Mccormick \, Joe White;
#X text 65 99 description: Ghostwave makes you feel afraid of your
voice \, increasing the Ghosting will increase your disturbance. Take
care when riding the Ghostwave.;
#X restore 22 21 pd MODULE_INFO;
#X obj 22 49 inlet~ MIC;
#X obj 177 250 outlet;
#X obj 22 250 outlet~;
#X obj 118 250 outlet~;
#X obj 177 48 inlet;
#N canvas 620 450 393 323 \$0-PARAMETERS 0;
#X obj 110 275 outlet;
#X obj -48 107 s \$0-tick;
#X obj -48 45 inlet;
#X obj -48 77 route tick bpm rootnote;
#X obj 106 132 cnv 15 187 127 empty empty RJC_Parameters 10 12 1 14
-162280 -262144 0;
#X obj 106 106 cnv 15 187 20 empty empty Ghostwave_Vocal 50 11 1 14
-261234 -33289 0;
#X obj 110 159 rjc_parameter_floatrange \$0 Ghosting 0.9;
#X connect 2 0 3 0;
#X connect 3 0 1 0;
#X connect 3 3 6 0;
#X connect 6 0 0 0;
#X coords 0 -1 1 1 200 165 2 100 100;
#X restore 177 70 pd \$0-PARAMETERS;
#N canvas 147 36 261 353 \$0-DSP 0;
#X obj 19 132 hip~ 5;
#X obj 19 64 abs/s-autocompressor~;
#X obj 19 21 inlet~;
#X obj 19 261 outlet~;
#X obj 19 205 *~;
#X obj 19 44 abs/s-delayunit_nogui~ \$0;
#X obj 98 156 inlet~;
#X obj 19 156 clip~ -1 1;
#X obj 113 199 r \$0-Ghosting;
#X obj 19 236 *~ 1;
#X obj 112 220 m_scale 0 1 1.5 0.6;
#X connect 0 0 7 0;
#X connect 1 0 0 0;
#X connect 2 0 5 0;
#X connect 4 0 9 0;
#X connect 5 0 1 0;
#X connect 6 0 4 1;
#X connect 7 0 4 0;
#X connect 8 0 10 0;
#X connect 9 0 3 0;
#X connect 10 0 9 1;
#X restore 22 178 pd \$0-DSP;
#N canvas 693 297 370 279 \$0-INPUT 0;
#X obj 66 47 inlet~;
#X obj 66 236 outlet~;
#X obj 138 97 fiddle~;
#X obj 138 121 + 24;
#X obj 138 143 int;
#X obj 138 165 change;
#X msg 138 188 \$1 10;
#N canvas 314 96 627 379 seeding 0;
#X obj 90 184 snapshot~;
#X obj 89 67 inlet~;
#X msg 90 298 seed \$1;
#X obj 90 326 s;
#X msg 235 245 symbol SEED-\$1;
#X obj 269 154 + 1;
#X obj 203 107 pipe;
#X obj 203 84 unpack 0 0;
#X obj 203 128 t b b;
#X obj 90 234 abs;
#X obj 90 258 int;
#X obj 90 210 * 1e+07;
#X obj 235 178 mod 12;
#X obj 235 154 f 0;
#X msg 203 48 0 75 \, 0 150 \, 0 225 \, 0 300 \, 0 375 \, 0 450 \,
0 525 \, 0 600 \, 0 675 \, 0 750 \, 0 825 \, 0 900;
#X obj 203 26 loadbang;
#X connect 0 0 11 0;
#X connect 1 0 0 0;
#X connect 2 0 3 0;
#X connect 4 0 3 1;
#X connect 5 0 13 1;
#X connect 6 0 8 0;
#X connect 7 0 6 0;
#X connect 7 1 6 1;
#X connect 8 0 0 0;
#X connect 8 1 13 0;
#X connect 9 0 10 0;
#X connect 10 0 2 0;
#X connect 11 0 9 0;
#X connect 12 0 5 0;
#X connect 12 0 4 0;
#X connect 13 0 12 0;
#X connect 14 0 7 0;
#X connect 15 0 14 0;
#X restore 199 97 pd seeding;
#X obj 138 211 line;
#X obj 138 236 s \$0-length;
#X obj 192 122 unpack f f;
#X obj 259 210 line~;
#X msg 259 185 \$1 50;
#X obj 259 159 > 10;
#X obj 259 236 outlet~;
#X connect 0 0 1 0;
#X connect 0 0 2 0;
#X connect 0 0 7 0;
#X connect 2 0 3 0;
#X connect 2 2 10 0;
#X connect 3 0 4 0;
#X connect 4 0 5 0;
#X connect 5 0 6 0;
#X connect 6 0 8 0;
#X connect 8 0 9 0;
#X connect 10 1 13 0;
#X connect 11 0 14 0;
#X connect 12 0 11 0;
#X connect 13 0 12 0;
#X restore 22 103 pd \$0-INPUT;
#X connect 1 0 8 0;
#X connect 5 0 6 0;
#X connect 6 0 2 0;
#X connect 7 0 3 0;
#X connect 7 0 4 0;
#X connect 8 0 7 0;
#X connect 8 1 7 1;
