#N canvas 12 86 923 599 10;
#X obj 16 16 r #touch;
#X obj 15 81 route down;
#X obj 20 362 s touch;
#X msg 20 340 tap \$1;
#X obj 408 105 route xy;
#X obj 28 140 route 1 2;
#X obj 437 144 route 1 2;
#X obj 436 185 unpack 1 2;
#X obj 511 187 unpack 1 2;
#X obj 133 139 route 1 2;
#X obj 120 84 route up;
#X obj 53 213 delay 200;
#X obj 53 180 t b 1;
#X obj 133 315 spigot;
#X obj 124 392 print KLICK1;
#X obj 210 213 delay 200;
#X obj 210 180 t b 1;
#X obj 213 315 spigot;
#X msg 210 241 0;
#X msg 53 237 0;
#X obj 221 377 print KLICK2;
#X text 265 255 short klick detection;
#X obj 131 444 outlet;
#X obj 207 445 outlet;
#X connect 0 0 1 0;
#X connect 0 0 4 0;
#X connect 0 0 10 0;
#X connect 1 0 3 0;
#X connect 1 0 5 0;
#X connect 3 0 2 0;
#X connect 4 0 6 0;
#X connect 5 0 12 0;
#X connect 5 1 16 0;
#X connect 6 0 7 0;
#X connect 6 1 8 0;
#X connect 9 0 13 0;
#X connect 9 1 17 0;
#X connect 10 0 9 0;
#X connect 11 0 19 0;
#X connect 12 0 11 0;
#X connect 12 1 13 1;
#X connect 13 0 14 0;
#X connect 13 0 22 0;
#X connect 15 0 18 0;
#X connect 16 0 15 0;
#X connect 16 1 17 1;
#X connect 17 0 20 0;
#X connect 17 0 23 0;
#X connect 18 0 17 1;
#X connect 19 0 13 1;
