#N canvas 345 22 696 797 10;
#X obj -169 755 soundoutput;
#X obj -169 16 soundinput;
#N canvas 0 22 643 511 ssb-pitch-shift 0;
#X obj 139 23 inlet~;
#X obj 125 279 outlet~;
#X obj 130 146 hilbert~;
#X obj 161 258 *~;
#X obj 119 259 *~;
#X obj 299 45 inlet;
#X obj 254 129 hilbert~;
#X obj 255 101 osc~ 0;
#X obj 279 78 +~;
#X obj 388 21 inlet;
#X obj 387 78 *~ 1;
#X obj 478 34 inlet;
#X text 62 305 http://www56.homepage.villanova.edu/scott.sawyer/fpga/II_frequency_shifting.htm
;
#X obj 484 65 / 100;
#X obj 473 124 * 1;
#X obj 477 98 t b f;
#X text 481 219 requires;
#X text 484 235 hilbert~.pd;
#X text 486 251 lt~.pd;
#X obj 286 195 != 1;
#X obj 139 222 *~;
#X obj 171 222 *~;
#X obj 236 219 *~;
#X obj 268 219 *~;
#X obj 296 170 > 0;
#X text 49 416 further work: change the values of the filters to variably
change antialiasing.;
#X text 62 472 if pitching up \, lower lop value from nyquist;
#X text 59 451 if pitching down \, raise hip value from 0;
#X obj 136 48 lop~ 11025;
#X obj 137 72 lop~ 11025;
#X text 59 345 could also use;
#X text 59 368 http://www.cim.mcgill.ca/~clark/nordmodularbook/nm_spectrum_shift.html
;
#X text 471 442 Nicholas Mariette;
#X text 474 457 nmariette@gmail.com;
#X text 476 478 (c) September 2008;
#X obj 386 42 osc~ 0;
#X obj 573 88 loadbang;
#X msg 569 122 0;
#X obj 131 107 hip~ 200;
#X obj 128 126 hip~ 200;
#X connect 0 0 28 0;
#X connect 2 0 4 0;
#X connect 2 1 3 0;
#X connect 3 0 1 0;
#X connect 4 0 1 0;
#X connect 5 0 8 1;
#X connect 5 0 14 0;
#X connect 5 0 24 0;
#X connect 6 0 20 0;
#X connect 6 0 23 0;
#X connect 6 1 21 0;
#X connect 6 1 22 0;
#X connect 7 0 6 0;
#X connect 8 0 7 0;
#X connect 9 0 35 0;
#X connect 10 0 8 0;
#X connect 11 0 13 0;
#X connect 13 0 15 0;
#X connect 14 0 10 1;
#X connect 15 0 14 0;
#X connect 15 1 14 1;
#X connect 19 0 23 1;
#X connect 19 0 22 1;
#X connect 20 0 3 1;
#X connect 21 0 4 1;
#X connect 22 0 3 1;
#X connect 23 0 4 1;
#X connect 24 0 19 0;
#X connect 24 0 20 1;
#X connect 24 0 21 1;
#X connect 28 0 29 0;
#X connect 29 0 38 0;
#X connect 35 0 10 0;
#X connect 36 0 37 0;
#X connect 37 0 13 0;
#X connect 37 0 35 0;
#X connect 38 0 39 0;
#X connect 39 0 2 0;
#X restore -169 572 pd ssb-pitch-shift;
#X obj -169 40 *~ 1;
#X obj -126 300 mtof;
#X floatatom -86 464 5 0 0 0 - - -;
#X floatatom -45 521 5 0 0 0 - - -;
#X text 2 520 percent pitch vibrato;
#X text -40 456 vibrato rate;
#X msg -42 499 0;
#X text -118 395 pitch shift amount;
#X text -10 546 sounds ok from about 2 octaves (24 notes) of pitch
shift (32Hz or so);
#X msg -86 440 0;
#X obj 213 54 loadbang;
#X msg -9 499 25;
#N canvas 777 22 601 315 nm_accelerometer_processing 0;
#X obj 17 72 r accelerate;
#X obj 17 151 outlet;
#X obj 12 14 accelerate;
#X text 101 16 <- put this in your scene patch to access data;
#X obj 17 101 route magnitude pitch roll;
#X obj 78 215 outlet;
#X obj 152 249 outlet;
#X obj 77 131 / 1.571;
#X obj 148 137 / 1.571;
#X connect 0 0 4 0;
#X connect 4 0 1 0;
#X connect 4 1 7 0;
#X connect 4 2 8 0;
#X connect 7 0 5 0;
#X connect 8 0 6 0;
#X restore 60 9 pd nm_accelerometer_processing mag pitch roll;
#X obj -64 198 * 120;
#X obj 372 71 * 20;
#X obj 410 71 * 150;
#X obj -48 334 * -1;
#X obj -127 354 spigot;
#X obj -88 334 != 1;
#X obj -50 354 spigot;
#X obj -52 247 * -1;
#X obj -125 268 spigot;
#X obj -87 247 != 1;
#X obj -53 268 spigot;
#X obj -51 144 f;
#X obj 3 213 < 0;
#X msg -50 98 0.4;
#X obj -169 607 d-reverb2~ 5 98;
#X obj -53 171 t f f;
#N canvas 0 22 450 300 innerclip20 0;
#X obj 6 173 spigot;
#X obj 44 152 != 1;
#X obj 78 173 spigot;
#X obj 119 105 abs;
#X msg 82 151 0;
#X obj 12 30 inlet;
#X obj 20 238 outlet;
#X obj 118 125 < 20;
#X obj 10 56 t f f;
#X connect 0 0 6 0;
#X connect 1 0 0 1;
#X connect 2 0 6 0;
#X connect 3 0 7 0;
#X connect 4 0 2 0;
#X connect 5 0 8 0;
#X connect 7 0 2 1;
#X connect 7 0 1 0;
#X connect 8 0 4 0;
#X connect 8 0 0 0;
#X connect 8 1 3 0;
#X restore -129 377 pd innerclip20;
#X obj -51 121 clip -0.6 0.8;
#X msg -48 440 2;
#X obj 371 39 clip -0.7 0.7;
#X text -16 717 Nick Mariette 2008;
#X text -15 735 http://soundsorange.net;
#X text -15 752 nmariette@gmail.com;
#X connect 1 0 3 0;
#X connect 1 1 3 0;
#X connect 2 0 30 0;
#X connect 2 0 30 1;
#X connect 3 0 2 0;
#X connect 4 0 19 0;
#X connect 4 0 20 0;
#X connect 5 0 2 2;
#X connect 6 0 2 3;
#X connect 9 0 6 0;
#X connect 12 0 5 0;
#X connect 13 0 29 0;
#X connect 13 0 34 0;
#X connect 13 0 14 0;
#X connect 14 0 6 0;
#X connect 15 1 33 0;
#X connect 15 2 35 0;
#X connect 16 0 23 0;
#X connect 16 0 24 0;
#X connect 17 0 5 0;
#X connect 18 0 6 0;
#X connect 19 0 22 0;
#X connect 20 0 32 0;
#X connect 21 0 20 1;
#X connect 22 0 32 0;
#X connect 23 0 26 0;
#X connect 24 0 4 0;
#X connect 25 0 24 1;
#X connect 26 0 4 0;
#X connect 27 0 31 0;
#X connect 28 0 21 0;
#X connect 28 0 22 1;
#X connect 28 0 26 1;
#X connect 28 0 25 0;
#X connect 29 0 33 0;
#X connect 30 0 0 0;
#X connect 30 1 0 1;
#X connect 31 0 16 0;
#X connect 31 1 28 0;
#X connect 32 0 2 1;
#X connect 33 0 27 0;
#X connect 34 0 5 0;
#X connect 35 0 18 0;
#X connect 35 0 17 0;
