#N canvas 0 0 454 304 10;
#X obj 43 22 inlet;
#X obj 43 51 t b a;
#X obj 43 108 -;
#X obj 43 163 outlet;
#X msg 43 80 1;
#X text 135 53 calculates 1-inlet;
#X connect 0 0 1 0;
#X connect 1 0 4 0;
#X connect 1 1 2 1;
#X connect 2 0 3 0;
#X connect 4 0 2 0;
