#N canvas 650 111 647 597 10;
#X obj 83 38 adc~;
#X obj 126 512 dac~;
#X obj 127 474 *~ 1;
#N canvas 0 22 601 355 ssb-pitch-shift 1;
#X obj 139 23 inlet~;
#X obj 148 248 outlet~;
#X obj 133 99 hilbert~;
#X obj 272 177 *~;
#X obj 72 181 *~;
#X obj 299 45 inlet;
#X obj 254 129 hilbert~;
#X obj 255 101 osc~ 0;
#X obj 279 78 +~;
#X obj 386 42 osc~ 10;
#X obj 388 21 inlet;
#X obj 433 82 *~ 1;
#X obj 478 34 inlet;
#X obj 143 72 hip~ 40;
#X obj 136 48 lop~ 11025;
#X text 62 305 http://www56.homepage.villanova.edu/scott.sawyer/fpga/II_frequency_shifting.htm
;
#X connect 0 0 14 0;
#X connect 2 0 4 0;
#X connect 2 1 3 0;
#X connect 3 0 1 0;
#X connect 4 0 1 0;
#X connect 5 0 8 1;
#X connect 6 0 3 1;
#X connect 6 1 4 1;
#X connect 7 0 6 0;
#X connect 8 0 7 0;
#X connect 9 0 11 0;
#X connect 10 0 9 0;
#X connect 11 0 8 0;
#X connect 12 0 11 1;
#X connect 13 0 2 0;
#X connect 14 0 13 0;
#X restore 129 444 pd ssb-pitch-shift;
#X obj 97 104 *~ 1;
#X floatatom 327 282 5 0 0 0 - - -;
#X msg 335 226 22050;
#X obj 427 216 mtof;
#X floatatom 423 186 5 0 0 0 - - -;
#X msg 382 178 0;
#X floatatom 240 409 5 0 0 0 - - -;
#X floatatom 409 424 5 0 0 0 - - -;
#X floatatom 422 263 5 0 0 0 - - -;
#X obj 417 287 / 100;
#X text 469 262 percent pitch vibrato;
#X text 287 404 vibrato rate;
#X floatatom 447 322 5 0 0 0 - - -;
#X obj 391 394 mtof;
#X obj 392 363 * 1;
#X obj 400 331 t b f;
#X msg 487 242 0;
#X connect 0 0 4 0;
#X connect 0 1 4 0;
#X connect 2 0 1 0;
#X connect 2 0 1 1;
#X connect 3 0 2 0;
#X connect 4 0 3 0;
#X connect 5 0 3 1;
#X connect 6 0 5 0;
#X connect 7 0 5 0;
#X connect 8 0 7 0;
#X connect 8 0 18 0;
#X connect 9 0 5 0;
#X connect 10 0 3 2;
#X connect 12 0 13 0;
#X connect 13 0 16 0;
#X connect 13 0 19 0;
#X connect 17 0 11 0;
#X connect 17 0 3 3;
#X connect 18 0 17 0;
#X connect 19 0 18 0;
#X connect 19 1 18 1;
#X connect 20 0 12 0;
