#N canvas 650 111 647 597 10;
#X obj 83 38 adc~;
#X obj 126 512 dac~;
#X obj 127 474 *~ 1;
#N canvas 0 22 643 511 ssb-pitch-shift 1;
#X obj 139 23 inlet~;
#X obj 125 279 outlet~;
#X obj 130 146 hilbert~;
#X obj 161 258 *~;
#X obj 119 259 *~;
#X obj 299 45 inlet;
#X obj 254 129 hilbert~;
#X obj 255 101 osc~ 0;
#X obj 279 78 +~;
#X obj 388 21 inlet;
#X obj 387 78 *~ 1;
#X obj 478 34 inlet;
#X text 62 305 http://www56.homepage.villanova.edu/scott.sawyer/fpga/II_frequency_shifting.htm
;
#X obj 484 65 / 100;
#X obj 473 124 * 1;
#X obj 477 98 t b f;
#X obj 128 126 hip~ 80;
#X text 481 219 requires;
#X text 484 235 hilbert~.pd;
#X text 486 251 lt~.pd;
#X obj 286 195 != 1;
#X obj 139 222 *~;
#X obj 171 222 *~;
#X obj 236 219 *~;
#X obj 268 219 *~;
#X obj 296 170 > 0;
#X text 49 416 further work: change the values of the filters to variably
change antialiasing.;
#X text 62 472 if pitching up \, lower lop value from nyquist;
#X text 59 451 if pitching down \, raise hip value from 0;
#X obj 136 48 lop~ 11025;
#X obj 131 107 hip~ 80;
#X obj 137 72 lop~ 11025;
#X text 59 345 could also use;
#X text 59 368 http://www.cim.mcgill.ca/~clark/nordmodularbook/nm_spectrum_shift.html
;
#X text 471 442 Nicholas Mariette;
#X text 474 457 nmariette@gmail.com;
#X text 476 478 (c) September 2008;
#X obj 386 42 osc~ 0;
#X obj 573 88 loadbang;
#X msg 569 122 0;
#X connect 0 0 29 0;
#X connect 2 0 4 0;
#X connect 2 1 3 0;
#X connect 3 0 1 0;
#X connect 4 0 1 0;
#X connect 5 0 8 1;
#X connect 5 0 14 0;
#X connect 5 0 25 0;
#X connect 6 0 21 0;
#X connect 6 0 24 0;
#X connect 6 1 22 0;
#X connect 6 1 23 0;
#X connect 7 0 6 0;
#X connect 8 0 7 0;
#X connect 9 0 37 0;
#X connect 10 0 8 0;
#X connect 11 0 13 0;
#X connect 13 0 15 0;
#X connect 14 0 10 1;
#X connect 15 0 14 0;
#X connect 15 1 14 1;
#X connect 16 0 2 0;
#X connect 20 0 24 1;
#X connect 20 0 23 1;
#X connect 21 0 3 1;
#X connect 22 0 4 1;
#X connect 23 0 3 1;
#X connect 24 0 4 1;
#X connect 25 0 20 0;
#X connect 25 0 21 1;
#X connect 25 0 22 1;
#X connect 29 0 31 0;
#X connect 30 0 16 0;
#X connect 31 0 30 0;
#X connect 37 0 10 0;
#X connect 38 0 39 0;
#X connect 39 0 13 0;
#X connect 39 0 37 0;
#X restore 129 444 pd ssb-pitch-shift;
#X obj 97 104 *~ 1;
#X floatatom 201 303 7 0 0 0 - - -;
#X msg 203 260 22050;
#X obj 256 275 mtof;
#X floatatom 259 251 5 0 0 0 - - -;
#X msg 181 240 0;
#X floatatom 216 377 5 0 0 0 - - -;
#X floatatom 247 422 5 0 0 0 - - -;
#X text 294 421 percent pitch vibrato;
#X text 263 372 vibrato rate;
#X msg 250 400 0;
#X text 312 248 pitch shift amount;
#X text 235 61 sounds ok from about 2 octaves (24 notes) of pitch shift
(32Hz or so);
#X msg 217 356 0;
#X text 334 314 around -70 hz is nice;
#X connect 0 0 4 0;
#X connect 0 1 4 0;
#X connect 2 0 1 0;
#X connect 2 0 1 1;
#X connect 3 0 2 0;
#X connect 4 0 3 0;
#X connect 5 0 3 1;
#X connect 6 0 5 0;
#X connect 7 0 5 0;
#X connect 8 0 7 0;
#X connect 9 0 5 0;
#X connect 10 0 3 2;
#X connect 11 0 3 3;
#X connect 14 0 11 0;
#X connect 17 0 10 0;
