#N canvas 528 40 570 705 10;
#X obj 49 40 bng 15 250 50 0 empty empty empty 17 7 0 10 -262144 -1
-1;
#X obj 315 184 loadbang;
#X msg 372 184 bang;
#X msg 41 114 1;
#X msg 86 112 1;
#X obj 41 87 t b b;
#X obj 41 165 pack f f f;
#X obj 41 61 metro 50;
#X obj 104 62 d-random-sq 50 200;
#X obj 41 192 route 1 2 3 4 5 6 7 8;
#X obj 41 136 poly 8 1;
#X obj 315 231 unpack f f;
#X obj 41 -65 loadbang;
#X text 226 528 released under the GNU General Public License v3+;
#X text 344 489 copyright damian stewart 2008;
#X text 315 503 damian@frey.co.nz | www.frey.co.nz;
#X text 252 461 a simulation of Iannis Xenakis' 'Concrete pH';
#N canvas 126 252 604 441 accel_to_randvals 1;
#X obj 52 19 accelerate;
#X obj 31 44 r accelerate;
#X obj 31 71 route magnitude;
#X obj 31 125 abs;
#X obj 31 98 - 1;
#X obj 31 151 d-energypump 0.8;
#X obj 31 390 outlet;
#X obj 31 336 t a a;
#X obj 76 391 outlet;
#X msg 71 127 steal \$1;
#X floatatom -49 179 5 0 0 0 - - -;
#X floatatom 130 390 5 0 0 0 - - -;
#X obj 31 243 log;
#X floatatom 77 303 5 0 0 0 - - -;
#X obj 31 223 + 1;
#X obj 31 294 d-inv;
#X floatatom 49 317 5 0 0 0 - - -;
#X obj 187 225 d-lpf 0.9;
#X floatatom 226 247 5 0 0 0 - - -;
#X obj 187 246 -;
#X obj 187 204 t a a;
#X obj 187 269 abs;
#X obj 187 298 > 0.5;
#X obj 187 343 d-debounce 300;
#X obj 187 389 outlet;
#X msg 187 366 bang;
#X obj 187 320 sel 1;
#X text 239 299 wakeup call;
#X obj 31 194 t a a;
#X obj 31 173 max 0.01;
#X obj 286 385 outlet;
#X obj 384 334 outlet;
#X obj 77 361 * 80;
#X obj 31 360 * 40;
#X obj 31 270 * 1.3;
#X connect 1 0 2 0;
#X connect 2 0 4 0;
#X connect 2 0 31 0;
#X connect 3 0 5 0;
#X connect 4 0 3 0;
#X connect 5 0 10 0;
#X connect 5 0 29 0;
#X connect 7 0 33 0;
#X connect 7 1 32 0;
#X connect 9 0 5 0;
#X connect 12 0 13 0;
#X connect 12 0 30 0;
#X connect 12 0 34 0;
#X connect 14 0 12 0;
#X connect 15 0 7 0;
#X connect 15 0 16 0;
#X connect 17 0 18 0;
#X connect 17 0 19 0;
#X connect 19 0 21 0;
#X connect 20 0 17 0;
#X connect 20 1 19 1;
#X connect 21 0 22 0;
#X connect 22 0 26 0;
#X connect 23 0 25 0;
#X connect 25 0 24 0;
#X connect 26 0 23 0;
#X connect 28 0 20 0;
#X connect 28 1 14 0;
#X connect 29 0 28 0;
#X connect 32 0 8 0;
#X connect 32 0 11 0;
#X connect 33 0 6 0;
#X connect 34 0 15 0;
#X restore 220 -27 pd accel_to_randvals;
#X msg 221 112 1;
#X msg 266 112 1;
#X obj 221 87 t b b;
#X obj 221 61 metro 50;
#X obj 281 61 d-random-sq 50 200;
#X floatatom 403 61 5 0 0 0 - - -;
#X obj 198 358 s \$0-steal;
#X obj 220 -49 r \$0-steal;
#X floatatom 367 -25 5 0 0 0 - - -;
#X obj 257 6 random 2;
#X obj 257 28 sel 0 1;
#X text 311 8 retrigger;
#X msg 319 207 10000 500;
#X obj 161 490 d-compress~ 1 200;
#X obj 41 491 d-compress~ 1 200;
#X obj 394 18 s accel-factor;
#X obj 251 235 ping;
#X obj 131 235 ping;
#X obj 41 235 ping;
#X obj 71 235 ping;
#X obj 101 235 ping;
#X obj 161 235 ping;
#X obj 191 235 ping;
#X obj 221 235 ping;
#X obj 116 -44 soundinput;
#X obj 314 256 d-biquadcalc-highpass 10000 500;
#X obj 42 285 biquad~ 0.041825 0.712579 0.0823115 -0.164623 0.0823115
;
#X obj 106 308 biquad~ 0.041825 0.712579 0.0823115 -0.164623 0.0823115
;
#X obj 115 0 *~ 0.2;
#X obj 163 461 *~ 10;
#X obj 42 457 *~ 10;
#X obj 42 327 d-reverb2-light~ 56 82;
#X obj 86 584 soundoutput;
#X obj 57 553 d-anaclip~;
#X obj 162 553 d-anaclip~;
#X obj 162 524 *~ 2;
#X obj 56 524 *~ 2;
#X connect 0 0 7 0;
#X connect 0 0 21 0;
#X connect 1 0 30 0;
#X connect 2 0 30 0;
#X connect 3 0 10 0;
#X connect 4 0 10 1;
#X connect 5 0 3 0;
#X connect 5 1 4 0;
#X connect 6 0 9 0;
#X connect 7 0 5 0;
#X connect 7 0 8 0;
#X connect 8 0 7 1;
#X connect 9 0 36 0;
#X connect 9 1 37 0;
#X connect 9 2 38 0;
#X connect 9 3 35 0;
#X connect 9 4 39 0;
#X connect 9 5 40 0;
#X connect 9 6 41 0;
#X connect 9 7 34 0;
#X connect 10 0 6 0;
#X connect 10 1 6 1;
#X connect 10 2 6 2;
#X connect 11 0 43 0;
#X connect 11 1 43 1;
#X connect 12 0 7 0;
#X connect 12 0 21 0;
#X connect 17 0 8 1;
#X connect 17 0 22 1;
#X connect 17 1 8 2;
#X connect 17 1 22 2;
#X connect 17 1 23 0;
#X connect 17 2 27 0;
#X connect 17 3 33 0;
#X connect 18 0 10 0;
#X connect 19 0 10 1;
#X connect 20 0 18 0;
#X connect 20 1 19 0;
#X connect 21 0 20 0;
#X connect 21 0 22 0;
#X connect 22 0 21 1;
#X connect 25 0 26 0;
#X connect 27 0 28 0;
#X connect 28 0 7 0;
#X connect 28 1 22 0;
#X connect 30 0 11 0;
#X connect 31 0 53 0;
#X connect 32 0 54 0;
#X connect 34 0 44 0;
#X connect 34 1 45 0;
#X connect 34 2 24 0;
#X connect 35 0 44 0;
#X connect 35 1 45 0;
#X connect 35 2 24 0;
#X connect 36 0 44 0;
#X connect 36 1 45 0;
#X connect 36 2 24 0;
#X connect 37 0 44 0;
#X connect 37 1 45 0;
#X connect 37 2 24 0;
#X connect 38 0 44 0;
#X connect 38 1 45 0;
#X connect 38 2 24 0;
#X connect 39 0 44 0;
#X connect 39 1 45 0;
#X connect 39 2 24 0;
#X connect 40 0 44 0;
#X connect 40 1 45 0;
#X connect 40 2 24 0;
#X connect 41 0 44 0;
#X connect 41 1 45 0;
#X connect 41 2 24 0;
#X connect 42 0 46 0;
#X connect 44 0 49 0;
#X connect 45 0 49 1;
#X connect 46 0 44 0;
#X connect 46 0 45 0;
#X connect 47 0 31 0;
#X connect 48 0 32 0;
#X connect 49 0 48 0;
#X connect 49 1 47 0;
#X connect 51 0 50 0;
#X connect 52 0 50 1;
#X connect 53 0 52 0;
#X connect 54 0 51 0;
