#N canvas 420 153 657 544 10;
#X obj 95 -71 inlet~;
#X obj 99 358 outlet~;
#X obj 99 329 *~;
#X obj 196 149 moses;
#X text 274 167 if > current \, sudden drop;
#X text 244 153 if it's < current \, gradual rise;
#X obj 114 309 d-smooth~;
#X obj 196 223 line;
#X obj 282 314 d-graph;
#X obj 190 18 dbtorms;
#X obj 190 37 * 10;
#N canvas 616 350 450 300 env 0;
#X obj 31 24 inlet~;
#X obj 34 151 outlet;
#X obj 25 83 env~ 256;
#X obj 216 47 block~ 256 4;
#X text 187 72 4x overlap for accurate enveloping;
#X connect 0 0 2 0;
#X connect 2 0 1 0;
#X restore 190 -5 pd env;
#X obj -1 76 samplerate~;
#X obj -1 53 loadbang;
#X obj -2 122 /;
#X msg -2 100 256000 \$1;
#X obj 1 5 delwrite~ \$0-1blockdel 100;
#X obj -2 155 delread~ \$0-1blockdel 100;
#X obj 429 311 d-graph;
#X obj 429 278 / 3;
#X obj 187 85 d-inv;
#X obj 282 278 / 1;
#X obj 114 280 * 1;
#X obj 523 141 block~ 256;
#X obj 196 174 pack f 2;
#X obj 223 195 pack f 10;
#X obj 322 -20 inlet;
#X obj 377 -20 inlet;
#X text 425 294 detected level;
#X obj 494 -18 inlet;
#X obj 494 53 dbtorms;
#X obj 494 30 + 100;
#X text 281 295 compression factor;
#X obj 322 14 d-default \$1 2;
#X obj 494 8 d-default \$3 0;
#X obj 377 50 d-default \$2 10;
#X text 32 -11 one block delay;
#X obj 190 -27 hip~ 100;
#X obj 167 108 moses 0.5;
#X msg 167 126 0.5;
#X obj 196 247 * 1;
#X obj 187 63 + 0.6;
#X connect 0 0 16 0;
#X connect 0 0 37 0;
#X connect 2 0 1 0;
#X connect 3 0 24 0;
#X connect 3 1 25 0;
#X connect 6 0 2 1;
#X connect 7 0 3 1;
#X connect 7 0 40 0;
#X connect 9 0 10 0;
#X connect 10 0 19 0;
#X connect 10 0 41 0;
#X connect 11 0 9 0;
#X connect 12 0 15 0;
#X connect 13 0 12 0;
#X connect 14 0 17 0;
#X connect 15 0 14 0;
#X connect 17 0 2 0;
#X connect 19 0 18 0;
#X connect 20 0 38 0;
#X connect 21 0 8 0;
#X connect 22 0 6 0;
#X connect 24 0 7 0;
#X connect 25 0 7 0;
#X connect 26 0 33 0;
#X connect 27 0 35 0;
#X connect 29 0 34 0;
#X connect 30 0 22 1;
#X connect 31 0 30 0;
#X connect 33 0 24 1;
#X connect 34 0 31 0;
#X connect 35 0 25 1;
#X connect 37 0 11 0;
#X connect 38 0 39 0;
#X connect 38 1 3 0;
#X connect 39 0 3 0;
#X connect 40 0 22 0;
#X connect 40 0 21 0;
#X connect 41 0 20 0;
