#N canvas 0 22 458 308 10;
#X obj 45 36 inlet;
#X obj 198 230 outlet;
#X obj 48 222 outlet;
#X obj 48 130 spigot 1;
#X obj 198 136 spigot 0;
#X obj 99 110 == 0;
#X obj 248 111 == 1;
#X obj 210 13 inlet;
#X obj 211 41 d-default \$1;
#X connect 0 0 3 0;
#X connect 0 0 4 0;
#X connect 3 0 2 0;
#X connect 4 0 1 0;
#X connect 5 0 3 1;
#X connect 6 0 4 1;
#X connect 7 0 8 0;
#X connect 8 0 6 0;
#X connect 8 0 5 0;
