#N canvas 378 226 474 324 10;
#X obj 39 21 inlet;
#X msg 40 64 bang;
#X obj 40 254 outlet;
#X obj 40 220 + \$1;
#X obj 82 95 - \$1;
#X text 175 233 output a random number between;
#X obj 134 21 inlet;
#X obj 40 145 random 1e+07;
#X obj 82 118 / 1e+07;
#X obj 84 21 inlet;
#X text 174 245 \$1 and \$2 (default 0..1);
#X obj 40 172 * 1;
#X obj 134 63 f;
#X obj 83 64 t b a;
#X obj 184 28 d-default \$2 1;
#X connect 0 0 1 0;
#X connect 1 0 7 0;
#X connect 3 0 2 0;
#X connect 4 0 8 0;
#X connect 6 0 12 0;
#X connect 7 0 11 0;
#X connect 8 0 11 1;
#X connect 9 0 13 0;
#X connect 11 0 3 0;
#X connect 12 0 4 0;
#X connect 13 0 4 0;
#X connect 13 1 4 1;
#X connect 13 1 3 1;
#X connect 14 0 12 0;
