#N canvas 642 165 472 438 10;
#X obj 45 322 osc~;
#X obj 45 348 *~;
#X obj 151 283 *~;
#X obj 151 255 vline~;
#X obj 45 256 mtof;
#X obj 45 234 line;
#X obj 73 165 +;
#X obj 45 143 t a a;
#X obj 45 51 t b b;
#X obj 45 189 pack f f f;
#X msg 45 211 \$1 \, \$2 \$3;
#X obj 45 19 inlet;
#X obj 45 405 outlet~;
#X obj 45 378 d-pan~;
#X obj 208 409 outlet~;
#X obj 78 358 d-random;
#X obj 151 206 pack f f;
#X obj 151 308 *~;
#X msg 151 229 \$2 0.3 \, 0 \$1 0.4;
#X obj 261 139 * 400;
#X obj 261 160 - 100;
#X obj 261 117 t a a;
#X obj 152 117 d-random -0.5 0.5;
#X obj 359 401 outlet;
#X obj 329 136 d-sq;
#X obj 329 160 d-sq;
#X obj 195 349 s ping-freq;
#X obj 193 322 mtof;
#X obj 45 117 d-random 115 126;
#X msg 45 278 \$1 1.46;
#X obj 45 300 vline~;
#X obj 232 44 clip 0 1;
#X text 364 384 level;
#X obj 296 70 + 0.7;
#X obj 261 94 d-random-sq 0.45 0.7;
#X obj 234 68 * 0.2;
#X obj 232 21 r accel-factor;
#X obj 202 284 s ping-level;
#X obj 376 304 switch~;
#X obj 390 252 del;
#X msg 356 275 1;
#X msg 384 275 0;
#X obj 390 226 + 0.4;
#X text 323 240 efficiency;
#X text 207 193 envgen;
#X connect 0 0 1 0;
#X connect 1 0 13 0;
#X connect 2 0 17 0;
#X connect 2 0 17 1;
#X connect 3 0 2 0;
#X connect 3 0 2 1;
#X connect 4 0 29 0;
#X connect 5 0 4 0;
#X connect 6 0 9 1;
#X connect 7 0 9 0;
#X connect 7 0 27 0;
#X connect 7 1 6 0;
#X connect 8 0 28 0;
#X connect 8 1 15 0;
#X connect 8 1 22 0;
#X connect 8 1 34 0;
#X connect 9 0 10 0;
#X connect 10 0 5 0;
#X connect 11 0 8 0;
#X connect 13 0 12 0;
#X connect 13 1 14 0;
#X connect 15 0 13 1;
#X connect 16 0 18 0;
#X connect 16 0 37 0;
#X connect 17 0 1 1;
#X connect 18 0 3 0;
#X connect 19 0 20 0;
#X connect 20 0 16 0;
#X connect 20 0 9 2;
#X connect 20 0 42 0;
#X connect 20 0 40 0;
#X connect 21 0 19 0;
#X connect 21 1 16 1;
#X connect 22 0 6 1;
#X connect 24 0 25 0;
#X connect 25 0 23 0;
#X connect 27 0 26 0;
#X connect 28 0 7 0;
#X connect 29 0 30 0;
#X connect 30 0 0 0;
#X connect 31 0 35 0;
#X connect 33 0 34 2;
#X connect 34 0 21 0;
#X connect 34 0 24 0;
#X connect 35 0 33 0;
#X connect 36 0 31 0;
#X connect 39 0 41 0;
#X connect 40 0 38 0;
#X connect 41 0 38 0;
#X connect 42 0 39 0;
