#N canvas 193 92 485 599 10;
#X declare -path ../pd;
#X declare -path ../../pd;
#X obj 44 54 r #touch;
#X obj 189 57 r #accelerate;
#X obj 44 97 list prepend #touch;
#X obj 44 450 netsend;
#X msg 83 379 connect \$1 9876;
#X obj 44 240 list prepend send;
#X obj 44 214 spigot;
#X obj 83 311 netreceive 9878;
#X obj 118 179 r \$0.conn.state;
#X obj 44 482 s \$0.conn.state;
#X floatatom 151 16 5 0 0 0 - - -;
#X floatatom 286 20 5 0 0 0 - - -;
#X text 197 18 -- DEBUG --;
#X obj 83 355 list;
#X obj 185 335 sel 0;
#X msg 185 357 disconnect;
#X obj 44 267 list trim;
#X obj 189 96 list prepend #accelerate;
#X text 45 532 Version: 2008-07-11;
#X text 45 549 Author: Roman Haefeli;
#X obj 327 475 soundinput;
#X obj 328 503 soundoutput;
#N canvas 0 0 448 215 more_paths 0;
#X text 27 19 You can add more paths here as well \, like the path
to soundoutput.pd on your computer etc.;
#X obj 36 57 declare -path ../pd;
#X obj 35 79 declare -path ../../pd;
#X restore 377 54 pd more_paths;
#X connect 0 0 2 0;
#X connect 1 0 17 0;
#X connect 2 0 6 0;
#X connect 3 0 9 0;
#X connect 4 0 3 0;
#X connect 5 0 16 0;
#X connect 6 0 5 0;
#X connect 7 0 13 0;
#X connect 7 1 14 0;
#X connect 8 0 6 1;
#X connect 10 0 2 0;
#X connect 11 0 17 0;
#X connect 13 0 4 0;
#X connect 14 0 15 0;
#X connect 15 0 3 0;
#X connect 16 0 3 0;
#X connect 17 0 6 0;
#X connect 20 0 21 0;
#X connect 20 1 21 1;
