#N canvas 436 343 519 539 10;
#X obj 48 459 soundfiler;
#X obj 48 55 inlet;
#N canvas 568 427 300 269 demux 0;
#X obj 111 159 spigot;
#X obj 30 158 spigot 1;
#X obj 83 119 unpack 0 0;
#X obj 83 55 select 0 1;
#X msg 83 81 1 0;
#X msg 121 81 0 1;
#X obj 30 183 outlet;
#X obj 111 183 outlet;
#X obj 30 118 inlet;
#X obj 83 32 inlet;
#X connect 0 0 7 0;
#X connect 1 0 6 0;
#X connect 2 0 1 1;
#X connect 2 1 0 1;
#X connect 3 0 4 0;
#X connect 3 1 5 0;
#X connect 4 0 2 0;
#X connect 5 0 2 0;
#X connect 8 0 1 0;
#X connect 8 0 0 0;
#X connect 9 0 3 0;
#X restore 48 212 pd demux;
#X msg 101 171 0;
#X msg 145 172 1;
#X obj 101 128 list trim;
#X obj 101 148 route wav ogg;
#X obj 142 275 route read;
#X obj 142 296 route -resize;
#X obj 142 321 list split 1;
#X obj 142 458 oggfiler;
#X obj 80 503 outlet;
#X msg 142 349 symbol \$1.ogg;
#X obj 142 371 list;
#X obj 142 404 list prepend read -resize;
#X obj 142 432 list trim;
#X obj 101 56 inlet;
#X obj 182 47 loadbang;
#X obj 182 71 list append \$1;
#X connect 0 0 11 0;
#X connect 1 0 2 0;
#X connect 2 0 0 0;
#X connect 2 1 7 0;
#X connect 3 0 2 1;
#X connect 4 0 2 1;
#X connect 5 0 6 0;
#X connect 6 0 3 0;
#X connect 6 1 4 0;
#X connect 6 2 2 1;
#X connect 7 0 8 0;
#X connect 8 0 9 0;
#X connect 9 0 12 0;
#X connect 9 1 13 1;
#X connect 10 0 11 0;
#X connect 12 0 13 0;
#X connect 13 0 14 0;
#X connect 14 0 15 0;
#X connect 15 0 10 0;
#X connect 16 0 5 0;
#X connect 17 0 18 0;
#X connect 18 0 5 0;
