#N canvas 446 251 618 519 10;
#X obj 35 55 loadbang;
#X msg 81 116 \; pd dsp 1;
#X obj 293 382 loop;
#X msg 52 257 1;
#X obj 292 286 line;
#X obj 82 94 del 200;
#X obj 301 435 soundoutput;
#X msg 291 263 \$1 50;
#X obj 289 19 r #accelerate;
#X obj 290 41 unpack 0 0 0;
#X obj 292 238 + 1;
#X obj 291 215 * 2;
#N canvas 333 300 649 466 touchinput 0;
#X obj 122 110 route 1 2;
#X obj 99 39 route down xy up;
#X obj 195 91 route 1 2;
#X msg 197 127 1;
#X obj 215 222 moses 50;
#X msg 216 248 0;
#X obj 99 69 route 1 2;
#X obj 215 197 unpack;
#X obj 115 265 line;
#N canvas 100 187 455 426 interact 0;
#X obj 46 219 -;
#X obj 48 191 t f f;
#X obj 67 59 unpack;
#X obj 68 32 inlet;
#X obj 67 114 atan2;
#X obj 66 398 outlet;
#X obj 119 84 - 240;
#X obj 47 170 change;
#X msg 185 158 stop \, bang;
#X msg 185 202 0;
#X obj 186 181 del 40;
#X obj 231 62 inlet;
#X msg 224 109 stop;
#X msg 327 191 1;
#X obj 116 357 * 0.5;
#X obj 66 357 +;
#X obj 65 332 * -10;
#X obj 68 84 - 170;
#X floatatom 118 61 5 0 0 0 - - -;
#X floatatom 119 21 5 0 0 0 - - -;
#X obj 47 240 moses 5;
#X obj 28 265 moses -5;
#X obj 116 290 - 6.28319;
#X obj 29 290 + 6.28319;
#X obj 118 39 t b f;
#X connect 0 0 20 0;
#X connect 1 0 0 1;
#X connect 1 1 0 0;
#X connect 2 0 17 0;
#X connect 2 1 6 0;
#X connect 3 0 2 0;
#X connect 4 0 7 0;
#X connect 4 0 8 0;
#X connect 6 0 4 1;
#X connect 7 0 1 0;
#X connect 8 0 10 0;
#X connect 9 0 16 0;
#X connect 10 0 9 0;
#X connect 11 0 12 0;
#X connect 11 0 13 0;
#X connect 12 0 10 0;
#X connect 13 0 5 0;
#X connect 14 0 15 1;
#X connect 15 0 14 0;
#X connect 15 0 5 0;
#X connect 16 0 15 0;
#X connect 17 0 4 0;
#X connect 18 0 4 0;
#X connect 19 0 24 0;
#X connect 20 0 21 0;
#X connect 20 1 22 0;
#X connect 21 0 23 0;
#X connect 21 1 16 0;
#X connect 22 0 16 0;
#X connect 23 0 16 0;
#X connect 24 0 18 0;
#X connect 24 1 4 1;
#X restore 125 197 pd interact;
#X msg 78 111 0;
#X obj 100 17 r #touch;
#X msg 114 242 \$1 50;
#X msg 236 304 0;
#X msg 277 306 4;
#X obj 115 327 outlet;
#X obj 163 285 print;
#X connect 0 0 9 0;
#X connect 1 0 6 0;
#X connect 1 1 0 0;
#X connect 1 2 2 0;
#X connect 2 0 3 0;
#X connect 2 1 3 0;
#X connect 2 1 14 0;
#X connect 3 0 9 1;
#X connect 4 0 5 0;
#X connect 6 0 10 0;
#X connect 6 1 13 0;
#X connect 7 1 4 0;
#X connect 8 0 15 0;
#X connect 9 0 12 0;
#X connect 10 0 12 0;
#X connect 11 0 1 0;
#X connect 11 0 16 0;
#X connect 12 0 8 0;
#X restore 436 75 pd touchinput;
#X obj 403 148 r #touch;
#X obj 403 175 route down up;
#X msg 402 254 0;
#X msg 450 275 1;
#X obj 293 308 spigot 1;
#X obj 404 230 unpack 0 0 0;
#X obj 451 254 unpack 0 0 0;
#X msg 109 234 hidad.wav;
#X msg 88 256 loop1.wav;
#X obj 337 93 -;
#X obj 334 65 t f f;
#X obj 337 112 abs;
#X obj 337 155 change;
#X obj 86 208 sel 0 1;
#X obj 336 178 sel 1;
#X obj 85 163 f;
#X obj 115 163 + 1;
#X obj 117 184 % 3;
#X obj 338 134 > 1.5;
#X connect 0 0 3 0;
#X connect 0 0 5 0;
#X connect 0 0 21 0;
#X connect 2 0 6 0;
#X connect 2 1 6 1;
#X connect 3 0 2 0;
#X connect 4 0 17 0;
#X connect 5 0 1 0;
#X connect 7 0 4 0;
#X connect 8 0 9 0;
#X connect 9 0 11 0;
#X connect 9 2 23 0;
#X connect 10 0 7 0;
#X connect 11 0 10 0;
#X connect 12 0 2 0;
#X connect 13 0 14 0;
#X connect 14 0 18 0;
#X connect 14 1 19 0;
#X connect 15 0 17 1;
#X connect 16 0 17 1;
#X connect 17 0 2 0;
#X connect 18 0 15 0;
#X connect 19 0 16 0;
#X connect 20 0 2 1;
#X connect 21 0 2 1;
#X connect 22 0 24 0;
#X connect 23 0 22 1;
#X connect 23 1 22 0;
#X connect 24 0 31 0;
#X connect 25 0 27 0;
#X connect 26 0 21 0;
#X connect 26 1 20 0;
#X connect 27 0 28 0;
#X connect 28 0 29 0;
#X connect 28 0 26 0;
#X connect 29 0 30 0;
#X connect 30 0 28 1;
#X connect 31 0 25 0;
