#N canvas 458 322 660 526 10;
#X obj 158 187 soundfiler;
#X obj 106 395 phasor~;
#X obj 130 327 /;
#X obj 105 16 inlet speed;
#X obj 150 48 inlet sample;
#X obj 106 491 outlet~;
#X obj 258 490 outlet~;
#X obj 258 471 tabread4~ \$0-sample2;
#X obj 285 395 table \$0-sample2;
#X obj 163 394 table \$0-sample1;
#X obj 106 471 tabread4~ \$0-sample1;
#X obj 193 115 symbol \$0-sample1;
#X obj 211 93 symbol \$0-sample2;
#X obj 159 142 pack s s s;
#X msg 159 164 read -resize \$1 \$2 \$3;
#X obj 105 368 * 1;
#X obj 106 438 *~ 44100;
#X obj 259 445 *~ 44100;
#X obj 289 14 inlet pos;
#X obj 288 40 / 4;
#X obj 150 71 t b a b b;
#X msg 131 305 22050 \$1;
#X connect 0 0 21 0;
#X connect 0 0 16 1;
#X connect 0 0 17 1;
#X connect 1 0 16 0;
#X connect 1 0 17 0;
#X connect 2 0 15 1;
#X connect 3 0 15 0;
#X connect 4 0 20 0;
#X connect 7 0 6 0;
#X connect 10 0 5 0;
#X connect 11 0 13 1;
#X connect 12 0 13 2;
#X connect 13 0 14 0;
#X connect 14 0 0 0;
#X connect 15 0 1 0;
#X connect 16 0 10 0;
#X connect 17 0 7 0;
#X connect 18 0 19 0;
#X connect 19 0 1 1;
#X connect 20 0 15 0;
#X connect 20 1 13 0;
#X connect 20 2 11 0;
#X connect 20 3 12 0;
#X connect 21 0 2 0;
