#N canvas 426 230 757 472 10;
#X obj 34 35 inlet;
#X obj 34 391 outlet;
#X obj 55 199 loadbang;
#X msg 201 56 set \$1;
#X obj 201 296 list trim;
#X obj 201 80 s \$0-in;
#X obj 201 247 r \$0-out;
#X obj 201 276 list prepend \$2;
#X obj 34 344 u_dispatch \$1 \$2;
#X obj 201 28 r \$1-\$2;
#X obj 55 233 list prepend \$2 \$3;
#X obj 199 149 r \$0-in;
#X obj 199 192 s \$0-out;
#X obj 199 171 0;
#X obj 126 148 loadbang;
#X connect 0 0 8 0;
#X connect 2 0 10 0;
#X connect 3 0 5 0;
#X connect 4 0 8 0;
#X connect 4 0 1 0;
#X connect 6 0 7 0;
#X connect 7 0 4 0;
#X connect 8 0 1 0;
#X connect 9 0 3 0;
#X connect 10 0 8 0;
#X connect 11 0 13 0;
#X connect 13 0 12 0;
#X connect 14 0 13 0;
#X coords 0 0 1 1 179 30 0;
