#N canvas 138 174 515 477 10;
#X obj 42 101 inlet~;
#X obj 43 148 outlet~;
#X obj 273 106 d-biquadcalc-lowshelf;
#X obj 244 170 mtof;
#X obj 322 22 inlet;
#X floatatom 176 217 10 0 0 0 - - -;
#X floatatom 84 221 5 0 0 0 - - -;
#X obj 146 100 random 64;
#X msg 146 79 bang;
#X obj 122 170 mtof;
#X obj 201 21 d-default \$1 990;
#X obj 201 0 inlet;
#X obj 30 71 vd~ \$0-del 2000;
#X obj 27 396 delwrite~ \$0-del 2000;
#X obj 30 50 d-jitter~ 990 0.4 5000;
#X obj 27 370 *~ 0.98;
#X obj 143 123 + 48;
#X obj 122 226 line;
#X obj 244 226 line;
#X obj 26 297 lop~ 22050;
#X obj 26 262 hip~ 5;
#X msg 244 202 \$1 500;
#X msg 122 202 \$1 500;
#X obj 244 148 + 21;
#X obj 122 148 - 21;
#X connect 0 0 1 0;
#X connect 0 0 20 0;
#X connect 3 0 5 0;
#X connect 3 0 21 0;
#X connect 4 0 8 0;
#X connect 7 0 16 0;
#X connect 8 0 7 0;
#X connect 9 0 6 0;
#X connect 9 0 22 0;
#X connect 10 0 14 0;
#X connect 11 0 10 0;
#X connect 12 0 1 0;
#X connect 12 0 20 0;
#X connect 14 0 12 0;
#X connect 15 0 13 0;
#X connect 16 0 23 0;
#X connect 16 0 24 0;
#X connect 17 0 20 1;
#X connect 18 0 19 1;
#X connect 19 0 15 0;
#X connect 20 0 19 0;
#X connect 21 0 18 0;
#X connect 22 0 17 0;
#X connect 23 0 3 0;
#X connect 24 0 9 0;
