#N canvas 327 167 481 357 10;
#X obj -349 74 inlet~;
#X obj -349 240 outlet~;
#X obj -289 240 outlet~;
#N canvas 426 108 534 329 \$0-DSP 0;
#X obj 133 252 outlet~;
#X obj 216 252 outlet~;
#N canvas 405 87 564 444 water 0;
#X obj 167 165 vd~ \$0-waterwobble;
#X obj 29 363 s~ \$0-fb;
#X obj 29 324 *~;
#N canvas 0 22 642 720 bubbles 0;
#X obj 133 21 line;
#X obj 133 -74 env~;
#X obj 133 -26 max 0;
#X obj 133 65 line;
#X obj 133 88 - 10;
#X obj 209 160 random 1000;
#X obj 124 168 random 100;
#X obj 124 195 > 70;
#X obj 184 88 loadbang;
#X obj 124 405 f;
#X obj 154 405 + 1;
#X obj 124 224 sel 1;
#X obj 124 448 pack f f;
#X obj 184 136 t b b;
#X obj 72 474 route 1 2 3 4 5 6 7 8;
#X obj 124 427 mod 8;
#X obj 184 110 metro 70;
#X obj 209 183 / 400;
#X obj 278 454 + 0.3;
#X obj 345 144 -;
#X obj 345 90 * 100;
#X obj 209 209 + 0.5;
#X obj 345 167 + 50;
#X obj 313 64 t f f;
#X msg 313 36 0.1;
#X obj 313 10 loadbang;
#X obj 124 682 r~ \$0-fb;
#X obj 133 -97 inlet~;
#X msg 133 42 \$1 100;
#X obj 133 137 outlet;
#X obj 133 112 / 20;
#X msg 133 -2 \$1 10;
#X obj 72 744 delwrite~ \$0-waterwobble 400;
#X obj 140 269 del 20;
#X obj 156 289 del 40;
#X obj 124 245 t b b b b b b b b b b;
#X obj 172 309 del 75;
#X obj 189 329 del 100;
#X obj 204 349 del 133;
#X obj 220 369 del 240;
#X obj 236 389 del 330;
#X obj 253 409 del 400;
#X obj 345 120 swap 100;
#X obj 133 -50 - 67;
#X obj 273 481 * 1000;
#X obj 72 672 *~ 0.1;
#X obj 72 497 abs/bub;
#X obj 87 516 abs/bub;
#X obj 107 536 abs/bub;
#X obj 127 556 abs/bub;
#X obj 147 576 abs/bub;
#X obj 167 596 abs/bub;
#X obj 187 616 abs/bub;
#X obj 207 636 abs/bub;
#X obj 227 656 abs/bub;
#X obj 72 725 hip~ 150;
#X connect 0 0 28 0;
#X connect 1 0 43 0;
#X connect 2 0 31 0;
#X connect 3 0 4 0;
#X connect 4 0 30 0;
#X connect 5 0 17 0;
#X connect 6 0 7 0;
#X connect 7 0 11 0;
#X connect 8 0 16 0;
#X connect 9 0 10 0;
#X connect 9 0 15 0;
#X connect 10 0 9 1;
#X connect 11 0 35 0;
#X connect 12 0 14 0;
#X connect 13 0 6 0;
#X connect 13 1 5 0;
#X connect 14 0 46 0;
#X connect 14 1 47 0;
#X connect 14 2 48 0;
#X connect 14 3 49 0;
#X connect 14 4 50 0;
#X connect 14 5 51 0;
#X connect 14 6 52 0;
#X connect 14 7 53 0;
#X connect 14 8 54 0;
#X connect 15 0 12 0;
#X connect 16 0 13 0;
#X connect 17 0 21 0;
#X connect 18 0 44 0;
#X connect 19 0 7 1;
#X connect 19 0 22 0;
#X connect 20 0 42 0;
#X connect 21 0 12 1;
#X connect 22 0 16 1;
#X connect 23 0 18 0;
#X connect 23 1 20 0;
#X connect 24 0 23 0;
#X connect 25 0 24 0;
#X connect 26 0 55 0;
#X connect 27 0 1 0;
#X connect 28 0 3 0;
#X connect 30 0 23 0;
#X connect 30 0 29 0;
#X connect 31 0 0 0;
#X connect 33 0 9 0;
#X connect 34 0 9 0;
#X connect 35 0 9 0;
#X connect 35 1 33 0;
#X connect 35 2 34 0;
#X connect 35 3 36 0;
#X connect 35 4 37 0;
#X connect 35 5 38 0;
#X connect 35 6 39 0;
#X connect 35 7 40 0;
#X connect 35 8 41 0;
#X connect 36 0 9 0;
#X connect 37 0 9 0;
#X connect 38 0 9 0;
#X connect 39 0 9 0;
#X connect 40 0 9 0;
#X connect 41 0 9 0;
#X connect 42 0 19 0;
#X connect 42 1 19 1;
#X connect 43 0 2 0;
#X connect 44 0 46 1;
#X connect 44 0 47 1;
#X connect 44 0 48 1;
#X connect 44 0 49 1;
#X connect 44 0 50 1;
#X connect 44 0 51 1;
#X connect 44 0 52 1;
#X connect 44 0 53 1;
#X connect 44 0 54 1;
#X connect 45 0 55 0;
#X connect 46 0 45 0;
#X connect 47 0 45 0;
#X connect 48 0 45 0;
#X connect 49 0 45 0;
#X connect 50 0 45 0;
#X connect 51 0 45 0;
#X connect 52 0 45 0;
#X connect 53 0 45 0;
#X connect 54 0 45 0;
#X connect 55 0 32 0;
#X restore 47 199 pd bubbles;
#X obj 47 67 inlet~;
#X obj 167 94 osc~ 0.0919;
#X obj 167 363 outlet~;
#X obj 241 363 outlet~;
#X obj 167 141 +~ 100;
#X obj 167 117 *~ 40;
#X obj 47 301 lop~ 10;
#X obj 47 220 *;
#X obj 47 241 pow 0.5;
#X obj 167 186 *~ 2;
#X connect 0 0 2 0;
#X connect 0 0 13 0;
#X connect 2 0 1 0;
#X connect 3 0 11 0;
#X connect 3 0 11 1;
#X connect 4 0 3 0;
#X connect 5 0 9 0;
#X connect 8 0 0 0;
#X connect 9 0 8 0;
#X connect 10 0 2 1;
#X connect 11 0 12 0;
#X connect 12 0 10 0;
#X connect 13 0 6 0;
#X connect 13 0 7 0;
#X restore 133 76 pd water;
#X obj 133 42 inlet~;
#N canvas 274 199 334 279 voice 0;
#X obj 53 38 inlet~;
#X obj 53 180 outlet~;
#X obj 153 112 bp~ 287 19.68;
#X obj 53 112 bp~ 287 19.68;
#X connect 0 0 2 0;
#X connect 0 0 3 0;
#X connect 2 0 1 0;
#X connect 3 0 1 0;
#X restore 216 78 pd voice;
#X obj 216 190 *~;
#X obj 133 190 *~;
#X obj 186 190 *~;
#X obj 373 48 r \$0-Voice;
#X obj 281 48 r \$0-Bubbles;
#X obj 281 69 m_scale 0 1 0 2;
#X obj 234 169 lop~ 20;
#X obj 204 149 lop~ 20;
#X connect 2 0 6 0;
#X connect 2 1 7 0;
#X connect 3 0 2 0;
#X connect 3 0 4 0;
#X connect 4 0 5 0;
#X connect 5 0 0 0;
#X connect 5 0 1 0;
#X connect 6 0 0 0;
#X connect 7 0 1 0;
#X connect 8 0 11 0;
#X connect 9 0 10 0;
#X connect 10 0 12 0;
#X connect 11 0 5 1;
#X connect 12 0 6 1;
#X connect 12 0 7 1;
#X restore -349 184 pd \$0-DSP;
#N canvas 210 59 231 172 \$0-INPUT 0;
#X obj 14 16 inlet~;
#X obj 14 126 outlet~;
#X obj 15 63 e_agc;
#X connect 0 0 2 0;
#X connect 2 0 1 0;
#X restore -349 128 pd \$0-INPUT;
#X obj -214 89 inlet;
#X obj -214 240 outlet;
#N canvas 586 153 496 199 MODULE_INFO 0;
#X text 58 120 decorator: s1m1-s2m1;
#X text 58 142 tags:;
#X text 57 23 name: Bubbles;
#X text 57 45 authors: Reality Jockey \, Andy Farnell;
#X text 58 65 description: Reacts to microphone input. Immerse yourself
in bubbles... With Bubble parameter on full its like jumping into a
massive bar of Aero. Turn up voice to let some speech through.;
#X restore -349 23 pd MODULE_INFO;
#N canvas 230 66 602 502 \$0-PARAMETERS 0;
#X obj -25 127 s \$0-tick;
#X obj -25 -11 inlet;
#X obj -25 77 route tick;
#X obj 106 132 cnv 15 187 97 empty empty RJC_Parameters 10 12 1 14
-162280 -262144 0;
#X obj 106 106 cnv 15 187 20 empty empty Bubbles 60 11 1 14 -261234
-33289 0;
#X obj 110 276 outlet;
#X obj 110 189 rjc_parameter_floatrange \$0 Voice 0.487;
#X obj 110 153 rjc_parameter_floatrange \$0 Bubbles 0.6;
#X connect 1 0 2 0;
#X connect 2 0 0 0;
#X connect 2 1 7 0;
#X connect 6 0 5 0;
#X connect 7 0 6 0;
#X coords 0 -1 1 1 199 135 2 100 100;
#X restore -214 105 pd \$0-PARAMETERS;
#X connect 0 0 4 0;
#X connect 3 0 1 0;
#X connect 3 1 2 0;
#X connect 4 0 3 0;
#X connect 5 0 8 0;
#X connect 8 0 6 0;
