#N canvas 502 135 408 305 10;
#N canvas 337 389 527 246 MODULE_INFO 0;
#X text 64 79 authors: Reality Jockey;
#X text 65 140 decorator: s1m1-s2m1;
#X text 66 163 tags:;
#X text 66 57 name: Cutter;
#X text 65 99 description: Cutter fades the input signal in and out
in a random sequence while panning it left and right. The Width parameter
controls the amount of panning.;
#X restore 12 20 pd MODULE_INFO;
#X obj 156 81 inlet;
#N canvas 69 108 376 313 \$0-MODULE 0;
#X obj 106 107 cnv 15 187 20 empty empty Cutter 70 11 1 14 -261234
-33289 0;
#X obj 3 63 inlet;
#X obj 3 101 route tick;
#X obj 3 158 s \$0-tick;
#X obj 110 242 outlet;
#X obj 106 132 cnv 15 187 97 empty empty RJC_Parameters 10 12 1 14
-162280 -262144 0;
#X obj 110 159 rjc_parameter_floatrange \$0 Width 0.7;
#X connect 1 0 2 0;
#X connect 2 0 3 0;
#X connect 2 1 6 0;
#X connect 6 0 4 0;
#X coords 0 -1 1 1 200 135 2 100 100;
#X restore 156 97 pd \$0-MODULE;
#X obj 156 232 outlet;
#X obj 13 232 outlet~;
#X obj 73 232 outlet~;
#N canvas 49 71 398 393 \$0-DSP 0;
#X obj 50 364 outlet~;
#X obj 177 365 outlet~;
#X obj 50 68 inlet~;
#X obj 177 67 inlet~;
#N canvas 76 54 287 386 cuttingfader 0;
#X obj 88 107 sel 0;
#X obj 88 188 line~;
#X msg 88 162 1 20;
#X obj 40 -11 inlet~;
#X obj 40 240 outlet~;
#X obj 40 214 *~;
#X obj 88 87 mod 2;
#X obj 88 -82 inlet;
#X obj 141 -19 sel 0;
#X msg 120 59 1.5;
#X msg 159 59 2;
#X msg 199 59 4;
#X obj 141 2 random 4;
#X obj 141 23 sel 0 1 2 3;
#X obj 141 -40 mod 8;
#X obj 131 139 del 90;
#X msg 131 162 0 1;
#X connect 0 0 2 0;
#X connect 0 0 15 0;
#X connect 1 0 5 1;
#X connect 2 0 1 0;
#X connect 3 0 5 0;
#X connect 5 0 4 0;
#X connect 6 0 0 0;
#X connect 7 0 6 0;
#X connect 7 0 14 0;
#X connect 8 0 12 0;
#X connect 9 0 6 1;
#X connect 10 0 6 1;
#X connect 11 0 6 1;
#X connect 12 0 13 0;
#X connect 13 0 9 0;
#X connect 13 1 10 0;
#X connect 13 2 11 0;
#X connect 13 3 10 0;
#X connect 14 0 8 0;
#X connect 15 0 16 0;
#X connect 16 0 1 0;
#X restore 50 186 pd cuttingfader;
#N canvas 753 144 292 412 cuttingfader 0;
#X obj 101 213 sel 0;
#X obj 101 294 line~;
#X msg 101 268 1 20;
#X obj 53 95 inlet~;
#X obj 53 346 outlet~;
#X obj 53 320 *~;
#X obj 101 193 mod 2;
#X msg 144 268 0 2;
#X obj 101 24 inlet;
#X obj 154 87 sel 0;
#X msg 133 165 1.5;
#X msg 172 165 2;
#X msg 212 165 4;
#X obj 154 108 random 4;
#X obj 154 129 sel 0 1 2 3;
#X obj 154 66 mod 8;
#X obj 144 245 del 90;
#X connect 0 0 2 0;
#X connect 0 0 16 0;
#X connect 1 0 5 1;
#X connect 2 0 1 0;
#X connect 3 0 5 0;
#X connect 5 0 4 0;
#X connect 6 0 0 0;
#X connect 7 0 1 0;
#X connect 8 0 6 0;
#X connect 8 0 15 0;
#X connect 9 0 13 0;
#X connect 10 0 6 1;
#X connect 11 0 6 1;
#X connect 12 0 6 1;
#X connect 13 0 14 0;
#X connect 14 0 10 0;
#X connect 14 1 11 0;
#X connect 14 2 12 0;
#X connect 14 3 11 0;
#X connect 15 0 9 0;
#X connect 16 0 7 0;
#X restore 177 186 pd cuttingfader;
#X obj 279 100 r \$0-tick;
#X obj 189 262 c_xfade;
#X obj 59 262 c_xfade;
#X obj 195 320 lop~ 20;
#X obj 68 320 lop~ 20;
#X obj 50 341 *~;
#X obj 177 341 *~;
#X obj 195 284 m_scale 0 1 0.5 1;
#X obj 235 214 r \$0-Width;
#X connect 2 0 4 0;
#X connect 3 0 5 0;
#X connect 4 0 7 0;
#X connect 4 0 11 0;
#X connect 5 0 8 0;
#X connect 5 0 12 0;
#X connect 6 0 5 1;
#X connect 6 0 4 1;
#X connect 7 0 12 0;
#X connect 8 0 11 0;
#X connect 9 0 12 1;
#X connect 10 0 11 1;
#X connect 11 0 0 0;
#X connect 12 0 1 0;
#X connect 13 0 9 0;
#X connect 13 0 10 0;
#X connect 14 0 7 2;
#X connect 14 0 8 2;
#X connect 14 0 13 0;
#X restore 13 184 pd \$0-DSP;
#N canvas 0 22 314 337 \$0-INPUT 0;
#X obj 76 47 inlet~;
#X obj 76 216 outlet~;
#X obj 76 132 hip~ 400;
#X obj 76 158 lop~ 2000;
#X obj 136 216 outlet~;
#X connect 0 0 2 0;
#X connect 2 0 3 0;
#X connect 3 0 1 0;
#X connect 3 0 4 0;
#X coords 0 0 1 1 85 40 0;
#X restore 13 129 pd \$0-INPUT;
#X obj 13 72 inlet~;
#X connect 1 0 2 0;
#X connect 2 0 3 0;
#X connect 6 0 4 0;
#X connect 6 1 5 0;
#X connect 7 0 6 0;
#X connect 7 1 6 1;
#X connect 8 0 7 0;
#X coords 0 0 1 1 85 60 0;
