#N canvas 337 210 904 576 10;
#X obj 347 525 soundoutput;
#X obj 174 153 soundinput;
#X obj 107 474 *~;
#X obj 66 14 loadbang;
#X msg 68 45 \; pd dsp 1;
#X obj 194 414 osc~ 330;
#X msg 52 109 40;
#X obj 358 225 unpack 0 0 0;
#X obj 343 338 mtof;
#X obj 455 102 float;
#X obj 502 103 + 1;
#X msg 455 55 bang;
#X obj 342 315 - 36;
#X obj 342 364 phasor~;
#X obj 111 348 mtof;
#X obj 438 336 mtof;
#X obj 437 313 - 36;
#X obj 437 362 phasor~;
#X obj 42 415 osc~ 330;
#X obj 143 473 *~;
#X obj 174 195 hip~ 10;
#X obj 56 347 sig~ 1;
#X obj 633 367 mtof;
#X obj 633 447 *~;
#X obj 695 412 line~;
#X obj 633 421 phasor~;
#X msg 695 387 0.1 \, 0 100;
#X obj 357 186 seq1;
#X obj 502 125 % 16536;
#X obj 398 187 seq2;
#X obj 364 152 == 0;
#X obj 412 151 == 1;
#X obj 365 106 sel 0;
#X obj 182 465 *~ 2000;
#X obj 225 527 vcf~ 2;
#X obj 149 523 vcf~ 2;
#X obj 206 441 osc~ 0.125;
#X obj 365 131 random 3;
#X obj 691 98 osc~ 100;
#X obj 691 75 line~;
#X msg 690 49 200 \, 70 40;
#X obj 686 127 *~;
#X obj 768 78 line~;
#X msg 775 49 1 \, 0 100;
#X obj 648 9 sel 0 1 2 3 4 5 6 7;
#X obj 563 40 % 8;
#X obj 456 78 metro 250;
#X floatatom 322 154 5 0 0 0 - - -;
#X obj 365 83 % 32;
#X obj 581 114 del 250;
#X obj 579 93 sel 0;
#X obj 634 398 / 4;
#X obj 193 392 * 1;
#X obj 42 394 * 1;
#X obj 182 488 +~ 2400;
#X obj 244 490 +~ 2400;
#X obj 244 467 *~ -2000;
#X obj 176 218 fbdel 4000 0.9;
#X obj 648 157 soundoutput;
#X obj 174 174 *~;
#X obj 230 129 line~;
#X msg 264 192 feedback \$1;
#X obj 207 242 env~;
#X obj 207 312 +;
#X floatatom 247 318 5 0 0 0 - - -;
#X msg 250 244 0;
#X floatatom 293 383 5 0 0 0 - - -;
#X msg 229 18 \; #transport play 1;
#X obj 303 240 % 32;
#X obj 299 269 sel 0;
#X obj 205 276 * 0.001;
#X obj 247 340 float;
#X obj 247 381 max 0;
#X obj 293 363 -;
#X obj 247 358 - 45;
#X obj 295 323 * 10;
#X obj 294 400 * 0.01;
#X msg 294 343 95 \$1;
#X msg 230 101 0 \, 1 5000;
#X obj 342 398 *~ 0.03;
#X obj 437 401 *~ 0.03;
#X connect 1 0 59 0;
#X connect 2 0 35 0;
#X connect 3 0 4 0;
#X connect 3 0 6 0;
#X connect 3 0 46 0;
#X connect 3 0 78 0;
#X connect 5 0 19 0;
#X connect 6 0 14 0;
#X connect 7 0 12 0;
#X connect 7 2 16 0;
#X connect 7 2 14 0;
#X connect 8 0 13 0;
#X connect 9 0 10 0;
#X connect 10 0 28 0;
#X connect 11 0 46 0;
#X connect 12 0 8 0;
#X connect 13 0 79 0;
#X connect 14 0 52 0;
#X connect 14 0 53 0;
#X connect 15 0 17 0;
#X connect 16 0 15 0;
#X connect 17 0 80 0;
#X connect 18 0 2 0;
#X connect 19 0 34 0;
#X connect 20 0 57 0;
#X connect 20 0 62 0;
#X connect 21 0 2 0;
#X connect 21 0 19 0;
#X connect 22 0 26 0;
#X connect 22 0 51 0;
#X connect 23 0 0 1;
#X connect 24 0 23 1;
#X connect 25 0 23 0;
#X connect 26 0 24 0;
#X connect 27 0 7 0;
#X connect 28 0 9 1;
#X connect 28 0 29 0;
#X connect 28 0 27 0;
#X connect 28 0 45 0;
#X connect 28 0 48 0;
#X connect 28 0 68 0;
#X connect 29 0 7 0;
#X connect 30 0 27 1;
#X connect 31 0 29 1;
#X connect 32 0 37 0;
#X connect 33 0 54 0;
#X connect 34 0 0 1;
#X connect 35 0 0 0;
#X connect 36 0 33 0;
#X connect 36 0 56 0;
#X connect 37 0 30 0;
#X connect 37 0 31 0;
#X connect 37 0 47 0;
#X connect 37 0 50 0;
#X connect 38 0 41 0;
#X connect 39 0 38 0;
#X connect 40 0 39 0;
#X connect 40 0 43 0;
#X connect 41 0 58 0;
#X connect 41 0 58 1;
#X connect 42 0 41 1;
#X connect 43 0 42 0;
#X connect 44 0 40 0;
#X connect 44 3 40 0;
#X connect 44 4 40 0;
#X connect 45 0 44 0;
#X connect 46 0 9 0;
#X connect 48 0 32 0;
#X connect 49 0 40 0;
#X connect 50 0 49 0;
#X connect 51 0 25 0;
#X connect 52 0 5 0;
#X connect 53 0 18 0;
#X connect 54 0 35 1;
#X connect 55 0 34 1;
#X connect 56 0 55 0;
#X connect 57 0 2 1;
#X connect 57 0 19 1;
#X connect 59 0 20 0;
#X connect 60 0 59 1;
#X connect 61 0 57 1;
#X connect 62 0 70 0;
#X connect 63 0 64 0;
#X connect 64 0 63 1;
#X connect 64 0 71 1;
#X connect 65 0 63 1;
#X connect 66 0 76 0;
#X connect 68 0 69 0;
#X connect 69 0 65 0;
#X connect 69 0 71 0;
#X connect 70 0 63 0;
#X connect 71 0 74 0;
#X connect 72 0 75 0;
#X connect 73 0 66 0;
#X connect 74 0 72 0;
#X connect 75 0 77 0;
#X connect 76 0 61 0;
#X connect 77 0 73 0;
#X connect 78 0 60 0;
#X connect 79 0 0 0;
#X connect 79 0 0 1;
#X connect 80 0 0 1;
#X connect 80 0 0 0;
