#N canvas 195 478 450 300 10;
#X msg 204 120 69 72 77;
#X msg 130 122 72 75 91;
#X msg 57 121 70 74 86;
#X obj 194 10 inlet;
#X obj 165 166 outlet;
#X obj 195 35 spigot 1;
#X obj 245 8 inlet;
#X obj 195 57 % 32;
#X obj 57 94 sel 0 8;
#X obj 129 94 sel 16;
#X obj 203 95 sel 24;
#X connect 0 0 4 0;
#X connect 1 0 4 0;
#X connect 2 0 4 0;
#X connect 3 0 5 0;
#X connect 5 0 7 0;
#X connect 6 0 5 1;
#X connect 7 0 8 0;
#X connect 7 0 9 0;
#X connect 8 0 2 0;
#X connect 9 0 1 0;
#X connect 10 0 0 0;
