#N canvas 195 478 450 300 10;
#X msg 204 120 69 72 77;
#X obj 194 10 inlet;
#X obj 165 166 outlet;
#X obj 195 35 spigot 1;
#X obj 245 8 inlet;
#X msg 130 122 72 75 77;
#X msg 57 121 70 74 76;
#X obj 195 57 % 32;
#X obj 57 94 sel 0 8;
#X obj 129 93 sel 16;
#X obj 204 95 sel 24;
#X connect 0 0 2 0;
#X connect 1 0 3 0;
#X connect 3 0 7 0;
#X connect 4 0 3 1;
#X connect 5 0 2 0;
#X connect 6 0 2 0;
#X connect 7 0 8 0;
#X connect 7 0 9 0;
#X connect 7 0 10 0;
#X connect 8 0 6 0;
#X connect 9 0 5 0;
#X connect 10 0 0 0;
