#N canvas 27 22 1355 786 10;
#N canvas 0 22 601 315 nm_accelerometer_processing 0;
#X obj 17 72 r accelerate;
#X obj 17 151 outlet;
#X obj 12 14 accelerate;
#X text 101 16 <- put this in your scene patch to access data;
#X obj 17 101 route magnitude pitch roll;
#X obj 78 215 outlet;
#X obj 152 249 outlet;
#X obj 77 131 / 1.571;
#X obj 148 137 / 1.571;
#X text 243 256 outputs should be 0-1 or thereabouts;
#X connect 0 0 4 0;
#X connect 4 0 1 0;
#X connect 4 1 7 0;
#X connect 4 2 8 0;
#X connect 7 0 5 0;
#X connect 8 0 6 0;
#X restore -1 26 pd nm_accelerometer_processing;
#X obj 611 18 loadbang;
#X msg 610 43 \; pd dsp 1 \; inputvolume 1;
#X obj 254 445 efficient-kick;
#X msg 254 424 1;
#X obj 380 444 efficient-snare;
#X msg 379 424 1;
#X obj 507 442 efficient-fmhh;
#X obj -157 151 soundinput;
#X obj -46 399 tgl 15 0 empty empty empty 17 7 0 10 -262144 -1 -1 0
1;
#X text 49 448 needs compressor on output;
#X obj -160 425 nm_pitched_stuckbuffer;
#X obj 254 486 *~ 2;
#N canvas 109 383 340 339 compress 0;
#X obj 129 23 inlet~;
#X obj 111 289 outlet~;
#X obj 145 148 /;
#X obj 217 31 block~ 64;
#X obj 132 222 d-smooth~;
#X msg 144 128 0.5 \$1;
#X obj 146 84 env~;
#X obj 145 108 dbtorms;
#X obj 129 58 +~ 0;
#X obj -18 194 delread~ \$0-compdell 3;
#X obj -17 171 delwrite~ \$0-compdell 100;
#X obj 110 246 *~;
#X connect 0 0 8 0;
#X connect 2 0 4 0;
#X connect 4 0 11 1;
#X connect 5 0 2 0;
#X connect 6 0 7 0;
#X connect 7 0 5 0;
#X connect 8 0 6 0;
#X connect 8 0 10 0;
#X connect 9 0 11 0;
#X connect 11 0 1 0;
#X restore -157 177 pd compress;
#X obj 254 464 tanh~;
#X obj 21 406 bng 15 250 50 0 empty empty empty 17 7 0 10 -262144 -1
-1;
#X obj 731 407 syn-classicsynth /key;
#X obj 727 382 mtof;
#X msg 968 406 1;
#X msg 999 405 0;
#X obj 969 357 t b b;
#X obj 967 440 s \$0-note-on-off;
#X obj -100 579 hilbert~;
#X obj 733 488 lop~ 880;
#X obj 859 118 r \$0-note-on-off;
#X obj 998 384 delay 200;
#X msg 121 425 slide 256;
#X msg 60 424 slide 1;
#X obj 350 78 perk-bassdrum /key;
#X msg 405 57 0 0.3 \, 6 0.3;
#X obj 981 66 syn-cranks /key;
#X obj 964 239 *~ 0.4;
#X obj 980 213 *~;
#X obj 1005 150 eee-adsr~ /key;
#X msg 1014 42 0 0.1 \, 1 0.3 \, 2 0.2;
#X msg 967 42 39;
#X obj 965 334 r \$0-bang-whole-beats;
#X obj 253 374 nm_counter 2;
#X obj 254 395 sel 1 2;
#X obj 254 356 r \$0-bang-1/2-beats;
#N canvas 0 22 1016 542 bpm 0;
#X obj 53 102 expr 1000/$f1;
#X obj 52 70 nm_bpm2ms 1;
#X obj 53 39 r \$0-bpm;
#X obj 41 148 s \$0-ms-per-beat;
#X obj 53 125 s \$0-beats-per-sec;
#X obj 403 39 r \$0-beats-per-sec;
#X obj 452 61 r \$0-ms-per-beat;
#X floatatom 404 60 5 0 0 0 - - -;
#X floatatom 451 82 5 0 0 0 - - -;
#X text 38 439 Nick Mariette - perform all manner of bpm related calculations
here;
#X obj 219 39 r \$0-beats-per-bar;
#X floatatom 166 70 5 0 0 0 - - -;
#X floatatom 2 70 5 0 0 0 - - -;
#X floatatom 174 91 5 0 0 0 - - -;
#X obj 219 62 * 4;
#X obj 219 85 s \$0-beats-in-4-bars;
#X msg 767 114 120;
#X obj 767 137 s \$0-bpm;
#X msg 842 114 4;
#X obj 842 137 s \$0-beats-per-bar;
#X obj 735 50 loadbang;
#X msg 735 73 bang;
#X text 728 23 initialise everything;
#X obj 735 162 s \$0-startbang;
#X obj 190 249 metro;
#X obj 190 182 r \$0-startbang;
#X obj 221 205 r \$0-ms-per-beat;
#X text 38 471 all beats are 1-n (ie start at 1 \, not 0);
#X obj 221 228 / 32;
#X obj 773 262 bng 15 250 50 0 empty empty empty 17 7 0 10 -262144
-1 -1;
#X obj 33 383 s \$0-bang-whole-beats;
#X obj 33 406 s \$0-bang-whole-bars;
#X obj 748 214 r \$0-bang-whole-bars;
#X obj 773 239 r \$0-bang-whole-beats;
#X obj 748 237 bng 15 250 50 0 empty empty empty 17 7 0 10 -262144
-1 -1;
#X floatatom 241 249 5 0 0 0 - - -;
#X obj 735 96 t b b;
#X obj 33 360 s \$0-bang-1/2-beats;
#X obj 33 337 s \$0-bang-1/4-beats;
#X obj 32 272 s \$0-bang-1/32-beats;
#X obj 841 364 r \$0-bang-1/32-beats;
#X obj 430 266 r \$0-bang-1/32-beats;
#X obj 189 361 nm_oneinx 2;
#X obj 189 338 nm_oneinx 2;
#X obj 189 272 nm_oneinx 2;
#X obj 189 384 nm_oneinx;
#X obj 277 360 r \$0-beats-per-bar;
#X obj 797 285 bng 15 250 50 0 empty empty empty 17 7 0 10 -262144
-1 -1;
#X obj 843 339 r \$0-bang-1/16-beats;
#X text 36 496 don't know whether it's cheaper on cpu to have multiple
metros or multiple beat dividers....;
#X obj 429 289 nm_counter 32;
#X text 29 210 create bangs at;
#X text 28 230 different rates;
#X obj 429 342 r \$0-bang-1/4-beats;
#X obj 428 365 nm_counter 4;
#X obj 432 127 r \$0-bang-whole-bars;
#X obj 431 150 nm_counter 4;
#X obj 431 173 s \$0-num-bar-4bars;
#X obj 429 312 s \$0-num-1/32-beats-1bar;
#X obj 428 388 s \$0-num-1/4-beats-1bar;
#X obj 431 218 nm_counter 4;
#X obj 432 195 r \$0-bang-whole-beats;
#X obj 821 310 bng 15 250 50 0 empty empty empty 17 7 0 10 -262144
-1 -1;
#X obj 821 287 r \$0-bang-1/4-beats;
#X obj 797 262 r \$0-bang-1/2-beats;
#X floatatom 3 94 5 0 0 0 - - -;
#X obj 488 470 nm_counter;
#X obj 554 448 r \$0-beats-in-4-bars;
#X obj 488 427 r \$0-bang-whole-beats;
#X obj 189 315 nm_oneinx 2;
#X obj 188 295 nm_oneinx 2;
#X obj 32 294 s \$0-bang-1/16-beats;
#X obj 33 314 s \$0-bang-1/8-beats;
#X obj 845 311 r \$0-bang-1/8-beats;
#X obj 646 32 inlet;
#X obj 771 404 r \$0-num-bar-4bars;
#X obj 431 241 s \$0-num-beat-1bar;
#X obj 772 428 r \$0-num-beat-1bar;
#X obj 772 450 r \$0-num-beat-4bars;
#X obj 489 492 s \$0-num-beat-4bars;
#X floatatom 728 405 5 0 0 0 - - -;
#X floatatom 728 427 5 0 0 0 - - -;
#X floatatom 727 452 5 0 0 0 - - -;
#X obj 770 474 r \$0-num-1/4-beats-1bar;
#X obj 770 498 r \$0-num-1/32-beats-1bar;
#X connect 0 0 4 0;
#X connect 1 0 0 0;
#X connect 1 0 3 0;
#X connect 1 0 65 0;
#X connect 2 0 1 0;
#X connect 2 0 12 0;
#X connect 5 0 7 0;
#X connect 6 0 8 0;
#X connect 10 0 11 0;
#X connect 10 0 14 0;
#X connect 14 0 13 0;
#X connect 14 0 15 0;
#X connect 16 0 17 0;
#X connect 18 0 19 0;
#X connect 20 0 21 0;
#X connect 21 0 36 0;
#X connect 24 0 39 0;
#X connect 24 0 44 0;
#X connect 25 0 24 0;
#X connect 26 0 28 0;
#X connect 28 0 24 1;
#X connect 28 0 35 0;
#X connect 32 0 34 0;
#X connect 33 0 29 0;
#X connect 36 0 23 0;
#X connect 36 1 16 0;
#X connect 36 1 18 0;
#X connect 41 0 50 0;
#X connect 42 0 30 0;
#X connect 42 0 45 0;
#X connect 43 0 37 0;
#X connect 43 0 42 0;
#X connect 44 0 70 0;
#X connect 44 0 71 0;
#X connect 45 0 31 0;
#X connect 46 0 45 1;
#X connect 50 0 58 0;
#X connect 53 0 54 0;
#X connect 54 0 59 0;
#X connect 55 0 56 0;
#X connect 56 0 57 0;
#X connect 60 0 76 0;
#X connect 61 0 60 0;
#X connect 63 0 62 0;
#X connect 64 0 47 0;
#X connect 66 0 79 0;
#X connect 67 0 66 1;
#X connect 68 0 66 0;
#X connect 69 0 38 0;
#X connect 69 0 43 0;
#X connect 70 0 69 0;
#X connect 70 0 72 0;
#X connect 74 0 21 0;
#X connect 75 0 80 0;
#X connect 77 0 81 0;
#X connect 78 0 82 0;
#X restore -153 27 pd bpm calculations;
#X obj 507 421 nm_counter 2;
#N canvas 0 22 450 300 humanise-beat-1/32time 0;
#X obj 88 151 delay;
#X obj 121 130 random;
#X obj 161 86 r \$0-ms-per-beat;
#X msg 89 109 bang;
#X obj 160 110 / 32;
#X obj 84 45 inlet;
#X obj 77 206 outlet;
#X connect 0 0 6 0;
#X connect 1 0 0 1;
#X connect 2 0 4 0;
#X connect 3 0 0 0;
#X connect 3 0 1 0;
#X connect 4 0 1 1;
#X connect 5 0 3 0;
#X restore 506 398 pd humanise-beat-1/32time;
#N canvas 0 22 450 300 humanise-beat-1/16time 0;
#X obj 88 151 delay;
#X obj 121 130 random;
#X obj 161 86 r \$0-ms-per-beat;
#X msg 89 109 bang;
#X obj 84 45 inlet;
#X obj 77 206 outlet;
#X obj 160 110 / 16;
#X connect 0 0 5 0;
#X connect 1 0 0 1;
#X connect 2 0 6 0;
#X connect 3 0 0 0;
#X connect 3 0 1 0;
#X connect 4 0 3 0;
#X connect 6 0 1 1;
#X restore 318 398 pd humanise-beat-1/16time;
#X obj 621 443 dd.hh;
#X obj -22 240 sel 1 4 6 10;
#X obj -107 51 r \$0-bang-1/2-beats;
#X obj -155 514 *~ 0.1;
#X obj 736 508 *~ 0.2;
#X obj -72 264 sel 1 4 8 14;
#X msg -74 291 1;
#X msg -38 291 0;
#N canvas 0 22 450 300 damian-modes 0;
#X msg 88 143 1;
#X msg 111 173 5;
#X msg 119 145 3;
#X msg 185 171 6;
#X msg 189 147 2;
#X obj 92 114 sel 0 1 2 3 4 5 6;
#X msg 83 63 bang;
#X obj 228 168 bng 15 250 50 0 empty empty empty 17 7 0 10 -262144
-1 -1;
#X obj 228 148 print oops;
#X obj 92 86 d-random-fibo 7;
#X msg 156 144 4;
#X msg 151 172 7;
#X obj 73 203 d-modes lydian 48;
#X msg 329 151 lydian;
#X obj 314 270 symbol;
#X msg 341 199 locrian;
#X msg 334 175 dorian;
#X msg 323 127 mixolydian;
#X msg 318 103 ionian;
#X msg 354 221 phrygian;
#X msg 375 241 aeolian;
#X obj 152 26 inlet;
#X obj 118 258 outlet;
#X obj 314 25 inlet;
#X obj 318 61 sel 1 2 3 4 5 6 7;
#X connect 0 0 12 2;
#X connect 1 0 12 2;
#X connect 2 0 12 2;
#X connect 3 0 12 2;
#X connect 4 0 12 2;
#X connect 5 0 0 0;
#X connect 5 1 1 0;
#X connect 5 2 2 0;
#X connect 5 3 11 0;
#X connect 5 4 10 0;
#X connect 5 5 3 0;
#X connect 5 6 4 0;
#X connect 5 7 7 0;
#X connect 5 7 8 0;
#X connect 6 0 9 0;
#X connect 9 0 5 0;
#X connect 10 0 12 2;
#X connect 11 0 12 2;
#X connect 12 8 22 0;
#X connect 13 0 14 0;
#X connect 14 0 12 1;
#X connect 15 0 14 0;
#X connect 16 0 14 0;
#X connect 17 0 14 0;
#X connect 18 0 14 0;
#X connect 19 0 14 0;
#X connect 20 0 14 0;
#X connect 21 0 9 0;
#X connect 23 0 24 0;
#X connect 24 0 18 0;
#X connect 24 1 17 0;
#X connect 24 2 13 0;
#X connect 24 3 16 0;
#X connect 24 4 15 0;
#X connect 24 5 19 0;
#X connect 24 6 20 0;
#X restore -106 73 pd damian-modes;
#X obj -105 95 s \$0-damian-modes-1;
#X obj -132 322 r \$0-damian-modes-1;
#X floatatom -146 94 5 0 0 0 - - -;
#X obj 109 248 r \$0-ms-per-beat;
#X obj 281 522 *~ 0.07;
#N canvas 0 22 450 300 damian-modes 0;
#X msg 88 143 1;
#X msg 111 173 5;
#X msg 119 145 3;
#X msg 185 171 6;
#X msg 189 147 2;
#X obj 92 114 sel 0 1 2 3 4 5 6;
#X msg 83 63 bang;
#X obj 228 168 bng 15 250 50 0 empty empty empty 17 7 0 10 -262144
-1 -1;
#X obj 228 148 print oops;
#X obj 92 86 d-random-fibo 7;
#X msg 156 144 4;
#X msg 151 172 7;
#X obj 73 203 d-modes lydian 48;
#X msg 329 151 lydian;
#X obj 314 270 symbol;
#X msg 341 199 locrian;
#X msg 334 175 dorian;
#X msg 323 127 mixolydian;
#X msg 318 103 ionian;
#X msg 354 221 phrygian;
#X msg 375 241 aeolian;
#X obj 152 26 inlet;
#X obj 118 258 outlet;
#X obj 314 25 inlet;
#X obj 318 61 sel 1 2 3 4 5 6 7;
#X connect 0 0 12 2;
#X connect 1 0 12 2;
#X connect 2 0 12 2;
#X connect 3 0 12 2;
#X connect 4 0 12 2;
#X connect 5 0 0 0;
#X connect 5 1 1 0;
#X connect 5 2 2 0;
#X connect 5 3 11 0;
#X connect 5 4 10 0;
#X connect 5 5 3 0;
#X connect 5 6 4 0;
#X connect 5 7 7 0;
#X connect 5 7 8 0;
#X connect 6 0 9 0;
#X connect 9 0 5 0;
#X connect 10 0 12 2;
#X connect 11 0 12 2;
#X connect 12 8 22 0;
#X connect 13 0 14 0;
#X connect 14 0 12 1;
#X connect 15 0 14 0;
#X connect 16 0 14 0;
#X connect 17 0 14 0;
#X connect 18 0 14 0;
#X connect 19 0 14 0;
#X connect 20 0 14 0;
#X connect 21 0 9 0;
#X connect 23 0 24 0;
#X connect 24 0 18 0;
#X connect 24 1 17 0;
#X connect 24 2 13 0;
#X connect 24 3 16 0;
#X connect 24 4 15 0;
#X connect 24 5 19 0;
#X connect 24 6 20 0;
#X restore 99 73 pd damian-modes;
#X obj 98 51 r \$0-bang-whole-beats;
#X obj 100 95 s \$0-damian-modes-2;
#X obj 730 336 r \$0-damian-modes-2;
#X msg 772 379 0 0.6 \, 1 0.9 \, 2 0.5;
#X obj 730 357 - 31;
#X obj 351 36 r \$0-bang-whole-beats;
#X obj 109 342 / 4;
#X floatatom 107 365 5 0 0 0 - - -;
#X obj -152 7 bng 15 250 50 0 empty empty empty 17 7 0 10 -262144 -1
-1;
#X obj -34 217 r \$0-num-beat-4bars;
#X obj 129 271 r \$0-num-bar-4bars;
#X msg 128 314 4;
#X msg 161 314 16;
#X obj 130 292 sel 1 4;
#X floatatom 52 98 5 0 0 0 - - -;
#X obj -158 579 *~ 1;
#X obj 207 298 nm_counter 2;
#X obj 207 321 sel 1 2;
#X floatatom 271 321 5 0 0 0 - - -;
#X obj 530 512 nm_pan;
#X obj 571 470 random 4;
#X obj 572 492 / 4;
#X obj 507 464 *~ 0.04;
#X obj 508 378 r \$0-bang-1/4-beats;
#X obj -146 757 soundoutput;
#X obj -163 617 d-reverb2~ 5 98;
#X obj 207 343 delay 1000;
#X connect 1 0 2 0;
#X connect 1 0 35 0;
#X connect 1 0 29 0;
#X connect 1 0 34 0;
#X connect 1 0 62 0;
#X connect 3 0 14 0;
#X connect 4 0 3 0;
#X connect 5 0 57 0;
#X connect 6 0 5 0;
#X connect 7 0 81 0;
#X connect 8 0 13 0;
#X connect 8 1 13 0;
#X connect 9 0 11 3;
#X connect 11 0 47 0;
#X connect 12 0 57 0;
#X connect 13 0 11 0;
#X connect 14 0 12 0;
#X connect 15 0 11 4;
#X connect 16 0 23 0;
#X connect 17 0 16 0;
#X connect 18 0 21 0;
#X connect 19 0 21 0;
#X connect 20 0 18 0;
#X connect 20 1 25 0;
#X connect 22 0 84 0;
#X connect 22 1 84 1;
#X connect 23 0 48 0;
#X connect 24 0 33 0;
#X connect 25 0 19 0;
#X connect 26 0 11 4;
#X connect 27 0 11 4;
#X connect 28 0 57 0;
#X connect 29 0 28 1;
#X connect 30 0 32 0;
#X connect 31 0 74 0;
#X connect 32 0 31 0;
#X connect 33 0 32 1;
#X connect 34 0 30 1;
#X connect 35 0 30 0;
#X connect 36 0 20 0;
#X connect 37 0 38 0;
#X connect 38 0 4 0;
#X connect 38 1 43 0;
#X connect 39 0 37 0;
#X connect 41 0 7 0;
#X connect 42 0 41 0;
#X connect 42 0 44 0;
#X connect 43 0 6 0;
#X connect 44 0 81 0;
#X connect 45 0 11 4;
#X connect 45 1 11 4;
#X connect 45 2 11 4;
#X connect 45 3 11 4;
#X connect 45 4 11 3;
#X connect 46 0 52 0;
#X connect 47 0 74 0;
#X connect 48 0 22 0;
#X connect 49 0 50 0;
#X connect 49 1 51 0;
#X connect 49 2 50 0;
#X connect 49 3 51 0;
#X connect 50 0 9 0;
#X connect 51 0 9 0;
#X connect 52 0 53 0;
#X connect 52 0 55 0;
#X connect 54 0 11 1;
#X connect 56 0 65 0;
#X connect 57 0 74 0;
#X connect 58 0 60 0;
#X connect 58 0 73 0;
#X connect 59 0 58 0;
#X connect 61 0 63 0;
#X connect 62 0 16 1;
#X connect 63 0 17 0;
#X connect 64 0 28 0;
#X connect 65 0 66 0;
#X connect 65 0 11 2;
#X connect 67 0 40 0;
#X connect 68 0 45 0;
#X connect 68 0 49 0;
#X connect 69 0 72 0;
#X connect 70 0 65 1;
#X connect 71 0 65 1;
#X connect 72 0 70 0;
#X connect 72 0 75 0;
#X connect 72 1 71 0;
#X connect 74 0 84 0;
#X connect 74 0 84 1;
#X connect 75 0 76 0;
#X connect 75 0 77 0;
#X connect 76 0 27 0;
#X connect 76 0 85 0;
#X connect 78 0 84 0;
#X connect 78 1 84 1;
#X connect 79 0 80 0;
#X connect 80 0 78 1;
#X connect 81 0 78 0;
#X connect 82 0 42 0;
#X connect 82 0 79 0;
#X connect 84 0 83 0;
#X connect 84 1 83 1;
#X connect 85 0 26 0;
