#N canvas 0 22 454 304 12;
#X obj 22 13 inlet;
#X obj 22 173 outlet;
#X obj 22 88 /;
#X obj 22 38 t b f;
#X msg 22 63 60000;
#X text 84 172 ms per bar;
#X text 73 12 bpm;
#X text 75 135 assumes 4 beats per bar;
#X obj 22 138 / \$1;
#X connect 0 0 3 0;
#X connect 2 0 8 0;
#X connect 3 0 4 0;
#X connect 3 1 2 1;
#X connect 4 0 2 0;
#X connect 8 0 1 0;
