#N canvas 0 22 1021 556 10;
#X obj 53 102 expr 1000/$f1;
#X obj 52 70 nm_bpm2ms 1;
#X obj 53 39 r \$0-bpm;
#X obj 41 148 s \$0-ms-per-beat;
#X obj 53 125 s \$0-beats-per-sec;
#X obj 403 39 r \$0-beats-per-sec;
#X obj 452 61 r \$0-ms-per-beat;
#X floatatom 404 60 5 0 0 0 - - -;
#X floatatom 451 82 5 0 0 0 - - -;
#X text 38 439 Nick Mariette - perform all manner of bpm related calculations
here;
#X obj 219 39 r \$0-beats-per-bar;
#X floatatom 166 70 5 0 0 0 - - -;
#X floatatom 2 70 5 0 0 0 - - -;
#X floatatom 174 91 5 0 0 0 - - -;
#X obj 219 62 * 4;
#X obj 219 85 s \$0-beats-in-4-bars;
#X msg 767 114 120;
#X obj 767 137 s \$0-bpm;
#X msg 842 114 4;
#X obj 842 137 s \$0-beats-per-bar;
#X obj 735 50 loadbang;
#X msg 735 73 bang;
#X text 728 23 initialise everything;
#X obj 735 162 s \$0-startbang;
#X obj 190 249 metro;
#X obj 190 182 r \$0-startbang;
#X obj 221 205 r \$0-ms-per-beat;
#X text 38 471 all beats are 1-n (ie start at 1 \, not 0);
#X obj 221 228 / 32;
#X obj 773 262 bng 15 250 50 0 empty empty empty 17 7 0 10 -262144
-1 -1;
#X obj 799 480 r \$0-beats-in-4-bars;
#X obj 33 363 s \$0-bang-whole-beats;
#X obj 33 386 s \$0-bang-whole-bars;
#X obj 748 214 r \$0-bang-whole-bars;
#X obj 773 239 r \$0-bang-whole-beats;
#X obj 748 237 bng 15 250 50 0 empty empty empty 17 7 0 10 -262144
-1 -1;
#X floatatom 241 249 5 0 0 0 - - -;
#X obj 735 96 t b b;
#X obj 33 340 s \$0-bang-1/2-beats;
#X obj 33 317 s \$0-bang-1/4-beats;
#X obj 33 294 s \$0-bang-1/16-beats;
#X obj 32 272 s \$0-bang-1/32-beats;
#X obj 809 362 r \$0-bang-1/32-beats;
#X obj 430 266 r \$0-bang-1/32-beats;
#X obj 189 341 nm_oneinx 2;
#X obj 189 318 nm_oneinx 2;
#X obj 189 272 nm_oneinx 2;
#X obj 189 295 nm_oneinx 4;
#X obj 189 364 nm_oneinx;
#X obj 277 340 r \$0-beats-per-bar;
#X obj 797 285 bng 15 250 50 0 empty empty empty 17 7 0 10 -262144
-1 -1;
#X obj 811 337 r \$0-bang-1/16-beats;
#X text 36 496 don't know whether it's cheaper on cpu to have multiple
metros or multiple beat dividers....;
#X obj 429 289 nm_counter 32;
#X text 29 210 create bangs at;
#X text 28 230 different rates;
#X obj 429 342 r \$0-bang-1/4-beats;
#X obj 428 365 nm_counter 4;
#X obj 432 127 r \$0-bang-whole-bars;
#X obj 431 150 nm_counter 4;
#X obj 431 173 s \$0-num-bar-4bars;
#X obj 429 312 s \$0-num-1/32-beats-1bar;
#X obj 428 388 s \$0-num-1/4-beats-1bar;
#X floatatom 383 175 5 0 0 0 - - -;
#X obj 431 218 nm_counter 4;
#X floatatom 383 243 5 0 0 0 - - -;
#X obj 432 195 r \$0-bang-whole-beats;
#X obj 431 241 s \$0-num-beat-4bars;
#X floatatom 445 495 5 0 0 0 - - -;
#X obj 489 492 s \$0-num-beats-4-bars;
#X obj 821 310 bng 15 250 50 0 empty empty empty 17 7 0 10 -262144
-1 -1;
#X obj 821 287 r \$0-bang-1/4-beats;
#X obj 797 262 r \$0-bang-1/2-beats;
#X floatatom 380 385 5 0 0 0 - - -;
#X floatatom 3 94 5 0 0 0 - - -;
#X obj 488 470 nm_counter;
#X obj 554 448 r \$0-beats-in-4-bars;
#X obj 488 427 r \$0-bang-whole-beats;
#X connect 0 0 4 0;
#X connect 1 0 0 0;
#X connect 1 0 3 0;
#X connect 1 0 74 0;
#X connect 2 0 1 0;
#X connect 2 0 12 0;
#X connect 5 0 7 0;
#X connect 6 0 8 0;
#X connect 10 0 11 0;
#X connect 10 0 14 0;
#X connect 14 0 13 0;
#X connect 14 0 15 0;
#X connect 16 0 17 0;
#X connect 18 0 19 0;
#X connect 20 0 21 0;
#X connect 21 0 37 0;
#X connect 24 0 41 0;
#X connect 24 0 46 0;
#X connect 25 0 24 0;
#X connect 26 0 28 0;
#X connect 28 0 24 1;
#X connect 28 0 36 0;
#X connect 33 0 35 0;
#X connect 34 0 29 0;
#X connect 37 0 23 0;
#X connect 37 1 16 0;
#X connect 37 1 18 0;
#X connect 43 0 53 0;
#X connect 44 0 31 0;
#X connect 44 0 48 0;
#X connect 45 0 38 0;
#X connect 45 0 44 0;
#X connect 46 0 40 0;
#X connect 46 0 47 0;
#X connect 47 0 39 0;
#X connect 47 0 45 0;
#X connect 48 0 32 0;
#X connect 49 0 48 1;
#X connect 53 0 61 0;
#X connect 56 0 57 0;
#X connect 57 0 62 0;
#X connect 57 0 73 0;
#X connect 58 0 59 0;
#X connect 59 0 60 0;
#X connect 59 0 63 0;
#X connect 64 0 65 0;
#X connect 64 0 67 0;
#X connect 66 0 64 0;
#X connect 71 0 70 0;
#X connect 72 0 50 0;
#X connect 75 0 69 0;
#X connect 75 0 68 0;
#X connect 76 0 75 1;
#X connect 77 0 75 0;
