#N canvas 0 22 675 298 10;
#X obj 118 79 + 1;
#X msg 83 53 bang;
#X obj 83 80 f 0;
#X obj 91 205 == 0;
#X obj 81 21 inlet;
#X obj 88 253 outlet;
#X text 164 177 bangs once out for every x bangs in;
#X obj 89 226 sel 1;
#X obj 205 21 inlet;
#X obj 164 81 mod \$1;
#X connect 0 0 9 0;
#X connect 1 0 2 0;
#X connect 2 0 0 0;
#X connect 2 0 3 0;
#X connect 3 0 7 0;
#X connect 4 0 1 0;
#X connect 7 0 5 0;
#X connect 8 0 9 1;
#X connect 9 0 2 1;
