#N canvas 657 317 561 524 12;
#X obj 33 6 inlet~;
#X obj 239 453 outlet~;
#X obj 206 261 /;
#X obj 206 209 t b f;
#X msg 206 235 1000;
#X obj 205 287 sig~;
#X obj 205 313 vd~ \$0-buffer;
#X obj 34 435 delwrite~ \$0-buffer 50;
#X obj 34 409 *~;
#X msg 55 379 1;
#X msg 162 379 0;
#X msg 124 379 1;
#X msg 92 379 0;
#X obj 103 409 *~;
#X obj 205 186 mtof;
#X msg 55 111 bang;
#X text 317 202 max freq 666hz;
#X text 315 222 for just over;
#X text 315 241 1 block buffer;
#X obj 55 162 spigot;
#X obj 100 138 != 1;
#X text 315 256 or 1.45ms;
#X obj 259 8 inlet;
#X obj 101 33 loadbang;
#X obj 321 8 inlet;
#X obj 56 78 == 1;
#X obj 108 78 == 0;
#X text 33 499 fourth input is 1 for hold \, 0 for free running;
#X obj 204 8 inlet;
#X obj 100 108 f 1;
#X text 318 185 at 44100khz;
#X text 52 487 better than number of buffers \, since independent of
pitch;
#X obj 111 162 metro;
#X msg 167 74 125;
#X text 212 73 init value = 1/4 note at 120 bpm;
#X obj 92 345 delay;
#X text 31 474 third input is time in ms before new loop;
#X text 370 292 slide between pitches;
#X msg 453 265 128;
#X msg 452 221 8;
#X msg 452 199 2;
#X obj 306 293 lop~ 16;
#X msg 453 242 16;
#X obj 383 8 inlet;
#X text 396 28 get one new buffer;
#X obj 205 337 clip~ -1 1;
#X obj 386 114 route bang slide;
#X obj 205 360 lop~ 8800;
#X connect 0 0 8 0;
#X connect 2 0 5 0;
#X connect 2 0 35 1;
#X connect 3 0 4 0;
#X connect 3 1 2 1;
#X connect 4 0 2 0;
#X connect 5 0 41 0;
#X connect 6 0 45 0;
#X connect 8 0 7 0;
#X connect 9 0 8 1;
#X connect 10 0 13 1;
#X connect 11 0 13 1;
#X connect 12 0 8 1;
#X connect 13 0 7 0;
#X connect 14 0 3 0;
#X connect 15 0 19 0;
#X connect 19 0 9 0;
#X connect 19 0 10 0;
#X connect 19 0 35 0;
#X connect 20 0 19 1;
#X connect 22 0 32 1;
#X connect 23 0 29 0;
#X connect 23 0 33 0;
#X connect 24 0 25 0;
#X connect 24 0 26 0;
#X connect 25 0 15 0;
#X connect 26 0 29 0;
#X connect 28 0 14 0;
#X connect 29 0 20 0;
#X connect 29 0 32 0;
#X connect 32 0 10 0;
#X connect 32 0 9 0;
#X connect 32 0 35 0;
#X connect 33 0 32 1;
#X connect 35 0 11 0;
#X connect 35 0 12 0;
#X connect 38 0 41 1;
#X connect 39 0 41 1;
#X connect 40 0 41 1;
#X connect 41 0 6 0;
#X connect 42 0 41 1;
#X connect 43 0 46 0;
#X connect 45 0 47 0;
#X connect 46 0 15 0;
#X connect 46 1 41 1;
#X connect 47 0 13 0;
#X connect 47 0 1 0;
