#N canvas 27 22 988 389 10;
#X obj 130 40 soundinput;
#X obj 130 353 soundoutput;
#X floatatom 240 261 5 0 0 0 - - -;
#X obj 296 275 tgl 15 0 empty empty empty 17 7 0 10 -262144 -1 -1 0
1;
#X floatatom 182 247 5 0 0 0 - - -;
#X text 429 94 comment;
#X obj 309 74 + 1;
#X obj 263 48 bng 15 250 50 0 empty empty empty 17 7 0 10 -262144 -1
-1;
#X obj 256 71 f 1;
#X floatatom 265 103 5 0 0 0 - - -;
#X obj 130 333 *~ 2;
#X obj 392 268 mtof;
#X floatatom 400 293 5 0 0 0 - - -;
#X text 340 338 needs compressor on output;
#X obj 313 15 tgl 15 0 empty empty empty 17 7 0 10 -262144 -1 -1 1
1;
#X obj 347 74 mod 16;
#X obj 236 131 sel 0 1 2 3 4 5 6 7 8 9 10 11 12 13 14 15;
#X obj 311 37 metro 250;
#X obj 131 315 nm_pitched_stuckbuffer;
#X msg 281 235 125;
#X msg 233 157 47;
#X msg 332 162 41;
#X msg 448 164 46;
#X msg 324 234 62.5;
#X connect 0 0 18 0;
#X connect 2 0 18 2;
#X connect 3 0 18 3;
#X connect 4 0 11 0;
#X connect 4 0 18 1;
#X connect 6 0 15 0;
#X connect 7 0 8 0;
#X connect 8 0 6 0;
#X connect 8 0 9 0;
#X connect 8 0 16 0;
#X connect 10 0 1 1;
#X connect 10 0 1 0;
#X connect 11 0 12 0;
#X connect 14 0 17 0;
#X connect 15 0 8 1;
#X connect 16 0 20 0;
#X connect 16 11 21 0;
#X connect 16 14 22 0;
#X connect 17 0 8 0;
#X connect 18 0 10 0;
#X connect 19 0 2 0;
#X connect 20 0 4 0;
#X connect 21 0 4 0;
#X connect 22 0 4 0;
#X connect 23 0 2 0;
