#N canvas 92 324 937 501 10;
#X obj 152 83 inlet;
#X obj 152 409 outlet;
#X obj 258 81 table \$0-buffer 10;
#X obj 192 184 tabwrite \$0-buffer;
#N canvas 291 294 450 300 count10 0;
#X obj 105 117 f 0;
#X obj 136 118 + 1;
#X obj 105 143 mod 10;
#X obj 105 95 inlet;
#X obj 105 167 outlet;
#X connect 0 0 2 0;
#X connect 1 0 0 1;
#X connect 2 0 1 0;
#X connect 2 0 4 0;
#X connect 3 0 0 0;
#X restore 315 132 pd count10;
#X obj 315 157 t a a;
#X obj 347 259 tabread \$0-buffer;
#X obj 347 288 * -1;
#X obj 172 320 +;
#X obj 201 321 f;
#X obj 152 349 f;
#X obj 152 108 t b a a b;
#X text 174 34 sums the last ten incoming numbers and divides the sum
by 10;
#X obj 152 378 * 0.1;
#X connect 0 0 11 0;
#X connect 4 0 5 0;
#X connect 5 0 3 1;
#X connect 5 1 6 0;
#X connect 6 0 7 0;
#X connect 7 0 8 0;
#X connect 8 0 9 0;
#X connect 8 0 10 1;
#X connect 9 0 8 1;
#X connect 10 0 13 0;
#X connect 11 0 10 0;
#X connect 11 1 8 0;
#X connect 11 2 3 0;
#X connect 11 3 4 0;
#X connect 13 0 1 0;
