#N canvas 363 270 613 504 10;
#X obj 168 59 inlet;
#X obj 168 158 t a a;
#X obj 331 212 separator;
#X obj 168 214 separator;
#X obj 168 274 cube 1;
#X obj 331 335 cylinder 0.3 20;
#X obj 168 86 alpha 1;
#X obj 168 107 colorRGB 0.7 0.7 0.7 0.3;
#X obj 102 314 cube 1.01;
#X msg 79 263 draw line;
#X obj 78 237 loadbang;
#X obj 168 247 scaleXYZ 2 1.5 0.2;
#X obj 331 283 rotateXYZ 180 0 0;
#X obj 331 307 scaleXYZ 1 1 0.2;
#X obj 331 248 translateXYZ 1.4 0 0.3;
#X connect 0 0 6 0;
#X connect 1 0 3 0;
#X connect 1 1 2 0;
#X connect 2 0 14 0;
#X connect 3 0 11 0;
#X connect 6 0 7 0;
#X connect 7 0 1 0;
#X connect 9 0 8 0;
#X connect 10 0 9 0;
#X connect 11 0 4 0;
#X connect 11 0 8 0;
#X connect 12 0 13 0;
#X connect 13 0 5 0;
#X connect 14 0 12 0;
