#N canvas 781 47 450 300 10;
#X obj 74 182 qlist;
#X obj 75 79 makefilename data%d.txt;
#X msg 75 101 read \$1 \, bang;
#X obj 75 53 hradio 15 1 0 8 empty empty empty 0 -8 0 10 -262144 -1
-1 1;
#X msg 86 151 tempo 0.25;
#X connect 1 0 2 0;
#X connect 2 0 0 0;
#X connect 3 0 1 0;
#X connect 4 0 0 0;
