#N canvas 224 62 494 450 10;
#X obj 71 53 inlet~;
#X obj 71 363 outlet~;
#X obj 131 363 outlet~;
#N canvas 492 28 788 524 \$0-DSP 0;
#X obj 338 110 r \$0-Wet/Dry;
#X obj 428 110 r \$0-Damping;
#X obj 266 110 r \$0-Size;
#X obj 62 96 inlet~;
#X obj 133 428 outlet~;
#X obj 235 427 outlet~;
#X obj 122 239 *~;
#X obj 80 217 lop~ 80;
#X obj 140 217 lop~ 80;
#X obj 80 195 sig~;
#X obj 140 195 sig~;
#X obj 80 162 unpack f f;
#X msg 164 133 0 1;
#X msg 129 133 1 0;
#X obj 129 105 sel 0 1;
#X obj 133 353 e_reverb \$0-rev;
#X obj 129 81 int;
#X obj 129 56 + 0.499;
#X obj 213 84 loadbang;
#X obj 62 239 *~;
#X msg 556 197 damping \$1;
#X msg 429 206 damp \$1;
#X msg 267 165 decay \$1;
#X msg 249 205 hall \$1;
#X msg 338 164 dry \$1;
#X obj 429 174 m_scale 0 1 0 100;
#X obj 133 395 *~ 1;
#X obj 235 395 *~ 1;
#X obj 250 185 m_scale 0 1 0 90;
#X msg 206 141 amp 95;
#X obj 556 174 m_scale 0 1 10000 1000;
#X obj 266 137 m_scale 0 1 0.1 1;
#X obj 251 352 e_platereverb \$0-plate;
#X obj 251 377 *~ 0.8;
#X obj 326 377 *~ 0.8;
#X obj 128 27 r \$0-Hall/Plate;
#X connect 0 0 24 0;
#X connect 1 0 25 0;
#X connect 1 0 30 0;
#X connect 2 0 28 0;
#X connect 2 0 31 0;
#X connect 3 0 6 0;
#X connect 3 0 19 0;
#X connect 6 0 32 1;
#X connect 6 0 32 0;
#X connect 7 0 19 1;
#X connect 8 0 6 1;
#X connect 9 0 7 0;
#X connect 10 0 8 0;
#X connect 11 0 9 0;
#X connect 11 1 10 0;
#X connect 12 0 11 0;
#X connect 13 0 11 0;
#X connect 14 0 13 0;
#X connect 14 1 12 0;
#X connect 15 0 26 0;
#X connect 15 1 27 0;
#X connect 16 0 14 0;
#X connect 17 0 16 0;
#X connect 18 0 13 0;
#X connect 18 0 29 0;
#X connect 19 0 15 0;
#X connect 20 0 32 2;
#X connect 21 0 15 1;
#X connect 22 0 32 2;
#X connect 23 0 15 1;
#X connect 24 0 15 1;
#X connect 24 0 32 2;
#X connect 25 0 21 0;
#X connect 26 0 4 0;
#X connect 27 0 5 0;
#X connect 28 0 23 0;
#X connect 29 0 15 1;
#X connect 30 0 20 0;
#X connect 31 0 22 0;
#X connect 32 0 33 0;
#X connect 32 1 34 0;
#X connect 33 0 4 0;
#X connect 34 0 5 0;
#X connect 35 0 17 0;
#X restore 71 295 pd \$0-DSP;
#N canvas 277 196 530 267 MODULE_INFO 0;
#X text 57 35 AUTHORS: Reality Jockey;
#X text 58 90 DECORATOR: s1m1-s2m1;
#X text 59 116 TAGS:;
#X text 59 13 NAME: Ragverb;
#X text 58 55 DESCRIPTION: Simple reverb for your voice with a choice
between a hall or a plate.;
#X restore 71 12 pd MODULE_INFO;
#X obj 218 363 outlet;
#X obj 217 54 inlet;
#N canvas 53 123 642 408 \$0-PARAMETERS 0;
#X obj 109 368 outlet;
#X obj 109 54 inlet;
#X obj 106 132 cnv 15 187 170 empty empty RJC_Parameters 10 12 1 14
-162280 -262144 0;
#X obj 106 106 cnv 15 187 20 empty empty Reverb 70 11 1 14 -261234
-33289 0;
#X obj 110 266 rjc_parameter_floatrange \$0 Wet/Dry;
#X obj 110 194 rjc_parameter_floatrange \$0 Size 0.5;
#X obj 110 230 rjc_parameter_floatrange \$0 Damping 0.3;
#X obj 110 158 rjc_parameter_floatrange \$0 Hall/Plate 0;
#X connect 1 0 7 0;
#X connect 4 0 0 0;
#X connect 5 0 6 0;
#X connect 6 0 4 0;
#X connect 7 0 5 0;
#X coords 0 -1 1 1 200 210 2 100 100;
#X restore 218 122 pd \$0-PARAMETERS;
#N canvas 0 22 807 334 \$0-INPUT 0;
#X obj 77 47 inlet~;
#X obj 77 256 outlet~;
#X obj 77 97 hip~ 100;
#X obj 77 117 hip~ 100;
#X obj 77 137 hip~ 100;
#X obj 77 181 lop~ 5000;
#X obj 77 161 lop~ 5000;
#X connect 0 0 2 0;
#X connect 2 0 3 0;
#X connect 3 0 4 0;
#X connect 4 0 6 0;
#X connect 5 0 1 0;
#X connect 6 0 5 0;
#X coords 0 0 1 1 85 40 0;
#X restore 71 160 pd \$0-INPUT;
#X connect 0 0 8 0;
#X connect 3 0 1 0;
#X connect 3 1 2 0;
#X connect 6 0 7 0;
#X connect 7 0 5 0;
#X connect 8 0 3 0;
