#N canvas 781 41 291 431 10;
#N canvas 0 22 682 744 \$0-overview 0;
#X text 250 45 - bandlimited saw wave;
#X obj 100 45 s_blsaw;
#X text 250 90 - bandlimited square wave with PWM;
#X obj 100 90 s_blsquare;
#X text 250 135 - buzz harmonics generator;
#X obj 100 135 s_buzz;
#X text 250 180 - electronic drums;
#X obj 100 180 s_drumelectro;
#X text 250 225 - simple 2-operator FM;
#X obj 100 225 s_fmoscil;
#X text 250 270 - simple 4-operator FM unfinished!;
#X obj 100 270 s_fm4;
#X text 250 315 - fast sample player for tables;
#X obj 100 315 s_fplaytable;
#X text 250 360 - fast sample player for tables (stereo);
#X obj 100 360 s_fplaytable2;
#X text 250 405 - karplus strong guitar;
#X obj 100 405 s_guitar;
#X text 250 450 - sample player with builtin sample loader;
#X obj 100 450 s_looper;
#X text 250 495 - loop table parts with overlapped chunks;
#X obj 100 495 s_loopsmooth;
#X text 250 540 - sample and hold noise;
#X obj 100 540 s_noish;
#X text 250 585 - pinkish noise source;
#X obj 100 585 s_pinknoise;
#X text 250 630 - play overlapped chunks of a table;
#X obj 100 630 s_playolap;
#X text 250 675 - sample player for tables with resampling;
#X obj 100 675 s_playtable;
#X text 250 720 - sample player for tables with resampling (stereo)
;
#X obj 100 720 s_playtable2;
#X text 250 765 - FM emulation of rhodes e-piano;
#X obj 100 765 s_rhodey;
#X text 250 810 - multi-waveform oscillator: sine saw square triangle
;
#X obj 100 810 s_osc;
#X restore 72 299 pd \$0-overview;
#X text 72 328 Help-click any object to;
#X text 72 347 open the help file!;
#X msg 72 86 _ Synths;
#X msg 72 64 _ Analysis;
#X msg 72 108 _ Effects;
#X msg 72 130 _ GUIs;
#X msg 72 152 _ Mappings;
#X msg 72 174 _ Controllers;
#X msg 72 196 _ Utilities;
#X msg 72 254 _ clear;
#N canvas 306 178 664 294 open 0;
#X obj 78 15 inlet;
#X msg 164 106 s;
#X msg 225 111 e;
#X msg 345 114 m;
#X msg 408 109 c;
#X msg 457 109 u;
#X msg 118 106 a;
#X msg 294 114 g;
#X obj 78 39 list split 1;
#X obj 118 63 select Analysis Synths Effects GUIs Mappings Controllers
Utilities clear;
#X msg 501 110 clear;
#N canvas 337 123 805 747 dump 0;
#X obj 94 243 textfile;
#X obj 94 337 t a b;
#X obj 128 411 f;
#X obj 160 412 + 1;
#X obj 240 603 s pd-\$0-overview;
#X obj 94 461 list;
#X msg 172 247 1;
#X obj 94 211 until;
#X obj 74 41 inlet;
#X obj 74 76 list;
#X msg 258 199 print;
#X msg 115 184 read \$1 cr \, rewind;
#X msg 239 247 clear;
#X msg 94 483 obj 100 \$2 \$1;
#X obj 239 42 inlet;
#X obj 128 434 * 45;
#X msg 74 113 symbol \$1.txt;
#X obj 74 152 t b b a b;
#X obj 94 362 list split 1;
#X obj 264 494 list prepend 0;
#X obj 264 536 list trim;
#X obj 197 414 route bang;
#X obj 264 514 list prepend text 250;
#X msg 74 537 vis 0 \, vis 1;
#X obj 94 269 route float;
#X obj 190 340 max;
#X obj 190 362 until;
#X text 258 348 lines that just contain a number are used to skip as
many lines as the number specifies. use this to make room for larger
GOP objects so they don't overlap with following objects.;
#X connect 0 0 24 0;
#X connect 0 1 7 1;
#X connect 1 0 18 0;
#X connect 1 1 2 0;
#X connect 2 0 3 0;
#X connect 2 0 15 0;
#X connect 3 0 2 1;
#X connect 5 0 13 0;
#X connect 6 0 2 1;
#X connect 7 0 0 0;
#X connect 8 0 9 0;
#X connect 9 0 16 0;
#X connect 10 0 0 0;
#X connect 11 0 0 0;
#X connect 12 0 4 0;
#X connect 13 0 4 0;
#X connect 14 0 12 0;
#X connect 15 0 5 1;
#X connect 15 0 19 1;
#X connect 16 0 17 0;
#X connect 17 0 23 0;
#X connect 17 1 7 0;
#X connect 17 2 11 0;
#X connect 17 3 12 0;
#X connect 17 3 6 0;
#X connect 18 0 5 0;
#X connect 18 1 21 0;
#X connect 19 0 22 0;
#X connect 20 0 4 0;
#X connect 21 1 19 0;
#X connect 22 0 20 0;
#X connect 23 0 4 0;
#X connect 24 0 25 0;
#X connect 24 1 1 0;
#X connect 25 0 26 0;
#X connect 26 0 2 0;
#X restore 118 214 pd dump;
#X obj 118 172 t a;
#X connect 0 0 8 0;
#X connect 1 0 12 0;
#X connect 2 0 12 0;
#X connect 3 0 12 0;
#X connect 4 0 12 0;
#X connect 5 0 12 0;
#X connect 6 0 12 0;
#X connect 7 0 12 0;
#X connect 8 1 9 0;
#X connect 9 0 6 0;
#X connect 9 1 1 0;
#X connect 9 2 2 0;
#X connect 9 3 7 0;
#X connect 9 4 3 0;
#X connect 9 5 4 0;
#X connect 9 6 5 0;
#X connect 9 7 10 0;
#X connect 10 0 11 1;
#X connect 12 0 11 0;
#X restore 72 276 pd open objects;
#X text 55 15 rj-Library Reference;
#X text 55 38 Select section to read:;
#X connect 3 0 11 0;
#X connect 4 0 11 0;
#X connect 5 0 11 0;
#X connect 6 0 11 0;
#X connect 7 0 11 0;
#X connect 8 0 11 0;
#X connect 9 0 11 0;
#X connect 10 0 11 0;
