#N canvas 176 239 1033 587 10;
#X text 195 370 start point (at least 1);
#X obj 69 366 *~ 1;
#X text 270 311 loop size in smps;
#X obj 434 92 samplerate~;
#X obj 434 117 s \$0-sr;
#X obj 434 39 loadbang;
#X obj 69 24 inlet;
#X msg 94 495 set \$1;
#X obj 69 555 outlet~;
#X msg 460 69 bang;
#X obj 87 218 /;
#X obj 190 153 -;
#X obj 69 274 *;
#X obj 188 133 swap;
#X obj 87 194 swap 1000;
#N canvas 657 352 270 276 ms2smps 0;
#X obj 85 60 / 1000;
#X obj 85 40 r \$0-sr;
#X obj 39 24 inlet;
#X obj 39 121 outlet;
#X obj 39 84 * 22.05;
#X connect 0 0 4 1;
#X connect 1 0 0 0;
#X connect 2 0 4 0;
#X connect 4 0 3 0;
#X restore 190 313 pd ms2smps;
#N canvas 657 352 270 276 ms2smps 0;
#X obj 85 60 / 1000;
#X obj 85 40 r \$0-sr;
#X obj 39 24 inlet;
#X obj 39 121 outlet;
#X obj 39 84 * 22.05;
#X connect 0 0 4 1;
#X connect 1 0 0 0;
#X connect 2 0 4 0;
#X connect 4 0 3 0;
#X restore 109 402 pd ms2smps;
#X obj 68 422 +~ 1;
#X obj 586 35 inlet;
#X obj 709 95 s \$0-sr;
#X obj 188 60 r \$0-start;
#X obj 196 82 r \$0-end;
#X obj 109 371 r \$0-start;
#X obj 627 95 s \$0-start;
#X obj 668 118 s \$0-end;
#X obj 586 128 s \$0-table;
#X obj 94 462 r \$0-table;
#X obj 69 523 tabread4~ \$1;
#X obj 586 105 list;
#X obj 196 104 t b a;
#X obj 87 238 t b a;
#N canvas 0 0 536 355 phasor 0;
#N canvas 467 476 450 300 phasor 0;
#X obj 131 103 phasor~;
#X obj 328 74 inlet;
#X obj 131 65 inlet~;
#X obj 328 98 switch~;
#X obj 131 170 outlet~;
#X obj 132 139 *~ 1;
#X connect 0 0 5 0;
#X connect 1 0 3 0;
#X connect 1 0 5 1;
#X connect 2 0 0 0;
#X connect 5 0 4 0;
#X restore 132 175 pd phasor;
#N canvas 0 0 727 452 triangle 0;
#X obj 204 71 inlet;
#X obj 328 74 inlet;
#X obj 130 257 outlet~;
#X obj 131 65 inlet~;
#N canvas 0 0 779 606 triangle 0;
#X obj 80 290 -~ 0.5;
#X obj 228 290 -~ 0.5;
#X obj 134 340 -~;
#X obj 220 480 outlet~;
#X obj 80 91 phasor~ 0;
#X text 131 55 frequency;
#X obj 228 236 wrap~;
#N canvas 0 0 540 420 4*$v1*(1-$v1) 0;
#X obj 182 177 *~ 4;
#X obj 132 177 sig~ 1;
#X obj 132 200 -~;
#X obj 132 228 *~;
#X obj 182 76 inlet~;
#X obj 132 253 outlet~;
#X connect 0 0 3 1;
#X connect 1 0 2 0;
#X connect 2 0 3 0;
#X connect 3 0 5 0;
#X connect 4 0 2 1;
#X connect 4 0 0 0;
#X restore 228 262 pd 4*$v1*(1-$v1);
#N canvas 0 0 540 420 4*$v1*(1-$v1) 0;
#X obj 182 177 *~ 4;
#X obj 132 177 sig~ 1;
#X obj 132 200 -~;
#X obj 132 228 *~;
#X obj 182 76 inlet~;
#X obj 132 253 outlet~;
#X connect 0 0 3 1;
#X connect 1 0 2 0;
#X connect 2 0 3 0;
#X connect 3 0 5 0;
#X connect 4 0 2 1;
#X connect 4 0 0 0;
#X restore 79 261 pd 4*$v1*(1-$v1);
#X text 489 64 tri-saw factor (0-1);
#X obj 80 54 inlet~;
#X obj 430 66 inlet;
#X obj 430 89 clip 0.01 0.99;
#X obj 294 372 line~;
#X obj 294 350 pack 0 10;
#N canvas 0 0 540 420 4*$f1*(1-$f1) 0;
#X obj 185 177 * 4;
#X obj 137 72 inlet;
#X msg 137 171 1 \$1;
#X obj 137 200 -;
#X obj 137 228 *;
#X obj 137 107 t a a;
#X obj 137 253 outlet;
#X connect 0 0 4 1;
#X connect 1 0 5 0;
#X connect 2 0 3 0;
#X connect 3 0 4 0;
#X connect 4 0 6 0;
#X connect 5 0 2 0;
#X connect 5 1 0 0;
#X restore 430 290 pd 4*$f1*(1-$f1);
#X obj 245 151 line~;
#X obj 245 129 pack 0 10;
#X obj 227 177 +~;
#X obj 245 77 loadbang;
#X msg 245 98 0.5;
#X obj 220 414 /~;
#X obj 294 297 loadbang;
#X msg 294 318 1;
#X obj 241 45 inlet;
#X connect 0 0 2 0;
#X connect 1 0 2 1;
#X connect 2 0 21 0;
#X connect 4 0 8 0;
#X connect 4 0 18 0;
#X connect 6 0 7 0;
#X connect 7 0 1 0;
#X connect 8 0 0 0;
#X connect 10 0 4 0;
#X connect 11 0 12 0;
#X connect 12 0 15 0;
#X connect 12 0 17 0;
#X connect 13 0 21 1;
#X connect 14 0 13 0;
#X connect 15 0 14 0;
#X connect 16 0 18 1;
#X connect 17 0 16 0;
#X connect 18 0 6 0;
#X connect 19 0 20 0;
#X connect 20 0 17 0;
#X connect 21 0 3 0;
#X connect 22 0 23 0;
#X connect 23 0 14 0;
#X connect 24 0 4 1;
#X restore 130 162 pd triangle;
#X obj 328 98 switch~;
#X text 202 48 slope;
#X obj 204 137 m_scale -1 1 0 1;
#X obj 167 102 r \$0-phase;
#X obj 131 189 *~ 0.5;
#X obj 131 209 +~ 1;
#X obj 131 236 *~ 0;
#X connect 0 0 7 0;
#X connect 1 0 5 0;
#X connect 1 0 11 1;
#X connect 3 0 4 0;
#X connect 4 0 9 0;
#X connect 7 0 4 2;
#X connect 8 0 4 1;
#X connect 9 0 10 0;
#X connect 10 0 11 0;
#X connect 11 0 2 0;
#X restore 228 177 pd triangle;
#X obj 302 151 tgl 15 0 empty empty empty 17 7 0 10 -262144 -1 -1 0
1;
#X obj 265 70 r \$0-trislope;
#X obj 132 63 inlet;
#X obj 177 259 outlet~;
#X obj 192 117 != 1;
#X obj 192 95 r \$0-pingpong;
#X obj 228 153 * 0.5;
#X connect 0 0 5 0;
#X connect 1 0 5 0;
#X connect 2 0 1 2;
#X connect 3 0 1 1;
#X connect 4 0 0 0;
#X connect 4 0 8 0;
#X connect 6 0 0 1;
#X connect 7 0 6 0;
#X connect 7 0 2 0;
#X connect 8 0 1 0;
#X restore 69 314 pd phasor;
#X obj 768 100 s \$0-pingpong;
#X obj 816 140 s \$0-trislope;
#X obj 586 70 route table start end sr pingpong slope;
#X obj 109 422 + 1;
#X text 123 27 speed;
#X msg 875 75 0;
#X obj 876 52 loadbang;
#X connect 1 0 17 0;
#X connect 3 0 4 0;
#X connect 5 0 3 0;
#X connect 6 0 12 0;
#X connect 7 0 27 0;
#X connect 9 0 3 0;
#X connect 10 0 30 0;
#X connect 11 0 15 0;
#X connect 11 0 14 0;
#X connect 12 0 31 0;
#X connect 13 0 11 0;
#X connect 13 1 11 1;
#X connect 14 0 10 0;
#X connect 14 1 10 1;
#X connect 15 0 1 1;
#X connect 16 0 35 0;
#X connect 17 0 27 0;
#X connect 18 0 34 0;
#X connect 20 0 13 0;
#X connect 21 0 29 0;
#X connect 22 0 16 0;
#X connect 26 0 7 0;
#X connect 27 0 8 0;
#X connect 28 0 25 0;
#X connect 29 0 13 0;
#X connect 29 1 13 1;
#X connect 30 0 12 0;
#X connect 30 1 12 1;
#X connect 31 0 1 0;
#X connect 34 0 28 0;
#X connect 34 1 23 0;
#X connect 34 2 24 0;
#X connect 34 3 19 0;
#X connect 34 4 32 0;
#X connect 34 5 33 0;
#X connect 35 0 17 1;
#X connect 37 0 32 0;
#X connect 38 0 37 0;
