#N canvas 206 80 942 429 10;
#N canvas 473 269 528 200 MODULE_INFO 0;
#X text 65 110 decorator: s1m1-s2m1;
#X text 65 130 tags:;
#X text 66 27 name: Dimensions;
#X text 65 69 description: Taken from the Dimensions scene by Kids
on DSP. Incoming audio energy triggers synthlines. Patterns change
according to the level of energy.;
#X text 64 49 authors: Reality Jockey \, Kids on DSP;
#X restore 23 39 pd MODULE_INFO;
#X obj 22 103 inlet~ MIC;
#X obj 245 220 outlet;
#X obj 22 412 outlet~;
#X obj 91 412 outlet~;
#X obj 245 39 inlet;
#N canvas 553 135 477 415 \$0-PARAMETERS 0;
#X obj 110 275 outlet;
#X obj -108 107 s \$0-tick;
#X obj -108 45 inlet;
#X obj -108 77 route tick bpm rootnote;
#X obj 106 132 cnv 15 187 127 empty empty RJC_Parameters 10 12 1 14
-162280 -262144 0;
#X obj 106 106 cnv 15 187 20 empty empty Dimensions 55 11 1 14 -261234
-33289 0;
#X obj -3 155 s \$0-rootnote;
#X obj -58 259 s \$0-bpm;
#X obj -58 187 t b f;
#X obj -58 229 /;
#X obj -58 208 60000;
#X obj 110 213 rjc_parameter_floatrange \$0 Smoothing 0.5;
#X obj 110 175 rjc_parameter_floatrange \$0 Threshold 0.7;
#X connect 2 0 3 0;
#X connect 3 0 1 0;
#X connect 3 1 8 0;
#X connect 3 2 6 0;
#X connect 3 3 12 0;
#X connect 8 0 10 0;
#X connect 8 1 9 1;
#X connect 9 0 7 0;
#X connect 10 0 9 0;
#X connect 11 0 0 0;
#X connect 12 0 11 0;
#X coords 0 -1 1 1 200 165 2 100 100;
#X restore 245 55 pd \$0-PARAMETERS;
#N canvas 92 51 646 421 \$0-INPUT 0;
#X obj 102 97 * -1;
#X obj 102 126 + 100;
#X obj 49 124 +;
#X text 211 352 latency (0= no smoothing \, 0.99= very smoothed \,
1=infinite);
#X text 211 317 threshold (0=no minimum energy threshold \, 100=high
threshold);
#X msg 116 263 latency \$1;
#X obj 49 151 / 30;
#X obj 49 38 env~ 256 128;
#X obj 49 177 * 2;
#X msg 88 211 gain 10;
#X obj 88 191 loadbang;
#X obj 49 236 u_sigm;
#X obj 49 288 u_follower;
#X obj 49 9 inlet~;
#X obj 49 356 outlet;
#X obj 102 57 r \$0-Threshold;
#X obj 117 244 r \$0-Smoothing;
#X obj 102 78 m_scale 0 1 0 95;
#X connect 0 0 1 0;
#X connect 0 0 2 1;
#X connect 1 0 6 1;
#X connect 2 0 6 0;
#X connect 5 0 12 1;
#X connect 6 0 8 0;
#X connect 7 0 2 0;
#X connect 8 0 11 0;
#X connect 9 0 11 1;
#X connect 10 0 9 0;
#X connect 11 0 12 0;
#X connect 12 0 14 0;
#X connect 13 0 7 0;
#X connect 15 0 17 0;
#X connect 16 0 5 0;
#X connect 17 0 0 0;
#X restore 22 165 pd \$0-INPUT;
#N canvas 96 32 1033 619 \$0-DSP 0;
#N canvas 359 147 458 398 audioenergycontrol 0;
#X obj 236 -30 change;
#X obj 121 -55 &&;
#X obj 37 -30 change;
#X obj 121 -30 change;
#X obj 37 -163 t f f f f f f f;
#X obj 121 -2 sel 1;
#X obj 37 -2 sel 1;
#X obj 236 -2 sel 1;
#X obj 236 -55 &&;
#X obj 376 -30 change;
#X obj 376 -2 sel 1;
#X msg 37 32 0;
#X msg 121 32 1;
#X msg 236 32 2;
#X msg 376 32 3;
#X text 57 -58 0.4;
#X text 194 -52 0.6;
#X text 333 -53 0.8;
#X obj 376 -81 > 0.98;
#X obj 281 -81 <= 0.98;
#X obj 121 -81 > 0.6;
#X obj 37 -81 <= 0.6;
#X obj 165 -81 <= 0.8;
#X obj 236 -81 > 0.8;
#X obj 179 91 outlet;
#X obj 37 -203 inlet;
#X connect 0 0 7 0;
#X connect 1 0 3 0;
#X connect 2 0 6 0;
#X connect 3 0 5 0;
#X connect 4 0 21 0;
#X connect 4 1 20 0;
#X connect 4 2 22 0;
#X connect 4 3 23 0;
#X connect 4 4 19 0;
#X connect 4 5 18 0;
#X connect 5 0 12 0;
#X connect 6 0 11 0;
#X connect 7 0 13 0;
#X connect 8 0 0 0;
#X connect 9 0 10 0;
#X connect 10 0 14 0;
#X connect 11 0 24 0;
#X connect 12 0 24 0;
#X connect 13 0 24 0;
#X connect 14 0 24 0;
#X connect 18 0 9 0;
#X connect 19 0 8 1;
#X connect 20 0 1 0;
#X connect 21 0 2 0;
#X connect 22 0 1 1;
#X connect 23 0 8 0;
#X connect 25 0 4 0;
#X restore 818 39 pd audioenergycontrol;
#X obj 818 10 inlet;
#X obj 100 31 r \$0-tick;
#N canvas 649 120 534 395 wibble 0;
#X obj 225 240 mtof;
#X obj 225 264 osc~;
#X obj 225 194 f;
#X msg 11 87 \$1;
#X msg 51 87 \$2;
#X obj 257 194 f;
#X obj 290 194 f;
#X msg 91 87 \$3;
#X obj 225 22 mod 8;
#X obj 225 106 sel 0 1 2 3 4 5 6 7;
#X obj 91 113 + 12;
#X obj 51 113 + 12;
#X obj 11 113 + 12;
#X obj 225 288 lop~ 800;
#X obj 67 339 outlet~ pingpongleft;
#X obj 225 340 outlet~ pingpongright;
#X obj 393 340 outlet~ reverb;
#X obj 11 -1 inlet chords;
#X obj 225 -1 inlet;
#X connect 0 0 1 0;
#X connect 1 0 13 0;
#X connect 2 0 0 0;
#X connect 3 0 12 0;
#X connect 4 0 11 0;
#X connect 5 0 0 0;
#X connect 6 0 0 0;
#X connect 7 0 10 0;
#X connect 8 0 9 0;
#X connect 9 0 2 0;
#X connect 9 2 5 0;
#X connect 9 4 6 0;
#X connect 9 6 5 0;
#X connect 10 0 6 1;
#X connect 11 0 5 1;
#X connect 12 0 2 1;
#X connect 13 0 14 0;
#X connect 13 0 15 0;
#X connect 13 0 16 0;
#X connect 17 0 3 0;
#X connect 17 0 4 0;
#X connect 17 0 7 0;
#X connect 18 0 8 0;
#X restore 100 315 pd wibble;
#N canvas 107 23 1069 650 chordgen 0;
#N canvas 25 65 225 417 fmb 0;
#X obj 27 275 *~;
#X obj 11 300 +~;
#X obj 11 322 cos~;
#X obj 11 121 mtof;
#X obj 11 174 phasor~;
#X obj 87 179 vline~;
#X obj 87 214 *~;
#X obj 27 199 *~;
#X msg 87 158 1 2 \, 0 \$1 2;
#X obj 86 245 *~;
#X obj 11 346 *~;
#X obj 87 136 *;
#X obj 175 157 sqrt;
#X obj 27 224 osc~;
#X obj 11 148 t f f;
#X obj 11 58 unpack f f f;
#X obj 104 86 t b f f;
#X msg 87 115 800;
#X obj 11 32 inlet;
#X obj 11 366 outlet~;
#X obj 140 108 pow 2.3;
#X connect 0 0 1 1;
#X connect 1 0 2 0;
#X connect 2 0 10 0;
#X connect 3 0 14 0;
#X connect 4 0 1 0;
#X connect 5 0 6 0;
#X connect 6 0 9 0;
#X connect 6 0 9 1;
#X connect 7 0 13 0;
#X connect 8 0 5 0;
#X connect 9 0 0 1;
#X connect 9 0 10 1;
#X connect 10 0 19 0;
#X connect 11 0 8 0;
#X connect 12 0 6 1;
#X connect 13 0 0 0;
#X connect 14 0 4 0;
#X connect 14 1 7 0;
#X connect 15 0 3 0;
#X connect 15 1 7 1;
#X connect 15 2 16 0;
#X connect 16 0 17 0;
#X connect 16 1 20 0;
#X connect 16 2 12 0;
#X connect 17 0 11 0;
#X connect 18 0 15 0;
#X connect 20 0 11 1;
#X restore 399 479 pd fmb;
#X obj 328 3 change;
#X obj 237 332 f;
#X msg 105 11 \$1;
#X obj 237 358 pack f 0.5 0.8;
#X obj 328 24 mod 16;
#X obj 328 51 sel 0 1 2 3 4 5 6 7 8 9 10 11 12 13 14 15 16;
#X msg 164 11 \$2;
#X obj 399 332 f;
#X obj 784 334 f;
#X obj 507 332 f;
#X msg 222 10 \$3;
#X obj 399 358 pack f 0.5 0.7;
#X obj 507 358 pack f 0.75 0.5;
#X obj 784 360 pack f 0.5 0.7;
#X obj 895 204 sel 0;
#X obj 895 230 u_wrandom;
#X obj 955 53 loadbang;
#X obj 865 308 - 12;
#X obj 838 334 f;
#X obj 856 256 spigot;
#X obj 507 254 spigot;
#X obj 546 202 sel 0;
#X obj 546 228 u_wrandom;
#X msg 606 202 3 1;
#X obj 895 54 mod 16;
#X msg 955 204 4 1;
#X obj 32 332 f;
#X obj -45 358 pack f 0.5 0.4;
#X obj 50 306 + 12;
#X obj 32 254 spigot;
#X obj 71 155 u_wrandom;
#X msg 131 129 4 1;
#X obj -6 90 sel 0;
#X obj -6 155 u_wrandom;
#X msg 54 129 4 1;
#X obj -6 64 mod 16;
#X obj 54 90 loadbang;
#X obj -45 332 f;
#X obj -27 306 + 12;
#X obj -45 254 spigot;
#X obj 105 -55 inlet chords;
#X obj 398 544 outlet~;
#X obj 328 -56 inlet;
#X obj 398 498 *~ 0.6;
#X obj 105 32 s \$0-\$1;
#X obj 255 306 r \$0-\$1;
#X obj 865 282 r \$0-\$1;
#X obj 164 32 s \$0-\$2;
#X obj 417 306 r \$0-\$2;
#X obj 222 31 s \$0-\$3;
#X obj -27 280 r \$0-\$3;
#X obj 50 280 r \$0-\$3;
#X obj 802 308 r \$0-\$3;
#X obj 525 280 r \$0-\$2;
#X obj 525 306 + 12;
#X obj -6 38 r \$0-tick;
#X connect 0 0 44 0;
#X connect 1 0 5 0;
#X connect 2 0 4 0;
#X connect 3 0 45 0;
#X connect 4 0 0 0;
#X connect 5 0 6 0;
#X connect 6 0 2 0;
#X connect 6 2 30 0;
#X connect 6 4 8 0;
#X connect 6 6 9 0;
#X connect 6 8 40 0;
#X connect 6 10 21 0;
#X connect 6 12 9 0;
#X connect 6 14 10 0;
#X connect 6 16 20 0;
#X connect 7 0 48 0;
#X connect 8 0 12 0;
#X connect 9 0 14 0;
#X connect 10 0 13 0;
#X connect 11 0 50 0;
#X connect 12 0 0 0;
#X connect 13 0 0 0;
#X connect 14 0 0 0;
#X connect 15 0 16 0;
#X connect 16 0 20 1;
#X connect 17 0 26 0;
#X connect 17 0 24 0;
#X connect 18 0 19 1;
#X connect 19 0 14 0;
#X connect 20 0 19 1;
#X connect 21 0 10 0;
#X connect 22 0 23 0;
#X connect 23 0 21 1;
#X connect 24 0 23 1;
#X connect 25 0 22 0;
#X connect 25 0 15 0;
#X connect 26 0 16 1;
#X connect 27 0 28 0;
#X connect 28 0 0 0;
#X connect 29 0 27 1;
#X connect 30 0 27 0;
#X connect 31 0 30 1;
#X connect 32 0 31 1;
#X connect 33 0 34 0;
#X connect 33 0 31 0;
#X connect 34 0 40 1;
#X connect 35 0 34 1;
#X connect 36 0 33 0;
#X connect 37 0 35 0;
#X connect 37 0 32 0;
#X connect 38 0 28 0;
#X connect 39 0 38 1;
#X connect 40 0 38 0;
#X connect 41 0 3 0;
#X connect 41 0 7 0;
#X connect 41 0 11 0;
#X connect 43 0 1 0;
#X connect 43 0 25 0;
#X connect 44 0 42 0;
#X connect 46 0 2 1;
#X connect 47 0 18 0;
#X connect 49 0 8 1;
#X connect 51 0 39 0;
#X connect 52 0 29 0;
#X connect 53 0 9 1;
#X connect 54 0 55 0;
#X connect 55 0 10 1;
#X connect 56 0 36 0;
#X restore 178 315 pd chordgen;
#X obj 59 500 outlet~;
#X obj 178 500 outlet~;
#N canvas 231 22 630 396 effects 0;
#X obj 127 31 inlet~;
#X obj 203 30 inlet~;
#X obj 127 90 e_reverb;
#X obj 203 170 e_dubdel;
#X msg 283 116 feedback 0.7;
#X obj 203 197 *~ 0.2;
#X obj 253 197 *~ 0.2;
#X obj 283 32 loadbang;
#X msg 317 140 basedur \$1;
#X obj 318 54 r \$0-bpm;
#X msg 276 94 dell 4;
#X msg 256 74 delr 2;
#X obj 127 261 outlet~;
#X obj 181 261 outlet~;
#X connect 0 0 2 0;
#X connect 1 0 3 0;
#X connect 1 0 3 1;
#X connect 2 0 12 0;
#X connect 2 1 13 0;
#X connect 3 0 5 0;
#X connect 3 1 6 0;
#X connect 4 0 3 2;
#X connect 5 0 12 0;
#X connect 6 0 13 0;
#X connect 7 0 11 0;
#X connect 7 0 10 0;
#X connect 7 0 4 0;
#X connect 8 0 3 2;
#X connect 9 0 8 0;
#X connect 10 0 3 2;
#X connect 11 0 3 2;
#X restore 93 383 pd effects;
#X obj 61 363 *~ 0.4;
#X obj 100 100 cnv 15 850 140 empty empty empty 20 12 0 14 -261234
-66577 0;
#X text 913 101 SAVE;
#X obj 109 116 cnv 15 125 20 empty empty empty 20 12 0 14 -262144 -66577
0;
#X obj 127 146 cnv 15 125 20 empty empty empty 20 12 0 14 -262144 -66577
0;
#X obj 147 176 cnv 15 125 20 empty empty empty 20 12 0 14 -262144 -66577
0;
#X obj 164 206 cnv 15 125 20 empty empty empty 20 12 0 14 -262144 -66577
0;
#X obj 330 116 cnv 15 125 20 empty empty empty 20 12 0 14 -262144 -66577
0;
#X obj 348 146 cnv 15 125 20 empty empty empty 20 12 0 14 -262144 -66577
0;
#X obj 368 176 cnv 15 125 20 empty empty empty 20 12 0 14 -262144 -66577
0;
#X obj 384 206 cnv 15 125 20 empty empty empty 20 12 0 14 -262144 -66577
0;
#X obj 540 116 cnv 15 125 20 empty empty empty 20 12 0 14 -262144 -66577
0;
#X obj 558 146 cnv 15 125 20 empty empty empty 20 12 0 14 -262144 -66577
0;
#X obj 576 176 cnv 15 125 20 empty empty empty 20 12 0 14 -262144 -66577
0;
#X obj 596 206 cnv 15 125 20 empty empty empty 20 12 0 14 -262144 -66577
0;
#X obj 761 116 cnv 15 125 20 empty empty empty 20 12 0 14 -262144 -66577
0;
#X obj 779 146 cnv 15 125 20 empty empty empty 20 12 0 14 -262144 -66577
0;
#X obj 798 176 cnv 15 125 20 empty empty empty 20 12 0 14 -262144 -66577
0;
#X obj 816 206 cnv 15 125 20 empty empty empty 20 12 0 14 -262144 -66577
0;
#N canvas 2 22 1200 701 chordcontroller 0;
#X obj 437 -227 change;
#X obj 437 -205 mod 256;
#X obj 437 -182 sel 0 64 128 192;
#X msg 437 -147 0;
#X msg 474 -147 1;
#X msg 511 -147 2;
#X msg 547 -147 3;
#X obj 109 60 sel 0 1 2 3;
#X obj 437 -7 route 0 1 2 3;
#X obj 437 -64 list prepend;
#X obj 437 -43 list trim;
#X obj 594 -200 sel 0;
#X obj 594 -221 mod 16;
#X obj 594 -147 t b a;
#X obj 437 -84 f;
#X obj 437 -252 t f f;
#X obj 594 -175 f;
#X obj 664 -221 inlet audioenergystate;
#X obj 437 -274 inlet;
#X obj 109 264 s \$0-chords;
#X obj 330 60 sel 0 1 2 3;
#X obj 330 264 s \$0-chords;
#X obj 540 60 sel 0 1 2 3;
#X obj 540 264 s \$0-chords;
#X obj 761 60 sel 0 1 2 3;
#X obj 761 264 s \$0-chords;
#X obj 443 341 outlet;
#X obj 443 315 r \$0-chords;
#X obj 109 116 abs/sequence \$0 1;
#N canvas 528 117 523 379 save 0;
#X obj 43 -145 until;
#X obj 43 -121 f;
#X obj 78 -121 + 1;
#X msg 86 -145 1;
#X msg 185 -23 set;
#X obj 23 -191 t b b 1 b;
#X msg 43 50 1 0 2 8 \, 2 0 2 9 \, 3 0 2 10 \, 4 0 2 11 \, 5 8 11 15
\, 6 9 11 15 \, 7 10 11 15 \, 8 11 11 15 \, 9 13 15 18 \, 10 14 16
18 \, 11 15 17 18 \, 12 16 17 18 \, 13 15 14 22 \, 14 15 14 23 \, 15
15 14 24 \, 16 15 14 25 \,;
#X obj 43 -1 pack f f f f;
#X msg 43 21 add2 \$1 \$2 \$3 \$4 \, addcomma;
#X obj 43 -94 t f f;
#X obj 75 -68 s \$0-querysend;
#X obj 69 -45 r \$0-queryreturn;
#X obj 70 -24 unpack f f f;
#X msg 43 -164 16;
#X obj 23 -216 inlet;
#X obj 242 21 loadbang;
#X obj 43 110 s \$0-savereturn;
#X connect 0 0 1 0;
#X connect 1 0 2 0;
#X connect 1 0 9 0;
#X connect 2 0 1 1;
#X connect 3 0 1 1;
#X connect 4 0 6 0;
#X connect 5 1 13 0;
#X connect 5 2 3 0;
#X connect 5 3 4 0;
#X connect 6 0 16 0;
#X connect 7 0 8 0;
#X connect 8 0 6 0;
#X connect 9 0 7 0;
#X connect 9 1 10 0;
#X connect 11 0 12 0;
#X connect 12 0 7 1;
#X connect 12 1 7 2;
#X connect 12 2 7 3;
#X connect 13 0 0 0;
#X connect 14 0 5 0;
#X connect 15 0 6 0;
#X restore 1001 54 pd save;
#X obj 922 116 bng 15 250 50 0 empty empty empty 17 7 0 10 -262144
-1 -1;
#X obj 127 146 abs/sequence \$0 2;
#X obj 147 176 abs/sequence \$0 3;
#X obj 164 206 abs/sequence \$0 4;
#X obj 330 116 abs/sequence \$0 5;
#X obj 348 146 abs/sequence \$0 6;
#X obj 368 176 abs/sequence \$0 7;
#X obj 384 206 abs/sequence \$0 8;
#X obj 540 116 abs/sequence \$0 9;
#X obj 558 146 abs/sequence \$0 10;
#X obj 576 176 abs/sequence \$0 11;
#X obj 596 206 abs/sequence \$0 12;
#X obj 761 116 abs/sequence \$0 13;
#X obj 779 146 abs/sequence \$0 14;
#X obj 798 176 abs/sequence \$0 15;
#X obj 816 206 abs/sequence \$0 16;
#X connect 0 0 1 0;
#X connect 1 0 2 0;
#X connect 2 0 3 0;
#X connect 2 1 4 0;
#X connect 2 2 5 0;
#X connect 2 3 6 0;
#X connect 3 0 14 0;
#X connect 4 0 14 0;
#X connect 5 0 14 0;
#X connect 6 0 14 0;
#X connect 7 0 28 0;
#X connect 7 1 31 0;
#X connect 7 2 32 0;
#X connect 7 3 33 0;
#X connect 8 0 7 0;
#X connect 8 1 20 0;
#X connect 8 2 22 0;
#X connect 8 3 24 0;
#X connect 9 0 10 0;
#X connect 10 0 8 0;
#X connect 11 0 16 0;
#X connect 12 0 11 0;
#X connect 13 0 14 0;
#X connect 13 1 9 1;
#X connect 14 0 9 0;
#X connect 15 0 0 0;
#X connect 15 1 12 0;
#X connect 16 0 13 0;
#X connect 17 0 16 1;
#X connect 18 0 15 0;
#X connect 20 0 34 0;
#X connect 20 1 35 0;
#X connect 20 2 36 0;
#X connect 20 3 37 0;
#X connect 22 0 38 0;
#X connect 22 1 39 0;
#X connect 22 2 40 0;
#X connect 22 3 41 0;
#X connect 24 0 42 0;
#X connect 24 1 43 0;
#X connect 24 2 44 0;
#X connect 24 3 45 0;
#X connect 27 0 26 0;
#X connect 28 0 19 0;
#X connect 30 0 29 0;
#X connect 31 0 19 0;
#X connect 32 0 19 0;
#X connect 33 0 19 0;
#X connect 34 0 21 0;
#X connect 35 0 21 0;
#X connect 36 0 21 0;
#X connect 37 0 21 0;
#X connect 38 0 23 0;
#X connect 39 0 23 0;
#X connect 40 0 23 0;
#X connect 42 0 25 0;
#X connect 43 0 25 0;
#X connect 44 0 25 0;
#X connect 45 0 25 0;
#X coords 0 -1 1 1 850 140 2 100 100;
#X restore 100 100 pd chordcontroller;
#X connect 0 0 27 1;
#X connect 1 0 0 0;
#X connect 2 0 3 1;
#X connect 2 0 4 1;
#X connect 2 0 27 0;
#X connect 3 0 8 0;
#X connect 3 1 7 0;
#X connect 3 2 7 1;
#X connect 4 0 5 0;
#X connect 4 0 6 0;
#X connect 7 0 5 0;
#X connect 7 1 6 0;
#X connect 8 0 5 0;
#X connect 8 0 6 0;
#X connect 27 0 3 0;
#X connect 27 0 4 0;
#X coords 0 -1 1 1 850 140 1 100 100;
#X restore 22 242 pd \$0-DSP;
#X text 473 224 To save your settings click save and save the patch
as well.;
#X text 472 156 SEQUENCER: Root note is set by the RJC-1000. Input
is in steps on the minor scale. The player moves from left to right
as the intensity of the sound input grows.;
#X connect 1 0 7 0;
#X connect 5 0 6 0;
#X connect 6 0 2 0;
#X connect 7 0 8 0;
#X connect 8 0 3 0;
#X connect 8 1 4 0;
