#N canvas 0 22 296 343 10;
#X obj 21 213 + 1;
#X obj 44 127 div 8;
#X obj 21 193 div 32;
#X obj 44 147 mod 4;
#X obj 44 167 + 1;
#X obj 67 76 mod 8;
#X obj 67 97 + 1;
#X obj 21 56 t f f f;
#X obj 21 253 pack f f f;
#X text 28 39 Inlet - tick @ 32 per bar;
#X text 34 278 Outlet - Bar \, Beat \, Division (tick);
#X obj 21 304 outlet;
#X obj 21 20 inlet;
#X connect 0 0 8 0;
#X connect 1 0 3 0;
#X connect 2 0 0 0;
#X connect 3 0 4 0;
#X connect 4 0 8 1;
#X connect 5 0 6 0;
#X connect 6 0 8 2;
#X connect 7 0 2 0;
#X connect 7 1 1 0;
#X connect 7 2 5 0;
#X connect 8 0 11 0;
#X connect 12 0 7 0;
