#N canvas 209 115 428 310 10;
#N canvas 0 22 450 300 intv2ratio 0;
#X obj 25 45 inlet;
#X obj 25 189 outlet;
#X text 100 239 1994 by Karlheinz Essl;
#X obj 25 146 pow;
#X obj 25 103 t b f;
#X msg 25 126 2;
#X obj 25 79 / 12;
#X text 460 107 < ln(2) / 12;
#X text 227 107 [expr exp($f1* 0.0577622650467)];
#X text 231 88 In Max this was:;
#X connect 0 0 6 0;
#X connect 3 0 1 0;
#X connect 4 0 5 0;
#X connect 4 1 3 1;
#X connect 5 0 3 0;
#X connect 6 0 4 0;
#X restore 145 132 pd intv2ratio;
#X obj 145 106 - 72;
#X obj 255 79 inlet;
#X obj 78 57 inlet;
#X obj 78 78 unpack s f f;
#X obj 78 156 pack s 1 0;
#X obj 78 276 outlet~;
#X text 11 12 in_ <tablename> <desired pitch> <base pitch>;
#X text 256 55 s_playtable messages;
#X obj 78 218 s_playtable2;
#X obj 118 251 outlet~;
#X connect 0 0 5 2;
#X connect 1 0 0 0;
#X connect 2 0 9 1;
#X connect 3 0 4 0;
#X connect 4 0 5 0;
#X connect 4 1 1 0;
#X connect 4 2 1 1;
#X connect 5 0 9 0;
#X connect 9 0 6 0;
#X connect 9 1 10 0;
