#N canvas 167 187 804 297 10;
#X obj 589 255 outlet;
#X obj -2 53 inlet~ MIC;
#X obj 589 25 inlet;
#N canvas 188 423 539 249 MODULE_INFO 0;
#X text 64 79 authors: Reality Jockey;
#X text 65 169 decorator: s1m1-s2m1;
#X text 65 191 tags:;
#X text 66 57 name: 8 bit Bass;
#X text 65 99 description: 8 bit Bass does exactly what it says on
the tin. Use Crush! to sweep from sine wave subs to bit-crushed glitches.
Slide scoops up to the notes and Chorus adds some character. Select
between four presets with the Pattern control. In expert mode you can
create your own patterns.;
#X restore -2 25 pd MODULE_INFO;
#X obj -2 258 outlet~;
#X obj 58 258 outlet~;
#N canvas 699 22 581 438 \$0-PARAMETERS 0;
#X obj 110 305 outlet;
#X obj -48 56 s \$0-tick;
#X obj -48 -15 inlet;
#X obj -48 17 route tick bpm rootnote;
#X obj 106 132 cnv 15 187 163 empty empty RJC_Parameters 10 12 1 14
-162280 -262144 0;
#X obj 106 106 cnv 15 187 20 empty empty 8bit_Bass 73 11 1 14 -261234
-33289 0;
#X obj 57 55 s \$0-rootnote;
#X obj 110 156 rjc_parameter_floatrange \$0 Crush! 0.2;
#X obj 110 191 rjc_parameter_floatrange \$0 Slide 0;
#X obj 110 225 rjc_parameter_floatrange \$0 Chorus 0.5;
#X obj 110 260 rjc_parameter_floatrange \$0 Pattern 0;
#X connect 2 0 3 0;
#X connect 3 0 1 0;
#X connect 3 2 6 0;
#X connect 3 3 7 0;
#X connect 7 0 8 0;
#X connect 8 0 9 0;
#X connect 9 0 0 0;
#X connect 9 0 10 0;
#X coords 0 -1 1 1 200 200 2 100 100;
#X restore 589 48 pd \$0-PARAMETERS;
#N canvas 26 223 457 722 \$0-DSP 0;
#X obj 10 10 inlet;
#X obj 56 554 lop~ 8000;
#X obj 56 481 samphold~;
#X obj 55 690 delwrite~ \$0-aaa 200;
#X obj 222 574 vd~ \$0-aaa;
#X obj 353 573 vd~ \$0-aaa;
#X obj 116 456 phasor~ 4222;
#X obj 74 508 c_adsr 1 1 123 12 43;
#X obj 353 643 hip~ 30;
#X obj 222 643 hip~ 30;
#X obj 353 693 outlet~;
#X obj 222 693 outlet~;
#X obj 56 248 mtof;
#X obj 353 453 osc~ 0.5;
#X obj 353 513 +~ 0.5;
#X obj 10 58 moses 1;
#X obj 56 105 t f f;
#X obj 353 423 * 10;
#X obj 56 173 line;
#X obj 56 150 list trim;
#X obj 56 129 list append;
#X obj 174 38 r \$0-Slide;
#X obj 317 309 r \$0-Crush!;
#X obj 10 33 unpack f f;
#X obj 77 58 s \$0-off;
#X obj 174 101 m_scale 0 1 0 400;
#X msg 353 393 0.5;
#X obj 353 363 loadbang;
#X obj 353 483 *~ 0.005;
#X obj 73 622 sig~;
#X obj 73 643 lop~ 5;
#X obj 55 669 *~;
#X obj 73 581 r \$0-Chorus;
#X obj 56 530 *~;
#X obj 116 432 m_scale 0 1 20000 130;
#X obj 56 400 *~;
#X obj 74 375 lop~ 10;
#X obj 56 269 osc~;
#X obj 93 237 swap 128;
#X obj 93 259 -;
#X obj 93 280 / 128;
#X obj 303 614 *~ 0.6;
#X obj 93 302 sqrt;
#X obj 74 334 r \$0-off;
#X obj 74 355 *~;
#X obj 353 543 *~ 20;
#X obj 222 543 *~ 10;
#X text 158 236 Amplitude key scaling;
#X obj 56 197 t f f;
#X obj 292 370 *~ 1;
#X obj 317 339 m_scale 0 1 1 0.25;
#X obj 56 421 *~ 1;
#X obj 73 602 m_scale 0 1 0 4;
#X connect 0 0 23 0;
#X connect 1 0 31 0;
#X connect 1 0 41 0;
#X connect 2 0 33 0;
#X connect 4 0 9 0;
#X connect 5 0 8 0;
#X connect 6 0 2 1;
#X connect 7 0 33 1;
#X connect 8 0 10 0;
#X connect 9 0 11 0;
#X connect 12 0 37 0;
#X connect 13 0 28 0;
#X connect 14 0 45 0;
#X connect 14 0 46 0;
#X connect 15 1 16 0;
#X connect 16 0 20 0;
#X connect 16 1 7 0;
#X connect 17 0 13 0;
#X connect 18 0 48 0;
#X connect 19 0 18 0;
#X connect 20 0 19 0;
#X connect 21 0 25 0;
#X connect 22 0 34 0;
#X connect 22 0 50 0;
#X connect 23 0 15 0;
#X connect 23 1 24 0;
#X connect 25 0 20 1;
#X connect 26 0 17 0;
#X connect 27 0 26 0;
#X connect 28 0 14 0;
#X connect 29 0 30 0;
#X connect 30 0 31 1;
#X connect 31 0 3 0;
#X connect 32 0 52 0;
#X connect 33 0 1 0;
#X connect 34 0 6 0;
#X connect 35 0 49 0;
#X connect 35 0 51 0;
#X connect 36 0 35 1;
#X connect 37 0 35 0;
#X connect 38 0 39 0;
#X connect 38 1 39 1;
#X connect 39 0 40 0;
#X connect 40 0 42 0;
#X connect 41 0 8 0;
#X connect 41 0 9 0;
#X connect 42 0 44 1;
#X connect 43 0 44 0;
#X connect 44 0 36 0;
#X connect 45 0 5 0;
#X connect 46 0 4 0;
#X connect 48 0 12 0;
#X connect 48 1 38 0;
#X connect 49 0 11 0;
#X connect 49 0 10 0;
#X connect 50 0 49 1;
#X connect 51 0 2 0;
#X connect 52 0 29 0;
#X restore -2 203 pd \$0-DSP;
#N canvas 324 74 707 737 \$0-INPUT 0;
#X obj 629 124 bng 30 250 50 0 empty empty Save -4 -10 1 16 -258113
-1 -1;
#N canvas 0 22 772 701 Play 0;
#X obj 50 82 route 1 2 3 4 5 6 7 8 9 10 11 12 13 14 15 16;
#X obj 213 513 list;
#X obj 230 493 list;
#X obj 248 473 list;
#X obj 265 453 list;
#X obj 283 433 list;
#X obj 301 412 list;
#X obj 318 392 list;
#X obj 336 371 list;
#X obj 354 350 list;
#X obj 371 329 list;
#X obj 389 309 list;
#X obj 406 289 list;
#X obj 424 269 list;
#X obj 442 248 list;
#X obj 459 228 list;
#X obj 477 207 list;
#X obj 50 60 inlet;
#X obj 451 109 sel 0 1 2 3 4 5 6 7 8 9 10 11 12 13 14 15;
#X obj 451 55 inlet tick;
#X obj 477 528 list trim;
#X obj 477 579 outlet;
#X connect 0 0 1 1;
#X connect 0 1 2 1;
#X connect 0 2 3 1;
#X connect 0 3 4 1;
#X connect 0 4 5 1;
#X connect 0 5 6 1;
#X connect 0 6 7 1;
#X connect 0 7 8 1;
#X connect 0 8 9 1;
#X connect 0 9 10 1;
#X connect 0 10 11 1;
#X connect 0 11 12 1;
#X connect 0 12 13 1;
#X connect 0 13 14 1;
#X connect 0 14 15 1;
#X connect 0 15 16 1;
#X connect 1 0 20 0;
#X connect 2 0 20 0;
#X connect 3 0 20 0;
#X connect 4 0 20 0;
#X connect 5 0 20 0;
#X connect 6 0 20 0;
#X connect 7 0 20 0;
#X connect 8 0 20 0;
#X connect 9 0 20 0;
#X connect 10 0 20 0;
#X connect 11 0 20 0;
#X connect 12 0 20 0;
#X connect 13 0 20 0;
#X connect 14 0 20 0;
#X connect 15 0 20 0;
#X connect 16 0 20 0;
#X connect 17 0 0 0;
#X connect 18 0 1 0;
#X connect 18 1 2 0;
#X connect 18 2 3 0;
#X connect 18 3 4 0;
#X connect 18 4 5 0;
#X connect 18 5 6 0;
#X connect 18 6 7 0;
#X connect 18 7 8 0;
#X connect 18 8 9 0;
#X connect 18 9 10 0;
#X connect 18 10 11 0;
#X connect 18 11 12 0;
#X connect 18 12 13 0;
#X connect 18 13 14 0;
#X connect 18 14 15 0;
#X connect 18 15 16 0;
#X connect 19 0 18 0;
#X connect 20 0 21 0;
#X restore 259 656 pd Play;
#X obj 276 523 s \$0-save;
#X obj 259 683 outlet;
#X obj 100 160 abs/step_note \$0;
#X obj 100 180 abs/step_toggle \$0;
#X obj 305 543 r \$0-tick;
#X obj 127 304 until;
#X obj 127 328 f;
#X obj 162 327 + 1;
#X msg 170 304 1;
#X msg 259 387 set;
#X obj 127 436 pack f f f;
#X msg 127 457 add2 \$1 \$2 \$3 \, addcomma;
#X obj 127 361 t f f f;
#X msg 127 284 16;
#X obj 150 413 s \$0-note;
#X obj 173 387 s \$0-toggle;
#X obj 107 256 t b b 1 b;
#X obj 124 125 abs/m_m2pspell;
#X obj 124 64 r \$0-pitchspell;
#X obj 305 615 int;
#X obj 305 636 change;
#X obj 305 585 / 2;
#X obj 305 565 mod 32;
#X text 212 134 After making changes \, click 'Save' then save the
patch -->;
#X text 104 109 Note Selection;
#N canvas 714 614 566 351 patternselect 0;
#X obj 12 35 inlet;
#X obj 12 331 outlet;
#X obj 12 114 abs/switch 1;
#X obj 113 115 abs/switch 2;
#X obj 222 114 abs/switch 3;
#X obj 322 114 abs/switch 4;
#X obj 403 75 inlet;
#X msg 12 142 1 38 1 \, 2 0 0 \, 3 0 1 \, 4 0 0 \, 5 43 1 \, 6 0 0
\, 7 0 1 \, 8 0 0 \, 9 33 1 \, 10 0 0 \, 11 0 1 \, 12 0 0 \, 13 53
1 \, 14 0 0 \, 15 54 1 \, 16 0 0 \,;
#X msg 27 194 1 41 0 \, 2 0 1 \, 3 0 0 \, 4 0 0 \, 5 0 0 \, 6 127 0
\, 7 42 1 \, 8 0 1 \, 9 0 1 \, 10 0 1 \, 11 0 1 \, 12 125 0 \, 13 52
1 \, 14 15 0 \, 15 53 1 \, 16 127 0 \,;
#X msg 43 237 1 41 0 \, 2 0 0 \, 3 0 1 \, 4 0 0 \, 5 0 0 \, 6 127 0
\, 7 42 1 \, 8 0 0 \, 9 0 1 \, 10 0 0 \, 11 0 0 \, 12 127 0 \, 13 52
1 \, 14 127 0 \, 15 53 1 \, 16 127 0 \,;
#X msg 59 283 1 38 1 \, 2 0 1 \, 3 0 1 \, 4 0 1 \, 5 0 1 \, 6 0 1 \,
7 0 1 \, 8 0 0 \, 9 0 0 \, 10 0 0 \, 11 60 1 \, 12 0 1 \, 13 0 1 \,
14 0 1 \, 15 0 1 \, 16 0 0 \,;
#X connect 0 0 3 0;
#X connect 0 0 4 0;
#X connect 0 0 5 0;
#X connect 0 0 2 0;
#X connect 2 0 7 0;
#X connect 3 0 8 0;
#X connect 4 0 9 0;
#X connect 5 0 10 0;
#X connect 6 0 2 1;
#X connect 6 0 3 1;
#X connect 6 0 4 1;
#X connect 6 0 5 1;
#X connect 7 0 1 0;
#X connect 8 0 1 0;
#X connect 9 0 1 0;
#X connect 10 0 1 0;
#X restore 259 498 pd patternselect;
#X obj 336 379 r \$0-Pattern;
#X obj 336 431 int;
#X obj 336 473 t b f;
#X obj 336 452 change -1;
#X obj 336 405 m_scale 0 1 1 4;
#X connect 0 0 18 0;
#X connect 1 0 3 0;
#X connect 4 0 12 1;
#X connect 5 0 12 2;
#X connect 6 0 24 0;
#X connect 7 0 8 0;
#X connect 8 0 9 0;
#X connect 8 0 14 0;
#X connect 9 0 8 1;
#X connect 10 0 8 1;
#X connect 11 0 27 0;
#X connect 12 0 13 0;
#X connect 13 0 27 0;
#X connect 14 0 12 0;
#X connect 14 1 16 0;
#X connect 14 2 17 0;
#X connect 15 0 7 0;
#X connect 18 0 27 0;
#X connect 18 1 15 0;
#X connect 18 2 10 0;
#X connect 18 3 11 0;
#X connect 20 0 19 0;
#X connect 21 0 22 0;
#X connect 22 0 1 1;
#X connect 23 0 21 0;
#X connect 24 0 23 0;
#X connect 27 0 2 0;
#X connect 27 0 1 0;
#X connect 28 0 32 0;
#X connect 29 0 31 0;
#X connect 30 0 27 0;
#X connect 30 1 27 1;
#X connect 31 0 30 0;
#X connect 32 0 29 0;
#X coords 0 -1 1 1 582 120 2 100 100;
#X restore -2 78 pd \$0-INPUT;
#X connect 2 0 6 0;
#X connect 6 0 0 0;
#X connect 7 0 4 0;
#X connect 7 1 5 0;
#X connect 8 0 7 0;
