#N canvas 524 196 756 658 10;
#X obj 83 -24 select a b c d e f g h i j k l m n o p q r s t u v w
x y z;
#X msg 83 8 1;
#X msg 93 18 2;
#X msg 103 28 3;
#X msg 113 38 4;
#X msg 123 48 5;
#X msg 133 58 6;
#X msg 143 68 7;
#X msg 153 78 8;
#X msg 163 88 9;
#X msg 173 98 10;
#X msg 183 108 11;
#X msg 193 118 12;
#X msg 203 128 13;
#X msg 213 138 14;
#X msg 223 148 15;
#X msg 233 159 16;
#X msg 243 168 17;
#X msg 255 179 18;
#X msg 263 188 19;
#X msg 273 198 20;
#X msg 283 208 21;
#X msg 292 218 22;
#X msg 303 228 23;
#X msg 313 238 24;
#X msg 323 248 25;
#X msg 333 258 26;
#X obj 83 274 outlet;
#X obj 83 -49 symbol \$1;
#X obj 83 -101 inlet;
#X connect 0 0 1 0;
#X connect 0 1 2 0;
#X connect 0 2 3 0;
#X connect 0 3 4 0;
#X connect 0 4 5 0;
#X connect 0 5 6 0;
#X connect 0 6 7 0;
#X connect 0 7 8 0;
#X connect 0 8 9 0;
#X connect 0 9 10 0;
#X connect 0 10 11 0;
#X connect 0 11 12 0;
#X connect 0 12 13 0;
#X connect 0 13 14 0;
#X connect 0 14 15 0;
#X connect 0 15 16 0;
#X connect 0 16 17 0;
#X connect 0 17 18 0;
#X connect 0 18 19 0;
#X connect 0 19 20 0;
#X connect 0 20 21 0;
#X connect 0 21 22 0;
#X connect 0 22 23 0;
#X connect 0 23 24 0;
#X connect 0 24 25 0;
#X connect 0 25 26 0;
#X connect 1 0 27 0;
#X connect 2 0 27 0;
#X connect 3 0 27 0;
#X connect 4 0 27 0;
#X connect 5 0 27 0;
#X connect 6 0 27 0;
#X connect 7 0 27 0;
#X connect 8 0 27 0;
#X connect 9 0 27 0;
#X connect 10 0 27 0;
#X connect 11 0 27 0;
#X connect 12 0 27 0;
#X connect 13 0 27 0;
#X connect 14 0 27 0;
#X connect 15 0 27 0;
#X connect 16 0 27 0;
#X connect 17 0 27 0;
#X connect 18 0 27 0;
#X connect 19 0 27 0;
#X connect 20 0 27 0;
#X connect 21 0 27 0;
#X connect 22 0 27 0;
#X connect 23 0 27 0;
#X connect 24 0 27 0;
#X connect 25 0 27 0;
#X connect 26 0 27 0;
#X connect 28 0 0 0;
#X connect 29 0 28 0;
