#N canvas 29 48 627 427 10;
#X floatatom 93 97 5 0 0 0 - - -;
#X obj -11 118 spigot;
#X obj -11 31 sel \$2;
#X obj 9 52 s \$2-stepbang;
#X obj 251 83 random 2;
#X msg 381 77 0;
#X msg 158 150 32;
#X floatatom 190 187 5 0 0 0 - - -;
#X obj 158 184 *;
#X obj 126 264 +;
#X obj 144 234 - 32;
#X obj 158 106 loadbang;
#X floatatom 211 341 5 0 0 1 index - -;
#X obj 141 289 + \$2;
#X obj 190 150 let2num \$1;
#X obj 84 236 t f b b;
#X obj -11 184 del;
#X obj 12 150 r del;
#X obj -11 10 r \$3-step;
#X obj 84 372 tabwrite \$3-pattern;
#X obj 84 144 f;
#X obj 84 72 r \$3\$1\$2-s;
#X obj 251 7 r \$3-rand-bang;
#X obj 381 27 r \$3-clear-bang;
#X obj 390 52 r \$3-\$1-clear-bang;
#X obj 258 29 r \$3-\$1-rand-bang;
#X obj 321 121 s \$1\$2\$3-clear;
#X obj 251 60 bang;
#X obj 158 129 t f b;
#X obj -11 211 symbol \$1;
#X msg -11 232 \$1;
#X obj -11 259 s \$3-bang;
#X connect 1 0 16 0;
#X connect 2 0 3 0;
#X connect 2 0 1 0;
#X connect 4 0 26 0;
#X connect 5 0 26 0;
#X connect 6 0 8 0;
#X connect 8 0 10 0;
#X connect 9 0 13 0;
#X connect 10 0 9 1;
#X connect 11 0 20 0;
#X connect 11 0 28 0;
#X connect 13 0 12 0;
#X connect 13 0 19 1;
#X connect 14 0 7 0;
#X connect 14 0 8 1;
#X connect 15 0 19 0;
#X connect 15 1 9 0;
#X connect 16 0 29 0;
#X connect 17 0 16 1;
#X connect 18 0 2 0;
#X connect 20 0 15 0;
#X connect 21 0 0 0;
#X connect 21 0 1 1;
#X connect 21 0 20 0;
#X connect 22 0 27 0;
#X connect 23 0 5 0;
#X connect 24 0 5 0;
#X connect 25 0 27 0;
#X connect 27 0 4 0;
#X connect 28 0 6 0;
#X connect 28 1 14 0;
#X connect 29 0 30 0;
#X connect 30 0 31 0;
