#N canvas 0 0 800 516 10;
#X obj 236 110 vline~;
#X obj 221 7 inlet;
#X obj 229 432 outlet~;
#X obj 241 142 *~;
#X obj 230 282 cos~;
#X obj 229 261 -~ 0.25;
#X obj 231 194 +~;
#X obj 231 305 *~;
#X obj 302 169 cos~;
#X obj 230 218 +~;
#X msg 221 73 1 \, 0 23;
#X obj 303 191 *~ 0.055;
#X obj 230 352 clip~ -0.6 0.6;
#X obj 229 379 *~;
#X obj 282 329 / 127;
#X obj 355 99 switch~;
#X msg 355 74 1;
#X obj 221 30 t b f b b b;
#X msg 306 97 0;
#X obj 306 75 del 500;
#X obj 230 328 hip~ 80;
#X obj 302 148 *~ 10.7;
#X obj 247 168 *~ 0.253;
#X obj 230 240 *~ 10.3;
#X obj 229 402 *~ 0.5;
#X connect 0 0 3 0;
#X connect 0 0 3 1;
#X connect 0 0 6 0;
#X connect 0 0 21 0;
#X connect 1 0 17 0;
#X connect 3 0 7 1;
#X connect 3 0 22 0;
#X connect 4 0 7 0;
#X connect 5 0 4 0;
#X connect 6 0 9 0;
#X connect 7 0 20 0;
#X connect 8 0 11 0;
#X connect 9 0 23 0;
#X connect 10 0 0 0;
#X connect 11 0 9 1;
#X connect 12 0 13 0;
#X connect 13 0 24 0;
#X connect 14 0 13 1;
#X connect 16 0 15 0;
#X connect 17 0 10 0;
#X connect 17 1 14 0;
#X connect 17 3 19 0;
#X connect 17 4 16 0;
#X connect 18 0 15 0;
#X connect 19 0 18 0;
#X connect 20 0 12 0;
#X connect 21 0 8 0;
#X connect 22 0 6 1;
#X connect 23 0 5 0;
#X connect 24 0 2 0;
