#N canvas 142 113 450 300 10;
#X obj 15 99 vline~;
#X obj 15 217 *~;
#X obj 31 198 cos~;
#X obj 46 155 *~;
#X msg 15 77 1 \, 0 70 0;
#X obj 30 175 *~;
#X obj 47 131 *~ 2.412;
#X obj 15 16 inlet trigger;
#X obj 16 265 outlet~;
#X obj 16 241 *~;
#X obj 63 198 / 127;
#X obj 175 99 switch~;
#X msg 175 74 1;
#X obj 15 47 t b f b b b;
#X obj 126 75 del 71;
#X msg 126 97 0;
#X connect 0 0 1 0;
#X connect 0 0 5 0;
#X connect 0 0 6 0;
#X connect 1 0 9 0;
#X connect 2 0 1 1;
#X connect 3 0 5 1;
#X connect 4 0 0 0;
#X connect 5 0 2 0;
#X connect 6 0 3 1;
#X connect 6 0 3 0;
#X connect 7 0 13 0;
#X connect 9 0 8 0;
#X connect 10 0 9 1;
#X connect 12 0 11 0;
#X connect 13 0 4 0;
#X connect 13 1 10 0;
#X connect 13 3 14 0;
#X connect 13 4 12 0;
#X connect 14 0 15 0;
#X connect 15 0 11 0;
