#N canvas 130 33 541 413 10;
#X obj 38 179 *~;
#X obj 221 150 *~;
#X obj 143 228 *~;
#X obj 156 139 *~;
#X obj 142 301 hip~ 400;
#X obj 39 133 osc~ 800;
#X obj 53 153 osc~ 200.15;
#X obj 222 111 osc~ 167;
#X obj 237 129 osc~ 195.2;
#X obj 156 108 vline~;
#X msg 298 83 0;
#X msg 156 85 1 1 \, 0 80 2;
#X obj 142 255 *~;
#X obj 270 26 inlet trigger;
#X obj 271 362 outlet~;
#X obj 271 338 *~;
#X obj 318 295 / 127;
#X obj 430 109 switch~;
#X msg 430 84 1;
#X obj 270 57 t b f b b b;
#X msg 381 107 0;
#X obj 381 85 del 82;
#X obj 142 277 *~ 0.4;
#X text 308 336 efficient high bongo \, ajf 2009;
#X connect 0 0 12 0;
#X connect 0 0 2 0;
#X connect 1 0 12 0;
#X connect 1 0 2 1;
#X connect 2 0 12 0;
#X connect 3 0 12 1;
#X connect 4 0 15 0;
#X connect 5 0 0 0;
#X connect 6 0 0 1;
#X connect 7 0 1 0;
#X connect 8 0 1 1;
#X connect 9 0 3 0;
#X connect 9 0 3 1;
#X connect 10 0 8 1;
#X connect 10 0 7 1;
#X connect 10 0 6 1;
#X connect 10 0 5 1;
#X connect 11 0 9 0;
#X connect 12 0 22 0;
#X connect 13 0 19 0;
#X connect 15 0 14 0;
#X connect 16 0 15 1;
#X connect 18 0 17 0;
#X connect 19 0 11 0;
#X connect 19 1 16 0;
#X connect 19 2 10 0;
#X connect 19 3 21 0;
#X connect 19 4 18 0;
#X connect 20 0 17 0;
#X connect 21 0 20 0;
#X connect 22 0 4 0;
