#N canvas 212 101 353 291 10;
#X obj 30 29 tgl 15 0 empty empty empty 17 7 0 10 -262144 -1 -1 1 1
;
#X obj 101 158 s_epkit;
#X msg 101 77 kd 60;
#X msg 142 77 sd 60;
#X msg 183 77 hh 60;
#X msg 224 77 cb 60;
#X msg 101 100 hb 60;
#X msg 142 100 lb 60;
#X msg 185 100 hc 60;
#X msg 226 100 rm 60;
#N canvas 0 0 450 300 pattern 0;
#X msg 125 195 kd 60;
#X msg 175 196 sd 60;
#X msg 216 196 hh 60;
#X msg 301 198 cb 60;
#X msg 134 219 hb 60;
#X msg 175 219 lb 60;
#X msg 218 219 hc 60;
#X msg 310 232 rm 60;
#X obj 193 262 s pattern;
#X obj 83 140 select 0 1 2 3 4 5 6 7 8 9 10 11 12 13 14 15;
#X obj 83 18 inlet;
#X obj 83 118 f;
#X obj 110 117 + 1;
#X obj 140 117 mod 16;
#X obj 83 61 t b b;
#X obj 83 40 metro 200;
#X msg 258 198 hh 90;
#X obj 110 82 del 95;
#X connect 0 0 8 0;
#X connect 1 0 8 0;
#X connect 2 0 8 0;
#X connect 3 0 8 0;
#X connect 4 0 8 0;
#X connect 5 0 8 0;
#X connect 6 0 8 0;
#X connect 7 0 8 0;
#X connect 9 0 0 0;
#X connect 9 0 2 0;
#X connect 9 2 2 0;
#X connect 9 3 4 0;
#X connect 9 4 1 0;
#X connect 9 4 6 0;
#X connect 9 6 0 0;
#X connect 9 6 16 0;
#X connect 9 8 2 0;
#X connect 9 10 2 0;
#X connect 9 11 5 0;
#X connect 9 12 1 0;
#X connect 9 12 6 0;
#X connect 9 13 16 0;
#X connect 9 14 0 0;
#X connect 9 15 2 0;
#X connect 9 15 7 0;
#X connect 10 0 15 0;
#X connect 11 0 12 0;
#X connect 11 0 9 0;
#X connect 12 0 13 0;
#X connect 13 0 11 1;
#X connect 14 0 11 0;
#X connect 14 1 17 0;
#X connect 15 0 14 0;
#X connect 16 0 8 0;
#X connect 17 0 11 0;
#X restore 30 51 pd pattern;
#X obj 35 101 r pattern;
#X obj 61 188 soundoutput;
#X connect 0 0 10 0;
#X connect 1 0 12 0;
#X connect 1 0 12 1;
#X connect 2 0 1 0;
#X connect 3 0 1 0;
#X connect 4 0 1 0;
#X connect 5 0 1 0;
#X connect 6 0 1 0;
#X connect 7 0 1 0;
#X connect 8 0 1 0;
#X connect 9 0 1 0;
#X connect 11 0 1 0;
