#N canvas 8 0 800 516 10;
#X obj 152 280 +~;
#X obj 172 352 *~;
#X obj 189 325 vline~;
#X obj 166 199 +~;
#X obj 152 300 osc~;
#X obj 167 239 +~;
#X obj 183 219 osc~ 1434;
#X obj 182 177 osc~ 583;
#X obj 166 157 osc~ 8263;
#X obj 237 88 inlet trigger;
#X obj 222 447 outlet~;
#X obj 222 423 *~;
#X obj 252 147 / 127;
#X obj 397 229 switch~;
#X msg 397 204 1;
#X msg 334 226 0;
#X obj 252 170 t f f;
#X obj 237 259 f 10;
#X msg 189 303 1 \, 0 \$1 1;
#X obj 334 204 del 1000;
#X obj 279 216 * 500;
#X obj 279 193 pow 4;
#X obj 151 137 sig~ 7467;
#X obj 171 373 hip~ 800;
#X obj 171 394 hip~ 800;
#X obj 252 398 + 1000;
#X obj 253 348 pow 0.9;
#X obj 168 259 *~;
#X obj 253 373 * 5000;
#X msg 309 -94 3259.84 4368.19 2749.61 2984.88;
#X msg 309 -71 295.276 2864.88 2402.83 3725.67;
#X msg 307 -49 4435.75 560.787 1201.89 2739.21;
#X msg 308 -28 6000 5474.17 1154.65 4865.2;
#X msg 310 -6 4629.92 4718.27 2619.21 4345.51;
#X msg 309 16 4616.69 4718.27 2477.48 4345.51;
#X obj 309 -124 sel 0 1 2 3 4 5 6;
#X msg 308 39 4427.72 4833.07 2477.48 3815.43;
#X obj 151 62 unpack f f f f;
#X obj 309 -146 inlet select type;
#X obj 437 -123 loadbang;
#X obj 237 119 t b b f b b;
#X obj 279 237 t f f;
#X obj 298 371 * 0.13;
#X text 268 424 efficient fm hihat \, ajf 2009;
#X connect 0 0 4 0;
#X connect 1 0 23 0;
#X connect 2 0 1 1;
#X connect 3 0 5 0;
#X connect 4 0 1 0;
#X connect 5 0 27 0;
#X connect 6 0 5 1;
#X connect 7 0 3 1;
#X connect 8 0 3 0;
#X connect 9 0 40 0;
#X connect 11 0 10 0;
#X connect 12 0 16 0;
#X connect 14 0 13 0;
#X connect 15 0 13 0;
#X connect 16 0 26 0;
#X connect 16 1 21 0;
#X connect 17 0 18 0;
#X connect 18 0 2 0;
#X connect 19 0 15 0;
#X connect 20 0 41 0;
#X connect 21 0 20 0;
#X connect 22 0 0 0;
#X connect 23 0 24 0;
#X connect 24 0 11 0;
#X connect 25 0 27 1;
#X connect 26 0 28 0;
#X connect 26 0 42 0;
#X connect 27 0 0 1;
#X connect 28 0 25 0;
#X connect 29 0 37 0;
#X connect 30 0 37 0;
#X connect 31 0 37 0;
#X connect 32 0 37 0;
#X connect 33 0 37 0;
#X connect 34 0 37 0;
#X connect 35 0 29 0;
#X connect 35 1 30 0;
#X connect 35 2 31 0;
#X connect 35 3 32 0;
#X connect 35 4 33 0;
#X connect 35 5 34 0;
#X connect 35 6 36 0;
#X connect 36 0 37 0;
#X connect 37 0 22 0;
#X connect 37 1 8 0;
#X connect 37 2 7 0;
#X connect 37 3 6 0;
#X connect 38 0 35 0;
#X connect 39 0 29 0;
#X connect 40 0 17 0;
#X connect 40 1 19 0;
#X connect 40 2 12 0;
#X connect 40 4 14 0;
#X connect 41 0 17 1;
#X connect 41 1 19 1;
#X connect 42 0 11 1;
