#N canvas 0 0 800 516 10;
#X obj 252 362 osc~;
#X obj 250 218 osc~ 200;
#X obj 252 385 *~;
#X obj 324 131 vline~;
#X obj 324 157 *~;
#X obj 324 180 *~;
#X obj 323 209 *~;
#X obj 323 232 *~;
#X obj 309 255 +~;
#X msg 272 179 0;
#X obj 266 278 +~ 50;
#X obj 251 297 *~;
#X obj 267 256 *~ 100;
#X obj 336 282 +~ 600;
#X obj 252 339 +~;
#X obj 336 259 *~ 10;
#X msg 324 110 1 1 0 \, 0 600 1;
#X obj 285 0 inlet trigger;
#X obj 253 465 outlet~;
#X obj 253 441 *~;
#X obj 299 366 / 127;
#X obj 445 83 switch~;
#X msg 445 58 1;
#X obj 285 22 t b f b b b;
#X msg 396 81 0;
#X obj 396 59 del 600;
#X text 299 406 efficient cowbell \, ajf 2009;
#X obj 251 407 *~ 0.25;
#X connect 0 0 2 0;
#X connect 1 0 11 0;
#X connect 2 0 27 0;
#X connect 3 0 4 0;
#X connect 3 0 4 1;
#X connect 4 0 5 0;
#X connect 4 0 5 1;
#X connect 5 0 6 0;
#X connect 5 0 6 1;
#X connect 5 0 8 0;
#X connect 6 0 7 0;
#X connect 6 0 7 1;
#X connect 7 0 8 1;
#X connect 7 0 12 0;
#X connect 7 0 15 0;
#X connect 8 0 2 1;
#X connect 9 0 1 1;
#X connect 9 0 0 1;
#X connect 10 0 11 1;
#X connect 11 0 14 0;
#X connect 12 0 10 0;
#X connect 13 0 14 1;
#X connect 14 0 0 0;
#X connect 15 0 13 0;
#X connect 16 0 3 0;
#X connect 17 0 23 0;
#X connect 19 0 18 0;
#X connect 20 0 19 1;
#X connect 22 0 21 0;
#X connect 23 0 9 0;
#X connect 23 1 20 0;
#X connect 23 2 16 0;
#X connect 23 3 25 0;
#X connect 23 4 22 0;
#X connect 24 0 21 0;
#X connect 25 0 24 0;
#X connect 27 0 19 0;
