#N canvas 16 55 765 369 10;
#X obj 41 134 s_epkd;
#X obj 125 134 s_epsd;
#X obj 230 134 s_ephh;
#X text 38 187 kick drum;
#X text 123 189 snare drum;
#X text 228 189 hihat;
#X obj 389 136 s_epbh;
#X obj 457 135 s_epbl;
#X text 542 184 cowbell;
#X text 399 188 hibongo;
#X text 465 187 lobongo;
#X text 311 186 handclap;
#X obj 243 29 route kd sd hh cb hb lb hc rm;
#X obj 243 6 inlet;
#X obj 302 321 outlet~;
#X obj 41 230 *~;
#X obj 125 212 *~;
#X obj 230 231 *~;
#X obj 536 233 *~;
#X obj 75 230 r \$1-a-vol;
#X obj 159 212 r \$1-b-vol;
#X obj 263 231 r \$1-c-vol;
#X obj 381 233 *~;
#X obj 465 215 *~;
#X obj 314 208 *~;
#X obj 415 233 r \$1-e-vol;
#X obj 499 214 r \$1-f-vol;
#X floatatom 575 274 5 0 0 0 - - -;
#X obj 536 134 s_epcb;
#X obj 314 137 s_ephc;
#X obj 347 208 r \$1-d-vol;
#X obj 569 233 r \$1-g-vol;
#X connect 0 0 15 0;
#X connect 1 0 16 0;
#X connect 2 0 17 0;
#X connect 6 0 22 0;
#X connect 7 0 23 0;
#X connect 12 0 0 0;
#X connect 12 1 1 0;
#X connect 12 2 2 0;
#X connect 12 3 28 0;
#X connect 12 4 6 0;
#X connect 12 5 7 0;
#X connect 12 6 29 0;
#X connect 13 0 12 0;
#X connect 15 0 14 0;
#X connect 16 0 14 0;
#X connect 17 0 14 0;
#X connect 18 0 14 0;
#X connect 19 0 15 1;
#X connect 20 0 16 1;
#X connect 21 0 17 1;
#X connect 22 0 14 0;
#X connect 23 0 14 0;
#X connect 24 0 14 0;
#X connect 25 0 22 1;
#X connect 26 0 23 1;
#X connect 28 0 18 0;
#X connect 29 0 24 0;
#X connect 30 0 24 1;
#X connect 30 0 27 0;
#X connect 31 0 18 1;
