#N canvas 0 0 694 470 10;
#X obj 38 179 *~;
#X obj 218 217 *~;
#X obj 143 228 *~;
#X obj 156 139 *~;
#X obj 142 301 hip~ 400;
#X obj 156 108 vline~;
#X msg 298 83 0;
#X obj 142 255 *~;
#X obj 270 26 inlet trigger;
#X obj 271 362 outlet~;
#X obj 271 338 *~;
#X obj 318 295 / 127;
#X obj 430 109 switch~;
#X msg 430 84 1;
#X obj 270 57 t b f b b b;
#X msg 381 107 0;
#X obj 142 277 *~ 0.4;
#X obj 381 85 del 120;
#X msg 156 85 1 1 \, 0 120 2;
#X obj 39 133 osc~ 97;
#X obj 53 153 osc~ 385;
#X obj 218 178 osc~ 158;
#X obj 234 196 osc~ 112;
#X text 308 336 efficient low bongo \, ajf 2009;
#X connect 0 0 7 0;
#X connect 0 0 2 0;
#X connect 1 0 7 0;
#X connect 1 0 2 1;
#X connect 2 0 7 0;
#X connect 3 0 7 1;
#X connect 4 0 10 0;
#X connect 5 0 3 0;
#X connect 5 0 3 1;
#X connect 6 0 19 1;
#X connect 6 0 20 1;
#X connect 6 0 21 1;
#X connect 6 0 22 1;
#X connect 7 0 16 0;
#X connect 8 0 14 0;
#X connect 10 0 9 0;
#X connect 11 0 10 1;
#X connect 13 0 12 0;
#X connect 14 0 18 0;
#X connect 14 1 11 0;
#X connect 14 2 6 0;
#X connect 14 3 17 0;
#X connect 14 4 13 0;
#X connect 15 0 12 0;
#X connect 16 0 4 0;
#X connect 17 0 15 0;
#X connect 18 0 5 0;
#X connect 19 0 0 0;
#X connect 20 0 0 1;
#X connect 21 0 1 0;
#X connect 22 0 1 1;
