#N canvas 15 0 427 490 10;
#X obj 199 101 vline~;
#X obj 131 237 cos~;
#X obj 218 139 *~;
#X obj 199 18 inlet trigger;
#X obj 61 448 outlet~;
#X obj 215 204 / 127;
#X obj 316 102 switch~;
#X msg 316 77 1;
#X obj 199 49 t b f b b b;
#X obj 267 78 del 71;
#X msg 267 100 0;
#X obj 61 425 *~;
#X msg 199 79 1 \, 0 70 0;
#X obj 257 200 noise~;
#X obj 61 401 *~;
#X obj 147 307 *~;
#X obj 57 238 cos~;
#X obj 58 212 -~ 0.25;
#X obj 102 68 sig~ 1;
#X obj 131 213 -~ 0.25;
#X obj 85 369 *~;
#X obj 86 344 -~;
#X obj 85 276 *~;
#X obj 147 263 max~ 0;
#X obj 103 90 -~;
#X obj 102 112 -~;
#X obj 144 138 *~ 0.2;
#X obj 58 188 *~ 13;
#X obj 129 189 *~ 17;
#X text 126 363 ring modulation snare 606 style \, ajf 2009;
#X obj 257 220 *~ 4;
#X obj 257 242 rzero~ 0.9;
#X obj 258 264 clip~ -0.7 0.7;
#X connect 0 0 2 0;
#X connect 0 0 2 1;
#X connect 0 0 24 1;
#X connect 1 0 22 1;
#X connect 1 0 21 1;
#X connect 1 0 14 0;
#X connect 1 0 23 0;
#X connect 2 0 14 1;
#X connect 2 0 26 0;
#X connect 3 0 8 0;
#X connect 5 0 11 1;
#X connect 7 0 6 0;
#X connect 8 0 12 0;
#X connect 8 1 5 0;
#X connect 8 2 9 0;
#X connect 8 3 7 0;
#X connect 9 0 10 0;
#X connect 10 0 6 0;
#X connect 11 0 4 0;
#X connect 12 0 0 0;
#X connect 13 0 30 0;
#X connect 14 0 11 0;
#X connect 15 0 14 0;
#X connect 16 0 22 0;
#X connect 16 0 21 1;
#X connect 16 0 14 0;
#X connect 17 0 16 0;
#X connect 18 0 24 0;
#X connect 19 0 1 0;
#X connect 20 0 14 0;
#X connect 21 0 20 0;
#X connect 22 0 21 0;
#X connect 23 0 15 0;
#X connect 24 0 25 0;
#X connect 25 0 20 1;
#X connect 25 0 27 0;
#X connect 25 0 28 0;
#X connect 26 0 25 1;
#X connect 27 0 17 0;
#X connect 28 0 19 0;
#X connect 30 0 31 0;
#X connect 31 0 32 0;
#X connect 32 0 15 1;
