#N canvas 298 50 579 572 10;
#X obj 159 -46 + 1;
#X obj 109 -164 bng 15 250 50 0 empty empty empty 17 7 0 10 -262144
-1 -1;
#X obj 108 154 list prepend;
#X obj 108 200 list trim;
#X obj 252 99 f;
#X obj 280 99 + 1;
#X obj 108 -14 t f f f;
#X obj 252 141 num2let;
#X obj 252 161 symbol;
#X obj 189 128 mod 32;
#X obj 108 177 list prepend;
#X obj 139 -160 inlet;
#X obj 82 346 s a;
#X obj 110 346 s b;
#X obj 138 346 s c;
#X obj 166 346 s d;
#X obj 194 346 s e;
#X obj 222 346 s f;
#X obj 250 346 s g;
#X obj 252 36 mod 32;
#X obj 128 -46 f;
#X obj 21 -163 r savetable;
#X msg 175 -80 0;
#X obj 128 -79 until;
#X floatatom 279 123 5 0 0 0 - - -;
#X obj 252 79 sel 0;
#X floatatom 265 56 5 0 0 0 - - -;
#X msg 331 35 0;
#X obj 189 104 + 2;
#X obj 108 294 route a b c d e f g;
#X obj 108 -141 t b b b b b;
#X msg 278 -76 \; clear-bang 0;
#X obj 108 77 tabread pattern-l;
#X obj 275 7 + 1;
#X obj 244 7 f;
#X msg 291 -27 0;
#X obj 244 -26 until;
#X msg 244 -55 224;
#X obj 333 95 moses 32;
#X obj 349 116 moses 64;
#X obj 361 137 moses 96;
#X obj 413 69 + 1;
#X obj 382 69 f;
#X msg 429 35 0;
#X obj 382 36 until;
#X msg 382 7 224;
#X msg 128 -108 224;
#X obj 252 182 u_cocollect;
#X msg 252 203 a \, b \, c \, d \, e \, f \, g \,;
#X connect 0 0 20 1;
#X connect 1 0 30 0;
#X connect 2 0 10 0;
#X connect 3 0 29 0;
#X connect 4 0 5 0;
#X connect 4 0 7 0;
#X connect 4 0 24 0;
#X connect 5 0 4 1;
#X connect 6 0 19 0;
#X connect 6 1 28 0;
#X connect 6 2 32 0;
#X connect 7 0 8 0;
#X connect 8 0 10 1;
#X connect 8 0 47 0;
#X connect 9 0 2 1;
#X connect 10 0 3 0;
#X connect 11 0 30 0;
#X connect 19 0 25 0;
#X connect 19 0 26 0;
#X connect 20 0 0 0;
#X connect 20 0 6 0;
#X connect 21 0 30 0;
#X connect 22 0 20 1;
#X connect 23 0 20 0;
#X connect 25 0 4 0;
#X connect 27 0 4 1;
#X connect 27 0 4 0;
#X connect 28 0 9 0;
#X connect 29 0 12 0;
#X connect 29 1 13 0;
#X connect 29 2 14 0;
#X connect 29 3 15 0;
#X connect 29 4 16 0;
#X connect 29 5 17 0;
#X connect 29 6 18 0;
#X connect 30 0 6 0;
#X connect 30 1 27 0;
#X connect 30 2 46 0;
#X connect 30 3 22 0;
#X connect 30 4 27 0;
#X connect 32 0 2 0;
#X connect 33 0 34 1;
#X connect 34 0 33 0;
#X connect 34 0 19 0;
#X connect 35 0 34 1;
#X connect 36 0 34 0;
#X connect 37 0 36 0;
#X connect 38 1 39 0;
#X connect 39 1 40 0;
#X connect 41 0 42 1;
#X connect 42 0 41 0;
#X connect 42 0 38 0;
#X connect 43 0 42 1;
#X connect 44 0 42 0;
#X connect 45 0 44 0;
#X connect 46 0 23 0;
#X connect 47 0 48 0;
