#N canvas 724 46 324 194 10;
#X obj 100 100 tgl 20 0 empty empty empty 17 7 0 10 -1 -204786 -204786
1 1;
#X obj 100 57 r \$1-\$2;
#X obj 100 78 route \$3;
#X obj 100 126 s \$1\$2\$3-s;
#X obj 193 55 r \$2\$3\$1-clear;
#X connect 0 0 3 0;
#X connect 1 0 2 0;
#X connect 2 0 0 0;
#X connect 4 0 0 0;
#X coords 0 -1 1 1 20 20 2 100 100;
