#N canvas 486 102 333 354 10;
#X msg 52 164 1;
#X obj 52 143 t b b;
#X obj 52 229 readsf~ 1;
#X msg 84 187 open \$1;
#X obj 84 165 symbol;
#X obj 160 71 openpanel;
#X msg 160 94 filename \$1;
#X obj 160 116 route filename;
#X obj 160 138 symbol;
#X obj 160 49 bang;
#X obj 52 271 outlet~;
#X msg 121 123 1;
#X obj 52 122 spigot 0;
#X obj 52 250 *~;
#X obj 86 250 r \$1-vol;
#X obj 161 186 s \$1-close;
#X msg 161 163 0;
#X obj 160 27 r \$0-\$1-load;
#X obj 52 101 r \$1-bang;
#X connect 0 0 2 0;
#X connect 1 0 0 0;
#X connect 1 1 4 0;
#X connect 2 0 13 0;
#X connect 3 0 2 0;
#X connect 4 0 3 0;
#X connect 5 0 6 0;
#X connect 6 0 7 0;
#X connect 7 0 11 0;
#X connect 7 0 8 0;
#X connect 7 0 16 0;
#X connect 8 0 4 1;
#X connect 9 0 5 0;
#X connect 11 0 12 1;
#X connect 12 0 1 0;
#X connect 13 0 10 0;
#X connect 14 0 13 1;
#X connect 16 0 15 0;
