#N canvas 565 569 860 376 10;
#X obj 113 68 openpanel;
#X msg 145 147 open /Users/yulilevtov/Documents/RjDj/BZR/RJC-1000/resources/modules/rebel_sonix/rs_tilt_snares.rjm/sounds/Snare3.wav
;
#X obj 113 91 t b s;
#X msg 145 121 set open \$1;
#X obj 620 163 s_playtable;
#X obj 673 88 symbol \$2;
#X obj 620 59 t b b;
#X obj 620 113 pack f s;
#X obj 620 88 \$1;
#X msg 620 139 \$1-sample\$2;
#X obj 113 44 bang;
#X obj 620 210 outlet~;
#X obj 658 189 r \$1-\$2-vol;
#X obj 113 22 r \$1-\$2-load;
#X obj 620 35 spigot 0;
#X obj 32 157 s \$1-\$2-close;
#X msg 32 138 0;
#X msg 684 35 1;
#X obj 620 14 r \$1-\$2-bang;
#X obj 145 193 yuli_samplebank \$1-sample\$2;
#X obj 620 189 *~ 1;
#X connect 0 0 2 0;
#X connect 1 0 19 0;
#X connect 2 0 1 0;
#X connect 2 0 16 0;
#X connect 2 0 17 0;
#X connect 2 1 3 0;
#X connect 3 0 1 0;
#X connect 4 0 20 0;
#X connect 5 0 7 1;
#X connect 6 0 8 0;
#X connect 6 1 5 0;
#X connect 7 0 9 0;
#X connect 8 0 7 0;
#X connect 9 0 4 0;
#X connect 10 0 0 0;
#X connect 12 0 20 1;
#X connect 13 0 10 0;
#X connect 14 0 6 0;
#X connect 16 0 15 0;
#X connect 17 0 14 1;
#X connect 18 0 14 0;
#X connect 20 0 11 0;
