#N canvas 765 22 476 485 10;
#X declare -path ../rjlib;
#N canvas 0 22 335 361 piano-phase-1 0;
#X obj 70 252 mtof;
#X msg 42 132 4 6 11 13 14 6 4 13 11 6 14 13;
#X obj 42 162 list split;
#X obj 70 192 list split 1;
#X obj 72 72 + 1;
#X obj 42 72 f 0;
#X obj 112 72 mod 12;
#X obj 42 102 t b a;
#X obj 70 222 + 64;
#X obj 70 282 outlet;
#X obj 42 42 inlet;
#X connect 0 0 9 0;
#X connect 1 0 2 0;
#X connect 2 1 3 0;
#X connect 3 0 8 0;
#X connect 4 0 6 0;
#X connect 5 0 4 0;
#X connect 5 0 7 0;
#X connect 6 0 5 1;
#X connect 7 0 1 0;
#X connect 7 1 2 1;
#X connect 8 0 0 0;
#X connect 10 0 5 0;
#X restore 50 267 pd piano-phase-1;
#X obj 200 26 r #accelerate;
#X obj 200 56 unpack 0 0 0;
#X obj 50 237 metro 140;
#N canvas 0 22 335 361 piano-phase-2 0;
#X obj 70 252 mtof;
#X msg 42 132 4 6 11 13 14 6 4 13 11 6 14 13;
#X obj 42 162 list split;
#X obj 70 192 list split 1;
#X obj 72 72 + 1;
#X obj 42 72 f 0;
#X obj 112 72 mod 12;
#X obj 42 102 t b a;
#X obj 70 222 + 64;
#X obj 70 282 outlet;
#X obj 42 42 inlet;
#X connect 0 0 9 0;
#X connect 1 0 2 0;
#X connect 2 1 3 0;
#X connect 3 0 8 0;
#X connect 4 0 6 0;
#X connect 5 0 4 0;
#X connect 5 0 7 0;
#X connect 6 0 5 1;
#X connect 7 0 1 0;
#X connect 7 1 2 1;
#X connect 8 0 0 0;
#X connect 10 0 5 0;
#X restore 160 267 pd piano-phase-2;
#X obj 29 59 loadbang;
#X msg 50 93 \; pd dsp 1;
#X obj 29 29 declare -path ../rjlib;
#N canvas 0 22 254 341 4m-sinusblip 0;
#X obj 34 59 t b f;
#X obj 109 208 osc~;
#X obj 34 249 *~;
#X obj 34 29 inlet;
#X obj 34 279 outlet~;
#X obj 154 179 * 0.5;
#X obj 154 210 osc~;
#X obj 154 241 *~ 0.5;
#X obj 34 178 vline~;
#X obj 34 209 dbtorms~;
#X obj 34 119 pack f 500;
#X msg 34 149 \$1 1 0 \, 30 \$2 1;
#X obj 34 89 f 98;
#X connect 0 0 12 0;
#X connect 0 1 1 0;
#X connect 0 1 5 0;
#X connect 1 0 2 1;
#X connect 2 0 4 0;
#X connect 3 0 0 0;
#X connect 5 0 6 0;
#X connect 6 0 7 0;
#X connect 7 0 2 1;
#X connect 8 0 9 0;
#X connect 9 0 2 0;
#X connect 10 0 11 0;
#X connect 11 0 8 0;
#X connect 12 0 10 0;
#X restore 50 297 pd 4m-sinusblip;
#X obj 200 166 + 140;
#X obj 160 237 metro 140;
#X obj 280 166 + 140;
#X obj 162 361 *~ 0.1;
#X obj 48 361 *~ 0.1;
#N canvas 0 22 254 341 4m-sinusblip 0;
#X obj 34 59 t b f;
#X obj 109 208 osc~;
#X obj 34 249 *~;
#X obj 34 29 inlet;
#X obj 34 279 outlet~;
#X obj 154 210 osc~;
#X obj 34 178 vline~;
#X obj 34 209 dbtorms~;
#X obj 34 119 pack f 500;
#X msg 34 149 \$1 1 0 \, 30 \$2 1;
#X obj 34 89 f 98;
#X obj 154 179 * 0.5;
#X obj 154 241 *~ 0.4;
#X connect 0 0 10 0;
#X connect 0 1 1 0;
#X connect 0 1 11 0;
#X connect 1 0 2 1;
#X connect 2 0 4 0;
#X connect 3 0 0 0;
#X connect 5 0 12 0;
#X connect 6 0 7 0;
#X connect 7 0 2 0;
#X connect 8 0 9 0;
#X connect 9 0 6 0;
#X connect 10 0 8 0;
#X connect 11 0 5 0;
#X connect 12 0 2 1;
#X restore 160 295 pd 4m-sinusblip;
#X obj 50 197 del 1000;
#X obj 106 360 *~ 0.05;
#N canvas 0 22 215 176 lop 0;
#X obj 20 23 inlet;
#X obj 20 113 outlet;
#X obj 20 83 +;
#X obj 60 83 * 0.9;
#X obj 20 53 * 0.1;
#X connect 0 0 4 0;
#X connect 2 0 3 0;
#X connect 2 0 1 0;
#X connect 3 0 2 1;
#X connect 4 0 2 0;
#X restore 200 106 pd lop;
#N canvas 0 22 215 176 lop 0;
#X obj 20 23 inlet;
#X obj 20 113 outlet;
#X obj 20 83 +;
#X obj 60 83 * 0.9;
#X obj 20 53 * 0.1;
#X connect 0 0 4 0;
#X connect 2 0 3 0;
#X connect 2 0 1 0;
#X connect 3 0 2 1;
#X connect 4 0 2 0;
#X restore 280 106 pd lop;
#N canvas 0 22 215 176 lop 0;
#X obj 20 23 inlet;
#X obj 20 113 outlet;
#X obj 20 83 +;
#X obj 60 83 * 0.9;
#X obj 20 53 * 0.1;
#X connect 0 0 4 0;
#X connect 2 0 3 0;
#X connect 2 0 1 0;
#X connect 3 0 2 1;
#X connect 4 0 2 0;
#X restore 351 148 pd lop;
#X obj 351 91 r accelerate;
#X obj 351 61 accelerate;
#X obj 351 118 route magnitude;
#X obj 351 208 moses 1.5;
#X obj 312 331 line;
#X floatatom 276 207 5 0 0 0 - - -;
#X obj 280 136 * -20;
#X obj 200 136 * -20;
#X msg 312 308 88 \, 65 10000;
#X obj 233 358 rev3~ 90 65 6000 56;
#N canvas 0 22 215 176 lop 0;
#X obj 20 23 inlet;
#X obj 20 113 outlet;
#X obj 20 83 +;
#X obj 60 83 * 0.9;
#X obj 20 53 * 0.1;
#X connect 0 0 4 0;
#X connect 2 0 3 0;
#X connect 2 0 1 0;
#X connect 3 0 2 1;
#X connect 4 0 2 0;
#X restore 351 178 pd lop;
#X obj 177 433 soundoutput;
#X connect 0 0 8 0;
#X connect 1 0 2 0;
#X connect 2 0 17 0;
#X connect 2 1 18 0;
#X connect 3 0 0 0;
#X connect 4 0 14 0;
#X connect 5 0 6 0;
#X connect 5 0 15 0;
#X connect 8 0 13 0;
#X connect 8 0 16 0;
#X connect 8 0 29 0;
#X connect 9 0 3 1;
#X connect 10 0 4 0;
#X connect 11 0 10 1;
#X connect 11 0 25 0;
#X connect 12 0 31 1;
#X connect 13 0 31 0;
#X connect 14 0 12 0;
#X connect 14 0 16 0;
#X connect 14 0 29 1;
#X connect 15 0 3 0;
#X connect 15 0 10 0;
#X connect 16 0 31 0;
#X connect 16 0 31 1;
#X connect 17 0 27 0;
#X connect 18 0 26 0;
#X connect 19 0 30 0;
#X connect 20 0 22 0;
#X connect 22 0 19 0;
#X connect 23 1 28 0;
#X connect 24 0 29 3;
#X connect 26 0 11 0;
#X connect 27 0 9 0;
#X connect 28 0 24 0;
#X connect 29 0 31 0;
#X connect 29 1 31 1;
#X connect 30 0 23 0;
