#N canvas 145 87 1050 769 10;
#X obj 186 29 soundinput;
#X obj 171 210 liveloop del1 4000;
#X obj 469 122 sel 0 4 5;
#N canvas 577 102 773 556 analyse 0;
#X obj 180 351 bng 15 250 50 0 empty empty empty 17 7 0 10 -262144
-1 -1;
#X obj 259 354 bng 15 250 50 0 empty empty empty 17 7 0 10 -262144
-1 -1;
#X obj 348 347 bng 15 250 50 0 empty empty empty 17 7 0 10 -262144
-1 -1;
#X obj 52 30 inlet~;
#X obj 180 370 outlet;
#X obj 259 373 outlet;
#X obj 145 93 env~;
#X obj 232 92 env~;
#X obj 329 90 env~;
#X floatatom 328 111 5 0 0 0 - - -;
#X floatatom 232 115 5 0 0 0 - - -;
#X floatatom 149 120 5 0 0 0 - - -;
#X obj 147 213 -;
#X obj 149 185 t f f;
#X obj 226 209 -;
#X obj 223 183 t f f;
#X obj 317 211 -;
#X obj 319 183 t f f;
#X obj 347 307 change;
#X obj 348 326 sel 1;
#X obj 348 366 outlet;
#X obj 258 314 change;
#X obj 259 333 sel 1;
#X obj 178 310 change;
#X obj 179 329 sel 1;
#X obj 257 291 > 10;
#X obj 177 287 > 10;
#X obj 346 284 > 10;
#X obj 84 351 bng 15 250 50 0 empty empty empty 17 7 0 10 -262144 -1
-1;
#X obj 83 469 outlet;
#X obj 54 93 env~;
#X floatatom 55 119 5 0 0 0 - - -;
#X obj 50 197 -;
#X obj 52 169 t f f;
#X obj 82 309 change;
#X obj 83 328 sel 1;
#X obj 81 286 > 10;
#X floatatom 442 98 5 0 0 0 - - -;
#X obj 329 150 moses 40;
#X obj 229 150 moses 40;
#X obj 54 148 moses 40;
#X obj 149 145 moses 40;
#X obj 329 68 bp~ 4000 8;
#X obj 385 178 r threshold;
#X obj 155 417 vsl 15 128 0 127 0 0 empty empty empty 0 -9 0 10 -262144
-1 -1 4242 1;
#X obj 171 417 vsl 15 128 0 127 0 0 empty empty empty 0 -9 0 10 -262144
-1 -1 4463 1;
#X obj 187 417 vsl 15 128 0 127 0 0 empty empty empty 0 -9 0 10 -262144
-1 -1 4321 1;
#X obj 203 417 vsl 15 128 0 127 0 0 empty empty empty 0 -9 0 10 -262144
-1 -1 4408 1;
#X obj 54 74 bp~ 500 8;
#X obj 145 74 bp~ 1000 8;
#X obj 232 73 bp~ 2000 8;
#X msg 84 376 lowattack bang;
#X msg 263 417 mid2attack bang;
#X msg 365 392 highattackbang;
#X msg 148 394 mid1attack bang;
#X obj 51 217 moses 20;
#X obj 151 246 moses 20;
#X obj 247 249 moses 20;
#X obj 325 248 moses 20;
#X connect 0 0 4 0;
#X connect 0 0 54 0;
#X connect 1 0 5 0;
#X connect 1 0 52 0;
#X connect 2 0 20 0;
#X connect 2 0 53 0;
#X connect 3 0 42 0;
#X connect 3 0 48 0;
#X connect 3 0 49 0;
#X connect 3 0 50 0;
#X connect 6 0 11 0;
#X connect 7 0 10 0;
#X connect 8 0 9 0;
#X connect 9 0 38 0;
#X connect 9 0 47 0;
#X connect 10 0 39 0;
#X connect 10 0 46 0;
#X connect 11 0 41 0;
#X connect 11 0 45 0;
#X connect 12 0 56 0;
#X connect 13 0 12 1;
#X connect 13 1 12 0;
#X connect 14 0 57 0;
#X connect 15 0 14 1;
#X connect 15 1 14 0;
#X connect 16 0 58 0;
#X connect 17 0 16 1;
#X connect 17 1 16 0;
#X connect 18 0 19 0;
#X connect 19 0 2 0;
#X connect 21 0 22 0;
#X connect 22 0 1 0;
#X connect 23 0 24 0;
#X connect 24 0 0 0;
#X connect 25 0 21 0;
#X connect 26 0 23 0;
#X connect 27 0 18 0;
#X connect 28 0 51 0;
#X connect 30 0 31 0;
#X connect 31 0 40 0;
#X connect 31 0 44 0;
#X connect 32 0 55 0;
#X connect 33 0 32 1;
#X connect 33 1 32 0;
#X connect 34 0 35 0;
#X connect 35 0 28 0;
#X connect 36 0 34 0;
#X connect 37 0 38 1;
#X connect 37 0 39 1;
#X connect 37 0 40 1;
#X connect 37 0 41 1;
#X connect 38 1 17 0;
#X connect 39 1 15 0;
#X connect 40 1 33 0;
#X connect 41 1 13 0;
#X connect 42 0 8 0;
#X connect 43 0 27 1;
#X connect 43 0 25 1;
#X connect 43 0 26 1;
#X connect 43 0 36 1;
#X connect 48 0 30 0;
#X connect 49 0 6 0;
#X connect 50 0 7 0;
#X connect 51 0 29 0;
#X connect 52 0 29 0;
#X connect 53 0 29 0;
#X connect 54 0 29 0;
#X connect 55 0 36 0;
#X connect 56 0 26 0;
#X connect 57 0 25 0;
#X connect 58 0 27 0;
#X restore 186 61 pd analyse;
#X obj 320 210 liveloop del2 2000;
#X obj 216 383 sel 0 1 2 3 4 5 6 7;
#X obj 33 114 % 8;
#X obj 214 433 bd;
#X obj 35 67 metro 250;
#X obj 313 434 hh;
#X obj 34 45 loadbang;
#X obj 56 377 sel 0 1 2 3 4 5 6 7;
#X obj 57 356 spigot;
#X obj 97 331 tgl 15 0 empty empty empty 17 7 0 10 -262144 -1 -1 0
1;
#X obj 468 619 throw~ bus1;
#X obj 203 543 catch~ bus1;
#X obj 258 432 sn;
#X obj 217 361 spigot;
#X obj 221 340 tgl 15 0 empty empty empty 17 7 0 10 -262144 -1 -1 1
1;
#X msg 655 152 \; #transport play 1;
#X msg 251 184 500;
#X msg 402 187 250;
#X msg 654 115 \; input_soundfile \$1;
#X obj 654 94 openpanel;
#X msg 655 73 bang;
#X msg 652 38 \; input_live;
#X obj 259 478 fbdel 250 0.5;
#X obj 469 559 base;
#X msg 468 534 0;
#X msg 500 536 38;
#X msg 533 536 32;
#X obj 214 499 fbdel 250 0.1;
#X obj 313 455 fbdel 750 0.2;
#X obj 466 309 fbdel 10 0.8;
#X msg 545 267 250;
#X obj 467 513 sel 0 1;
#X obj 466 290 liveloop del3 2000;
#X msg 824 187 68;
#X msg 922 188 80;
#X obj 825 210 mtof;
#X msg 858 188 71;
#X obj 824 164 sel 0 1 2 3 4 5 6;
#X obj 825 107 tgl 15 0 empty empty empty 17 7 0 10 -262144 -1 -1 0
1;
#X obj 825 125 metro 250;
#X obj 826 310 *~;
#X obj 880 265 vline~;
#X obj 851 292 *~;
#X msg 881 245 1 10 \, 0 200 10;
#X msg 891 188 75;
#X obj 825 245 phasor~;
#X obj 826 331 *~ 0.1;
#X obj 468 493 countevent 4;
#X obj 825 65 countevent 16;
#X obj 826 87 < 4;
#X obj 468 584 *~ 0.3;
#X obj 227 320 del 6000;
#X obj 824 145 random 9;
#X obj 34 91 countevent 16536;
#X obj 46 590 soundinput;
#X obj 171 188 soundinput;
#X obj 320 186 soundinput;
#X obj 466 247 soundinput;
#X obj 466 350 throw~ bus1;
#X obj 185 85 s analyse;
#X obj 91 305 aroute lowattack;
#X obj 220 299 aroute lowattack;
#X obj 469 471 aroute mid1attack;
#X obj 251 160 aroute hiattack;
#X obj 401 166 aroute mid2attack;
#X obj 826 45 aroute mid1attack;
#X obj 545 248 aroute lowattack;
#X obj 60 139 s heartbeat;
#X msg 471 80 bang;
#X obj 320 240 soundoutput;
#X obj 45 619 soundoutput;
#X obj 186 620 soundoutput;
#X obj 170 233 soundoutput;
#X obj 466 329 *~ 1;
#X obj 216 582 rev2~ 80 75 0 7000 90;
#X obj 289 56 r init;
#X msg 289 76 \; threshold 10;
#X obj 470 57 aroute mid1attack;
#X obj 470 99 random 6;
#X connect 0 0 3 0;
#X connect 0 1 3 0;
#X connect 1 0 76 0;
#X connect 2 0 1 2;
#X connect 2 1 4 2;
#X connect 2 2 36 2;
#X connect 3 0 63 0;
#X connect 4 0 73 1;
#X connect 5 0 7 0;
#X connect 5 1 16 0;
#X connect 5 3 7 0;
#X connect 5 4 7 0;
#X connect 5 5 16 0;
#X connect 5 6 9 0;
#X connect 5 7 16 0;
#X connect 6 0 12 0;
#X connect 6 0 17 0;
#X connect 6 0 71 0;
#X connect 7 0 31 0;
#X connect 8 0 57 0;
#X connect 9 0 32 0;
#X connect 10 0 8 0;
#X connect 11 0 9 0;
#X connect 11 2 9 0;
#X connect 11 4 9 0;
#X connect 11 5 16 0;
#X connect 11 6 9 0;
#X connect 11 7 9 0;
#X connect 11 8 9 0;
#X connect 12 0 11 0;
#X connect 13 0 12 1;
#X connect 15 0 75 0;
#X connect 15 0 75 1;
#X connect 15 0 78 0;
#X connect 16 0 26 0;
#X connect 17 0 5 0;
#X connect 18 0 17 1;
#X connect 20 0 1 1;
#X connect 21 0 4 1;
#X connect 23 0 22 0;
#X connect 24 0 23 0;
#X connect 26 0 14 0;
#X connect 27 0 54 0;
#X connect 28 0 27 0;
#X connect 29 0 27 0;
#X connect 30 0 27 0;
#X connect 31 0 14 0;
#X connect 32 0 14 0;
#X connect 33 0 77 0;
#X connect 34 0 36 1;
#X connect 35 0 29 0;
#X connect 35 1 30 0;
#X connect 35 2 28 0;
#X connect 36 0 33 0;
#X connect 37 0 39 0;
#X connect 38 0 39 0;
#X connect 39 0 47 0;
#X connect 39 0 49 0;
#X connect 40 0 39 0;
#X connect 41 0 37 0;
#X connect 41 1 40 0;
#X connect 41 2 48 0;
#X connect 41 3 37 0;
#X connect 41 4 48 0;
#X connect 41 6 38 0;
#X connect 42 0 43 0;
#X connect 43 0 56 0;
#X connect 44 0 50 0;
#X connect 45 0 46 0;
#X connect 45 0 46 1;
#X connect 46 0 44 1;
#X connect 47 0 45 0;
#X connect 48 0 39 0;
#X connect 49 0 44 0;
#X connect 50 0 32 0;
#X connect 51 0 35 0;
#X connect 52 0 53 0;
#X connect 53 0 42 0;
#X connect 54 0 14 0;
#X connect 55 0 18 0;
#X connect 56 0 41 0;
#X connect 57 0 6 0;
#X connect 58 0 74 0;
#X connect 58 1 74 1;
#X connect 59 0 1 0;
#X connect 60 0 4 0;
#X connect 61 0 36 0;
#X connect 61 1 36 0;
#X connect 64 0 13 0;
#X connect 65 0 55 0;
#X connect 65 0 18 0;
#X connect 66 0 51 0;
#X connect 67 0 20 0;
#X connect 68 0 21 0;
#X connect 69 0 52 0;
#X connect 70 0 34 0;
#X connect 72 0 82 0;
#X connect 77 0 62 0;
#X connect 78 0 75 0;
#X connect 78 1 75 1;
#X connect 79 0 80 0;
#X connect 81 0 72 0;
#X connect 82 0 2 0;
