#N canvas 698 303 616 294 10;
#X obj 180 122 osc~;
#X obj 293 127 osc~;
#X obj 179 147 clip~ -0.7 0.7;
#X obj 293 149 clip~ -0.7 0.7;
#X obj 182 259 outlet~;
#X obj 157 14 inlet;
#X obj 207 74 mtof;
#X obj 182 222 *~;
#X obj 112 136 line~;
#X msg 124 101 1 100;
#X msg 79 102 0 400;
#X floatatom 230 117 5 0 0 0 - - -;
#X obj 159 41 moses 1;
#X obj 294 104 * 1.007;
#X obj 407 126 osc~;
#X obj 407 148 clip~ -0.7 0.7;
#X obj 408 103 * 1.003;
#X connect 0 0 2 0;
#X connect 1 0 3 0;
#X connect 2 0 7 0;
#X connect 3 0 7 0;
#X connect 5 0 12 0;
#X connect 6 0 0 0;
#X connect 6 0 11 0;
#X connect 6 0 13 0;
#X connect 7 0 4 0;
#X connect 8 0 7 1;
#X connect 9 0 8 0;
#X connect 10 0 8 0;
#X connect 12 0 10 0;
#X connect 12 1 6 0;
#X connect 12 1 9 0;
#X connect 13 0 1 0;
#X connect 13 0 16 0;
#X connect 14 0 15 0;
#X connect 15 0 7 0;
#X connect 16 0 14 0;
