#N canvas 710 378 450 300 10;
#X obj 73 33 inlet~;
#X obj 77 243 outlet~;
#X obj 112 177 delwrite~ \$0-del 1000;
#X obj 143 144 *~ \$2;
#X obj 146 34 inlet;
#X obj 143 116 delread~ \$0-del \$1;
#X obj 146 57 route delay feedback on;
#X obj 108 206 *~ 1;
#X connect 0 0 2 0;
#X connect 0 0 1 0;
#X connect 3 0 2 0;
#X connect 3 0 7 0;
#X connect 4 0 6 0;
#X connect 5 0 3 0;
#X connect 6 0 5 0;
#X connect 6 1 3 1;
#X connect 6 2 7 1;
#X connect 7 0 1 0;
