#N canvas 0 22 450 300 10;
#X obj 104 148 *~;
#X obj 180 152 *~;
#X obj 220 97 vline~;
#X obj 122 123 vline~;
#X obj 105 38 inlet~;
#X obj 198 40 inlet;
#X obj 105 239 outlet~;
#X obj 180 123 delread~ \$1 \$2;
#X obj 180 184 delwrite~ \$1 \$2;
#X obj 331 31 inlet;
#X obj 330 52 float \$2;
#X msg 328 75 0 20 \, 1 20 \$1;
#X msg 218 74 0 5 \, 1 5 \$1;
#X msg 122 96 1 20 \, 0 20 \$1;
#X connect 0 0 6 0;
#X connect 0 0 8 0;
#X connect 1 0 8 0;
#X connect 2 0 1 1;
#X connect 3 0 0 1;
#X connect 4 0 0 0;
#X connect 5 0 13 0;
#X connect 5 0 12 0;
#X connect 7 0 1 0;
#X connect 7 0 6 0;
#X connect 9 0 10 0;
#X connect 10 0 11 0;
#X connect 11 0 2 0;
#X connect 12 0 2 0;
#X connect 13 0 3 0;
