#N canvas 0 22 559 318 10;
#X obj 163 77 noise~;
#X obj 229 258 outlet~;
#X obj 163 129 *~ 0.3;
#X obj 171 194 *~;
#X obj 229 121 line~;
#X msg 231 83 1 \, 0 30;
#X obj 232 38 inlet;
#X connect 0 0 2 0;
#X connect 2 0 3 0;
#X connect 3 0 1 0;
#X connect 4 0 3 1;
#X connect 5 0 4 0;
#X connect 6 0 5 0;
