#N canvas 161 86 1010 292 10;
#X obj 417 106 list prepend send;
#X obj 417 126 list trim;
#X obj 417 84 spigot;
#X obj 9 114 list prepend connect;
#X obj 283 105 list trim;
#X text 7 5 listen for the UDP broadcast from the server;
#X obj 9 207 spigot;
#X text 304 41 Data to be sent to the server;
#X text 7 167 Data from the server;
#X obj 283 85 list append 10314;
#X obj 118 208 == 0;
#X obj 9 94 spigot 1;
#X obj 9 187 netreceive 10315;
#X obj 417 146 netsend;
#X obj 9 24 netreceive 10314 1;
#X obj 417 63 inlet;
#X obj 62 69 s \$0/udpmessages;
#X obj 259 239 r \$0/udpmessages;
#X obj 9 268 outlet message;
#X obj 9 47 route ip;
#X obj 259 259 outlet broadcast;
#X text 255 218 udp broadcast data from the server;
#X obj 9 135 s \$0/ip;
#X obj 283 63 r \$0/ip;
#X obj 815 127 list prepend send;
#X obj 815 147 list trim;
#X obj 815 75 spigot;
#X obj 685 97 list trim;
#X obj 815 54 inlet;
#X obj 685 55 r \$0/ip;
#X text 682 33 UDP to be sent to the server;
#X obj 815 167 netsend 1;
#X obj 685 77 list append 10316;
#X obj 9 228 t a a;
#X obj 41 248 s \$0/message;
#X obj 815 102 list prepend;
#X obj 896 33 r \$0/message;
#X obj 896 54 route server;
#X obj 896 75 route id;
#X text 500 182 receive socket (server) has disconnected;
#X msg 503 243 disconnect;
#X obj 147 24 r \$0/disconnected;
#X obj 118 228 s \$0/disconnected;
#X obj 503 199 r \$0/disconnected;
#X obj 503 221 sel 1;
#X obj 506 70 r \$0/dodisconnect;
#X obj 763 12 r \$0/dodisconnect;
#X obj 503 264 s \$0/dodisconnect;
#X obj 755 219 r \$0/disconnected;
#X obj 755 239 == 0;
#X obj 755 259 outlet;
#X connect 0 0 1 0;
#X connect 1 0 13 0;
#X connect 2 0 0 0;
#X connect 3 0 22 0;
#X connect 4 0 13 0;
#X connect 6 0 33 0;
#X connect 9 0 4 0;
#X connect 10 0 42 0;
#X connect 11 0 3 0;
#X connect 12 0 6 0;
#X connect 12 1 6 1;
#X connect 12 1 10 0;
#X connect 13 0 2 1;
#X connect 14 0 19 0;
#X connect 15 0 2 0;
#X connect 17 0 20 0;
#X connect 19 0 11 0;
#X connect 19 1 16 0;
#X connect 23 0 9 0;
#X connect 24 0 25 0;
#X connect 25 0 31 0;
#X connect 26 0 35 0;
#X connect 27 0 31 0;
#X connect 28 0 26 0;
#X connect 29 0 32 0;
#X connect 31 0 26 1;
#X connect 32 0 27 0;
#X connect 33 0 18 0;
#X connect 33 1 34 0;
#X connect 35 0 24 0;
#X connect 36 0 37 0;
#X connect 37 0 38 0;
#X connect 38 0 35 1;
#X connect 40 0 47 0;
#X connect 41 0 11 1;
#X connect 43 0 44 0;
#X connect 44 0 40 0;
#X connect 45 0 13 0;
#X connect 46 0 31 0;
#X connect 48 0 49 0;
#X connect 49 0 50 0;
