#N canvas 759 80 449 583 10;
#X msg 48 280 this is my test \, oh yeah \;;
#X obj 48 389 print message;
#X obj 150 389 print server-udp-broadcast;
#X msg 101 305 udp message \;;
#X obj -3 151 metro;
#X obj -3 65 tgl 15 0 empty empty empty 17 7 0 10 -262144 -1 -1 1 1
;
#X text 20 65 <- go;
#X obj 29 105 random 100;
#X obj 29 129 + 100;
#X obj -3 173 f;
#X obj 28 173 + 1;
#X msg -3 221 tick \$1;
#X obj 48 334 lanparty;
#X obj -3 84 t f b;
#X obj -3 -15 loadbang;
#X obj -3 7 delay 10000;
#X msg -3 29 1;
#X connect 0 0 12 0;
#X connect 3 0 12 1;
#X connect 4 0 9 0;
#X connect 5 0 13 0;
#X connect 7 0 8 0;
#X connect 8 0 4 1;
#X connect 9 0 10 0;
#X connect 9 0 11 0;
#X connect 10 0 9 1;
#X connect 11 0 12 0;
#X connect 12 0 1 0;
#X connect 12 1 2 0;
#X connect 13 0 4 0;
#X connect 13 1 7 0;
#X connect 14 0 15 0;
#X connect 15 0 16 0;
#X connect 16 0 5 0;
