#N canvas 44 22 606 481 10;
#X obj 504 318 * 0.01;
#X obj 407 318 makesymbol %s;
#X obj 204 219 sel 0 1 2;
#X obj 156 338 * 0.01;
#X msg 204 239 draw fill;
#X obj 436 148 sel 0 1 2;
#X msg 436 168 symbol fill;
#X obj 28 173 r gemmm;
#X obj 28 71 r~ 1-nothing;
#X obj 128 71 r~ 1-nothing;
#X obj 128 51 r \$1-\$2R-r;
#X obj 128 91 s~ \$1-\$2R;
#X obj 28 91 s~ \$1-\$2L;
#X obj 28 51 r \$1-\$2L-r;
#X obj 28 193 route \$3;
#X obj 28 323 circle;
#X obj 398 62 sel 0 1 2;
#X msg 398 82 symbol circle;
#X msg 436 122 symbol square;
#X obj 50 263 spigot;
#X obj 72 283 spigot;
#X obj 65 223 == 0;
#X obj 87 243 == 1;
#X obj 109 263 == 2;
#X obj 128 290 t a;
#X obj 50 353 triangle;
#X obj 72 383 square;
#X msg 417 102 symbol triangle;
#X obj 28 243 spigot;
#X msg 223 259 draw point;
#X msg 242 279 draw line;
#X msg 455 188 symbol point;
#X msg 474 208 symbol line;
#X obj 126 143 t a;
#X obj 28 21 mmm-module \$1 \$2 2d_objects 3;
#X obj 126 123 mmm-ctrl \$1 \$2 1 object 0 2 0 ext;
#X obj 156 318 mmm-ctrl \$1 \$2 2 size 0 800 100 ext;
#X obj 204 199 mmm-ctrl \$1 \$2 3 draw 0 2 0 ext;
#X msg 285 21 version 0.3.2;
#X connect 0 0 1 0;
#X connect 1 0 36 1;
#X connect 2 0 4 0;
#X connect 2 1 29 0;
#X connect 2 2 30 0;
#X connect 3 0 15 1;
#X connect 3 0 25 1;
#X connect 3 0 26 1;
#X connect 4 0 24 0;
#X connect 5 0 6 0;
#X connect 5 1 31 0;
#X connect 5 2 32 0;
#X connect 6 0 37 1;
#X connect 7 0 14 0;
#X connect 8 0 12 0;
#X connect 9 0 11 0;
#X connect 10 0 9 0;
#X connect 13 0 8 0;
#X connect 14 0 19 0;
#X connect 14 0 20 0;
#X connect 14 0 28 0;
#X connect 16 0 17 0;
#X connect 16 1 27 0;
#X connect 16 2 18 0;
#X connect 17 0 35 1;
#X connect 18 0 35 1;
#X connect 19 0 25 0;
#X connect 20 0 26 0;
#X connect 21 0 28 1;
#X connect 22 0 19 1;
#X connect 23 0 20 1;
#X connect 24 0 15 0;
#X connect 24 0 25 0;
#X connect 24 0 26 0;
#X connect 27 0 35 1;
#X connect 28 0 15 0;
#X connect 29 0 24 0;
#X connect 30 0 24 0;
#X connect 31 0 37 1;
#X connect 32 0 37 1;
#X connect 33 0 21 0;
#X connect 33 0 22 0;
#X connect 33 0 23 0;
#X connect 35 0 33 0;
#X connect 35 1 33 0;
#X connect 35 2 16 0;
#X connect 36 0 3 0;
#X connect 36 2 0 0;
#X connect 37 0 2 0;
#X connect 37 2 5 0;
