#N canvas 294 113 401 464 10;
#X obj 28 281 r~ 1-nothing;
#X obj 216 281 r~ 1-nothing;
#X obj 28 390 *~;
#X obj 116 330 sgn~;
#X obj 28 370 /~;
#N canvas 476 243 215 177 s2sLeft~ 0;
#X obj 18 126 outlet~;
#X obj 18 86 *~;
#X obj 18 106 +~;
#X obj 85 16 inlet~;
#X obj 137 16 inlet~;
#X obj 18 46 sig~ 1;
#X obj 18 66 -~;
#X obj 137 75 *~;
#X obj 34 16 inlet~;
#X connect 1 0 2 0;
#X connect 2 0 0 0;
#X connect 3 0 1 1;
#X connect 4 0 7 0;
#X connect 5 0 6 0;
#X connect 6 0 1 0;
#X connect 7 0 2 1;
#X connect 8 0 6 1;
#X connect 8 0 7 1;
#X restore 44 350 pd s2sLeft~;
#X obj 216 391 *~;
#X obj 311 331 sgn~;
#X obj 216 371 /~;
#N canvas 772 254 206 170 s2sRight~ 0;
#X obj 18 124 outlet~;
#X obj 18 84 *~;
#X obj 18 104 +~;
#X obj 86 16 inlet~;
#X obj 138 16 inlet~;
#X obj 18 44 sig~ 1;
#X obj 18 64 -~;
#X obj 138 73 *~;
#X obj 34 16 inlet~;
#X connect 1 0 2 0;
#X connect 2 0 0 0;
#X connect 3 0 1 1;
#X connect 4 0 7 0;
#X connect 5 0 6 0;
#X connect 6 0 1 0;
#X connect 7 0 2 1;
#X connect 8 0 6 1;
#X connect 8 0 7 1;
#X restore 232 351 pd s2sRight~;
#X obj 38 121 * -1;
#X obj 118 271 + 101;
#X obj 118 291 * 0.01;
#X obj 118 191 -;
#X obj 118 211 min 1;
#X obj 168 211 min 1;
#X obj 118 141 + 1;
#X obj 118 121 * 0.01;
#X obj 118 251 *;
#X obj 168 251 *;
#X obj 38 211 t b f;
#X obj 168 271 + 101;
#X obj 168 291 * 0.01;
#X obj 44 330 line~;
#X msg 44 310 \$1 20;
#X obj 232 331 line~;
#X msg 232 311 \$1 20;
#X obj 28 261 r \$1-\$2L-r;
#X obj 216 261 r \$1-\$2R-r;
#X obj 216 421 s~ \$1-\$2R;
#X obj 28 421 s~ \$1-\$2L;
#X msg 118 171 2 \$1;
#X obj 28 21 mmm-module \$1 \$2 2rect 2;
#X obj 27 51 mmm-ctrl \$1 \$2 1 2rect 1 100 1 int;
#X obj 118 91 mmm-ctrl \$1 \$2 2 pan -100 100 0 int;
#X msg 255 21 version 0.3.4;
#X connect 0 0 3 0;
#X connect 0 0 5 1;
#X connect 0 0 4 0;
#X connect 1 0 7 0;
#X connect 1 0 9 1;
#X connect 1 0 8 0;
#X connect 2 0 30 0;
#X connect 3 0 2 1;
#X connect 3 0 5 2;
#X connect 4 0 2 0;
#X connect 5 0 4 1;
#X connect 6 0 29 0;
#X connect 7 0 6 1;
#X connect 7 0 9 2;
#X connect 8 0 6 0;
#X connect 9 0 8 1;
#X connect 10 0 20 0;
#X connect 11 0 12 0;
#X connect 12 0 24 0;
#X connect 13 0 14 0;
#X connect 14 0 18 0;
#X connect 15 0 19 0;
#X connect 16 0 15 0;
#X connect 16 0 31 0;
#X connect 17 0 16 0;
#X connect 18 0 11 0;
#X connect 19 0 21 0;
#X connect 20 0 18 0;
#X connect 20 0 19 0;
#X connect 20 1 18 1;
#X connect 20 1 19 1;
#X connect 21 0 22 0;
#X connect 22 0 26 0;
#X connect 23 0 5 0;
#X connect 24 0 23 0;
#X connect 25 0 9 0;
#X connect 26 0 25 0;
#X connect 27 0 0 0;
#X connect 28 0 1 0;
#X connect 31 0 13 0;
#X connect 33 0 10 0;
#X connect 34 0 17 0;
