#N canvas 294 22 754 564 10;
#X obj 301 237 pow 2;
#X obj 271 202 t a a;
#X obj 125 241 pow 2;
#X obj 95 201 t a a;
#X obj 129 474 biquad~;
#X obj 220 278 t b a;
#X obj 26 169 * 100;
#X obj 221 201 * 100;
#X obj 214 333 pack 0 0 0 0 1;
#X msg 214 353 \$1 \$2 \$5 \$3 \$4;
#X obj 125 261 * -1;
#X obj 343 247 t a a a;
#X obj 270 151 t b b a;
#N canvas 0 22 637 495 cosft 0;
#X obj 93 268 cos;
#X obj 93 223 / 44100;
#X obj 93 329 *;
#X obj 273 52 inlet;
#X obj 93 53 inlet;
#X text 93 30 Freq (z or r);
#X text 272 28 reson (z or r);
#X obj 93 358 outlet;
#X obj 137 196 samplerate~;
#X obj 93 144 f;
#X obj 273 97 t b a;
#X obj 93 174 t a b;
#X obj 93 246 * 6.28319;
#X obj 93 293 * 2;
#X text 260 199 Caclulates: 2r * cos(2 * pi * Freq * T);
#X connect 0 0 13 0;
#X connect 1 0 12 0;
#X connect 2 0 7 0;
#X connect 3 0 10 0;
#X connect 4 0 9 0;
#X connect 8 0 1 1;
#X connect 9 0 11 0;
#X connect 10 0 9 0;
#X connect 10 1 2 1;
#X connect 11 0 1 0;
#X connect 11 1 8 0;
#X connect 12 0 0 0;
#X connect 13 0 2 0;
#X restore 44 241 pd cosft;
#N canvas 268 243 633 491 cosft 0;
#X obj 93 268 cos;
#X obj 93 223 / 44100;
#X obj 93 329 *;
#X obj 273 52 inlet;
#X obj 93 53 inlet;
#X text 93 30 Freq (z or r);
#X text 272 28 reson (z or r);
#X obj 93 358 outlet;
#X obj 137 196 samplerate~;
#X obj 93 144 f;
#X obj 273 97 t b a;
#X obj 93 174 t a b;
#X obj 93 246 * 6.28319;
#X text 260 199 Caclulates: +2r * cos(2 * pi * Freq * T);
#X obj 93 293 * 2;
#X connect 0 0 14 0;
#X connect 1 0 12 0;
#X connect 2 0 7 0;
#X connect 3 0 10 0;
#X connect 4 0 9 0;
#X connect 8 0 1 1;
#X connect 9 0 11 0;
#X connect 10 0 9 0;
#X connect 10 1 2 1;
#X connect 11 0 1 0;
#X connect 11 1 8 0;
#X connect 12 0 0 0;
#X connect 14 0 2 0;
#X restore 220 238 pd cosft;
#X obj 220 258 * -1;
#X obj 301 297 * 1;
#X obj 250 298 * 1;
#X text 472 25 2-pole-2-zero-filter;
#X obj 98 404 r~ 1-nothing;
#X obj 288 404 r~ 1-nothing;
#X obj 98 384 r \$1-\$2L-r;
#X obj 288 384 r \$1-\$2R-r;
#X obj 288 494 s~ \$1-\$2R;
#X obj 98 494 s~ \$1-\$2L;
#X obj 319 474 biquad~;
#X obj 270 131 * 0.01;
#X obj 271 181 * 0.01;
#X obj 95 181 * 0.01;
#X obj 129 454 *~;
#X obj 319 454 *~;
#X obj 98 454 *~;
#X obj 288 454 *~;
#X obj 387 374 cos;
#X obj 433 374 sin;
#X obj 433 344 * 0.015708;
#X obj 433 414 line~;
#X obj 387 414 line~;
#X msg 434 394 \$1 100;
#X msg 387 394 \$1 100;
#X obj 394 314 mmm-ctrl \$1 \$2 1 dry-wet 0 100 100 int;
#X obj 203 17 mmm-ctrl \$1 \$2 6 gain 1 100 100 int;
#X obj 400 51 mmm-module \$1 \$2 2p2z-filter 6;
#X obj 22 71 mmm-ctrl \$1 \$2 2 freqpole 0 200 24 int;
#X obj 335 91 mmm-ctrl \$1 \$2 5 reszero 0 200 79 int;
#X obj 42 91 mmm-ctrl \$1 \$2 3 respole 0 100 30 int;
#X obj 106 111 mmm-ctrl \$1 \$2 4 freqzero 0 200 23 int;
#X msg 550 481 version 0.3.2;
#X connect 0 0 16 0;
#X connect 1 0 14 1;
#X connect 1 1 0 0;
#X connect 2 0 10 0;
#X connect 3 0 13 1;
#X connect 3 1 2 0;
#X connect 4 0 24 0;
#X connect 5 0 8 0;
#X connect 5 1 17 0;
#X connect 6 0 13 0;
#X connect 7 0 14 0;
#X connect 8 0 9 0;
#X connect 9 0 4 0;
#X connect 9 0 25 0;
#X connect 10 0 8 1;
#X connect 11 0 17 1;
#X connect 11 1 16 1;
#X connect 11 2 8 4;
#X connect 12 0 7 0;
#X connect 12 1 27 0;
#X connect 12 2 11 0;
#X connect 13 0 8 0;
#X connect 14 0 15 0;
#X connect 15 0 5 0;
#X connect 16 0 8 3;
#X connect 17 0 8 2;
#X connect 19 0 31 0;
#X connect 19 0 29 0;
#X connect 20 0 32 0;
#X connect 20 0 30 0;
#X connect 21 0 19 0;
#X connect 22 0 20 0;
#X connect 25 0 23 0;
#X connect 26 0 12 0;
#X connect 27 0 1 0;
#X connect 28 0 3 0;
#X connect 29 0 4 0;
#X connect 30 0 25 0;
#X connect 31 0 24 0;
#X connect 32 0 23 0;
#X connect 33 0 39 0;
#X connect 34 0 38 0;
#X connect 35 0 34 0;
#X connect 35 0 33 0;
#X connect 36 0 30 1;
#X connect 36 0 29 1;
#X connect 37 0 32 1;
#X connect 37 0 31 1;
#X connect 38 0 36 0;
#X connect 39 0 37 0;
#X connect 40 0 35 0;
#X connect 41 0 26 0;
#X connect 43 0 6 0;
#X connect 44 0 27 0;
#X connect 45 0 28 0;
#X connect 46 0 7 0;
