#N canvas 412 22 424 345 10;
#X obj 28 241 r~ 1-nothing;
#X obj 188 241 r~ 1-nothing;
#X obj 28 221 r \$1-\$2L-r;
#X obj 188 221 r \$1-\$2R-r;
#X obj 188 301 s~ \$1-\$2R;
#X obj 28 301 s~ \$1-\$2L;
#N canvas 401 243 448 396 output_mixer 0;
#X obj 169 11 inlet bass;
#X obj 245 11 inlet mids;
#X obj 321 11 inlet highs;
#X obj 22 357 outlet~;
#X obj 191 255 *~;
#X obj 221 255 *~;
#X obj 151 255 *~;
#X obj 22 318 *~;
#X obj 130 318 *~;
#N canvas 172 59 711 324 biquad~ 0;
#X obj 26 15 inlet~;
#X obj 26 255 outlet~;
#X obj 154 255 outlet~;
#X obj 296 255 outlet~;
#X obj 26 55 biquad~ 1.86972 -0.872325 0.000650245 0.00130049 0.000650245
;
#X obj 26 75 biquad~ 1.86972 -0.872325 0.000650245 0.00130049 0.000650245
;
#X obj 26 95 biquad~ 1.86972 -0.872325 0.000650245 0.00130049 0.000650245
;
#X obj 154 125 biquad~ 1.36591 -0.385279 0.307361 0 -0.307361;
#X obj 154 145 biquad~ 1.36591 -0.385279 0.307361 0 -0.307361;
#X obj 154 165 biquad~ 1.36591 -0.385279 0.307361 0 -0.307361;
#X obj 296 195 biquad~ 1.63386 -0.729864 0.840931 -1.68186 0.840931
;
#X obj 296 215 biquad~ 1.63386 -0.729864 0.840931 -1.68186 0.840931
;
#X connect 0 0 4 0;
#X connect 0 0 7 0;
#X connect 0 0 10 0;
#X connect 4 0 5 0;
#X connect 5 0 6 0;
#X connect 6 0 1 0;
#X connect 7 0 8 0;
#X connect 8 0 9 0;
#X connect 9 0 2 0;
#X connect 10 0 11 0;
#X connect 11 0 3 0;
#X restore 128 161 pd biquad~;
#X obj 22 11 inlet~;
#X obj 38 258 cos;
#X obj 88 258 sin;
#X obj 71 41 * 0.015708;
#X obj 38 298 line~;
#X msg 38 278 \$1 50;
#X obj 88 298 line~;
#X msg 88 278 \$1 50;
#X obj 71 11 inlet dry-wet;
#X connect 0 0 6 1;
#X connect 1 0 4 1;
#X connect 2 0 5 1;
#X connect 4 0 8 1;
#X connect 5 0 8 1;
#X connect 6 0 8 1;
#X connect 7 0 3 0;
#X connect 8 0 3 0;
#X connect 9 0 6 0;
#X connect 9 1 4 0;
#X connect 9 2 5 0;
#X connect 10 0 7 0;
#X connect 10 0 9 0;
#X connect 11 0 15 0;
#X connect 12 0 17 0;
#X connect 13 0 12 0;
#X connect 13 0 11 0;
#X connect 14 0 7 1;
#X connect 15 0 14 0;
#X connect 16 0 8 0;
#X connect 17 0 16 0;
#X connect 18 0 13 0;
#X restore 28 271 pd output_mixer;
#X obj 287 51 * 4;
#X obj 287 71 * 4;
#X obj 327 91 * 4;
#X obj 387 111 * 4;
#X obj 115 161 * 0.04;
#X obj 163 161 * 0.04;
#X obj 211 161 * 0.04;
#X obj 54 176 * 4;
#N canvas 401 243 448 396 output_mixer 0;
#X obj 169 11 inlet bass;
#X obj 245 11 inlet mids;
#X obj 321 11 inlet highs;
#X obj 22 357 outlet~;
#X obj 191 255 *~;
#X obj 221 255 *~;
#X obj 151 255 *~;
#X obj 22 318 *~;
#X obj 130 318 *~;
#N canvas 172 59 711 324 biquad~ 0;
#X obj 26 15 inlet~;
#X obj 26 255 outlet~;
#X obj 154 255 outlet~;
#X obj 296 255 outlet~;
#X obj 26 55 biquad~ 1.86972 -0.872325 0.000650245 0.00130049 0.000650245
;
#X obj 26 75 biquad~ 1.86972 -0.872325 0.000650245 0.00130049 0.000650245
;
#X obj 26 95 biquad~ 1.86972 -0.872325 0.000650245 0.00130049 0.000650245
;
#X obj 154 125 biquad~ 1.36591 -0.385279 0.307361 0 -0.307361;
#X obj 154 145 biquad~ 1.36591 -0.385279 0.307361 0 -0.307361;
#X obj 154 165 biquad~ 1.36591 -0.385279 0.307361 0 -0.307361;
#X obj 296 195 biquad~ 1.63386 -0.729864 0.840931 -1.68186 0.840931
;
#X obj 296 215 biquad~ 1.63386 -0.729864 0.840931 -1.68186 0.840931
;
#X connect 0 0 4 0;
#X connect 0 0 7 0;
#X connect 0 0 10 0;
#X connect 4 0 5 0;
#X connect 5 0 6 0;
#X connect 6 0 1 0;
#X connect 7 0 8 0;
#X connect 8 0 9 0;
#X connect 9 0 2 0;
#X connect 10 0 11 0;
#X connect 11 0 3 0;
#X restore 128 161 pd biquad~;
#X obj 22 11 inlet~;
#X obj 38 258 cos;
#X obj 88 258 sin;
#X obj 71 41 * 0.015708;
#X obj 38 298 line~;
#X msg 38 278 \$1 50;
#X obj 88 298 line~;
#X msg 88 278 \$1 50;
#X obj 71 11 inlet dry-wet;
#X connect 0 0 6 1;
#X connect 1 0 4 1;
#X connect 2 0 5 1;
#X connect 4 0 8 1;
#X connect 5 0 8 1;
#X connect 6 0 8 1;
#X connect 7 0 3 0;
#X connect 8 0 3 0;
#X connect 9 0 6 0;
#X connect 9 1 4 0;
#X connect 9 2 5 0;
#X connect 10 0 7 0;
#X connect 10 0 9 0;
#X connect 11 0 15 0;
#X connect 12 0 17 0;
#X connect 13 0 12 0;
#X connect 13 0 11 0;
#X connect 14 0 7 1;
#X connect 15 0 14 0;
#X connect 16 0 8 0;
#X connect 17 0 16 0;
#X connect 18 0 13 0;
#X restore 188 271 pd output_mixer;
#X obj 28 21 mmm-module \$1 \$2 3-band-eq 4;
#X obj 27 51 mmm-ctrl \$1 \$2 1 dry-wet 0 25 25 ext;
#X obj 47 71 mmm-ctrl \$1 \$2 2 bass 0 25 25 ext;
#X obj 88 91 mmm-ctrl \$1 \$2 3 mids 0 25 25 ext;
#X obj 148 111 mmm-ctrl \$1 \$2 4 high 0 25 25 ext;
#X msg 276 21 version 0.3.1;
#X connect 0 0 6 0;
#X connect 1 0 15 0;
#X connect 2 0 0 0;
#X connect 3 0 1 0;
#X connect 6 0 5 0;
#X connect 7 0 17 1;
#X connect 8 0 18 1;
#X connect 9 0 19 1;
#X connect 10 0 20 1;
#X connect 11 0 6 2;
#X connect 11 0 15 2;
#X connect 12 0 6 3;
#X connect 12 0 15 3;
#X connect 13 0 6 4;
#X connect 13 0 15 4;
#X connect 14 0 6 1;
#X connect 14 0 15 1;
#X connect 15 0 4 0;
#X connect 17 0 14 0;
#X connect 17 2 7 0;
#X connect 18 0 11 0;
#X connect 18 2 8 0;
#X connect 19 0 12 0;
#X connect 19 2 9 0;
#X connect 20 0 13 0;
#X connect 20 2 10 0;
