#N canvas 53 22 681 419 10;
#X obj 28 71 r~ 1-nothing;
#X obj 128 71 r~ 1-nothing;
#X obj 599 202 * 0.01;
#X obj 502 202 makesymbol %s;
#X obj 25 227 r gemmm;
#X obj 599 242 * 0.01;
#X obj 502 242 makesymbol %s;
#X obj 599 282 * 0.01;
#X obj 502 282 makesymbol %s;
#X obj 350 91 sel 0 1;
#X msg 350 111 symbol off;
#X msg 372 131 symbol on;
#X obj 25 327 spigot;
#X obj 101 287 spigot;
#X obj 62 307 == 0;
#N canvas 567 372 264 186 send_gemmm 0;
#X obj 104 19 loadbang;
#X obj 25 99 list prepend;
#X obj 25 139 s gemmm;
#X obj 25 79 inlet;
#X obj 25 119 list trim;
#X obj 104 59 + 1;
#X obj 104 79 makefilename \$1-%d;
#X obj 104 39 f \$2;
#X connect 0 0 7 0;
#X connect 1 0 4 0;
#X connect 3 0 1 0;
#X connect 4 0 2 0;
#X connect 5 0 6 0;
#X connect 6 0 1 1;
#X connect 7 0 5 0;
#X restore 25 367 pd send_gemmm;
#X obj 101 337 accumrotate;
#N canvas 0 22 193 301 metro 0;
#X obj 47 166 sel 0 1;
#X obj 31 126 metro 50;
#X obj 31 226 f 1;
#X obj 47 196 f 0.2;
#X obj 89 196 f -0.2;
#X obj 82 66 abs;
#X obj 31 106 != 0;
#X obj 82 86 * -1;
#X obj 47 146 < 0;
#X obj 82 106 + 102;
#X obj 30 26 inlet;
#X obj 30 46 t f f f;
#X obj 31 246 outlet;
#X connect 0 0 3 0;
#X connect 0 1 4 0;
#X connect 1 0 2 0;
#X connect 2 0 12 0;
#X connect 3 0 2 1;
#X connect 4 0 2 1;
#X connect 5 0 7 0;
#X connect 6 0 1 0;
#X connect 7 0 9 0;
#X connect 8 0 0 0;
#X connect 9 0 1 1;
#X connect 10 0 11 0;
#X connect 11 0 6 0;
#X connect 11 1 8 0;
#X connect 11 2 5 0;
#X restore 264 302 pd metro;
#N canvas 0 22 193 301 metro 0;
#X obj 47 166 sel 0 1;
#X obj 31 126 metro 50;
#X obj 31 226 f 1;
#X obj 47 196 f 0.2;
#X obj 89 196 f -0.2;
#X obj 82 66 abs;
#X obj 31 106 != 0;
#X obj 82 86 * -1;
#X obj 47 146 < 0;
#X obj 82 106 + 102;
#X obj 30 26 inlet;
#X obj 30 46 t f f f;
#X obj 31 246 outlet;
#X connect 0 0 3 0;
#X connect 0 1 4 0;
#X connect 1 0 2 0;
#X connect 2 0 12 0;
#X connect 3 0 2 1;
#X connect 4 0 2 1;
#X connect 5 0 7 0;
#X connect 6 0 1 0;
#X connect 7 0 9 0;
#X connect 8 0 0 0;
#X connect 9 0 1 1;
#X connect 10 0 11 0;
#X connect 11 0 6 0;
#X connect 11 1 8 0;
#X connect 11 2 5 0;
#X restore 264 262 pd metro;
#N canvas 0 22 197 305 metro 0;
#X obj 47 166 sel 0 1;
#X obj 31 126 metro 50;
#X obj 31 226 f 1;
#X obj 47 196 f 0.2;
#X obj 89 196 f -0.2;
#X obj 82 66 abs;
#X obj 31 106 != 0;
#X obj 82 86 * -1;
#X obj 47 146 < 0;
#X obj 82 106 + 102;
#X obj 30 26 inlet;
#X obj 30 46 t f f f;
#X obj 31 246 outlet;
#X connect 0 0 3 0;
#X connect 0 1 4 0;
#X connect 1 0 2 0;
#X connect 2 0 12 0;
#X connect 3 0 2 1;
#X connect 4 0 2 1;
#X connect 5 0 7 0;
#X connect 6 0 1 0;
#X connect 7 0 9 0;
#X connect 8 0 0 0;
#X connect 9 0 1 1;
#X connect 10 0 11 0;
#X connect 11 0 6 0;
#X connect 11 1 8 0;
#X connect 11 2 5 0;
#X restore 264 222 pd metro;
#X obj 101 307 repeat 1;
#X obj 28 21 mmm-module \$1 \$2 accumrotate 5;
#X obj 28 51 r \$1-\$2L-r;
#X obj 128 51 r \$1-\$2R-r;
#X obj 27 91 s~ \$1-\$2L;
#X obj 128 91 s~ \$1-\$2R;
#X obj 28 131 mmm-ctrl \$1 \$2 1 accumrotate 0 1 1 ext;
#X obj 264 202 mmm-ctrl \$1 \$2 2 X -100 100 0 ext;
#X obj 264 242 mmm-ctrl \$1 \$2 3 Y -100 100 0 ext;
#X obj 264 282 mmm-ctrl \$1 \$2 4 Z -100 100 0 ext;
#X obj 142 161 mmm-ctrl \$1 \$2 5 repeat 1 64 1 int;
#X obj 28 151 t a;
#X obj 25 247 route \$1-\$2;
#X msg 294 22 version 0.3.5;
#X connect 0 0 24 0;
#X connect 1 0 25 0;
#X connect 2 0 3 0;
#X connect 3 0 27 1;
#X connect 4 0 32 0;
#X connect 5 0 6 0;
#X connect 6 0 28 1;
#X connect 7 0 8 0;
#X connect 8 0 29 1;
#X connect 9 0 10 0;
#X connect 9 1 11 0;
#X connect 10 0 26 1;
#X connect 11 0 26 1;
#X connect 12 0 15 0;
#X connect 13 0 20 0;
#X connect 14 0 12 1;
#X connect 16 0 15 0;
#X connect 17 0 16 3;
#X connect 18 0 16 2;
#X connect 19 0 16 1;
#X connect 20 0 16 0;
#X connect 22 0 0 0;
#X connect 23 0 1 0;
#X connect 26 0 31 0;
#X connect 26 2 9 0;
#X connect 27 0 19 0;
#X connect 27 2 2 0;
#X connect 28 0 18 0;
#X connect 28 2 5 0;
#X connect 29 0 17 0;
#X connect 29 2 7 0;
#X connect 30 0 20 1;
#X connect 31 0 14 0;
#X connect 31 0 13 1;
#X connect 32 0 12 0;
#X connect 32 0 13 0;
