#N canvas 0 22 589 593 10;
#X obj 311 511 r~ 1-nothing;
#X obj 414 511 r~ 1-nothing;
#X obj 70 421 + 1;
#X obj 40 421 f 0;
#X obj 40 401 until;
#X obj 40 381 f;
#X obj 105 421 mod 8;
#X obj 40 501 pack s f;
#X obj 169 421 + 1;
#X obj 311 491 r \$1-\$2L-r;
#X obj 311 531 s~ \$1-\$2L;
#X obj 414 491 r \$1-\$2R-r;
#X obj 414 531 s~ \$1-\$2R;
#X obj 137 335 mmm-ctrl \$1 \$2 2 to+ 1 7 1 int;
#X obj 169 401 f \$2;
#X obj 169 381 loadbang;
#X obj 40 461 +;
#X obj 40 481 makefilename \$1-%d;
#X obj 21 21 mmm-module \$1 \$2 notes 5;
#X obj 70 181 + 1;
#X obj 40 181 f 0;
#X obj 105 181 mod 3;
#X obj 40 211 sel 0 1 2;
#X obj 109 211 mmm-ctrl \$1 \$2 3 note1 -24 24 0 int;
#X obj 139 231 mmm-ctrl \$1 \$2 4 note2 -24 24 0 int;
#X obj 169 251 mmm-ctrl \$1 \$2 5 note3 -24 24 0 int;
#X obj 40 141 metro 1000;
#X obj 40 341 +;
#X obj 40 361 t b f;
#X msg 59 121 0;
#X obj 40 161 spigot;
#X obj 21 81 t b b b f;
#X msg 20 121 1;
#X obj 247 284 f;
#X obj 40 301 f;
#X obj 70 301 f;
#X obj 100 301 f;
#X obj 399 91 makesymbol %s;
#X obj 496 91 * 0.025;
#X obj 147 121 * 0.025;
#X obj 137 355 t a;
#X obj 147 141 mmm-ticks2ms;
#X msg 40 521 \; \$1 notes \$2;
#X obj 282 51 mmm-notename;
#X obj 21 51 mmm-ctrl \$1 \$2 1 notes+ 0 127 -1 ext;
#X msg 248 21 version 0.3.2;
#X obj 147 91 mmm-ctrl \$1 \$2 6 speed 1 320 40 ext;
#X connect 0 0 10 0;
#X connect 1 0 12 0;
#X connect 2 0 6 0;
#X connect 3 0 2 0;
#X connect 3 0 16 0;
#X connect 4 0 3 0;
#X connect 5 0 4 0;
#X connect 6 0 3 1;
#X connect 7 0 42 0;
#X connect 8 0 16 1;
#X connect 9 0 0 0;
#X connect 11 0 1 0;
#X connect 13 0 40 0;
#X connect 14 0 8 0;
#X connect 15 0 14 0;
#X connect 16 0 17 0;
#X connect 17 0 7 0;
#X connect 19 0 21 0;
#X connect 20 0 19 0;
#X connect 20 0 22 0;
#X connect 21 0 20 1;
#X connect 22 0 34 0;
#X connect 22 1 35 0;
#X connect 22 2 36 0;
#X connect 23 0 34 1;
#X connect 24 0 35 1;
#X connect 25 0 36 1;
#X connect 26 0 30 0;
#X connect 27 0 28 0;
#X connect 28 0 5 0;
#X connect 28 1 7 1;
#X connect 29 0 20 0;
#X connect 29 0 30 1;
#X connect 30 0 20 0;
#X connect 31 0 32 0;
#X connect 31 1 26 0;
#X connect 31 2 29 0;
#X connect 31 3 33 0;
#X connect 32 0 30 1;
#X connect 33 0 27 1;
#X connect 34 0 27 0;
#X connect 35 0 27 0;
#X connect 36 0 27 0;
#X connect 37 0 46 1;
#X connect 38 0 37 0;
#X connect 39 0 41 0;
#X connect 40 0 5 1;
#X connect 40 0 6 1;
#X connect 41 0 26 1;
#X connect 43 0 44 1;
#X connect 44 0 31 0;
#X connect 44 2 43 0;
#X connect 46 0 39 0;
#X connect 46 2 38 0;
