#N canvas 23 62 585 420 10;
#X obj 22 310 r~ 1-nothing;
#X obj 83 260 line~;
#X obj 22 340 *~;
#X obj 83 171 t f b;
#X obj 83 151 * 0.01;
#X obj 122 310 r~ 1-nothing;
#X obj 122 340 *~;
#X obj 148 200 del;
#X obj 83 131 f 80;
#X obj 83 111 b;
#X obj 22 21 mmm-module \$1 \$2 ar 3;
#X obj 122 290 r \$1-\$2R-r;
#X obj 122 370 s~ \$1-\$2R;
#X obj 22 370 s~ \$1-\$2L;
#X obj 22 290 r \$1-\$2L-r;
#X obj 148 230 pack;
#X obj 227 200 + 1.5;
#N canvas 0 22 317 329 q2 0;
#X obj 18 17 inlet;
#X obj 18 57 *;
#X msg 18 37 \$1 \$1;
#X obj 18 77 * 0.1;
#X obj 18 277 outlet;
#X msg 94 227 set \$1;
#X obj 18 257 makefilename;
#X obj 18 117 t f f f;
#X obj 40 157 -;
#X obj 40 177 sel 0;
#X msg 40 207 set %d;
#X obj 62 137 int;
#X obj 94 187 * 10.001;
#X obj 94 207 makefilename %%d.%d;
#X obj 18 97 + 1.5;
#X connect 0 0 2 0;
#X connect 1 0 3 0;
#X connect 2 0 1 0;
#X connect 3 0 14 0;
#X connect 5 0 6 0;
#X connect 6 0 4 0;
#X connect 7 0 6 0;
#X connect 7 1 8 0;
#X connect 7 2 11 0;
#X connect 8 0 9 0;
#X connect 9 0 10 0;
#X connect 9 1 12 0;
#X connect 10 0 6 0;
#X connect 11 0 8 1;
#X connect 12 0 13 0;
#X connect 13 0 5 0;
#X connect 14 0 7 0;
#X restore 492 121 pd q2;
#N canvas 0 22 321 333 q2 0;
#X obj 18 17 inlet;
#X obj 18 57 *;
#X msg 18 37 \$1 \$1;
#X obj 18 77 * 0.1;
#X obj 18 277 outlet;
#X msg 94 227 set \$1;
#X obj 18 257 makefilename;
#X obj 18 117 t f f f;
#X obj 40 157 -;
#X obj 40 177 sel 0;
#X msg 40 207 set %d;
#X obj 62 137 int;
#X obj 94 187 * 10.001;
#X obj 94 207 makefilename %%d.%d;
#X obj 18 97 + 1.5;
#X connect 0 0 2 0;
#X connect 1 0 3 0;
#X connect 2 0 1 0;
#X connect 3 0 14 0;
#X connect 5 0 6 0;
#X connect 6 0 4 0;
#X connect 7 0 6 0;
#X connect 7 1 8 0;
#X connect 7 2 11 0;
#X connect 8 0 9 0;
#X connect 9 0 10 0;
#X connect 9 1 12 0;
#X connect 10 0 6 0;
#X connect 11 0 8 1;
#X connect 12 0 13 0;
#X connect 13 0 5 0;
#X connect 14 0 7 0;
#X restore 426 81 pd q2;
#X obj 227 161 *;
#X msg 227 141 \$1 \$1;
#X obj 227 181 * 0.1;
#X obj 175 121 *;
#X msg 175 101 \$1 \$1;
#X obj 175 141 * 0.1;
#X obj 83 220 pack;
#X obj 175 81 mmm-ctrl \$1 \$2 2 attack 1 200 1 ext;
#X obj 227 121 mmm-ctrl \$1 \$2 3 release 1 200 50 ext;
#X obj 175 161 + 1.5;
#X obj 82 91 route notes;
#X obj 82 71 r \$1-\$2;
#X obj 22 51 mmm-ctrl \$1 \$2 1 level 0 100 -1 int;
#X msg 229 21 version 0.3.6;
#X connect 0 0 2 0;
#X connect 1 0 2 1;
#X connect 1 0 6 1;
#X connect 2 0 13 0;
#X connect 3 0 25 0;
#X connect 3 1 7 0;
#X connect 4 0 3 0;
#X connect 5 0 6 0;
#X connect 6 0 12 0;
#X connect 7 0 15 0;
#X connect 8 0 4 0;
#X connect 9 0 8 0;
#X connect 11 0 5 0;
#X connect 14 0 0 0;
#X connect 15 0 1 0;
#X connect 16 0 15 1;
#X connect 17 0 27 1;
#X connect 18 0 26 1;
#X connect 19 0 21 0;
#X connect 20 0 19 0;
#X connect 21 0 16 0;
#X connect 22 0 24 0;
#X connect 23 0 22 0;
#X connect 24 0 28 0;
#X connect 25 0 1 0;
#X connect 26 0 23 0;
#X connect 26 2 18 0;
#X connect 27 0 20 0;
#X connect 27 2 17 0;
#X connect 28 0 7 1;
#X connect 28 0 25 1;
#X connect 29 0 9 0;
#X connect 30 0 29 0;
#X connect 31 0 8 0;
