#N canvas 51 22 396 497 10;
#X obj 48 319 vline~;
#X obj 99 140 pow 2;
#X obj 8 409 r~ 1-nothing;
#X obj 108 409 r~ 1-nothing;
#X obj 18 190 t b f;
#X obj 48 359 *~;
#X obj 186 253 + 10;
#X obj 171 283 f;
#N canvas 448 24 688 502 osc_________ 0;
#X obj 16 270 inlet;
#N canvas 138 357 216 292 mGlideToF 0;
#X obj 15 15 inlet;
#X obj 15 195 outlet~;
#X obj 45 95 /;
#X obj 15 35 mtof;
#X msg 45 75 1000 \$1;
#X obj 15 55 t f f;
#X obj 15 155 pack;
#X obj 15 175 line~;
#X obj 45 135 max 1.5;
#X obj 45 115 * 0.2;
#X connect 0 0 3 0;
#X connect 2 0 9 0;
#X connect 3 0 5 0;
#X connect 4 0 2 0;
#X connect 5 0 6 0;
#X connect 5 1 4 0;
#X connect 6 0 7 0;
#X connect 7 0 1 0;
#X connect 8 0 6 1;
#X connect 9 0 8 0;
#X restore 16 290 pd mGlideToF;
#X obj 16 360 osc~;
#X obj 59 360 osc~;
#X obj 59 380 *~ 0;
#X obj 107 360 osc~;
#X obj 107 380 *~ 0;
#X obj 107 340 *~ 2;
#X obj 151 360 osc~;
#X obj 151 380 *~ 0;
#X obj 195 360 osc~;
#X obj 195 380 *~ 0;
#X obj 195 340 *~ 4;
#X obj 239 360 osc~;
#X obj 239 380 *~ 0;
#X obj 283 360 osc~;
#X obj 283 380 *~ 0;
#X obj 327 360 osc~;
#X obj 327 380 *~ 0;
#X obj 327 340 *~ 8;
#X obj 59 340 *~ 1.5;
#X obj 151 340 *~ 3;
#X obj 239 340 *~ 5;
#X obj 283 340 *~ 6;
#X obj 16 430 *~ 0.25;
#X obj 16 450 outlet~;
#X obj 584 20 inlet;
#X obj 584 120 switch~;
#X obj 584 50 t f b;
#X obj 614 90 f 1;
#X obj 584 70 del;
#X obj 584 90 f 0;
#X obj 116 20 mmm-ctrl \$1 \$2 4 5z1/3 0 100 0 int;
#X obj 116 40 * 0.01;
#X obj 166 80 * 0.01;
#X obj 216 120 * 0.01;
#X obj 316 180 mmm-ctrl \$1 \$2 8 1z3/5 0 100 0 int;
#X obj 166 60 mmm-ctrl \$1 \$2 5 4z 0 100 0 int;
#X obj 216 100 mmm-ctrl \$1 \$2 6 2z2/3 0 100 0 int;
#X obj 266 140 mmm-ctrl \$1 \$2 7 2z 0 100 0 int;
#X obj 366 220 mmm-ctrl \$1 \$2 9 1z1/3 0 100 0 int;
#X obj 416 260 mmm-ctrl \$1 \$2 10 1z 0 100 0 int;
#X obj 266 160 * 0.01;
#X obj 316 200 * 0.01;
#X obj 366 240 * 0.01;
#X obj 416 280 * 0.01;
#X connect 0 0 1 0;
#X connect 1 0 2 0;
#X connect 1 0 7 0;
#X connect 1 0 12 0;
#X connect 1 0 19 0;
#X connect 1 0 20 0;
#X connect 1 0 21 0;
#X connect 1 0 22 0;
#X connect 1 0 23 0;
#X connect 2 0 24 0;
#X connect 3 0 4 0;
#X connect 4 0 24 0;
#X connect 5 0 6 0;
#X connect 6 0 24 0;
#X connect 7 0 5 0;
#X connect 8 0 9 0;
#X connect 9 0 24 0;
#X connect 10 0 11 0;
#X connect 11 0 24 0;
#X connect 12 0 10 0;
#X connect 13 0 14 0;
#X connect 14 0 24 0;
#X connect 15 0 16 0;
#X connect 16 0 24 0;
#X connect 17 0 18 0;
#X connect 18 0 24 0;
#X connect 19 0 17 0;
#X connect 20 0 3 0;
#X connect 21 0 8 0;
#X connect 22 0 13 0;
#X connect 23 0 15 0;
#X connect 24 0 25 0;
#X connect 26 0 28 0;
#X connect 28 0 30 0;
#X connect 28 1 29 0;
#X connect 29 0 27 0;
#X connect 30 0 31 0;
#X connect 31 0 27 0;
#X connect 32 0 33 0;
#X connect 33 0 4 1;
#X connect 34 0 6 1;
#X connect 35 0 9 1;
#X connect 36 0 43 0;
#X connect 37 0 34 0;
#X connect 38 0 35 0;
#X connect 39 0 42 0;
#X connect 40 0 44 0;
#X connect 41 0 45 0;
#X connect 42 0 11 1;
#X connect 43 0 14 1;
#X connect 44 0 16 1;
#X connect 45 0 18 1;
#X restore 64 339 pd osc_________;
#X obj 108 389 r \$1-\$2R-r;
#X obj 108 429 s~ \$1-\$2R;
#X obj 8 429 s~ \$1-\$2L;
#X obj 8 389 r \$1-\$2L-r;
#X obj 18 20 mmm-module \$1 \$2 addsynth 10;
#X obj 99 160 * 400;
#X obj 99 120 * 4;
#X obj 99 100 * 0.01;
#X obj 77 210 * 0.01;
#X obj 18 50 mmm-ctrl \$1 \$2 1 notes 16 127 15 ext;
#X obj 99 80 mmm-ctrl \$1 \$2 3 decay 0 100 50 int;
#X obj 48 269 pack f f;
#X msg 48 289 1 10 \, 0 \$2 10;
#X obj 77 190 mmm-ctrl \$1 \$2 2 level 0 100 50 int;
#X msg 233 20 version 0.3.6;
#X obj 278 50 mmm-notename;
#X obj 18 240 f;
#X connect 0 0 5 0;
#X connect 1 0 14 0;
#X connect 2 0 11 0;
#X connect 3 0 10 0;
#X connect 4 0 7 0;
#X connect 4 0 25 0;
#X connect 4 1 8 0;
#X connect 5 0 11 0;
#X connect 5 0 10 0;
#X connect 6 0 7 1;
#X connect 7 0 8 1;
#X connect 8 0 5 1;
#X connect 9 0 3 0;
#X connect 12 0 2 0;
#X connect 14 0 6 0;
#X connect 14 0 20 1;
#X connect 15 0 1 0;
#X connect 16 0 15 0;
#X connect 17 0 25 1;
#X connect 18 0 4 0;
#X connect 18 2 24 0;
#X connect 19 0 16 0;
#X connect 20 0 21 0;
#X connect 21 0 0 0;
#X connect 22 0 17 0;
#X connect 24 0 18 1;
#X connect 25 0 20 0;
