#N canvas 384 196 384 400 10;
#X obj 28 151 r~ 1-nothing;
#X obj 117 151 r~ 1-nothing;
#X obj 28 131 r \$1-\$2L-r;
#X obj 117 131 r \$1-\$2R-r;
#X obj 117 351 s~ \$1-\$2R;
#X obj 28 351 s~ \$1-\$2L;
#X obj 62 231 mmm-ctrl \$1 \$2 2 left 1 24 1 int;
#X obj 92 251 mmm-ctrl \$1 \$2 3 right 1 24 2 int;
#X obj 58 51 mmm-ctrl \$1 \$2 1 level 0 100 80 int;
#X obj 42 181 *~;
#X obj 58 71 * 0.01;
#X msg 58 91 \$1 \$1;
#X obj 58 111 *;
#X obj 135 181 *~;
#X obj 28 21 mmm-module \$1 \$2 audioOUT 3;
#N canvas 0 22 356 134 send-dac___ 0;
#X obj 20 64 outlet~;
#X obj 20 24 inlet~;
#X obj 160 24 inlet~;
#X obj 20 44 s~ \$0-dac-left;
#X obj 160 44 s~ \$0-dac-right;
#X connect 1 0 3 0;
#X connect 2 0 4 0;
#X restore 42 211 pd send-dac___;
#N canvas 0 22 762 325 dyn-adcs___ 0;
#X obj 86 28 inlet;
#X obj 137 68 f \$0;
#X obj 86 48 t a b;
#X obj 86 108 pack f s \$0;
#X obj 346 28 inlet;
#X obj 397 68 f \$0;
#X obj 346 48 t a b;
#X obj 346 108 pack f s \$0;
#X obj 609 28 inlet;
#X obj 609 58 b;
#X obj 609 78 f \$0;
#X obj 609 98 makefilename pd-%d;
#N canvas 0 22 470 320 \$0-dac-left 0;
#X restore 86 198 pd \$0-dac-left;
#N canvas 0 22 478 328 \$0-dac-right 0;
#X restore 346 198 pd \$0-dac-right;
#X obj 137 88 makefilename pd-%d-dac-left;
#X obj 397 88 makefilename pd-%d-dac-right;
#X msg 609 128 \; \$1-dac-left clear \; \$1-dac-right clear;
#X obj 27 28 inlet~;
#X msg 346 128 \; \$2 clear \; \$2 obj 10 10 r~ \$3-dac-right \; \$2
obj 10 30 dac~ \$1 \; \$2 connect 0 0 1 0;
#X msg 86 128 \; \$2 clear \; \$2 obj 10 10 r~ \$3-dac-left \; \$2
obj 10 30 dac~ \$1 \; \$2 connect 0 0 1 0;
#X connect 0 0 2 0;
#X connect 1 0 14 0;
#X connect 2 0 3 0;
#X connect 2 1 1 0;
#X connect 3 0 19 0;
#X connect 4 0 6 0;
#X connect 5 0 15 0;
#X connect 6 0 7 0;
#X connect 6 1 5 0;
#X connect 7 0 18 0;
#X connect 8 0 9 0;
#X connect 9 0 10 0;
#X connect 10 0 11 0;
#X connect 11 0 16 0;
#X connect 14 0 3 1;
#X connect 15 0 7 1;
#X restore 42 321 pd dyn-adcs___;
#X msg 185 291 before save;
#X msg 235 21 version 0.3.1;
#X connect 0 0 9 0;
#X connect 0 0 5 0;
#X connect 1 0 13 0;
#X connect 1 0 4 0;
#X connect 2 0 0 0;
#X connect 3 0 1 0;
#X connect 6 0 16 1;
#X connect 7 0 16 2;
#X connect 8 0 10 0;
#X connect 9 0 15 0;
#X connect 10 0 11 0;
#X connect 11 0 12 0;
#X connect 12 0 9 1;
#X connect 12 0 13 1;
#X connect 13 0 15 1;
#X connect 15 0 16 0;
#X connect 17 0 16 3;
