#N canvas 340 22 437 431 10;
#X obj 26 291 r~ 1-nothing;
#X obj 224 291 r~ 1-nothing;
#X obj 26 271 r \$1-\$2L-r;
#X obj 224 271 r \$1-\$2R-r;
#X obj 224 391 s~ \$1-\$2R;
#X obj 26 391 s~ \$1-\$2L;
#N canvas 661 22 586 645 butterworth3~ 0;
#X obj 59 313 rpole~;
#X obj 58 379 cpole~;
#X obj 82 410 cpole~;
#X obj 58 351 *~;
#X obj 131 468 rzero~;
#X obj 131 519 czero~;
#X obj 156 545 czero~;
#X obj 131 497 /~;
#X obj 59 289 *~;
#X obj 131 446 /~;
#X obj 171 207 samplerate~;
#X obj 171 228 / 2;
#X obj 127 250 / 22050;
#X obj 127 228 t f b;
#X obj 127 181 inlet;
#X obj 307 209 samplerate~;
#X obj 307 230 / 2;
#X obj 263 252 / 22050;
#X obj 263 230 t f b;
#X obj 263 183 inlet;
#X obj 58 163 inlet~;
#X obj 155 568 outlet~;
#X text 133 140 lp freq;
#X text 263 142 hp freq;
#X text 68 10 3-pole \, 3-zero butterworth lp/hp/shelving filter. Args:
lp freq \, hp freq \, normalize-hi. Inlets: input signal \, lo freq
\, hi freq \, hi norm \, reset.;
#X text 70 75 For high-pass: set LP freq =0 and hi/lo to 1;
#X text 70 56 For low-pass: set HP freq >= SR/2 and hi/lo to 0;
#X text 69 92 Shelving: HP and LP specify shelving band. Gain difference
is about HP/LP cubed (so HP=2LP should give about 18 dB \, for example.)
;
#N canvas 0 22 726 573 buttercoef3 0;
#X obj 63 51 inlet;
#X floatatom 522 134 5 0 0 0 - - -;
#X obj 101 153 t f f;
#X msg 101 108 0.667;
#X msg 82 283 0;
#X obj 63 79 t b b b f;
#X obj 205 228 * -1;
#X obj 163 228 t f f;
#X obj 30 463 outlet;
#X text 59 30 characteristic frequency \, 0(DC) to 1(Nyquist);
#X obj 283 470 outlet;
#X obj 439 472 outlet;
#X text 439 494 imag2a;
#X text 283 492 real1;
#X text 374 494 real2;
#X obj 500 473 outlet;
#X text 500 495 imag2b;
#X obj 373 470 outlet;
#X text 27 485 normalizer1;
#X obj 173 470 outlet;
#X text 170 492 normalizer2;
#X obj 156 436 expr (($f2-$f1)*($f2-$f1)+$f3*$f3);
#X obj 63 412 t f f;
#X obj 101 176 expr (1 - $f2*$f2) / (1 + $f2*$f2 + 2*$f2*cos($f1))
;
#X obj 163 205 expr 2*$f2*sin($f1) / (1 + $f2*$f2 + 2*$f2*cos($f1))
;
#X obj 82 307 expr (1 - $f2*$f2) / (1 + $f2*$f2 + 2*$f2*cos($f1));
#X obj 522 89 clip 0 1;
#X obj 522 111 expr tan($f1*1.57);
#X obj 101 131 expr $f1*1.5708;
#X text 119 4 3-pole (or zero) Butterworth filter coefficient calculator
;
#X text 145 109 "theta" in units of pi/2;
#X text 211 138 conjugate pair of pole/zero locations:;
#X text 197 155 real part: (1-r*r)/(1+r*r-2rcos(th));
#X text 245 226 imaginary part: 2rsin(th)/(...);
#X text 270 282 real-valued one \, theta=0;
#X obj 30 439 expr abs($f1-$f2);
#X obj 63 391 f 1;
#X connect 0 0 5 0;
#X connect 1 0 23 1;
#X connect 1 0 24 1;
#X connect 1 0 25 1;
#X connect 2 0 23 0;
#X connect 2 1 24 0;
#X connect 3 0 28 0;
#X connect 4 0 25 0;
#X connect 5 0 36 0;
#X connect 5 1 4 0;
#X connect 5 2 3 0;
#X connect 5 3 26 0;
#X connect 6 0 15 0;
#X connect 7 0 11 0;
#X connect 7 0 21 2;
#X connect 7 1 6 0;
#X connect 21 0 19 0;
#X connect 22 0 35 0;
#X connect 22 1 21 0;
#X connect 23 0 17 0;
#X connect 23 0 21 1;
#X connect 24 0 7 0;
#X connect 25 0 10 0;
#X connect 25 0 35 1;
#X connect 26 0 27 0;
#X connect 27 0 1 0;
#X connect 28 0 2 0;
#X connect 35 0 8 0;
#X connect 36 0 22 0;
#X restore 294 348 pd buttercoef3;
#N canvas 0 22 726 573 buttercoef3 0;
#X obj 63 51 inlet;
#X floatatom 522 134 5 0 0 0 - - -;
#X obj 101 153 t f f;
#X msg 101 108 0.667;
#X msg 82 283 0;
#X obj 63 79 t b b b f;
#X obj 205 228 * -1;
#X obj 163 228 t f f;
#X obj 30 463 outlet;
#X text 59 30 characteristic frequency \, 0(DC) to 1(Nyquist);
#X obj 283 470 outlet;
#X obj 439 472 outlet;
#X text 439 494 imag2a;
#X text 283 492 real1;
#X text 374 494 real2;
#X obj 500 473 outlet;
#X text 500 495 imag2b;
#X obj 373 470 outlet;
#X text 27 485 normalizer1;
#X obj 173 470 outlet;
#X text 170 492 normalizer2;
#X obj 156 436 expr (($f2-$f1)*($f2-$f1)+$f3*$f3);
#X obj 63 412 t f f;
#X obj 101 176 expr (1 - $f2*$f2) / (1 + $f2*$f2 + 2*$f2*cos($f1))
;
#X obj 163 205 expr 2*$f2*sin($f1) / (1 + $f2*$f2 + 2*$f2*cos($f1))
;
#X obj 82 307 expr (1 - $f2*$f2) / (1 + $f2*$f2 + 2*$f2*cos($f1));
#X obj 522 89 clip 0 1;
#X obj 522 111 expr tan($f1*1.57);
#X obj 101 131 expr $f1*1.5708;
#X text 119 4 3-pole (or zero) Butterworth filter coefficient calculator
;
#X text 145 109 "theta" in units of pi/2;
#X text 211 138 conjugate pair of pole/zero locations:;
#X text 197 155 real part: (1-r*r)/(1+r*r-2rcos(th));
#X text 245 226 imaginary part: 2rsin(th)/(...);
#X text 270 282 real-valued one \, theta=0;
#X obj 30 439 expr abs($f1-$f2);
#X obj 63 391 f 1;
#X connect 0 0 5 0;
#X connect 1 0 23 1;
#X connect 1 0 24 1;
#X connect 1 0 25 1;
#X connect 2 0 23 0;
#X connect 2 1 24 0;
#X connect 3 0 28 0;
#X connect 4 0 25 0;
#X connect 5 0 36 0;
#X connect 5 1 4 0;
#X connect 5 2 3 0;
#X connect 5 3 26 0;
#X connect 6 0 15 0;
#X connect 7 0 11 0;
#X connect 7 0 21 2;
#X connect 7 1 6 0;
#X connect 21 0 19 0;
#X connect 22 0 35 0;
#X connect 22 1 21 0;
#X connect 23 0 17 0;
#X connect 23 0 21 1;
#X connect 24 0 7 0;
#X connect 25 0 10 0;
#X connect 25 0 35 1;
#X connect 26 0 27 0;
#X connect 27 0 1 0;
#X connect 28 0 2 0;
#X connect 35 0 8 0;
#X connect 36 0 22 0;
#X restore 127 270 pd buttercoef3;
#X connect 0 0 3 0;
#X connect 1 0 2 0;
#X connect 1 1 2 1;
#X connect 2 0 9 0;
#X connect 3 0 1 0;
#X connect 4 0 7 0;
#X connect 5 0 6 0;
#X connect 5 1 6 1;
#X connect 6 0 21 0;
#X connect 7 0 5 0;
#X connect 8 0 0 0;
#X connect 9 0 4 0;
#X connect 10 0 11 0;
#X connect 11 0 12 1;
#X connect 12 0 29 0;
#X connect 13 0 12 0;
#X connect 13 1 10 0;
#X connect 14 0 13 0;
#X connect 15 0 16 0;
#X connect 16 0 17 1;
#X connect 17 0 28 0;
#X connect 18 0 17 0;
#X connect 18 1 15 0;
#X connect 19 0 18 0;
#X connect 20 0 8 0;
#X connect 28 0 9 1;
#X connect 28 1 7 1;
#X connect 28 2 4 1;
#X connect 28 3 6 2;
#X connect 28 3 5 2;
#X connect 28 4 5 3;
#X connect 28 5 6 3;
#X connect 29 0 8 1;
#X connect 29 1 3 1;
#X connect 29 2 0 1;
#X connect 29 3 1 2;
#X connect 29 3 2 2;
#X connect 29 4 1 3;
#X connect 29 5 2 3;
#X restore 57 361 pd butterworth3~;
#X obj 110 151 mtof;
#X obj 159 151 mtof;
#X obj 209 171 * 0.01;
#X msg 348 151 1 \$1;
#X obj 348 171 -;
#X obj 209 151 + 50;
#X obj 209 191 + 0.5;
#X obj 348 191 + 0.5;
#N canvas 237 22 434 498 butterworth3~ 0;
#X obj 20 170 rpole~;
#X obj 19 236 cpole~;
#X obj 43 267 cpole~;
#X obj 19 208 *~;
#X obj 92 325 rzero~;
#X obj 92 376 czero~;
#X obj 117 402 czero~;
#X obj 92 354 /~;
#X obj 20 146 *~;
#X obj 92 303 /~;
#X obj 132 64 samplerate~;
#X obj 132 85 / 2;
#X obj 88 107 / 22050;
#X obj 88 85 t f b;
#X obj 88 38 inlet;
#X obj 268 66 samplerate~;
#X obj 268 87 / 2;
#X obj 224 109 / 22050;
#X obj 224 87 t f b;
#X obj 224 40 inlet;
#X obj 19 20 inlet~;
#X obj 116 425 outlet~;
#N canvas 0 22 726 573 buttercoef3 0;
#X obj 63 51 inlet;
#X floatatom 522 134 5 0 0 0 - - -;
#X obj 101 153 t f f;
#X msg 101 108 0.667;
#X msg 82 283 0;
#X obj 63 79 t b b b f;
#X obj 205 228 * -1;
#X obj 163 228 t f f;
#X obj 30 463 outlet;
#X text 59 30 characteristic frequency \, 0(DC) to 1(Nyquist);
#X obj 283 470 outlet;
#X obj 439 472 outlet;
#X text 439 494 imag2a;
#X text 283 492 real1;
#X text 374 494 real2;
#X obj 500 473 outlet;
#X text 500 495 imag2b;
#X obj 373 470 outlet;
#X text 27 485 normalizer1;
#X obj 173 470 outlet;
#X text 170 492 normalizer2;
#X obj 156 436 expr (($f2-$f1)*($f2-$f1)+$f3*$f3);
#X obj 63 412 t f f;
#X obj 101 176 expr (1 - $f2*$f2) / (1 + $f2*$f2 + 2*$f2*cos($f1))
;
#X obj 163 205 expr 2*$f2*sin($f1) / (1 + $f2*$f2 + 2*$f2*cos($f1))
;
#X obj 82 307 expr (1 - $f2*$f2) / (1 + $f2*$f2 + 2*$f2*cos($f1));
#X obj 522 89 clip 0 1;
#X obj 522 111 expr tan($f1*1.57);
#X obj 101 131 expr $f1*1.5708;
#X text 119 4 3-pole (or zero) Butterworth filter coefficient calculator
;
#X text 145 109 "theta" in units of pi/2;
#X text 211 138 conjugate pair of pole/zero locations:;
#X text 197 155 real part: (1-r*r)/(1+r*r-2rcos(th));
#X text 245 226 imaginary part: 2rsin(th)/(...);
#X text 270 282 real-valued one \, theta=0;
#X obj 30 439 expr abs($f1-$f2);
#X obj 63 391 f 1;
#X connect 0 0 5 0;
#X connect 1 0 23 1;
#X connect 1 0 24 1;
#X connect 1 0 25 1;
#X connect 2 0 23 0;
#X connect 2 1 24 0;
#X connect 3 0 28 0;
#X connect 4 0 25 0;
#X connect 5 0 36 0;
#X connect 5 1 4 0;
#X connect 5 2 3 0;
#X connect 5 3 26 0;
#X connect 6 0 15 0;
#X connect 7 0 11 0;
#X connect 7 0 21 2;
#X connect 7 1 6 0;
#X connect 21 0 19 0;
#X connect 22 0 35 0;
#X connect 22 1 21 0;
#X connect 23 0 17 0;
#X connect 23 0 21 1;
#X connect 24 0 7 0;
#X connect 25 0 10 0;
#X connect 25 0 35 1;
#X connect 26 0 27 0;
#X connect 27 0 1 0;
#X connect 28 0 2 0;
#X connect 35 0 8 0;
#X connect 36 0 22 0;
#X restore 255 205 pd buttercoef3;
#N canvas 0 22 726 573 buttercoef3 0;
#X obj 63 51 inlet;
#X floatatom 522 134 5 0 0 0 - - -;
#X obj 101 153 t f f;
#X msg 101 108 0.667;
#X msg 82 283 0;
#X obj 63 79 t b b b f;
#X obj 205 228 * -1;
#X obj 163 228 t f f;
#X obj 30 463 outlet;
#X text 59 30 characteristic frequency \, 0(DC) to 1(Nyquist);
#X obj 283 470 outlet;
#X obj 439 472 outlet;
#X text 439 494 imag2a;
#X text 283 492 real1;
#X text 374 494 real2;
#X obj 500 473 outlet;
#X text 500 495 imag2b;
#X obj 373 470 outlet;
#X text 27 485 normalizer1;
#X obj 173 470 outlet;
#X text 170 492 normalizer2;
#X obj 156 436 expr (($f2-$f1)*($f2-$f1)+$f3*$f3);
#X obj 63 412 t f f;
#X obj 101 176 expr (1 - $f2*$f2) / (1 + $f2*$f2 + 2*$f2*cos($f1))
;
#X obj 163 205 expr 2*$f2*sin($f1) / (1 + $f2*$f2 + 2*$f2*cos($f1))
;
#X obj 82 307 expr (1 - $f2*$f2) / (1 + $f2*$f2 + 2*$f2*cos($f1));
#X obj 522 89 clip 0 1;
#X obj 522 111 expr tan($f1*1.57);
#X obj 101 131 expr $f1*1.5708;
#X text 119 4 3-pole (or zero) Butterworth filter coefficient calculator
;
#X text 145 109 "theta" in units of pi/2;
#X text 211 138 conjugate pair of pole/zero locations:;
#X text 197 155 real part: (1-r*r)/(1+r*r-2rcos(th));
#X text 245 226 imaginary part: 2rsin(th)/(...);
#X text 270 282 real-valued one \, theta=0;
#X obj 30 439 expr abs($f1-$f2);
#X obj 63 391 f 1;
#X connect 0 0 5 0;
#X connect 1 0 23 1;
#X connect 1 0 24 1;
#X connect 1 0 25 1;
#X connect 2 0 23 0;
#X connect 2 1 24 0;
#X connect 3 0 28 0;
#X connect 4 0 25 0;
#X connect 5 0 36 0;
#X connect 5 1 4 0;
#X connect 5 2 3 0;
#X connect 5 3 26 0;
#X connect 6 0 15 0;
#X connect 7 0 11 0;
#X connect 7 0 21 2;
#X connect 7 1 6 0;
#X connect 21 0 19 0;
#X connect 22 0 35 0;
#X connect 22 1 21 0;
#X connect 23 0 17 0;
#X connect 23 0 21 1;
#X connect 24 0 7 0;
#X connect 25 0 10 0;
#X connect 25 0 35 1;
#X connect 26 0 27 0;
#X connect 27 0 1 0;
#X connect 28 0 2 0;
#X connect 35 0 8 0;
#X connect 36 0 22 0;
#X restore 88 127 pd buttercoef3;
#X connect 0 0 3 0;
#X connect 1 0 2 0;
#X connect 1 1 2 1;
#X connect 2 0 9 0;
#X connect 3 0 1 0;
#X connect 4 0 7 0;
#X connect 5 0 6 0;
#X connect 5 1 6 1;
#X connect 6 0 21 0;
#X connect 7 0 5 0;
#X connect 8 0 0 0;
#X connect 9 0 4 0;
#X connect 10 0 11 0;
#X connect 11 0 12 1;
#X connect 12 0 23 0;
#X connect 13 0 12 0;
#X connect 13 1 10 0;
#X connect 14 0 13 0;
#X connect 15 0 16 0;
#X connect 16 0 17 1;
#X connect 17 0 22 0;
#X connect 18 0 17 0;
#X connect 18 1 15 0;
#X connect 19 0 18 0;
#X connect 20 0 8 0;
#X connect 22 0 9 1;
#X connect 22 1 7 1;
#X connect 22 2 4 1;
#X connect 22 3 6 2;
#X connect 22 3 5 2;
#X connect 22 4 5 3;
#X connect 22 5 6 3;
#X connect 23 0 8 1;
#X connect 23 1 3 1;
#X connect 23 2 0 1;
#X connect 23 3 1 2;
#X connect 23 3 2 2;
#X connect 23 4 1 3;
#X connect 23 5 2 3;
#X restore 255 361 pd butterworth3~;
#X obj 164 251 * 1;
#X obj 209 211 t b f;
#X obj 362 251 * 1;
#X obj 348 211 t b f;
#X obj 110 251 * 1;
#X obj 308 251 * 1;
#X obj 57 341 *~;
#X obj 255 341 *~;
#X obj 26 341 *~;
#X obj 224 341 *~;
#X obj 28 181 cos;
#X obj 74 181 sin;
#X obj 28 151 * 0.015708;
#X obj 74 221 line~;
#X obj 28 221 line~;
#X msg 75 201 \$1 100;
#X msg 28 201 \$1 100;
#X obj 28 21 mmm-module \$1 \$2 butterworth3~ 3;
#X obj 28 51 mmm-ctrl \$1 \$2 1 dry-wet 0 100 100 int;
#X obj 68 71 mmm-ctrl \$1 \$2 2 poles 0 120 80 int;
#X obj 108 91 mmm-ctrl \$1 \$2 3 zeros 50 150 150 int;
#X obj 168 111 mmm-ctrl \$1 \$2 4 L<>R -50 50 0 int;
#X msg 305 21 version 0.3.2;
#X connect 0 0 24 0;
#X connect 0 0 22 0;
#X connect 1 0 25 0;
#X connect 1 0 23 0;
#X connect 2 0 0 0;
#X connect 3 0 1 0;
#X connect 6 0 5 0;
#X connect 7 0 20 0;
#X connect 7 0 21 0;
#X connect 8 0 16 0;
#X connect 8 0 18 0;
#X connect 9 0 10 0;
#X connect 9 0 13 0;
#X connect 10 0 11 0;
#X connect 11 0 14 0;
#X connect 12 0 9 0;
#X connect 13 0 17 0;
#X connect 14 0 19 0;
#X connect 15 0 4 0;
#X connect 16 0 6 2;
#X connect 17 0 16 0;
#X connect 17 0 20 0;
#X connect 17 1 16 1;
#X connect 17 1 20 1;
#X connect 18 0 15 2;
#X connect 19 0 18 0;
#X connect 19 0 21 0;
#X connect 19 1 18 1;
#X connect 19 1 21 1;
#X connect 20 0 6 1;
#X connect 21 0 15 1;
#X connect 22 0 6 0;
#X connect 23 0 15 0;
#X connect 24 0 5 0;
#X connect 25 0 4 0;
#X connect 26 0 32 0;
#X connect 27 0 31 0;
#X connect 28 0 27 0;
#X connect 28 0 26 0;
#X connect 29 0 23 1;
#X connect 29 0 22 1;
#X connect 30 0 25 1;
#X connect 30 0 24 1;
#X connect 31 0 29 0;
#X connect 32 0 30 0;
#X connect 34 0 28 0;
#X connect 35 0 7 0;
#X connect 36 0 8 0;
#X connect 37 0 12 0;
