#N canvas 0 22 663 492 10;
#X obj 108 429 r~ 1-nothing;
#X obj 201 429 r~ 1-nothing;
#X obj 144 251 line~;
#X obj 144 281 mtof~;
#X obj 215 141 * 0.1;
#X obj 128 321 *~;
#X obj 108 409 r \$1-\$2L-r;
#X obj 201 409 r \$1-\$2R-r;
#X obj 201 449 s~ \$1-\$2R;
#X obj 108 449 s~ \$1-\$2L;
#X obj 144 231 pack;
#X obj 144 191 +;
#X obj 158 111 t b f;
#X obj 144 211 max 0;
#X obj 215 161 mmm-ticks2ms;
#N canvas 514 142 311 291 f2s 0;
#X obj 27 25 inlet;
#X obj 27 225 outlet;
#X msg 104 165 set \$1;
#X obj 27 195 makefilename;
#X obj 27 55 t f f f;
#X obj 50 95 -;
#X obj 50 115 sel 0;
#X msg 50 145 set %d;
#X obj 71 75 int;
#X obj 105 125 * 10.001;
#X obj 104 145 makefilename %%d.%d;
#X connect 0 0 4 0;
#X connect 2 0 3 0;
#X connect 3 0 1 0;
#X connect 4 0 3 0;
#X connect 4 1 5 0;
#X connect 4 2 8 0;
#X connect 5 0 6 0;
#X connect 6 0 7 0;
#X connect 6 1 9 0;
#X connect 7 0 3 0;
#X connect 8 0 5 1;
#X connect 9 0 10 0;
#X connect 10 0 2 0;
#X restore 459 121 pd f2s;
#X obj 507 121 * 0.1;
#N canvas 271 30 603 372 beating~ 0;
#X obj 20 109 inlet~;
#X obj 20 329 outlet~;
#X obj 83 42 * 0.1;
#X obj 167 72 * 0.1;
#X obj 243 102 * 0.1;
#X obj 20 291 osc~;
#X obj 298 112 loadbang;
#X obj 298 152 / 3;
#X msg 298 132 1;
#X obj 298 172 + 1;
#X obj 60 291 osc~;
#X obj 60 271 +~ 0;
#X obj 100 211 *~ 1.333;
#X obj 180 241 *~ 1.333;
#X obj 100 291 osc~;
#X obj 140 291 osc~;
#X obj 140 271 +~ 0;
#X obj 180 291 osc~;
#X obj 220 291 osc~;
#X obj 220 271 +~ 0;
#N canvas 514 142 311 291 f2s 0;
#X obj 27 25 inlet;
#X obj 27 225 outlet;
#X msg 104 165 set \$1;
#X obj 27 195 makefilename;
#X obj 27 55 t f f f;
#X obj 50 95 -;
#X obj 50 115 sel 0;
#X msg 50 145 set %d;
#X obj 71 75 int;
#X obj 105 125 * 10.001;
#X obj 104 145 makefilename %%d.%d;
#X connect 0 0 4 0;
#X connect 2 0 3 0;
#X connect 3 0 1 0;
#X connect 4 0 3 0;
#X connect 4 1 5 0;
#X connect 4 2 8 0;
#X connect 5 0 6 0;
#X connect 6 0 7 0;
#X connect 6 1 9 0;
#X connect 7 0 3 0;
#X connect 8 0 5 1;
#X connect 9 0 10 0;
#X connect 10 0 2 0;
#X restore 334 22 pd f2s;
#X obj 382 22 * 0.1;
#N canvas 514 142 311 291 f2s 0;
#X obj 27 25 inlet;
#X obj 27 225 outlet;
#X msg 104 165 set \$1;
#X obj 27 195 makefilename;
#X obj 27 55 t f f f;
#X obj 50 95 -;
#X obj 50 115 sel 0;
#X msg 50 145 set %d;
#X obj 71 75 int;
#X obj 105 125 * 10.001;
#X obj 104 145 makefilename %%d.%d;
#X connect 0 0 4 0;
#X connect 2 0 3 0;
#X connect 3 0 1 0;
#X connect 4 0 3 0;
#X connect 4 1 5 0;
#X connect 4 2 8 0;
#X connect 5 0 6 0;
#X connect 6 0 7 0;
#X connect 6 1 9 0;
#X connect 7 0 3 0;
#X connect 8 0 5 1;
#X connect 9 0 10 0;
#X connect 10 0 2 0;
#X restore 418 52 pd f2s;
#X obj 466 52 * 0.1;
#N canvas 514 142 311 291 f2s 0;
#X obj 27 25 inlet;
#X obj 27 225 outlet;
#X msg 104 165 set \$1;
#X obj 27 195 makefilename;
#X obj 27 55 t f f f;
#X obj 50 95 -;
#X obj 50 115 sel 0;
#X msg 50 145 set %d;
#X obj 71 75 int;
#X obj 105 125 * 10.001;
#X obj 104 145 makefilename %%d.%d;
#X connect 0 0 4 0;
#X connect 2 0 3 0;
#X connect 3 0 1 0;
#X connect 4 0 3 0;
#X connect 4 1 5 0;
#X connect 4 2 8 0;
#X connect 5 0 6 0;
#X connect 6 0 7 0;
#X connect 6 1 9 0;
#X connect 7 0 3 0;
#X connect 8 0 5 1;
#X connect 9 0 10 0;
#X connect 10 0 2 0;
#X restore 494 82 pd f2s;
#X obj 542 82 * 0.1;
#X obj 83 22 mmm-ctrl \$1 \$2 6 f1_1/ 1 100 30 ext;
#X obj 167 52 mmm-ctrl \$1 \$2 7 f2_1/ 1 100 30 ext;
#X obj 243 82 mmm-ctrl \$1 \$2 8 f3_1/ 1 100 30 ext;
#X connect 0 0 5 0;
#X connect 0 0 11 0;
#X connect 0 0 12 0;
#X connect 2 0 11 1;
#X connect 3 0 16 1;
#X connect 4 0 19 1;
#X connect 5 0 1 0;
#X connect 6 0 8 0;
#X connect 7 0 9 0;
#X connect 8 0 7 0;
#X connect 9 0 12 1;
#X connect 9 0 13 1;
#X connect 10 0 1 0;
#X connect 11 0 10 0;
#X connect 12 0 13 0;
#X connect 12 0 14 0;
#X connect 12 0 16 0;
#X connect 13 0 17 0;
#X connect 13 0 19 0;
#X connect 14 0 1 0;
#X connect 15 0 1 0;
#X connect 16 0 15 0;
#X connect 17 0 1 0;
#X connect 18 0 1 0;
#X connect 19 0 18 0;
#X connect 20 0 26 1;
#X connect 21 0 20 0;
#X connect 22 0 27 1;
#X connect 23 0 22 0;
#X connect 24 0 28 1;
#X connect 25 0 24 0;
#X connect 26 0 2 0;
#X connect 26 1 2 0;
#X connect 26 2 21 0;
#X connect 27 0 3 0;
#X connect 27 1 3 0;
#X connect 27 2 23 0;
#X connect 28 0 4 0;
#X connect 28 1 4 0;
#X connect 28 2 25 0;
#X restore 144 301 pd beating~;
#X obj 313 181 * 0.00316228;
#X obj 94 281 min~ 1;
#X obj 28 21 mmm-module \$1 \$2 beating 8;
#X obj 158 91 mmm-ctrl \$1 \$2 4 transpose -24 24 0 int;
#X obj 215 121 mmm-ctrl \$1 \$2 5 glide 0 160 1 ext;
#X obj 606 211 * 2;
#X obj 128 379 *~;
#X obj 268 271 cos;
#X obj 369 271 sin;
#X obj 369 251 * 0.015708;
#X msg 268 311 \$1 10;
#X msg 369 311 \$1 10;
#X obj 369 231 + 50;
#X obj 369 331 line~;
#X obj 268 331 line~;
#X obj 268 291 *;
#X obj 369 291 *;
#X obj 313 288 t b f;
#X obj 168 379 *~;
#X obj 313 161 mmm-ctrl \$1 \$2 2 level 0 100 30 int;
#X obj 369 211 mmm-ctrl \$1 \$2 3 pan -50 50 0 ext;
#X obj 28 61 mmm-ctrl \$1 \$2 1 notes 0 127 -1 ext;
#X msg 265 21 version 0.3.5;
#X obj 283 61 mmm-notename;
#X connect 0 0 9 0;
#X connect 1 0 8 0;
#X connect 2 0 3 0;
#X connect 2 0 19 0;
#X connect 3 0 17 0;
#X connect 4 0 14 0;
#X connect 5 0 36 0;
#X connect 5 0 24 0;
#X connect 6 0 0 0;
#X connect 7 0 1 0;
#X connect 10 0 2 0;
#X connect 11 0 13 0;
#X connect 12 0 11 0;
#X connect 12 1 11 1;
#X connect 13 0 10 0;
#X connect 14 0 10 1;
#X connect 15 0 22 1;
#X connect 16 0 15 0;
#X connect 17 0 5 1;
#X connect 18 0 35 0;
#X connect 19 0 5 0;
#X connect 21 0 12 0;
#X connect 22 0 4 0;
#X connect 22 2 16 0;
#X connect 23 0 38 1;
#X connect 24 0 9 0;
#X connect 25 0 33 0;
#X connect 26 0 34 0;
#X connect 27 0 26 0;
#X connect 27 0 25 0;
#X connect 28 0 32 0;
#X connect 29 0 31 0;
#X connect 30 0 27 0;
#X connect 31 0 36 1;
#X connect 32 0 24 1;
#X connect 33 0 28 0;
#X connect 34 0 29 0;
#X connect 35 0 33 0;
#X connect 35 0 34 0;
#X connect 35 1 33 1;
#X connect 35 1 34 1;
#X connect 36 0 8 0;
#X connect 37 0 18 0;
#X connect 38 0 30 0;
#X connect 38 2 23 0;
#X connect 39 0 11 0;
#X connect 39 2 41 0;
#X connect 41 0 39 1;
