#N canvas 102 35 594 484 10;
#X obj 368 115 makesymbol %s;
#X obj 466 115 * 0.1;
#X obj 28 411 r~ 1-nothing;
#X obj 121 411 r~ 1-nothing;
#X obj 73 261 line~;
#X obj 73 281 mtof~;
#X obj 73 241 pack f f;
#X obj 124 135 * 0.1;
#X obj 244 195 * 0.01;
#N canvas 325 22 264 349 bentsaw~ 0;
#X obj 21 23 inlet~ phasor;
#X obj 21 272 outlet~;
#X obj 21 123 *~;
#X obj 87 212 /~;
#X obj 87 182 -~;
#X obj 21 153 min~ 0.5;
#X obj 87 152 max~ 0.5;
#X obj 21 242 +~ 0.5;
#X obj 129 23 inlet phase;
#X obj 129 53 * 1.8;
#X obj 129 73 + 0.1;
#X obj 129 93 pow -1;
#X obj 154 152 - 0.5;
#X obj 154 182 * 2;
#X connect 0 0 2 0;
#X connect 2 0 5 0;
#X connect 2 0 6 0;
#X connect 3 0 7 0;
#X connect 4 0 3 0;
#X connect 5 0 7 0;
#X connect 6 0 4 0;
#X connect 7 0 1 0;
#X connect 8 0 9 0;
#X connect 9 0 10 0;
#X connect 10 0 11 0;
#X connect 11 0 4 1;
#X connect 11 0 2 1;
#X connect 11 0 12 0;
#X connect 12 0 13 0;
#X connect 13 0 3 1;
#X restore 73 321 pd bentsaw~;
#X obj 73 301 phasor~;
#X obj 174 165 * 0.01;
#X obj 57 341 *~;
#X obj 121 391 r \$1-\$2R-r;
#X obj 121 431 s~ \$1-\$2R;
#X obj 28 431 s~ \$1-\$2L;
#X obj 28 391 r \$1-\$2L-r;
#X obj 73 121 +;
#X obj 87 91 t b f;
#X obj 73 221 max 0;
#X obj 27 311 min~ 1;
#X obj 28 21 mmm-module \$1 \$2 bentsaw 6;
#X obj 87 71 mmm-ctrl \$1 \$2 4 transpose -24 24 0 int;
#X obj 124 115 mmm-ctrl \$1 \$2 5 glide 0 160 1 ext;
#X obj 174 145 mmm-ctrl \$1 \$2 6 phase 0 100 50 int;
#X obj 536 205 * 2;
#X obj 57 371 *~;
#X obj 199 275 cos;
#X obj 298 275 sin;
#X obj 298 245 * 0.015708;
#X msg 199 315 \$1 10;
#X msg 298 315 \$1 10;
#X obj 298 225 + 50;
#X obj 298 335 line~;
#X obj 199 335 line~;
#X obj 199 295 *;
#X obj 298 295 *;
#X obj 244 292 t b f;
#X obj 127 371 *~;
#X obj 244 175 mmm-ctrl \$1 \$2 2 level 0 100 30 int;
#X obj 298 205 mmm-ctrl \$1 \$2 3 pan -50 50 0 ext;
#X obj 124 221 mmm-ticks2ms;
#X obj 73 51 mmm-ctrl \$1 \$2 1 notes 0 127 -1 ext;
#X msg 265 21 version 0.3.8;
#X obj 328 51 mmm-notename;
#X connect 0 0 23 1;
#X connect 1 0 0 0;
#X connect 2 0 15 0;
#X connect 3 0 14 0;
#X connect 4 0 5 0;
#X connect 4 0 20 0;
#X connect 5 0 10 0;
#X connect 6 0 4 0;
#X connect 7 0 41 0;
#X connect 8 0 37 0;
#X connect 9 0 12 1;
#X connect 10 0 9 0;
#X connect 11 0 9 1;
#X connect 12 0 26 0;
#X connect 12 0 38 0;
#X connect 13 0 3 0;
#X connect 16 0 2 0;
#X connect 17 0 19 0;
#X connect 18 0 17 0;
#X connect 18 1 17 1;
#X connect 19 0 6 0;
#X connect 20 0 12 0;
#X connect 22 0 18 0;
#X connect 23 0 7 0;
#X connect 23 2 1 0;
#X connect 24 0 11 0;
#X connect 25 0 40 1;
#X connect 26 0 15 0;
#X connect 27 0 35 0;
#X connect 28 0 36 0;
#X connect 29 0 28 0;
#X connect 29 0 27 0;
#X connect 30 0 34 0;
#X connect 31 0 33 0;
#X connect 32 0 29 0;
#X connect 33 0 38 1;
#X connect 34 0 26 1;
#X connect 35 0 30 0;
#X connect 36 0 31 0;
#X connect 37 0 35 0;
#X connect 37 0 36 0;
#X connect 37 1 35 1;
#X connect 37 1 36 1;
#X connect 38 0 14 0;
#X connect 39 0 8 0;
#X connect 40 0 32 0;
#X connect 40 2 25 0;
#X connect 41 0 6 1;
#X connect 42 0 17 0;
#X connect 42 2 44 0;
#X connect 44 0 42 1;
