#N canvas 326 157 482 442 10;
#X obj 29 261 r~ 1-nothing;
#X obj 317 261 r~ 1-nothing;
#X obj 169 181 -;
#X obj 169 201 min 1;
#X obj 219 201 min 1;
#X obj 169 131 + 1;
#X obj 169 111 * 0.01;
#X obj 169 241 *;
#X obj 219 241 *;
#X obj 82 201 t b f;
#X obj 169 261 mtof;
#X obj 219 261 mtof;
#X obj 29 370 bp~;
#X obj 317 370 bp~;
#X obj 173 348 * 0.05;
#X obj 397 318 * 0.05;
#X obj 300 318 makesymbol %s;
#X obj 29 241 r \$1-\$2L-r;
#X obj 317 241 r \$1-\$2R-r;
#X obj 317 400 s~ \$1-\$2R;
#X obj 29 400 s~ \$1-\$2L;
#X msg 169 161 2 \$1;
#X obj 28 21 mmm-module \$1 \$2 bp 3;
#X obj 28 51 mmm-ctrl \$1 \$2 1 frequency 1 128 64 int;
#X obj 169 81 mmm-ctrl \$1 \$2 2 pan -100 100 0 int;
#X obj 83 318 mmm-ctrl \$1 \$2 3 q 0 100 0 ext;
#X msg 255 21 version 0.3.3;
#X connect 0 0 12 0;
#X connect 1 0 13 0;
#X connect 2 0 3 0;
#X connect 3 0 7 0;
#X connect 4 0 8 0;
#X connect 5 0 4 0;
#X connect 5 0 21 0;
#X connect 6 0 5 0;
#X connect 7 0 10 0;
#X connect 8 0 11 0;
#X connect 9 0 7 0;
#X connect 9 0 8 0;
#X connect 9 1 7 1;
#X connect 9 1 8 1;
#X connect 10 0 12 1;
#X connect 11 0 13 1;
#X connect 12 0 20 0;
#X connect 13 0 19 0;
#X connect 14 0 13 2;
#X connect 14 0 12 2;
#X connect 15 0 16 0;
#X connect 16 0 25 1;
#X connect 17 0 0 0;
#X connect 18 0 1 0;
#X connect 21 0 2 0;
#X connect 23 0 9 0;
#X connect 24 0 6 0;
#X connect 25 0 14 0;
#X connect 25 2 15 0;
