#N canvas 23 22 726 496 10;
#X obj 28 71 r~ 1-nothing;
#X obj 128 71 r~ 1-nothing;
#X obj 504 161 * 0.01;
#X obj 407 161 makesymbol %s;
#X obj 28 325 r gemmm;
#X obj 564 181 * 0.01;
#X obj 467 181 makesymbol %s;
#X obj 604 201 * 0.01;
#X obj 507 201 makesymbol %s;
#X obj 320 91 sel 0 1;
#X msg 320 111 symbol off;
#X msg 342 131 symbol on;
#X obj 658 221 * 0.01;
#X obj 561 221 makesymbol %s;
#X obj 140 391 colorRGB 1 1 1;
#X obj 140 411 alpha;
#X obj 64 411 spigot;
#X obj 140 371 spigot;
#X obj 101 391 == 0;
#X obj 163 241 * 0.01;
#X obj 209 241 * 0.01;
#X obj 256 241 * 0.01;
#X obj 303 241 * 0.01;
#X obj 256 321 line;
#X obj 209 321 line;
#X obj 163 321 line;
#X obj 303 321 line;
#N canvas 567 372 268 190 send_gemmm 0;
#X obj 104 19 loadbang;
#X obj 25 99 list prepend;
#X obj 25 139 s gemmm;
#X obj 25 79 inlet;
#X obj 25 119 list trim;
#X obj 104 59 + 1;
#X obj 104 79 makefilename \$1-%d;
#X obj 104 39 f \$2;
#X connect 0 0 7 0;
#X connect 1 0 4 0;
#X connect 3 0 1 0;
#X connect 4 0 2 0;
#X connect 5 0 6 0;
#X connect 6 0 1 1;
#X connect 7 0 5 0;
#X restore 64 451 pd send_gemmm;
#X obj 303 301 pack;
#X obj 256 301 pack;
#X obj 209 301 pack;
#X obj 163 301 pack;
#X obj 28 21 mmm-module \$1 \$2 colorRGB 6;
#X obj 28 51 r \$1-\$2L-r;
#X obj 128 51 r \$1-\$2R-r;
#X obj 28 91 s~ \$1-\$2L;
#X obj 128 91 s~ \$1-\$2R;
#X obj 28 131 mmm-ctrl \$1 \$2 1 colorRGB 0 1 1 ext;
#X obj 163 161 mmm-ctrl \$1 \$2 2 red 0 100 100 ext;
#X obj 209 181 mmm-ctrl \$1 \$2 3 green 0 100 100 ext;
#X obj 256 201 mmm-ctrl \$1 \$2 4 blue 0 100 100 ext;
#X obj 303 221 mmm-ctrl \$1 \$2 5 alpha 0 100 100 ext;
#X obj 369 251 mmm-ctrl \$1 \$2 6 glide 0 16 0 int;
#X obj 28 345 route \$1-\$2;
#X obj 369 271 mmm-ticks2ms;
#X obj 28 151 t a;
#X msg 295 21 version 0.3.6;
#X connect 0 0 35 0;
#X connect 1 0 36 0;
#X connect 2 0 3 0;
#X connect 3 0 38 1;
#X connect 4 0 43 0;
#X connect 5 0 6 0;
#X connect 6 0 39 1;
#X connect 7 0 8 0;
#X connect 8 0 40 1;
#X connect 9 0 10 0;
#X connect 9 1 11 0;
#X connect 10 0 37 1;
#X connect 11 0 37 1;
#X connect 12 0 13 0;
#X connect 13 0 41 1;
#X connect 14 0 15 0;
#X connect 15 0 27 0;
#X connect 16 0 27 0;
#X connect 17 0 14 0;
#X connect 18 0 16 1;
#X connect 19 0 31 0;
#X connect 20 0 30 0;
#X connect 21 0 29 0;
#X connect 22 0 28 0;
#X connect 23 0 14 3;
#X connect 24 0 14 2;
#X connect 25 0 14 1;
#X connect 26 0 14 4;
#X connect 28 0 26 0;
#X connect 29 0 23 0;
#X connect 30 0 24 0;
#X connect 31 0 25 0;
#X connect 33 0 0 0;
#X connect 34 0 1 0;
#X connect 37 0 45 0;
#X connect 37 2 9 0;
#X connect 38 0 19 0;
#X connect 38 2 2 0;
#X connect 39 0 20 0;
#X connect 39 2 5 0;
#X connect 40 0 21 0;
#X connect 40 2 7 0;
#X connect 41 0 22 0;
#X connect 41 2 12 0;
#X connect 42 0 44 0;
#X connect 43 0 16 0;
#X connect 43 0 17 0;
#X connect 44 0 28 1;
#X connect 44 0 29 1;
#X connect 44 0 30 1;
#X connect 44 0 31 1;
#X connect 45 0 18 0;
#X connect 45 0 17 1;
