#N canvas 8 22 831 404 10;
#X obj 448 311 r~ 1-nothing;
#X obj 548 311 r~ 1-nothing;
#X msg 28 71 reset;
#X obj 130 336 camera;
#X obj 294 91 makesymbol %s;
#X obj 391 91 * 0.02;
#X obj 28 111 * 0.02;
#X msg 28 131 speed \$1;
#X msg 28 191 distance \$1;
#X obj 300 151 makesymbol %s;
#X obj 397 151 * 0.1;
#X obj 28 171 * 0.1;
#X msg 448 151 lookX \$1;
#X msg 448 191 lookY \$1;
#X msg 448 231 lookZ \$1;
#X obj 130 276 gemhead;
#N canvas 518 330 209 199 left-right 0;
#X obj 28 57 sel 0 1 2;
#X msg 28 77 symbol empty;
#X msg 47 97 symbol left;
#X msg 66 117 symbol right;
#X obj 28 27 inlet;
#X obj 28 147 outlet;
#X connect 0 0 1 0;
#X connect 0 1 2 0;
#X connect 0 2 3 0;
#X connect 1 0 5 0;
#X connect 2 0 5 0;
#X connect 3 0 5 0;
#X connect 4 0 0 0;
#X restore 679 51 pd left-right;
#N canvas 518 330 209 199 up-down 0;
#X obj 28 57 sel 0 1 2;
#X msg 28 77 symbol empty;
#X obj 28 27 inlet;
#X obj 28 147 outlet;
#X msg 47 97 symbol up;
#X msg 66 117 symbol down;
#X connect 0 0 1 0;
#X connect 0 1 4 0;
#X connect 0 2 5 0;
#X connect 1 0 3 0;
#X connect 2 0 0 0;
#X connect 4 0 3 0;
#X connect 5 0 3 0;
#X restore 259 211 pd up-down;
#N canvas 518 330 209 199 forward-reverse 0;
#X obj 28 57 sel 0 1 2;
#X msg 28 77 symbol empty;
#X obj 28 27 inlet;
#X obj 28 147 outlet;
#X msg 47 97 symbol forward;
#X msg 66 117 symbol reverse;
#X connect 0 0 1 0;
#X connect 0 1 4 0;
#X connect 0 2 5 0;
#X connect 1 0 3 0;
#X connect 2 0 0 0;
#X connect 4 0 3 0;
#X connect 5 0 3 0;
#X restore 672 91 pd forward-reverse;
#N canvas 0 22 454 304 forward-reverse 0;
#X msg 112 127 forward \$1 \, reverse \$2;
#X obj 42 37 sel 0 1 2;
#X msg 42 97 0 0;
#X msg 61 77 1 0;
#X msg 80 57 0 1;
#X obj 42 17 inlet;
#X obj 112 147 outlet;
#X connect 0 0 6 0;
#X connect 1 0 2 0;
#X connect 1 1 3 0;
#X connect 1 2 4 0;
#X connect 2 0 0 0;
#X connect 3 0 0 0;
#X connect 4 0 0 0;
#X connect 5 0 1 0;
#X restore 448 111 pd forward-reverse;
#N canvas 0 22 458 308 left-right 0;
#X obj 42 37 sel 0 1 2;
#X msg 42 97 0 0;
#X msg 61 77 1 0;
#X msg 80 57 0 1;
#X obj 42 17 inlet;
#X obj 112 147 outlet;
#X msg 112 127 left \$1 \, right \$2;
#X connect 0 0 1 0;
#X connect 0 1 2 0;
#X connect 0 2 3 0;
#X connect 1 0 6 0;
#X connect 2 0 6 0;
#X connect 3 0 6 0;
#X connect 4 0 0 0;
#X connect 6 0 5 0;
#X restore 448 71 pd left-right;
#N canvas 0 22 470 320 up-down 0;
#X obj 42 37 sel 0 1 2;
#X msg 42 97 0 0;
#X msg 61 77 1 0;
#X msg 80 57 0 1;
#X obj 42 17 inlet;
#X obj 112 147 outlet;
#X msg 112 127 up \$1 \, down \$2;
#X connect 0 0 1 0;
#X connect 0 1 2 0;
#X connect 0 2 3 0;
#X connect 1 0 6 0;
#X connect 2 0 6 0;
#X connect 3 0 6 0;
#X connect 4 0 0 0;
#X connect 6 0 5 0;
#X restore 28 231 pd up-down;
#X obj 28 21 mmm-module \$1 \$2 camera 9;
#X obj 448 291 r \$1-\$2L-r;
#X obj 548 291 r \$1-\$2R-r;
#X obj 448 331 s~ \$1-\$2L;
#X obj 548 331 s~ \$1-\$2R;
#X obj 28 51 mmm-ctrl \$1 \$2 1 reset 0 1 0 int;
#X obj 28 91 mmm-ctrl \$1 \$2 2 speed -100 100 0 ext;
#X obj 28 151 mmm-ctrl \$1 \$2 3 distance 0 160 40 ext;
#X obj 28 211 mmm-ctrl \$1 \$2 4 moveV 0 2 0 ext;
#X obj 448 51 mmm-ctrl \$1 \$2 5 moveH 0 2 0 ext;
#X obj 448 91 mmm-ctrl \$1 \$2 6 move 0 2 0 ext;
#X obj 448 131 mmm-ctrl \$1 \$2 7 lookX -180 180 0 int;
#X obj 448 171 mmm-ctrl \$1 \$2 8 lookY -180 180 0 int;
#X obj 448 211 mmm-ctrl \$1 \$2 9 lookZ -180 180 0 int;
#X msg 448 21 version 0.3.5;
#X connect 0 0 25 0;
#X connect 1 0 26 0;
#X connect 2 0 3 0;
#X connect 4 0 28 1;
#X connect 5 0 4 0;
#X connect 6 0 7 0;
#X connect 7 0 3 0;
#X connect 8 0 3 0;
#X connect 9 0 29 1;
#X connect 10 0 9 0;
#X connect 11 0 8 0;
#X connect 12 0 3 0;
#X connect 13 0 3 0;
#X connect 14 0 3 0;
#X connect 15 0 3 0;
#X connect 16 0 31 1;
#X connect 17 0 30 1;
#X connect 18 0 32 1;
#X connect 19 0 3 0;
#X connect 20 0 3 0;
#X connect 21 0 3 0;
#X connect 23 0 0 0;
#X connect 24 0 1 0;
#X connect 27 0 2 0;
#X connect 28 0 6 0;
#X connect 28 2 5 0;
#X connect 29 0 11 0;
#X connect 29 2 10 0;
#X connect 30 0 21 0;
#X connect 30 2 17 0;
#X connect 31 0 20 0;
#X connect 31 2 16 0;
#X connect 32 0 19 0;
#X connect 32 2 18 0;
#X connect 33 0 12 0;
#X connect 34 0 13 0;
#X connect 35 0 14 0;
