#N canvas 39 22 547 459 10;
#X obj 402 121 * 0.01;
#X obj 305 121 makesymbol %s;
#X obj 114 299 sel 0 1 2;
#X obj 40 141 * 0.01;
#X msg 114 319 draw fill;
#X obj 386 248 sel 0 1 2;
#X msg 386 268 symbol fill;
#X obj 28 303 r gemmm;
#X obj 28 71 r~ 1-nothing;
#X obj 128 71 r~ 1-nothing;
#X obj 28 323 route \$3;
#X obj 52 181 * 0.01;
#X obj 65 221 * 0.01;
#X obj 28 413 cuboid;
#X obj 414 161 * 0.01;
#X obj 317 161 makesymbol %s;
#X obj 427 201 * 0.01;
#X obj 330 201 makesymbol %s;
#X msg 405 288 symbol point;
#X msg 424 308 symbol line;
#X msg 133 339 draw point;
#X msg 152 359 draw line;
#X obj 28 21 mmm-module \$1 \$2 cuboid 4;
#X obj 28 51 r \$1-\$2L-r;
#X obj 128 51 r \$1-\$2R-r;
#X obj 28 91 s~ \$1-\$2L;
#X obj 128 91 s~ \$1-\$2R;
#X obj 40 121 mmm-ctrl \$1 \$2 1 length 0 800 100 ext;
#X obj 52 161 mmm-ctrl \$1 \$2 2 height 0 800 100 ext;
#X obj 65 201 mmm-ctrl \$1 \$2 3 depth 0 800 100 ext;
#X obj 114 279 mmm-ctrl \$1 \$2 4 draw 0 2 0 ext;
#X msg 285 21 version 0.3.5;
#X connect 0 0 1 0;
#X connect 1 0 27 1;
#X connect 2 0 4 0;
#X connect 2 1 20 0;
#X connect 2 2 21 0;
#X connect 3 0 13 1;
#X connect 4 0 13 0;
#X connect 5 0 6 0;
#X connect 5 1 18 0;
#X connect 5 2 19 0;
#X connect 6 0 30 1;
#X connect 7 0 10 0;
#X connect 8 0 25 0;
#X connect 9 0 26 0;
#X connect 10 0 13 0;
#X connect 11 0 13 2;
#X connect 12 0 13 3;
#X connect 14 0 15 0;
#X connect 15 0 28 1;
#X connect 16 0 17 0;
#X connect 17 0 29 1;
#X connect 18 0 30 1;
#X connect 19 0 30 1;
#X connect 20 0 13 0;
#X connect 21 0 13 0;
#X connect 23 0 8 0;
#X connect 24 0 9 0;
#X connect 27 0 3 0;
#X connect 27 2 0 0;
#X connect 28 0 11 0;
#X connect 28 2 14 0;
#X connect 29 0 12 0;
#X connect 29 2 16 0;
#X connect 30 0 2 0;
#X connect 30 2 5 0;
