#N canvas 6 22 772 494 10;
#X obj 597 21 makesymbol %s;
#X obj 32 334 r gemmm;
#X obj 28 101 r~ 1-nothing;
#X obj 128 101 r~ 1-nothing;
#X obj 32 354 route \$3;
#X obj 227 446 curve 3;
#N canvas 0 22 193 152 hotpack 0;
#X obj 25 24 inlet;
#X obj 75 24 inlet;
#X obj 125 24 inlet;
#X obj 34 77 pack f f f;
#X obj 75 44 t b f;
#X obj 125 44 t b f;
#X obj 34 97 outlet;
#X connect 0 0 3 0;
#X connect 1 0 4 0;
#X connect 2 0 5 0;
#X connect 3 0 6 0;
#X connect 4 0 3 0;
#X connect 4 1 3 1;
#X connect 5 0 3 0;
#X connect 5 1 3 2;
#X restore 260 121 pd hotpack;
#N canvas 276 133 299 347 draw 0;
#X obj 26 60 sel 0 1 2 3 4 5 6 7 8;
#X obj 26 30 inlet;
#X msg 57 210 draw line;
#X msg 26 250 draw fill;
#X msg 41 230 draw point;
#X msg 72 190 draw linestrip;
#X msg 89 170 draw tri;
#X msg 104 150 draw tristrip;
#X msg 120 130 draw trifan;
#X msg 136 110 draw quad;
#X msg 152 90 draw quadstrip;
#X obj 223 300 outlet;
#X connect 0 0 3 0;
#X connect 0 1 4 0;
#X connect 0 2 2 0;
#X connect 0 3 5 0;
#X connect 0 4 6 0;
#X connect 0 5 7 0;
#X connect 0 6 8 0;
#X connect 0 7 9 0;
#X connect 0 8 10 0;
#X connect 1 0 0 0;
#X connect 2 0 11 0;
#X connect 3 0 11 0;
#X connect 4 0 11 0;
#X connect 5 0 11 0;
#X connect 6 0 11 0;
#X connect 7 0 11 0;
#X connect 8 0 11 0;
#X connect 9 0 11 0;
#X connect 10 0 11 0;
#X restore 28 281 pd draw;
#N canvas 276 133 297 366 draw 0;
#X obj 26 60 sel 0 1 2 3 4 5 6 7 8;
#X obj 26 30 inlet;
#X obj 223 300 symbol;
#X msg 26 250 fill;
#X msg 41 230 point;
#X msg 57 210 line;
#X msg 72 190 linestrip;
#X msg 89 170 tri;
#X msg 104 150 tristrip;
#X msg 120 130 trifan;
#X msg 136 110 quad;
#X msg 152 90 quadstrip;
#X obj 223 320 outlet;
#X connect 0 0 3 0;
#X connect 0 1 4 0;
#X connect 0 2 5 0;
#X connect 0 3 6 0;
#X connect 0 4 7 0;
#X connect 0 5 8 0;
#X connect 0 6 9 0;
#X connect 0 7 10 0;
#X connect 0 8 11 0;
#X connect 1 0 0 0;
#X connect 2 0 12 0;
#X connect 3 0 2 0;
#X connect 4 0 2 0;
#X connect 5 0 2 0;
#X connect 6 0 2 0;
#X connect 7 0 2 0;
#X connect 8 0 2 0;
#X connect 9 0 2 0;
#X connect 10 0 2 0;
#X connect 11 0 2 0;
#X restore 282 151 pd draw;
#X msg 73 251 res \$1;
#X msg 118 221 width \$1;
#N canvas 0 22 193 152 hotpack 0;
#X obj 25 24 inlet;
#X obj 75 24 inlet;
#X obj 125 24 inlet;
#X obj 34 77 pack f f f;
#X obj 75 44 t b f;
#X obj 125 44 t b f;
#X obj 34 97 outlet;
#X connect 0 0 3 0;
#X connect 1 0 4 0;
#X connect 2 0 5 0;
#X connect 3 0 6 0;
#X connect 4 0 3 0;
#X connect 4 1 3 1;
#X connect 5 0 3 0;
#X connect 5 1 3 2;
#X restore 268 248 pd hotpack;
#N canvas 0 22 193 152 hotpack 0;
#X obj 25 24 inlet;
#X obj 75 24 inlet;
#X obj 125 24 inlet;
#X obj 34 77 pack f f f;
#X obj 75 44 t b f;
#X obj 125 44 t b f;
#X obj 34 97 outlet;
#X connect 0 0 3 0;
#X connect 1 0 4 0;
#X connect 2 0 5 0;
#X connect 3 0 6 0;
#X connect 4 0 3 0;
#X connect 4 1 3 1;
#X connect 5 0 3 0;
#X connect 5 1 3 2;
#X restore 278 390 pd hotpack;
#X obj 597 61 makesymbol %s;
#X obj 597 101 makesymbol %s;
#X obj 597 141 makesymbol %s;
#X obj 597 181 makesymbol %s;
#X obj 597 221 makesymbol %s;
#X obj 597 261 makesymbol %s;
#X obj 597 301 makesymbol %s;
#X obj 597 341 makesymbol %s;
#X obj 353 41 * 0.08;
#X obj 353 81 * 0.08;
#X obj 353 121 * 0.08;
#X obj 353 161 * 0.08;
#X obj 353 201 * 0.08;
#X obj 353 241 * 0.08;
#X obj 353 281 * 0.08;
#X obj 353 321 * 0.08;
#X obj 353 361 * 0.08;
#X obj 694 21 * 0.08;
#X obj 694 61 * 0.08;
#X obj 694 101 * 0.08;
#X obj 694 141 * 0.08;
#X obj 694 181 * 0.08;
#X obj 694 221 * 0.08;
#X obj 694 261 * 0.08;
#X obj 694 301 * 0.08;
#X obj 694 341 * 0.08;
#X obj 28 21 mmm-module \$1 \$2 curve 12;
#X obj 28 81 r \$1-\$2L-r;
#X obj 128 81 r \$1-\$2R-r;
#X obj 28 121 s~ \$1-\$2L;
#X obj 128 121 s~ \$1-\$2R;
#X obj 353 21 mmm-ctrl \$1 \$2 4 X1 -50 50 0 ext;
#X obj 353 61 mmm-ctrl \$1 \$2 5 Y1 -50 50 0 ext;
#X obj 353 101 mmm-ctrl \$1 \$2 6 Z1 -50 50 0 ext;
#X obj 353 141 mmm-ctrl \$1 \$2 7 X2 -50 50 5 ext;
#X obj 353 181 mmm-ctrl \$1 \$2 8 Y2 -50 50 45 ext;
#X obj 353 221 mmm-ctrl \$1 \$2 9 Z2 -50 50 0 ext;
#X obj 353 261 mmm-ctrl \$1 \$2 10 X3 -50 50 50 ext;
#X obj 353 301 mmm-ctrl \$1 \$2 11 Y3 -50 50 50 ext;
#X obj 353 341 mmm-ctrl \$1 \$2 12 Z3 -50 50 0 ext;
#X obj 28 151 mmm-ctrl \$1 \$2 1 draw 0 8 0 ext;
#X obj 48 171 mmm-ctrl \$1 \$2 2 res 1 64 30 int;
#X obj 68 191 mmm-ctrl \$1 \$2 3 width 1 64 1 int;
#X msg 28 41 version 0.3.4;
#X connect 0 0 44 1;
#X connect 1 0 4 0;
#X connect 2 0 42 0;
#X connect 3 0 43 0;
#X connect 4 0 5 0;
#X connect 6 0 5 1;
#X connect 7 0 5 0;
#X connect 8 0 53 1;
#X connect 9 0 5 0;
#X connect 10 0 5 0;
#X connect 11 0 5 2;
#X connect 12 0 5 3;
#X connect 13 0 45 1;
#X connect 14 0 46 1;
#X connect 15 0 47 1;
#X connect 16 0 48 1;
#X connect 17 0 49 1;
#X connect 18 0 50 1;
#X connect 19 0 51 1;
#X connect 20 0 52 1;
#X connect 21 0 6 0;
#X connect 22 0 6 1;
#X connect 23 0 6 2;
#X connect 24 0 11 0;
#X connect 25 0 11 1;
#X connect 26 0 11 2;
#X connect 27 0 12 0;
#X connect 28 0 12 1;
#X connect 29 0 12 2;
#X connect 30 0 0 0;
#X connect 31 0 13 0;
#X connect 32 0 14 0;
#X connect 33 0 15 0;
#X connect 34 0 16 0;
#X connect 35 0 17 0;
#X connect 36 0 18 0;
#X connect 37 0 19 0;
#X connect 38 0 20 0;
#X connect 40 0 2 0;
#X connect 41 0 3 0;
#X connect 44 0 21 0;
#X connect 44 2 30 0;
#X connect 45 0 22 0;
#X connect 45 2 31 0;
#X connect 46 0 23 0;
#X connect 46 2 32 0;
#X connect 47 0 24 0;
#X connect 47 2 33 0;
#X connect 48 0 25 0;
#X connect 48 2 34 0;
#X connect 49 0 26 0;
#X connect 49 2 35 0;
#X connect 50 0 27 0;
#X connect 50 2 36 0;
#X connect 51 0 28 0;
#X connect 51 2 37 0;
#X connect 52 0 29 0;
#X connect 52 2 38 0;
#X connect 53 0 7 0;
#X connect 53 2 8 0;
#X connect 54 0 9 0;
#X connect 55 0 10 0;
