#N canvas 432 149 537 384 10;
#X obj 451 251 * 0.01;
#X obj 354 251 makesymbol %s;
#X obj 68 141 sel 0 1 2;
#X obj 103 271 * 0.01;
#X msg 68 161 draw fill;
#X obj 300 90 sel 0 1 2;
#X msg 300 110 symbol fill;
#X obj 15 236 r gemmm;
#X obj 28 71 r~ 1-nothing;
#X obj 128 71 r~ 1-nothing;
#X obj 15 256 route \$3;
#X msg 319 130 symbol point;
#X msg 338 150 symbol line;
#X msg 87 181 draw point;
#X msg 106 201 draw line;
#X obj 68 331 cylinder;
#X obj 28 21 mmm-module \$1 \$2 cylinder 3;
#X obj 28 51 r \$1-\$2L-r;
#X obj 128 51 r \$1-\$2R-r;
#X obj 28 91 s~ \$1-\$2L;
#X obj 128 91 s~ \$1-\$2R;
#X obj 103 251 mmm-ctrl \$1 \$2 1 size 0 800 100 ext;
#X obj 68 121 mmm-ctrl \$1 \$2 2 draw 0 2 0 ext;
#X obj 118 301 mmm-ctrl \$1 \$2 3 segments 0 100 24 int;
#X msg 285 20 version 0.3.4;
#X connect 0 0 1 0;
#X connect 1 0 21 1;
#X connect 2 0 4 0;
#X connect 2 1 13 0;
#X connect 2 2 14 0;
#X connect 3 0 15 1;
#X connect 4 0 15 0;
#X connect 5 0 6 0;
#X connect 5 1 11 0;
#X connect 5 2 12 0;
#X connect 6 0 22 1;
#X connect 7 0 10 0;
#X connect 8 0 19 0;
#X connect 9 0 20 0;
#X connect 10 0 15 0;
#X connect 11 0 22 1;
#X connect 12 0 22 1;
#X connect 13 0 15 0;
#X connect 14 0 15 0;
#X connect 17 0 8 0;
#X connect 18 0 9 0;
#X connect 21 0 3 0;
#X connect 21 2 0 0;
#X connect 22 0 2 0;
#X connect 22 2 5 0;
#X connect 23 0 15 2;
