#N canvas 20 22 781 570 10;
#X obj 28 71 r~ 1-nothing;
#X obj 128 71 r~ 1-nothing;
#X obj 498 163 * 0.01;
#X obj 401 163 makesymbol %s;
#X obj 32 376 r gemmm;
#X obj 579 213 * 0.01;
#X obj 482 213 makesymbol %s;
#X obj 658 243 * 0.01;
#X obj 561 243 makesymbol %s;
#X obj 391 83 sel 0 1;
#X msg 391 103 symbol off;
#X msg 413 123 symbol on;
#X obj 688 273 * 0.01;
#X obj 591 273 makesymbol %s;
#X obj 134 463 colorRGB 1 1 1;
#X obj 134 483 alpha;
#X obj 62 483 spigot;
#X obj 108 430 spigot;
#X obj 99 463 == 0;
#X obj 189 233 * 0.01;
#X obj 157 183 * 0.01;
#X obj 275 263 * 0.01;
#X obj 333 293 * 0.01;
#X obj 255 423 line;
#X obj 206 423 line;
#X obj 157 423 line;
#X obj 332 423 line;
#N canvas 567 372 268 190 send_gemmm 0;
#X obj 104 19 loadbang;
#X obj 25 99 list prepend;
#X obj 25 139 s gemmm;
#X obj 25 79 inlet;
#X obj 25 119 list trim;
#X obj 104 59 + 1;
#X obj 104 79 makefilename \$1-%d;
#X obj 104 39 f \$2;
#X connect 0 0 7 0;
#X connect 1 0 4 0;
#X connect 3 0 1 0;
#X connect 4 0 2 0;
#X connect 5 0 6 0;
#X connect 6 0 1 1;
#X connect 7 0 5 0;
#X restore 62 523 pd send_gemmm;
#X obj 157 343 hsv2rgb;
#N canvas 0 22 197 156 hotpack 0;
#X obj 25 24 inlet;
#X obj 75 24 inlet;
#X obj 125 24 inlet;
#X obj 34 77 pack f f f;
#X obj 75 44 t b f;
#X obj 125 44 t b f;
#X obj 34 97 outlet;
#X connect 0 0 3 0;
#X connect 1 0 4 0;
#X connect 2 0 5 0;
#X connect 3 0 6 0;
#X connect 4 0 3 0;
#X connect 4 1 3 1;
#X connect 5 0 3 0;
#X connect 5 1 3 2;
#X restore 157 323 pd hotpack;
#X obj 157 363 unpack f f f;
#X obj 157 383 change;
#X obj 206 383 change;
#X obj 255 383 change;
#X obj 332 403 pack;
#X obj 255 403 pack;
#X obj 206 403 pack;
#X obj 157 403 pack;
#X obj 28 21 mmm-module \$1 \$2 colorHSV 6;
#X obj 28 51 r \$1-\$2L-r;
#X obj 128 51 r \$1-\$2R-r;
#X obj 28 91 s~ \$1-\$2L;
#X obj 128 91 s~ \$1-\$2R;
#X obj 99 123 mmm-ctrl \$1 \$2 1 colorHSV 0 1 1 ext;
#X obj 157 163 mmm-ctrl \$1 \$2 2 hue 0 100 100 ext;
#X obj 189 213 mmm-ctrl \$1 \$2 3 saturation 0 100 100 ext;
#X obj 275 243 mmm-ctrl \$1 \$2 4 luminance 0 100 100 ext;
#X obj 333 273 mmm-ctrl \$1 \$2 5 alpha 0 100 100 ext;
#X obj 289 317 mmm-ctrl \$1 \$2 6 glide 0 16 0 int;
#X obj 32 396 route \$1-\$2;
#X obj 289 337 mmm-ticks2ms;
#X obj 99 153 t a;
#X msg 295 21 version 0.3.7;
#X connect 0 0 41 0;
#X connect 1 0 42 0;
#X connect 2 0 3 0;
#X connect 3 0 44 1;
#X connect 4 0 49 0;
#X connect 5 0 6 0;
#X connect 6 0 45 1;
#X connect 7 0 8 0;
#X connect 8 0 46 1;
#X connect 9 0 10 0;
#X connect 9 1 11 0;
#X connect 10 0 43 1;
#X connect 11 0 43 1;
#X connect 12 0 13 0;
#X connect 13 0 47 1;
#X connect 14 0 15 0;
#X connect 15 0 27 0;
#X connect 16 0 27 0;
#X connect 17 0 14 0;
#X connect 18 0 16 1;
#X connect 19 0 29 1;
#X connect 20 0 29 0;
#X connect 21 0 29 2;
#X connect 22 0 34 0;
#X connect 23 0 14 3;
#X connect 24 0 14 2;
#X connect 25 0 14 1;
#X connect 26 0 14 4;
#X connect 28 0 30 0;
#X connect 29 0 28 0;
#X connect 30 0 31 0;
#X connect 30 1 32 0;
#X connect 30 2 33 0;
#X connect 31 0 37 0;
#X connect 32 0 36 0;
#X connect 33 0 35 0;
#X connect 34 0 26 0;
#X connect 35 0 23 0;
#X connect 36 0 24 0;
#X connect 37 0 25 0;
#X connect 39 0 0 0;
#X connect 40 0 1 0;
#X connect 43 0 51 0;
#X connect 43 2 9 0;
#X connect 44 0 20 0;
#X connect 44 2 2 0;
#X connect 45 0 19 0;
#X connect 45 2 5 0;
#X connect 46 0 21 0;
#X connect 46 2 7 0;
#X connect 47 0 22 0;
#X connect 47 2 12 0;
#X connect 48 0 50 0;
#X connect 49 0 16 0;
#X connect 49 0 17 0;
#X connect 50 0 34 1;
#X connect 50 0 35 1;
#X connect 50 0 36 1;
#X connect 50 0 37 1;
#X connect 51 0 18 0;
#X connect 51 0 17 1;
