#N canvas 29 22 501 409 10;
#X obj 135 359 cube;
#X obj 397 121 * 0.01;
#X obj 300 121 makesymbol %s;
#X obj 293 332 * 0.01;
#X msg 119 285 draw fill;
#X msg 320 191 symbol fill;
#X obj 28 263 r gemmm;
#X obj 28 71 r~ 1-nothing;
#X obj 128 71 r~ 1-nothing;
#X obj 28 283 route \$3;
#X msg 137 305 draw point;
#X msg 156 325 draw line;
#X msg 339 211 symbol point;
#X msg 358 231 symbol line;
#X msg 102 265 draw default;
#X msg 300 171 symbol default;
#X obj 102 245 sel 1 2 3 4;
#X obj 300 151 sel 1 2 3 4;
#X msg 307 300 draw quads;
#X obj 28 21 mmm-module \$1 \$2 cube 2;
#X obj 28 51 r \$1-\$2L-r;
#X obj 128 51 r \$1-\$2R-r;
#X obj 28 91 s~ \$1-\$2L;
#X obj 128 91 s~ \$1-\$2R;
#X obj 28 121 mmm-ctrl \$1 \$2 1 size 0 800 100 ext;
#X obj 28 182 mmm-ctrl \$1 \$2 2 draw 1 4 1 ext;
#X msg 285 21 version 0.3.6;
#X connect 1 0 2 0;
#X connect 2 0 24 1;
#X connect 3 0 0 1;
#X connect 4 0 0 0;
#X connect 5 0 25 1;
#X connect 6 0 9 0;
#X connect 7 0 22 0;
#X connect 8 0 23 0;
#X connect 9 0 0 0;
#X connect 10 0 0 0;
#X connect 11 0 0 0;
#X connect 12 0 25 1;
#X connect 13 0 25 1;
#X connect 14 0 0 0;
#X connect 15 0 25 1;
#X connect 16 0 14 0;
#X connect 16 1 4 0;
#X connect 16 2 10 0;
#X connect 16 3 11 0;
#X connect 17 0 15 0;
#X connect 17 1 5 0;
#X connect 17 2 12 0;
#X connect 17 3 13 0;
#X connect 20 0 7 0;
#X connect 21 0 8 0;
#X connect 24 0 3 0;
#X connect 24 2 1 0;
#X connect 25 0 16 0;
#X connect 25 2 17 0;
