#N canvas 20 22 625 482 10;
#X obj 165 356 r gemmm;
#X obj 239 41 r~ 1-nothing;
#X obj 339 41 r~ 1-nothing;
#X obj 165 376 route \$3;
#N canvas 274 22 267 333 draw 0;
#X obj 36 30 inlet;
#X obj 183 250 symbol;
#X msg 36 210 fill;
#X msg 52 190 point;
#X msg 68 170 line;
#X obj 183 270 outlet;
#X msg 84 150 line1;
#X msg 101 130 line2;
#X msg 117 110 line3;
#X msg 133 90 line4;
#X obj 36 60 sel 0 1 2 3 4 5 6;
#X connect 0 0 10 0;
#X connect 1 0 5 0;
#X connect 2 0 1 0;
#X connect 3 0 1 0;
#X connect 4 0 1 0;
#X connect 6 0 1 0;
#X connect 7 0 1 0;
#X connect 8 0 1 0;
#X connect 9 0 1 0;
#X connect 10 0 2 0;
#X connect 10 1 3 0;
#X connect 10 2 4 0;
#X connect 10 3 6 0;
#X connect 10 4 7 0;
#X connect 10 5 8 0;
#X connect 10 6 9 0;
#X restore 282 91 pd draw;
#N canvas 274 22 271 337 draw 0;
#X obj 36 30 inlet;
#X obj 183 250 symbol;
#X msg 36 210 fill;
#X msg 52 190 point;
#X msg 68 170 line;
#X obj 183 300 outlet;
#X msg 84 150 line1;
#X msg 101 130 line2;
#X msg 117 110 line3;
#X msg 133 90 line4;
#X obj 36 60 sel 0 1 2 3 4 5 6;
#X msg 183 270 draw \$1;
#X connect 0 0 10 0;
#X connect 1 0 11 0;
#X connect 2 0 1 0;
#X connect 3 0 1 0;
#X connect 4 0 1 0;
#X connect 6 0 1 0;
#X connect 7 0 1 0;
#X connect 8 0 1 0;
#X connect 9 0 1 0;
#X connect 10 0 2 0;
#X connect 10 1 3 0;
#X connect 10 2 4 0;
#X connect 10 3 6 0;
#X connect 10 4 7 0;
#X connect 10 5 8 0;
#X connect 10 6 9 0;
#X connect 11 0 5 0;
#X restore 28 111 pd draw;
#N canvas 0 22 201 160 hotpack 0;
#X obj 25 24 inlet;
#X obj 75 24 inlet;
#X obj 75 44 t b f;
#X obj 34 97 outlet;
#X obj 34 77 pack;
#X connect 0 0 4 0;
#X connect 1 0 2 0;
#X connect 2 0 4 0;
#X connect 2 1 4 1;
#X connect 4 0 3 0;
#X restore 48 181 pd hotpack;
#X msg 48 201 grid \$1 \$2;
#X obj 28 429 curve3d 5 5;
#X obj 68 251 sel 1;
#X obj 158 281 sel 1;
#N canvas 253 49 689 330 forme1 0;
#X obj 35 301 outlet;
#X msg 34 47 set 0 0 0 0 \$1;
#X msg 144 47 set 0 1 0 1 \$1;
#X msg 254 47 set 0 2 0 2 \$1;
#X msg 364 47 set 0 3 0 3 \$1;
#X msg 474 47 set 0 4 0 4 \$1;
#X msg 44 97 set 1 0 1 0 \$1;
#X msg 154 97 set 1 1 1 1 \$1;
#X msg 264 97 set 1 2 1 2 \$1;
#X msg 374 97 set 1 3 1 3 \$1;
#X msg 484 97 set 1 4 1 4 \$1;
#X msg 54 147 set 2 0 2 0 \$1;
#X msg 164 147 set 2 1 2 1 \$1;
#X msg 274 147 set 2 2 2 2 \$1;
#X msg 384 147 set 2 3 2 3 \$1;
#X msg 494 147 set 2 4 2 4 \$1;
#X msg 64 197 set 3 0 3 0 \$1;
#X msg 174 197 set 3 1 3 1 \$1;
#X msg 284 197 set 3 2 3 2 \$1;
#X msg 394 197 set 3 3 3 3 \$1;
#X msg 504 197 set 3 4 3 4 \$1;
#X msg 74 247 set 4 0 4 0 \$1;
#X msg 184 247 set 4 1 4 1 \$1;
#X msg 294 247 set 4 2 4 2 \$1;
#X msg 404 247 set 4 3 4 3 \$1;
#X msg 514 247 set 4 4 4 4 \$1;
#N canvas 0 22 213 180 rand 0;
#X obj 28 44 random 100;
#X obj 28 104 line;
#X obj 28 64 / 20;
#X obj 100 64 r \$0-line;
#X obj 28 24 r \$0-forme1;
#X obj 28 124 outlet;
#X obj 28 84 pack;
#X connect 0 0 2 0;
#X connect 1 0 5 0;
#X connect 2 0 6 0;
#X connect 3 0 6 1;
#X connect 4 0 0 0;
#X connect 6 0 1 0;
#X restore 34 27 pd rand;
#N canvas 0 22 209 176 rand 0;
#X obj 28 44 random 100;
#X obj 28 104 line;
#X obj 28 64 / 20;
#X obj 100 64 r \$0-line;
#X obj 28 24 r \$0-forme1;
#X obj 28 124 outlet;
#X obj 28 84 pack;
#X connect 0 0 2 0;
#X connect 1 0 5 0;
#X connect 2 0 6 0;
#X connect 3 0 6 1;
#X connect 4 0 0 0;
#X connect 6 0 1 0;
#X restore 144 27 pd rand;
#N canvas 0 22 209 176 rand 0;
#X obj 28 44 random 100;
#X obj 28 104 line;
#X obj 28 64 / 20;
#X obj 100 64 r \$0-line;
#X obj 28 24 r \$0-forme1;
#X obj 28 124 outlet;
#X obj 28 84 pack;
#X connect 0 0 2 0;
#X connect 1 0 5 0;
#X connect 2 0 6 0;
#X connect 3 0 6 1;
#X connect 4 0 0 0;
#X connect 6 0 1 0;
#X restore 254 27 pd rand;
#N canvas 0 22 209 176 rand 0;
#X obj 28 44 random 100;
#X obj 28 104 line;
#X obj 28 64 / 20;
#X obj 100 64 r \$0-line;
#X obj 28 24 r \$0-forme1;
#X obj 28 124 outlet;
#X obj 28 84 pack;
#X connect 0 0 2 0;
#X connect 1 0 5 0;
#X connect 2 0 6 0;
#X connect 3 0 6 1;
#X connect 4 0 0 0;
#X connect 6 0 1 0;
#X restore 364 27 pd rand;
#N canvas 0 22 209 176 rand 0;
#X obj 28 44 random 100;
#X obj 28 104 line;
#X obj 28 64 / 20;
#X obj 100 64 r \$0-line;
#X obj 28 24 r \$0-forme1;
#X obj 28 124 outlet;
#X obj 28 84 pack;
#X connect 0 0 2 0;
#X connect 1 0 5 0;
#X connect 2 0 6 0;
#X connect 3 0 6 1;
#X connect 4 0 0 0;
#X connect 6 0 1 0;
#X restore 474 27 pd rand;
#N canvas 0 22 209 176 rand 0;
#X obj 28 44 random 100;
#X obj 28 104 line;
#X obj 28 64 / 20;
#X obj 100 64 r \$0-line;
#X obj 28 24 r \$0-forme1;
#X obj 28 124 outlet;
#X obj 28 84 pack;
#X connect 0 0 2 0;
#X connect 1 0 5 0;
#X connect 2 0 6 0;
#X connect 3 0 6 1;
#X connect 4 0 0 0;
#X connect 6 0 1 0;
#X restore 44 77 pd rand;
#N canvas 0 22 209 176 rand 0;
#X obj 28 44 random 100;
#X obj 28 104 line;
#X obj 28 64 / 20;
#X obj 100 64 r \$0-line;
#X obj 28 24 r \$0-forme1;
#X obj 28 124 outlet;
#X obj 28 84 pack;
#X connect 0 0 2 0;
#X connect 1 0 5 0;
#X connect 2 0 6 0;
#X connect 3 0 6 1;
#X connect 4 0 0 0;
#X connect 6 0 1 0;
#X restore 154 77 pd rand;
#N canvas 0 22 209 176 rand 0;
#X obj 28 44 random 100;
#X obj 28 104 line;
#X obj 28 64 / 20;
#X obj 100 64 r \$0-line;
#X obj 28 24 r \$0-forme1;
#X obj 28 124 outlet;
#X obj 28 84 pack;
#X connect 0 0 2 0;
#X connect 1 0 5 0;
#X connect 2 0 6 0;
#X connect 3 0 6 1;
#X connect 4 0 0 0;
#X connect 6 0 1 0;
#X restore 264 77 pd rand;
#N canvas 0 22 209 176 rand 0;
#X obj 28 44 random 100;
#X obj 28 104 line;
#X obj 28 64 / 20;
#X obj 100 64 r \$0-line;
#X obj 28 24 r \$0-forme1;
#X obj 28 124 outlet;
#X obj 28 84 pack;
#X connect 0 0 2 0;
#X connect 1 0 5 0;
#X connect 2 0 6 0;
#X connect 3 0 6 1;
#X connect 4 0 0 0;
#X connect 6 0 1 0;
#X restore 374 77 pd rand;
#N canvas 0 22 209 176 rand 0;
#X obj 28 44 random 100;
#X obj 28 104 line;
#X obj 28 64 / 20;
#X obj 100 64 r \$0-line;
#X obj 28 24 r \$0-forme1;
#X obj 28 124 outlet;
#X obj 28 84 pack;
#X connect 0 0 2 0;
#X connect 1 0 5 0;
#X connect 2 0 6 0;
#X connect 3 0 6 1;
#X connect 4 0 0 0;
#X connect 6 0 1 0;
#X restore 484 77 pd rand;
#N canvas 0 22 209 176 rand 0;
#X obj 28 44 random 100;
#X obj 28 104 line;
#X obj 28 64 / 20;
#X obj 100 64 r \$0-line;
#X obj 28 24 r \$0-forme1;
#X obj 28 124 outlet;
#X obj 28 84 pack;
#X connect 0 0 2 0;
#X connect 1 0 5 0;
#X connect 2 0 6 0;
#X connect 3 0 6 1;
#X connect 4 0 0 0;
#X connect 6 0 1 0;
#X restore 54 127 pd rand;
#N canvas 0 22 209 176 rand 0;
#X obj 28 44 random 100;
#X obj 28 104 line;
#X obj 28 64 / 20;
#X obj 100 64 r \$0-line;
#X obj 28 24 r \$0-forme1;
#X obj 28 124 outlet;
#X obj 28 84 pack;
#X connect 0 0 2 0;
#X connect 1 0 5 0;
#X connect 2 0 6 0;
#X connect 3 0 6 1;
#X connect 4 0 0 0;
#X connect 6 0 1 0;
#X restore 164 127 pd rand;
#N canvas 0 22 209 176 rand 0;
#X obj 28 44 random 100;
#X obj 28 104 line;
#X obj 28 64 / 20;
#X obj 100 64 r \$0-line;
#X obj 28 24 r \$0-forme1;
#X obj 28 124 outlet;
#X obj 28 84 pack;
#X connect 0 0 2 0;
#X connect 1 0 5 0;
#X connect 2 0 6 0;
#X connect 3 0 6 1;
#X connect 4 0 0 0;
#X connect 6 0 1 0;
#X restore 274 127 pd rand;
#N canvas 0 22 209 176 rand 0;
#X obj 28 44 random 100;
#X obj 28 104 line;
#X obj 28 64 / 20;
#X obj 100 64 r \$0-line;
#X obj 28 24 r \$0-forme1;
#X obj 28 124 outlet;
#X obj 28 84 pack;
#X connect 0 0 2 0;
#X connect 1 0 5 0;
#X connect 2 0 6 0;
#X connect 3 0 6 1;
#X connect 4 0 0 0;
#X connect 6 0 1 0;
#X restore 384 127 pd rand;
#N canvas 0 22 209 176 rand 0;
#X obj 28 44 random 100;
#X obj 28 104 line;
#X obj 28 64 / 20;
#X obj 100 64 r \$0-line;
#X obj 28 24 r \$0-forme1;
#X obj 28 124 outlet;
#X obj 28 84 pack;
#X connect 0 0 2 0;
#X connect 1 0 5 0;
#X connect 2 0 6 0;
#X connect 3 0 6 1;
#X connect 4 0 0 0;
#X connect 6 0 1 0;
#X restore 494 127 pd rand;
#N canvas 0 22 209 176 rand 0;
#X obj 28 44 random 100;
#X obj 28 104 line;
#X obj 28 64 / 20;
#X obj 100 64 r \$0-line;
#X obj 28 24 r \$0-forme1;
#X obj 28 124 outlet;
#X obj 28 84 pack;
#X connect 0 0 2 0;
#X connect 1 0 5 0;
#X connect 2 0 6 0;
#X connect 3 0 6 1;
#X connect 4 0 0 0;
#X connect 6 0 1 0;
#X restore 64 177 pd rand;
#N canvas 0 22 209 176 rand 0;
#X obj 28 44 random 100;
#X obj 28 104 line;
#X obj 28 64 / 20;
#X obj 100 64 r \$0-line;
#X obj 28 24 r \$0-forme1;
#X obj 28 124 outlet;
#X obj 28 84 pack;
#X connect 0 0 2 0;
#X connect 1 0 5 0;
#X connect 2 0 6 0;
#X connect 3 0 6 1;
#X connect 4 0 0 0;
#X connect 6 0 1 0;
#X restore 174 177 pd rand;
#N canvas 0 22 209 176 rand 0;
#X obj 28 44 random 100;
#X obj 28 104 line;
#X obj 28 64 / 20;
#X obj 100 64 r \$0-line;
#X obj 28 24 r \$0-forme1;
#X obj 28 124 outlet;
#X obj 28 84 pack;
#X connect 0 0 2 0;
#X connect 1 0 5 0;
#X connect 2 0 6 0;
#X connect 3 0 6 1;
#X connect 4 0 0 0;
#X connect 6 0 1 0;
#X restore 284 177 pd rand;
#N canvas 0 22 209 176 rand 0;
#X obj 28 44 random 100;
#X obj 28 104 line;
#X obj 28 64 / 20;
#X obj 100 64 r \$0-line;
#X obj 28 24 r \$0-forme1;
#X obj 28 124 outlet;
#X obj 28 84 pack;
#X connect 0 0 2 0;
#X connect 1 0 5 0;
#X connect 2 0 6 0;
#X connect 3 0 6 1;
#X connect 4 0 0 0;
#X connect 6 0 1 0;
#X restore 394 177 pd rand;
#N canvas 0 22 209 176 rand 0;
#X obj 28 44 random 100;
#X obj 28 104 line;
#X obj 28 64 / 20;
#X obj 100 64 r \$0-line;
#X obj 28 24 r \$0-forme1;
#X obj 28 124 outlet;
#X obj 28 84 pack;
#X connect 0 0 2 0;
#X connect 1 0 5 0;
#X connect 2 0 6 0;
#X connect 3 0 6 1;
#X connect 4 0 0 0;
#X connect 6 0 1 0;
#X restore 504 177 pd rand;
#N canvas 0 22 209 176 rand 0;
#X obj 28 44 random 100;
#X obj 28 104 line;
#X obj 28 64 / 20;
#X obj 100 64 r \$0-line;
#X obj 28 24 r \$0-forme1;
#X obj 28 124 outlet;
#X obj 28 84 pack;
#X connect 0 0 2 0;
#X connect 1 0 5 0;
#X connect 2 0 6 0;
#X connect 3 0 6 1;
#X connect 4 0 0 0;
#X connect 6 0 1 0;
#X restore 74 227 pd rand;
#N canvas 0 22 213 180 rand 0;
#X obj 28 44 random 100;
#X obj 28 104 line;
#X obj 28 64 / 20;
#X obj 100 64 r \$0-line;
#X obj 28 24 r \$0-forme1;
#X obj 28 124 outlet;
#X obj 28 84 pack;
#X connect 0 0 2 0;
#X connect 1 0 5 0;
#X connect 2 0 6 0;
#X connect 3 0 6 1;
#X connect 4 0 0 0;
#X connect 6 0 1 0;
#X restore 184 227 pd rand;
#N canvas 0 22 213 180 rand 0;
#X obj 28 44 random 100;
#X obj 28 104 line;
#X obj 28 64 / 20;
#X obj 100 64 r \$0-line;
#X obj 28 24 r \$0-forme1;
#X obj 28 124 outlet;
#X obj 28 84 pack;
#X connect 0 0 2 0;
#X connect 1 0 5 0;
#X connect 2 0 6 0;
#X connect 3 0 6 1;
#X connect 4 0 0 0;
#X connect 6 0 1 0;
#X restore 294 227 pd rand;
#N canvas 0 22 213 180 rand 0;
#X obj 28 44 random 100;
#X obj 28 104 line;
#X obj 28 64 / 20;
#X obj 100 64 r \$0-line;
#X obj 28 24 r \$0-forme1;
#X obj 28 124 outlet;
#X obj 28 84 pack;
#X connect 0 0 2 0;
#X connect 1 0 5 0;
#X connect 2 0 6 0;
#X connect 3 0 6 1;
#X connect 4 0 0 0;
#X connect 6 0 1 0;
#X restore 404 227 pd rand;
#N canvas 0 22 217 184 rand 0;
#X obj 28 44 random 100;
#X obj 28 104 line;
#X obj 28 64 / 20;
#X obj 100 64 r \$0-line;
#X obj 28 24 r \$0-forme1;
#X obj 28 124 outlet;
#X obj 28 84 pack;
#X connect 0 0 2 0;
#X connect 1 0 5 0;
#X connect 2 0 6 0;
#X connect 3 0 6 1;
#X connect 4 0 0 0;
#X connect 6 0 1 0;
#X restore 514 227 pd rand;
#X connect 1 0 0 0;
#X connect 2 0 0 0;
#X connect 3 0 0 0;
#X connect 4 0 0 0;
#X connect 5 0 0 0;
#X connect 6 0 0 0;
#X connect 7 0 0 0;
#X connect 8 0 0 0;
#X connect 9 0 0 0;
#X connect 10 0 0 0;
#X connect 11 0 0 0;
#X connect 12 0 0 0;
#X connect 13 0 0 0;
#X connect 14 0 0 0;
#X connect 15 0 0 0;
#X connect 16 0 0 0;
#X connect 17 0 0 0;
#X connect 18 0 0 0;
#X connect 19 0 0 0;
#X connect 20 0 0 0;
#X connect 21 0 0 0;
#X connect 22 0 0 0;
#X connect 23 0 0 0;
#X connect 24 0 0 0;
#X connect 25 0 0 0;
#X connect 26 0 1 0;
#X connect 27 0 2 0;
#X connect 28 0 3 0;
#X connect 29 0 4 0;
#X connect 30 0 5 0;
#X connect 31 0 6 0;
#X connect 32 0 7 0;
#X connect 33 0 8 0;
#X connect 34 0 9 0;
#X connect 35 0 10 0;
#X connect 36 0 11 0;
#X connect 37 0 12 0;
#X connect 38 0 13 0;
#X connect 39 0 14 0;
#X connect 40 0 15 0;
#X connect 41 0 16 0;
#X connect 42 0 17 0;
#X connect 43 0 18 0;
#X connect 44 0 19 0;
#X connect 45 0 20 0;
#X connect 46 0 21 0;
#X connect 47 0 22 0;
#X connect 48 0 23 0;
#X connect 49 0 24 0;
#X connect 50 0 25 0;
#X restore 68 291 pd forme1;
#X obj 68 271 s \$0-forme1;
#X obj 158 301 s \$0-forme2;
#X obj 246 351 s \$0-line;
#N canvas 0 22 395 313 ticks2ms 0;
#X obj 80 51 r netpd-receive;
#X obj 80 91 route mmm;
#X obj 80 111 route bpm;
#X obj 88 71 r data.state;
#X obj 211 51 loadbang;
#X msg 211 71 \; data.getstate mmm bpm;
#X obj 80 151 /;
#X obj 80 171 t b f;
#X obj 10 21 inlet;
#X obj 10 251 outlet;
#X msg 80 131 15000 \$1;
#X obj 10 221 *;
#X connect 0 0 1 0;
#X connect 1 0 2 0;
#X connect 2 0 10 0;
#X connect 3 0 1 0;
#X connect 4 0 5 0;
#X connect 6 0 7 0;
#X connect 7 0 11 0;
#X connect 7 1 11 1;
#X connect 8 0 11 0;
#X connect 10 0 6 0;
#X connect 11 0 9 0;
#X restore 246 331 pd ticks2ms;
#N canvas 153 153 764 370 forme2 0;
#N canvas 0 22 325 282 tripleRnd 0;
#X obj 12 103 random 100;
#X obj 12 143 pack 0 1000;
#X obj 12 163 line;
#X obj 12 233 outlet;
#X obj 102 103 random 100;
#X obj 102 143 pack 0 1000;
#X obj 102 163 line;
#X obj 212 103 random 100;
#X obj 212 143 pack 0 1000;
#X obj 212 163 line;
#X obj 12 203 pack f f f;
#X obj 12 22 r \$0-forme2;
#X obj 207 22 r \$0-line;
#X obj 12 123 * 0.05;
#X obj 102 123 * 0.05;
#X obj 212 123 * 0.05;
#X obj 12 52 t b b b;
#X connect 0 0 13 0;
#X connect 1 0 2 0;
#X connect 2 0 10 0;
#X connect 4 0 14 0;
#X connect 5 0 6 0;
#X connect 6 0 10 1;
#X connect 7 0 15 0;
#X connect 8 0 9 0;
#X connect 9 0 10 2;
#X connect 10 0 3 0;
#X connect 11 0 16 0;
#X connect 12 0 1 1;
#X connect 12 0 5 1;
#X connect 12 0 8 1;
#X connect 13 0 1 0;
#X connect 14 0 5 0;
#X connect 15 0 8 0;
#X connect 16 0 0 0;
#X connect 16 1 4 0;
#X connect 16 2 7 0;
#X restore 28 32 pd tripleRnd;
#X msg 48 152 set 2 0 \$1 \$2 \$3;
#X msg 178 152 set 2 1 \$1 \$2 \$3;
#X msg 308 152 set 2 2 \$1 \$2 \$3;
#X msg 298 102 set 1 2 \$1 \$2 \$3;
#X msg 288 52 set 0 2 \$1 \$2 \$3;
#X msg 158 52 set 0 1 \$1 \$2 \$3;
#X msg 28 52 set 0 0 \$1 \$2 \$3;
#X msg 38 102 set 1 0 \$1 \$2 \$3;
#X msg 168 102 set 1 1 \$1 \$2 \$3;
#X msg 68 202 set 3 0 \$1 \$2 \$3;
#X msg 198 202 set 3 1 \$1 \$2 \$3;
#X msg 328 202 set 3 2 \$1 \$2 \$3;
#X msg 418 52 set 0 3 \$1 \$2 \$3;
#X msg 428 102 set 1 3 \$1 \$2 \$3;
#X msg 438 152 set 2 3 \$1 \$2 \$3;
#X msg 458 202 set 3 3 \$1 \$2 \$3;
#X msg 548 52 set 0 4 \$1 \$2 \$3;
#X msg 558 102 set 1 4 \$1 \$2 \$3;
#X msg 568 152 set 2 4 \$1 \$2 \$3;
#X msg 588 202 set 3 4 \$1 \$2 \$3;
#X msg 88 262 set 4 0 \$1 \$2 \$3;
#X msg 218 262 set 4 1 \$1 \$2 \$3;
#X msg 348 262 set 4 2 \$1 \$2 \$3;
#X msg 478 262 set 4 3 \$1 \$2 \$3;
#X msg 608 262 set 4 4 \$1 \$2 \$3;
#X obj 289 313 outlet;
#N canvas 0 22 321 278 tripleRnd 0;
#X obj 12 103 random 100;
#X obj 12 143 pack 0 1000;
#X obj 12 163 line;
#X obj 12 233 outlet;
#X obj 102 103 random 100;
#X obj 102 143 pack 0 1000;
#X obj 102 163 line;
#X obj 212 103 random 100;
#X obj 212 143 pack 0 1000;
#X obj 212 163 line;
#X obj 12 203 pack f f f;
#X obj 12 22 r \$0-forme2;
#X obj 207 22 r \$0-line;
#X obj 12 123 * 0.05;
#X obj 102 123 * 0.05;
#X obj 212 123 * 0.05;
#X obj 12 52 t b b b;
#X connect 0 0 13 0;
#X connect 1 0 2 0;
#X connect 2 0 10 0;
#X connect 4 0 14 0;
#X connect 5 0 6 0;
#X connect 6 0 10 1;
#X connect 7 0 15 0;
#X connect 8 0 9 0;
#X connect 9 0 10 2;
#X connect 10 0 3 0;
#X connect 11 0 16 0;
#X connect 12 0 1 1;
#X connect 12 0 5 1;
#X connect 12 0 8 1;
#X connect 13 0 1 0;
#X connect 14 0 5 0;
#X connect 15 0 8 0;
#X connect 16 0 0 0;
#X connect 16 1 4 0;
#X connect 16 2 7 0;
#X restore 158 32 pd tripleRnd;
#N canvas 0 22 321 278 tripleRnd 0;
#X obj 12 103 random 100;
#X obj 12 143 pack 0 1000;
#X obj 12 163 line;
#X obj 12 233 outlet;
#X obj 102 103 random 100;
#X obj 102 143 pack 0 1000;
#X obj 102 163 line;
#X obj 212 103 random 100;
#X obj 212 143 pack 0 1000;
#X obj 212 163 line;
#X obj 12 203 pack f f f;
#X obj 12 22 r \$0-forme2;
#X obj 207 22 r \$0-line;
#X obj 12 123 * 0.05;
#X obj 102 123 * 0.05;
#X obj 212 123 * 0.05;
#X obj 12 52 t b b b;
#X connect 0 0 13 0;
#X connect 1 0 2 0;
#X connect 2 0 10 0;
#X connect 4 0 14 0;
#X connect 5 0 6 0;
#X connect 6 0 10 1;
#X connect 7 0 15 0;
#X connect 8 0 9 0;
#X connect 9 0 10 2;
#X connect 10 0 3 0;
#X connect 11 0 16 0;
#X connect 12 0 1 1;
#X connect 12 0 5 1;
#X connect 12 0 8 1;
#X connect 13 0 1 0;
#X connect 14 0 5 0;
#X connect 15 0 8 0;
#X connect 16 0 0 0;
#X connect 16 1 4 0;
#X connect 16 2 7 0;
#X restore 288 32 pd tripleRnd;
#N canvas 0 22 321 278 tripleRnd 0;
#X obj 12 103 random 100;
#X obj 12 143 pack 0 1000;
#X obj 12 163 line;
#X obj 12 233 outlet;
#X obj 102 103 random 100;
#X obj 102 143 pack 0 1000;
#X obj 102 163 line;
#X obj 212 103 random 100;
#X obj 212 143 pack 0 1000;
#X obj 212 163 line;
#X obj 12 203 pack f f f;
#X obj 12 22 r \$0-forme2;
#X obj 207 22 r \$0-line;
#X obj 12 123 * 0.05;
#X obj 102 123 * 0.05;
#X obj 212 123 * 0.05;
#X obj 12 52 t b b b;
#X connect 0 0 13 0;
#X connect 1 0 2 0;
#X connect 2 0 10 0;
#X connect 4 0 14 0;
#X connect 5 0 6 0;
#X connect 6 0 10 1;
#X connect 7 0 15 0;
#X connect 8 0 9 0;
#X connect 9 0 10 2;
#X connect 10 0 3 0;
#X connect 11 0 16 0;
#X connect 12 0 1 1;
#X connect 12 0 5 1;
#X connect 12 0 8 1;
#X connect 13 0 1 0;
#X connect 14 0 5 0;
#X connect 15 0 8 0;
#X connect 16 0 0 0;
#X connect 16 1 4 0;
#X connect 16 2 7 0;
#X restore 418 32 pd tripleRnd;
#N canvas 0 22 321 278 tripleRnd 0;
#X obj 12 103 random 100;
#X obj 12 143 pack 0 1000;
#X obj 12 163 line;
#X obj 12 233 outlet;
#X obj 102 103 random 100;
#X obj 102 143 pack 0 1000;
#X obj 102 163 line;
#X obj 212 103 random 100;
#X obj 212 143 pack 0 1000;
#X obj 212 163 line;
#X obj 12 203 pack f f f;
#X obj 12 22 r \$0-forme2;
#X obj 207 22 r \$0-line;
#X obj 12 123 * 0.05;
#X obj 102 123 * 0.05;
#X obj 212 123 * 0.05;
#X obj 12 52 t b b b;
#X connect 0 0 13 0;
#X connect 1 0 2 0;
#X connect 2 0 10 0;
#X connect 4 0 14 0;
#X connect 5 0 6 0;
#X connect 6 0 10 1;
#X connect 7 0 15 0;
#X connect 8 0 9 0;
#X connect 9 0 10 2;
#X connect 10 0 3 0;
#X connect 11 0 16 0;
#X connect 12 0 1 1;
#X connect 12 0 5 1;
#X connect 12 0 8 1;
#X connect 13 0 1 0;
#X connect 14 0 5 0;
#X connect 15 0 8 0;
#X connect 16 0 0 0;
#X connect 16 1 4 0;
#X connect 16 2 7 0;
#X restore 548 32 pd tripleRnd;
#N canvas 0 22 321 278 tripleRnd 0;
#X obj 12 103 random 100;
#X obj 12 143 pack 0 1000;
#X obj 12 163 line;
#X obj 12 233 outlet;
#X obj 102 103 random 100;
#X obj 102 143 pack 0 1000;
#X obj 102 163 line;
#X obj 212 103 random 100;
#X obj 212 143 pack 0 1000;
#X obj 212 163 line;
#X obj 12 203 pack f f f;
#X obj 12 22 r \$0-forme2;
#X obj 207 22 r \$0-line;
#X obj 12 123 * 0.05;
#X obj 102 123 * 0.05;
#X obj 212 123 * 0.05;
#X obj 12 52 t b b b;
#X connect 0 0 13 0;
#X connect 1 0 2 0;
#X connect 2 0 10 0;
#X connect 4 0 14 0;
#X connect 5 0 6 0;
#X connect 6 0 10 1;
#X connect 7 0 15 0;
#X connect 8 0 9 0;
#X connect 9 0 10 2;
#X connect 10 0 3 0;
#X connect 11 0 16 0;
#X connect 12 0 1 1;
#X connect 12 0 5 1;
#X connect 12 0 8 1;
#X connect 13 0 1 0;
#X connect 14 0 5 0;
#X connect 15 0 8 0;
#X connect 16 0 0 0;
#X connect 16 1 4 0;
#X connect 16 2 7 0;
#X restore 38 82 pd tripleRnd;
#N canvas 0 22 321 278 tripleRnd 0;
#X obj 12 103 random 100;
#X obj 12 143 pack 0 1000;
#X obj 12 163 line;
#X obj 12 233 outlet;
#X obj 102 103 random 100;
#X obj 102 143 pack 0 1000;
#X obj 102 163 line;
#X obj 212 103 random 100;
#X obj 212 143 pack 0 1000;
#X obj 212 163 line;
#X obj 12 203 pack f f f;
#X obj 12 22 r \$0-forme2;
#X obj 207 22 r \$0-line;
#X obj 12 123 * 0.05;
#X obj 102 123 * 0.05;
#X obj 212 123 * 0.05;
#X obj 12 52 t b b b;
#X connect 0 0 13 0;
#X connect 1 0 2 0;
#X connect 2 0 10 0;
#X connect 4 0 14 0;
#X connect 5 0 6 0;
#X connect 6 0 10 1;
#X connect 7 0 15 0;
#X connect 8 0 9 0;
#X connect 9 0 10 2;
#X connect 10 0 3 0;
#X connect 11 0 16 0;
#X connect 12 0 1 1;
#X connect 12 0 5 1;
#X connect 12 0 8 1;
#X connect 13 0 1 0;
#X connect 14 0 5 0;
#X connect 15 0 8 0;
#X connect 16 0 0 0;
#X connect 16 1 4 0;
#X connect 16 2 7 0;
#X restore 168 82 pd tripleRnd;
#N canvas 0 22 321 278 tripleRnd 0;
#X obj 12 103 random 100;
#X obj 12 143 pack 0 1000;
#X obj 12 163 line;
#X obj 12 233 outlet;
#X obj 102 103 random 100;
#X obj 102 143 pack 0 1000;
#X obj 102 163 line;
#X obj 212 103 random 100;
#X obj 212 143 pack 0 1000;
#X obj 212 163 line;
#X obj 12 203 pack f f f;
#X obj 12 22 r \$0-forme2;
#X obj 207 22 r \$0-line;
#X obj 12 123 * 0.05;
#X obj 102 123 * 0.05;
#X obj 212 123 * 0.05;
#X obj 12 52 t b b b;
#X connect 0 0 13 0;
#X connect 1 0 2 0;
#X connect 2 0 10 0;
#X connect 4 0 14 0;
#X connect 5 0 6 0;
#X connect 6 0 10 1;
#X connect 7 0 15 0;
#X connect 8 0 9 0;
#X connect 9 0 10 2;
#X connect 10 0 3 0;
#X connect 11 0 16 0;
#X connect 12 0 1 1;
#X connect 12 0 5 1;
#X connect 12 0 8 1;
#X connect 13 0 1 0;
#X connect 14 0 5 0;
#X connect 15 0 8 0;
#X connect 16 0 0 0;
#X connect 16 1 4 0;
#X connect 16 2 7 0;
#X restore 298 82 pd tripleRnd;
#N canvas 0 22 321 278 tripleRnd 0;
#X obj 12 103 random 100;
#X obj 12 143 pack 0 1000;
#X obj 12 163 line;
#X obj 12 233 outlet;
#X obj 102 103 random 100;
#X obj 102 143 pack 0 1000;
#X obj 102 163 line;
#X obj 212 103 random 100;
#X obj 212 143 pack 0 1000;
#X obj 212 163 line;
#X obj 12 203 pack f f f;
#X obj 12 22 r \$0-forme2;
#X obj 207 22 r \$0-line;
#X obj 12 123 * 0.05;
#X obj 102 123 * 0.05;
#X obj 212 123 * 0.05;
#X obj 12 52 t b b b;
#X connect 0 0 13 0;
#X connect 1 0 2 0;
#X connect 2 0 10 0;
#X connect 4 0 14 0;
#X connect 5 0 6 0;
#X connect 6 0 10 1;
#X connect 7 0 15 0;
#X connect 8 0 9 0;
#X connect 9 0 10 2;
#X connect 10 0 3 0;
#X connect 11 0 16 0;
#X connect 12 0 1 1;
#X connect 12 0 5 1;
#X connect 12 0 8 1;
#X connect 13 0 1 0;
#X connect 14 0 5 0;
#X connect 15 0 8 0;
#X connect 16 0 0 0;
#X connect 16 1 4 0;
#X connect 16 2 7 0;
#X restore 428 82 pd tripleRnd;
#N canvas 0 22 321 278 tripleRnd 0;
#X obj 12 103 random 100;
#X obj 12 143 pack 0 1000;
#X obj 12 163 line;
#X obj 12 233 outlet;
#X obj 102 103 random 100;
#X obj 102 143 pack 0 1000;
#X obj 102 163 line;
#X obj 212 103 random 100;
#X obj 212 143 pack 0 1000;
#X obj 212 163 line;
#X obj 12 203 pack f f f;
#X obj 12 22 r \$0-forme2;
#X obj 207 22 r \$0-line;
#X obj 12 123 * 0.05;
#X obj 102 123 * 0.05;
#X obj 212 123 * 0.05;
#X obj 12 52 t b b b;
#X connect 0 0 13 0;
#X connect 1 0 2 0;
#X connect 2 0 10 0;
#X connect 4 0 14 0;
#X connect 5 0 6 0;
#X connect 6 0 10 1;
#X connect 7 0 15 0;
#X connect 8 0 9 0;
#X connect 9 0 10 2;
#X connect 10 0 3 0;
#X connect 11 0 16 0;
#X connect 12 0 1 1;
#X connect 12 0 5 1;
#X connect 12 0 8 1;
#X connect 13 0 1 0;
#X connect 14 0 5 0;
#X connect 15 0 8 0;
#X connect 16 0 0 0;
#X connect 16 1 4 0;
#X connect 16 2 7 0;
#X restore 558 82 pd tripleRnd;
#N canvas 0 22 321 278 tripleRnd 0;
#X obj 12 103 random 100;
#X obj 12 143 pack 0 1000;
#X obj 12 163 line;
#X obj 12 233 outlet;
#X obj 102 103 random 100;
#X obj 102 143 pack 0 1000;
#X obj 102 163 line;
#X obj 212 103 random 100;
#X obj 212 143 pack 0 1000;
#X obj 212 163 line;
#X obj 12 203 pack f f f;
#X obj 12 22 r \$0-forme2;
#X obj 207 22 r \$0-line;
#X obj 12 123 * 0.05;
#X obj 102 123 * 0.05;
#X obj 212 123 * 0.05;
#X obj 12 52 t b b b;
#X connect 0 0 13 0;
#X connect 1 0 2 0;
#X connect 2 0 10 0;
#X connect 4 0 14 0;
#X connect 5 0 6 0;
#X connect 6 0 10 1;
#X connect 7 0 15 0;
#X connect 8 0 9 0;
#X connect 9 0 10 2;
#X connect 10 0 3 0;
#X connect 11 0 16 0;
#X connect 12 0 1 1;
#X connect 12 0 5 1;
#X connect 12 0 8 1;
#X connect 13 0 1 0;
#X connect 14 0 5 0;
#X connect 15 0 8 0;
#X connect 16 0 0 0;
#X connect 16 1 4 0;
#X connect 16 2 7 0;
#X restore 48 132 pd tripleRnd;
#N canvas 0 22 321 278 tripleRnd 0;
#X obj 12 103 random 100;
#X obj 12 143 pack 0 1000;
#X obj 12 163 line;
#X obj 12 233 outlet;
#X obj 102 103 random 100;
#X obj 102 143 pack 0 1000;
#X obj 102 163 line;
#X obj 212 103 random 100;
#X obj 212 143 pack 0 1000;
#X obj 212 163 line;
#X obj 12 203 pack f f f;
#X obj 12 22 r \$0-forme2;
#X obj 207 22 r \$0-line;
#X obj 12 123 * 0.05;
#X obj 102 123 * 0.05;
#X obj 212 123 * 0.05;
#X obj 12 52 t b b b;
#X connect 0 0 13 0;
#X connect 1 0 2 0;
#X connect 2 0 10 0;
#X connect 4 0 14 0;
#X connect 5 0 6 0;
#X connect 6 0 10 1;
#X connect 7 0 15 0;
#X connect 8 0 9 0;
#X connect 9 0 10 2;
#X connect 10 0 3 0;
#X connect 11 0 16 0;
#X connect 12 0 1 1;
#X connect 12 0 5 1;
#X connect 12 0 8 1;
#X connect 13 0 1 0;
#X connect 14 0 5 0;
#X connect 15 0 8 0;
#X connect 16 0 0 0;
#X connect 16 1 4 0;
#X connect 16 2 7 0;
#X restore 178 132 pd tripleRnd;
#N canvas 0 22 321 278 tripleRnd 0;
#X obj 12 103 random 100;
#X obj 12 143 pack 0 1000;
#X obj 12 163 line;
#X obj 12 233 outlet;
#X obj 102 103 random 100;
#X obj 102 143 pack 0 1000;
#X obj 102 163 line;
#X obj 212 103 random 100;
#X obj 212 143 pack 0 1000;
#X obj 212 163 line;
#X obj 12 203 pack f f f;
#X obj 12 22 r \$0-forme2;
#X obj 207 22 r \$0-line;
#X obj 12 123 * 0.05;
#X obj 102 123 * 0.05;
#X obj 212 123 * 0.05;
#X obj 12 52 t b b b;
#X connect 0 0 13 0;
#X connect 1 0 2 0;
#X connect 2 0 10 0;
#X connect 4 0 14 0;
#X connect 5 0 6 0;
#X connect 6 0 10 1;
#X connect 7 0 15 0;
#X connect 8 0 9 0;
#X connect 9 0 10 2;
#X connect 10 0 3 0;
#X connect 11 0 16 0;
#X connect 12 0 1 1;
#X connect 12 0 5 1;
#X connect 12 0 8 1;
#X connect 13 0 1 0;
#X connect 14 0 5 0;
#X connect 15 0 8 0;
#X connect 16 0 0 0;
#X connect 16 1 4 0;
#X connect 16 2 7 0;
#X restore 308 132 pd tripleRnd;
#N canvas 0 22 321 278 tripleRnd 0;
#X obj 12 103 random 100;
#X obj 12 143 pack 0 1000;
#X obj 12 163 line;
#X obj 12 233 outlet;
#X obj 102 103 random 100;
#X obj 102 143 pack 0 1000;
#X obj 102 163 line;
#X obj 212 103 random 100;
#X obj 212 143 pack 0 1000;
#X obj 212 163 line;
#X obj 12 203 pack f f f;
#X obj 12 22 r \$0-forme2;
#X obj 207 22 r \$0-line;
#X obj 12 123 * 0.05;
#X obj 102 123 * 0.05;
#X obj 212 123 * 0.05;
#X obj 12 52 t b b b;
#X connect 0 0 13 0;
#X connect 1 0 2 0;
#X connect 2 0 10 0;
#X connect 4 0 14 0;
#X connect 5 0 6 0;
#X connect 6 0 10 1;
#X connect 7 0 15 0;
#X connect 8 0 9 0;
#X connect 9 0 10 2;
#X connect 10 0 3 0;
#X connect 11 0 16 0;
#X connect 12 0 1 1;
#X connect 12 0 5 1;
#X connect 12 0 8 1;
#X connect 13 0 1 0;
#X connect 14 0 5 0;
#X connect 15 0 8 0;
#X connect 16 0 0 0;
#X connect 16 1 4 0;
#X connect 16 2 7 0;
#X restore 438 132 pd tripleRnd;
#N canvas 0 22 321 278 tripleRnd 0;
#X obj 12 103 random 100;
#X obj 12 143 pack 0 1000;
#X obj 12 163 line;
#X obj 12 233 outlet;
#X obj 102 103 random 100;
#X obj 102 143 pack 0 1000;
#X obj 102 163 line;
#X obj 212 103 random 100;
#X obj 212 143 pack 0 1000;
#X obj 212 163 line;
#X obj 12 203 pack f f f;
#X obj 12 22 r \$0-forme2;
#X obj 207 22 r \$0-line;
#X obj 12 123 * 0.05;
#X obj 102 123 * 0.05;
#X obj 212 123 * 0.05;
#X obj 12 52 t b b b;
#X connect 0 0 13 0;
#X connect 1 0 2 0;
#X connect 2 0 10 0;
#X connect 4 0 14 0;
#X connect 5 0 6 0;
#X connect 6 0 10 1;
#X connect 7 0 15 0;
#X connect 8 0 9 0;
#X connect 9 0 10 2;
#X connect 10 0 3 0;
#X connect 11 0 16 0;
#X connect 12 0 1 1;
#X connect 12 0 5 1;
#X connect 12 0 8 1;
#X connect 13 0 1 0;
#X connect 14 0 5 0;
#X connect 15 0 8 0;
#X connect 16 0 0 0;
#X connect 16 1 4 0;
#X connect 16 2 7 0;
#X restore 568 132 pd tripleRnd;
#N canvas 0 22 321 278 tripleRnd 0;
#X obj 12 103 random 100;
#X obj 12 143 pack 0 1000;
#X obj 12 163 line;
#X obj 12 233 outlet;
#X obj 102 103 random 100;
#X obj 102 143 pack 0 1000;
#X obj 102 163 line;
#X obj 212 103 random 100;
#X obj 212 143 pack 0 1000;
#X obj 212 163 line;
#X obj 12 203 pack f f f;
#X obj 12 22 r \$0-forme2;
#X obj 207 22 r \$0-line;
#X obj 12 123 * 0.05;
#X obj 102 123 * 0.05;
#X obj 212 123 * 0.05;
#X obj 12 52 t b b b;
#X connect 0 0 13 0;
#X connect 1 0 2 0;
#X connect 2 0 10 0;
#X connect 4 0 14 0;
#X connect 5 0 6 0;
#X connect 6 0 10 1;
#X connect 7 0 15 0;
#X connect 8 0 9 0;
#X connect 9 0 10 2;
#X connect 10 0 3 0;
#X connect 11 0 16 0;
#X connect 12 0 1 1;
#X connect 12 0 5 1;
#X connect 12 0 8 1;
#X connect 13 0 1 0;
#X connect 14 0 5 0;
#X connect 15 0 8 0;
#X connect 16 0 0 0;
#X connect 16 1 4 0;
#X connect 16 2 7 0;
#X restore 68 182 pd tripleRnd;
#N canvas 0 22 321 278 tripleRnd 0;
#X obj 12 103 random 100;
#X obj 12 143 pack 0 1000;
#X obj 12 163 line;
#X obj 12 233 outlet;
#X obj 102 103 random 100;
#X obj 102 143 pack 0 1000;
#X obj 102 163 line;
#X obj 212 103 random 100;
#X obj 212 143 pack 0 1000;
#X obj 212 163 line;
#X obj 12 203 pack f f f;
#X obj 12 22 r \$0-forme2;
#X obj 207 22 r \$0-line;
#X obj 12 123 * 0.05;
#X obj 102 123 * 0.05;
#X obj 212 123 * 0.05;
#X obj 12 52 t b b b;
#X connect 0 0 13 0;
#X connect 1 0 2 0;
#X connect 2 0 10 0;
#X connect 4 0 14 0;
#X connect 5 0 6 0;
#X connect 6 0 10 1;
#X connect 7 0 15 0;
#X connect 8 0 9 0;
#X connect 9 0 10 2;
#X connect 10 0 3 0;
#X connect 11 0 16 0;
#X connect 12 0 1 1;
#X connect 12 0 5 1;
#X connect 12 0 8 1;
#X connect 13 0 1 0;
#X connect 14 0 5 0;
#X connect 15 0 8 0;
#X connect 16 0 0 0;
#X connect 16 1 4 0;
#X connect 16 2 7 0;
#X restore 198 182 pd tripleRnd;
#N canvas 0 22 321 278 tripleRnd 0;
#X obj 12 103 random 100;
#X obj 12 143 pack 0 1000;
#X obj 12 163 line;
#X obj 12 233 outlet;
#X obj 102 103 random 100;
#X obj 102 143 pack 0 1000;
#X obj 102 163 line;
#X obj 212 103 random 100;
#X obj 212 143 pack 0 1000;
#X obj 212 163 line;
#X obj 12 203 pack f f f;
#X obj 12 22 r \$0-forme2;
#X obj 207 22 r \$0-line;
#X obj 12 123 * 0.05;
#X obj 102 123 * 0.05;
#X obj 212 123 * 0.05;
#X obj 12 52 t b b b;
#X connect 0 0 13 0;
#X connect 1 0 2 0;
#X connect 2 0 10 0;
#X connect 4 0 14 0;
#X connect 5 0 6 0;
#X connect 6 0 10 1;
#X connect 7 0 15 0;
#X connect 8 0 9 0;
#X connect 9 0 10 2;
#X connect 10 0 3 0;
#X connect 11 0 16 0;
#X connect 12 0 1 1;
#X connect 12 0 5 1;
#X connect 12 0 8 1;
#X connect 13 0 1 0;
#X connect 14 0 5 0;
#X connect 15 0 8 0;
#X connect 16 0 0 0;
#X connect 16 1 4 0;
#X connect 16 2 7 0;
#X restore 328 182 pd tripleRnd;
#N canvas 0 22 321 278 tripleRnd 0;
#X obj 12 103 random 100;
#X obj 12 143 pack 0 1000;
#X obj 12 163 line;
#X obj 12 233 outlet;
#X obj 102 103 random 100;
#X obj 102 143 pack 0 1000;
#X obj 102 163 line;
#X obj 212 103 random 100;
#X obj 212 143 pack 0 1000;
#X obj 212 163 line;
#X obj 12 203 pack f f f;
#X obj 12 22 r \$0-forme2;
#X obj 207 22 r \$0-line;
#X obj 12 123 * 0.05;
#X obj 102 123 * 0.05;
#X obj 212 123 * 0.05;
#X obj 12 52 t b b b;
#X connect 0 0 13 0;
#X connect 1 0 2 0;
#X connect 2 0 10 0;
#X connect 4 0 14 0;
#X connect 5 0 6 0;
#X connect 6 0 10 1;
#X connect 7 0 15 0;
#X connect 8 0 9 0;
#X connect 9 0 10 2;
#X connect 10 0 3 0;
#X connect 11 0 16 0;
#X connect 12 0 1 1;
#X connect 12 0 5 1;
#X connect 12 0 8 1;
#X connect 13 0 1 0;
#X connect 14 0 5 0;
#X connect 15 0 8 0;
#X connect 16 0 0 0;
#X connect 16 1 4 0;
#X connect 16 2 7 0;
#X restore 458 182 pd tripleRnd;
#N canvas 0 22 321 278 tripleRnd 0;
#X obj 12 103 random 100;
#X obj 12 143 pack 0 1000;
#X obj 12 163 line;
#X obj 12 233 outlet;
#X obj 102 103 random 100;
#X obj 102 143 pack 0 1000;
#X obj 102 163 line;
#X obj 212 103 random 100;
#X obj 212 143 pack 0 1000;
#X obj 212 163 line;
#X obj 12 203 pack f f f;
#X obj 12 22 r \$0-forme2;
#X obj 207 22 r \$0-line;
#X obj 12 123 * 0.05;
#X obj 102 123 * 0.05;
#X obj 212 123 * 0.05;
#X obj 12 52 t b b b;
#X connect 0 0 13 0;
#X connect 1 0 2 0;
#X connect 2 0 10 0;
#X connect 4 0 14 0;
#X connect 5 0 6 0;
#X connect 6 0 10 1;
#X connect 7 0 15 0;
#X connect 8 0 9 0;
#X connect 9 0 10 2;
#X connect 10 0 3 0;
#X connect 11 0 16 0;
#X connect 12 0 1 1;
#X connect 12 0 5 1;
#X connect 12 0 8 1;
#X connect 13 0 1 0;
#X connect 14 0 5 0;
#X connect 15 0 8 0;
#X connect 16 0 0 0;
#X connect 16 1 4 0;
#X connect 16 2 7 0;
#X restore 588 182 pd tripleRnd;
#N canvas 0 22 321 278 tripleRnd 0;
#X obj 12 103 random 100;
#X obj 12 143 pack 0 1000;
#X obj 12 163 line;
#X obj 12 233 outlet;
#X obj 102 103 random 100;
#X obj 102 143 pack 0 1000;
#X obj 102 163 line;
#X obj 212 103 random 100;
#X obj 212 143 pack 0 1000;
#X obj 212 163 line;
#X obj 12 203 pack f f f;
#X obj 12 22 r \$0-forme2;
#X obj 207 22 r \$0-line;
#X obj 12 123 * 0.05;
#X obj 102 123 * 0.05;
#X obj 212 123 * 0.05;
#X obj 12 52 t b b b;
#X connect 0 0 13 0;
#X connect 1 0 2 0;
#X connect 2 0 10 0;
#X connect 4 0 14 0;
#X connect 5 0 6 0;
#X connect 6 0 10 1;
#X connect 7 0 15 0;
#X connect 8 0 9 0;
#X connect 9 0 10 2;
#X connect 10 0 3 0;
#X connect 11 0 16 0;
#X connect 12 0 1 1;
#X connect 12 0 5 1;
#X connect 12 0 8 1;
#X connect 13 0 1 0;
#X connect 14 0 5 0;
#X connect 15 0 8 0;
#X connect 16 0 0 0;
#X connect 16 1 4 0;
#X connect 16 2 7 0;
#X restore 88 242 pd tripleRnd;
#N canvas 0 22 321 278 tripleRnd 0;
#X obj 12 103 random 100;
#X obj 12 143 pack 0 1000;
#X obj 12 163 line;
#X obj 12 233 outlet;
#X obj 102 103 random 100;
#X obj 102 143 pack 0 1000;
#X obj 102 163 line;
#X obj 212 103 random 100;
#X obj 212 143 pack 0 1000;
#X obj 212 163 line;
#X obj 12 203 pack f f f;
#X obj 12 22 r \$0-forme2;
#X obj 207 22 r \$0-line;
#X obj 12 123 * 0.05;
#X obj 102 123 * 0.05;
#X obj 212 123 * 0.05;
#X obj 12 52 t b b b;
#X connect 0 0 13 0;
#X connect 1 0 2 0;
#X connect 2 0 10 0;
#X connect 4 0 14 0;
#X connect 5 0 6 0;
#X connect 6 0 10 1;
#X connect 7 0 15 0;
#X connect 8 0 9 0;
#X connect 9 0 10 2;
#X connect 10 0 3 0;
#X connect 11 0 16 0;
#X connect 12 0 1 1;
#X connect 12 0 5 1;
#X connect 12 0 8 1;
#X connect 13 0 1 0;
#X connect 14 0 5 0;
#X connect 15 0 8 0;
#X connect 16 0 0 0;
#X connect 16 1 4 0;
#X connect 16 2 7 0;
#X restore 218 242 pd tripleRnd;
#N canvas 0 22 321 278 tripleRnd 0;
#X obj 12 103 random 100;
#X obj 12 143 pack 0 1000;
#X obj 12 163 line;
#X obj 12 233 outlet;
#X obj 102 103 random 100;
#X obj 102 143 pack 0 1000;
#X obj 102 163 line;
#X obj 212 103 random 100;
#X obj 212 143 pack 0 1000;
#X obj 212 163 line;
#X obj 12 203 pack f f f;
#X obj 12 22 r \$0-forme2;
#X obj 207 22 r \$0-line;
#X obj 12 123 * 0.05;
#X obj 102 123 * 0.05;
#X obj 212 123 * 0.05;
#X obj 12 52 t b b b;
#X connect 0 0 13 0;
#X connect 1 0 2 0;
#X connect 2 0 10 0;
#X connect 4 0 14 0;
#X connect 5 0 6 0;
#X connect 6 0 10 1;
#X connect 7 0 15 0;
#X connect 8 0 9 0;
#X connect 9 0 10 2;
#X connect 10 0 3 0;
#X connect 11 0 16 0;
#X connect 12 0 1 1;
#X connect 12 0 5 1;
#X connect 12 0 8 1;
#X connect 13 0 1 0;
#X connect 14 0 5 0;
#X connect 15 0 8 0;
#X connect 16 0 0 0;
#X connect 16 1 4 0;
#X connect 16 2 7 0;
#X restore 348 242 pd tripleRnd;
#N canvas 0 22 321 278 tripleRnd 0;
#X obj 12 103 random 100;
#X obj 12 143 pack 0 1000;
#X obj 12 163 line;
#X obj 12 233 outlet;
#X obj 102 103 random 100;
#X obj 102 143 pack 0 1000;
#X obj 102 163 line;
#X obj 212 103 random 100;
#X obj 212 143 pack 0 1000;
#X obj 212 163 line;
#X obj 12 203 pack f f f;
#X obj 12 22 r \$0-forme2;
#X obj 207 22 r \$0-line;
#X obj 12 123 * 0.05;
#X obj 102 123 * 0.05;
#X obj 212 123 * 0.05;
#X obj 12 52 t b b b;
#X connect 0 0 13 0;
#X connect 1 0 2 0;
#X connect 2 0 10 0;
#X connect 4 0 14 0;
#X connect 5 0 6 0;
#X connect 6 0 10 1;
#X connect 7 0 15 0;
#X connect 8 0 9 0;
#X connect 9 0 10 2;
#X connect 10 0 3 0;
#X connect 11 0 16 0;
#X connect 12 0 1 1;
#X connect 12 0 5 1;
#X connect 12 0 8 1;
#X connect 13 0 1 0;
#X connect 14 0 5 0;
#X connect 15 0 8 0;
#X connect 16 0 0 0;
#X connect 16 1 4 0;
#X connect 16 2 7 0;
#X restore 478 242 pd tripleRnd;
#N canvas 0 22 321 278 tripleRnd 0;
#X obj 12 103 random 100;
#X obj 12 143 pack 0 1000;
#X obj 12 163 line;
#X obj 12 233 outlet;
#X obj 102 103 random 100;
#X obj 102 143 pack 0 1000;
#X obj 102 163 line;
#X obj 212 103 random 100;
#X obj 212 143 pack 0 1000;
#X obj 212 163 line;
#X obj 12 203 pack f f f;
#X obj 12 22 r \$0-forme2;
#X obj 207 22 r \$0-line;
#X obj 12 123 * 0.05;
#X obj 102 123 * 0.05;
#X obj 212 123 * 0.05;
#X obj 12 52 t b b b;
#X connect 0 0 13 0;
#X connect 1 0 2 0;
#X connect 2 0 10 0;
#X connect 4 0 14 0;
#X connect 5 0 6 0;
#X connect 6 0 10 1;
#X connect 7 0 15 0;
#X connect 8 0 9 0;
#X connect 9 0 10 2;
#X connect 10 0 3 0;
#X connect 11 0 16 0;
#X connect 12 0 1 1;
#X connect 12 0 5 1;
#X connect 12 0 8 1;
#X connect 13 0 1 0;
#X connect 14 0 5 0;
#X connect 15 0 8 0;
#X connect 16 0 0 0;
#X connect 16 1 4 0;
#X connect 16 2 7 0;
#X restore 608 242 pd tripleRnd;
#X connect 0 0 7 0;
#X connect 1 0 26 0;
#X connect 2 0 26 0;
#X connect 3 0 26 0;
#X connect 4 0 26 0;
#X connect 5 0 26 0;
#X connect 6 0 26 0;
#X connect 7 0 26 0;
#X connect 8 0 26 0;
#X connect 9 0 26 0;
#X connect 10 0 26 0;
#X connect 11 0 26 0;
#X connect 12 0 26 0;
#X connect 13 0 26 0;
#X connect 14 0 26 0;
#X connect 15 0 26 0;
#X connect 16 0 26 0;
#X connect 17 0 26 0;
#X connect 18 0 26 0;
#X connect 19 0 26 0;
#X connect 20 0 26 0;
#X connect 21 0 26 0;
#X connect 22 0 26 0;
#X connect 23 0 26 0;
#X connect 24 0 26 0;
#X connect 25 0 26 0;
#X connect 27 0 6 0;
#X connect 28 0 5 0;
#X connect 29 0 13 0;
#X connect 30 0 17 0;
#X connect 31 0 8 0;
#X connect 32 0 9 0;
#X connect 33 0 4 0;
#X connect 34 0 14 0;
#X connect 35 0 18 0;
#X connect 36 0 1 0;
#X connect 37 0 2 0;
#X connect 38 0 3 0;
#X connect 39 0 15 0;
#X connect 40 0 19 0;
#X connect 41 0 10 0;
#X connect 42 0 11 0;
#X connect 43 0 12 0;
#X connect 44 0 16 0;
#X connect 45 0 20 0;
#X connect 46 0 21 0;
#X connect 47 0 22 0;
#X connect 48 0 23 0;
#X connect 49 0 24 0;
#X connect 50 0 25 0;
#X restore 158 321 pd forme2;
#X obj 507 281 * 0.1;
#X obj 507 301 makesymbol %s;
#X obj 246 311 * 0.1;
#X obj 165 396 translateXYZ -2.5 -2.5 -2;
#X obj 28 21 mmm-module \$1 \$2 curve3d 6;
#X obj 239 21 r \$1-\$2L-r;
#X obj 339 21 r \$1-\$2R-r;
#X obj 239 61 s~ \$1-\$2L;
#X obj 339 61 s~ \$1-\$2R;
#X obj 28 91 mmm-ctrl \$1 \$2 1 draw 0 8 0 ext;
#X obj 48 141 mmm-ctrl \$1 \$2 2 gridX 1 64 32 int;
#X obj 113 161 mmm-ctrl \$1 \$2 3 gridY 1 64 32 int;
#X obj 68 231 mmm-ctrl \$1 \$2 4 forme1 0 1 1 int;
#X obj 158 261 mmm-ctrl \$1 \$2 5 forme2 0 1 1 int;
#X obj 246 291 mmm-ctrl \$1 \$2 6 glide 0 160 80 ext;
#X msg 28 41 version 0.3.5;
#X connect 0 0 3 0;
#X connect 1 0 24 0;
#X connect 2 0 25 0;
#X connect 3 0 20 0;
#X connect 4 0 26 1;
#X connect 5 0 8 0;
#X connect 6 0 7 0;
#X connect 7 0 8 0;
#X connect 9 0 12 0;
#X connect 10 0 13 0;
#X connect 11 0 8 0;
#X connect 15 0 14 0;
#X connect 16 0 8 0;
#X connect 17 0 18 0;
#X connect 18 0 31 1;
#X connect 19 0 15 0;
#X connect 20 0 8 0;
#X connect 22 0 1 0;
#X connect 23 0 2 0;
#X connect 26 0 5 0;
#X connect 26 2 4 0;
#X connect 27 0 6 0;
#X connect 28 0 6 1;
#X connect 29 0 9 0;
#X connect 30 0 10 0;
#X connect 31 0 19 0;
#X connect 31 2 17 0;
