#N canvas 626 40 431 190 10;
#N canvas 0 22 450 300 notename 0;
#X obj 99 66 t f f;
#X obj 124 112 div 12;
#X obj 124 135 makefilename %%s%d;
#X msg 124 157 set \$1;
#N canvas 380 110 450 300 n 0;
#X obj 141 51 inlet;
#X obj 141 77 mod 12;
#X obj 141 100 select 0 1 2 3 4 5 6 7 8 9 10 11;
#X msg 172 177 symbol d-;
#X msg 156 157 symbol c#;
#X msg 141 137 symbol c-;
#X msg 187 197 symbol d#;
#X msg 203 217 symbol e-;
#X msg 218 237 symbol f-;
#X msg 234 137 symbol f#;
#X msg 250 157 symbol g-;
#X msg 265 176 symbol g#;
#X msg 281 197 symbol a-;
#X msg 297 217 symbol a#;
#X msg 312 237 symbol b;
#X obj 168 282 outlet;
#X connect 0 0 1 0;
#X connect 1 0 2 0;
#X connect 2 0 5 0;
#X connect 2 1 4 0;
#X connect 2 2 3 0;
#X connect 2 3 6 0;
#X connect 2 4 7 0;
#X connect 2 5 8 0;
#X connect 2 6 9 0;
#X connect 2 7 10 0;
#X connect 2 8 11 0;
#X connect 2 9 12 0;
#X connect 2 10 13 0;
#X connect 2 11 14 0;
#X connect 3 0 15 0;
#X connect 4 0 15 0;
#X connect 5 0 15 0;
#X connect 6 0 15 0;
#X connect 7 0 15 0;
#X connect 8 0 15 0;
#X connect 9 0 15 0;
#X connect 10 0 15 0;
#X connect 11 0 15 0;
#X connect 12 0 15 0;
#X connect 13 0 15 0;
#X connect 14 0 15 0;
#X restore 99 93 pd n;
#X obj 99 182 makefilename;
#X obj 99 275 outlet;
#X obj 99 10 inlet;
#X connect 0 0 4 0;
#X connect 0 1 1 0;
#X connect 1 0 2 0;
#X connect 2 0 3 0;
#X connect 3 0 5 0;
#X connect 4 0 5 0;
#X connect 5 0 6 0;
#X connect 7 0 0 0;
#X restore 279 112 pd notename;
#N canvas 0 22 450 300 filtername 0;
#X obj 99 275 outlet;
#X obj 99 10 inlet;
#X obj 99 48 sel 0 1 2 3 4;
#X msg 98 89 none;
#X msg 115 110 lowpass;
#X msg 127 135 hipass;
#X msg 140 162 bp1;
#X msg 146 187 bp2;
#X obj 105 229 symbol;
#X connect 1 0 2 0;
#X connect 2 0 3 0;
#X connect 2 1 4 0;
#X connect 2 2 5 0;
#X connect 2 3 6 0;
#X connect 2 4 7 0;
#X connect 3 0 8 0;
#X connect 4 0 8 0;
#X connect 5 0 8 0;
#X connect 6 0 8 0;
#X connect 7 0 8 0;
#X connect 8 0 0 0;
#X restore 279 133 pd filtername;
#X text 37 156 controller-testpatch;
#X obj 36 23 mmm-module-register \$1 controllers 12;
#X obj 36 48 mmm-controller \$1 1 control1 0 100 50 int;
#X obj 36 111 mmm-controller \$1 4 notes 0 127 48 ext;
#X obj 36 69 mmm-controller \$1 2 control2 0 200 90 int;
#X obj 36 90 mmm-controller \$1 3 control3 155 355 255 int;
#X obj 36 132 mmm-controller \$1 5 filter 0 4 0 ext;
#X msg 262 23 version 0.0.9;
#X connect 0 0 5 1;
#X connect 1 0 8 1;
#X connect 5 2 0 0;
#X connect 8 2 1 0;
