#N canvas 262 24 387 418 10;
#X obj 41 349 r~ 1-nothing;
#X obj 134 349 r~ 1-nothing;
#X obj 41 329 r \$1-\$2L-r;
#X obj 134 329 r \$1-\$2R-r;
#X obj 134 368 s~ \$1-\$2R;
#X obj 41 368 s~ \$1-\$2L;
#N canvas 689 386 329 369 kick 0;
#X obj 16 282 outlet~;
#N canvas 176 22 753 688 voice 0;
#X obj 48 200 *~ -1;
#X obj 48 220 +~ 1;
#X obj 25 240 min~;
#X obj 352 119 *~;
#X obj 352 69 *~ 4;
#X obj 352 89 -~ 1;
#X obj 352 139 -~ 0.5;
#X obj 352 169 *~;
#X obj 352 189 *~ 4;
#X obj 352 209 -~ 0.5;
#X obj 352 239 *~;
#X obj 352 259 *~ 4;
#X obj 352 279 -~ 0.5;
#X obj 352 309 *~;
#X obj 352 329 *~ 4;
#X obj 352 349 -~ 0.5;
#X obj 352 369 *~;
#X obj 352 389 *~ 4;
#X obj 352 409 -~ 0.5;
#X obj 352 439 *~;
#X obj 352 459 *~ 4;
#X obj 352 479 -~ 0.5;
#X obj 109 469 vline~;
#X obj 36 489 *~;
#X obj 352 509 *~;
#X obj 352 529 *~ 4;
#X msg 83 120 1;
#X obj 352 549 *~;
#X obj 25 180 wrap~;
#X obj 25 160 +~ 0.9;
#X obj 167 117 f;
#X obj 183 57 / -4;
#X obj 183 77 + 100;
#X obj 36 389 lop~ 250;
#X obj 36 409 hip~ 35;
#X obj 36 509 outlet~;
#X msg 575 465 0;
#X msg 543 465 1;
#X obj 575 445 del;
#X obj 591 405 + 1;
#X obj 591 385 * 2;
#X obj 543 505 switch~;
#X obj 575 425 f;
#X obj 304 119 *~ 0.5;
#X obj 277 276 *~ 0.125;
#X obj 25 140 phasor~ 1;
#X obj 183 97 * 0.01;
#X obj 59 80 t f b b;
#X obj 24 -18 inlet level;
#X obj 136 10 route del atk_t cplx release cutoff;
#X obj 475 77 * 0.01;
#X obj 59 60 pipe;
#X obj 109 409 pack;
#X msg 109 429 \$1 10 10 \, 0 \$2 \$2;
#X obj 82 20 * 0.01;
#X obj 114 266 mtof;
#X obj 136 -20 inlet;
#X obj 82 40 mmm-ticks2ms;
#X connect 0 0 1 0;
#X connect 1 0 2 1;
#X connect 2 0 4 0;
#X connect 3 0 6 0;
#X connect 4 0 5 0;
#X connect 5 0 3 0;
#X connect 5 0 3 1;
#X connect 5 0 43 0;
#X connect 6 0 7 0;
#X connect 6 0 7 1;
#X connect 6 0 44 0;
#X connect 7 0 8 0;
#X connect 8 0 9 0;
#X connect 9 0 10 0;
#X connect 9 0 10 1;
#X connect 9 0 44 0;
#X connect 10 0 11 0;
#X connect 11 0 12 0;
#X connect 12 0 13 0;
#X connect 12 0 13 1;
#X connect 12 0 44 0;
#X connect 13 0 14 0;
#X connect 14 0 15 0;
#X connect 15 0 16 0;
#X connect 15 0 16 1;
#X connect 15 0 44 0;
#X connect 16 0 17 0;
#X connect 17 0 18 0;
#X connect 18 0 19 0;
#X connect 18 0 19 1;
#X connect 18 0 44 0;
#X connect 19 0 20 0;
#X connect 20 0 21 0;
#X connect 21 0 24 0;
#X connect 21 0 24 1;
#X connect 21 0 44 0;
#X connect 22 0 23 1;
#X connect 23 0 35 0;
#X connect 24 0 25 0;
#X connect 25 0 27 0;
#X connect 26 0 45 1;
#X connect 27 0 44 0;
#X connect 28 0 0 0;
#X connect 28 0 2 0;
#X connect 29 0 28 0;
#X connect 30 0 29 1;
#X connect 31 0 32 0;
#X connect 32 0 46 0;
#X connect 33 0 34 0;
#X connect 34 0 23 0;
#X connect 36 0 41 0;
#X connect 37 0 41 0;
#X connect 38 0 36 0;
#X connect 39 0 42 1;
#X connect 40 0 39 0;
#X connect 42 0 38 0;
#X connect 42 0 37 0;
#X connect 43 0 44 0;
#X connect 44 0 33 0;
#X connect 45 0 29 0;
#X connect 46 0 30 1;
#X connect 47 0 52 0;
#X connect 47 1 30 0;
#X connect 47 1 26 0;
#X connect 47 2 42 0;
#X connect 48 0 51 0;
#X connect 49 0 54 0;
#X connect 49 1 31 0;
#X connect 49 2 50 0;
#X connect 49 3 40 0;
#X connect 49 3 52 1;
#X connect 49 4 55 0;
#X connect 50 0 27 1;
#X connect 51 0 47 0;
#X connect 52 0 53 0;
#X connect 53 0 22 0;
#X connect 54 0 57 0;
#X connect 55 0 33 1;
#X connect 56 0 49 0;
#X connect 57 0 51 1;
#X restore 16 192 pd voice;
#X obj 16 222 *~ 10;
#X obj 16 82 * 0.01;
#X obj 42 142 sel 0 1;
#X obj 43 122 == 0;
#X obj 16 122 f 1;
#X obj 16 102 t b f;
#X obj 16 172 f;
#X obj 78 172 f;
#N canvas 176 22 741 676 voice 0;
#X obj 48 200 *~ -1;
#X obj 48 220 +~ 1;
#X obj 25 240 min~;
#X obj 352 119 *~;
#X obj 352 69 *~ 4;
#X obj 352 89 -~ 1;
#X obj 352 139 -~ 0.5;
#X obj 352 169 *~;
#X obj 352 189 *~ 4;
#X obj 352 209 -~ 0.5;
#X obj 352 239 *~;
#X obj 352 259 *~ 4;
#X obj 352 279 -~ 0.5;
#X obj 352 309 *~;
#X obj 352 329 *~ 4;
#X obj 352 349 -~ 0.5;
#X obj 352 369 *~;
#X obj 352 389 *~ 4;
#X obj 352 409 -~ 0.5;
#X obj 352 439 *~;
#X obj 352 459 *~ 4;
#X obj 352 479 -~ 0.5;
#X obj 109 469 vline~;
#X obj 36 489 *~;
#X obj 352 509 *~;
#X obj 352 529 *~ 4;
#X msg 83 120 1;
#X obj 352 549 *~;
#X obj 25 180 wrap~;
#X obj 25 160 +~ 0.9;
#X obj 167 117 f;
#X obj 183 57 / -4;
#X obj 183 77 + 100;
#X obj 36 389 lop~ 250;
#X obj 36 409 hip~ 35;
#X obj 36 509 outlet~;
#X msg 575 465 0;
#X msg 543 465 1;
#X obj 575 445 del;
#X obj 591 405 + 1;
#X obj 591 385 * 2;
#X obj 543 505 switch~;
#X obj 575 425 f;
#X obj 304 119 *~ 0.5;
#X obj 277 276 *~ 0.125;
#X obj 25 140 phasor~ 1;
#X obj 183 97 * 0.01;
#X obj 59 80 t f b b;
#X obj 24 -18 inlet level;
#X obj 136 10 route del atk_t cplx release cutoff;
#X obj 475 77 * 0.01;
#X obj 59 60 pipe;
#X obj 109 409 pack;
#X msg 109 429 \$1 10 10 \, 0 \$2 \$2;
#X obj 82 20 * 0.01;
#X obj 114 266 mtof;
#X obj 136 -20 inlet;
#X obj 82 40 mmm-ticks2ms;
#X connect 0 0 1 0;
#X connect 1 0 2 1;
#X connect 2 0 4 0;
#X connect 3 0 6 0;
#X connect 4 0 5 0;
#X connect 5 0 3 0;
#X connect 5 0 3 1;
#X connect 5 0 43 0;
#X connect 6 0 7 0;
#X connect 6 0 7 1;
#X connect 6 0 44 0;
#X connect 7 0 8 0;
#X connect 8 0 9 0;
#X connect 9 0 10 0;
#X connect 9 0 10 1;
#X connect 9 0 44 0;
#X connect 10 0 11 0;
#X connect 11 0 12 0;
#X connect 12 0 13 0;
#X connect 12 0 13 1;
#X connect 12 0 44 0;
#X connect 13 0 14 0;
#X connect 14 0 15 0;
#X connect 15 0 16 0;
#X connect 15 0 16 1;
#X connect 15 0 44 0;
#X connect 16 0 17 0;
#X connect 17 0 18 0;
#X connect 18 0 19 0;
#X connect 18 0 19 1;
#X connect 18 0 44 0;
#X connect 19 0 20 0;
#X connect 20 0 21 0;
#X connect 21 0 24 0;
#X connect 21 0 24 1;
#X connect 21 0 44 0;
#X connect 22 0 23 1;
#X connect 23 0 35 0;
#X connect 24 0 25 0;
#X connect 25 0 27 0;
#X connect 26 0 45 1;
#X connect 27 0 44 0;
#X connect 28 0 0 0;
#X connect 28 0 2 0;
#X connect 29 0 28 0;
#X connect 30 0 29 1;
#X connect 31 0 32 0;
#X connect 32 0 46 0;
#X connect 33 0 34 0;
#X connect 34 0 23 0;
#X connect 36 0 41 0;
#X connect 37 0 41 0;
#X connect 38 0 36 0;
#X connect 39 0 42 1;
#X connect 40 0 39 0;
#X connect 42 0 38 0;
#X connect 42 0 37 0;
#X connect 43 0 44 0;
#X connect 44 0 33 0;
#X connect 45 0 29 0;
#X connect 46 0 30 1;
#X connect 47 0 52 0;
#X connect 47 1 30 0;
#X connect 47 1 26 0;
#X connect 47 2 42 0;
#X connect 48 0 51 0;
#X connect 49 0 54 0;
#X connect 49 1 31 0;
#X connect 49 2 50 0;
#X connect 49 3 40 0;
#X connect 49 3 52 1;
#X connect 49 4 55 0;
#X connect 50 0 27 1;
#X connect 51 0 47 0;
#X connect 52 0 53 0;
#X connect 53 0 22 0;
#X connect 54 0 57 0;
#X connect 55 0 33 1;
#X connect 56 0 49 0;
#X connect 57 0 51 1;
#X restore 78 192 pd voice;
#X obj 16 52 route level;
#X obj 16 22 inlet;
#X text 103 228 Copyleft dondo (2006);
#X connect 1 0 2 0;
#X connect 2 0 0 0;
#X connect 3 0 7 0;
#X connect 4 0 8 0;
#X connect 4 1 9 0;
#X connect 5 0 6 1;
#X connect 5 0 4 0;
#X connect 6 0 5 0;
#X connect 7 0 6 0;
#X connect 7 1 8 1;
#X connect 7 1 9 1;
#X connect 8 0 1 0;
#X connect 9 0 10 0;
#X connect 10 0 2 0;
#X connect 11 0 3 0;
#X connect 11 1 1 1;
#X connect 11 1 10 1;
#X connect 12 0 11 0;
#X restore 94 299 pd kick;
#X obj 315 91 * 0.01;
#X obj 28 21 mmm-module \$1 \$2 dkick 6;
#X msg 28 71 level \$1;
#X msg 28 111 del \$1;
#X msg 28 151 atk_t \$1;
#X msg 28 191 cplx \$1;
#X msg 28 231 release \$1;
#X msg 28 271 cutoff \$1;
#X obj 28 131 mmm-ctrl \$1 \$2 3 atk_t 0 100 10 int;
#X obj 28 251 mmm-ctrl \$1 \$2 6 cutoff 25 123 74 int;
#N canvas 514 142 327 307 f2s 0;
#X obj 27 25 inlet;
#X obj 27 225 outlet;
#X msg 103 165 set \$1;
#X obj 27 195 makefilename;
#X obj 27 55 t f f f;
#X obj 49 95 -;
#X obj 49 115 sel 0;
#X msg 49 145 set %d;
#X obj 71 75 int;
#X obj 103 125 * 100.001;
#X obj 103 145 makefilename %%d.%02d;
#X connect 0 0 4 0;
#X connect 2 0 3 0;
#X connect 3 0 1 0;
#X connect 4 0 3 0;
#X connect 4 1 5 0;
#X connect 4 2 8 0;
#X connect 5 0 6 0;
#X connect 6 0 7 0;
#X connect 6 1 9 0;
#X connect 7 0 3 0;
#X connect 8 0 5 1;
#X connect 9 0 10 0;
#X connect 10 0 2 0;
#X restore 267 91 pd f2s;
#X msg 254 21 version 0.3.2;
#X obj 28 51 mmm-ctrl \$1 \$2 1 level 0 100 -1 int;
#X obj 28 91 mmm-ctrl \$1 \$2 2 del 0 100 -1 ext;
#X obj 28 171 mmm-ctrl \$1 \$2 4 cplx 0 100 50 int;
#X obj 28 211 mmm-ctrl \$1 \$2 5 release 0 350 175 int;
#X connect 0 0 5 0;
#X connect 1 0 4 0;
#X connect 2 0 0 0;
#X connect 3 0 1 0;
#X connect 6 0 5 0;
#X connect 6 0 4 0;
#X connect 7 0 17 0;
#X connect 9 0 6 0;
#X connect 10 0 6 0;
#X connect 11 0 6 0;
#X connect 12 0 6 0;
#X connect 13 0 6 0;
#X connect 14 0 6 0;
#X connect 15 0 11 0;
#X connect 16 0 14 0;
#X connect 17 0 20 1;
#X connect 19 0 9 0;
#X connect 20 0 10 0;
#X connect 20 2 7 0;
#X connect 21 0 12 0;
#X connect 22 0 13 0;
