#N canvas 99 44 741 670 10;
#X obj 403 151 r~ 1-nothing;
#X obj 556 151 r~ 1-nothing;
#X obj 403 131 r \$1-\$2L-r;
#X obj 556 131 r \$1-\$2R-r;
#X obj 556 250 s~ \$1-\$2R;
#X obj 403 250 s~ \$1-\$2L;
#X obj 28 51 mmm-ctrl \$1 \$2 1 kick 0 100 0 int;
#X text 399 281 port of dondos ddrum.pd;
#X obj 28 91 mmm-ctrl \$1 \$2 3 atk_t 0 100 10 int;
#X obj 28 111 mmm-ctrl \$1 \$2 4 cplx 0 100 0 int;
#X obj 28 131 mmm-ctrl \$1 \$2 5 release 0 350 250 int;
#N canvas 689 386 309 349 kick 0;
#X obj 16 282 outlet~;
#N canvas 176 22 729 664 voice 0;
#X obj 48 200 *~ -1;
#X obj 48 220 +~ 1;
#X obj 25 240 min~;
#X obj 352 119 *~;
#X obj 352 69 *~ 4;
#X obj 352 89 -~ 1;
#X obj 352 139 -~ 0.5;
#X obj 352 169 *~;
#X obj 352 189 *~ 4;
#X obj 352 209 -~ 0.5;
#X obj 352 239 *~;
#X obj 352 259 *~ 4;
#X obj 352 279 -~ 0.5;
#X obj 352 309 *~;
#X obj 352 329 *~ 4;
#X obj 352 349 -~ 0.5;
#X obj 352 369 *~;
#X obj 352 389 *~ 4;
#X obj 352 409 -~ 0.5;
#X obj 352 439 *~;
#X obj 352 459 *~ 4;
#X obj 352 479 -~ 0.5;
#X obj 109 469 vline~;
#X obj 36 489 *~;
#X obj 352 509 *~;
#X obj 352 529 *~ 4;
#X msg 83 120 1;
#X obj 352 549 *~;
#X obj 25 180 wrap~;
#X obj 25 160 +~ 0.9;
#X obj 167 117 f;
#X obj 183 57 / -4;
#X obj 183 77 + 100;
#X obj 36 389 lop~ 250;
#X obj 36 409 hip~ 35;
#X obj 36 509 outlet~;
#X text 432 10 Copyleft dondo (2006);
#X msg 575 465 0;
#X msg 543 465 1;
#X obj 575 445 del;
#X obj 591 405 + 1;
#X obj 591 385 * 2;
#X obj 543 505 switch~;
#X obj 136 -20 r \$3;
#X obj 575 425 f;
#X obj 304 119 *~ 0.5;
#X obj 277 276 *~ 0.125;
#X obj 25 140 phasor~ 1;
#X obj 183 97 * 0.01;
#X obj 59 80 t f b b;
#X obj 24 -18 inlet level;
#X obj 136 10 route del atk_t cplx release cutoff;
#X obj 475 77 * 0.01;
#X obj 59 60 pipe;
#N canvas 0 22 399 317 ticks2ms 0;
#X obj 80 51 r netpd-receive;
#X obj 80 91 route mmm;
#X obj 80 111 route bpm;
#X obj 88 71 r data.state;
#X obj 211 51 loadbang;
#X msg 211 71 \; data.getstate mmm bpm;
#X obj 80 151 /;
#X obj 80 171 t b f;
#X obj 10 21 inlet;
#X obj 10 231 outlet;
#X msg 80 131 15000 \$1;
#X obj 10 201 *;
#X connect 0 0 1 0;
#X connect 1 0 2 0;
#X connect 2 0 10 0;
#X connect 3 0 1 0;
#X connect 4 0 5 0;
#X connect 6 0 7 0;
#X connect 7 0 11 0;
#X connect 7 1 11 1;
#X connect 8 0 11 0;
#X connect 10 0 6 0;
#X connect 11 0 9 0;
#X restore 82 40 pd ticks2ms;
#X obj 109 409 pack;
#X msg 109 429 \$1 10 10 \, 0 \$2 \$2;
#X obj 82 20 * 0.01;
#X obj 114 266 mtof;
#X connect 0 0 1 0;
#X connect 1 0 2 1;
#X connect 2 0 4 0;
#X connect 3 0 6 0;
#X connect 4 0 5 0;
#X connect 5 0 3 0;
#X connect 5 0 3 1;
#X connect 5 0 45 0;
#X connect 6 0 7 0;
#X connect 6 0 7 1;
#X connect 6 0 46 0;
#X connect 7 0 8 0;
#X connect 8 0 9 0;
#X connect 9 0 10 0;
#X connect 9 0 10 1;
#X connect 9 0 46 0;
#X connect 10 0 11 0;
#X connect 11 0 12 0;
#X connect 12 0 13 0;
#X connect 12 0 13 1;
#X connect 12 0 46 0;
#X connect 13 0 14 0;
#X connect 14 0 15 0;
#X connect 15 0 16 0;
#X connect 15 0 16 1;
#X connect 15 0 46 0;
#X connect 16 0 17 0;
#X connect 17 0 18 0;
#X connect 18 0 19 0;
#X connect 18 0 19 1;
#X connect 18 0 46 0;
#X connect 19 0 20 0;
#X connect 20 0 21 0;
#X connect 21 0 24 0;
#X connect 21 0 24 1;
#X connect 21 0 46 0;
#X connect 22 0 23 1;
#X connect 23 0 35 0;
#X connect 24 0 25 0;
#X connect 25 0 27 0;
#X connect 26 0 47 1;
#X connect 27 0 46 0;
#X connect 28 0 0 0;
#X connect 28 0 2 0;
#X connect 29 0 28 0;
#X connect 30 0 29 1;
#X connect 31 0 32 0;
#X connect 32 0 48 0;
#X connect 33 0 34 0;
#X connect 34 0 23 0;
#X connect 37 0 42 0;
#X connect 38 0 42 0;
#X connect 39 0 37 0;
#X connect 40 0 44 1;
#X connect 41 0 40 0;
#X connect 43 0 51 0;
#X connect 44 0 39 0;
#X connect 44 0 38 0;
#X connect 45 0 46 0;
#X connect 46 0 33 0;
#X connect 47 0 29 0;
#X connect 48 0 30 1;
#X connect 49 0 55 0;
#X connect 49 1 30 0;
#X connect 49 1 26 0;
#X connect 49 2 44 0;
#X connect 50 0 53 0;
#X connect 51 0 57 0;
#X connect 51 1 31 0;
#X connect 51 2 52 0;
#X connect 51 3 41 0;
#X connect 51 3 55 1;
#X connect 51 4 58 0;
#X connect 52 0 27 1;
#X connect 53 0 49 0;
#X connect 54 0 53 1;
#X connect 55 0 56 0;
#X connect 56 0 22 0;
#X connect 57 0 54 0;
#X connect 58 0 33 1;
#X restore 16 192 pd voice;
#X obj 16 222 *~ 10;
#X obj 16 82 * 0.01;
#X obj 16 22 r \$3;
#X obj 16 52 route kick;
#X obj 42 142 sel 0 1;
#X obj 43 122 == 0;
#X obj 16 122 f 1;
#X obj 16 102 t b f;
#X obj 16 172 f;
#X obj 78 172 f;
#N canvas 176 22 729 664 voice 0;
#X obj 48 200 *~ -1;
#X obj 48 220 +~ 1;
#X obj 25 240 min~;
#X obj 352 119 *~;
#X obj 352 69 *~ 4;
#X obj 352 89 -~ 1;
#X obj 352 139 -~ 0.5;
#X obj 352 169 *~;
#X obj 352 189 *~ 4;
#X obj 352 209 -~ 0.5;
#X obj 352 239 *~;
#X obj 352 259 *~ 4;
#X obj 352 279 -~ 0.5;
#X obj 352 309 *~;
#X obj 352 329 *~ 4;
#X obj 352 349 -~ 0.5;
#X obj 352 369 *~;
#X obj 352 389 *~ 4;
#X obj 352 409 -~ 0.5;
#X obj 352 439 *~;
#X obj 352 459 *~ 4;
#X obj 352 479 -~ 0.5;
#X obj 109 469 vline~;
#X obj 36 489 *~;
#X obj 352 509 *~;
#X obj 352 529 *~ 4;
#X msg 83 120 1;
#X obj 352 549 *~;
#X obj 25 180 wrap~;
#X obj 25 160 +~ 0.9;
#X obj 167 117 f;
#X obj 183 57 / -4;
#X obj 183 77 + 100;
#X obj 36 389 lop~ 250;
#X obj 36 409 hip~ 35;
#X obj 36 509 outlet~;
#X text 432 10 Copyleft dondo (2006);
#X msg 575 465 0;
#X msg 543 465 1;
#X obj 575 445 del;
#X obj 591 405 + 1;
#X obj 591 385 * 2;
#X obj 543 505 switch~;
#X obj 136 -20 r \$3;
#X obj 575 425 f;
#X obj 304 119 *~ 0.5;
#X obj 277 276 *~ 0.125;
#X obj 25 140 phasor~ 1;
#X obj 183 97 * 0.01;
#X obj 59 80 t f b b;
#X obj 24 -18 inlet level;
#X obj 136 10 route del atk_t cplx release cutoff;
#X obj 475 77 * 0.01;
#X obj 59 60 pipe;
#N canvas 0 22 399 317 ticks2ms 0;
#X obj 80 51 r netpd-receive;
#X obj 80 91 route mmm;
#X obj 80 111 route bpm;
#X obj 88 71 r data.state;
#X obj 211 51 loadbang;
#X msg 211 71 \; data.getstate mmm bpm;
#X obj 80 151 /;
#X obj 80 171 t b f;
#X obj 10 21 inlet;
#X obj 10 231 outlet;
#X msg 80 131 15000 \$1;
#X obj 10 201 *;
#X connect 0 0 1 0;
#X connect 1 0 2 0;
#X connect 2 0 10 0;
#X connect 3 0 1 0;
#X connect 4 0 5 0;
#X connect 6 0 7 0;
#X connect 7 0 11 0;
#X connect 7 1 11 1;
#X connect 8 0 11 0;
#X connect 10 0 6 0;
#X connect 11 0 9 0;
#X restore 82 40 pd ticks2ms;
#X obj 109 409 pack;
#X msg 109 429 \$1 10 10 \, 0 \$2 \$2;
#X obj 82 20 * 0.01;
#X obj 114 266 mtof;
#X connect 0 0 1 0;
#X connect 1 0 2 1;
#X connect 2 0 4 0;
#X connect 3 0 6 0;
#X connect 4 0 5 0;
#X connect 5 0 3 0;
#X connect 5 0 3 1;
#X connect 5 0 45 0;
#X connect 6 0 7 0;
#X connect 6 0 7 1;
#X connect 6 0 46 0;
#X connect 7 0 8 0;
#X connect 8 0 9 0;
#X connect 9 0 10 0;
#X connect 9 0 10 1;
#X connect 9 0 46 0;
#X connect 10 0 11 0;
#X connect 11 0 12 0;
#X connect 12 0 13 0;
#X connect 12 0 13 1;
#X connect 12 0 46 0;
#X connect 13 0 14 0;
#X connect 14 0 15 0;
#X connect 15 0 16 0;
#X connect 15 0 16 1;
#X connect 15 0 46 0;
#X connect 16 0 17 0;
#X connect 17 0 18 0;
#X connect 18 0 19 0;
#X connect 18 0 19 1;
#X connect 18 0 46 0;
#X connect 19 0 20 0;
#X connect 20 0 21 0;
#X connect 21 0 24 0;
#X connect 21 0 24 1;
#X connect 21 0 46 0;
#X connect 22 0 23 1;
#X connect 23 0 35 0;
#X connect 24 0 25 0;
#X connect 25 0 27 0;
#X connect 26 0 47 1;
#X connect 27 0 46 0;
#X connect 28 0 0 0;
#X connect 28 0 2 0;
#X connect 29 0 28 0;
#X connect 30 0 29 1;
#X connect 31 0 32 0;
#X connect 32 0 48 0;
#X connect 33 0 34 0;
#X connect 34 0 23 0;
#X connect 37 0 42 0;
#X connect 38 0 42 0;
#X connect 39 0 37 0;
#X connect 40 0 44 1;
#X connect 41 0 40 0;
#X connect 43 0 51 0;
#X connect 44 0 39 0;
#X connect 44 0 38 0;
#X connect 45 0 46 0;
#X connect 46 0 33 0;
#X connect 47 0 29 0;
#X connect 48 0 30 1;
#X connect 49 0 55 0;
#X connect 49 1 30 0;
#X connect 49 1 26 0;
#X connect 49 2 44 0;
#X connect 50 0 53 0;
#X connect 51 0 57 0;
#X connect 51 1 31 0;
#X connect 51 2 52 0;
#X connect 51 3 41 0;
#X connect 51 3 55 1;
#X connect 51 4 58 0;
#X connect 52 0 27 1;
#X connect 53 0 49 0;
#X connect 54 0 53 1;
#X connect 55 0 56 0;
#X connect 56 0 22 0;
#X connect 57 0 54 0;
#X connect 58 0 33 1;
#X restore 78 192 pd voice;
#X connect 1 0 2 0;
#X connect 2 0 0 0;
#X connect 3 0 9 0;
#X connect 4 0 5 0;
#X connect 5 0 3 0;
#X connect 6 0 10 0;
#X connect 6 1 11 0;
#X connect 7 0 8 1;
#X connect 7 0 6 0;
#X connect 8 0 7 0;
#X connect 9 0 8 0;
#X connect 9 1 10 1;
#X connect 9 1 11 1;
#X connect 10 0 1 0;
#X connect 11 0 12 0;
#X connect 12 0 2 0;
#X restore 424 196 pd kick;
#X obj 28 71 mmm-ctrl \$1 \$2 2 del 0 100 0 ext;
#X obj 376 71 * 0.01;
#X obj 279 71 makesymbol %s;
#N canvas 545 379 295 399 snare 0;
#N canvas 189 48 542 471 voice 0;
#X obj 128 261 osc~;
#X obj 65 383 *~;
#X msg 128 154 \$1 0 \, \$2 \$3;
#X obj 128 134 pack f f f;
#X msg 232 187 \$1 0 \, \$2 \$3;
#X obj 232 167 pack f f f;
#X msg 151 230 1;
#X obj 196 354 vline~;
#X obj 128 174 vline~;
#X obj 232 207 vline~;
#X obj 65 413 outlet~;
#X obj 79 83 f;
#X obj 231 127 f;
#X obj 65 353 vcf~ 1.1;
#X obj 88 261 osc~;
#X msg 20 178 \$1 0 \, \$2 \$3;
#X obj 20 158 pack f f f;
#X obj 20 198 vline~;
#X obj 394 56 / 200;
#X obj 29 261 noise~;
#N canvas 172 343 284 202 xfad 0;
#X obj 27 166 outlet~;
#X obj 27 24 inlet~;
#X obj 128 24 inlet~;
#X obj 216 23 inlet;
#X obj 43 86 * -1;
#X obj 43 106 + 1;
#X obj 27 126 *~;
#X obj 128 126 *~;
#X connect 1 0 6 0;
#X connect 2 0 7 0;
#X connect 3 0 4 0;
#X connect 3 0 7 1;
#X connect 4 0 5 0;
#X connect 5 0 6 1;
#X connect 6 0 0 0;
#X connect 7 0 0 0;
#X restore 65 313 pd xfad;
#X obj 379 131 * 1.618;
#X obj 160 104 * 0.9612;
#X obj 232 147 * 2;
#X obj 20 138 * 1.618;
#X obj 54 20 inlet;
#X obj 130 16 r \$3;
#X obj 234 56 * 0.01;
#X obj 130 36 route s-tune decay snap flt_start flt_end reso;
#X msg 441 307 0;
#X msg 409 307 1;
#X obj 441 287 del;
#X obj 409 347 switch~;
#X obj 441 267 f;
#X obj 54 40 t f b b;
#X obj 196 314 pack f f;
#X msg 196 334 \$1 10 \, 0 \$2 10;
#X obj 457 247 + 2;
#X obj 247 107 mtof;
#X obj 263 127 mtof;
#X connect 0 0 20 1;
#X connect 1 0 10 0;
#X connect 2 0 8 0;
#X connect 3 0 2 0;
#X connect 4 0 9 0;
#X connect 5 0 4 0;
#X connect 6 0 0 1;
#X connect 6 0 14 1;
#X connect 7 0 1 1;
#X connect 8 0 0 0;
#X connect 9 0 13 1;
#X connect 11 0 3 0;
#X connect 11 0 24 0;
#X connect 12 0 23 0;
#X connect 13 0 1 0;
#X connect 14 0 20 1;
#X connect 15 0 17 0;
#X connect 16 0 15 0;
#X connect 17 0 14 0;
#X connect 18 0 13 2;
#X connect 19 0 20 0;
#X connect 20 0 13 0;
#X connect 21 0 5 2;
#X connect 21 0 35 1;
#X connect 21 0 37 0;
#X connect 22 0 3 1;
#X connect 22 0 16 1;
#X connect 23 0 5 0;
#X connect 24 0 16 0;
#X connect 25 0 34 0;
#X connect 26 0 28 0;
#X connect 27 0 20 2;
#X connect 28 0 11 1;
#X connect 28 0 22 0;
#X connect 28 1 3 2;
#X connect 28 1 16 2;
#X connect 28 1 21 0;
#X connect 28 2 27 0;
#X connect 28 3 38 0;
#X connect 28 4 39 0;
#X connect 28 5 18 0;
#X connect 29 0 32 0;
#X connect 30 0 32 0;
#X connect 31 0 29 0;
#X connect 33 0 31 0;
#X connect 33 0 30 0;
#X connect 34 0 35 0;
#X connect 34 1 12 0;
#X connect 34 1 6 0;
#X connect 34 1 11 0;
#X connect 34 2 33 0;
#X connect 35 0 36 0;
#X connect 36 0 7 0;
#X connect 37 0 33 1;
#X connect 38 0 12 1;
#X connect 39 0 5 1;
#X restore 29 202 pd voice;
#X obj 28 349 outlet~;
#X obj 58 314 *~;
#X obj 29 22 r \$3;
#X obj 55 142 sel 0 1;
#X obj 56 122 == 0;
#X obj 29 122 f 1;
#X obj 29 102 t b f;
#X obj 29 172 f;
#X obj 99 172 f;
#X obj 185 203 * 0.01;
#X obj 29 232 *~ 0.25;
#N canvas 307 68 826 544 rev2 0;
#X obj 162 336 +~;
#X obj 444 385 -~;
#X obj 365 384 -~;
#X obj 240 376 +~;
#X obj 162 373 +~;
#X obj 163 283 +~;
#X obj 263 279 +~;
#X obj 465 340 -~;
#X obj 388 338 +~;
#X obj 240 339 -~;
#X obj 225 23 delread~ \$0-del1 58.6435;
#X obj 303 45 delread~ \$0-del2 69.4325;
#X obj 385 67 delread~ \$0-del3 74.5234;
#X obj 467 91 delread~ \$0-del4 86.1244;
#X obj 162 480 delwrite~ \$0-del1 58.6435;
#X obj 241 456 delwrite~ \$0-del2 69.4325;
#X obj 366 434 delwrite~ \$0-del3 74.5234;
#X obj 444 405 delwrite~ \$0-del4 86.1244;
#X obj 34 223 inlet~;
#X obj 531 364 outlet~;
#X obj 600 364 outlet~;
#X obj 668 364 outlet~;
#X obj 736 364 outlet~;
#N canvas 345 88 359 601 early-reflect 0;
#X obj 119 477 delread~ \$0-ref6 13.645;
#X obj 119 453 delwrite~ \$0-ref6 13.645;
#X obj 106 400 delread~ \$0-ref5 16.364;
#X obj 106 376 delwrite~ \$0-ref5 16.364;
#X obj 102 324 delread~ \$0-ref4 19.392;
#X obj 102 300 delwrite~ \$0-ref4 19.392;
#X obj 106 247 delread~ \$0-ref3 25.796;
#X obj 106 223 delwrite~ \$0-ref3 25.796;
#X obj 107 169 delread~ \$0-ref2 43.5337;
#X obj 107 145 delwrite~ \$0-ref2 43.5337;
#X obj 110 90 delread~ \$0-ref1 75.2546;
#X obj 84 119 -~;
#X obj 49 119 +~;
#X obj 50 195 +~;
#X obj 85 196 -~;
#X obj 84 275 -~;
#X obj 49 274 +~;
#X obj 82 349 -~;
#X obj 48 350 +~;
#X obj 83 428 -~;
#X obj 49 428 +~;
#X obj 65 7 inlet~;
#X obj 110 66 delwrite~ \$0-ref1 75.2546;
#X obj 49 508 outlet~;
#X obj 119 507 outlet~;
#X connect 0 0 24 0;
#X connect 2 0 20 1;
#X connect 2 0 19 1;
#X connect 4 0 18 1;
#X connect 4 0 17 1;
#X connect 6 0 16 1;
#X connect 6 0 15 1;
#X connect 8 0 13 1;
#X connect 8 0 14 1;
#X connect 10 0 12 1;
#X connect 10 0 11 1;
#X connect 11 0 9 0;
#X connect 12 0 14 0;
#X connect 12 0 13 0;
#X connect 13 0 16 0;
#X connect 13 0 15 0;
#X connect 14 0 7 0;
#X connect 15 0 5 0;
#X connect 16 0 18 0;
#X connect 16 0 17 0;
#X connect 17 0 3 0;
#X connect 18 0 20 0;
#X connect 18 0 19 0;
#X connect 19 0 1 0;
#X connect 20 0 23 0;
#X connect 21 0 12 0;
#X connect 21 0 11 0;
#X connect 21 0 22 0;
#X restore 34 249 pd early-reflect;
#X obj 238 171 -~;
#X obj 315 176 -~;
#X obj 397 175 -~;
#X obj 490 176 -~;
#X obj 237 202 *~ 0.8;
#X obj 314 211 *~ 0.8;
#X obj 396 216 *~ 0.8;
#X obj 490 220 *~ 0.8;
#X obj 261 138 lop~ 2000;
#X obj 341 142 lop~ 2000;
#X obj 423 147 lop~ 2000;
#X obj 517 151 lop~ 2000;
#X obj 487 251 *~ 0.27;
#X obj 388 251 *~ 0.27;
#X obj 286 251 *~ 0.27;
#X obj 185 246 *~ 0.27;
#X obj 736 340 *~ 0.079;
#X obj 668 339 *~ 0.079;
#X obj 600 340 *~ 0.079;
#X obj 529 339 *~ 0.079;
#X connect 0 0 4 0;
#X connect 0 0 2 0;
#X connect 1 0 17 0;
#X connect 2 0 16 0;
#X connect 3 0 15 0;
#X connect 4 0 14 0;
#X connect 5 0 9 0;
#X connect 5 0 0 0;
#X connect 5 0 43 0;
#X connect 6 0 0 1;
#X connect 6 0 9 1;
#X connect 6 0 42 0;
#X connect 7 0 3 1;
#X connect 7 0 1 1;
#X connect 8 0 4 1;
#X connect 8 0 2 1;
#X connect 9 0 3 0;
#X connect 9 0 1 0;
#X connect 10 0 24 1;
#X connect 10 0 32 0;
#X connect 10 0 39 0;
#X connect 11 0 25 1;
#X connect 11 0 33 0;
#X connect 11 0 38 0;
#X connect 12 0 26 1;
#X connect 12 0 34 0;
#X connect 12 0 37 0;
#X connect 13 0 27 1;
#X connect 13 0 35 0;
#X connect 13 0 36 0;
#X connect 18 0 23 0;
#X connect 23 0 5 0;
#X connect 23 1 6 0;
#X connect 24 0 28 0;
#X connect 25 0 29 0;
#X connect 26 0 30 0;
#X connect 27 0 31 0;
#X connect 28 0 39 0;
#X connect 29 0 38 0;
#X connect 30 0 37 0;
#X connect 31 0 36 0;
#X connect 32 0 24 0;
#X connect 33 0 25 0;
#X connect 34 0 26 0;
#X connect 35 0 27 0;
#X connect 36 0 7 1;
#X connect 36 0 8 1;
#X connect 36 0 40 0;
#X connect 37 0 8 0;
#X connect 37 0 7 0;
#X connect 37 0 41 0;
#X connect 38 0 6 1;
#X connect 39 0 5 1;
#X connect 40 0 22 0;
#X connect 41 0 21 0;
#X connect 42 0 20 0;
#X connect 43 0 19 0;
#X restore 64 278 pd rev2;
#X obj 84 349 outlet~;
#X obj 114 314 *~;
#X obj 29 52 route snare rev;
#X obj 29 82 * 0.01;
#N canvas 189 48 538 467 voice 0;
#X obj 128 261 osc~;
#X obj 65 383 *~;
#X msg 128 154 \$1 0 \, \$2 \$3;
#X obj 128 134 pack f f f;
#X msg 232 187 \$1 0 \, \$2 \$3;
#X obj 232 167 pack f f f;
#X msg 151 230 1;
#X obj 196 354 vline~;
#X obj 128 174 vline~;
#X obj 232 207 vline~;
#X obj 65 413 outlet~;
#X obj 79 83 f;
#X obj 231 127 f;
#X obj 65 353 vcf~ 1.1;
#X obj 88 261 osc~;
#X msg 20 178 \$1 0 \, \$2 \$3;
#X obj 20 158 pack f f f;
#X obj 20 198 vline~;
#X obj 394 56 / 200;
#X obj 29 261 noise~;
#N canvas 172 343 284 202 xfad 0;
#X obj 27 166 outlet~;
#X obj 27 24 inlet~;
#X obj 128 24 inlet~;
#X obj 216 23 inlet;
#X obj 43 86 * -1;
#X obj 43 106 + 1;
#X obj 27 126 *~;
#X obj 128 126 *~;
#X connect 1 0 6 0;
#X connect 2 0 7 0;
#X connect 3 0 4 0;
#X connect 3 0 7 1;
#X connect 4 0 5 0;
#X connect 5 0 6 1;
#X connect 6 0 0 0;
#X connect 7 0 0 0;
#X restore 65 313 pd xfad;
#X obj 379 131 * 1.618;
#X obj 160 104 * 0.9612;
#X obj 232 147 * 2;
#X obj 20 138 * 1.618;
#X obj 54 20 inlet;
#X obj 130 16 r \$3;
#X obj 234 56 * 0.01;
#X obj 130 36 route s-tune decay snap flt_start flt_end reso;
#X msg 441 307 0;
#X msg 409 307 1;
#X obj 441 287 del;
#X obj 409 347 switch~;
#X obj 441 267 f;
#X obj 54 40 t f b b;
#X obj 196 314 pack f f;
#X msg 196 334 \$1 10 \, 0 \$2 10;
#X obj 457 247 + 2;
#X obj 247 107 mtof;
#X obj 263 127 mtof;
#X connect 0 0 20 1;
#X connect 1 0 10 0;
#X connect 2 0 8 0;
#X connect 3 0 2 0;
#X connect 4 0 9 0;
#X connect 5 0 4 0;
#X connect 6 0 0 1;
#X connect 6 0 14 1;
#X connect 7 0 1 1;
#X connect 8 0 0 0;
#X connect 9 0 13 1;
#X connect 11 0 3 0;
#X connect 11 0 24 0;
#X connect 12 0 23 0;
#X connect 13 0 1 0;
#X connect 14 0 20 1;
#X connect 15 0 17 0;
#X connect 16 0 15 0;
#X connect 17 0 14 0;
#X connect 18 0 13 2;
#X connect 19 0 20 0;
#X connect 20 0 13 0;
#X connect 21 0 5 2;
#X connect 21 0 35 1;
#X connect 21 0 37 0;
#X connect 22 0 3 1;
#X connect 22 0 16 1;
#X connect 23 0 5 0;
#X connect 24 0 16 0;
#X connect 25 0 34 0;
#X connect 26 0 28 0;
#X connect 27 0 20 2;
#X connect 28 0 11 1;
#X connect 28 0 22 0;
#X connect 28 1 3 2;
#X connect 28 1 16 2;
#X connect 28 1 21 0;
#X connect 28 2 27 0;
#X connect 28 3 38 0;
#X connect 28 4 39 0;
#X connect 28 5 18 0;
#X connect 29 0 32 0;
#X connect 30 0 32 0;
#X connect 31 0 29 0;
#X connect 33 0 31 0;
#X connect 33 0 30 0;
#X connect 34 0 35 0;
#X connect 34 1 12 0;
#X connect 34 1 6 0;
#X connect 34 1 11 0;
#X connect 34 2 33 0;
#X connect 35 0 36 0;
#X connect 36 0 7 0;
#X connect 37 0 33 1;
#X connect 38 0 12 1;
#X connect 39 0 5 1;
#X restore 99 202 pd voice;
#X connect 0 0 11 0;
#X connect 2 0 1 0;
#X connect 3 0 15 0;
#X connect 4 0 8 0;
#X connect 4 1 9 0;
#X connect 5 0 6 1;
#X connect 5 0 4 0;
#X connect 6 0 5 0;
#X connect 7 0 6 0;
#X connect 7 1 8 1;
#X connect 7 1 9 1;
#X connect 8 0 0 0;
#X connect 9 0 17 0;
#X connect 10 0 2 1;
#X connect 10 0 14 1;
#X connect 11 0 1 0;
#X connect 11 0 12 0;
#X connect 11 0 13 0;
#X connect 12 0 2 0;
#X connect 12 1 14 0;
#X connect 14 0 13 0;
#X connect 15 0 16 0;
#X connect 15 1 10 0;
#X connect 16 0 7 0;
#X connect 17 0 11 0;
#X restore 479 196 pd snare;
#X obj 28 181 mmm-ctrl \$1 \$2 8 snare 0 100 0 int;
#X obj 28 201 mmm-ctrl \$1 \$2 9 s-tune 120 200 155 int;
#X obj 28 221 mmm-ctrl \$1 \$2 10 decay 25 120 48 int;
#X obj 28 241 mmm-ctrl \$1 \$2 11 snap 25 75 50 int;
#X obj 28 301 mmm-ctrl \$1 \$2 14 reso 50 200 80 int;
#X obj 28 321 mmm-ctrl \$1 \$2 15 rev 0 100 70 int;
#X obj 28 351 mmm-ctrl \$1 \$2 17 hi-hat 0 100 0 int;
#X obj 28 371 mmm-ctrl \$1 \$2 18 wave 6 200 27 int;
#X obj 28 391 mmm-ctrl \$1 \$2 19 smpl 0 100 50 int;
#X obj 28 411 mmm-ctrl \$1 \$2 20 dec 5 100 15 int;
#X obj 28 451 mmm-ctrl \$1 \$2 22 res 2 30 18 int;
#X obj 28 481 mmm-ctrl \$1 \$2 24 clap 0 100 0 int;
#X obj 28 531 mmm-ctrl \$1 \$2 27 low-tom 0 100 0 int;
#X obj 28 551 mmm-ctrl \$1 \$2 28 lt-tune 60 110 90 int;
#X obj 28 581 mmm-ctrl \$1 \$2 30 hi-tom 0 100 0 int;
#X obj 28 601 mmm-ctrl \$1 \$2 31 ht-tune 110 180 125 int;
#N canvas 827 447 277 307 hats 0;
#X obj 16 232 outlet~;
#X obj 16 82 * 0.01;
#X obj 16 22 r \$3;
#X obj 42 142 sel 0 1;
#X obj 43 122 == 0;
#X obj 16 122 f 1;
#X obj 16 102 t b f;
#X obj 16 172 f;
#X obj 85 172 f;
#N canvas 392 64 697 569 voice 0;
#X obj 132 111 +~ 1;
#X obj 171 86 osc~;
#X obj 172 111 +~ 1;
#X obj 132 139 *~;
#X obj 172 139 *~;
#X obj 221 84 osc~;
#X obj 26 40 * 100;
#X obj 342 191 vline~;
#X obj 131 86 osc~;
#X obj 270 410 *~;
#X obj 454 251 * 1.618;
#X obj 454 283 * 1.618;
#X obj 454 316 * 1.618;
#X obj 148 22 * 1.618;
#X obj 188 51 * 1.618;
#X obj 94 85 osc~;
#X obj 95 110 +~ 1;
#X obj 95 138 *~;
#X obj 71 21 * 1.618;
#X obj 111 50 * 1.618;
#X obj 367 258 *~ 3;
#X obj 376 318 *~ 5;
#X obj 367 238 vcf~ 12;
#X obj 376 298 vcf~ 12;
#X obj 68 256 +~ 1;
#X obj 107 231 osc~;
#X obj 108 256 +~ 1;
#X obj 68 284 *~;
#X obj 108 284 *~;
#X obj 157 229 osc~;
#X obj 67 231 osc~;
#X obj 84 167 * 1.618;
#X obj 124 196 * 1.618;
#N canvas 395 246 304 207 xfad 0;
#X obj 25 156 outlet~;
#X obj 24 24 inlet~;
#X obj 125 24 inlet~;
#X obj 213 23 inlet;
#X obj 213 53 * -1;
#X obj 213 73 + 1;
#X obj 24 116 *~;
#X obj 125 116 *~;
#X connect 1 0 6 0;
#X connect 2 0 7 0;
#X connect 3 0 4 0;
#X connect 3 0 7 1;
#X connect 4 0 5 0;
#X connect 5 0 6 1;
#X connect 6 0 0 0;
#X connect 7 0 0 0;
#X restore 206 167 pd xfad;
#X obj 270 390 /~ 6;
#X msg 345 70 1;
#X obj 584 69 * 10;
#X obj 270 430 outlet~;
#X obj 270 185 hip~ 6000;
#X obj 580 281 switch~;
#X msg 616 248 0;
#X msg 580 249 1;
#X obj 616 213 del;
#X obj 346 21 inlet;
#X obj 347 -9 * 0.01;
#X obj 318 -69 r \$3;
#X obj 318 -39 route wave smpl dec freq reso;
#X obj 342 151 pack f f;
#X msg 342 171 \$1 10 \, 0 \$2 10;
#X obj 345 50 t b f b;
#X obj 632 179 + 2;
#X obj 270 265 *~ 0.25;
#X obj 585 48 mtof;
#X connect 0 0 3 0;
#X connect 1 0 2 0;
#X connect 2 0 4 0;
#X connect 3 0 1 0;
#X connect 4 0 5 0;
#X connect 5 0 33 0;
#X connect 6 0 18 0;
#X connect 6 0 15 0;
#X connect 6 0 30 0;
#X connect 6 0 31 0;
#X connect 7 0 9 1;
#X connect 8 0 0 0;
#X connect 9 0 37 0;
#X connect 10 0 11 0;
#X connect 10 0 22 1;
#X connect 11 0 12 0;
#X connect 12 0 23 1;
#X connect 13 0 3 1;
#X connect 13 0 14 0;
#X connect 14 0 4 1;
#X connect 15 0 16 0;
#X connect 16 0 17 0;
#X connect 17 0 8 0;
#X connect 18 0 19 0;
#X connect 19 0 17 1;
#X connect 19 0 13 0;
#X connect 20 0 34 0;
#X connect 21 0 34 0;
#X connect 22 0 20 0;
#X connect 23 0 21 0;
#X connect 24 0 27 0;
#X connect 25 0 26 0;
#X connect 26 0 28 0;
#X connect 27 0 25 0;
#X connect 28 0 29 0;
#X connect 29 0 33 1;
#X connect 30 0 24 0;
#X connect 31 0 27 1;
#X connect 31 0 32 0;
#X connect 32 0 28 1;
#X connect 33 0 38 0;
#X connect 34 0 9 0;
#X connect 35 0 29 1;
#X connect 35 0 25 1;
#X connect 35 0 30 1;
#X connect 35 0 1 1;
#X connect 35 0 5 1;
#X connect 35 0 8 1;
#X connect 35 0 15 1;
#X connect 36 0 10 0;
#X connect 38 0 22 0;
#X connect 38 0 23 0;
#X connect 38 0 51 0;
#X connect 40 0 39 0;
#X connect 41 0 39 0;
#X connect 42 0 40 0;
#X connect 43 0 49 0;
#X connect 44 0 33 2;
#X connect 45 0 46 0;
#X connect 46 0 6 0;
#X connect 46 1 44 0;
#X connect 46 2 47 1;
#X connect 46 2 50 0;
#X connect 46 3 52 0;
#X connect 46 4 23 2;
#X connect 46 4 22 2;
#X connect 47 0 48 0;
#X connect 48 0 7 0;
#X connect 49 0 35 0;
#X connect 49 1 47 0;
#X connect 49 2 41 0;
#X connect 49 2 42 0;
#X connect 50 0 42 1;
#X connect 51 0 34 0;
#X connect 52 0 36 0;
#X restore 16 192 pd voice;
#X obj 16 52 route hi-hat;
#N canvas 392 64 697 569 voice 0;
#X obj 132 111 +~ 1;
#X obj 171 86 osc~;
#X obj 172 111 +~ 1;
#X obj 132 139 *~;
#X obj 172 139 *~;
#X obj 221 84 osc~;
#X obj 26 40 * 100;
#X obj 342 191 vline~;
#X obj 131 86 osc~;
#X obj 270 410 *~;
#X obj 454 251 * 1.618;
#X obj 454 283 * 1.618;
#X obj 454 316 * 1.618;
#X obj 148 22 * 1.618;
#X obj 188 51 * 1.618;
#X obj 94 85 osc~;
#X obj 95 110 +~ 1;
#X obj 95 138 *~;
#X obj 71 21 * 1.618;
#X obj 111 50 * 1.618;
#X obj 367 258 *~ 3;
#X obj 376 318 *~ 5;
#X obj 367 238 vcf~ 12;
#X obj 376 298 vcf~ 12;
#X obj 68 256 +~ 1;
#X obj 107 231 osc~;
#X obj 108 256 +~ 1;
#X obj 68 284 *~;
#X obj 108 284 *~;
#X obj 157 229 osc~;
#X obj 67 231 osc~;
#X obj 84 167 * 1.618;
#X obj 124 196 * 1.618;
#N canvas 395 246 304 207 xfad 0;
#X obj 25 156 outlet~;
#X obj 24 24 inlet~;
#X obj 125 24 inlet~;
#X obj 213 23 inlet;
#X obj 213 53 * -1;
#X obj 213 73 + 1;
#X obj 24 116 *~;
#X obj 125 116 *~;
#X connect 1 0 6 0;
#X connect 2 0 7 0;
#X connect 3 0 4 0;
#X connect 3 0 7 1;
#X connect 4 0 5 0;
#X connect 5 0 6 1;
#X connect 6 0 0 0;
#X connect 7 0 0 0;
#X restore 206 167 pd xfad;
#X obj 270 390 /~ 6;
#X msg 345 70 1;
#X obj 584 69 * 10;
#X obj 270 430 outlet~;
#X obj 270 185 hip~ 6000;
#X obj 580 281 switch~;
#X msg 616 248 0;
#X msg 580 249 1;
#X obj 616 213 del;
#X obj 346 21 inlet;
#X obj 347 -9 * 0.01;
#X obj 318 -69 r \$3;
#X obj 318 -39 route wave smpl dec freq reso;
#X obj 342 151 pack f f;
#X msg 342 171 \$1 10 \, 0 \$2 10;
#X obj 345 50 t b f b;
#X obj 632 179 + 2;
#X obj 270 265 *~ 0.25;
#X obj 585 48 mtof;
#X connect 0 0 3 0;
#X connect 1 0 2 0;
#X connect 2 0 4 0;
#X connect 3 0 1 0;
#X connect 4 0 5 0;
#X connect 5 0 33 0;
#X connect 6 0 18 0;
#X connect 6 0 15 0;
#X connect 6 0 30 0;
#X connect 6 0 31 0;
#X connect 7 0 9 1;
#X connect 8 0 0 0;
#X connect 9 0 37 0;
#X connect 10 0 11 0;
#X connect 10 0 22 1;
#X connect 11 0 12 0;
#X connect 12 0 23 1;
#X connect 13 0 3 1;
#X connect 13 0 14 0;
#X connect 14 0 4 1;
#X connect 15 0 16 0;
#X connect 16 0 17 0;
#X connect 17 0 8 0;
#X connect 18 0 19 0;
#X connect 19 0 17 1;
#X connect 19 0 13 0;
#X connect 20 0 34 0;
#X connect 21 0 34 0;
#X connect 22 0 20 0;
#X connect 23 0 21 0;
#X connect 24 0 27 0;
#X connect 25 0 26 0;
#X connect 26 0 28 0;
#X connect 27 0 25 0;
#X connect 28 0 29 0;
#X connect 29 0 33 1;
#X connect 30 0 24 0;
#X connect 31 0 27 1;
#X connect 31 0 32 0;
#X connect 32 0 28 1;
#X connect 33 0 38 0;
#X connect 34 0 9 0;
#X connect 35 0 29 1;
#X connect 35 0 25 1;
#X connect 35 0 30 1;
#X connect 35 0 1 1;
#X connect 35 0 5 1;
#X connect 35 0 8 1;
#X connect 35 0 15 1;
#X connect 36 0 10 0;
#X connect 38 0 22 0;
#X connect 38 0 23 0;
#X connect 38 0 51 0;
#X connect 40 0 39 0;
#X connect 41 0 39 0;
#X connect 42 0 40 0;
#X connect 43 0 49 0;
#X connect 44 0 33 2;
#X connect 45 0 46 0;
#X connect 46 0 6 0;
#X connect 46 1 44 0;
#X connect 46 2 47 1;
#X connect 46 2 50 0;
#X connect 46 3 52 0;
#X connect 46 4 23 2;
#X connect 46 4 22 2;
#X connect 47 0 48 0;
#X connect 48 0 7 0;
#X connect 49 0 35 0;
#X connect 49 1 47 0;
#X connect 49 2 41 0;
#X connect 49 2 42 0;
#X connect 50 0 42 1;
#X connect 51 0 34 0;
#X connect 52 0 36 0;
#X restore 86 192 pd voice;
#X connect 1 0 6 0;
#X connect 2 0 10 0;
#X connect 3 0 7 0;
#X connect 3 1 8 0;
#X connect 4 0 5 1;
#X connect 4 0 3 0;
#X connect 5 0 4 0;
#X connect 6 0 5 0;
#X connect 6 1 7 1;
#X connect 6 1 8 1;
#X connect 7 0 9 0;
#X connect 8 0 11 0;
#X connect 9 0 0 0;
#X connect 10 0 1 0;
#X connect 11 0 0 0;
#X restore 542 196 pd hats;
#N canvas 0 22 466 316 clap 0;
#X obj 16 232 outlet~;
#X obj 16 22 r \$3;
#X obj 42 122 sel 0 1;
#X obj 43 102 == 0;
#X obj 16 102 f 1;
#X obj 16 82 t b f;
#X obj 16 152 f;
#X obj 78 152 f;
#N canvas 290 118 773 585 voice 0;
#X obj 315 108 r \$3;
#X obj 315 306 vline~;
#X obj 315 326 dbtorms~;
#X obj 30 290 noise~;
#X obj 31 409 *~;
#X obj 181 175 t b b;
#X obj 102 175 t b b;
#X obj 102 155 del 30;
#X obj 102 5 *;
#X obj 315 248 rmstodb;
#X msg 315 268 \$1 \, 0 34 \, \$1 0.5 10.5 \, 0 34 11 \, \$1 0 23 \,
0 34 23 \, \$1 0 31 \, 0 34 31 \, \$1 0 36 \, 0 230 36.5 \, 0 500 65
\, 0 2000 120;
#X obj 31 449 outlet~;
#X obj 30 320 bp2~ 600 1 3000;
#X obj 31 429 hip~ 500;
#X obj 44 350 bp2~ 2000 1 3000;
#X obj 315 198 * 1.618;
#X obj 315 168 * 1.2;
#X obj 315 218 * 1.618;
#X obj 248 133 switch~;
#X msg 248 102 0;
#X msg 212 103 1;
#X obj 102 -65 inlet;
#X obj 102 -35 * 0.01;
#X msg 102 -15 \$1 \$1;
#X obj 315 138 route c-tune;
#X obj 102 35 t b b f b b;
#X msg 248 62 stop \, bang;
#X obj 221 205 f 0;
#X obj 181 205 f 0.7;
#X obj 142 205 f 50;
#X obj 102 205 f 1.5;
#X obj 248 82 del 2200;
#X connect 0 0 24 0;
#X connect 1 0 2 0;
#X connect 2 0 4 1;
#X connect 3 0 12 0;
#X connect 4 0 13 0;
#X connect 5 0 28 0;
#X connect 5 1 27 0;
#X connect 6 0 30 0;
#X connect 6 1 29 0;
#X connect 7 0 6 0;
#X connect 8 0 25 0;
#X connect 9 0 10 0;
#X connect 10 0 1 0;
#X connect 12 0 4 0;
#X connect 12 0 14 0;
#X connect 13 0 11 0;
#X connect 14 0 4 0;
#X connect 15 0 17 0;
#X connect 16 0 12 1;
#X connect 16 0 15 0;
#X connect 17 0 14 1;
#X connect 19 0 18 0;
#X connect 20 0 18 0;
#X connect 21 0 22 0;
#X connect 22 0 23 0;
#X connect 23 0 8 0;
#X connect 24 0 16 0;
#X connect 24 0 13 1;
#X connect 25 0 7 0;
#X connect 25 1 5 0;
#X connect 25 2 9 0;
#X connect 25 3 20 0;
#X connect 25 4 26 0;
#X connect 26 0 31 0;
#X connect 27 0 12 3;
#X connect 27 0 14 3;
#X connect 28 0 12 2;
#X connect 28 0 14 2;
#X connect 29 0 12 3;
#X connect 29 0 14 3;
#X connect 30 0 12 2;
#X connect 30 0 14 2;
#X connect 31 0 19 0;
#X restore 16 172 pd voice;
#X obj 16 52 route clap;
#N canvas 290 118 769 581 voice 0;
#X obj 315 108 r \$3;
#X obj 315 306 vline~;
#X obj 315 326 dbtorms~;
#X obj 30 290 noise~;
#X obj 31 409 *~;
#X obj 181 175 t b b;
#X obj 102 175 t b b;
#X obj 102 155 del 30;
#X obj 102 5 *;
#X obj 315 248 rmstodb;
#X msg 315 268 \$1 \, 0 34 \, \$1 0.5 10.5 \, 0 34 11 \, \$1 0 23 \,
0 34 23 \, \$1 0 31 \, 0 34 31 \, \$1 0 36 \, 0 230 36.5 \, 0 500 65
\, 0 2000 120;
#X obj 31 449 outlet~;
#X obj 30 320 bp2~ 600 1 3000;
#X obj 31 429 hip~ 500;
#X obj 44 350 bp2~ 2000 1 3000;
#X obj 315 198 * 1.618;
#X obj 315 168 * 1.2;
#X obj 315 218 * 1.618;
#X obj 248 133 switch~;
#X msg 248 102 0;
#X msg 212 103 1;
#X obj 102 -65 inlet;
#X obj 102 -35 * 0.01;
#X msg 102 -15 \$1 \$1;
#X obj 315 138 route c-tune;
#X obj 102 35 t b b f b b;
#X msg 248 62 stop \, bang;
#X obj 221 205 f 0;
#X obj 181 205 f 0.7;
#X obj 142 205 f 50;
#X obj 102 205 f 1.5;
#X obj 248 82 del 2200;
#X connect 0 0 24 0;
#X connect 1 0 2 0;
#X connect 2 0 4 1;
#X connect 3 0 12 0;
#X connect 4 0 13 0;
#X connect 5 0 28 0;
#X connect 5 1 27 0;
#X connect 6 0 30 0;
#X connect 6 1 29 0;
#X connect 7 0 6 0;
#X connect 8 0 25 0;
#X connect 9 0 10 0;
#X connect 10 0 1 0;
#X connect 12 0 4 0;
#X connect 12 0 14 0;
#X connect 13 0 11 0;
#X connect 14 0 4 0;
#X connect 15 0 17 0;
#X connect 16 0 12 1;
#X connect 16 0 15 0;
#X connect 17 0 14 1;
#X connect 19 0 18 0;
#X connect 20 0 18 0;
#X connect 21 0 22 0;
#X connect 22 0 23 0;
#X connect 23 0 8 0;
#X connect 24 0 16 0;
#X connect 24 0 13 1;
#X connect 25 0 7 0;
#X connect 25 1 5 0;
#X connect 25 2 9 0;
#X connect 25 3 20 0;
#X connect 25 4 26 0;
#X connect 26 0 31 0;
#X connect 27 0 12 3;
#X connect 27 0 14 3;
#X connect 28 0 12 2;
#X connect 28 0 14 2;
#X connect 29 0 12 3;
#X connect 29 0 14 3;
#X connect 30 0 12 2;
#X connect 30 0 14 2;
#X connect 31 0 19 0;
#X restore 78 172 pd voice;
#X connect 1 0 9 0;
#X connect 2 0 6 0;
#X connect 2 1 7 0;
#X connect 3 0 4 1;
#X connect 3 0 2 0;
#X connect 4 0 3 0;
#X connect 5 0 4 0;
#X connect 5 1 6 1;
#X connect 5 1 7 1;
#X connect 6 0 8 0;
#X connect 7 0 10 0;
#X connect 8 0 0 0;
#X connect 9 0 5 0;
#X connect 10 0 0 0;
#X restore 598 196 pd clap;
#X obj 28 501 mmm-ctrl \$1 \$2 25 c-tune 55 96 83 int;
#X msg 254 21 version 0.1.1;
#N canvas 0 22 478 328 toms 0;
#X obj 16 242 outlet~;
#X obj 16 22 r \$3;
#X obj 42 142 sel 0 1;
#X obj 43 122 == 0;
#X obj 16 122 f 1;
#X obj 16 102 t b f;
#X obj 16 172 f;
#X obj 79 172 f;
#N canvas 274 405 417 329 voice 0;
#X obj 42 -50 r \$3;
#X obj 26 210 outlet~;
#X obj 26 140 osc~;
#X obj 26 120 vline~;
#X obj 92 150 vline~;
#X obj 26 180 *~;
#X msg 26 100 0 0 \, \$2 5 5 \, \$1 180 180;
#X obj 56 60 * 1.1;
#X obj 26 40 t f f;
#X obj 217 81 switch~;
#X msg 253 51 0;
#X msg 217 51 1;
#X obj 174 -50 inlet;
#X obj 253 31 del 370;
#X obj 26 20 f;
#X msg 253 11 stop \, bang;
#X obj 26 80 pack;
#X msg 92 130 0 0 \, \$1 1 5 \, 0 180 180;
#X obj 174 -20 t b f b;
#X obj 42 -20 route lt-tune;
#X connect 0 0 19 0;
#X connect 2 0 5 0;
#X connect 3 0 2 0;
#X connect 4 0 5 1;
#X connect 5 0 1 0;
#X connect 6 0 3 0;
#X connect 7 0 16 1;
#X connect 8 0 16 0;
#X connect 8 1 7 0;
#X connect 10 0 9 0;
#X connect 11 0 9 0;
#X connect 12 0 18 0;
#X connect 13 0 10 0;
#X connect 14 0 8 0;
#X connect 15 0 13 0;
#X connect 16 0 6 0;
#X connect 17 0 4 0;
#X connect 18 0 14 0;
#X connect 18 1 17 0;
#X connect 18 2 11 0;
#X connect 18 2 15 0;
#X connect 19 0 14 1;
#X restore 16 192 pd voice;
#X obj 16 82 * 0.01;
#N canvas 274 405 417 329 voice 0;
#X obj 42 -50 r \$3;
#X obj 26 210 outlet~;
#X obj 26 140 osc~;
#X obj 26 120 vline~;
#X obj 92 150 vline~;
#X obj 26 180 *~;
#X msg 26 100 0 0 \, \$2 5 5 \, \$1 180 180;
#X obj 56 60 * 1.1;
#X obj 26 40 t f f;
#X obj 217 81 switch~;
#X msg 253 51 0;
#X msg 217 51 1;
#X obj 174 -50 inlet;
#X obj 253 31 del 370;
#X obj 26 20 f;
#X msg 253 11 stop \, bang;
#X obj 26 80 pack;
#X msg 92 130 0 0 \, \$1 1 5 \, 0 180 180;
#X obj 174 -20 t b f b;
#X obj 42 -20 route lt-tune;
#X connect 0 0 19 0;
#X connect 2 0 5 0;
#X connect 3 0 2 0;
#X connect 4 0 5 1;
#X connect 5 0 1 0;
#X connect 6 0 3 0;
#X connect 7 0 16 1;
#X connect 8 0 16 0;
#X connect 8 1 7 0;
#X connect 10 0 9 0;
#X connect 11 0 9 0;
#X connect 12 0 18 0;
#X connect 13 0 10 0;
#X connect 14 0 8 0;
#X connect 15 0 13 0;
#X connect 16 0 6 0;
#X connect 17 0 4 0;
#X connect 18 0 14 0;
#X connect 18 1 17 0;
#X connect 18 2 11 0;
#X connect 18 2 15 0;
#X connect 19 0 14 1;
#X restore 79 192 pd voice;
#X obj 16 52 route low-tom hi-tom;
#X obj 175 142 sel 0 1;
#X obj 176 122 == 0;
#X obj 149 122 f 1;
#X obj 149 102 t b f;
#X obj 149 172 f;
#X obj 212 172 f;
#X obj 149 82 * 0.01;
#N canvas 297 22 369 449 voice 0;
#X obj 70 25 r \$3;
#X obj 24 285 outlet~;
#X obj 24 225 osc~;
#X obj 24 205 vline~;
#X obj 82 225 vline~;
#X obj 24 255 *~;
#X obj 24 95 f;
#X obj 24 115 t f f;
#X obj 177 88 switch~;
#X msg 213 55 0;
#X msg 177 55 1;
#X obj 24 -45 inlet;
#X obj 53 135 * 1.05;
#X msg 24 175 0 0 \, \$2 5 5 \, \$1 140 140;
#X obj 213 35 del 300;
#X msg 82 205 0 0 \, \$1 1 5 \, 0 140 140;
#X obj 24 155 pack;
#X msg 213 15 stop \, bang;
#X obj 24 -15 t b f b;
#X obj 70 55 route ht-tune;
#X connect 0 0 19 0;
#X connect 2 0 5 0;
#X connect 3 0 2 0;
#X connect 4 0 5 1;
#X connect 5 0 1 0;
#X connect 6 0 7 0;
#X connect 7 0 16 0;
#X connect 7 1 12 0;
#X connect 9 0 8 0;
#X connect 10 0 8 0;
#X connect 11 0 18 0;
#X connect 12 0 16 1;
#X connect 13 0 3 0;
#X connect 14 0 9 0;
#X connect 15 0 4 0;
#X connect 16 0 13 0;
#X connect 17 0 14 0;
#X connect 18 0 6 0;
#X connect 18 1 15 0;
#X connect 18 2 10 0;
#X connect 18 2 17 0;
#X connect 19 0 6 1;
#X restore 149 192 pd voice;
#N canvas 297 22 357 437 voice 0;
#X obj 70 25 r \$3;
#X obj 24 285 outlet~;
#X obj 24 225 osc~;
#X obj 24 205 vline~;
#X obj 82 225 vline~;
#X obj 24 255 *~;
#X obj 24 95 f;
#X obj 24 115 t f f;
#X obj 177 88 switch~;
#X msg 213 55 0;
#X msg 177 55 1;
#X obj 24 -45 inlet;
#X obj 53 135 * 1.05;
#X msg 24 175 0 0 \, \$2 5 5 \, \$1 140 140;
#X obj 213 35 del 300;
#X obj 70 55 route ht-tune;
#X msg 82 205 0 0 \, \$1 1 5 \, 0 140 140;
#X obj 24 155 pack;
#X msg 213 15 stop \, bang;
#X obj 24 -15 t b f b;
#X connect 0 0 15 0;
#X connect 2 0 5 0;
#X connect 3 0 2 0;
#X connect 4 0 5 1;
#X connect 5 0 1 0;
#X connect 6 0 7 0;
#X connect 7 0 17 0;
#X connect 7 1 12 0;
#X connect 9 0 8 0;
#X connect 10 0 8 0;
#X connect 11 0 19 0;
#X connect 12 0 17 1;
#X connect 13 0 3 0;
#X connect 14 0 9 0;
#X connect 15 0 6 1;
#X connect 16 0 4 0;
#X connect 17 0 13 0;
#X connect 18 0 14 0;
#X connect 19 0 6 0;
#X connect 19 1 16 0;
#X connect 19 2 10 0;
#X connect 19 2 18 0;
#X restore 212 192 pd voice;
#X connect 1 0 11 0;
#X connect 2 0 6 0;
#X connect 2 1 7 0;
#X connect 3 0 4 1;
#X connect 3 0 2 0;
#X connect 4 0 3 0;
#X connect 5 0 4 0;
#X connect 5 1 6 1;
#X connect 5 1 7 1;
#X connect 6 0 8 0;
#X connect 7 0 10 0;
#X connect 8 0 0 0;
#X connect 9 0 5 0;
#X connect 10 0 0 0;
#X connect 11 0 9 0;
#X connect 11 1 18 0;
#X connect 12 0 16 0;
#X connect 12 1 17 0;
#X connect 13 0 14 1;
#X connect 13 0 12 0;
#X connect 14 0 13 0;
#X connect 15 0 14 0;
#X connect 15 1 16 1;
#X connect 15 1 17 1;
#X connect 16 0 19 0;
#X connect 17 0 20 0;
#X connect 18 0 15 0;
#X connect 19 0 0 0;
#X connect 20 0 0 0;
#X restore 653 196 pd toms;
#X obj 28 431 mmm-ctrl \$1 \$2 21 freq 27 80 75 int;
#X obj 28 21 mmm-module \$1 \$2 ddrum 31;
#X obj 28 151 mmm-ctrl \$1 \$2 6 cutoff 25 123 74 int;
#X obj 28 261 mmm-ctrl \$1 \$2 12 flt_start 42 82 79 int;
#X obj 28 281 mmm-ctrl \$1 \$2 13 flt_end 9 63 50 int;
#X connect 0 0 5 0;
#X connect 1 0 4 0;
#X connect 2 0 0 0;
#X connect 3 0 1 0;
#X connect 11 0 5 0;
#X connect 11 0 4 0;
#X connect 12 2 13 0;
#X connect 13 0 14 0;
#X connect 14 0 12 1;
#X connect 15 0 5 0;
#X connect 15 1 4 0;
#X connect 32 0 5 0;
#X connect 32 0 4 0;
#X connect 33 0 4 0;
#X connect 33 0 5 0;
#X connect 36 0 5 0;
#X connect 36 0 4 0;
