#N canvas 713 68 450 352 10;
#X obj 348 81 * 0.02;
#N canvas 514 142 307 287 f2s 0;
#X obj 27 25 inlet;
#X obj 27 225 outlet;
#X msg 104 165 set \$1;
#X obj 27 195 makefilename;
#X obj 27 55 t f f f;
#X obj 50 95 -;
#X obj 50 115 sel 0;
#X msg 50 145 set %d;
#X obj 71 75 int;
#X obj 105 125 * 100.001;
#X obj 104 145 makefilename %%d.%02d;
#X connect 0 0 4 0;
#X connect 2 0 3 0;
#X connect 3 0 1 0;
#X connect 4 0 3 0;
#X connect 4 1 5 0;
#X connect 4 2 8 0;
#X connect 5 0 6 0;
#X connect 6 0 7 0;
#X connect 6 1 9 0;
#X connect 7 0 3 0;
#X connect 8 0 5 1;
#X connect 9 0 10 0;
#X connect 10 0 2 0;
#X restore 300 81 pd f2s;
#X msg 259 21 version 0.1.0;
#X obj 28 61 mmm-ctrl \$1 \$2 1 xfade 0 100 50 int;
#X obj 28 81 mmm-ctrl \$1 \$2 2 delay 1 400 50 ext;
#N canvas 514 142 315 295 f2s 0;
#X obj 27 25 inlet;
#X obj 27 225 outlet;
#X msg 104 165 set \$1;
#X obj 27 195 makefilename;
#X obj 27 55 t f f f;
#X obj 50 95 -;
#X obj 50 115 sel 0;
#X msg 50 145 set %d;
#X obj 71 75 int;
#X obj 105 125 * 10.001;
#X obj 104 145 makefilename %%d.%d;
#X connect 0 0 4 0;
#X connect 2 0 3 0;
#X connect 3 0 1 0;
#X connect 4 0 3 0;
#X connect 4 1 5 0;
#X connect 4 2 8 0;
#X connect 5 0 6 0;
#X connect 6 0 7 0;
#X connect 6 1 9 0;
#X connect 7 0 3 0;
#X connect 8 0 5 1;
#X connect 9 0 10 0;
#X connect 10 0 2 0;
#X restore 300 101 pd f2s;
#X obj 348 101 * 0.1;
#X obj 28 181 r~ 1-nothing;
#X obj 128 181 r~ 1-nothing;
#X obj 128 161 r \$1-\$2R-r;
#X obj 128 261 s~ \$1-\$2R;
#X obj 28 261 s~ \$1-\$2L;
#X obj 28 161 r \$1-\$2L-r;
#N canvas 8 29 307 296 write_______ 0;
#X obj 16 19 inlet~;
#X obj 116 19 inlet~;
#X obj 16 239 outlet~;
#X obj 116 239 outlet~;
#X obj 116 49 delwrite~ \$0_d1-r 1000;
#X obj 16 69 delwrite~ \$0_d1-l 1000;
#X obj 26 99 catch~ \$0-2l;
#X obj 126 99 catch~ \$0-2r;
#X obj 16 139 delwrite~ \$0_d2-l 1000;
#X obj 116 119 delwrite~ \$0_d2-r 1000;
#X obj 26 169 catch~ \$0-3l;
#X obj 126 169 catch~ \$0-3r;
#X obj 16 209 delwrite~ \$0_d3-l 1000;
#X obj 116 189 delwrite~ \$0_d3-r 1000;
#X connect 0 0 5 0;
#X connect 0 0 8 0;
#X connect 0 0 12 0;
#X connect 0 0 2 0;
#X connect 1 0 4 0;
#X connect 1 0 9 0;
#X connect 1 0 13 0;
#X connect 1 0 3 0;
#X connect 6 0 8 0;
#X connect 7 0 9 0;
#X connect 10 0 12 0;
#X connect 11 0 13 0;
#X restore 28 211 pd write_______;
#X obj 28 21 mmm-module \$1 \$2 delay-2 4;
#N canvas 4 22 504 522 e-del_______ 1;
#X obj 132 364 inlet~;
#X obj 289 364 inlet~;
#X obj 88 454 outlet~;
#X obj 249 454 outlet~;
#X obj 56 14 r \$3;
#X obj 112 74 * 0.02;
#X obj 112 94 mmm-ticks2ms;
#N canvas 12 199 488 219 repeat-2 0;
#X obj 19 130 outlet~;
#X obj 171 130 outlet~;
#X obj 310 70 > 0;
#X obj 310 90 switch~;
#X obj 19 40 * 0.5;
#X obj 187 60 line~;
#X msg 187 40 \$1 20;
#X obj 187 20 min 1;
#X obj 19 110 *~;
#X obj 171 110 *~;
#X obj 19 90 delread~ \$0_d2-l;
#X obj 171 90 delread~ \$0_d2-r;
#X obj 19 20 inlet;
#X obj 310 50 inlet;
#X connect 2 0 3 0;
#X connect 4 0 10 0;
#X connect 4 0 11 0;
#X connect 5 0 8 1;
#X connect 5 0 9 1;
#X connect 6 0 5 0;
#X connect 7 0 6 0;
#X connect 8 0 0 0;
#X connect 9 0 1 0;
#X connect 10 0 8 0;
#X connect 11 0 9 0;
#X connect 12 0 4 0;
#X connect 13 0 2 0;
#X connect 13 0 7 0;
#X restore 128 180 pd repeat-2;
#X obj 88 424 *~;
#X obj 249 424 *~;
#X obj 132 424 *~;
#X obj 289 424 *~;
#X obj 88 344 *~ 1;
#X obj 249 344 *~ 1;
#N canvas 67 281 484 215 repeat-3 0;
#X obj 19 154 outlet~;
#X obj 171 154 outlet~;
#X obj 300 114 switch~;
#X obj 19 45 * 0.25;
#X obj 300 94 > 1;
#X obj 187 93 line~;
#X msg 187 73 \$1 20;
#X obj 19 134 *~;
#X obj 171 134 *~;
#X obj 187 33 - 1;
#X obj 171 114 delread~ \$0_d3-r;
#X obj 19 114 delread~ \$0_d3-l;
#X obj 187 53 clip 0 1;
#X obj 19 25 inlet;
#X obj 300 74 inlet;
#X connect 3 0 10 0;
#X connect 3 0 11 0;
#X connect 4 0 2 0;
#X connect 5 0 7 1;
#X connect 5 0 8 1;
#X connect 6 0 5 0;
#X connect 7 0 0 0;
#X connect 8 0 1 0;
#X connect 9 0 12 0;
#X connect 10 0 8 0;
#X connect 11 0 7 0;
#X connect 12 0 6 0;
#X connect 13 0 3 0;
#X connect 14 0 4 0;
#X connect 14 0 9 0;
#X restore 128 210 pd repeat-3;
#N canvas 12 199 374 204 repeat-1 0;
#X obj 19 101 outlet~;
#X obj 171 101 outlet~;
#X obj 19 45 * 1;
#X obj 19 81 delread~ \$0_d1-l;
#X obj 171 81 delread~ \$0_d1-r;
#X obj 19 25 inlet;
#X connect 2 0 3 0;
#X connect 2 0 4 0;
#X connect 3 0 0 0;
#X connect 4 0 1 0;
#X connect 5 0 2 0;
#X restore 128 150 pd repeat-1;
#X obj 7 256 throw~ \$0-2l;
#X obj 277 256 throw~ \$0-2r;
#X obj 7 286 throw~ \$0-3l;
#X obj 277 286 throw~ \$0-3r;
#N canvas 97 165 172 285 mix~____ 0;
#X obj 13 211 outlet~;
#X obj 71 211 outlet~;
#X obj 13 41 moses 0.5;
#X obj 13 61 t f b;
#X obj 71 61 t f b;
#X obj 13 191 line~;
#X msg 81 81 1 20;
#X msg 23 81 1 20;
#X obj 71 191 line~;
#X msg 13 161 \$1 20;
#X msg 71 161 \$1 20;
#X obj 13 141 * 2;
#X obj 71 141 * -2;
#X obj 71 121 - 1;
#X obj 13 21 inlet;
#X connect 2 0 3 0;
#X connect 2 1 4 0;
#X connect 3 0 11 0;
#X connect 3 1 7 0;
#X connect 4 0 13 0;
#X connect 4 1 6 0;
#X connect 5 0 0 0;
#X connect 6 0 5 0;
#X connect 7 0 8 0;
#X connect 8 0 1 0;
#X connect 9 0 5 0;
#X connect 10 0 8 0;
#X connect 11 0 9 0;
#X connect 12 0 10 0;
#X connect 13 0 12 0;
#X connect 14 0 2 0;
#X restore 164 394 pd mix~____;
#X obj 56 44 route xfade delay repeat feedback;
#X obj 56 74 * 0.01;
#X obj 169 74 * 0.1;
#X obj 397 211 rmstodb;
#X obj 397 271 - 0;
#X obj 397 291 dbtorms;
#X obj 404 251 t b f;
#X obj 404 231 * 4;
#X obj 225 74 * 0.01;
#X connect 0 0 10 0;
#X connect 1 0 11 0;
#X connect 4 0 21 0;
#X connect 5 0 6 0;
#X connect 6 0 15 0;
#X connect 6 0 7 0;
#X connect 6 0 14 0;
#X connect 7 0 12 0;
#X connect 7 0 18 0;
#X connect 7 1 13 0;
#X connect 7 1 19 0;
#X connect 8 0 2 0;
#X connect 9 0 3 0;
#X connect 10 0 2 0;
#X connect 11 0 3 0;
#X connect 12 0 8 0;
#X connect 13 0 9 0;
#X connect 14 0 12 0;
#X connect 14 1 13 0;
#X connect 15 0 12 0;
#X connect 15 0 16 0;
#X connect 15 0 18 0;
#X connect 15 1 13 0;
#X connect 15 1 17 0;
#X connect 15 1 19 0;
#X connect 20 0 9 1;
#X connect 20 0 8 1;
#X connect 20 1 10 1;
#X connect 20 1 11 1;
#X connect 21 0 22 0;
#X connect 21 1 5 0;
#X connect 21 2 23 0;
#X connect 21 3 29 0;
#X connect 22 0 20 0;
#X connect 23 0 28 0;
#X connect 23 0 7 1;
#X connect 23 0 14 1;
#X connect 24 0 25 0;
#X connect 25 0 26 0;
#X connect 26 0 13 1;
#X connect 26 0 12 1;
#X connect 27 0 25 0;
#X connect 27 1 25 1;
#X connect 28 0 27 0;
#X connect 29 0 24 0;
#X restore 28 231 pd e-del_______;
#X obj 28 121 mmm-ctrl \$1 \$2 4 feedback 0 99 65 int;
#X obj 28 101 mmm-ctrl \$1 \$2 3 repeat 0 20 0 ext;
#X connect 0 0 1 0;
#X connect 1 0 4 1;
#X connect 4 2 0 0;
#X connect 5 0 17 1;
#X connect 6 0 5 0;
#X connect 7 0 13 0;
#X connect 8 0 13 1;
#X connect 9 0 8 0;
#X connect 12 0 7 0;
#X connect 13 0 15 0;
#X connect 13 1 15 1;
#X connect 15 0 11 0;
#X connect 15 1 10 0;
#X connect 17 2 6 0;
