#N canvas 210 22 416 353 10;
#X obj 24 259 r~ 1-nothing;
#X obj 127 259 r~ 1-nothing;
#X obj 24 239 r \$1-\$2L-r;
#X obj 127 239 r \$1-\$2R-r;
#X obj 127 278 s~ \$1-\$2R;
#X obj 24 278 s~ \$1-\$2L;
#X text 20 309 port of dondos ddrum.pd;
#N canvas 827 447 297 327 hats 0;
#X obj 16 232 outlet~;
#X obj 16 82 * 0.01;
#X obj 42 142 sel 0 1;
#X obj 43 122 == 0;
#X obj 16 122 f 1;
#X obj 16 102 t b f;
#X obj 16 172 f;
#X obj 85 172 f;
#N canvas 392 64 709 581 voice 0;
#X obj 132 111 +~ 1;
#X obj 171 86 osc~;
#X obj 172 111 +~ 1;
#X obj 132 139 *~;
#X obj 172 139 *~;
#X obj 221 84 osc~;
#X obj 26 40 * 100;
#X obj 342 191 vline~;
#X obj 131 86 osc~;
#X obj 270 410 *~;
#X obj 454 251 * 1.618;
#X obj 454 283 * 1.618;
#X obj 454 316 * 1.618;
#X obj 148 22 * 1.618;
#X obj 188 51 * 1.618;
#X obj 94 85 osc~;
#X obj 95 110 +~ 1;
#X obj 95 138 *~;
#X obj 71 21 * 1.618;
#X obj 111 50 * 1.618;
#X obj 367 258 *~ 3;
#X obj 376 318 *~ 5;
#X obj 367 238 vcf~ 12;
#X obj 376 298 vcf~ 12;
#X obj 68 256 +~ 1;
#X obj 107 231 osc~;
#X obj 108 256 +~ 1;
#X obj 68 284 *~;
#X obj 108 284 *~;
#X obj 157 229 osc~;
#X obj 67 231 osc~;
#X obj 84 167 * 1.618;
#X obj 124 196 * 1.618;
#N canvas 395 246 304 207 xfad 0;
#X obj 25 156 outlet~;
#X obj 24 24 inlet~;
#X obj 125 24 inlet~;
#X obj 213 23 inlet;
#X obj 213 53 * -1;
#X obj 213 73 + 1;
#X obj 24 116 *~;
#X obj 125 116 *~;
#X connect 1 0 6 0;
#X connect 2 0 7 0;
#X connect 3 0 4 0;
#X connect 3 0 7 1;
#X connect 4 0 5 0;
#X connect 5 0 6 1;
#X connect 6 0 0 0;
#X connect 7 0 0 0;
#X restore 206 167 pd xfad;
#X obj 270 390 /~ 6;
#X msg 265 70 1;
#X obj 584 69 * 10;
#X obj 270 430 outlet~;
#X obj 270 185 hip~ 6000;
#X obj 580 281 switch~;
#X msg 616 248 0;
#X msg 580 249 1;
#X obj 616 213 del;
#X obj 266 21 inlet;
#X obj 347 -9 * 0.01;
#X obj 342 151 pack f f;
#X msg 342 171 \$1 10 \, 0 \$2 10;
#X obj 265 50 t b f b;
#X obj 632 179 + 2;
#X obj 270 265 *~ 0.25;
#X obj 585 48 mtof;
#X obj 348 -39 route wave smpl dec freq res;
#X obj 348 -69 inlet;
#X connect 0 0 3 0;
#X connect 1 0 2 0;
#X connect 2 0 4 0;
#X connect 3 0 1 0;
#X connect 4 0 5 0;
#X connect 5 0 33 0;
#X connect 6 0 18 0;
#X connect 6 0 15 0;
#X connect 6 0 30 0;
#X connect 6 0 31 0;
#X connect 7 0 9 1;
#X connect 8 0 0 0;
#X connect 9 0 37 0;
#X connect 10 0 11 0;
#X connect 10 0 22 1;
#X connect 11 0 12 0;
#X connect 12 0 23 1;
#X connect 13 0 3 1;
#X connect 13 0 14 0;
#X connect 14 0 4 1;
#X connect 15 0 16 0;
#X connect 16 0 17 0;
#X connect 17 0 8 0;
#X connect 18 0 19 0;
#X connect 19 0 17 1;
#X connect 19 0 13 0;
#X connect 20 0 34 0;
#X connect 21 0 34 0;
#X connect 22 0 20 0;
#X connect 23 0 21 0;
#X connect 24 0 27 0;
#X connect 25 0 26 0;
#X connect 26 0 28 0;
#X connect 27 0 25 0;
#X connect 28 0 29 0;
#X connect 29 0 33 1;
#X connect 30 0 24 0;
#X connect 31 0 27 1;
#X connect 31 0 32 0;
#X connect 32 0 28 1;
#X connect 33 0 38 0;
#X connect 34 0 9 0;
#X connect 35 0 29 1;
#X connect 35 0 25 1;
#X connect 35 0 30 1;
#X connect 35 0 1 1;
#X connect 35 0 5 1;
#X connect 35 0 8 1;
#X connect 35 0 15 1;
#X connect 36 0 10 0;
#X connect 38 0 22 0;
#X connect 38 0 23 0;
#X connect 38 0 49 0;
#X connect 40 0 39 0;
#X connect 41 0 39 0;
#X connect 42 0 40 0;
#X connect 43 0 47 0;
#X connect 44 0 33 2;
#X connect 45 0 46 0;
#X connect 46 0 7 0;
#X connect 47 0 35 0;
#X connect 47 1 45 0;
#X connect 47 2 41 0;
#X connect 47 2 42 0;
#X connect 48 0 42 1;
#X connect 49 0 34 0;
#X connect 50 0 36 0;
#X connect 51 0 6 0;
#X connect 51 1 44 0;
#X connect 51 2 45 1;
#X connect 51 2 48 0;
#X connect 51 3 50 0;
#X connect 51 4 23 2;
#X connect 51 4 22 2;
#X connect 52 0 51 0;
#X restore 16 192 pd voice;
#X obj 16 22 inlet;
#X obj 16 52 route level;
#N canvas 392 64 705 577 voice 0;
#X obj 132 111 +~ 1;
#X obj 171 86 osc~;
#X obj 172 111 +~ 1;
#X obj 132 139 *~;
#X obj 172 139 *~;
#X obj 221 84 osc~;
#X obj 26 40 * 100;
#X obj 342 191 vline~;
#X obj 131 86 osc~;
#X obj 270 410 *~;
#X obj 454 251 * 1.618;
#X obj 454 283 * 1.618;
#X obj 454 316 * 1.618;
#X obj 148 22 * 1.618;
#X obj 188 51 * 1.618;
#X obj 94 85 osc~;
#X obj 95 110 +~ 1;
#X obj 95 138 *~;
#X obj 71 21 * 1.618;
#X obj 111 50 * 1.618;
#X obj 367 258 *~ 3;
#X obj 376 318 *~ 5;
#X obj 367 238 vcf~ 12;
#X obj 376 298 vcf~ 12;
#X obj 68 256 +~ 1;
#X obj 107 231 osc~;
#X obj 108 256 +~ 1;
#X obj 68 284 *~;
#X obj 108 284 *~;
#X obj 157 229 osc~;
#X obj 67 231 osc~;
#X obj 84 167 * 1.618;
#X obj 124 196 * 1.618;
#N canvas 395 246 304 207 xfad 0;
#X obj 25 156 outlet~;
#X obj 24 24 inlet~;
#X obj 125 24 inlet~;
#X obj 213 23 inlet;
#X obj 213 53 * -1;
#X obj 213 73 + 1;
#X obj 24 116 *~;
#X obj 125 116 *~;
#X connect 1 0 6 0;
#X connect 2 0 7 0;
#X connect 3 0 4 0;
#X connect 3 0 7 1;
#X connect 4 0 5 0;
#X connect 5 0 6 1;
#X connect 6 0 0 0;
#X connect 7 0 0 0;
#X restore 206 167 pd xfad;
#X obj 270 390 /~ 6;
#X msg 265 70 1;
#X obj 584 69 * 10;
#X obj 270 430 outlet~;
#X obj 270 185 hip~ 6000;
#X obj 580 281 switch~;
#X msg 616 248 0;
#X msg 580 249 1;
#X obj 616 213 del;
#X obj 266 21 inlet;
#X obj 347 -9 * 0.01;
#X obj 342 151 pack f f;
#X msg 342 171 \$1 10 \, 0 \$2 10;
#X obj 265 50 t b f b;
#X obj 632 179 + 2;
#X obj 270 265 *~ 0.25;
#X obj 585 48 mtof;
#X obj 348 -39 route wave smpl dec freq res;
#X obj 348 -69 inlet;
#X connect 0 0 3 0;
#X connect 1 0 2 0;
#X connect 2 0 4 0;
#X connect 3 0 1 0;
#X connect 4 0 5 0;
#X connect 5 0 33 0;
#X connect 6 0 18 0;
#X connect 6 0 15 0;
#X connect 6 0 30 0;
#X connect 6 0 31 0;
#X connect 7 0 9 1;
#X connect 8 0 0 0;
#X connect 9 0 37 0;
#X connect 10 0 11 0;
#X connect 10 0 22 1;
#X connect 11 0 12 0;
#X connect 12 0 23 1;
#X connect 13 0 3 1;
#X connect 13 0 14 0;
#X connect 14 0 4 1;
#X connect 15 0 16 0;
#X connect 16 0 17 0;
#X connect 17 0 8 0;
#X connect 18 0 19 0;
#X connect 19 0 17 1;
#X connect 19 0 13 0;
#X connect 20 0 34 0;
#X connect 21 0 34 0;
#X connect 22 0 20 0;
#X connect 23 0 21 0;
#X connect 24 0 27 0;
#X connect 25 0 26 0;
#X connect 26 0 28 0;
#X connect 27 0 25 0;
#X connect 28 0 29 0;
#X connect 29 0 33 1;
#X connect 30 0 24 0;
#X connect 31 0 27 1;
#X connect 31 0 32 0;
#X connect 32 0 28 1;
#X connect 33 0 38 0;
#X connect 34 0 9 0;
#X connect 35 0 29 1;
#X connect 35 0 25 1;
#X connect 35 0 30 1;
#X connect 35 0 1 1;
#X connect 35 0 5 1;
#X connect 35 0 8 1;
#X connect 35 0 15 1;
#X connect 36 0 10 0;
#X connect 38 0 22 0;
#X connect 38 0 23 0;
#X connect 38 0 49 0;
#X connect 40 0 39 0;
#X connect 41 0 39 0;
#X connect 42 0 40 0;
#X connect 43 0 47 0;
#X connect 44 0 33 2;
#X connect 45 0 46 0;
#X connect 46 0 7 0;
#X connect 47 0 35 0;
#X connect 47 1 45 0;
#X connect 47 2 41 0;
#X connect 47 2 42 0;
#X connect 48 0 42 1;
#X connect 49 0 34 0;
#X connect 50 0 36 0;
#X connect 51 0 6 0;
#X connect 51 1 44 0;
#X connect 51 2 45 1;
#X connect 51 2 48 0;
#X connect 51 3 50 0;
#X connect 51 4 23 2;
#X connect 51 4 22 2;
#X connect 52 0 51 0;
#X restore 85 192 pd voice;
#X connect 1 0 5 0;
#X connect 2 0 6 0;
#X connect 2 1 7 0;
#X connect 3 0 4 1;
#X connect 3 0 2 0;
#X connect 4 0 3 0;
#X connect 5 0 4 0;
#X connect 5 1 6 1;
#X connect 5 1 7 1;
#X connect 6 0 8 0;
#X connect 7 0 11 0;
#X connect 8 0 0 0;
#X connect 9 0 10 0;
#X connect 10 0 1 0;
#X connect 10 1 8 1;
#X connect 10 1 11 1;
#X connect 11 0 0 0;
#X restore 34 210 pd hats;
#X obj 28 21 mmm-module \$1 \$2 dhihat 6;
#X obj 124 97 mmm-ctrl \$1 \$2 3 smpl 0 100 50 int;
#X msg 53 77 level \$1;
#X msg 53 97 wave \$1;
#X msg 53 117 smpl \$1;
#X msg 53 137 dec \$1;
#X msg 53 157 freq \$1;
#X msg 53 177 res \$1;
#X obj 124 57 mmm-ctrl \$1 \$2 1 level 0 100 -1 int;
#X obj 124 77 mmm-ctrl \$1 \$2 2 wave 6 200 97 int;
#X obj 124 117 mmm-ctrl \$1 \$2 4 dec 5 100 53 int;
#X obj 124 137 mmm-ctrl \$1 \$2 5 freq 20 80 50 int;
#X obj 124 157 mmm-ctrl \$1 \$2 6 res 2 30 21 int;
#X msg 260 21 version 0.3.4;
#X connect 0 0 5 0;
#X connect 1 0 4 0;
#X connect 2 0 0 0;
#X connect 3 0 1 0;
#X connect 7 0 5 0;
#X connect 7 0 4 0;
#X connect 9 0 12 0;
#X connect 10 0 7 0;
#X connect 11 0 7 0;
#X connect 12 0 7 0;
#X connect 13 0 7 0;
#X connect 14 0 7 0;
#X connect 15 0 7 0;
#X connect 16 0 10 0;
#X connect 17 0 11 0;
#X connect 18 0 13 0;
#X connect 19 0 14 0;
#X connect 20 0 15 0;
