#N canvas 245 22 382 539 10;
#X obj 33 421 r~ 1-nothing;
#X obj 186 421 r~ 1-nothing;
#X obj 33 401 r \$1-\$2L-r;
#X obj 186 401 r \$1-\$2R-r;
#X obj 186 440 s~ \$1-\$2R;
#X obj 33 440 s~ \$1-\$2L;
#X text 29 471 port of dondos ddrum.pd;
#N canvas 545 379 311 415 snare 0;
#N canvas 189 48 550 479 voice 0;
#X obj 128 261 osc~;
#X obj 65 383 *~;
#X msg 128 154 \$1 0 \, \$2 \$3;
#X obj 128 134 pack f f f;
#X msg 232 187 \$1 0 \, \$2 \$3;
#X obj 232 167 pack f f f;
#X msg 151 230 1;
#X obj 196 354 vline~;
#X obj 128 174 vline~;
#X obj 232 207 vline~;
#X obj 65 413 outlet~;
#X obj 79 83 f;
#X obj 231 127 f;
#X obj 65 353 vcf~ 1.1;
#X obj 88 261 osc~;
#X msg 20 178 \$1 0 \, \$2 \$3;
#X obj 20 158 pack f f f;
#X obj 20 198 vline~;
#X obj 394 56 / 200;
#X obj 29 261 noise~;
#N canvas 172 343 284 202 xfad 0;
#X obj 27 166 outlet~;
#X obj 27 24 inlet~;
#X obj 128 24 inlet~;
#X obj 216 23 inlet;
#X obj 43 86 * -1;
#X obj 43 106 + 1;
#X obj 27 126 *~;
#X obj 128 126 *~;
#X connect 1 0 6 0;
#X connect 2 0 7 0;
#X connect 3 0 4 0;
#X connect 3 0 7 1;
#X connect 4 0 5 0;
#X connect 5 0 6 1;
#X connect 6 0 0 0;
#X connect 7 0 0 0;
#X restore 65 313 pd xfad;
#X obj 379 131 * 1.618;
#X obj 160 104 * 0.9612;
#X obj 232 147 * 2;
#X obj 20 138 * 1.618;
#X obj 54 20 inlet;
#X obj 234 56 * 0.01;
#X obj 130 36 route s-tune decay snap flt_start flt_end reso;
#X msg 441 307 0;
#X msg 409 307 1;
#X obj 441 287 del;
#X obj 409 347 switch~;
#X obj 441 267 f;
#X obj 54 40 t f b b;
#X obj 196 314 pack f f;
#X msg 196 334 \$1 10 \, 0 \$2 10;
#X obj 457 247 + 2;
#X obj 247 107 mtof;
#X obj 263 127 mtof;
#X obj 130 16 inlet;
#X connect 0 0 20 1;
#X connect 1 0 10 0;
#X connect 2 0 8 0;
#X connect 3 0 2 0;
#X connect 4 0 9 0;
#X connect 5 0 4 0;
#X connect 6 0 0 1;
#X connect 6 0 14 1;
#X connect 7 0 1 1;
#X connect 8 0 0 0;
#X connect 9 0 13 1;
#X connect 11 0 3 0;
#X connect 11 0 24 0;
#X connect 12 0 23 0;
#X connect 13 0 1 0;
#X connect 14 0 20 1;
#X connect 15 0 17 0;
#X connect 16 0 15 0;
#X connect 17 0 14 0;
#X connect 18 0 13 2;
#X connect 19 0 20 0;
#X connect 20 0 13 0;
#X connect 21 0 5 2;
#X connect 21 0 34 1;
#X connect 21 0 36 0;
#X connect 22 0 3 1;
#X connect 22 0 16 1;
#X connect 23 0 5 0;
#X connect 24 0 16 0;
#X connect 25 0 33 0;
#X connect 26 0 20 2;
#X connect 27 0 11 1;
#X connect 27 0 22 0;
#X connect 27 1 3 2;
#X connect 27 1 16 2;
#X connect 27 1 21 0;
#X connect 27 2 26 0;
#X connect 27 3 37 0;
#X connect 27 4 38 0;
#X connect 27 5 18 0;
#X connect 28 0 31 0;
#X connect 29 0 31 0;
#X connect 30 0 28 0;
#X connect 32 0 30 0;
#X connect 32 0 29 0;
#X connect 33 0 34 0;
#X connect 33 1 12 0;
#X connect 33 1 6 0;
#X connect 33 1 11 0;
#X connect 33 2 32 0;
#X connect 34 0 35 0;
#X connect 35 0 7 0;
#X connect 36 0 32 1;
#X connect 37 0 12 1;
#X connect 38 0 5 1;
#X connect 39 0 27 0;
#X restore 29 202 pd voice;
#X obj 28 349 outlet~;
#X obj 58 314 *~;
#X obj 55 142 sel 0 1;
#X obj 56 122 == 0;
#X obj 29 122 f 1;
#X obj 29 102 t b f;
#X obj 29 172 f;
#X obj 99 172 f;
#X obj 185 203 * 0.01;
#X obj 29 232 *~ 0.25;
#N canvas 307 68 826 544 rev2 0;
#X obj 162 336 +~;
#X obj 444 385 -~;
#X obj 365 384 -~;
#X obj 240 376 +~;
#X obj 162 373 +~;
#X obj 163 283 +~;
#X obj 263 279 +~;
#X obj 465 340 -~;
#X obj 388 338 +~;
#X obj 240 339 -~;
#X obj 225 23 delread~ \$0-del1 58.6435;
#X obj 303 45 delread~ \$0-del2 69.4325;
#X obj 385 67 delread~ \$0-del3 74.5234;
#X obj 467 91 delread~ \$0-del4 86.1244;
#X obj 162 480 delwrite~ \$0-del1 58.6435;
#X obj 241 456 delwrite~ \$0-del2 69.4325;
#X obj 366 434 delwrite~ \$0-del3 74.5234;
#X obj 444 405 delwrite~ \$0-del4 86.1244;
#X obj 34 223 inlet~;
#X obj 531 364 outlet~;
#X obj 600 364 outlet~;
#X obj 668 364 outlet~;
#X obj 736 364 outlet~;
#N canvas 345 88 359 601 early-reflect 0;
#X obj 119 477 delread~ \$0-ref6 13.645;
#X obj 119 453 delwrite~ \$0-ref6 13.645;
#X obj 106 400 delread~ \$0-ref5 16.364;
#X obj 106 376 delwrite~ \$0-ref5 16.364;
#X obj 102 324 delread~ \$0-ref4 19.392;
#X obj 102 300 delwrite~ \$0-ref4 19.392;
#X obj 106 247 delread~ \$0-ref3 25.796;
#X obj 106 223 delwrite~ \$0-ref3 25.796;
#X obj 107 169 delread~ \$0-ref2 43.5337;
#X obj 107 145 delwrite~ \$0-ref2 43.5337;
#X obj 110 90 delread~ \$0-ref1 75.2546;
#X obj 84 119 -~;
#X obj 49 119 +~;
#X obj 50 195 +~;
#X obj 85 196 -~;
#X obj 84 275 -~;
#X obj 49 274 +~;
#X obj 82 349 -~;
#X obj 48 350 +~;
#X obj 83 428 -~;
#X obj 49 428 +~;
#X obj 65 7 inlet~;
#X obj 110 66 delwrite~ \$0-ref1 75.2546;
#X obj 49 508 outlet~;
#X obj 119 507 outlet~;
#X connect 0 0 24 0;
#X connect 2 0 20 1;
#X connect 2 0 19 1;
#X connect 4 0 18 1;
#X connect 4 0 17 1;
#X connect 6 0 16 1;
#X connect 6 0 15 1;
#X connect 8 0 13 1;
#X connect 8 0 14 1;
#X connect 10 0 12 1;
#X connect 10 0 11 1;
#X connect 11 0 9 0;
#X connect 12 0 14 0;
#X connect 12 0 13 0;
#X connect 13 0 16 0;
#X connect 13 0 15 0;
#X connect 14 0 7 0;
#X connect 15 0 5 0;
#X connect 16 0 18 0;
#X connect 16 0 17 0;
#X connect 17 0 3 0;
#X connect 18 0 20 0;
#X connect 18 0 19 0;
#X connect 19 0 1 0;
#X connect 20 0 23 0;
#X connect 21 0 12 0;
#X connect 21 0 11 0;
#X connect 21 0 22 0;
#X restore 34 249 pd early-reflect;
#X obj 238 171 -~;
#X obj 315 176 -~;
#X obj 397 175 -~;
#X obj 490 176 -~;
#X obj 237 202 *~ 0.8;
#X obj 314 211 *~ 0.8;
#X obj 396 216 *~ 0.8;
#X obj 490 220 *~ 0.8;
#X obj 261 138 lop~ 2000;
#X obj 341 142 lop~ 2000;
#X obj 423 147 lop~ 2000;
#X obj 517 151 lop~ 2000;
#X obj 487 251 *~ 0.27;
#X obj 388 251 *~ 0.27;
#X obj 286 251 *~ 0.27;
#X obj 185 246 *~ 0.27;
#X obj 736 340 *~ 0.079;
#X obj 668 339 *~ 0.079;
#X obj 600 340 *~ 0.079;
#X obj 529 339 *~ 0.079;
#X connect 0 0 4 0;
#X connect 0 0 2 0;
#X connect 1 0 17 0;
#X connect 2 0 16 0;
#X connect 3 0 15 0;
#X connect 4 0 14 0;
#X connect 5 0 9 0;
#X connect 5 0 0 0;
#X connect 5 0 43 0;
#X connect 6 0 0 1;
#X connect 6 0 9 1;
#X connect 6 0 42 0;
#X connect 7 0 3 1;
#X connect 7 0 1 1;
#X connect 8 0 4 1;
#X connect 8 0 2 1;
#X connect 9 0 3 0;
#X connect 9 0 1 0;
#X connect 10 0 24 1;
#X connect 10 0 32 0;
#X connect 10 0 39 0;
#X connect 11 0 25 1;
#X connect 11 0 33 0;
#X connect 11 0 38 0;
#X connect 12 0 26 1;
#X connect 12 0 34 0;
#X connect 12 0 37 0;
#X connect 13 0 27 1;
#X connect 13 0 35 0;
#X connect 13 0 36 0;
#X connect 18 0 23 0;
#X connect 23 0 5 0;
#X connect 23 1 6 0;
#X connect 24 0 28 0;
#X connect 25 0 29 0;
#X connect 26 0 30 0;
#X connect 27 0 31 0;
#X connect 28 0 39 0;
#X connect 29 0 38 0;
#X connect 30 0 37 0;
#X connect 31 0 36 0;
#X connect 32 0 24 0;
#X connect 33 0 25 0;
#X connect 34 0 26 0;
#X connect 35 0 27 0;
#X connect 36 0 7 1;
#X connect 36 0 8 1;
#X connect 36 0 40 0;
#X connect 37 0 8 0;
#X connect 37 0 7 0;
#X connect 37 0 41 0;
#X connect 38 0 6 1;
#X connect 39 0 5 1;
#X connect 40 0 22 0;
#X connect 41 0 21 0;
#X connect 42 0 20 0;
#X connect 43 0 19 0;
#X restore 64 278 pd rev2;
#X obj 84 349 outlet~;
#X obj 114 314 *~;
#X obj 29 82 * 0.01;
#N canvas 189 48 546 475 voice 0;
#X obj 128 261 osc~;
#X obj 65 383 *~;
#X msg 128 154 \$1 0 \, \$2 \$3;
#X obj 128 134 pack f f f;
#X msg 232 187 \$1 0 \, \$2 \$3;
#X obj 232 167 pack f f f;
#X msg 151 230 1;
#X obj 196 354 vline~;
#X obj 128 174 vline~;
#X obj 232 207 vline~;
#X obj 65 413 outlet~;
#X obj 79 83 f;
#X obj 231 127 f;
#X obj 65 353 vcf~ 1.1;
#X obj 88 261 osc~;
#X msg 20 178 \$1 0 \, \$2 \$3;
#X obj 20 158 pack f f f;
#X obj 20 198 vline~;
#X obj 394 56 / 200;
#X obj 29 261 noise~;
#N canvas 172 343 284 202 xfad 0;
#X obj 27 166 outlet~;
#X obj 27 24 inlet~;
#X obj 128 24 inlet~;
#X obj 216 23 inlet;
#X obj 43 86 * -1;
#X obj 43 106 + 1;
#X obj 27 126 *~;
#X obj 128 126 *~;
#X connect 1 0 6 0;
#X connect 2 0 7 0;
#X connect 3 0 4 0;
#X connect 3 0 7 1;
#X connect 4 0 5 0;
#X connect 5 0 6 1;
#X connect 6 0 0 0;
#X connect 7 0 0 0;
#X restore 65 313 pd xfad;
#X obj 379 131 * 1.618;
#X obj 160 104 * 0.9612;
#X obj 232 147 * 2;
#X obj 20 138 * 1.618;
#X obj 54 20 inlet;
#X obj 234 56 * 0.01;
#X obj 130 36 route s-tune decay snap flt_start flt_end reso;
#X msg 441 307 0;
#X msg 409 307 1;
#X obj 441 287 del;
#X obj 409 347 switch~;
#X obj 441 267 f;
#X obj 54 40 t f b b;
#X obj 196 314 pack f f;
#X msg 196 334 \$1 10 \, 0 \$2 10;
#X obj 457 247 + 2;
#X obj 247 107 mtof;
#X obj 263 127 mtof;
#X obj 130 16 inlet;
#X connect 0 0 20 1;
#X connect 1 0 10 0;
#X connect 2 0 8 0;
#X connect 3 0 2 0;
#X connect 4 0 9 0;
#X connect 5 0 4 0;
#X connect 6 0 0 1;
#X connect 6 0 14 1;
#X connect 7 0 1 1;
#X connect 8 0 0 0;
#X connect 9 0 13 1;
#X connect 11 0 3 0;
#X connect 11 0 24 0;
#X connect 12 0 23 0;
#X connect 13 0 1 0;
#X connect 14 0 20 1;
#X connect 15 0 17 0;
#X connect 16 0 15 0;
#X connect 17 0 14 0;
#X connect 18 0 13 2;
#X connect 19 0 20 0;
#X connect 20 0 13 0;
#X connect 21 0 5 2;
#X connect 21 0 34 1;
#X connect 21 0 36 0;
#X connect 22 0 3 1;
#X connect 22 0 16 1;
#X connect 23 0 5 0;
#X connect 24 0 16 0;
#X connect 25 0 33 0;
#X connect 26 0 20 2;
#X connect 27 0 11 1;
#X connect 27 0 22 0;
#X connect 27 1 3 2;
#X connect 27 1 16 2;
#X connect 27 1 21 0;
#X connect 27 2 26 0;
#X connect 27 3 37 0;
#X connect 27 4 38 0;
#X connect 27 5 18 0;
#X connect 28 0 31 0;
#X connect 29 0 31 0;
#X connect 30 0 28 0;
#X connect 32 0 30 0;
#X connect 32 0 29 0;
#X connect 33 0 34 0;
#X connect 33 1 12 0;
#X connect 33 1 6 0;
#X connect 33 1 11 0;
#X connect 33 2 32 0;
#X connect 34 0 35 0;
#X connect 35 0 7 0;
#X connect 36 0 32 1;
#X connect 37 0 12 1;
#X connect 38 0 5 1;
#X connect 39 0 27 0;
#X restore 99 202 pd voice;
#X obj 29 52 route level rev;
#X obj 29 22 inlet;
#X connect 0 0 10 0;
#X connect 2 0 1 0;
#X connect 3 0 7 0;
#X connect 3 1 8 0;
#X connect 4 0 5 1;
#X connect 4 0 3 0;
#X connect 5 0 4 0;
#X connect 6 0 5 0;
#X connect 6 1 7 1;
#X connect 6 1 8 1;
#X connect 7 0 0 0;
#X connect 8 0 15 0;
#X connect 9 0 2 1;
#X connect 9 0 13 1;
#X connect 10 0 1 0;
#X connect 10 0 11 0;
#X connect 10 0 12 0;
#X connect 11 0 2 0;
#X connect 11 1 13 0;
#X connect 13 0 12 0;
#X connect 14 0 6 0;
#X connect 15 0 10 0;
#X connect 16 0 14 0;
#X connect 16 1 9 0;
#X connect 16 2 15 1;
#X connect 16 2 0 1;
#X connect 17 0 16 0;
#X restore 94 381 pd snare;
#X obj 28 21 mmm-module \$1 \$2 dsnare 8;
#X msg 28 71 level \$1;
#X msg 28 111 s-tune \$1;
#X msg 28 151 decay \$1;
#X msg 28 191 snap \$1;
#X obj 28 171 mmm-ctrl \$1 \$2 4 snap 25 75 50 int;
#X msg 28 231 flt_start \$1;
#X msg 28 271 flt_end \$1;
#X msg 28 311 reso \$1;
#X msg 28 351 rev \$1;
#X msg 252 21 version 0.3.2;
#X obj 28 51 mmm-ctrl \$1 \$2 1 level 0 100 -1 int;
#X obj 28 91 mmm-ctrl \$1 \$2 2 s-tune 120 200 160 int;
#X obj 28 131 mmm-ctrl \$1 \$2 3 decay 0 120 60 int;
#X obj 28 211 mmm-ctrl \$1 \$2 5 flt_start 42 82 62 int;
#X obj 28 251 mmm-ctrl \$1 \$2 6 flt_end 0 63 32 int;
#X obj 28 291 mmm-ctrl \$1 \$2 7 reso 50 200 125 int;
#X obj 28 331 mmm-ctrl \$1 \$2 8 rev 0 100 50 int;
#X connect 0 0 5 0;
#X connect 1 0 4 0;
#X connect 2 0 0 0;
#X connect 3 0 1 0;
#X connect 7 0 5 0;
#X connect 7 1 4 0;
#X connect 9 0 7 0;
#X connect 10 0 7 0;
#X connect 11 0 7 0;
#X connect 12 0 7 0;
#X connect 13 0 12 0;
#X connect 14 0 7 0;
#X connect 15 0 7 0;
#X connect 16 0 7 0;
#X connect 17 0 7 0;
#X connect 19 0 9 0;
#X connect 20 0 10 0;
#X connect 21 0 11 0;
#X connect 22 0 14 0;
#X connect 23 0 15 0;
#X connect 24 0 16 0;
#X connect 25 0 17 0;
