#N canvas 129 22 485 440 10;
#X obj 30 351 r~ 1-nothing;
#X obj 123 351 r~ 1-nothing;
#X obj 30 331 r \$1-\$2L-r;
#X obj 123 331 r \$1-\$2R-r;
#X obj 123 370 s~ \$1-\$2R;
#X obj 30 370 s~ \$1-\$2L;
#N canvas 431 82 590 620 snare 0;
#X obj 34 269 line~;
#X obj 34 289 dbtorms~;
#X obj 362 144 noise~;
#X obj 240 335 line~;
#X obj 240 355 dbtorms~;
#X obj 224 375 *~;
#X obj 382 336 line~;
#X obj 382 356 dbtorms~;
#X obj 366 376 *~;
#X obj 121 293 line~;
#X obj 121 313 dbtorms~;
#X obj 105 333 *~;
#X obj 105 179 * 0.560606;
#X obj 137 233 * 0.5;
#X obj 202 456 *~;
#X obj 398 276 * 0.4;
#X obj 256 275 * 0.2;
#X obj 33 229 f;
#X obj 18 209 osc~;
#X obj 105 213 osc~;
#X obj 121 253 f;
#X obj 362 164 lop~;
#X obj 362 184 lop~;
#X obj 240 295 f;
#X obj 362 204 hip~;
#X obj 362 224 hip~;
#X obj 382 296 f;
#X obj 410 143 exp;
#X obj 410 123 min 10;
#X obj 469 123 max 10;
#X obj 469 143 - 9;
#X obj 469 163 * 4;
#X obj 469 183 exp;
#X obj 410 83 + 6;
#X obj 193 293 -;
#X obj 105 363 *~;
#X obj 224 426 *~;
#X obj 193 313 min 1;
#X obj 241 405 min 1;
#X obj 358 434 * 2;
#X obj 202 514 *~;
#X obj 342 514 *~;
#X obj 218 494 min 1;
#X obj 358 494 min 1;
#X obj 227 193 switch~;
#X obj 358 474 -;
#X obj 18 309 *~;
#X obj 110 70 b;
#X msg 240 315 94 \, 0 \$1;
#X msg 121 273 100 \, 0 \$1;
#X msg 34 249 80 \, 0 \$1;
#X msg 193 273 2 \$1;
#X msg 358 454 2 \$1;
#X obj 202 534 outlet~;
#X obj 342 534 outlet~;
#X obj 13 45 * 0.005;
#X obj 70 45 mtof;
#X obj 128 45 * 0.1;
#X obj 185 45 * 0.02;
#X obj 257 133 f;
#X obj 257 153 del;
#X msg 257 173 0;
#X msg 227 173 1;
#X obj 243 45 * 10;
#X obj 300 45 * 0.01;
#X msg 382 316 94 \, 0 \$1;
#X obj 64 182 f 0.25;
#X obj 273 113 + 2;
#X obj 13 5 inlet;
#X obj 13 25 route level tune knack fell>kette decay panorama;
#X connect 0 0 1 0;
#X connect 1 0 46 1;
#X connect 2 0 21 0;
#X connect 3 0 4 0;
#X connect 4 0 5 1;
#X connect 5 0 36 0;
#X connect 6 0 7 0;
#X connect 7 0 8 1;
#X connect 8 0 36 0;
#X connect 9 0 10 0;
#X connect 10 0 11 1;
#X connect 11 0 35 0;
#X connect 12 0 19 0;
#X connect 13 0 20 1;
#X connect 14 0 40 0;
#X connect 14 0 41 0;
#X connect 15 0 26 1;
#X connect 16 0 23 1;
#X connect 17 0 50 0;
#X connect 18 0 46 0;
#X connect 19 0 11 0;
#X connect 20 0 49 0;
#X connect 21 0 22 0;
#X connect 22 0 5 0;
#X connect 22 0 24 0;
#X connect 23 0 48 0;
#X connect 24 0 25 0;
#X connect 25 0 8 0;
#X connect 26 0 65 0;
#X connect 27 0 22 1;
#X connect 27 0 21 1;
#X connect 28 0 27 0;
#X connect 29 0 30 0;
#X connect 30 0 31 0;
#X connect 31 0 32 0;
#X connect 32 0 24 1;
#X connect 32 0 25 1;
#X connect 33 0 28 0;
#X connect 33 0 29 0;
#X connect 34 0 37 0;
#X connect 35 0 14 0;
#X connect 36 0 14 0;
#X connect 37 0 35 1;
#X connect 38 0 36 1;
#X connect 39 0 42 0;
#X connect 39 0 52 0;
#X connect 40 0 53 0;
#X connect 41 0 54 0;
#X connect 42 0 40 1;
#X connect 43 0 41 1;
#X connect 45 0 43 0;
#X connect 46 0 35 0;
#X connect 47 0 26 0;
#X connect 47 0 23 0;
#X connect 47 0 20 0;
#X connect 47 0 17 0;
#X connect 47 0 59 0;
#X connect 47 0 66 0;
#X connect 48 0 3 0;
#X connect 49 0 9 0;
#X connect 50 0 0 0;
#X connect 51 0 34 0;
#X connect 52 0 45 0;
#X connect 55 0 14 1;
#X connect 56 0 12 0;
#X connect 56 0 18 0;
#X connect 57 0 33 0;
#X connect 58 0 51 0;
#X connect 58 0 38 0;
#X connect 59 0 60 0;
#X connect 59 0 62 0;
#X connect 60 0 61 0;
#X connect 61 0 44 0;
#X connect 62 0 44 0;
#X connect 63 0 17 1;
#X connect 63 0 13 0;
#X connect 63 0 16 0;
#X connect 63 0 15 0;
#X connect 63 0 67 0;
#X connect 64 0 39 0;
#X connect 65 0 6 0;
#X connect 66 0 18 1;
#X connect 66 0 19 1;
#X connect 67 0 59 1;
#X connect 68 0 69 0;
#X connect 69 0 55 0;
#X connect 69 0 47 0;
#X connect 69 1 56 0;
#X connect 69 2 57 0;
#X connect 69 3 58 0;
#X connect 69 4 63 0;
#X connect 69 5 64 0;
#X restore 55 301 pd snare;
#X obj 381 131 * 0.1;
#X obj 348 211 * 10;
#X obj 341 91 mtof;
#N canvas 514 142 323 303 f2s 0;
#X obj 27 25 inlet;
#X obj 27 225 outlet;
#X msg 103 165 set \$1;
#X obj 27 195 makefilename;
#X obj 27 55 t f f f;
#X obj 49 95 -;
#X obj 49 115 sel 0;
#X msg 49 145 set %d;
#X obj 71 75 int;
#X obj 103 145 makefilename %%d.%d;
#X obj 104 125 * 10.001;
#X connect 0 0 4 0;
#X connect 2 0 3 0;
#X connect 3 0 1 0;
#X connect 4 0 3 0;
#X connect 4 1 5 0;
#X connect 4 2 8 0;
#X connect 5 0 6 0;
#X connect 6 0 7 0;
#X connect 6 1 10 0;
#X connect 7 0 3 0;
#X connect 8 0 5 1;
#X connect 9 0 2 0;
#X connect 10 0 9 0;
#X restore 333 131 pd f2s;
#X obj 28 21 mmm-module \$1 \$2 delta-snare 6;
#X obj 88 131 mmm-ctrl \$1 \$2 3 knack 0 55 24 ext;
#X obj 88 171 mmm-ctrl \$1 \$2 4 fell>kette 0 100 69 int;
#X msg 88 71 level \$1;
#X msg 88 111 tune \$1;
#X msg 88 151 knack \$1;
#X msg 88 191 fell>kette \$1;
#X msg 88 231 decay \$1;
#X msg 88 271 panorama \$1;
#X obj 88 51 mmm-ctrl \$1 \$2 1 level 0 100 -1 int;
#X obj 88 211 mmm-ctrl \$1 \$2 5 decay 1 200 100 ext;
#X obj 88 251 mmm-ctrl \$1 \$2 6 panorama 0 100 50 int;
#X obj 88 91 mmm-ctrl \$1 \$2 2 tune 57 103 80 ext;
#X msg 314 21 version 0.3.4;
#X connect 0 0 5 0;
#X connect 1 0 4 0;
#X connect 2 0 0 0;
#X connect 3 0 1 0;
#X connect 6 0 5 0;
#X connect 6 1 4 0;
#X connect 7 0 10 0;
#X connect 8 0 21 1;
#X connect 9 0 23 1;
#X connect 10 0 12 1;
#X connect 12 0 16 0;
#X connect 12 2 7 0;
#X connect 13 0 17 0;
#X connect 14 0 6 0;
#X connect 15 0 6 0;
#X connect 16 0 6 0;
#X connect 17 0 6 0;
#X connect 18 0 6 0;
#X connect 19 0 6 0;
#X connect 20 0 14 0;
#X connect 21 0 18 0;
#X connect 21 2 8 0;
#X connect 22 0 19 0;
#X connect 23 0 15 0;
#X connect 23 2 9 0;
