#N canvas 200 22 717 222 10;
#X obj 383 41 r~ 1-nothing;
#X obj 536 41 r~ 1-nothing;
#X obj 383 21 r \$1-\$2L-r;
#X obj 536 21 r \$1-\$2R-r;
#X obj 536 140 s~ \$1-\$2R;
#X obj 383 140 s~ \$1-\$2L;
#X text 379 171 port of dondos ddrum.pd;
#X msg 254 21 version 0.1.1;
#N canvas 188 236 494 344 toms 0;
#X obj 16 242 outlet~;
#X obj 16 22 r \$3;
#X obj 42 142 sel 0 1;
#X obj 43 122 == 0;
#X obj 16 122 f 1;
#X obj 16 102 t b f;
#X obj 16 172 f;
#X obj 79 172 f;
#N canvas 274 405 417 329 voice 0;
#X obj 42 -50 r \$3;
#X obj 26 210 outlet~;
#X obj 26 140 osc~;
#X obj 26 120 vline~;
#X obj 92 150 vline~;
#X obj 26 180 *~;
#X msg 26 100 0 0 \, \$2 5 5 \, \$1 180 180;
#X obj 56 60 * 1.1;
#X obj 26 40 t f f;
#X obj 217 81 switch~;
#X msg 253 51 0;
#X msg 217 51 1;
#X obj 174 -50 inlet;
#X obj 253 31 del 370;
#X obj 26 20 f;
#X msg 253 11 stop \, bang;
#X obj 26 80 pack;
#X msg 92 130 0 0 \, \$1 1 5 \, 0 180 180;
#X obj 174 -20 t b f b;
#X obj 42 -20 route lt-tune;
#X connect 0 0 19 0;
#X connect 2 0 5 0;
#X connect 3 0 2 0;
#X connect 4 0 5 1;
#X connect 5 0 1 0;
#X connect 6 0 3 0;
#X connect 7 0 16 1;
#X connect 8 0 16 0;
#X connect 8 1 7 0;
#X connect 10 0 9 0;
#X connect 11 0 9 0;
#X connect 12 0 18 0;
#X connect 13 0 10 0;
#X connect 14 0 8 0;
#X connect 15 0 13 0;
#X connect 16 0 6 0;
#X connect 17 0 4 0;
#X connect 18 0 14 0;
#X connect 18 1 17 0;
#X connect 18 2 11 0;
#X connect 18 2 15 0;
#X connect 19 0 14 1;
#X restore 16 192 pd voice;
#N canvas 274 405 417 329 voice 0;
#X obj 42 -50 r \$3;
#X obj 26 210 outlet~;
#X obj 26 140 osc~;
#X obj 26 120 vline~;
#X obj 92 150 vline~;
#X obj 26 180 *~;
#X msg 26 100 0 0 \, \$2 5 5 \, \$1 180 180;
#X obj 56 60 * 1.1;
#X obj 26 40 t f f;
#X obj 217 81 switch~;
#X msg 253 51 0;
#X msg 217 51 1;
#X obj 174 -50 inlet;
#X obj 253 31 del 370;
#X obj 26 20 f;
#X msg 253 11 stop \, bang;
#X obj 26 80 pack;
#X msg 92 130 0 0 \, \$1 1 5 \, 0 180 180;
#X obj 174 -20 t b f b;
#X obj 42 -20 route lt-tune;
#X connect 0 0 19 0;
#X connect 2 0 5 0;
#X connect 3 0 2 0;
#X connect 4 0 5 1;
#X connect 5 0 1 0;
#X connect 6 0 3 0;
#X connect 7 0 16 1;
#X connect 8 0 16 0;
#X connect 8 1 7 0;
#X connect 10 0 9 0;
#X connect 11 0 9 0;
#X connect 12 0 18 0;
#X connect 13 0 10 0;
#X connect 14 0 8 0;
#X connect 15 0 13 0;
#X connect 16 0 6 0;
#X connect 17 0 4 0;
#X connect 18 0 14 0;
#X connect 18 1 17 0;
#X connect 18 2 11 0;
#X connect 18 2 15 0;
#X connect 19 0 14 1;
#X restore 79 192 pd voice;
#X obj 175 142 sel 0 1;
#X obj 176 122 == 0;
#X obj 149 122 f 1;
#X obj 149 102 t b f;
#X obj 149 172 f;
#X obj 212 172 f;
#N canvas 297 22 369 449 voice 0;
#X obj 70 25 r \$3;
#X obj 24 285 outlet~;
#X obj 24 225 osc~;
#X obj 24 205 vline~;
#X obj 82 225 vline~;
#X obj 24 255 *~;
#X obj 24 95 f;
#X obj 24 115 t f f;
#X obj 177 88 switch~;
#X msg 213 55 0;
#X msg 177 55 1;
#X obj 24 -45 inlet;
#X obj 53 135 * 1.05;
#X msg 24 175 0 0 \, \$2 5 5 \, \$1 140 140;
#X obj 213 35 del 300;
#X msg 82 205 0 0 \, \$1 1 5 \, 0 140 140;
#X obj 24 155 pack;
#X msg 213 15 stop \, bang;
#X obj 24 -15 t b f b;
#X obj 70 55 route ht-tune;
#X connect 0 0 19 0;
#X connect 2 0 5 0;
#X connect 3 0 2 0;
#X connect 4 0 5 1;
#X connect 5 0 1 0;
#X connect 6 0 7 0;
#X connect 7 0 16 0;
#X connect 7 1 12 0;
#X connect 9 0 8 0;
#X connect 10 0 8 0;
#X connect 11 0 18 0;
#X connect 12 0 16 1;
#X connect 13 0 3 0;
#X connect 14 0 9 0;
#X connect 15 0 4 0;
#X connect 16 0 13 0;
#X connect 17 0 14 0;
#X connect 18 0 6 0;
#X connect 18 1 15 0;
#X connect 18 2 10 0;
#X connect 18 2 17 0;
#X connect 19 0 6 1;
#X restore 149 192 pd voice;
#N canvas 297 22 357 437 voice 0;
#X obj 70 25 r \$3;
#X obj 24 285 outlet~;
#X obj 24 225 osc~;
#X obj 24 205 vline~;
#X obj 82 225 vline~;
#X obj 24 255 *~;
#X obj 24 95 f;
#X obj 24 115 t f f;
#X obj 177 88 switch~;
#X msg 213 55 0;
#X msg 177 55 1;
#X obj 24 -45 inlet;
#X obj 53 135 * 1.05;
#X msg 24 175 0 0 \, \$2 5 5 \, \$1 140 140;
#X obj 213 35 del 300;
#X obj 70 55 route ht-tune;
#X msg 82 205 0 0 \, \$1 1 5 \, 0 140 140;
#X obj 24 155 pack;
#X msg 213 15 stop \, bang;
#X obj 24 -15 t b f b;
#X connect 0 0 15 0;
#X connect 2 0 5 0;
#X connect 3 0 2 0;
#X connect 4 0 5 1;
#X connect 5 0 1 0;
#X connect 6 0 7 0;
#X connect 7 0 17 0;
#X connect 7 1 12 0;
#X connect 9 0 8 0;
#X connect 10 0 8 0;
#X connect 11 0 19 0;
#X connect 12 0 17 1;
#X connect 13 0 3 0;
#X connect 14 0 9 0;
#X connect 15 0 6 1;
#X connect 16 0 4 0;
#X connect 17 0 13 0;
#X connect 18 0 14 0;
#X connect 19 0 6 0;
#X connect 19 1 16 0;
#X connect 19 2 10 0;
#X connect 19 2 18 0;
#X restore 212 192 pd voice;
#X obj 16 52 route low-tom-seq hi-tom-seq;
#X obj 16 82 * 0.005;
#X obj 149 82 * 0.005;
#X connect 1 0 18 0;
#X connect 2 0 6 0;
#X connect 2 1 7 0;
#X connect 3 0 4 1;
#X connect 3 0 2 0;
#X connect 4 0 3 0;
#X connect 5 0 4 0;
#X connect 5 1 6 1;
#X connect 5 1 7 1;
#X connect 6 0 8 0;
#X connect 7 0 9 0;
#X connect 8 0 0 0;
#X connect 9 0 0 0;
#X connect 10 0 14 0;
#X connect 10 1 15 0;
#X connect 11 0 12 1;
#X connect 11 0 10 0;
#X connect 12 0 11 0;
#X connect 13 0 12 0;
#X connect 13 1 14 1;
#X connect 13 1 15 1;
#X connect 14 0 16 0;
#X connect 15 0 17 0;
#X connect 16 0 0 0;
#X connect 17 0 0 0;
#X connect 18 0 19 0;
#X connect 18 1 20 0;
#X connect 19 0 5 0;
#X connect 20 0 13 0;
#X restore 633 86 pd toms;
#X obj 28 21 mmm-module \$1 \$2 dtom 4;
#X obj 28 61 mmm-ctrl \$1 \$2 1 low-tom 0 100 0 int;
#X obj 28 81 mmm-ctrl \$1 \$2 2 lt-tune 60 110 90 int;
#X obj 28 111 mmm-ctrl \$1 \$2 3 hi-tom 0 100 0 int;
#X obj 28 131 mmm-ctrl \$1 \$2 4 ht-tune 110 180 125 int;
#X connect 0 0 5 0;
#X connect 1 0 4 0;
#X connect 2 0 0 0;
#X connect 3 0 1 0;
#X connect 8 0 5 0;
#X connect 8 0 4 0;
