#N canvas 5 152 435 665 10;
#X obj 28 432 r~ 1-nothing;
#X obj 268 432 r~ 1-nothing;
#X obj 268 412 r \$1-\$2R-r;
#X obj 268 602 s~ \$1-\$2R;
#X obj 28 602 s~ \$1-\$2L;
#X obj 28 412 r \$1-\$2L-r;
#N canvas 71 56 462 312 delwrite 0;
#X obj 31 29 inlet~;
#X obj 101 29 inlet~;
#X obj 31 229 outlet~;
#X obj 31 162 delwrite~ \$0-delay-L 2000;
#X obj 101 222 delwrite~ \$0-delay-R 2000;
#X connect 0 0 3 0;
#X connect 1 0 4 0;
#X restore 92 517 pd delwrite;
#X obj 232 281 * 0.01;
#X obj 327 71 * 0.02;
#X obj 35 386 *~;
#X obj 105 406 *~;
#X obj 232 321 line~;
#N canvas 0 22 352 234 delread_ 0;
#X obj 31 29 inlet~;
#X obj 31 139 outlet~;
#X obj 101 139 outlet~;
#X obj 31 92 delread~ \$0-delay-L;
#X obj 101 112 delread~ \$0-delay-R;
#X obj 91 29 inlet delay;
#X connect 3 0 1 0;
#X connect 4 0 2 0;
#X connect 5 0 3 0;
#X connect 5 0 4 0;
#X restore 92 537 pd delread_;
#X obj 35 366 delread~ \$0-delay-L;
#X obj 105 386 delread~ \$0-delay-R;
#N canvas 514 142 307 287 f2s 0;
#X obj 27 25 inlet;
#X obj 27 225 outlet;
#X msg 104 165 set \$1;
#X obj 27 195 makefilename;
#X obj 27 55 t f f f;
#X obj 50 95 -;
#X obj 50 115 sel 0;
#X msg 50 145 set %d;
#X obj 71 75 int;
#X obj 105 125 * 100.001;
#X obj 104 145 makefilename %%d.%02d;
#X connect 0 0 4 0;
#X connect 2 0 3 0;
#X connect 3 0 1 0;
#X connect 4 0 3 0;
#X connect 4 1 5 0;
#X connect 4 2 8 0;
#X connect 5 0 6 0;
#X connect 6 0 7 0;
#X connect 6 1 9 0;
#X connect 7 0 3 0;
#X connect 8 0 5 1;
#X connect 9 0 10 0;
#X connect 10 0 2 0;
#X restore 279 71 pd f2s;
#X obj 203 536 line~;
#X obj 92 567 *~;
#X obj 164 567 *~;
#X obj 181 171 * 0.02;
#X obj 181 231 pipe 8;
#X msg 318 282 0 8;
#X msg 232 301 \$1 14;
#X obj 181 211 t f b;
#X obj 181 251 t f b;
#X obj 181 191 mmm-ticks2ms;
#X obj 118 151 route dry-wet delay feedback;
#X msg 203 516 1 14;
#X obj 96 489 *~;
#X obj 176 487 *~;
#X obj 33 500 *~;
#X obj 266 497 *~;
#X obj 152 281 cos;
#X obj 108 281 sin;
#X obj 98 181 * 0.015708;
#X obj 108 321 line~;
#X obj 152 321 line~;
#X msg 152 301 \$1 10;
#X msg 108 301 \$1 10;
#X obj 28 21 mmm-module \$1 \$2 delay 3;
#X obj 28 51 mmm-ctrl \$1 \$2 1 dry-wet 0 100 50 int;
#X obj 28 71 mmm-ctrl \$1 \$2 2 delay 1 800 50 ext;
#X msg 255 21 version 0.3.5;
#X obj 28 91 mmm-ctrl \$1 \$2 3 feedback 0 99 0 int;
#X connect 0 0 28 0;
#X connect 0 0 30 0;
#X connect 1 0 29 0;
#X connect 1 0 31 0;
#X connect 2 0 1 0;
#X connect 5 0 0 0;
#X connect 6 0 12 0;
#X connect 7 0 22 0;
#X connect 8 0 15 0;
#X connect 9 0 6 0;
#X connect 10 0 6 1;
#X connect 11 0 10 1;
#X connect 11 0 9 1;
#X connect 12 0 17 0;
#X connect 12 1 18 0;
#X connect 13 0 9 0;
#X connect 14 0 10 0;
#X connect 15 0 41 1;
#X connect 16 0 18 1;
#X connect 16 0 17 1;
#X connect 17 0 4 0;
#X connect 18 0 3 0;
#X connect 19 0 25 0;
#X connect 20 0 24 0;
#X connect 21 0 11 0;
#X connect 21 0 16 0;
#X connect 22 0 11 0;
#X connect 23 0 20 0;
#X connect 23 1 21 0;
#X connect 24 0 14 0;
#X connect 24 0 12 1;
#X connect 24 0 13 0;
#X connect 24 1 7 0;
#X connect 24 1 27 0;
#X connect 25 0 23 0;
#X connect 26 0 34 0;
#X connect 26 1 19 0;
#X connect 26 2 7 0;
#X connect 27 0 16 0;
#X connect 28 0 6 0;
#X connect 29 0 6 1;
#X connect 30 0 4 0;
#X connect 31 0 3 0;
#X connect 32 0 37 0;
#X connect 33 0 38 0;
#X connect 34 0 33 0;
#X connect 34 0 32 0;
#X connect 35 0 29 1;
#X connect 35 0 28 1;
#X connect 36 0 31 1;
#X connect 36 0 30 1;
#X connect 37 0 36 0;
#X connect 38 0 35 0;
#X connect 40 0 34 0;
#X connect 41 0 19 0;
#X connect 41 2 8 0;
#X connect 43 0 7 0;
