#N canvas 21 22 758 344 10;
#X obj 631 91 * 0.1;
#X obj 22 207 r~ 1-nothing;
#X obj 115 207 r~ 1-nothing;
#X obj 22 187 r \$1-\$2L-r;
#X obj 115 187 r \$1-\$2R-r;
#X obj 115 276 s~ \$1-\$2R;
#X obj 22 276 s~ \$1-\$2L;
#N canvas 60 173 534 595 guts 0;
#X obj 189 517 outlet~;
#X obj 64 307 *~;
#X obj 110 356 *~ 0.251;
#X obj 416 248 -;
#X obj 416 208 * 0.212;
#X obj 284 373 noise~;
#X obj 110 396 lop~ 8000;
#X obj 268 393 *~;
#X obj 110 376 hip~ 20;
#X obj 268 473 *~ 0.63;
#X obj 110 472 *~ 0.63;
#N canvas 616 262 522 552 dcf 0;
#X obj 31 480 outlet~;
#X obj 324 248 osc~;
#X obj 324 108 *;
#X obj 324 148 *;
#X obj 324 278 *~ 12;
#X obj 324 376 mtof~;
#X obj 377 188 r \$0-n.t;
#X obj 274 248 * 24;
#X obj 324 208 * 1000;
#X obj 324 188 *;
#X obj 225 266 t b f;
#X obj 225 206 * 48;
#X obj 177 297 + 9;
#X obj 177 317 max 1;
#X obj 177 337 min 127;
#X obj 31 420 vcf~;
#X obj 55 325 *;
#X obj 55 385 * 100;
#X obj 55 365 *;
#X obj 82 430 * 0.158;
#X obj 31 450 *~ 0.158;
#X obj 31 254 inlet~;
#X obj 225 226 - 24;
#X obj 225 246 int;
#X obj 377 208 f 0.5;
#X obj 177 377 line~;
#X obj 177 357 pack \$1 1000;
#X obj 256 337 inlet;
#X msg 55 305 \$1 \$1;
#X msg 55 345 \$1 \$1;
#X msg 324 88 \$1 \$1;
#X msg 324 128 \$1 \$1;
#X msg 324 168 \$1 \$1;
#X obj 225 68 * 0.01;
#X obj 274 68 * 0.01;
#X obj 324 68 * 0.01;
#X obj 373 68 * 0.01;
#X obj 423 68 * 0.01;
#X obj 446 15 inlet;
#X obj 176 48 route notes filter lfo velocity phase q;
#X connect 1 0 4 0;
#X connect 2 0 31 0;
#X connect 3 0 32 0;
#X connect 4 0 5 0;
#X connect 5 0 15 1;
#X connect 6 0 24 0;
#X connect 7 0 4 1;
#X connect 8 0 1 0;
#X connect 9 0 8 0;
#X connect 10 0 12 0;
#X connect 10 1 12 1;
#X connect 11 0 22 0;
#X connect 12 0 13 0;
#X connect 13 0 14 0;
#X connect 14 0 26 0;
#X connect 15 0 20 0;
#X connect 16 0 29 0;
#X connect 17 0 15 2;
#X connect 17 0 19 0;
#X connect 18 0 17 0;
#X connect 19 0 20 1;
#X connect 20 0 0 0;
#X connect 21 0 15 0;
#X connect 22 0 23 0;
#X connect 23 0 10 0;
#X connect 24 0 1 1;
#X connect 25 0 5 0;
#X connect 26 0 25 0;
#X connect 27 0 26 1;
#X connect 28 0 16 0;
#X connect 29 0 18 0;
#X connect 30 0 2 0;
#X connect 31 0 3 0;
#X connect 32 0 9 0;
#X connect 33 0 11 0;
#X connect 34 0 7 0;
#X connect 35 0 30 0;
#X connect 36 0 24 1;
#X connect 37 0 28 0;
#X connect 38 0 39 0;
#X connect 39 0 12 0;
#X connect 39 1 33 0;
#X connect 39 2 34 0;
#X connect 39 3 35 0;
#X connect 39 4 36 0;
#X connect 39 5 37 0;
#X restore 268 413 pd dcf;
#N canvas 67 22 1044 414 dco 0;
#X obj 19 226 osc~;
#X obj 177 196 osc~;
#X obj 177 76 + 3;
#X obj 185 56 t b f;
#X obj 334 176 osc~;
#X obj 334 96 + 12;
#X obj 491 135 + 12;
#X obj 185 36 r \$0-dismidi;
#X obj 200 156 r \$0-disfreq;
#X obj 491 255 osc~;
#X obj 491 75 + 3;
#X obj 499 55 t b f;
#X obj 499 35 r \$0-dismidi;
#X obj 514 215 r \$0-disfreq;
#X obj 346 36 r \$0-unf;
#X obj 346 76 t b f;
#X obj 346 56 * 12;
#X obj 540 55 r \$0-unf;
#X obj 540 95 t b f;
#X obj 540 75 * 12;
#X obj 651 216 osc~;
#X obj 812 246 osc~;
#X obj 812 76 + 3;
#X obj 820 56 t b f;
#X obj 820 36 r \$0-dismidi;
#X obj 835 206 r \$0-disfreq;
#X obj 663 66 r \$0-unf;
#X obj 663 106 t b f;
#X obj 861 56 r \$0-unf;
#X obj 861 96 t b f;
#X obj 651 136 + 24;
#X obj 663 86 * 24;
#X obj 812 126 + 24;
#X obj 861 76 * 24;
#X obj 812 226 +~ 0;
#X obj 812 186 mtof~;
#X obj 812 166 line~;
#X obj 651 196 mtof~;
#X obj 651 176 line~;
#X obj 334 136 line~;
#X obj 334 156 mtof~;
#X obj 491 195 mtof~;
#X obj 491 235 +~ 0;
#X obj 491 175 line~;
#X obj 177 176 +~ 0;
#X obj 177 136 mtof~;
#X obj 177 116 line~;
#X obj 19 206 mtof~;
#X obj 19 186 line~;
#X obj 19 16 inlet;
#X obj 891 126 inlet;
#X obj 19 166 pack f f;
#X obj 177 96 pack f f;
#X obj 334 116 pack f f;
#X obj 491 155 pack f f;
#X obj 651 156 pack f f;
#X obj 812 146 pack f f;
#X obj 473 334 outlet~;
#X connect 0 0 57 0;
#X connect 1 0 57 0;
#X connect 2 0 52 0;
#X connect 3 0 2 0;
#X connect 3 1 2 1;
#X connect 4 0 57 0;
#X connect 5 0 53 0;
#X connect 6 0 54 0;
#X connect 7 0 3 0;
#X connect 8 0 44 1;
#X connect 9 0 57 0;
#X connect 10 0 6 0;
#X connect 11 0 10 0;
#X connect 11 1 10 1;
#X connect 12 0 11 0;
#X connect 13 0 42 1;
#X connect 14 0 16 0;
#X connect 15 0 5 0;
#X connect 15 1 5 1;
#X connect 16 0 15 0;
#X connect 17 0 19 0;
#X connect 18 0 6 0;
#X connect 18 1 6 1;
#X connect 19 0 18 0;
#X connect 20 0 57 0;
#X connect 21 0 57 0;
#X connect 22 0 32 0;
#X connect 23 0 22 0;
#X connect 23 1 22 1;
#X connect 24 0 23 0;
#X connect 25 0 34 1;
#X connect 26 0 31 0;
#X connect 27 0 30 0;
#X connect 27 1 30 1;
#X connect 28 0 33 0;
#X connect 29 0 32 0;
#X connect 29 1 32 1;
#X connect 30 0 55 0;
#X connect 31 0 27 0;
#X connect 32 0 56 0;
#X connect 33 0 29 0;
#X connect 34 0 21 0;
#X connect 35 0 34 0;
#X connect 36 0 35 0;
#X connect 37 0 20 0;
#X connect 38 0 37 0;
#X connect 39 0 40 0;
#X connect 40 0 4 0;
#X connect 41 0 42 0;
#X connect 42 0 9 0;
#X connect 43 0 41 0;
#X connect 44 0 1 0;
#X connect 45 0 44 0;
#X connect 46 0 45 0;
#X connect 47 0 0 0;
#X connect 48 0 47 0;
#X connect 49 0 2 0;
#X connect 49 0 5 0;
#X connect 49 0 10 0;
#X connect 49 0 30 0;
#X connect 49 0 22 0;
#X connect 49 0 51 0;
#X connect 50 0 51 1;
#X connect 50 0 52 1;
#X connect 50 0 53 1;
#X connect 50 0 54 1;
#X connect 50 0 55 1;
#X connect 50 0 56 1;
#X connect 51 0 48 0;
#X connect 52 0 46 0;
#X connect 53 0 39 0;
#X connect 54 0 43 0;
#X connect 55 0 38 0;
#X connect 56 0 36 0;
#X restore 80 267 pd dco;
#N canvas 108 22 491 483 audio.envelope-ds 0;
#X obj 210 352 dbtorms~;
#X obj 227 33 moses 0.5;
#X obj 210 332 line~;
#X obj 210 252 t b f;
#X obj 227 93 *;
#X obj 227 113 * 1000;
#X obj 210 192 f;
#X obj 285 53 t f b;
#X obj 295 173 - 0.4;
#X obj 210 292 f 20;
#X obj 227 172 t f b;
#X obj 295 193 * 166.667;
#X obj 227 53 * 2;
#X obj 227 152 + 1.451;
#X obj 210 272 del 1.452;
#X obj 142 122 r \$0-hzms;
#X obj 49 252 pack 100 1.452;
#X obj 19 138 t b b;
#X obj 65 185 s \$0-n.t;
#X obj 257 192 f 20;
#X obj 315 73 f 1000;
#X msg 227 73 \$1 \$1;
#X obj 19 108 inlet;
#X obj 210 312 pack f f;
#X obj 227 13 inlet;
#X obj 210 372 outlet~;
#X connect 0 0 25 0;
#X connect 1 0 12 0;
#X connect 1 1 7 0;
#X connect 2 0 0 0;
#X connect 3 0 14 0;
#X connect 3 1 23 1;
#X connect 4 0 5 0;
#X connect 5 0 13 0;
#X connect 6 0 3 0;
#X connect 7 0 8 0;
#X connect 7 1 20 0;
#X connect 8 0 11 0;
#X connect 9 0 23 0;
#X connect 10 0 6 1;
#X connect 10 1 19 0;
#X connect 11 0 9 1;
#X connect 12 0 21 0;
#X connect 13 0 10 0;
#X connect 14 0 9 0;
#X connect 15 0 16 1;
#X connect 15 0 14 1;
#X connect 15 0 13 1;
#X connect 16 0 2 0;
#X connect 17 0 6 0;
#X connect 17 1 16 0;
#X connect 17 1 18 0;
#X connect 19 0 9 1;
#X connect 20 0 6 1;
#X connect 21 0 4 0;
#X connect 22 0 17 0;
#X connect 23 0 2 0;
#X connect 24 0 1 0;
#X restore 64 287 pd audio.envelope-ds;
#N canvas 0 22 314 329 mix.osc-noise 0;
#X obj 19 247 outlet;
#X obj 201 247 outlet;
#X obj 20 36 select 0.5;
#X obj 84 59 moses 0.5;
#X obj 200 134 + 0.26;
#X obj 201 112 * 0.74;
#X obj 19 134 + 1;
#X msg 20 57 0.5;
#X obj 20 113 * -0.74;
#X obj 83 113 * 1.26;
#X obj 143 112 * -1.26;
#X obj 142 132 + 1.26;
#X obj 20 16 inlet;
#X connect 2 0 7 0;
#X connect 2 1 3 0;
#X connect 3 0 8 0;
#X connect 3 0 9 0;
#X connect 3 1 5 0;
#X connect 3 1 10 0;
#X connect 4 0 1 0;
#X connect 5 0 4 0;
#X connect 6 0 0 0;
#X connect 7 0 8 0;
#X connect 7 0 5 0;
#X connect 8 0 6 0;
#X connect 9 0 1 0;
#X connect 10 0 11 0;
#X connect 11 0 0 0;
#X connect 12 0 2 0;
#X restore 154 452 pd mix.osc-noise;
#N canvas 0 22 292 261 additive-2 0;
#X obj 14 39 moses 0.5;
#X obj 72 99 - 0.5;
#X obj 72 159 s \$0-dismidi;
#X obj 14 179 s \$0-disfreq;
#X obj 14 59 t f b;
#X obj 44 79 f 0;
#X obj 72 59 t f b;
#X obj 102 79 f 0;
#X obj 14 139 -;
#X obj 14 159 * 40;
#X obj 72 119 * 48;
#X obj 72 139 int;
#X obj 14 19 inlet;
#X msg 14 119 0.5 \$1;
#X connect 0 0 4 0;
#X connect 0 1 6 0;
#X connect 1 0 10 0;
#X connect 4 0 13 0;
#X connect 4 1 5 0;
#X connect 5 0 2 0;
#X connect 6 0 1 0;
#X connect 6 1 7 0;
#X connect 7 0 3 0;
#X connect 8 0 9 0;
#X connect 9 0 3 0;
#X connect 10 0 11 0;
#X connect 11 0 2 0;
#X connect 12 0 0 0;
#X connect 13 0 8 0;
#X restore 304 111 pd additive-2;
#N canvas 0 22 305 158 additive-3 0;
#X obj 20 38 * 2;
#X obj 20 78 s \$0-unf;
#X obj 20 58 - 1;
#X obj 20 18 inlet;
#X connect 0 0 2 0;
#X connect 2 0 1 0;
#X connect 3 0 0 0;
#X restore 359 151 pd additive-3;
#N canvas 98 352 167 215 hzms 0;
#X obj 17 34 mtof;
#X obj 17 74 /;
#X obj 17 94 max 1.452;
#X obj 17 114 s \$0-hzms;
#X obj 17 14 inlet;
#X msg 17 54 1024 \$1;
#X connect 0 0 5 0;
#X connect 1 0 2 0;
#X connect 2 0 3 0;
#X connect 4 0 0 0;
#X connect 5 0 1 0;
#X restore 129 267 pd hzms;
#X obj 416 188 / 127;
#X msg 416 228 0.251 \$1;
#X obj 257 196 *;
#X obj 257 216 * 1000;
#X msg 257 176 \$1 \$1;
#X obj 198 267 * 0.01;
#X obj 257 156 * 0.01;
#X obj 154 432 * 0.01;
#X obj 304 91 * 0.01;
#X obj 359 131 * 0.01;
#X obj 29 22 inlet;
#X obj 28 51 route notes envelope level glide osc>noise additive2 additive3
;
#X msg 373 358 notes \$1;
#X obj 115 92 dbtorms;
#X obj 186 495 *~;
#X connect 1 0 2 0;
#X connect 2 0 8 0;
#X connect 3 0 2 1;
#X connect 4 0 19 0;
#X connect 5 0 7 1;
#X connect 6 0 10 0;
#X connect 7 0 11 0;
#X connect 8 0 6 0;
#X connect 9 0 32 0;
#X connect 10 0 32 0;
#X connect 11 0 9 0;
#X connect 12 0 1 1;
#X connect 13 0 1 0;
#X connect 13 0 7 0;
#X connect 14 0 10 1;
#X connect 14 1 9 1;
#X connect 18 0 4 0;
#X connect 19 0 3 0;
#X connect 20 0 21 0;
#X connect 21 0 12 1;
#X connect 21 0 11 1;
#X connect 22 0 20 0;
#X connect 23 0 13 1;
#X connect 24 0 22 0;
#X connect 25 0 14 0;
#X connect 26 0 15 0;
#X connect 27 0 16 0;
#X connect 28 0 29 0;
#X connect 29 0 18 0;
#X connect 29 0 12 0;
#X connect 29 0 17 0;
#X connect 29 0 13 0;
#X connect 29 0 30 0;
#X connect 29 1 23 0;
#X connect 29 2 31 0;
#X connect 29 3 24 0;
#X connect 29 4 25 0;
#X connect 29 5 26 0;
#X connect 29 6 27 0;
#X connect 29 7 11 2;
#X connect 30 0 11 2;
#X connect 31 0 32 1;
#X connect 32 0 0 0;
#X restore 159 245 pd guts;
#X obj 602 111 * 0.1;
#X obj 28 21 mmm-module \$1 \$2 daisy 12;
#X obj 308 71 mmm-ctrl \$1 \$2 2 level 0 100 70 int;
#X obj 308 51 mmm-ctrl \$1 \$2 1 notes 16 127 15 ext;
#X obj 308 91 mmm-ctrl \$1 \$2 3 envelope 0 100 20 ext;
#X obj 308 111 mmm-ctrl \$1 \$2 4 glide 0 100 0 ext;
#X obj 308 131 mmm-ctrl \$1 \$2 5 osc>noise 0 100 25 int;
#X obj 308 151 mmm-ctrl \$1 \$2 6 additive2 0 100 50 int;
#X obj 308 171 mmm-ctrl \$1 \$2 7 additive3 0 100 50 int;
#X obj 308 191 mmm-ctrl \$1 \$2 8 filter 0 100 50 int;
#X obj 308 211 mmm-ctrl \$1 \$2 9 lfo 0 100 0 int;
#X obj 308 231 mmm-ctrl \$1 \$2 10 velocity 0 100 0 int;
#X obj 308 251 mmm-ctrl \$1 \$2 11 phase 0 100 50 int;
#X obj 308 271 mmm-ctrl \$1 \$2 12 q 0 100 50 int;
#X msg 228 71 notes \$1;
#X msg 228 291 q \$1;
#X msg 228 271 phase \$1;
#X msg 228 251 velocity \$1;
#X msg 228 231 lfo \$1;
#X msg 228 91 level \$1;
#X msg 228 111 envelope \$1;
#X msg 228 131 glide \$1;
#X msg 228 151 osc>noise \$1;
#X msg 228 191 additive3 \$1;
#X msg 228 171 additive2 \$1;
#X msg 228 211 filter \$1;
#X obj 567 51 mmm-notename;
#N canvas 514 142 323 303 f2s 0;
#X obj 27 25 inlet;
#X obj 27 225 outlet;
#X msg 103 165 set \$1;
#X obj 27 195 makefilename;
#X obj 27 55 t f f f;
#X obj 49 95 -;
#X obj 49 115 sel 0;
#X msg 49 145 set %d;
#X obj 71 75 int;
#X obj 103 145 makefilename %%d.%d;
#X obj 104 125 * 10.001;
#X connect 0 0 4 0;
#X connect 2 0 3 0;
#X connect 3 0 1 0;
#X connect 4 0 3 0;
#X connect 4 1 5 0;
#X connect 4 2 8 0;
#X connect 5 0 6 0;
#X connect 6 0 7 0;
#X connect 6 1 10 0;
#X connect 7 0 3 0;
#X connect 8 0 5 1;
#X connect 9 0 2 0;
#X connect 10 0 9 0;
#X restore 582 91 pd f2s;
#N canvas 514 142 323 303 f2s 0;
#X obj 27 25 inlet;
#X obj 27 225 outlet;
#X msg 103 165 set \$1;
#X obj 27 195 makefilename;
#X obj 27 55 t f f f;
#X obj 49 95 -;
#X obj 49 115 sel 0;
#X msg 49 145 set %d;
#X obj 71 75 int;
#X obj 103 145 makefilename %%d.%d;
#X obj 104 125 * 10.001;
#X connect 0 0 4 0;
#X connect 2 0 3 0;
#X connect 3 0 1 0;
#X connect 4 0 3 0;
#X connect 4 1 5 0;
#X connect 4 2 8 0;
#X connect 5 0 6 0;
#X connect 6 0 7 0;
#X connect 6 1 10 0;
#X connect 7 0 3 0;
#X connect 8 0 5 1;
#X connect 9 0 2 0;
#X connect 10 0 9 0;
#X restore 553 111 pd f2s;
#X msg 255 21 version 0.3.5;
#X connect 0 0 35 0;
#X connect 1 0 6 0;
#X connect 2 0 5 0;
#X connect 3 0 1 0;
#X connect 4 0 2 0;
#X connect 7 0 6 0;
#X connect 7 0 5 0;
#X connect 8 0 36 0;
#X connect 10 0 27 0;
#X connect 11 0 22 0;
#X connect 11 2 34 0;
#X connect 12 0 28 0;
#X connect 12 2 0 0;
#X connect 13 0 29 0;
#X connect 13 2 8 0;
#X connect 14 0 30 0;
#X connect 15 0 32 0;
#X connect 16 0 31 0;
#X connect 17 0 33 0;
#X connect 18 0 26 0;
#X connect 19 0 25 0;
#X connect 20 0 24 0;
#X connect 21 0 23 0;
#X connect 22 0 7 0;
#X connect 23 0 7 0;
#X connect 24 0 7 0;
#X connect 25 0 7 0;
#X connect 26 0 7 0;
#X connect 27 0 7 0;
#X connect 28 0 7 0;
#X connect 29 0 7 0;
#X connect 30 0 7 0;
#X connect 31 0 7 0;
#X connect 32 0 7 0;
#X connect 33 0 7 0;
#X connect 34 0 11 1;
#X connect 35 0 12 1;
#X connect 36 0 13 1;
