#N canvas 87 259 426 331 10;
#X obj 52 265 r~ 1-nothing;
#X obj 203 265 r~ 1-nothing;
#X obj 52 245 r \$1-\$2L-r;
#X obj 205 245 r \$1-\$2R-r;
#X obj 205 285 s~ \$1-\$2R;
#X obj 52 285 s~ \$1-\$2L;
#N canvas 572 208 672 564 hihats 0;
#X obj 22 126 *~;
#X obj 22 26 loadbang;
#X obj 180 378 loadbang;
#X obj 38 276 line~;
#X obj 22 316 *~;
#X obj 38 296 dbtorms~;
#X obj 22 336 hip~;
#X obj 22 356 hip~;
#X obj 38 236 pack;
#X obj 38 176 *;
#X obj 38 216 rmstodb;
#X msg 38 256 \$1 \, 0 \$2;
#X obj 22 446 *~;
#X obj 91 447 *~;
#X obj 242 378 table \$0-tab24 259;
#X obj 180 398 f \$0;
#X msg 180 418 \; \$1-tab24 sinesum 256 1 1 1 1 0 0 0 0 1 0 0 0 0 0
0 1 0 0 0 0 0 0 1 0 0 0 0 0 0 1 0 0 0 0 1 0 0 0 0 0 1 0 0 0 0 1 \,
normalize 1;
#X obj 38 86 f 30000;
#X obj 22 46 f 19572;
#X obj 22 66 tabosc4~ \$0-tab24;
#X obj 38 106 tabosc4~ \$0-tab24;
#X obj 91 477 outlet~;
#X obj 22 476 outlet~;
#X obj 248 71 mtof;
#X obj 296 91 *;
#X msg 296 71 \$1 \$1;
#X obj 296 111 + 50;
#X obj 208 243 switch~;
#X obj 238 183 f;
#X obj 238 203 del;
#X msg 238 223 0;
#X msg 208 223 1;
#X msg 38 156 \$1 \$1;
#X obj 38 196 * 0.0001;
#X obj 201 71 t f b;
#X obj 254 163 + 2;
#X obj 38 386 cos;
#X obj 107 387 sin;
#X obj 107 357 * 0.015708;
#X obj 107 427 line~;
#X obj 38 426 line~;
#X msg 38 406 \$1 10;
#X msg 107 407 \$1 10;
#X obj 360 72 + 50;
#X obj 201 31 inlet;
#X obj 201 51 route level crash decay pan;
#X connect 0 0 4 0;
#X connect 1 0 17 0;
#X connect 1 0 18 0;
#X connect 2 0 15 0;
#X connect 3 0 5 0;
#X connect 4 0 6 0;
#X connect 5 0 4 1;
#X connect 6 0 7 0;
#X connect 7 0 12 0;
#X connect 7 0 13 0;
#X connect 8 0 11 0;
#X connect 9 0 33 0;
#X connect 10 0 8 0;
#X connect 11 0 3 0;
#X connect 12 0 22 0;
#X connect 13 0 21 0;
#X connect 15 0 16 0;
#X connect 17 0 20 0;
#X connect 18 0 19 0;
#X connect 19 0 0 0;
#X connect 20 0 0 1;
#X connect 23 0 7 1;
#X connect 23 0 6 1;
#X connect 24 0 26 0;
#X connect 25 0 24 0;
#X connect 26 0 8 1;
#X connect 26 0 35 0;
#X connect 28 0 29 0;
#X connect 28 0 31 0;
#X connect 29 0 30 0;
#X connect 30 0 27 0;
#X connect 31 0 27 0;
#X connect 32 0 9 0;
#X connect 33 0 10 0;
#X connect 34 0 32 0;
#X connect 34 1 28 0;
#X connect 35 0 28 1;
#X connect 36 0 41 0;
#X connect 37 0 42 0;
#X connect 38 0 37 0;
#X connect 38 0 36 0;
#X connect 39 0 13 1;
#X connect 40 0 12 1;
#X connect 41 0 40 0;
#X connect 42 0 39 0;
#X connect 43 0 38 0;
#X connect 44 0 45 0;
#X connect 45 0 34 0;
#X connect 45 1 23 0;
#X connect 45 2 25 0;
#X connect 45 3 43 0;
#X restore 108 225 pd hihats;
#X obj 267 101 * 2;
#X msg 28 81 level \$1;
#X msg 28 121 pan \$1;
#X msg 28 161 crash \$1;
#X msg 28 201 decay \$1;
#X obj 28 21 mmm-module \$1 \$2 delta-hihat 4;
#X obj 28 141 mmm-ctrl \$1 \$2 3 crash 57 127 57 int;
#X obj 28 181 mmm-ctrl \$1 \$2 4 decay 0 71 36 int;
#X msg 294 21 version 0.3.5;
#X obj 28 61 mmm-ctrl \$1 \$2 1 level 0 100 -1 int;
#X obj 28 101 mmm-ctrl \$1 \$2 2 pan -50 50 0 ext;
#X connect 0 0 5 0;
#X connect 1 0 4 0;
#X connect 2 0 0 0;
#X connect 3 0 1 0;
#X connect 6 0 5 0;
#X connect 6 1 4 0;
#X connect 7 0 17 1;
#X connect 8 0 6 0;
#X connect 9 0 6 0;
#X connect 10 0 6 0;
#X connect 11 0 6 0;
#X connect 13 0 10 0;
#X connect 14 0 11 0;
#X connect 16 0 8 0;
#X connect 17 0 9 0;
#X connect 17 2 7 0;
