#N canvas 0 22 369 244 10;
#X obj 28 191 r~ 1-nothing;
#X obj 181 191 r~ 1-nothing;
#X obj 28 171 r \$1-\$2L-r;
#X obj 181 171 r \$1-\$2R-r;
#X obj 181 210 s~ \$1-\$2R;
#X obj 28 210 s~ \$1-\$2L;
#N canvas 0 22 269 308 clap 0;
#X obj 16 232 outlet~;
#X obj 42 122 sel 0 1;
#X obj 43 102 == 0;
#X obj 16 102 f 1;
#X obj 16 82 t b f;
#X obj 16 152 f;
#X obj 78 152 f;
#N canvas 127 199 805 617 voice 0;
#X obj 315 306 vline~;
#X obj 315 326 dbtorms~;
#X obj 30 290 noise~;
#X obj 31 409 *~;
#X obj 181 175 t b b;
#X obj 102 175 t b b;
#X obj 102 155 del 30;
#X obj 102 5 *;
#X obj 315 248 rmstodb;
#X msg 315 268 \$1 \, 0 34 \, \$1 0.5 10.5 \, 0 34 11 \, \$1 0 23 \,
0 34 23 \, \$1 0 31 \, 0 34 31 \, \$1 0 36 \, 0 230 36.5 \, 0 500 65
\, 0 2000 120;
#X obj 31 449 outlet~;
#X obj 30 320 bp2~ 600 1 3000;
#X obj 31 429 hip~ 500;
#X obj 44 350 bp2~ 2000 1 3000;
#X obj 315 198 * 1.618;
#X obj 315 168 * 1.2;
#X obj 315 218 * 1.618;
#X obj 248 133 switch~;
#X msg 248 102 0;
#X msg 212 103 1;
#X obj 102 -65 inlet;
#X msg 102 -15 \$1 \$1;
#X obj 102 35 t b b f b b;
#X msg 248 62 stop \, bang;
#X obj 221 205 f 0;
#X obj 181 205 f 0.7;
#X obj 142 205 f 50;
#X obj 102 205 f 1.5;
#X obj 248 82 del 2200;
#X obj 102 -35 * 0.01;
#X obj 315 138 mtof;
#X obj 242 -45 inlet;
#X connect 0 0 1 0;
#X connect 1 0 3 1;
#X connect 2 0 11 0;
#X connect 3 0 12 0;
#X connect 4 0 25 0;
#X connect 4 1 24 0;
#X connect 5 0 27 0;
#X connect 5 1 26 0;
#X connect 6 0 5 0;
#X connect 7 0 22 0;
#X connect 8 0 9 0;
#X connect 9 0 0 0;
#X connect 11 0 3 0;
#X connect 11 0 13 0;
#X connect 12 0 10 0;
#X connect 13 0 3 0;
#X connect 14 0 16 0;
#X connect 15 0 11 1;
#X connect 15 0 14 0;
#X connect 16 0 13 1;
#X connect 18 0 17 0;
#X connect 19 0 17 0;
#X connect 20 0 29 0;
#X connect 21 0 7 0;
#X connect 22 0 6 0;
#X connect 22 1 4 0;
#X connect 22 2 8 0;
#X connect 22 3 19 0;
#X connect 22 4 23 0;
#X connect 23 0 28 0;
#X connect 24 0 11 3;
#X connect 24 0 13 3;
#X connect 25 0 11 2;
#X connect 25 0 13 2;
#X connect 26 0 11 3;
#X connect 26 0 13 3;
#X connect 27 0 11 2;
#X connect 27 0 13 2;
#X connect 28 0 18 0;
#X connect 29 0 21 0;
#X connect 30 0 15 0;
#X connect 30 0 12 1;
#X connect 31 0 30 0;
#X restore 16 172 pd voice;
#X obj 15 22 inlet;
#X obj 16 52 route level c-tune;
#N canvas 127 199 801 613 voice 0;
#X obj 315 306 vline~;
#X obj 315 326 dbtorms~;
#X obj 30 290 noise~;
#X obj 31 409 *~;
#X obj 181 175 t b b;
#X obj 102 175 t b b;
#X obj 102 155 del 30;
#X obj 102 5 *;
#X obj 315 248 rmstodb;
#X msg 315 268 \$1 \, 0 34 \, \$1 0.5 10.5 \, 0 34 11 \, \$1 0 23 \,
0 34 23 \, \$1 0 31 \, 0 34 31 \, \$1 0 36 \, 0 230 36.5 \, 0 500 65
\, 0 2000 120;
#X obj 31 449 outlet~;
#X obj 30 320 bp2~ 600 1 3000;
#X obj 31 429 hip~ 500;
#X obj 44 350 bp2~ 2000 1 3000;
#X obj 315 198 * 1.618;
#X obj 315 168 * 1.2;
#X obj 315 218 * 1.618;
#X obj 248 133 switch~;
#X msg 248 102 0;
#X msg 212 103 1;
#X obj 102 -65 inlet;
#X msg 102 -15 \$1 \$1;
#X obj 102 35 t b b f b b;
#X msg 248 62 stop \, bang;
#X obj 221 205 f 0;
#X obj 181 205 f 0.7;
#X obj 142 205 f 50;
#X obj 102 205 f 1.5;
#X obj 248 82 del 2200;
#X obj 102 -35 * 0.01;
#X obj 315 138 mtof;
#X obj 242 -45 inlet;
#X connect 0 0 1 0;
#X connect 1 0 3 1;
#X connect 2 0 11 0;
#X connect 3 0 12 0;
#X connect 4 0 25 0;
#X connect 4 1 24 0;
#X connect 5 0 27 0;
#X connect 5 1 26 0;
#X connect 6 0 5 0;
#X connect 7 0 22 0;
#X connect 8 0 9 0;
#X connect 9 0 0 0;
#X connect 11 0 3 0;
#X connect 11 0 13 0;
#X connect 12 0 10 0;
#X connect 13 0 3 0;
#X connect 14 0 16 0;
#X connect 15 0 11 1;
#X connect 15 0 14 0;
#X connect 16 0 13 1;
#X connect 18 0 17 0;
#X connect 19 0 17 0;
#X connect 20 0 29 0;
#X connect 21 0 7 0;
#X connect 22 0 6 0;
#X connect 22 1 4 0;
#X connect 22 2 8 0;
#X connect 22 3 19 0;
#X connect 22 4 23 0;
#X connect 23 0 28 0;
#X connect 24 0 11 3;
#X connect 24 0 13 3;
#X connect 25 0 11 2;
#X connect 25 0 13 2;
#X connect 26 0 11 3;
#X connect 26 0 13 3;
#X connect 27 0 11 2;
#X connect 27 0 13 2;
#X connect 28 0 18 0;
#X connect 29 0 21 0;
#X connect 30 0 15 0;
#X connect 30 0 12 1;
#X connect 31 0 30 0;
#X restore 78 172 pd voice;
#X connect 1 0 5 0;
#X connect 1 1 6 0;
#X connect 2 0 3 1;
#X connect 2 0 1 0;
#X connect 3 0 2 0;
#X connect 4 0 3 0;
#X connect 4 1 5 1;
#X connect 4 1 6 1;
#X connect 5 0 7 0;
#X connect 6 0 10 0;
#X connect 7 0 0 0;
#X connect 8 0 9 0;
#X connect 9 0 4 0;
#X connect 9 1 7 1;
#X connect 9 1 10 1;
#X connect 10 0 0 0;
#X restore 95 141 pd clap;
#X obj 28 91 mmm-ctrl \$1 \$2 2 c-tune 55 96 83 int;
#X obj 28 21 mmm-module \$1 \$2 dclap 2;
#X obj 28 51 mmm-ctrl \$1 \$2 1 level 0 100 0 int;
#X msg 28 71 level \$1;
#X msg 28 111 c-tune \$1;
#X msg 254 21 version 0.3.2;
#X connect 0 0 5 0;
#X connect 1 0 4 0;
#X connect 2 0 0 0;
#X connect 3 0 1 0;
#X connect 6 0 4 0;
#X connect 6 0 5 0;
#X connect 7 0 11 0;
#X connect 9 0 10 0;
#X connect 10 0 6 0;
#X connect 11 0 6 0;
