#N canvas 184 223 772 478 10;
#X obj 473 41 r~ 1-nothing;
#X obj 626 41 r~ 1-nothing;
#X obj 473 21 r \$1-\$2L-r;
#X obj 626 21 r \$1-\$2R-r;
#X obj 626 140 s~ \$1-\$2R;
#X obj 473 140 s~ \$1-\$2L;
#N canvas 585 210 557 611 kick 0;
#X obj 102 369 osc~;
#X obj 102 329 line~;
#X obj 70 228 f;
#X obj 139 229 f;
#X obj 91 253 pack;
#X obj 102 349 mtof~;
#X obj 102 409 *~;
#X obj 239 376 lop~;
#X obj 102 479 lop~;
#X obj 102 509 *~;
#X obj 21 453 *;
#X obj 202 324 /;
#X obj 262 209 f;
#X msg 262 229 1 \, 0 \$1;
#X obj 262 249 line~;
#X obj 289 269 *~ 100;
#X obj 289 289 dbtorms~;
#X obj 262 341 *~;
#X obj 289 340 *~;
#X obj 372 277 * -1;
#X obj 372 297 + 1;
#X obj 102 529 outlet~;
#X obj 102 449 clip~ -1 1;
#X obj 29 27 r \$3;
#X obj 228 79 * 2;
#X obj 372 257 * 0.01;
#X obj 471 390 mtof;
#X obj 410 162 del;
#X obj 410 182 f 0;
#X obj 440 182 f 1;
#X obj 102 429 *~ 1;
#X obj 410 212 switch~;
#X obj 410 122 t b b;
#X obj 28 139 t a b b b b;
#X obj 364 374 * 0.1;
#X obj 364 394 + 1;
#X msg 202 304 1000 \$1;
#X obj 21 473 / 10000;
#X obj 29 47 route kick freq-A freq-B time attack decay log>lin distortion
lowpass;
#X msg 21 433 \$1 \$1;
#X obj 426 142 + 2;
#X connect 0 0 6 0;
#X connect 1 0 5 0;
#X connect 2 0 4 0;
#X connect 3 0 1 0;
#X connect 4 0 1 0;
#X connect 5 0 0 0;
#X connect 6 0 30 0;
#X connect 7 0 6 1;
#X connect 8 0 9 0;
#X connect 9 0 21 0;
#X connect 10 0 37 0;
#X connect 11 0 7 1;
#X connect 12 0 13 0;
#X connect 13 0 14 0;
#X connect 14 0 15 0;
#X connect 14 0 17 0;
#X connect 15 0 16 0;
#X connect 16 0 18 0;
#X connect 17 0 7 0;
#X connect 18 0 7 0;
#X connect 19 0 20 0;
#X connect 20 0 18 1;
#X connect 22 0 8 0;
#X connect 23 0 38 0;
#X connect 24 0 12 1;
#X connect 24 0 40 0;
#X connect 25 0 17 1;
#X connect 25 0 19 0;
#X connect 26 0 8 1;
#X connect 27 0 28 0;
#X connect 28 0 31 0;
#X connect 29 0 31 0;
#X connect 30 0 22 0;
#X connect 32 0 27 0;
#X connect 32 1 29 0;
#X connect 33 0 39 0;
#X connect 33 1 2 0;
#X connect 33 2 3 0;
#X connect 33 3 12 0;
#X connect 33 4 32 0;
#X connect 34 0 35 0;
#X connect 35 0 30 1;
#X connect 36 0 11 0;
#X connect 37 0 9 1;
#X connect 38 0 33 0;
#X connect 38 1 3 1;
#X connect 38 2 2 1;
#X connect 38 3 4 1;
#X connect 38 4 36 0;
#X connect 38 5 24 0;
#X connect 38 6 25 0;
#X connect 38 7 34 0;
#X connect 38 8 26 0;
#X connect 39 0 10 0;
#X connect 40 0 27 1;
#X restore 490 71 pd kick;
#X obj 28 211 mmm-ctrl \$1 \$2 9 lowpass 0 127 127 int;
#X obj 28 71 mmm-ctrl \$1 \$2 2 freq-A 0 127 72 int;
#X obj 28 91 mmm-ctrl \$1 \$2 3 freq-B 0 127 31 int;
#X obj 28 131 mmm-ctrl \$1 \$2 5 attack 0 100 1 int;
#X obj 307 151 makefilename %d;
#X obj 418 151 * 2;
#X obj 28 151 mmm-ctrl \$1 \$2 6 decay 5 500 334 ext;
#X obj 28 111 mmm-ctrl \$1 \$2 4 time 0 100 20 int;
#X obj 28 191 mmm-ctrl \$1 \$2 8 distortion 0 50 0 int;
#N canvas 431 82 562 592 snare 0;
#X obj 34 269 line~;
#X obj 34 289 dbtorms~;
#X obj 362 144 noise~;
#X obj 240 335 line~;
#X obj 240 355 dbtorms~;
#X obj 224 375 *~;
#X obj 382 336 line~;
#X obj 382 356 dbtorms~;
#X obj 366 376 *~;
#X obj 121 293 line~;
#X obj 121 313 dbtorms~;
#X obj 105 333 *~;
#X obj 105 179 * 0.560606;
#X obj 137 233 * 0.5;
#X obj 202 456 *~;
#X obj 398 276 * 0.4;
#X obj 256 275 * 0.2;
#X obj 33 229 f;
#X obj 18 209 osc~;
#X obj 105 213 osc~;
#X obj 121 253 f;
#X obj 362 164 lop~;
#X obj 362 184 lop~;
#X obj 240 295 f;
#X obj 362 204 hip~;
#X obj 362 224 hip~;
#X obj 382 296 f;
#X obj 410 143 exp;
#X obj 410 123 min 10;
#X obj 469 123 max 10;
#X obj 469 143 - 9;
#X obj 469 163 * 4;
#X obj 469 183 exp;
#X obj 410 83 + 6;
#X obj 193 293 -;
#X obj 105 363 *~;
#X obj 224 426 *~;
#X obj 193 313 min 1;
#X obj 241 405 min 1;
#X obj 358 434 * 2;
#X obj 202 514 *~;
#X obj 342 514 *~;
#X obj 218 494 min 1;
#X obj 358 494 min 1;
#X obj 227 193 switch~;
#X obj 358 474 -;
#X obj 18 309 *~;
#X obj 110 70 b;
#X msg 240 315 94 \, 0 \$1;
#X msg 121 273 100 \, 0 \$1;
#X msg 34 249 80 \, 0 \$1;
#X msg 193 273 2 \$1;
#X msg 358 454 2 \$1;
#X obj 202 534 outlet~;
#X obj 342 534 outlet~;
#X obj 13 5 r \$3;
#X obj 13 25 route snare tune knack fell>kette release panorama;
#X obj 13 45 * 0.005;
#X obj 70 45 mtof;
#X obj 128 45 * 0.1;
#X obj 185 45 * 0.02;
#X obj 257 133 f;
#X obj 257 153 del;
#X msg 257 173 0;
#X msg 227 173 1;
#X obj 243 45 * 10;
#X obj 300 45 * 0.01;
#X msg 382 316 94 \, 0 \$1;
#X obj 64 182 f 0.25;
#X obj 273 113 + 2;
#X connect 0 0 1 0;
#X connect 1 0 46 1;
#X connect 2 0 21 0;
#X connect 3 0 4 0;
#X connect 4 0 5 1;
#X connect 5 0 36 0;
#X connect 6 0 7 0;
#X connect 7 0 8 1;
#X connect 8 0 36 0;
#X connect 9 0 10 0;
#X connect 10 0 11 1;
#X connect 11 0 35 0;
#X connect 12 0 19 0;
#X connect 13 0 20 1;
#X connect 14 0 40 0;
#X connect 14 0 41 0;
#X connect 15 0 26 1;
#X connect 16 0 23 1;
#X connect 17 0 50 0;
#X connect 18 0 46 0;
#X connect 19 0 11 0;
#X connect 20 0 49 0;
#X connect 21 0 22 0;
#X connect 22 0 5 0;
#X connect 22 0 24 0;
#X connect 23 0 48 0;
#X connect 24 0 25 0;
#X connect 25 0 8 0;
#X connect 26 0 67 0;
#X connect 27 0 22 1;
#X connect 27 0 21 1;
#X connect 28 0 27 0;
#X connect 29 0 30 0;
#X connect 30 0 31 0;
#X connect 31 0 32 0;
#X connect 32 0 24 1;
#X connect 32 0 25 1;
#X connect 33 0 28 0;
#X connect 33 0 29 0;
#X connect 34 0 37 0;
#X connect 35 0 14 0;
#X connect 36 0 14 0;
#X connect 37 0 35 1;
#X connect 38 0 36 1;
#X connect 39 0 42 0;
#X connect 39 0 52 0;
#X connect 40 0 53 0;
#X connect 41 0 54 0;
#X connect 42 0 40 1;
#X connect 43 0 41 1;
#X connect 45 0 43 0;
#X connect 46 0 35 0;
#X connect 47 0 26 0;
#X connect 47 0 23 0;
#X connect 47 0 20 0;
#X connect 47 0 17 0;
#X connect 47 0 61 0;
#X connect 47 0 68 0;
#X connect 48 0 3 0;
#X connect 49 0 9 0;
#X connect 50 0 0 0;
#X connect 51 0 34 0;
#X connect 52 0 45 0;
#X connect 55 0 56 0;
#X connect 56 0 57 0;
#X connect 56 0 47 0;
#X connect 56 1 58 0;
#X connect 56 2 59 0;
#X connect 56 3 60 0;
#X connect 56 4 65 0;
#X connect 56 5 66 0;
#X connect 57 0 14 1;
#X connect 58 0 12 0;
#X connect 58 0 18 0;
#X connect 59 0 33 0;
#X connect 60 0 51 0;
#X connect 60 0 38 0;
#X connect 61 0 62 0;
#X connect 61 0 64 0;
#X connect 62 0 63 0;
#X connect 63 0 44 0;
#X connect 64 0 44 0;
#X connect 65 0 17 1;
#X connect 65 0 13 0;
#X connect 65 0 16 0;
#X connect 65 0 15 0;
#X connect 65 0 69 0;
#X connect 66 0 39 0;
#X connect 67 0 6 0;
#X connect 68 0 18 1;
#X connect 68 0 19 1;
#X connect 69 0 61 1;
#X restore 546 71 pd snare;
#X obj 28 51 mmm-ctrl \$1 \$2 1 kick 0 100 0 int;
#X obj 348 281 * 0.1;
#X obj 431 321 * 10;
#X obj 321 321 makefilename %d;
#X obj 28 171 mmm-ctrl \$1 \$2 7 log>lin 0 100 0 int;
#N canvas 26 22 640 509 hihats 0;
#X obj 22 126 *~;
#X obj 22 26 loadbang;
#X obj 180 378 loadbang;
#X obj 38 276 line~;
#X obj 22 316 *~;
#X obj 38 296 dbtorms~;
#X obj 22 336 hip~;
#X obj 22 356 hip~;
#X obj 38 236 pack;
#X obj 38 176 *;
#X obj 38 216 rmstodb;
#X msg 38 256 \$1 \, 0 \$2;
#X obj 107 384 -;
#X obj 22 423 *~;
#X obj 91 424 *~;
#X obj 38 403 min 1;
#X obj 107 404 min 1;
#X obj 242 378 table \$0-tab24 259;
#X obj 180 398 f \$0;
#X msg 180 418 \; \$1-tab24 sinesum 256 1 1 1 1 0 0 0 0 1 0 0 0 0 0
0 1 0 0 0 0 0 0 1 0 0 0 0 0 0 1 0 0 0 0 1 0 0 0 0 0 1 0 0 0 0 1 \,
normalize 1;
#X obj 38 86 f 30000;
#X obj 22 46 f 19572;
#X obj 22 66 tabosc4~ \$0-tab24;
#X obj 38 106 tabosc4~ \$0-tab24;
#X msg 107 364 2 \$1;
#X obj 91 454 outlet~;
#X obj 22 453 outlet~;
#X obj 304 72 r \$3;
#X obj 351 112 mtof;
#X obj 399 132 *;
#X msg 399 112 \$1 \$1;
#X obj 399 152 + 50;
#X obj 304 92 route hihat crash length pan;
#X obj 107 344 * 0.02;
#X obj 311 284 switch~;
#X obj 341 224 f;
#X obj 341 244 del;
#X msg 341 264 0;
#X msg 311 264 1;
#X msg 38 156 \$1 \$1;
#X obj 38 196 * 0.0001;
#X obj 304 112 t f b;
#X obj 357 204 + 2;
#X connect 0 0 4 0;
#X connect 1 0 20 0;
#X connect 1 0 21 0;
#X connect 2 0 18 0;
#X connect 3 0 5 0;
#X connect 4 0 6 0;
#X connect 5 0 4 1;
#X connect 6 0 7 0;
#X connect 7 0 13 0;
#X connect 7 0 14 0;
#X connect 8 0 11 0;
#X connect 9 0 40 0;
#X connect 10 0 8 0;
#X connect 11 0 3 0;
#X connect 12 0 16 0;
#X connect 13 0 26 0;
#X connect 14 0 25 0;
#X connect 15 0 13 1;
#X connect 16 0 14 1;
#X connect 18 0 19 0;
#X connect 20 0 23 0;
#X connect 21 0 22 0;
#X connect 22 0 0 0;
#X connect 23 0 0 1;
#X connect 24 0 12 0;
#X connect 27 0 32 0;
#X connect 28 0 7 1;
#X connect 28 0 6 1;
#X connect 29 0 31 0;
#X connect 30 0 29 0;
#X connect 31 0 8 1;
#X connect 31 0 42 0;
#X connect 32 0 41 0;
#X connect 32 1 28 0;
#X connect 32 2 30 0;
#X connect 32 3 33 0;
#X connect 33 0 15 0;
#X connect 33 0 24 0;
#X connect 35 0 36 0;
#X connect 35 0 38 0;
#X connect 36 0 37 0;
#X connect 37 0 34 0;
#X connect 38 0 34 0;
#X connect 39 0 9 0;
#X connect 40 0 10 0;
#X connect 41 0 39 0;
#X connect 41 1 35 0;
#X connect 42 0 35 1;
#X restore 608 71 pd hihats;
#X obj 506 355 *;
#X msg 506 335 \$1 \$1;
#X obj 506 375 + 50;
#X obj 506 395 makefilename %d;
#X obj 308 261 makefilename %d;
#X obj 419 261 mtof;
#X obj 314 391 makefilename %d;
#X obj 425 391 mtof;
#X text 469 171 port of romans drum-delta.pd;
#X obj 28 241 mmm-ctrl \$1 \$2 11 snare 0 100 100 int;
#X obj 28 261 mmm-ctrl \$1 \$2 12 tune 57 103 72 ext;
#X obj 28 281 mmm-ctrl \$1 \$2 13 knack 0 55 24 ext;
#X obj 28 301 mmm-ctrl \$1 \$2 14 fell>kette 0 100 69 int;
#X obj 28 321 mmm-ctrl \$1 \$2 15 release 1 200 61 ext;
#X obj 28 341 mmm-ctrl \$1 \$2 16 panorama 0 100 49 int;
#X obj 28 371 mmm-ctrl \$1 \$2 18 hihat 0 100 0 int;
#X obj 28 391 mmm-ctrl \$1 \$2 19 crash 57 127 57 ext;
#X obj 28 411 mmm-ctrl \$1 \$2 20 length 0 71 9 ext;
#X obj 28 431 mmm-ctrl \$1 \$2 21 pan 0 100 45 int;
#X obj 28 21 mmm-module \$1 \$2 drum-delta 21;
#N canvas 514 142 311 291 f2s 0;
#X obj 27 25 inlet;
#X obj 27 225 outlet;
#X msg 103 165 set \$1;
#X obj 27 195 makefilename;
#X obj 27 55 t f f f;
#X obj 49 95 -;
#X obj 49 115 sel 0;
#X msg 49 145 set %d;
#X obj 71 75 int;
#X obj 104 125 * 10.001;
#X obj 103 145 makefilename %%d.%d;
#X connect 0 0 4 0;
#X connect 2 0 3 0;
#X connect 3 0 1 0;
#X connect 4 0 3 0;
#X connect 4 1 5 0;
#X connect 4 2 8 0;
#X connect 5 0 6 0;
#X connect 6 0 7 0;
#X connect 6 1 9 0;
#X connect 7 0 3 0;
#X connect 8 0 5 1;
#X connect 9 0 10 0;
#X connect 10 0 2 0;
#X restore 300 281 pd f2s;
#X msg 294 21 version 0.1.7;
#X connect 0 0 5 0;
#X connect 1 0 4 0;
#X connect 2 0 0 0;
#X connect 3 0 1 0;
#X connect 6 0 4 0;
#X connect 6 0 5 0;
#X connect 11 0 13 1;
#X connect 12 0 11 0;
#X connect 13 2 12 0;
#X connect 16 0 5 0;
#X connect 16 1 4 0;
#X connect 18 0 43 0;
#X connect 19 0 20 0;
#X connect 20 0 36 1;
#X connect 22 0 5 0;
#X connect 22 1 4 0;
#X connect 23 0 25 0;
#X connect 24 0 23 0;
#X connect 25 0 26 0;
#X connect 26 0 40 1;
#X connect 27 0 33 1;
#X connect 28 0 27 0;
#X connect 29 0 39 1;
#X connect 30 0 29 0;
#X connect 33 2 28 0;
#X connect 34 2 18 0;
#X connect 36 2 19 0;
#X connect 39 2 30 0;
#X connect 40 2 24 0;
#X connect 43 0 34 1;
