#N canvas 46 195 496 264 10;
#N canvas 0 22 454 304 onoff 0;
#X obj 99 275 outlet;
#X obj 99 10 inlet;
#X obj 99 35 sel 0 1;
#X msg 98 76 off;
#X msg 115 97 on;
#X obj 110 159 symbol;
#X connect 1 0 2 0;
#X connect 2 0 3 0;
#X connect 2 1 4 0;
#X connect 3 0 5 0;
#X connect 4 0 5 0;
#X connect 5 0 0 0;
#X restore 394 150 pd onoff;
#N canvas 117 33 782 670 dsp-guts 0;
#X obj 61 147 clip~ -1 1;
#X obj 651 188 * -1;
#X obj 651 148 * 0.99;
#X obj 651 168 + 0.01;
#X obj 64 591 lop~;
#X obj 48 228 -~;
#X obj 98 262 *~;
#X obj 98 289 clip~ -1 1;
#X obj 85 316 -~;
#X obj 29 400 -~;
#X obj 291 472 != 1;
#X obj 242 144 clip~ -1 1;
#X obj 245 588 lop~;
#X obj 229 225 -~;
#X obj 279 259 *~;
#X obj 279 286 clip~ -1 1;
#X obj 266 313 -~;
#X obj 204 379 -~;
#X obj 226 520 *~ 0;
#X obj 267 525 *~ 0;
#X obj 41 524 *~ 0;
#X obj 75 528 *~ 0;
#X obj 245 442 *~ 0;
#X obj 209 443 *~ 0;
#X obj 81 440 *~ 0;
#X obj 25 442 *~ 0;
#X obj 229 119 *~ 0;
#X obj 48 122 *~ 0;
#X obj 651 128 * 0.01;
#X obj 48 52 r~ 1-nothing;
#X obj 229 49 r~ 1-nothing;
#X obj 246 88 * 0.08;
#X obj 48 32 r \$1-\$2L-r;
#X obj 229 29 r \$1-\$2R-r;
#X obj 245 608 s~ \$1-\$2R;
#X obj 64 611 s~ \$1-\$2L;
#X obj 389 14 inlet;
#X obj 358 435 + 0;
#X obj 389 44 route pregain fuzz postgain negative lowpass clip;
#X obj 336 214 * 0.1;
#X obj 308 391 * 0.04;
#X obj 508 505 mtof;
#X obj 508 465 * 1;
#X connect 0 0 5 1;
#X connect 0 0 8 0;
#X connect 1 0 0 1;
#X connect 1 0 7 1;
#X connect 1 0 11 1;
#X connect 1 0 15 1;
#X connect 2 0 3 0;
#X connect 3 0 1 0;
#X connect 3 0 0 2;
#X connect 3 0 7 2;
#X connect 3 0 11 2;
#X connect 3 0 15 2;
#X connect 4 0 35 0;
#X connect 5 0 6 0;
#X connect 6 0 7 0;
#X connect 7 0 8 1;
#X connect 8 0 9 1;
#X connect 8 0 24 0;
#X connect 9 0 25 0;
#X connect 10 0 21 1;
#X connect 10 0 19 1;
#X connect 11 0 13 1;
#X connect 11 0 16 0;
#X connect 12 0 34 0;
#X connect 13 0 14 0;
#X connect 14 0 15 0;
#X connect 15 0 16 1;
#X connect 16 0 17 1;
#X connect 16 0 22 0;
#X connect 17 0 23 0;
#X connect 18 0 12 0;
#X connect 19 0 12 0;
#X connect 20 0 4 0;
#X connect 21 0 4 0;
#X connect 22 0 19 0;
#X connect 23 0 18 0;
#X connect 24 0 21 0;
#X connect 25 0 20 0;
#X connect 26 0 11 0;
#X connect 26 0 13 0;
#X connect 26 0 17 0;
#X connect 27 0 0 0;
#X connect 27 0 5 0;
#X connect 27 0 9 0;
#X connect 28 0 2 0;
#X connect 29 0 27 0;
#X connect 30 0 26 0;
#X connect 31 0 26 1;
#X connect 31 0 27 1;
#X connect 32 0 29 0;
#X connect 33 0 30 0;
#X connect 36 0 38 0;
#X connect 37 0 10 0;
#X connect 37 0 18 1;
#X connect 37 0 20 1;
#X connect 38 0 31 0;
#X connect 38 1 39 0;
#X connect 38 2 40 0;
#X connect 38 3 37 0;
#X connect 38 4 42 0;
#X connect 38 5 28 0;
#X connect 39 0 6 1;
#X connect 39 0 14 1;
#X connect 40 0 22 1;
#X connect 40 0 23 1;
#X connect 40 0 24 1;
#X connect 40 0 25 1;
#X connect 41 0 4 1;
#X connect 41 0 12 1;
#X connect 42 0 41 0;
#X restore 20 201 pd dsp-guts;
#X text 17 226 port of bo[t/n](2)'s distort;
#X obj 27 20 mmm-module \$1 \$2 distort 6;
#X obj 137 50 mmm-ctrl \$1 \$2 1 pregain 0 100 25 int;
#X obj 137 70 mmm-ctrl \$1 \$2 2 clip 0 100 30 int;
#X obj 137 90 mmm-ctrl \$1 \$2 3 postgain 0 100 40 int;
#X obj 137 130 mmm-ctrl \$1 \$2 5 fuzz 0 100 10 int;
#X obj 137 150 mmm-ctrl \$1 \$2 6 negative 0 1 0 ext;
#X msg 52 70 pregain \$1;
#X msg 52 90 clip \$1;
#X msg 52 110 postgain \$1;
#X msg 52 130 lowpass \$1;
#X msg 52 150 fuzz \$1;
#X msg 52 170 negative \$1;
#X obj 137 110 mmm-ctrl \$1 \$2 4 lowpass 0 100 127 int;
#X msg 340 21 version 0.3.4;
#X connect 0 0 8 1;
#X connect 4 0 9 0;
#X connect 5 0 10 0;
#X connect 6 0 11 0;
#X connect 7 0 13 0;
#X connect 8 0 14 0;
#X connect 8 2 0 0;
#X connect 9 0 1 0;
#X connect 10 0 1 0;
#X connect 11 0 1 0;
#X connect 12 0 1 0;
#X connect 13 0 1 0;
#X connect 14 0 1 0;
#X connect 15 0 12 0;
