#N canvas 688 254 234 147 10;
#X obj 19 70 r~ 1-nothing;
#X obj 119 70 r~ 1-nothing;
#X obj 19 50 r \$1-\$2L-r;
#X obj 119 50 r \$1-\$2R-r;
#X obj 19 110 s~ \$1-\$2L;
#X obj 119 110 s~ \$1-\$2R;
#X msg 19 20 version 0.3.0;
#X connect 0 0 4 0;
#X connect 1 0 5 0;
#X connect 2 0 0 0;
#X connect 3 0 1 0;
