#N canvas 55 428 676 381 10;
#X obj 28 91 r~ 1-nothing;
#X obj 67 131 r~ 1-nothing;
#X obj 67 111 r \$1-\$2R-r;
#X obj 116 332 s~ \$1-\$2R;
#X obj 68 332 s~ \$1-\$2L;
#X obj 28 71 r \$1-\$2L-r;
#X msg 546 268 symbol noise;
#X msg 568 288 symbol osc;
#X obj 546 248 sel 0 1;
#N canvas 64 398 643 393 erosion 0;
#X obj 90 27 inlet~;
#X obj 90 304 outlet~;
#X obj 217 117 bp~ 440;
#X obj 216 57 noise~;
#X obj 413 117 osc~ 0;
#X obj 413 177 *~ 1;
#X obj 217 214 *~ 1;
#X obj 413 147 +~ 1;
#X obj 217 147 +~ 1;
#X obj 20 27 inlet~;
#X obj 20 304 outlet~;
#N canvas 0 22 478 328 write 0;
#X obj 77 80 inlet~;
#X obj 82 178 outlet~;
#X obj 95 118 delwrite~ \$0-del-l 5000;
#X obj 267 80 inlet~;
#X obj 285 118 delwrite~ \$0-del-r 5000;
#X connect 0 0 1 0;
#X connect 0 0 2 0;
#X connect 3 0 4 0;
#X restore 20 214 pd write;
#N canvas 0 22 347 166 read 0;
#X obj 21 33 inlet~;
#X obj 86 93 outlet~;
#X obj 86 33 inlet~;
#X obj 86 63 vd~ \$0-del-l;
#X obj 186 93 outlet~;
#X obj 186 63 vd~ \$0-del-r;
#X connect 2 0 3 0;
#X connect 2 0 5 0;
#X connect 3 0 1 0;
#X connect 5 0 4 0;
#X restore 20 274 pd read;
#X obj 340 102 == 0;
#X obj 413 207 *~ 0;
#X obj 148 27 inlet amount;
#X obj 290 27 inlet frequency;
#X obj 418 27 inlet Q;
#X obj 501 27 inlet type;
#X obj 217 177 *~ 1;
#X connect 0 0 11 1;
#X connect 2 0 8 0;
#X connect 3 0 2 0;
#X connect 4 0 7 0;
#X connect 5 0 14 0;
#X connect 6 0 12 1;
#X connect 7 0 5 0;
#X connect 8 0 19 0;
#X connect 9 0 11 0;
#X connect 11 0 12 0;
#X connect 12 0 10 0;
#X connect 12 1 1 0;
#X connect 13 0 6 1;
#X connect 14 0 12 1;
#X connect 15 0 5 1;
#X connect 15 0 19 1;
#X connect 16 0 2 1;
#X connect 16 0 4 0;
#X connect 17 0 2 2;
#X connect 18 0 13 0;
#X connect 18 0 14 1;
#X connect 19 0 6 0;
#X restore 123 292 pd erosion port from rad.eros;
#X obj 241 261 * 0.1;
#X obj 281 261 * 0.1;
#X obj 202 261 mtof;
#X obj 19 247 *~;
#X obj 47 247 *~;
#X obj 75 247 *~;
#X obj 103 247 *~;
#X obj 85 167 cos;
#X obj 140 167 sin;
#X obj 162 137 * 0.015708;
#X obj 140 207 line~;
#X obj 85 207 line~;
#X obj 547 208 * 0.1;
#N canvas 0 22 299 279 f1s 0;
#X obj 27 25 inlet;
#X obj 27 225 outlet;
#X msg 104 165 set \$1;
#X obj 27 195 makefilename;
#X obj 27 55 t f f f;
#X obj 50 95 -;
#X obj 50 115 sel 0;
#X msg 50 145 set %d;
#X obj 71 75 int;
#X msg 128 197 %d.30;
#X obj 105 125 * 10.001;
#X obj 104 145 makefilename %%d.%01d;
#X connect 0 0 4 0;
#X connect 2 0 3 0;
#X connect 2 0 9 0;
#X connect 3 0 1 0;
#X connect 4 0 3 0;
#X connect 4 1 5 0;
#X connect 4 2 8 0;
#X connect 5 0 6 0;
#X connect 6 0 7 0;
#X connect 6 1 10 0;
#X connect 7 0 3 0;
#X connect 8 0 5 1;
#X connect 10 0 11 0;
#X connect 11 0 2 0;
#X restore 499 208 pd f1s;
#X obj 559 228 * 0.1;
#N canvas 0 22 299 279 f1s 0;
#X obj 27 25 inlet;
#X obj 27 225 outlet;
#X msg 104 165 set \$1;
#X obj 27 195 makefilename;
#X obj 27 55 t f f f;
#X obj 50 95 -;
#X obj 50 115 sel 0;
#X msg 50 145 set %d;
#X obj 71 75 int;
#X msg 128 197 %d.30;
#X obj 105 125 * 10.001;
#X obj 104 145 makefilename %%d.%01d;
#X connect 0 0 4 0;
#X connect 2 0 3 0;
#X connect 2 0 9 0;
#X connect 3 0 1 0;
#X connect 4 0 3 0;
#X connect 4 1 5 0;
#X connect 4 2 8 0;
#X connect 5 0 6 0;
#X connect 6 0 7 0;
#X connect 6 1 10 0;
#X connect 7 0 3 0;
#X connect 8 0 5 1;
#X connect 10 0 11 0;
#X connect 11 0 2 0;
#X restore 511 228 pd f1s;
#X msg 85 187 \$1 50;
#X msg 140 187 \$1 50;
#X obj 162 107 mmm-ctrl \$1 \$2 1 dry-wet 0 100 50 int;
#X obj 322 248 mmm-ctrl \$1 \$2 5 type 0 1 0 ext;
#X obj 281 228 mmm-ctrl \$1 \$2 4 Q 1 1600 10 ext;
#X text 29 40 port of Frank Barknecht's rad.eros;
#X obj 28 21 mmm-module \$1 \$2 erosion 4;
#X obj 201 188 mmm-ctrl \$1 \$2 2 frequency 0 127 64 int;
#X obj 241 208 mmm-ctrl \$1 \$2 3 amount 0 100 50 ext;
#X msg 265 21 version 0.3.5;
#X connect 0 0 13 0;
#X connect 0 0 15 0;
#X connect 1 0 14 0;
#X connect 1 0 16 0;
#X connect 2 0 1 0;
#X connect 5 0 0 0;
#X connect 6 0 29 1;
#X connect 7 0 29 1;
#X connect 8 0 6 0;
#X connect 8 1 7 0;
#X connect 9 0 4 0;
#X connect 9 1 3 0;
#X connect 10 0 9 3;
#X connect 11 0 9 4;
#X connect 12 0 9 2;
#X connect 13 0 4 0;
#X connect 14 0 3 0;
#X connect 15 0 9 0;
#X connect 16 0 9 1;
#X connect 17 0 26 0;
#X connect 18 0 27 0;
#X connect 19 0 18 0;
#X connect 19 0 17 0;
#X connect 20 0 16 1;
#X connect 20 0 15 1;
#X connect 21 0 14 1;
#X connect 21 0 13 1;
#X connect 22 0 23 0;
#X connect 23 0 34 1;
#X connect 24 0 25 0;
#X connect 25 0 30 1;
#X connect 26 0 21 0;
#X connect 27 0 20 0;
#X connect 28 0 19 0;
#X connect 29 0 9 5;
#X connect 29 2 8 0;
#X connect 30 0 11 0;
#X connect 30 2 24 0;
#X connect 33 0 12 0;
#X connect 34 0 10 0;
#X connect 34 2 22 0;
