#N canvas 61 55 761 428 10;
#X obj 25 339 r~ 1-nothing;
#X obj 118 339 r~ 1-nothing;
#X obj 235 249 line~;
#X obj 235 279 mtof~;
#X obj 298 139 * 0.1;
#X obj 219 319 *~;
#X obj 25 319 r \$1-\$2L-r;
#X obj 118 319 r \$1-\$2R-r;
#X obj 118 388 s~ \$1-\$2R;
#X obj 25 388 s~ \$1-\$2L;
#X obj 235 179 pack;
#X obj 235 139 +;
#X obj 249 109 t b f;
#X obj 235 159 max 0;
#N canvas 514 142 311 291 f2s 0;
#X obj 27 25 inlet;
#X obj 27 225 outlet;
#X msg 104 165 set \$1;
#X obj 27 195 makefilename;
#X obj 27 55 t f f f;
#X obj 50 95 -;
#X obj 50 115 sel 0;
#X msg 50 145 set %d;
#X obj 71 75 int;
#X obj 105 125 * 10.001;
#X obj 104 145 makefilename %%d.%d;
#X connect 0 0 4 0;
#X connect 2 0 3 0;
#X connect 3 0 1 0;
#X connect 4 0 3 0;
#X connect 4 1 5 0;
#X connect 4 2 8 0;
#X connect 5 0 6 0;
#X connect 6 0 7 0;
#X connect 6 1 9 0;
#X connect 7 0 3 0;
#X connect 8 0 5 1;
#X connect 9 0 10 0;
#X connect 10 0 2 0;
#X restore 543 119 pd f2s;
#X obj 591 119 * 0.1;
#X obj 298 159 mmm-ticks2ms;
#X obj 185 279 min~ 1;
#N canvas 91 34 584 360 fuzzed-FM 0;
#X obj 28 22 inlet~;
#X obj 28 313 outlet~;
#X obj 28 162 hip~ 10;
#X obj 227 122 line~;
#X obj 293 172 line~;
#X obj 293 132 * 0.01;
#X obj 84 82 line~;
#X obj 28 122 *~;
#X obj 28 142 cos~;
#X obj 28 182 clip~ -0.2 0.2;
#X obj 84 42 * 0.01;
#X obj 277 273 *~;
#X obj 170 161 *~;
#X obj 28 233 hip~ 5;
#X obj 170 141 +~ 1;
#X obj 170 181 +~ 1.46;
#X obj 277 293 clip~ -1 1;
#X obj 28 72 *~ 0.5;
#X obj 28 92 osc~;
#X msg 84 62 \$1 100;
#X obj 170 72 * 0.01;
#X obj 170 121 osc~;
#X msg 227 102 \$1 100;
#X msg 293 152 \$1 100;
#X obj 170 201 vd~ \$0-del;
#X obj 277 313 delwrite~ \$0-del 1000;
#X obj 84 22 mmm-ctrl \$1 \$2 6 timbre 0 100 30 int;
#X obj 170 52 mmm-ctrl \$1 \$2 7 cycle 1 100 10 int;
#X obj 227 82 mmm-ctrl \$1 \$2 8 depth 1 100 10 int;
#X obj 293 112 mmm-ctrl \$1 \$2 9 feedback 1 100 10 int;
#X connect 0 0 17 0;
#X connect 2 0 9 0;
#X connect 3 0 12 1;
#X connect 4 0 11 1;
#X connect 5 0 23 0;
#X connect 6 0 7 1;
#X connect 7 0 8 0;
#X connect 8 0 2 0;
#X connect 9 0 13 0;
#X connect 10 0 19 0;
#X connect 11 0 16 0;
#X connect 12 0 15 0;
#X connect 13 0 11 0;
#X connect 13 0 1 0;
#X connect 14 0 12 0;
#X connect 15 0 24 0;
#X connect 16 0 25 0;
#X connect 17 0 18 0;
#X connect 18 0 7 0;
#X connect 19 0 6 0;
#X connect 20 0 21 0;
#X connect 21 0 14 0;
#X connect 22 0 3 0;
#X connect 23 0 4 0;
#X connect 24 0 13 0;
#X connect 26 0 10 0;
#X connect 26 1 10 0;
#X connect 27 0 20 0;
#X connect 27 1 20 0;
#X connect 28 0 22 0;
#X connect 28 1 22 0;
#X connect 29 0 5 0;
#X connect 29 1 5 0;
#X restore 235 299 pd fuzzed-FM;
#X obj 249 89 mmm-ctrl \$1 \$2 4 transpose -24 24 0 int;
#X obj 28 21 mmm-module \$1 \$2 fuzzed-FM 9;
#X obj 219 349 *~;
#X obj 359 249 cos;
#X obj 460 249 sin;
#X obj 460 209 * 0.015708;
#X msg 359 289 \$1 10;
#X msg 460 289 \$1 10;
#X obj 460 189 + 50;
#X obj 460 309 line~;
#X obj 359 309 line~;
#X obj 359 269 *;
#X obj 460 269 *;
#X obj 404 266 t b f;
#X obj 279 349 *~;
#X obj 404 209 * 0.01;
#X obj 697 169 * 2;
#X obj 298 119 mmm-ctrl \$1 \$2 5 glide 0 160 1 ext;
#X obj 404 149 mmm-ctrl \$1 \$2 2 level 0 100 30 int;
#X obj 460 169 mmm-ctrl \$1 \$2 3 pan -50 50 0 ext;
#X obj 235 69 mmm-ctrl \$1 \$2 1 notes 0 127 -1 ext;
#X obj 489 69 mmm-notename;
#X msg 275 21 version 0.3.5;
#X connect 0 0 9 0;
#X connect 1 0 8 0;
#X connect 2 0 3 0;
#X connect 2 0 17 0;
#X connect 3 0 18 0;
#X connect 4 0 16 0;
#X connect 5 0 21 0;
#X connect 5 0 33 0;
#X connect 6 0 0 0;
#X connect 7 0 1 0;
#X connect 10 0 2 0;
#X connect 11 0 13 0;
#X connect 12 0 11 0;
#X connect 12 1 11 1;
#X connect 13 0 10 0;
#X connect 14 0 36 1;
#X connect 15 0 14 0;
#X connect 16 0 10 1;
#X connect 17 0 5 0;
#X connect 18 0 5 1;
#X connect 19 0 12 0;
#X connect 21 0 9 0;
#X connect 22 0 30 0;
#X connect 23 0 31 0;
#X connect 24 0 23 0;
#X connect 24 0 22 0;
#X connect 25 0 29 0;
#X connect 26 0 28 0;
#X connect 27 0 24 0;
#X connect 28 0 33 1;
#X connect 29 0 21 1;
#X connect 30 0 25 0;
#X connect 31 0 26 0;
#X connect 32 0 30 0;
#X connect 32 0 31 0;
#X connect 32 1 30 1;
#X connect 32 1 31 1;
#X connect 33 0 8 0;
#X connect 34 0 32 0;
#X connect 35 0 38 1;
#X connect 36 0 4 0;
#X connect 36 2 15 0;
#X connect 37 0 34 0;
#X connect 38 0 27 0;
#X connect 38 2 35 0;
#X connect 39 0 11 0;
#X connect 39 2 40 0;
#X connect 40 0 39 1;
