#N canvas 52 55 646 651 10;
#X declare -lib Gem;
#X obj 160 518 gemwin;
#X msg 131 428 0 \, destroy;
#N canvas 281 85 188 187 on/off 0;
#X obj 44 59 sel 0;
#X msg 44 99 symbol off;
#X msg 74 79 symbol on;
#X obj 44 29 inlet;
#X obj 74 129 outlet;
#X connect 0 0 1 0;
#X connect 0 1 2 0;
#X connect 1 0 4 0;
#X connect 2 0 4 0;
#X connect 3 0 0 0;
#X restore 292 126 pd on/off;
#N canvas 281 85 188 187 on/off 0;
#X obj 44 59 sel 0;
#X msg 44 99 symbol off;
#X msg 74 79 symbol on;
#X obj 44 29 inlet;
#X obj 74 129 outlet;
#X connect 0 0 1 0;
#X connect 0 1 2 0;
#X connect 1 0 4 0;
#X connect 2 0 4 0;
#X connect 3 0 0 0;
#X restore 335 166 pd on/off;
#N canvas 796 22 204 203 single/double 0;
#X obj 44 29 inlet;
#X obj 74 129 outlet;
#X obj 44 59 sel 1;
#X msg 44 99 symbol single;
#X msg 74 79 symbol double;
#X connect 0 0 2 0;
#X connect 2 0 3 0;
#X connect 2 1 4 0;
#X connect 3 0 1 0;
#X connect 4 0 1 0;
#X restore 372 186 pd single/double;
#X obj 131 348 list trim;
#X obj 131 368 route 0 1;
#X obj 28 71 r~ 1-nothing;
#X obj 128 71 r~ 1-nothing;
#X obj 128 51 r \$1-\$2R-r;
#X obj 128 91 s~ \$1-\$2R;
#X obj 28 91 s~ \$1-\$2L;
#X obj 28 51 r \$1-\$2L-r;
#X msg 331 430 lighting \$1;
#X msg 381 450 frame \$1;
#N canvas 414 112 803 634 hc-mouse 0;
#X obj 289 194 f;
#X obj 200 174 spigot;
#X obj 267 174 sel 0 1;
#X obj 237 154 t f f;
#X obj 200 194 -;
#X obj 200 234 +;
#X obj 216 214 f;
#X obj 163 161 f;
#X obj 74 141 spigot;
#X obj 141 141 sel 0 1;
#X obj 111 121 t f f;
#X obj 74 161 -;
#X obj 74 201 +;
#X obj 90 181 f;
#X obj 416 166 f;
#X obj 327 146 spigot;
#X obj 394 146 sel 0 1;
#X obj 364 126 t f f;
#X obj 327 166 -;
#X obj 357 186 f;
#X obj 80 465 * 4;
#X obj 135 467 * 4;
#X obj 162 327 t b f;
#X obj 94 372 cos;
#X obj 106 430 * 1;
#X obj 80 430 * 1;
#X obj 189 379 sin;
#X obj 107 466 * 4;
#X obj 94 394 t b f;
#X obj 94 348 / 200;
#X obj 80 491 pack f f f;
#X obj 320 42 gemmouse;
#X obj 681 205 t b f;
#X obj 681 234 |;
#X obj 480 195 loadbang;
#X msg 480 265 0;
#X obj 480 345 curve 2;
#X obj 480 325 color 1 0 0;
#X obj 581 345 curve 2;
#X obj 681 345 curve 2;
#X msg 534 305 3 0 0;
#X msg 635 305 0 3 0;
#X msg 735 305 0 0 3;
#X msg 80 516 view \$1 \$2 \$3 0 0 0 0 1 0;
#X obj 581 325 color 0 1 0;
#X obj 681 325 color 0 0 1;
#X obj 80 308 sin;
#X obj 106 309 cos;
#X obj 327 206 + 200;
#X obj 163 301 / 50;
#X obj 80 283 / -200;
#X obj 36 28 inlet;
#X obj 206 18 inlet;
#X obj 142 18 inlet;
#X obj 206 38 * 5;
#X obj 36 88 / 127;
#X obj 36 68 * 400;
#X obj 142 78 / 127;
#X obj 142 58 * 200;
#X obj 142 38 * -3.14;
#X obj 36 48 * 3.14;
#X obj 80 551 outlet;
#X obj 480 305 gemhead;
#X obj 581 305 gemhead;
#X obj 681 305 gemhead;
#X connect 0 0 4 1;
#X connect 1 0 4 0;
#X connect 2 0 6 0;
#X connect 2 1 0 0;
#X connect 3 0 1 1;
#X connect 3 1 2 0;
#X connect 4 0 5 0;
#X connect 5 0 6 1;
#X connect 5 0 29 0;
#X connect 6 0 5 1;
#X connect 7 0 11 1;
#X connect 8 0 11 0;
#X connect 9 0 13 0;
#X connect 9 1 7 0;
#X connect 10 0 8 1;
#X connect 10 1 9 0;
#X connect 11 0 12 0;
#X connect 12 0 13 1;
#X connect 12 0 50 0;
#X connect 13 0 12 1;
#X connect 14 0 18 1;
#X connect 15 0 18 0;
#X connect 16 0 19 0;
#X connect 16 1 14 0;
#X connect 17 0 15 1;
#X connect 17 1 16 0;
#X connect 18 0 48 0;
#X connect 19 0 48 1;
#X connect 20 0 30 0;
#X connect 21 0 30 2;
#X connect 22 0 21 0;
#X connect 22 0 20 0;
#X connect 22 0 27 0;
#X connect 22 1 21 1;
#X connect 22 1 20 1;
#X connect 22 1 27 1;
#X connect 23 0 28 0;
#X connect 24 0 21 0;
#X connect 25 0 20 0;
#X connect 26 0 27 0;
#X connect 27 0 30 1;
#X connect 28 0 24 0;
#X connect 28 0 25 0;
#X connect 28 1 24 1;
#X connect 28 1 25 1;
#X connect 29 0 23 0;
#X connect 29 0 26 0;
#X connect 30 0 43 0;
#X connect 31 0 8 0;
#X connect 31 0 7 1;
#X connect 31 1 1 0;
#X connect 31 1 0 1;
#X connect 31 1 14 1;
#X connect 31 1 15 0;
#X connect 31 2 3 0;
#X connect 31 2 10 0;
#X connect 31 2 33 0;
#X connect 31 3 17 0;
#X connect 31 3 32 0;
#X connect 32 0 33 0;
#X connect 32 1 33 1;
#X connect 33 0 62 0;
#X connect 33 0 63 0;
#X connect 33 0 64 0;
#X connect 34 0 35 0;
#X connect 34 0 40 0;
#X connect 34 0 41 0;
#X connect 34 0 42 0;
#X connect 34 0 50 0;
#X connect 34 0 48 0;
#X connect 35 0 62 0;
#X connect 35 0 63 0;
#X connect 35 0 64 0;
#X connect 37 0 36 0;
#X connect 40 0 36 2;
#X connect 41 0 38 2;
#X connect 42 0 39 2;
#X connect 43 0 61 0;
#X connect 44 0 38 0;
#X connect 45 0 39 0;
#X connect 46 0 25 0;
#X connect 47 0 24 0;
#X connect 48 0 19 1;
#X connect 48 0 49 0;
#X connect 49 0 22 0;
#X connect 50 0 46 0;
#X connect 50 0 47 0;
#X connect 51 0 60 0;
#X connect 52 0 54 0;
#X connect 53 0 59 0;
#X connect 54 0 49 0;
#X connect 55 0 50 0;
#X connect 56 0 55 0;
#X connect 57 0 29 0;
#X connect 58 0 57 0;
#X connect 59 0 58 0;
#X connect 60 0 56 0;
#X connect 62 0 37 0;
#X connect 63 0 44 0;
#X connect 64 0 45 0;
#X restore 356 483 pd hc-mouse;
#X msg 159 388 reset \, fullscreen \$1 \, border \$2 \, buffer \$3
\, lighting \$4 \, frame \$5 \, dimen \$6 \$7 \, FSAA \$8 \, create
\, 1;
#X obj 131 328 pack f f f f f f f f f;
#X obj 244 294 unpack f f;
#N canvas 0 22 458 308 res 0;
#X obj 26 39 sel 1 2 3 4 5 6 7 8;
#X msg 26 199 320 240;
#X msg 42 179 480 360;
#X msg 58 159 640 480;
#X msg 74 139 800 600;
#X msg 90 119 896 600;
#X msg 106 99 1024 768;
#X msg 122 79 1152 768;
#X msg 138 59 1280 960;
#X obj 26 19 inlet;
#X obj 149 233 outlet;
#X connect 0 0 1 0;
#X connect 0 1 2 0;
#X connect 0 2 3 0;
#X connect 0 3 4 0;
#X connect 0 4 5 0;
#X connect 0 5 6 0;
#X connect 0 6 7 0;
#X connect 0 7 8 0;
#X connect 1 0 10 0;
#X connect 2 0 10 0;
#X connect 3 0 10 0;
#X connect 4 0 10 0;
#X connect 5 0 10 0;
#X connect 6 0 10 0;
#X connect 7 0 10 0;
#X connect 8 0 10 0;
#X connect 9 0 0 0;
#X restore 330 269 pd res;
#N canvas 0 22 462 312 res 0;
#X obj 26 39 sel 1 2 3 4 5 6 7 8;
#X obj 26 19 inlet;
#X msg 138 59 1280x960;
#X msg 122 79 1152x768;
#X msg 106 99 1024x768;
#X msg 90 119 896x600;
#X msg 74 139 800x600;
#X msg 58 159 640x480;
#X msg 42 179 480x360;
#X msg 26 199 320x240;
#X obj 149 233 symbol;
#X obj 149 253 outlet;
#X connect 0 0 9 0;
#X connect 0 1 8 0;
#X connect 0 2 7 0;
#X connect 0 3 6 0;
#X connect 0 4 5 0;
#X connect 0 5 4 0;
#X connect 0 6 3 0;
#X connect 0 7 2 0;
#X connect 1 0 0 0;
#X connect 2 0 10 0;
#X connect 3 0 10 0;
#X connect 4 0 10 0;
#X connect 5 0 10 0;
#X connect 6 0 10 0;
#X connect 7 0 10 0;
#X connect 8 0 10 0;
#X connect 9 0 10 0;
#X connect 10 0 11 0;
#X restore 547 249 pd res;
#X msg 271 515 menubar -1;
#X msg 291 535 menubar 0;
#X msg 301 555 menubar 1;
#X text 385 535 cmd+tabs;
#X obj 28 21 mmm-module \$1 \$2 gemwin 8;
#X obj 47 146 mmm-ctrl \$1 \$2 2 fullscreen 0 2 0 int;
#X obj 98 166 mmm-ctrl \$1 \$2 3 border 0 1 1 ext;
#X obj 135 186 mmm-ctrl \$1 \$2 4 buffer 1 2 2 ext;
#X obj 162 206 mmm-ctrl \$1 \$2 5 lighting 0 1 0 int;
#X obj 199 226 mmm-ctrl \$1 \$2 6 frame 1 100 15 int;
#X obj 366 304 mmm-ctrl \$1 \$2 7 FSAA 0 32 0 int;
#X obj 330 249 mmm-ctrl \$1 \$2 8 res 1 8 1 ext;
#X obj 131 308 f 1;
#X obj 24 126 mmm-ctrl \$1 \$2 1 rendering 0 1 0 ext;
#X obj 415 60 declare -lib Gem;
#X msg 285 21 version 0.3.13;
#X connect 1 0 0 0;
#X connect 2 0 34 1;
#X connect 3 0 27 1;
#X connect 4 0 28 1;
#X connect 5 0 6 0;
#X connect 6 0 1 0;
#X connect 6 1 16 0;
#X connect 7 0 11 0;
#X connect 8 0 10 0;
#X connect 9 0 8 0;
#X connect 12 0 7 0;
#X connect 13 0 0 0;
#X connect 14 0 0 0;
#X connect 15 0 0 0;
#X connect 16 0 0 0;
#X connect 17 0 5 0;
#X connect 18 0 17 6;
#X connect 18 1 17 7;
#X connect 19 0 18 0;
#X connect 20 0 32 1;
#X connect 21 0 0 0;
#X connect 22 0 0 0;
#X connect 23 0 0 0;
#X connect 26 0 17 1;
#X connect 27 0 17 2;
#X connect 27 2 3 0;
#X connect 28 0 17 3;
#X connect 28 2 4 0;
#X connect 29 0 17 4;
#X connect 29 0 13 0;
#X connect 30 0 17 5;
#X connect 30 0 14 0;
#X connect 31 0 17 8;
#X connect 32 0 19 0;
#X connect 32 2 20 0;
#X connect 33 0 17 0;
#X connect 34 0 33 0;
#X connect 34 2 2 0;
