#N canvas 737 327 365 244 10;
#X obj 28 151 gemhead;
#X obj 28 71 r~ 1-nothing;
#X obj 128 71 r~ 1-nothing;
#N canvas 567 372 268 190 send_gemmm 0;
#X obj 104 19 loadbang;
#X obj 25 99 list prepend;
#X obj 25 139 s gemmm;
#X obj 25 79 inlet;
#X obj 25 119 list trim;
#X obj 104 59 + 1;
#X obj 104 79 makefilename \$1-%d;
#X obj 104 39 f \$2;
#X connect 0 0 7 0;
#X connect 1 0 4 0;
#X connect 3 0 1 0;
#X connect 4 0 2 0;
#X connect 5 0 6 0;
#X connect 6 0 1 1;
#X connect 7 0 5 0;
#X restore 28 201 pd send_gemmm;
#X obj 27 21 mmm-module \$1 \$2 gemhead 1;
#X obj 28 51 r \$1-\$2L-r;
#X obj 128 51 r \$1-\$2R-r;
#X obj 28 91 s~ \$1-\$2L;
#X obj 128 91 s~ \$1-\$2R;
#X obj 28 120 mmm-ctrl \$1 \$2 1 gemhead -100 100 1 int;
#X obj 28 171 spigot 1;
#X msg 235 21 version 0.3.4;
#X connect 0 0 10 0;
#X connect 1 0 7 0;
#X connect 2 0 8 0;
#X connect 5 0 1 0;
#X connect 6 0 2 0;
#X connect 9 0 0 0;
#X connect 10 0 3 0;
