#N canvas 128 22 470 395 10;
#X obj 27 311 r~ 1-nothing;
#X obj 150 311 r~ 1-nothing;
#X obj 27 291 r \$1-\$2L-r;
#X obj 150 291 r \$1-\$2R-r;
#X obj 150 331 s~ \$1-\$2R;
#X obj 27 331 s~ \$1-\$2L;
#X obj 350 151 *;
#X obj 350 131 * 0.2;
#X obj 350 111 t f f;
#X obj 349 231 *;
#X obj 349 211 * 0.2;
#X obj 349 191 t f f;
#N canvas 152 185 491 519 guts 0;
#N canvas 0 22 670 617 gbuzz~ 0;
#X obj 52 89 phasor~;
#X obj 52 112 *~ 1024;
#X obj 177 180 tabread4~ \$0-cos;
#X obj 51 350 tabread4~ \$0-sin;
#X obj 52 421 /~;
#X obj 52 132 +~ 1;
#X obj 400 250 *~ 1024;
#X obj 400 278 +~ 1;
#X obj 330 311 tabread4~ \$0-1+a2;
#X obj 464 310 tabread4~ \$0-norm;
#X obj 52 451 *~;
#X obj 300 258 *~ -2;
#X obj 177 311 *~;
#X obj 52 481 outlet~;
#X obj 299 45 inlet~;
#X obj 409 66 table \$0-1+a2 1027;
#X obj 409 85 table \$0-norm 1027;
#X obj 409 105 table \$0-cos 1027;
#X obj 409 127 table \$0-sin 1027;
#N canvas 0 22 706 446 init-tables 0;
#X obj 125 75 until;
#X obj 125 104 f 0;
#X obj 153 105 + 1;
#X msg 164 75 0;
#X obj 125 53 t a b;
#X obj 55 204 expr 1+$f1*$f1;
#X obj 125 150 / 1024;
#X obj 125 127 t a a;
#X obj 55 234 tabwrite \$0-1+a2;
#X obj 125 12 loadbang;
#X obj 547 122 s \$0-cos;
#X obj 509 175 s \$0-sin;
#X msg 509 148 sinesum 1024 1;
#X msg 547 97 cosinesum 1024 0 1;
#X obj 509 67 loadbang;
#X obj 188 236 tabwrite \$0-norm;
#X msg 125 33 1027;
#X obj 188 206 expr sqrt((1-$f1*$f1)/(1+$f1*$f1));
#X text 79 350 writes f(a) = 1+a^2 rsp. normalization into tables;
#X connect 0 0 1 0;
#X connect 1 0 2 0;
#X connect 1 0 7 0;
#X connect 2 0 1 1;
#X connect 3 0 1 1;
#X connect 4 0 0 0;
#X connect 4 1 3 0;
#X connect 5 0 8 0;
#X connect 6 0 5 0;
#X connect 6 0 17 0;
#X connect 7 0 6 0;
#X connect 7 1 8 1;
#X connect 7 1 15 1;
#X connect 9 0 16 0;
#X connect 12 0 11 0;
#X connect 13 0 10 0;
#X connect 14 0 13 0;
#X connect 14 0 12 0;
#X connect 16 0 4 0;
#X connect 17 0 15 0;
#X restore 409 45 pd init-tables;
#X obj 52 46 inlet;
#X text 51 520 cf: James A. Moorer: "Synthesis of Complex Audio Spectra"
and Dodge/Jerse: "Computer Music" page 163f;
#X connect 0 0 1 0;
#X connect 1 0 5 0;
#X connect 2 0 12 0;
#X connect 3 0 4 0;
#X connect 4 0 10 0;
#X connect 5 0 2 0;
#X connect 5 0 3 0;
#X connect 6 0 7 0;
#X connect 7 0 8 0;
#X connect 7 0 9 0;
#X connect 8 0 4 1;
#X connect 9 0 10 1;
#X connect 10 0 13 0;
#X connect 11 0 12 1;
#X connect 12 0 4 1;
#X connect 14 0 6 0;
#X connect 14 0 11 0;
#X connect 20 0 0 0;
#X restore 160 375 pd gbuzz~;
#X obj 238 266 vline~;
#X obj 41 91 b;
#X obj 238 296 *~;
#X obj 238 326 *~;
#X obj 18 345 vline~;
#X obj 18 375 *~;
#X obj 18 405 *~;
#X obj 59 426 *~;
#X obj 160 355 mtof;
#X obj 238 206 f;
#X msg 238 246 \$1 200 \, 0.1 \$2 200;
#X obj 48 185 * 0.01;
#X obj 68 285 *;
#X obj 68 265 * 0.2;
#X obj 68 245 t f f;
#X obj 415 135 *;
#X obj 415 115 * 0.2;
#X obj 415 95 t f f;
#X obj 238 226 pack;
#X obj 60 466 outlet~;
#X obj 287 124 min 0.999;
#X obj 287 104 * 0.01;
#X obj 110 24 inlet;
#X obj 110 44 route notes level decay harmonic hdecay;
#X obj 18 305 pack f f;
#X msg 18 325 \$1 100 \, 0 \$2 100;
#X obj 18 235 f 0.5;
#X connect 0 0 8 1;
#X connect 1 0 3 0;
#X connect 1 0 3 1;
#X connect 2 0 10 0;
#X connect 2 0 27 0;
#X connect 3 0 4 0;
#X connect 3 0 4 1;
#X connect 4 0 0 1;
#X connect 5 0 6 0;
#X connect 5 0 6 1;
#X connect 6 0 7 0;
#X connect 6 0 7 1;
#X connect 7 0 8 0;
#X connect 8 0 20 0;
#X connect 9 0 0 0;
#X connect 10 0 19 0;
#X connect 11 0 1 0;
#X connect 12 0 27 1;
#X connect 13 0 25 1;
#X connect 14 0 13 0;
#X connect 15 0 14 0;
#X connect 15 1 13 1;
#X connect 16 0 19 1;
#X connect 17 0 16 0;
#X connect 18 0 17 0;
#X connect 18 1 16 1;
#X connect 19 0 11 0;
#X connect 21 0 10 1;
#X connect 22 0 21 0;
#X connect 23 0 24 0;
#X connect 24 0 9 0;
#X connect 24 0 2 0;
#X connect 24 1 12 0;
#X connect 24 2 15 0;
#X connect 24 3 22 0;
#X connect 24 4 18 0;
#X connect 25 0 26 0;
#X connect 26 0 5 0;
#X connect 27 0 25 0;
#X restore 48 261 pd guts;
#X obj 28 21 mmm-module \$1 \$2 gbuzz 5;
#X msg 68 111 level \$1;
#X msg 68 71 notes \$1;
#X msg 68 151 decay \$1;
#X msg 68 191 harmonic \$1;
#X msg 68 231 hdecay \$1;
#X msg 305 21 version 0.3.8;
#X obj 68 51 mmm-ctrl \$1 \$2 1 notes 16 127 15 ext;
#X obj 342 51 mmm-notename;
#X obj 68 131 mmm-ctrl \$1 \$2 3 decay 0 100 50 ext;
#X obj 68 211 mmm-ctrl \$1 \$2 5 hdecay 0 100 50 ext;
#X obj 68 171 mmm-ctrl \$1 \$2 4 harmonic 0 100 50 int;
#X obj 68 91 mmm-ctrl \$1 \$2 2 level 0 100 50 int;
#X connect 0 0 5 0;
#X connect 1 0 4 0;
#X connect 2 0 0 0;
#X connect 3 0 1 0;
#X connect 6 0 22 1;
#X connect 7 0 6 0;
#X connect 8 0 7 0;
#X connect 8 1 6 1;
#X connect 9 0 23 1;
#X connect 10 0 9 0;
#X connect 11 0 10 0;
#X connect 11 1 9 1;
#X connect 12 0 5 0;
#X connect 12 0 4 0;
#X connect 14 0 12 0;
#X connect 15 0 12 0;
#X connect 16 0 12 0;
#X connect 17 0 12 0;
#X connect 18 0 12 0;
#X connect 20 0 15 0;
#X connect 20 2 21 0;
#X connect 21 0 20 1;
#X connect 22 0 16 0;
#X connect 22 2 8 0;
#X connect 23 0 18 0;
#X connect 23 2 11 0;
#X connect 24 0 17 0;
#X connect 25 0 14 0;
