#N canvas 345 22 409 425 10;
#X obj 28 323 r~ 1-nothing;
#X obj 126 323 r~ 1-nothing;
#X obj 186 193 -;
#X obj 186 213 min 1;
#X obj 236 213 min 1;
#X obj 186 143 + 1;
#X obj 186 123 * 0.01;
#X obj 186 253 *;
#X obj 236 253 *;
#X obj 125 213 t b f;
#X obj 28 353 hip~;
#X obj 126 353 hip~;
#X obj 186 273 mtof;
#X obj 236 273 mtof;
#X obj 126 303 r \$1-\$2R-r;
#X obj 28 303 r \$1-\$2L-r;
#X obj 28 382 s~ \$1-\$2L;
#X obj 126 383 s~ \$1-\$2R;
#X msg 186 173 2 \$1;
#X obj 28 21 mmm-module \$1 \$2 hip 2;
#X obj 49 55 mmm-ctrl \$1 \$2 1 frequency 1 128 1 int;
#X obj 128 84 mmm-ctrl \$1 \$2 2 pan -100 100 0 int;
#X msg 221 21 version 0.3.4;
#X connect 0 0 10 0;
#X connect 1 0 11 0;
#X connect 2 0 3 0;
#X connect 3 0 7 0;
#X connect 4 0 8 0;
#X connect 5 0 4 0;
#X connect 5 0 18 0;
#X connect 6 0 5 0;
#X connect 7 0 12 0;
#X connect 8 0 13 0;
#X connect 9 0 7 0;
#X connect 9 0 8 0;
#X connect 9 1 7 1;
#X connect 9 1 8 1;
#X connect 10 0 16 0;
#X connect 11 0 17 0;
#X connect 12 0 10 1;
#X connect 13 0 11 1;
#X connect 14 0 1 0;
#X connect 15 0 0 0;
#X connect 18 0 2 0;
#X connect 20 0 9 0;
#X connect 21 0 6 0;
