#N canvas 591 263 460 485 10;
#X obj 38 9 r mmm;
#X obj 38 35 route module;
#X obj 44 414 print helloworld;
#X obj 44 283 select activate deactivate;
#X obj 152 136 makefilename %%d-%d;
#X msg 152 157 set \$1;
#X obj 118 178 makefilename;
#N canvas 292 429 730 312 compare 0;
#X obj 148 16 inlet;
#X obj 282 15 inlet;
#X obj 148 40 list split 1;
#X obj 282 37 list split 1;
#X msg 209 167 1;
#X msg 240 168 0;
#X obj 209 215 outlet;
#X obj 282 84 makefilename %d;
#X obj 282 63 route float;
#X obj 209 127 select symbol;
#X obj 148 83 makefilename %d;
#X obj 148 62 route float;
#X text 370 21 vergleiche 2 beliebige listenelemente \, floats oder
symbols;
#X connect 0 0 2 0;
#X connect 1 0 3 0;
#X connect 2 0 11 0;
#X connect 3 0 8 0;
#X connect 4 0 6 0;
#X connect 5 0 6 0;
#X connect 7 0 9 1;
#X connect 8 0 7 0;
#X connect 8 1 9 1;
#X connect 9 0 4 0;
#X connect 9 1 5 0;
#X connect 10 0 9 0;
#X connect 11 0 10 0;
#X connect 11 1 9 0;
#X restore 77 240 pd compare;
#X obj 44 320 symbol;
#X msg 44 350 you just activated my box! i'm at \$1;
#X msg 119 375 you just deactivated my box! i'm at \$1;
#X obj 119 320 symbol;
#X obj 44 262 spigot;
#X obj 132 218 symbol \$1;
#X obj 80 207 t a b;
#X text 22 440 billiges testmodule \, merkt zumindest \, ob es angeklickt
wurde;
#X msg 314 196 hi!;
#X obj 38 55 route activate deactivate;
#X obj 312 175 loadbang;
#X obj 38 75 list prepend activate;
#X obj 106 95 list prepend deactivate;
#X obj 85 115 unpack s f f;
#X obj 227 34 mmm-module-register \$1 helloworld 0;
#X msg 227 12 version 0.0.3;
#X connect 0 0 1 0;
#X connect 1 0 17 0;
#X connect 3 0 8 0;
#X connect 3 1 11 0;
#X connect 4 0 5 0;
#X connect 5 0 6 0;
#X connect 6 0 8 1;
#X connect 6 0 11 1;
#X connect 6 0 14 0;
#X connect 7 0 12 1;
#X connect 8 0 9 0;
#X connect 9 0 2 0;
#X connect 10 0 2 0;
#X connect 11 0 10 0;
#X connect 12 0 3 0;
#X connect 13 0 7 1;
#X connect 14 0 7 0;
#X connect 14 1 13 0;
#X connect 16 0 2 0;
#X connect 17 0 19 0;
#X connect 17 1 20 0;
#X connect 18 0 16 0;
#X connect 19 0 21 0;
#X connect 20 0 21 0;
#X connect 21 0 12 0;
#X connect 21 1 6 0;
#X connect 21 2 4 0;
