#N canvas 25 22 412 231 10;
#X obj 17 127 r~ 1-nothing;
#X obj 107 127 r~ 1-nothing;
#X obj 17 107 r \$1-\$2L-r;
#X obj 107 107 r \$1-\$2R-r;
#X obj 17 187 s~ \$1-\$2L;
#X obj 107 187 s~ \$1-\$2R;
#X msg 270 17 version 0.3.5;
#X obj 17 17 mmm-module \$1 \$2 sinusblip 3;
#X obj 17 37 netpd-x \$0 \$1-\$2-mMm;
#X obj 133 157 i2mx~ \$0 \$1-\$2-mMm;
#X obj 258 121 s \$1-\$2-mMm.level;
#X obj 17 67 mmm-ctrl \$1 \$2 1 level 0 100 80 int;
#X connect 0 0 4 0;
#X connect 0 0 9 0;
#X connect 1 0 5 0;
#X connect 1 0 9 1;
#X connect 2 0 0 0;
#X connect 3 0 1 0;
