#N canvas 192 22 394 190 10;
#X obj 19 100 r~ 1-nothing;
#X obj 109 100 r~ 1-nothing;
#X obj 19 80 r \$1-\$2L-r;
#X obj 109 80 r \$1-\$2R-r;
#X obj 109 120 s~ \$1-\$2R;
#X obj 19 120 s~ \$1-\$2L;
#N canvas 251 143 761 667 kbd 0;
#X obj 212 609 outlet~;
#X obj 58 82 spigot;
#X obj 58 62 t f f;
#X msg 384 444 1;
#X msg 474 446 0;
#X obj 21 418 *~ 90;
#X obj 78 200 f;
#X obj 21 258 min 210;
#X obj 58 102 t b f;
#X obj 28 154 sel 0 1;
#X obj 242 199 f;
#X obj 21 438 +~ 58;
#X obj 384 524 switch~;
#X obj 21 318 vline~;
#N canvas 0 22 458 308 core 0;
#X obj 175 175 vline~;
#X msg 175 128 1 0.7 0 \, 0 \$1 0.7;
#X msg 190 148 0 10 0;
#X obj 150 84 t b f;
#X obj 190 84 b;
#X obj 131 217 osc~;
#X obj 131 244 *~;
#X obj 131 24 inlet~ freq;
#X obj 150 44 inlet trig;
#X obj 190 64 inlet anti;
#X obj 131 265 outlet~;
#X obj 273 64 inlet click;
#X obj 175 107 pack f 0.7;
#X obj 321 124 * 0.25;
#X obj 150 191 f;
#X obj 176 220 dbtorms~;
#X obj 176 198 *~ 100;
#X connect 0 0 16 0;
#X connect 1 0 0 0;
#X connect 2 0 0 0;
#X connect 3 0 14 0;
#X connect 3 1 12 0;
#X connect 4 0 2 0;
#X connect 5 0 6 0;
#X connect 6 0 10 0;
#X connect 7 0 5 0;
#X connect 8 0 3 0;
#X connect 9 0 4 0;
#X connect 11 0 12 1;
#X connect 11 0 13 0;
#X connect 12 0 1 0;
#X connect 13 0 14 1;
#X connect 14 0 5 1;
#X connect 15 0 6 1;
#X connect 16 0 15 0;
#X restore 137 519 pd core;
#X obj 212 586 *~ 1;
#X obj 474 371 del;
#X obj 474 350 + 5;
#X obj 248 152 + 10;
#N canvas 0 22 454 582 click 0;
#X obj 161 86 vline~;
#X obj 161 109 *~;
#X obj 161 290 lop~ 1500;
#X obj 161 312 hip~ 8000;
#X msg 161 54 1 0 0 \, 0 8 0;
#X obj 161 33 b;
#X obj 160 13 inlet;
#X obj 160 338 outlet~;
#X obj 162 230 *~;
#X obj 175 205 noise~;
#X obj 162 260 *~ 0.4;
#X connect 0 0 1 0;
#X connect 0 0 1 1;
#X connect 1 0 8 0;
#X connect 2 0 3 0;
#X connect 3 0 7 0;
#X connect 4 0 0 0;
#X connect 5 0 4 0;
#X connect 6 0 5 0;
#X connect 8 0 10 0;
#X connect 9 0 8 1;
#X connect 10 0 2 0;
#X restore 304 521 pd click;
#X obj 304 547 *~ 1;
#N canvas 0 22 454 304 core 0;
#X obj 175 169 vline~;
#X msg 175 128 1 0.7 0 \, 0 \$1 0.7;
#X msg 190 148 0 10 0;
#X obj 150 84 t b f;
#X obj 190 84 b;
#X obj 131 217 osc~;
#X obj 131 244 *~;
#X obj 131 24 inlet~ freq;
#X obj 150 44 inlet trig;
#X obj 190 64 inlet anti;
#X obj 131 265 outlet~;
#X obj 273 64 inlet click;
#X obj 175 107 pack f 0.7;
#X obj 321 124 * 0.25;
#X obj 150 191 f;
#X obj 176 217 dbtorms~;
#X obj 176 195 *~ 100;
#X connect 0 0 16 0;
#X connect 1 0 0 0;
#X connect 2 0 0 0;
#X connect 3 0 14 0;
#X connect 3 1 12 0;
#X connect 4 0 2 0;
#X connect 5 0 6 0;
#X connect 6 0 10 0;
#X connect 7 0 5 0;
#X connect 8 0 3 0;
#X connect 9 0 4 0;
#X connect 11 0 12 1;
#X connect 11 0 13 0;
#X connect 12 0 1 0;
#X connect 13 0 14 1;
#X connect 14 0 5 1;
#X connect 15 0 6 1;
#X connect 16 0 15 0;
#X restore 207 519 pd core;
#X obj 21 278 pack f 0.5;
#X obj 375 253 + 0.5;
#X obj 375 233 * 2;
#X obj 416 233 * -1;
#X obj 416 253 + 1;
#X msg 21 298 \$2 0.1 0 \, 1 1 0.1 \, 0 \$1 1.1;
#X obj 21 358 dbtorms~;
#X obj 21 338 *~ 100;
#X obj 248 132 * 4000;
#X obj 248 72 mmm-ctrl \$1 \$2 4 decay 0 100 50 int;
#X obj 55 134 == 0;
#X obj 28 134 f 0;
#X obj 463 198 t a;
#X obj 58 42 * 0.01;
#X obj 248 112 pow 2;
#X obj 248 92 * 0.01;
#X obj 51 398 * 1.3;
#X obj 463 178 * 0.01;
#X obj 58 22 mmm-ctrl \$1 \$2 1 level 0 100 -1 int;
#X obj 463 158 mmm-ctrl \$1 \$2 2 click 0 100 50 int;
#X obj 51 378 mmm-ctrl \$1 \$2 3 pitch 0 100 50 int;
#X connect 1 0 8 0;
#X connect 2 0 1 0;
#X connect 2 1 1 1;
#X connect 3 0 12 0;
#X connect 4 0 12 0;
#X connect 5 0 11 0;
#X connect 6 0 7 0;
#X connect 6 0 14 1;
#X connect 6 0 17 0;
#X connect 6 0 21 2;
#X connect 7 0 22 0;
#X connect 8 0 3 0;
#X connect 8 0 19 0;
#X connect 8 0 33 0;
#X connect 8 1 15 1;
#X connect 9 0 6 0;
#X connect 9 1 10 0;
#X connect 10 0 7 0;
#X connect 10 0 14 2;
#X connect 10 0 17 0;
#X connect 10 0 21 1;
#X connect 11 0 14 0;
#X connect 11 0 21 0;
#X connect 13 0 29 0;
#X connect 14 0 15 0;
#X connect 15 0 0 0;
#X connect 16 0 4 0;
#X connect 17 0 16 0;
#X connect 18 0 6 1;
#X connect 18 0 10 1;
#X connect 19 0 20 0;
#X connect 20 0 15 0;
#X connect 21 0 15 0;
#X connect 22 0 27 0;
#X connect 23 0 22 1;
#X connect 24 0 23 0;
#X connect 25 0 26 0;
#X connect 26 0 14 3;
#X connect 26 0 21 3;
#X connect 27 0 13 0;
#X connect 28 0 5 0;
#X connect 29 0 28 0;
#X connect 30 0 18 0;
#X connect 31 0 37 0;
#X connect 32 0 33 1;
#X connect 33 0 32 0;
#X connect 33 0 9 0;
#X connect 34 0 20 1;
#X connect 34 0 25 0;
#X connect 34 0 24 0;
#X connect 35 0 2 0;
#X connect 36 0 30 0;
#X connect 37 0 36 0;
#X connect 38 0 5 1;
#X connect 39 0 34 0;
#X connect 40 0 35 0;
#X connect 41 0 39 0;
#X connect 42 0 38 0;
#X restore 61 50 pd kbd;
#X obj 19 21 mmm-module \$1 \$2 kilokick 4;
#X msg 250 21 version 0.3.4;
#X connect 0 0 5 0;
#X connect 1 0 4 0;
#X connect 2 0 0 0;
#X connect 3 0 1 0;
#X connect 6 0 5 0;
#X connect 6 0 4 0;
