#N canvas 160 128 389 206 10;
#X obj 26 111 r~ 1-nothing;
#X obj 126 111 r~ 1-nothing;
#X obj 26 91 r \$1-\$2L-r;
#X obj 126 91 r \$1-\$2R-r;
#X obj 126 131 s~ \$1-\$2R;
#X obj 26 131 s~ \$1-\$2L;
#N canvas 480 182 690 489 kcp 0;
#X obj 242 278 vline~;
#X obj 242 318 dbtorms~;
#X obj 31 226 noise~;
#X obj 31 363 *~;
#X obj 31 280 bp2~ 1000 1 3000;
#X obj 180 207 t b b;
#X obj 123 201 t b b;
#X obj 123 181 del 30;
#X obj 31 383 hip~ 800;
#X obj 123 224 1.5;
#X obj 148 225 50;
#X obj 180 229 0.7;
#X obj 205 229 0;
#X obj 123 158 t b b f;
#X obj 31 423 outlet~;
#X obj 242 226 pack f 2000;
#X obj 314 196 + 100;
#X msg 242 246 \$1 \, 0 34 \, \$1 0.5 10.5 \, 0 34 11 \, \$1 0 23 \,
0 34 23 \, \$1 0 31 \, 0 34 31 \, \$1 0 36 \, 0 230 36.5 \, 0 500 65
\, 0 \$2 120;
#X obj 17 58 + 1000;
#X obj 543 350 + 130;
#X obj 513 370 delay;
#X msg 475 390 1;
#X msg 513 390 0;
#X obj 475 420 switch~;
#X obj 123 138 spigot;
#X obj 123 118 t f f;
#X obj 31 403 *~ 1;
#X obj 314 176 * 3;
#X obj 17 38 * 2;
#X obj 73 98 * 0.01;
#X obj 123 98 * 0.01;
#X obj 242 298 *~;
#X obj 17 18 mmm-ctrl \$1 \$2 2 pitch 0 100 50 int;
#X obj 73 58 mmm-ctrl \$1 \$2 1 level 0 100 -1 int;
#X obj 314 156 mmm-ctrl \$1 \$2 3 decay 0 100 50 int;
#X connect 0 0 31 0;
#X connect 0 0 31 1;
#X connect 2 0 4 0;
#X connect 3 0 8 0;
#X connect 4 0 3 0;
#X connect 5 0 11 0;
#X connect 5 1 12 0;
#X connect 6 0 9 0;
#X connect 6 1 10 0;
#X connect 7 0 6 0;
#X connect 8 0 26 0;
#X connect 9 0 4 2;
#X connect 10 0 4 3;
#X connect 11 0 4 2;
#X connect 12 0 4 3;
#X connect 13 0 7 0;
#X connect 13 0 21 0;
#X connect 13 0 20 0;
#X connect 13 1 5 0;
#X connect 13 2 15 0;
#X connect 15 0 17 0;
#X connect 16 0 15 1;
#X connect 16 0 19 0;
#X connect 17 0 0 0;
#X connect 18 0 4 1;
#X connect 19 0 20 1;
#X connect 20 0 22 0;
#X connect 21 0 23 0;
#X connect 22 0 23 0;
#X connect 24 0 13 0;
#X connect 25 0 24 0;
#X connect 25 1 24 1;
#X connect 26 0 14 0;
#X connect 27 0 16 0;
#X connect 28 0 18 0;
#X connect 29 0 26 1;
#X connect 30 0 25 0;
#X connect 31 0 1 0;
#X connect 31 0 3 1;
#X connect 32 0 28 0;
#X connect 33 0 29 0;
#X connect 33 0 30 0;
#X connect 34 0 27 0;
#X restore 87 51 pd kcp;
#X obj 28 21 mmm-module \$1 \$2 kiloclap 3;
#X msg 232 21 version 0.3.3;
#X connect 0 0 5 0;
#X connect 1 0 4 0;
#X connect 2 0 0 0;
#X connect 3 0 1 0;
#X connect 6 0 5 0;
#X connect 6 0 4 0;
