#N canvas 129 22 835 459 10;
#X obj 24 230 r~ 1-nothing;
#X obj 117 230 r~ 1-nothing;
#X obj 24 210 r \$1-\$2L-r;
#X obj 117 210 r \$1-\$2R-r;
#X obj 117 419 s~ \$1-\$2R;
#X obj 24 419 s~ \$1-\$2L;
#X obj 648 145 * 2;
#N canvas 126 218 847 561 kick 0;
#X obj 347 501 outlet~;
#X obj 439 204 line~;
#X obj 439 234 *~;
#X obj 439 254 *~;
#X obj 439 274 *~;
#X obj 439 294 *~;
#X obj 592 372 vline~;
#X obj 439 404 *~;
#X obj 592 332 f;
#X obj 439 324 *~;
#X obj 438 159 f;
#X msg 439 184 1.4 \, 0 \$1;
#X msg 592 352 0 5 \, 1 3 5 \, 0 \$1 8;
#X obj 650 218 switch~;
#X msg 519 221 0.25;
#X obj 592 85 t b;
#X msg 650 188 1;
#X obj 682 168 delay;
#X msg 682 188 0;
#X obj 711 148 + 100;
#X obj 439 384 osc~;
#X obj 226 407 *~;
#X obj 242 387 vline~;
#N canvas 0 22 450 300 (subpatch) 0;
#X array \$0-noise 100 float 1;
#A 0 -0.14286 0.582156 0.967879 0.967879 -0.846448 0.939307 0.896449
-0.890497 -0.814304 -0.900021 -0.928593 0.157146 0.642872 0.214291
0.100002 -0.014286 -0.100002 0.014286 0.128574 0.242863 -0.014286 -0.771446
-0.75716 -0.0441568 -0.0961061 -0.148055 -0.200005 -0.257149 0.857162
0.914307 1.01431 -0.278578 -0.214291 -0.150003 -0.0857162 0 0.0857162
0.171432 0.257149 0.292864 0.328579 -0.985737 -0.776208 -0.557156 -0.0714302
0.0714302 0.214291 -0.0714302 -0.957165 -0.714302 -0.600014 -0.557156
-0.292864 -0.114288 0.0285721 0.200005 0.428581 0.500011 0.971451 0.942879
0.82859 0.68573 0.442867 -0.171432 -0.895259 -1.09526 -1.03812 -0.695254
-0.0428581 -0.185719 -0.328579 -0.471439 0.014286 0.128574 0.100002
0.559537 0.688111 1.05955 1.08812 -0.673825 -0.82859 -0.357151 -0.0214291
-0.14286 -0.128574 0.0809542 0.290483 0.500011 0.742874 0.557156 0.371437
-0.214291 -0.290483 -0.366675 -0.442867 -0.400009 -0.414295 -0.442867
-0.54287 -0.628586;
#X coords 0 1 99 -1 20 16 1;
#X restore 354 323 graph;
#X obj 226 323 tabplay~ \$0-noise;
#X msg 242 367 0 0.1 \$1;
#X obj 159 352 f;
#X obj 193 341 f;
#X obj 166 290 t b b b;
#X obj 75 293 / 100;
#X obj 118 290 / 100;
#X obj 347 461 hip~ 20;
#X obj 519 201 del 5;
#X obj 66 65 route kick bendtime pitch mod release noiz dec;
#N canvas 0 22 220 196 t1 0;
#X obj 30 76 *;
#X obj 30 56 * 0.25;
#X obj 30 96 + 0.9375;
#X obj 30 26 inlet;
#X obj 30 126 outlet;
#X connect 0 0 2 0;
#X connect 1 0 0 1;
#X connect 1 0 0 0;
#X connect 2 0 4 0;
#X connect 3 0 1 0;
#X restore 148 168 pd t1;
#N canvas 0 22 236 212 t1 0;
#X obj 30 76 *;
#X obj 30 96 + 0.9375;
#X obj 30 26 inlet;
#X obj 30 146 outlet;
#X obj 30 56 * 0.5;
#X connect 0 0 1 0;
#X connect 1 0 3 0;
#X connect 2 0 4 0;
#X connect 4 0 0 1;
#X connect 4 0 0 0;
#X restore 247 88 pd t1;
#N canvas 0 22 228 204 t1 0;
#X obj 30 76 *;
#X obj 30 96 + 0.9375;
#X obj 30 26 inlet;
#X obj 30 126 outlet;
#X obj 30 56 * 0.5;
#X connect 0 0 1 0;
#X connect 1 0 3 0;
#X connect 2 0 4 0;
#X connect 4 0 0 1;
#X connect 4 0 0 0;
#X restore 337 95 pd t1;
#X obj 156 85 mtof;
#X obj 74 109 / 100;
#X obj 347 481 *~;
#X obj 156 105 * 0.001;
#X obj 455 345 f;
#X obj 439 364 +~ 0;
#X obj 66 45 inlet;
#X connect 1 0 2 1;
#X connect 1 0 2 0;
#X connect 2 0 3 1;
#X connect 2 0 3 0;
#X connect 3 0 4 0;
#X connect 3 0 4 1;
#X connect 4 0 5 0;
#X connect 4 0 5 1;
#X connect 5 0 9 0;
#X connect 6 0 7 1;
#X connect 7 0 31 0;
#X connect 8 0 12 0;
#X connect 9 0 42 0;
#X connect 10 0 11 0;
#X connect 11 0 1 0;
#X connect 12 0 6 0;
#X connect 14 0 20 1;
#X connect 15 0 8 0;
#X connect 15 0 16 0;
#X connect 15 0 17 0;
#X connect 15 0 32 0;
#X connect 16 0 13 0;
#X connect 17 0 18 0;
#X connect 18 0 13 0;
#X connect 19 0 17 1;
#X connect 20 0 7 0;
#X connect 21 0 31 0;
#X connect 22 0 21 1;
#X connect 24 0 21 0;
#X connect 25 0 22 0;
#X connect 26 0 22 0;
#X connect 27 0 25 0;
#X connect 28 0 27 0;
#X connect 28 1 26 0;
#X connect 28 2 24 0;
#X connect 29 0 26 1;
#X connect 30 0 27 1;
#X connect 31 0 39 0;
#X connect 32 0 10 0;
#X connect 32 0 14 0;
#X connect 33 0 38 0;
#X connect 33 1 34 0;
#X connect 33 2 37 0;
#X connect 33 3 41 0;
#X connect 33 4 35 0;
#X connect 33 5 29 0;
#X connect 33 6 36 0;
#X connect 34 0 10 1;
#X connect 35 0 8 1;
#X connect 35 0 19 0;
#X connect 36 0 30 0;
#X connect 37 0 40 0;
#X connect 38 0 28 0;
#X connect 38 0 39 1;
#X connect 38 0 15 0;
#X connect 39 0 0 0;
#X connect 40 0 9 1;
#X connect 41 0 42 1;
#X connect 42 0 20 0;
#X connect 43 0 33 0;
#X restore 283 375 pd kick;
#N canvas 98 22 879 637 snare 0;
#X obj 23 140 noise~;
#X obj 23 280 *~;
#X obj 380 241 osc~ 330;
#X obj 442 241 osc~ 180;
#X obj 589 344 *~;
#X obj 380 221 * 330;
#X obj 442 221 * 180;
#X obj 23 160 lop~;
#X obj 23 180 bp~ 6000 4;
#X obj 23 490 *~;
#X obj 143 490 *~;
#X obj 23 560 clip~ -1 1;
#X obj 23 580 outlet~;
#X obj 398 526 switch~;
#X obj 465 436 +;
#X obj 475 406 t b f;
#X msg 435 496 0;
#X obj 23 540 *~ 2;
#X obj 39 420 -;
#X obj 39 440 min 1;
#X obj 159 380 min 1;
#X obj 39 350 + 1;
#X obj 39 460 *;
#X obj 159 460 *;
#X obj 95 425 t b f;
#X obj 39 330 * 0.01;
#N canvas 344 68 550 563 vead~ 0;
#X obj 331 314 vline~;
#X obj 198 65 max 0.1;
#X obj 298 65 max 0.1;
#X obj 197 513 outlet~;
#X obj 87 65 b;
#X obj 87 215 pack 3 4;
#X text 129 283 attack;
#X text 367 285 decay;
#X msg 87 261 1 \, 0 \$1 0 \, 1 0 \$1;
#X msg 331 261 0 \, 1 0 \$1 \, 0 \$2 \$1;
#X obj 87 195 f 3;
#X msg 21 261 1;
#X obj 21 239 loadbang;
#X obj 280 366 *~;
#X obj 280 386 *~;
#X obj 280 406 *~;
#X obj 280 426 *~;
#X obj 280 446 *~;
#X obj 106 313 vline~;
#X obj 55 365 *~;
#X obj 55 385 *~;
#X obj 55 405 *~;
#X obj 55 425 *~;
#X obj 55 445 *~;
#X obj 39 465 sig~ 1;
#X obj 39 485 -~;
#X obj 87 45 inlet trigger;
#X obj 198 45 inlet attack;
#X obj 298 45 inlet decay;
#X connect 0 0 17 1;
#X connect 0 0 16 1;
#X connect 0 0 15 1;
#X connect 0 0 14 1;
#X connect 0 0 13 1;
#X connect 0 0 13 0;
#X connect 1 0 10 1;
#X connect 2 0 5 1;
#X connect 4 0 10 0;
#X connect 5 0 9 0;
#X connect 5 0 8 0;
#X connect 8 0 18 0;
#X connect 9 0 0 0;
#X connect 10 0 5 0;
#X connect 11 0 18 0;
#X connect 12 0 11 0;
#X connect 13 0 14 0;
#X connect 14 0 15 0;
#X connect 15 0 16 0;
#X connect 16 0 17 0;
#X connect 17 0 3 0;
#X connect 18 0 23 1;
#X connect 18 0 22 1;
#X connect 18 0 21 1;
#X connect 18 0 20 1;
#X connect 18 0 19 1;
#X connect 18 0 19 0;
#X connect 19 0 20 0;
#X connect 20 0 21 0;
#X connect 21 0 22 0;
#X connect 22 0 23 0;
#X connect 23 0 25 1;
#X connect 24 0 25 0;
#X connect 25 0 3 0;
#X connect 26 0 4 0;
#X connect 27 0 1 0;
#X connect 28 0 2 0;
#X restore 39 260 pd vead~;
#N canvas 344 68 546 559 vead~ 0;
#X obj 331 314 vline~;
#X obj 198 65 max 0.1;
#X obj 298 65 max 0.1;
#X obj 197 513 outlet~;
#X obj 87 65 b;
#X obj 87 215 pack 3 4;
#X text 129 283 attack;
#X text 367 285 decay;
#X msg 87 261 1 \, 0 \$1 0 \, 1 0 \$1;
#X msg 331 261 0 \, 1 0 \$1 \, 0 \$2 \$1;
#X obj 87 195 f 3;
#X msg 21 261 1;
#X obj 21 239 loadbang;
#X obj 280 366 *~;
#X obj 280 386 *~;
#X obj 280 406 *~;
#X obj 280 426 *~;
#X obj 280 446 *~;
#X obj 106 313 vline~;
#X obj 55 365 *~;
#X obj 55 385 *~;
#X obj 55 405 *~;
#X obj 55 425 *~;
#X obj 55 445 *~;
#X obj 39 465 sig~ 1;
#X obj 39 485 -~;
#X obj 87 45 inlet trigger;
#X obj 198 45 inlet attack;
#X obj 298 45 inlet decay;
#X connect 0 0 17 1;
#X connect 0 0 16 1;
#X connect 0 0 15 1;
#X connect 0 0 14 1;
#X connect 0 0 13 1;
#X connect 0 0 13 0;
#X connect 1 0 10 1;
#X connect 2 0 5 1;
#X connect 4 0 10 0;
#X connect 5 0 9 0;
#X connect 5 0 8 0;
#X connect 8 0 18 0;
#X connect 9 0 0 0;
#X connect 10 0 5 0;
#X connect 11 0 18 0;
#X connect 12 0 11 0;
#X connect 13 0 14 0;
#X connect 14 0 15 0;
#X connect 15 0 16 0;
#X connect 16 0 17 0;
#X connect 17 0 3 0;
#X connect 18 0 23 1;
#X connect 18 0 22 1;
#X connect 18 0 21 1;
#X connect 18 0 20 1;
#X connect 18 0 19 1;
#X connect 18 0 19 0;
#X connect 19 0 20 0;
#X connect 20 0 21 0;
#X connect 21 0 22 0;
#X connect 22 0 23 0;
#X connect 23 0 25 1;
#X connect 24 0 25 0;
#X connect 25 0 3 0;
#X connect 26 0 4 0;
#X connect 27 0 1 0;
#X connect 28 0 2 0;
#X restore 752 224 pd vead~;
#X obj 588 221 * 111;
#X obj 671 221 * 224;
#X obj 505 221 * 175;
#N canvas 590 292 455 349 triangle 0;
#X obj 118 135 *~ -1;
#X obj 118 160 +~ 1;
#X obj 94 221 min~;
#X obj 94 82 phasor~;
#X obj 93 249 *~ 2;
#X obj 93 272 outlet~;
#X obj 94 56 inlet;
#X connect 0 0 1 0;
#X connect 1 0 2 1;
#X connect 2 0 4 0;
#X connect 3 0 0 0;
#X connect 3 0 2 0;
#X connect 4 0 5 0;
#X connect 6 0 3 0;
#X restore 671 241 pd triangle;
#N canvas 590 292 459 353 triangle 0;
#X obj 118 135 *~ -1;
#X obj 118 160 +~ 1;
#X obj 94 221 min~;
#X obj 94 82 phasor~;
#X obj 93 249 *~ 2;
#X obj 93 272 outlet~;
#X obj 94 56 inlet;
#X connect 0 0 1 0;
#X connect 1 0 2 1;
#X connect 2 0 4 0;
#X connect 3 0 0 0;
#X connect 3 0 2 0;
#X connect 4 0 5 0;
#X connect 6 0 3 0;
#X restore 588 241 pd triangle;
#N canvas 590 292 463 357 triangle 0;
#X obj 118 135 *~ -1;
#X obj 118 160 +~ 1;
#X obj 94 221 min~;
#X obj 94 82 phasor~;
#X obj 93 249 *~ 2;
#X obj 93 272 outlet~;
#X obj 94 56 inlet;
#X connect 0 0 1 0;
#X connect 1 0 2 1;
#X connect 2 0 4 0;
#X connect 3 0 0 0;
#X connect 3 0 2 0;
#X connect 4 0 5 0;
#X connect 6 0 3 0;
#X restore 505 241 pd triangle;
#X obj 519 168 * 0.01;
#X obj 519 188 + 1;
#X obj 437 58 * 2;
#X obj 297 58 mtof;
#X obj 95 405 * 0.01;
#X obj 435 456 f 205;
#X obj 435 436 b;
#X msg 398 496 1;
#X obj 201 38 route snare tone lowpass xfade attack decay body;
#X msg 39 400 2 \$1;
#X obj 435 476 del;
#X obj 201 18 inlet;
#X connect 0 0 7 0;
#X connect 1 0 9 0;
#X connect 2 0 4 0;
#X connect 3 0 4 0;
#X connect 4 0 10 0;
#X connect 5 0 2 0;
#X connect 6 0 3 0;
#X connect 7 0 8 0;
#X connect 8 0 1 0;
#X connect 9 0 17 0;
#X connect 10 0 17 0;
#X connect 11 0 12 0;
#X connect 14 0 39 1;
#X connect 15 0 14 0;
#X connect 15 1 14 1;
#X connect 16 0 13 0;
#X connect 17 0 11 0;
#X connect 18 0 19 0;
#X connect 19 0 22 0;
#X connect 20 0 23 0;
#X connect 21 0 20 0;
#X connect 21 0 43 0;
#X connect 22 0 9 1;
#X connect 23 0 10 1;
#X connect 24 0 22 0;
#X connect 24 0 23 0;
#X connect 24 1 22 1;
#X connect 24 1 23 1;
#X connect 25 0 21 0;
#X connect 26 0 1 1;
#X connect 27 0 4 1;
#X connect 28 0 32 0;
#X connect 29 0 31 0;
#X connect 30 0 33 0;
#X connect 31 0 4 0;
#X connect 32 0 4 0;
#X connect 33 0 4 0;
#X connect 34 0 35 0;
#X connect 35 0 5 0;
#X connect 35 0 6 0;
#X connect 35 0 30 0;
#X connect 35 0 28 0;
#X connect 35 0 29 0;
#X connect 36 0 26 2;
#X connect 36 0 15 0;
#X connect 37 0 7 1;
#X connect 38 0 24 0;
#X connect 39 0 44 0;
#X connect 40 0 39 0;
#X connect 41 0 13 0;
#X connect 42 0 38 0;
#X connect 42 0 26 0;
#X connect 42 0 40 0;
#X connect 42 0 27 0;
#X connect 42 0 41 0;
#X connect 42 1 34 0;
#X connect 42 2 37 0;
#X connect 42 3 25 0;
#X connect 42 4 26 1;
#X connect 42 4 27 1;
#X connect 42 4 14 0;
#X connect 42 5 36 0;
#X connect 42 6 27 2;
#X connect 43 0 18 0;
#X connect 44 0 16 0;
#X connect 45 0 42 0;
#X coords 0 0 1 1 120 140 0;
#X restore 259 205 pd snare;
#N canvas 0 22 220 196 t1 0;
#X obj 30 66 *;
#X obj 30 46 * 0.25;
#X obj 30 86 + 0.9375;
#X obj 30 26 inlet;
#X obj 30 126 outlet;
#X obj 30 106 makesymbol %s;
#X connect 0 0 2 0;
#X connect 1 0 0 1;
#X connect 1 0 0 0;
#X connect 2 0 5 0;
#X connect 3 0 1 0;
#X connect 5 0 4 0;
#X restore 677 235 pd t1;
#N canvas 0 22 228 204 t1 0;
#X obj 30 66 *;
#X obj 30 86 + 0.9375;
#X obj 30 26 inlet;
#X obj 30 146 outlet;
#X obj 30 126 makesymbol %s;
#X obj 30 46 * 0.5;
#X obj 30 106 int;
#X connect 0 0 1 0;
#X connect 1 0 6 0;
#X connect 2 0 5 0;
#X connect 4 0 3 0;
#X connect 5 0 0 1;
#X connect 5 0 0 0;
#X connect 6 0 4 0;
#X restore 669 295 pd t1;
#N canvas 0 22 220 196 t1 0;
#X obj 30 66 *;
#X obj 30 86 + 0.9375;
#X obj 30 26 inlet;
#X obj 30 126 outlet;
#X obj 30 106 makesymbol %s;
#X obj 30 46 * 0.5;
#X connect 0 0 1 0;
#X connect 1 0 4 0;
#X connect 2 0 5 0;
#X connect 4 0 3 0;
#X connect 5 0 0 1;
#X connect 5 0 0 0;
#X restore 641 335 pd t1;
#X obj 721 255 mtof;
#X obj 721 295 makesymbol %s;
#X obj 721 275 * 0.001;
#X obj 395 15 mmm-module \$1 \$2 kicksnare 14;
#X msg 300 235 kick \$1;
#X msg 300 255 bendtime \$1;
#X msg 300 275 pitch \$1;
#X msg 300 295 mod \$1;
#X msg 300 315 release \$1;
#X msg 300 335 noiz \$1;
#X msg 300 355 dec \$1;
#X obj 395 235 mmm-ctrl \$1 \$2 9 bendtime 1 200 100 ext;
#X obj 395 255 mmm-ctrl \$1 \$2 10 pitch 0 127 84 ext;
#X obj 395 275 mmm-ctrl \$1 \$2 11 mod 0 100 42 int;
#X obj 395 295 mmm-ctrl \$1 \$2 12 release 1 100 56 ext;
#X obj 395 335 mmm-ctrl \$1 \$2 14 dec 1 100 20 ext;
#X obj 395 65 mmm-ctrl \$1 \$2 2 tone -50 50 23 int;
#X obj 395 85 mmm-ctrl \$1 \$2 3 lowpass 0 127 101 int;
#X obj 395 105 mmm-ctrl \$1 \$2 4 xfade -50 50 8 int;
#X obj 395 125 mmm-ctrl \$1 \$2 5 attack 0 1000 13 int;
#X obj 395 145 mmm-ctrl \$1 \$2 6 decay 5 500 86 ext;
#X obj 395 165 mmm-ctrl \$1 \$2 7 body 0 100 5 int;
#X msg 300 65 snare \$1;
#X msg 300 85 tone \$1;
#X msg 300 105 lowpass \$1;
#X msg 300 125 xfade \$1;
#X msg 300 145 attack \$1;
#X msg 300 165 decay \$1;
#X msg 300 185 body \$1;
#X obj 395 315 mmm-ctrl \$1 \$2 13 noiz 0 127 1 int;
#X obj 395 45 mmm-ctrl \$1 \$2 1 level 0 100 -1 int;
#X obj 395 215 mmm-ctrl \$1 \$2 8 kick 0 100 -1 int;
#X msg 22 18 version 0.3.4;
#X connect 0 0 5 0;
#X connect 1 0 4 0;
#X connect 2 0 0 0;
#X connect 3 0 1 0;
#X connect 6 0 32 1;
#X connect 7 0 4 0;
#X connect 7 0 5 0;
#X connect 8 0 4 0;
#X connect 8 0 5 0;
#X connect 9 0 23 1;
#X connect 10 0 26 1;
#X connect 11 0 27 1;
#X connect 12 0 14 0;
#X connect 13 0 24 1;
#X connect 14 0 13 0;
#X connect 16 0 7 0;
#X connect 17 0 7 0;
#X connect 18 0 7 0;
#X connect 19 0 7 0;
#X connect 20 0 7 0;
#X connect 21 0 7 0;
#X connect 22 0 7 0;
#X connect 23 0 17 0;
#X connect 23 2 9 0;
#X connect 24 0 18 0;
#X connect 24 2 12 0;
#X connect 25 0 19 0;
#X connect 26 0 20 0;
#X connect 26 2 10 0;
#X connect 27 0 22 0;
#X connect 27 2 11 0;
#X connect 28 0 35 0;
#X connect 29 0 36 0;
#X connect 30 0 37 0;
#X connect 31 0 38 0;
#X connect 32 0 39 0;
#X connect 32 2 6 0;
#X connect 33 0 40 0;
#X connect 34 0 8 0;
#X connect 35 0 8 0;
#X connect 36 0 8 0;
#X connect 37 0 8 0;
#X connect 38 0 8 0;
#X connect 39 0 8 0;
#X connect 40 0 8 0;
#X connect 41 0 21 0;
#X connect 42 0 34 0;
#X connect 43 0 16 0;
