#N canvas 614 52 484 566 10;
#X obj 203 402 r~ 1-nothing;
#X obj 353 402 r~ 1-nothing;
#N canvas 31 296 450 410 kilodrum-core 0;
#X obj 258 71 route bd sd hh cv cp;
#N canvas 0 0 1129 786 kbd 0;
#X obj 113 750 outlet~;
#X obj 85 96 spigot;
#X obj 85 73 t f f;
#X obj 51 20 inlet trigger;
#X msg 586 462 1;
#X msg 676 464 0;
#X obj 63 438 *~ 90;
#X obj 712 39 inlet;
#X obj 676 543 outlet onoff;
#X obj 197 215 f;
#X obj 679 160 * 130;
#X obj 64 283 min 210;
#X obj 100 122 t b f;
#N canvas 0 0 450 300 tgl 0;
#X obj 160 82 inlet;
#X obj 160 109 b;
#X obj 181 162 mod 2;
#X obj 160 131 f;
#X obj 260 133 + 1;
#X obj 183 201 == 0;
#X obj 152 228 outlet;
#X obj 227 228 outlet;
#X connect 0 0 1 0;
#X connect 1 0 3 0;
#X connect 2 0 4 0;
#X connect 2 0 5 0;
#X connect 2 0 6 0;
#X connect 3 0 2 0;
#X connect 4 0 3 1;
#X connect 5 0 7 0;
#X restore 70 151 pd tgl;
#X obj 70 174 sel 0 1;
#X obj 284 219 f;
#X obj 63 458 +~ 58;
#X obj 586 542 switch~;
#X obj 64 352 vline~;
#N canvas 0 0 450 300 core 0;
#X obj 175 175 vline~;
#X msg 175 128 1 0.7 0 \, 0 \$1 0.7;
#X msg 190 148 0 10 0;
#X obj 150 84 t b f;
#X obj 190 84 b;
#X obj 131 217 osc~;
#X obj 131 244 *~;
#X obj 131 24 inlet~ freq;
#X obj 150 44 inlet trig;
#X obj 190 64 inlet anti;
#X obj 131 265 outlet~;
#X obj 273 64 inlet click;
#X obj 175 107 pack f 0.7;
#X obj 321 124 * 0.25;
#X obj 150 191 f;
#X obj 176 220 dbtorms~;
#X obj 176 198 *~ 100;
#X connect 0 0 16 0;
#X connect 1 0 0 0;
#X connect 2 0 0 0;
#X connect 3 0 14 0;
#X connect 3 1 12 0;
#X connect 4 0 2 0;
#X connect 5 0 6 0;
#X connect 6 0 10 0;
#X connect 7 0 5 0;
#X connect 8 0 3 0;
#X connect 9 0 4 0;
#X connect 11 0 12 1;
#X connect 11 0 13 0;
#X connect 12 0 1 0;
#X connect 13 0 14 1;
#X connect 14 0 5 1;
#X connect 15 0 6 1;
#X connect 16 0 15 0;
#X restore 179 539 pd core;
#X obj 113 727 *~ 1;
#X obj 676 389 del;
#X obj 676 368 + 5;
#X obj 210 155 + 10;
#N canvas 0 0 450 578 click 0;
#X obj 161 86 vline~;
#X obj 161 109 *~;
#X obj 161 290 lop~ 1500;
#X obj 161 312 hip~ 8000;
#X msg 161 54 1 0 0 \, 0 8 0;
#X obj 161 33 b;
#X obj 160 13 inlet;
#X obj 160 338 outlet~;
#X obj 162 230 *~;
#X obj 175 205 noise~;
#X obj 162 260 *~ 0.4;
#X connect 0 0 1 0;
#X connect 0 0 1 1;
#X connect 1 0 8 0;
#X connect 2 0 3 0;
#X connect 3 0 7 0;
#X connect 4 0 0 0;
#X connect 5 0 4 0;
#X connect 6 0 5 0;
#X connect 8 0 10 0;
#X connect 9 0 8 1;
#X connect 10 0 2 0;
#X restore 346 541 pd click;
#X obj 346 567 *~ 1;
#N canvas 0 0 450 300 core 0;
#X obj 175 169 vline~;
#X msg 175 128 1 0.7 0 \, 0 \$1 0.7;
#X msg 190 148 0 10 0;
#X obj 150 84 t b f;
#X obj 190 84 b;
#X obj 131 217 osc~;
#X obj 131 244 *~;
#X obj 131 24 inlet~ freq;
#X obj 150 44 inlet trig;
#X obj 190 64 inlet anti;
#X obj 131 265 outlet~;
#X obj 273 64 inlet click;
#X obj 175 107 pack f 0.7;
#X obj 321 124 * 0.25;
#X obj 150 191 f;
#X obj 176 217 dbtorms~;
#X obj 176 195 *~ 100;
#X connect 0 0 16 0;
#X connect 1 0 0 0;
#X connect 2 0 0 0;
#X connect 3 0 14 0;
#X connect 3 1 12 0;
#X connect 4 0 2 0;
#X connect 5 0 6 0;
#X connect 6 0 10 0;
#X connect 7 0 5 0;
#X connect 8 0 3 0;
#X connect 9 0 4 0;
#X connect 11 0 12 1;
#X connect 11 0 13 0;
#X connect 12 0 1 0;
#X connect 13 0 14 1;
#X connect 14 0 5 1;
#X connect 15 0 6 1;
#X connect 16 0 15 0;
#X restore 249 539 pd core;
#X obj 64 306 pack f 0.5;
#X obj 760 195 + 0.5;
#X obj 792 147 * 2;
#X obj 915 167 * -1;
#X obj 915 194 + 1;
#X msg 64 331 \$2 0.1 0 \, 1 1 0.1 \, 0 \$1 1.1;
#X obj 664 90 pow 2;
#X obj 64 406 dbtorms~;
#X obj 64 384 *~ 100;
#X obj 210 133 * 4000;
#X obj 711 62 route decay pitch click volume;
#X obj 91 50 * 1;
#X connect 1 0 12 0;
#X connect 2 0 1 0;
#X connect 2 1 1 1;
#X connect 3 0 38 0;
#X connect 4 0 8 0;
#X connect 4 0 17 0;
#X connect 5 0 8 0;
#X connect 5 0 17 0;
#X connect 6 0 16 0;
#X connect 7 0 37 0;
#X connect 9 0 11 0;
#X connect 9 0 19 1;
#X connect 9 0 22 0;
#X connect 9 0 26 2;
#X connect 10 0 6 1;
#X connect 11 0 27 0;
#X connect 12 0 4 0;
#X connect 12 0 13 0;
#X connect 12 0 24 0;
#X connect 12 1 20 1;
#X connect 13 0 14 0;
#X connect 14 0 9 0;
#X connect 14 1 15 0;
#X connect 15 0 11 0;
#X connect 15 0 19 2;
#X connect 15 0 22 0;
#X connect 15 0 26 1;
#X connect 16 0 19 0;
#X connect 16 0 26 0;
#X connect 18 0 35 0;
#X connect 19 0 20 0;
#X connect 20 0 0 0;
#X connect 21 0 5 0;
#X connect 22 0 21 0;
#X connect 23 0 9 1;
#X connect 23 0 15 1;
#X connect 24 0 25 0;
#X connect 25 0 20 0;
#X connect 26 0 20 0;
#X connect 27 0 32 0;
#X connect 28 0 27 1;
#X connect 29 0 28 0;
#X connect 30 0 31 0;
#X connect 31 0 19 3;
#X connect 31 0 26 3;
#X connect 32 0 18 0;
#X connect 33 0 36 0;
#X connect 34 0 6 0;
#X connect 35 0 34 0;
#X connect 36 0 23 0;
#X connect 37 0 33 0;
#X connect 37 1 10 0;
#X connect 37 2 25 1;
#X connect 37 2 29 0;
#X connect 37 2 30 0;
#X connect 37 3 38 1;
#X connect 38 0 2 0;
#X restore 80 250 pd kbd;
#N canvas 0 0 1129 786 ksd 0;
#X obj 290 733 outlet~;
#X obj 263 383 noise~;
#X obj 169 422 *~;
#X obj 169 363 *~;
#X obj 171 288 clip~ -0.5 0.5;
#X obj 170 341 +~ 0.5;
#X obj 155 654 clip~ -0.99 0.99;
#X obj 169 392 *~ 0.2;
#X obj 574 546 osc~;
#X obj 282 26 inlet trigger;
#X obj 290 711 *~;
#X obj 171 211 *~ 50;
#X obj 224 232 +~ 70;
#X obj 171 233 +~ 50;
#X obj 224 254 osc~;
#X obj 171 257 osc~;
#X obj 712 39 inlet;
#X msg 849 536 1;
#X msg 928 546 0;
#X obj 973 645 outlet onoff;
#X obj 864 631 switch~ 0;
#X obj 567 444 *~ 130;
#X obj 351 384 +~ 1;
#X obj 712 114 + 40;
#X msg 500 193 1 0.2 0 \, 0 \$1 0.2;
#X obj 500 171 f;
#X obj 500 217 vline~;
#X msg 607 253 1 0.2 0 \, 0 \$1 0.2;
#X obj 607 274 vline~;
#X obj 567 589 *~;
#X obj 567 525 +~ 80;
#X obj 291 122 t b f;
#X obj 662 470 + 80;
#X obj 662 448 * 250;
#X obj 568 473 *~ 0;
#X obj 566 613 *~ 1;
#X obj 606 213 f;
#X obj 937 84 * 100;
#N canvas 0 0 450 300 filter1 0;
#X obj 169 153 hip~ 1500;
#X obj 347 136 * 2;
#X obj 169 128 bp~ 3000 1.8;
#X obj 347 113 + 1300;
#X obj 347 91 * 1700;
#X obj 331 32 inlet;
#X obj 169 102 inlet~;
#X obj 169 184 outlet~;
#X connect 0 0 7 0;
#X connect 1 0 2 1;
#X connect 2 0 0 0;
#X connect 3 0 1 0;
#X connect 3 0 0 1;
#X connect 4 0 3 0;
#X connect 5 0 4 0;
#X connect 6 0 2 0;
#X restore 231 522 pd filter1;
#N canvas 0 0 450 300 filter2 0;
#X obj 331 32 inlet;
#X obj 169 102 inlet~;
#X obj 169 184 outlet~;
#X obj 170 125 hip~ 4000;
#X obj 170 145 lp2_cheb~ 8000 2;
#X obj 347 136 * 3;
#X obj 347 113 + 3000;
#X obj 347 91 * 3000;
#X connect 0 0 7 0;
#X connect 1 0 3 0;
#X connect 3 0 4 0;
#X connect 4 0 2 0;
#X connect 5 0 4 1;
#X connect 6 0 3 1;
#X connect 6 0 5 0;
#X connect 7 0 6 0;
#X restore 333 521 pd filter2;
#X obj 333 573 *~ 0;
#X obj 346 464 f;
#X obj 403 522 f;
#X obj 403 543 * -1;
#X obj 403 564 + 1;
#X obj 236 584 *~ 0;
#X obj 1011 141 * 0.2;
#X obj 558 365 *~;
#X obj 169 465 *~ 7;
#X obj 334 547 *~ 2;
#X obj 472 386 dbtorms~;
#X obj 937 112 + 10;
#X obj 712 86 * 330;
#X obj 628 360 dbtorms~;
#X obj 628 338 *~ 100;
#X msg 290 153 0.25;
#X obj 351 364 *~ -1;
#X obj 472 364 *~ 100;
#X obj 170 443 *~;
#X obj 155 616 *~ 1;
#X obj 908 234 max;
#X obj 908 206 t b f;
#X obj 908 258 + 10;
#X obj 901 325 delay;
#X obj 899 297 f;
#X obj 713 62 route ndecay cutoff pitch pitchenv tone tdecay filter
dirty volume;
#X obj 287 100 spigot;
#X obj 287 77 t f f;
#X obj 289 58 * 1;
#X connect 1 0 2 1;
#X connect 2 0 58 0;
#X connect 3 0 7 0;
#X connect 4 0 5 0;
#X connect 5 0 3 0;
#X connect 6 0 10 0;
#X connect 7 0 2 0;
#X connect 8 0 29 0;
#X connect 9 0 68 0;
#X connect 10 0 0 0;
#X connect 11 0 13 0;
#X connect 11 0 12 0;
#X connect 12 0 14 0;
#X connect 13 0 15 0;
#X connect 14 0 4 0;
#X connect 15 0 4 0;
#X connect 16 0 65 0;
#X connect 17 0 20 0;
#X connect 17 0 19 0;
#X connect 18 0 19 0;
#X connect 18 0 20 0;
#X connect 21 0 34 0;
#X connect 22 0 2 0;
#X connect 23 0 25 1;
#X connect 23 0 60 0;
#X connect 24 0 26 0;
#X connect 25 0 24 0;
#X connect 26 0 11 0;
#X connect 26 0 3 1;
#X connect 26 0 56 0;
#X connect 26 0 57 0;
#X connect 27 0 28 0;
#X connect 28 0 47 0;
#X connect 28 0 47 1;
#X connect 28 0 54 0;
#X connect 29 0 35 0;
#X connect 30 0 8 0;
#X connect 31 0 25 0;
#X connect 31 0 55 0;
#X connect 31 0 17 0;
#X connect 31 0 36 0;
#X connect 31 0 64 0;
#X connect 31 1 10 1;
#X connect 32 0 30 1;
#X connect 33 0 32 0;
#X connect 34 0 30 0;
#X connect 35 0 10 0;
#X connect 36 0 27 0;
#X connect 37 0 51 0;
#X connect 38 0 45 0;
#X connect 39 0 49 0;
#X connect 40 0 59 0;
#X connect 41 0 39 1;
#X connect 41 0 38 1;
#X connect 42 0 40 1;
#X connect 42 0 43 0;
#X connect 43 0 44 0;
#X connect 44 0 45 1;
#X connect 45 0 59 0;
#X connect 46 0 7 1;
#X connect 47 0 21 0;
#X connect 48 0 38 0;
#X connect 48 0 39 0;
#X connect 49 0 40 0;
#X connect 50 0 58 1;
#X connect 51 0 36 1;
#X connect 51 0 61 0;
#X connect 52 0 23 0;
#X connect 53 0 29 1;
#X connect 54 0 53 0;
#X connect 55 0 14 1;
#X connect 55 0 15 1;
#X connect 55 0 8 1;
#X connect 56 0 22 0;
#X connect 57 0 50 0;
#X connect 58 0 48 0;
#X connect 59 0 6 0;
#X connect 60 0 62 0;
#X connect 61 0 60 0;
#X connect 61 1 60 1;
#X connect 62 0 64 1;
#X connect 63 0 18 0;
#X connect 64 0 63 0;
#X connect 65 0 52 0;
#X connect 65 1 41 0;
#X connect 65 2 33 0;
#X connect 65 3 34 1;
#X connect 65 4 35 1;
#X connect 65 5 37 0;
#X connect 65 6 42 0;
#X connect 65 7 46 0;
#X connect 65 8 68 1;
#X connect 66 0 31 0;
#X connect 67 0 66 0;
#X connect 67 1 66 1;
#X connect 68 0 67 0;
#X restore 132 250 pd ksd;
#N canvas 0 164 1111 723 khh 0;
#X obj 427 683 outlet~;
#X obj 426 591 *~;
#X obj 871 29 inlet otrigger;
#X obj 708 34 inlet ctrigger;
#X msg 1054 564 1;
#X obj 967 624 switch~;
#X obj 1035 177 inlet hhcon;
#X obj 1056 632 outlet onoff;
#X obj 546 344 f;
#X obj 518 343 f;
#X obj 950 269 + 120;
#X obj 427 631 *~ 1;
#X obj 519 402 vline~;
#X obj 673 176 t b f;
#X obj 889 167 t b f;
#N canvas 0 0 732 557 signal1 0;
#X obj 90 80 wrap~;
#X obj 79 57 -~ 0.5;
#X obj 90 108 -~ 0.5;
#X obj 78 128 -~;
#X obj 105 242 wrap~;
#X obj 92 221 -~ 0.5;
#X obj 105 262 -~ 0.5;
#X obj 93 282 -~;
#X obj 79 312 *~;
#X obj 93 196 phasor~;
#X obj 78 37 phasor~ 1747;
#X obj 92 176 +~ 2781;
#X obj 392 396 clip~ -0.1 0.1;
#X obj 167 81 wrap~;
#X obj 156 58 -~ 0.5;
#X obj 167 109 -~ 0.5;
#X obj 155 129 -~;
#X obj 182 243 wrap~;
#X obj 169 222 -~ 0.5;
#X obj 182 263 -~ 0.5;
#X obj 170 283 -~;
#X obj 156 307 *~;
#X obj 170 197 phasor~;
#X obj 156 38 phasor~ 1909;
#X obj 169 177 +~ 2490;
#X obj 245 81 wrap~;
#X obj 234 58 -~ 0.5;
#X obj 245 109 -~ 0.5;
#X obj 233 129 -~;
#X obj 260 243 wrap~;
#X obj 247 222 -~ 0.5;
#X obj 260 263 -~ 0.5;
#X obj 248 283 -~;
#X obj 234 307 *~;
#X obj 248 197 phasor~;
#X obj 234 38 phasor~ 1400;
#X obj 247 177 +~ 2509;
#X obj 323 81 wrap~;
#X obj 312 58 -~ 0.5;
#X obj 323 109 -~ 0.5;
#X obj 311 129 -~;
#X obj 338 243 wrap~;
#X obj 325 222 -~ 0.5;
#X obj 338 263 -~ 0.5;
#X obj 326 283 -~;
#X obj 312 307 *~;
#X obj 326 197 phasor~;
#X obj 312 38 phasor~ 1560;
#X obj 325 177 +~ 2740;
#X obj 401 81 wrap~;
#X obj 390 58 -~ 0.5;
#X obj 401 109 -~ 0.5;
#X obj 389 129 -~;
#X obj 416 243 wrap~;
#X obj 403 222 -~ 0.5;
#X obj 416 263 -~ 0.5;
#X obj 404 283 -~;
#X obj 390 307 *~;
#X obj 404 197 phasor~;
#X obj 390 38 phasor~ 1370;
#X obj 403 177 +~ 2390;
#X obj 93 154 *~ 4000;
#X obj 170 155 *~ 400;
#X obj 248 155 *~ 4000;
#X obj 326 155 *~ 400;
#X obj 404 155 *~ 4000;
#X obj 393 502 outlet~;
#X obj 410 434 sig~ 23017;
#X obj 393 455 vcf~ 21;
#X obj 393 478 *~ 3;
#X connect 0 0 2 0;
#X connect 1 0 0 0;
#X connect 1 0 3 0;
#X connect 2 0 3 1;
#X connect 3 0 8 0;
#X connect 3 0 61 0;
#X connect 4 0 6 0;
#X connect 5 0 4 0;
#X connect 5 0 7 0;
#X connect 6 0 7 1;
#X connect 7 0 8 1;
#X connect 8 0 12 0;
#X connect 9 0 5 0;
#X connect 10 0 1 0;
#X connect 11 0 9 0;
#X connect 12 0 68 0;
#X connect 13 0 15 0;
#X connect 14 0 13 0;
#X connect 14 0 16 0;
#X connect 15 0 16 1;
#X connect 16 0 21 0;
#X connect 16 0 62 0;
#X connect 17 0 19 0;
#X connect 18 0 17 0;
#X connect 18 0 20 0;
#X connect 19 0 20 1;
#X connect 20 0 21 1;
#X connect 21 0 12 0;
#X connect 22 0 18 0;
#X connect 23 0 14 0;
#X connect 24 0 22 0;
#X connect 25 0 27 0;
#X connect 26 0 25 0;
#X connect 26 0 28 0;
#X connect 27 0 28 1;
#X connect 28 0 33 0;
#X connect 28 0 63 0;
#X connect 29 0 31 0;
#X connect 30 0 29 0;
#X connect 30 0 32 0;
#X connect 31 0 32 1;
#X connect 32 0 33 1;
#X connect 33 0 12 0;
#X connect 34 0 30 0;
#X connect 35 0 26 0;
#X connect 36 0 34 0;
#X connect 37 0 39 0;
#X connect 38 0 37 0;
#X connect 38 0 40 0;
#X connect 39 0 40 1;
#X connect 40 0 45 0;
#X connect 40 0 64 0;
#X connect 41 0 43 0;
#X connect 42 0 41 0;
#X connect 42 0 44 0;
#X connect 43 0 44 1;
#X connect 44 0 45 1;
#X connect 45 0 12 0;
#X connect 46 0 42 0;
#X connect 47 0 38 0;
#X connect 48 0 46 0;
#X connect 49 0 51 0;
#X connect 50 0 49 0;
#X connect 50 0 52 0;
#X connect 51 0 52 1;
#X connect 52 0 57 0;
#X connect 52 0 65 0;
#X connect 53 0 55 0;
#X connect 54 0 53 0;
#X connect 54 0 56 0;
#X connect 55 0 56 1;
#X connect 56 0 57 1;
#X connect 57 0 12 0;
#X connect 58 0 54 0;
#X connect 59 0 50 0;
#X connect 60 0 58 0;
#X connect 61 0 11 0;
#X connect 62 0 24 0;
#X connect 63 0 36 0;
#X connect 64 0 48 0;
#X connect 65 0 60 0;
#X connect 67 0 68 1;
#X connect 68 0 69 0;
#X connect 69 0 66 0;
#X restore 131 251 pd signal1;
#X obj 518 484 *~ 4;
#X obj 356 342 f;
#X obj 151 411 max -1;
#X obj 151 433 + 1;
#X obj 151 387 * -2;
#N canvas 0 0 1129 786 signal2 0;
#X obj 153 199 *~;
#X obj 153 269 hip~ 6000;
#X obj 153 238 hip~ 8000;
#X obj 269 455 *~ 0.69;
#X obj 154 104 sig~ 20188;
#X obj 269 350 delread~ \$0-d 88;
#X obj 167 153 sig~ 25001;
#X obj 166 174 tabosc4~ \$0-table24;
#X obj 154 126 tabosc4~ \$0-table24;
#X obj 269 433 vcf~ 3;
#X obj 284 397 vline~;
#X msg 284 374 6200 0.2 0 \, 1000 \$1 0.2;
#X obj 198 325 delwrite~ \$0-d 100;
#X obj 350 197 inlet;
#X obj 156 499 outlet~;
#X obj 632 11 loadbang;
#X obj 632 122 table \$0-table24;
#X obj 632 35 \$0;
#X msg 632 61 \; \$1-table24 sinesum 256 1 1 1 1 0 0 0 0 1 0 0 0 0
0 0 1 0 0 0 0 0 0 1 0 0 0 0 0 0 1 0 0 0 0 1 0 0 0 0 0 1 0 0 0 0 1 \,
normalize 0.4;
#X obj 153 300 *~ 2;
#X obj 360 257 f;
#X connect 0 0 2 0;
#X connect 1 0 19 0;
#X connect 2 0 1 0;
#X connect 3 0 14 0;
#X connect 4 0 8 0;
#X connect 5 0 9 0;
#X connect 6 0 7 0;
#X connect 7 0 0 1;
#X connect 8 0 0 0;
#X connect 9 0 3 0;
#X connect 10 0 9 1;
#X connect 11 0 10 0;
#X connect 13 0 20 0;
#X connect 15 0 17 0;
#X connect 17 0 18 0;
#X connect 19 0 14 0;
#X connect 19 0 12 0;
#X connect 20 0 11 0;
#X restore 337 239 pd signal2;
#N canvas 0 0 450 300 signal3 0;
#X obj 293 95 *~;
#X obj 279 117 *~;
#X obj 280 138 *~ 4000;
#X obj 280 159 +~ 8200;
#X obj 280 28 osc~ 807;
#X obj 292 52 osc~ 1130;
#X obj 307 72 osc~ 1040;
#X obj 152 31 noise~;
#X obj 279 200 *~ 0.2;
#X obj 168 58 sig~ 8336;
#X obj 280 179 osc~;
#X obj 151 272 outlet~;
#X obj 151 121 vcf~ 21;
#X connect 0 0 1 1;
#X connect 1 0 2 0;
#X connect 2 0 3 0;
#X connect 3 0 10 0;
#X connect 4 0 1 0;
#X connect 5 0 0 0;
#X connect 6 0 0 1;
#X connect 7 0 12 0;
#X connect 8 0 11 0;
#X connect 9 0 12 1;
#X connect 10 0 8 0;
#X connect 12 0 11 0;
#X restore 449 233 pd signal3;
#X obj 356 364 * -2;
#X obj 356 408 abs;
#X obj 356 387 + 1;
#X obj 356 429 * -1;
#X obj 356 450 + 1;
#X obj 442 361 * 2;
#X obj 441 382 - 1;
#X obj 439 402 max 0;
#X obj 420 450 *~ 0;
#X obj 337 471 *~ 0;
#X obj 132 468 *~ 0;
#X obj 519 446 dbtorms~;
#X obj 519 424 *~ 100;
#X msg 519 373 1 0.2 0 \, 0 \$1 0.2;
#X obj 890 249 * 315;
#X obj 793 389 + 5;
#X obj 780 452 delay;
#X msg 778 480 0;
#X obj 950 248 * 1900;
#X obj 427 657 *~ 0.4;
#X obj 890 270 + 20;
#X obj 697 147 spigot;
#X obj 697 124 t f f;
#X obj 699 105 * 1;
#X obj 888 139 spigot;
#X obj 888 116 t f f;
#X obj 890 97 * 1;
#X obj 890 224 route cdecay odecay tone cvolume ovolume;
#X connect 1 0 11 0;
#X connect 2 0 49 0;
#X connect 3 0 46 0;
#X connect 4 0 5 0;
#X connect 4 0 7 0;
#X connect 6 0 50 0;
#X connect 8 0 36 0;
#X connect 8 0 38 0;
#X connect 8 0 21 0;
#X connect 9 0 36 0;
#X connect 9 0 38 0;
#X connect 9 0 21 0;
#X connect 10 0 8 1;
#X connect 11 0 42 0;
#X connect 12 0 35 0;
#X connect 13 0 4 0;
#X connect 13 0 9 0;
#X connect 13 1 11 1;
#X connect 14 0 8 0;
#X connect 14 0 4 0;
#X connect 14 1 11 1;
#X connect 15 0 33 0;
#X connect 16 0 1 1;
#X connect 17 0 20 0;
#X connect 17 0 23 0;
#X connect 17 0 28 0;
#X connect 18 0 19 0;
#X connect 19 0 33 1;
#X connect 20 0 18 0;
#X connect 21 0 32 0;
#X connect 22 0 31 0;
#X connect 23 0 25 0;
#X connect 24 0 26 0;
#X connect 25 0 24 0;
#X connect 26 0 27 0;
#X connect 27 0 32 1;
#X connect 28 0 29 0;
#X connect 29 0 30 0;
#X connect 30 0 31 1;
#X connect 31 0 1 0;
#X connect 32 0 1 0;
#X connect 33 0 1 0;
#X connect 34 0 16 0;
#X connect 35 0 34 0;
#X connect 36 0 12 0;
#X connect 37 0 43 0;
#X connect 38 0 39 0;
#X connect 39 0 40 0;
#X connect 40 0 5 0;
#X connect 40 0 7 0;
#X connect 41 0 10 0;
#X connect 42 0 0 0;
#X connect 43 0 9 1;
#X connect 44 0 13 0;
#X connect 45 0 44 0;
#X connect 45 1 44 1;
#X connect 46 0 45 0;
#X connect 47 0 14 0;
#X connect 48 0 47 0;
#X connect 48 1 47 1;
#X connect 49 0 48 0;
#X connect 50 0 37 0;
#X connect 50 1 41 0;
#X connect 50 2 17 0;
#X connect 50 3 46 1;
#X connect 50 4 49 1;
#X restore 177 251 pd khh;
#N canvas 463 133 689 518 kcv 0;
#X obj 123 20 inlet;
#X obj 99 431 outlet~;
#X obj 114 376 *~;
#X msg 351 261 1;
#X msg 384 314 0;
#X obj 518 348 outlet onoff;
#X msg 187 310 0;
#X obj 87 318 *~;
#X obj 125 123 t b b f;
#X obj 137 340 osc~ 700;
#X obj 185 231 vline~;
#X obj 384 255 del 22;
#X obj 367 363 switch~;
#X obj 432 43 inlet;
#X obj 185 185 f;
#X msg 185 210 1 0.2 0 \, 0 \$1 0.2;
#X obj 416 236 + 5;
#X obj 482 198 + 300;
#X obj 481 176 * 3000;
#X obj 186 276 dbtorms~;
#X obj 186 254 *~ 100;
#X obj 360 187 + 15;
#X obj 360 167 * 160;
#X obj 127 97 spigot;
#X obj 127 74 t f f;
#X obj 129 55 * 1;
#X obj 432 70 route decay pitch volume;
#X connect 0 0 25 0;
#X connect 2 0 1 0;
#X connect 3 0 5 0;
#X connect 3 0 12 0;
#X connect 4 0 5 0;
#X connect 4 0 12 0;
#X connect 6 0 9 1;
#X connect 7 0 2 0;
#X connect 8 0 6 0;
#X connect 8 0 3 0;
#X connect 8 0 11 0;
#X connect 8 0 14 0;
#X connect 8 2 7 1;
#X connect 9 0 2 1;
#X connect 10 0 20 0;
#X connect 11 0 4 0;
#X connect 13 0 26 0;
#X connect 14 0 15 0;
#X connect 15 0 10 0;
#X connect 16 0 11 1;
#X connect 17 0 9 0;
#X connect 18 0 17 0;
#X connect 19 0 7 0;
#X connect 20 0 19 0;
#X connect 21 0 14 1;
#X connect 21 0 16 0;
#X connect 22 0 21 0;
#X connect 23 0 8 0;
#X connect 24 0 23 0;
#X connect 24 1 23 1;
#X connect 25 0 24 0;
#X connect 26 0 22 0;
#X connect 26 1 18 0;
#X connect 26 2 25 1;
#X restore 221 251 pd kcv;
#N canvas 0 0 747 549 kcp 0;
#X obj 222 259 vline~;
#X obj 217 317 dbtorms~;
#X obj 31 255 noise~;
#X obj 32 353 *~;
#X obj 31 280 bp2~ 1000 1 3000;
#X obj 160 201 t b b;
#X obj 103 195 t b b;
#X obj 103 175 del 30;
#X obj 33 376 hip~ 800;
#X obj 103 218 1.5;
#X obj 128 219 50;
#X obj 160 223 0.7;
#X obj 185 223 0;
#X obj 103 152 t b b f;
#X obj 22 25 inlet trigger;
#X obj 34 442 outlet~;
#X obj 223 281 *~ 100;
#X obj 472 37 inlet data;
#X obj 222 196 pack f 2000;
#X text 201 387 based on r-clap/r-808-clap by roman hafeli;
#X obj 439 130 + 100;
#X obj 472 87 * 3000;
#X msg 222 223 \$1 \, 0 34 \, \$1 0.5 10.5 \, 0 34 11 \, \$1 0 23 \,
0 34 23 \, \$1 0 31 \, 0 34 31 \, \$1 0 36 \, 0 230 36.5 \, 0 500 65
\, 0 \$2 120;
#X obj 274 124 * 2000;
#X obj 274 144 + 1000;
#X obj 521 305 + 130;
#X obj 494 338 delay;
#X msg 475 390 1;
#X msg 494 366 0;
#X obj 475 437 switch~;
#X obj 574 427 outlet;
#X obj 85 123 spigot;
#X obj 85 100 t f f;
#X obj 472 61 route decay pitch volume;
#X obj 38 412 *~ 1;
#X connect 0 0 16 0;
#X connect 1 0 3 1;
#X connect 2 0 4 0;
#X connect 3 0 8 0;
#X connect 4 0 3 0;
#X connect 5 0 11 0;
#X connect 5 1 12 0;
#X connect 6 0 9 0;
#X connect 6 1 10 0;
#X connect 7 0 6 0;
#X connect 8 0 34 0;
#X connect 9 0 4 2;
#X connect 10 0 4 3;
#X connect 11 0 4 2;
#X connect 12 0 4 3;
#X connect 13 0 7 0;
#X connect 13 0 27 0;
#X connect 13 0 26 0;
#X connect 13 1 5 0;
#X connect 13 2 18 0;
#X connect 14 0 32 0;
#X connect 16 0 1 0;
#X connect 17 0 33 0;
#X connect 18 0 22 0;
#X connect 20 0 18 1;
#X connect 20 0 25 0;
#X connect 21 0 20 0;
#X connect 22 0 0 0;
#X connect 23 0 24 0;
#X connect 24 0 4 1;
#X connect 25 0 26 1;
#X connect 26 0 28 0;
#X connect 27 0 29 0;
#X connect 27 0 30 0;
#X connect 28 0 29 0;
#X connect 28 0 30 0;
#X connect 31 0 13 0;
#X connect 32 0 31 0;
#X connect 32 1 31 1;
#X connect 33 0 21 0;
#X connect 33 1 23 0;
#X connect 33 2 34 1;
#X connect 34 0 15 0;
#X restore 264 250 pd kcp;
#X obj 55 70 inlet trigger;
#X obj 250 45 inlet data;
#X obj 81 352 outlet~;
#X obj 195 377 outlet;
#N canvas 0 0 450 300 or 0;
#X obj 184 89 inlet;
#X obj 338 95 inlet;
#X obj 322 154 t b f;
#X obj 325 194 ||;
#X obj 322 245 outlet;
#X connect 0 0 3 0;
#X connect 1 0 2 0;
#X connect 2 0 3 0;
#X connect 2 1 3 1;
#X connect 3 0 4 0;
#X restore 270 283 pd or;
#N canvas 0 0 450 300 or 0;
#X obj 184 89 inlet;
#X obj 338 95 inlet;
#X obj 322 154 t b f;
#X obj 325 194 ||;
#X obj 322 245 outlet;
#X connect 0 0 3 0;
#X connect 1 0 2 0;
#X connect 2 0 3 0;
#X connect 2 1 3 1;
#X connect 3 0 4 0;
#X restore 245 303 pd or;
#N canvas 0 0 450 300 or 0;
#X obj 184 89 inlet;
#X obj 338 95 inlet;
#X obj 322 154 t b f;
#X obj 325 194 ||;
#X obj 322 245 outlet;
#X connect 0 0 3 0;
#X connect 1 0 2 0;
#X connect 2 0 3 0;
#X connect 2 1 3 1;
#X connect 3 0 4 0;
#X restore 220 322 pd or;
#N canvas 0 0 450 300 or 0;
#X obj 184 89 inlet;
#X obj 338 95 inlet;
#X obj 322 154 t b f;
#X obj 325 194 ||;
#X obj 322 245 outlet;
#X connect 0 0 3 0;
#X connect 1 0 2 0;
#X connect 2 0 3 0;
#X connect 2 1 3 1;
#X connect 3 0 4 0;
#X restore 195 341 pd or;
#X obj 310 140 route 0 1 2 3 4 5;
#X obj 55 97 route bd sd ch oh cv cp;
#X connect 0 0 1 1;
#X connect 0 1 2 1;
#X connect 0 2 3 2;
#X connect 0 3 4 1;
#X connect 0 4 5 1;
#X connect 1 0 8 0;
#X connect 1 1 13 0;
#X connect 2 0 8 0;
#X connect 2 1 12 0;
#X connect 3 0 8 0;
#X connect 3 1 11 0;
#X connect 4 0 8 0;
#X connect 4 1 10 0;
#X connect 5 0 8 0;
#X connect 5 1 10 1;
#X connect 6 0 15 0;
#X connect 7 0 0 0;
#X connect 10 0 11 1;
#X connect 11 0 12 1;
#X connect 12 0 13 1;
#X connect 13 0 9 0;
#X connect 14 0 1 0;
#X connect 14 1 2 0;
#X connect 14 2 3 0;
#X connect 14 3 3 1;
#X connect 14 4 4 0;
#X connect 14 5 5 0;
#X connect 15 0 1 0;
#X connect 15 1 2 0;
#X connect 15 2 3 0;
#X connect 15 3 3 1;
#X connect 15 4 4 0;
#X connect 15 5 5 0;
#X connect 15 6 14 0;
#X restore 34 455 pd kilodrum-core;
#N canvas 0 0 542 489 triggers 0;
#X obj 114 432 outlet;
#X obj 114 326 unpack s f;
#X obj 169 350 / 100;
#X obj 114 375 pack s f;
#X msg 393 273 cp \$1;
#X msg 319 265 cv \$1;
#X msg 68 220 bd \$1;
#X msg 131 226 sd \$1;
#X msg 178 239 ch \$1;
#X msg 239 248 oh \$1;
#X obj 114 399 list trim;
#X obj 49 16 mmm-ctrl \$1 \$2 1 bassdrum 0 100 0 int;
#X obj 88 40 mmm-ctrl \$1 \$2 2 snaredrum 0 100 0 int;
#X obj 159 69 mmm-ctrl \$1 \$2 3 closed-hat 0 100 0 int;
#X obj 214 91 mmm-ctrl \$1 \$2 4 open-hat 0 100 0 int;
#X obj 258 114 mmm-ctrl \$1 \$2 5 claves 0 100 0 int;
#X obj 330 137 mmm-ctrl \$1 \$2 6 claps 0 100 0 int;
#X connect 1 0 3 0;
#X connect 1 1 2 0;
#X connect 2 0 3 1;
#X connect 3 0 10 0;
#X connect 4 0 1 0;
#X connect 5 0 1 0;
#X connect 6 0 1 0;
#X connect 7 0 1 0;
#X connect 8 0 1 0;
#X connect 9 0 1 0;
#X connect 10 0 0 0;
#X connect 11 1 6 0;
#X connect 12 1 7 0;
#X connect 13 1 8 0;
#X connect 14 1 9 0;
#X connect 15 1 5 0;
#X connect 16 1 4 0;
#X restore 34 429 pd triggers;
#N canvas 234 312 450 300 data 0;
#X obj 71 266 outlet;
#N canvas 0 0 450 300 bd 0;
#X obj 71 266 outlet;
#X msg 48 89 bd volume \$1;
#X msg 74 140 bd click \$1;
#X msg 85 190 bd decay \$1;
#X msg 91 232 bd pitch \$1;
#X obj 48 44 route bd-volume bd-click bd-decay bd-pitch;
#X obj 48 22 r \$3;
#X connect 1 0 0 0;
#X connect 2 0 0 0;
#X connect 3 0 0 0;
#X connect 4 0 0 0;
#X connect 5 0 1 0;
#X connect 5 1 2 0;
#X connect 5 2 3 0;
#X connect 5 3 4 0;
#X connect 6 0 5 0;
#X restore 67 127 pd bd;
#N canvas 103 91 450 518 sd 0;
#X obj 37 479 outlet;
#X msg 43 94 sd volume \$1;
#X msg 79 217 sd pitch \$1;
#X msg 66 134 sd tdecay \$1;
#X msg 81 173 sd ndecay \$1;
#X msg 95 265 sd pitchenv \$1;
#X msg 109 316 sd filter \$1;
#X msg 121 365 sd cutoff \$1;
#X msg 130 425 sd tone \$1;
#X msg 129 473 sd dirty \$1;
#X obj 40 40 route sd-volume sd-tdecay sd-ndecay sd-pitch sd-pitchenv
sd-filter sd-cutoff sd-tone sd-dirty;
#X obj 40 15 r \$3;
#X connect 1 0 0 0;
#X connect 2 0 0 0;
#X connect 3 0 0 0;
#X connect 4 0 0 0;
#X connect 5 0 0 0;
#X connect 6 0 0 0;
#X connect 7 0 0 0;
#X connect 8 0 0 0;
#X connect 9 0 0 0;
#X connect 10 0 1 0;
#X connect 10 1 3 0;
#X connect 10 2 4 0;
#X connect 10 3 2 0;
#X connect 10 4 5 0;
#X connect 10 5 6 0;
#X connect 10 6 7 0;
#X connect 10 7 8 0;
#X connect 10 8 9 0;
#X connect 11 0 10 0;
#X restore 109 128 pd sd;
#N canvas 0 0 450 300 hh 0;
#X obj 73 305 outlet;
#X msg 42 79 hh cvolume \$1;
#X msg 66 122 hh ovolume \$1;
#X msg 99 201 hh odecay \$1;
#X msg 86 163 hh cdecay \$1;
#X msg 106 243 hh tone \$1;
#X obj 38 36 route ch-volume oh-volume ch-decay oh-decay hh-tone;
#X obj 32 6 r \$3;
#X connect 1 0 0 0;
#X connect 2 0 0 0;
#X connect 3 0 0 0;
#X connect 4 0 0 0;
#X connect 5 0 0 0;
#X connect 6 0 1 0;
#X connect 6 1 2 0;
#X connect 6 2 4 0;
#X connect 6 3 3 0;
#X connect 6 4 5 0;
#X connect 7 0 6 0;
#X restore 147 129 pd hh;
#N canvas 52 395 450 300 cv 0;
#X obj 71 266 outlet;
#X msg 40 99 cv volume \$1;
#X msg 63 141 cv decay \$1;
#X msg 104 185 cv pitch \$1;
#X obj 71 57 route cv-volume cv-decay cv-pitch;
#X obj 48 23 r \$3;
#X connect 1 0 0 0;
#X connect 2 0 0 0;
#X connect 3 0 0 0;
#X connect 4 0 1 0;
#X connect 4 1 2 0;
#X connect 4 2 3 0;
#X connect 5 0 4 0;
#X restore 188 126 pd cv;
#N canvas 545 352 450 300 cp 0;
#X obj 71 266 outlet;
#X msg 40 94 cp volume \$1;
#X msg 63 136 cp decay \$1;
#X msg 103 179 cp pitch \$1;
#X obj 88 48 route cp-volume cp-decay cp-pitch;
#X obj 101 16 r \$3;
#X connect 1 0 0 0;
#X connect 2 0 0 0;
#X connect 3 0 0 0;
#X connect 4 0 1 0;
#X connect 4 1 2 0;
#X connect 4 2 3 0;
#X connect 5 0 4 0;
#X restore 233 128 pd cp;
#X obj 72 188 unpack s s f;
#X obj 139 209 / 100;
#X obj 72 233 pack s s f;
#X obj 146 255 list trim;
#X connect 1 0 6 0;
#X connect 2 0 6 0;
#X connect 3 0 6 0;
#X connect 4 0 6 0;
#X connect 5 0 6 0;
#X connect 6 0 8 0;
#X connect 6 1 8 1;
#X connect 6 2 7 0;
#X connect 7 0 8 2;
#X connect 8 0 9 0;
#X connect 9 0 0 0;
#X restore 125 430 pd data;
#N canvas 0 0 450 300 bassdrum-controller 0;
#X obj 34 38 mmm-ctrl \$1 \$2 7 bd-volume 0 100 90 int;
#X obj 34 59 mmm-ctrl \$1 \$2 8 bd-click 0 100 40 int;
#X obj 35 85 mmm-ctrl \$1 \$2 9 bd-decay 0 100 50 int;
#X obj 37 107 mmm-ctrl \$1 \$2 10 bd-pitch 0 100 60 int;
#X restore 22 87 pd bassdrum-controller;
#N canvas 622 317 450 300 snaredrum-controller 0;
#X obj 34 38 mmm-ctrl \$1 \$2 11 sd-volume 0 100 90 int;
#X obj 36 59 mmm-ctrl \$1 \$2 12 sd-tdecay 0 100 51 int;
#X obj 37 82 mmm-ctrl \$1 \$2 13 sd-ndecay 0 100 80 int;
#X obj 38 105 mmm-ctrl \$1 \$2 14 sd-pitch 0 100 60 int;
#X obj 38 126 mmm-ctrl \$1 \$2 15 sd-pitchenv 0 100 20 int;
#X obj 38 150 mmm-ctrl \$1 \$2 16 sd-filter 0 100 98 int;
#X obj 40 173 mmm-ctrl \$1 \$2 17 sd-cutoff 0 100 10 int;
#X obj 39 195 mmm-ctrl \$1 \$2 18 sd-tone 0 100 70 int;
#X obj 40 218 mmm-ctrl \$1 \$2 19 sd-dirty 0 100 0 int;
#X restore 21 110 pd snaredrum-controller;
#N canvas 265 251 450 300 hihat-controller 0;
#X obj 34 38 mmm-ctrl \$1 \$2 20 ch-volume 0 100 90 int;
#X obj 31 55 mmm-ctrl \$1 \$2 21 ch-decay 0 100 70 int;
#X obj 15 82 mmm-ctrl \$1 \$2 22 oh-volume 0 100 90 int;
#X obj 36 106 mmm-ctrl \$1 \$2 23 oh-decay 0 100 70 int;
#X obj 34 129 mmm-ctrl \$1 \$2 24 hh-tone 0 100 55 int;
#X restore 23 142 pd hihat-controller;
#N canvas 0 0 450 300 hihat-controller 0;
#X obj 34 38 mmm-ctrl \$1 \$2 28 cp-volume 0 100 90 int;
#X obj 41 59 mmm-ctrl \$1 \$2 29 cp-decay 0 100 70 int;
#X obj 49 83 mmm-ctrl \$1 \$2 30 cp-pitch 0 100 53 int;
#X restore 27 194 pd hihat-controller;
#N canvas 0 0 450 300 claves-controller 0;
#X obj 35 38 mmm-ctrl \$1 \$2 25 cv-volume 0 100 90 int;
#X obj 40 59 mmm-ctrl \$1 \$2 26 cv-decay 0 100 70 int;
#X obj 42 79 mmm-ctrl \$1 \$2 27 cv-pitch 0 100 53 int;
#X restore 24 167 pd claves-controller;
#X obj 28 21 mmm-module \$1 \$2 kilodrum 30;
#X obj 203 382 r \$1-\$2L-r;
#X obj 353 382 r \$1-\$2R-r;
#X obj 353 492 s~ \$1-\$2R;
#X obj 203 492 s~ \$1-\$2L;
#X msg 340 21 version 0.1.2;
#X connect 0 0 14 0;
#X connect 1 0 13 0;
#X connect 2 0 13 0;
#X connect 2 0 14 0;
#X connect 3 0 2 0;
#X connect 4 0 2 1;
#X connect 11 0 0 0;
#X connect 12 0 1 0;
