#N canvas 80 22 355 178 10;
#X obj 20 109 r~ 1-nothing;
#X obj 120 109 r~ 1-nothing;
#X obj 20 89 r \$1-\$2L-r;
#X obj 120 89 r \$1-\$2R-r;
#X obj 120 129 s~ \$1-\$2R;
#X obj 20 129 s~ \$1-\$2L;
#N canvas 73 297 858 527 khh 0;
#X obj 96 481 outlet~;
#X obj 96 421 *~;
#X msg 528 269 1;
#X obj 446 363 switch~;
#X obj 426 254 f;
#X obj 288 273 f;
#X obj 442 234 + 120;
#X obj 96 441 *~ 1;
#X obj 289 343 vline~;
#X obj 119 121 t b f;
#X obj 545 133 t b f;
#N canvas 0 22 732 557 signal1 0;
#X obj 90 80 wrap~;
#X obj 79 57 -~ 0.5;
#X obj 90 108 -~ 0.5;
#X obj 78 128 -~;
#X obj 105 242 wrap~;
#X obj 92 221 -~ 0.5;
#X obj 105 262 -~ 0.5;
#X obj 93 282 -~;
#X obj 79 312 *~;
#X obj 93 196 phasor~;
#X obj 78 37 phasor~ 1747;
#X obj 92 176 +~ 2781;
#X obj 392 396 clip~ -0.1 0.1;
#X obj 167 81 wrap~;
#X obj 156 58 -~ 0.5;
#X obj 167 109 -~ 0.5;
#X obj 155 129 -~;
#X obj 182 243 wrap~;
#X obj 169 222 -~ 0.5;
#X obj 182 263 -~ 0.5;
#X obj 170 283 -~;
#X obj 156 307 *~;
#X obj 170 197 phasor~;
#X obj 156 38 phasor~ 1909;
#X obj 169 177 +~ 2490;
#X obj 245 81 wrap~;
#X obj 234 58 -~ 0.5;
#X obj 245 109 -~ 0.5;
#X obj 233 129 -~;
#X obj 260 243 wrap~;
#X obj 247 222 -~ 0.5;
#X obj 260 263 -~ 0.5;
#X obj 248 283 -~;
#X obj 234 307 *~;
#X obj 248 197 phasor~;
#X obj 234 38 phasor~ 1400;
#X obj 247 177 +~ 2509;
#X obj 323 81 wrap~;
#X obj 312 58 -~ 0.5;
#X obj 323 109 -~ 0.5;
#X obj 311 129 -~;
#X obj 338 243 wrap~;
#X obj 325 222 -~ 0.5;
#X obj 338 263 -~ 0.5;
#X obj 326 283 -~;
#X obj 312 307 *~;
#X obj 326 197 phasor~;
#X obj 312 38 phasor~ 1560;
#X obj 325 177 +~ 2740;
#X obj 401 81 wrap~;
#X obj 390 58 -~ 0.5;
#X obj 401 109 -~ 0.5;
#X obj 389 129 -~;
#X obj 416 243 wrap~;
#X obj 403 222 -~ 0.5;
#X obj 416 263 -~ 0.5;
#X obj 404 283 -~;
#X obj 390 307 *~;
#X obj 404 197 phasor~;
#X obj 390 38 phasor~ 1370;
#X obj 403 177 +~ 2390;
#X obj 93 154 *~ 4000;
#X obj 170 155 *~ 400;
#X obj 248 155 *~ 4000;
#X obj 326 155 *~ 400;
#X obj 404 155 *~ 4000;
#X obj 393 502 outlet~;
#X obj 410 434 sig~ 23017;
#X obj 393 455 vcf~ 21;
#X obj 393 478 *~ 3;
#X connect 0 0 2 0;
#X connect 1 0 0 0;
#X connect 1 0 3 0;
#X connect 2 0 3 1;
#X connect 3 0 8 0;
#X connect 3 0 61 0;
#X connect 4 0 6 0;
#X connect 5 0 4 0;
#X connect 5 0 7 0;
#X connect 6 0 7 1;
#X connect 7 0 8 1;
#X connect 8 0 12 0;
#X connect 9 0 5 0;
#X connect 10 0 1 0;
#X connect 11 0 9 0;
#X connect 12 0 68 0;
#X connect 13 0 15 0;
#X connect 14 0 13 0;
#X connect 14 0 16 0;
#X connect 15 0 16 1;
#X connect 16 0 21 0;
#X connect 16 0 62 0;
#X connect 17 0 19 0;
#X connect 18 0 17 0;
#X connect 18 0 20 0;
#X connect 19 0 20 1;
#X connect 20 0 21 1;
#X connect 21 0 12 0;
#X connect 22 0 18 0;
#X connect 23 0 14 0;
#X connect 24 0 22 0;
#X connect 25 0 27 0;
#X connect 26 0 25 0;
#X connect 26 0 28 0;
#X connect 27 0 28 1;
#X connect 28 0 33 0;
#X connect 28 0 63 0;
#X connect 29 0 31 0;
#X connect 30 0 29 0;
#X connect 30 0 32 0;
#X connect 31 0 32 1;
#X connect 32 0 33 1;
#X connect 33 0 12 0;
#X connect 34 0 30 0;
#X connect 35 0 26 0;
#X connect 36 0 34 0;
#X connect 37 0 39 0;
#X connect 38 0 37 0;
#X connect 38 0 40 0;
#X connect 39 0 40 1;
#X connect 40 0 45 0;
#X connect 40 0 64 0;
#X connect 41 0 43 0;
#X connect 42 0 41 0;
#X connect 42 0 44 0;
#X connect 43 0 44 1;
#X connect 44 0 45 1;
#X connect 45 0 12 0;
#X connect 46 0 42 0;
#X connect 47 0 38 0;
#X connect 48 0 46 0;
#X connect 49 0 51 0;
#X connect 50 0 49 0;
#X connect 50 0 52 0;
#X connect 51 0 52 1;
#X connect 52 0 57 0;
#X connect 52 0 65 0;
#X connect 53 0 55 0;
#X connect 54 0 53 0;
#X connect 54 0 56 0;
#X connect 55 0 56 1;
#X connect 56 0 57 1;
#X connect 57 0 12 0;
#X connect 58 0 54 0;
#X connect 59 0 50 0;
#X connect 60 0 58 0;
#X connect 61 0 11 0;
#X connect 62 0 24 0;
#X connect 63 0 36 0;
#X connect 64 0 48 0;
#X connect 65 0 60 0;
#X connect 67 0 68 1;
#X connect 68 0 69 0;
#X connect 69 0 66 0;
#X restore 11 258 pd signal1;
#X obj 289 403 *~ 4;
#X obj 110 231 f;
#X obj 35 308 max -1;
#X obj 35 328 + 1;
#X obj 35 288 * -2;
#N canvas 341 202 715 455 signal2 0;
#X obj 21 121 *~;
#X obj 21 191 hip~ 6000;
#X obj 21 160 hip~ 8000;
#X obj 137 377 *~ 0.69;
#X obj 22 26 sig~ 20188;
#X obj 137 272 delread~ \$0-d 88;
#X obj 35 75 sig~ 25001;
#X obj 34 96 tabosc4~ \$0-table24;
#X obj 22 48 tabosc4~ \$0-table24;
#X obj 137 355 vcf~ 3;
#X obj 152 319 vline~;
#X msg 152 296 6200 0.2 0 \, 1000 \$1 0.2;
#X obj 66 247 delwrite~ \$0-d 100;
#X obj 218 119 inlet;
#X obj 24 421 outlet~;
#X obj 278 38 loadbang;
#X obj 278 149 table \$0-table24;
#X obj 278 62 \$0;
#X msg 278 88 \; \$1-table24 sinesum 256 1 1 1 1 0 0 0 0 1 0 0 0 0
0 0 1 0 0 0 0 0 0 1 0 0 0 0 0 0 1 0 0 0 0 1 0 0 0 0 0 1 0 0 0 0 1 \,
normalize 0.4;
#X obj 21 222 *~ 2;
#X obj 228 179 f;
#X connect 0 0 2 0;
#X connect 1 0 19 0;
#X connect 2 0 1 0;
#X connect 3 0 14 0;
#X connect 4 0 8 0;
#X connect 5 0 9 0;
#X connect 6 0 7 0;
#X connect 7 0 0 1;
#X connect 8 0 0 0;
#X connect 9 0 3 0;
#X connect 10 0 9 1;
#X connect 11 0 10 0;
#X connect 13 0 20 0;
#X connect 15 0 17 0;
#X connect 17 0 18 0;
#X connect 19 0 14 0;
#X connect 19 0 12 0;
#X connect 20 0 11 0;
#X restore 87 171 pd signal2;
#N canvas 0 22 454 304 signal3 0;
#X obj 293 95 *~;
#X obj 279 117 *~;
#X obj 280 138 *~ 4000;
#X obj 280 159 +~ 8200;
#X obj 280 28 osc~ 807;
#X obj 292 52 osc~ 1130;
#X obj 307 72 osc~ 1040;
#X obj 152 31 noise~;
#X obj 279 200 *~ 0.2;
#X obj 168 58 sig~ 8336;
#X obj 280 179 osc~;
#X obj 151 272 outlet~;
#X obj 151 121 vcf~ 21;
#X connect 0 0 1 1;
#X connect 1 0 2 0;
#X connect 2 0 3 0;
#X connect 3 0 10 0;
#X connect 4 0 1 0;
#X connect 5 0 0 0;
#X connect 6 0 0 1;
#X connect 7 0 12 0;
#X connect 8 0 11 0;
#X connect 9 0 12 1;
#X connect 10 0 8 0;
#X connect 12 0 11 0;
#X restore 159 253 pd signal3;
#X obj 110 251 * -2;
#X obj 110 291 abs;
#X obj 110 271 + 1;
#X obj 110 311 * -1;
#X obj 110 331 + 1;
#X obj 181 291 * 2;
#X obj 181 311 - 1;
#X obj 181 331 max 0;
#X obj 159 351 *~ 0;
#X obj 87 351 *~ 0;
#X obj 12 348 *~ 0;
#X obj 289 383 dbtorms~;
#X obj 289 363 *~ 100;
#X msg 289 323 1 0.2 0 \, 0 \$1 0.2;
#X obj 446 303 + 5;
#X obj 446 323 delay;
#X msg 446 343 0;
#X obj 273 147 + 20;
#X obj 119 101 spigot;
#X obj 119 81 t f f;
#X obj 545 113 spigot;
#X obj 545 93 t f f;
#X obj 273 127 * 3.15;
#X obj 119 61 * 0.01;
#X obj 545 73 * 0.01;
#X obj 442 214 * 19;
#X obj 110 211 * 0.01;
#X obj 199 53 r \$1-\$2;
#X obj 199 73 route level;
#X obj 442 184 mmm-ctrl \$1 \$2 4 odecay 0 100 50 int;
#X obj 273 97 mmm-ctrl \$1 \$2 2 cdecay 0 100 50 int;
#X obj 119 31 mmm-ctrl \$1 \$2 1 closedhat 0 100 -1 int;
#X obj 110 191 mmm-ctrl \$1 \$2 5 tone 0 100 50 int;
#X obj 545 43 mmm-ctrl \$1 \$2 3 openhat 0 100 -1 int;
#X connect 1 0 7 0;
#X connect 2 0 3 0;
#X connect 4 0 32 0;
#X connect 4 0 33 0;
#X connect 4 0 17 0;
#X connect 5 0 32 0;
#X connect 5 0 33 0;
#X connect 5 0 17 0;
#X connect 6 0 4 1;
#X connect 7 0 0 0;
#X connect 8 0 31 0;
#X connect 9 0 2 0;
#X connect 9 0 5 0;
#X connect 9 1 7 1;
#X connect 10 0 4 0;
#X connect 10 0 2 0;
#X connect 10 1 7 1;
#X connect 11 0 29 0;
#X connect 12 0 1 1;
#X connect 13 0 16 0;
#X connect 13 0 19 0;
#X connect 13 0 24 0;
#X connect 14 0 15 0;
#X connect 15 0 29 1;
#X connect 16 0 14 0;
#X connect 17 0 28 0;
#X connect 18 0 27 0;
#X connect 19 0 21 0;
#X connect 20 0 22 0;
#X connect 21 0 20 0;
#X connect 22 0 23 0;
#X connect 23 0 28 1;
#X connect 24 0 25 0;
#X connect 25 0 26 0;
#X connect 26 0 27 1;
#X connect 27 0 1 0;
#X connect 28 0 1 0;
#X connect 29 0 1 0;
#X connect 30 0 12 0;
#X connect 31 0 30 0;
#X connect 32 0 8 0;
#X connect 33 0 34 0;
#X connect 34 0 35 0;
#X connect 35 0 3 0;
#X connect 36 0 5 1;
#X connect 37 0 9 0;
#X connect 38 0 37 0;
#X connect 38 1 37 1;
#X connect 39 0 10 0;
#X connect 40 0 39 0;
#X connect 40 1 39 1;
#X connect 41 0 36 0;
#X connect 42 0 38 0;
#X connect 43 0 40 0;
#X connect 44 0 6 0;
#X connect 45 0 13 0;
#X connect 46 0 47 0;
#X connect 47 0 42 0;
#X connect 48 0 44 0;
#X connect 49 0 41 0;
#X connect 50 0 42 0;
#X connect 51 0 45 0;
#X connect 52 0 43 0;
#X restore 70 49 pd khh;
#X obj 20 19 mmm-module \$1 \$2 kilohat 5;
#X msg 217 19 version 0.3.5;
#X connect 0 0 5 0;
#X connect 1 0 4 0;
#X connect 2 0 0 0;
#X connect 3 0 1 0;
#X connect 6 0 5 0;
#X connect 6 0 4 0;
