#N canvas 215 22 847 456 10;
#X obj 410 69 noise~;
#X obj 410 229 *~;
#X obj 494 261 biquad~ 0 0 0 0 1;
#X obj 494 281 *~ 0.5;
#X obj 446 311 *~ 0.5;
#X obj 710 116 mtof;
#X obj 710 136 pow -1;
#X obj 710 156 * 1000;
#X obj 426 99 t b b;
#X obj 426 129 f 1;
#X msg 426 169 \$1 0;
#X msg 536 139 0 1;
#X obj 494 341 *~ 0.99;
#X obj 426 149 t3_delay 0;
#N canvas 180 192 241 264 notename 0;
#X obj 29 60 t f f;
#X obj 64 90 div 12;
#X obj 64 113 makefilename %%s%d;
#X msg 64 135 set \$1;
#N canvas 380 110 450 300 n 0;
#X obj 141 51 inlet;
#X obj 141 77 mod 12;
#X obj 141 100 select 0 1 2 3 4 5 6 7 8 9 10 11;
#X msg 172 177 symbol d-;
#X msg 156 157 symbol c#;
#X msg 141 137 symbol c-;
#X msg 187 197 symbol d#;
#X msg 203 217 symbol e-;
#X msg 218 237 symbol f-;
#X msg 234 137 symbol f#;
#X msg 250 157 symbol g-;
#X msg 265 176 symbol g#;
#X msg 281 197 symbol a-;
#X msg 297 217 symbol a#;
#X msg 312 237 symbol b;
#X obj 168 282 outlet;
#X connect 0 0 1 0;
#X connect 1 0 2 0;
#X connect 2 0 5 0;
#X connect 2 1 4 0;
#X connect 2 2 3 0;
#X connect 2 3 6 0;
#X connect 2 4 7 0;
#X connect 2 5 8 0;
#X connect 2 6 9 0;
#X connect 2 7 10 0;
#X connect 2 8 11 0;
#X connect 2 9 12 0;
#X connect 2 10 13 0;
#X connect 2 11 14 0;
#X connect 3 0 15 0;
#X connect 4 0 15 0;
#X connect 5 0 15 0;
#X connect 6 0 15 0;
#X connect 7 0 15 0;
#X connect 8 0 15 0;
#X connect 9 0 15 0;
#X connect 10 0 15 0;
#X connect 11 0 15 0;
#X connect 12 0 15 0;
#X connect 13 0 15 0;
#X connect 14 0 15 0;
#X restore 29 90 pd n;
#X obj 29 165 makefilename;
#X obj 29 195 outlet;
#X obj 29 30 inlet;
#X connect 0 0 4 0;
#X connect 0 1 1 0;
#X connect 1 0 2 0;
#X connect 2 0 3 0;
#X connect 3 0 5 0;
#X connect 4 0 5 0;
#X connect 5 0 6 0;
#X connect 7 0 0 0;
#X restore 302 61 pd notename;
#X obj 28 61 mmm-ctrl \$1 \$2 1 notes 0 127 0 ext;
#X obj 499 26 r \$3;
#X obj 46 176 r~ 1-nothing;
#X obj 289 176 r~ 1-nothing;
#X obj 46 156 r \$1-\$2L-r;
#X obj 289 156 r \$1-\$2R-r;
#X obj 289 396 s~ \$1-\$2R;
#X obj 46 396 s~ \$1-\$2L;
#X obj 499 46 route notes-seq level decay;
#X obj 28 81 mmm-ctrl \$1 \$2 2 level 0 99 80 int;
#X obj 641 272 * 0.01;
#X msg 305 21 version 0.1.0;
#X obj 28 21 mmm-module \$1 \$2 karplusstrong 3;
#X obj 426 209 t3_sig~ 0;
#X obj 410 401 delwrite~ \$0-buffer 1000;
#X obj 447 236 vd~ \$0-buffer 100;
#X obj 678 214 * 0.01;
#X obj 28 101 mmm-ctrl \$1 \$2 3 decay 0 50 50 int;
#X connect 0 0 1 0;
#X connect 1 0 29 0;
#X connect 2 0 3 0;
#X connect 3 0 12 0;
#X connect 4 0 12 0;
#X connect 5 0 6 0;
#X connect 6 0 7 0;
#X connect 7 0 9 1;
#X connect 7 0 30 0;
#X connect 8 0 9 0;
#X connect 8 1 11 0;
#X connect 9 0 13 0;
#X connect 10 0 28 0;
#X connect 11 0 28 0;
#X connect 12 0 22 0;
#X connect 12 0 21 0;
#X connect 12 0 29 0;
#X connect 13 0 10 0;
#X connect 14 0 15 1;
#X connect 15 2 14 0;
#X connect 16 0 23 0;
#X connect 17 0 22 0;
#X connect 18 0 21 0;
#X connect 19 0 17 0;
#X connect 20 0 18 0;
#X connect 23 0 5 0;
#X connect 23 0 8 0;
#X connect 23 1 25 0;
#X connect 23 2 31 0;
#X connect 25 0 12 1;
#X connect 28 0 1 1;
#X connect 30 0 2 0;
#X connect 30 0 4 0;
#X connect 31 0 3 1;
#X connect 31 0 4 1;
