#N canvas 226 22 517 312 10;
#X obj 22 231 r~ 1-nothing;
#X obj 122 231 r~ 1-nothing;
#X obj 122 211 r \$1-\$2R-r;
#X obj 122 261 s~ \$1-\$2R;
#X obj 22 261 s~ \$1-\$2L;
#X obj 22 211 r \$1-\$2L-r;
#N canvas 739 30 360 559 kick-it 0;
#X msg 80 88 a-freq \$1;
#N canvas 453 57 569 589 basic-wave 0;
#X obj 385 127 mtof;
#X obj 385 157 t b f;
#X obj 385 177 f 1000;
#X obj 164 64 t b b;
#X obj 111 351 t3_line~;
#X obj 157 94 t b b b b b;
#X obj 385 197 /;
#X obj 89 428 t3_sig~;
#X obj 385 107 f 89;
#X obj 142 17 inlet;
#X obj 262 344 f;
#X obj 262 384 t3_delay;
#X msg 283 136 0 0 0;
#X obj 92 463 osc~ 0;
#X msg 86 408 0 0;
#X obj 111 372 dbtorms~;
#X obj 92 483 *~;
#X obj 117 408 pack f f;
#X obj 78 513 outlet~;
#X obj 251 253 f;
#X obj 251 293 t3_delay;
#X obj 244 486 f;
#X obj 244 526 t3_delay;
#X obj 137 41 route start a-freq b-freq decay;
#X obj 262 404 pack f 70 100;
#X obj 34 431 f 0;
#X obj 493 136 mtof;
#X obj 493 176 t b f;
#X obj 493 196 f 1000;
#X obj 493 216 /;
#X obj 493 116 f 40;
#X obj 267 234 +;
#X obj 334 229 * 2.05;
#X obj 266 213 * 0.19;
#X obj 244 556 pack f 0 f;
#X obj 309 536 * 5;
#X obj 495 248 * 1.5;
#X obj 251 273 * 1.05;
#X obj 251 313 pack f 98.2 0;
#X obj 262 364 * 1.05;
#X obj 244 506 * 1.05;
#X obj 21 363 t3_line~;
#X obj 24 173 f;
#X obj 24 213 t3_delay;
#X obj 24 193 * 1.05;
#X obj 41 255 f;
#X obj 41 295 t3_delay;
#X obj 41 275 * 1.05;
#X obj 119 252 + 50;
#X obj 41 315 pack f 70 50;
#X obj 24 234 pack f f 2;
#X obj 90 214 * 1.5;
#X connect 0 0 1 0;
#X connect 1 0 2 0;
#X connect 1 1 6 1;
#X connect 2 0 6 0;
#X connect 3 0 5 0;
#X connect 3 1 8 0;
#X connect 3 1 30 0;
#X connect 4 0 15 0;
#X connect 5 0 21 0;
#X connect 5 0 25 0;
#X connect 5 2 10 0;
#X connect 5 2 45 0;
#X connect 5 3 19 0;
#X connect 5 3 42 0;
#X connect 5 4 14 0;
#X connect 5 4 12 0;
#X connect 6 0 32 0;
#X connect 8 0 0 0;
#X connect 9 0 23 0;
#X connect 10 0 39 0;
#X connect 11 0 24 0;
#X connect 12 0 4 0;
#X connect 12 0 41 0;
#X connect 13 0 16 0;
#X connect 14 0 7 0;
#X connect 15 0 16 1;
#X connect 16 0 18 0;
#X connect 17 0 7 0;
#X connect 19 0 37 0;
#X connect 20 0 17 0;
#X connect 20 0 38 0;
#X connect 21 0 40 0;
#X connect 22 0 34 0;
#X connect 23 0 3 0;
#X connect 23 1 8 0;
#X connect 23 2 30 0;
#X connect 23 3 24 2;
#X connect 23 3 21 1;
#X connect 24 0 4 0;
#X connect 25 0 13 1;
#X connect 26 0 27 0;
#X connect 26 0 17 1;
#X connect 26 0 49 1;
#X connect 26 0 51 0;
#X connect 27 0 28 0;
#X connect 27 1 29 1;
#X connect 28 0 29 0;
#X connect 29 0 35 0;
#X connect 29 0 36 0;
#X connect 30 0 26 0;
#X connect 31 0 19 1;
#X connect 31 0 10 1;
#X connect 31 0 42 1;
#X connect 31 0 48 0;
#X connect 32 0 31 1;
#X connect 33 0 31 0;
#X connect 34 0 4 0;
#X connect 35 0 34 2;
#X connect 36 0 33 0;
#X connect 37 0 20 0;
#X connect 38 0 4 0;
#X connect 39 0 11 0;
#X connect 40 0 22 0;
#X connect 41 0 13 0;
#X connect 42 0 44 0;
#X connect 43 0 50 0;
#X connect 44 0 43 0;
#X connect 45 0 47 0;
#X connect 46 0 49 0;
#X connect 47 0 46 0;
#X connect 48 0 45 1;
#X connect 49 0 41 0;
#X connect 50 0 41 0;
#X connect 51 0 50 1;
#X restore 25 279 pd basic-wave;
#X msg 135 108 b-freq \$1;
#X msg 190 208 decay \$1;
#X msg 25 88 start;
#N canvas 378 34 502 578 klick-start 0;
#X obj 37 456 lop~;
#X obj 298 124 mtof;
#X obj 298 154 t b f;
#X obj 298 174 f 1000;
#X obj 42 101 t b b;
#X obj 37 417 t3_line~;
#X obj 37 305 f;
#X obj 350 475 f;
#X obj 357 295 f;
#X obj 350 385 f;
#X obj 35 151 t b b b b b;
#X obj 298 194 /;
#X obj 298 214 t f f;
#X obj 182 502 switch~;
#X obj 182 472 f 1;
#X obj 211 452 del;
#X obj 211 472 f 0;
#X obj 92 465 t3_sig~;
#X msg 92 444 0 1;
#X msg 190 188 0 0 0;
#X obj 298 104 f 89;
#X obj 37 345 pack f 0 0;
#X obj 227 432 max 2.92049;
#X obj 350 495 t3_delay;
#X obj 37 325 t3_delay;
#X obj 37 487 *~;
#X obj 20 14 inlet;
#X obj 17 537 outlet~;
#X obj 37 183 t b b b b b;
#X obj 373 275 max 0.0226758;
#X obj 366 365 * 0.27;
#X obj 413 385 * 1;
#X obj 350 425 pack f -0.764 f;
#X obj 366 455 * 1.27;
#X obj 413 495 * 0.55;
#X obj 350 515 pack f -0.93 f;
#X msg 122 444 \$1 0;
#X obj 20 34 route start a-freq;
#X obj 53 285 * 2;
#X obj 357 315 t3_delay;
#X obj 350 405 t3_delay;
#X obj 227 412 * 4;
#X obj 373 255 * 0.04;
#X obj 357 335 pack f -0.35 f;
#X obj 413 295 * 0.15;
#X connect 0 0 25 0;
#X connect 1 0 2 0;
#X connect 1 0 0 1;
#X connect 2 0 3 0;
#X connect 2 1 11 1;
#X connect 3 0 11 0;
#X connect 4 0 10 0;
#X connect 4 1 20 0;
#X connect 5 0 0 0;
#X connect 6 0 24 0;
#X connect 7 0 23 0;
#X connect 8 0 39 0;
#X connect 9 0 40 0;
#X connect 10 0 28 0;
#X connect 10 1 7 0;
#X connect 10 2 9 0;
#X connect 10 3 8 0;
#X connect 10 4 14 0;
#X connect 10 4 18 0;
#X connect 10 4 19 0;
#X connect 10 4 15 0;
#X connect 11 0 12 0;
#X connect 12 0 30 0;
#X connect 12 0 33 0;
#X connect 12 0 38 0;
#X connect 12 0 41 0;
#X connect 12 0 42 0;
#X connect 12 1 31 0;
#X connect 12 1 34 0;
#X connect 12 1 44 0;
#X connect 14 0 13 0;
#X connect 15 0 16 0;
#X connect 16 0 13 0;
#X connect 17 0 25 1;
#X connect 18 0 17 0;
#X connect 19 0 5 0;
#X connect 20 0 1 0;
#X connect 21 0 5 0;
#X connect 22 0 15 1;
#X connect 23 0 35 0;
#X connect 24 0 21 0;
#X connect 24 0 36 0;
#X connect 25 0 27 0;
#X connect 26 0 37 0;
#X connect 28 0 6 0;
#X connect 29 0 8 1;
#X connect 30 0 9 1;
#X connect 31 0 32 2;
#X connect 32 0 5 0;
#X connect 33 0 7 1;
#X connect 34 0 35 2;
#X connect 35 0 5 0;
#X connect 36 0 17 0;
#X connect 37 0 4 0;
#X connect 37 1 20 1;
#X connect 38 0 6 1;
#X connect 39 0 43 0;
#X connect 40 0 32 0;
#X connect 41 0 22 0;
#X connect 42 0 29 0;
#X connect 43 0 5 0;
#X connect 44 0 43 2;
#X restore 25 239 pd klick-start;
#N canvas 410 51 668 630 klick-end 0;
#X obj 37 456 lop~;
#X obj 388 95 mtof;
#X obj 388 125 t b f;
#X obj 388 145 f 1000;
#X obj 42 101 t b b;
#X obj 37 417 t3_line~;
#X obj 37 305 f;
#X obj 126 351 f;
#X obj 35 151 t b b b b b;
#X obj 388 165 /;
#X obj 388 185 t f f;
#X obj 322 572 switch~;
#X obj 322 542 f 1;
#X obj 351 522 del;
#X obj 351 542 f 0;
#X obj 102 505 t3_sig~;
#X obj 388 75 f 89;
#X obj 37 365 pack f 0 0;
#X obj 367 502 max 2.92049;
#X obj 126 371 t3_delay;
#X obj 37 345 t3_delay;
#X obj 37 517 *~;
#X obj 20 14 inlet;
#X obj 17 537 outlet~;
#X obj 37 183 t b b b b b;
#X obj 504 251 f;
#X obj 504 271 t3_delay;
#X obj 496 351 f;
#X obj 496 371 t3_delay;
#X obj 489 459 f;
#X obj 489 479 t3_delay;
#X obj 497 560 f;
#X obj 497 580 t3_delay;
#X obj 20 34 route start a-freq b-freq;
#X obj 449 76 mtof;
#X obj 449 106 t b f;
#X obj 449 126 f 1000;
#X obj 449 146 /;
#X obj 449 187 t f f;
#X obj 449 56 f 40;
#X obj 504 291 pack f -0.5 f;
#X obj 520 231 * 2.05;
#X obj 512 331 +;
#X obj 504 439 +;
#X obj 56 284 +;
#X obj 513 540 +;
#X obj 559 371 * 0.05;
#X obj 589 269 * 0.024;
#X obj 512 311 * 0.025;
#X obj 495 391 pack f 0.15 f;
#X obj 491 499 pack f 0.5 f;
#X obj 552 479 * 0.045;
#X obj 513 520 * 0.118;
#X obj 560 580 * 0.04;
#X obj 504 419 * 0.074;
#X msg 178 442 \$1 0;
#X obj 367 462 * 3;
#X obj 367 482 +;
#X obj 395 462 * 1;
#X obj 57 263 * 0.19;
#X msg 190 188 0 -0.93 0;
#X msg 126 421 \$1 1;
#X msg 92 444 0 0;
#X obj 142 331 * 2;
#X obj 328 151 * 5;
#X obj 196 488 lop~;
#X obj 196 548 *~;
#X obj 37 497 *~;
#X obj 208 468 t3_line~;
#X obj 208 508 *~ -1;
#X obj 208 528 +~ 1;
#X msg 240 168 0 0 0;
#X obj 173 393 t f f;
#X obj 279 377 pack f 0 f;
#X msg 206 420 \$1 1 0;
#X obj 343 356 * 0.2;
#X obj 449 166 * 1.5;
#X obj 499 601 pack f 0.83 f;
#X obj 36 324 * 1.05;
#X connect 0 0 67 0;
#X connect 1 0 2 0;
#X connect 1 0 0 1;
#X connect 2 0 3 0;
#X connect 2 1 9 1;
#X connect 3 0 9 0;
#X connect 4 0 8 0;
#X connect 4 1 16 0;
#X connect 4 1 39 0;
#X connect 5 0 0 0;
#X connect 5 0 65 0;
#X connect 6 0 78 0;
#X connect 7 0 19 0;
#X connect 8 0 24 0;
#X connect 8 1 7 0;
#X connect 8 4 12 0;
#X connect 8 4 62 0;
#X connect 8 4 60 0;
#X connect 8 4 13 0;
#X connect 8 4 71 0;
#X connect 9 0 10 0;
#X connect 10 0 56 0;
#X connect 10 0 63 0;
#X connect 10 1 41 0;
#X connect 12 0 11 0;
#X connect 13 0 14 0;
#X connect 14 0 11 0;
#X connect 15 0 21 1;
#X connect 16 0 1 0;
#X connect 17 0 5 0;
#X connect 18 0 13 1;
#X connect 19 0 61 0;
#X connect 19 0 72 0;
#X connect 20 0 17 0;
#X connect 20 0 55 0;
#X connect 21 0 23 0;
#X connect 22 0 33 0;
#X connect 24 0 6 0;
#X connect 24 1 31 0;
#X connect 24 2 29 0;
#X connect 24 3 27 0;
#X connect 24 4 25 0;
#X connect 25 0 26 0;
#X connect 26 0 40 0;
#X connect 27 0 28 0;
#X connect 28 0 49 0;
#X connect 29 0 30 0;
#X connect 30 0 50 0;
#X connect 31 0 32 0;
#X connect 32 0 77 0;
#X connect 33 0 4 0;
#X connect 33 1 16 1;
#X connect 33 2 39 1;
#X connect 34 0 35 0;
#X connect 34 0 64 0;
#X connect 35 0 36 0;
#X connect 35 1 37 1;
#X connect 36 0 37 0;
#X connect 37 0 76 0;
#X connect 38 0 48 0;
#X connect 38 0 52 0;
#X connect 38 0 54 0;
#X connect 38 0 59 0;
#X connect 38 1 46 0;
#X connect 38 1 47 0;
#X connect 38 1 51 0;
#X connect 38 1 53 0;
#X connect 38 1 58 0;
#X connect 38 1 75 0;
#X connect 39 0 34 0;
#X connect 40 0 5 0;
#X connect 41 0 25 1;
#X connect 41 0 42 1;
#X connect 41 0 43 1;
#X connect 41 0 44 1;
#X connect 41 0 45 1;
#X connect 42 0 27 1;
#X connect 43 0 29 1;
#X connect 44 0 6 1;
#X connect 45 0 31 1;
#X connect 46 0 49 2;
#X connect 47 0 40 2;
#X connect 48 0 42 0;
#X connect 49 0 5 0;
#X connect 50 0 5 0;
#X connect 51 0 50 2;
#X connect 52 0 45 0;
#X connect 53 0 77 2;
#X connect 54 0 43 0;
#X connect 55 0 15 0;
#X connect 56 0 57 0;
#X connect 57 0 18 0;
#X connect 58 0 57 1;
#X connect 59 0 44 0;
#X connect 60 0 5 0;
#X connect 61 0 15 0;
#X connect 62 0 15 0;
#X connect 63 0 7 1;
#X connect 64 0 65 1;
#X connect 65 0 66 0;
#X connect 66 0 21 0;
#X connect 67 0 21 0;
#X connect 68 0 67 1;
#X connect 68 0 69 0;
#X connect 69 0 70 0;
#X connect 70 0 66 1;
#X connect 71 0 68 0;
#X connect 72 0 73 0;
#X connect 72 1 74 0;
#X connect 73 0 68 0;
#X connect 74 0 68 0;
#X connect 75 0 73 2;
#X connect 76 0 38 0;
#X connect 77 0 5 0;
#X connect 78 0 20 0;
#X restore 70 259 pd klick-end;
#N canvas 480 141 519 674 klick-osc 0;
#X obj 298 124 mtof;
#X obj 298 154 t b f;
#X obj 298 174 f 1000;
#X obj 42 101 t b b;
#X obj 167 263 f;
#X obj 35 151 t b b b b b;
#X obj 298 194 /;
#X obj 298 214 t f f;
#X obj 182 502 switch~;
#X obj 182 472 f 1;
#X obj 211 452 del;
#X obj 211 472 f 0;
#X msg 190 188 0 0 0;
#X obj 298 104 f 89;
#X obj 227 432 max 2.92049;
#X obj 167 283 t3_delay;
#X obj 37 487 *~;
#X obj 20 14 inlet;
#X obj 17 537 outlet~;
#X obj 20 34 route start a-freq;
#X obj 37 417 t3_line~;
#X obj 111 446 f 0;
#X obj 53 466 osc~ 3000;
#X obj 106 411 t3_sig~;
#X obj 15 271 f;
#X obj 15 291 t3_delay;
#X obj 15 311 pack f 0 0;
#X msg 106 391 \$1 5000;
#X obj 101 291 * 0.4;
#X obj 253 283 * 0.4;
#X obj 182 337 b;
#X obj 227 412 * 1;
#X obj 246 303 min 0.24;
#X obj 101 311 min 0.24;
#X obj 31 251 + 0.25;
#X obj 167 323 pack f 0.06 0;
#X obj 183 243 * 2;
#X connect 0 0 1 0;
#X connect 1 0 2 0;
#X connect 1 1 6 1;
#X connect 2 0 6 0;
#X connect 3 0 5 0;
#X connect 3 1 13 0;
#X connect 4 0 15 0;
#X connect 5 1 21 0;
#X connect 5 2 24 0;
#X connect 5 3 4 0;
#X connect 5 4 12 0;
#X connect 6 0 7 0;
#X connect 7 0 31 0;
#X connect 7 0 36 0;
#X connect 7 1 28 0;
#X connect 7 1 29 0;
#X connect 9 0 8 0;
#X connect 10 0 11 0;
#X connect 11 0 8 0;
#X connect 12 0 20 0;
#X connect 13 0 0 0;
#X connect 14 0 10 1;
#X connect 15 0 27 0;
#X connect 15 0 30 0;
#X connect 15 0 35 0;
#X connect 16 0 18 0;
#X connect 17 0 19 0;
#X connect 19 0 3 0;
#X connect 19 1 13 1;
#X connect 20 0 16 0;
#X connect 21 0 22 1;
#X connect 21 0 22 0;
#X connect 22 0 16 1;
#X connect 23 0 22 0;
#X connect 24 0 25 0;
#X connect 25 0 26 0;
#X connect 26 0 20 0;
#X connect 27 0 23 0;
#X connect 28 0 33 0;
#X connect 29 0 32 0;
#X connect 30 0 9 0;
#X connect 30 0 10 0;
#X connect 31 0 14 0;
#X connect 32 0 35 2;
#X connect 33 0 26 2;
#X connect 34 0 24 1;
#X connect 35 0 20 0;
#X connect 36 0 4 1;
#X connect 36 0 34 0;
#X restore 44 219 pd klick-osc;
#X obj 19 442 *~;
#X obj 114 381 sgn~;
#X obj 19 422 /~;
#N canvas 772 254 213 183 s2sRight~ 0;
#X obj 18 154 outlet~;
#X obj 86 16 inlet~;
#X obj 138 16 inlet~;
#X obj 41 16 inlet;
#X obj 138 103 *~ 1;
#X obj 41 39 t b f;
#X obj 41 79 -;
#X obj 41 59 1;
#X obj 18 114 *~ 0;
#X connect 1 0 8 0;
#X connect 2 0 4 0;
#X connect 3 0 4 1;
#X connect 3 0 5 0;
#X connect 4 0 0 0;
#X connect 5 0 7 0;
#X connect 5 1 6 1;
#X connect 6 0 8 1;
#X connect 7 0 6 0;
#X connect 8 0 0 0;
#X restore 35 402 pd s2sRight~;
#X obj 19 333 *~ 1;
#X obj 245 228 * 0.01;
#X obj 245 268 -;
#X obj 19 482 outlet~;
#X msg 245 248 1 \$1;
#X obj 25 48 route level attack frequency decay power;
#X obj 190 148 *;
#X msg 190 128 \$1 \$1;
#X obj 190 168 * 0.1;
#X obj 190 188 + 1.5;
#X obj 25 68 t b f;
#X obj 19 462 *~ 1;
#X obj 246 319 * 0.01;
#X obj 25 18 inlet;
#X connect 0 0 5 0;
#X connect 0 0 1 0;
#X connect 0 0 6 0;
#X connect 0 0 7 0;
#X connect 1 0 12 0;
#X connect 2 0 1 0;
#X connect 2 0 6 0;
#X connect 3 0 1 0;
#X connect 4 0 5 0;
#X connect 4 0 1 0;
#X connect 4 0 6 0;
#X connect 4 0 7 0;
#X connect 5 0 12 0;
#X connect 6 0 12 0;
#X connect 7 0 12 0;
#X connect 8 0 23 0;
#X connect 9 0 8 1;
#X connect 9 0 11 2;
#X connect 10 0 8 0;
#X connect 11 0 10 1;
#X connect 12 0 9 0;
#X connect 12 0 11 1;
#X connect 12 0 10 0;
#X connect 13 0 16 0;
#X connect 14 0 11 0;
#X connect 16 0 14 0;
#X connect 17 0 22 0;
#X connect 17 1 0 0;
#X connect 17 2 2 0;
#X connect 17 3 19 0;
#X connect 17 4 13 0;
#X connect 18 0 20 0;
#X connect 19 0 18 0;
#X connect 20 0 21 0;
#X connect 21 0 3 0;
#X connect 22 0 4 0;
#X connect 22 1 24 0;
#X connect 23 0 15 0;
#X connect 24 0 23 1;
#X connect 25 0 17 0;
#X restore 36 181 pd kick-it;
#N canvas 0 22 317 329 q2 0;
#X obj 18 17 inlet;
#X obj 18 57 *;
#X msg 18 37 \$1 \$1;
#X obj 18 77 * 0.1;
#X obj 18 277 outlet;
#X msg 94 227 set \$1;
#X obj 18 257 makefilename;
#X obj 18 117 t f f f;
#X obj 40 157 -;
#X obj 40 177 sel 0;
#X msg 40 207 set %d;
#X obj 62 137 int;
#X obj 94 187 * 10.001;
#X obj 94 207 makefilename %%d.%d;
#X obj 18 97 + 1.5;
#X connect 0 0 2 0;
#X connect 1 0 3 0;
#X connect 2 0 1 0;
#X connect 3 0 14 0;
#X connect 5 0 6 0;
#X connect 6 0 4 0;
#X connect 7 0 6 0;
#X connect 7 1 8 0;
#X connect 7 2 11 0;
#X connect 8 0 9 0;
#X connect 9 0 10 0;
#X connect 9 1 12 0;
#X connect 10 0 6 0;
#X connect 11 0 8 1;
#X connect 12 0 13 0;
#X connect 13 0 5 0;
#X connect 14 0 7 0;
#X restore 429 111 pd q2;
#X obj 22 21 mmm-module \$1 \$2 kick-it 5;
#X obj 152 71 mmm-ctrl \$1 \$2 2 attack 0 127 84 int;
#X obj 152 91 mmm-ctrl \$1 \$2 3 frequency 0 127 30 int;
#X obj 152 111 mmm-ctrl \$1 \$2 4 decay 1 200 30 ext;
#X obj 152 131 mmm-ctrl \$1 \$2 5 power 0 100 20 int;
#X msg 52 71 level \$1;
#X msg 52 91 attack \$1;
#X msg 52 111 frequency \$1;
#X msg 52 131 decay \$1;
#X msg 52 151 power \$1;
#X obj 152 51 mmm-ctrl \$1 \$2 1 level 0 100 -1 int;
#X msg 254 21 version 0.3.2;
#X connect 0 0 4 0;
#X connect 1 0 3 0;
#X connect 2 0 1 0;
#X connect 5 0 0 0;
#X connect 6 0 4 0;
#X connect 6 0 3 0;
#X connect 7 0 11 1;
#X connect 9 0 14 0;
#X connect 10 0 15 0;
#X connect 11 0 16 0;
#X connect 11 2 7 0;
#X connect 12 0 17 0;
#X connect 13 0 6 0;
#X connect 14 0 6 0;
#X connect 15 0 6 0;
#X connect 16 0 6 0;
#X connect 17 0 6 0;
#X connect 18 0 13 0;
