#N canvas 101 56 399 238 10;
#X obj 23 141 r~ 1-nothing;
#X obj 133 141 r~ 1-nothing;
#N canvas 125 324 593 456 snaredrum-controller 0;
#X msg 33 68 level \$1;
#X msg 104 88 tdecay \$1;
#X msg 183 108 ndecay \$1;
#X msg 264 128 pitch \$1;
#X msg 43 188 pitchenv \$1;
#X msg 134 208 filter \$1;
#X msg 144 268 cutoff \$1;
#X msg 254 308 tone \$1;
#X msg 324 349 dirty \$1;
#X obj 33 428 outlet;
#X obj 33 48 * 0.01;
#X obj 104 68 * 0.01;
#X obj 183 88 * 0.01;
#X obj 264 108 * 0.01;
#X obj 43 168 * 0.01;
#X obj 134 188 * 0.01;
#X obj 144 248 * 0.01;
#X obj 254 288 * 0.01;
#X obj 324 329 * 0.01;
#X obj 33 28 mmm-ctrl \$1 \$2 1 level 0 100 -1 int;
#X obj 104 48 mmm-ctrl \$1 \$2 2 tdecay 0 100 50 int;
#X obj 184 68 mmm-ctrl \$1 \$2 3 ndecay 0 100 50 int;
#X obj 264 88 mmm-ctrl \$1 \$2 4 pitch 0 100 50 int;
#X obj 43 148 mmm-ctrl \$1 \$2 5 pitchenv 0 100 50 int;
#X obj 134 168 mmm-ctrl \$1 \$2 6 filter 0 100 50 int;
#X obj 144 228 mmm-ctrl \$1 \$2 7 cutoff 0 100 50 int;
#X obj 254 268 mmm-ctrl \$1 \$2 8 tone 0 100 50 int;
#X obj 324 309 mmm-ctrl \$1 \$2 9 dirty 0 100 50 int;
#X connect 0 0 9 0;
#X connect 1 0 9 0;
#X connect 2 0 9 0;
#X connect 3 0 9 0;
#X connect 4 0 9 0;
#X connect 5 0 9 0;
#X connect 6 0 9 0;
#X connect 7 0 9 0;
#X connect 8 0 9 0;
#X connect 10 0 0 0;
#X connect 11 0 1 0;
#X connect 12 0 2 0;
#X connect 13 0 3 0;
#X connect 14 0 4 0;
#X connect 15 0 5 0;
#X connect 16 0 6 0;
#X connect 17 0 7 0;
#X connect 18 0 8 0;
#X connect 19 0 10 0;
#X connect 20 0 11 0;
#X connect 21 0 12 0;
#X connect 22 0 13 0;
#X connect 23 0 14 0;
#X connect 24 0 15 0;
#X connect 25 0 16 0;
#X connect 26 0 17 0;
#X connect 27 0 18 0;
#X restore 72 61 pd snaredrum-controller;
#X obj 23 121 r \$1-\$2L-r;
#X obj 133 121 r \$1-\$2R-r;
#X obj 133 161 s~ \$1-\$2R;
#X obj 23 161 s~ \$1-\$2L;
#X obj 23 21 mmm-module \$1 \$2 kilosnare 9;
#N canvas 355 276 760 417 ksd 0;
#X obj 144 690 outlet~;
#X obj 117 390 noise~;
#X obj 18 419 *~;
#X obj 18 379 *~;
#X obj 18 339 clip~ -0.5 0.5;
#X obj 18 359 +~ 0.5;
#X obj 18 633 clip~ -0.99 0.99;
#X obj 18 399 *~ 0.2;
#X obj 305 572 osc~;
#X obj 144 668 *~;
#X obj 18 259 *~ 50;
#X obj 71 289 +~ 70;
#X obj 18 289 +~ 50;
#X obj 71 309 osc~;
#X obj 18 309 osc~;
#X obj 218 53 inlet;
#X msg 524 428 1;
#X msg 556 428 0;
#X obj 524 458 switch~ 0;
#X obj 305 512 *~ 130;
#X obj 205 391 +~ 1;
#X obj 304 197 + 40;
#X msg 288 267 1 0.2 0 \, 0 \$1 0.2;
#X obj 288 247 f;
#X obj 288 287 vline~;
#X msg 366 437 1 0.2 0 \, 0 \$1 0.2;
#X obj 366 457 vline~;
#X obj 305 592 *~;
#X obj 305 552 +~ 80;
#X obj 110 206 t b f;
#X obj 438 524 + 80;
#X obj 438 504 * 250;
#X obj 305 532 *~ 0;
#X obj 305 612 *~ 1;
#X obj 457 299 f;
#X obj 572 278 * 100;
#N canvas 0 22 450 300 filter1 0;
#X obj 169 153 hip~ 1500;
#X obj 347 136 * 2;
#X obj 169 128 bp~ 3000 1.8;
#X obj 347 113 + 1300;
#X obj 347 91 * 1700;
#X obj 331 32 inlet;
#X obj 169 102 inlet~;
#X obj 169 184 outlet~;
#X connect 0 0 7 0;
#X connect 1 0 2 1;
#X connect 2 0 0 0;
#X connect 3 0 1 0;
#X connect 3 0 0 1;
#X connect 4 0 3 0;
#X connect 5 0 4 0;
#X connect 6 0 2 0;
#X restore 18 553 pd filter1;
#N canvas 0 22 450 300 filter2 0;
#X obj 331 32 inlet;
#X obj 169 102 inlet~;
#X obj 169 184 outlet~;
#X obj 170 125 hip~ 4000;
#X obj 170 145 lp2_cheb~ 8000 2;
#X obj 347 136 * 3;
#X obj 347 113 + 3000;
#X obj 347 91 * 3000;
#X connect 0 0 7 0;
#X connect 1 0 3 0;
#X connect 3 0 4 0;
#X connect 4 0 2 0;
#X connect 5 0 4 1;
#X connect 6 0 3 1;
#X connect 6 0 5 0;
#X connect 7 0 6 0;
#X restore 120 511 pd filter2;
#X obj 120 551 *~ 0;
#X obj 110 477 f;
#X obj 198 521 f;
#X obj 198 541 * -1;
#X obj 198 561 + 1;
#X obj 18 583 *~ 0;
#X obj 583 219 * 0.2;
#X obj 305 492 *~;
#X obj 18 459 *~ 7;
#X obj 120 531 *~ 2;
#X obj 326 393 dbtorms~;
#X obj 572 298 + 10;
#X obj 304 177 * 330;
#X obj 366 497 dbtorms~;
#X obj 366 477 *~ 100;
#X msg 110 236 0.25;
#X obj 205 371 *~ -1;
#X obj 326 371 *~ 100;
#X obj 18 439 *~;
#X obj 18 613 *~ 1;
#X obj 572 338 max;
#X obj 572 318 t b f;
#X obj 572 358 + 10;
#X obj 556 408 delay;
#X obj 556 378 f;
#X obj 110 186 spigot;
#X obj 110 166 t f f;
#X obj 110 146 * 1;
#X obj 218 73 route ndecay cutoff pitch pitchenv tone tdecay filter
dirty level;
#X connect 1 0 2 1;
#X connect 2 0 56 0;
#X connect 3 0 7 0;
#X connect 4 0 5 0;
#X connect 5 0 3 0;
#X connect 6 0 9 0;
#X connect 7 0 2 0;
#X connect 8 0 27 0;
#X connect 9 0 0 0;
#X connect 10 0 12 0;
#X connect 10 0 11 0;
#X connect 11 0 13 0;
#X connect 12 0 14 0;
#X connect 13 0 4 0;
#X connect 14 0 4 0;
#X connect 15 0 66 0;
#X connect 16 0 18 0;
#X connect 17 0 18 0;
#X connect 19 0 32 0;
#X connect 20 0 2 0;
#X connect 21 0 23 1;
#X connect 21 0 58 0;
#X connect 22 0 24 0;
#X connect 23 0 22 0;
#X connect 24 0 10 0;
#X connect 24 0 3 1;
#X connect 24 0 54 0;
#X connect 24 0 55 0;
#X connect 25 0 26 0;
#X connect 26 0 45 0;
#X connect 26 0 45 1;
#X connect 26 0 52 0;
#X connect 27 0 33 0;
#X connect 28 0 8 0;
#X connect 29 0 23 0;
#X connect 29 0 53 0;
#X connect 29 0 16 0;
#X connect 29 0 34 0;
#X connect 29 0 62 0;
#X connect 29 1 9 1;
#X connect 30 0 28 1;
#X connect 31 0 30 0;
#X connect 32 0 28 0;
#X connect 33 0 9 0;
#X connect 34 0 25 0;
#X connect 35 0 49 0;
#X connect 36 0 43 0;
#X connect 37 0 47 0;
#X connect 38 0 57 0;
#X connect 39 0 37 1;
#X connect 39 0 36 1;
#X connect 40 0 38 1;
#X connect 40 0 41 0;
#X connect 41 0 42 0;
#X connect 42 0 43 1;
#X connect 43 0 57 0;
#X connect 44 0 7 1;
#X connect 45 0 19 0;
#X connect 46 0 36 0;
#X connect 46 0 37 0;
#X connect 47 0 38 0;
#X connect 48 0 56 1;
#X connect 49 0 34 1;
#X connect 49 0 59 0;
#X connect 50 0 21 0;
#X connect 51 0 27 1;
#X connect 52 0 51 0;
#X connect 53 0 13 1;
#X connect 53 0 14 1;
#X connect 53 0 8 1;
#X connect 54 0 20 0;
#X connect 55 0 48 0;
#X connect 56 0 46 0;
#X connect 57 0 6 0;
#X connect 58 0 60 0;
#X connect 59 0 58 0;
#X connect 59 1 58 1;
#X connect 60 0 62 1;
#X connect 61 0 17 0;
#X connect 62 0 61 0;
#X connect 63 0 29 0;
#X connect 64 0 63 0;
#X connect 64 1 63 1;
#X connect 65 0 64 0;
#X connect 66 0 50 0;
#X connect 66 1 39 0;
#X connect 66 2 31 0;
#X connect 66 3 32 1;
#X connect 66 4 33 1;
#X connect 66 5 35 0;
#X connect 66 6 40 0;
#X connect 66 7 44 0;
#X connect 66 8 65 0;
#X restore 72 91 pd ksd;
#X msg 240 21 version 0.3.3;
#X connect 0 0 6 0;
#X connect 1 0 5 0;
#X connect 2 0 8 0;
#X connect 3 0 0 0;
#X connect 4 0 1 0;
#X connect 8 0 6 0;
#X connect 8 0 5 0;
