#N canvas 292 73 385 223 10;
#X obj 29 121 r~ 1-nothing;
#X obj 139 121 r~ 1-nothing;
#X obj 29 101 r \$1-\$2L-r;
#X obj 139 101 r \$1-\$2R-r;
#X obj 139 141 s~ \$1-\$2R;
#X obj 29 141 s~ \$1-\$2L;
#N canvas 92 271 617 450 kcv 0;
#X obj 20 388 outlet~;
#X obj 20 338 *~;
#X msg 137 294 1;
#X msg 167 294 0;
#X msg 86 248 0;
#X obj 20 278 *~;
#X obj 86 123 t b b f;
#X obj 36 308 osc~ 700;
#X obj 20 208 vline~;
#X obj 167 274 del 22;
#X obj 137 324 switch~;
#X obj 20 168 f;
#X msg 20 188 1 0.2 0 \, 0 \$1 0.2;
#X obj 204 254 + 5;
#X obj 20 248 dbtorms~;
#X obj 20 228 *~ 100;
#X obj 203 146 + 15;
#X obj 86 103 spigot;
#X obj 86 83 t f f;
#X obj 86 63 * 0.01;
#X obj 203 126 * 80;
#X obj 86 23 mmm-ctrl \$1 \$2 1 level 0 100 -1 int;
#X obj 203 106 mmm-ctrl \$1 \$2 3 decay 0 100 50 int;
#X obj 20 358 *~ 0.4;
#X obj 304 136 mtof;
#X obj 304 56 mmm-ctrl \$1 \$2 2 pitch 0 127 64 int;
#X connect 1 0 23 0;
#X connect 2 0 10 0;
#X connect 3 0 10 0;
#X connect 4 0 7 1;
#X connect 5 0 1 0;
#X connect 6 0 4 0;
#X connect 6 0 2 0;
#X connect 6 0 9 0;
#X connect 6 0 11 0;
#X connect 6 2 5 1;
#X connect 7 0 1 1;
#X connect 8 0 15 0;
#X connect 9 0 3 0;
#X connect 11 0 12 0;
#X connect 12 0 8 0;
#X connect 13 0 9 1;
#X connect 14 0 5 0;
#X connect 15 0 14 0;
#X connect 16 0 11 1;
#X connect 16 0 13 0;
#X connect 17 0 6 0;
#X connect 18 0 17 0;
#X connect 18 1 17 1;
#X connect 19 0 18 0;
#X connect 20 0 16 0;
#X connect 21 0 19 0;
#X connect 22 0 20 0;
#X connect 23 0 0 0;
#X connect 24 0 7 0;
#X connect 25 0 24 0;
#X restore 84 51 pd kcv;
#X obj 28 21 mmm-module \$1 \$2 kiloclave 3;
#X msg 230 21 version 0.3.5;
#X connect 0 0 5 0;
#X connect 1 0 4 0;
#X connect 2 0 0 0;
#X connect 3 0 1 0;
#X connect 6 0 5 0;
#X connect 6 0 4 0;
