#N canvas 1 22 757 515 10;
#X obj 165 246 * 0.01;
#X obj 527 426 r~ 1-nothing;
#X obj 627 426 r~ 1-nothing;
#X obj 186 286 * 0.01;
#X obj 208 326 * 0.01;
#X obj 504 226 * 0.01;
#X obj 408 226 makesymbol %s;
#X obj 539 266 * 0.01;
#X obj 443 266 makesymbol %s;
#X obj 554 306 * 0.01;
#X obj 458 306 makesymbol %s;
#X obj 17 70 gemhead;
#X msg 37 416 debug \$1;
#N canvas 0 22 275 172 hotpack 0;
#X obj 25 24 inlet;
#X obj 75 24 inlet;
#X obj 75 44 t b f;
#X obj 34 97 outlet;
#X obj 125 24 inlet;
#X obj 125 44 t b f;
#X obj 34 77 pack f f f f;
#X obj 185 45 inlet;
#X connect 0 0 6 0;
#X connect 1 0 2 0;
#X connect 2 0 6 0;
#X connect 2 1 6 1;
#X connect 4 0 5 0;
#X connect 5 0 6 0;
#X connect 5 1 6 2;
#X connect 6 0 3 0;
#X connect 7 0 6 3;
#X restore 165 346 pd hotpack;
#X obj 574 80 makesymbol %s;
#X obj 671 80 * 0.1;
#X obj 323 100 * 0.1;
#X obj 55 190 line;
#X obj 36 130 line;
#X obj 391 190 makesymbol %s;
#X obj 488 190 * 0.02;
#X obj 165 366 tripleLine;
#X obj 98 250 line;
#X obj 98 210 * 0.02;
#X obj 17 366 translateXYZ;
#X obj 17 216 rotateXYZ;
#X obj 17 446 light;
#X obj 36 110 pack;
#X obj 55 170 pack;
#X obj 98 230 pack;
#X obj 527 406 r \$1-\$2L-r;
#X obj 627 406 r \$1-\$2R-r;
#X obj 527 446 s~ \$1-\$2L;
#X obj 627 446 s~ \$1-\$2R;
#X obj 17 50 mmm-ctrl \$1 \$2 1 gemhead -100 100 -98 int;
#X obj 165 226 mmm-ctrl \$1 \$2 2 red 0 100 100 ext;
#X obj 186 266 mmm-ctrl \$1 \$2 3 green 0 100 100 ext;
#X obj 208 306 mmm-ctrl \$1 \$2 4 blue 0 100 100 ext;
#X obj 36 90 mmm-ctrl \$1 \$2 5 rotateX -180 180 0 int;
#X obj 55 150 mmm-ctrl \$1 \$2 6 rotateY -180 180 -90 int;
#X obj 98 190 mmm-ctrl \$1 \$2 7 translateX 0 200 100 ext;
#X obj 323 80 mmm-ctrl \$1 \$2 8 glide 0 160 80 ext;
#X obj 37 396 mmm-ctrl \$1 \$2 9 debug 0 1 0 int;
#X obj 323 120 mmm-ticks2ms;
#X obj 17 20 mmm-module \$1 \$2 light 9;
#X msg 274 20 version 0.3.5;
#X connect 0 0 13 0;
#X connect 1 0 32 0;
#X connect 2 0 33 0;
#X connect 3 0 13 1;
#X connect 4 0 13 2;
#X connect 5 0 6 0;
#X connect 6 0 35 1;
#X connect 7 0 8 0;
#X connect 8 0 36 1;
#X connect 9 0 10 0;
#X connect 10 0 37 1;
#X connect 11 0 25 0;
#X connect 12 0 26 0;
#X connect 13 0 21 0;
#X connect 14 0 41 1;
#X connect 15 0 14 0;
#X connect 16 0 43 0;
#X connect 17 0 25 2;
#X connect 18 0 25 1;
#X connect 19 0 40 1;
#X connect 20 0 19 0;
#X connect 21 0 26 1;
#X connect 22 0 24 1;
#X connect 23 0 29 0;
#X connect 24 0 26 0;
#X connect 25 0 24 0;
#X connect 27 0 18 0;
#X connect 28 0 17 0;
#X connect 29 0 22 0;
#X connect 30 0 1 0;
#X connect 31 0 2 0;
#X connect 34 0 11 0;
#X connect 35 0 0 0;
#X connect 35 2 5 0;
#X connect 36 0 3 0;
#X connect 36 2 7 0;
#X connect 37 0 4 0;
#X connect 37 2 9 0;
#X connect 38 0 27 0;
#X connect 39 0 28 0;
#X connect 40 0 23 0;
#X connect 40 2 20 0;
#X connect 41 0 16 0;
#X connect 41 2 15 0;
#X connect 42 0 12 0;
#X connect 43 0 13 3;
#X connect 43 0 27 1;
#X connect 43 0 28 1;
#X connect 43 0 29 1;
