#N canvas 11 22 647 529 10;
#X obj 28 431 r~ 1-nothing;
#X obj 44 381 line~;
#X obj 462 141 makesymbol %s;
#X obj 44 221 * 0.01;
#X obj 143 431 r~ 1-nothing;
#X obj 217 321 max 1.5;
#X obj 143 411 r \$1-\$2R-r;
#X obj 28 411 r \$1-\$2L-r;
#X obj 559 141 * 0.1;
#X obj 217 221 * 0.1;
#X obj 101 221 * 0.01;
#X obj 44 351 pack;
#X obj 504 171 sel 0 1;
#X msg 504 211 symbol ticks;
#X msg 526 191 symbol ms;
#X obj 159 381 line~;
#X obj 159 221 * 0.01;
#X obj 28 21 mmm-module \$1 \$2 line 5;
#X obj 280 171 mmm-ctrl \$1 \$2 5 unit 0 1 0 ext;
#X obj 159 241 t b f;
#X obj 159 271 *;
#X obj 159 351 pack;
#X obj 194 351 *;
#X obj 217 261 route 0 1;
#X obj 217 241 list prepend 0;
#X obj 280 191 t b f;
#X obj 246 281 + 0.5;
#X obj 143 471 s~ \$1-\$2R;
#X obj 28 471 s~ \$1-\$2L;
#X obj 28 451 *~;
#X obj 143 451 *~;
#X obj 159 111 mmm-ctrl \$1 \$2 4 invert -100 100 100 int;
#X obj 44 51 mmm-ctrl \$1 \$2 1 target 0 100 0 int;
#X obj 101 81 mmm-ctrl \$1 \$2 2 jump 0 100 100 int;
#X obj 217 141 mmm-ctrl \$1 \$2 3 time 1 160 10 ext;
#X obj 217 301 mmm-ticks2ms;
#X obj 44 161 f;
#X obj 53 141 b;
#X obj 52 121 route notes;
#X msg 255 21 version 0.3.2;
#X obj 52 101 r \$1-\$2;
#X connect 0 0 29 0;
#X connect 1 0 29 1;
#X connect 2 0 34 1;
#X connect 3 0 11 0;
#X connect 3 0 20 0;
#X connect 4 0 30 0;
#X connect 5 0 11 1;
#X connect 5 0 21 1;
#X connect 6 0 4 0;
#X connect 7 0 0 0;
#X connect 8 0 2 0;
#X connect 9 0 24 0;
#X connect 10 0 1 0;
#X connect 10 0 22 0;
#X connect 11 0 1 0;
#X connect 12 0 13 0;
#X connect 12 1 14 0;
#X connect 13 0 18 1;
#X connect 14 0 18 1;
#X connect 15 0 30 1;
#X connect 16 0 19 0;
#X connect 18 0 25 0;
#X connect 18 2 12 0;
#X connect 19 0 22 0;
#X connect 19 0 20 0;
#X connect 19 1 22 1;
#X connect 19 1 20 1;
#X connect 20 0 21 0;
#X connect 21 0 15 0;
#X connect 22 0 15 0;
#X connect 23 0 35 0;
#X connect 23 1 26 0;
#X connect 24 0 23 0;
#X connect 25 0 9 0;
#X connect 25 1 24 1;
#X connect 26 0 5 0;
#X connect 29 0 28 0;
#X connect 30 0 27 0;
#X connect 31 0 16 0;
#X connect 32 0 36 0;
#X connect 33 0 10 0;
#X connect 34 0 9 0;
#X connect 34 2 8 0;
#X connect 35 0 5 0;
#X connect 36 0 3 0;
#X connect 37 0 36 0;
#X connect 38 0 37 0;
#X connect 40 0 38 0;
