#N canvas 317 185 373 421 10;
#X obj 28 272 r~ 1-nothing;
#X obj 246 272 r~ 1-nothing;
#X obj 148 192 -;
#X obj 148 212 min 1;
#X obj 198 212 min 1;
#X obj 148 142 + 1;
#X obj 148 122 * 0.01;
#X obj 148 252 *;
#X obj 198 252 *;
#X obj 64 212 t b f;
#X obj 148 272 mtof;
#X obj 198 272 mtof;
#X obj 28 321 lop~;
#X obj 246 322 lop~;
#X obj 246 252 r \$1-\$2R-r;
#X obj 28 252 r \$1-\$2L-r;
#X obj 28 362 s~ \$1-\$2L;
#X obj 246 362 s~ \$1-\$2R;
#X msg 148 172 2 \$1;
#X obj 28 21 mmm-module \$1 \$2 lop 2;
#X obj 28 51 mmm-ctrl \$1 \$2 1 frequency 0 127 127 int;
#X obj 87 81 mmm-ctrl \$1 \$2 2 pan -100 100 0 int;
#X msg 235 21 version 0.3.3;
#X connect 0 0 12 0;
#X connect 1 0 13 0;
#X connect 2 0 3 0;
#X connect 3 0 7 0;
#X connect 4 0 8 0;
#X connect 5 0 4 0;
#X connect 5 0 18 0;
#X connect 6 0 5 0;
#X connect 7 0 10 0;
#X connect 8 0 11 0;
#X connect 9 0 7 0;
#X connect 9 0 8 0;
#X connect 9 1 7 1;
#X connect 9 1 8 1;
#X connect 10 0 12 1;
#X connect 11 0 13 1;
#X connect 12 0 16 0;
#X connect 13 0 17 0;
#X connect 14 0 1 0;
#X connect 15 0 0 0;
#X connect 18 0 2 0;
#X connect 20 0 9 0;
#X connect 21 0 6 0;
