#N canvas 340 231 838 505 10;
#X obj 28 131 r~ 1-nothing;
#X obj 28 381 *~;
#X obj 208 131 r~ 1-nothing;
#X obj 208 381 *~;
#X obj 208 111 r \$1-\$2R-r;
#X obj 28 111 r \$1-\$2L-r;
#X obj 28 411 s~ \$1-\$2L;
#X obj 208 411 s~ \$1-\$2R;
#N canvas 514 142 311 291 f2s 0;
#X obj 27 25 inlet;
#X obj 27 225 outlet;
#X msg 104 165 set \$1;
#X obj 27 195 makefilename;
#X obj 27 55 t f f f;
#X obj 50 95 -;
#X obj 50 115 sel 0;
#X msg 50 145 set %d;
#X obj 71 75 int;
#X obj 104 145 makefilename %%d.%01d;
#X obj 105 125 * 10.001;
#X connect 0 0 4 0;
#X connect 2 0 3 0;
#X connect 3 0 1 0;
#X connect 4 0 3 0;
#X connect 4 1 5 0;
#X connect 4 2 8 0;
#X connect 5 0 6 0;
#X connect 6 0 7 0;
#X connect 6 1 10 0;
#X connect 7 0 3 0;
#X connect 8 0 5 1;
#X connect 9 0 2 0;
#X connect 10 0 9 0;
#X restore 705 91 pd f2s;
#X obj 753 91 * 0.1;
#X obj 441 91 mmm-ctrl \$1 \$2 2 length 1 320 160 ext;
#X obj 268 171 table \$3-loop-L;
#X msg 441 191 resize \$1;
#X obj 441 131 mmm-ticks2ms;
#X obj 441 151 * 44.1;
#X obj 441 111 * 0.1;
#N canvas 0 22 240 219 rec-play 0;
#X obj 20 19 inlet;
#X obj 20 139 outlet;
#X msg 20 69 symbol record;
#X msg 42 89 symbol play;
#X obj 20 49 sel 0 1;
#X connect 0 0 4 0;
#X connect 2 0 1 0;
#X connect 3 0 1 0;
#X connect 4 0 2 0;
#X connect 4 1 3 0;
#X restore 361 51 pd rec-play;
#X obj 68 381 *~;
#X obj 248 381 *~;
#X obj 124 351 cos;
#X obj 164 351 sin;
#X obj 124 321 * 0.015708;
#X obj 268 191 table \$3-loop-R;
#X obj 429 411 soundfiler;
#X msg 429 391 write -wave -bytes 2 \$1 \$2-L \$2-R;
#X obj 429 351 savepanel;
#X obj 429 331 del 200;
#X obj 429 311 sel 1;
#X obj 429 371 list append \$3-loop;
#X obj 451 221 s \$1-\$2-loop-L;
#X obj 441 241 s \$1-\$2-loop-R;
#X obj 441 171 change 100;
#X obj 174 111 b;
#N canvas 0 22 462 312 write 0;
#X obj 18 22 inlet~;
#X obj 188 22 inlet~;
#X obj 298 22 inlet;
#X obj 18 152 outlet~;
#X obj 18 82 tabwrite~ \$3-loop-L;
#X obj 188 82 tabwrite~ \$3-loop-R;
#X connect 0 0 4 0;
#X connect 1 0 5 0;
#X connect 2 0 5 0;
#X connect 2 0 4 0;
#X restore 109 199 pd write;
#N canvas 0 22 466 316 read--- 0;
#X obj 19 25 inlet~;
#X obj 19 145 outlet~;
#X obj 199 145 outlet~;
#X obj 199 25 inlet;
#X obj 19 95 tabplay~ \$3-loop-L;
#X obj 199 95 tabplay~ \$3-loop-R;
#X connect 3 0 5 0;
#X connect 3 0 4 0;
#X connect 4 0 1 0;
#X connect 5 0 2 0;
#X restore 109 229 pd read---;
#X obj 124 261 mmm-ctrl \$1 \$2 3 xfade 0 100 100 int;
#X msg 514 321 bang;
#X obj 128 51 mmm-ctrl \$1 \$2 1 loop 0 1 -1 ext;
#X obj 128 71 sel 0 1;
#X obj 568 277 sel 1;
#X msg 568 297 symbol save;
#X obj 319 285 mmm-local \$1 \$2 4 file 1 1 0 ext;
#X obj 28 21 mmm-module \$1 \$2 loop 4;
#X msg 256 21 version 0.3.5;
#X connect 0 0 1 0;
#X connect 0 0 33 0;
#X connect 1 0 6 0;
#X connect 2 0 3 0;
#X connect 2 0 33 1;
#X connect 3 0 7 0;
#X connect 4 0 2 0;
#X connect 5 0 0 0;
#X connect 8 0 10 1;
#X connect 9 0 8 0;
#X connect 10 0 15 0;
#X connect 10 2 9 0;
#X connect 12 0 29 0;
#X connect 12 0 30 0;
#X connect 13 0 14 0;
#X connect 14 0 31 0;
#X connect 15 0 13 0;
#X connect 16 0 37 1;
#X connect 17 0 6 0;
#X connect 18 0 7 0;
#X connect 19 0 1 1;
#X connect 19 0 3 1;
#X connect 20 0 17 1;
#X connect 20 0 18 1;
#X connect 21 0 20 0;
#X connect 21 0 19 0;
#X connect 24 0 23 0;
#X connect 25 0 28 0;
#X connect 26 0 25 0;
#X connect 27 0 26 0;
#X connect 28 0 24 0;
#X connect 31 0 12 0;
#X connect 32 0 34 1;
#X connect 33 0 34 0;
#X connect 34 0 17 0;
#X connect 34 1 18 0;
#X connect 35 0 21 0;
#X connect 36 0 25 0;
#X connect 37 0 38 0;
#X connect 37 2 16 0;
#X connect 38 0 32 0;
#X connect 38 0 33 2;
#X connect 38 1 32 0;
#X connect 39 0 40 0;
#X connect 40 0 41 1;
#X connect 41 1 27 0;
#X connect 41 2 39 0;
