#N canvas 25 22 472 456 10;
#X obj 257 101 r~ 1-nothing;
#X obj 356 101 r~ 1-nothing;
#X obj 257 81 r \$1-\$2L-r;
#X obj 356 81 r \$1-\$2R-r;
#X obj 356 121 s~ \$1-\$2R;
#X obj 257 121 s~ \$1-\$2L;
#X obj 28 101 mmm-a \$3-live MIDI_notein;
#X obj 28 81 pack f f;
#X obj 28 51 notein;
#X obj 123 171 mmm-ctrl \$1 \$2 1 to+ 1 7 1 int;
#X obj 58 241 + 1;
#X obj 28 241 f 0;
#X obj 28 221 until;
#X obj 28 171 t b f;
#X obj 147 241 + 1;
#X obj 147 221 f \$2;
#X obj 147 201 loadbang;
#X obj 28 281 +;
#X obj 28 321 makefilename \$1-%d;
#X obj 28 121 unpack f f;
#X obj 28 141 spigot;
#X obj 93 141 != 0;
#X obj 93 241 mod 1;
#X obj 28 201 f 1;
#X obj 28 21 mmm-module \$1 \$2 MIDI_notein 1;
#X obj 28 351 pack s f f;
#X msg 295 21 version 0.3.2;
#X msg 28 371 \; \$1 notes-seq \$2 \; \$1 notes \$2 \; \$1 level \$3
;
#X connect 0 0 5 0;
#X connect 1 0 4 0;
#X connect 2 0 0 0;
#X connect 3 0 1 0;
#X connect 6 0 19 0;
#X connect 7 0 6 0;
#X connect 8 0 7 0;
#X connect 8 1 7 1;
#X connect 9 0 22 1;
#X connect 9 0 23 1;
#X connect 10 0 22 0;
#X connect 11 0 10 0;
#X connect 11 0 17 0;
#X connect 12 0 11 0;
#X connect 13 0 23 0;
#X connect 13 1 25 1;
#X connect 14 0 17 1;
#X connect 15 0 14 0;
#X connect 16 0 15 0;
#X connect 17 0 18 0;
#X connect 18 0 25 0;
#X connect 19 0 20 0;
#X connect 19 1 21 0;
#X connect 19 1 25 2;
#X connect 20 0 13 0;
#X connect 21 0 20 1;
#X connect 22 0 11 1;
#X connect 23 0 12 0;
#X connect 25 0 27 0;
