#N canvas 33 22 614 658 10;
#X obj 219 65 r~ 1-nothing;
#X obj 322 65 r~ 1-nothing;
#X obj 219 45 r \$1-\$2L-r;
#X obj 219 85 s~ \$1-\$2L;
#X obj 322 45 r \$1-\$2R-r;
#X obj 322 85 s~ \$1-\$2R;
#X obj 31 215 list;
#X obj 31 255 list split 0;
#X obj 70 275 list split 1;
#X obj 219 15 mmm-module \$1 \$2 motor 7;
#N canvas 405 22 543 662 engine 0;
#X obj 14 91 int;
#X obj 14 151 change;
#X obj 14 111 - 1;
#X obj 86 64 - 1;
#X obj 14 131 % 2;
#X obj 14 171 sel 0;
#X obj 44 408 int;
#X obj 44 428 change;
#X obj 60 368 - 1;
#X obj 92 196 t b f;
#X obj 69 288 *;
#X obj 44 388 * 1;
#X obj 85 258 t b f;
#X obj 44 448 + 1;
#X obj 205 247 f 0;
#X obj 14 201 t b b b;
#N canvas 157 268 426 353 curve 0;
#X obj 16 19 inlet;
#X obj 143 19 inlet;
#X obj 239 22 inlet;
#X obj 16 279 outlet;
#X text 16 2 trigger;
#X text 137 2 duration;
#X obj 16 39 t b b;
#X msg 46 99 0 0;
#X obj 239 202 t f b;
#X obj 327 287 -;
#X obj 327 202 t f b f;
#X obj 327 267 * 50;
#X obj 68 139 line;
#X obj 98 179 * 0;
#X obj 32 199 -;
#X obj 32 219 + 0;
#X obj 16 239 / 1;
#X obj 68 159 t b f;
#X obj 16 139 line;
#X obj 16 119 t l l;
#X obj 16 259 min 1;
#N canvas 798 677 140 181 logb 0;
#X obj 24 53 t f f;
#X obj 24 73 *;
#X obj 24 13 inlet;
#X obj 24 113 outlet;
#X obj 24 33 * 10;
#X obj 24 93 / 200;
#X connect 0 0 1 0;
#X connect 0 1 1 1;
#X connect 1 0 5 0;
#X connect 2 0 4 0;
#X connect 4 0 0 0;
#X connect 5 0 3 0;
#X restore 327 182 pd logb;
#N canvas 599 488 129 151 loga 0;
#X obj 24 13 inlet;
#X obj 24 99 outlet;
#X obj 24 77 * -1;
#X obj 24 55 sqrt;
#X obj 24 34 * -1.01;
#X connect 0 0 4 0;
#X connect 2 0 1 0;
#X connect 3 0 2 0;
#X connect 4 0 3 0;
#X restore 239 182 pd loga;
#X obj 239 82 moses 0;
#X obj 239 42 * 200;
#X obj 239 62 - 100;
#X obj 283 102 moses 1;
#X obj 327 162 * 0.01;
#X obj 239 162 * 0.01;
#X obj 239 142 + 8;
#X obj 226 287 f;
#X obj 283 122 f 0;
#X text 239 4 curve;
#X obj 16 59 f 1;
#X obj 16 79 pack f f;
#X obj 269 222 f 0;
#X obj 349 222 f 0;
#X obj 32 179 f 1;
#X msg 60 24 bang;
#X floatatom 292 27 5 0 0 0 - - -;
#X connect 0 0 6 0;
#X connect 1 0 34 1;
#X connect 2 0 24 0;
#X connect 6 0 33 0;
#X connect 6 1 7 0;
#X connect 7 0 12 0;
#X connect 7 0 18 0;
#X connect 8 0 30 0;
#X connect 8 1 35 0;
#X connect 9 0 15 1;
#X connect 10 0 11 0;
#X connect 10 1 36 0;
#X connect 10 2 9 1;
#X connect 11 0 13 1;
#X connect 11 0 9 0;
#X connect 12 0 17 0;
#X connect 13 0 14 1;
#X connect 14 0 15 0;
#X connect 15 0 16 1;
#X connect 16 0 20 0;
#X connect 17 0 37 0;
#X connect 17 1 13 0;
#X connect 18 0 16 0;
#X connect 19 0 18 0;
#X connect 19 1 12 0;
#X connect 20 0 3 0;
#X connect 21 0 10 0;
#X connect 22 0 8 0;
#X connect 23 0 29 0;
#X connect 23 1 26 0;
#X connect 24 0 25 0;
#X connect 25 0 23 0;
#X connect 26 0 31 0;
#X connect 26 1 27 0;
#X connect 27 0 21 0;
#X connect 28 0 22 0;
#X connect 29 0 28 0;
#X connect 30 0 13 1;
#X connect 30 0 15 1;
#X connect 31 0 13 1;
#X connect 31 0 15 1;
#X connect 33 0 34 0;
#X connect 34 0 19 0;
#X connect 35 0 11 0;
#X connect 36 0 30 0;
#X connect 37 0 14 0;
#X connect 38 0 6 0;
#X connect 39 0 24 0;
#X restore 44 328 pd curve;
#X floatatom 138 25 5 0 0 0 speed - -;
#X obj 69 148 * 0.01;
#X obj 95 308 * 0.01;
#X obj 44 488 mod;
#X obj 346 83 r netpd-receive;
#X obj 346 123 route mmm;
#X obj 346 143 route bpm;
#X obj 354 103 r data.state;
#X obj 349 30 loadbang;
#X msg 349 50 \; data.getstate mmm bpm;
#X obj 346 183 /;
#X msg 346 163 15000 \$1;
#X obj 44 588 outlet;
#X obj 14 32 r mmm-steps;
#X obj 69 168 * 1;
#X obj 14 71 / 16;
#X obj 85 238 * 16;
#X obj 14 52 + 15;
#X obj 67 548 mmm-ticks2ms;
#X obj 44 568 pipe;
#X obj 67 528 * 0.1;
#N canvas 0 22 315 295 f2s 0;
#X obj 27 25 inlet;
#X obj 27 225 outlet;
#X msg 104 165 set \$1;
#X obj 27 195 makefilename;
#X obj 27 55 t f f f;
#X obj 50 95 -;
#X obj 50 115 sel 0;
#X msg 50 145 set %d;
#X obj 71 75 int;
#X obj 105 125 * 10.001;
#X obj 104 145 makefilename %%d.%d;
#X connect 0 0 4 0;
#X connect 2 0 3 0;
#X connect 3 0 1 0;
#X connect 4 0 3 0;
#X connect 4 1 5 0;
#X connect 4 2 8 0;
#X connect 5 0 6 0;
#X connect 6 0 7 0;
#X connect 6 1 9 0;
#X connect 7 0 3 0;
#X connect 8 0 5 1;
#X connect 9 0 10 0;
#X connect 10 0 2 0;
#X restore 332 508 pd f2s;
#X obj 380 508 * 0.1;
#X obj 60 348 mmm-ctrl \$1 \$2 5 jumps 1 64 6 int;
#X obj 95 288 mmm-ctrl \$1 \$2 7 curve 0 100 50 int;
#X obj 60 468 mmm-ctrl \$1 \$2 3 modulus 1 32 1 int;
#X obj 67 508 mmm-ctrl \$1 \$2 8 position 0 160 0 ext;
#X obj 69 128 mmm-ctrl \$1 \$2 6 length 0 100 100 int;
#X connect 0 0 2 0;
#X connect 1 0 5 0;
#X connect 2 0 4 0;
#X connect 3 0 34 1;
#X connect 4 0 1 0;
#X connect 5 0 15 0;
#X connect 6 0 7 0;
#X connect 7 0 13 0;
#X connect 8 0 11 1;
#X connect 9 0 33 0;
#X connect 9 1 33 1;
#X connect 10 0 16 1;
#X connect 11 0 6 0;
#X connect 12 0 10 0;
#X connect 12 1 10 1;
#X connect 13 0 20 0;
#X connect 14 0 7 0;
#X connect 15 0 16 0;
#X connect 15 1 10 0;
#X connect 15 2 14 0;
#X connect 16 0 11 0;
#X connect 17 0 3 0;
#X connect 17 0 9 0;
#X connect 17 0 32 1;
#X connect 18 0 31 0;
#X connect 19 0 16 2;
#X connect 20 0 36 0;
#X connect 21 0 22 0;
#X connect 22 0 23 0;
#X connect 23 0 28 0;
#X connect 24 0 22 0;
#X connect 25 0 26 0;
#X connect 27 0 33 0;
#X connect 28 0 27 0;
#X connect 30 0 34 0;
#X connect 31 0 10 0;
#X connect 32 0 0 0;
#X connect 33 0 12 0;
#X connect 34 0 32 0;
#X connect 35 0 36 1;
#X connect 36 0 29 0;
#X connect 37 0 35 0;
#X connect 38 0 43 1;
#X connect 39 0 38 0;
#X connect 40 0 8 0;
#X connect 41 0 19 0;
#X connect 42 0 20 1;
#X connect 43 0 37 0;
#X connect 43 2 39 0;
#X connect 44 0 18 0;
#X restore 31 58 pd engine;
#X obj 74 85 r netpd-receive;
#X obj 74 105 route \$1-\$2;
#X obj 70 393 + 1;
#X obj 40 393 f 0;
#X obj 40 373 until;
#X obj 179 403 + 1;
#X obj 179 383 f \$2;
#X obj 179 363 loadbang;
#X obj 40 433 +;
#X obj 40 473 makefilename \$1-%d;
#X obj 221 337 t a;
#X obj 100 393 mod 1;
#X obj 40 353 f 1;
#X obj 40 453 moses 9;
#X obj 72 620 s;
#X msg 50 563 notes \$1 \, notes+ \$1;
#X obj 70 295 t b a;
#X obj 13 523 f;
#X obj 219 115 mmm-ctrl \$1 \$2 1 notes+ 0 127 -1 ext;
#X obj 119 219 + 1;
#X obj 74 125 route notes+ level+;
#X obj 67 215 list;
#X obj 131 255 list split 0;
#X obj 170 275 list split 1;
#X obj 31 155 t b b f;
#X obj 42 495 t b b a;
#X msg 130 583 level \$1 \, level+ \$1;
#X obj 93 542 sel -1;
#X obj 13 543 sel -1;
#X obj 174 164 r \$1-mmm-pattern;
#X obj 174 204 * 16;
#X obj 174 184 - 1;
#X obj 174 224 + 1;
#X obj 92 522 f -1;
#X obj 503 115 mmm-notename;
#X msg 476 15 version 0.3.3;
#X obj 221 317 mmm-ctrl \$1 \$2 4 to+ 1 7 1 int;
#X obj 219 135 mmm-ctrl \$1 \$2 2 level+ 0 100 -1 int;
#X connect 0 0 3 0;
#X connect 1 0 5 0;
#X connect 2 0 0 0;
#X connect 4 0 1 0;
#X connect 6 0 7 0;
#X connect 7 1 8 0;
#X connect 8 0 27 0;
#X connect 10 0 35 0;
#X connect 11 0 12 0;
#X connect 12 0 31 0;
#X connect 13 0 22 0;
#X connect 14 0 13 0;
#X connect 14 0 19 0;
#X connect 15 0 14 0;
#X connect 16 0 19 1;
#X connect 17 0 16 0;
#X connect 18 0 17 0;
#X connect 19 0 24 0;
#X connect 20 0 36 0;
#X connect 21 0 22 1;
#X connect 21 0 23 1;
#X connect 22 0 14 1;
#X connect 23 0 15 0;
#X connect 24 0 20 0;
#X connect 26 0 25 0;
#X connect 27 0 23 0;
#X connect 27 1 28 1;
#X connect 28 0 39 0;
#X connect 29 2 45 0;
#X connect 30 0 7 1;
#X connect 30 0 33 1;
#X connect 31 0 6 1;
#X connect 31 1 32 1;
#X connect 32 0 33 0;
#X connect 33 1 34 0;
#X connect 34 0 44 1;
#X connect 35 0 6 0;
#X connect 35 1 32 0;
#X connect 35 2 30 0;
#X connect 36 0 28 0;
#X connect 36 1 44 0;
#X connect 36 2 25 1;
#X connect 37 0 25 0;
#X connect 38 1 37 0;
#X connect 39 1 26 0;
#X connect 40 0 42 0;
#X connect 41 0 43 0;
#X connect 42 0 41 0;
#X connect 43 0 30 1;
#X connect 44 0 38 0;
#X connect 45 0 29 1;
#X connect 47 0 21 0;
