#N canvas 271 115 545 483 10;
#X obj 28 251 r~ 1-nothing;
#X obj 308 251 r~ 1-nothing;
#N canvas 0 22 534 334 ticks2ms 0;
#X obj 210 51 r netpd-receive;
#X obj 210 91 route mmm;
#X obj 210 111 route bpm;
#X obj 218 71 r data.state;
#X obj 321 51 loadbang;
#X msg 321 71 \; data.getstate mmm bpm;
#X obj 210 151 /;
#X obj 210 171 t b f;
#X obj 120 21 inlet;
#X obj 120 261 outlet;
#X msg 210 131 15000 \$1;
#X obj 120 231 *;
#X obj 20 21 inlet;
#X obj 20 261 outlet;
#X obj 20 231 *;
#X obj 70 21 inlet;
#X obj 70 261 outlet;
#X obj 70 231 *;
#X connect 0 0 1 0;
#X connect 1 0 2 0;
#X connect 2 0 10 0;
#X connect 3 0 1 0;
#X connect 4 0 5 0;
#X connect 6 0 7 0;
#X connect 7 0 11 0;
#X connect 7 0 17 0;
#X connect 7 0 14 0;
#X connect 7 1 11 1;
#X connect 7 1 17 1;
#X connect 7 1 14 1;
#X connect 8 0 11 0;
#X connect 10 0 6 0;
#X connect 11 0 9 0;
#X connect 12 0 14 0;
#X connect 14 0 13 0;
#X connect 15 0 17 0;
#X connect 17 0 16 0;
#X restore 142 191 pd ticks2ms;
#X obj 308 231 r \$1-\$2R-r;
#X obj 308 421 s~ \$1-\$2R;
#X obj 28 421 s~ \$1-\$2L;
#X obj 28 231 r \$1-\$2L-r;
#N canvas 50 260 590 370 delwrite 0;
#X obj 31 29 inlet~;
#X obj 101 29 inlet~;
#X obj 31 309 outlet~;
#X obj 31 279 delwrite~ \$0-delay-L 2000;
#X obj 101 309 delwrite~ \$0-delay-R 2000;
#X obj 151 249 *~;
#X obj 250 279 *~;
#X obj 151 229 delread~ \$0-delay-L;
#X obj 250 259 delread~ \$0-delay-R;
#X obj 267 199 line~;
#X msg 267 179 \$1 20;
#X obj 267 139 pipe 8;
#X msg 210 139 0 8;
#X obj 267 109 t f b;
#X obj 151 109 t f b;
#X obj 151 139 pipe 8;
#X obj 267 159 f;
#X obj 151 159 t f b;
#X obj 267 59 mmm-ctrl \$1 \$2 8 feedback 0 99 0 int;
#X obj 482 29 * 0.02;
#N canvas 0 22 295 275 f2s 0;
#X obj 27 25 inlet;
#X obj 27 225 outlet;
#X msg 104 165 set \$1;
#X obj 27 195 makefilename;
#X obj 27 55 t f f f;
#X obj 50 95 -;
#X obj 50 115 sel 0;
#X msg 50 145 set %d;
#X obj 71 75 int;
#X msg 128 197 %d.90;
#X obj 105 125 * 100.001;
#X obj 104 145 makefilename %%d.%02d;
#X connect 0 0 4 0;
#X connect 2 0 3 0;
#X connect 2 0 9 0;
#X connect 3 0 1 0;
#X connect 4 0 3 0;
#X connect 4 1 5 0;
#X connect 4 2 8 0;
#X connect 5 0 6 0;
#X connect 6 0 7 0;
#X connect 6 1 10 0;
#X connect 7 0 3 0;
#X connect 8 0 5 1;
#X connect 10 0 11 0;
#X connect 11 0 2 0;
#X restore 434 29 pd f2s;
#X obj 151 29 mmm-ctrl \$1 \$2 7 tapspeed 1 800 100 ext;
#X obj 267 89 * 0.01;
#N canvas 0 22 349 274 ticks2ms 0;
#X obj 40 51 r netpd-receive;
#X obj 40 91 route mmm;
#X obj 40 111 route bpm;
#X obj 48 71 r data.state;
#X obj 151 51 loadbang;
#X msg 151 71 \; data.getstate mmm bpm;
#X obj 40 151 /;
#X obj 40 171 t b f;
#X msg 40 131 15000 \$1;
#X obj 20 21 inlet;
#X obj 20 231 outlet;
#X obj 20 201 *;
#X connect 0 0 1 0;
#X connect 1 0 2 0;
#X connect 2 0 8 0;
#X connect 3 0 1 0;
#X connect 4 0 5 0;
#X connect 6 0 7 0;
#X connect 7 0 11 0;
#X connect 7 1 11 1;
#X connect 8 0 6 0;
#X connect 9 0 11 0;
#X connect 11 0 10 0;
#X restore 151 89 pd ticks2ms;
#X obj 151 69 * 0.02;
#X connect 0 0 3 0;
#X connect 1 0 4 0;
#X connect 5 0 3 0;
#X connect 6 0 4 0;
#X connect 7 0 5 0;
#X connect 8 0 6 0;
#X connect 9 0 6 1;
#X connect 9 0 5 1;
#X connect 10 0 9 0;
#X connect 11 0 16 0;
#X connect 12 0 9 0;
#X connect 13 0 11 0;
#X connect 13 1 12 0;
#X connect 14 0 15 0;
#X connect 14 1 12 0;
#X connect 15 0 17 0;
#X connect 16 0 10 0;
#X connect 17 0 7 0;
#X connect 17 0 8 0;
#X connect 17 1 16 0;
#X connect 18 0 22 0;
#X connect 18 1 22 0;
#X connect 19 0 20 0;
#X connect 20 0 21 1;
#X connect 21 0 24 0;
#X connect 21 1 24 0;
#X connect 21 2 19 0;
#X connect 22 0 13 0;
#X connect 23 0 14 0;
#X connect 24 0 23 0;
#X restore 132 366 pd delwrite;
#N canvas 113 22 1004 469 delread 0;
#X obj 31 29 inlet~;
#X obj 261 359 outlet~;
#X obj 402 359 outlet~;
#X obj 31 179 delread~ \$0-delay-L;
#X obj 172 199 delread~ \$0-delay-R;
#X obj 91 29 inlet delay-1;
#X obj 47 229 cos;
#X obj 188 229 sin;
#X obj 188 109 + 50;
#X obj 188 129 * 0.015708;
#X msg 188 249 \$1 5;
#X obj 188 269 line~;
#X msg 47 249 \$1 5;
#X obj 47 269 line~;
#X obj 31 289 *~;
#X obj 172 289 *~;
#X obj 261 179 delread~ \$0-delay-L;
#X obj 402 199 delread~ \$0-delay-R;
#X obj 277 229 cos;
#X obj 418 229 sin;
#X obj 418 109 + 50;
#X obj 418 129 * 0.015708;
#X msg 418 249 \$1 5;
#X obj 418 269 line~;
#X msg 277 249 \$1 5;
#X obj 277 269 line~;
#X obj 261 289 *~;
#X obj 402 289 *~;
#X obj 321 29 inlet delay-2;
#X obj 491 179 delread~ \$0-delay-L;
#X obj 632 199 delread~ \$0-delay-R;
#X obj 507 229 cos;
#X obj 648 229 sin;
#X obj 648 109 + 50;
#X obj 648 129 * 0.015708;
#X msg 648 249 \$1 5;
#X obj 648 269 line~;
#X msg 507 249 \$1 5;
#X obj 507 269 line~;
#X obj 491 289 *~;
#X obj 632 289 *~;
#X obj 551 29 inlet delay-3;
#X obj 91 129 pipe 8;
#X msg 121 229 0 8;
#X obj 91 109 t f b;
#X obj 91 149 t f b;
#X obj 321 129 pipe 8;
#X msg 351 229 0 8;
#X obj 321 109 t f b;
#X obj 321 149 t f b;
#X obj 551 129 pipe 8;
#X msg 581 229 0 8;
#X obj 551 109 t f b;
#X obj 551 149 t f b;
#X obj 683 59 makefilename %d;
#X obj 794 59 * 2;
#X obj 830 79 makefilename %d;
#X obj 941 79 * 2;
#X obj 418 59 mmm-ctrl \$1 \$2 5 pan-B -50 50 -50 ext;
#X obj 572 79 mmm-ctrl \$1 \$2 6 pan-C -50 50 50 ext;
#X obj 188 59 loadbang;
#X msg 188 79 0;
#X connect 3 0 14 0;
#X connect 4 0 15 0;
#X connect 5 0 44 0;
#X connect 6 0 12 0;
#X connect 7 0 10 0;
#X connect 8 0 9 0;
#X connect 9 0 7 0;
#X connect 9 0 6 0;
#X connect 10 0 11 0;
#X connect 11 0 15 1;
#X connect 12 0 13 0;
#X connect 13 0 14 1;
#X connect 14 0 1 0;
#X connect 15 0 2 0;
#X connect 16 0 26 0;
#X connect 17 0 27 0;
#X connect 18 0 24 0;
#X connect 19 0 22 0;
#X connect 20 0 21 0;
#X connect 21 0 19 0;
#X connect 21 0 18 0;
#X connect 22 0 23 0;
#X connect 23 0 27 1;
#X connect 24 0 25 0;
#X connect 25 0 26 1;
#X connect 26 0 1 0;
#X connect 27 0 2 0;
#X connect 28 0 48 0;
#X connect 29 0 39 0;
#X connect 30 0 40 0;
#X connect 31 0 37 0;
#X connect 32 0 35 0;
#X connect 33 0 34 0;
#X connect 34 0 32 0;
#X connect 34 0 31 0;
#X connect 35 0 36 0;
#X connect 36 0 40 1;
#X connect 37 0 38 0;
#X connect 38 0 39 1;
#X connect 39 0 1 0;
#X connect 40 0 2 0;
#X connect 41 0 52 0;
#X connect 42 0 45 0;
#X connect 43 0 13 0;
#X connect 43 0 11 0;
#X connect 44 0 42 0;
#X connect 44 1 43 0;
#X connect 45 0 3 0;
#X connect 45 0 4 0;
#X connect 45 1 8 0;
#X connect 46 0 49 0;
#X connect 47 0 25 0;
#X connect 47 0 23 0;
#X connect 48 0 46 0;
#X connect 48 1 47 0;
#X connect 49 0 16 0;
#X connect 49 0 17 0;
#X connect 49 1 20 0;
#X connect 50 0 53 0;
#X connect 51 0 38 0;
#X connect 51 0 36 0;
#X connect 52 0 50 0;
#X connect 52 1 51 0;
#X connect 53 0 29 0;
#X connect 53 0 30 0;
#X connect 53 1 33 0;
#X connect 54 0 58 1;
#X connect 55 0 54 0;
#X connect 56 0 59 1;
#X connect 57 0 56 0;
#X connect 58 0 20 0;
#X connect 58 1 20 0;
#X connect 58 2 55 0;
#X connect 59 0 33 0;
#X connect 59 1 33 0;
#X connect 59 2 57 0;
#X connect 60 0 61 0;
#X connect 61 0 8 0;
#X restore 132 386 pd delread;
#X obj 362 71 * 0.02;
#N canvas 0 22 295 275 f2s 0;
#X obj 27 25 inlet;
#X obj 27 225 outlet;
#X msg 104 165 set \$1;
#X obj 27 195 makefilename;
#X obj 27 55 t f f f;
#X obj 50 95 -;
#X obj 50 115 sel 0;
#X msg 50 145 set %d;
#X obj 71 75 int;
#X msg 128 197 %d.30;
#X obj 105 125 * 100.001;
#X obj 104 145 makefilename %%d.%02d;
#X connect 0 0 4 0;
#X connect 2 0 3 0;
#X connect 2 0 9 0;
#X connect 3 0 1 0;
#X connect 4 0 3 0;
#X connect 4 1 5 0;
#X connect 4 2 8 0;
#X connect 5 0 6 0;
#X connect 6 0 7 0;
#X connect 6 1 10 0;
#X connect 7 0 3 0;
#X connect 8 0 5 1;
#X connect 10 0 11 0;
#X connect 11 0 2 0;
#X restore 314 71 pd f2s;
#X obj 409 91 * 0.02;
#N canvas 0 22 295 275 f2s 0;
#X obj 27 25 inlet;
#X obj 27 225 outlet;
#X msg 104 165 set \$1;
#X obj 27 195 makefilename;
#X obj 27 55 t f f f;
#X obj 50 95 -;
#X obj 50 115 sel 0;
#X msg 50 145 set %d;
#X obj 71 75 int;
#X msg 128 197 %d.22;
#X obj 105 125 * 100.001;
#X obj 104 145 makefilename %%d.%02d;
#X connect 0 0 4 0;
#X connect 2 0 3 0;
#X connect 2 0 9 0;
#X connect 3 0 1 0;
#X connect 4 0 3 0;
#X connect 4 1 5 0;
#X connect 4 2 8 0;
#X connect 5 0 6 0;
#X connect 6 0 7 0;
#X connect 6 1 10 0;
#X connect 7 0 3 0;
#X connect 8 0 5 1;
#X connect 10 0 11 0;
#X connect 11 0 2 0;
#X restore 361 91 pd f2s;
#X obj 462 111 * 0.02;
#N canvas 0 22 295 275 f2s 0;
#X obj 27 25 inlet;
#X obj 27 225 outlet;
#X msg 104 165 set \$1;
#X obj 27 195 makefilename;
#X obj 27 55 t f f f;
#X obj 50 95 -;
#X obj 50 115 sel 0;
#X msg 50 145 set %d;
#X obj 71 75 int;
#X msg 128 197 %d.50;
#X obj 105 125 * 100.001;
#X obj 104 145 makefilename %%d.%02d;
#X connect 0 0 4 0;
#X connect 2 0 3 0;
#X connect 2 0 9 0;
#X connect 3 0 1 0;
#X connect 4 0 3 0;
#X connect 4 1 5 0;
#X connect 4 2 8 0;
#X connect 5 0 6 0;
#X connect 6 0 7 0;
#X connect 6 1 10 0;
#X connect 7 0 3 0;
#X connect 8 0 5 1;
#X connect 10 0 11 0;
#X connect 11 0 2 0;
#X restore 414 111 pd f2s;
#X obj 122 151 * 0.02;
#X obj 178 151 * 0.02;
#X obj 233 151 * 0.02;
#X obj 55 321 *~;
#X obj 281 321 *~;
#X obj 162 221 cos;
#X obj 118 221 sin;
#X obj 28 171 * 0.015708;
#X obj 28 321 *~;
#X obj 308 321 *~;
#X obj 118 261 line~;
#X obj 162 261 line~;
#X msg 118 241 \$1 20;
#X msg 162 241 \$1 20;
#X obj 28 21 mmm-module \$1 \$2 multitapdelay 8;
#X obj 28 51 mmm-ctrl \$1 \$2 1 dry-wet 0 100 50 int;
#X obj 48 71 mmm-ctrl \$1 \$2 2 delay-A 1 800 15 ext;
#X obj 88 91 mmm-ctrl \$1 \$2 3 delay-B 1 800 111 ext;
#X obj 148 111 mmm-ctrl \$1 \$2 4 delay-C 1 800 75 ext;
#X msg 305 21 version 0.3.4;
#X connect 0 0 23 0;
#X connect 0 0 18 0;
#X connect 1 0 24 0;
#X connect 1 0 19 0;
#X connect 2 0 8 1;
#X connect 2 1 8 2;
#X connect 2 2 8 3;
#X connect 3 0 1 0;
#X connect 6 0 0 0;
#X connect 7 0 8 0;
#X connect 8 0 5 0;
#X connect 8 1 4 0;
#X connect 9 0 10 0;
#X connect 10 0 31 1;
#X connect 11 0 12 0;
#X connect 12 0 32 1;
#X connect 13 0 14 0;
#X connect 14 0 33 1;
#X connect 15 0 2 0;
#X connect 16 0 2 1;
#X connect 17 0 2 2;
#X connect 18 0 7 0;
#X connect 19 0 7 1;
#X connect 20 0 28 0;
#X connect 21 0 27 0;
#X connect 22 0 21 0;
#X connect 22 0 20 0;
#X connect 23 0 5 0;
#X connect 24 0 4 0;
#X connect 25 0 19 1;
#X connect 25 0 18 1;
#X connect 26 0 24 1;
#X connect 26 0 23 1;
#X connect 27 0 25 0;
#X connect 28 0 26 0;
#X connect 30 0 22 0;
#X connect 31 0 15 0;
#X connect 31 2 9 0;
#X connect 32 0 16 0;
#X connect 32 2 11 0;
#X connect 33 0 17 0;
#X connect 33 2 13 0;
