#N canvas 175 22 459 452 10;
#X obj 28 301 r~ 1-nothing;
#X obj 127 301 r~ 1-nothing;
#X obj 28 281 r \$1-\$2L-r;
#X obj 127 281 r \$1-\$2R-r;
#X obj 127 391 s~ \$1-\$2R;
#X obj 28 391 s~ \$1-\$2L;
#X obj 184 124 mmm-ctrl \$1 \$2 1 level 0 100 80 int;
#X obj 42 331 *~;
#X obj 184 181 * 0.01;
#X msg 184 201 \$1 \$1;
#X obj 184 221 *;
#X obj 143 331 *~;
#X msg 96 201 disconnect;
#X msg 237 381 mpeg 44100 128 1 4;
#X msg 271 341 icecast2;
#X obj 220 281 t b b b b b b;
#X msg 220 401 connect netpd.org 8010;
#X msg 254 361 passwd deleuze;
#X obj 59 362 mp3cast~;
#X msg 288 321 mountpoint mmm.mp3;
#X msg 306 301 name mmm-stream;
#X obj 28 181 sel 1;
#X obj 96 181 sel 1;
#X obj 28 21 mmm-module \$1 \$2 mp3stream 3;
#X obj 28 71 mmm-ctrl \$1 \$2 2 connect 0 1 0 int;
#X obj 46 91 mmm-ctrl \$1 \$2 3 disconnect 0 1 0 int;
#X msg 275 21 version 0.3.1;
#X connect 0 0 7 0;
#X connect 0 0 5 0;
#X connect 1 0 11 0;
#X connect 1 0 4 0;
#X connect 2 0 0 0;
#X connect 3 0 1 0;
#X connect 6 0 8 0;
#X connect 7 0 18 0;
#X connect 8 0 9 0;
#X connect 9 0 10 0;
#X connect 10 0 7 1;
#X connect 10 0 11 1;
#X connect 11 0 18 1;
#X connect 12 0 18 0;
#X connect 13 0 18 0;
#X connect 14 0 18 0;
#X connect 15 0 16 0;
#X connect 15 1 13 0;
#X connect 15 2 17 0;
#X connect 15 3 14 0;
#X connect 15 4 19 0;
#X connect 15 5 20 0;
#X connect 16 0 18 0;
#X connect 17 0 18 0;
#X connect 19 0 18 0;
#X connect 20 0 18 0;
#X connect 21 0 15 0;
#X connect 22 0 12 0;
#X connect 24 0 21 0;
#X connect 25 0 22 0;
