#N canvas 25 22 424 243 10;
#X obj 17 127 r~ 1-nothing;
#X obj 107 127 r~ 1-nothing;
#X obj 17 107 r \$1-\$2L-r;
#X obj 107 107 r \$1-\$2R-r;
#X obj 17 187 s~ \$1-\$2L;
#X obj 107 187 s~ \$1-\$2R;
#X msg 270 17 version 0.3.5;
#N canvas 397 208 724 540 master 0;
#X text 456 277 Tempo in BPM;
#X text 545 236 1/16 in msec;
#X obj 486 232 s 16th;
#X obj 164 306 f 1;
#X obj 147 456 + 1;
#X obj 89 436 sel 36288;
#X obj 17 38 t f f;
#X obj 47 58 sel 1;
#X obj 413 259 s bpm;
#X obj 164 400 s stepshuffle;
#X obj 47 405 f 1;
#X obj 47 482 s step;
#X obj 277 370 + 1;
#X obj 219 350 sel 36288;
#X obj 294 310 s shuffle;
#X text 358 331 shuffle-delay in msec;
#X text 264 400 Step-No. (shuffled);
#X text 96 483 Step-No. (straight);
#X obj 486 192 f;
#X obj 486 159 b;
#X obj 413 239 f;
#X obj 486 109 r master.refresh;
#X obj 294 290 f;
#X obj 89 456 f 1;
#X obj 180 233 f 1;
#X obj 219 370 f 1;
#X obj 17 18 mmm-ctrl \$1 \$2 1 switch 0 1 -1 int;
#X obj 477 26 loadbang;
#X obj 296 37 r netpd-receive;
#X obj 304 57 r data.state;
#X obj 356 137 /;
#X msg 356 117 15000 \$1;
#X obj 356 97 route bpm shuffle;
#X obj 360 186 * 0.01;
#X floatatom 537 219 5 0 0 0 - - -;
#X floatatom 406 283 5 0 0 0 - - -;
#X obj 344 206 *;
#X msg 477 46 \; data.getstate mmm shuffle \; data.getstate mmm bpm
;
#X floatatom 315 331 5 0 0 0 - - -;
#X obj 314 184 t a a;
#X obj 314 231 +;
#X obj 414 145 t b a;
#X obj 49 155 r \$1-\$2-1-mmm-steps;
#X obj 296 77 route mmm-live mmm;
#X obj 49 175 b;
#X connect 3 0 13 0;
#X connect 3 0 9 0;
#X connect 4 0 10 1;
#X connect 5 0 23 0;
#X connect 5 1 4 0;
#X connect 6 1 7 0;
#X connect 7 0 24 0;
#X connect 10 0 11 0;
#X connect 10 0 5 0;
#X connect 12 0 3 1;
#X connect 13 0 25 0;
#X connect 13 1 12 0;
#X connect 18 0 2 0;
#X connect 18 0 34 0;
#X connect 19 0 18 0;
#X connect 19 0 20 0;
#X connect 19 0 22 0;
#X connect 20 0 8 0;
#X connect 20 0 35 0;
#X connect 21 0 19 0;
#X connect 22 0 14 0;
#X connect 22 0 38 0;
#X connect 23 0 10 1;
#X connect 24 0 3 1;
#X connect 24 0 10 1;
#X connect 25 0 3 1;
#X connect 26 0 6 0;
#X connect 27 0 37 0;
#X connect 28 0 43 0;
#X connect 29 0 43 0;
#X connect 30 0 18 0;
#X connect 30 0 39 0;
#X connect 31 0 30 0;
#X connect 32 0 31 0;
#X connect 32 0 20 0;
#X connect 32 1 41 0;
#X connect 33 0 36 1;
#X connect 36 0 40 1;
#X connect 39 0 40 0;
#X connect 39 1 36 0;
#X connect 40 0 22 0;
#X connect 41 0 39 0;
#X connect 41 1 33 0;
#X connect 42 0 44 0;
#X connect 43 1 32 0;
#X connect 44 0 3 0;
#X restore 245 140 pd master;
#X obj 17 16 mmm-module \$1 \$2 master 1;
#X connect 0 0 4 0;
#X connect 1 0 5 0;
#X connect 2 0 0 0;
#X connect 3 0 1 0;
