#N canvas 171 22 483 387 10;
#X obj 268 65 r~ 1-nothing;
#X obj 371 65 r~ 1-nothing;
#X obj 54 195 + 1;
#X obj 24 195 f 0;
#X obj 24 175 until;
#X obj 24 155 f;
#X obj 89 195 mod 8;
#X obj 348 166 + 1;
#X obj 268 45 r \$1-\$2L-r;
#X obj 268 85 s~ \$1-\$2L;
#X obj 371 45 r \$1-\$2R-r;
#X obj 371 85 s~ \$1-\$2R;
#X obj 348 146 f \$2;
#X obj 348 126 loadbang;
#X obj 24 225 +;
#X obj 24 245 makefilename \$1-%d;
#N canvas 325 82 719 597 newton 0;
#X obj 246 538 outlet;
#X msg 45 395 clear;
#X obj 19 80 sel 0;
#X obj 341 214 r netpd-receive;
#X obj 278 301 list;
#X obj 278 321 list split 0;
#X obj 317 341 list split 1;
#X obj 120 134 * 0.03;
#X obj 242 158 * 0.01;
#X msg 294 40 symbol clear;
#X msg 482 122 symbol \$1%;
#N canvas 0 22 295 275 f2s 0;
#X obj 27 25 inlet;
#X obj 27 225 outlet;
#X msg 104 165 set \$1;
#X obj 27 195 makefilename;
#X obj 27 55 t f f f;
#X obj 50 95 -;
#X obj 50 115 sel 0;
#X msg 50 145 set %d;
#X obj 71 75 int;
#X msg 128 197 %d.99;
#X obj 105 125 * 100.001;
#X obj 104 145 makefilename %%d.%02d;
#X connect 0 0 4 0;
#X connect 2 0 3 0;
#X connect 2 0 9 0;
#X connect 3 0 1 0;
#X connect 4 0 3 0;
#X connect 4 1 5 0;
#X connect 4 2 8 0;
#X connect 5 0 6 0;
#X connect 6 0 7 0;
#X connect 6 1 10 0;
#X connect 7 0 3 0;
#X connect 8 0 5 1;
#X connect 10 0 11 0;
#X connect 11 0 2 0;
#X restore 324 87 pd f2s;
#X obj 372 87 * 0.03;
#X obj 341 234 route \$1-\$2;
#X obj 487 267 * 16;
#X obj 470 288 +;
#X obj 341 254 route notes+ level+;
#X obj 421 308 list;
#X obj 421 328 list split 0;
#X obj 460 348 list split 1;
#X obj 192 456 t f f;
#X obj 291 419 *;
#X obj 142 435 moses 50;
#X obj 142 385 pack f f f f;
#X obj 149 481 pipe f f f f 100;
#X obj 142 405 unpack f f f f;
#X obj 441 549 outlet;
#X obj 278 271 t b b f;
#X obj 119 351 f;
#X obj 119 331 t b f b;
#X obj 79 87 mmm-ctrl \$1 \$2 5 jump 1 534 33 ext;
#X obj 223 122 mmm-ctrl \$1 \$2 6 bounce 0 200 80 ext;
#X obj 466 508 sel -1;
#X obj 211 509 sel -1;
#X obj 341 164 mmm-ctrl \$1 \$2 2 notes+ 0 127 -1 ext;
#X obj 341 184 mmm-ctrl \$1 \$2 3 level+ 0 100 -1 int;
#X obj 278 251 - 0;
#X obj 120 154 mmm-ticks2ms;
#X obj 19 40 mmm-ctrl \$1 \$2 1 trigger 0 16 -1 ext;
#X obj 294 20 sel 0;
#X obj 487 227 r \$1-mmm-pattern;
#X obj 487 247 - 1;
#X obj 603 164 mmm-notename;
#X connect 1 0 24 0;
#X connect 2 0 1 0;
#X connect 2 1 29 0;
#X connect 3 0 13 0;
#X connect 4 0 5 0;
#X connect 5 1 6 0;
#X connect 6 0 23 1;
#X connect 6 0 33 0;
#X connect 7 0 37 0;
#X connect 8 0 21 1;
#X connect 8 0 23 3;
#X connect 9 0 38 1;
#X connect 10 0 31 1;
#X connect 11 0 30 1;
#X connect 12 0 11 0;
#X connect 13 0 16 0;
#X connect 14 0 15 1;
#X connect 15 0 5 1;
#X connect 15 0 18 1;
#X connect 16 0 4 1;
#X connect 16 1 17 1;
#X connect 17 0 18 0;
#X connect 18 1 19 0;
#X connect 19 0 23 2;
#X connect 19 0 32 0;
#X connect 20 0 24 0;
#X connect 20 1 24 4;
#X connect 21 0 23 0;
#X connect 22 1 20 0;
#X connect 23 0 25 0;
#X connect 24 0 21 0;
#X connect 24 1 23 1;
#X connect 24 1 33 0;
#X connect 24 2 23 2;
#X connect 24 2 32 0;
#X connect 24 3 21 1;
#X connect 24 3 23 3;
#X connect 25 0 22 0;
#X connect 25 1 24 1;
#X connect 25 2 24 2;
#X connect 25 3 24 3;
#X connect 27 0 4 0;
#X connect 27 1 17 0;
#X connect 27 2 15 0;
#X connect 28 0 23 0;
#X connect 29 0 28 0;
#X connect 29 1 36 0;
#X connect 29 2 8 0;
#X connect 30 0 7 0;
#X connect 30 2 12 0;
#X connect 31 0 8 0;
#X connect 31 2 10 0;
#X connect 32 1 26 0;
#X connect 33 1 0 0;
#X connect 34 2 42 0;
#X connect 36 0 27 0;
#X connect 37 0 28 1;
#X connect 38 0 2 0;
#X connect 38 2 39 0;
#X connect 39 0 9 0;
#X connect 39 1 38 1;
#X connect 40 0 41 0;
#X connect 41 0 14 0;
#X connect 42 0 34 1;
#X restore 121 85 pd newton;
#X obj 44 119 t a;
#X obj 24 325 s;
#X obj 40 55 mmm-ctrl \$1 \$2 4 to+ 1 7 1 int;
#X msg 204 311 level \$1;
#X obj 204 291 f;
#X msg 24 305 notes \$1;
#X obj 233 201 + 1;
#X obj 203 201 f 0;
#X obj 203 181 until;
#X obj 203 161 f;
#X obj 268 201 mod 8;
#X obj 203 231 +;
#X obj 203 251 makefilename \$1-%d;
#X obj 115 106 t b a;
#X obj 235 119 t b a;
#X obj 24 285 f;
#X obj 204 331 s;
#X obj 203 271 t b a;
#X obj 275 151 t a;
#X obj 24 265 t b a;
#X obj 18 15 mmm-module \$1 \$2 newton 6;
#X msg 228 15 version 0.3.6;
#X connect 0 0 9 0;
#X connect 1 0 11 0;
#X connect 2 0 6 0;
#X connect 3 0 2 0;
#X connect 3 0 14 0;
#X connect 4 0 3 0;
#X connect 5 0 4 0;
#X connect 6 0 3 1;
#X connect 7 0 14 1;
#X connect 7 0 28 1;
#X connect 8 0 0 0;
#X connect 10 0 1 0;
#X connect 12 0 7 0;
#X connect 13 0 12 0;
#X connect 14 0 15 0;
#X connect 15 0 36 0;
#X connect 16 0 30 0;
#X connect 16 1 31 0;
#X connect 17 0 5 1;
#X connect 17 0 6 1;
#X connect 17 0 35 0;
#X connect 19 0 17 0;
#X connect 20 0 33 0;
#X connect 21 0 20 0;
#X connect 22 0 18 0;
#X connect 23 0 27 0;
#X connect 24 0 23 0;
#X connect 24 0 28 0;
#X connect 25 0 24 0;
#X connect 26 0 25 0;
#X connect 27 0 24 1;
#X connect 28 0 29 0;
#X connect 29 0 34 0;
#X connect 30 0 5 0;
#X connect 30 1 32 1;
#X connect 31 0 26 0;
#X connect 31 1 21 1;
#X connect 32 0 22 0;
#X connect 34 0 21 0;
#X connect 34 1 33 1;
#X connect 35 0 26 1;
#X connect 35 0 27 1;
#X connect 36 0 32 0;
#X connect 36 1 18 1;
