#N canvas 34 22 555 452 10;
#X obj 387 81 makesymbol %s;
#X obj 484 81 * 0.1;
#X obj 25 361 r~ 1-nothing;
#X obj 118 361 r~ 1-nothing;
#X obj 143 101 * 0.1;
#X obj 28 71 * 0.01;
#X obj 25 276 noise~;
#X obj 28 51 mmm-ctrl \$1 \$2 1 level 0 100 30 int;
#X obj 25 341 r \$1-\$2L-r;
#X obj 118 381 s~ \$1-\$2R;
#X obj 118 341 r \$1-\$2R-r;
#X obj 25 381 s~ \$1-\$2L;
#X obj 35 321 *~;
#X obj 108 221 cos;
#X obj 208 211 sin;
#X obj 209 191 * 0.015708;
#X obj 209 171 + 50;
#X obj 192 271 line~;
#X obj 92 281 line~;
#X obj 92 241 *;
#X obj 192 231 *;
#X obj 105 321 *~;
#X obj 92 261 pack f f;
#X obj 192 251 pack f f;
#X obj 143 81 mmm-ctrl \$1 \$2 3 glide 0 160 1 ext;
#X obj 447 151 * 2;
#X obj 209 151 mmm-ctrl \$1 \$2 2 pan -50 50 0 ext;
#X obj 28 21 mmm-module \$1 \$2 noise 3;
#X obj 143 121 mmm-ticks2ms;
#X msg 255 21 version 0.3.5;
#X connect 0 0 24 1;
#X connect 1 0 0 0;
#X connect 2 0 11 0;
#X connect 3 0 9 0;
#X connect 4 0 28 0;
#X connect 5 0 19 0;
#X connect 5 0 20 0;
#X connect 6 0 12 0;
#X connect 6 0 21 0;
#X connect 7 0 5 0;
#X connect 8 0 2 0;
#X connect 10 0 3 0;
#X connect 12 0 11 0;
#X connect 13 0 19 1;
#X connect 14 0 20 1;
#X connect 15 0 14 0;
#X connect 15 0 13 0;
#X connect 16 0 15 0;
#X connect 17 0 21 1;
#X connect 18 0 12 1;
#X connect 19 0 22 0;
#X connect 20 0 23 0;
#X connect 21 0 9 0;
#X connect 22 0 18 0;
#X connect 23 0 17 0;
#X connect 24 0 4 0;
#X connect 24 2 1 0;
#X connect 25 0 26 1;
#X connect 26 0 16 0;
#X connect 26 2 25 0;
#X connect 28 0 22 1;
#X connect 28 0 23 1;
