#N canvas 109 312 827 432 10;
#N canvas 180 192 241 264 notename 0;
#X obj 29 60 t f f;
#X obj 64 90 div 12;
#X obj 64 113 makefilename %%s%d;
#X msg 64 135 set \$1;
#N canvas 380 110 450 300 n 0;
#X obj 141 51 inlet;
#X obj 141 77 mod 12;
#X obj 141 100 select 0 1 2 3 4 5 6 7 8 9 10 11;
#X msg 172 177 symbol d-;
#X msg 156 157 symbol c#;
#X msg 141 137 symbol c-;
#X msg 187 197 symbol d#;
#X msg 203 217 symbol e-;
#X msg 218 237 symbol f-;
#X msg 234 137 symbol f#;
#X msg 250 157 symbol g-;
#X msg 265 176 symbol g#;
#X msg 281 197 symbol a-;
#X msg 297 217 symbol a#;
#X msg 312 237 symbol b;
#X obj 168 282 outlet;
#X connect 0 0 1 0;
#X connect 1 0 2 0;
#X connect 2 0 5 0;
#X connect 2 1 4 0;
#X connect 2 2 3 0;
#X connect 2 3 6 0;
#X connect 2 4 7 0;
#X connect 2 5 8 0;
#X connect 2 6 9 0;
#X connect 2 7 10 0;
#X connect 2 8 11 0;
#X connect 2 9 12 0;
#X connect 2 10 13 0;
#X connect 2 11 14 0;
#X connect 3 0 15 0;
#X connect 4 0 15 0;
#X connect 5 0 15 0;
#X connect 6 0 15 0;
#X connect 7 0 15 0;
#X connect 8 0 15 0;
#X connect 9 0 15 0;
#X connect 10 0 15 0;
#X connect 11 0 15 0;
#X connect 12 0 15 0;
#X connect 13 0 15 0;
#X connect 14 0 15 0;
#X restore 29 90 pd n;
#X obj 29 165 makefilename;
#X obj 29 195 outlet;
#X obj 29 30 inlet;
#X connect 0 0 4 0;
#X connect 0 1 1 0;
#X connect 1 0 2 0;
#X connect 2 0 3 0;
#X connect 3 0 5 0;
#X connect 4 0 5 0;
#X connect 5 0 6 0;
#X connect 7 0 0 0;
#X restore 624 115 pd notename;
#X obj 340 65 r~ 1-nothing;
#X obj 443 65 r~ 1-nothing;
#X msg 24 365 \; \$1 notes-seq \$2;
#X obj 54 275 + 1;
#X obj 24 275 f 0;
#X obj 24 255 until;
#X obj 195 185 t b f;
#X obj 24 235 f;
#X obj 89 275 mod 8;
#X obj 24 345 pack s f;
#X obj 211 275 + 1;
#X obj 40 15 r \$3;
#X obj 340 45 r \$1-\$2L-r;
#X obj 340 85 s~ \$1-\$2L;
#X obj 443 45 r \$1-\$2R-r;
#X obj 443 85 s~ \$1-\$2R;
#X obj 340 115 mmm-ctrl \$1 \$2 1 notes+ 0 127 0 ext;
#X obj 211 255 f \$2;
#X obj 211 235 loadbang;
#X obj 24 305 +;
#X msg 597 15 version 0.1.0;
#X obj 24 325 makefilename \$1-%d;
#X obj 202 15 r netpd-receive;
#X obj 202 35 route \$3;
#X obj 202 75 mmm-zdeflate;
#X obj 202 55 route notes+-seq;
#X obj 119 105 list;
#X obj 119 45 t b f;
#X obj 119 125 list split 0;
#X obj 158 145 list split 1;
#X obj 340 155 mmm-ctrl \$1 \$2 3 to+ 1 7 1 int;
#X obj 158 165 sel -1;
#X obj 340 135 mmm-ctrl \$1 \$2 2 modulus 1 32 16 int;
#X obj 40 45 route to+;
#N canvas 176 255 513 533 newton 0;
#X obj 19 20 r \$3;
#X obj 200 80 * 0.01;
#X obj 200 100 t b f;
#X obj 140 130 /;
#X obj 65 354 *;
#X obj 261 120 * 0.01;
#X msg 261 80 100 \$1;
#X obj 261 100 -;
#X obj 14 294 f;
#X obj 140 150 * 1000;
#X obj 14 314 moses 22;
#X obj 65 394 pipe;
#X obj 19 50 route trigger modulus height gravity damping;
#X obj 140 80 * 0.1;
#X obj 65 334 t f f;
#X obj 65 414 t f b;
#X msg 126 270 0;
#X obj 151 441 + 1;
#X obj 121 441 f 0;
#X obj 181 441 mod 8;
#X obj 239 468 outlet;
#X msg 159 270 clear;
#X obj 19 80 sel 1 0;
#X obj 283 356 *;
#X obj 283 336 t f f;
#X obj 233 316 moses 22;
#X obj 334 286 + 1;
#X obj 371 286 mod 8;
#X obj 233 266 pack f f f;
#X obj 233 286 unpack f f f;
#X obj 283 376 pipe f f f 100;
#X obj 233 246 f;
#X msg 266 246 0;
#X obj 233 226 t b b;
#X connect 0 0 12 0;
#X connect 1 0 2 0;
#X connect 2 0 3 0;
#X connect 2 1 3 1;
#X connect 3 0 9 0;
#X connect 4 0 11 0;
#X connect 5 0 4 1;
#X connect 5 0 28 2;
#X connect 6 0 7 0;
#X connect 7 0 5 0;
#X connect 8 0 10 0;
#X connect 9 0 8 1;
#X connect 9 0 31 1;
#X connect 10 1 14 0;
#X connect 11 0 15 0;
#X connect 12 0 22 0;
#X connect 12 1 19 1;
#X connect 12 1 27 1;
#X connect 12 2 13 0;
#X connect 12 3 1 0;
#X connect 12 4 6 0;
#X connect 13 0 3 0;
#X connect 14 0 4 0;
#X connect 14 1 11 1;
#X connect 15 0 10 0;
#X connect 15 1 18 0;
#X connect 16 0 18 0;
#X connect 17 0 19 0;
#X connect 18 0 17 0;
#X connect 19 0 18 1;
#X connect 21 0 11 0;
#X connect 21 0 30 0;
#X connect 22 0 8 0;
#X connect 22 0 16 0;
#X connect 22 0 33 0;
#X connect 22 1 21 0;
#X connect 23 0 30 0;
#X connect 24 0 23 0;
#X connect 24 1 30 3;
#X connect 25 1 24 0;
#X connect 26 0 27 0;
#X connect 27 0 30 1;
#X connect 28 0 29 0;
#X connect 29 0 25 0;
#X connect 29 1 26 0;
#X connect 29 2 30 2;
#X connect 29 2 23 1;
#X connect 30 0 28 0;
#X connect 30 1 28 1;
#X connect 30 1 20 0;
#X connect 30 2 28 2;
#X connect 31 0 28 0;
#X connect 32 0 28 1;
#X connect 33 0 31 0;
#X connect 33 1 32 0;
#X restore 119 15 pd newton;
#X obj 340 15 mmm-module \$1 \$2 newton 7;
#X obj 627 145 sel 0 1;
#X obj 340 175 mmm-ctrl \$1 \$2 4 trigger 0 1 0 ext;
#X msg 649 165 symbol go;
#X msg 627 185 symbol clear;
#X msg 620 235 symbol \$1m;
#X obj 732 255 * 0.01;
#X msg 640 255 symbol \$1m/s;
#X msg 648 275 symbol \$1%;
#X obj 340 255 mmm-ctrl \$1 \$2 6 gravity 1 2000 981 ext;
#X obj 340 275 mmm-ctrl \$1 \$2 7 damping -100 100 20 ext;
#X obj 698 235 * 0.1;
#X obj 340 235 mmm-ctrl \$1 \$2 5 height 1 200 50 ext;
#X connect 0 0 17 1;
#X connect 1 0 14 0;
#X connect 2 0 16 0;
#X connect 4 0 9 0;
#X connect 5 0 4 0;
#X connect 5 0 20 0;
#X connect 6 0 5 0;
#X connect 7 0 8 0;
#X connect 7 1 10 1;
#X connect 8 0 6 0;
#X connect 9 0 5 1;
#X connect 10 0 3 0;
#X connect 11 0 20 1;
#X connect 12 0 34 0;
#X connect 13 0 1 0;
#X connect 15 0 2 0;
#X connect 17 2 0 0;
#X connect 18 0 11 0;
#X connect 19 0 18 0;
#X connect 20 0 22 0;
#X connect 22 0 10 0;
#X connect 23 0 24 0;
#X connect 24 0 26 0;
#X connect 25 0 27 1;
#X connect 26 0 25 0;
#X connect 27 0 29 0;
#X connect 28 0 27 0;
#X connect 28 1 29 1;
#X connect 29 1 30 0;
#X connect 30 0 32 0;
#X connect 32 1 7 0;
#X connect 34 0 8 1;
#X connect 34 0 9 1;
#X connect 35 0 28 0;
#X connect 37 0 40 0;
#X connect 37 1 39 0;
#X connect 38 2 37 0;
#X connect 39 0 38 1;
#X connect 40 0 38 1;
#X connect 41 0 48 1;
#X connect 42 0 43 0;
#X connect 43 0 45 1;
#X connect 44 0 46 1;
#X connect 45 2 42 0;
#X connect 46 2 44 0;
#X connect 47 0 41 0;
#X connect 48 2 47 0;
