#N canvas 133 22 436 596 10;
#X obj 209 541 r~ 1-nothing;
#X obj 312 541 r~ 1-nothing;
#X obj 209 521 r \$1-\$2L-r;
#X obj 209 561 s~ \$1-\$2L;
#X obj 312 521 r \$1-\$2R-r;
#X obj 312 561 s~ \$1-\$2R;
#X obj 49 351 + 1;
#X obj 19 351 f 0;
#X obj 19 321 until;
#X obj 198 371 + 1;
#X obj 198 351 f \$2;
#X obj 198 331 loadbang;
#X obj 19 411 +;
#X obj 19 471 makefilename \$1-%d;
#X obj 129 321 t a;
#X obj 89 351 mod 1;
#X obj 19 291 f 1;
#X obj 19 441 moses 9;
#X obj 119 441 +;
#X obj 33 561 s;
#X msg 19 531 notes \$1 \, notes+ \$1;
#X obj 19 261 t b a;
#X obj 19 511 f;
#X obj 19 491 t b a;
#X obj 50 141 r \$1-\$2;
#X obj 50 171 route notes;
#X msg 295 21 version 0.4.0;
#X obj 160 185 * 12;
#X obj 19 21 mmm-module \$1 \$2 notes3 5;
#X obj 19 202 f;
#X obj 34 111 mmm-ctrl \$1 \$2 2 notes+ 0 12 0 ext;
#X obj 135 421 mmm-ctrl \$1 \$2 4 transpose -36 36 0 int;
#X obj 129 301 mmm-ctrl \$1 \$2 5 to+ 1 7 1 int;
#X obj 160 155 mmm-ctrl \$1 \$2 3 octave 0 16 4 int;
#X obj 19 232 + 48;
#X obj 19 81 sel 1;
#N canvas 0 22 450 300 note 0;
#X obj 24 18 inlet;
#X obj 24 48 mod 12;
#X obj 24 78 select 0 1 2 3 4 5 6 7 8 9 10 11;
#X msg 195 215 symbol b;
#X obj 51 260 outlet;
#X msg 39 135 symbol c*;
#X msg 117 115 symbol f*;
#X msg 148 154 symbol g*;
#X msg 70 175 symbol d*;
#X msg 180 195 symbol a*;
#X msg 24 115 symbol c;
#X msg 55 155 symbol d;
#X msg 86 195 symbol e;
#X msg 101 215 symbol f;
#X msg 164 175 symbol a;
#X msg 133 135 symbol g;
#X connect 0 0 1 0;
#X connect 1 0 2 0;
#X connect 2 0 10 0;
#X connect 2 1 5 0;
#X connect 2 2 11 0;
#X connect 2 3 8 0;
#X connect 2 4 12 0;
#X connect 2 5 13 0;
#X connect 2 6 6 0;
#X connect 2 7 15 0;
#X connect 2 8 7 0;
#X connect 2 9 14 0;
#X connect 2 10 9 0;
#X connect 2 11 3 0;
#X connect 3 0 4 0;
#X connect 5 0 4 0;
#X connect 6 0 4 0;
#X connect 7 0 4 0;
#X connect 8 0 4 0;
#X connect 9 0 4 0;
#X connect 10 0 4 0;
#X connect 11 0 4 0;
#X connect 12 0 4 0;
#X connect 13 0 4 0;
#X connect 14 0 4 0;
#X connect 15 0 4 0;
#X restore 306 111 pd note;
#X obj 19 51 mmm-ctrl \$1 \$2 1 trigger 1 1 0 int;
#X connect 0 0 3 0;
#X connect 1 0 5 0;
#X connect 2 0 0 0;
#X connect 4 0 1 0;
#X connect 6 0 15 0;
#X connect 7 0 6 0;
#X connect 7 0 12 0;
#X connect 8 0 7 0;
#X connect 9 0 12 1;
#X connect 10 0 9 0;
#X connect 11 0 10 0;
#X connect 12 0 17 0;
#X connect 13 0 23 0;
#X connect 14 0 15 1;
#X connect 14 0 16 1;
#X connect 15 0 7 1;
#X connect 16 0 8 0;
#X connect 17 0 13 0;
#X connect 18 0 22 1;
#X connect 20 0 19 0;
#X connect 21 0 16 0;
#X connect 21 1 18 0;
#X connect 22 0 20 0;
#X connect 23 0 22 0;
#X connect 23 1 19 1;
#X connect 24 0 25 0;
#X connect 25 0 29 1;
#X connect 27 0 34 1;
#X connect 29 0 34 0;
#X connect 30 0 29 1;
#X connect 30 2 36 0;
#X connect 31 0 18 1;
#X connect 32 0 14 0;
#X connect 33 0 27 0;
#X connect 34 0 21 0;
#X connect 35 0 29 0;
#X connect 36 0 30 1;
#X connect 37 0 35 0;
