#N canvas 133 22 426 452 10;
#X obj 208 391 r~ 1-nothing;
#X obj 311 391 r~ 1-nothing;
#X obj 208 371 r \$1-\$2L-r;
#X obj 208 411 s~ \$1-\$2L;
#X obj 311 371 r \$1-\$2R-r;
#X obj 311 411 s~ \$1-\$2R;
#X obj 48 201 + 1;
#X obj 18 201 f 0;
#X obj 18 181 until;
#X obj 137 241 + 1;
#X obj 137 221 f \$2;
#X obj 137 201 loadbang;
#X obj 18 281 +;
#X obj 18 321 makefilename \$1-%d;
#X obj 128 171 t a;
#X obj 88 201 mod 1;
#X obj 18 161 f 1;
#X obj 18 301 moses 9;
#X obj 118 291 +;
#X obj 32 411 s;
#X msg 18 381 notes \$1 \, notes+ \$1;
#X obj 18 141 t b a;
#X obj 18 361 f;
#X obj 18 341 t b a;
#X obj 19 21 mmm-module \$1 \$2 notes 3;
#X obj 18 51 mmm-ctrl \$1 \$2 1 notes+ 16 127 15 ext;
#X obj 128 151 mmm-ctrl \$1 \$2 3 to+ 1 7 1 int;
#X obj 134 271 mmm-ctrl \$1 \$2 2 transpose -36 36 0 int;
#X obj 284 51 mmm-notename;
#X obj 30 81 r \$1-\$2;
#X obj 30 111 route notes;
#X msg 295 21 version 0.3.10;
#X connect 0 0 3 0;
#X connect 1 0 5 0;
#X connect 2 0 0 0;
#X connect 4 0 1 0;
#X connect 6 0 15 0;
#X connect 7 0 6 0;
#X connect 7 0 12 0;
#X connect 8 0 7 0;
#X connect 9 0 12 1;
#X connect 10 0 9 0;
#X connect 11 0 10 0;
#X connect 12 0 17 0;
#X connect 13 0 23 0;
#X connect 14 0 15 1;
#X connect 14 0 16 1;
#X connect 15 0 7 1;
#X connect 16 0 8 0;
#X connect 17 0 13 0;
#X connect 18 0 22 1;
#X connect 20 0 19 0;
#X connect 21 0 16 0;
#X connect 21 1 18 0;
#X connect 22 0 20 0;
#X connect 23 0 22 0;
#X connect 23 1 19 1;
#X connect 25 0 21 0;
#X connect 25 2 28 0;
#X connect 26 0 14 0;
#X connect 27 0 18 1;
#X connect 28 0 25 1;
#X connect 29 0 30 0;
#X connect 30 0 21 0;
