#N canvas 316 22 681 583 10;
#X obj 159 445 r~ 1-nothing;
#X obj 262 445 r~ 1-nothing;
#X obj 53 315 + 1;
#X obj 23 315 f 0;
#X obj 23 295 until;
#X obj 23 255 t b f;
#X obj 23 275 f;
#X obj 88 315 mod 8;
#X obj 23 435 pack s f;
#X obj 428 423 + 1;
#X obj 159 425 r \$1-\$2L-r;
#X obj 159 465 s~ \$1-\$2L;
#X obj 262 425 r \$1-\$2R-r;
#X obj 262 465 s~ \$1-\$2R;
#X obj 428 403 f \$2;
#X obj 428 383 loadbang;
#X obj 23 365 +;
#X obj 23 405 makefilename \$1-%d;
#X obj 204 215 r netpd-receive;
#X obj 181 285 list;
#X obj 141 235 t b f;
#X obj 181 305 list split 0;
#X obj 220 325 list split 1;
#X obj 220 345 sel -1;
#X obj 141 175 int;
#X obj 141 155 / 4;
#X obj 141 135 + 1;
#X obj 157 115 - 1;
#X obj 167 95 /;
#X msg 167 75 16 \$1;
#X obj 39 25 mmm-ctrl \$1 \$2 4 to+ 1 7 1 int;
#X obj 167 55 mmm-ctrl \$1 \$2 3 speed 1 32 16 int;
#X obj 191 128 mmm-ctrl \$1 \$2 2 modulus 1 32 16 int;
#X obj 256 25 mmm-module \$1 \$2 notes2 4;
#X msg 23 455 \; \$1 notes \$2;
#X obj 141 195 %;
#X obj 39 65 t a;
#X obj 68 103 r mmm-steps;
#X obj 204 185 mmm-ctrl \$1 \$2 1 notes+ 0 127 -1 ext;
#X obj 204 255 route notes+;
#X obj 259 285 + 1;
#X obj 534 127 r \$1-mmm-pattern;
#X obj 534 167 * 16;
#X obj 534 187 + 1;
#X obj 433 185 mmm-notename;
#X obj 141 215 change;
#X obj 204 235 route \$1-\$2;
#X obj 534 207 t b f;
#X obj 534 147 - 1;
#X obj 303 309 r \$1-\$2;
#X obj 303 339 route notes;
#X obj 253 369 +;
#X msg 437 25 version 0.3.8;
#X connect 0 0 11 0;
#X connect 1 0 13 0;
#X connect 2 0 7 0;
#X connect 3 0 2 0;
#X connect 3 0 16 0;
#X connect 4 0 3 0;
#X connect 5 0 6 0;
#X connect 5 1 8 1;
#X connect 6 0 4 0;
#X connect 7 0 3 1;
#X connect 8 0 34 0;
#X connect 9 0 16 1;
#X connect 10 0 0 0;
#X connect 12 0 1 0;
#X connect 14 0 9 0;
#X connect 15 0 14 0;
#X connect 16 0 17 0;
#X connect 17 0 8 0;
#X connect 18 0 46 0;
#X connect 19 0 21 0;
#X connect 20 0 19 0;
#X connect 20 1 40 0;
#X connect 21 1 22 0;
#X connect 22 0 23 0;
#X connect 23 1 51 0;
#X connect 24 0 35 0;
#X connect 25 0 24 0;
#X connect 26 0 25 0;
#X connect 27 0 26 1;
#X connect 28 0 27 0;
#X connect 28 0 25 1;
#X connect 29 0 28 0;
#X connect 30 0 36 0;
#X connect 31 0 29 0;
#X connect 32 0 35 1;
#X connect 35 0 45 0;
#X connect 36 0 6 1;
#X connect 36 0 7 1;
#X connect 37 0 26 0;
#X connect 38 2 44 0;
#X connect 39 0 19 1;
#X connect 40 0 21 1;
#X connect 41 0 48 0;
#X connect 42 0 43 0;
#X connect 43 0 47 0;
#X connect 44 0 38 1;
#X connect 45 0 20 0;
#X connect 46 0 39 0;
#X connect 47 0 40 0;
#X connect 47 1 40 1;
#X connect 48 0 42 0;
#X connect 49 0 50 0;
#X connect 50 0 51 1;
#X connect 51 0 5 0;
