#N canvas 620 35 428 298 10;
#X obj 28 201 r~ 1-nothing;
#X obj 138 201 r~ 1-nothing;
#X obj 138 171 r \$1-\$2R-r;
#X obj 138 231 s~ \$1-\$2R;
#X obj 28 231 s~ \$1-\$2L;
#X obj 28 171 r \$1-\$2L-r;
#N canvas 0 22 477 459 guts 0;
#X obj 184 19 noise~;
#X obj 148 298 *~;
#X obj 164 175 *~ 0.8;
#X obj 11 130 *~ 0.1;
#X obj 80 100 bp~ 1300 10;
#X obj 240 100 bp~ 700 10;
#X obj 163 100 bp~ 2500 4;
#X obj 11 100 lop~ 8000;
#X obj 183 50 hip~ 300;
#X obj 148 318 *~ 0.7;
#N canvas 493 22 504 528 vead 0;
#X obj 281 224 vline~;
#X obj 258 65 max 0.1;
#X obj 144 377 outlet~;
#X obj 87 218 vline~;
#X msg 87 171 1 \, 0 \$1 0 \, 1 0 \$1;
#X msg 281 171 0 \, 1 0 \$1 \, 0 \$2 \$1;
#X msg 21 171 1;
#X obj 21 149 loadbang;
#X msg 87 125 1 \$1;
#X obj 87 105 f 800;
#X obj 281 244 expr~ pow($v1 \, 6);
#X obj 87 238 expr~ 1 - pow($v1 \, 6);
#X obj 87 45 inlet trigger;
#X obj 258 45 inlet decay;
#X connect 0 0 10 0;
#X connect 1 0 9 1;
#X connect 3 0 11 0;
#X connect 4 0 3 0;
#X connect 5 0 0 0;
#X connect 6 0 3 0;
#X connect 7 0 6 0;
#X connect 8 0 4 0;
#X connect 8 0 5 0;
#X connect 9 0 8 0;
#X connect 10 0 2 0;
#X connect 11 0 2 0;
#X connect 12 0 9 0;
#X connect 13 0 1 0;
#X restore 148 278 pd vead;
#X obj 148 338 outlet~;
#X obj 270 180 route level decay;
#X obj 270 210 * 0.007;
#X obj 215 241 t b f;
#X obj 251 385 switch~;
#X msg 251 325 1;
#X obj 292 295 f;
#X obj 292 315 + 1.5;
#X obj 292 335 del;
#X msg 292 355 0;
#X obj 327 210 * 0.05;
#X obj 327 230 mmm-ticks2ms;
#X obj 270 150 inlet;
#X connect 0 0 7 0;
#X connect 0 0 8 0;
#X connect 1 0 9 0;
#X connect 2 0 1 1;
#X connect 3 0 2 0;
#X connect 4 0 2 0;
#X connect 5 0 2 0;
#X connect 6 0 2 0;
#X connect 7 0 3 0;
#X connect 8 0 4 0;
#X connect 8 0 5 0;
#X connect 8 0 6 0;
#X connect 9 0 11 0;
#X connect 10 0 1 0;
#X connect 12 0 13 0;
#X connect 12 1 21 0;
#X connect 13 0 14 0;
#X connect 14 0 17 0;
#X connect 14 0 10 0;
#X connect 14 1 9 1;
#X connect 16 0 15 0;
#X connect 17 0 18 0;
#X connect 17 0 16 0;
#X connect 18 0 19 0;
#X connect 19 0 20 0;
#X connect 20 0 15 0;
#X connect 21 0 22 0;
#X connect 22 0 17 1;
#X connect 22 0 10 1;
#X connect 23 0 12 0;
#X restore 95 141 pd guts;
#N canvas 514 142 311 291 f2s 0;
#X obj 27 25 inlet;
#X obj 27 225 outlet;
#X msg 104 165 set \$1;
#X obj 27 195 makefilename;
#X obj 27 55 t f f f;
#X obj 50 95 -;
#X obj 50 115 sel 0;
#X msg 50 145 set %d;
#X obj 71 75 int;
#X obj 105 125 * 100.001;
#X obj 104 145 makefilename %%d.%02d;
#X connect 0 0 4 0;
#X connect 2 0 3 0;
#X connect 3 0 1 0;
#X connect 4 0 3 0;
#X connect 4 1 5 0;
#X connect 4 2 8 0;
#X connect 5 0 6 0;
#X connect 6 0 7 0;
#X connect 6 1 9 0;
#X connect 7 0 3 0;
#X connect 8 0 5 1;
#X connect 9 0 10 0;
#X connect 10 0 2 0;
#X restore 281 91 pd f2s;
#X obj 329 91 * 0.05;
#X obj 28 21 mmm-module \$1 \$2 onehandclap 2;
#X msg 28 71 level \$1;
#X msg 28 111 decay \$1;
#X obj 28 51 mmm-ctrl \$1 \$2 1 level 0 100 0 int;
#X obj 28 91 mmm-ctrl \$1 \$2 2 decay 1 160 65 ext;
#X msg 278 21 version 0.3.3;
#X connect 0 0 4 0;
#X connect 1 0 3 0;
#X connect 2 0 1 0;
#X connect 5 0 0 0;
#X connect 6 0 4 0;
#X connect 6 0 3 0;
#X connect 7 0 13 1;
#X connect 8 0 7 0;
#X connect 10 0 6 0;
#X connect 11 0 6 0;
#X connect 12 0 10 0;
#X connect 13 0 11 0;
#X connect 13 2 8 0;
