#N canvas 351 22 571 648 10;
#X obj 98 561 r~ 1-nothing;
#X obj 191 561 r~ 1-nothing;
#X obj 98 541 r \$1-\$2L-r;
#X obj 191 541 r \$1-\$2R-r;
#X obj 191 601 s~ \$1-\$2R;
#X obj 98 601 s~ \$1-\$2L;
#N canvas 0 22 466 316 abslist 0;
#X msg 16 15 4m-oxygen2-voice;
#X restore 227 21 pd abslist;
#X msg 260 346 level \$1;
#X msg 280 386 attack \$1;
#X msg 290 426 decay \$1;
#X obj 260 326 mmm-ctrl \$1 \$2 6 level 0 100 50 int;
#X obj 28 161 t a;
#N canvas 0 22 462 312 simplepoly 0;
#X obj 160 120 f;
#X obj 192 121 + 1;
#X obj 190 148 mod 8;
#X obj 216 207 pack f f;
#X obj 228 61 t b f;
#X obj 223 22 inlet notes;
#X obj 217 265 outlet;
#X connect 0 0 3 0;
#X connect 0 0 1 0;
#X connect 1 0 2 0;
#X connect 2 0 0 1;
#X connect 3 0 6 0;
#X connect 4 0 0 0;
#X connect 4 1 3 1;
#X connect 5 0 4 0;
#X restore 28 231 pd simplepoly;
#X obj 28 341 route 0 1 2 3 4 5 6 7;
#X obj 28 191 + 0;
#X obj 68 171 mmm-ctrl \$1 \$2 5 transpose -36 36 0 int;
#X obj 28 41 r \$1-\$2;
#X obj 28 61 route notes;
#X obj 38 81 mmm-ctrl \$1 \$2 1 note1 16 127 15 ext;
#X obj 48 101 mmm-ctrl \$1 \$2 2 note2 16 127 15 ext;
#X obj 58 121 mmm-ctrl \$1 \$2 3 note3 16 127 15 ext;
#X obj 68 141 mmm-ctrl \$1 \$2 4 note4 16 127 15 ext;
#X obj 61 251 mmm-ctrl \$1 \$2 7 giftig 0 100 23 int;
#X obj 128 291 mmm-ctrl \$1 \$2 9 filter_q 0 100 38 int;
#X obj 258 461 t a;
#X obj 28 321 pack f f 23 61 38;
#X obj 28 211 mtof;
#X msg 305 21 version 0.3.7;
#X obj 297 81 mmm-notename;
#X obj 307 101 mmm-notename;
#X obj 317 121 mmm-notename;
#X obj 327 141 mmm-notename;
#X obj 94 271 mmm-ctrl \$1 \$2 8 frequency 0 127 73 int;
#X obj 27 371 4m-oxygen2-voice;
#X obj 290 406 mmm-ctrl \$1 \$2 11 decay 0 100 47 int;
#X obj 280 366 mmm-ctrl \$1 \$2 10 attack 0 100 3 int;
#X obj 28 21 mmm-module \$1 \$2 oxygen2 11;
#X obj 13 300 pack f 23 61 38;
#X obj 45 391 4m-oxygen2-voice;
#X obj 63 411 4m-oxygen2-voice;
#X obj 81 431 4m-oxygen2-voice;
#X obj 99 451 4m-oxygen2-voice;
#X obj 116 471 4m-oxygen2-voice;
#X obj 134 491 4m-oxygen2-voice;
#X obj 152 511 4m-oxygen2-voice;
#X obj 32 569 hip~ 20;
#X obj 28 541 *~ 0.4;
#X connect 0 0 5 0;
#X connect 1 0 4 0;
#X connect 2 0 0 0;
#X connect 3 0 1 0;
#X connect 7 0 24 0;
#X connect 8 0 24 0;
#X connect 9 0 24 0;
#X connect 10 0 7 0;
#X connect 11 0 14 0;
#X connect 12 0 25 0;
#X connect 13 0 33 0;
#X connect 13 1 38 0;
#X connect 13 2 39 0;
#X connect 13 3 40 0;
#X connect 13 4 41 0;
#X connect 13 5 42 0;
#X connect 13 6 43 0;
#X connect 13 7 44 0;
#X connect 14 0 26 0;
#X connect 15 0 14 1;
#X connect 16 0 17 0;
#X connect 17 0 11 0;
#X connect 18 0 11 0;
#X connect 18 2 28 0;
#X connect 19 0 11 0;
#X connect 19 2 29 0;
#X connect 20 0 11 0;
#X connect 20 2 30 0;
#X connect 21 0 11 0;
#X connect 21 2 31 0;
#X connect 22 0 25 2;
#X connect 22 0 37 1;
#X connect 23 0 25 4;
#X connect 23 0 37 3;
#X connect 24 0 33 1;
#X connect 24 0 38 1;
#X connect 24 0 39 1;
#X connect 24 0 40 1;
#X connect 24 0 41 1;
#X connect 24 0 42 1;
#X connect 24 0 43 1;
#X connect 24 0 44 1;
#X connect 25 0 13 0;
#X connect 26 0 12 0;
#X connect 28 0 18 1;
#X connect 29 0 19 1;
#X connect 30 0 20 1;
#X connect 31 0 21 1;
#X connect 32 0 25 3;
#X connect 32 0 37 2;
#X connect 33 0 46 0;
#X connect 34 0 9 0;
#X connect 35 0 8 0;
#X connect 38 0 46 0;
#X connect 39 0 46 0;
#X connect 40 0 46 0;
#X connect 41 0 46 0;
#X connect 42 0 46 0;
#X connect 43 0 46 0;
#X connect 44 0 46 0;
#X connect 45 0 5 0;
#X connect 45 0 4 0;
#X connect 46 0 45 0;
