#N canvas 186 22 554 433 10;
#X obj 13 19 inlet;
#X obj 341 19 inlet;
#X obj 13 390 outlet~;
#X obj 470 282 switch~;
#X msg 395 107 \$1 \$1;
#X obj 395 127 *;
#X msg 449 107 \$1 \$1;
#X obj 449 127 *;
#X obj 13 360 *~;
#N canvas 535 143 201 306 tone 0;
#X obj 18 97 phasor~;
#X obj 18 117 -~ 0.5;
#X obj 18 137 sgn~;
#X obj 18 187 phasor~;
#X obj 18 167 *~;
#X obj 18 17 inlet;
#X obj 18 237 outlet~;
#X obj 114 97 t b f;
#X obj 114 127 *;
#X obj 114 17 inlet;
#X obj 18 207 -~ 0.5;
#X obj 18 37 t f b f;
#X connect 0 0 1 0;
#X connect 1 0 2 0;
#X connect 2 0 4 0;
#X connect 3 0 10 0;
#X connect 4 0 3 0;
#X connect 5 0 11 0;
#X connect 7 0 8 0;
#X connect 7 1 8 1;
#X connect 8 0 4 1;
#X connect 9 0 7 0;
#X connect 10 0 6 0;
#X connect 11 0 0 0;
#X connect 11 2 8 0;
#X restore 13 250 pd tone;
#X obj 13 320 bp~;
#X obj 13 340 *~;
#X obj 171 260 * 0.5;
#X obj 171 240 + 1;
#X msg 57 130 \$1 \$1;
#X obj 57 150 *;
#X msg 57 170 \$1 \$1;
#X obj 57 190 *;
#X msg 171 160 \$1 \$1;
#X obj 171 180 *;
#X obj 57 210 * 1e-06;
#X obj 57 230 + 1;
#X obj 171 200 * 0.001;
#X obj 171 220 + 1;
#X obj 130 193 mtof;
#X obj 13 99 unpack f f f f;
#X obj 13 49 t a b;
#X obj 341 127 * 0.01;
#X msg 83 19 version 0.3.6;
#X obj 341 87 route level attack decay;
#N canvas 0 22 562 571 vead~ 0;
#X obj 210 334 vline~;
#X obj 117 45 max 0.1;
#X obj 217 45 max 0.1;
#X obj 73 487 outlet~;
#X obj 16 45 b;
#X obj 16 328 vline~;
#X obj 16 195 pack 3 4;
#X msg 16 241 1 \, 0 \$1 0 \, 1 0 \$1;
#X msg 210 241 0 \, 1 0 \$1 \, 0 \$2 \$1;
#X obj 16 175 f 3;
#X obj 36 271 loadbang;
#X obj 210 381 expr~ pow($v1 \, 6);
#X obj 17 379 expr~ 1 - pow($v1 \, 6);
#X msg 36 291 1;
#X obj 16 25 inlet trigger;
#X obj 117 25 inlet attack;
#X obj 217 25 inlet decay;
#X obj 398 357 outlet;
#X obj 459 173 +;
#X obj 431 120 t b a;
#X msg 370 241 1;
#X obj 368 196 t b b;
#X obj 441 227 f;
#X obj 441 267 del;
#X msg 441 287 0;
#X obj 441 247 + 3;
#X connect 0 0 11 0;
#X connect 1 0 9 1;
#X connect 1 0 18 0;
#X connect 2 0 6 1;
#X connect 2 0 19 0;
#X connect 4 0 9 0;
#X connect 4 0 21 0;
#X connect 5 0 12 0;
#X connect 6 0 8 0;
#X connect 6 0 7 0;
#X connect 7 0 5 0;
#X connect 8 0 0 0;
#X connect 9 0 6 0;
#X connect 10 0 13 0;
#X connect 11 0 3 0;
#X connect 12 0 3 0;
#X connect 13 0 5 0;
#X connect 14 0 4 0;
#X connect 15 0 1 0;
#X connect 16 0 2 0;
#X connect 18 0 22 1;
#X connect 19 0 18 0;
#X connect 19 1 18 1;
#X connect 20 0 17 0;
#X connect 21 0 20 0;
#X connect 21 1 22 0;
#X connect 22 0 25 0;
#X connect 23 0 24 0;
#X connect 24 0 17 0;
#X connect 25 0 23 0;
#X restore 390 249 pd vead~;
#X obj 340 297 *~ 0.5;
#X connect 0 0 26 0;
#X connect 1 0 29 0;
#X connect 4 0 5 0;
#X connect 5 0 30 1;
#X connect 6 0 7 0;
#X connect 7 0 30 2;
#X connect 8 0 2 0;
#X connect 9 0 10 0;
#X connect 10 0 11 0;
#X connect 11 0 8 0;
#X connect 12 0 11 1;
#X connect 13 0 12 0;
#X connect 14 0 15 0;
#X connect 15 0 16 0;
#X connect 16 0 17 0;
#X connect 17 0 20 0;
#X connect 18 0 19 0;
#X connect 19 0 22 0;
#X connect 20 0 21 0;
#X connect 21 0 9 1;
#X connect 22 0 23 0;
#X connect 23 0 10 2;
#X connect 23 0 13 0;
#X connect 24 0 10 1;
#X connect 25 0 9 0;
#X connect 25 1 14 0;
#X connect 25 2 24 0;
#X connect 25 3 18 0;
#X connect 26 0 25 0;
#X connect 26 1 30 0;
#X connect 27 0 31 1;
#X connect 29 0 27 0;
#X connect 29 1 4 0;
#X connect 29 2 6 0;
#X connect 30 0 31 0;
#X connect 30 1 3 0;
#X connect 31 0 8 1;
