#N canvas 38 248 733 494 10;
#X obj 28 347 r~ 1-nothing;
#X obj 121 347 r~ 1-nothing;
#X obj 28 327 r \$3L-r;
#X obj 121 327 r \$3R-r;
#X obj 121 416 s~ \$3R;
#X obj 28 416 s~ \$3L;
#N canvas 384 255 773 513 guts 0;
#X obj 180 439 outlet~;
#X obj 237 389 *~;
#X obj 180 389 *~;
#N canvas 535 143 174 266 tone 0;
#X obj 24 83 phasor~;
#X obj 24 105 -~ 0.5;
#X obj 24 127 sgn~;
#X obj 24 192 phasor~;
#X obj 24 171 *~;
#X obj 24 23 inlet;
#X obj 24 243 outlet~;
#X obj 70 120 t b f;
#X obj 56 147 *;
#X obj 70 23 inlet;
#X obj 24 46 t f f b;
#X msg 79 64 0.5;
#X obj 24 216 -~ 0.5;
#X connect 0 0 1 0;
#X connect 1 0 2 0;
#X connect 2 0 4 0;
#X connect 3 0 12 0;
#X connect 4 0 3 0;
#X connect 5 0 10 0;
#X connect 7 0 8 0;
#X connect 7 1 8 1;
#X connect 8 0 4 1;
#X connect 9 0 7 0;
#X connect 10 0 0 0;
#X connect 10 1 8 0;
#X connect 10 2 11 0;
#X connect 11 0 0 1;
#X connect 11 0 3 1;
#X connect 12 0 6 0;
#X restore 19 261 pd tone;
#X obj 180 309 bp~;
#X obj 237 309 bp~;
#X obj 180 349 *~;
#X obj 237 349 *~;
#X obj 348 311 * 0.5;
#X obj 348 291 + 1;
#X obj 180 409 hip~ 20;
#X obj 237 409 hip~ 20;
#N canvas 535 143 166 287 tone 0;
#X obj 24 83 phasor~;
#X obj 24 105 -~ 0.5;
#X obj 24 127 sgn~;
#X obj 24 192 phasor~;
#X obj 24 171 *~;
#X obj 24 23 inlet;
#X obj 24 243 outlet~;
#X obj 70 120 t b f;
#X obj 56 147 *;
#X obj 70 23 inlet;
#X obj 24 46 t f f b;
#X msg 79 64 0.5;
#X obj 24 216 -~ 0.5;
#X connect 0 0 1 0;
#X connect 1 0 2 0;
#X connect 2 0 4 0;
#X connect 3 0 12 0;
#X connect 4 0 3 0;
#X connect 5 0 10 0;
#X connect 7 0 8 0;
#X connect 7 1 8 1;
#X connect 8 0 4 1;
#X connect 9 0 7 0;
#X connect 10 0 0 0;
#X connect 10 1 8 0;
#X connect 10 2 11 0;
#X connect 11 0 0 1;
#X connect 11 0 3 1;
#X connect 12 0 6 0;
#X restore 89 261 pd tone;
#N canvas 535 143 162 283 tone 0;
#X obj 24 83 phasor~;
#X obj 24 105 -~ 0.5;
#X obj 24 127 sgn~;
#X obj 24 192 phasor~;
#X obj 24 171 *~;
#X obj 24 23 inlet;
#X obj 24 243 outlet~;
#X obj 70 120 t b f;
#X obj 56 147 *;
#X obj 70 23 inlet;
#X obj 24 46 t f f b;
#X msg 79 64 0.5;
#X obj 24 216 -~ 0.5;
#X connect 0 0 1 0;
#X connect 1 0 2 0;
#X connect 2 0 4 0;
#X connect 3 0 12 0;
#X connect 4 0 3 0;
#X connect 5 0 10 0;
#X connect 7 0 8 0;
#X connect 7 1 8 1;
#X connect 8 0 4 1;
#X connect 9 0 7 0;
#X connect 10 0 0 0;
#X connect 10 1 8 0;
#X connect 10 2 11 0;
#X connect 11 0 0 1;
#X connect 11 0 3 1;
#X connect 12 0 6 0;
#X restore 159 261 pd tone;
#N canvas 535 143 166 287 tone 0;
#X obj 24 83 phasor~;
#X obj 24 105 -~ 0.5;
#X obj 24 127 sgn~;
#X obj 24 192 phasor~;
#X obj 24 171 *~;
#X obj 24 23 inlet;
#X obj 24 243 outlet~;
#X obj 70 120 t b f;
#X obj 56 147 *;
#X obj 70 23 inlet;
#X obj 24 46 t f f b;
#X msg 79 64 0.5;
#X obj 24 216 -~ 0.5;
#X connect 0 0 1 0;
#X connect 1 0 2 0;
#X connect 2 0 4 0;
#X connect 3 0 12 0;
#X connect 4 0 3 0;
#X connect 5 0 10 0;
#X connect 7 0 8 0;
#X connect 7 1 8 1;
#X connect 8 0 4 1;
#X connect 9 0 7 0;
#X connect 10 0 0 0;
#X connect 10 1 8 0;
#X connect 10 2 11 0;
#X connect 11 0 0 1;
#X connect 11 0 3 1;
#X connect 12 0 6 0;
#X restore 228 261 pd tone;
#X obj 529 323 switch~;
#X obj 19 191 mtof;
#X obj 89 191 mtof;
#X obj 159 191 mtof;
#X obj 228 191 mtof;
#X obj 237 439 outlet~;
#X msg 272 121 \$1 \$1;
#X obj 272 141 *;
#X msg 272 161 \$1 \$1;
#X obj 272 181 *;
#X msg 348 121 \$1 \$1;
#X obj 348 141 *;
#X obj 272 201 * 1e-06;
#X obj 272 221 + 1;
#X obj 204 119 mtof;
#X obj 348 161 * 0.001;
#X obj 348 271 + 1;
#X msg 496 121 \$1 \$1;
#X obj 496 141 *;
#X obj 496 181 + 20;
#X obj 496 161 * 0.398;
#X msg 552 121 \$1 \$1;
#X obj 552 141 *;
#X obj 552 161 * 0.0297;
#X obj 552 181 + 3;
#X msg 615 121 \$1 \$1;
#X obj 615 141 *;
#X msg 671 121 \$1 \$1;
#X obj 671 141 *;
#X obj 615 181 + 10;
#X obj 615 161 * 0.099;
#X obj 440 120 * 0.01;
#X obj 671 181 + 50;
#X obj 671 161 * 0.495;
#X obj 19 171 +;
#X obj 89 171 +;
#X obj 159 171 +;
#X obj 229 171 +;
#X obj 19 39 route note1 note2 note3 note4 level giftig frequency filter_q
duration attack decay sustain release transpose;
#X obj 20 10 inlet;
#X obj 31 131 t b f;
#N canvas 12 25 650 476 hmr-vadsr 0;
#X obj 147 285 vline~;
#X obj 29 245 vline~;
#X obj 147 305 dbtorms~;
#X obj 29 265 dbtorms~;
#X obj 13 311 -~;
#X obj 13 291 sig~ 1;
#X obj 312 42 max 0;
#X obj 312 62 min 100;
#X obj 312 102 rmstodb;
#X obj 312 82 / 100;
#X obj 135 42 max 0.1;
#X obj 228 42 max 0.1;
#X obj 421 44 max 0;
#X msg 147 265 0 10 0 \, 100 0 \$1 \, \$3 \$2 \$1 \, 0 \$5 \$4;
#X obj 29 195 pack 3 4 93.9794 12 16;
#X obj 503 136 max 0.1;
#X obj 421 131 + 2;
#X obj 374 106 t b f;
#X obj 374 76 t b f;
#X obj 421 101 + 4;
#X obj 29 175 f 3;
#X msg 29 225 100 \, 60 \$1 0 \, 100 0 \$1;
#X obj 82 415 outlet~;
#N canvas 597 434 208 210 calc.time 0;
#X obj 13 12 inlet;
#X obj 53 12 inlet;
#X obj 93 12 inlet;
#X obj 133 12 inlet;
#X obj 13 162 outlet;
#X obj 33 122 t b f;
#X obj 13 142 +;
#X obj 73 82 t b f;
#X obj 53 102 +;
#X obj 133 32 t b f;
#X obj 113 52 +;
#X connect 0 0 6 0;
#X connect 1 0 8 0;
#X connect 2 0 10 0;
#X connect 3 0 9 0;
#X connect 5 0 6 0;
#X connect 5 1 6 1;
#X connect 6 0 4 0;
#X connect 7 0 8 0;
#X connect 7 1 8 1;
#X connect 8 0 5 0;
#X connect 9 0 10 0;
#X connect 9 1 10 1;
#X connect 10 0 7 0;
#X restore 429 292 pd calc.time;
#X obj 29 42 t b b;
#X obj 365 392 outlet;
#X obj 345 352 f 1;
#X obj 385 352 f 0;
#X obj 385 332 del 500;
#X msg 395 312 stop;
#X obj 351 292 t b b b;
#X obj 503 26 inlet release;
#X obj 421 24 inlet hold;
#X obj 312 22 inlet sustain;
#X obj 228 22 inlet decay;
#X obj 135 22 inlet attack;
#X obj 29 22 inlet trigger;
#X connect 0 0 2 0;
#X connect 1 0 3 0;
#X connect 2 0 22 0;
#X connect 3 0 4 1;
#X connect 4 0 22 0;
#X connect 5 0 4 0;
#X connect 6 0 7 0;
#X connect 7 0 9 0;
#X connect 8 0 14 2;
#X connect 9 0 8 0;
#X connect 10 0 17 0;
#X connect 10 0 20 1;
#X connect 10 0 23 0;
#X connect 11 0 18 0;
#X connect 11 0 14 1;
#X connect 11 0 23 1;
#X connect 12 0 19 0;
#X connect 13 0 0 0;
#X connect 14 0 21 0;
#X connect 14 0 13 0;
#X connect 15 0 14 4;
#X connect 15 0 23 3;
#X connect 16 0 14 3;
#X connect 16 0 23 2;
#X connect 17 0 16 0;
#X connect 17 1 16 1;
#X connect 18 0 19 0;
#X connect 18 1 19 1;
#X connect 19 0 16 0;
#X connect 20 0 14 0;
#X connect 21 0 1 0;
#X connect 23 0 28 1;
#X connect 24 0 20 0;
#X connect 24 1 30 0;
#X connect 26 0 25 0;
#X connect 27 0 25 0;
#X connect 28 0 27 0;
#X connect 29 0 28 0;
#X connect 30 0 28 0;
#X connect 30 1 26 0;
#X connect 30 2 29 0;
#X connect 31 0 15 0;
#X connect 32 0 12 0;
#X connect 33 0 6 0;
#X connect 34 0 11 0;
#X connect 35 0 10 0;
#X connect 36 0 24 0;
#X restore 455 295 pd hmr-vadsr;
#X floatatom 14 460 5 0 0 0 - - -;
#X obj 405 325 *~ 0.5;
#X obj 419 241 t a b;
#X obj 402 274 * 0.01;
#X connect 1 0 11 0;
#X connect 2 0 10 0;
#X connect 3 0 4 0;
#X connect 4 0 6 0;
#X connect 5 0 7 0;
#X connect 6 0 2 0;
#X connect 7 0 1 0;
#X connect 8 0 6 1;
#X connect 8 0 7 1;
#X connect 9 0 8 0;
#X connect 10 0 0 0;
#X connect 11 0 20 0;
#X connect 12 0 5 0;
#X connect 13 0 4 0;
#X connect 14 0 5 0;
#X connect 16 0 3 0;
#X connect 17 0 12 0;
#X connect 18 0 13 0;
#X connect 19 0 14 0;
#X connect 21 0 22 0;
#X connect 22 0 23 0;
#X connect 23 0 24 0;
#X connect 24 0 27 0;
#X connect 25 0 26 0;
#X connect 26 0 30 0;
#X connect 27 0 28 0;
#X connect 28 0 3 1;
#X connect 28 0 12 1;
#X connect 28 0 13 1;
#X connect 28 0 14 1;
#X connect 29 0 4 1;
#X connect 29 0 5 1;
#X connect 30 0 31 0;
#X connect 31 0 5 2;
#X connect 31 0 4 2;
#X connect 31 0 9 0;
#X connect 32 0 33 0;
#X connect 33 0 35 0;
#X connect 34 0 56 4;
#X connect 35 0 34 0;
#X connect 36 0 37 0;
#X connect 37 0 38 0;
#X connect 38 0 39 0;
#X connect 39 0 56 1;
#X connect 40 0 41 0;
#X connect 41 0 45 0;
#X connect 42 0 43 0;
#X connect 43 0 48 0;
#X connect 44 0 56 2;
#X connect 45 0 44 0;
#X connect 46 0 56 3;
#X connect 47 0 56 5;
#X connect 48 0 47 0;
#X connect 49 0 16 0;
#X connect 50 0 17 0;
#X connect 51 0 18 0;
#X connect 52 0 19 0;
#X connect 53 0 49 0;
#X connect 53 1 50 0;
#X connect 53 2 51 0;
#X connect 53 3 52 0;
#X connect 53 4 59 0;
#X connect 53 5 21 0;
#X connect 53 6 29 0;
#X connect 53 7 25 0;
#X connect 53 9 36 0;
#X connect 53 10 40 0;
#X connect 53 11 46 0;
#X connect 53 12 42 0;
#X connect 53 13 55 0;
#X connect 53 13 57 0;
#X connect 53 13 59 0;
#X connect 54 0 53 0;
#X connect 55 1 49 1;
#X connect 55 1 50 1;
#X connect 55 1 51 1;
#X connect 55 1 52 1;
#X connect 56 0 58 0;
#X connect 56 1 15 0;
#X connect 58 0 1 1;
#X connect 58 0 2 1;
#X connect 59 0 60 0;
#X connect 59 1 56 0;
#X connect 60 0 58 1;
#X restore 47 380 pd guts;
#X msg 232 71 level \$1;
#X msg 232 101 note1 \$1;
#X msg 232 121 note2 \$1;
#X msg 232 141 note3 \$1;
#X msg 232 161 note4 \$1;
#X msg 232 211 giftig \$1;
#X msg 232 231 frequency \$1;
#X msg 232 251 filter_q \$1;
#X msg 232 191 transpose \$1;
#X msg 232 281 attack \$1;
#X msg 232 301 decay \$1;
#X msg 232 321 sustain \$1;
#X msg 232 341 release \$1;
#X msg 265 21 version 0.4.0;
#X text 27 51 49 53 54 58;
#X text 27 71 59 55 40 36;
#X text 27 91 88 89 94 85;
#X text 27 111 75 79 80 72;
#X text 27 131 77 81 82 62;
#X text 27 151 91 88 64 44;
#X obj 599 81 mmm-notename;
#X obj 599 101 mmm-notename;
#X obj 599 121 mmm-notename;
#X obj 599 141 mmm-notename;
#X obj 28 21 mmm-module \$1 \$2 oxygen 13;
#X obj 335 171 mmm-ctrl \$1 \$2 6 transpose -24 24 0 int;
#X obj 335 51 mmm-ctrl \$1 \$2 1 level 0 100 -1 int;
#X obj 335 231 mmm-ctrl \$1 \$2 9 filter_q 0 100 50 int;
#X obj 335 191 mmm-ctrl \$1 \$2 7 giftig 0 100 25 int;
#X obj 335 211 mmm-ctrl \$1 \$2 8 frequency 0 127 69 int;
#X obj 335 261 mmm-ctrl \$1 \$2 10 attack 0 100 0 int;
#X obj 335 281 mmm-ctrl \$1 \$2 11 decay 0 100 47 int;
#X obj 335 301 mmm-ctrl \$1 \$2 12 sustain 0 100 61 int;
#X obj 335 321 mmm-ctrl \$1 \$2 13 release 0 100 1 int;
#X obj 335 81 mmm-ctrl \$1 \$2 2 note1 16 127 56 ext;
#X obj 335 101 mmm-ctrl \$1 \$2 3 note2 16 127 73 ext;
#X obj 335 121 mmm-ctrl \$1 \$2 4 note3 16 127 61 ext;
#X obj 335 141 mmm-ctrl \$1 \$2 5 note4 16 127 65 ext;
#X connect 0 0 5 0;
#X connect 1 0 4 0;
#X connect 2 0 0 0;
#X connect 3 0 1 0;
#X connect 6 0 5 0;
#X connect 6 1 4 0;
#X connect 7 0 6 0;
#X connect 8 0 6 0;
#X connect 9 0 6 0;
#X connect 10 0 6 0;
#X connect 11 0 6 0;
#X connect 12 0 6 0;
#X connect 13 0 6 0;
#X connect 14 0 6 0;
#X connect 15 0 6 0;
#X connect 16 0 6 0;
#X connect 17 0 6 0;
#X connect 18 0 6 0;
#X connect 19 0 6 0;
#X connect 27 0 41 1;
#X connect 28 0 42 1;
#X connect 29 0 43 1;
#X connect 30 0 44 1;
#X connect 32 0 15 0;
#X connect 33 0 7 0;
#X connect 34 0 14 0;
#X connect 35 0 12 0;
#X connect 36 0 13 0;
#X connect 37 0 16 0;
#X connect 38 0 17 0;
#X connect 39 0 18 0;
#X connect 40 0 19 0;
#X connect 41 0 8 0;
#X connect 41 2 27 0;
#X connect 42 0 9 0;
#X connect 42 2 28 0;
#X connect 43 0 10 0;
#X connect 43 2 29 0;
#X connect 44 0 11 0;
#X connect 44 2 30 0;
