#N canvas 81 208 375 464 10;
#X obj 22 71 r~ 1-nothing;
#X obj 122 71 r~ 1-nothing;
#X obj 122 51 r \$1-\$2R-r;
#X obj 122 91 s~ \$1-\$2R;
#X obj 22 91 s~ \$1-\$2L;
#X obj 22 51 r \$1-\$2L-r;
#X obj 32 151 tabwrite~ \$1-\$2-scope;
#N canvas 0 22 450 300 (subpatch) 0;
#X array \$1-\$2-scope 100 float 2;
#X coords 0 1 99 -1 200 200 1;
#X restore 48 199 graph;
#X msg 58 131 bang;
#X msg 249 21 version 0.3.0;
#X obj 172 112 tgl 15 0 empty empty empty 17 7 0 10 -262144 -1 -1 0
1;
#X obj 170 132 metro 100;
#X obj 22 21 mmm-module \$1 \$2 oscilloscope 0;
#X connect 0 0 4 0;
#X connect 0 0 6 0;
#X connect 1 0 3 0;
#X connect 2 0 1 0;
#X connect 5 0 0 0;
#X connect 8 0 6 0;
#X connect 10 0 11 0;
#X connect 11 0 6 0;
