#N canvas 346 22 321 142 10;
#N canvas 94 424 435 305 delwrite 0;
#X obj 18 83 r~ 1-nothing;
#X obj 206 83 r~ 1-nothing;
#X obj 18 233 outlet~;
#X obj 19 63 r \$1-\$2L-r;
#X obj 206 63 r \$1-\$2R-r;
#X obj 233 213 delwrite~ \$3_ps-r 2000;
#X obj 45 213 delwrite~ \$3_ps-l 2000;
#X obj 206 233 outlet~;
#X obj 18 193 *~;
#X obj 206 193 *~;
#X obj 45 193 *~;
#X obj 233 193 *~;
#X obj 84 113 cos;
#X obj 139 113 sin;
#X obj 84 43 * 0.015708;
#X obj 139 153 line~;
#X obj 84 153 line~;
#X msg 84 133 \$1 10;
#X msg 139 133 \$1 10;
#X obj 84 23 mmm-ctrl \$1 \$2 1 dry-wet 0 100 100 int;
#X floatatom 157 69 5 0 0 0 - - -;
#X connect 0 0 8 0;
#X connect 0 0 10 0;
#X connect 1 0 9 0;
#X connect 1 0 11 0;
#X connect 3 0 0 0;
#X connect 4 0 1 0;
#X connect 8 0 2 0;
#X connect 9 0 7 0;
#X connect 10 0 6 0;
#X connect 11 0 5 0;
#X connect 12 0 17 0;
#X connect 13 0 18 0;
#X connect 14 0 13 0;
#X connect 14 0 12 0;
#X connect 15 0 11 1;
#X connect 15 0 10 1;
#X connect 16 0 9 1;
#X connect 16 0 8 1;
#X connect 17 0 16 0;
#X connect 18 0 15 0;
#X connect 19 0 14 0;
#X connect 19 0 20 0;
#X restore 14 55 pd delwrite;
#N canvas 60 431 533 277 delread_ 0;
#X obj 16 18 inlet~;
#N canvas 414 183 486 589 pitchshifter 0;
#X obj 76 278 *~;
#X obj 165 215 line~;
#X obj 165 191 pack 0 200;
#X obj 17 187 /;
#X obj 123 124 * 0.001;
#X obj 297 271 line~;
#X obj 297 251 pack 0 200;
#X text 339 175 delay (msec);
#X obj 76 298 +~;
#X obj 17 317 cos~;
#X obj 17 349 *~;
#X obj 17 381 +~;
#X obj 96 240 wrap~;
#X obj 229 278 *~;
#X obj 229 308 +~;
#X obj 172 327 cos~;
#X obj 172 357 *~;
#X obj 123 144 t b f;
#X obj 17 236 phasor~ 0;
#X obj 96 216 +~ 0.5;
#X obj 17 277 -~ 0.5;
#X obj 17 297 *~ 0.5;
#X obj 172 277 -~ 0.5;
#X obj 172 307 *~ 0.5;
#X obj 17 60 * 0.05776;
#X text 58 16 <-- transposition;
#X text 63 34 (halftones);
#X text 83 101 speed;
#X text 82 114 change;
#X text 256 26 <--window (msec);
#X text 49 181 tape head;
#X text 50 193 rotation speed;
#X obj 17 421 outlet~;
#X obj 17 17 inlet;
#X obj 211 25 inlet;
#X obj 297 176 inlet;
#X obj 211 50 max 1;
#X obj 297 203 max 1;
#X obj 127 429 *~;
#X obj 127 461 +~;
#X obj 272 437 *~;
#X obj 127 501 outlet~;
#X obj 17 401 hip~ 40;
#X obj 127 481 hip~ 40;
#X obj 329 409 vd~ \$3_ps-r;
#X obj 186 398 vd~ \$3_ps-r;
#X obj 76 318 vd~ \$3_ps-l;
#X obj 229 328 vd~ \$3_ps-l;
#X connect 0 0 8 0;
#X connect 1 0 0 1;
#X connect 1 0 13 1;
#X connect 2 0 1 0;
#X connect 3 0 18 0;
#X connect 4 0 17 0;
#X connect 5 0 8 1;
#X connect 5 0 14 1;
#X connect 6 0 5 0;
#X connect 8 0 45 0;
#X connect 8 0 46 0;
#X connect 9 0 10 0;
#X connect 9 0 38 0;
#X connect 10 0 11 0;
#X connect 11 0 42 0;
#X connect 12 0 13 0;
#X connect 12 0 22 0;
#X connect 13 0 14 0;
#X connect 14 0 44 0;
#X connect 14 0 47 0;
#X connect 15 0 16 0;
#X connect 15 0 40 0;
#X connect 16 0 11 1;
#X connect 17 0 3 0;
#X connect 17 1 3 1;
#X connect 18 0 0 0;
#X connect 18 0 20 0;
#X connect 18 0 19 0;
#X connect 19 0 12 0;
#X connect 20 0 21 0;
#X connect 21 0 9 0;
#X connect 22 0 23 0;
#X connect 23 0 15 0;
#X connect 24 0 3 0;
#X connect 33 0 24 0;
#X connect 34 0 36 0;
#X connect 35 0 37 0;
#X connect 36 0 2 0;
#X connect 36 0 4 0;
#X connect 37 0 6 0;
#X connect 38 0 39 0;
#X connect 39 0 43 0;
#X connect 40 0 39 1;
#X connect 42 0 32 0;
#X connect 43 0 41 0;
#X connect 44 0 40 1;
#X connect 45 0 38 1;
#X connect 46 0 10 1;
#X connect 47 0 16 1;
#X restore 36 178 pd pitchshifter;
#X obj 136 138 * 0.1;
#X obj 36 138 * -1;
#X obj 116 208 s~ \$1-\$2R;
#X obj 16 208 s~ \$1-\$2L;
#X obj 116 18 inlet~;
#X obj 429 108 * 0.1;
#N canvas 0 22 299 279 f1s 0;
#X obj 27 25 inlet;
#X obj 27 225 outlet;
#X msg 104 165 set \$1;
#X obj 27 195 makefilename;
#X obj 27 55 t f f f;
#X obj 50 95 -;
#X obj 50 115 sel 0;
#X msg 50 145 set %d;
#X obj 71 75 int;
#X msg 128 197 %d.3;
#X obj 105 125 * 10.001;
#X obj 104 145 makefilename %%d.%01d;
#X connect 0 0 4 0;
#X connect 2 0 3 0;
#X connect 2 0 9 0;
#X connect 3 0 1 0;
#X connect 4 0 3 0;
#X connect 4 1 5 0;
#X connect 4 2 8 0;
#X connect 5 0 6 0;
#X connect 6 0 7 0;
#X connect 6 1 10 0;
#X connect 7 0 3 0;
#X connect 8 0 5 1;
#X connect 10 0 11 0;
#X connect 11 0 2 0;
#X restore 381 108 pd f1s;
#X obj 36 48 mmm-ctrl \$1 \$2 2 shift -24 24 0 int;
#X obj 86 78 mmm-ctrl \$1 \$2 3 window 0 127 20 int;
#X obj 136 108 mmm-ctrl \$1 \$2 4 delay 0 127 0 ext;
#X obj 136 158 mmm-ticks2ms;
#X connect 0 0 5 0;
#X connect 1 0 5 0;
#X connect 1 1 4 0;
#X connect 2 0 12 0;
#X connect 3 0 1 0;
#X connect 6 0 4 0;
#X connect 7 0 8 0;
#X connect 8 0 11 1;
#X connect 9 0 3 0;
#X connect 10 0 1 1;
#X connect 11 0 2 0;
#X connect 11 2 7 0;
#X connect 12 0 1 2;
#X restore 14 75 pd delread_;
#X msg 175 75 version 0.3.5;
#X obj 14 15 mmm-module \$1 \$2 pitchshifter 4;
#X connect 0 0 1 0;
#X connect 0 1 1 1;
