#N canvas 0 22 577 342 10;
#N canvas 65 335 284 398 psbd 0;
#N canvas 0 22 198 289 psbd 0;
#X obj 28 195 *~;
#X obj 28 45 *~;
#X obj 28 115 osc~;
#X obj 69 75 *~;
#X obj 69 175 lop~ 100;
#X obj 28 15 inlet~;
#X obj 28 135 clip~ -0.9 0.9;
#X obj 28 155 *~ 2;
#X obj 28 215 outlet~;
#X obj 28 75 *~ 44;
#X obj 28 95 +~ 44;
#X connect 0 0 8 0;
#X connect 1 0 3 0;
#X connect 1 0 3 1;
#X connect 1 0 9 0;
#X connect 2 0 6 0;
#X connect 3 0 4 0;
#X connect 4 0 0 1;
#X connect 5 0 1 1;
#X connect 5 0 1 0;
#X connect 6 0 7 0;
#X connect 7 0 0 0;
#X connect 9 0 10 0;
#X connect 10 0 2 0;
#X restore 24 277 pd psbd;
#X msg 68 147 1 \, 0.0001 \$1;
#X obj 24 117 moses 0;
#X msg 24 177 0 \, 1 \$1;
#X obj 24 137 abs;
#X msg 156 241 1;
#X obj 156 271 switch~;
#X obj 189 231 del;
#X obj 24 97 f;
#X msg 189 251 0;
#X obj 24 67 t b f;
#X obj 24 297 *~;
#X obj 167 147 * 0.01;
#X obj 24 317 outlet~;
#X msg 93 217 0;
#X obj 93 197 del;
#X obj 24 257 vline~;
#X obj 156 211 + 10;
#X obj 93 177 f;
#X obj 24 47 route bassdrum bd-tempo;
#X obj 102 67 * 10;
#X obj 24 27 inlet;
#X connect 0 0 11 0;
#X connect 1 0 16 0;
#X connect 2 0 4 0;
#X connect 2 1 1 0;
#X connect 2 1 18 0;
#X connect 3 0 16 0;
#X connect 4 0 3 0;
#X connect 4 0 18 0;
#X connect 5 0 6 0;
#X connect 7 0 9 0;
#X connect 8 0 2 0;
#X connect 9 0 6 0;
#X connect 10 0 8 0;
#X connect 10 1 12 0;
#X connect 11 0 13 0;
#X connect 12 0 11 1;
#X connect 14 0 16 0;
#X connect 15 0 14 0;
#X connect 16 0 0 0;
#X connect 17 0 5 0;
#X connect 17 0 7 0;
#X connect 18 0 17 0;
#X connect 18 0 15 0;
#X connect 19 0 10 0;
#X connect 19 1 20 0;
#X connect 20 0 8 1;
#X connect 21 0 19 0;
#X restore 21 221 pd psbd;
#X obj 21 271 r~ 1-nothing;
#X obj 171 271 r~ 1-nothing;
#X obj 171 251 r \$1-\$2R-r;
#X obj 21 251 r \$1-\$2L-r;
#X obj 171 291 s~ \$1-\$2R;
#X obj 21 291 s~ \$1-\$2L;
#N canvas 504 210 257 365 pssd 0;
#X obj 24 257 vline~;
#X msg 68 147 1 \, 0.0001 \$1;
#X obj 24 117 moses 0;
#X msg 24 177 0 \, 1 \$1;
#X obj 24 137 abs;
#X msg 153 247 1;
#X obj 153 277 switch~;
#X obj 186 237 del;
#X obj 24 97 f;
#X msg 186 257 0;
#X obj 24 67 t b f;
#X obj 24 297 *~;
#X obj 167 147 * 0.01;
#X obj 24 317 outlet~;
#N canvas 360 140 196 322 pssd 0;
#X obj 105 66 noise~;
#X obj 14 236 *~;
#X obj 18 26 *~;
#X obj 18 56 *~;
#X obj 30 216 vcf~ 6000 3;
#X obj 102 176 loadbang;
#X obj 18 -14 inlet~;
#X obj 60 46 +~ 100;
#X obj 60 66 osc~;
#X obj 60 26 *~ 100;
#X obj 60 96 clip~ -0.3 0.3;
#X obj 72 136 *~ 8000;
#X obj 30 86 *~;
#X obj 72 156 +~ 700;
#X msg 102 196 0.4;
#X obj 14 256 outlet~;
#X connect 0 0 10 0;
#X connect 1 0 15 0;
#X connect 2 0 3 0;
#X connect 2 0 3 1;
#X connect 3 0 12 0;
#X connect 3 0 12 1;
#X connect 3 0 1 0;
#X connect 4 0 1 1;
#X connect 5 0 14 0;
#X connect 6 0 2 1;
#X connect 6 0 2 0;
#X connect 6 0 9 0;
#X connect 7 0 8 0;
#X connect 8 0 10 0;
#X connect 9 0 7 0;
#X connect 10 0 4 0;
#X connect 11 0 13 0;
#X connect 12 0 11 0;
#X connect 13 0 4 1;
#X connect 14 0 4 2;
#X restore 24 277 pd pssd;
#X obj 24 47 route snaredrum sd-tempo;
#X obj 105 67 * 10;
#X msg 93 217 0;
#X obj 93 197 del;
#X obj 93 177 f;
#X obj 153 217 + 10;
#X obj 24 27 inlet;
#X connect 0 0 14 0;
#X connect 1 0 0 0;
#X connect 2 0 4 0;
#X connect 2 1 1 0;
#X connect 2 1 19 0;
#X connect 3 0 0 0;
#X connect 4 0 3 0;
#X connect 4 0 19 0;
#X connect 5 0 6 0;
#X connect 7 0 9 0;
#X connect 8 0 2 0;
#X connect 9 0 6 0;
#X connect 10 0 8 0;
#X connect 10 1 12 0;
#X connect 11 0 13 0;
#X connect 12 0 11 1;
#X connect 14 0 11 0;
#X connect 15 0 10 0;
#X connect 15 1 16 0;
#X connect 16 0 8 1;
#X connect 17 0 0 0;
#X connect 18 0 17 0;
#X connect 19 0 18 0;
#X connect 19 0 20 0;
#X connect 20 0 5 0;
#X connect 20 0 7 0;
#X connect 21 0 15 0;
#X restore 121 221 pd pssd;
#N canvas 152 383 276 373 pshh 0;
#X obj 24 257 vline~;
#X msg 68 147 1 \, 0.0001 \$1;
#X obj 24 117 moses 0;
#X msg 24 177 0 \, 1 \$1;
#X obj 24 137 abs;
#X msg 154 247 1;
#X obj 154 277 switch~;
#X obj 187 237 del;
#X obj 24 97 f;
#X msg 187 257 0;
#X obj 24 67 t b f;
#X obj 24 297 *~;
#X obj 167 147 * 0.01;
#X obj 24 317 outlet~;
#N canvas 360 140 202 271 pshh 0;
#X obj 43 139 noise~;
#X obj 27 199 *~;
#X obj 27 51 *~;
#X obj 43 179 *~ 0.3;
#X obj 43 159 vcf~ 6000 3;
#X obj 115 119 loadbang;
#X obj 27 21 inlet~;
#X msg 115 139 6;
#X obj 79 79 *~ 1000;
#X obj 79 99 +~ 8000;
#X obj 27 81 *~;
#X obj 27 219 outlet~;
#X connect 0 0 4 0;
#X connect 1 0 11 0;
#X connect 2 0 8 0;
#X connect 2 0 10 0;
#X connect 2 0 10 1;
#X connect 3 0 1 1;
#X connect 4 0 3 0;
#X connect 5 0 7 0;
#X connect 6 0 2 1;
#X connect 6 0 2 0;
#X connect 7 0 4 2;
#X connect 8 0 9 0;
#X connect 9 0 4 1;
#X connect 10 0 1 0;
#X restore 24 277 pd pshh;
#X obj 24 47 route hihat hh-tempo;
#X obj 91 67 * 10;
#X obj 154 217 + 10;
#X msg 93 217 0;
#X obj 93 197 del;
#X obj 93 177 f;
#X obj 24 27 inlet;
#X connect 0 0 14 0;
#X connect 1 0 0 0;
#X connect 2 0 4 0;
#X connect 2 1 1 0;
#X connect 2 1 20 0;
#X connect 3 0 0 0;
#X connect 4 0 3 0;
#X connect 4 0 20 0;
#X connect 5 0 6 0;
#X connect 7 0 9 0;
#X connect 8 0 2 0;
#X connect 9 0 6 0;
#X connect 10 0 8 0;
#X connect 10 1 12 0;
#X connect 11 0 13 0;
#X connect 12 0 11 1;
#X connect 14 0 11 0;
#X connect 15 0 10 0;
#X connect 15 1 16 0;
#X connect 16 0 8 1;
#X connect 17 0 5 0;
#X connect 17 0 7 0;
#X connect 18 0 0 0;
#X connect 19 0 18 0;
#X connect 20 0 19 0;
#X connect 20 0 17 0;
#X connect 21 0 15 0;
#X restore 221 221 pd pshh;
#X obj 318 81 * 10;
#X obj 418 121 * 10;
#X obj 519 181 * 10;
#X msg 21 181 bassdrum \$1;
#X msg 31 201 bd-tempo \$1;
#X msg 121 181 snaredrum \$1;
#X msg 131 201 sd-tempo \$1;
#X msg 221 161 hihat \$1;
#X msg 231 201 hh-tempo \$1;
#X text 20 41 phase-synchronous-drums.pd;
#X obj 221 141 mmm-ctrl \$1 \$2 5 hihat 0 100 -1 int;
#X obj 231 181 mmm-ctrl \$1 \$2 6 hh-tempo -10 100 13 ext;
#X obj 131 121 mmm-ctrl \$1 \$2 4 sd-tempo -10 100 22 ext;
#X obj 121 101 mmm-ctrl \$1 \$2 3 snaredrum 0 100 -1 int;
#X obj 31 81 mmm-ctrl \$1 \$2 2 bd-tempo -10 100 18 ext;
#X obj 21 61 mmm-ctrl \$1 \$2 1 bassdrum 0 100 -1 int;
#X obj 20 21 mmm-module \$1 \$2 ps-drums 6;
#X msg 283 21 version 0.3.5;
#X connect 0 0 6 0;
#X connect 0 0 5 0;
#X connect 1 0 6 0;
#X connect 2 0 5 0;
#X connect 3 0 2 0;
#X connect 4 0 1 0;
#X connect 7 0 6 0;
#X connect 7 0 5 0;
#X connect 8 0 5 0;
#X connect 8 0 6 0;
#X connect 9 0 23 1;
#X connect 10 0 21 1;
#X connect 11 0 20 1;
#X connect 12 0 0 0;
#X connect 13 0 0 0;
#X connect 14 0 7 0;
#X connect 15 0 7 0;
#X connect 16 0 8 0;
#X connect 17 0 8 0;
#X connect 19 0 16 0;
#X connect 20 0 17 0;
#X connect 20 2 11 0;
#X connect 21 0 15 0;
#X connect 21 2 10 0;
#X connect 22 0 14 0;
#X connect 23 0 13 0;
#X connect 23 2 9 0;
#X connect 24 0 12 0;
