#N canvas 53 206 745 348 10;
#X obj 49 167 r gemmm;
#X obj 518 41 r~ 1-nothing;
#X obj 618 41 r~ 1-nothing;
#N canvas 567 372 264 186 send_gemmm 0;
#X obj 104 19 loadbang;
#X obj 25 99 list prepend;
#X obj 25 139 s gemmm;
#X obj 25 79 inlet;
#X obj 25 119 list trim;
#X obj 104 59 + 1;
#X obj 104 79 makefilename \$1-%d;
#X obj 104 39 f \$2;
#X connect 0 0 7 0;
#X connect 1 0 4 0;
#X connect 3 0 1 0;
#X connect 4 0 2 0;
#X connect 5 0 6 0;
#X connect 6 0 1 1;
#X connect 7 0 5 0;
#X restore 28 311 pd send_gemmm;
#X obj 28 291 pix_texture;
#X msg 110 111 quality \$1;
#X msg 281 171 mode \$1;
#X msg 349 201 client_storage \$1;
#X msg 199 141 repeat \$1;
#X msg 487 231 env \$1;
#X obj 28 21 mmm-module \$1 \$2 pix_texture 6;
#X obj 518 21 r \$1-\$2L-r;
#X obj 618 21 r \$1-\$2R-r;
#X obj 518 61 s~ \$1-\$2L;
#X obj 618 61 s~ \$1-\$2R;
#X obj 28 61 mmm-ctrl \$1 \$2 1 texturing 0 1 1 int;
#X obj 110 91 mmm-ctrl \$1 \$2 2 quality 0 1 1 int;
#X obj 199 121 mmm-ctrl \$1 \$2 3 repeat 0 1 1 int;
#X obj 281 151 mmm-ctrl \$1 \$2 4 mode 0 1 1 int;
#X obj 349 181 mmm-ctrl \$1 \$2 5 client_storage 0 1 1 int;
#X obj 487 211 mmm-ctrl \$1 \$2 6 env 0 5 5 int;
#X obj 28 81 t a;
#X obj 49 187 route \$1-\$2;
#X msg 285 21 version 0.3.1;
#X connect 0 0 22 0;
#X connect 1 0 13 0;
#X connect 2 0 14 0;
#X connect 4 0 3 0;
#X connect 5 0 4 0;
#X connect 6 0 4 0;
#X connect 7 0 4 0;
#X connect 8 0 4 0;
#X connect 9 0 4 0;
#X connect 11 0 1 0;
#X connect 12 0 2 0;
#X connect 15 0 21 0;
#X connect 16 0 5 0;
#X connect 17 0 8 0;
#X connect 18 0 6 0;
#X connect 19 0 7 0;
#X connect 20 0 9 0;
#X connect 21 0 4 0;
#X connect 22 0 4 0;
