#N canvas 82 22 521 380 10;
#X obj 38 241 r gemmm;
#X obj 28 71 r~ 1-nothing;
#X obj 128 71 r~ 1-nothing;
#X obj 28 311 pix_snap2tex 0 0 512 512;
#X obj 38 281 t b a;
#N canvas 567 372 264 186 send_gemmm 0;
#X obj 104 19 loadbang;
#X obj 25 99 list prepend;
#X obj 25 139 s gemmm;
#X obj 25 79 inlet;
#X obj 25 119 list trim;
#X obj 104 59 + 1;
#X obj 104 79 makefilename \$1-%d;
#X obj 104 39 f \$2;
#X connect 0 0 7 0;
#X connect 1 0 4 0;
#X connect 3 0 1 0;
#X connect 4 0 2 0;
#X connect 5 0 6 0;
#X connect 6 0 1 1;
#X connect 7 0 5 0;
#X restore 28 331 pd send_gemmm;
#X obj 129 201 t b f;
#X obj 211 261 t b f;
#X obj 109 231 pack;
#X obj 191 291 pack;
#X obj 28 21 mmm-module \$1 \$2 pix_snap2tex 5;
#X obj 28 51 r \$1-\$2L-r;
#X obj 128 51 r \$1-\$2R-r;
#X obj 28 91 s~ \$1-\$2L;
#X obj 128 91 s~ \$1-\$2R;
#X obj 28 121 mmm-ctrl \$1 \$2 1 texturing 0 1 1 int;
#X obj 109 151 mmm-ctrl \$1 \$2 2 offsetX 0 2000 0 int;
#X obj 129 181 mmm-ctrl \$1 \$2 3 offsetY 0 2000 0 int;
#X obj 191 211 mmm-ctrl \$1 \$2 4 dimenX 0 2000 320 int;
#X obj 211 241 mmm-ctrl \$1 \$2 5 dimenY 0 2000 240 int;
#X obj 38 261 route \$1-\$2;
#X msg 285 21 version 0.3.2;
#X connect 0 0 20 0;
#X connect 1 0 13 0;
#X connect 2 0 14 0;
#X connect 3 0 5 0;
#X connect 4 0 3 0;
#X connect 4 1 3 0;
#X connect 6 0 8 0;
#X connect 6 1 8 1;
#X connect 7 0 9 0;
#X connect 7 1 9 1;
#X connect 8 0 3 1;
#X connect 9 0 3 2;
#X connect 11 0 1 0;
#X connect 12 0 2 0;
#X connect 15 0 3 0;
#X connect 16 0 8 0;
#X connect 17 0 6 0;
#X connect 18 0 9 0;
#X connect 19 0 7 0;
#X connect 20 0 4 0;
