#N canvas 32 24 732 748 10;
#N canvas 0 22 474 324 abslist 0;
#X msg 25 19 4m-padsynth-voice;
#X restore 244 22 pd abslist;
#X obj 28 191 t a;
#N canvas 0 22 454 304 simplepoly 0;
#X obj 253 121 f;
#X obj 285 122 + 1;
#X obj 283 149 mod 8;
#X obj 216 207 pack f f;
#X obj 228 61 t b f;
#X obj 223 22 inlet notes;
#X obj 217 265 outlet;
#X connect 0 0 3 0;
#X connect 0 0 1 0;
#X connect 1 0 2 0;
#X connect 2 0 0 1;
#X connect 3 0 6 0;
#X connect 4 0 0 0;
#X connect 4 1 3 1;
#X connect 5 0 4 0;
#X restore 28 251 pd simplepoly;
#X obj 28 271 route 0 1 2 3 4 5 6 7;
#X obj 28 618 lop~;
#X obj 28 671 hip~;
#X obj 51 578 pow 2;
#X obj 51 598 * 22050;
#X obj 116 608 pow 2;
#X obj 116 628 * 22050;
#X obj 48 221 + 0;
#X obj 51 558 * 0.01;
#X obj 116 588 * 0.01;
#X obj 28 301 4m-padsynth-voice;
#X obj 45 321 4m-padsynth-voice;
#X obj 63 341 4m-padsynth-voice;
#X obj 81 361 4m-padsynth-voice;
#X obj 99 381 4m-padsynth-voice;
#X obj 116 401 4m-padsynth-voice;
#X obj 134 421 4m-padsynth-voice;
#X obj 152 441 4m-padsynth-voice;
#X msg 374 201 stages \$1;
#X msg 384 261 detune \$1;
#X obj 384 241 * 0.01;
#X obj 394 301 * 0.01;
#X obj 404 361 * 0.01;
#X obj 414 421 * 0.01;
#X msg 394 321 attack \$1;
#X msg 404 381 hold \$1;
#X msg 414 441 release \$1;
#X obj 355 451 t a;
#X obj 167 141 r \$1-\$2;
#X obj 167 161 route notes;
#X obj 168 675 r~ 1-nothing;
#X obj 267 675 r~ 1-nothing;
#X obj 267 655 r \$1-\$2R-r;
#X obj 168 655 r \$1-\$2L-r;
#X obj 168 705 s~ \$1-\$2L;
#X obj 267 705 s~ \$1-\$2R;
#X obj 28 51 mmm-ctrl \$1 \$2 1 note1 16 127 15 ext;
#X obj 38 71 mmm-ctrl \$1 \$2 2 note2 16 127 15 ext;
#X obj 48 91 mmm-ctrl \$1 \$2 3 note3 16 127 15 ext;
#X obj 58 111 mmm-ctrl \$1 \$2 4 note4 16 127 15 ext;
#X obj 299 51 mmm-notename;
#X obj 309 71 mmm-notename;
#X obj 319 91 mmm-notename;
#X obj 329 111 mmm-notename;
#X obj 116 558 mmm-ctrl \$1 \$2 13 highpass 0 100 10 int;
#X obj 51 528 mmm-ctrl \$1 \$2 12 lowpass 0 100 56 int;
#X obj 414 401 mmm-ctrl \$1 \$2 11 release 0 100 80 int;
#X obj 404 341 mmm-ctrl \$1 \$2 10 hold 0 100 60 int;
#X obj 394 281 mmm-ctrl \$1 \$2 9 attack 0 100 50 int;
#X obj 384 221 mmm-ctrl \$1 \$2 8 detune 0 100 35 int;
#X obj 374 181 mmm-ctrl \$1 \$2 7 stages 2 6 3 int;
#X obj 64 201 mmm-ctrl \$1 \$2 6 transpose -36 36 0 int;
#X obj 106 481 mmm-ctrl \$1 \$2 5 level 0 100 50 int;
#X obj 106 501 * 0.01;
#X obj 28 478 *~ 0.5;
#X msg 340 21 version 0.3.6;
#X obj 28 21 mmm-module \$1 \$2 padsynth 13;
#X connect 1 0 10 0;
#X connect 2 0 3 0;
#X connect 3 0 13 0;
#X connect 3 1 14 0;
#X connect 3 2 15 0;
#X connect 3 3 16 0;
#X connect 3 4 17 0;
#X connect 3 5 18 0;
#X connect 3 6 19 0;
#X connect 3 7 20 0;
#X connect 4 0 5 0;
#X connect 5 0 37 0;
#X connect 5 0 38 0;
#X connect 6 0 7 0;
#X connect 7 0 4 1;
#X connect 8 0 9 0;
#X connect 9 0 5 1;
#X connect 10 0 2 0;
#X connect 11 0 6 0;
#X connect 12 0 8 0;
#X connect 13 0 57 0;
#X connect 14 0 57 0;
#X connect 15 0 57 0;
#X connect 16 0 57 0;
#X connect 17 0 57 0;
#X connect 18 0 57 0;
#X connect 19 0 57 0;
#X connect 20 0 57 0;
#X connect 21 0 30 0;
#X connect 22 0 30 0;
#X connect 23 0 22 0;
#X connect 24 0 27 0;
#X connect 25 0 28 0;
#X connect 26 0 29 0;
#X connect 27 0 30 0;
#X connect 28 0 30 0;
#X connect 29 0 30 0;
#X connect 30 0 13 1;
#X connect 30 0 14 1;
#X connect 30 0 15 1;
#X connect 30 0 16 1;
#X connect 30 0 17 1;
#X connect 30 0 18 1;
#X connect 30 0 19 1;
#X connect 30 0 20 1;
#X connect 31 0 32 0;
#X connect 32 0 1 0;
#X connect 33 0 37 0;
#X connect 34 0 38 0;
#X connect 35 0 34 0;
#X connect 36 0 33 0;
#X connect 39 0 1 0;
#X connect 39 2 43 0;
#X connect 40 0 1 0;
#X connect 40 2 44 0;
#X connect 41 0 1 0;
#X connect 41 2 45 0;
#X connect 42 0 1 0;
#X connect 42 2 46 0;
#X connect 43 0 39 1;
#X connect 44 0 40 1;
#X connect 45 0 41 1;
#X connect 46 0 42 1;
#X connect 47 0 12 0;
#X connect 48 0 11 0;
#X connect 49 0 26 0;
#X connect 50 0 25 0;
#X connect 51 0 24 0;
#X connect 52 0 23 0;
#X connect 53 0 21 0;
#X connect 54 0 10 1;
#X connect 55 0 56 0;
#X connect 56 0 57 1;
#X connect 57 0 4 0;
