#N canvas 27 184 542 477 10;
#X obj 483 221 * 0.1;
#X obj 28 71 r~ 1-nothing;
#X obj 268 71 r~ 1-nothing;
#X obj 28 371 *~;
#X obj 191 241 * 0.1;
#X obj 44 341 line~;
#X obj 284 341 line~;
#X obj 268 371 *~;
#X obj 268 51 r \$1-\$2R-r;
#X obj 268 391 s~ \$1-\$2R;
#X obj 28 391 s~ \$1-\$2L;
#X obj 28 51 r \$1-\$2L-r;
#X obj 44 321 pack;
#X obj 284 321 pack;
#N canvas 0 22 454 304 delwrite________________________ 0;
#X obj 15 20 inlet~;
#X obj 185 20 inlet~;
#X obj 15 50 delwrite~ \$0-del-L 100;
#X obj 15 90 outlet~;
#X obj 185 50 delwrite~ \$0-del-R 100;
#X connect 0 0 2 0;
#X connect 1 0 4 0;
#X restore 28 91 pd delwrite________________________;
#N canvas 671 176 327 218 delread_________________________ 0;
#X obj 15 19 inlet~;
#X obj 15 165 outlet~;
#X obj 155 165 outlet~;
#X obj 81 18 inlet;
#X obj 15 145 vd~ \$0-del-L;
#X obj 155 145 vd~ \$0-del-R;
#X msg 155 105 \$1 10;
#X obj 155 125 line~;
#X msg 15 105 \$1 10;
#X obj 15 125 line~;
#X obj 155 85 max 0;
#X obj 15 65 * -1;
#X obj 15 85 max 0;
#X connect 3 0 10 0;
#X connect 3 0 11 0;
#X connect 4 0 1 0;
#X connect 5 0 2 0;
#X connect 6 0 7 0;
#X connect 7 0 5 0;
#X connect 8 0 9 0;
#X connect 9 0 4 0;
#X connect 10 0 6 0;
#X connect 11 0 12 0;
#X connect 12 0 8 0;
#X restore 28 161 pd delread_________________________;
#X obj 268 141 * 0.1;
#X obj 44 301 cos;
#X obj 284 301 sin;
#X obj 44 231 + 50;
#X obj 44 251 * 0.015708;
#X obj 318 189 * 2;
#N canvas 0 22 299 279 f2s 0;
#X obj 27 25 inlet;
#X obj 27 225 outlet;
#X msg 104 165 set \$1;
#X obj 27 195 makefilename;
#X obj 27 55 t f f f;
#X obj 50 95 -;
#X obj 50 115 sel 0;
#X msg 50 145 set %d;
#X obj 71 75 int;
#X msg 128 197 %d.1;
#X obj 105 125 * 10.001;
#X obj 104 145 makefilename %%d.%01d;
#X connect 0 0 4 0;
#X connect 2 0 3 0;
#X connect 2 0 9 0;
#X connect 3 0 1 0;
#X connect 4 0 3 0;
#X connect 4 1 5 0;
#X connect 4 2 8 0;
#X connect 5 0 6 0;
#X connect 6 0 7 0;
#X connect 6 1 10 0;
#X connect 7 0 3 0;
#X connect 8 0 5 1;
#X connect 10 0 11 0;
#X connect 11 0 2 0;
#X restore 435 221 pd f2s;
#X obj 28 21 mmm-module \$1 \$2 panner 3;
#X obj 79 189 mmm-ctrl \$1 \$2 1 pan -50 50 0 ext;
#X obj 191 221 mmm-ctrl \$1 \$2 2 glide 0 160 1 ext;
#X obj 192 121 mmm-ctrl \$1 \$2 3 phase_del -100 100 0 int;
#X msg 255 21 version 0.3.7;
#X obj 191 261 mmm-ticks2ms;
#X connect 0 0 22 0;
#X connect 1 0 14 0;
#X connect 2 0 14 1;
#X connect 3 0 10 0;
#X connect 4 0 28 0;
#X connect 5 0 3 1;
#X connect 6 0 7 1;
#X connect 7 0 9 0;
#X connect 8 0 2 0;
#X connect 11 0 1 0;
#X connect 12 0 5 0;
#X connect 13 0 6 0;
#X connect 14 0 15 0;
#X connect 15 0 3 0;
#X connect 15 1 7 0;
#X connect 16 0 15 1;
#X connect 17 0 12 0;
#X connect 18 0 13 0;
#X connect 19 0 20 0;
#X connect 20 0 18 0;
#X connect 20 0 17 0;
#X connect 21 0 24 1;
#X connect 22 0 25 1;
#X connect 24 0 19 0;
#X connect 24 2 21 0;
#X connect 25 0 4 0;
#X connect 25 2 0 0;
#X connect 26 0 16 0;
#X connect 28 0 12 1;
#X connect 28 0 13 1;
