#N canvas 174 86 521 279 10;
#N canvas 0 22 450 300 notename 0;
#X obj 154 66 t f f;
#X obj 179 112 div 12;
#X obj 179 135 makefilename %%s%d;
#X msg 179 157 set \$1;
#N canvas 380 110 450 300 n 0;
#X obj 141 51 inlet;
#X obj 141 77 mod 12;
#X obj 141 100 select 0 1 2 3 4 5 6 7 8 9 10 11;
#X msg 172 177 symbol d-;
#X msg 156 157 symbol c#;
#X msg 141 137 symbol c-;
#X msg 187 197 symbol d#;
#X msg 203 217 symbol e-;
#X msg 218 237 symbol f-;
#X msg 234 137 symbol f#;
#X msg 250 157 symbol g-;
#X msg 265 176 symbol g#;
#X msg 281 197 symbol a-;
#X msg 297 217 symbol a#;
#X msg 312 237 symbol b;
#X obj 168 282 outlet;
#X connect 0 0 1 0;
#X connect 1 0 2 0;
#X connect 2 0 5 0;
#X connect 2 1 4 0;
#X connect 2 2 3 0;
#X connect 2 3 6 0;
#X connect 2 4 7 0;
#X connect 2 5 8 0;
#X connect 2 6 9 0;
#X connect 2 7 10 0;
#X connect 2 8 11 0;
#X connect 2 9 12 0;
#X connect 2 10 13 0;
#X connect 2 11 14 0;
#X connect 3 0 15 0;
#X connect 4 0 15 0;
#X connect 5 0 15 0;
#X connect 6 0 15 0;
#X connect 7 0 15 0;
#X connect 8 0 15 0;
#X connect 9 0 15 0;
#X connect 10 0 15 0;
#X connect 11 0 15 0;
#X connect 12 0 15 0;
#X connect 13 0 15 0;
#X connect 14 0 15 0;
#X restore 154 93 pd n;
#X obj 154 182 makefilename;
#X obj 99 275 outlet;
#X obj 99 10 inlet;
#X connect 0 0 4 0;
#X connect 0 1 1 0;
#X connect 1 0 2 0;
#X connect 2 0 3 0;
#X connect 3 0 5 0;
#X connect 4 0 5 0;
#X connect 5 0 6 0;
#X connect 7 0 0 0;
#X restore 301 73 pd notename;
#N canvas 146 40 406 322 dsp-guts 0;
#X obj 17 244 r~ 1-nothing;
#X obj 167 244 r~ 1-nothing;
#X obj 135 49 r \$3;
#X obj 167 224 r \$1-\$2R-r;
#X obj 167 274 s~ \$1-\$2R;
#X obj 17 274 s~ \$1-\$2L;
#X obj 17 224 r \$1-\$2L-r;
#X obj 99 189 *~;
#X obj 115 169 line~;
#N canvas 764 85 382 340 vcf303 0;
#X obj 148 272 vcf~;
#X obj 148 252 inlet~;
#X obj 76 136 sig~;
#X obj 235 146 vline~;
#X obj 235 196 *~;
#X obj 148 292 outlet~;
#X msg 235 126 1 0 0 \, 0 \$1 2;
#X obj 235 106 f;
#X obj 235 216 *~ 3000;
#X obj 235 176 *~;
#X obj 138 116 + 1;
#X obj 76 116 + 2;
#X obj 14 16 r \$3;
#X obj 235 86 b;
#X obj 14 36 route notes-seq cutoff resonance envmod decay;
#X obj 76 96 * 10;
#X obj 138 96 * 0.12;
#X obj 200 56 * 0.01;
#X obj 262 86 * 10;
#X connect 0 0 5 0;
#X connect 1 0 0 0;
#X connect 2 0 0 1;
#X connect 3 0 9 0;
#X connect 3 0 9 1;
#X connect 4 0 8 0;
#X connect 6 0 3 0;
#X connect 7 0 6 0;
#X connect 8 0 0 1;
#X connect 9 0 4 0;
#X connect 10 0 0 2;
#X connect 11 0 2 0;
#X connect 12 0 14 0;
#X connect 13 0 7 0;
#X connect 14 0 13 0;
#X connect 14 1 15 0;
#X connect 14 2 16 0;
#X connect 14 3 17 0;
#X connect 14 4 18 0;
#X connect 15 0 11 0;
#X connect 16 0 10 0;
#X connect 17 0 4 1;
#X connect 18 0 7 1;
#X restore 100 129 pd vcf303;
#N canvas 599 22 597 751 multiosc 0;
#X obj 202 242 phasor~;
#X obj 263 242 phasor~;
#X obj 339 261 loadbang;
#X msg 339 281 0;
#X obj 275 644 outlet~;
#X obj 223 338 -~ 0.5;
#X obj 307 211 f 0;
#X msg 272 210 0;
#X obj 323 191 * 0.5;
#X obj 340 110 osc~ 0.1;
#X obj 340 130 *~;
#X obj 232 171 sig~;
#X obj 340 150 *~ 3;
#X obj 311 426 *~ 1e+07;
#X obj 401 425 clip~ 0 1;
#X obj 401 445 -~ 0.5;
#X obj 311 446 clip~ -1 1;
#X obj 223 298 *~ 0.5;
#X obj 401 465 *~ 2;
#X obj 311 466 *~ 0.25;
#X obj 487 425 cos~;
#X obj 286 119 t b f;
#X obj 87 432 cos~;
#X text 113 449 sine;
#X text 405 481 saw;
#X text 319 483 sqr;
#X obj 152 427 clip~ -1 0;
#X obj 231 426 clip~ 0 1;
#X obj 231 446 *~ -1;
#X obj 202 395 -~ 0.5;
#X obj 204 466 +~ 0.5;
#X obj 204 486 *~ 2;
#X text 250 488 tri;
#X text 501 465 phasemod;
#X obj 231 615 *~;
#X obj 267 615 *~;
#X obj 301 614 *~;
#X obj 337 614 *~;
#X obj 377 614 *~;
#X obj 302 583 unpack f f f f f;
#X msg 37 547 1 0 0 0 0;
#X msg 37 567 0 1 0 0 0;
#X msg 37 587 0 0 1 0 0;
#X msg 37 607 0 0 0 1 0;
#X msg 37 627 0 0 0 0 1;
#X obj 37 527 sel 1 2 3 4 5;
#X obj 487 445 clip~ -1 1;
#X obj 92 22 r \$3;
#X obj 167 62 mtof;
#X obj 202 151 t f f;
#X obj 243 62 * 0.01;
#X obj 92 42 route waveform notes-seq warmth instablility;
#X obj 319 62 * 0.01;
#X connect 0 0 22 0;
#X connect 0 0 29 0;
#X connect 0 0 17 0;
#X connect 1 0 17 0;
#X connect 2 0 3 0;
#X connect 3 0 1 1;
#X connect 3 0 0 1;
#X connect 5 0 14 0;
#X connect 5 0 13 0;
#X connect 6 0 1 1;
#X connect 7 0 0 1;
#X connect 8 0 6 1;
#X connect 9 0 10 0;
#X connect 10 0 12 0;
#X connect 11 0 1 0;
#X connect 12 0 1 0;
#X connect 13 0 16 0;
#X connect 14 0 15 0;
#X connect 15 0 18 0;
#X connect 16 0 19 0;
#X connect 17 0 5 0;
#X connect 17 0 20 0;
#X connect 18 0 37 0;
#X connect 19 0 36 0;
#X connect 20 0 46 0;
#X connect 21 0 6 0;
#X connect 21 0 7 0;
#X connect 21 1 8 0;
#X connect 22 0 34 0;
#X connect 26 0 30 0;
#X connect 27 0 28 0;
#X connect 28 0 30 0;
#X connect 29 0 26 0;
#X connect 29 0 27 0;
#X connect 30 0 31 0;
#X connect 31 0 35 0;
#X connect 34 0 4 0;
#X connect 35 0 4 0;
#X connect 36 0 4 0;
#X connect 37 0 4 0;
#X connect 38 0 4 0;
#X connect 39 0 34 1;
#X connect 39 1 35 1;
#X connect 39 2 36 1;
#X connect 39 3 37 1;
#X connect 39 4 38 1;
#X connect 40 0 39 0;
#X connect 41 0 39 0;
#X connect 42 0 39 0;
#X connect 43 0 39 0;
#X connect 44 0 39 0;
#X connect 45 0 40 0;
#X connect 45 1 41 0;
#X connect 45 2 42 0;
#X connect 45 3 43 0;
#X connect 45 4 44 0;
#X connect 46 0 38 0;
#X connect 47 0 51 0;
#X connect 48 0 49 0;
#X connect 49 0 0 0;
#X connect 49 1 11 0;
#X connect 50 0 21 0;
#X connect 51 0 45 0;
#X connect 51 1 48 0;
#X connect 51 2 50 0;
#X connect 51 3 52 0;
#X connect 52 0 9 0;
#X connect 52 0 10 1;
#X restore 100 19 pd multiosc;
#X obj 100 109 *~;
#X msg 115 149 \$1 20;
#X obj 135 89 * 0.01;
#X text 192 19 note: no line - fast kill;
#X text 192 35 click into filter == good :);
#X obj 135 69 route level;
#X connect 0 0 5 0;
#X connect 1 0 4 0;
#X connect 2 0 16 0;
#X connect 3 0 1 0;
#X connect 6 0 0 0;
#X connect 7 0 5 0;
#X connect 7 0 4 0;
#X connect 8 0 7 1;
#X connect 9 0 7 0;
#X connect 10 0 11 0;
#X connect 11 0 9 0;
#X connect 12 0 8 0;
#X connect 13 0 12 0;
#X connect 13 0 11 1;
#X connect 16 0 13 0;
#X restore 362 23 pd dsp-guts;
#X obj 28 73 mmm-ctrl \$1 \$2 1 notes 0 127 48 ext;
#X msg 253 23 version 0.1.1;
#X text 362 46 port of PD-303s;
#X obj 28 93 mmm-ctrl \$1 \$2 2 level 0 100 80 int;
#X obj 28 113 mmm-ctrl \$1 \$2 3 waveform 1 5 3 ext;
#X msg 393 113 sin;
#X msg 410 133 tri;
#X msg 427 153 square;
#X msg 444 173 saw;
#X msg 461 193 pm;
#X obj 28 133 mmm-ctrl \$1 \$2 4 cutoff 0 100 6 int;
#X obj 28 153 mmm-ctrl \$1 \$2 5 resonance 0 100 11 int;
#X obj 28 173 mmm-ctrl \$1 \$2 6 envmod 0 100 60 int;
#X obj 28 193 mmm-ctrl \$1 \$2 7 decay 0 100 9 int;
#X obj 28 213 mmm-ctrl \$1 \$2 8 warmth 0 100 28 int;
#X obj 28 233 mmm-ctrl \$1 \$2 9 instability 0 100 31 int;
#X obj 28 23 mmm-module \$1 \$2 PD-303s 9;
#X obj 393 219 symbol;
#X obj 393 93 sel 1 2 3 4 5;
#X connect 0 0 2 1;
#X connect 2 2 0 0;
#X connect 6 2 20 0;
#X connect 7 0 19 0;
#X connect 8 0 19 0;
#X connect 9 0 19 0;
#X connect 10 0 19 0;
#X connect 11 0 19 0;
#X connect 19 0 6 1;
#X connect 20 0 7 0;
#X connect 20 1 8 0;
#X connect 20 2 9 0;
#X connect 20 3 10 0;
#X connect 20 4 11 0;
