#N canvas 484 55 533 392 10;
#X obj 28 201 r gemmm;
#X obj 28 81 r~ 1-nothing;
#X obj 128 81 r~ 1-nothing;
#X obj 28 261 t b a;
#N canvas 567 372 264 186 send_gemmm 0;
#X obj 104 19 loadbang;
#X obj 25 99 list prepend;
#X obj 25 139 s gemmm;
#X obj 25 79 inlet;
#X obj 25 119 list trim;
#X obj 104 59 + 1;
#X obj 104 79 makefilename \$1-%d;
#X obj 104 39 f \$2;
#X connect 0 0 7 0;
#X connect 1 0 4 0;
#X connect 3 0 1 0;
#X connect 4 0 2 0;
#X connect 5 0 6 0;
#X connect 6 0 1 1;
#X connect 7 0 5 0;
#X restore 28 351 pd send_gemmm;
#X obj 119 231 pack;
#X obj 191 291 pack;
#X obj 28 51 r \$1-\$2L-r;
#X obj 128 51 r \$1-\$2R-r;
#X obj 28 111 s~ \$1-\$2L;
#X obj 128 111 s~ \$1-\$2R;
#X obj 28 231 route \$1-\$2;
#X obj 28 21 mmm-module \$1 \$2 pix_snap 5;
#X msg 285 21 version 0.3.0;
#X obj 28 321 pix_snap 0 0 512 512;
#X msg 28 291 snap;
#X obj 119 141 mmm-ctrl \$1 \$2 1 posX 0 2000 0 int;
#X obj 139 171 mmm-ctrl \$1 \$2 2 posY 0 2000 0 int;
#X obj 191 201 mmm-ctrl \$1 \$2 3 sizeX 0 2000 320 int;
#X obj 211 231 mmm-ctrl \$1 \$2 4 sizeY 0 2000 240 int;
#X obj 139 201 t b a;
#X obj 211 261 t b a;
#X connect 0 0 11 0;
#X connect 1 0 9 0;
#X connect 2 0 10 0;
#X connect 3 0 15 0;
#X connect 3 1 14 0;
#X connect 5 0 14 1;
#X connect 6 0 14 2;
#X connect 7 0 1 0;
#X connect 8 0 2 0;
#X connect 11 0 3 0;
#X connect 14 0 4 0;
#X connect 15 0 14 0;
#X connect 16 0 5 0;
#X connect 17 0 20 0;
#X connect 18 0 6 0;
#X connect 19 0 21 0;
#X connect 20 0 5 0;
#X connect 20 1 5 1;
#X connect 21 0 6 0;
#X connect 21 1 6 1;
