#N canvas 14 22 580 335 10;
#X obj 371 41 r~ 1-nothing;
#X obj 471 41 r~ 1-nothing;
#X obj 28 301 pix_write;
#X obj 28 61 mmm-ctrl \$1 \$2 1 gemhead -100 100 -50 int;
#X obj 28 81 gemhead -50;
#X obj 185 244 pack s f;
#X obj 176 174 savepanel;
#X obj 176 134 mmm-ctrl \$1 \$2 2 file 0 1 0 int;
#X obj 127 96 mmm-ctrl \$1 \$2 3 snap 0 1 0 int;
#X obj 127 204 symbol empty;
#X obj 127 224 sel empty;
#X obj 176 154 sel 1;
#X obj 127 184 sel 1;
#X obj 236 224 mmm-ctrl \$1 \$2 4 quality 0 100 100 int;
#X msg 185 264 file \$1 \$2 \, bang;
#X obj 421 298 pix_record;
#X msg 421 278 colorspace RGBA;
#X obj 28 21 mmm-module \$1 \$2 pix_write 4;
#X obj 371 21 r \$1-\$2L-r;
#X obj 371 61 s~ \$1-\$2L;
#X obj 471 21 r \$1-\$2R-r;
#X obj 471 61 s~ \$1-\$2R;
#X msg 231 21 version 0.3.2;
#X connect 0 0 19 0;
#X connect 1 0 21 0;
#X connect 3 0 4 0;
#X connect 4 0 2 0;
#X connect 5 0 14 0;
#X connect 6 0 9 1;
#X connect 7 0 11 0;
#X connect 8 0 12 0;
#X connect 9 0 10 0;
#X connect 10 1 5 0;
#X connect 11 0 6 0;
#X connect 12 0 9 0;
#X connect 13 0 5 1;
#X connect 14 0 2 0;
#X connect 16 0 15 0;
#X connect 18 0 0 0;
#X connect 20 0 1 0;
