#N canvas 80 22 506 525 10;
#X obj 264 447 r~ 1-nothing;
#X obj 364 447 r~ 1-nothing;
#X obj 38 367 r gemmm;
#N canvas 567 372 264 186 send_gemmm 0;
#X obj 104 19 loadbang;
#X obj 25 99 list prepend;
#X obj 25 139 s gemmm;
#X obj 25 79 inlet;
#X obj 25 119 list trim;
#X obj 104 59 + 1;
#X obj 104 79 makefilename \$1-%d;
#X obj 104 39 f \$2;
#X connect 0 0 7 0;
#X connect 1 0 4 0;
#X connect 3 0 1 0;
#X connect 4 0 2 0;
#X connect 5 0 6 0;
#X connect 6 0 1 1;
#X connect 7 0 5 0;
#X restore 38 467 pd send_gemmm;
#X obj 38 437 pix_set 2 2;
#X obj 264 427 r \$1-\$2L-r;
#X obj 364 427 r \$1-\$2R-r;
#X obj 264 467 s~ \$1-\$2L;
#X obj 364 467 s~ \$1-\$2R;
#X msg 143 71 r1 \$1;
#X msg 143 91 g1 \$1;
#X msg 143 111 b1 \$1;
#X msg 143 131 a1 \$1;
#N canvas 0 22 643 298 pix_set-list 0;
#X obj 372 86 * 0.01;
#X obj 372 106 t b f;
#X obj 322 86 * 0.01;
#X obj 322 106 t b f;
#X obj 273 86 * 0.01;
#X obj 273 106 t b f;
#X obj 223 86 * 0.01;
#X obj 223 106 t b f;
#X obj 173 86 * 0.01;
#X obj 173 106 t b f;
#X obj 123 86 * 0.01;
#X obj 123 106 t b f;
#X obj 73 86 * 0.01;
#X obj 73 106 t b f;
#X obj 23 86 * 0.01;
#X obj 272 184 pack 0 0 0 0 0 0 0 0 0 0 0 0 0 0 0 0;
#X obj 23 46 route r1 g1 b1 a1 r2 g2 b2 a2 r3 g3 b3 a3 r4 g4 b4 a4
;
#X obj 571 86 * 0.01;
#X obj 571 106 t b f;
#X obj 521 86 * 0.01;
#X obj 521 106 t b f;
#X obj 472 86 * 0.01;
#X obj 472 106 t b f;
#X obj 422 86 * 0.01;
#X obj 422 106 t b f;
#X obj 769 86 * 0.01;
#X obj 769 106 t b f;
#X obj 719 86 * 0.01;
#X obj 719 106 t b f;
#X obj 670 86 * 0.01;
#X obj 670 106 t b f;
#X obj 620 86 * 0.01;
#X obj 620 106 t b f;
#X obj 23 26 inlet;
#X obj 272 204 outlet;
#X connect 0 0 1 0;
#X connect 1 0 15 0;
#X connect 1 1 15 7;
#X connect 2 0 3 0;
#X connect 3 0 15 0;
#X connect 3 1 15 6;
#X connect 4 0 5 0;
#X connect 5 0 15 0;
#X connect 5 1 15 5;
#X connect 6 0 7 0;
#X connect 7 0 15 0;
#X connect 7 1 15 4;
#X connect 8 0 9 0;
#X connect 9 0 15 0;
#X connect 9 1 15 3;
#X connect 10 0 11 0;
#X connect 11 0 15 0;
#X connect 11 1 15 2;
#X connect 12 0 13 0;
#X connect 13 0 15 0;
#X connect 13 1 15 1;
#X connect 14 0 15 0;
#X connect 15 0 34 0;
#X connect 16 0 14 0;
#X connect 16 1 12 0;
#X connect 16 2 10 0;
#X connect 16 3 8 0;
#X connect 16 4 6 0;
#X connect 16 5 4 0;
#X connect 16 6 2 0;
#X connect 16 7 0 0;
#X connect 16 8 23 0;
#X connect 16 9 21 0;
#X connect 16 10 19 0;
#X connect 16 11 17 0;
#X connect 16 12 31 0;
#X connect 16 13 29 0;
#X connect 16 14 27 0;
#X connect 16 15 25 0;
#X connect 17 0 18 0;
#X connect 18 0 15 0;
#X connect 18 1 15 11;
#X connect 19 0 20 0;
#X connect 20 0 15 0;
#X connect 20 1 15 10;
#X connect 21 0 22 0;
#X connect 22 0 15 0;
#X connect 22 1 15 9;
#X connect 23 0 24 0;
#X connect 24 0 15 0;
#X connect 24 1 15 8;
#X connect 25 0 26 0;
#X connect 26 0 15 0;
#X connect 26 1 15 15;
#X connect 27 0 28 0;
#X connect 28 0 15 0;
#X connect 28 1 15 14;
#X connect 29 0 30 0;
#X connect 30 0 15 0;
#X connect 30 1 15 13;
#X connect 31 0 32 0;
#X connect 32 0 15 0;
#X connect 32 1 15 12;
#X connect 33 0 16 0;
#X restore 143 391 pd pix_set-list;
#X obj 38 397 route \$1-\$2;
#X obj 28 21 mmm-module \$1 \$2 pix_set 16;
#X obj 188 51 mmm-ctrl \$1 \$2 1 r1 0 100 100 int;
#X obj 188 71 mmm-ctrl \$1 \$2 2 g1 0 100 100 int;
#X obj 188 91 mmm-ctrl \$1 \$2 3 b1 0 100 100 int;
#X obj 188 111 mmm-ctrl \$1 \$2 4 a1 0 100 100 int;
#X obj 188 131 mmm-ctrl \$1 \$2 5 r2 0 100 100 int;
#X obj 188 151 mmm-ctrl \$1 \$2 6 g2 0 100 100 int;
#X obj 188 171 mmm-ctrl \$1 \$2 7 b2 0 100 100 int;
#X obj 188 191 mmm-ctrl \$1 \$2 8 a2 0 100 100 int;
#X obj 188 211 mmm-ctrl \$1 \$2 9 r3 0 100 100 int;
#X obj 188 231 mmm-ctrl \$1 \$2 10 g3 0 100 100 int;
#X obj 188 251 mmm-ctrl \$1 \$2 11 b3 0 100 100 int;
#X obj 188 271 mmm-ctrl \$1 \$2 12 a3 0 100 100 int;
#X obj 188 291 mmm-ctrl \$1 \$2 13 r4 0 100 100 int;
#X obj 188 311 mmm-ctrl \$1 \$2 14 g4 0 100 100 int;
#X obj 188 331 mmm-ctrl \$1 \$2 15 b4 0 100 100 int;
#X obj 188 351 mmm-ctrl \$1 \$2 16 a4 0 100 100 int;
#X msg 143 151 r2 \$1;
#X msg 143 171 g2 \$1;
#X msg 143 191 b2 \$1;
#X msg 143 211 a2 \$1;
#X msg 143 231 r3 \$1;
#X msg 143 251 g3 \$1;
#X msg 143 271 b3 \$1;
#X msg 143 291 a3 \$1;
#X msg 143 311 r4 \$1;
#X msg 143 331 g4 \$1;
#X msg 143 351 b4 \$1;
#X msg 143 371 a4 \$1;
#X msg 333 21 version 0.3.5;
#X connect 0 0 7 0;
#X connect 1 0 8 0;
#X connect 2 0 14 0;
#X connect 4 0 3 0;
#X connect 5 0 0 0;
#X connect 6 0 1 0;
#X connect 9 0 13 0;
#X connect 10 0 13 0;
#X connect 11 0 13 0;
#X connect 12 0 13 0;
#X connect 13 0 4 1;
#X connect 14 0 4 0;
#X connect 16 0 9 0;
#X connect 17 0 10 0;
#X connect 18 0 11 0;
#X connect 19 0 12 0;
#X connect 20 0 32 0;
#X connect 21 0 33 0;
#X connect 22 0 34 0;
#X connect 23 0 35 0;
#X connect 24 0 36 0;
#X connect 25 0 37 0;
#X connect 26 0 38 0;
#X connect 27 0 39 0;
#X connect 28 0 40 0;
#X connect 29 0 41 0;
#X connect 30 0 42 0;
#X connect 31 0 43 0;
#X connect 32 0 13 0;
#X connect 33 0 13 0;
#X connect 34 0 13 0;
#X connect 35 0 13 0;
#X connect 36 0 13 0;
#X connect 37 0 13 0;
#X connect 38 0 13 0;
#X connect 39 0 13 0;
#X connect 40 0 13 0;
#X connect 41 0 13 0;
#X connect 42 0 13 0;
#X connect 43 0 13 0;
