#N canvas 18 31 1056 665 10;
#X obj 448 111 * 0.01;
#X obj 351 111 makesymbol %s;
#X obj 17 436 sel 0 1 2;
#X msg 17 496 draw fill;
#X obj 370 29 sel 0 1 2;
#X msg 280 49 symbol fill;
#X obj 124 491 r gemmm;
#X obj 614 559 r~ 1-nothing;
#X obj 714 559 r~ 1-nothing;
#X obj 714 539 r \$1-\$2R-r;
#X obj 714 579 s~ \$1-\$2R;
#X obj 614 579 s~ \$1-\$2L;
#X obj 614 539 r \$1-\$2L-r;
#X obj 124 511 route \$3;
#X msg 299 69 symbol point;
#X msg 318 89 symbol line;
#X msg 36 476 draw point;
#X msg 55 456 draw line;
#X obj 61 91 mmm-ctrl \$1 \$2 1 draw 0 2 0 ext;
#X obj 488 161 * 0.01;
#X obj 391 161 makesymbol %s;
#X obj 546 191 * 0.01;
#X obj 449 191 makesymbol %s;
#X obj 604 221 * 0.01;
#X obj 507 221 makesymbol %s;
#X obj 124 531 alpha;
#X obj 71 111 mmm-ctrl \$1 \$2 2 alpha 0 100 100 ext;
#X obj 662 251 * 0.01;
#X obj 565 251 makesymbol %s;
#X obj 720 281 * 0.01;
#X obj 623 281 makesymbol %s;
#X obj 778 311 * 0.01;
#X obj 681 311 makesymbol %s;
#X obj 386 551 list append;
#X obj 137 611 primTri 111111;
#X obj 292 551 list append;
#X obj 192 551 list append;
#X obj 846 341 * 0.01;
#X obj 749 341 makesymbol %s;
#X obj 904 371 * 0.01;
#X obj 807 371 makesymbol %s;
#X obj 962 401 * 0.01;
#X obj 865 401 makesymbol %s;
#X obj 132 161 mmm-ctrl \$1 \$2 4 r1 0 100 100 ext;
#X obj 190 191 mmm-ctrl \$1 \$2 5 g1 0 100 100 ext;
#X obj 248 221 mmm-ctrl \$1 \$2 6 b1 0 100 100 ext;
#X obj 306 251 mmm-ctrl \$1 \$2 7 r2 0 100 100 ext;
#X obj 364 281 mmm-ctrl \$1 \$2 8 g2 0 100 100 ext;
#X obj 422 311 mmm-ctrl \$1 \$2 9 b2 0 100 100 ext;
#X obj 480 341 mmm-ctrl \$1 \$2 10 r3 0 100 100 ext;
#X obj 538 371 mmm-ctrl \$1 \$2 11 g3 0 100 100 ext;
#X obj 596 401 mmm-ctrl \$1 \$2 12 b3 0 100 100 ext;
#X obj 354 131 makesymbol %s;
#X obj 451 131 * 0.1;
#X obj 81 151 * 0.1;
#N canvas 0 22 316 164 hotpack 0;
#X obj 25 24 inlet;
#X obj 75 24 inlet;
#X obj 125 24 inlet;
#X obj 75 44 t b f;
#X obj 125 44 t b f;
#X obj 34 97 outlet;
#X obj 34 77 pack f f f f;
#X obj 193 44 inlet;
#X connect 0 0 6 0;
#X connect 1 0 3 0;
#X connect 2 0 4 0;
#X connect 3 0 6 0;
#X connect 3 1 6 1;
#X connect 4 0 6 0;
#X connect 4 1 6 2;
#X connect 6 0 5 0;
#X connect 7 0 6 3;
#X restore 192 491 pd hotpack;
#X obj 192 511 tripleLine;
#N canvas 0 22 308 156 hotpack 0;
#X obj 25 24 inlet;
#X obj 75 24 inlet;
#X obj 125 24 inlet;
#X obj 75 44 t b f;
#X obj 125 44 t b f;
#X obj 34 97 outlet;
#X obj 34 77 pack f f f f;
#X obj 193 44 inlet;
#X connect 0 0 6 0;
#X connect 1 0 3 0;
#X connect 2 0 4 0;
#X connect 3 0 6 0;
#X connect 3 1 6 1;
#X connect 4 0 6 0;
#X connect 4 1 6 2;
#X connect 6 0 5 0;
#X connect 7 0 6 3;
#X restore 292 491 pd hotpack;
#X obj 292 511 tripleLine;
#N canvas 0 22 308 156 hotpack 0;
#X obj 25 24 inlet;
#X obj 75 24 inlet;
#X obj 125 24 inlet;
#X obj 75 44 t b f;
#X obj 125 44 t b f;
#X obj 34 97 outlet;
#X obj 34 77 pack f f f f;
#X obj 193 44 inlet;
#X connect 0 0 6 0;
#X connect 1 0 3 0;
#X connect 2 0 4 0;
#X connect 3 0 6 0;
#X connect 3 1 6 1;
#X connect 4 0 6 0;
#X connect 4 1 6 2;
#X connect 6 0 5 0;
#X connect 7 0 6 3;
#X restore 386 491 pd hotpack;
#X obj 386 511 tripleLine;
#X obj 132 181 * 0.01;
#X obj 190 211 * 0.01;
#X obj 248 241 * 0.01;
#X obj 306 271 * 0.01;
#X obj 364 301 * 0.01;
#X obj 422 331 * 0.01;
#X obj 480 361 * 0.01;
#X obj 538 391 * 0.01;
#X obj 596 421 * 0.01;
#X obj 490 512 * 0.01;
#X obj 97 350 t b f;
#X obj 81 131 mmm-ctrl \$1 \$2 3 glide 0 160 10 ext;
#X obj 17 19 mmm-module \$1 \$2 primTri 12;
#X obj 263 367 mmm-ticks2ms;
#X msg 215 19 version 0.3.6;
#X connect 0 0 1 0;
#X connect 1 0 26 1;
#X connect 2 0 3 0;
#X connect 2 1 16 0;
#X connect 2 2 17 0;
#X connect 3 0 34 0;
#X connect 4 0 5 0;
#X connect 4 1 14 0;
#X connect 4 2 15 0;
#X connect 5 0 18 1;
#X connect 6 0 13 0;
#X connect 7 0 11 0;
#X connect 8 0 10 0;
#X connect 9 0 8 0;
#X connect 12 0 7 0;
#X connect 13 0 25 0;
#X connect 14 0 18 1;
#X connect 15 0 18 1;
#X connect 16 0 34 0;
#X connect 17 0 34 0;
#X connect 18 0 2 0;
#X connect 18 2 4 0;
#X connect 19 0 20 0;
#X connect 20 0 43 1;
#X connect 21 0 22 0;
#X connect 22 0 44 1;
#X connect 23 0 24 0;
#X connect 24 0 45 1;
#X connect 25 0 34 0;
#X connect 26 0 71 0;
#X connect 26 2 0 0;
#X connect 27 0 28 0;
#X connect 28 0 46 1;
#X connect 29 0 30 0;
#X connect 30 0 47 1;
#X connect 31 0 32 0;
#X connect 32 0 48 1;
#X connect 33 0 34 6;
#X connect 35 0 34 5;
#X connect 36 0 34 4;
#X connect 37 0 38 0;
#X connect 38 0 49 1;
#X connect 39 0 40 0;
#X connect 40 0 50 1;
#X connect 41 0 42 0;
#X connect 42 0 51 1;
#X connect 43 0 61 0;
#X connect 43 2 19 0;
#X connect 44 0 62 0;
#X connect 44 2 21 0;
#X connect 45 0 63 0;
#X connect 45 2 23 0;
#X connect 46 0 64 0;
#X connect 46 2 27 0;
#X connect 47 0 65 0;
#X connect 47 2 29 0;
#X connect 48 0 66 0;
#X connect 48 2 31 0;
#X connect 49 0 67 0;
#X connect 49 2 37 0;
#X connect 50 0 68 0;
#X connect 50 2 39 0;
#X connect 51 0 69 0;
#X connect 51 2 41 0;
#X connect 52 0 72 1;
#X connect 53 0 52 0;
#X connect 54 0 74 0;
#X connect 55 0 56 0;
#X connect 56 0 36 0;
#X connect 57 0 58 0;
#X connect 58 0 35 0;
#X connect 59 0 60 0;
#X connect 60 0 33 0;
#X connect 61 0 55 0;
#X connect 62 0 55 1;
#X connect 63 0 55 2;
#X connect 64 0 57 0;
#X connect 65 0 57 1;
#X connect 66 0 57 2;
#X connect 67 0 59 0;
#X connect 68 0 59 1;
#X connect 69 0 59 2;
#X connect 70 0 33 1;
#X connect 70 0 35 1;
#X connect 70 0 36 1;
#X connect 71 0 59 0;
#X connect 71 0 57 0;
#X connect 71 0 55 0;
#X connect 71 1 70 0;
#X connect 72 0 54 0;
#X connect 72 2 53 0;
#X connect 74 0 59 3;
#X connect 74 0 57 3;
#X connect 74 0 55 3;
