#N canvas 53 437 592 347 10;
#X obj 371 41 r~ 1-nothing;
#X obj 471 41 r~ 1-nothing;
#X obj 176 174 savepanel;
#X obj 176 154 sel 1;
#X obj 421 298 pix_record;
#X msg 421 278 colorspace RGBA;
#X obj 371 21 r \$1-\$2L-r;
#X obj 371 61 s~ \$1-\$2L;
#X obj 471 21 r \$1-\$2R-r;
#X obj 471 61 s~ \$1-\$2R;
#X obj 28 21 mmm-module \$1 \$2 pix_record 4;
#X msg 231 21 version 0.3.0;
#X msg 53 252 codec mjpeg;
#X msg 62 273 codec jpg;
#X obj 27 306 pix_record;
#X obj 33 79 r gemmm;
#X obj 33 99 route \$1-\$2;
#X obj 59 173 tgl 15 0 empty empty empty 17 7 0 10 -262144 -1 -1 0
1;
#X msg 56 205 record \$1;
#X obj 176 134 mmm-ctrl \$1 \$2 1 file 0 1 0 int;
#X obj 236 224 mmm-ctrl \$1 \$2 3 quality 0 100 100 int;
#X msg 175 199 file \$1;
#X msg 136 302 codeclist;
#X msg 284 262 dialog;
#X msg 133 145 bang;
#X msg 175 249 auto 1;
#X floatatom 95 325 5 0 0 0 - - -;
#X connect 0 0 7 0;
#X connect 1 0 9 0;
#X connect 2 0 21 0;
#X connect 3 0 2 0;
#X connect 5 0 4 0;
#X connect 6 0 0 0;
#X connect 8 0 1 0;
#X connect 12 0 14 0;
#X connect 13 0 14 0;
#X connect 14 1 26 0;
#X connect 15 0 16 0;
#X connect 16 0 14 0;
#X connect 17 0 18 0;
#X connect 18 0 14 0;
#X connect 19 0 3 0;
#X connect 21 0 14 0;
#X connect 22 0 14 0;
#X connect 23 0 14 0;
#X connect 24 0 2 0;
#X connect 25 0 14 0;
