#N canvas 8 22 381 457 10;
#X obj 137 377 r~ 1-nothing;
#X obj 237 377 r~ 1-nothing;
#X obj 137 357 r \$1-\$2L-r;
#X obj 237 357 r \$1-\$2R-r;
#X obj 137 397 s~ \$1-\$2L;
#X obj 237 397 s~ \$1-\$2R;
#N canvas 251 289 357 321 qseq.list 0;
#X obj 26 25 loadbang;
#X obj 26 55 s qseq.listbang;
#X obj 26 89 r qseq.getlist;
#X obj 26 199 s qseq.list;
#X obj 26 119 symbol mMm-\$1-\$2;
#X connect 0 0 1 0;
#X connect 2 0 4 0;
#X connect 4 0 3 0;
#X restore 17 47 pd qseq.list;
#X msg 220 17 version 0.3.0;
#X obj 17 17 mmm-module \$1 \$2 qseq2 0;
#X obj 47 197 + 1;
#X obj 17 197 f 0;
#X obj 17 177 until;
#X obj 136 237 + 1;
#X obj 136 217 f \$2;
#X obj 136 197 loadbang;
#X obj 17 277 +;
#X obj 17 317 makefilename \$1-%d;
#X obj 127 167 t a;
#X obj 87 197 mod 1;
#X obj 17 157 f 1;
#X obj 17 297 moses 9;
#X obj 31 407 s;
#X obj 17 137 t b a;
#X obj 17 357 f;
#X obj 17 337 t b a;
#X obj 127 147 mmm-ctrl \$1 \$2 2 to+ 1 7 1 int;
#X msg 17 377 level \$1;
#X obj 33 97 mmm-ctrl \$1 \$2 1 level+ 0 100 50 int;
#X obj 17 117 f;
#X obj 17 77 r mMm-\$1-\$2;
#X obj 88 365 print;
#X obj 121 276 t a;
#X connect 0 0 4 0;
#X connect 1 0 5 0;
#X connect 2 0 0 0;
#X connect 3 0 1 0;
#X connect 9 0 18 0;
#X connect 10 0 9 0;
#X connect 10 0 15 0;
#X connect 11 0 10 0;
#X connect 12 0 15 1;
#X connect 13 0 12 0;
#X connect 14 0 13 0;
#X connect 15 0 20 0;
#X connect 16 0 24 0;
#X connect 17 0 18 1;
#X connect 17 0 19 1;
#X connect 18 0 10 1;
#X connect 19 0 11 0;
#X connect 20 0 16 0;
#X connect 22 0 19 0;
#X connect 22 1 31 0;
#X connect 23 0 26 0;
#X connect 24 0 23 0;
#X connect 24 1 21 1;
#X connect 25 0 17 0;
#X connect 26 0 21 0;
#X connect 27 0 28 1;
#X connect 28 0 22 0;
#X connect 29 0 28 0;
#X connect 31 0 23 1;
