#N canvas 62 254 530 234 10;
#X obj 16 41 r~ 1-nothing;
#X obj 119 41 r~ 1-nothing;
#X obj 16 21 r \$1-\$2L-r;
#X obj 119 21 r \$1-\$2R-r;
#X obj 119 195 s~ \$1-\$2R;
#X obj 16 195 s~ \$1-\$2L;
#X obj 467 111 mtof;
#X obj 179 131 mtof;
#N canvas 164 24 894 579 rev2~ 0;
#X obj 162 395 +~;
#X obj 185 305 *~;
#X obj 487 310 *~;
#X obj 286 310 *~;
#X obj 388 310 *~;
#X obj 444 444 -~;
#X obj 365 444 -~;
#X obj 240 435 +~;
#X obj 162 432 +~;
#X obj 163 342 +~;
#X obj 263 338 +~;
#X obj 465 399 -~;
#X obj 388 397 +~;
#X obj 240 398 -~;
#X obj 610 327 line~;
#X obj 510 272 line~;
#X obj 17 19 delread~ \$0-del1 58.6435;
#X obj 95 41 delread~ \$0-del2 69.4325;
#X obj 177 63 delread~ \$0-del3 74.5234;
#X obj 259 87 delread~ \$0-del4 86.1244;
#X obj 531 398 *~;
#X obj 600 399 *~;
#X obj 162 524 delwrite~ \$0-del1 58.6435;
#X obj 240 504 delwrite~ \$0-del2 69.4325;
#X obj 365 484 delwrite~ \$0-del3 74.5234;
#X obj 444 464 delwrite~ \$0-del4 86.1244;
#X obj 610 267 dbtorms;
#X obj 610 307 pack 0 30;
#X obj 491 103 pack 0 50;
#X obj 10 288 inlet~;
#X obj 531 423 outlet~;
#X obj 600 423 outlet~;
#X obj 491 83 / 200;
#X obj 491 63 clip 0 100;
#X obj 53 134 lop~;
#X obj 668 398 *~;
#X obj 736 399 *~;
#X obj 668 423 outlet~;
#X obj 736 423 outlet~;
#X obj 727 47 clip 0 100;
#N canvas 345 88 363 605 early-reflect 0;
#X obj 119 477 delread~ \$0-ref6 13.645;
#X obj 119 453 delwrite~ \$0-ref6 13.645;
#X obj 106 400 delread~ \$0-ref5 16.364;
#X obj 106 376 delwrite~ \$0-ref5 16.364;
#X obj 102 324 delread~ \$0-ref4 19.392;
#X obj 102 300 delwrite~ \$0-ref4 19.392;
#X obj 106 247 delread~ \$0-ref3 25.796;
#X obj 106 223 delwrite~ \$0-ref3 25.796;
#X obj 107 169 delread~ \$0-ref2 43.5337;
#X obj 107 145 delwrite~ \$0-ref2 43.5337;
#X obj 110 90 delread~ \$0-ref1 75.2546;
#X obj 84 119 -~;
#X obj 49 119 +~;
#X obj 50 195 +~;
#X obj 85 196 -~;
#X obj 84 275 -~;
#X obj 49 274 +~;
#X obj 82 349 -~;
#X obj 48 350 +~;
#X obj 83 428 -~;
#X obj 49 428 +~;
#X obj 65 7 inlet~;
#X obj 110 66 delwrite~ \$0-ref1 75.2546;
#X obj 49 508 outlet~;
#X obj 119 507 outlet~;
#X connect 0 0 24 0;
#X connect 2 0 20 1;
#X connect 2 0 19 1;
#X connect 4 0 18 1;
#X connect 4 0 17 1;
#X connect 6 0 16 1;
#X connect 6 0 15 1;
#X connect 8 0 13 1;
#X connect 8 0 14 1;
#X connect 10 0 12 1;
#X connect 10 0 11 1;
#X connect 11 0 9 0;
#X connect 12 0 14 0;
#X connect 12 0 13 0;
#X connect 13 0 16 0;
#X connect 13 0 15 0;
#X connect 14 0 7 0;
#X connect 15 0 5 0;
#X connect 16 0 18 0;
#X connect 16 0 17 0;
#X connect 17 0 3 0;
#X connect 18 0 20 0;
#X connect 18 0 19 0;
#X connect 19 0 1 0;
#X connect 20 0 23 0;
#X connect 21 0 12 0;
#X connect 21 0 11 0;
#X connect 21 0 22 0;
#X restore 10 314 pd early-reflect;
#X obj 609 114 f;
#X obj 727 67 f;
#X obj 727 87 * 0.01;
#X obj 727 107 pack 0 50;
#X obj 727 127 line~;
#X obj 30 167 -~;
#X obj 29 198 *~;
#X obj 17 229 +~;
#X obj 133 138 lop~;
#X obj 107 172 -~;
#X obj 106 207 *~;
#X obj 96 231 +~;
#X obj 215 143 lop~;
#X obj 189 171 -~;
#X obj 188 212 *~;
#X obj 177 237 +~;
#X obj 309 147 lop~;
#X obj 282 172 -~;
#X obj 282 216 *~;
#X obj 259 240 +~;
#X obj 610 287 * 0.125;
#X obj 403 17 inlet level;
#X obj 491 17 inlet liveness;
#X obj 609 17 inlet crossover;
#X obj 727 17 inlet hf-damping;
#X connect 0 0 8 0;
#X connect 0 0 6 0;
#X connect 1 0 9 1;
#X connect 2 0 11 1;
#X connect 2 0 12 1;
#X connect 2 0 36 0;
#X connect 3 0 10 1;
#X connect 4 0 12 0;
#X connect 4 0 11 0;
#X connect 4 0 35 0;
#X connect 5 0 25 0;
#X connect 6 0 24 0;
#X connect 7 0 23 0;
#X connect 8 0 22 0;
#X connect 9 0 13 0;
#X connect 9 0 0 0;
#X connect 9 0 20 0;
#X connect 10 0 0 1;
#X connect 10 0 13 1;
#X connect 10 0 21 0;
#X connect 11 0 7 1;
#X connect 11 0 5 1;
#X connect 12 0 8 1;
#X connect 12 0 6 1;
#X connect 13 0 7 0;
#X connect 13 0 5 0;
#X connect 14 0 20 1;
#X connect 14 0 21 1;
#X connect 14 0 35 1;
#X connect 14 0 36 1;
#X connect 15 0 3 1;
#X connect 15 0 1 1;
#X connect 15 0 4 1;
#X connect 15 0 2 1;
#X connect 16 0 34 0;
#X connect 16 0 46 1;
#X connect 16 0 48 0;
#X connect 17 0 49 0;
#X connect 17 0 50 1;
#X connect 17 0 52 0;
#X connect 18 0 56 0;
#X connect 18 0 53 0;
#X connect 18 0 54 1;
#X connect 19 0 60 0;
#X connect 19 0 58 1;
#X connect 19 0 57 0;
#X connect 20 0 30 0;
#X connect 21 0 31 0;
#X connect 26 0 61 0;
#X connect 27 0 14 0;
#X connect 28 0 15 0;
#X connect 29 0 40 0;
#X connect 32 0 28 0;
#X connect 33 0 32 0;
#X connect 34 0 46 0;
#X connect 35 0 37 0;
#X connect 36 0 38 0;
#X connect 39 0 42 0;
#X connect 40 0 9 0;
#X connect 40 1 10 0;
#X connect 41 0 34 1;
#X connect 41 0 49 1;
#X connect 41 0 53 1;
#X connect 41 0 57 1;
#X connect 42 0 43 0;
#X connect 43 0 44 0;
#X connect 44 0 45 0;
#X connect 45 0 47 1;
#X connect 45 0 51 1;
#X connect 45 0 55 1;
#X connect 45 0 59 1;
#X connect 46 0 47 0;
#X connect 47 0 48 1;
#X connect 48 0 1 0;
#X connect 49 0 50 0;
#X connect 50 0 51 0;
#X connect 51 0 52 1;
#X connect 52 0 3 0;
#X connect 53 0 54 0;
#X connect 54 0 55 0;
#X connect 55 0 56 1;
#X connect 56 0 4 0;
#X connect 57 0 58 0;
#X connect 58 0 59 0;
#X connect 59 0 60 1;
#X connect 60 0 2 0;
#X connect 61 0 27 0;
#X connect 62 0 26 0;
#X connect 63 0 33 0;
#X connect 64 0 41 0;
#X connect 65 0 39 0;
#X restore 141 161 pd rev2~;
#X obj 327 21 mmm-module \$1 \$2 reverb2 4;
#X obj 153 71 mmm-ctrl \$1 \$2 1 level 0 100 96 int;
#X obj 166 91 mmm-ctrl \$1 \$2 2 liveness 0 100 85 int;
#X obj 179 111 mmm-ctrl \$1 \$2 3 crossover 0 127 102 ext;
#X obj 218 131 mmm-ctrl \$1 \$2 4 hf-damping 0 100 50 int;
#X msg 215 21 version 0.3.2;
#X connect 0 0 5 0;
#X connect 0 0 8 0;
#X connect 1 0 4 0;
#X connect 1 0 8 0;
#X connect 2 0 0 0;
#X connect 3 0 1 0;
#X connect 6 0 12 1;
#X connect 7 0 8 3;
#X connect 8 0 5 0;
#X connect 8 1 4 0;
#X connect 10 0 8 1;
#X connect 11 0 8 2;
#X connect 12 0 7 0;
#X connect 12 2 6 0;
#X connect 13 0 8 4;
