#N canvas 17 22 629 315 10;
#X obj 16 68 r~ 1-nothing;
#X obj 119 68 r~ 1-nothing;
#X obj 16 48 r \$1-\$2L-r;
#X obj 119 48 r \$1-\$2R-r;
#X obj 119 262 s~ \$1-\$2R;
#X obj 16 262 s~ \$1-\$2L;
#N canvas 391 22 853 670 reverberator 0;
#X obj 13 19 inlet~;
#X obj 277 215 +~;
#X obj 319 215 +~;
#X obj 67 276 outlet~;
#X obj 137 276 outlet~;
#X obj 238 334 +~;
#X obj 347 335 +~;
#X obj 280 334 -~;
#X obj 387 334 -~;
#X obj 237 390 +~;
#X obj 281 391 +~;
#X obj 325 392 -~;
#X obj 364 392 -~;
#X obj 325 474 *~ 0;
#X obj 281 473 *~ 0;
#X obj 237 472 *~ 0;
#X obj 364 475 *~ 0;
#X obj 632 405 / 200;
#X obj 632 365 inlet feedback;
#X obj 632 385 clip 0 100;
#X obj 13 49 4m-reverb-echo \$3-echo-del1 5.43216;
#X obj 13 69 4m-reverb-echo \$3-echo-del2 8.45346;
#X obj 13 89 4m-reverb-echo \$3-echo-del3 13.4367;
#X obj 13 109 4m-reverb-echo \$3-echo-del4 21.5463;
#X obj 13 129 4m-reverb-echo \$3-echo-del5 34.3876;
#X obj 13 149 4m-reverb-echo \$3-echo-del6 55.5437;
#X obj 298 154 delread~ \$3-loop-del1 60;
#X obj 340 179 delread~ \$3-loop-del2 71.9345;
#X obj 386 208 delread~ \$3-loop-del3 86.7545;
#X obj 408 233 delread~ \$3-loop-del4 95.945;
#X obj 364 515 delwrite~ \$3-loop-del4 95.945;
#X obj 325 538 delwrite~ \$3-loop-del3 86.7545;
#X obj 281 561 delwrite~ \$3-loop-del2 71.9345;
#X obj 237 583 delwrite~ \$3-loop-del1 60;
#X connect 0 0 20 0;
#X connect 1 0 5 0;
#X connect 1 0 7 0;
#X connect 2 0 5 1;
#X connect 2 0 7 1;
#X connect 5 0 9 0;
#X connect 5 0 11 0;
#X connect 6 0 11 1;
#X connect 6 0 9 1;
#X connect 7 0 10 0;
#X connect 7 0 12 0;
#X connect 8 0 10 1;
#X connect 8 0 12 1;
#X connect 9 0 15 0;
#X connect 10 0 14 0;
#X connect 11 0 13 0;
#X connect 12 0 16 0;
#X connect 13 0 31 0;
#X connect 14 0 32 0;
#X connect 15 0 33 0;
#X connect 15 0 3 0;
#X connect 16 0 30 0;
#X connect 16 0 4 0;
#X connect 17 0 16 1;
#X connect 17 0 15 1;
#X connect 17 0 14 1;
#X connect 17 0 13 1;
#X connect 18 0 19 0;
#X connect 19 0 17 0;
#X connect 20 0 21 0;
#X connect 20 1 21 1;
#X connect 21 0 22 0;
#X connect 21 1 22 1;
#X connect 22 0 23 0;
#X connect 22 1 23 1;
#X connect 23 0 24 0;
#X connect 23 1 24 1;
#X connect 24 0 25 0;
#X connect 24 1 25 1;
#X connect 25 0 1 0;
#X connect 25 1 2 0;
#X connect 26 0 1 1;
#X connect 27 0 2 1;
#X connect 28 0 6 0;
#X connect 28 0 8 0;
#X connect 29 0 6 1;
#X connect 29 0 8 1;
#X restore 182 218 pd reverberator;
#X obj 182 198 *~ 0.251;
#X obj 16 173 *~;
#X obj 119 173 *~;
#X obj 182 178 *~;
#X obj 221 98 cos;
#X obj 270 98 sin;
#X obj 221 78 * 0.015708;
#X obj 270 138 line~;
#X obj 221 138 line~;
#X msg 221 118 \$1 30;
#X msg 270 118 \$1 30;
#X obj 16 18 mmm-module \$1 \$2 reverberator 2;
#X obj 221 48 mmm-ctrl \$1 \$2 1 dry-wet 0 100 50 int;
#X obj 282 188 mmm-ctrl \$1 \$2 2 feedback 0 100 30 int;
#X msg 286 18 version 0.3.2;
#X connect 0 0 8 0;
#X connect 0 0 10 0;
#X connect 1 0 9 0;
#X connect 1 0 10 0;
#X connect 2 0 0 0;
#X connect 3 0 1 0;
#X connect 6 0 5 0;
#X connect 6 1 4 0;
#X connect 7 0 6 0;
#X connect 8 0 5 0;
#X connect 9 0 4 0;
#X connect 10 0 7 0;
#X connect 11 0 16 0;
#X connect 12 0 17 0;
#X connect 13 0 12 0;
#X connect 13 0 11 0;
#X connect 14 0 10 1;
#X connect 15 0 9 1;
#X connect 15 0 8 1;
#X connect 16 0 15 0;
#X connect 17 0 14 0;
#X connect 19 0 13 0;
#X connect 20 0 6 1;
