#N canvas 31 22 564 608 10;
#X obj 376 101 makesymbol %s;
#X obj 473 101 * 0.1;
#X obj 28 531 r~ 1-nothing;
#X obj 121 531 r~ 1-nothing;
#X obj 60 181 line~;
#X obj 60 201 mtof~;
#X obj 131 121 * 0.1;
#X obj 171 311 * 0.01;
#N canvas 405 73 208 345 pulse-train 0;
#X obj 103 134 line~;
#X obj 29 214 cos~;
#X obj 103 114 pack 0 50;
#X obj 29 144 -~ 0.5;
#X obj 29 174 *~;
#X obj 103 54 / 10;
#X obj 103 74 moses 0;
#X msg 103 94 0;
#X obj 29 194 clip~ -0.5 0.5;
#X obj 103 154 +~ 1;
#X obj 29 234 +~ 1;
#X obj 103 24 inlet;
#X obj 29 284 outlet~;
#X obj 29 254 *~ 0.5;
#X obj 29 124 phasor~;
#X obj 29 24 inlet~;
#X connect 0 0 9 0;
#X connect 1 0 10 0;
#X connect 2 0 0 0;
#X connect 3 0 4 0;
#X connect 4 0 8 0;
#X connect 5 0 6 0;
#X connect 6 0 7 0;
#X connect 6 1 2 0;
#X connect 7 0 2 0;
#X connect 8 0 1 0;
#X connect 9 0 4 1;
#X connect 10 0 13 0;
#X connect 11 0 5 0;
#X connect 13 0 12 0;
#X connect 14 0 3 0;
#X connect 15 0 14 0;
#X restore 44 231 pd pulse-train;
#X obj 44 321 *~;
#X obj 60 301 osc~;
#X obj 60 281 *~ 1;
#X obj 28 511 r \$1-\$2L-r;
#X obj 121 511 r \$1-\$2R-r;
#X obj 121 551 s~ \$1-\$2R;
#X obj 28 551 s~ \$1-\$2L;
#X obj 60 121 +;
#X obj 74 91 t b f;
#X obj 60 141 max 0;
#X obj 60 161 pack f f;
#X obj 28 21 mmm-module \$1 \$2 rmpt 7;
#X obj 74 71 mmm-ctrl \$1 \$2 4 transpose -24 24 0 int;
#X obj 131 101 mmm-ctrl \$1 \$2 5 glide 0 160 1 ext;
#X obj 136 211 mmm-ctrl \$1 \$2 6 bandwidth 0 99 1 int;
#X obj 83 261 mmm-ctrl \$1 \$2 7 modulation 0 99 1 int;
#X obj 467 321 * 2;
#X obj 44 491 *~;
#X obj 126 401 cos;
#X obj 215 401 sin;
#X obj 230 361 * 0.015708;
#X msg 126 441 \$1 10;
#X msg 215 441 \$1 10;
#X obj 230 341 + 50;
#X obj 215 461 line~;
#X obj 126 461 line~;
#X obj 126 421 *;
#X obj 215 421 *;
#X obj 171 418 t b f;
#X obj 114 491 *~;
#X obj 171 291 mmm-ctrl \$1 \$2 2 level 0 100 30 int;
#X obj 230 321 mmm-ctrl \$1 \$2 3 pan -50 50 0 ext;
#X obj 131 141 mmm-ticks2ms;
#X obj 60 51 mmm-ctrl \$1 \$2 1 notes 0 127 -1 ext;
#X msg 255 21 version 0.3.7;
#X obj 315 51 mmm-notename;
#X connect 0 0 22 1;
#X connect 1 0 0 0;
#X connect 2 0 15 0;
#X connect 3 0 14 0;
#X connect 4 0 5 0;
#X connect 5 0 8 0;
#X connect 5 0 11 0;
#X connect 6 0 41 0;
#X connect 7 0 37 0;
#X connect 8 0 9 0;
#X connect 9 0 26 0;
#X connect 9 0 38 0;
#X connect 10 0 9 1;
#X connect 11 0 10 0;
#X connect 12 0 2 0;
#X connect 13 0 3 0;
#X connect 16 0 18 0;
#X connect 17 0 16 0;
#X connect 17 1 16 1;
#X connect 18 0 19 0;
#X connect 19 0 4 0;
#X connect 21 0 17 0;
#X connect 22 0 6 0;
#X connect 22 2 1 0;
#X connect 23 0 8 1;
#X connect 24 0 11 1;
#X connect 25 0 40 1;
#X connect 26 0 15 0;
#X connect 27 0 35 0;
#X connect 28 0 36 0;
#X connect 29 0 28 0;
#X connect 29 0 27 0;
#X connect 30 0 34 0;
#X connect 31 0 33 0;
#X connect 32 0 29 0;
#X connect 33 0 38 1;
#X connect 34 0 26 1;
#X connect 35 0 30 0;
#X connect 36 0 31 0;
#X connect 37 0 35 0;
#X connect 37 0 36 0;
#X connect 37 1 35 1;
#X connect 37 1 36 1;
#X connect 38 0 14 0;
#X connect 39 0 7 0;
#X connect 40 0 32 0;
#X connect 40 2 25 0;
#X connect 41 0 19 1;
#X connect 42 0 16 0;
#X connect 42 2 44 0;
#X connect 44 0 42 1;
