#N canvas 216 22 467 351 10;
#X obj 28 241 r~ 1-nothing;
#X obj 208 241 r~ 1-nothing;
#X obj 208 221 r \$1-\$2R-r;
#X obj 28 221 r \$1-\$2L-r;
#X obj 28 301 s~ \$1-\$2L;
#X obj 208 301 s~ \$1-\$2R;
#N canvas 217 350 463 261 read 0;
#X obj 150 185 outlet~;
#X obj 236 185 outlet~;
#X obj 144 79 * 0.001;
#N canvas 262 93 848 692 rockafella 1;
#X obj 180 269 samphold~;
#X obj 180 289 *~;
#X obj 260 269 -~ 0.5;
#X obj 260 289 *~ 0.5;
#X obj 260 369 cos~;
#X obj 520 119 phasor~;
#X obj 520 249 wrap~;
#X obj 232 133 phasor~;
#X obj 180 349 *~ 44100;
#X obj 180 369 +~ 1;
#X obj 440 269 samphold~;
#X obj 440 289 *~;
#X obj 520 269 -~ 0.5;
#X obj 520 289 *~ 0.5;
#X obj 520 369 cos~;
#X obj 440 349 *~ 44100;
#X obj 440 369 +~ 1;
#X obj 316 83 t b f;
#X obj 232 153 *~;
#X obj 232 113 /;
#X obj 238 247 +~ 0;
#X obj 520 229 +~ 0.5;
#N canvas 0 22 223 263 expr-(pow(2_f1/12)-f3)/f2 0;
#X obj 18 19 inlet;
#X obj 78 19 inlet;
#X obj 138 19 inlet;
#X obj 28 139 -;
#X obj 38 169 /;
#X obj 18 69 t b a;
#X obj 18 109 pow;
#X obj 18 89 f 2;
#X obj 38 199 outlet;
#X obj 138 49 t b a;
#X obj 78 139 t b a;
#X obj 18 49 / 12;
#X connect 0 0 11 0;
#X connect 1 0 10 0;
#X connect 2 0 9 0;
#X connect 3 0 4 0;
#X connect 4 0 8 0;
#X connect 5 0 7 0;
#X connect 5 1 6 1;
#X connect 6 0 3 0;
#X connect 7 0 6 0;
#X connect 9 0 3 0;
#X connect 9 1 3 1;
#X connect 10 0 4 0;
#X connect 10 1 4 1;
#X connect 11 0 5 0;
#X restore 547 90 pd expr-(pow(2_f1/12)-f3)/f2;
#X obj 440 519 *~;
#X obj 565 519 *~;
#X obj 440 499 tabread4~ nothing;
#X obj 565 499 tabread4~ nothing;
#X msg 431 449 set \$1-R;
#X obj 440 549 hip~ 20;
#X obj 180 519 *~;
#X obj 305 519 *~;
#X obj 180 499 tabread4~ nothing;
#X obj 305 499 tabread4~ nothing;
#X obj 180 549 hip~ 20;
#X msg 171 449 set \$1-L;
#X obj 180 599 outlet~;
#X obj 440 599 outlet~;
#X obj 120 23 inlet tablename;
#X obj 232 23 inlet speed;
#X obj 316 23 inlet looplength;
#X obj 547 23 inlet transpose;
#X obj 659 23 inlet chunk-size;
#X obj 232 53 * 0.01;
#X obj 120 379 symbol;
#X obj 120 399 sel none;
#X msg 121 469 set nothing;
#N canvas 0 22 209 225 get 0;
#X obj 21 121 r mmm-table-size;
#X obj 21 91 s mmm-table-sizereq;
#N canvas 0 22 292 262 sroute 0;
#X obj 148 99 inlet;
#X obj 90 54 list split 1;
#X obj 90 31 inlet;
#X obj 90 188 outlet;
#X obj 90 154 list;
#X obj 90 124 sel empty;
#X connect 0 0 5 1;
#X connect 1 0 5 0;
#X connect 1 1 4 1;
#X connect 2 0 1 0;
#X connect 4 0 3 0;
#X connect 5 0 4 0;
#X restore 21 141 pd sroute;
#X obj 21 51 t a a;
#X obj 21 71 list trim;
#X obj 21 21 inlet;
#X obj 21 171 outlet;
#X connect 0 0 2 0;
#X connect 2 0 6 0;
#X connect 3 0 4 0;
#X connect 3 1 2 1;
#X connect 4 0 1 0;
#X connect 5 0 3 0;
#X restore 187 429 pd get table size;
#X obj 180 329 wrap~;
#X obj 180 309 *~ 1;
#X obj 440 329 wrap~;
#X obj 440 309 *~ 1;
#X obj 337 270 / 44100;
#X obj 337 289 pow -1;
#X obj 337 250 - 3;
#X obj 402 112 / 44.1;
#X obj 395 92 * 0.01;
#X obj 395 152 * 1000;
#X obj 402 132 t b a;
#X obj 25 23 inlet level;
#X obj 25 543 vline~;
#X obj 25 163 pack f f;
#X obj 160 575 *~;
#X obj 426 575 *~;
#X msg 67 120 0;
#X msg 25 183 \$1 0.15 \, 0 5 \$2;
#X obj 158 182 - 5;
#X connect 0 0 1 0;
#X connect 1 0 48 0;
#X connect 2 0 3 0;
#X connect 3 0 4 0;
#X connect 4 0 23 1;
#X connect 4 0 29 1;
#X connect 5 0 20 0;
#X connect 5 0 21 0;
#X connect 6 0 12 0;
#X connect 6 0 10 1;
#X connect 6 0 11 1;
#X connect 7 0 18 0;
#X connect 8 0 9 0;
#X connect 9 0 25 0;
#X connect 9 0 31 0;
#X connect 10 0 11 0;
#X connect 11 0 50 0;
#X connect 12 0 13 0;
#X connect 13 0 14 0;
#X connect 14 0 24 1;
#X connect 14 0 30 1;
#X connect 15 0 16 0;
#X connect 16 0 26 0;
#X connect 16 0 32 0;
#X connect 17 0 19 0;
#X connect 17 1 19 1;
#X connect 18 0 50 0;
#X connect 18 0 48 0;
#X connect 19 0 7 0;
#X connect 20 0 0 1;
#X connect 20 0 1 1;
#X connect 20 0 2 0;
#X connect 21 0 6 0;
#X connect 22 0 5 0;
#X connect 23 0 28 0;
#X connect 24 0 28 0;
#X connect 25 0 23 0;
#X connect 26 0 24 0;
#X connect 27 0 25 0;
#X connect 27 0 26 0;
#X connect 28 0 62 0;
#X connect 29 0 33 0;
#X connect 30 0 33 0;
#X connect 31 0 29 0;
#X connect 32 0 30 0;
#X connect 33 0 61 0;
#X connect 34 0 31 0;
#X connect 34 0 32 0;
#X connect 37 0 43 0;
#X connect 38 0 42 0;
#X connect 39 0 55 0;
#X connect 40 0 22 0;
#X connect 41 0 22 1;
#X connect 41 0 10 0;
#X connect 41 0 0 0;
#X connect 42 0 19 0;
#X connect 42 0 22 2;
#X connect 43 0 44 0;
#X connect 44 0 45 0;
#X connect 44 1 34 0;
#X connect 44 1 27 0;
#X connect 44 1 46 0;
#X connect 45 0 31 0;
#X connect 45 0 32 0;
#X connect 45 0 25 0;
#X connect 45 0 26 0;
#X connect 46 0 53 0;
#X connect 47 0 8 0;
#X connect 48 0 47 0;
#X connect 49 0 15 0;
#X connect 50 0 49 0;
#X connect 51 0 52 0;
#X connect 52 0 48 1;
#X connect 52 0 50 1;
#X connect 53 0 15 1;
#X connect 53 0 8 1;
#X connect 53 0 51 0;
#X connect 53 0 54 0;
#X connect 54 0 57 0;
#X connect 55 0 56 0;
#X connect 56 0 17 0;
#X connect 56 0 18 1;
#X connect 56 0 65 0;
#X connect 57 0 56 0;
#X connect 57 1 56 1;
#X connect 58 0 60 0;
#X connect 58 0 63 0;
#X connect 59 0 61 1;
#X connect 59 0 62 1;
#X connect 60 0 64 0;
#X connect 61 0 35 0;
#X connect 62 0 36 0;
#X connect 63 0 7 1;
#X connect 63 0 5 1;
#X connect 64 0 59 0;
#X connect 65 0 60 1;
#X restore 150 155 pd rockafella;
#X obj 18 49 route level source chunksize speed transpose looplength
;
#X obj 18 79 * 0.01;
#X obj 18 19 inlet;
#X connect 2 0 3 5;
#X connect 3 0 0 0;
#X connect 3 1 1 0;
#X connect 4 0 5 0;
#X connect 4 1 3 1;
#X connect 4 2 2 0;
#X connect 4 3 3 2;
#X connect 4 4 3 4;
#X connect 4 5 3 3;
#X connect 5 0 3 0;
#X connect 6 0 4 0;
#X restore 93 271 pd read;
#X obj 128 91 mmm-ctrl \$1 \$2 3 chunksize 1 100 25 int;
#X obj 28 21 mmm-module \$1 \$2 rockafella 7;
#X obj 128 111 mmm-ctrl \$1 \$2 4 looplength 1 100 100 int;
#X obj 128 151 mmm-ctrl \$1 \$2 6 transpose -36 36 0 int;
#X obj 128 131 mmm-ctrl \$1 \$2 5 speed -200 200 100 int;
#X msg 28 71 level \$1;
#X msg 28 171 transpose \$1;
#X msg 28 151 speed \$1;
#X msg 28 131 looplength \$1;
#X msg 28 111 chunksize \$1;
#X obj 128 51 mmm-ctrl \$1 \$2 1 level 0 100 -1 int;
#X obj 128 71 mmm-controller-table \$1 \$2 2 source;
#X msg 28 91 source \$1;
#X msg 300 21 version 0.3.4;
#X connect 0 0 4 0;
#X connect 1 0 5 0;
#X connect 2 0 1 0;
#X connect 3 0 0 0;
#X connect 6 0 4 0;
#X connect 6 1 5 0;
#X connect 7 0 16 0;
#X connect 9 0 15 0;
#X connect 10 0 13 0;
#X connect 11 0 14 0;
#X connect 12 0 6 0;
#X connect 13 0 6 0;
#X connect 14 0 6 0;
#X connect 15 0 6 0;
#X connect 16 0 6 0;
#X connect 17 0 12 0;
#X connect 18 0 19 0;
#X connect 19 0 6 0;
