#N canvas 48 22 622 399 10;
#N canvas 544 448 632 374 phaser 0;
#X obj 94 74 rpole~;
#X obj 94 49 rzero_rev~;
#X obj 94 123 rpole~;
#X obj 94 98 rzero_rev~;
#X obj 94 171 rpole~;
#X obj 94 146 rzero_rev~;
#X obj 94 220 rpole~;
#X obj 94 195 rzero_rev~;
#X obj 47 13 inlet~;
#X obj 47 294 outlet~;
#X obj 208 29 inlet modfreq;
#X obj 208 90 expr~ 1 - 0.03 - 0.6*abs($v1-0.5)*abs($v1-0.5);
#X obj 313 29 inlet phase;
#X obj 208 58 phasor~;
#X connect 0 0 3 0;
#X connect 1 0 0 0;
#X connect 2 0 5 0;
#X connect 3 0 2 0;
#X connect 4 0 7 0;
#X connect 5 0 4 0;
#X connect 6 0 9 0;
#X connect 7 0 6 0;
#X connect 8 0 1 0;
#X connect 10 0 13 0;
#X connect 11 0 1 1;
#X connect 11 0 0 1;
#X connect 11 0 3 1;
#X connect 11 0 2 1;
#X connect 11 0 5 1;
#X connect 11 0 4 1;
#X connect 11 0 7 1;
#X connect 11 0 6 1;
#X connect 12 0 13 1;
#X connect 13 0 11 0;
#X restore 138 309 pd phaser;
#X obj 16 69 r~ 1-nothing;
#X obj 127 69 r~ 1-nothing;
#X obj 217 259 /;
#X obj 127 49 r \$1-\$2R-r;
#X obj 16 49 r \$1-\$2L-r;
#X obj 17 339 s~ \$1-\$2L;
#X obj 127 339 s~ \$1-\$2R;
#X msg 217 239 1000 \$1;
#X obj 316 259 * 0.01;
#N canvas 544 448 632 374 phaser 0;
#X obj 94 74 rpole~;
#X obj 94 49 rzero_rev~;
#X obj 94 123 rpole~;
#X obj 94 98 rzero_rev~;
#X obj 94 171 rpole~;
#X obj 94 146 rzero_rev~;
#X obj 94 220 rpole~;
#X obj 94 195 rzero_rev~;
#X obj 47 13 inlet~;
#X obj 47 294 outlet~;
#X obj 208 29 inlet modfreq;
#X obj 208 90 expr~ 1 - 0.03 - 0.6*abs($v1-0.5)*abs($v1-0.5);
#X obj 313 29 inlet phase;
#X obj 208 58 phasor~;
#X connect 0 0 3 0;
#X connect 1 0 0 0;
#X connect 2 0 5 0;
#X connect 3 0 2 0;
#X connect 4 0 7 0;
#X connect 5 0 4 0;
#X connect 6 0 9 0;
#X connect 7 0 6 0;
#X connect 8 0 1 0;
#X connect 10 0 13 0;
#X connect 11 0 1 1;
#X connect 11 0 0 1;
#X connect 11 0 3 1;
#X connect 11 0 2 1;
#X connect 11 0 5 1;
#X connect 11 0 4 1;
#X connect 11 0 7 1;
#X connect 11 0 6 1;
#X connect 12 0 13 1;
#X connect 13 0 11 0;
#X restore 28 309 pd phaser;
#X obj 47 189 *~;
#X obj 158 189 *~;
#X obj 16 189 *~;
#X obj 127 189 *~;
#X obj 178 108 cos;
#X obj 224 108 sin;
#X obj 224 78 * 0.015708;
#X obj 224 148 line~;
#X obj 178 148 line~;
#X msg 178 128 \$1 10;
#X msg 224 128 \$1 10;
#X obj 16 19 mmm-module \$1 \$2 rphase 3;
#X msg 249 19 version 0.3.5;
#X obj 224 48 mmm-ctrl \$1 \$2 1 dry-wet 0 100 50 int;
#X obj 217 189 mmm-ctrl \$1 \$2 2 ticks 1 64 16 int;
#X obj 316 229 mmm-ctrl \$1 \$2 3 phase 0 100 50 int;
#X obj 217 219 mmm-ticks2ms;
#X connect 0 0 7 0;
#X connect 1 0 13 0;
#X connect 1 0 11 0;
#X connect 2 0 14 0;
#X connect 2 0 12 0;
#X connect 3 0 0 1;
#X connect 3 0 10 1;
#X connect 4 0 2 0;
#X connect 5 0 1 0;
#X connect 8 0 3 0;
#X connect 9 0 0 2;
#X connect 9 0 10 2;
#X connect 10 0 6 0;
#X connect 11 0 10 0;
#X connect 12 0 0 0;
#X connect 13 0 6 0;
#X connect 14 0 7 0;
#X connect 15 0 20 0;
#X connect 16 0 21 0;
#X connect 17 0 16 0;
#X connect 17 0 15 0;
#X connect 18 0 12 1;
#X connect 18 0 11 1;
#X connect 19 0 14 1;
#X connect 19 0 13 1;
#X connect 20 0 19 0;
#X connect 21 0 18 0;
#X connect 24 0 17 0;
#X connect 25 0 27 0;
#X connect 26 0 9 0;
#X connect 27 0 8 0;
