#N canvas 21 426 551 311 10;
#N canvas 690 315 474 439 processing 0;
#X obj 7 271 *~;
#N canvas 283 384 344 378 amp-factor 0;
#X obj 19 22 inlet~;
#X obj 84 23 inlet;
#X text 120 23 Ratio;
#X obj 168 26 inlet;
#X text 204 26 Threshold;
#X obj 200 54 loadbang;
#X msg 200 78 100;
#X obj 200 102 sig~;
#X obj 168 102 sig~;
#X obj 168 134 +~;
#X obj 155 161 -~;
#X obj 155 206 /~;
#X obj 155 184 max~ 0;
#X obj 142 262 -~;
#X obj 142 286 dbtorms~;
#X obj 142 311 outlet~;
#X obj 84 179 sig~;
#X obj 97 129 - 1;
#X obj 84 156 /;
#X obj 19 68 rmstodb~;
#X obj 19 45 abs~;
#X text 18 4 Signal;
#X text 189 310 Factor in RMS;
#X connect 0 0 20 0;
#X connect 1 0 17 0;
#X connect 1 0 18 0;
#X connect 3 0 8 0;
#X connect 5 0 6 0;
#X connect 6 0 7 0;
#X connect 7 0 9 1;
#X connect 7 0 13 0;
#X connect 8 0 9 0;
#X connect 9 0 10 1;
#X connect 10 0 12 0;
#X connect 11 0 13 1;
#X connect 12 0 11 0;
#X connect 13 0 14 0;
#X connect 14 0 15 0;
#X connect 16 0 11 1;
#X connect 17 0 18 1;
#X connect 18 0 16 0;
#X connect 19 0 10 0;
#X connect 20 0 19 0;
#X restore 143 109 pd amp-factor;
#X obj 294 112 /;
#X obj 333 112 /;
#X obj 7 31 inlet~;
#X obj 7 350 outlet~;
#X obj 179 24 inlet ratio;
#X obj 216 50 inlet threshold;
#X obj 294 25 inlet attack;
#X obj 333 47 inlet release;
#X obj 120 232 inlet gain;
#X obj 120 253 + 100;
#X obj 120 275 dbtorms;
#X obj 200 212 loadbang;
#X obj 64 271 *~;
#X obj 78 230 *~;
#X obj 63 34 inlet~;
#X obj 64 350 outlet~;
#X obj 101 73 *~ 0.707946;
#X text 119 55 -3dB;
#N canvas 445 392 514 364 att-rel-filtering 0;
#N canvas 385 440 589 418 a-r-det 0;
#X obj 43 51 inlet~;
#X obj 43 200 outlet~;
#X obj 94 200 outlet~;
#X obj 43 145 max~ 0;
#X obj 94 171 -~;
#X obj 94 121 loadbang;
#X msg 94 146 1;
#X obj 105 50 inlet~;
#X obj 43 97 -~;
#X text 7 33 vgl.: "soll" mit "ist";
#X obj 43 121 sgn~;
#X text 33 218 Attack / Release;
#X connect 0 0 8 1;
#X connect 3 0 4 1;
#X connect 3 0 1 0;
#X connect 4 0 2 0;
#X connect 5 0 6 0;
#X connect 6 0 4 0;
#X connect 7 0 8 0;
#X connect 8 0 10 0;
#X connect 10 0 3 0;
#X restore 50 86 pd a-r-det;
#X text 26 99 att;
#X text 111 101 rel;
#X obj 22 195 vcf~;
#X msg 134 162 0.4;
#X obj 50 126 *~;
#X obj 105 128 *~;
#X obj 75 163 +~;
#X obj 134 138 loadbang;
#X obj 22 26 inlet~;
#X text 67 26 amp-factor;
#X obj 164 84 inlet;
#X text 200 85 attack;
#X text 237 104 release;
#X obj 196 106 inlet;
#X obj 22 272 outlet~;
#X obj 290 47 block~ 2;
#N canvas 0 22 450 300 (subpatch) 0;
#X array \$0-factor 16 float 0;
#X coords 0 100 15 0 20 20 1;
#X restore 287 169 graph;
#X obj 22 239 *~ 0.971042;
#X obj 109 233 tabsend~ \$0-factor;
#X obj 105 62 tabreceive~ \$0-factor;
#X connect 0 0 5 0;
#X connect 0 1 6 0;
#X connect 3 0 18 0;
#X connect 3 0 19 0;
#X connect 4 0 3 2;
#X connect 5 0 7 0;
#X connect 6 0 7 1;
#X connect 7 0 3 1;
#X connect 8 0 4 0;
#X connect 9 0 3 0;
#X connect 9 0 0 0;
#X connect 11 0 5 1;
#X connect 14 0 6 1;
#X connect 18 0 15 0;
#X connect 20 0 0 1;
#X restore 143 148 pd att-rel-filtering;
#X obj 200 232 0;
#X msg 333 92 57 \$1;
#X msg 293 72 57 \$1;
#X connect 0 0 5 0;
#X connect 1 0 20 0;
#X connect 2 0 20 1;
#X connect 3 0 20 2;
#X connect 4 0 0 0;
#X connect 4 0 18 0;
#X connect 6 0 1 1;
#X connect 7 0 1 2;
#X connect 8 0 23 0;
#X connect 9 0 22 0;
#X connect 10 0 11 0;
#X connect 11 0 12 0;
#X connect 12 0 15 1;
#X connect 13 0 21 0;
#X connect 14 0 17 0;
#X connect 15 0 0 1;
#X connect 15 0 14 1;
#X connect 16 0 14 0;
#X connect 16 0 18 0;
#X connect 18 0 1 0;
#X connect 20 0 15 0;
#X connect 21 0 11 0;
#X connect 22 0 3 0;
#X connect 23 0 2 0;
#X restore 20 211 pd processing;
#X obj 20 30 r~ 1-nothing;
#X obj 34 70 r~ 1-nothing;
#N canvas 633 156 284 309 kommafloatsymbol 0;
#X obj 11 14 inlet;
#X obj 11 44 * 0.1;
#X obj 46 94 wrap;
#X obj 11 94 int;
#X obj 46 114 * 10;
#X msg 11 198 \$1.0;
#X obj 11 64 t f f b;
#X msg 46 174 adddollsym \$1;
#X msg 81 94 set;
#X obj 46 154 makefilename 1.%d;
#X obj 11 218 symbol;
#X obj 46 134 + 0.1;
#X text 94 136 <- gegn rundungsfehler;
#X obj 11 248 outlet;
#X connect 0 0 1 0;
#X connect 1 0 6 0;
#X connect 2 0 4 0;
#X connect 3 0 5 0;
#X connect 4 0 11 0;
#X connect 5 0 10 0;
#X connect 6 0 3 0;
#X connect 6 1 2 0;
#X connect 6 2 8 0;
#X connect 7 0 5 0;
#X connect 8 0 5 0;
#X connect 9 0 7 0;
#X connect 10 0 13 0;
#X connect 11 0 9 0;
#X restore 323 120 pd kommafloatsymbol;
#X obj 20 10 r \$1-\$2L-r;
#X obj 34 50 r \$1-\$2R-r;
#X obj 106 241 s~ \$1-\$2R;
#X obj 20 241 s~ \$1-\$2L;
#X obj 176 45 mmm-module \$1 \$2 rcomp 5;
#X obj 48 101 mmm-ctrl \$1 \$2 5 gain -20 30 0 int;
#X obj 63 120 mmm-ctrl \$1 \$2 1 ratio 10 100 10 ext;
#X obj 77 140 mmm-ctrl \$1 \$2 2 threshold -60 0 0 int;
#X obj 91 161 mmm-ctrl \$1 \$2 3 attack 1 300 10 int;
#X obj 106 181 mmm-ctrl \$1 \$2 4 release 10 3000 160 int;
#X obj 60 184 * 0.1;
#X msg 176 65 version 0.3.4;
#X connect 0 0 7 0;
#X connect 0 1 6 0;
#X connect 1 0 0 0;
#X connect 2 0 0 1;
#X connect 3 0 10 1;
#X connect 4 0 1 0;
#X connect 5 0 2 0;
#X connect 9 0 0 2;
#X connect 10 0 14 0;
#X connect 10 2 3 0;
#X connect 11 0 0 4;
#X connect 12 0 0 5;
#X connect 13 0 0 6;
#X connect 14 0 0 3;
