#N canvas 0 102 596 330 10;
#N canvas 45 22 577 379 rev1~ 0;
#X obj 368 178 dbtorms;
#X obj 301 58 min 100;
#X obj 24 31 inlet~;
#X obj 285 308 outlet~;
#X obj 301 198 -;
#X obj 301 258 line~;
#X obj 301 238 pack 0 100;
#X obj 285 288 *~;
#X obj 301 218 * 0.01;
#X obj 368 198 s \$0-decay;
#X obj 24 51 4m-reverb1-stage \$0 \$0-del1 0 8;
#X obj 24 231 4m-reverb1-final \$0 \$0-del10 9 1509.27;
#X msg 301 178 105 \$1;
#X obj 24 71 4m-reverb1-stage \$0 \$0-del2 1 14.32;
#X obj 24 91 4m-reverb1-stage \$0 \$0-del3 2 25.6328;
#X obj 24 111 4m-reverb1-stage \$0 \$0-del4 3 45.8827;
#X obj 24 131 4m-reverb1-stage \$0 \$0-del5 4 82.1301;
#X obj 24 151 4m-reverb1-stage \$0 \$0-del6 5 147.013;
#X obj 24 171 4m-reverb1-stage \$0 \$0-del7 6 263.153;
#X obj 24 191 4m-reverb1-stage \$0 \$0-del8 7 471.044;
#X obj 24 211 4m-reverb1-stage \$0 \$0-del9 8 843.168;
#X obj 301 38 inlet db-after-1-sec;
#X connect 0 0 9 0;
#X connect 1 0 0 0;
#X connect 1 0 12 0;
#X connect 2 0 10 0;
#X connect 4 0 8 0;
#X connect 5 0 7 1;
#X connect 6 0 5 0;
#X connect 7 0 3 0;
#X connect 8 0 6 0;
#X connect 10 0 13 0;
#X connect 11 0 7 0;
#X connect 12 0 4 0;
#X connect 13 0 14 0;
#X connect 14 0 15 0;
#X connect 15 0 16 0;
#X connect 16 0 17 0;
#X connect 17 0 18 0;
#X connect 18 0 19 0;
#X connect 19 0 20 0;
#X connect 20 0 11 0;
#X connect 21 0 1 0;
#X restore 152 118 pd rev1~;
#X obj 16 68 r~ 1-nothing;
#X obj 119 68 r~ 1-nothing;
#X obj 16 48 r \$1-\$2L-r;
#X obj 119 48 r \$1-\$2R-r;
#X obj 119 282 s~ \$1-\$2R;
#X obj 16 282 s~ \$1-\$2L;
#X msg 477 98 symbol \$1db;
#X obj 152 168 *~;
#X obj 16 252 *~;
#X obj 303 187 cos;
#X obj 259 187 sin;
#X obj 259 157 * 0.015708;
#X obj 259 227 line~;
#X obj 303 237 line~;
#X msg 303 207 \$1 10;
#X msg 259 207 \$1 10;
#X obj 16 18 mmm-module \$1 \$2 reverb1 2;
#X obj 259 137 mmm-ctrl \$1 \$2 1 dry-wet 0 100 50 int;
#X obj 203 98 mmm-ctrl \$1 \$2 2 after_1s 0 100 80 ext;
#X obj 119 252 *~;
#X msg 256 18 version 0.3.1;
#X connect 0 0 8 0;
#X connect 1 0 0 0;
#X connect 1 0 9 0;
#X connect 2 0 0 0;
#X connect 2 0 20 0;
#X connect 3 0 1 0;
#X connect 4 0 2 0;
#X connect 7 0 19 1;
#X connect 8 0 5 0;
#X connect 8 0 6 0;
#X connect 9 0 6 0;
#X connect 10 0 15 0;
#X connect 11 0 16 0;
#X connect 12 0 11 0;
#X connect 12 0 10 0;
#X connect 13 0 8 1;
#X connect 14 0 9 1;
#X connect 14 0 20 1;
#X connect 15 0 14 0;
#X connect 16 0 13 0;
#X connect 18 0 12 0;
#X connect 19 0 0 1;
#X connect 19 2 7 0;
#X connect 20 0 5 0;
