#N canvas 2 24 365 488 10;
#X obj 37 242 inlet~;
#X obj 187 28 loadbang;
#X obj 191 285 * -1;
#X obj 36 353 +~;
#X obj 85 424 outlet~;
#X obj 241 107 pow;
#X obj 204 130 *;
#X obj 37 272 *~ 0;
#X obj 177 175 pow;
#X obj 192 155 * 0.001;
#X obj 52 333 *~ 0;
#X obj 44 373 *~ 0;
#X obj 177 225 *;
#X obj 187 48 t b b b b;
#X obj 83 119 r \$1-decay;
#X obj 85 285 delread~ \$2 \$4;
#X obj 36 447 delwrite~ \$2 \$4;
#X obj 193 205 sqrt;
#X obj 298 78 f \$3;
#X obj 177 108 f 0;
#X obj 72 208 f 0.7;
#X obj 205 78 f 8;
#X obj 241 78 f 1.79;
#X msg 21 17 version 0.1.0;
#X connect 0 0 7 0;
#X connect 1 0 13 0;
#X connect 2 0 11 1;
#X connect 3 0 11 0;
#X connect 3 0 16 0;
#X connect 5 0 6 1;
#X connect 6 0 9 0;
#X connect 7 0 3 0;
#X connect 8 0 12 0;
#X connect 9 0 8 1;
#X connect 10 0 3 1;
#X connect 11 0 4 0;
#X connect 12 0 7 1;
#X connect 13 0 19 0;
#X connect 13 0 20 0;
#X connect 13 1 21 0;
#X connect 13 2 22 0;
#X connect 13 3 18 0;
#X connect 14 0 8 0;
#X connect 15 0 10 0;
#X connect 15 0 4 0;
#X connect 17 0 12 1;
#X connect 18 0 5 1;
#X connect 19 0 8 0;
#X connect 20 0 2 0;
#X connect 20 0 10 1;
#X connect 21 0 6 0;
#X connect 22 0 5 0;
#X connect 22 0 17 0;
