#N canvas 118 224 338 238 10;
#X obj 26 55 inlet~;
#X obj 116 55 inlet~;
#X obj 26 171 outlet~;
#X obj 100 171 outlet~;
#X obj 100 101 -~;
#X obj 100 121 delwrite~ \$1 \$2;
#X obj 100 141 delread~ \$1 \$2;
#X text 150 25 from G08.reverb.pd;
#X msg 26 25 version 0.1.0;
#X connect 0 0 4 0;
#X connect 0 0 2 0;
#X connect 1 0 4 1;
#X connect 1 0 2 0;
#X connect 4 0 5 0;
#X connect 6 0 3 0;
