#N canvas 307 423 455 337 10;
#X obj 22 71 r~ 1-nothing;
#X obj 122 71 r~ 1-nothing;
#X obj 122 51 r \$1-\$2R-r;
#X obj 122 91 s~ \$1-\$2R;
#X obj 22 91 s~ \$1-\$2L;
#X obj 22 51 r \$1-\$2L-r;
#X msg 249 21 version 0.3.0;
#X obj 22 21 mmm-module \$1 \$2 recorder 0;
#X obj 45 279 writesf~ 2;
#X msg 173 160 open -bytes 2 \$1;
#X obj 173 140 savepanel;
#X msg 173 120 bang;
#X msg 173 200 start;
#X msg 173 230 stop;
#X text 225 119 a) choose a file;
#X text 225 199 b) record;
#X text 225 229 c) stop;
#X obj 148 292 s mmm-playpause-r;
#X msg 148 272 1;
#X connect 0 0 4 0;
#X connect 0 0 8 0;
#X connect 1 0 3 0;
#X connect 1 0 8 1;
#X connect 2 0 1 0;
#X connect 5 0 0 0;
#X connect 9 0 8 0;
#X connect 10 0 9 0;
#X connect 11 0 10 0;
#X connect 12 0 8 0;
#X connect 12 0 18 0;
#X connect 13 0 8 0;
#X connect 18 0 17 0;
