#N canvas 386 319 733 472 10;
#X obj 72 224 inlet~;
#X obj 347 28 loadbang;
#X obj 52 408 +~;
#X obj 52 437 outlet~;
#X obj 394 108 pow;
#X obj 365 130 *;
#X obj 72 254 *~ 0;
#X obj 187 175 pow;
#X obj 203 155 * 0.001;
#X obj 103 327 *~ 0;
#X obj 211 202 *;
#X obj 347 48 t b b b b;
#X obj 93 119 r \$1-decay;
#X obj 103 307 delread~ \$2 \$4;
#X obj 103 377 delwrite~ \$2 \$4;
#X obj 52 298 *~ 0;
#X obj 10 209 t b f f;
#X obj 32 229 *;
#X obj 10 256 -;
#X obj 124 259 * -1;
#X obj 11 297 *~ 0;
#X obj 227 182 sqrt;
#X obj 187 108 f 0;
#X obj 394 78 f 1.79;
#X obj 443 78 f \$3;
#X obj 366 78 f 8;
#X obj 124 175 f 0.7;
#X connect 0 0 6 0;
#X connect 1 0 11 0;
#X connect 2 0 3 0;
#X connect 4 0 5 1;
#X connect 5 0 8 0;
#X connect 6 0 15 0;
#X connect 6 0 20 0;
#X connect 7 0 10 0;
#X connect 7 0 9 1;
#X connect 8 0 7 1;
#X connect 9 0 2 1;
#X connect 9 0 14 0;
#X connect 10 0 6 1;
#X connect 11 0 22 0;
#X connect 11 0 26 0;
#X connect 11 1 25 0;
#X connect 11 2 23 0;
#X connect 11 3 24 0;
#X connect 12 0 7 0;
#X connect 13 0 9 0;
#X connect 15 0 2 0;
#X connect 16 0 18 0;
#X connect 16 1 17 0;
#X connect 16 2 17 1;
#X connect 17 0 18 1;
#X connect 18 0 20 1;
#X connect 19 0 15 1;
#X connect 20 0 14 0;
#X connect 21 0 10 1;
#X connect 22 0 7 0;
#X connect 23 0 4 0;
#X connect 23 0 21 0;
#X connect 24 0 4 1;
#X connect 25 0 5 0;
#X connect 26 0 16 0;
#X connect 26 0 19 0;
