#N canvas 79 22 1037 689 10;
#X obj 902 113 * 0.1;
#X obj 28 350 r~ 1-nothing;
#X obj 121 350 r~ 1-nothing;
#X obj 467 269 line~;
#X obj 477 319 mtof~;
#N canvas 0 22 475 315 ticks2ms 0;
#X obj 100 51 r netpd-receive;
#X obj 100 91 route mmm;
#X obj 100 111 route bpm;
#X obj 108 71 r data.state;
#X obj 231 51 loadbang;
#X msg 231 71 \; data.getstate mmm bpm;
#X obj 100 151 /;
#X obj 90 231 outlet;
#X obj 100 171 t b f;
#X obj 40 21 inlet;
#X obj 40 231 outlet;
#X obj 90 21 inlet;
#X msg 100 131 15000 \$1;
#X obj 40 201 *;
#X obj 90 201 *;
#X connect 0 0 1 0;
#X connect 1 0 2 0;
#X connect 2 0 12 0;
#X connect 3 0 1 0;
#X connect 4 0 5 0;
#X connect 6 0 8 0;
#X connect 8 0 13 0;
#X connect 8 0 14 0;
#X connect 8 1 13 1;
#X connect 8 1 14 1;
#X connect 9 0 13 0;
#X connect 11 0 14 0;
#X connect 12 0 6 0;
#X connect 13 0 10 0;
#X connect 14 0 7 0;
#X restore 485 159 pd ticks2ms;
#X obj 562 135 * 0.1;
#X obj 721 334 * 0.01;
#X obj 461 469 *~;
#X obj 427 319 >~ 0;
#X obj 734 44 makesymbol %s;
#X obj 831 44 * 0.1;
#X obj 485 219 ftom;
#X obj 485 179 pow -1;
#X obj 485 199 * 1000;
#X obj 805 113 makesymbol %s;
#X obj 917 250 * 0.1;
#X obj 820 250 makesymbol %s;
#X obj 580 304 * 0.1;
#X obj 551 469 *~;
#X obj 588 344 line~;
#X obj 28 510 *~ 1;
#X obj 121 510 *~ 1;
#X obj 71 470 == 0;
#X obj 257 380 *~ 0;
#X obj 301 410 *~;
#X obj 241 410 *~;
#X obj 317 380 *~ 0;
#X obj 280 340 * 0.005;
#X obj 427 299 abs~;
#N canvas 716 38 337 255 rmpt 0;
#X obj 22 22 inlet~;
#X obj 22 172 outlet~;
#N canvas 405 73 228 365 pulse-train 0;
#X obj 103 134 line~;
#X obj 29 214 cos~;
#X obj 103 114 pack 0 50;
#X obj 29 144 -~ 0.5;
#X obj 29 174 *~;
#X obj 103 74 moses 0;
#X msg 103 94 0;
#X obj 29 194 clip~ -0.5 0.5;
#X obj 103 154 +~ 1;
#X obj 29 234 +~ 1;
#X obj 103 24 inlet;
#X obj 29 284 outlet~;
#X obj 29 254 *~ 0.5;
#X obj 29 124 phasor~;
#X obj 29 24 inlet~;
#X obj 103 54 * 0.1;
#X connect 0 0 8 0;
#X connect 1 0 9 0;
#X connect 2 0 0 0;
#X connect 3 0 4 0;
#X connect 4 0 7 0;
#X connect 5 0 6 0;
#X connect 5 1 2 0;
#X connect 6 0 2 0;
#X connect 7 0 1 0;
#X connect 8 0 4 1;
#X connect 9 0 12 0;
#X connect 10 0 15 0;
#X connect 12 0 11 0;
#X connect 13 0 3 0;
#X connect 14 0 13 0;
#X connect 15 0 5 0;
#X restore 22 82 pd pulse-train;
#X obj 22 142 *~;
#X obj 38 122 osc~;
#X obj 38 102 *~ 1;
#X obj 84 52 route modulation bandwidth;
#X obj 84 22 inlet;
#X connect 0 0 2 0;
#X connect 0 0 5 0;
#X connect 2 0 3 0;
#X connect 3 0 1 0;
#X connect 4 0 3 1;
#X connect 5 0 4 0;
#X connect 6 0 5 1;
#X connect 6 1 2 1;
#X connect 7 0 6 0;
#X restore 567 449 pd rmpt;
#N canvas 464 23 369 287 rmpt 0;
#X obj 22 22 inlet~;
#X obj 22 172 outlet~;
#N canvas 405 73 244 381 pulse-train 0;
#X obj 103 134 line~;
#X obj 29 214 cos~;
#X obj 103 114 pack 0 50;
#X obj 29 144 -~ 0.5;
#X obj 29 174 *~;
#X obj 103 74 moses 0;
#X msg 103 94 0;
#X obj 29 194 clip~ -0.5 0.5;
#X obj 103 154 +~ 1;
#X obj 29 234 +~ 1;
#X obj 103 24 inlet;
#X obj 29 284 outlet~;
#X obj 29 254 *~ 0.5;
#X obj 29 124 phasor~;
#X obj 29 24 inlet~;
#X obj 103 54 * 0.1;
#X connect 0 0 8 0;
#X connect 1 0 9 0;
#X connect 2 0 0 0;
#X connect 3 0 4 0;
#X connect 4 0 7 0;
#X connect 5 0 6 0;
#X connect 5 1 2 0;
#X connect 6 0 2 0;
#X connect 7 0 1 0;
#X connect 8 0 4 1;
#X connect 9 0 12 0;
#X connect 10 0 15 0;
#X connect 12 0 11 0;
#X connect 13 0 3 0;
#X connect 14 0 13 0;
#X connect 15 0 5 0;
#X restore 22 82 pd pulse-train;
#X obj 22 142 *~;
#X obj 38 122 osc~;
#X obj 38 102 *~ 1;
#X obj 84 52 route modulation bandwidth;
#X obj 84 22 inlet;
#X connect 0 0 2 0;
#X connect 0 0 5 0;
#X connect 2 0 3 0;
#X connect 3 0 1 0;
#X connect 4 0 3 1;
#X connect 5 0 4 0;
#X connect 6 0 5 1;
#X connect 6 1 2 1;
#X connect 7 0 6 0;
#X restore 477 449 pd rmpt;
#X obj 121 550 s~ \$1-\$2R;
#X obj 28 549 s~ \$1-\$2L;
#X obj 28 330 r \$1-\$2L-r;
#X obj 121 330 r \$1-\$2R-r;
#X msg 588 324 \$1 10;
#X obj 485 119 +;
#X obj 511 91 t b f;
#X obj 485 139 max 0;
#X obj 428 119 +;
#X obj 428 139 max 0;
#X obj 467 249 pack f f;
#X obj 28 21 mmm-module \$1 \$2 rmpt2 10;
#X obj 533 64 mmm-ctrl \$1 \$2 5 transpose -24 24 0 int;
#X obj 560 113 mmm-ctrl \$1 \$2 6 glide 0 160 1 ext;
#X obj 575 250 mmm-ctrl \$1 \$2 7 detune 0 80 0 ext;
#X obj 203 223 mmm-ctrl \$1 \$2 8 bandwidth 0 99 1 int;
#X obj 94 203 mmm-ctrl \$1 \$2 9 modulation 0 99 1 int;
#X obj 28 161 mmm-ctrl \$1 \$2 10 lfo2pitch 0 100 0 int;
#X obj 860 278 * 2;
#X obj 461 499 *~;
#X obj 723 399 cos;
#X obj 812 399 sin;
#X obj 637 349 * 0.015708;
#X msg 723 439 \$1 10;
#X msg 812 439 \$1 10;
#X obj 637 329 + 50;
#X obj 812 459 line~;
#X obj 723 459 line~;
#X obj 723 419 *;
#X obj 812 419 *;
#X obj 768 416 t b f;
#X obj 551 499 *~;
#X obj 489 44 mmm-ctrl \$1 \$2 4 ticks 0 160 0 ext;
#X obj 428 23 mmm-ctrl \$1 \$2 1 notes 0 127 -1 ext;
#X obj 623 278 mmm-ctrl \$1 \$2 3 pan -50 50 0 ext;
#X obj 680 23 mmm-notename;
#X msg 255 21 version 0.3.7;
#X obj 721 314 mmm-ctrl \$1 \$2 2 level 0 100 50 int;
#X obj 111 284 t a;
#X obj 244 299 t a;
#X msg 94 223 modulation \$1;
#X msg 203 243 bandwidth \$1;
#X connect 0 0 15 0;
#X connect 1 0 21 0;
#X connect 1 0 26 0;
#X connect 2 0 22 0;
#X connect 2 0 25 0;
#X connect 3 0 4 0;
#X connect 3 0 29 0;
#X connect 4 0 24 0;
#X connect 4 0 27 0;
#X connect 4 0 30 0;
#X connect 4 0 31 0;
#X connect 5 0 13 0;
#X connect 5 1 42 1;
#X connect 6 0 5 1;
#X connect 7 0 62 0;
#X connect 8 0 51 0;
#X connect 9 0 8 0;
#X connect 9 0 19 0;
#X connect 10 0 64 1;
#X connect 11 0 10 0;
#X connect 12 0 42 0;
#X connect 13 0 14 0;
#X connect 14 0 12 0;
#X connect 15 0 45 1;
#X connect 16 0 17 0;
#X connect 17 0 46 1;
#X connect 18 0 36 0;
#X connect 19 0 63 0;
#X connect 20 0 30 0;
#X connect 21 0 33 0;
#X connect 22 0 32 0;
#X connect 23 0 21 1;
#X connect 23 0 22 1;
#X connect 24 0 26 1;
#X connect 25 0 30 0;
#X connect 26 0 31 0;
#X connect 27 0 25 1;
#X connect 28 0 24 1;
#X connect 28 0 27 1;
#X connect 29 0 9 0;
#X connect 30 0 19 1;
#X connect 31 0 8 1;
#X connect 34 0 1 0;
#X connect 35 0 2 0;
#X connect 36 0 20 0;
#X connect 37 0 39 0;
#X connect 38 0 37 0;
#X connect 38 0 40 0;
#X connect 38 1 37 1;
#X connect 38 1 40 1;
#X connect 39 0 5 0;
#X connect 40 0 41 0;
#X connect 41 0 42 0;
#X connect 42 0 3 0;
#X connect 44 0 38 0;
#X connect 45 0 6 0;
#X connect 45 2 0 0;
#X connect 46 0 18 0;
#X connect 46 2 16 0;
#X connect 47 0 73 0;
#X connect 48 0 72 0;
#X connect 49 0 70 0;
#X connect 50 0 66 1;
#X connect 51 0 33 0;
#X connect 52 0 60 0;
#X connect 53 0 61 0;
#X connect 54 0 53 0;
#X connect 54 0 52 0;
#X connect 55 0 59 0;
#X connect 56 0 58 0;
#X connect 57 0 54 0;
#X connect 58 0 63 1;
#X connect 59 0 51 1;
#X connect 60 0 55 0;
#X connect 61 0 56 0;
#X connect 62 0 60 0;
#X connect 62 0 61 0;
#X connect 62 1 60 1;
#X connect 62 1 61 1;
#X connect 63 0 32 0;
#X connect 64 0 37 0;
#X connect 64 2 11 0;
#X connect 65 0 40 0;
#X connect 65 2 67 0;
#X connect 66 0 57 0;
#X connect 66 2 50 0;
#X connect 67 0 65 1;
#X connect 69 0 7 0;
#X connect 70 0 23 0;
#X connect 70 0 28 0;
#X connect 71 0 31 1;
#X connect 71 0 30 1;
#X connect 72 0 71 0;
#X connect 73 0 71 0;
