#N canvas 128 22 620 383 10;
#X obj 487 231 * 0.01;
#X obj 390 231 makesymbol %s;
#X obj 81 141 sel 0 1 2;
#X obj 124 251 * 0.01;
#X msg 81 161 draw fill;
#X obj 353 111 sel 0 1 2;
#X msg 353 131 symbol fill;
#X obj 15 236 r gemmm;
#X obj 28 71 r~ 1-nothing;
#X obj 128 71 r~ 1-nothing;
#X obj 15 256 route \$3;
#X msg 100 181 draw point;
#X msg 119 201 draw line;
#X msg 372 151 symbol point;
#X msg 391 171 symbol line;
#X obj 81 321 rectangle 1 1;
#X obj 167 301 * 0.01;
#X obj 530 281 * 0.01;
#X obj 433 281 makesymbol %s;
#X obj 28 21 mmm-module \$1 \$2 rectangle 3;
#X obj 28 51 r \$1-\$2L-r;
#X obj 128 51 r \$1-\$2R-r;
#X obj 28 91 s~ \$1-\$2L;
#X obj 128 91 s~ \$1-\$2R;
#X obj 124 231 mmm-ctrl \$1 \$2 1 width 0 800 100 ext;
#X obj 167 281 mmm-ctrl \$1 \$2 2 height 0 800 100 ext;
#X obj 81 121 mmm-ctrl \$1 \$2 3 draw 0 2 0 ext;
#X msg 285 21 version 0.3.5;
#X connect 0 0 1 0;
#X connect 1 0 24 1;
#X connect 2 0 4 0;
#X connect 2 1 11 0;
#X connect 2 2 12 0;
#X connect 3 0 15 1;
#X connect 4 0 15 0;
#X connect 5 0 6 0;
#X connect 5 1 13 0;
#X connect 5 2 14 0;
#X connect 6 0 26 1;
#X connect 7 0 10 0;
#X connect 8 0 22 0;
#X connect 9 0 23 0;
#X connect 10 0 15 0;
#X connect 11 0 15 0;
#X connect 12 0 15 0;
#X connect 13 0 26 1;
#X connect 14 0 26 1;
#X connect 16 0 15 2;
#X connect 17 0 18 0;
#X connect 18 0 25 1;
#X connect 20 0 8 0;
#X connect 21 0 9 0;
#X connect 24 0 3 0;
#X connect 24 2 0 0;
#X connect 25 0 16 0;
#X connect 25 2 17 0;
#X connect 26 0 2 0;
#X connect 26 2 5 0;
