#N canvas 51 22 695 642 10;
#X obj 45 195 r gemmm;
#X obj 461 76 sel 0 1;
#X msg 461 96 symbol off;
#X msg 483 116 symbol on;
#X obj 45 299 spigot;
#X obj 134 281 spigot;
#X obj 82 279 == 0;
#X obj 238 485 rotateXYZ;
#X obj 349 375 line;
#X obj 306 375 line;
#X obj 266 375 line;
#X obj 28 71 r~ 1-nothing;
#X obj 128 71 r~ 1-nothing;
#N canvas 567 372 264 186 send_gemmm 0;
#X obj 104 19 loadbang;
#X obj 25 99 list prepend;
#X obj 25 139 s gemmm;
#X obj 25 79 inlet;
#X obj 25 119 list trim;
#X obj 104 59 + 1;
#X obj 104 79 makefilename \$1-%d;
#X obj 104 39 f \$2;
#X connect 0 0 7 0;
#X connect 1 0 4 0;
#X connect 3 0 1 0;
#X connect 4 0 2 0;
#X connect 5 0 6 0;
#X connect 6 0 1 1;
#X connect 7 0 5 0;
#X restore 45 599 pd send_gemmm;
#X obj 177 372 spigot;
#X obj 214 352 == 1;
#X obj 76 455 repeat 1;
#X obj 76 415 spigot;
#X obj 112 395 != 1;
#N canvas 33 392 612 316 correction 0;
#X obj 28 21 inlet gemlist;
#X obj 138 21 inlet repeat;
#X obj 238 21 inlet X;
#X obj 298 21 inlet Y;
#X obj 358 21 inlet Z;
#X obj 47 121 - 0.5;
#X obj 143 101 * -0.5;
#X obj 143 121 - 0.5;
#X obj 47 161 * 1;
#X obj 95 161 * 1;
#X obj 143 161 * 1;
#X obj 28 261 outlet gemlist;
#X obj 55 141 t b f;
#X obj 103 141 t b f;
#X obj 151 141 t b f;
#X obj 28 231 rotateXYZ;
#X obj 95 121 - 0.5;
#X obj 95 101 * -0.5;
#X obj 47 101 * -0.5;
#N canvas 401 199 151 246 180shift 0;
#X obj 31 30 inlet;
#X obj 31 190 outlet;
#X obj 31 110 % 360;
#X obj 31 130 + 180;
#X obj 31 150 % 360;
#X obj 31 170 - 180;
#X obj 31 70 % 360;
#X obj 31 90 + 180;
#X connect 0 0 6 0;
#X connect 2 0 3 0;
#X connect 3 0 4 0;
#X connect 4 0 5 0;
#X connect 5 0 1 0;
#X connect 6 0 7 0;
#X connect 7 0 2 0;
#X restore 95 201 pd 180shift;
#N canvas 401 199 155 250 180shift 0;
#X obj 31 30 inlet;
#X obj 31 190 outlet;
#X obj 31 110 % 360;
#X obj 31 130 + 180;
#X obj 31 150 % 360;
#X obj 31 170 - 180;
#X obj 31 70 % 360;
#X obj 31 90 + 180;
#X connect 0 0 6 0;
#X connect 2 0 3 0;
#X connect 3 0 4 0;
#X connect 4 0 5 0;
#X connect 5 0 1 0;
#X connect 6 0 7 0;
#X connect 7 0 2 0;
#X restore 143 181 pd 180shift;
#N canvas 401 199 155 250 180shift 0;
#X obj 31 30 inlet;
#X obj 31 190 outlet;
#X obj 31 110 % 360;
#X obj 31 130 + 180;
#X obj 31 150 % 360;
#X obj 31 170 - 180;
#X obj 31 70 % 360;
#X obj 31 90 + 180;
#X connect 0 0 6 0;
#X connect 2 0 3 0;
#X connect 3 0 4 0;
#X connect 4 0 5 0;
#X connect 5 0 1 0;
#X connect 6 0 7 0;
#X connect 7 0 2 0;
#X restore 47 181 pd 180shift;
#X connect 0 0 15 0;
#X connect 1 0 6 0;
#X connect 1 0 17 0;
#X connect 1 0 18 0;
#X connect 2 0 12 0;
#X connect 3 0 13 0;
#X connect 4 0 14 0;
#X connect 5 0 8 0;
#X connect 6 0 7 0;
#X connect 7 0 10 0;
#X connect 8 0 21 0;
#X connect 9 0 19 0;
#X connect 10 0 20 0;
#X connect 12 0 8 0;
#X connect 12 1 8 1;
#X connect 13 0 9 0;
#X connect 13 1 9 1;
#X connect 14 0 10 0;
#X connect 14 1 10 1;
#X connect 15 0 11 0;
#X connect 16 0 9 0;
#X connect 17 0 16 0;
#X connect 18 0 5 0;
#X connect 19 0 15 2;
#X connect 20 0 15 3;
#X connect 21 0 15 1;
#X restore 76 435 pd correction;
#X obj 146 395 f;
#X obj 238 555 separator;
#X obj 317 555 spigot;
#X obj 238 535 spigot;
#X obj 354 535 == 0;
#X obj 266 355 pack;
#X obj 306 355 pack;
#X obj 349 355 pack;
#X obj 306 335 / 1;
#X obj 309 299 t b f;
#X obj 266 335 / 1;
#X obj 349 335 / 1;
#X obj 230 245 - 1;
#X obj 230 265 max 1;
#X obj 28 21 mmm-module \$1 \$2 rotateXYZ 7;
#X obj 28 51 r \$1-\$2L-r;
#X obj 128 51 r \$1-\$2R-r;
#X obj 28 91 s~ \$1-\$2L;
#X obj 128 91 s~ \$1-\$2R;
#X obj 171 121 mmm-ctrl \$1 \$2 1 rotateXYZ 0 1 1 ext;
#X obj 281 181 mmm-ctrl \$1 \$2 2 X -360 360 0 int;
#X obj 301 201 mmm-ctrl \$1 \$2 3 Y -360 360 0 int;
#X obj 321 221 mmm-ctrl \$1 \$2 4 Z -360 360 0 int;
#X obj 398 265 mmm-ctrl \$1 \$2 5 glide 0 16 0 int;
#X obj 220 151 mmm-ctrl \$1 \$2 6 repeat 1 128 1 int;
#X obj 391 454 mmm-ctrl \$1 \$2 7 separator 0 1 0 int;
#X obj 44 215 route \$1-\$2;
#X obj 398 285 mmm-ticks2ms;
#X obj 391 474 t a;
#X obj 220 171 t a;
#X msg 295 21 version 0.3.6;
#X obj 171 141 t a;
#X connect 0 0 46 0;
#X connect 1 0 2 0;
#X connect 1 1 3 0;
#X connect 2 0 39 1;
#X connect 3 0 39 1;
#X connect 4 0 13 0;
#X connect 5 0 14 0;
#X connect 5 0 17 0;
#X connect 6 0 4 1;
#X connect 7 0 23 0;
#X connect 7 0 22 0;
#X connect 8 0 19 4;
#X connect 8 0 7 3;
#X connect 9 0 19 3;
#X connect 9 0 7 2;
#X connect 10 0 19 2;
#X connect 10 0 7 1;
#X connect 11 0 37 0;
#X connect 12 0 38 0;
#X connect 14 0 7 0;
#X connect 15 0 14 1;
#X connect 16 0 7 0;
#X connect 17 0 19 0;
#X connect 18 0 17 1;
#X connect 19 0 16 0;
#X connect 20 0 18 0;
#X connect 20 0 19 1;
#X connect 20 0 16 1;
#X connect 21 0 13 0;
#X connect 22 0 13 0;
#X connect 23 0 21 0;
#X connect 24 0 22 1;
#X connect 25 0 10 0;
#X connect 26 0 9 0;
#X connect 27 0 8 0;
#X connect 28 0 26 0;
#X connect 29 0 31 0;
#X connect 29 0 28 0;
#X connect 29 0 30 0;
#X connect 29 1 30 1;
#X connect 29 1 28 1;
#X connect 29 1 31 1;
#X connect 30 0 25 0;
#X connect 31 0 27 0;
#X connect 32 0 33 0;
#X connect 33 0 29 0;
#X connect 35 0 11 0;
#X connect 36 0 12 0;
#X connect 39 0 51 0;
#X connect 39 2 1 0;
#X connect 40 0 30 0;
#X connect 41 0 28 0;
#X connect 42 0 31 0;
#X connect 43 0 47 0;
#X connect 44 0 49 0;
#X connect 45 0 48 0;
#X connect 46 0 4 0;
#X connect 46 0 5 0;
#X connect 47 0 25 1;
#X connect 47 0 26 1;
#X connect 47 0 27 1;
#X connect 48 0 24 0;
#X connect 48 0 23 1;
#X connect 49 0 32 0;
#X connect 49 0 15 0;
#X connect 49 0 20 0;
#X connect 51 0 6 0;
#X connect 51 0 5 1;
