#N canvas 47 36 687 446 10;
#X obj 525 161 * 0.01;
#X obj 428 161 makesymbol %s;
#X obj 34 242 r gemmm;
#X obj 555 181 * 0.01;
#X obj 458 181 makesymbol %s;
#X obj 595 201 * 0.01;
#X obj 498 201 makesymbol %s;
#X obj 350 91 sel 0 1;
#X msg 350 111 symbol off;
#X msg 372 131 symbol on;
#X obj 50 379 spigot;
#X obj 121 324 spigot;
#X obj 87 359 == 0;
#X obj 197 238 * 0.01;
#X obj 268 238 * 0.01;
#X obj 340 238 * 0.01;
#X obj 180 379 scaleXYZ;
#X obj 340 308 line;
#X obj 268 308 line;
#X obj 197 308 line;
#X obj 28 71 r~ 1-nothing;
#X obj 128 71 r~ 1-nothing;
#N canvas 567 372 272 194 send_gemmm 0;
#X obj 104 19 loadbang;
#X obj 25 99 list prepend;
#X obj 25 139 s gemmm;
#X obj 25 79 inlet;
#X obj 25 119 list trim;
#X obj 104 59 + 1;
#X obj 104 79 makefilename \$1-%d;
#X obj 104 39 f \$2;
#X connect 0 0 7 0;
#X connect 1 0 4 0;
#X connect 3 0 1 0;
#X connect 4 0 2 0;
#X connect 5 0 6 0;
#X connect 6 0 1 1;
#X connect 7 0 5 0;
#X restore 181 409 pd send_gemmm;
#X obj 197 288 pack;
#X obj 268 288 pack;
#X obj 340 288 pack;
#X obj 133 354 repeat 1;
#X obj 391 258 mmm-ticks2ms;
#X obj 34 262 route \$1-\$2;
#X obj 184 334 mmm-ctrl \$1 \$2 6 repeat 1 64 1 int;
#X obj 28 151 t a;
#X obj 28 21 mmm-module \$1 \$2 scaleXYZ 6;
#X obj 28 51 r \$1-\$2L-r;
#X obj 28 91 s~ \$1-\$2L;
#X obj 128 51 r \$1-\$2R-r;
#X obj 128 91 s~ \$1-\$2R;
#X obj 28 131 mmm-ctrl \$1 \$2 1 scaleXYZ 0 1 1 ext;
#X obj 197 161 mmm-ctrl \$1 \$2 2 X 0 800 100 ext;
#X obj 227 181 mmm-ctrl \$1 \$2 3 Y 0 800 100 ext;
#X obj 267 201 mmm-ctrl \$1 \$2 4 Z 0 800 100 ext;
#X obj 391 238 mmm-ctrl \$1 \$2 5 glide 0 16 0 int;
#X msg 295 21 version 0.3.6;
#X connect 0 0 1 0;
#X connect 1 0 37 1;
#X connect 2 0 28 0;
#X connect 3 0 4 0;
#X connect 4 0 38 1;
#X connect 5 0 6 0;
#X connect 6 0 39 1;
#X connect 7 0 8 0;
#X connect 7 1 9 0;
#X connect 8 0 36 1;
#X connect 9 0 36 1;
#X connect 10 0 22 0;
#X connect 11 0 26 0;
#X connect 12 0 10 1;
#X connect 13 0 23 0;
#X connect 14 0 24 0;
#X connect 15 0 25 0;
#X connect 16 0 22 0;
#X connect 17 0 16 3;
#X connect 18 0 16 2;
#X connect 19 0 16 1;
#X connect 20 0 33 0;
#X connect 21 0 35 0;
#X connect 23 0 19 0;
#X connect 24 0 18 0;
#X connect 25 0 17 0;
#X connect 26 0 16 0;
#X connect 27 0 23 1;
#X connect 27 0 24 1;
#X connect 27 0 25 1;
#X connect 28 0 10 0;
#X connect 28 0 11 0;
#X connect 29 0 26 1;
#X connect 30 0 12 0;
#X connect 30 0 11 1;
#X connect 32 0 20 0;
#X connect 34 0 21 0;
#X connect 36 0 30 0;
#X connect 36 2 7 0;
#X connect 37 0 13 0;
#X connect 37 2 0 0;
#X connect 38 0 14 0;
#X connect 38 2 3 0;
#X connect 39 0 15 0;
#X connect 39 2 5 0;
#X connect 40 0 27 0;
