#N canvas 0 22 252 264 10;
#X obj 73 22 inlet;
#X obj 73 52 t b f;
#X obj 20 202 outlet;
#X obj 20 102 +;
#X msg 20 153 \$1 \$1;
#X obj 20 173 *;
#X obj 20 22 inlet;
#X msg 126 22 version 0.3.0;
#X obj 20 133 * 0.005;
#X connect 0 0 1 0;
#X connect 1 0 3 0;
#X connect 1 1 3 1;
#X connect 3 0 8 0;
#X connect 4 0 5 0;
#X connect 5 0 2 0;
#X connect 6 0 3 0;
#X connect 8 0 4 0;
