#N canvas 31 27 695 483 10;
#X obj 364 102 makesymbol %s;
#X obj 461 102 * 0.1;
#X obj 21 412 r~ 1-nothing;
#X obj 114 412 r~ 1-nothing;
#X obj 68 252 line~;
#X obj 68 272 mtof~;
#X obj 119 122 * 0.1;
#X obj 68 292 phasor~;
#X obj 68 312 -~ 0.5;
#X obj 52 332 *~;
#X obj 114 392 r \$1-\$2R-r;
#X obj 21 392 r \$1-\$2L-r;
#X obj 21 432 s~ \$1-\$2L;
#X obj 114 432 s~ \$1-\$2R;
#X obj 21 122 +;
#X obj 35 92 t b f;
#X obj 21 142 max 0;
#X obj 68 232 pack f f;
#X obj 19 302 min~ 1;
#X obj 21 22 mmm-module \$1 \$2 sawtooth 5;
#X obj 536 162 * 2;
#X obj 35 72 mmm-ctrl \$1 \$2 4 transpose -24 24 0 int;
#X obj 119 102 mmm-ctrl \$1 \$2 5 glide 0 160 1 ext;
#X obj 52 362 *~;
#X obj 195 242 cos;
#X obj 284 242 sin;
#X obj 299 202 * 0.015708;
#X msg 195 282 \$1 10;
#X msg 284 282 \$1 10;
#X obj 299 182 + 50;
#X obj 284 302 line~;
#X obj 195 302 line~;
#X obj 195 262 *;
#X obj 284 262 *;
#X obj 240 259 t b f;
#X obj 92 362 *~;
#X obj 240 152 * 0.02;
#X obj 240 132 mmm-ctrl \$1 \$2 2 level 0 100 30 int;
#X obj 299 162 mmm-ctrl \$1 \$2 3 pan -50 50 0 ext;
#X obj 119 212 mmm-ticks2ms;
#X obj 21 52 mmm-ctrl \$1 \$2 1 notes 0 127 -1 ext;
#X obj 275 52 mmm-notename;
#X msg 258 22 version 0.3.8;
#X connect 0 0 22 1;
#X connect 1 0 0 0;
#X connect 2 0 12 0;
#X connect 3 0 13 0;
#X connect 4 0 5 0;
#X connect 4 0 18 0;
#X connect 5 0 7 0;
#X connect 6 0 39 0;
#X connect 7 0 8 0;
#X connect 8 0 9 1;
#X connect 9 0 23 0;
#X connect 9 0 35 0;
#X connect 10 0 3 0;
#X connect 11 0 2 0;
#X connect 14 0 16 0;
#X connect 15 0 14 0;
#X connect 15 1 14 1;
#X connect 16 0 17 0;
#X connect 17 0 4 0;
#X connect 18 0 9 0;
#X connect 20 0 38 1;
#X connect 21 0 15 0;
#X connect 22 0 6 0;
#X connect 22 2 1 0;
#X connect 23 0 12 0;
#X connect 24 0 32 0;
#X connect 25 0 33 0;
#X connect 26 0 25 0;
#X connect 26 0 24 0;
#X connect 27 0 31 0;
#X connect 28 0 30 0;
#X connect 29 0 26 0;
#X connect 30 0 35 1;
#X connect 31 0 23 1;
#X connect 32 0 27 0;
#X connect 33 0 28 0;
#X connect 34 0 32 0;
#X connect 34 0 33 0;
#X connect 34 1 32 1;
#X connect 34 1 33 1;
#X connect 35 0 13 0;
#X connect 36 0 34 0;
#X connect 37 0 36 0;
#X connect 38 0 29 0;
#X connect 38 2 20 0;
#X connect 39 0 17 1;
#X connect 40 0 14 0;
#X connect 40 2 41 0;
#X connect 41 0 40 1;
