#N canvas 306 145 844 512 10;
#X obj 330 224 * 0.01;
#X obj 573 71 r~ 1-nothing;
#X obj 673 71 r~ 1-nothing;
#X obj 330 264 * 0.01;
#X obj 330 304 * 0.01;
#X obj 671 204 * 0.01;
#X obj 574 204 makesymbol %s;
#X obj 685 244 * 0.01;
#X obj 588 244 makesymbol %s;
#X obj 678 284 * 0.01;
#X obj 581 284 makesymbol %s;
#X obj 28 71 gemhead;
#X msg 49 317 debug \$1;
#N canvas 0 22 275 172 hotpack 0;
#X obj 25 24 inlet;
#X obj 75 24 inlet;
#X obj 75 44 t b f;
#X obj 34 97 outlet;
#X obj 125 24 inlet;
#X obj 125 44 t b f;
#X obj 34 77 pack f f f f;
#X obj 185 45 inlet;
#X connect 0 0 6 0;
#X connect 1 0 2 0;
#X connect 2 0 6 0;
#X connect 2 1 6 1;
#X connect 4 0 5 0;
#X connect 5 0 6 0;
#X connect 5 1 6 2;
#X connect 6 0 3 0;
#X connect 7 0 6 3;
#X restore 280 331 pd hotpack;
#X obj 374 83 makesymbol %s;
#X obj 471 83 * 0.1;
#X obj 116 103 * 0.1;
#X obj 66 227 line;
#X obj 47 187 line;
#X obj 28 447 spot_light;
#X obj 548 174 makesymbol %s;
#X obj 749 333 * 0.01;
#X obj 652 333 makesymbol %s;
#X obj 280 351 tripleLine;
#X obj 107 247 line;
#X obj 372 383 * 0.01;
#N canvas 0 22 275 172 hotpack 0;
#X obj 25 24 inlet;
#X obj 75 24 inlet;
#X obj 75 44 t b f;
#X obj 34 97 outlet;
#X obj 125 24 inlet;
#X obj 125 44 t b f;
#X obj 34 77 pack f f f;
#X connect 0 0 6 0;
#X connect 1 0 2 0;
#X connect 2 0 6 0;
#X connect 2 1 6 1;
#X connect 4 0 5 0;
#X connect 5 0 6 0;
#X connect 5 1 6 2;
#X connect 6 0 3 0;
#X restore 372 403 pd hotpack;
#X obj 28 267 translateXYZ;
#X obj 28 247 rotateXYZ;
#X obj 47 167 pack;
#X obj 66 207 pack;
#X obj 107 227 pack;
#X obj 28 21 mmm-module \$1 \$2 spot_light 12;
#X obj 573 51 r \$1-\$2L-r;
#X obj 673 51 r \$1-\$2R-r;
#X obj 573 91 s~ \$1-\$2L;
#X obj 673 91 s~ \$1-\$2R;
#X obj 116 123 mmm-ticks2ms;
#X obj 28 51 mmm-ctrl \$1 \$2 1 gemhead -100 100 -99 int;
#X obj 372 333 mmm-ctrl \$1 \$2 2 attenuate 0 100 50 ext;
#X obj 404 353 mmm-ctrl \$1 \$2 3 angle 0 90 21 int;
#X obj 437 373 mmm-ctrl \$1 \$2 4 decay 0 90 45 int;
#X obj 116 83 mmm-ctrl \$1 \$2 11 glide 0 160 80 ext;
#X obj 49 297 mmm-ctrl \$1 \$2 12 debug 0 1 0 int;
#X obj 330 204 mmm-ctrl \$1 \$2 5 red 0 100 100 ext;
#X obj 330 244 mmm-ctrl \$1 \$2 6 green 0 100 100 ext;
#X obj 330 284 mmm-ctrl \$1 \$2 7 blue 0 100 100 ext;
#X obj 248 134 mmm-ctrl \$1 \$2 8 rotateX -180 180 0 int;
#X obj 248 154 mmm-ctrl \$1 \$2 9 rotateY -180 180 0 int;
#X obj 248 174 mmm-ctrl \$1 \$2 10 translateZ 0 200 100 ext;
#X obj 645 174 * 0.2;
#X obj 107 207 * 0.2;
#X msg 285 21 version 0.3.6;
#X obj 58 356 r gemmm;
#X obj 58 376 route \$3;
#X connect 0 0 13 0;
#X connect 1 0 35 0;
#X connect 2 0 36 0;
#X connect 3 0 13 1;
#X connect 4 0 13 2;
#X connect 5 0 6 0;
#X connect 6 0 44 1;
#X connect 7 0 8 0;
#X connect 8 0 45 1;
#X connect 9 0 10 0;
#X connect 10 0 46 1;
#X connect 11 0 28 0;
#X connect 12 0 19 0;
#X connect 13 0 23 0;
#X connect 14 0 42 1;
#X connect 15 0 14 0;
#X connect 16 0 37 0;
#X connect 17 0 28 2;
#X connect 18 0 28 1;
#X connect 20 0 49 1;
#X connect 21 0 22 0;
#X connect 22 0 39 1;
#X connect 23 0 19 1;
#X connect 24 0 27 3;
#X connect 25 0 26 0;
#X connect 26 0 19 2;
#X connect 27 0 19 0;
#X connect 28 0 27 0;
#X connect 29 0 18 0;
#X connect 30 0 17 0;
#X connect 31 0 24 0;
#X connect 33 0 1 0;
#X connect 34 0 2 0;
#X connect 37 0 13 3;
#X connect 37 0 31 1;
#X connect 37 0 30 1;
#X connect 37 0 29 1;
#X connect 38 0 11 0;
#X connect 39 0 25 0;
#X connect 39 2 21 0;
#X connect 40 0 26 1;
#X connect 41 0 26 2;
#X connect 42 0 16 0;
#X connect 42 2 15 0;
#X connect 43 0 12 0;
#X connect 44 0 0 0;
#X connect 44 2 5 0;
#X connect 45 0 3 0;
#X connect 45 2 7 0;
#X connect 46 0 4 0;
#X connect 46 2 9 0;
#X connect 47 0 29 0;
#X connect 48 0 30 0;
#X connect 49 0 51 0;
#X connect 49 2 50 0;
#X connect 50 0 20 0;
#X connect 51 0 31 0;
#X connect 53 0 54 0;
