#N canvas 507 22 618 504 10;
#X obj 18 220 r~ 1-nothing;
#X obj 75 260 r~ 1-nothing;
#X obj 18 200 r \$1-\$2L-r;
#X obj 75 240 r \$1-\$2R-r;
#X obj 209 441 s~ \$1-\$2R;
#X obj 18 441 s~ \$1-\$2L;
#N canvas 433 132 487 515 shaper------------------- 0;
#X obj 209 414 cos~;
#X obj 225 354 ==~ 0;
#X obj 209 374 *~;
#X obj 209 394 +~ 0.25;
#X obj 120 186 *~;
#X obj 142 96 *~;
#X obj 209 274 *~ 2;
#X obj 258 114 / 256;
#X obj 258 94 abs;
#X obj 258 74 - 257;
#X obj 333 110 / 64;
#X obj 142 26 inlet~ envelope;
#X obj 209 434 outlet~;
#X obj 258 26 inlet limit;
#X obj 345 26 inlet depth;
#X obj 99 414 cos~;
#X obj 115 354 ==~ 0;
#X obj 99 374 *~;
#X obj 99 394 +~ 0.25;
#X obj 60 186 *~;
#X obj 99 274 *~ 2;
#X obj 99 434 outlet~;
#X obj 20 26 inlet~;
#X obj 80 26 inlet~;
#X obj 333 150 line~;
#X obj 268 223 *~;
#X obj 288 289 *~ -1;
#X obj 333 170 *~ 2;
#X obj 258 154 line~;
#X obj 150 324 <~;
#X obj 260 324 <~;
#X obj 225 324 >~;
#X obj 115 324 >~;
#X msg 333 130 \$1 50;
#X msg 258 134 \$1 40;
#X connect 0 0 12 0;
#X connect 1 0 2 1;
#X connect 2 0 3 0;
#X connect 3 0 0 0;
#X connect 4 0 6 0;
#X connect 5 0 4 1;
#X connect 5 0 19 1;
#X connect 6 0 2 0;
#X connect 6 0 30 0;
#X connect 6 0 31 0;
#X connect 7 0 34 0;
#X connect 8 0 7 0;
#X connect 9 0 8 0;
#X connect 10 0 33 0;
#X connect 11 0 5 0;
#X connect 13 0 9 0;
#X connect 14 0 10 0;
#X connect 15 0 21 0;
#X connect 16 0 17 1;
#X connect 17 0 18 0;
#X connect 18 0 15 0;
#X connect 19 0 20 0;
#X connect 20 0 17 0;
#X connect 20 0 29 0;
#X connect 20 0 32 0;
#X connect 22 0 19 0;
#X connect 23 0 4 0;
#X connect 24 0 27 0;
#X connect 24 0 5 1;
#X connect 25 0 26 0;
#X connect 25 0 31 1;
#X connect 25 0 32 1;
#X connect 26 0 30 1;
#X connect 26 0 29 1;
#X connect 27 0 25 1;
#X connect 28 0 25 0;
#X connect 29 0 16 0;
#X connect 30 0 1 0;
#X connect 31 0 1 0;
#X connect 32 0 16 0;
#X connect 33 0 24 0;
#X connect 34 0 28 0;
#X restore 78 401 pd shaper-------------------;
#X text 301 21 from shaper0.0.5.pd;
#X obj 173 252 phasor~ 0.1;
#X obj 173 202 t a b;
#X msg 245 232 0;
#N canvas 514 142 319 299 f2s 0;
#X obj 27 25 inlet;
#X obj 27 225 outlet;
#X msg 104 165 set \$1;
#X obj 27 195 makefilename;
#X obj 27 55 t f f f;
#X obj 50 95 -;
#X obj 50 115 sel 0;
#X msg 50 145 set %d;
#X obj 71 75 int;
#X obj 105 125 * 10.001;
#X obj 104 145 makefilename %%d.%01d;
#X connect 0 0 4 0;
#X connect 2 0 3 0;
#X connect 3 0 1 0;
#X connect 4 0 3 0;
#X connect 4 1 5 0;
#X connect 4 2 8 0;
#X connect 5 0 6 0;
#X connect 6 0 7 0;
#X connect 6 1 9 0;
#X connect 7 0 3 0;
#X connect 8 0 5 1;
#X connect 9 0 10 0;
#X connect 10 0 2 0;
#X restore 445 92 pd f2s;
#X obj 173 142 mmm-ticks2ms;
#X msg 173 162 1000 \$1;
#X obj 173 182 /;
#X obj 78 310 *~;
#X obj 125 310 *~;
#X obj 18 401 *~;
#X obj 45 401 *~;
#X obj 33 130 cos;
#X obj 114 123 sin;
#X obj 33 92 * 0.015708;
#X obj 114 163 line~;
#X obj 33 170 line~;
#X msg 33 150 \$1 10;
#X msg 114 143 \$1 10;
#X obj 173 232 * -1;
#X obj 493 92 * 0.1;
#X obj 173 122 * 0.1;
#X obj 296 382 *;
#X msg 296 362 \$1 \$1;
#X obj 240 332 * 2;
#X obj 173 322 lop~;
#X obj 196 302 mtof;
#X obj 20 21 mmm-module \$1 \$2 shaper 4;
#X obj 33 62 mmm-ctrl \$1 \$2 1 dry-wet 0 100 100 int;
#X obj 173 92 mmm-ctrl \$1 \$2 2 envelope 1 160 80 ext;
#X obj 196 272 mmm-ctrl \$1 \$2 3 attack 1 128 64 int;
#X obj 240 302 mmm-ctrl \$1 \$2 4 limit 1 128 64 int;
#X obj 296 332 mmm-ctrl \$1 \$2 5 depth 0 128 16 int;
#X msg 203 21 version 0.3.4;
#X connect 0 0 15 0;
#X connect 0 0 17 0;
#X connect 1 0 16 0;
#X connect 1 0 18 0;
#X connect 2 0 0 0;
#X connect 3 0 1 0;
#X connect 6 0 5 0;
#X connect 6 1 4 0;
#X connect 8 0 32 0;
#X connect 9 0 26 0;
#X connect 9 1 10 0;
#X connect 10 0 8 1;
#X connect 11 0 36 1;
#X connect 12 0 13 0;
#X connect 13 0 14 0;
#X connect 14 0 9 0;
#X connect 15 0 6 0;
#X connect 16 0 6 1;
#X connect 17 0 5 0;
#X connect 18 0 4 0;
#X connect 19 0 24 0;
#X connect 20 0 25 0;
#X connect 21 0 20 0;
#X connect 21 0 19 0;
#X connect 22 0 16 1;
#X connect 22 0 15 1;
#X connect 23 0 18 1;
#X connect 23 0 17 1;
#X connect 24 0 23 0;
#X connect 25 0 22 0;
#X connect 26 0 8 0;
#X connect 27 0 11 0;
#X connect 28 0 12 0;
#X connect 29 0 6 4;
#X connect 30 0 29 0;
#X connect 31 0 6 3;
#X connect 32 0 6 2;
#X connect 33 0 32 1;
#X connect 35 0 21 0;
#X connect 36 0 28 0;
#X connect 36 2 27 0;
#X connect 37 0 33 0;
#X connect 38 0 31 0;
#X connect 39 0 30 0;
