#N canvas 21 22 701 475 10;
#X obj 10 360 r~ 1-nothing;
#X obj 103 360 r~ 1-nothing;
#X obj 220 330 osc~;
#X obj 220 230 line~;
#X obj 220 310 mtof~;
#X obj 204 390 *~;
#X obj 293 130 * 0.1;
#X obj 426 260 * 0.01;
#X obj 204 350 *~;
#X obj 10 340 r \$1-\$2L-r;
#X obj 103 340 r \$1-\$2R-r;
#X obj 103 429 s~ \$1-\$2R;
#X obj 10 429 s~ \$1-\$2L;
#X obj 220 210 pack;
#X obj 220 130 +;
#X obj 236 100 t b f;
#X obj 220 150 max 0;
#N canvas 514 142 311 291 f2s 0;
#X obj 27 25 inlet;
#X obj 27 225 outlet;
#X msg 104 165 set \$1;
#X obj 27 195 makefilename;
#X obj 27 55 t f f f;
#X obj 50 95 -;
#X obj 50 115 sel 0;
#X msg 50 145 set %d;
#X obj 71 75 int;
#X obj 105 125 * 10.001;
#X obj 104 145 makefilename %%d.%d;
#X connect 0 0 4 0;
#X connect 2 0 3 0;
#X connect 3 0 1 0;
#X connect 4 0 3 0;
#X connect 4 1 5 0;
#X connect 4 2 8 0;
#X connect 5 0 6 0;
#X connect 6 0 7 0;
#X connect 6 1 9 0;
#X connect 7 0 3 0;
#X connect 8 0 5 1;
#X connect 9 0 10 0;
#X connect 10 0 2 0;
#X restore 538 110 pd f2s;
#X obj 586 110 * 0.1;
#X obj 293 150 mmm-ticks2ms;
#X obj 170 310 min~ 1;
#X obj 578 180 * 2;
#X obj 341 300 cos;
#X obj 430 300 sin;
#X obj 341 220 * 0.015708;
#X msg 341 340 \$1 10;
#X msg 430 340 \$1 10;
#X obj 341 200 + 50;
#X obj 430 360 line~;
#X obj 341 360 line~;
#X obj 341 320 *;
#X obj 430 320 *;
#X obj 386 317 t b f;
#X obj 244 390 *~;
#X obj 20 20 mmm-module \$1 \$2 sinus 5;
#X obj 236 80 mmm-ctrl \$1 \$2 4 transpose -24 24 0 int;
#X obj 293 110 mmm-ctrl \$1 \$2 5 glide 0 160 1 ext;
#X obj 426 240 mmm-ctrl \$1 \$2 2 level 0 100 30 int;
#X obj 341 180 mmm-ctrl \$1 \$2 3 pan -50 50 0 ext;
#X obj 104 50 mmm-ctrl \$1 \$2 1 notes 0 127 -1 ext;
#X msg 247 20 version 0.3.9;
#X obj 358 50 mmm-notename;
#X connect 0 0 12 0;
#X connect 1 0 11 0;
#X connect 2 0 8 1;
#X connect 3 0 4 0;
#X connect 3 0 20 0;
#X connect 4 0 2 0;
#X connect 5 0 12 0;
#X connect 6 0 19 0;
#X connect 7 0 32 0;
#X connect 8 0 5 0;
#X connect 8 0 33 0;
#X connect 9 0 0 0;
#X connect 10 0 1 0;
#X connect 13 0 3 0;
#X connect 14 0 16 0;
#X connect 15 0 14 0;
#X connect 15 1 14 1;
#X connect 16 0 13 0;
#X connect 17 0 36 1;
#X connect 18 0 17 0;
#X connect 19 0 13 1;
#X connect 20 0 8 0;
#X connect 21 0 38 1;
#X connect 22 0 30 0;
#X connect 23 0 31 0;
#X connect 24 0 23 0;
#X connect 24 0 22 0;
#X connect 25 0 29 0;
#X connect 26 0 28 0;
#X connect 27 0 24 0;
#X connect 28 0 33 1;
#X connect 29 0 5 1;
#X connect 30 0 25 0;
#X connect 31 0 26 0;
#X connect 32 0 30 0;
#X connect 32 0 31 0;
#X connect 32 1 30 1;
#X connect 32 1 31 1;
#X connect 33 0 11 0;
#X connect 35 0 15 0;
#X connect 36 0 6 0;
#X connect 36 2 18 0;
#X connect 37 0 7 0;
#X connect 38 0 27 0;
#X connect 38 2 21 0;
#X connect 39 0 14 0;
#X connect 39 2 41 0;
#X connect 41 0 39 1;
