#N canvas 25 22 447 392 10;
#X obj 137 287 r~ 1-nothing;
#X obj 237 287 r~ 1-nothing;
#X obj 17 257 vline~;
#X obj 17 67 mtof;
#X obj 17 87 t b f;
#X obj 72 257 osc~;
#X obj 17 287 *~;
#X obj 137 257 r \$1-\$2L-r;
#X obj 237 257 r \$1-\$2R-r;
#X obj 137 317 s~ \$1-\$2L;
#X obj 237 317 s~ \$1-\$2R;
#X obj 17 47 mmm-ctrl \$1 \$2 1 notes 16 127 15 ext;
#X obj 32 137 * 0.01;
#X obj 32 117 mmm-ctrl \$1 \$2 2 level 0 100 -1 int;
#X obj 276 47 mmm-notename;
#X msg 17 237 \$1 1 0 \, 0 \$2 1;
#X obj 102 187 * 2;
#X obj 102 167 mmm-ctrl \$1 \$2 3 decay 0 100 50 int;
#X obj 17 187 f 0.8;
#X obj 17 207 pack f 100;
#X obj 152 137 * 0.01;
#X msg 270 17 version 0.3.7;
#X obj 17 17 mmm-module \$1 \$2 sinusblip 3;
#X connect 0 0 9 0;
#X connect 1 0 10 0;
#X connect 2 0 6 0;
#X connect 3 0 4 0;
#X connect 4 0 18 0;
#X connect 4 1 5 0;
#X connect 5 0 6 1;
#X connect 6 0 9 0;
#X connect 6 0 10 0;
#X connect 7 0 0 0;
#X connect 8 0 1 0;
#X connect 11 0 3 0;
#X connect 11 2 14 0;
#X connect 12 0 18 0;
#X connect 13 0 12 0;
#X connect 13 1 20 0;
#X connect 14 0 11 1;
#X connect 15 0 2 0;
#X connect 16 0 19 1;
#X connect 17 0 16 0;
#X connect 18 0 19 0;
#X connect 19 0 15 0;
#X connect 20 0 18 1;
