#N canvas 29 22 658 466 10;
#X obj 114 398 r~ 1-nothing;
#X obj 207 398 r~ 1-nothing;
#X obj 144 249 line~;
#X obj 144 279 mtof~;
#X obj 210 121 * 0.1;
#X obj 314 151 * 0.01;
#X obj 128 319 *~;
#X obj 114 378 r \$1-\$2L-r;
#X obj 207 378 r \$1-\$2R-r;
#X obj 207 418 s~ \$1-\$2R;
#X obj 114 418 s~ \$1-\$2L;
#X obj 144 229 pack;
#X obj 144 121 +;
#X obj 158 91 t b f;
#X obj 144 209 max 0;
#N canvas 514 142 311 291 f2s 0;
#X obj 27 25 inlet;
#X obj 27 225 outlet;
#X msg 104 165 set \$1;
#X obj 27 195 makefilename;
#X obj 27 55 t f f f;
#X obj 50 95 -;
#X obj 50 115 sel 0;
#X msg 50 145 set %d;
#X obj 71 75 int;
#X obj 105 125 * 10.001;
#X obj 104 145 makefilename %%d.%d;
#X connect 0 0 4 0;
#X connect 2 0 3 0;
#X connect 3 0 1 0;
#X connect 4 0 3 0;
#X connect 4 1 5 0;
#X connect 4 2 8 0;
#X connect 5 0 6 0;
#X connect 6 0 7 0;
#X connect 6 1 9 0;
#X connect 7 0 3 0;
#X connect 8 0 5 1;
#X connect 9 0 10 0;
#X connect 10 0 2 0;
#X restore 455 101 pd f2s;
#X obj 503 101 * 0.1;
#X obj 210 141 mmm-ticks2ms;
#N canvas 25 301 816 556 slopes 0;
#X obj 16 21 inlet~;
#X obj 221 473 outlet~;
#X obj 110 259 phasor~;
#X obj 202 310 *~;
#X obj 110 293 *~ -1;
#X obj 110 318 +~ 1;
#X obj 251 344 *~;
#X obj 216 379 min~;
#X obj 187 207 osc~;
#X obj 189 229 *~ 0.5;
#X obj 260 218 osc~;
#X obj 262 240 *~ 0.5;
#X obj 224 421 *~ 2;
#X obj 224 449 +~ -0.5;
#X obj 267 426 - 0.5;
#X obj 267 406 * 0.5;
#X obj 187 185 *~ 1;
#X obj 260 196 *~ 1;
#X obj 362 206 * 0.01;
#X obj 304 273 sig~ 0.5;
#X obj 107 135 *~ 0.001;
#X obj 362 186 mmm-ctrl \$1 \$2 6 slopes 0 50 45 int;
#X obj 196 97 mmm-ctrl \$1 \$2 7 up 0 127 0 int;
#X obj 283 156 mmm-ctrl \$1 \$2 8 down 0 127 0 int;
#X connect 0 0 2 0;
#X connect 0 0 20 0;
#X connect 2 0 3 0;
#X connect 2 0 4 0;
#X connect 3 0 7 0;
#X connect 4 0 5 0;
#X connect 5 0 6 0;
#X connect 6 0 7 1;
#X connect 7 0 12 0;
#X connect 8 0 9 0;
#X connect 9 0 3 1;
#X connect 10 0 11 0;
#X connect 11 0 6 1;
#X connect 12 0 13 0;
#X connect 13 0 1 0;
#X connect 14 0 13 1;
#X connect 15 0 14 0;
#X connect 16 0 8 0;
#X connect 17 0 10 0;
#X connect 18 0 15 0;
#X connect 18 0 11 1;
#X connect 18 0 9 1;
#X connect 19 0 3 1;
#X connect 19 0 6 1;
#X connect 20 0 16 0;
#X connect 20 0 17 0;
#X connect 21 0 18 0;
#X connect 21 1 18 0;
#X connect 22 0 16 1;
#X connect 22 1 16 1;
#X connect 23 0 17 1;
#X connect 23 1 17 1;
#X restore 144 299 pd slopes;
#X obj 94 279 min~ 1;
#X obj 158 71 mmm-ctrl \$1 \$2 4 transpose -24 24 0 int;
#X obj 210 101 mmm-ctrl \$1 \$2 5 glide 0 160 1 ext;
#X obj 28 21 mmm-module \$1 \$2 slopes 8;
#X obj 612 161 * 2;
#X obj 128 349 *~;
#X obj 269 241 cos;
#X obj 373 241 sin;
#X obj 373 201 * 0.015708;
#X msg 269 281 \$1 10;
#X msg 373 281 \$1 10;
#X obj 373 181 + 50;
#X obj 373 301 line~;
#X obj 269 301 line~;
#X obj 269 261 *;
#X obj 373 261 *;
#X obj 314 171 t b f;
#X obj 198 349 *~;
#X obj 314 131 mmm-ctrl \$1 \$2 2 level 0 100 30 int;
#X obj 374 161 mmm-ctrl \$1 \$2 3 pan -50 50 0 ext;
#X obj 28 51 mmm-ctrl \$1 \$2 1 notes 0 127 -1 ext;
#X msg 255 21 version 0.3.4;
#X obj 283 51 mmm-notename;
#X connect 0 0 10 0;
#X connect 1 0 9 0;
#X connect 2 0 3 0;
#X connect 2 0 19 0;
#X connect 3 0 18 0;
#X connect 4 0 17 0;
#X connect 5 0 35 0;
#X connect 6 0 24 0;
#X connect 6 0 36 0;
#X connect 7 0 0 0;
#X connect 8 0 1 0;
#X connect 11 0 2 0;
#X connect 12 0 14 0;
#X connect 13 0 12 0;
#X connect 13 1 12 1;
#X connect 14 0 11 0;
#X connect 15 0 21 1;
#X connect 16 0 15 0;
#X connect 17 0 11 1;
#X connect 18 0 6 1;
#X connect 19 0 6 0;
#X connect 20 0 13 0;
#X connect 21 0 4 0;
#X connect 21 2 16 0;
#X connect 23 0 38 1;
#X connect 24 0 10 0;
#X connect 25 0 33 0;
#X connect 26 0 34 0;
#X connect 27 0 26 0;
#X connect 27 0 25 0;
#X connect 28 0 32 0;
#X connect 29 0 31 0;
#X connect 30 0 27 0;
#X connect 31 0 36 1;
#X connect 32 0 24 1;
#X connect 33 0 28 0;
#X connect 34 0 29 0;
#X connect 35 0 33 0;
#X connect 35 0 34 0;
#X connect 35 1 33 1;
#X connect 35 1 34 1;
#X connect 36 0 9 0;
#X connect 37 0 5 0;
#X connect 38 0 30 0;
#X connect 38 2 23 0;
#X connect 39 0 12 0;
#X connect 39 2 41 0;
#X connect 41 0 39 1;
