#N canvas 663 22 484 342 10;
#X text 16 287 billiges testmodule III;
#X obj 81 201 osc~ 440;
#X obj 16 252 s~ \$1L;
#X obj 166 252 s~ \$1R;
#X obj 16 142 r \$1L-r;
#X obj 166 142 r \$1R-r;
#X obj 269 170 route set;
#X obj 270 190 symbol;
#X symbolatom 271 217 10 0 0 0 - - -;
#X obj 16 162 r~ 1-nothing;
#X obj 166 162 r~ 1-nothing;
#X obj 28 78 osc~;
#X obj 28 28 mmm-module-register \$1 sinus440 2;
#X obj 81 137 +~ 440;
#X obj 28 48 mmm-controller \$1 1 fm-freq 0 10 0 int;
#X msg 340 21 version 0.0.4;
#X obj 104 97 mmm-controller \$1 2 fm-amp 0 100 0 int;
#X obj 81 117 *~ 0;
#X connect 1 0 2 0;
#X connect 1 0 3 0;
#X connect 4 0 9 0;
#X connect 5 0 6 0;
#X connect 5 0 10 0;
#X connect 6 0 7 0;
#X connect 7 0 8 0;
#X connect 9 0 2 0;
#X connect 10 0 3 0;
#X connect 11 0 17 0;
#X connect 13 0 1 0;
#X connect 14 0 11 0;
#X connect 16 0 17 1;
#X connect 17 0 13 0;
