#N canvas 104 48 388 212 10;
#N canvas 46 391 484 381 dsp-guts 0;
#X obj 15 207 *~;
#X obj 15 47 mtof;
#X obj 208 167 vline~;
#X obj 15 67 t f b;
#X obj 15 187 vcf~ 3;
#X obj 15 117 phasor~ 0;
#X obj 15 147 -~ 0.5;
#X obj 15 167 *~ 2;
#X obj 344 72 pow 2;
#X obj 344 91 * 8000;
#X obj 45 287 r~ 1-nothing;
#X obj 195 287 r~ 1-nothing;
#X obj 128 230 *~ 1;
#X obj 195 267 r \$1-\$2R-r;
#X obj 195 307 s~ \$1-\$2R;
#X obj 45 307 s~ \$1-\$2L;
#X obj 45 267 r \$1-\$2L-r;
#X obj 15 17 inlet notes-seq;
#X obj 249 17 inlet decay;
#X obj 344 17 inlet cutoff;
#X obj 344 52 * 0.01;
#X obj 151 17 inlet level;
#X obj 208 127 f;
#X obj 208 197 *~;
#X msg 208 147 1 10 \, 0 \$1 10;
#X obj 249 77 * 4;
#X connect 0 0 14 0;
#X connect 0 0 15 0;
#X connect 1 0 3 0;
#X connect 2 0 12 0;
#X connect 2 0 23 0;
#X connect 3 0 5 0;
#X connect 3 1 22 0;
#X connect 4 0 0 0;
#X connect 5 0 6 0;
#X connect 6 0 7 0;
#X connect 7 0 4 0;
#X connect 8 0 9 0;
#X connect 9 0 23 1;
#X connect 10 0 15 0;
#X connect 11 0 14 0;
#X connect 12 0 0 1;
#X connect 13 0 11 0;
#X connect 16 0 10 0;
#X connect 17 0 1 0;
#X connect 18 0 25 0;
#X connect 19 0 20 0;
#X connect 20 0 8 0;
#X connect 21 0 12 1;
#X connect 22 0 24 0;
#X connect 23 0 4 1;
#X connect 24 0 2 0;
#X connect 25 0 22 1;
#X restore 20 158 pd dsp-guts;
#X text 20 178 port of bot2's subsynth;
#X obj 20 18 mmm-module \$1 \$2 subsynth 4;
#X msg 272 18 version 0.3.4;
#X obj 44 88 * 0.01;
#X obj 68 108 mmm-ctrl \$1 \$2 4 decay 0 127 64 int;
#X obj 44 68 mmm-ctrl \$1 \$2 2 level 0 100 50 int;
#X obj 92 128 mmm-ctrl \$1 \$2 3 cutoff 0 100 50 int;
#X obj 20 48 mmm-ctrl \$1 \$2 1 notes 16 127 15 ext;
#X obj 282 48 mmm-notename;
#X connect 4 0 0 1;
#X connect 5 0 0 2;
#X connect 6 0 4 0;
#X connect 7 0 0 3;
#X connect 8 0 0 0;
#X connect 8 2 9 0;
#X connect 9 0 8 1;
