#N canvas 16 22 614 397 10;
#X obj 28 81 r~ 1-nothing;
#X obj 138 81 r~ 1-nothing;
#X obj 138 61 r \$1-\$2R-r;
#X obj 28 61 r \$1-\$2L-r;
#X obj 28 341 s~ \$1-\$2L;
#X obj 138 341 s~ \$1-\$2R;
#N canvas 514 142 311 291 f2s 0;
#X obj 27 25 inlet;
#X obj 27 225 outlet;
#X msg 104 165 set \$1;
#X obj 27 195 makefilename;
#X obj 27 55 t f f f;
#X obj 50 95 -;
#X obj 50 115 sel 0;
#X msg 50 145 set %d;
#X obj 71 75 int;
#X obj 104 145 makefilename %%d.%01d;
#X obj 105 125 * 10.001;
#X connect 0 0 4 0;
#X connect 2 0 3 0;
#X connect 3 0 1 0;
#X connect 4 0 3 0;
#X connect 4 1 5 0;
#X connect 4 2 8 0;
#X connect 5 0 6 0;
#X connect 6 0 7 0;
#X connect 6 1 10 0;
#X connect 7 0 3 0;
#X connect 8 0 5 1;
#X connect 9 0 2 0;
#X connect 10 0 9 0;
#X restore 482 131 pd f2s;
#X obj 530 131 * 0.1;
#X obj 28 21 mmm-module \$1 \$2 sampler 8;
#X obj 238 111 mmm-ctrl \$1 \$2 1 recA 1 100 10 ext;
#N canvas 514 142 311 291 f2s 0;
#X obj 27 25 inlet;
#X obj 27 225 outlet;
#X msg 104 165 set \$1;
#X obj 27 195 makefilename;
#X obj 27 55 t f f f;
#X obj 50 95 -;
#X obj 50 115 sel 0;
#X msg 50 145 set %d;
#X obj 71 75 int;
#X obj 104 145 makefilename %%d.%01d;
#X obj 105 125 * 10.001;
#X connect 0 0 4 0;
#X connect 2 0 3 0;
#X connect 3 0 1 0;
#X connect 4 0 3 0;
#X connect 4 1 5 0;
#X connect 4 2 8 0;
#X connect 5 0 6 0;
#X connect 6 0 7 0;
#X connect 6 1 10 0;
#X connect 7 0 3 0;
#X connect 8 0 5 1;
#X connect 9 0 2 0;
#X connect 10 0 9 0;
#X restore 482 111 pd f2s;
#X obj 530 111 * 0.1;
#X obj 238 131 mmm-ctrl \$1 \$2 2 recB 1 100 10 ext;
#N canvas 514 142 311 291 f2s 0;
#X obj 27 25 inlet;
#X obj 27 225 outlet;
#X msg 104 165 set \$1;
#X obj 27 195 makefilename;
#X obj 27 55 t f f f;
#X obj 50 95 -;
#X obj 50 115 sel 0;
#X msg 50 145 set %d;
#X obj 71 75 int;
#X obj 104 145 makefilename %%d.%01d;
#X obj 105 125 * 10.001;
#X connect 0 0 4 0;
#X connect 2 0 3 0;
#X connect 3 0 1 0;
#X connect 4 0 3 0;
#X connect 4 1 5 0;
#X connect 4 2 8 0;
#X connect 5 0 6 0;
#X connect 6 0 7 0;
#X connect 6 1 10 0;
#X connect 7 0 3 0;
#X connect 8 0 5 1;
#X connect 9 0 2 0;
#X connect 10 0 9 0;
#X restore 482 171 pd f2s;
#X obj 530 171 * 0.1;
#N canvas 514 142 311 291 f2s 0;
#X obj 27 25 inlet;
#X obj 27 225 outlet;
#X msg 104 165 set \$1;
#X obj 27 195 makefilename;
#X obj 27 55 t f f f;
#X obj 50 95 -;
#X obj 50 115 sel 0;
#X msg 50 145 set %d;
#X obj 71 75 int;
#X obj 104 145 makefilename %%d.%01d;
#X obj 105 125 * 10.001;
#X connect 0 0 4 0;
#X connect 2 0 3 0;
#X connect 3 0 1 0;
#X connect 4 0 3 0;
#X connect 4 1 5 0;
#X connect 4 2 8 0;
#X connect 5 0 6 0;
#X connect 6 0 7 0;
#X connect 6 1 10 0;
#X connect 7 0 3 0;
#X connect 8 0 5 1;
#X connect 9 0 2 0;
#X connect 10 0 9 0;
#X restore 482 151 pd f2s;
#X obj 530 151 * 0.1;
#X obj 238 151 mmm-ctrl \$1 \$2 3 recC 1 100 10 ext;
#X obj 238 171 mmm-ctrl \$1 \$2 4 recD 1 100 10 ext;
#N canvas 155 22 602 503 write 0;
#X obj 29 309 inlet~;
#X obj 189 309 inlet~;
#X obj 29 429 outlet~;
#X obj 22 99 mmm-ticks2ms;
#X obj 22 79 * 0.1;
#X obj 22 49 route recA recB recC recD;
#X obj 126 99 mmm-ticks2ms;
#X obj 126 79 * 0.1;
#X obj 230 99 mmm-ticks2ms;
#X obj 230 79 * 0.1;
#X obj 334 99 mmm-ticks2ms;
#X obj 334 79 * 0.1;
#X obj 29 339 tabwrite~ \$3-A-L;
#X obj 29 359 tabwrite~ \$3-B-L;
#X obj 29 379 tabwrite~ \$3-C-L;
#X obj 29 399 tabwrite~ \$3-D-L;
#X obj 189 339 tabwrite~ \$3-A-R;
#X obj 189 359 tabwrite~ \$3-B-R;
#X obj 189 379 tabwrite~ \$3-C-R;
#X obj 189 399 tabwrite~ \$3-D-R;
#X obj 104 244 pipe;
#X obj 84 224 unpack f f;
#X msg 22 199 1 \$1;
#X obj 84 284 route 1 2 3 4;
#X msg 104 264 \$1 stop;
#X msg 126 199 2 \$1;
#X msg 230 199 3 \$1;
#X msg 334 199 4 \$1;
#X obj 250 159 mmm-table \$3-C;
#X obj 395 21 inlet;
#X obj 42 159 mmm-table \$3-A;
#X obj 146 159 mmm-table \$3-B;
#X obj 354 159 mmm-table \$3-D;
#X obj 447 139 * 44.1;
#X obj 343 139 * 44.1;
#X obj 239 139 * 44.1;
#X obj 135 139 * 44.1;
#X connect 0 0 12 0;
#X connect 0 0 13 0;
#X connect 0 0 14 0;
#X connect 0 0 15 0;
#X connect 1 0 16 0;
#X connect 1 0 17 0;
#X connect 1 0 18 0;
#X connect 1 0 19 0;
#X connect 3 0 22 0;
#X connect 3 0 36 0;
#X connect 4 0 3 0;
#X connect 5 0 4 0;
#X connect 5 1 7 0;
#X connect 5 2 9 0;
#X connect 5 3 11 0;
#X connect 6 0 25 0;
#X connect 6 0 35 0;
#X connect 7 0 6 0;
#X connect 8 0 26 0;
#X connect 8 0 34 0;
#X connect 9 0 8 0;
#X connect 10 0 27 0;
#X connect 10 0 33 0;
#X connect 11 0 10 0;
#X connect 20 0 24 0;
#X connect 21 0 20 0;
#X connect 21 0 23 0;
#X connect 21 1 20 1;
#X connect 22 0 21 0;
#X connect 23 0 12 0;
#X connect 23 0 16 0;
#X connect 23 1 13 0;
#X connect 23 1 17 0;
#X connect 23 2 14 0;
#X connect 23 2 18 0;
#X connect 23 3 15 0;
#X connect 23 3 19 0;
#X connect 24 0 23 0;
#X connect 25 0 21 0;
#X connect 26 0 21 0;
#X connect 27 0 21 0;
#X connect 29 0 5 0;
#X connect 33 0 32 1;
#X connect 34 0 28 1;
#X connect 35 0 31 1;
#X connect 36 0 30 1;
#X restore 63 111 pd write;
#N canvas 166 22 823 372 read 0;
#X obj 19 19 inlet~;
#X obj 18 287 outlet~;
#X obj 623 287 outlet~;
#X obj 18 99 * 0.01;
#X obj 208 99 * 0.01;
#X obj 18 139 sel 0;
#X obj 208 139 sel 0;
#X msg 18 159 bang;
#X msg 208 159 bang;
#X obj 208 119 t a a;
#X obj 18 119 t a a;
#X obj 18 219 *~ 0;
#X obj 53 219 *~ 0;
#X obj 208 219 *~ 0;
#X obj 243 219 *~ 0;
#X obj 398 99 * 0.01;
#X obj 398 139 sel 0;
#X msg 398 159 bang;
#X obj 398 119 t a a;
#X obj 398 219 *~ 0;
#X obj 433 219 *~ 0;
#X obj 588 99 * 0.01;
#X obj 588 139 sel 0;
#X msg 588 159 bang;
#X obj 588 119 t a a;
#X obj 588 219 *~ 0;
#X obj 623 219 *~ 0;
#X obj 18 179 tabplay~ \$3-A-L;
#X obj 53 199 tabplay~ \$3-A-R;
#X obj 208 179 tabplay~ \$3-B-L;
#X obj 243 199 tabplay~ \$3-B-R;
#X obj 398 179 tabplay~ \$3-C-L;
#X obj 433 199 tabplay~ \$3-C-R;
#X obj 588 179 tabplay~ \$3-D-L;
#X obj 623 199 tabplay~ \$3-D-R;
#X obj 78 19 inlet;
#X obj 78 49 route playA playB playC playD;
#X connect 3 0 10 0;
#X connect 4 0 9 0;
#X connect 5 1 7 0;
#X connect 6 1 8 0;
#X connect 7 0 27 0;
#X connect 7 0 28 0;
#X connect 8 0 29 0;
#X connect 8 0 30 0;
#X connect 9 0 6 0;
#X connect 9 1 13 1;
#X connect 9 1 14 1;
#X connect 10 0 5 0;
#X connect 10 1 11 1;
#X connect 10 1 12 1;
#X connect 11 0 1 0;
#X connect 12 0 2 0;
#X connect 13 0 1 0;
#X connect 14 0 2 0;
#X connect 15 0 18 0;
#X connect 16 1 17 0;
#X connect 17 0 31 0;
#X connect 17 0 32 0;
#X connect 18 0 16 0;
#X connect 18 1 19 1;
#X connect 18 1 20 1;
#X connect 19 0 1 0;
#X connect 20 0 2 0;
#X connect 21 0 24 0;
#X connect 22 1 23 0;
#X connect 23 0 33 0;
#X connect 23 0 34 0;
#X connect 24 0 22 0;
#X connect 24 1 25 1;
#X connect 24 1 26 1;
#X connect 25 0 1 0;
#X connect 26 0 2 0;
#X connect 27 0 11 0;
#X connect 28 0 12 0;
#X connect 29 0 13 0;
#X connect 30 0 14 0;
#X connect 31 0 19 0;
#X connect 32 0 20 0;
#X connect 33 0 25 0;
#X connect 34 0 26 0;
#X connect 35 0 36 0;
#X connect 36 0 3 0;
#X connect 36 1 4 0;
#X connect 36 2 15 0;
#X connect 36 3 21 0;
#X restore 63 311 pd read;
#X obj 238 191 mmm-ctrl \$1 \$2 5 playA 0 100 0 int;
#X obj 238 211 mmm-ctrl \$1 \$2 6 playB 0 100 0 int;
#X obj 238 231 mmm-ctrl \$1 \$2 7 playC 0 100 0 int;
#X obj 238 251 mmm-ctrl \$1 \$2 8 playD 0 100 0 int;
#X msg 166 131 recA \$1;
#X msg 166 151 recB \$1;
#X msg 166 171 recC \$1;
#X msg 166 191 recD \$1;
#X msg 166 211 playA \$1;
#X msg 166 231 playB \$1;
#X msg 166 251 playC \$1;
#X msg 166 271 playD \$1;
#X msg 259 21 version 0.3.3;
#X connect 0 0 19 0;
#X connect 0 0 4 0;
#X connect 1 0 19 1;
#X connect 1 0 5 0;
#X connect 2 0 1 0;
#X connect 3 0 0 0;
#X connect 6 0 12 1;
#X connect 7 0 6 0;
#X connect 9 0 25 0;
#X connect 9 2 11 0;
#X connect 10 0 9 1;
#X connect 11 0 10 0;
#X connect 12 0 26 0;
#X connect 12 2 7 0;
#X connect 13 0 18 1;
#X connect 14 0 13 0;
#X connect 15 0 17 1;
#X connect 16 0 15 0;
#X connect 17 0 27 0;
#X connect 17 2 16 0;
#X connect 18 0 28 0;
#X connect 18 2 14 0;
#X connect 19 0 20 0;
#X connect 20 0 4 0;
#X connect 20 1 5 0;
#X connect 21 0 29 0;
#X connect 22 0 30 0;
#X connect 23 0 31 0;
#X connect 24 0 32 0;
#X connect 25 0 19 2;
#X connect 26 0 19 2;
#X connect 27 0 19 2;
#X connect 28 0 19 2;
#X connect 29 0 20 1;
#X connect 30 0 20 1;
#X connect 31 0 20 1;
#X connect 32 0 20 1;
