#N canvas 82 22 950 481 10;
#X obj 775 228 makesymbol %s;
#X obj 35 268 r gemmm;
#X obj 28 71 r~ 1-nothing;
#X obj 128 71 r~ 1-nothing;
#X obj 117 328 spigot;
#X obj 177 328 spigot;
#X obj 102 248 == 0;
#X obj 154 248 == 1;
#X obj 214 248 == 2;
#X obj 35 328 spigot;
#X obj 872 228 * 0.02;
#N canvas 567 372 260 182 send_gemmm 0;
#X obj 104 19 loadbang;
#X obj 25 99 list prepend;
#X obj 25 139 s gemmm;
#X obj 25 79 inlet;
#X obj 25 119 list trim;
#X obj 104 59 + 1;
#X obj 104 79 makefilename \$1-%d;
#X obj 104 39 f \$2;
#X connect 0 0 7 0;
#X connect 1 0 4 0;
#X connect 3 0 1 0;
#X connect 4 0 2 0;
#X connect 5 0 6 0;
#X connect 6 0 1 1;
#X connect 7 0 5 0;
#X restore 35 438 pd send_gemmm;
#X msg 332 41 symbol off;
#X obj 332 21 sel 0 1 2 3 4 5 6;
#X obj 117 388 shearXY;
#X obj 503 248 * 0.02;
#X obj 177 388 shearXZ;
#X obj 237 328 spigot;
#X obj 237 388 shearYX;
#X obj 274 248 == 3;
#X obj 297 328 spigot;
#X obj 334 248 == 4;
#X obj 297 388 shearYZ;
#X obj 357 328 spigot;
#X obj 357 388 shearZX;
#X obj 417 328 spigot;
#X obj 417 388 shearZY;
#X obj 394 248 == 5;
#X obj 454 248 == 6;
#X obj 503 348 line;
#X obj 526 288 * 0.1;
#X obj 777 268 makesymbol %s;
#X obj 874 268 * 0.1;
#X msg 348 61 symbol XY;
#X msg 364 81 symbol XZ;
#X msg 380 101 symbol YX;
#X msg 397 121 symbol YZ;
#X msg 413 141 symbol ZX;
#X msg 429 161 symbol ZY;
#X obj 503 328 pack;
#X obj 35 288 route \$1-\$2;
#X obj 526 308 mmm-ticks2ms;
#X obj 526 268 mmm-ctrl \$1 \$2 3 glide 0 160 80 ext;
#X obj 503 228 mmm-ctrl \$1 \$2 2 factor -200 200 0 ext;
#X obj 102 218 t a;
#X obj 28 21 mmm-module \$1 \$2 shear 3;
#X obj 28 51 r \$1-\$2L-r;
#X obj 128 51 r \$1-\$2R-r;
#X obj 28 91 s~ \$1-\$2L;
#X obj 128 91 s~ \$1-\$2R;
#X obj 102 198 mmm-ctrl \$1 \$2 1 shear 0 6 0 ext;
#X msg 215 21 version 0.3.5;
#X connect 0 0 43 1;
#X connect 1 0 40 0;
#X connect 2 0 48 0;
#X connect 3 0 49 0;
#X connect 4 0 14 0;
#X connect 5 0 16 0;
#X connect 6 0 9 1;
#X connect 7 0 4 1;
#X connect 8 0 5 1;
#X connect 9 0 11 0;
#X connect 10 0 0 0;
#X connect 12 0 50 1;
#X connect 13 0 12 0;
#X connect 13 1 33 0;
#X connect 13 2 34 0;
#X connect 13 3 35 0;
#X connect 13 4 36 0;
#X connect 13 5 37 0;
#X connect 13 6 38 0;
#X connect 14 0 11 0;
#X connect 15 0 39 0;
#X connect 16 0 11 0;
#X connect 17 0 18 0;
#X connect 18 0 11 0;
#X connect 19 0 17 1;
#X connect 20 0 22 0;
#X connect 21 0 20 1;
#X connect 22 0 11 0;
#X connect 23 0 24 0;
#X connect 24 0 11 0;
#X connect 25 0 26 0;
#X connect 26 0 11 0;
#X connect 27 0 23 1;
#X connect 28 0 25 1;
#X connect 29 0 26 1;
#X connect 29 0 24 1;
#X connect 29 0 22 1;
#X connect 29 0 18 1;
#X connect 29 0 16 1;
#X connect 29 0 14 1;
#X connect 30 0 41 0;
#X connect 31 0 42 1;
#X connect 32 0 31 0;
#X connect 33 0 50 1;
#X connect 34 0 50 1;
#X connect 35 0 50 1;
#X connect 36 0 50 1;
#X connect 37 0 50 1;
#X connect 38 0 50 1;
#X connect 39 0 29 0;
#X connect 40 0 4 0;
#X connect 40 0 5 0;
#X connect 40 0 9 0;
#X connect 40 0 17 0;
#X connect 40 0 20 0;
#X connect 40 0 23 0;
#X connect 40 0 25 0;
#X connect 41 0 39 1;
#X connect 42 0 30 0;
#X connect 42 2 32 0;
#X connect 43 0 15 0;
#X connect 43 2 10 0;
#X connect 44 0 6 0;
#X connect 44 0 7 0;
#X connect 44 0 8 0;
#X connect 44 0 19 0;
#X connect 44 0 21 0;
#X connect 44 0 27 0;
#X connect 44 0 28 0;
#X connect 46 0 2 0;
#X connect 47 0 3 0;
#X connect 50 0 44 0;
#X connect 50 2 13 0;
