#N canvas 32 22 445 329 10;
#X obj 28 261 r~ 1-nothing;
#X obj 287 51 makesymbol %s;
#X obj 128 261 r~ 1-nothing;
#X obj 128 241 r \$1-\$2R-r;
#X obj 128 281 s~ \$1-\$2R;
#X obj 28 281 s~ \$1-\$2L;
#X obj 28 241 r \$1-\$2L-r;
#X obj 28 91 sig~;
#X obj 384 51 * 0.1;
#X obj 28 51 mmm-ctrl \$1 \$2 1 value 0 1000 10 ext;
#X obj 28 71 * 0.1;
#X obj 355 81 * 2;
#X obj 117 81 mmm-ctrl \$1 \$2 2 pan -50 50 0 ext;
#X obj 28 21 mmm-module \$1 \$2 sig~ 2;
#X obj 40 221 *~;
#X obj 118 151 cos;
#X obj 207 151 sin;
#X obj 117 121 * 0.015708;
#X msg 118 171 \$1 10;
#X msg 207 171 \$1 10;
#X obj 117 101 + 50;
#X obj 207 191 line~;
#X obj 118 191 line~;
#X obj 110 221 *~;
#X msg 250 21 version 0.3.2;
#X connect 0 0 5 0;
#X connect 1 0 9 1;
#X connect 2 0 4 0;
#X connect 3 0 2 0;
#X connect 6 0 0 0;
#X connect 7 0 14 0;
#X connect 7 0 23 0;
#X connect 8 0 1 0;
#X connect 9 0 10 0;
#X connect 9 2 8 0;
#X connect 10 0 7 0;
#X connect 11 0 12 1;
#X connect 12 0 20 0;
#X connect 12 2 11 0;
#X connect 14 0 5 0;
#X connect 15 0 18 0;
#X connect 16 0 19 0;
#X connect 17 0 16 0;
#X connect 17 0 15 0;
#X connect 18 0 22 0;
#X connect 19 0 21 0;
#X connect 20 0 17 0;
#X connect 21 0 23 1;
#X connect 22 0 14 1;
#X connect 23 0 4 0;
