#N canvas 39 22 547 561 10;
#X obj 392 101 makesymbol %s;
#X obj 489 101 * 0.1;
#X obj 28 508 r~ 1-nothing;
#X obj 121 508 r~ 1-nothing;
#X obj 80 328 line~;
#X obj 80 348 mtof~;
#X obj 147 121 * 0.1;
#X obj 80 388 <~ 0.5;
#X obj 157 191 * 0.01;
#X obj 80 408 -~ 0.5;
#X obj 80 368 phasor~ 0;
#X obj 64 428 *~;
#X obj 121 488 r \$1-\$2R-r;
#X obj 121 528 s~ \$1-\$2R;
#X obj 28 528 s~ \$1-\$2L;
#X obj 28 488 r \$1-\$2L-r;
#X obj 80 161 pack;
#X obj 80 121 +;
#X obj 94 91 t b f;
#X obj 80 141 max 0;
#X obj 25 398 min~ 1;
#X obj 28 21 mmm-module \$1 \$2 square 6;
#X obj 434 221 * 2;
#X obj 94 71 mmm-ctrl \$1 \$2 4 transpose -24 24 0 int;
#X obj 147 101 mmm-ctrl \$1 \$2 5 glide 0 160 1 ext;
#X obj 157 171 mmm-ctrl \$1 \$2 6 pulsewidth 0 100 50 int;
#X obj 64 458 *~;
#X obj 197 341 cos;
#X obj 286 341 sin;
#X obj 197 261 * 0.015708;
#X msg 197 381 \$1 10;
#X msg 286 381 \$1 10;
#X obj 197 241 + 50;
#X obj 286 401 line~;
#X obj 197 401 line~;
#X obj 197 361 *;
#X obj 286 361 *;
#X obj 242 331 t b f;
#X obj 104 458 *~;
#X obj 242 311 * 0.02;
#X obj 242 291 mmm-ctrl \$1 \$2 2 level 0 100 30 int;
#X obj 197 221 mmm-ctrl \$1 \$2 3 pan -50 50 0 ext;
#X obj 147 141 mmm-ticks2ms;
#X obj 80 51 mmm-ctrl \$1 \$2 1 notes 0 127 -1 ext;
#X msg 255 21 version 0.3.8;
#X obj 335 51 mmm-notename;
#X connect 0 0 24 1;
#X connect 1 0 0 0;
#X connect 2 0 14 0;
#X connect 3 0 13 0;
#X connect 4 0 5 0;
#X connect 4 0 20 0;
#X connect 5 0 10 0;
#X connect 6 0 42 0;
#X connect 7 0 9 0;
#X connect 8 0 7 1;
#X connect 9 0 11 1;
#X connect 10 0 7 0;
#X connect 11 0 26 0;
#X connect 11 0 38 0;
#X connect 12 0 3 0;
#X connect 15 0 2 0;
#X connect 16 0 4 0;
#X connect 17 0 19 0;
#X connect 18 0 17 0;
#X connect 18 1 17 1;
#X connect 19 0 16 0;
#X connect 20 0 11 0;
#X connect 22 0 41 1;
#X connect 23 0 18 0;
#X connect 24 0 6 0;
#X connect 24 2 1 0;
#X connect 25 0 8 0;
#X connect 26 0 14 0;
#X connect 27 0 35 0;
#X connect 28 0 36 0;
#X connect 29 0 28 0;
#X connect 29 0 27 0;
#X connect 30 0 34 0;
#X connect 31 0 33 0;
#X connect 32 0 29 0;
#X connect 33 0 38 1;
#X connect 34 0 26 1;
#X connect 35 0 30 0;
#X connect 36 0 31 0;
#X connect 37 0 35 0;
#X connect 37 0 36 0;
#X connect 37 1 35 1;
#X connect 37 1 36 1;
#X connect 38 0 13 0;
#X connect 39 0 37 0;
#X connect 40 0 39 0;
#X connect 41 0 32 0;
#X connect 41 2 22 0;
#X connect 42 0 16 1;
#X connect 43 0 17 0;
#X connect 43 2 45 0;
#X connect 45 0 43 1;
