#N canvas 55 199 430 290 10;
#X obj 28 111 r~ 1-nothing;
#X obj 226 111 r~ 1-nothing;
#X obj 28 91 r \$1-\$2L-r;
#X obj 226 91 r \$1-\$2R-r;
#X obj 226 241 s~ \$1-\$2R;
#X obj 28 241 s~ \$1-\$2L;
#N canvas 35 66 278 322 Hann-window 0;
#X msg 141 143 0;
#X obj 35 192 osc~;
#X obj 35 144 samplerate~;
#X obj 35 215 *~ -0.5;
#X obj 35 238 +~ 0.5;
#X obj 27 263 tabwrite~ \$0-hann;
#X obj 35 168 / 512;
#X obj 27 121 bng 15 250 50 0 empty empty empty 0 -6 0 8 -262144 -1
-1;
#X obj 27 26 loadbang;
#X msg 49 59 \; pd dsp 1;
#X obj 101 105 table \$0-hann 512;
#X connect 0 0 1 1;
#X connect 1 0 3 0;
#X connect 2 0 6 0;
#X connect 3 0 4 0;
#X connect 4 0 5 0;
#X connect 6 0 1 0;
#X connect 7 0 2 0;
#X connect 7 0 0 0;
#X connect 7 0 5 0;
#X connect 8 0 7 0;
#X connect 8 0 9 0;
#X restore 28 51 pd Hann-window;
#N canvas 117 22 660 500 fft-windowed-------------- 0;
#X obj 111 49 inlet~;
#X obj 110 133 rfft~;
#X obj 105 318 rifft~;
#X obj 105 415 outlet~;
#X obj 158 268 >~ 0.8;
#X obj 158 168 *~;
#X obj 193 171 *~;
#X obj 105 298 *~;
#X obj 142 298 *~;
#X obj 158 218 q8_sqrt~;
#X obj 547 126 inlet;
#X obj 158 198 +~ 1e-20;
#X obj 327 85 tabreceive~ \$0-hann;
#X obj 112 107 *~;
#X obj 471 35 block~ 512 4;
#X obj 105 378 *~;
#X obj 105 338 /~ 768;
#X obj 158 238 /~ 768;
#X obj 261 49 inlet~;
#X obj 260 133 rfft~;
#X obj 255 318 rifft~;
#X obj 255 415 outlet~;
#X obj 308 268 >~ 0.8;
#X obj 308 168 *~;
#X obj 343 171 *~;
#X obj 255 298 *~;
#X obj 292 298 *~;
#X obj 308 218 q8_sqrt~;
#X obj 308 198 +~ 1e-20;
#X obj 262 107 *~;
#X obj 255 378 *~;
#X obj 255 338 /~ 768;
#X obj 308 238 /~ 768;
#X connect 0 0 13 0;
#X connect 1 0 7 0;
#X connect 1 0 5 0;
#X connect 1 0 5 1;
#X connect 1 1 8 0;
#X connect 1 1 6 0;
#X connect 1 1 6 1;
#X connect 2 0 16 0;
#X connect 4 0 8 1;
#X connect 4 0 7 1;
#X connect 5 0 11 0;
#X connect 6 0 11 0;
#X connect 7 0 2 0;
#X connect 8 0 2 1;
#X connect 9 0 17 0;
#X connect 10 0 4 1;
#X connect 10 0 22 1;
#X connect 11 0 9 0;
#X connect 12 0 13 1;
#X connect 12 0 15 1;
#X connect 12 0 29 1;
#X connect 12 0 30 1;
#X connect 13 0 1 0;
#X connect 15 0 3 0;
#X connect 16 0 15 0;
#X connect 17 0 4 0;
#X connect 18 0 29 0;
#X connect 19 0 25 0;
#X connect 19 0 23 0;
#X connect 19 0 23 1;
#X connect 19 1 26 0;
#X connect 19 1 24 0;
#X connect 19 1 24 1;
#X connect 20 0 31 0;
#X connect 22 0 26 1;
#X connect 22 0 25 1;
#X connect 23 0 28 0;
#X connect 24 0 28 0;
#X connect 25 0 20 0;
#X connect 26 0 20 1;
#X connect 27 0 32 0;
#X connect 28 0 27 0;
#X connect 29 0 19 0;
#X connect 30 0 21 0;
#X connect 31 0 30 0;
#X connect 32 0 22 0;
#X restore 28 211 pd fft-windowed--------------;
#X obj 226 181 dbtorms;
#X obj 28 21 mmm-module \$1 \$2 spectralgate 1;
#X obj 146 151 mmm-ctrl \$1 \$2 1 threshold 0 100 0 int;
#X msg 305 21 version 0.3.4;
#X connect 0 0 7 0;
#X connect 1 0 7 1;
#X connect 2 0 0 0;
#X connect 3 0 1 0;
#X connect 7 0 5 0;
#X connect 7 1 4 0;
#X connect 8 0 7 2;
#X connect 10 0 8 0;
