#N canvas 32 22 709 490 10;
#X text 27 41 from C09.sample.hold.pd;
#N canvas 131 22 487 413 samplehold 0;
#X obj 19 16 inlet~;
#X obj 111 203 phasor~ 5;
#X obj 33 93 phasor~ 7;
#X obj 33 233 samphold~;
#X obj 33 283 *~ 48;
#X obj 19 333 osc~;
#X msg 206 72 0;
#X obj 19 313 mtof~;
#X obj 19 363 outlet~;
#X obj 206 16 inlet;
#N canvas 514 142 315 295 f2s 0;
#X obj 27 25 inlet;
#X obj 27 225 outlet;
#X msg 104 165 set \$1;
#X obj 27 195 makefilename;
#X obj 27 55 t f f f;
#X obj 50 95 -;
#X obj 50 115 sel 0;
#X msg 50 145 set %d;
#X obj 71 75 int;
#X obj 105 125 * 10.001;
#X obj 104 145 makefilename %%d.%d;
#X obj 117 100 abs;
#X connect 0 0 4 0;
#X connect 2 0 3 0;
#X connect 3 0 1 0;
#X connect 4 0 3 0;
#X connect 4 1 5 0;
#X connect 4 2 8 0;
#X connect 5 0 6 0;
#X connect 6 0 7 0;
#X connect 6 1 11 0;
#X connect 7 0 3 0;
#X connect 8 0 5 1;
#X connect 9 0 10 0;
#X connect 10 0 2 0;
#X connect 11 0 9 0;
#X restore 312 46 pd f2s;
#X obj 360 46 * 0.1;
#N canvas 514 142 315 295 f2s 0;
#X obj 27 25 inlet;
#X obj 27 225 outlet;
#X msg 104 165 set \$1;
#X obj 27 195 makefilename;
#X obj 27 55 t f f f;
#X obj 50 95 -;
#X obj 50 115 sel 0;
#X msg 50 145 set %d;
#X obj 71 75 int;
#X obj 105 125 * 100.001;
#X obj 104 145 makefilename %%d.%02d;
#X connect 0 0 4 0;
#X connect 2 0 3 0;
#X connect 3 0 1 0;
#X connect 4 0 3 0;
#X connect 4 1 5 0;
#X connect 4 2 8 0;
#X connect 5 0 6 0;
#X connect 6 0 7 0;
#X connect 6 1 9 0;
#X connect 7 0 3 0;
#X connect 8 0 5 1;
#X connect 9 0 10 0;
#X connect 10 0 2 0;
#X restore 362 103 pd f2s;
#X obj 410 103 * 0.02;
#X obj 33 46 mmm-ctrl \$1 \$2 6 sample -300 300 10 ext;
#X obj 111 103 mmm-ctrl \$1 \$2 7 hold 1 1000 50 ext;
#X obj 63 263 mmm-ctrl \$1 \$2 8 range 0 127 48 int;
#X obj 33 66 * 0.1;
#X obj 111 143 mmm-ticks2ms;
#X obj 111 183 /;
#X msg 111 163 1000 \$1;
#X obj 111 123 * 0.02;
#X connect 0 0 7 0;
#X connect 1 0 3 1;
#X connect 2 0 3 0;
#X connect 3 0 4 0;
#X connect 4 0 7 0;
#X connect 5 0 8 0;
#X connect 6 0 1 1;
#X connect 6 0 2 1;
#X connect 7 0 5 0;
#X connect 9 0 6 0;
#X connect 10 0 14 1;
#X connect 11 0 10 0;
#X connect 12 0 15 1;
#X connect 13 0 12 0;
#X connect 14 0 17 0;
#X connect 14 1 17 0;
#X connect 14 2 11 0;
#X connect 15 0 21 0;
#X connect 15 1 21 0;
#X connect 15 2 13 0;
#X connect 16 0 4 1;
#X connect 16 1 4 1;
#X connect 17 0 2 0;
#X connect 18 0 20 0;
#X connect 19 0 1 0;
#X connect 20 0 19 0;
#X connect 21 0 18 0;
#X restore 151 299 pd samplehold;
#X obj 145 399 r~ 1-nothing;
#X obj 238 399 r~ 1-nothing;
#X obj 151 269 line~;
#X obj 246 141 * 0.1;
#X obj 366 171 * 0.01;
#X obj 135 329 *~;
#X obj 145 379 r \$1-\$2L-r;
#X obj 238 379 r \$1-\$2R-r;
#X obj 238 419 s~ \$1-\$2R;
#X obj 145 419 s~ \$1-\$2L;
#X obj 151 249 pack;
#X obj 151 141 +;
#X obj 165 111 t b f;
#X obj 151 209 max 0;
#N canvas 514 142 311 291 f2s 0;
#X obj 27 25 inlet;
#X obj 27 225 outlet;
#X msg 104 165 set \$1;
#X obj 27 195 makefilename;
#X obj 27 55 t f f f;
#X obj 50 95 -;
#X obj 50 115 sel 0;
#X msg 50 145 set %d;
#X obj 71 75 int;
#X obj 105 125 * 10.001;
#X obj 104 145 makefilename %%d.%d;
#X connect 0 0 4 0;
#X connect 2 0 3 0;
#X connect 3 0 1 0;
#X connect 4 0 3 0;
#X connect 4 1 5 0;
#X connect 4 2 8 0;
#X connect 5 0 6 0;
#X connect 6 0 7 0;
#X connect 6 1 9 0;
#X connect 7 0 3 0;
#X connect 8 0 5 1;
#X connect 9 0 10 0;
#X connect 10 0 2 0;
#X restore 490 121 pd f2s;
#X obj 538 121 * 0.1;
#X obj 246 161 mmm-ticks2ms;
#X obj 101 299 min~ 1;
#X obj 165 91 mmm-ctrl \$1 \$2 4 transpose -24 24 0 int;
#X obj 246 121 mmm-ctrl \$1 \$2 5 glide 0 160 1 ext;
#X obj 660 181 * 2;
#X obj 135 359 *~;
#X obj 321 261 cos;
#X obj 423 261 sin;
#X obj 423 221 * 0.015708;
#X msg 321 301 \$1 10;
#X msg 423 301 \$1 10;
#X obj 423 201 + 50;
#X obj 423 321 line~;
#X obj 321 321 line~;
#X obj 321 281 *;
#X obj 423 281 *;
#X obj 366 191 t b f;
#X obj 205 359 *~;
#X obj 28 21 mmm-module \$1 \$2 samplehold 8;
#X obj 366 151 mmm-ctrl \$1 \$2 2 level 0 100 30 int;
#X obj 423 181 mmm-ctrl \$1 \$2 3 pan -50 50 0 ext;
#X obj 28 71 mmm-ctrl \$1 \$2 1 notes 16 127 15 ext;
#X obj 287 71 mmm-notename;
#X msg 282 21 version 0.3.4;
#X connect 1 0 7 1;
#X connect 2 0 11 0;
#X connect 3 0 10 0;
#X connect 4 0 1 0;
#X connect 4 0 19 0;
#X connect 5 0 18 0;
#X connect 6 0 34 0;
#X connect 7 0 23 0;
#X connect 7 0 35 0;
#X connect 8 0 2 0;
#X connect 9 0 3 0;
#X connect 12 0 4 0;
#X connect 13 0 15 0;
#X connect 14 0 13 0;
#X connect 14 1 13 1;
#X connect 15 0 12 0;
#X connect 15 0 1 1;
#X connect 16 0 21 1;
#X connect 17 0 16 0;
#X connect 18 0 12 1;
#X connect 19 0 7 0;
#X connect 20 0 14 0;
#X connect 21 0 5 0;
#X connect 21 2 17 0;
#X connect 22 0 38 1;
#X connect 23 0 11 0;
#X connect 24 0 32 0;
#X connect 25 0 33 0;
#X connect 26 0 25 0;
#X connect 26 0 24 0;
#X connect 27 0 31 0;
#X connect 28 0 30 0;
#X connect 29 0 26 0;
#X connect 30 0 35 1;
#X connect 31 0 23 1;
#X connect 32 0 27 0;
#X connect 33 0 28 0;
#X connect 34 0 32 0;
#X connect 34 0 33 0;
#X connect 34 1 32 1;
#X connect 34 1 33 1;
#X connect 35 0 10 0;
#X connect 37 0 6 0;
#X connect 38 0 29 0;
#X connect 38 2 22 0;
#X connect 39 0 13 0;
#X connect 39 2 40 0;
#X connect 40 0 39 1;
