#N canvas 108 53 512 207 10;
#N canvas 0 22 299 279 f2s 0;
#X obj 27 25 inlet;
#X obj 27 225 outlet;
#X msg 104 165 set \$1;
#X obj 27 195 makefilename;
#X obj 27 55 t f f f;
#X obj 50 95 -;
#X obj 50 115 sel 0;
#X msg 50 145 set %d;
#X obj 71 75 int;
#X msg 128 197 %d.80;
#X obj 105 125 * 100.001;
#X obj 104 145 makefilename %%d.%02d;
#X connect 0 0 4 0;
#X connect 2 0 3 0;
#X connect 2 0 9 0;
#X connect 3 0 1 0;
#X connect 4 0 3 0;
#X connect 4 1 5 0;
#X connect 4 2 8 0;
#X connect 5 0 6 0;
#X connect 6 0 7 0;
#X connect 6 1 10 0;
#X connect 7 0 3 0;
#X connect 8 0 5 1;
#X connect 10 0 11 0;
#X connect 11 0 2 0;
#X restore 351 89 pd f2s;
#X obj 399 89 * 0.05;
#N canvas 13 32 486 556 dsp-guts 0;
#X obj 39 55 r~ 1-nothing;
#X obj 153 55 r~ 1-nothing;
#X obj 49 365 throw~ 8-L;
#X obj 163 365 throw~ 8-R;
#X msg 59 345 set \$1-L;
#X msg 173 345 set \$1-R;
#X obj 179 125 * 0.01;
#X obj 49 295 *~;
#X obj 163 295 *~;
#X obj 179 225 line~;
#N canvas 174 326 320 160 delwrite______ 0;
#X obj 17 22 inlet~;
#X obj 97 22 inlet~;
#X obj 17 102 outlet~;
#X obj 97 54 delwrite~ \$3-del-R 1000;
#X obj 17 74 delwrite~ \$3-del-L 1000;
#X connect 0 0 4 0;
#X connect 1 0 3 0;
#X restore 49 255 pd delwrite______;
#N canvas 0 22 343 205 delread_______ 0;
#X obj 17 22 inlet~;
#X obj 17 92 outlet~;
#X obj 97 92 outlet~;
#X obj 164 22 inlet;
#X obj 97 72 delread~ \$3-del-R 0;
#X obj 17 52 delread~ \$3-del-L 0;
#X connect 3 0 4 0;
#X connect 3 0 5 0;
#X connect 4 0 2 0;
#X connect 5 0 1 0;
#X restore 49 275 pd delread_______;
#N canvas 0 22 383 301 ticks2ms 0;
#X obj 30 51 r netpd-receive;
#X obj 30 91 route mmm;
#X obj 30 111 route bpm;
#X obj 38 71 r data.state;
#X obj 161 51 loadbang;
#X msg 161 71 \; data.getstate mmm bpm;
#X obj 30 151 /;
#X obj 20 21 inlet;
#X obj 20 221 outlet;
#X obj 30 171 t b f;
#X msg 30 131 15000 \$1;
#X obj 20 191 *;
#X connect 0 0 1 0;
#X connect 1 0 2 0;
#X connect 2 0 10 0;
#X connect 3 0 1 0;
#X connect 4 0 5 0;
#X connect 6 0 9 0;
#X connect 7 0 11 0;
#X connect 9 0 11 0;
#X connect 9 1 11 1;
#X connect 10 0 6 0;
#X connect 11 0 8 0;
#X restore 251 216 pd ticks2ms;
#X obj 251 196 * 0.05;
#X obj 41 35 r \$1-\$2L-r;
#X obj 153 35 r \$1-\$2R-r;
#X obj 153 385 s~ \$1-\$2R;
#X obj 39 385 s~ \$1-\$2L;
#X msg 179 145 \$1 10;
#X obj 251 256 pipe 8;
#X msg 224 145 0 8;
#X obj 251 236 t f b;
#X obj 251 276 t f b;
#X obj 348 155 spigot 1;
#X msg 396 175 0;
#X msg 410 155 1;
#X obj 348 175 del 8;
#X obj 49 315 *~;
#X obj 163 315 *~;
#X obj 129 435 cos;
#X obj 218 435 sin;
#X obj 272 394 * 0.015708;
#X obj 218 475 line~;
#X obj 129 475 line~;
#X msg 129 455 \$1 10;
#X msg 218 455 \$1 10;
#X obj 179 105 route amount delay channel pan;
#X obj 272 374 + 50;
#X obj 179 85 inlet;
#X connect 0 0 17 0;
#X connect 0 0 10 0;
#X connect 1 0 10 1;
#X connect 1 0 16 0;
#X connect 4 0 2 0;
#X connect 5 0 3 0;
#X connect 6 0 18 0;
#X connect 7 0 27 0;
#X connect 8 0 28 0;
#X connect 9 0 7 1;
#X connect 9 0 8 1;
#X connect 10 0 11 0;
#X connect 11 0 7 0;
#X connect 11 1 8 0;
#X connect 12 0 21 0;
#X connect 13 0 12 0;
#X connect 14 0 0 0;
#X connect 15 0 1 0;
#X connect 18 0 9 0;
#X connect 19 0 22 0;
#X connect 20 0 9 0;
#X connect 21 0 19 0;
#X connect 21 1 23 0;
#X connect 22 0 11 1;
#X connect 22 1 6 0;
#X connect 23 0 24 0;
#X connect 23 0 26 0;
#X connect 23 0 20 0;
#X connect 24 0 23 1;
#X connect 25 0 23 1;
#X connect 26 0 25 0;
#X connect 27 0 2 0;
#X connect 28 0 3 0;
#X connect 29 0 34 0;
#X connect 30 0 35 0;
#X connect 31 0 30 0;
#X connect 31 0 29 0;
#X connect 32 0 28 1;
#X connect 33 0 27 1;
#X connect 34 0 33 0;
#X connect 35 0 32 0;
#X connect 36 0 6 0;
#X connect 36 1 13 0;
#X connect 36 2 5 0;
#X connect 36 2 4 0;
#X connect 36 3 37 0;
#X connect 37 0 31 0;
#X connect 38 0 36 0;
#X restore 16 159 pd dsp-guts;
#X obj 345 69 * 2;
#X obj 16 19 mmm-module \$1 \$2 sender 3;
#X obj 106 49 mmm-ctrl \$1 \$2 1 amount 0 100 0 int;
#X obj 106 69 mmm-ctrl \$1 \$2 2 pan -50 50 0 ext;
#X obj 106 89 mmm-ctrl \$1 \$2 3 delay 0 160 0 ext;
#X obj 106 109 mmm-ctrl \$1 \$2 4 channel 1 8 8 int;
#X msg 27 69 amount \$1;
#X msg 27 89 pan \$1;
#X msg 27 109 delay \$1;
#X msg 27 129 channel \$1;
#X msg 328 19 version 0.3.7;
#X connect 0 0 7 1;
#X connect 1 0 0 0;
#X connect 3 0 6 1;
#X connect 5 0 9 0;
#X connect 6 0 10 0;
#X connect 6 2 3 0;
#X connect 7 0 11 0;
#X connect 7 2 1 0;
#X connect 8 0 12 0;
#X connect 9 0 2 0;
#X connect 10 0 2 0;
#X connect 11 0 2 0;
#X connect 12 0 2 0;
