#N canvas 22 22 581 295 10;
#X obj 490 151 * 0.1;
#X obj 393 111 makesymbol %s;
#X obj 490 111 * 0.1;
#X obj 393 151 makesymbol %s;
#X obj 490 171 * 0.1;
#X obj 393 171 makesymbol %s;
#X obj 148 111 mmm-ctrl \$1 \$2 4 ticks 0 160 0 ext;
#X obj 148 131 mmm-ctrl \$1 \$2 5 transpose -24 24 0 int;
#X obj 148 151 mmm-ctrl \$1 \$2 6 glide 0 160 1 ext;
#X obj 148 171 mmm-ctrl \$1 \$2 7 detune 0 80 0 ext;
#X obj 148 191 mmm-ctrl \$1 \$2 8 lfo2pitch 0 100 0 int;
#X obj 18 21 mmm-module \$1 \$2 sinus2 8;
#X obj 385 91 * 2;
#N canvas 38 22 850 579 guts 0;
#X obj 26 332 r~ 1-nothing;
#X obj 119 332 r~ 1-nothing;
#X obj 473 429 osc~;
#X obj 473 249 line~;
#X obj 473 299 mtof~;
#N canvas 0 22 475 315 ticks2ms 0;
#X obj 100 51 r netpd-receive;
#X obj 100 91 route mmm;
#X obj 100 111 route bpm;
#X obj 108 71 r data.state;
#X obj 231 51 loadbang;
#X msg 231 71 \; data.getstate mmm bpm;
#X obj 100 151 /;
#X obj 90 231 outlet;
#X obj 100 171 t b f;
#X obj 90 201 * 125;
#X obj 40 21 inlet;
#X obj 40 231 outlet;
#X obj 40 201 * 125;
#X obj 90 21 inlet;
#X msg 100 131 15000 \$1;
#X connect 0 0 1 0;
#X connect 1 0 2 0;
#X connect 2 0 14 0;
#X connect 3 0 1 0;
#X connect 4 0 5 0;
#X connect 6 0 8 0;
#X connect 8 0 9 0;
#X connect 8 0 12 0;
#X connect 8 1 9 1;
#X connect 8 1 12 1;
#X connect 9 0 7 0;
#X connect 10 0 12 0;
#X connect 12 0 11 0;
#X connect 13 0 9 0;
#X connect 14 0 6 0;
#X restore 473 149 pd ticks2ms;
#X obj 457 469 *~;
#X obj 575 81 * 0.1;
#X obj 682 81 * 0.01;
#X obj 457 449 *~;
#X obj 473 209 ftom;
#X obj 473 169 pow -1;
#X obj 473 189 * 1000;
#X obj 629 81 * 0.1;
#X obj 543 429 osc~;
#X obj 527 469 *~;
#X obj 527 449 *~;
#X obj 629 281 line~;
#X obj 26 492 *~ 1;
#X obj 119 492 *~ 1;
#X obj 49 472 == 0;
#X obj 255 362 *~ 0;
#X obj 299 392 *~;
#X obj 239 392 *~;
#X obj 315 362 *~ 0;
#X obj 278 322 * 0.005;
#X obj 119 531 s~ \$1-\$2R;
#X obj 26 531 s~ \$1-\$2L;
#X obj 119 312 r \$1-\$2R-r;
#X obj 26 312 r \$1-\$2L-r;
#X obj 278 272 r \$3;
#X obj 473 109 +;
#X obj 499 81 t b f;
#X obj 473 129 max 0;
#X obj 416 109 +;
#X obj 416 129 max 0;
#X msg 629 261 \$1 10;
#X obj 473 229 pack f f;
#X obj 646 141 cos;
#X obj 735 141 sin;
#X obj 735 101 * 0.015708;
#X msg 646 181 \$1 10;
#X msg 735 181 \$1 10;
#X obj 735 81 + 50;
#X obj 735 201 line~;
#X obj 646 201 line~;
#X obj 646 161 *;
#X obj 735 161 *;
#X obj 691 158 t b f;
#X obj 351 19 inlet;
#X obj 423 299 min~ 1;
#X obj 351 49 route lfo2pitch notes ticks transpose glide detune level
pan;
#X obj 278 292 t a;
#X connect 0 0 18 0;
#X connect 0 0 23 0;
#X connect 1 0 19 0;
#X connect 1 0 22 0;
#X connect 2 0 9 1;
#X connect 3 0 4 0;
#X connect 3 0 50 0;
#X connect 4 0 2 0;
#X connect 4 0 14 0;
#X connect 4 0 21 0;
#X connect 4 0 24 0;
#X connect 5 0 11 0;
#X connect 5 1 37 1;
#X connect 6 0 27 0;
#X connect 7 0 5 1;
#X connect 8 0 48 0;
#X connect 9 0 6 0;
#X connect 10 0 37 0;
#X connect 11 0 12 0;
#X connect 12 0 10 0;
#X connect 13 0 36 0;
#X connect 14 0 16 1;
#X connect 15 0 26 0;
#X connect 16 0 15 0;
#X connect 17 0 14 0;
#X connect 18 0 27 0;
#X connect 19 0 26 0;
#X connect 20 0 18 1;
#X connect 20 0 19 1;
#X connect 21 0 23 1;
#X connect 22 0 14 0;
#X connect 23 0 2 0;
#X connect 24 0 22 1;
#X connect 25 0 21 1;
#X connect 25 0 24 1;
#X connect 28 0 1 0;
#X connect 29 0 0 0;
#X connect 30 0 52 0;
#X connect 31 0 33 0;
#X connect 32 0 31 0;
#X connect 32 0 34 0;
#X connect 32 1 31 1;
#X connect 32 1 34 1;
#X connect 33 0 5 0;
#X connect 34 0 35 0;
#X connect 35 0 37 0;
#X connect 36 0 17 0;
#X connect 37 0 3 0;
#X connect 38 0 46 0;
#X connect 39 0 47 0;
#X connect 40 0 39 0;
#X connect 40 0 38 0;
#X connect 41 0 45 0;
#X connect 42 0 44 0;
#X connect 43 0 40 0;
#X connect 44 0 15 1;
#X connect 45 0 6 1;
#X connect 46 0 41 0;
#X connect 47 0 42 0;
#X connect 48 0 46 0;
#X connect 48 0 47 0;
#X connect 48 1 46 1;
#X connect 48 1 47 1;
#X connect 49 0 51 0;
#X connect 50 0 9 0;
#X connect 50 0 16 0;
#X connect 51 0 52 0;
#X connect 51 1 34 0;
#X connect 51 2 31 0;
#X connect 51 3 32 0;
#X connect 51 4 7 0;
#X connect 51 5 13 0;
#X connect 51 6 8 0;
#X connect 51 7 43 0;
#X connect 52 0 20 0;
#X connect 52 0 25 0;
#X restore 11 241 pd guts;
#X msg 54 111 pan \$1;
#X obj 148 71 mmm-ctrl \$1 \$2 2 level 0 100 30 int;
#X obj 148 91 mmm-ctrl \$1 \$2 3 pan -50 50 0 ext;
#X msg 54 71 notes \$1;
#X msg 54 131 ticks \$1;
#X msg 54 151 transpose \$1;
#X msg 54 171 glide \$1;
#X msg 54 191 detune \$1;
#X msg 54 211 lfo2pitch \$1;
#X msg 54 91 level \$1;
#X obj 402 51 mmm-notename;
#X msg 260 21 version 0.3.7;
#X obj 148 51 mmm-ctrl \$1 \$2 1 notes 0 127 -1 ext;
#X connect 0 0 3 0;
#X connect 1 0 6 1;
#X connect 2 0 1 0;
#X connect 3 0 8 1;
#X connect 4 0 5 0;
#X connect 5 0 9 1;
#X connect 6 0 18 0;
#X connect 6 2 2 0;
#X connect 7 0 19 0;
#X connect 8 0 20 0;
#X connect 8 2 0 0;
#X connect 9 0 21 0;
#X connect 9 2 4 0;
#X connect 10 0 22 0;
#X connect 12 0 16 1;
#X connect 14 0 13 0;
#X connect 15 0 23 0;
#X connect 16 0 14 0;
#X connect 16 2 12 0;
#X connect 17 0 13 0;
#X connect 18 0 13 0;
#X connect 19 0 13 0;
#X connect 20 0 13 0;
#X connect 21 0 13 0;
#X connect 22 0 13 0;
#X connect 23 0 13 0;
#X connect 24 0 26 1;
#X connect 26 0 17 0;
#X connect 26 2 24 0;
