#N canvas 121 145 570 353 10;
#X obj 420 91 sel 0 1;
#X msg 420 111 symbol off;
#X msg 442 131 symbol on;
#X obj 28 71 r~ 1-nothing;
#X obj 128 71 r~ 1-nothing;
#X obj 128 51 r \$1-\$2R-r;
#X obj 128 91 s~ \$1-\$2R;
#X obj 28 91 s~ \$1-\$2L;
#X obj 28 51 r \$1-\$2L-r;
#X obj 367 161 makesymbol %s;
#X obj 367 181 makesymbol %s;
#X obj 367 201 makesymbol %s;
#X obj 464 161 * 0.1;
#X obj 464 181 * 0.1;
#X obj 464 201 * 0.1;
#N canvas 441 79 511 470 translate 0;
#X obj 22 22 r gemmm;
#X obj 22 193 spigot;
#X obj 102 173 spigot;
#X obj 59 173 == 0;
#X obj 242 342 translateXYZ;
#X obj 355 172 line;
#X obj 312 172 line;
#X obj 268 172 line;
#N canvas 567 372 268 190 send_gemmm 0;
#X obj 104 19 loadbang;
#X obj 25 99 list prepend;
#X obj 25 139 s gemmm;
#X obj 25 79 inlet;
#X obj 25 119 list trim;
#X obj 104 59 + 1;
#X obj 104 79 makefilename \$1-%d;
#X obj 104 39 f \$2;
#X connect 0 0 7 0;
#X connect 1 0 4 0;
#X connect 3 0 1 0;
#X connect 4 0 2 0;
#X connect 5 0 6 0;
#X connect 6 0 1 1;
#X connect 7 0 5 0;
#X restore 22 403 pd send_gemmm;
#X obj 268 72 * 0.1;
#X obj 312 72 * 0.1;
#X obj 355 72 * 0.1;
#X obj 268 152 pack;
#X obj 312 152 pack;
#X obj 355 152 pack;
#X obj 139 42 route translate repeat separator X Y Z glide;
#N canvas 703 492 348 251 correction 0;
#X obj 218 21 inlet repeat;
#X obj 20 21 inlet X;
#X obj 86 21 inlet Y;
#X obj 152 21 inlet Z;
#X obj 248 101 t b b b f;
#X obj 20 211 outlet X;
#X obj 86 211 outlet Y;
#X obj 152 211 outlet Z;
#X obj 20 180 * 1;
#X obj 86 180 * 1;
#X obj 152 180 * 1;
#X obj 248 61 * -0.5;
#X obj 248 81 - 0.5;
#X obj 218 41 sel 1;
#X msg 218 61 1;
#X connect 0 0 13 0;
#X connect 1 0 8 0;
#X connect 2 0 9 0;
#X connect 3 0 10 0;
#X connect 4 0 8 0;
#X connect 4 1 9 0;
#X connect 4 2 10 0;
#X connect 4 3 8 1;
#X connect 4 3 9 1;
#X connect 4 3 10 1;
#X connect 8 0 5 0;
#X connect 9 0 6 0;
#X connect 10 0 7 0;
#X connect 11 0 12 0;
#X connect 12 0 4 0;
#X connect 13 0 14 0;
#X connect 13 1 11 0;
#X connect 14 0 4 0;
#X restore 158 270 pd correction;
#N canvas 9 332 478 355 repeat 0;
#X obj 30 160 repeat 1;
#X obj 30 110 spigot;
#X obj 140 110 spigot;
#X obj 66 90 != 1;
#N canvas 362 84 256 263 separator 0;
#X obj 30 110 spigot;
#X obj 140 110 spigot;
#X obj 30 30 inlet;
#X obj 177 30 inlet;
#X obj 140 190 outlet;
#X obj 140 130 separator;
#X obj 66 90 == 0;
#X connect 0 0 4 0;
#X connect 1 0 5 0;
#X connect 2 0 0 0;
#X connect 2 0 1 0;
#X connect 3 0 1 1;
#X connect 3 0 6 0;
#X connect 5 0 4 0;
#X connect 6 0 0 1;
#X restore 140 260 pd separator;
#X obj 30 30 inlet gemlist;
#X obj 177 30 inlet repeat;
#X obj 327 30 inlet separator;
#X obj 265 235 + 1;
#X obj 265 290 outlet number;
#X obj 140 290 outlet gemlist;
#X obj 265 205 f;
#X msg 281 185 0;
#X obj 325 151 sel 0;
#N canvas 519 169 264 271 if 0;
#X obj 30 110 spigot;
#X obj 130 110 spigot;
#X obj 66 90 == 0;
#X obj 130 130 t a b;
#X obj 30 30 inlet gemlist;
#X obj 30 190 outlet gemlist;
#X obj 167 30 inlet separator;
#X obj 160 190 outlet bang;
#X connect 0 0 5 0;
#X connect 1 0 3 0;
#X connect 2 0 0 1;
#X connect 3 0 5 0;
#X connect 3 1 7 0;
#X connect 4 0 0 0;
#X connect 4 0 1 0;
#X connect 6 0 1 1;
#X connect 6 0 2 0;
#X restore 30 140 pd if separator t a b;
#N canvas 265 84 329 246 if 0;
#X obj 30 110 spigot;
#X obj 130 110 spigot;
#X obj 66 90 == 0;
#X obj 130 130 t a b;
#X obj 30 30 inlet gemlist;
#X obj 30 190 outlet gemlist;
#X obj 167 30 inlet separator;
#X obj 160 190 outlet bang;
#X connect 0 0 5 0;
#X connect 1 0 3 0;
#X connect 2 0 0 1;
#X connect 3 0 5 0;
#X connect 3 1 7 0;
#X connect 4 0 0 0;
#X connect 4 0 1 0;
#X connect 6 0 1 1;
#X connect 6 0 2 0;
#X restore 30 180 pd if separator t a b;
#X obj 327 50 t a a;
#X msg 325 185 1;
#X obj 177 90 == 1;
#X obj 264 131 sel 1;
#X connect 0 0 15 0;
#X connect 1 0 14 0;
#X connect 2 0 4 0;
#X connect 3 0 1 1;
#X connect 4 0 10 0;
#X connect 5 0 1 0;
#X connect 5 0 2 0;
#X connect 6 0 3 0;
#X connect 6 0 0 1;
#X connect 6 0 18 0;
#X connect 6 0 19 0;
#X connect 7 0 16 0;
#X connect 8 0 11 1;
#X connect 8 0 9 0;
#X connect 11 0 8 0;
#X connect 12 0 11 1;
#X connect 13 0 17 0;
#X connect 14 0 0 0;
#X connect 14 1 12 0;
#X connect 15 0 4 0;
#X connect 15 1 11 0;
#X connect 16 0 13 0;
#X connect 16 1 4 1;
#X connect 16 1 15 1;
#X connect 16 1 14 1;
#X connect 17 0 9 0;
#X connect 18 0 2 1;
#X connect 19 0 12 0;
#X connect 19 0 17 0;
#X restore 102 193 pd repeat and separator;
#X obj 268 270 * 1;
#X obj 312 270 * 1;
#X obj 329 233 t b b b f;
#X obj 355 270 * 1;
#X obj 268 311 +;
#X obj 268 192 t f f;
#X obj 312 192 t f f;
#X obj 355 192 t f f;
#X obj 312 312 +;
#X obj 355 310 +;
#X obj 312 132 / 1;
#X obj 201 107 t b f;
#X obj 268 132 / 1;
#X obj 355 132 / 1;
#X obj 201 67 - 1;
#X obj 201 87 max 1;
#X obj 139 22 inlet;
#X obj 22 42 route \$1-\$2;
#X obj 398 122 mmm-ticks2ms;
#X connect 0 0 35 0;
#X connect 1 0 8 0;
#X connect 2 0 17 0;
#X connect 3 0 1 1;
#X connect 4 0 8 0;
#X connect 5 0 25 0;
#X connect 6 0 24 0;
#X connect 7 0 23 0;
#X connect 9 0 30 0;
#X connect 10 0 28 0;
#X connect 11 0 31 0;
#X connect 12 0 7 0;
#X connect 13 0 6 0;
#X connect 14 0 5 0;
#X connect 15 0 3 0;
#X connect 15 0 2 1;
#X connect 15 1 17 1;
#X connect 15 1 16 3;
#X connect 15 1 32 0;
#X connect 15 2 17 2;
#X connect 15 3 9 0;
#X connect 15 4 10 0;
#X connect 15 5 11 0;
#X connect 15 6 36 0;
#X connect 16 0 22 1;
#X connect 16 1 26 1;
#X connect 16 2 27 1;
#X connect 17 0 4 0;
#X connect 17 1 20 0;
#X connect 18 0 22 0;
#X connect 19 0 26 0;
#X connect 20 0 18 0;
#X connect 20 1 19 0;
#X connect 20 2 21 0;
#X connect 20 3 21 1;
#X connect 20 3 19 1;
#X connect 20 3 18 1;
#X connect 21 0 27 0;
#X connect 22 0 4 1;
#X connect 23 0 18 0;
#X connect 23 1 16 0;
#X connect 24 0 19 0;
#X connect 24 1 16 1;
#X connect 25 0 21 0;
#X connect 25 1 16 2;
#X connect 26 0 4 2;
#X connect 27 0 4 3;
#X connect 28 0 13 0;
#X connect 29 0 31 0;
#X connect 29 0 28 0;
#X connect 29 0 30 0;
#X connect 29 1 30 1;
#X connect 29 1 28 1;
#X connect 29 1 31 1;
#X connect 30 0 12 0;
#X connect 31 0 14 0;
#X connect 32 0 33 0;
#X connect 33 0 29 0;
#X connect 34 0 15 0;
#X connect 35 0 1 0;
#X connect 35 0 2 0;
#X connect 36 0 12 1;
#X connect 36 0 13 1;
#X connect 36 0 14 1;
#X restore 18 311 pd translate;
#X obj 28 21 mmm-module \$1 \$2 translateXYZ 7;
#X obj 108 131 mmm-ctrl \$1 \$2 1 translate 0 1 1 ext;
#X obj 108 161 mmm-ctrl \$1 \$2 2 X -160 160 0 ext;
#X obj 108 181 mmm-ctrl \$1 \$2 3 Y -160 160 0 ext;
#X obj 108 201 mmm-ctrl \$1 \$2 4 Z -160 160 0 ext;
#X obj 108 221 mmm-ctrl \$1 \$2 5 glide 0 16 0 int;
#X obj 108 241 mmm-ctrl \$1 \$2 6 repeat 1 256 1 int;
#X obj 108 261 mmm-ctrl \$1 \$2 7 separator 0 1 0 int;
#X msg 18 151 translate \$1;
#X msg 18 181 X \$1;
#X msg 18 201 Y \$1;
#X msg 18 221 Z \$1;
#X msg 18 241 glide \$1;
#X msg 18 261 repeat \$1;
#X msg 18 281 separator \$1;
#X msg 295 21 version 0.3.6;
#X connect 0 0 1 0;
#X connect 0 1 2 0;
#X connect 1 0 17 1;
#X connect 2 0 17 1;
#X connect 3 0 7 0;
#X connect 4 0 6 0;
#X connect 5 0 4 0;
#X connect 8 0 3 0;
#X connect 9 0 18 1;
#X connect 10 0 19 1;
#X connect 11 0 20 1;
#X connect 12 0 9 0;
#X connect 13 0 10 0;
#X connect 14 0 11 0;
#X connect 17 0 24 0;
#X connect 17 2 0 0;
#X connect 18 0 25 0;
#X connect 18 2 12 0;
#X connect 19 0 26 0;
#X connect 19 2 13 0;
#X connect 20 0 27 0;
#X connect 20 2 14 0;
#X connect 21 0 28 0;
#X connect 22 0 29 0;
#X connect 23 0 30 0;
#X connect 24 0 15 0;
#X connect 25 0 15 0;
#X connect 26 0 15 0;
#X connect 27 0 15 0;
#X connect 28 0 15 0;
#X connect 29 0 15 0;
#X connect 30 0 15 0;
