#N canvas 35 22 813 614 10;
#X obj 27 470 r gemmm;
#X obj 442 521 r~ 1-nothing;
#X obj 542 521 r~ 1-nothing;
#X obj 27 490 route \$3;
#N canvas 274 22 279 267 draw 0;
#X obj 36 30 inlet;
#X obj 183 170 symbol;
#X msg 36 130 fill;
#X msg 55 110 point;
#X msg 74 90 line;
#X obj 183 190 outlet;
#X obj 36 60 sel 0 1 2;
#X connect 0 0 6 0;
#X connect 1 0 5 0;
#X connect 2 0 1 0;
#X connect 3 0 1 0;
#X connect 4 0 1 0;
#X connect 6 0 2 0;
#X connect 6 1 3 0;
#X connect 6 2 4 0;
#X restore 362 61 pd draw;
#N canvas 274 22 282 268 draw 0;
#X obj 36 30 inlet;
#X obj 183 170 symbol;
#X msg 36 130 fill;
#X msg 55 110 point;
#X msg 74 90 line;
#X obj 183 220 outlet;
#X msg 183 190 draw \$1;
#X obj 36 60 sel 0 1 2;
#X connect 0 0 7 0;
#X connect 1 0 6 0;
#X connect 2 0 1 0;
#X connect 3 0 1 0;
#X connect 4 0 1 0;
#X connect 6 0 5 0;
#X connect 7 0 2 0;
#X connect 7 1 3 0;
#X connect 7 2 4 0;
#X restore 46 255 pd draw;
#X obj 560 162 makesymbol %s;
#X obj 403 277 * 0.1;
#X obj 560 122 makesymbol %s;
#X obj 560 142 makesymbol %s;
#X msg 75 275 width \$1;
#X obj 105 541 tube 0.5 0.9 2.5 32;
#X msg 105 295 numslices \$1;
#X obj 658 122 * 0.05;
#X obj 658 142 * 0.05;
#X obj 658 162 * 0.1;
#X obj 560 182 makesymbol %s;
#X obj 658 182 * 0.1;
#X obj 560 202 makesymbol %s;
#X obj 658 202 * 0.1;
#X obj 656 257 makesymbol %s;
#X obj 754 257 * 0.1;
#X obj 135 225 * 0.05;
#X obj 165 245 * 0.05;
#X obj 194 265 * 0.1;
#X obj 224 285 * 0.1;
#X obj 254 305 * 0.1;
#X obj 373 507 line;
#X obj 343 487 line;
#X obj 313 467 line;
#X obj 283 447 line;
#X obj 224 405 line;
#X obj 194 385 line;
#X obj 165 365 line;
#X obj 135 345 line;
#X obj 253 425 line;
#X obj 28 21 mmm-module \$1 \$2 tube 13;
#X obj 442 501 r \$1-\$2L-r;
#X obj 542 501 r \$1-\$2R-r;
#X obj 442 541 s~ \$1-\$2L;
#X obj 542 541 s~ \$1-\$2R;
#X obj 108 61 mmm-ctrl \$1 \$2 1 draw 0 8 0 ext;
#X obj 108 81 mmm-ctrl \$1 \$2 2 width 1 16 1 int;
#X obj 108 101 mmm-ctrl \$1 \$2 3 numslices 1 64 32 int;
#X obj 403 257 mmm-ctrl \$1 \$2 4 glide 0 160 10 int;
#X obj 321 122 mmm-ctrl \$1 \$2 5 D1 -80 80 10 ext;
#X obj 321 142 mmm-ctrl \$1 \$2 6 D2 -80 80 18 ext;
#X obj 321 162 mmm-ctrl \$1 \$2 7 H -160 160 25 ext;
#X obj 321 182 mmm-ctrl \$1 \$2 8 Tx -40 40 0 ext;
#X obj 321 202 mmm-ctrl \$1 \$2 9 Ty -40 40 0 ext;
#X obj 422 342 mmm-ctrl \$1 \$2 10 R1x -180 180 0 int;
#X obj 422 362 mmm-ctrl \$1 \$2 11 R1y -180 180 0 int;
#X obj 422 382 mmm-ctrl \$1 \$2 12 R2x -180 180 0 int;
#X obj 422 402 mmm-ctrl \$1 \$2 13 R2y -180 180 0 int;
#X obj 403 297 mmm-ticks2ms;
#X msg 249 21 version 0.3.5;
#X connect 0 0 3 0;
#X connect 1 0 39 0;
#X connect 2 0 40 0;
#X connect 3 0 11 0;
#X connect 4 0 41 1;
#X connect 5 0 11 0;
#X connect 6 0 47 1;
#X connect 7 0 54 0;
#X connect 8 0 45 1;
#X connect 9 0 46 1;
#X connect 10 0 11 0;
#X connect 12 0 11 0;
#X connect 13 0 8 0;
#X connect 14 0 9 0;
#X connect 15 0 6 0;
#X connect 16 0 48 1;
#X connect 17 0 16 0;
#X connect 18 0 49 1;
#X connect 19 0 18 0;
#X connect 20 0 44 1;
#X connect 21 0 20 0;
#X connect 22 0 34 0;
#X connect 23 0 33 0;
#X connect 24 0 32 0;
#X connect 25 0 31 0;
#X connect 26 0 35 0;
#X connect 27 0 11 9;
#X connect 28 0 11 8;
#X connect 29 0 11 7;
#X connect 30 0 11 6;
#X connect 31 0 11 4;
#X connect 32 0 11 3;
#X connect 33 0 11 2;
#X connect 34 0 11 1;
#X connect 35 0 11 5;
#X connect 37 0 1 0;
#X connect 38 0 2 0;
#X connect 41 0 5 0;
#X connect 41 2 4 0;
#X connect 42 0 10 0;
#X connect 43 0 12 0;
#X connect 44 0 7 0;
#X connect 44 1 7 0;
#X connect 44 2 21 0;
#X connect 45 0 22 0;
#X connect 45 2 13 0;
#X connect 46 0 23 0;
#X connect 46 2 14 0;
#X connect 47 0 24 0;
#X connect 47 2 15 0;
#X connect 48 0 25 0;
#X connect 48 2 17 0;
#X connect 49 0 26 0;
#X connect 49 2 19 0;
#X connect 50 0 30 0;
#X connect 51 0 29 0;
#X connect 52 0 28 0;
#X connect 53 0 27 0;
#X connect 54 0 27 1;
#X connect 54 0 28 1;
#X connect 54 0 29 1;
#X connect 54 0 30 1;
#X connect 54 0 35 1;
#X connect 54 0 31 1;
#X connect 54 0 32 1;
#X connect 54 0 33 1;
#X connect 54 0 34 1;
