#N canvas 112 22 498 316 10;
#X obj 18 81 r~ 1-nothing;
#X obj 121 81 r~ 1-nothing;
#X obj 18 21 mmm-module \$1 \$2 transport 3;
#X obj 121 61 r \$1-\$2R-r;
#X obj 121 101 s~ \$1-\$2R;
#X obj 18 101 s~ \$1-\$2L;
#X obj 18 61 r \$1-\$2L-r;
#X obj 18 141 mmm-ctrl \$1 \$2 1 bpm 60 240 126 int;
#X obj 115 171 mmm-ctrl \$1 \$2 2 tpp 1 16 16 int;
#X obj 212 201 mmm-ctrl \$1 \$2 3 shuffle 0 99 0 int;
#X msg 212 231 mmm shuffle \$1;
#X msg 115 201 mmm tpp \$1;
#X msg 18 171 mmm bpm \$1;
#X obj 18 281 s netpd-receive;
#X msg 265 21 version 0.3.2;
#X connect 0 0 5 0;
#X connect 1 0 4 0;
#X connect 3 0 1 0;
#X connect 6 0 0 0;
#X connect 7 0 12 0;
#X connect 8 0 11 0;
#X connect 9 0 10 0;
#X connect 10 0 13 0;
#X connect 11 0 13 0;
#X connect 12 0 13 0;
