#N canvas 34 22 790 494 10;
#X obj 470 127 makesymbol %s;
#X obj 567 127 * 0.1;
#X obj 111 425 r~ 1-nothing;
#X obj 204 425 r~ 1-nothing;
#X obj 144 271 line~;
#X obj 144 291 mtof~;
#X obj 225 147 * 0.1;
#X obj 144 231 t f b;
#N canvas 296 125 502 407 tangent 0;
#X obj 35 308 min~ 1;
#X obj 35 328 max~ -1;
#X obj 35 159 osc~ 20;
#X obj 141 130 osc~ 20;
#X obj 35 268 *~ 0.8;
#X obj 72 248 *;
#X obj 72 228 t f f;
#X obj 72 208 * 0.01;
#X obj 299 126 *;
#X obj 299 106 t f f;
#X obj 299 86 * 0.01;
#X obj 299 266 sig~ 1;
#X obj 35 288 expr~ tan($v1/$v2)*$v3;
#X obj 185 110 f 0;
#X obj 79 139 f 0.75;
#X obj 299 246 + 0.01;
#X obj 299 226 * 99.99;
#X obj 299 166 *;
#X obj 299 146 t f f;
#X obj 35 348 outlet~;
#X obj 299 206 *;
#X obj 299 186 t f f;
#X obj 108 16 inlet;
#X obj 35 16 inlet~;
#X obj 72 188 mmm-ctrl \$1 \$2 6 X 0 100 50 int;
#X obj 299 66 mmm-ctrl \$1 \$2 7 Y 0 100 50 int;
#X connect 0 0 1 0;
#X connect 1 0 19 0;
#X connect 2 0 4 0;
#X connect 3 0 12 1;
#X connect 4 0 12 0;
#X connect 5 0 4 1;
#X connect 6 0 5 0;
#X connect 6 1 5 1;
#X connect 7 0 6 0;
#X connect 8 0 18 0;
#X connect 9 0 8 0;
#X connect 9 1 8 1;
#X connect 10 0 9 0;
#X connect 11 0 12 2;
#X connect 12 0 0 0;
#X connect 13 0 3 1;
#X connect 14 0 2 1;
#X connect 15 0 11 0;
#X connect 16 0 15 0;
#X connect 17 0 21 0;
#X connect 18 0 17 0;
#X connect 18 1 17 1;
#X connect 20 0 16 0;
#X connect 21 0 20 0;
#X connect 21 1 20 1;
#X connect 22 0 14 0;
#X connect 22 0 13 0;
#X connect 23 0 2 0;
#X connect 23 0 3 0;
#X connect 24 0 7 0;
#X connect 24 1 7 0;
#X connect 25 0 10 0;
#X connect 25 1 10 0;
#X restore 144 325 pd tangent;
#X obj 128 355 *~;
#X obj 204 405 r \$1-\$2R-r;
#X obj 111 405 r \$1-\$2L-r;
#X obj 111 445 s~ \$1-\$2L;
#X obj 204 445 s~ \$1-\$2R;
#X obj 144 121 +;
#X obj 158 91 t b f;
#X obj 144 211 max 0;
#X obj 144 251 pack f f;
#X obj 97 325 min~ 1;
#X obj 158 71 mmm-ctrl \$1 \$2 4 transpose -24 24 0 int;
#X obj 225 127 mmm-ctrl \$1 \$2 5 glide 0 160 1 ext;
#X obj 619 187 * 2;
#X obj 28 21 mmm-module \$1 \$2 tangent 7;
#X obj 128 385 *~;
#X obj 278 267 cos;
#X obj 367 267 sin;
#X obj 382 227 * 0.015708;
#X msg 278 307 \$1 10;
#X msg 367 307 \$1 10;
#X obj 382 207 + 50;
#X obj 367 327 line~;
#X obj 278 327 line~;
#X obj 278 287 *;
#X obj 367 287 *;
#X obj 323 284 t b f;
#X obj 198 385 *~;
#X obj 323 177 * 0.02;
#X obj 323 157 mmm-ctrl \$1 \$2 2 level 0 100 30 int;
#X obj 382 187 mmm-ctrl \$1 \$2 3 pan -50 50 0 ext;
#X obj 225 167 mmm-ticks2ms;
#X obj 28 51 mmm-ctrl \$1 \$2 1 notes 0 127 -1 ext;
#X obj 283 51 mmm-notename;
#X msg 265 21 version 0.3.9;
#X connect 0 0 20 1;
#X connect 1 0 0 0;
#X connect 2 0 12 0;
#X connect 3 0 13 0;
#X connect 4 0 5 0;
#X connect 4 0 18 0;
#X connect 5 0 8 0;
#X connect 6 0 39 0;
#X connect 7 0 17 0;
#X connect 7 1 8 1;
#X connect 8 0 9 1;
#X connect 9 0 23 0;
#X connect 9 0 35 0;
#X connect 10 0 3 0;
#X connect 11 0 2 0;
#X connect 14 0 16 0;
#X connect 15 0 14 0;
#X connect 15 1 14 1;
#X connect 16 0 7 0;
#X connect 17 0 4 0;
#X connect 18 0 9 0;
#X connect 19 0 15 0;
#X connect 20 0 6 0;
#X connect 20 2 1 0;
#X connect 21 0 38 1;
#X connect 23 0 12 0;
#X connect 24 0 32 0;
#X connect 25 0 33 0;
#X connect 26 0 25 0;
#X connect 26 0 24 0;
#X connect 27 0 31 0;
#X connect 28 0 30 0;
#X connect 29 0 26 0;
#X connect 30 0 35 1;
#X connect 31 0 23 1;
#X connect 32 0 27 0;
#X connect 33 0 28 0;
#X connect 34 0 32 0;
#X connect 34 0 33 0;
#X connect 34 1 32 1;
#X connect 34 1 33 1;
#X connect 35 0 13 0;
#X connect 36 0 34 0;
#X connect 37 0 36 0;
#X connect 38 0 29 0;
#X connect 38 2 21 0;
#X connect 39 0 17 1;
#X connect 40 0 14 0;
#X connect 40 2 41 0;
#X connect 41 0 40 1;
