#N canvas 10 22 645 456 10;
#X obj 216 122 mmm-ctrl \$1 \$2 1 level 0 100 80 int;
#X obj 276 172 mmm-ctrl \$1 \$2 2 pre-delay 0 320 0 int;
#X obj 276 192 mmm-ctrl \$1 \$2 3 attack 1 320 64 int;
#X obj 276 212 mmm-ctrl \$1 \$2 4 decay 1 320 70 int;
#X obj 276 232 mmm-ctrl \$1 \$2 5 sustain 0 100 73 int;
#N canvas 0 22 343 331 shapes 0;
#X obj 15 20 inlet;
#X obj 15 40 sel 1 2 3 4 5 6 7 8 9 10 11;
#X obj 185 261 outlet;
#X msg 15 261 lin;
#X msg 32 241 +linsqrt;
#X msg 48 221 -linsqrt;
#X msg 65 201 +sqrt;
#X msg 81 181 -sqrt;
#X msg 98 161 +sin;
#X msg 115 141 -sin;
#X msg 132 121 +sinhann;
#X msg 148 101 -sinhann;
#X msg 182 61 -hann;
#X msg 165 81 +hann;
#X obj 185 241 symbol;
#X connect 0 0 1 0;
#X connect 1 0 3 0;
#X connect 1 1 4 0;
#X connect 1 2 5 0;
#X connect 1 3 6 0;
#X connect 1 4 7 0;
#X connect 1 5 8 0;
#X connect 1 6 9 0;
#X connect 1 7 10 0;
#X connect 1 8 11 0;
#X connect 1 9 13 0;
#X connect 1 10 12 0;
#X connect 3 0 14 0;
#X connect 4 0 14 0;
#X connect 5 0 14 0;
#X connect 6 0 14 0;
#X connect 7 0 14 0;
#X connect 8 0 14 0;
#X connect 9 0 14 0;
#X connect 10 0 14 0;
#X connect 11 0 14 0;
#X connect 12 0 14 0;
#X connect 13 0 14 0;
#X connect 14 0 2 0;
#X restore 513 272 pd shapes;
#N canvas 0 22 343 331 shapes 0;
#X obj 15 20 inlet;
#X obj 15 40 sel 1 2 3 4 5 6 7 8 9 10 11;
#X obj 185 261 outlet;
#X msg 15 261 lin;
#X msg 32 241 +linsqrt;
#X msg 48 221 -linsqrt;
#X msg 65 201 +sqrt;
#X msg 81 181 -sqrt;
#X msg 98 161 +sin;
#X msg 115 141 -sin;
#X msg 132 121 +sinhann;
#X msg 148 101 -sinhann;
#X msg 182 61 -hann;
#X msg 165 81 +hann;
#X obj 185 241 symbol;
#X connect 0 0 1 0;
#X connect 1 0 3 0;
#X connect 1 1 4 0;
#X connect 1 2 5 0;
#X connect 1 3 6 0;
#X connect 1 4 7 0;
#X connect 1 5 8 0;
#X connect 1 6 9 0;
#X connect 1 7 10 0;
#X connect 1 8 11 0;
#X connect 1 9 13 0;
#X connect 1 10 12 0;
#X connect 3 0 14 0;
#X connect 4 0 14 0;
#X connect 5 0 14 0;
#X connect 6 0 14 0;
#X connect 7 0 14 0;
#X connect 8 0 14 0;
#X connect 9 0 14 0;
#X connect 10 0 14 0;
#X connect 11 0 14 0;
#X connect 12 0 14 0;
#X connect 13 0 14 0;
#X connect 14 0 2 0;
#X restore 513 292 pd shapes;
#X obj 276 312 mmm-ctrl \$1 \$2 9 time 0 1 0 ext;
#X obj 499 312 sel 0 1;
#X msg 499 352 symbol samples;
#X msg 521 332 symbol ms;
#X obj 22 12 mmm-module \$1 \$2 t3_adsr 9;
#N canvas 49 40 523 432 guts 0;
#X obj 94 205 / 44.1;
#X obj 346 85 sel 0;
#X msg 346 105 44.1;
#X obj 346 125 t b f;
#X obj 144 205 / 44.1;
#X obj 334 205 / 44.1;
#X obj 384 205 * 0.01;
#X obj 434 205 / 44.1;
#N canvas 677 22 342 424 shapes 0;
#X obj 15 20 inlet;
#X obj 15 40 sel 1 2 3 4 5 6 7 8 9 10 11;
#X obj 16 347 outlet;
#X obj 81 347 outlet;
#X obj 16 307 unpack f s;
#X msg 81 327 set \$1;
#X msg 15 60 1 _lin;
#X msg 31 80 1 _linsqrt;
#X msg 48 100 0 _linsqrt;
#X msg 65 120 1 _sqrt;
#X msg 81 140 0 _sqrt;
#X msg 98 160 1 _sin;
#X msg 115 180 0 _sin;
#X msg 132 200 1 _sinhann;
#X msg 148 220 0 _sinhann;
#X msg 165 240 1 _hann;
#X msg 182 260 0 _hann;
#X connect 0 0 1 0;
#X connect 1 0 6 0;
#X connect 1 1 7 0;
#X connect 1 2 8 0;
#X connect 1 3 9 0;
#X connect 1 4 10 0;
#X connect 1 5 11 0;
#X connect 1 6 12 0;
#X connect 1 7 13 0;
#X connect 1 8 14 0;
#X connect 1 9 15 0;
#X connect 1 10 16 0;
#X connect 4 0 2 0;
#X connect 4 1 5 0;
#X connect 5 0 3 0;
#X connect 6 0 4 0;
#X connect 7 0 4 0;
#X connect 8 0 4 0;
#X connect 9 0 4 0;
#X connect 10 0 4 0;
#X connect 11 0 4 0;
#X connect 12 0 4 0;
#X connect 13 0 4 0;
#X connect 14 0 4 0;
#X connect 15 0 4 0;
#X connect 16 0 4 0;
#X restore 263 205 pd shapes;
#N canvas 677 22 330 412 shapes 0;
#X obj 15 20 inlet;
#X obj 15 40 sel 1 2 3 4 5 6 7 8 9 10 11;
#X obj 16 347 outlet;
#X obj 81 347 outlet;
#X obj 16 307 unpack f s;
#X msg 81 327 set \$1;
#X msg 15 60 1 _lin;
#X msg 31 80 1 _linsqrt;
#X msg 48 100 0 _linsqrt;
#X msg 65 120 1 _sqrt;
#X msg 81 140 0 _sqrt;
#X msg 98 160 1 _sin;
#X msg 115 180 0 _sin;
#X msg 132 200 1 _sinhann;
#X msg 148 220 0 _sinhann;
#X msg 165 240 1 _hann;
#X msg 182 260 0 _hann;
#X connect 0 0 1 0;
#X connect 1 0 6 0;
#X connect 1 1 7 0;
#X connect 1 2 8 0;
#X connect 1 3 9 0;
#X connect 1 4 10 0;
#X connect 1 5 11 0;
#X connect 1 6 12 0;
#X connect 1 7 13 0;
#X connect 1 8 14 0;
#X connect 1 9 15 0;
#X connect 1 10 16 0;
#X connect 4 0 2 0;
#X connect 4 1 5 0;
#X connect 5 0 3 0;
#X connect 6 0 4 0;
#X connect 7 0 4 0;
#X connect 8 0 4 0;
#X connect 9 0 4 0;
#X connect 10 0 4 0;
#X connect 11 0 4 0;
#X connect 12 0 4 0;
#X connect 13 0 4 0;
#X connect 14 0 4 0;
#X connect 15 0 4 0;
#X connect 16 0 4 0;
#X restore 195 205 pd shapes;
#N canvas 338 22 495 383 a_______ 0;
#X obj 38 164 t3_bpe;
#X obj 38 194 t3_line~ 0;
#X obj 38 76 f 0.04;
#X obj 38 224 fade~ lin;
#X obj 38 26 inlet;
#X obj 38 324 outlet~;
#X obj 79 26 inlet pre-delay;
#X obj 190 26 inlet attack;
#X obj 377 26 inlet fade;
#X obj 215 136 pack 0 1.5 0 0 1 0;
#X obj 73 136 pack 1 1.5 1 0 0 0;
#X obj 38 56 t b b;
#X obj 215 116 spigot;
#X obj 73 116 spigot 1;
#X obj 82 254 sig~ 1;
#X obj 82 274 -~;
#X obj 366 118 == 0;
#X obj 38 254 *~ 1;
#X obj 82 294 *~ 0;
#X obj 280 26 inlet inverse;
#X msg 365 145 0 \$1 0;
#X connect 0 0 1 0;
#X connect 0 1 1 1;
#X connect 1 0 3 0;
#X connect 2 0 0 0;
#X connect 3 0 17 0;
#X connect 3 0 15 1;
#X connect 4 0 11 0;
#X connect 6 0 2 1;
#X connect 7 0 10 1;
#X connect 7 0 9 1;
#X connect 8 0 3 0;
#X connect 9 0 0 0;
#X connect 10 0 0 0;
#X connect 11 0 2 0;
#X connect 11 1 13 0;
#X connect 11 1 12 0;
#X connect 12 0 9 0;
#X connect 13 0 10 0;
#X connect 14 0 15 0;
#X connect 15 0 18 0;
#X connect 16 0 12 1;
#X connect 16 0 18 1;
#X connect 16 0 20 0;
#X connect 17 0 5 0;
#X connect 18 0 5 0;
#X connect 19 0 16 0;
#X connect 19 0 13 1;
#X connect 19 0 17 1;
#X connect 20 0 1 0;
#X restore 23 255 pd a_______;
#N canvas 521 114 674 487 d__________________ 0;
#X obj 21 189 t3_bpe;
#X obj 21 226 t3_line~ 0;
#X obj 21 118 f 0.04;
#X obj 21 266 fade~ lin;
#X obj 21 21 inlet;
#X obj 21 400 outlet~;
#X obj 62 21 inlet pre-delay;
#X obj 173 21 inlet attack;
#X obj 263 21 inlet decay;
#X obj 346 21 inlet sustain;
#X obj 442 21 inlet release;
#X obj 72 68 t b f;
#X obj 62 88 +;
#X obj 450 317 outlet;
#X obj 580 21 inlet fade;
#X obj 51 158 pack 1 0 0.9 0.5 0 1.5;
#X obj 216 191 pack 0 0 0.1 0.5 1 1.5;
#X obj 346 51 * -1;
#X obj 346 71 + 1;
#X obj 216 171 spigot;
#X obj 51 138 spigot 1;
#X obj 65 296 sig~ 1;
#X obj 65 316 -~;
#X obj 492 158 == 0;
#X obj 21 296 *~ 1;
#X obj 65 336 *~ 0;
#X obj 21 88 t b b;
#X obj 539 21 inlet;
#X msg 487 194 0 \$1 0;
#X connect 0 0 1 0;
#X connect 0 1 1 1;
#X connect 0 2 13 0;
#X connect 1 0 3 0;
#X connect 2 0 0 0;
#X connect 3 0 24 0;
#X connect 3 0 22 1;
#X connect 4 0 26 0;
#X connect 6 0 12 0;
#X connect 7 0 11 0;
#X connect 8 0 15 3;
#X connect 8 0 16 3;
#X connect 9 0 15 2;
#X connect 9 0 17 0;
#X connect 10 0 15 5;
#X connect 10 0 16 5;
#X connect 11 0 12 0;
#X connect 11 1 12 1;
#X connect 12 0 2 1;
#X connect 14 0 3 0;
#X connect 15 0 0 0;
#X connect 16 0 0 0;
#X connect 17 0 18 0;
#X connect 18 0 16 2;
#X connect 19 0 16 0;
#X connect 20 0 15 0;
#X connect 21 0 22 0;
#X connect 22 0 25 0;
#X connect 23 0 19 1;
#X connect 23 0 25 1;
#X connect 23 0 28 0;
#X connect 24 0 5 0;
#X connect 25 0 5 0;
#X connect 26 0 2 0;
#X connect 26 1 20 0;
#X connect 26 1 19 0;
#X connect 27 0 23 0;
#X connect 27 0 20 1;
#X connect 27 0 24 1;
#X connect 28 0 1 0;
#X restore 175 265 pd d__________________;
#X obj 23 295 clip~ 0 1;
#X obj 23 205 b;
#X obj 324 305 t3_delay;
#X msg 293 325 1;
#X msg 324 325 0;
#X obj 293 345 switch~;
#X obj 41 326 outlet~;
#X obj 23 53 route level notes-seq pre-delay attack decay sustain release
aform dform time;
#X obj 23 23 inlet;
#X connect 0 0 10 1;
#X connect 0 0 11 1;
#X connect 1 0 2 0;
#X connect 1 1 3 0;
#X connect 2 0 3 0;
#X connect 3 0 0 0;
#X connect 3 0 4 0;
#X connect 3 0 5 0;
#X connect 3 0 7 0;
#X connect 3 1 0 1;
#X connect 3 1 4 1;
#X connect 3 1 5 1;
#X connect 3 1 7 1;
#X connect 4 0 10 2;
#X connect 4 0 11 2;
#X connect 5 0 11 3;
#X connect 6 0 11 4;
#X connect 7 0 11 5;
#X connect 8 0 11 6;
#X connect 8 1 11 7;
#X connect 9 0 10 3;
#X connect 9 1 10 4;
#X connect 10 0 12 0;
#X connect 11 0 12 0;
#X connect 11 1 14 0;
#X connect 12 0 18 0;
#X connect 13 0 10 0;
#X connect 13 0 11 0;
#X connect 13 0 15 0;
#X connect 14 0 16 0;
#X connect 15 0 17 0;
#X connect 16 0 17 0;
#X connect 19 0 13 0;
#X connect 19 1 13 0;
#X connect 19 2 0 0;
#X connect 19 3 4 0;
#X connect 19 4 5 0;
#X connect 19 5 6 0;
#X connect 19 6 7 0;
#X connect 19 7 9 0;
#X connect 19 8 8 0;
#X connect 19 9 1 0;
#X connect 20 0 19 0;
#X restore 87 337 pd guts;
#X obj 22 62 r~ 1-nothing;
#X obj 22 382 *~;
#X obj 122 62 r~ 1-nothing;
#X obj 122 382 *~;
#X obj 122 42 r \$1-\$2R-r;
#X obj 22 42 r \$1-\$2L-r;
#X obj 22 412 s~ \$1-\$2L;
#X obj 122 412 s~ \$1-\$2R;
#X obj 276 252 mmm-ctrl \$1 \$2 6 release 0 640 128 int;
#X obj 276 272 mmm-ctrl \$1 \$2 7 aform 1 11 1 ext;
#X msg 179 172 level \$1;
#X msg 179 192 pre-delay \$1;
#X msg 179 212 attack \$1;
#X msg 179 232 decay \$1;
#X msg 179 252 sustain \$1;
#X msg 179 272 release \$1;
#X msg 179 292 afrom \$1;
#X msg 179 312 dform \$1;
#X msg 179 332 time \$1;
#X obj 179 152 f;
#X obj 215 82 b;
#X obj 214 42 r \$3;
#X obj 214 62 route notes;
#X obj 276 292 mmm-ctrl \$1 \$2 8 dform 1 11 1 ext;
#X msg 214 12 vesion 0.3.2;
#X connect 0 0 32 0;
#X connect 0 1 32 1;
#X connect 1 0 24 0;
#X connect 2 0 25 0;
#X connect 3 0 26 0;
#X connect 4 0 27 0;
#X connect 5 0 22 1;
#X connect 6 0 36 1;
#X connect 7 0 31 0;
#X connect 7 2 8 0;
#X connect 8 0 9 0;
#X connect 8 1 10 0;
#X connect 9 0 7 1;
#X connect 10 0 7 1;
#X connect 12 0 14 1;
#X connect 12 0 16 1;
#X connect 13 0 14 0;
#X connect 14 0 19 0;
#X connect 15 0 16 0;
#X connect 16 0 20 0;
#X connect 17 0 15 0;
#X connect 18 0 13 0;
#X connect 21 0 28 0;
#X connect 22 0 29 0;
#X connect 22 2 5 0;
#X connect 23 0 12 0;
#X connect 24 0 12 0;
#X connect 25 0 12 0;
#X connect 26 0 12 0;
#X connect 27 0 12 0;
#X connect 28 0 12 0;
#X connect 29 0 12 0;
#X connect 30 0 12 0;
#X connect 31 0 12 0;
#X connect 32 0 23 0;
#X connect 33 0 32 0;
#X connect 34 0 35 0;
#X connect 35 0 33 0;
#X connect 36 0 30 0;
#X connect 36 2 6 0;
