#N canvas 105 22 570 470 10;
#X obj 351 111 makesymbol %s;
#X obj 448 111 * 0.1;
#X obj 28 401 r~ 1-nothing;
#X obj 121 401 r~ 1-nothing;
#X obj 85 241 line~;
#X obj 85 261 mtof~;
#X obj 107 131 * 0.1;
#X obj 85 281 phasor~;
#N canvas 750 94 220 277 triangle~ 0;
#X obj 73 66 max~ 0.5;
#X obj 73 86 *~ -2;
#X obj 73 106 +~ 1;
#X obj 42 156 -~ 1;
#X obj 42 136 *~ 4;
#X obj 42 186 outlet~;
#X obj 42 36 inlet~;
#X connect 0 0 1 0;
#X connect 1 0 2 0;
#X connect 2 0 4 0;
#X connect 3 0 5 0;
#X connect 4 0 3 0;
#X connect 6 0 0 0;
#X connect 6 0 4 0;
#X restore 85 301 pd triangle~;
#X obj 69 321 *~;
#X obj 121 381 r \$1-\$2R-r;
#X obj 121 421 s~ \$1-\$2R;
#X obj 28 421 s~ \$1-\$2L;
#X obj 28 381 r \$1-\$2L-r;
#X obj 85 221 pack;
#X obj 28 131 +;
#X obj 42 101 t b f;
#X obj 28 151 max 0;
#X obj 30 281 min~ 1;
#X obj 42 81 mmm-ctrl \$1 \$2 4 transpose -24 24 0 int;
#X obj 107 111 mmm-ctrl \$1 \$2 5 glide 0 160 1 ext;
#X obj 28 21 mmm-module \$1 \$2 triangle 5;
#X obj 532 171 * 2;
#X obj 69 351 *~;
#X obj 231 161 * 0.01;
#X obj 186 241 cos;
#X obj 295 241 sin;
#X obj 295 211 * 0.015708;
#X msg 186 281 \$1 10;
#X msg 295 281 \$1 10;
#X obj 295 191 + 50;
#X obj 295 301 line~;
#X obj 186 301 line~;
#X obj 186 261 *;
#X obj 295 261 *;
#X obj 231 258 t b f;
#X obj 109 351 *~;
#X obj 295 171 mmm-ctrl \$1 \$2 2 pan -50 50 0 ext;
#X obj 107 151 mmm-ticks2ms;
#X obj 28 61 mmm-ctrl \$1 \$2 1 notes 0 127 -1 ext;
#X obj 231 141 mmm-ctrl \$1 \$2 3 level 0 100 30 int;
#X obj 279 61 mmm-notename;
#X msg 265 21 version 0.3.10;
#X connect 0 0 20 1;
#X connect 1 0 0 0;
#X connect 2 0 12 0;
#X connect 3 0 11 0;
#X connect 4 0 5 0;
#X connect 4 0 18 0;
#X connect 5 0 7 0;
#X connect 6 0 38 0;
#X connect 7 0 8 0;
#X connect 8 0 9 1;
#X connect 9 0 23 0;
#X connect 9 0 36 0;
#X connect 10 0 3 0;
#X connect 13 0 2 0;
#X connect 14 0 4 0;
#X connect 15 0 17 0;
#X connect 16 0 15 0;
#X connect 16 1 15 1;
#X connect 17 0 14 0;
#X connect 18 0 9 0;
#X connect 19 0 16 0;
#X connect 20 0 6 0;
#X connect 20 2 1 0;
#X connect 22 0 37 1;
#X connect 23 0 12 0;
#X connect 24 0 35 0;
#X connect 25 0 33 0;
#X connect 26 0 34 0;
#X connect 27 0 26 0;
#X connect 27 0 25 0;
#X connect 28 0 32 0;
#X connect 29 0 31 0;
#X connect 30 0 27 0;
#X connect 31 0 36 1;
#X connect 32 0 23 1;
#X connect 33 0 28 0;
#X connect 34 0 29 0;
#X connect 35 0 33 0;
#X connect 35 0 34 0;
#X connect 35 1 33 1;
#X connect 35 1 34 1;
#X connect 36 0 11 0;
#X connect 37 0 30 0;
#X connect 37 2 22 0;
#X connect 38 0 14 1;
#X connect 39 0 15 0;
#X connect 39 2 41 0;
#X connect 40 0 24 0;
#X connect 41 0 39 1;
