#N canvas 342 192 360 213 10;
#X obj 29 103 r~ 1-nothing;
#X obj 28 131 *~;
#X obj 128 101 r~ 1-nothing;
#X obj 128 131 *~;
#X obj 28 21 mmm-module \$1 \$2 vadsr 6;
#X obj 128 81 r \$1-\$2R-r;
#X obj 28 81 r \$1-\$2L-r;
#X obj 28 161 s~ \$1-\$2L;
#X obj 128 161 s~ \$1-\$2R;
#N canvas 313 167 715 644 vadsr 1;
#X obj 167 487 vline~;
#X obj 29 447 vline~;
#X obj 167 507 dbtorms~;
#X obj 29 467 dbtorms~;
#X obj 13 517 -~;
#X obj 13 497 sig~ 1;
#X obj 137 358 rmstodb;
#X obj 136 211 max 0.1;
#X obj 210 165 max 0.1;
#X msg 167 467 0 10 0 \, 100 0 \$1 \, \$3 \$2 \$1 \, 0 \$5 \$4;
#X obj 29 397 pack 3 4 93.9794 12 16;
#X obj 372 274 max 0.1;
#X obj 309 274 + 2;
#X obj 242 247 t b f;
#X obj 242 217 t b f;
#X obj 309 244 + 4;
#X obj 29 377 f 3;
#X msg 29 427 100 \, 60 \$1 0 \, 100 0 \$1;
#X obj 137 338 * 0.01;
#X obj 70 577 outlet~;
#X obj 70 557 *~ 0.8;
#X obj 107 171 * 0.01;
#X obj 210 125 *;
#X msg 210 105 \$1 \$1;
#X obj 210 145 * 0.1;
#X obj 309 195 *;
#X msg 309 175 \$1 \$1;
#X obj 309 215 * 0.1;
#X obj 372 234 *;
#X msg 372 214 \$1 \$1;
#X obj 372 254 * 0.1;
#X obj 137 308 mmm-ctrl \$1 \$2 4 sustain 0 100 40 int;
#N canvas 0 22 317 329 q2 0;
#X obj 18 17 inlet;
#X obj 18 57 *;
#X msg 18 37 \$1 \$1;
#X obj 18 77 * 0.1;
#X obj 18 257 outlet;
#X msg 94 207 set \$1;
#X obj 18 237 makefilename;
#X obj 18 97 t f f f;
#X obj 40 137 -;
#X obj 40 157 sel 0;
#X msg 40 187 set %d;
#X obj 62 117 int;
#X obj 94 167 * 10.001;
#X obj 94 187 makefilename %%d.%d;
#X connect 0 0 2 0;
#X connect 1 0 3 0;
#X connect 2 0 1 0;
#X connect 3 0 7 0;
#X connect 5 0 6 0;
#X connect 6 0 4 0;
#X connect 7 0 6 0;
#X connect 7 1 8 0;
#X connect 7 2 11 0;
#X connect 8 0 9 0;
#X connect 9 0 10 0;
#X connect 9 1 12 0;
#X connect 10 0 6 0;
#X connect 11 0 8 1;
#X connect 12 0 13 0;
#X connect 13 0 5 0;
#X restore 388 55 pd q2;
#X obj 136 55 mmm-ctrl \$1 \$2 2 attack 0 200 7 ext;
#N canvas 0 22 313 325 q2 0;
#X obj 18 17 inlet;
#X obj 18 57 *;
#X msg 18 37 \$1 \$1;
#X obj 18 77 * 0.1;
#X obj 18 257 outlet;
#X msg 94 207 set \$1;
#X obj 18 237 makefilename;
#X obj 18 97 t f f f;
#X obj 40 137 -;
#X obj 40 157 sel 0;
#X msg 40 187 set %d;
#X obj 62 117 int;
#X obj 94 167 * 10.001;
#X obj 94 187 makefilename %%d.%d;
#X connect 0 0 2 0;
#X connect 1 0 3 0;
#X connect 2 0 1 0;
#X connect 3 0 7 0;
#X connect 5 0 6 0;
#X connect 6 0 4 0;
#X connect 7 0 6 0;
#X connect 7 1 8 0;
#X connect 7 2 11 0;
#X connect 8 0 9 0;
#X connect 9 0 10 0;
#X connect 9 1 12 0;
#X connect 10 0 6 0;
#X connect 11 0 8 1;
#X connect 12 0 13 0;
#X connect 13 0 5 0;
#X restore 462 85 pd q2;
#N canvas 0 22 313 325 q2 0;
#X obj 18 17 inlet;
#X obj 18 57 *;
#X msg 18 37 \$1 \$1;
#X obj 18 77 * 0.1;
#X obj 18 257 outlet;
#X msg 94 207 set \$1;
#X obj 18 237 makefilename;
#X obj 18 97 t f f f;
#X obj 40 137 -;
#X obj 40 157 sel 0;
#X msg 40 187 set %d;
#X obj 62 117 int;
#X obj 94 167 * 10.001;
#X obj 94 187 makefilename %%d.%d;
#X connect 0 0 2 0;
#X connect 1 0 3 0;
#X connect 2 0 1 0;
#X connect 3 0 7 0;
#X connect 5 0 6 0;
#X connect 6 0 4 0;
#X connect 7 0 6 0;
#X connect 7 1 8 0;
#X connect 7 2 11 0;
#X connect 8 0 9 0;
#X connect 9 0 10 0;
#X connect 9 1 12 0;
#X connect 10 0 6 0;
#X connect 11 0 8 1;
#X connect 12 0 13 0;
#X connect 13 0 5 0;
#X restore 554 135 pd q2;
#X obj 210 85 mmm-ctrl \$1 \$2 3 decay 0 200 30 ext;
#X obj 309 135 mmm-ctrl \$1 \$2 5 hold 0 200 20 ext;
#X obj 28 75 route notes;
#X obj 136 95 *;
#X msg 136 75 \$1 \$1;
#X obj 136 115 * 0.1;
#X obj 107 27 mmm-ctrl \$1 \$2 1 level 0 100 -1 int;
#X obj 28 45 r \$1-\$2;
#X obj 28 125 f 50;
#X obj 28 145 t b a;
#X obj 28 95 b;
#X obj 372 194 mmm-ctrl \$1 \$2 6 release 0 127 70 int;
#X msg 224 403 100;
#X obj 224 382 loadbang;
#X connect 0 0 2 0;
#X connect 1 0 3 0;
#X connect 2 0 20 0;
#X connect 3 0 4 1;
#X connect 4 0 20 0;
#X connect 5 0 4 0;
#X connect 6 0 10 2;
#X connect 7 0 13 0;
#X connect 7 0 16 1;
#X connect 8 0 14 0;
#X connect 8 0 10 1;
#X connect 9 0 0 0;
#X connect 10 0 17 0;
#X connect 10 0 9 0;
#X connect 11 0 10 4;
#X connect 12 0 10 3;
#X connect 13 0 12 0;
#X connect 13 1 12 1;
#X connect 14 0 15 0;
#X connect 14 1 15 1;
#X connect 15 0 12 0;
#X connect 16 0 10 0;
#X connect 17 0 1 0;
#X connect 18 0 6 0;
#X connect 20 0 19 0;
#X connect 21 0 20 1;
#X connect 22 0 24 0;
#X connect 23 0 22 0;
#X connect 24 0 8 0;
#X connect 25 0 27 0;
#X connect 26 0 25 0;
#X connect 27 0 15 0;
#X connect 28 0 30 0;
#X connect 29 0 28 0;
#X connect 30 0 11 0;
#X connect 31 0 18 0;
#X connect 32 0 33 1;
#X connect 33 0 40 0;
#X connect 33 2 32 0;
#X connect 34 0 36 1;
#X connect 35 0 37 1;
#X connect 36 0 23 0;
#X connect 36 2 34 0;
#X connect 37 0 26 0;
#X connect 37 2 35 0;
#X connect 38 0 46 0;
#X connect 39 0 41 0;
#X connect 40 0 39 0;
#X connect 41 0 7 0;
#X connect 42 0 44 0;
#X connect 43 0 38 0;
#X connect 44 0 45 0;
#X connect 45 0 16 0;
#X connect 45 1 21 0;
#X connect 46 0 44 0;
#X connect 47 0 29 0;
#X connect 48 0 1 0;
#X connect 49 0 48 0;
#X restore 89 51 pd vadsr;
#X msg 217 21 version 0.3.7;
#X connect 0 0 1 0;
#X connect 1 0 7 0;
#X connect 2 0 3 0;
#X connect 3 0 8 0;
#X connect 5 0 2 0;
#X connect 6 0 0 0;
#X connect 9 0 1 1;
#X connect 9 0 3 1;
