#N canvas 1 22 575 568 10;
#X obj 40 411 r~ 1-nothing;
#X obj 40 471 *~;
#X obj 98 201 t f b;
#X obj 98 171 * 0.01;
#X obj 140 411 r~ 1-nothing;
#X obj 140 471 *~;
#X obj 98 131 f 80;
#X obj 28 91 b;
#X obj 98 101 mmm-ctrl \$1 \$2 1 level 0 100 80 int;
#X obj 140 391 r \$1-\$2R-r;
#X obj 140 501 s~ \$1-\$2R;
#X obj 40 501 s~ \$1-\$2L;
#X obj 40 391 r \$1-\$2L-r;
#X obj 128 221 f;
#X obj 128 241 pack;
#X obj 309 333 vline~;
#X obj 128 327 vline~;
#X msg 62 298 1;
#X obj 62 278 loadbang;
#X obj 72 444 *~;
#X obj 28 21 mmm-module \$1 \$2 vead 3;
#N canvas 0 22 309 321 q2 0;
#X obj 18 17 inlet;
#X obj 18 57 *;
#X msg 18 37 \$1 \$1;
#X obj 18 77 * 0.1;
#X obj 18 257 outlet;
#X msg 94 207 set \$1;
#X obj 18 237 makefilename;
#X obj 18 97 t f f f;
#X obj 40 137 -;
#X obj 40 157 sel 0;
#X msg 40 187 set %d;
#X obj 62 117 int;
#X obj 94 167 * 10.001;
#X obj 94 187 makefilename %%d.%d;
#X connect 0 0 2 0;
#X connect 1 0 3 0;
#X connect 2 0 1 0;
#X connect 3 0 7 0;
#X connect 5 0 6 0;
#X connect 6 0 4 0;
#X connect 7 0 6 0;
#X connect 7 1 8 0;
#X connect 7 2 11 0;
#X connect 8 0 9 0;
#X connect 9 0 10 0;
#X connect 9 1 12 0;
#X connect 10 0 6 0;
#X connect 11 0 8 1;
#X connect 12 0 13 0;
#X connect 13 0 5 0;
#X restore 465 161 pd q2;
#N canvas 0 22 321 333 q2 0;
#X obj 18 17 inlet;
#X obj 18 57 *;
#X msg 18 37 \$1 \$1;
#X obj 18 77 * 0.1;
#X obj 18 257 outlet;
#X msg 94 207 set \$1;
#X obj 18 237 makefilename;
#X obj 18 97 t f f f;
#X obj 40 137 -;
#X obj 40 157 sel 0;
#X msg 40 187 set %d;
#X obj 62 117 int;
#X obj 94 167 * 10.001;
#X obj 94 187 makefilename %%d.%d;
#X connect 0 0 2 0;
#X connect 1 0 3 0;
#X connect 2 0 1 0;
#X connect 3 0 7 0;
#X connect 5 0 6 0;
#X connect 6 0 4 0;
#X connect 7 0 6 0;
#X connect 7 1 8 0;
#X connect 7 2 11 0;
#X connect 8 0 9 0;
#X connect 9 0 10 0;
#X connect 9 1 12 0;
#X connect 10 0 6 0;
#X connect 11 0 8 1;
#X connect 12 0 13 0;
#X connect 13 0 5 0;
#X restore 417 131 pd q2;
#X obj 214 201 *;
#X msg 214 181 \$1 \$1;
#X obj 214 221 * 0.1;
#X obj 156 171 *;
#X msg 156 151 \$1 \$1;
#X obj 156 191 * 0.1;
#X obj 309 353 expr~ pow($v1 \, 6);
#X obj 128 347 expr~ 1 - pow($v1 \, 6);
#X obj 28 71 route notes;
#X msg 128 278 1 \, 0 \$1 0 \, 1 0 \$1;
#X msg 309 280 0 \, 1 0 \$1 \, 0 \$2 \$1;
#X obj 156 131 mmm-ctrl \$1 \$2 2 attack 0 200 15 ext;
#X obj 214 161 mmm-ctrl \$1 \$2 3 decay 0 200 30 ext;
#X msg 255 21 version 0.3.4;
#X obj 28 51 r \$1-\$2;
#X connect 0 0 1 0;
#X connect 1 0 11 0;
#X connect 2 0 19 1;
#X connect 2 1 13 0;
#X connect 3 0 2 0;
#X connect 4 0 5 0;
#X connect 5 0 10 0;
#X connect 6 0 3 0;
#X connect 7 0 6 0;
#X connect 8 0 6 0;
#X connect 9 0 4 0;
#X connect 12 0 0 0;
#X connect 13 0 14 0;
#X connect 14 0 32 0;
#X connect 14 0 33 0;
#X connect 15 0 29 0;
#X connect 16 0 30 0;
#X connect 17 0 16 0;
#X connect 18 0 17 0;
#X connect 19 0 1 1;
#X connect 19 0 5 1;
#X connect 21 0 35 1;
#X connect 22 0 34 1;
#X connect 23 0 25 0;
#X connect 24 0 23 0;
#X connect 25 0 14 1;
#X connect 26 0 28 0;
#X connect 27 0 26 0;
#X connect 28 0 13 1;
#X connect 29 0 19 0;
#X connect 30 0 19 0;
#X connect 31 0 7 0;
#X connect 32 0 16 0;
#X connect 33 0 15 0;
#X connect 34 0 27 0;
#X connect 34 2 22 0;
#X connect 35 0 24 0;
#X connect 35 2 21 0;
#X connect 37 0 31 0;
