#N canvas 48 26 634 517 10;
#X obj 88 451 r~ 1-nothing;
#X obj 181 451 r~ 1-nothing;
#X obj 138 301 line~;
#X obj 200 208 * 0.1;
#X obj 287 308 * 0.01;
#X obj 122 371 *~;
#X obj 88 431 r \$1-\$2L-r;
#X obj 181 431 r \$1-\$2R-r;
#X obj 181 471 s~ \$1-\$2R;
#X obj 88 471 s~ \$1-\$2L;
#X obj 138 271 pack;
#X obj 138 201 +;
#X obj 152 171 t b f;
#X obj 138 221 max 0;
#N canvas 514 142 311 291 f2s 0;
#X obj 27 25 inlet;
#X obj 27 225 outlet;
#X msg 104 165 set \$1;
#X obj 27 195 makefilename;
#X obj 27 55 t f f f;
#X obj 50 95 -;
#X obj 50 115 sel 0;
#X msg 50 145 set %d;
#X obj 71 75 int;
#X obj 105 125 * 10.001;
#X obj 104 145 makefilename %%d.%d;
#X connect 0 0 4 0;
#X connect 2 0 3 0;
#X connect 3 0 1 0;
#X connect 4 0 3 0;
#X connect 4 1 5 0;
#X connect 4 2 8 0;
#X connect 5 0 6 0;
#X connect 6 0 7 0;
#X connect 6 1 9 0;
#X connect 7 0 3 0;
#X connect 8 0 5 1;
#X connect 9 0 10 0;
#X connect 10 0 2 0;
#X restore 444 188 pd f2s;
#X obj 492 188 * 0.1;
#X obj 200 228 mmm-ticks2ms;
#N canvas 0 22 597 563 wavepackets 0;
#X obj 18 22 inlet~;
#X obj 141 522 outlet~;
#X obj 74 21 inlet;
#X obj 134 21 inlet;
#X obj 277 113 line~;
#X obj 277 90 pack 0 50;
#X obj 402 128 line~;
#X obj 137 391 *~;
#X obj 402 105 pack 0 50;
#X obj 137 440 cos~;
#X obj 277 162 *~;
#X obj 401 171 *~;
#X obj 84 226 phasor~;
#X obj 476 284 +~ 0.5;
#X obj 476 309 wrap~;
#X obj 137 463 +~ 1;
#X obj 83 327 -~ 0.5;
#X obj 82 391 *~;
#X obj 82 414 cos~;
#X obj 219 361 samphold~;
#X obj 131 360 samphold~;
#X obj 81 439 *~;
#X obj 137 415 clip~ -0.5 0.5;
#X obj 377 402 *~;
#X obj 377 451 cos~;
#X obj 377 474 +~ 1;
#X obj 323 338 -~ 0.5;
#X obj 322 402 *~;
#X obj 322 425 cos~;
#X obj 459 372 samphold~;
#X obj 371 371 samphold~;
#X obj 321 450 *~;
#X obj 377 426 clip~ -0.5 0.5;
#X obj 401 195 max~ 1;
#X obj 346 114 sig~ 1;
#X obj 346 134 /~;
#X obj 210 90 -~ 12;
#X obj 211 115 mtof~;
#X connect 0 0 36 0;
#X connect 2 0 5 0;
#X connect 3 0 8 0;
#X connect 4 0 10 0;
#X connect 5 0 4 0;
#X connect 6 0 11 0;
#X connect 7 0 22 0;
#X connect 8 0 6 0;
#X connect 9 0 15 0;
#X connect 10 0 20 0;
#X connect 10 0 30 0;
#X connect 11 0 33 0;
#X connect 12 0 13 0;
#X connect 12 0 16 0;
#X connect 12 0 20 1;
#X connect 12 0 19 1;
#X connect 13 0 14 0;
#X connect 14 0 26 0;
#X connect 14 0 30 1;
#X connect 14 0 29 1;
#X connect 15 0 21 1;
#X connect 16 0 7 0;
#X connect 16 0 17 0;
#X connect 17 0 18 0;
#X connect 18 0 21 0;
#X connect 19 0 7 1;
#X connect 20 0 17 1;
#X connect 21 0 1 0;
#X connect 22 0 9 0;
#X connect 23 0 32 0;
#X connect 24 0 25 0;
#X connect 25 0 31 1;
#X connect 26 0 23 0;
#X connect 26 0 27 0;
#X connect 27 0 28 0;
#X connect 28 0 31 0;
#X connect 29 0 23 1;
#X connect 30 0 27 1;
#X connect 31 0 1 0;
#X connect 32 0 24 0;
#X connect 33 0 19 0;
#X connect 33 0 29 0;
#X connect 34 0 35 0;
#X connect 35 0 10 1;
#X connect 35 0 11 1;
#X connect 36 0 37 0;
#X connect 37 0 12 0;
#X connect 37 0 35 1;
#X restore 138 351 pd wavepackets;
#X obj 241 101 mtof;
#X obj 299 101 mtof;
#X text 42 55 from F14.wave.packet.pd;
#X obj 88 331 min~ 1;
#X obj 152 151 mmm-ctrl \$1 \$2 4 transpose -24 24 0 int;
#X obj 200 188 mmm-ctrl \$1 \$2 5 glide 0 160 1 ext;
#X obj 241 61 mmm-ctrl \$1 \$2 6 center-freq 0 127 64 int;
#X obj 299 81 mmm-ctrl \$1 \$2 7 bandwidth 0 127 64 int;
#X obj 584 218 * 2;
#X obj 28 21 mmm-module \$1 \$2 wavepackets 7;
#X obj 122 401 *~;
#X obj 242 311 cos;
#X obj 346 311 sin;
#X obj 346 258 * 0.015708;
#X msg 242 351 \$1 10;
#X msg 346 351 \$1 10;
#X obj 346 238 + 50;
#X obj 346 371 line~;
#X obj 242 371 line~;
#X obj 242 331 *;
#X obj 346 331 *;
#X obj 287 328 t b f;
#X obj 162 401 *~;
#X obj 287 288 mmm-ctrl \$1 \$2 2 level 0 100 30 int;
#X obj 346 218 mmm-ctrl \$1 \$2 3 pan -50 50 0 ext;
#X obj 22 131 mmm-ctrl \$1 \$2 1 notes 0 127 -1 ext;
#X msg 287 21 version 0.3.6;
#X obj 273 131 mmm-notename;
#X connect 0 0 9 0;
#X connect 1 0 8 0;
#X connect 2 0 17 0;
#X connect 2 0 21 0;
#X connect 3 0 16 0;
#X connect 4 0 39 0;
#X connect 5 0 28 0;
#X connect 5 0 40 0;
#X connect 6 0 0 0;
#X connect 7 0 1 0;
#X connect 10 0 2 0;
#X connect 11 0 13 0;
#X connect 12 0 11 0;
#X connect 12 1 11 1;
#X connect 13 0 10 0;
#X connect 14 0 23 1;
#X connect 15 0 14 0;
#X connect 16 0 10 1;
#X connect 17 0 5 1;
#X connect 18 0 17 1;
#X connect 19 0 17 2;
#X connect 21 0 5 0;
#X connect 22 0 12 0;
#X connect 23 0 3 0;
#X connect 23 2 15 0;
#X connect 24 0 18 0;
#X connect 25 0 19 0;
#X connect 26 0 42 1;
#X connect 28 0 9 0;
#X connect 29 0 37 0;
#X connect 30 0 38 0;
#X connect 31 0 30 0;
#X connect 31 0 29 0;
#X connect 32 0 36 0;
#X connect 33 0 35 0;
#X connect 34 0 31 0;
#X connect 35 0 40 1;
#X connect 36 0 28 1;
#X connect 37 0 32 0;
#X connect 38 0 33 0;
#X connect 39 0 37 0;
#X connect 39 0 38 0;
#X connect 39 1 37 1;
#X connect 39 1 38 1;
#X connect 40 0 8 0;
#X connect 41 0 4 0;
#X connect 42 0 34 0;
#X connect 42 2 26 0;
#X connect 43 0 11 0;
#X connect 43 2 45 0;
#X connect 45 0 43 1;
