#N canvas 299 410 469 340 10;
#X obj 28 281 r~ 1-nothing;
#X obj 117 281 r~ 1-nothing;
#X obj 28 261 r \$1-\$2L-r;
#X obj 117 261 r \$1-\$2R-r;
#X obj 117 301 s~ \$1-\$2R;
#X obj 28 301 s~ \$1-\$2L;
#X obj 84 231 *~;
#X obj 28 131 * 0.01;
#X msg 28 151 \$1 \$1;
#X obj 28 171 *;
#X obj 123 231 *~;
#N canvas 382 108 658 518 gigaplay~ 0;
#X obj 316 211 soundfiler;
#X obj 316 157 pack s s;
#X obj 367 122 symbol \$0-start;
#X obj 367 71 loadbang;
#X msg 380 95 bang;
#X obj 286 44 inlet;
#X obj 66 44 inlet;
#X obj 444 318 table \$0-start-l 44100;
#X obj 444 291 table \$0-start-r 44100;
#X obj 191 383 outlet~;
#X obj 220 343 outlet~;
#X obj 191 277 readsf~ 2;
#X obj 191 223 symbol;
#X obj 286 127 t a a;
#X msg 191 250 open \$1 44100;
#X obj 66 218 del 1000;
#X msg 66 245 1;
#X obj 302 291 tabplay~ \$0-start-r;
#X obj 302 318 tabplay~ \$0-start-l;
#X obj 66 115 t b b b;
#X obj 302 264 b;
#X obj 249 297 outlet;
#X text 389 156 no resize!;
#X msg 316 184 read -nframes 44100 \$1 \$2-l \$2-r;
#X text 110 43 start;
#X text 335 43 filename;
#X connect 1 0 23 0;
#X connect 2 0 1 1;
#X connect 3 0 2 0;
#X connect 4 0 2 0;
#X connect 5 0 13 0;
#X connect 6 0 19 0;
#X connect 11 0 9 0;
#X connect 11 1 10 0;
#X connect 11 2 21 0;
#X connect 12 0 14 0;
#X connect 13 0 12 1;
#X connect 13 1 1 0;
#X connect 14 0 11 0;
#X connect 15 0 16 0;
#X connect 16 0 11 0;
#X connect 17 0 10 0;
#X connect 18 0 9 0;
#X connect 19 0 15 0;
#X connect 19 1 12 0;
#X connect 19 2 20 0;
#X connect 20 0 17 0;
#X connect 20 0 18 0;
#X connect 23 0 0 0;
#X restore 84 201 pd gigaplay~;
#X obj 183 131 sel 1;
#X obj 183 171 openpanel;
#X obj 183 151 del 200;
#X obj 28 81 mmm-ctrl \$1 \$2 1 level 0 100 80 int;
#X obj 183 111 mmm-ctrl \$1 \$2 2 loadfile 0 1 0 int;
#X obj 28 21 mmm-module \$1 \$2 waveplayer 2;
#X msg 123 151 bang;
#X obj 79 131 moses 0;
#X obj 123 171 spigot;
#X msg 182 191 1;
#X obj 28 51 mmm-controller-display \$3 3 -;
#X obj 28 101 t a;
#X msg 240 21 version 0.3.2;
#X msg 251 151 bang;
#X connect 0 0 5 0;
#X connect 1 0 4 0;
#X connect 2 0 0 0;
#X connect 3 0 1 0;
#X connect 6 0 5 0;
#X connect 7 0 8 0;
#X connect 8 0 9 0;
#X connect 9 0 6 1;
#X connect 9 0 10 1;
#X connect 10 0 4 0;
#X connect 11 0 6 0;
#X connect 11 1 10 0;
#X connect 12 0 14 0;
#X connect 13 0 11 1;
#X connect 13 0 21 0;
#X connect 14 0 13 0;
#X connect 15 0 23 0;
#X connect 18 0 20 0;
#X connect 19 1 18 0;
#X connect 20 0 11 0;
#X connect 21 0 20 1;
#X connect 23 0 7 0;
#X connect 23 0 19 0;
#X connect 25 0 13 0;
