#N canvas 511 22 647 669 10;
#X obj 28 551 r~ 1-nothing;
#X obj 28 581 *~;
#X obj 208 551 r~ 1-nothing;
#X obj 208 581 *~;
#X obj 208 531 r \$1-\$2R-r;
#X obj 28 531 r \$1-\$2L-r;
#X obj 28 611 s~ \$1-\$2L;
#X obj 208 611 s~ \$1-\$2R;
#X obj 376 481 makefilename %d;
#X obj 487 481 * 2;
#X obj 493 117 s \$3-loop-L;
#X msg 483 87 resize \$1;
#X obj 483 47 mmm-ticks2ms;
#X obj 483 67 * 44.1;
#X obj 483 27 * 0.1;
#X obj 483 137 s \$3-loop-R;
#X obj 68 581 *~;
#X obj 248 581 *~;
#X obj 124 551 cos;
#X obj 164 551 sin;
#X obj 124 501 + 50;
#X obj 124 521 * 0.015708;
#X obj 435 305 soundfiler;
#X obj 314 189 del 200;
#X obj 314 169 sel 1;
#X obj 314 209 openpanel;
#X msg 435 285 read -resize \$1 \$2-L \$2-R;
#X obj 515 219 /;
#X msg 515 199 240000 \$1;
#X obj 515 239 * 44.1;
#X obj 28 131 sel 1;
#X obj 68 451 tabread4~ \$3-loop-L;
#X obj 248 451 tabread4~ \$3-loop-R;
#X obj 68 401 vline~;
#X obj 68 361 pack f f;
#X obj 68 341 f 1;
#X obj 314 249 - 3;
#X obj 314 319 / 44.1;
#N canvas 661 22 389 297 adjust 0;
#X obj 40 52 r netpd-receive;
#X obj 40 92 route mmm;
#X obj 40 112 route bpm;
#X obj 48 72 r data.state;
#X obj 40 152 /;
#X obj 20 22 inlet;
#X obj 20 232 outlet;
#X obj 40 172 t b f;
#X obj 20 202 *;
#X obj 161 51 loadbang;
#X msg 161 71 \; data.getstate mmm bpm;
#X msg 40 132 120 \$1;
#X connect 0 0 1 0;
#X connect 1 0 2 0;
#X connect 2 0 11 0;
#X connect 3 0 1 0;
#X connect 4 0 7 0;
#X connect 5 0 8 0;
#X connect 7 0 8 0;
#X connect 7 1 8 1;
#X connect 8 0 6 0;
#X connect 9 0 10 0;
#X connect 11 0 4 0;
#X restore 314 359 pd adjust;
#X obj 435 265 list append \$3-loop;
#X msg 68 381 1 \, \$1 \$2;
#N canvas 630 158 248 227 play 0;
#X obj 20 19 inlet;
#X obj 20 119 outlet;
#X obj 20 49 sel 1;
#X msg 20 69 symbol play;
#X msg 40 89 symbol;
#X connect 0 0 2 0;
#X connect 2 0 3 0;
#X connect 2 1 4 0;
#X connect 3 0 1 0;
#X connect 4 0 1 0;
#X restore 273 51 pd play;
#X obj 28 21 mmm-module \$1 \$2 wavelooper 4;
#X obj 515 179 route bpm;
#X obj 124 481 mmm-ctrl \$1 \$2 2 xfade -50 50 0 ext;
#X obj 374 102 pow;
#X msg 374 82 2 \$1;
#X obj 374 122 makefilename %d;
#X obj 151 190 pow;
#X msg 151 170 2 \$1;
#X obj 314 339 *;
#X obj 454 391 /;
#X msg 454 371 240000 \$1;
#X obj 454 411 * 44.1;
#X floatatom 453 430 5 0 0 0 - - -;
#X obj 151 230 mmm-ticks2ms;
#X obj 151 210 * 4;
#X obj 165 300 /;
#X msg 165 280 3 44.1;
#X obj 119 341 -;
#X obj 165 260 loadbang;
#X obj 115 82 mmm-ctrl \$1 \$2 4 beats -2 7 2 ext;
#X obj 530 429 sel 1;
#X obj 530 469 openpanel;
#X obj 530 449 del 200;
#X obj 68 431 table \$3-loop-L 176400;
#X obj 248 431 table \$3-loop-R 176400;
#N canvas 0 22 308 241 loadfileslow 0;
#X obj 51 18 inlet;
#X obj 20 148 timer;
#X obj 81 108 readsf~ 2;
#X obj 51 48 t b a;
#X obj 50 68 del 200;
#X msg 50 88 1;
#X obj 81 128 tabwrite~ \$3-loop-L;
#X obj 110 148 tabwrite~ \$3-loop-R;
#X obj 20 168 * 44.1;
#X obj 20 198 outlet;
#X msg 81 88 open \$1;
#X connect 0 0 3 0;
#X connect 1 0 8 0;
#X connect 2 0 6 0;
#X connect 2 1 7 0;
#X connect 2 2 1 1;
#X connect 3 0 4 0;
#X connect 3 1 10 0;
#X connect 4 0 5 0;
#X connect 4 0 1 0;
#X connect 4 0 6 0;
#X connect 4 0 7 0;
#X connect 5 0 2 0;
#X connect 8 0 9 0;
#X connect 10 0 2 0;
#X restore 314 229 pd loadfileslow;
#X obj 28 51 mmm-ctrl \$1 \$2 1 loop 0 1 0 ext;
#X floatatom 114 130 5 0 0 0 - - -;
#X floatatom 106 232 5 0 0 0 - - -;
#X floatatom 136 364 5 0 0 0 - - -;
#X floatatom 170 329 8 0 0 0 - - -;
#X floatatom 132 259 5 0 0 0 - - -;
#X floatatom 101 211 5 0 0 0 - - -;
#X obj 198 383 mmm-local \$1 \$2 3 load 0 1 -1 int;
#X msg 286 21 version 0.3.1;
#X text 353 522 baustelle!!;
#X connect 0 0 1 0;
#X connect 1 0 6 0;
#X connect 2 0 3 0;
#X connect 3 0 7 0;
#X connect 4 0 2 0;
#X connect 5 0 0 0;
#X connect 8 0 44 1;
#X connect 9 0 8 0;
#X connect 11 0 10 0;
#X connect 11 0 15 0;
#X connect 13 0 11 0;
#X connect 14 0 12 0;
#X connect 16 0 6 0;
#X connect 17 0 7 0;
#X connect 18 0 1 1;
#X connect 18 0 3 1;
#X connect 19 0 16 1;
#X connect 19 0 17 1;
#X connect 20 0 21 0;
#X connect 21 0 19 0;
#X connect 21 0 18 0;
#X connect 23 0 25 0;
#X connect 24 0 23 0;
#X connect 25 0 67 0;
#X connect 26 0 22 0;
#X connect 27 0 29 0;
#X connect 28 0 27 0;
#X connect 30 0 35 0;
#X connect 31 0 16 0;
#X connect 32 0 17 0;
#X connect 33 0 32 0;
#X connect 33 0 31 0;
#X connect 34 0 40 0;
#X connect 35 0 34 0;
#X connect 36 0 35 1;
#X connect 37 0 50 0;
#X connect 39 0 26 0;
#X connect 40 0 33 0;
#X connect 41 0 68 1;
#X connect 43 0 28 0;
#X connect 44 0 20 0;
#X connect 44 2 9 0;
#X connect 45 0 47 0;
#X connect 46 0 45 0;
#X connect 47 0 61 1;
#X connect 48 0 56 0;
#X connect 48 0 74 0;
#X connect 49 0 48 0;
#X connect 50 0 38 0;
#X connect 51 0 53 0;
#X connect 52 0 51 0;
#X connect 53 0 54 0;
#X connect 55 0 59 0;
#X connect 55 0 73 0;
#X connect 56 0 55 0;
#X connect 56 0 70 0;
#X connect 57 0 59 1;
#X connect 57 0 72 0;
#X connect 58 0 57 0;
#X connect 59 0 34 1;
#X connect 59 0 71 0;
#X connect 60 0 58 0;
#X connect 61 0 49 0;
#X connect 61 2 46 0;
#X connect 62 0 64 0;
#X connect 64 0 63 0;
#X connect 67 0 36 0;
#X connect 68 0 30 0;
#X connect 68 2 41 0;
#X connect 69 0 49 0;
