#N canvas 12 22 777 472 10;
#X obj 121 271 * 0.01;
#X obj 558 401 r~ 1-nothing;
#X obj 658 401 r~ 1-nothing;
#X obj 179 301 * 0.01;
#X obj 237 331 * 0.01;
#X obj 462 251 * 0.01;
#X obj 365 251 makesymbol %s;
#X obj 534 281 * 0.01;
#X obj 437 281 makesymbol %s;
#X obj 585 311 * 0.01;
#X obj 488 311 makesymbol %s;
#X obj 28 71 gemhead;
#X msg 48 241 debug \$1;
#X obj 28 421 world_light;
#N canvas 0 22 267 164 hotpack 0;
#X obj 25 24 inlet;
#X obj 75 24 inlet;
#X obj 75 44 t b f;
#X obj 34 97 outlet;
#X obj 34 77 pack f f f;
#X obj 125 24 inlet;
#X obj 125 44 t b f;
#X connect 0 0 4 0;
#X connect 1 0 2 0;
#X connect 2 0 4 0;
#X connect 2 1 4 1;
#X connect 4 0 3 0;
#X connect 5 0 6 0;
#X connect 6 0 4 0;
#X connect 6 1 4 2;
#X restore 121 391 pd hotpack;
#X obj 28 191 rotateXYZ 0 0 0;
#X obj 556 161 makesymbol %s;
#X obj 653 161 * 0.1;
#X obj 305 181 * 0.1;
#X obj 237 371 line;
#X obj 179 371 line;
#X obj 121 371 line;
#X obj 103 171 line;
#X obj 61 141 line;
#X obj 237 351 pack;
#X obj 179 351 pack;
#X obj 121 351 pack;
#X obj 103 151 pack;
#X obj 61 121 pack;
#X obj 28 21 mmm-module \$1 \$2 world_light 8;
#X msg 285 21 version 0.3.5;
#X obj 558 381 r \$1-\$2L-r;
#X obj 658 381 r \$1-\$2R-r;
#X obj 558 421 s~ \$1-\$2L;
#X obj 658 421 s~ \$1-\$2R;
#X obj 28 51 mmm-ctrl \$1 \$2 1 gemhead -100 100 -100 int;
#X obj 121 251 mmm-ctrl \$1 \$2 2 red 0 100 100 ext;
#X obj 179 281 mmm-ctrl \$1 \$2 3 green 0 100 100 ext;
#X obj 237 311 mmm-ctrl \$1 \$2 4 blue 0 100 100 ext;
#X obj 61 101 mmm-ctrl \$1 \$2 5 rotateX -180 180 0 int;
#X obj 103 131 mmm-ctrl \$1 \$2 6 rotateY -180 180 0 int;
#X obj 305 161 mmm-ctrl \$1 \$2 7 glide 0 160 80 ext;
#X obj 48 221 mmm-ctrl \$1 \$2 8 debug 0 1 0 int;
#X obj 305 201 mmm-ticks2ms;
#X connect 0 0 26 0;
#X connect 1 0 33 0;
#X connect 2 0 34 0;
#X connect 3 0 25 0;
#X connect 4 0 24 0;
#X connect 5 0 6 0;
#X connect 6 0 36 1;
#X connect 7 0 8 0;
#X connect 8 0 37 1;
#X connect 9 0 10 0;
#X connect 10 0 38 1;
#X connect 11 0 15 0;
#X connect 12 0 13 0;
#X connect 14 0 13 1;
#X connect 15 0 13 0;
#X connect 16 0 41 1;
#X connect 17 0 16 0;
#X connect 18 0 43 0;
#X connect 19 0 14 2;
#X connect 20 0 14 1;
#X connect 21 0 14 0;
#X connect 22 0 15 2;
#X connect 23 0 15 1;
#X connect 24 0 19 0;
#X connect 25 0 20 0;
#X connect 26 0 21 0;
#X connect 27 0 22 0;
#X connect 28 0 23 0;
#X connect 31 0 1 0;
#X connect 32 0 2 0;
#X connect 35 0 11 0;
#X connect 36 0 0 0;
#X connect 36 2 5 0;
#X connect 37 0 3 0;
#X connect 37 2 7 0;
#X connect 38 0 4 0;
#X connect 38 2 9 0;
#X connect 39 0 28 0;
#X connect 40 0 27 0;
#X connect 41 0 18 0;
#X connect 41 2 17 0;
#X connect 42 0 12 0;
#X connect 42 1 12 0;
#X connect 43 0 24 1;
#X connect 43 0 25 1;
#X connect 43 0 26 1;
#X connect 43 0 27 1;
#X connect 43 0 28 1;
