#N canvas 112 84 486 399 10;
#N canvas 44 341 690 497 cheb-shaping-function 0;
#X obj 86 118 samplerate~;
#X obj 86 168 phasor~;
#X obj 108 192 -~ 1;
#X obj 108 213 cos~;
#N canvas 0 22 536 311 cheb-t2 0;
#X obj 138 49 inlet~;
#X obj 125 194 outlet~;
#X obj 125 117 *~;
#X obj 138 75 *~ 2;
#X obj 125 164 -~ 1;
#X obj 125 140 *~ 0.5;
#X connect 0 0 3 0;
#X connect 2 0 5 0;
#X connect 3 0 2 0;
#X connect 3 0 2 1;
#X connect 4 0 1 0;
#X connect 5 0 4 0;
#X restore 257 240 pd cheb-t2;
#N canvas 0 22 536 311 cheb-t3 0;
#X obj 248 27 inlet~;
#X obj 251 227 outlet~;
#X obj 234 115 *~;
#X obj 251 142 *~;
#X obj 247 73 *~ 4;
#X obj 298 73 *~ 3;
#X obj 251 168 -~;
#X obj 251 191 *~ 0.0164;
#X connect 0 0 4 0;
#X connect 0 0 5 0;
#X connect 2 0 3 0;
#X connect 3 0 6 0;
#X connect 4 0 2 0;
#X connect 4 0 2 1;
#X connect 4 0 3 1;
#X connect 5 0 6 1;
#X connect 6 0 7 0;
#X connect 7 0 1 0;
#X restore 358 233 pd cheb-t3;
#X obj 66 192 *~ 2;
#X msg 123 141 0;
#X obj 66 216 -~ 1;
#X obj 66 321 *~ 1;
#X obj 85 276 inlet;
#X obj 176 272 inlet;
#X obj 276 263 inlet;
#X obj 377 260 inlet;
#N canvas 0 22 536 311 cheb-t4 0;
#X obj 248 27 inlet~;
#X obj 251 260 outlet~;
#X obj 234 115 *~;
#X obj 245 142 *~;
#X obj 273 177 -~;
#X obj 247 73 *~ 8;
#X obj 378 78 *~ 8;
#X obj 266 114 *~;
#X obj 379 117 *~;
#X obj 278 203 *~ 0.0005;
#X obj 275 229 -~ 1;
#X connect 0 0 5 0;
#X connect 0 0 6 0;
#X connect 2 0 3 0;
#X connect 3 0 4 0;
#X connect 4 0 9 0;
#X connect 5 0 2 0;
#X connect 5 0 2 1;
#X connect 5 0 7 0;
#X connect 5 0 7 1;
#X connect 6 0 8 0;
#X connect 6 0 8 1;
#X connect 7 0 3 1;
#X connect 8 0 4 1;
#X connect 9 0 10 0;
#X connect 10 0 1 0;
#X restore 446 236 pd cheb-t4;
#X obj 465 265 inlet;
#X obj 572 260 inlet;
#N canvas 392 327 587 421 cheb-t5 0;
#X obj 248 27 inlet~;
#X obj 349 326 outlet~;
#X obj 234 115 *~;
#X obj 245 142 *~;
#X obj 335 190 -~;
#X obj 266 114 *~;
#X obj 379 117 *~;
#X obj 268 169 *~;
#X obj 387 147 *~;
#X obj 247 73 *~ 16;
#X obj 378 78 *~ 20;
#X obj 435 85 *~ 5;
#X obj 376 269 *~ 5e-07;
#X connect 0 0 9 0;
#X connect 0 0 10 0;
#X connect 0 0 11 0;
#X connect 2 0 3 0;
#X connect 3 0 7 0;
#X connect 4 0 12 0;
#X connect 5 0 3 1;
#X connect 6 0 8 0;
#X connect 7 0 4 0;
#X connect 8 0 4 1;
#X connect 9 0 2 0;
#X connect 9 0 2 1;
#X connect 9 0 5 0;
#X connect 9 0 5 1;
#X connect 9 0 7 1;
#X connect 10 0 6 0;
#X connect 10 0 6 1;
#X connect 10 0 8 1;
#X connect 11 0 12 0;
#X connect 12 0 1 0;
#X restore 543 231 pd cheb-t5;
#X obj 157 317 *~ 0;
#X obj 257 308 *~ 0;
#X obj 358 305 *~ 0;
#X obj 446 310 *~ 0;
#X obj 543 305 *~ 0;
#X obj 183 109 switch~;
#X msg 173 87 1;
#X msg 40 55 bang;
#X msg 138 88 0;
#X msg 343 116 bang;
#X obj 85 298 * 0.01;
#X obj 176 294 * 0.01;
#X obj 276 285 * 0.01;
#X obj 377 282 * 0.01;
#X obj 465 287 * 0.01;
#X obj 562 282 * 0.01;
#X obj 41 35 del 12;
#X obj 86 141 / 257;
#X obj 39 401 tabwrite~ \$3-array;
#X obj 217 23 loadbang;
#X msg 219 62 100;
#X obj 217 43 del 22;
#X text 275 42 <- unedel!;
#X connect 0 0 35 0;
#X connect 1 0 2 0;
#X connect 1 0 6 0;
#X connect 2 0 3 0;
#X connect 3 0 4 0;
#X connect 3 0 5 0;
#X connect 3 0 14 0;
#X connect 3 0 17 0;
#X connect 3 0 18 0;
#X connect 4 0 19 0;
#X connect 5 0 20 0;
#X connect 6 0 8 0;
#X connect 7 0 1 1;
#X connect 8 0 9 0;
#X connect 9 0 36 0;
#X connect 10 0 28 0;
#X connect 10 0 27 0;
#X connect 11 0 29 0;
#X connect 11 0 27 0;
#X connect 12 0 30 0;
#X connect 12 0 27 0;
#X connect 13 0 31 0;
#X connect 13 0 27 0;
#X connect 14 0 21 0;
#X connect 15 0 32 0;
#X connect 15 0 27 0;
#X connect 16 0 33 0;
#X connect 16 0 27 0;
#X connect 17 0 22 0;
#X connect 18 0 36 0;
#X connect 19 0 36 0;
#X connect 20 0 36 0;
#X connect 21 0 36 0;
#X connect 22 0 36 0;
#X connect 24 0 23 0;
#X connect 25 0 0 0;
#X connect 25 0 7 0;
#X connect 25 0 26 0;
#X connect 25 0 36 0;
#X connect 26 0 23 0;
#X connect 27 0 24 0;
#X connect 27 0 34 0;
#X connect 28 0 9 1;
#X connect 29 0 18 1;
#X connect 30 0 19 1;
#X connect 31 0 20 1;
#X connect 32 0 21 1;
#X connect 33 0 22 1;
#X connect 34 0 25 0;
#X connect 35 0 1 0;
#X connect 37 0 39 0;
#X connect 38 0 28 0;
#X connect 38 0 27 0;
#X connect 39 0 38 0;
#X restore 7 210 pd cheb-shaping-function;
#X text 116 18 ported from wonks abstrus;
#X obj 7 260 r~ 1-nothing;
#X obj 147 260 r~ 1-nothing;
#X obj 147 240 r \$1-\$2R-r;
#X obj 147 360 s~ \$1-\$2R;
#X obj 7 360 s~ \$1-\$2L;
#X obj 7 240 r \$1-\$2L-r;
#X obj 7 290 +~ 1;
#X obj 7 310 *~ 128;
#X obj 7 330 tabread4~ \$3-array;
#X obj 147 290 +~ 1;
#X obj 147 310 *~ 128;
#X obj 147 330 tabread4~ \$3-array;
#X obj 7 50 mmm-module \$1 \$2 waveshape-1 6;
#X obj 288 50 table \$1-\$2-array 258;
#X obj 7 80 mmm-ctrl \$1 \$2 1 mod_1 -100 100 100 int;
#X obj 38 100 mmm-ctrl \$1 \$2 2 mod_2 -100 100 0 int;
#X obj 72 120 mmm-ctrl \$1 \$2 3 mod_3 -100 100 0 int;
#X obj 104 140 mmm-ctrl \$1 \$2 4 mod_4 -100 100 0 int;
#X obj 136 160 mmm-ctrl \$1 \$2 5 mod_5 -100 100 0 int;
#X obj 170 180 mmm-ctrl \$1 \$2 6 mod_6 -100 100 0 int;
#X msg 7 20 version 0.3.1;
#X connect 2 0 8 0;
#X connect 3 0 11 0;
#X connect 4 0 3 0;
#X connect 7 0 2 0;
#X connect 8 0 9 0;
#X connect 9 0 10 0;
#X connect 10 0 6 0;
#X connect 11 0 12 0;
#X connect 12 0 13 0;
#X connect 13 0 5 0;
#X connect 16 0 0 0;
#X connect 17 0 0 1;
#X connect 18 0 0 2;
#X connect 19 0 0 3;
#X connect 20 0 0 4;
#X connect 21 0 0 5;
