#N canvas 643 22 450 230 10;
#N canvas 139 400 555 423 processing 0;
#X obj 7 300 *~;
#X obj 7 31 inlet~;
#X obj 7 350 outlet~;
#X obj 288 26 inlet threshold;
#X obj 64 300 *~;
#X obj 66 36 inlet~;
#X obj 64 350 outlet~;
#X text 16 178 delay 1ms;
#X obj 428 30 inlet level;
#X obj 138 270 *~;
#X obj 288 124 - 100;
#X obj 288 149 * -1;
#X obj 288 205 +;
#X obj 328 169 t b f;
#X obj 288 226 dbtorms;
#X obj 8 198 z~ 64;
#X obj 65 199 z~ 64;
#X obj 139 206 limiter~ 1 2;
#X obj 139 37 loadbang;
#X msg 164 82 LIMIT;
#X obj 223 129 + 100;
#X msg 139 102 set 100 40 150;
#X msg 223 151 limit \$1;
#X obj 139 61 t b b;
#X connect 0 0 2 0;
#X connect 1 0 15 0;
#X connect 1 0 17 0;
#X connect 3 0 10 0;
#X connect 3 0 20 0;
#X connect 4 0 6 0;
#X connect 5 0 16 0;
#X connect 5 0 17 1;
#X connect 8 0 13 0;
#X connect 9 0 4 1;
#X connect 9 0 0 1;
#X connect 10 0 11 0;
#X connect 11 0 12 0;
#X connect 12 0 14 0;
#X connect 13 0 12 0;
#X connect 13 1 12 1;
#X connect 14 0 9 1;
#X connect 15 0 0 0;
#X connect 16 0 4 0;
#X connect 17 0 9 0;
#X connect 18 0 23 0;
#X connect 19 0 17 0;
#X connect 20 0 22 0;
#X connect 21 0 17 0;
#X connect 22 0 17 0;
#X connect 23 0 21 0;
#X connect 23 1 19 0;
#X restore 15 142 pd processing;
#X obj 15 34 r~ 1-nothing;
#X obj 43 74 r~ 1-nothing;
#X obj 15 14 r \$1-\$2L-r;
#X obj 43 53 r \$1-\$2R-r;
#X obj 101 172 s~ \$1-\$2R;
#X obj 15 172 s~ \$1-\$2L;
#X obj 72 102 mmm-ctrl \$1 \$2 1 threshold -30 0 0 int;
#X obj 100 122 mmm-ctrl \$1 \$2 2 outceiling -30 0 0 int;
#X obj 167 32 mmm-module \$1 \$2 zlimit 2;
#X msg 167 52 version 0.3.2;
#X connect 0 0 6 0;
#X connect 0 1 5 0;
#X connect 1 0 0 0;
#X connect 2 0 0 1;
#X connect 3 0 1 0;
#X connect 4 0 2 0;
#X connect 7 0 0 2;
#X connect 8 0 0 3;
