#N canvas 216 22 214 186 10;
#X declare -path ../abs;
#X text 25 5 mmm main control unit.;
#N canvas 20 189 451 261 eingeweide 0;
#X obj 209 92 mmm-transport;
#X text 188 72 sequencer-/arrangercode;
#X obj 49 92 mmm-preferences;
#X obj 209 52 mmm-gui-v;
#N canvas 83 83 533 457 arranger 0;
#X obj 14 14 inlet;
#X obj 14 44 t a a a a a a a a;
#N canvas 49 32 678 754 arranger 0;
#N canvas 39 168 794 625 readbuttons 0;
#X obj 77 510 outlet;
#X obj 77 466 t a;
#X msg 77 75 0;
#X msg 107 95 1;
#X msg 137 115 2;
#X msg 167 135 3;
#X msg 197 155 4;
#X msg 227 175 5;
#X msg 257 195 6;
#X msg 287 215 7;
#X msg 317 235 8;
#X msg 347 255 9;
#X msg 377 275 10;
#X msg 407 295 11;
#X msg 437 315 12;
#X msg 467 335 13;
#X msg 497 355 14;
#X msg 527 375 15;
#N canvas 0 22 450 300 slim200 0;
#X obj 62 45 inlet;
#X obj 87 206 outlet;
#X obj 62 78 t b a;
#X obj 87 171 spigot 1;
#X msg 130 111 0;
#X msg 62 135 1;
#X text 187 89 simple message speedlimit;
#X obj 62 111 delay 200;
#X connect 0 0 2 0;
#X connect 2 0 4 0;
#X connect 2 0 7 0;
#X connect 2 1 3 0;
#X connect 3 0 1 0;
#X connect 4 0 3 1;
#X connect 5 0 3 1;
#X connect 7 0 5 0;
#X restore 77 488 pd slim200;
#X obj 77 50 r 0-select-arr;
#X obj 107 70 r 1-select-arr;
#X obj 137 90 r 2-select-arr;
#X obj 167 110 r 3-select-arr;
#X obj 197 130 r 4-select-arr;
#X obj 227 150 r 5-select-arr;
#X obj 257 170 r 6-select-arr;
#X obj 287 190 r 7-select-arr;
#X obj 317 210 r 8-select-arr;
#X obj 347 230 r 9-select-arr;
#X obj 377 250 r 10-select-arr;
#X obj 407 270 r 11-select-arr;
#X obj 437 290 r 12-select-arr;
#X obj 467 310 r 13-select-arr;
#X obj 497 330 r 14-select-arr;
#X obj 527 350 r 15-select-arr;
#X connect 1 0 18 0;
#X connect 2 0 1 0;
#X connect 3 0 1 0;
#X connect 4 0 1 0;
#X connect 5 0 1 0;
#X connect 6 0 1 0;
#X connect 7 0 1 0;
#X connect 8 0 1 0;
#X connect 9 0 1 0;
#X connect 10 0 1 0;
#X connect 11 0 1 0;
#X connect 12 0 1 0;
#X connect 13 0 1 0;
#X connect 14 0 1 0;
#X connect 15 0 1 0;
#X connect 16 0 1 0;
#X connect 17 0 1 0;
#X connect 18 0 0 0;
#X connect 19 0 2 0;
#X connect 20 0 3 0;
#X connect 21 0 4 0;
#X connect 22 0 5 0;
#X connect 23 0 6 0;
#X connect 24 0 7 0;
#X connect 25 0 8 0;
#X connect 26 0 9 0;
#X connect 27 0 10 0;
#X connect 28 0 11 0;
#X connect 29 0 12 0;
#X connect 30 0 13 0;
#X connect 31 0 14 0;
#X connect 32 0 15 0;
#X connect 33 0 16 0;
#X connect 34 0 17 0;
#X restore 86 32 pd readbuttons;
#X obj 193 149 t b f;
#X obj 193 190 * 0.5;
#X obj 132 172 t f f;
#X obj 163 240 sel 0 1;
#X obj 163 290 f;
#X obj 181 272 f;
#X msg 13 84 0;
#X obj 279 223 t b f;
#X text 107 51 !? miese feedbackprogrammierung;
#X obj 184 412 unpack f f;
#X obj 141 553 f;
#N canvas 0 22 671 275 countto16 0;
#X obj 78 28 inlet;
#X msg 78 87 16;
#X obj 78 57 t b b;
#X msg 128 115 0;
#X obj 78 195 outlet;
#X obj 78 118 until;
#X obj 78 161 f;
#X obj 110 161 + 1;
#X msg 259 111 0 \, 1 \, 2 \, 3 \, 4 \, 5 \, 6 \, 7 \, 8 \, 9 \, 10
\, 11 \, 12 \, 13 \, 14 \, 15;
#X connect 0 0 2 0;
#X connect 0 0 8 0;
#X connect 1 0 5 0;
#X connect 2 0 1 0;
#X connect 2 1 3 0;
#X connect 3 0 6 1;
#X connect 5 0 6 0;
#X connect 6 0 7 0;
#X connect 7 0 6 1;
#X connect 8 0 4 0;
#X restore 88 413 pd countto16;
#X msg 278 91 15;
#X obj 247 475 + 1;
#N canvas 83 22 663 815 lauflicht-arr 0;
#X obj 34 70 route timecode tpp;
#X obj 59 123 mod 16;
#X obj 34 146 div 16;
#X obj 34 100 t f f;
#X obj 34 165 pack f f;
#X obj 36 690 unpack f f;
#X obj 91 711 == 0;
#X msg 34 221 \$2 \$1;
#X obj 36 749 s 0-select-arr-r;
#X obj 58 604 unpack f f;
#X obj 68 514 unpack f f;
#N canvas 0 215 408 229 arrseltxt 0;
#X obj 79 197 outlet;
#X obj 311 102 loadbang;
#X obj 79 19 inlet ticknum;
#X obj 249 29 inlet partactive;
#X obj 249 52 t f f;
#X msg 274 146 label empty;
#X obj 274 116 sel 0;
#X obj 79 93 spigot;
#X msg 79 173 label \$1;
#X obj 79 149 makefilename %02d;
#X obj 274 78 change;
#X obj 79 121 change -1;
#X connect 1 0 5 0;
#X connect 2 0 7 0;
#X connect 3 0 4 0;
#X connect 4 0 7 1;
#X connect 4 1 10 0;
#X connect 5 0 0 0;
#X connect 6 0 5 0;
#X connect 7 0 11 0;
#X connect 8 0 0 0;
#X connect 9 0 8 0;
#X connect 10 0 6 0;
#X connect 11 0 9 0;
#X restore 90 468 pd arrseltxt;
#X obj 90 428 unpack f f;
#X obj 145 449 == 3;
#X obj 90 487 s 3-select-arr-r;
#X obj 68 573 s 2-select-arr-r;
#X obj 123 535 == 2;
#X obj 113 625 == 1;
#X obj 58 663 s 1-select-arr-r;
#X obj 155 686 unpack f f;
#X obj 177 600 unpack f f;
#X obj 187 510 unpack f f;
#X obj 209 424 unpack f f;
#X obj 210 707 == 4;
#X obj 155 745 s 4-select-arr-r;
#X obj 232 621 == 5;
#X obj 177 659 s 5-select-arr-r;
#X obj 242 531 == 6;
#X obj 187 569 s 6-select-arr-r;
#X obj 263 445 == 7;
#X obj 209 483 s 7-select-arr-r;
#X obj 300 695 unpack f f;
#X obj 322 609 unpack f f;
#X obj 332 519 unpack f f;
#X obj 354 433 unpack f f;
#X obj 419 691 unpack f f;
#X obj 441 605 unpack f f;
#X obj 451 515 unpack f f;
#X obj 473 429 unpack f f;
#X obj 356 716 == 8;
#X obj 300 754 s 8-select-arr-r;
#X obj 377 630 == 9;
#X obj 322 668 s 9-select-arr-r;
#X obj 332 578 s 10-select-arr-r;
#X obj 409 454 == 11;
#X obj 354 492 s 11-select-arr-r;
#X obj 419 750 s 12-select-arr-r;
#X obj 474 712 == 12;
#X obj 496 626 == 13;
#X obj 441 664 s 13-select-arr-r;
#X obj 451 574 s 14-select-arr-r;
#X obj 506 536 == 14;
#X obj 527 450 == 15;
#X obj 473 488 s 15-select-arr-r;
#X obj 387 540 == 10;
#N canvas 0 215 400 221 arrseltxt 0;
#X obj 79 197 outlet;
#X obj 311 102 loadbang;
#X obj 79 19 inlet ticknum;
#X obj 249 29 inlet partactive;
#X obj 249 52 t f f;
#X msg 274 146 label empty;
#X obj 274 116 sel 0;
#X obj 79 93 spigot;
#X msg 79 173 label \$1;
#X obj 79 149 makefilename %02d;
#X obj 274 78 change;
#X obj 79 121 change -1;
#X connect 1 0 5 0;
#X connect 2 0 7 0;
#X connect 3 0 4 0;
#X connect 4 0 7 1;
#X connect 4 1 10 0;
#X connect 5 0 0 0;
#X connect 6 0 5 0;
#X connect 7 0 11 0;
#X connect 8 0 0 0;
#X connect 9 0 8 0;
#X connect 10 0 6 0;
#X connect 11 0 9 0;
#X restore 66 554 pd arrseltxt;
#N canvas 0 215 400 221 arrseltxt 0;
#X obj 79 197 outlet;
#X obj 311 102 loadbang;
#X obj 79 19 inlet ticknum;
#X obj 249 29 inlet partactive;
#X obj 249 52 t f f;
#X msg 274 146 label empty;
#X obj 274 116 sel 0;
#X obj 79 93 spigot;
#X msg 79 173 label \$1;
#X obj 79 149 makefilename %02d;
#X obj 274 78 change;
#X obj 79 121 change -1;
#X connect 1 0 5 0;
#X connect 2 0 7 0;
#X connect 3 0 4 0;
#X connect 4 0 7 1;
#X connect 4 1 10 0;
#X connect 5 0 0 0;
#X connect 6 0 5 0;
#X connect 7 0 11 0;
#X connect 8 0 0 0;
#X connect 9 0 8 0;
#X connect 10 0 6 0;
#X connect 11 0 9 0;
#X restore 206 464 pd arrseltxt;
#N canvas 0 215 400 221 arrseltxt 0;
#X obj 79 197 outlet;
#X obj 311 102 loadbang;
#X obj 79 19 inlet ticknum;
#X obj 249 29 inlet partactive;
#X obj 249 52 t f f;
#X msg 274 146 label empty;
#X obj 274 116 sel 0;
#X obj 79 93 spigot;
#X msg 79 173 label \$1;
#X obj 79 149 makefilename %02d;
#X obj 274 78 change;
#X obj 79 121 change -1;
#X connect 1 0 5 0;
#X connect 2 0 7 0;
#X connect 3 0 4 0;
#X connect 4 0 7 1;
#X connect 4 1 10 0;
#X connect 5 0 0 0;
#X connect 6 0 5 0;
#X connect 7 0 11 0;
#X connect 8 0 0 0;
#X connect 9 0 8 0;
#X connect 10 0 6 0;
#X connect 11 0 9 0;
#X restore 348 473 pd arrseltxt;
#N canvas 0 215 400 221 arrseltxt 0;
#X obj 79 197 outlet;
#X obj 311 102 loadbang;
#X obj 79 19 inlet ticknum;
#X obj 249 29 inlet partactive;
#X obj 249 52 t f f;
#X msg 274 146 label empty;
#X obj 274 116 sel 0;
#X obj 79 93 spigot;
#X msg 79 173 label \$1;
#X obj 79 149 makefilename %02d;
#X obj 274 78 change;
#X obj 79 121 change -1;
#X connect 1 0 5 0;
#X connect 2 0 7 0;
#X connect 3 0 4 0;
#X connect 4 0 7 1;
#X connect 4 1 10 0;
#X connect 5 0 0 0;
#X connect 6 0 5 0;
#X connect 7 0 11 0;
#X connect 8 0 0 0;
#X connect 9 0 8 0;
#X connect 10 0 6 0;
#X connect 11 0 9 0;
#X restore 471 468 pd arrseltxt;
#N canvas 0 215 400 221 arrseltxt 0;
#X obj 79 197 outlet;
#X obj 311 102 loadbang;
#X obj 79 19 inlet ticknum;
#X obj 249 29 inlet partactive;
#X obj 249 52 t f f;
#X msg 274 146 label empty;
#X obj 274 116 sel 0;
#X obj 79 93 spigot;
#X msg 79 173 label \$1;
#X obj 79 149 makefilename %02d;
#X obj 274 78 change;
#X obj 79 121 change -1;
#X connect 1 0 5 0;
#X connect 2 0 7 0;
#X connect 3 0 4 0;
#X connect 4 0 7 1;
#X connect 4 1 10 0;
#X connect 5 0 0 0;
#X connect 6 0 5 0;
#X connect 7 0 11 0;
#X connect 8 0 0 0;
#X connect 9 0 8 0;
#X connect 10 0 6 0;
#X connect 11 0 9 0;
#X restore 186 550 pd arrseltxt;
#N canvas 0 215 400 221 arrseltxt 0;
#X obj 79 197 outlet;
#X obj 311 102 loadbang;
#X obj 79 19 inlet ticknum;
#X obj 249 29 inlet partactive;
#X obj 249 52 t f f;
#X msg 274 146 label empty;
#X obj 274 116 sel 0;
#X obj 79 93 spigot;
#X msg 79 173 label \$1;
#X obj 79 149 makefilename %02d;
#X obj 274 78 change;
#X obj 79 121 change -1;
#X connect 1 0 5 0;
#X connect 2 0 7 0;
#X connect 3 0 4 0;
#X connect 4 0 7 1;
#X connect 4 1 10 0;
#X connect 5 0 0 0;
#X connect 6 0 5 0;
#X connect 7 0 11 0;
#X connect 8 0 0 0;
#X connect 9 0 8 0;
#X connect 10 0 6 0;
#X connect 11 0 9 0;
#X restore 333 558 pd arrseltxt;
#N canvas 0 215 400 221 arrseltxt 0;
#X obj 79 197 outlet;
#X obj 311 102 loadbang;
#X obj 79 19 inlet ticknum;
#X obj 249 29 inlet partactive;
#X obj 249 52 t f f;
#X msg 274 146 label empty;
#X obj 274 116 sel 0;
#X obj 79 93 spigot;
#X msg 79 173 label \$1;
#X obj 79 149 makefilename %02d;
#X obj 274 78 change;
#X obj 79 121 change -1;
#X connect 1 0 5 0;
#X connect 2 0 7 0;
#X connect 3 0 4 0;
#X connect 4 0 7 1;
#X connect 4 1 10 0;
#X connect 5 0 0 0;
#X connect 6 0 5 0;
#X connect 7 0 11 0;
#X connect 8 0 0 0;
#X connect 9 0 8 0;
#X connect 10 0 6 0;
#X connect 11 0 9 0;
#X restore 450 554 pd arrseltxt;
#N canvas 0 215 400 221 arrseltxt 0;
#X obj 79 197 outlet;
#X obj 311 102 loadbang;
#X obj 79 19 inlet ticknum;
#X obj 249 29 inlet partactive;
#X obj 249 52 t f f;
#X msg 274 146 label empty;
#X obj 274 116 sel 0;
#X obj 79 93 spigot;
#X msg 79 173 label \$1;
#X obj 79 149 makefilename %02d;
#X obj 274 78 change;
#X obj 79 121 change -1;
#X connect 1 0 5 0;
#X connect 2 0 7 0;
#X connect 3 0 4 0;
#X connect 4 0 7 1;
#X connect 4 1 10 0;
#X connect 5 0 0 0;
#X connect 6 0 5 0;
#X connect 7 0 11 0;
#X connect 8 0 0 0;
#X connect 9 0 8 0;
#X connect 10 0 6 0;
#X connect 11 0 9 0;
#X restore 59 644 pd arrseltxt;
#N canvas 0 215 400 221 arrseltxt 0;
#X obj 79 197 outlet;
#X obj 311 102 loadbang;
#X obj 79 19 inlet ticknum;
#X obj 249 29 inlet partactive;
#X obj 249 52 t f f;
#X msg 274 146 label empty;
#X obj 274 116 sel 0;
#X obj 79 93 spigot;
#X msg 79 173 label \$1;
#X obj 79 149 makefilename %02d;
#X obj 274 78 change;
#X obj 79 122 change -1;
#X connect 1 0 5 0;
#X connect 2 0 7 0;
#X connect 3 0 4 0;
#X connect 4 0 7 1;
#X connect 4 1 10 0;
#X connect 5 0 0 0;
#X connect 6 0 5 0;
#X connect 7 0 11 0;
#X connect 8 0 0 0;
#X connect 9 0 8 0;
#X connect 10 0 6 0;
#X connect 11 0 9 0;
#X restore 177 639 pd arrseltxt;
#N canvas 0 215 400 221 arrseltxt 0;
#X obj 79 197 outlet;
#X obj 311 102 loadbang;
#X obj 79 19 inlet ticknum;
#X obj 249 29 inlet partactive;
#X obj 249 52 t f f;
#X msg 274 146 label empty;
#X obj 274 116 sel 0;
#X obj 79 93 spigot;
#X msg 79 173 label \$1;
#X obj 79 149 makefilename %02d;
#X obj 274 78 change;
#X obj 79 121 change -1;
#X connect 1 0 5 0;
#X connect 2 0 7 0;
#X connect 3 0 4 0;
#X connect 4 0 7 1;
#X connect 4 1 10 0;
#X connect 5 0 0 0;
#X connect 6 0 5 0;
#X connect 7 0 11 0;
#X connect 8 0 0 0;
#X connect 9 0 8 0;
#X connect 10 0 6 0;
#X connect 11 0 9 0;
#X restore 322 649 pd arrseltxt;
#N canvas 0 215 400 221 arrseltxt 0;
#X obj 79 197 outlet;
#X obj 311 102 loadbang;
#X obj 79 19 inlet ticknum;
#X obj 249 29 inlet partactive;
#X obj 249 52 t f f;
#X msg 274 146 label empty;
#X obj 274 116 sel 0;
#X obj 79 93 spigot;
#X msg 79 173 label \$1;
#X obj 79 149 makefilename %02d;
#X obj 274 78 change;
#X obj 79 121 change -1;
#X connect 1 0 5 0;
#X connect 2 0 7 0;
#X connect 3 0 4 0;
#X connect 4 0 7 1;
#X connect 4 1 10 0;
#X connect 5 0 0 0;
#X connect 6 0 5 0;
#X connect 7 0 11 0;
#X connect 8 0 0 0;
#X connect 9 0 8 0;
#X connect 10 0 6 0;
#X connect 11 0 9 0;
#X restore 441 645 pd arrseltxt;
#N canvas 0 215 400 221 arrseltxt 0;
#X obj 79 197 outlet;
#X obj 311 102 loadbang;
#X obj 79 19 inlet ticknum;
#X obj 249 29 inlet partactive;
#X obj 249 52 t f f;
#X msg 274 146 label empty;
#X obj 274 116 sel 0;
#X obj 79 93 spigot;
#X msg 79 173 label \$1;
#X obj 79 149 makefilename %02d;
#X obj 274 78 change;
#X obj 79 121 change -1;
#X connect 1 0 5 0;
#X connect 2 0 7 0;
#X connect 3 0 4 0;
#X connect 4 0 7 1;
#X connect 4 1 10 0;
#X connect 5 0 0 0;
#X connect 6 0 5 0;
#X connect 7 0 11 0;
#X connect 8 0 0 0;
#X connect 9 0 8 0;
#X connect 10 0 6 0;
#X connect 11 0 9 0;
#X restore 35 730 pd arrseltxt;
#N canvas 0 215 400 221 arrseltxt 0;
#X obj 79 197 outlet;
#X obj 311 102 loadbang;
#X obj 79 19 inlet ticknum;
#X obj 249 29 inlet partactive;
#X obj 249 52 t f f;
#X msg 274 146 label empty;
#X obj 274 116 sel 0;
#X obj 79 93 spigot;
#X msg 79 173 label \$1;
#X obj 79 149 makefilename %02d;
#X obj 274 78 change;
#X obj 79 121 change -1;
#X connect 1 0 5 0;
#X connect 2 0 7 0;
#X connect 3 0 4 0;
#X connect 4 0 7 1;
#X connect 4 1 10 0;
#X connect 5 0 0 0;
#X connect 6 0 5 0;
#X connect 7 0 11 0;
#X connect 8 0 0 0;
#X connect 9 0 8 0;
#X connect 10 0 6 0;
#X connect 11 0 9 0;
#X restore 153 726 pd arrseltxt;
#N canvas 0 215 400 221 arrseltxt 0;
#X obj 79 197 outlet;
#X obj 311 102 loadbang;
#X obj 79 19 inlet ticknum;
#X obj 249 29 inlet partactive;
#X obj 249 52 t f f;
#X msg 274 146 label empty;
#X obj 274 116 sel 0;
#X obj 79 93 spigot;
#X msg 79 173 label \$1;
#X obj 79 149 makefilename %02d;
#X obj 274 78 change;
#X obj 78 122 change -1;
#X connect 1 0 5 0;
#X connect 2 0 7 0;
#X connect 3 0 4 0;
#X connect 4 0 7 1;
#X connect 4 1 10 0;
#X connect 5 0 0 0;
#X connect 6 0 5 0;
#X connect 7 0 11 0;
#X connect 8 0 0 0;
#X connect 9 0 8 0;
#X connect 10 0 6 0;
#X connect 11 0 9 0;
#X restore 301 735 pd arrseltxt;
#N canvas 0 215 400 221 arrseltxt 0;
#X obj 79 197 outlet;
#X obj 311 102 loadbang;
#X obj 79 19 inlet ticknum;
#X obj 249 29 inlet partactive;
#X obj 249 52 t f f;
#X msg 274 146 label empty;
#X obj 274 116 sel 0;
#X obj 79 93 spigot;
#X msg 79 173 label \$1;
#X obj 79 149 makefilename %02d;
#X obj 274 78 change;
#X obj 79 121 change -1;
#X connect 1 0 5 0;
#X connect 2 0 7 0;
#X connect 3 0 4 0;
#X connect 4 0 7 1;
#X connect 4 1 10 0;
#X connect 5 0 0 0;
#X connect 6 0 5 0;
#X connect 7 0 11 0;
#X connect 8 0 0 0;
#X connect 9 0 8 0;
#X connect 10 0 6 0;
#X connect 11 0 9 0;
#X restore 419 730 pd arrseltxt;
#X obj 316 43 b;
#X obj 98 207 t a;
#X obj 197 165 sel 0;
#X obj 98 172 spigot 1;
#X msg 178 188 -1 -1;
#X obj 332 129 r mmm;
#X obj 332 202 b;
#X obj 434 162 symbol;
#X obj 434 182 select stoprewind;
#X obj 34 29 r mmm-transport>;
#X obj 434 142 r mmm-transport>;
#X obj 332 151 route reset_all;
#X obj 316 22 r mmm-arrseltgl;
#X obj 316 104 s >mmm-globalgui;
#X msg 316 83 toggle_animation;
#X obj 185 62 r mmm-globalgui>;
#N canvas 0 22 450 300 slim200 0;
#X obj 62 45 inlet;
#X obj 87 206 outlet;
#X obj 62 78 t b a;
#X obj 87 171 spigot 1;
#X msg 130 111 0;
#X msg 62 135 1;
#X text 187 89 simple message speedlimit;
#X obj 62 111 delay 200;
#X connect 0 0 2 0;
#X connect 2 0 4 0;
#X connect 2 0 7 0;
#X connect 2 1 3 0;
#X connect 3 0 1 0;
#X connect 4 0 3 1;
#X connect 5 0 3 1;
#X connect 7 0 5 0;
#X restore 316 62 pd slim200;
#X obj 185 82 route animation;
#X obj 234 264 r preferences;
#X obj 234 284 route lauflicht;
#X obj 98 152 spigot;
#X obj 164 768 r mmm-font>;
#X connect 0 0 3 0;
#X connect 0 1 1 1;
#X connect 0 1 2 1;
#X connect 1 0 4 1;
#X connect 2 0 4 0;
#X connect 3 0 2 0;
#X connect 3 1 1 0;
#X connect 4 0 90 0;
#X connect 5 0 66 0;
#X connect 5 1 6 0;
#X connect 6 0 66 1;
#X connect 7 0 5 0;
#X connect 7 0 9 0;
#X connect 7 0 10 0;
#X connect 7 0 12 0;
#X connect 7 0 22 0;
#X connect 7 0 21 0;
#X connect 7 0 20 0;
#X connect 7 0 19 0;
#X connect 7 0 31 0;
#X connect 7 0 32 0;
#X connect 7 0 33 0;
#X connect 7 0 34 0;
#X connect 7 0 38 0;
#X connect 7 0 37 0;
#X connect 7 0 36 0;
#X connect 7 0 35 0;
#X connect 9 0 62 0;
#X connect 9 1 17 0;
#X connect 10 0 55 0;
#X connect 10 1 16 0;
#X connect 11 0 14 0;
#X connect 12 0 11 0;
#X connect 12 1 13 0;
#X connect 13 0 11 1;
#X connect 16 0 55 1;
#X connect 17 0 62 1;
#X connect 19 0 67 0;
#X connect 19 1 23 0;
#X connect 20 0 63 0;
#X connect 20 1 25 0;
#X connect 21 0 59 0;
#X connect 21 1 27 0;
#X connect 22 0 56 0;
#X connect 22 1 29 0;
#X connect 23 0 67 1;
#X connect 25 0 63 1;
#X connect 27 0 59 1;
#X connect 29 0 56 1;
#X connect 31 0 68 0;
#X connect 31 1 39 0;
#X connect 32 0 64 0;
#X connect 32 1 41 0;
#X connect 33 0 60 0;
#X connect 33 1 54 0;
#X connect 34 0 57 0;
#X connect 34 1 44 0;
#X connect 35 0 69 0;
#X connect 35 1 47 0;
#X connect 36 0 65 0;
#X connect 36 1 48 0;
#X connect 37 0 61 0;
#X connect 37 1 51 0;
#X connect 38 0 58 0;
#X connect 38 1 52 0;
#X connect 39 0 68 1;
#X connect 41 0 64 1;
#X connect 44 0 57 1;
#X connect 47 0 69 1;
#X connect 48 0 65 1;
#X connect 51 0 61 1;
#X connect 52 0 58 1;
#X connect 54 0 60 1;
#X connect 55 0 15 0;
#X connect 56 0 30 0;
#X connect 57 0 45 0;
#X connect 58 0 53 0;
#X connect 59 0 28 0;
#X connect 60 0 43 0;
#X connect 61 0 50 0;
#X connect 62 0 18 0;
#X connect 63 0 26 0;
#X connect 64 0 42 0;
#X connect 65 0 49 0;
#X connect 66 0 8 0;
#X connect 67 0 24 0;
#X connect 68 0 40 0;
#X connect 69 0 46 0;
#X connect 70 0 86 0;
#X connect 71 0 7 0;
#X connect 72 0 74 0;
#X connect 73 0 71 0;
#X connect 74 0 71 0;
#X connect 75 0 81 0;
#X connect 76 0 74 0;
#X connect 77 0 78 0;
#X connect 78 0 76 0;
#X connect 79 0 0 0;
#X connect 80 0 77 0;
#X connect 81 0 76 0;
#X connect 82 0 70 0;
#X connect 84 0 83 0;
#X connect 85 0 87 0;
#X connect 86 0 84 0;
#X connect 87 0 72 0;
#X connect 87 0 73 1;
#X connect 88 0 89 0;
#X connect 89 0 90 1;
#X connect 89 0 72 0;
#X connect 90 0 73 0;
#X connect 91 0 8 0;
#X connect 91 0 18 0;
#X connect 91 0 15 0;
#X connect 91 0 14 0;
#X connect 91 0 24 0;
#X connect 91 0 26 0;
#X connect 91 0 28 0;
#X connect 91 0 30 0;
#X connect 91 0 40 0;
#X connect 91 0 42 0;
#X connect 91 0 43 0;
#X connect 91 0 45 0;
#X connect 91 0 46 0;
#X connect 91 0 49 0;
#X connect 91 0 50 0;
#X connect 91 0 53 0;
#X restore 59 615 pd lauflicht-arr;
#X obj 403 87 r mmm;
#X obj 403 119 route reset_all;
#X obj 403 142 t b b;
#X obj 442 454 r mmm-font>;
#X obj 442 494 s mmm-arrseltgl-r;
#X obj 193 170 + 15;
#X obj 141 452 moses 0;
#X obj 196 495 moses 16;
#X obj 86 74 select 0;
#X obj 114 133 select 15;
#X obj 44 109 f 15;
#X obj 163 210 > 7.5;
#X obj 238 103 f 0;
#X obj 14 124 f 0;
#X obj 159 314 f 0;
#X obj 279 115 f 15;
#N canvas 16 22 326 401 mmm-loop 0;
#X obj 13 17 inlet;
#X obj 13 355 outlet;
#X msg 13 139 \; netpd-broadcast mmm loopstart \$1;
#X obj 46 67 -;
#X msg 46 47 \$2 \$1;
#X obj 46 87 + 1;
#X msg 46 107 \; netpd-broadcast mmm looplength \$1;
#X obj 13 185 r netpd-receive;
#X obj 13 205 route mmm;
#X obj 13 225 route loopstart looplength;
#X obj 13 335 pack 0 15;
#X obj 101 245 t b f;
#X obj 131 295 + 0;
#X obj 131 275 - 1;
#X obj 13 245 t f b f;
#X connect 0 0 2 0;
#X connect 0 0 4 0;
#X connect 3 0 5 0;
#X connect 4 0 3 0;
#X connect 5 0 6 0;
#X connect 7 0 8 0;
#X connect 8 0 9 0;
#X connect 9 0 14 0;
#X connect 9 1 11 0;
#X connect 10 0 1 0;
#X connect 11 0 10 0;
#X connect 11 1 13 0;
#X connect 12 0 10 1;
#X connect 13 0 12 0;
#X connect 14 0 10 0;
#X connect 14 1 13 0;
#X connect 14 2 12 1;
#X restore 156 356 pd mmm-loop;
#X obj 141 385 t b a;
#X msg 141 579 \; \$1-select-arr-r color 0 0 22 \, set 0;
#X msg 452 474 set 0;
#X msg 196 522 \; \$1-select-arr-r color 8 8 22 \, set 0;
#X obj 159 335 pack 0 1;
#X connect 0 0 24 0;
#X connect 1 0 21 0;
#X connect 1 1 21 1;
#X connect 2 0 27 1;
#X connect 3 0 27 0;
#X connect 3 1 5 1;
#X connect 3 1 6 1;
#X connect 4 0 5 0;
#X connect 4 1 6 0;
#X connect 5 0 29 0;
#X connect 6 0 31 0;
#X connect 7 0 29 0;
#X connect 8 0 30 0;
#X connect 8 1 37 1;
#X connect 10 0 22 1;
#X connect 10 1 14 0;
#X connect 11 0 34 0;
#X connect 12 0 22 0;
#X connect 13 0 31 0;
#X connect 14 0 23 1;
#X connect 16 0 17 0;
#X connect 17 0 18 0;
#X connect 18 0 7 0;
#X connect 18 1 13 0;
#X connect 19 0 20 0;
#X connect 19 0 35 0;
#X connect 21 0 2 0;
#X connect 22 0 11 0;
#X connect 22 1 23 0;
#X connect 23 0 36 0;
#X connect 23 1 11 0;
#X connect 24 0 28 0;
#X connect 24 1 25 0;
#X connect 25 0 26 0;
#X connect 25 1 3 0;
#X connect 26 0 29 0;
#X connect 27 0 4 0;
#X connect 28 0 31 0;
#X connect 29 0 21 0;
#X connect 29 0 24 1;
#X connect 29 0 28 1;
#X connect 29 0 30 0;
#X connect 30 0 37 0;
#X connect 31 0 1 0;
#X connect 31 0 8 0;
#X connect 31 0 25 1;
#X connect 31 0 26 1;
#X connect 32 0 33 0;
#X connect 33 0 12 0;
#X connect 33 1 10 0;
#X connect 35 0 20 0;
#X connect 37 0 32 0;
#X restore 14 244 pd arranger selection;
#N canvas 432 26 605 792 selection 0;
#N canvas 78 192 794 625 readbuttons 0;
#X obj 77 510 outlet;
#X obj 77 50 r 0-select-seq;
#X obj 77 466 t a;
#X msg 77 75 0;
#X msg 107 95 1;
#X msg 137 115 2;
#X msg 167 135 3;
#X msg 197 155 4;
#X msg 227 175 5;
#X msg 257 195 6;
#X msg 287 215 7;
#X msg 317 235 8;
#X msg 347 255 9;
#X msg 377 275 10;
#X msg 407 295 11;
#X msg 437 315 12;
#X msg 467 335 13;
#X msg 497 355 14;
#X msg 527 375 15;
#X obj 107 70 r 1-select-seq;
#X obj 137 90 r 2-select-seq;
#X obj 167 110 r 3-select-seq;
#X obj 197 130 r 4-select-seq;
#X obj 227 150 r 5-select-seq;
#X obj 257 170 r 6-select-seq;
#X obj 287 190 r 7-select-seq;
#X obj 317 210 r 8-select-seq;
#X obj 347 230 r 9-select-seq;
#X obj 377 250 r 10-select-seq;
#X obj 407 270 r 11-select-seq;
#X obj 437 290 r 12-select-seq;
#X obj 467 310 r 13-select-seq;
#X obj 497 330 r 14-select-seq;
#X obj 527 350 r 15-select-seq;
#N canvas 0 22 450 300 slim200 0;
#X obj 62 45 inlet;
#X obj 87 206 outlet;
#X obj 62 78 t b a;
#X obj 87 171 spigot 1;
#X msg 130 111 0;
#X msg 62 135 1;
#X text 187 89 simple message speedlimit;
#X obj 62 111 delay 200;
#X connect 0 0 2 0;
#X connect 2 0 4 0;
#X connect 2 0 7 0;
#X connect 2 1 3 0;
#X connect 3 0 1 0;
#X connect 4 0 3 1;
#X connect 5 0 3 1;
#X connect 7 0 5 0;
#X restore 77 488 pd slim200;
#X connect 1 0 3 0;
#X connect 2 0 34 0;
#X connect 3 0 2 0;
#X connect 4 0 2 0;
#X connect 5 0 2 0;
#X connect 6 0 2 0;
#X connect 7 0 2 0;
#X connect 8 0 2 0;
#X connect 9 0 2 0;
#X connect 10 0 2 0;
#X connect 11 0 2 0;
#X connect 12 0 2 0;
#X connect 13 0 2 0;
#X connect 14 0 2 0;
#X connect 15 0 2 0;
#X connect 16 0 2 0;
#X connect 17 0 2 0;
#X connect 18 0 2 0;
#X connect 19 0 4 0;
#X connect 20 0 5 0;
#X connect 21 0 6 0;
#X connect 22 0 7 0;
#X connect 23 0 8 0;
#X connect 24 0 9 0;
#X connect 25 0 10 0;
#X connect 26 0 11 0;
#X connect 27 0 12 0;
#X connect 28 0 13 0;
#X connect 29 0 14 0;
#X connect 30 0 15 0;
#X connect 31 0 16 0;
#X connect 32 0 17 0;
#X connect 33 0 18 0;
#X connect 34 0 0 0;
#X restore 86 5 pd readbuttons;
#X obj 193 143 t b f;
#X obj 193 164 +;
#X obj 193 185 * 0.5;
#X obj 132 168 t f f;
#X obj 163 226 sel 0 1;
#X obj 163 286 f;
#X obj 185 246 f;
#X msg 13 60 0;
#X obj 279 219 t b f;
#X text 97 24 !? miese feedbackprogrammierung;
#X obj 173 404 unpack f f;
#X obj 134 544 f;
#X obj 134 376 t b a;
#N canvas 0 22 454 304 countto16 0;
#X obj 78 28 inlet;
#X msg 78 87 16;
#X obj 78 57 t b b;
#X msg 128 115 0;
#X obj 78 195 outlet;
#X obj 78 118 until;
#X obj 78 161 f;
#X obj 110 161 + 1;
#X msg 259 111 0 \, 1 \, 2 \, 3 \, 4 \, 5 \, 6 \, 7 \, 8 \, 9 \, 10
\, 11 \, 12 \, 13 \, 14 \, 15;
#X connect 0 0 2 0;
#X connect 0 0 8 0;
#X connect 1 0 5 0;
#X connect 2 0 1 0;
#X connect 2 1 3 0;
#X connect 3 0 6 1;
#X connect 5 0 6 0;
#X connect 6 0 7 0;
#X connect 7 0 6 1;
#X connect 8 0 4 0;
#X restore 81 404 pd countto16;
#X msg 278 67 15;
#X obj 214 462 + 1;
#X obj 254 463 sel;
#X obj 254 486 f;
#N canvas 258 71 870 615 lauflicht 0;
#X obj 34 70 route timecode tpp;
#X obj 34 502 == 0;
#X obj 34 546 s 0-select-seq-r;
#N canvas 48 22 450 781 seqseltxt 0;
#X obj 99 15 inlet;
#X obj 99 38 change;
#X obj 99 61 sel 0 1;
#X msg 99 89 label empty;
#X obj 89 481 outlet;
#X msg 117 165 label pow!;
#X obj 117 137 select 0 1 2 3 4 5 6 7 8;
#X obj 117 113 random 9;
#X obj 219 33 loadbang;
#X msg 147 209 label plop;
#X msg 164 233 label klik;
#X msg 178 256 label fLEP;
#X msg 136 187 label ZAP!;
#X msg 194 280 label BuZZ;
#X msg 210 304 label KRCK;
#X msg 229 337 label ziPP;
#X msg 245 362 label tick;
#X connect 0 0 1 0;
#X connect 1 0 2 0;
#X connect 2 0 3 0;
#X connect 2 1 7 0;
#X connect 3 0 4 0;
#X connect 5 0 4 0;
#X connect 6 0 5 0;
#X connect 6 1 12 0;
#X connect 6 2 9 0;
#X connect 6 3 10 0;
#X connect 6 4 11 0;
#X connect 6 5 13 0;
#X connect 6 6 14 0;
#X connect 6 7 15 0;
#X connect 6 8 16 0;
#X connect 7 0 6 0;
#X connect 8 0 3 0;
#X connect 9 0 4 0;
#X connect 10 0 4 0;
#X connect 11 0 4 0;
#X connect 12 0 4 0;
#X connect 13 0 4 0;
#X connect 14 0 4 0;
#X connect 15 0 4 0;
#X connect 16 0 4 0;
#X restore 34 524 pd seqseltxt;
#X obj 64 459 == 1;
#X obj 65 502 s 1-select-seq-r;
#X obj 97 413 == 2;
#X obj 96 457 s 2-select-seq-r;
#X obj 127 369 == 3;
#X obj 128 414 s 3-select-seq-r;
#X obj 152 325 == 4;
#X obj 161 368 s 4-select-seq-r;
#X obj 191 324 s 5-select-seq-r;
#X obj 190 281 == 5;
#X obj 222 279 s 6-select-seq-r;
#X obj 223 235 == 6;
#X obj 255 236 s 7-select-seq-r;
#X obj 254 191 == 7;
#X obj 238 541 s 8-select-seq-r;
#X obj 238 497 == 8;
#X obj 274 497 s 9-select-seq-r;
#X obj 268 454 == 9;
#X obj 300 452 s 10-select-seq-r;
#X obj 302 408 == 10;
#X obj 338 409 s 11-select-seq-r;
#X obj 331 364 == 11;
#X obj 370 361 s 12-select-seq-r;
#X obj 364 319 == 12;
#X obj 394 276 == 13;
#X obj 402 319 s 13-select-seq-r;
#X obj 426 275 s 14-select-seq-r;
#X obj 427 229 == 14;
#X obj 458 186 == 15;
#X obj 459 231 s 15-select-seq-r;
#N canvas 48 22 450 781 seqseltxt 0;
#X obj 99 15 inlet;
#X obj 99 38 change;
#X obj 99 61 sel 0 1;
#X msg 99 89 label empty;
#X obj 89 481 outlet;
#X msg 117 165 label pow!;
#X obj 117 137 select 0 1 2 3 4 5 6 7 8;
#X obj 117 113 random 9;
#X obj 219 33 loadbang;
#X msg 147 209 label plop;
#X msg 164 233 label klik;
#X msg 178 256 label fLEP;
#X msg 136 187 label ZAP!;
#X msg 194 280 label BuZZ;
#X msg 210 304 label KRCK;
#X msg 229 337 label ziPP;
#X msg 245 362 label tick;
#X connect 0 0 1 0;
#X connect 1 0 2 0;
#X connect 2 0 3 0;
#X connect 2 1 7 0;
#X connect 3 0 4 0;
#X connect 5 0 4 0;
#X connect 6 0 5 0;
#X connect 6 1 12 0;
#X connect 6 2 9 0;
#X connect 6 3 10 0;
#X connect 6 4 11 0;
#X connect 6 5 13 0;
#X connect 6 6 14 0;
#X connect 6 7 15 0;
#X connect 6 8 16 0;
#X connect 7 0 6 0;
#X connect 8 0 3 0;
#X connect 9 0 4 0;
#X connect 10 0 4 0;
#X connect 11 0 4 0;
#X connect 12 0 4 0;
#X connect 13 0 4 0;
#X connect 14 0 4 0;
#X connect 15 0 4 0;
#X connect 16 0 4 0;
#X restore 65 479 pd seqseltxt;
#N canvas 48 22 450 781 seqseltxt 0;
#X obj 99 15 inlet;
#X obj 99 38 change;
#X obj 99 61 sel 0 1;
#X msg 99 89 label empty;
#X obj 89 481 outlet;
#X msg 117 165 label pow!;
#X obj 117 137 select 0 1 2 3 4 5 6 7 8;
#X obj 117 113 random 9;
#X obj 219 33 loadbang;
#X msg 147 209 label plop;
#X msg 164 233 label klik;
#X msg 178 256 label fLEP;
#X msg 136 187 label ZAP!;
#X msg 194 280 label BuZZ;
#X msg 210 304 label KRCK;
#X msg 229 337 label ziPP;
#X msg 245 362 label tick;
#X connect 0 0 1 0;
#X connect 1 0 2 0;
#X connect 2 0 3 0;
#X connect 2 1 7 0;
#X connect 3 0 4 0;
#X connect 5 0 4 0;
#X connect 6 0 5 0;
#X connect 6 1 12 0;
#X connect 6 2 9 0;
#X connect 6 3 10 0;
#X connect 6 4 11 0;
#X connect 6 5 13 0;
#X connect 6 6 14 0;
#X connect 6 7 15 0;
#X connect 6 8 16 0;
#X connect 7 0 6 0;
#X connect 8 0 3 0;
#X connect 9 0 4 0;
#X connect 10 0 4 0;
#X connect 11 0 4 0;
#X connect 12 0 4 0;
#X connect 13 0 4 0;
#X connect 14 0 4 0;
#X connect 15 0 4 0;
#X connect 16 0 4 0;
#X restore 100 437 pd seqseltxt;
#N canvas 48 22 450 781 seqseltxt 0;
#X obj 99 15 inlet;
#X obj 99 38 change;
#X obj 99 61 sel 0 1;
#X msg 99 89 label empty;
#X obj 89 481 outlet;
#X msg 117 165 label pow!;
#X obj 117 137 select 0 1 2 3 4 5 6 7 8;
#X obj 117 113 random 9;
#X obj 219 33 loadbang;
#X msg 147 209 label plop;
#X msg 164 233 label klik;
#X msg 178 256 label fLEP;
#X msg 136 187 label ZAP!;
#X msg 194 280 label BuZZ;
#X msg 210 304 label KRCK;
#X msg 229 337 label ziPP;
#X msg 245 362 label tick;
#X connect 0 0 1 0;
#X connect 1 0 2 0;
#X connect 2 0 3 0;
#X connect 2 1 7 0;
#X connect 3 0 4 0;
#X connect 5 0 4 0;
#X connect 6 0 5 0;
#X connect 6 1 12 0;
#X connect 6 2 9 0;
#X connect 6 3 10 0;
#X connect 6 4 11 0;
#X connect 6 5 13 0;
#X connect 6 6 14 0;
#X connect 6 7 15 0;
#X connect 6 8 16 0;
#X connect 7 0 6 0;
#X connect 8 0 3 0;
#X connect 9 0 4 0;
#X connect 10 0 4 0;
#X connect 11 0 4 0;
#X connect 12 0 4 0;
#X connect 13 0 4 0;
#X connect 14 0 4 0;
#X connect 15 0 4 0;
#X connect 16 0 4 0;
#X restore 126 397 pd seqseltxt;
#N canvas 48 22 450 781 seqseltxt 0;
#X obj 99 15 inlet;
#X obj 99 38 change;
#X obj 99 61 sel 0 1;
#X msg 99 89 label empty;
#X obj 89 481 outlet;
#X msg 117 165 label pow!;
#X obj 117 137 select 0 1 2 3 4 5 6 7 8;
#X obj 117 113 random 9;
#X obj 219 33 loadbang;
#X msg 147 209 label plop;
#X msg 164 233 label klik;
#X msg 178 256 label fLEP;
#X msg 136 187 label ZAP!;
#X msg 194 280 label BuZZ;
#X msg 210 304 label KRCK;
#X msg 229 337 label ziPP;
#X msg 245 362 label tick;
#X connect 0 0 1 0;
#X connect 1 0 2 0;
#X connect 2 0 3 0;
#X connect 2 1 7 0;
#X connect 3 0 4 0;
#X connect 5 0 4 0;
#X connect 6 0 5 0;
#X connect 6 1 12 0;
#X connect 6 2 9 0;
#X connect 6 3 10 0;
#X connect 6 4 11 0;
#X connect 6 5 13 0;
#X connect 6 6 14 0;
#X connect 6 7 15 0;
#X connect 6 8 16 0;
#X connect 7 0 6 0;
#X connect 8 0 3 0;
#X connect 9 0 4 0;
#X connect 10 0 4 0;
#X connect 11 0 4 0;
#X connect 12 0 4 0;
#X connect 13 0 4 0;
#X connect 14 0 4 0;
#X connect 15 0 4 0;
#X connect 16 0 4 0;
#X restore 159 348 pd seqseltxt;
#N canvas 48 22 450 781 seqseltxt 0;
#X obj 99 15 inlet;
#X obj 99 38 change;
#X obj 99 61 sel 0 1;
#X msg 99 89 label empty;
#X obj 89 481 outlet;
#X msg 117 165 label pow!;
#X obj 117 137 select 0 1 2 3 4 5 6 7 8;
#X obj 117 113 random 9;
#X obj 219 33 loadbang;
#X msg 147 209 label plop;
#X msg 164 233 label klik;
#X msg 178 256 label fLEP;
#X msg 136 187 label ZAP!;
#X msg 194 280 label BuZZ;
#X msg 210 304 label KRCK;
#X msg 229 337 label ziPP;
#X msg 245 362 label tick;
#X connect 0 0 1 0;
#X connect 1 0 2 0;
#X connect 2 0 3 0;
#X connect 2 1 7 0;
#X connect 3 0 4 0;
#X connect 5 0 4 0;
#X connect 6 0 5 0;
#X connect 6 1 12 0;
#X connect 6 2 9 0;
#X connect 6 3 10 0;
#X connect 6 4 11 0;
#X connect 6 5 13 0;
#X connect 6 6 14 0;
#X connect 6 7 15 0;
#X connect 6 8 16 0;
#X connect 7 0 6 0;
#X connect 8 0 3 0;
#X connect 9 0 4 0;
#X connect 10 0 4 0;
#X connect 11 0 4 0;
#X connect 12 0 4 0;
#X connect 13 0 4 0;
#X connect 14 0 4 0;
#X connect 15 0 4 0;
#X connect 16 0 4 0;
#X restore 187 303 pd seqseltxt;
#N canvas 48 22 450 781 seqseltxt 0;
#X obj 99 15 inlet;
#X obj 99 38 change;
#X obj 99 61 sel 0 1;
#X msg 99 89 label empty;
#X obj 89 481 outlet;
#X msg 117 165 label pow!;
#X obj 117 137 select 0 1 2 3 4 5 6 7 8;
#X obj 117 113 random 9;
#X obj 219 33 loadbang;
#X msg 147 209 label plop;
#X msg 164 233 label klik;
#X msg 178 256 label fLEP;
#X msg 136 187 label ZAP!;
#X msg 194 280 label BuZZ;
#X msg 210 304 label KRCK;
#X msg 229 337 label ziPP;
#X msg 245 362 label tick;
#X connect 0 0 1 0;
#X connect 1 0 2 0;
#X connect 2 0 3 0;
#X connect 2 1 7 0;
#X connect 3 0 4 0;
#X connect 5 0 4 0;
#X connect 6 0 5 0;
#X connect 6 1 12 0;
#X connect 6 2 9 0;
#X connect 6 3 10 0;
#X connect 6 4 11 0;
#X connect 6 5 13 0;
#X connect 6 6 14 0;
#X connect 6 7 15 0;
#X connect 6 8 16 0;
#X connect 7 0 6 0;
#X connect 8 0 3 0;
#X connect 9 0 4 0;
#X connect 10 0 4 0;
#X connect 11 0 4 0;
#X connect 12 0 4 0;
#X connect 13 0 4 0;
#X connect 14 0 4 0;
#X connect 15 0 4 0;
#X connect 16 0 4 0;
#X restore 223 257 pd seqseltxt;
#N canvas 48 22 458 789 seqseltxt 0;
#X obj 99 15 inlet;
#X obj 99 38 change;
#X obj 99 61 sel 0 1;
#X msg 99 89 label empty;
#X obj 89 481 outlet;
#X msg 117 165 label pow!;
#X obj 117 137 select 0 1 2 3 4 5 6 7 8;
#X obj 117 113 random 9;
#X obj 219 33 loadbang;
#X msg 147 209 label plop;
#X msg 164 233 label klik;
#X msg 178 256 label fLEP;
#X msg 136 187 label ZAP!;
#X msg 194 280 label BuZZ;
#X msg 210 304 label KRCK;
#X msg 229 337 label ziPP;
#X msg 245 362 label tick;
#X connect 0 0 1 0;
#X connect 1 0 2 0;
#X connect 2 0 3 0;
#X connect 2 1 7 0;
#X connect 3 0 4 0;
#X connect 5 0 4 0;
#X connect 6 0 5 0;
#X connect 6 1 12 0;
#X connect 6 2 9 0;
#X connect 6 3 10 0;
#X connect 6 4 11 0;
#X connect 6 5 13 0;
#X connect 6 6 14 0;
#X connect 6 7 15 0;
#X connect 6 8 16 0;
#X connect 7 0 6 0;
#X connect 8 0 3 0;
#X connect 9 0 4 0;
#X connect 10 0 4 0;
#X connect 11 0 4 0;
#X connect 12 0 4 0;
#X connect 13 0 4 0;
#X connect 14 0 4 0;
#X connect 15 0 4 0;
#X connect 16 0 4 0;
#X restore 258 211 pd seqseltxt;
#N canvas 48 22 454 785 seqseltxt 0;
#X obj 99 15 inlet;
#X obj 99 38 change;
#X obj 99 61 sel 0 1;
#X msg 99 89 label empty;
#X obj 89 481 outlet;
#X msg 117 165 label pow!;
#X obj 117 137 select 0 1 2 3 4 5 6 7 8;
#X obj 117 113 random 9;
#X obj 219 33 loadbang;
#X msg 147 209 label plop;
#X msg 164 233 label klik;
#X msg 178 256 label fLEP;
#X msg 136 187 label ZAP!;
#X msg 194 280 label BuZZ;
#X msg 210 304 label KRCK;
#X msg 229 337 label ziPP;
#X msg 245 362 label tick;
#X connect 0 0 1 0;
#X connect 1 0 2 0;
#X connect 2 0 3 0;
#X connect 2 1 7 0;
#X connect 3 0 4 0;
#X connect 5 0 4 0;
#X connect 6 0 5 0;
#X connect 6 1 12 0;
#X connect 6 2 9 0;
#X connect 6 3 10 0;
#X connect 6 4 11 0;
#X connect 6 5 13 0;
#X connect 6 6 14 0;
#X connect 6 7 15 0;
#X connect 6 8 16 0;
#X connect 7 0 6 0;
#X connect 8 0 3 0;
#X connect 9 0 4 0;
#X connect 10 0 4 0;
#X connect 11 0 4 0;
#X connect 12 0 4 0;
#X connect 13 0 4 0;
#X connect 14 0 4 0;
#X connect 15 0 4 0;
#X connect 16 0 4 0;
#X restore 463 207 pd seqseltxt;
#N canvas 48 22 450 781 seqseltxt 0;
#X obj 99 15 inlet;
#X obj 99 38 change;
#X obj 99 61 sel 0 1;
#X msg 99 89 label empty;
#X obj 89 481 outlet;
#X msg 117 165 label pow!;
#X obj 117 137 select 0 1 2 3 4 5 6 7 8;
#X obj 117 113 random 9;
#X obj 219 33 loadbang;
#X msg 147 209 label plop;
#X msg 164 233 label klik;
#X msg 178 256 label fLEP;
#X msg 136 187 label ZAP!;
#X msg 194 280 label BuZZ;
#X msg 210 304 label KRCK;
#X msg 229 337 label ziPP;
#X msg 245 362 label tick;
#X connect 0 0 1 0;
#X connect 1 0 2 0;
#X connect 2 0 3 0;
#X connect 2 1 7 0;
#X connect 3 0 4 0;
#X connect 5 0 4 0;
#X connect 6 0 5 0;
#X connect 6 1 12 0;
#X connect 6 2 9 0;
#X connect 6 3 10 0;
#X connect 6 4 11 0;
#X connect 6 5 13 0;
#X connect 6 6 14 0;
#X connect 6 7 15 0;
#X connect 6 8 16 0;
#X connect 7 0 6 0;
#X connect 8 0 3 0;
#X connect 9 0 4 0;
#X connect 10 0 4 0;
#X connect 11 0 4 0;
#X connect 12 0 4 0;
#X connect 13 0 4 0;
#X connect 14 0 4 0;
#X connect 15 0 4 0;
#X connect 16 0 4 0;
#X restore 428 251 pd seqseltxt;
#N canvas 48 22 450 781 seqseltxt 0;
#X obj 99 15 inlet;
#X obj 99 38 change;
#X obj 99 61 sel 0 1;
#X msg 99 89 label empty;
#X obj 89 481 outlet;
#X msg 117 165 label pow!;
#X obj 117 137 select 0 1 2 3 4 5 6 7 8;
#X obj 117 113 random 9;
#X obj 219 33 loadbang;
#X msg 147 209 label plop;
#X msg 164 233 label klik;
#X msg 178 256 label fLEP;
#X msg 136 187 label ZAP!;
#X msg 194 280 label BuZZ;
#X msg 210 304 label KRCK;
#X msg 229 337 label ziPP;
#X msg 245 362 label tick;
#X connect 0 0 1 0;
#X connect 1 0 2 0;
#X connect 2 0 3 0;
#X connect 2 1 7 0;
#X connect 3 0 4 0;
#X connect 5 0 4 0;
#X connect 6 0 5 0;
#X connect 6 1 12 0;
#X connect 6 2 9 0;
#X connect 6 3 10 0;
#X connect 6 4 11 0;
#X connect 6 5 13 0;
#X connect 6 6 14 0;
#X connect 6 7 15 0;
#X connect 6 8 16 0;
#X connect 7 0 6 0;
#X connect 8 0 3 0;
#X connect 9 0 4 0;
#X connect 10 0 4 0;
#X connect 11 0 4 0;
#X connect 12 0 4 0;
#X connect 13 0 4 0;
#X connect 14 0 4 0;
#X connect 15 0 4 0;
#X connect 16 0 4 0;
#X restore 397 298 pd seqseltxt;
#N canvas 48 22 450 781 seqseltxt 0;
#X obj 99 15 inlet;
#X obj 99 38 change;
#X obj 99 61 sel 0 1;
#X msg 99 89 label empty;
#X obj 89 481 outlet;
#X msg 117 165 label pow!;
#X obj 117 137 select 0 1 2 3 4 5 6 7 8;
#X obj 117 113 random 9;
#X obj 219 33 loadbang;
#X msg 147 209 label plop;
#X msg 164 233 label klik;
#X msg 178 256 label fLEP;
#X msg 136 187 label ZAP!;
#X msg 194 280 label BuZZ;
#X msg 210 304 label KRCK;
#X msg 229 337 label ziPP;
#X msg 245 362 label tick;
#X connect 0 0 1 0;
#X connect 1 0 2 0;
#X connect 2 0 3 0;
#X connect 2 1 7 0;
#X connect 3 0 4 0;
#X connect 5 0 4 0;
#X connect 6 0 5 0;
#X connect 6 1 12 0;
#X connect 6 2 9 0;
#X connect 6 3 10 0;
#X connect 6 4 11 0;
#X connect 6 5 13 0;
#X connect 6 6 14 0;
#X connect 6 7 15 0;
#X connect 6 8 16 0;
#X connect 7 0 6 0;
#X connect 8 0 3 0;
#X connect 9 0 4 0;
#X connect 10 0 4 0;
#X connect 11 0 4 0;
#X connect 12 0 4 0;
#X connect 13 0 4 0;
#X connect 14 0 4 0;
#X connect 15 0 4 0;
#X connect 16 0 4 0;
#X restore 368 340 pd seqseltxt;
#N canvas 48 22 450 781 seqseltxt 0;
#X obj 99 15 inlet;
#X obj 99 38 change;
#X obj 99 61 sel 0 1;
#X msg 99 89 label empty;
#X obj 89 481 outlet;
#X msg 117 165 label pow!;
#X obj 117 137 select 0 1 2 3 4 5 6 7 8;
#X obj 117 113 random 9;
#X obj 219 33 loadbang;
#X msg 147 209 label plop;
#X msg 164 233 label klik;
#X msg 178 256 label fLEP;
#X msg 136 187 label ZAP!;
#X msg 194 280 label BuZZ;
#X msg 210 304 label KRCK;
#X msg 229 337 label ziPP;
#X msg 245 362 label tick;
#X connect 0 0 1 0;
#X connect 1 0 2 0;
#X connect 2 0 3 0;
#X connect 2 1 7 0;
#X connect 3 0 4 0;
#X connect 5 0 4 0;
#X connect 6 0 5 0;
#X connect 6 1 12 0;
#X connect 6 2 9 0;
#X connect 6 3 10 0;
#X connect 6 4 11 0;
#X connect 6 5 13 0;
#X connect 6 6 14 0;
#X connect 6 7 15 0;
#X connect 6 8 16 0;
#X connect 7 0 6 0;
#X connect 8 0 3 0;
#X connect 9 0 4 0;
#X connect 10 0 4 0;
#X connect 11 0 4 0;
#X connect 12 0 4 0;
#X connect 13 0 4 0;
#X connect 14 0 4 0;
#X connect 15 0 4 0;
#X connect 16 0 4 0;
#X restore 332 387 pd seqseltxt;
#N canvas 48 22 450 781 seqseltxt 0;
#X obj 99 15 inlet;
#X obj 99 38 change;
#X obj 99 61 sel 0 1;
#X msg 99 89 label empty;
#X obj 89 481 outlet;
#X msg 117 165 label pow!;
#X obj 117 137 select 0 1 2 3 4 5 6 7 8;
#X obj 117 113 random 9;
#X obj 219 33 loadbang;
#X msg 147 209 label plop;
#X msg 164 233 label klik;
#X msg 178 256 label fLEP;
#X msg 136 187 label ZAP!;
#X msg 194 280 label BuZZ;
#X msg 210 304 label KRCK;
#X msg 229 337 label ziPP;
#X msg 245 362 label tick;
#X connect 0 0 1 0;
#X connect 1 0 2 0;
#X connect 2 0 3 0;
#X connect 2 1 7 0;
#X connect 3 0 4 0;
#X connect 5 0 4 0;
#X connect 6 0 5 0;
#X connect 6 1 12 0;
#X connect 6 2 9 0;
#X connect 6 3 10 0;
#X connect 6 4 11 0;
#X connect 6 5 13 0;
#X connect 6 6 14 0;
#X connect 6 7 15 0;
#X connect 6 8 16 0;
#X connect 7 0 6 0;
#X connect 8 0 3 0;
#X connect 9 0 4 0;
#X connect 10 0 4 0;
#X connect 11 0 4 0;
#X connect 12 0 4 0;
#X connect 13 0 4 0;
#X connect 14 0 4 0;
#X connect 15 0 4 0;
#X connect 16 0 4 0;
#X restore 301 430 pd seqseltxt;
#N canvas 48 22 450 781 seqseltxt 0;
#X obj 99 15 inlet;
#X obj 99 38 change;
#X obj 99 61 sel 0 1;
#X msg 99 89 label empty;
#X obj 89 481 outlet;
#X msg 117 165 label pow!;
#X obj 117 137 select 0 1 2 3 4 5 6 7 8;
#X obj 117 113 random 9;
#X obj 219 33 loadbang;
#X msg 147 209 label plop;
#X msg 164 233 label klik;
#X msg 178 256 label fLEP;
#X msg 136 187 label ZAP!;
#X msg 194 280 label BuZZ;
#X msg 210 304 label KRCK;
#X msg 229 337 label ziPP;
#X msg 245 362 label tick;
#X connect 0 0 1 0;
#X connect 1 0 2 0;
#X connect 2 0 3 0;
#X connect 2 1 7 0;
#X connect 3 0 4 0;
#X connect 5 0 4 0;
#X connect 6 0 5 0;
#X connect 6 1 12 0;
#X connect 6 2 9 0;
#X connect 6 3 10 0;
#X connect 6 4 11 0;
#X connect 6 5 13 0;
#X connect 6 6 14 0;
#X connect 6 7 15 0;
#X connect 6 8 16 0;
#X connect 7 0 6 0;
#X connect 8 0 3 0;
#X connect 9 0 4 0;
#X connect 10 0 4 0;
#X connect 11 0 4 0;
#X connect 12 0 4 0;
#X connect 13 0 4 0;
#X connect 14 0 4 0;
#X connect 15 0 4 0;
#X connect 16 0 4 0;
#X restore 271 475 pd seqseltxt;
#N canvas 48 22 454 785 seqseltxt 0;
#X obj 99 15 inlet;
#X obj 99 38 change;
#X obj 99 61 sel 0 1;
#X msg 99 89 label empty;
#X obj 89 481 outlet;
#X msg 117 165 label pow!;
#X obj 117 137 select 0 1 2 3 4 5 6 7 8;
#X obj 117 113 random 9;
#X obj 219 33 loadbang;
#X msg 147 209 label plop;
#X msg 164 233 label klik;
#X msg 178 256 label fLEP;
#X msg 136 187 label ZAP!;
#X msg 194 280 label BuZZ;
#X msg 210 304 label KRCK;
#X msg 229 337 label ziPP;
#X msg 245 362 label tick;
#X connect 0 0 1 0;
#X connect 1 0 2 0;
#X connect 2 0 3 0;
#X connect 2 1 7 0;
#X connect 3 0 4 0;
#X connect 5 0 4 0;
#X connect 6 0 5 0;
#X connect 6 1 12 0;
#X connect 6 2 9 0;
#X connect 6 3 10 0;
#X connect 6 4 11 0;
#X connect 6 5 13 0;
#X connect 6 6 14 0;
#X connect 6 7 15 0;
#X connect 6 8 16 0;
#X connect 7 0 6 0;
#X connect 8 0 3 0;
#X connect 9 0 4 0;
#X connect 10 0 4 0;
#X connect 11 0 4 0;
#X connect 12 0 4 0;
#X connect 13 0 4 0;
#X connect 14 0 4 0;
#X connect 15 0 4 0;
#X connect 16 0 4 0;
#X restore 239 522 pd seqseltxt;
#X obj 34 95 mod 16;
#X obj 34 182 t a;
#X obj 386 136 sel 0;
#X msg 386 156 -1;
#X obj 34 147 spigot 1;
#X obj 564 48 r mmm;
#X obj 564 91 b;
#X obj 686 82 symbol;
#X obj 686 102 select stoprewind;
#X obj 686 58 r mmm-transport>;
#X obj 564 70 route reset_all;
#X obj 34 48 r mmm-transport>;
#X obj 388 45 b;
#X obj 388 106 s >mmm-globalgui;
#X msg 388 85 toggle_animation;
#N canvas 0 22 450 300 slim200 0;
#X obj 62 45 inlet;
#X obj 87 206 outlet;
#X obj 62 78 t b a;
#X obj 87 171 spigot 1;
#X msg 130 111 0;
#X msg 62 135 1;
#X text 187 89 simple message speedlimit;
#X obj 62 111 delay 200;
#X connect 0 0 2 0;
#X connect 2 0 4 0;
#X connect 2 0 7 0;
#X connect 2 1 3 0;
#X connect 3 0 1 0;
#X connect 4 0 3 1;
#X connect 5 0 3 1;
#X connect 7 0 5 0;
#X restore 388 64 pd slim200;
#X obj 388 24 r mmm-seqseltgl;
#X obj 185 62 r mmm-globalgui>;
#X obj 185 82 route animation;
#X obj 172 125 r preferences;
#X obj 172 145 route batman;
#X obj 34 127 spigot;
#X obj 168 565 r mmm-font>;
#X connect 0 0 49 0;
#X connect 0 1 49 1;
#X connect 1 0 3 0;
#X connect 3 0 2 0;
#X connect 4 0 34 0;
#X connect 6 0 35 0;
#X connect 8 0 36 0;
#X connect 10 0 37 0;
#X connect 13 0 38 0;
#X connect 15 0 39 0;
#X connect 17 0 40 0;
#X connect 19 0 48 0;
#X connect 21 0 47 0;
#X connect 23 0 46 0;
#X connect 25 0 45 0;
#X connect 27 0 44 0;
#X connect 28 0 43 0;
#X connect 31 0 42 0;
#X connect 32 0 41 0;
#X connect 34 0 5 0;
#X connect 35 0 7 0;
#X connect 36 0 9 0;
#X connect 37 0 11 0;
#X connect 38 0 12 0;
#X connect 39 0 14 0;
#X connect 40 0 16 0;
#X connect 41 0 33 0;
#X connect 42 0 30 0;
#X connect 43 0 29 0;
#X connect 44 0 26 0;
#X connect 45 0 24 0;
#X connect 46 0 22 0;
#X connect 47 0 20 0;
#X connect 48 0 18 0;
#X connect 49 0 70 0;
#X connect 50 0 1 0;
#X connect 50 0 4 0;
#X connect 50 0 6 0;
#X connect 50 0 8 0;
#X connect 50 0 10 0;
#X connect 50 0 13 0;
#X connect 50 0 15 0;
#X connect 50 0 17 0;
#X connect 50 0 19 0;
#X connect 50 0 21 0;
#X connect 50 0 23 0;
#X connect 50 0 25 0;
#X connect 50 0 27 0;
#X connect 50 0 31 0;
#X connect 50 0 32 0;
#X connect 50 0 28 0;
#X connect 51 0 52 0;
#X connect 52 0 50 0;
#X connect 53 0 50 0;
#X connect 54 0 59 0;
#X connect 55 0 52 0;
#X connect 56 0 57 0;
#X connect 57 0 55 0;
#X connect 58 0 56 0;
#X connect 59 0 55 0;
#X connect 60 0 0 0;
#X connect 61 0 64 0;
#X connect 63 0 62 0;
#X connect 64 0 63 0;
#X connect 65 0 61 0;
#X connect 66 0 67 0;
#X connect 67 0 53 1;
#X connect 67 0 51 0;
#X connect 68 0 69 0;
#X connect 69 0 70 1;
#X connect 69 0 51 0;
#X connect 70 0 53 0;
#X connect 71 0 16 0;
#X connect 71 0 14 0;
#X connect 71 0 12 0;
#X connect 71 0 11 0;
#X connect 71 0 9 0;
#X connect 71 0 7 0;
#X connect 71 0 5 0;
#X connect 71 0 2 0;
#X connect 71 0 33 0;
#X connect 71 0 30 0;
#X connect 71 0 29 0;
#X connect 71 0 26 0;
#X connect 71 0 24 0;
#X connect 71 0 22 0;
#X connect 71 0 20 0;
#X connect 71 0 18 0;
#X restore 302 700 pd lauflicht;
#X obj 403 57 r mmm;
#X obj 403 77 route reset_all;
#X obj 403 97 t b b;
#X obj 358 477 r mmm-font>;
#X obj 359 525 s mmm-seqseltgl-r;
#X obj 86 64 select 0;
#X obj 238 79 f 0;
#X obj 163 206 > 7.5;
#X obj 159 330 f 0;
#X obj 159 351 pack 0 15;
#X obj 279 91 f 15;
#X obj 189 486 moses 16;
#X obj 134 443 moses 0;
#X obj 44 85 f 15;
#X obj 14 100 f 0;
#X obj 124 111 select 15;
#X obj 341 360 -;
#X msg 341 340 \$2 \$1;
#X obj 341 380 + 1;
#X msg 341 400 \; netpd-broadcast mmm tpp \$1;
#X msg 381 500 set 0;
#X msg 134 620 \; \$1-select-seq-r color 0 0 22 \, set 0;
#X msg 189 563 \; \$1-select-seq-r color 8 8 22 \, set 0;
#X connect 0 0 25 0;
#X connect 1 0 2 0;
#X connect 1 1 2 1;
#X connect 2 0 3 0;
#X connect 3 0 27 1;
#X connect 4 0 27 0;
#X connect 4 1 6 1;
#X connect 4 1 7 1;
#X connect 5 0 6 0;
#X connect 5 1 7 0;
#X connect 6 0 34 0;
#X connect 7 0 30 0;
#X connect 8 0 34 0;
#X connect 9 0 28 0;
#X connect 9 1 29 1;
#X connect 11 0 17 0;
#X connect 11 0 32 1;
#X connect 11 1 16 0;
#X connect 11 1 17 1;
#X connect 11 1 18 1;
#X connect 12 0 41 0;
#X connect 13 0 14 0;
#X connect 13 1 11 0;
#X connect 13 1 37 0;
#X connect 14 0 32 0;
#X connect 15 0 30 0;
#X connect 16 0 31 1;
#X connect 17 0 18 0;
#X connect 20 0 21 0;
#X connect 21 0 22 0;
#X connect 22 0 8 0;
#X connect 22 1 15 0;
#X connect 23 0 24 0;
#X connect 23 0 40 0;
#X connect 25 0 26 0;
#X connect 25 1 35 0;
#X connect 26 0 30 0;
#X connect 27 0 5 0;
#X connect 28 0 29 0;
#X connect 29 0 13 0;
#X connect 30 0 1 0;
#X connect 30 0 9 0;
#X connect 30 0 33 1;
#X connect 30 0 35 1;
#X connect 31 0 42 0;
#X connect 31 1 12 0;
#X connect 32 0 12 0;
#X connect 32 1 31 0;
#X connect 33 0 34 0;
#X connect 34 0 2 0;
#X connect 34 0 25 1;
#X connect 34 0 26 1;
#X connect 34 0 28 0;
#X connect 35 0 33 0;
#X connect 35 1 4 0;
#X connect 36 0 38 0;
#X connect 37 0 36 0;
#X connect 38 0 39 0;
#X connect 40 0 24 0;
#X restore 14 284 pd selection;
#X obj 128 74 mmm-arranger 1;
#N canvas 50 93 397 293 scrollers 0;
#X obj 22 203 s;
#X obj 148 93 r mmm;
#X obj 148 113 route module;
#X obj 148 133 route activate;
#X msg 148 173 symbol \$1-admin;
#X obj 148 153 list;
#X obj 23 133 pack 0 0;
#X obj 84 83 t b f;
#X msg 23 153 scroll \$1 \$2;
#X obj 22 83 t f b;
#X msg 52 103 0;
#X msg 84 103 0;
#X obj 22 23 mmm-slider mmm-controller-scroll;
#X obj 84 53 mmm-slider mmm-pattern-scroll;
#X obj 22 53 * -1;
#X connect 1 0 2 0;
#X connect 2 0 3 0;
#X connect 3 0 5 0;
#X connect 4 0 0 1;
#X connect 5 0 4 0;
#X connect 6 0 8 0;
#X connect 7 0 11 0;
#X connect 7 1 6 1;
#X connect 8 0 0 0;
#X connect 9 0 6 0;
#X connect 9 1 10 0;
#X connect 10 0 6 1;
#X connect 11 0 6 0;
#X connect 12 0 14 0;
#X connect 13 0 7 0;
#X connect 14 0 9 0;
#X restore 14 264 pd scrollers for controller and pattern;
#X obj 254 14 mmm-sequencer 1;
#X obj 111 94 mmm-arranger 2;
#X obj 95 114 mmm-arranger 3;
#X obj 79 134 mmm-arranger 4;
#X obj 62 154 mmm-arranger 5;
#X obj 46 174 mmm-arranger 6;
#X obj 30 194 mmm-arranger 7;
#X obj 14 214 mmm-arranger 8;
#X obj 14 404 s mmm-pattern-scroll-r;
#X msg 14 384 label pattern:\$1;
#X obj 14 324 r mmm;
#X obj 14 344 route pattern;
#X obj 14 364 route scroll;
#X obj 254 74 mmm-sequencer 4;
#X obj 254 114 mmm-sequencer 6;
#X obj 254 34 mmm-sequencer 2;
#X obj 254 54 mmm-sequencer 3;
#X obj 254 94 mmm-sequencer 5;
#X obj 254 134 mmm-sequencer 7;
#X obj 254 154 mmm-sequencer 8;
#X obj 375 14 r mmm;
#X obj 375 34 route module;
#X obj 254 184 s;
#X obj 375 54 route activate;
#X msg 375 164 symbol \$1-admin;
#X obj 375 134 list;
#X obj 393 84 loadbang;
#X msg 393 104 1-1;
#X connect 0 0 1 0;
#X connect 1 0 13 0;
#X connect 1 1 12 0;
#X connect 1 2 11 0;
#X connect 1 3 10 0;
#X connect 1 4 9 0;
#X connect 1 5 8 0;
#X connect 1 6 7 0;
#X connect 1 7 4 0;
#X connect 6 0 28 0;
#X connect 15 0 14 0;
#X connect 16 0 17 0;
#X connect 17 0 18 0;
#X connect 18 0 15 0;
#X connect 19 0 28 0;
#X connect 20 0 28 0;
#X connect 21 0 28 0;
#X connect 22 0 28 0;
#X connect 23 0 28 0;
#X connect 24 0 28 0;
#X connect 25 0 28 0;
#X connect 26 0 27 0;
#X connect 27 0 29 0;
#X connect 29 0 31 0;
#X connect 30 0 28 1;
#X connect 31 0 30 0;
#X connect 32 0 33 0;
#X connect 33 0 31 0;
#X restore 209 112 pd arranger and sequencer;
#X obj 49 72 mmm-edit;
#X obj 39 32 mmm-select;
#X obj 49 52 mmm-file;
#X text 19 12 menu bar;
#N canvas 466 22 584 632 top 0;
#X obj 22 142 b;
#N canvas 0 22 462 312 slim200 0;
#X obj 62 45 inlet;
#X obj 87 206 outlet;
#X obj 62 78 t b a;
#X obj 87 171 spigot 1;
#X msg 130 111 0;
#X msg 62 135 1;
#X text 187 89 simple message speedlimit;
#X obj 62 111 delay 200;
#X connect 0 0 2 0;
#X connect 2 0 4 0;
#X connect 2 0 7 0;
#X connect 2 1 3 0;
#X connect 3 0 1 0;
#X connect 4 0 3 1;
#X connect 5 0 3 1;
#X connect 7 0 5 0;
#X restore 22 162 pd slim200;
#X text 173 50 gui anfangs zeigen \, code anfangs verstecken;
#X obj 22 248 r mmm-font>;
#X obj 20 415 r >mmm-globalgui;
#X obj 20 435 route toggle_animation;
#X obj 20 475 - 1;
#X obj 20 495 abs;
#X msg 20 515 animation \$1;
#X obj 20 535 s mmm-globalgui>;
#X msg 22 358 \; mmm reset_all;
#X obj 22 26 loadbang;
#X msg 22 46 \; pd-mmmmain.pd vis 0 \; pd-mmmmain-gui vis 1;
#X obj 48 182 == 0;
#X obj 22 182 f 1;
#X obj 46 455 == 0;
#X obj 20 455 f 1;
#X obj 204 284 r hot-control;
#X obj 204 324 s hot-control-r;
#X msg 204 304 set 0;
#X msg 22 202 \; pd-mmmmain.pd vis \$1 \; mmm-showcode-r set 0;
#X text 20 103 display mmm patch internals;
#X obj 22 122 r mmm-showcode;
#X obj 22 308 s mmm-reset-r;
#X obj 22 338 r mmm-reset;
#N canvas 0 22 450 300 slim200 0;
#X obj 62 45 inlet;
#X obj 87 206 outlet;
#X obj 62 78 t b a;
#X obj 87 171 spigot 1;
#X msg 130 111 0;
#X msg 62 135 1;
#X text 187 89 simple message speedlimit;
#X obj 62 111 delay 200;
#X connect 0 0 2 0;
#X connect 2 0 4 0;
#X connect 2 0 7 0;
#X connect 2 1 3 0;
#X connect 3 0 1 0;
#X connect 4 0 3 1;
#X connect 5 0 3 1;
#X connect 7 0 5 0;
#X restore 232 472 pd slim200;
#X obj 232 492 b;
#X obj 232 392 r mmm-font>;
#X msg 239 412 set 0;
#X msg 232 512 \; pd-mmmmain.pd vis 1 \; pd-mmmmain.pd menuclose 0
;
#X obj 232 452 r mmm-quit;
#X obj 232 432 s mmm-quit-r;
#X connect 0 0 1 0;
#X connect 1 0 14 0;
#X connect 3 0 18 0;
#X connect 3 0 19 0;
#X connect 3 0 23 0;
#X connect 4 0 5 0;
#X connect 5 0 16 0;
#X connect 6 0 7 0;
#X connect 7 0 8 0;
#X connect 8 0 9 0;
#X connect 11 0 12 0;
#X connect 13 0 14 1;
#X connect 14 0 13 0;
#X connect 14 0 20 0;
#X connect 15 0 16 1;
#X connect 16 0 15 0;
#X connect 16 0 6 0;
#X connect 17 0 19 0;
#X connect 19 0 18 0;
#X connect 22 0 0 0;
#X connect 24 0 10 0;
#X connect 25 0 26 0;
#X connect 26 0 29 0;
#X connect 27 0 28 0;
#X connect 27 0 31 0;
#X connect 28 0 31 0;
#X connect 30 0 25 0;
#X restore 209 32 pd top;
#X text 187 12 top bar;
#X text 20 122 module;
#N canvas 164 22 498 257 dsp 0;
#N canvas 0 22 474 324 rebuild-dsp-chain 0;
#X restore 229 100 pd rebuild-dsp-chain;
#X msg 229 56 \; pd-rebuild-dsp-chain obj 50 50 +~ \; pd-rebuild-dsp-chain
clear;
#X obj 229 16 r mmm;
#X obj 229 36 route rebuild-dsp-chain;
#X obj 93 16 r netpd-receive;
#X obj 93 36 route instant-msg;
#X obj 93 56 route mmm;
#X obj 93 76 s mmm;
#X obj 14 186 dac~;
#X obj 145 148 s~ 1-nothing;
#X obj 145 198 table nothing 4;
#X obj 145 168 s~ nothing;
#X obj 14 16 mmm-dsp 1;
#X obj 14 56 mmm-dsp 3;
#X obj 14 116 mmm-dsp 6;
#X obj 14 36 mmm-dsp 2;
#X obj 14 76 mmm-dsp 4;
#X obj 14 96 mmm-dsp 5;
#X obj 14 136 mmm-dsp 7;
#X obj 14 156 mmm-dsp 8;
#X connect 2 0 3 0;
#X connect 3 0 1 0;
#X connect 4 0 5 0;
#X connect 5 0 6 0;
#X connect 6 0 7 0;
#X connect 12 0 15 0;
#X connect 12 1 15 1;
#X connect 13 0 16 0;
#X connect 13 1 16 1;
#X connect 14 0 18 0;
#X connect 14 1 18 1;
#X connect 15 0 13 0;
#X connect 15 1 13 1;
#X connect 16 0 17 0;
#X connect 16 1 17 1;
#X connect 17 0 14 0;
#X connect 17 1 14 1;
#X connect 18 0 19 0;
#X connect 18 1 19 1;
#X connect 19 0 8 0;
#X connect 19 1 8 1;
#X restore 49 142 pd dsp;
#X obj 39 162 mmm-4m-abs;
#X obj 39 182 mmm-module_activate;
#X connect 0 0 4 0;
#X connect 6 0 13 0;
#X connect 6 0 7 0;
#X connect 6 0 5 0;
#X restore 24 27 pd eingeweide;
#N canvas 465 22 264 716 abslist 0;
#X msg 17 458 mmm-x;
#X msg 17 478 mmm-a;
#X msg 17 498 mmm-f;
#X msg 17 398 mmm-controller;
#X msg 17 148 mmm-module-register;
#X msg 17 68 mmm-transport;
#X msg 17 618 4m-empty;
#X msg 17 118 mmm-routeandpp;
#X msg 17 278 mmm-preferences;
#X msg 17 348 mmm-module_activate;
#X msg 17 298 mmm-preferences-data;
#X msg 17 18 mmm-gui-v;
#X msg 17 38 mmm-gui-h;
#X msg 17 528 mmm-table;
#X msg 17 548 mmm-ticks2ms;
#X msg 17 568 mmm-length;
#X msg 17 98 mmm-arranger;
#X msg 17 168 mmm-sequencer;
#X msg 17 328 mmm-module;
#X msg 17 438 mmm-slider;
#X msg 17 258 mmm-edit;
#X msg 17 218 mmm-select;
#X msg 17 238 mmm-file;
#X msg 17 188 mmm-dsp;
#X msg 17 418 mmm-local;
#X msg 17 378 mmm-ctrl;
#X msg 17 598 mmm-4m-abs;
#X msg 110 469 mmm-seq-slider;
#X msg 126 548 4m-sqrt++;
#X msg 126 568 mmm-sqrt++;
#X msg 126 588 mmm-notename;
#X msg 17 648 mmm-controller-table;
#X msg 125 610 mmm-speedlimit;
#X restore 24 57 pd abslist;
#X obj 24 87 declare -path ../abs;
#X msg 24 117 version 0.3.12;
