#N canvas 451 233 568 517 10;
#X obj 9 391 outlet;
#X obj 428 273 outlet;
#X obj 456 278 inlet;
#X obj 9 53 inlet dummy;
#X obj 359 158 r \$0-ext;
#X obj 359 439 s \$0-extname;
#X obj 359 178 list prepend \$7;
#X obj 359 199 list trim;
#X obj 359 219 route int ext;
#X obj 402 360 makefilename %d;
#X obj 359 417 list trim;
#N canvas 484 480 466 316 register 0;
#X obj 52 30 inlet;
#X obj 70 141 pack symbol \$2 f;
#X obj 70 113 symbol \$1;
#X obj 52 252 outlet;
#X text 97 256 get label;
#X obj 52 68 t f b f;
#X obj 70 186 s >mmm-seqgui;
#X msg 70 165 \$3 register \$1 \$2;
#X connect 0 0 5 0;
#X connect 1 0 7 0;
#X connect 2 0 1 0;
#X connect 5 0 3 0;
#X connect 5 1 2 0;
#X connect 5 2 1 2;
#X connect 7 0 6 0;
#X restore 95 232 pd register;
#X text 355 133 external filename;
#N canvas 315 188 467 495 controller 0;
#X obj 27 32 inlet add;
#X obj 260 39 inlet registered_row;
#X obj 27 75 +;
#X obj 27 105 clip \$4 \$5;
#X obj 260 384 symbol \$1;
#X obj 260 357 t b a;
#X obj 27 228 outlet;
#X obj 260 250 s \$0-ext;
#X obj 260 273 r \$0-extname;
#X obj 260 334 makefilename \$3:%s;
#X obj 260 314 symbol;
#X obj 260 201 f \$6;
#X obj 260 160 t b f;
#X obj 260 404 pack symbol \$2 symbol f;
#X msg 260 229 -1 \$1;
#X obj 260 293 route -1;
#X obj 261 447 s >mmm-seqgui;
#X msg 261 425 \$4 label \$1 \$2 -1 \$3;
#X obj 27 155 f \$6;
#X obj 120 201 f \$6;
#X obj 120 241 list trim;
#X obj 120 221 list prepend \$1 \$3;
#X obj 120 131 r data.getpreset;
#X obj 120 151 sel \$1;
#X obj 120 261 s data.preset;
#X obj 106 32 r data.setstate;
#X obj 106 52 route \$1;
#X obj 106 72 route \$3;
#X connect 0 0 2 0;
#X connect 1 0 12 0;
#X connect 2 0 3 0;
#X connect 3 0 18 0;
#X connect 4 0 13 0;
#X connect 5 0 4 0;
#X connect 5 1 13 2;
#X connect 8 0 15 0;
#X connect 9 0 5 0;
#X connect 10 0 9 0;
#X connect 11 0 14 0;
#X connect 12 0 11 0;
#X connect 12 1 13 3;
#X connect 13 0 17 0;
#X connect 14 0 7 0;
#X connect 15 0 10 0;
#X connect 17 0 16 0;
#X connect 18 0 2 1;
#X connect 18 0 6 0;
#X connect 18 0 11 0;
#X connect 18 0 19 1;
#X connect 19 0 21 0;
#X connect 20 0 24 0;
#X connect 21 0 20 0;
#X connect 22 0 23 0;
#X connect 23 0 19 0;
#X connect 25 0 26 0;
#X connect 26 0 27 0;
#X connect 27 0 3 0;
#X restore 9 291 pd controller;
#X obj 359 339 unpack f f;
#X obj 359 383 pack f s;
#X obj 64 396 s \$1;
#X obj 64 376 list trim;
#X obj 395 252 list split 1;
#X obj 395 319 list append;
#X obj 17 140 r \$1;
#X obj 17 181 route \$2;
#X obj 98 181 route \$2;
#X msg 93 53 version 0.1.2;
#X obj 17 160 route queryseqrow ctladd;
#X text 18 87 eni: preferneces \, gem-render \, recorder (ev. noch
weitere?) brauchen ein mmm-cotroller der nur lokal ist und weder broadcasted
noch sequencierbar ist.;
#X text 11 15 [mmm-controller2 \$1 <number> <name> <rangefrom> <rangeto>
<init> <type>] war: mmm-controller v.0.1.2;
#X obj 64 356 list prepend \$3;
#X obj 9 315 t a a;
#X obj 202 257 loadbang;
#X msg 200 277 mmm-controller2 should be mmm-local;
#X obj 203 305 print error;
#X connect 2 0 19 1;
#X connect 4 0 6 0;
#X connect 6 0 7 0;
#X connect 7 0 8 0;
#X connect 8 0 14 0;
#X connect 8 1 18 0;
#X connect 9 0 15 1;
#X connect 10 0 5 0;
#X connect 11 0 13 1;
#X connect 13 0 28 0;
#X connect 14 0 15 0;
#X connect 14 1 9 0;
#X connect 15 0 10 0;
#X connect 17 0 16 0;
#X connect 18 0 19 0;
#X connect 18 1 1 0;
#X connect 19 0 10 0;
#X connect 20 0 24 0;
#X connect 21 0 11 0;
#X connect 22 0 13 0;
#X connect 24 0 21 0;
#X connect 24 1 22 0;
#X connect 27 0 17 0;
#X connect 28 0 0 0;
#X connect 28 1 27 0;
#X connect 29 0 30 0;
#X connect 30 0 31 0;
