#N canvas 272 271 284 312 10;
#X obj 20 22 r \$1;
#X obj 94 82 s \$1-r;
#X obj 121 252 outlet;
#X msg 34 52 set 0;
#X msg 20 212 -5;
#X msg 40 192 -3;
#X obj 20 112 sel -3 -2 2 3 4;
#X msg 60 172 2;
#X msg 80 152 4;
#X msg 100 132 6;
#X obj 94 22 inlet;
#X msg 148 22 version 0.3.4;
#X connect 0 0 3 0;
#X connect 0 0 6 0;
#X connect 3 0 1 0;
#X connect 4 0 2 0;
#X connect 5 0 2 0;
#X connect 6 0 4 0;
#X connect 6 1 5 0;
#X connect 6 2 7 0;
#X connect 6 3 8 0;
#X connect 6 4 9 0;
#X connect 6 5 2 0;
#X connect 7 0 2 0;
#X connect 8 0 2 0;
#X connect 9 0 2 0;
#X connect 10 0 1 0;
