#N canvas 789 22 401 504 10;
#X obj 163 167 t b f;
#X obj 142 197 pack 1 9;
#X msg 142 217 \; mmm-font> label_font \$1 \$2;
#N canvas 89 185 768 553 save-preferences 0;
#X obj 20 55 sel 1;
#X msg 36 445 write ../abs/mmm-preferences-data.pd;
#X obj 71 185 r data.preset;
#X obj 71 205 spigot;
#X obj 70 125 s data.getpreset;
#X msg 86 155 1;
#X msg 53 155 0;
#X obj 326 475 textfile;
#X obj 136 405 list trim;
#X obj 136 385 list prepend add #X msg 27;
#X obj 215 325 * 20;
#X obj 166 295 f 0;
#X obj 206 295 + 1;
#X obj 215 345 + 66;
#X obj 136 365 list prepend;
#X msg 182 265 0;
#X obj 136 265 t a b;
#X obj 71 245 route save;
#X obj 20 75 t b b b b b b b;
#X msg 326 263 clear \, add #N canvas 0 22 225 275 10 \, add #X msg
27 26 mmm-version atlantis 0.3.0;
#X msg 358 441 print;
#X obj 71 225 route 1--3;
#X msg 70 105 symbol 1--3;
#X obj 20 25 mmm-local 1 -3 1 save 1 1 0 int;
#X connect 0 0 18 0;
#X connect 1 0 7 0;
#X connect 2 0 3 0;
#X connect 3 0 21 0;
#X connect 5 0 3 1;
#X connect 6 0 3 1;
#X connect 8 0 7 0;
#X connect 9 0 8 0;
#X connect 10 0 13 0;
#X connect 11 0 12 0;
#X connect 11 0 10 0;
#X connect 12 0 11 1;
#X connect 13 0 14 1;
#X connect 14 0 9 0;
#X connect 15 0 11 1;
#X connect 16 0 14 0;
#X connect 16 1 11 0;
#X connect 17 1 16 0;
#X connect 18 1 1 0;
#X connect 18 2 6 0;
#X connect 18 3 22 0;
#X connect 18 4 5 0;
#X connect 18 5 15 0;
#X connect 18 6 19 0;
#X connect 19 0 7 0;
#X connect 20 0 7 0;
#X connect 21 0 17 0;
#X connect 22 0 4 0;
#X connect 23 1 0 0;
#X restore 15 87 pd save-preferences;
#N canvas 733 22 462 332 load-preferences 0;
#X obj 18 17 loadbang;
#X obj 94 140 textfile;
#X obj 40 107 until;
#X msg 93 87 read ../abs/mmm-preferences-data.pd \, rewind;
#X obj 94 160 route #X;
#X obj 94 180 list split 3;
#X obj 133 220 list trim;
#X obj 18 57 t b b b;
#X msg 18 140 clear;
#X obj 133 240 s data.setstate;
#X obj 133 200 list prepend 1--3;
#X obj 18 37 del 10;
#X connect 0 0 11 0;
#X connect 1 0 4 0;
#X connect 1 1 2 1;
#X connect 2 0 1 0;
#X connect 3 0 1 0;
#X connect 4 0 5 0;
#X connect 5 1 10 0;
#X connect 6 0 9 0;
#X connect 7 0 8 0;
#X connect 7 1 2 0;
#X connect 7 2 3 0;
#X connect 8 0 1 0;
#X connect 10 0 6 0;
#X connect 11 0 7 0;
#X restore 15 67 pd load-preferences;
#N canvas 672 369 528 415 preferences-module 0;
#X obj 15 17 r mmm-font>;
#X obj 15 57 r mmm-preferences;
#X obj 15 37 s mmm-preferences-r;
#X msg 45 97 1 \, 2 \, 3 \, 4 \, 5 \, 6 \, 7 \, 8;
#X msg 45 117 \; mmm-seq-slider \$1 empty empty empty empty empty empty
empty empty empty empty empty empty empty empty empty empty empty;
#X obj 15 297 +;
#X obj 15 257 route scroll;
#X obj 15 77 t b;
#X obj 15 317 clip 0 2;
#X obj 15 237 r 1--3-admin;
#X msg 15 277 \$1;
#X msg 15 337 \; 1--3-admin display \$1 0;
#X msg 15 164 \; seq-modulename-r label preferences \, color 18 18
0 \; mmm-controller-scroll-r color 8 8 22 \; 1--3-admin display 1 0
\; mmm module activate 1--3;
#X connect 0 0 2 0;
#X connect 1 0 7 0;
#X connect 3 0 4 0;
#X connect 5 0 8 0;
#X connect 6 0 10 0;
#X connect 7 0 12 0;
#X connect 8 0 11 0;
#X connect 8 0 5 1;
#X connect 9 0 6 0;
#X connect 10 0 5 0;
#X restore 15 47 pd preferences-module;
#X obj 247 251 sel 0 1;
#X obj 15 312 s mmm;
#X msg 15 292 preferences play \$1;
#X msg 247 291 symbol off;
#X msg 277 271 symbol on;
#X obj 15 117 mmm-local 1 -3 3 font-type 1 3 1 int;
#X msg 15 17 version 0.3.4;
#X obj 36 147 mmm-local 1 -3 2 font-size 6 24 9 int;
#X obj 15 272 mmm-local 1 -3 4 play 0 1 1 ext;
#X obj 15 332 mmm-local 1 -3 5 gui-fx 0 1 1 int;
#X obj 15 352 mmm-local 1 -3 6 activity 0 1 1 int;
#X obj 15 372 mmm-local 1 -3 7 pos 0 1 1 int;
#X obj 15 392 mmm-local 1 -3 8 cpu 0 1 1 int;
#X obj 15 412 mmm-local 1 -3 9 batman 0 1 1 int;
#X obj 15 432 mmm-local 1 -3 10 lauflicht 0 1 1 int;
#X connect 0 0 1 0;
#X connect 0 1 1 1;
#X connect 1 0 2 0;
#X connect 6 0 9 0;
#X connect 6 1 10 0;
#X connect 8 0 7 0;
#X connect 9 0 14 1;
#X connect 10 0 14 1;
#X connect 11 1 1 0;
#X connect 13 1 0 0;
#X connect 14 0 8 0;
#X connect 14 1 6 0;
