#N canvas 343 214 855 563 10;
#X text 11 11 [mmm-a <parent> <name>];
#X obj 191 13 inlet;
#X obj 425 303 r data.dump;
#X obj 20 482 s data.preset;
#X obj 20 302 r data.getpreset;
#X obj 243 303 r netpd-receive;
#X obj 249 183 s netpd-broadcast;
#X obj 425 483 s netpd-send;
#X obj 205 43 r data.preload;
#X obj 205 63 route \$1;
#X obj 205 83 route \$2;
#X obj 243 323 route \$1;
#X obj 243 343 route \$2;
#X obj 191 113 route set;
#X obj 425 443 list prepend;
#X obj 425 343 t b f;
#X obj 425 323 route \$1;
#X obj 243 483 outlet;
#X obj 20 322 sel \$1;
#X obj 249 143 list prepend \$1 \$2;
#X obj 425 423 list prepend \$1 \$2;
#X obj 20 442 list prepend \$1 \$2;
#X obj 249 163 list trim;
#X obj 20 462 list trim;
#X obj 425 463 list trim;
#X text 377 183 BROADCAST;
#X text 236 12 LOCAL;
#X text 513 304 DUMP REMOTE;
#X text 304 253 SET LOCAL;
#X text 140 303 STORE-PRESET;
#X text 310 42 LOAD-PRESET;
#X obj 191 233 list trim;
#X obj 191 253 s netpd-receive;
#X text 356 303 RECEIVE;
#X obj 42 138 spigot 1;
#X msg 105 138 0;
#X text 125 118 INIT;
#X obj 42 118 loadbang;
#X obj 191 213 list prepend \$1 \$2;
#X msg 566 190 bang;
#X text 567 172 dump an sich selbst test;
#N canvas 525 186 191 201 netpd-socket 0;
#X obj 15 15 inlet;
#X obj 15 75 s netpd-getsocket;
#X obj 15 95 r netpd-socket;
#X obj 15 115 spigot;
#X obj 15 35 t b b;
#X msg 45 55 1;
#X obj 15 135 t a b;
#X msg 74 124 0;
#X obj 15 155 outlet;
#X connect 0 0 4 0;
#X connect 2 0 3 0;
#X connect 3 0 6 0;
#X connect 4 0 1 0;
#X connect 4 1 5 0;
#X connect 5 0 3 1;
#X connect 6 0 8 0;
#X connect 6 1 7 0;
#X connect 7 0 3 1;
#X restore 566 211 pd netpd-socket;
#X obj 42 158 list append \$3;
#X obj 42 178 sel empty;
#X obj 610 304 r data.getstate;
#X obj 610 324 route \$1;
#X obj 610 344 route \$2;
#X obj 610 483 s data.state;
#X obj 610 443 list prepend \$1 \$2;
#X obj 610 463 list trim;
#X text 726 304 GET STATE;
#X obj 20 422 list append \$3;
#X obj 425 403 list append \$3;
#X obj 610 403 list append \$3;
#X obj 243 363 t a a;
#X msg 16 32 version 0.2.7;
#X connect 1 0 13 0;
#X connect 2 0 16 0;
#X connect 4 0 18 0;
#X connect 5 0 11 0;
#X connect 8 0 9 0;
#X connect 9 0 10 0;
#X connect 10 0 13 0;
#X connect 11 0 12 0;
#X connect 12 0 54 0;
#X connect 13 0 38 0;
#X connect 13 1 19 0;
#X connect 14 0 24 0;
#X connect 15 0 52 0;
#X connect 15 1 14 1;
#X connect 16 0 15 0;
#X connect 18 0 51 0;
#X connect 19 0 22 0;
#X connect 20 0 14 0;
#X connect 21 0 23 0;
#X connect 22 0 6 0;
#X connect 23 0 3 0;
#X connect 24 0 7 0;
#X connect 31 0 32 0;
#X connect 34 0 35 0;
#X connect 34 0 42 0;
#X connect 35 0 34 1;
#X connect 37 0 34 0;
#X connect 38 0 31 0;
#X connect 39 0 41 0;
#X connect 41 0 15 0;
#X connect 42 0 43 0;
#X connect 43 1 38 0;
#X connect 44 0 45 0;
#X connect 45 0 46 0;
#X connect 46 0 53 0;
#X connect 48 0 49 0;
#X connect 49 0 47 0;
#X connect 51 0 21 0;
#X connect 52 0 20 0;
#X connect 53 0 48 0;
#X connect 54 0 17 0;
#X connect 54 1 51 1;
#X connect 54 1 52 1;
#X connect 54 1 53 1;
