#N canvas 326 309 565 391 10;
#X obj 46 23 inlet;
#X obj 65 333 outlet;
#X obj 176 333 outlet;
#X obj 65 253 spigot;
#X obj 176 253 spigot;
#X msg 241 163 0;
#X obj 26 173 list;
#X msg 136 173 1;
#X msg 194 173 1;
#X obj 26 113 t b a;
#X obj 46 83 list split 1;
#X obj 136 153 sel empty;
#X obj 156 23 inlet;
#X obj 65 303 list trim;
#X msg 156 83 symbol \$1-1;
#X obj 65 283 list prepend \$1;
#X obj 308 23 loadbang;
#X obj 308 53 list append \$1;
#X obj 308 73 route float;
#X obj 381 123 makefilename 1-%s;
#X obj 308 103 makefilename 1-%d;
#X msg 308 153 set symbol \, adddollsym \$1;
#X obj 46 53 t a a;
#X msg 333 313 version 0.1.0;
#X obj 26 223 list split 1;
#X connect 0 0 22 0;
#X connect 3 0 15 0;
#X connect 4 0 2 0;
#X connect 5 0 3 1;
#X connect 5 0 4 1;
#X connect 6 0 4 0;
#X connect 6 0 24 0;
#X connect 7 0 3 1;
#X connect 8 0 4 1;
#X connect 9 0 6 0;
#X connect 9 1 11 0;
#X connect 10 0 9 0;
#X connect 10 1 5 0;
#X connect 11 0 7 0;
#X connect 11 1 8 0;
#X connect 12 0 14 0;
#X connect 13 0 1 0;
#X connect 14 0 11 1;
#X connect 15 0 13 0;
#X connect 16 0 17 0;
#X connect 17 0 18 0;
#X connect 18 0 20 0;
#X connect 18 1 19 0;
#X connect 19 0 21 0;
#X connect 20 0 21 0;
#X connect 21 0 14 0;
#X connect 22 0 10 0;
#X connect 22 1 6 1;
#X connect 24 1 3 0;
