#N canvas 88 97 442 669 10;
#N canvas 62 22 573 447 module-scroll 0;
#X obj 156 147 f;
#X obj 188 147 +;
#N canvas 0 22 454 304 slim200 0;
#X obj 62 45 inlet;
#X obj 87 206 outlet;
#X obj 62 78 t b a;
#X obj 87 171 spigot 1;
#X msg 130 111 0;
#X msg 62 135 1;
#X text 187 89 simple message speedlimit;
#X obj 62 111 delay 200;
#X connect 0 0 2 0;
#X connect 2 0 4 0;
#X connect 2 0 7 0;
#X connect 2 1 3 0;
#X connect 3 0 1 0;
#X connect 4 0 3 1;
#X connect 5 0 3 1;
#X connect 7 0 5 0;
#X restore 260 78 pd slim200;
#X msg 260 138 0;
#X obj 188 207 clip 0 0;
#X obj 406 307 outlet;
#X obj 260 18 r mmm;
#X obj 384 27 inlet set;
#X obj 406 267 change -1;
#X msg 406 247 set -1;
#X obj 73 290 r mmm-font>;
#X obj 23 340 s module-selector-r;
#X obj 23 18 r module-selector;
#X obj 188 167 int;
#X obj 229 250 > 0;
#X obj 229 270 sel 0 1;
#X obj 384 67 t b b a a;
#X msg 23 290 set 0;
#X obj 260 38 route reset_all;
#X obj 260 58 b;
#X msg 251 290 color 8 8 22;
#X msg 229 310 color 8 8 20;
#X obj 23 48 * -1;
#X connect 0 0 1 1;
#X connect 1 0 13 0;
#X connect 2 0 3 0;
#X connect 3 0 4 0;
#X connect 4 0 0 0;
#X connect 4 0 8 0;
#X connect 6 0 18 0;
#X connect 7 0 16 0;
#X connect 8 0 5 0;
#X connect 9 0 8 0;
#X connect 10 0 11 0;
#X connect 12 0 22 0;
#X connect 13 0 4 0;
#X connect 14 0 15 0;
#X connect 15 0 21 0;
#X connect 15 1 20 0;
#X connect 16 0 3 0;
#X connect 16 1 9 0;
#X connect 16 2 4 2;
#X connect 16 3 14 0;
#X connect 17 0 11 0;
#X connect 18 0 19 0;
#X connect 19 0 2 0;
#X connect 20 0 11 0;
#X connect 21 0 11 0;
#X connect 22 0 1 0;
#X connect 22 0 17 0;
#X restore 114 419 pd module-scroll;
#X obj 114 459 list;
#X obj 114 479 list split;
#N canvas 222 147 699 441 get_selection 0;
#X obj 586 39 inlet;
#X obj 54 340 outlet;
#X obj 449 191 s 1-module-selector-r;
#X obj 449 211 s 2-module-selector-r;
#X obj 449 231 s 3-module-selector-r;
#X obj 449 251 s 4-module-selector-r;
#X obj 449 271 s 5-module-selector-r;
#X obj 449 291 s 6-module-selector-r;
#X obj 449 131 r mmm-font>;
#X obj 22 20 r 1-module-selector;
#X obj 162 20 r 2-module-selector;
#X obj 302 20 r 3-module-selector;
#X obj 442 20 r 4-module-selector;
#X obj 22 60 r 5-module-selector;
#X obj 162 60 r 6-module-selector;
#X msg 22 40 1;
#X msg 162 40 2;
#X msg 302 40 3;
#X msg 442 40 4;
#X msg 22 80 5;
#X msg 162 80 6;
#X obj 22 160 list;
#X obj 22 190 list split;
#X obj 54 210 list split 1;
#X obj 62 160 - 1;
#X obj 22 130 t b a a;
#X obj 83 250 list prepend;
#X obj 54 230 t a a;
#X msg 83 300 \; \$1-module-selector-r set 0 \, label \$2;
#N canvas 64 72 285 339 add 0;
#X obj 17 18 inlet;
#N canvas 0 22 533 407 drip 0;
#X obj 64 206 list split 1;
#X obj 64 123 until;
#X obj 64 181 list append;
#X obj 194 206 bang;
#X text 146 90 First store list \, then start the loop;
#X text 163 118 "until" bangs its output until told to stop by a "bang"
to its right inlet.;
#X text 182 160 Store the remaining list.;
#X text 239 205 third outlet of "split" tells us to stop.;
#X obj 64 243 outlet;
#X obj 64 57 inlet;
#X text 237 44 From list-help.pd;
#X obj 143 243 outlet;
#X obj 64 86 t b a;
#X connect 0 0 8 0;
#X connect 0 1 2 1;
#X connect 0 2 3 0;
#X connect 0 2 11 0;
#X connect 1 0 2 0;
#X connect 2 0 0 0;
#X connect 3 0 1 1;
#X connect 9 0 12 0;
#X connect 12 0 1 0;
#X connect 12 1 2 1;
#X restore 39 78 pd drip;
#X obj 17 48 t b a b;
#X obj 149 148 t b a;
#X obj 17 248 until;
#X msg 17 288 symbol empty;
#X obj 149 188 f;
#X obj 17 158 f;
#X obj 149 278 outlet;
#X obj 149 258 list append;
#X obj 149 228 t a a a;
#X obj 149 208 + 1;
#X msg 207 137 0;
#X obj 17 228 -;
#X obj 17 188 moses 8;
#X msg 17 208 8 \$1;
#X connect 0 0 2 0;
#X connect 1 0 3 0;
#X connect 2 0 7 0;
#X connect 2 1 1 0;
#X connect 2 2 12 0;
#X connect 3 0 6 0;
#X connect 3 1 9 1;
#X connect 4 0 5 0;
#X connect 5 0 3 0;
#X connect 6 0 11 0;
#X connect 7 0 14 0;
#X connect 9 0 8 0;
#X connect 10 0 9 0;
#X connect 10 1 7 1;
#X connect 10 2 6 1;
#X connect 11 0 10 0;
#X connect 12 0 6 1;
#X connect 13 0 4 0;
#X connect 14 0 15 0;
#X connect 15 0 13 0;
#X restore 185 250 pd add module-selector-no and emptys;
#X obj 130 133 t a a;
#X obj 449 311 s 7-module-selector-r;
#X obj 449 331 s 8-module-selector-r;
#X obj 302 60 r 7-module-selector;
#X msg 302 80 7;
#X obj 442 60 r 8-module-selector;
#X msg 442 80 8;
#X connect 0 0 30 0;
#X connect 8 0 2 0;
#X connect 8 0 3 0;
#X connect 8 0 4 0;
#X connect 8 0 5 0;
#X connect 8 0 6 0;
#X connect 8 0 7 0;
#X connect 8 0 31 0;
#X connect 8 0 32 0;
#X connect 9 0 15 0;
#X connect 10 0 16 0;
#X connect 11 0 17 0;
#X connect 12 0 18 0;
#X connect 13 0 19 0;
#X connect 14 0 20 0;
#X connect 15 0 25 0;
#X connect 16 0 25 0;
#X connect 17 0 25 0;
#X connect 18 0 25 0;
#X connect 19 0 25 0;
#X connect 20 0 25 0;
#X connect 21 0 22 0;
#X connect 22 1 23 0;
#X connect 23 0 27 0;
#X connect 24 0 22 1;
#X connect 25 0 21 0;
#X connect 25 1 24 0;
#X connect 25 2 26 1;
#X connect 26 0 28 0;
#X connect 27 0 1 0;
#X connect 27 1 26 0;
#X connect 29 0 28 0;
#X connect 30 0 21 1;
#X connect 30 1 29 0;
#X connect 33 0 34 0;
#X connect 34 0 25 0;
#X connect 35 0 36 0;
#X connect 36 0 25 0;
#X restore 146 539 pd get_selection;
#X obj 114 399 max 0;
#X obj 15 185 list;
#X obj 114 339 t a a;
#X obj 246 421 t a;
#X obj 114 439 t b a;
#X obj 114 359 mmm-length;
#X obj 146 499 list split 8;
#X obj 114 379 - 8;
#X obj 217 268 textfile;
#X obj 217 148 list prepend add;
#X obj 217 168 list trim;
#X obj 38 155 list append;
#X obj 131 155 t a;
#N canvas 45 22 351 299 scroll 0;
#X obj 14 107 list;
#X obj 14 127 list split;
#X obj 45 147 list split 1;
#X msg 95 177 label \$1;
#X obj 45 207 outlet;
#X obj 14 87 t b a;
#X obj 95 207 s categorie-selector-r;
#X obj 14 47 t a a;
#X obj 14 17 inlet cat-list;
#N canvas 293 22 443 381 cat 0;
#X obj 94 157 +;
#N canvas 0 22 454 304 slim200 0;
#X obj 62 45 inlet;
#X obj 87 206 outlet;
#X obj 62 78 t b a;
#X obj 87 171 spigot 1;
#X msg 130 111 0;
#X msg 62 135 1;
#X text 187 89 simple message speedlimit;
#X obj 62 111 delay 200;
#X connect 0 0 2 0;
#X connect 2 0 4 0;
#X connect 2 0 7 0;
#X connect 2 1 3 0;
#X connect 3 0 1 0;
#X connect 4 0 3 1;
#X connect 5 0 3 1;
#X connect 7 0 5 0;
#X restore 171 57 pd slim200;
#X msg 171 157 0;
#X obj 94 207 clip 0 0;
#X obj 288 280 outlet;
#X obj 171 17 r mmm;
#X obj 288 260 change -1;
#X obj 258 87 inlet set;
#X msg 288 240 set -1;
#X msg 23 261 set 0;
#X obj 94 177 int;
#X obj 302 169 - 1;
#X obj 258 107 t b b a;
#X obj 23 291 s categorie-selector-r;
#X obj 23 17 r categorie-selector;
#X obj 76 261 r mmm-font>;
#X obj 61 157 f 0;
#X obj 302 149 mmm-length;
#X obj 171 37 route reset_all;
#X connect 0 0 10 0;
#X connect 1 0 2 0;
#X connect 2 0 3 0;
#X connect 3 0 6 0;
#X connect 3 0 16 0;
#X connect 5 0 18 0;
#X connect 6 0 4 0;
#X connect 7 0 12 0;
#X connect 8 0 6 0;
#X connect 9 0 13 0;
#X connect 10 0 3 0;
#X connect 11 0 3 2;
#X connect 12 0 2 0;
#X connect 12 1 8 0;
#X connect 12 2 17 0;
#X connect 14 0 9 0;
#X connect 14 0 0 0;
#X connect 15 0 13 0;
#X connect 16 0 0 1;
#X connect 17 0 11 0;
#X connect 18 0 1 0;
#X restore 14 67 pd cat slider;
#X connect 0 0 1 0;
#X connect 1 1 2 0;
#X connect 2 0 4 0;
#X connect 2 0 3 0;
#X connect 3 0 6 0;
#X connect 5 0 0 0;
#X connect 5 1 1 1;
#X connect 7 0 9 0;
#X connect 7 1 0 1;
#X connect 8 0 7 0;
#X connect 9 0 5 0;
#X restore 15 205 pd scroll cats;
#X obj 38 135 list split 1;
#X obj 38 105 t a a;
#N canvas 0 22 199 218 sroute 0;
#X obj 129 21 inlet;
#X obj 20 51 list split 1;
#X obj 20 21 inlet;
#X obj 20 161 outlet;
#X obj 20 131 list;
#X obj 20 101 select empty;
#X connect 0 0 5 1;
#X connect 1 0 5 0;
#X connect 1 1 4 1;
#X connect 2 0 1 0;
#X connect 4 0 3 0;
#X connect 5 0 4 0;
#X restore 114 319 pd sroute;
#X obj 279 238 until;
#X msg 326 238 rewind;
#X obj 296 208 t b b;
#X obj 15 225 t b a;
#X msg 337 148 clear;
#X obj 132 85 t b b;
#X obj 15 85 t b a b;
#X obj 146 599 outlet;
#X obj 15 15 r mmm-select;
#X obj 15 45 route 0;
#N canvas 505 258 134 154 speedlimit 0;
#X obj 12 15 inlet;
#X obj 12 95 outlet;
#X obj 12 35 t b a;
#X obj 12 75 list;
#X obj 12 55 delay 300;
#X connect 0 0 2 0;
#X connect 2 0 4 0;
#X connect 2 1 3 1;
#X connect 3 0 1 0;
#X connect 4 0 3 0;
#X restore 146 569 pd speedlimit;
#X msg 272 15 version 0.3.2;
#X msg 181 237 print;
#X connect 0 0 8 0;
#X connect 1 0 2 0;
#X connect 2 1 10 0;
#X connect 3 0 31 0;
#X connect 4 0 0 0;
#X connect 5 0 17 0;
#X connect 6 0 9 0;
#X connect 6 1 7 0;
#X connect 7 0 1 1;
#X connect 8 0 1 0;
#X connect 8 1 2 1;
#X connect 9 0 11 0;
#X connect 10 0 3 0;
#X connect 10 2 3 0;
#X connect 11 0 4 0;
#X connect 12 0 20 0;
#X connect 12 1 21 1;
#X connect 13 0 14 0;
#X connect 14 0 12 0;
#X connect 15 0 16 0;
#X connect 15 0 5 1;
#X connect 16 0 15 1;
#X connect 17 0 24 0;
#X connect 18 0 15 0;
#X connect 19 0 18 0;
#X connect 19 1 13 0;
#X connect 20 0 6 0;
#X connect 21 0 12 0;
#X connect 22 0 12 0;
#X connect 23 0 21 0;
#X connect 23 1 22 0;
#X connect 24 0 23 0;
#X connect 24 1 20 1;
#X connect 25 0 12 0;
#X connect 26 0 16 0;
#X connect 26 1 25 0;
#X connect 27 0 5 0;
#X connect 27 1 19 0;
#X connect 29 0 30 0;
#X connect 30 0 26 0;
#X connect 30 1 27 0;
#X connect 31 0 28 0;
#X connect 33 0 12 0;
