#N canvas 503 190 699 411 10;
#X obj 11 356 outlet;
#X obj 65 336 list trim;
#X text 13 13 [mmm-controller-table \$1 <number> <name> <rangefrom>
<rangeto> <init> <type>];
#X obj 433 14 loadbang;
#X obj 433 74 s mmm-table-namereq;
#X obj 433 104 r mmm-table-names;
#X obj 505 124 r mmm-table-name-reset;
#X obj 433 144 list append;
#X obj 433 164 t a;
#X obj 433 34 t b b;
#X obj 463 54 s mmm-table-name-reset;
#X obj 569 201 s \$0-min;
#X msg 524 23 bang;
#N canvas 0 22 278 229 tablename 0;
#X obj 18 19 inlet;
#X obj 128 19 inlet;
#X obj 137 169 outlet;
#X obj 105 99 list;
#X obj 105 119 list split;
#X obj 137 139 list split 1;
#X obj 170 99 - 1;
#X obj 105 69 t b a;
#X obj 18 49 sel 0;
#X msg 18 79 symbol none;
#X connect 0 0 8 0;
#X connect 1 0 3 1;
#X connect 3 0 4 0;
#X connect 4 1 5 0;
#X connect 5 0 2 0;
#X connect 6 0 4 1;
#X connect 7 0 3 0;
#X connect 7 1 6 0;
#X connect 8 0 9 0;
#X connect 8 1 7 0;
#X connect 9 0 2 0;
#X restore 248 95 pd tablename;
#N canvas 0 22 270 221 tablename 0;
#X obj 18 19 inlet;
#X obj 128 19 inlet;
#X obj 137 169 outlet;
#X obj 105 99 list;
#X obj 105 119 list split;
#X obj 137 139 list split 1;
#X obj 170 99 - 1;
#X obj 105 69 t b a;
#X obj 18 49 sel 0;
#X msg 18 79 symbol none;
#X connect 0 0 8 0;
#X connect 1 0 3 1;
#X connect 3 0 4 0;
#X connect 4 1 5 0;
#X connect 5 0 2 0;
#X connect 6 0 4 1;
#X connect 7 0 3 0;
#X connect 7 1 6 0;
#X connect 8 0 9 0;
#X connect 8 1 7 0;
#X connect 9 0 2 0;
#X restore 11 200 pd tablename;
#X obj 184 283 s mmm-table-sizereq;
#X obj 184 313 r mmm-table-size;
#N canvas 0 22 288 258 sroute 0;
#X obj 148 99 inlet;
#X obj 90 54 list split 1;
#X obj 90 31 inlet;
#X obj 90 188 outlet;
#X obj 90 154 list;
#X obj 90 124 sel empty;
#X connect 0 0 5 1;
#X connect 1 0 5 0;
#X connect 1 1 4 1;
#X connect 2 0 1 0;
#X connect 4 0 3 0;
#X connect 5 0 4 0;
#X restore 184 333 pd sroute;
#X obj 184 353 outlet size;
#X obj 184 263 t a a;
#X obj 11 220 t a a;
#X obj 65 316 list prepend \$4;
#X obj 65 356 s \$1-\$2;
#X obj 11 52 inlet ctrl;
#N canvas 16 22 679 559 outputs 0;
#X obj 139 456 outlet;
#X obj 279 135 -;
#X obj 280 175 moses 1;
#X msg 280 195 0;
#X obj 161 176 spigot;
#X obj 198 426 s mmm-seq-slider;
#X obj 198 396 list prepend;
#N canvas 613 288 541 400 list-find-and-replace 0;
#N canvas 0 22 553 427 drip 0;
#X obj 64 206 list split 1;
#X obj 64 123 until;
#X obj 64 181 list append;
#X obj 194 206 bang;
#X obj 64 243 outlet;
#X obj 64 57 inlet;
#X obj 64 86 t b a;
#X connect 0 0 4 0;
#X connect 0 1 2 1;
#X connect 0 2 3 0;
#X connect 1 0 2 0;
#X connect 2 0 0 0;
#X connect 3 0 1 1;
#X connect 5 0 6 0;
#X connect 6 0 1 0;
#X connect 6 1 2 1;
#X restore 171 130 pd drip;
#X obj 26 24 inlet;
#X obj 250 230 t a;
#X obj 25 306 list;
#X obj 25 336 outlet;
#X msg 171 190 empty;
#X obj 171 260 list prepend;
#X obj 316 24 inlet;
#X obj 425 304 outlet;
#X obj 316 144 route 1 2;
#X obj 316 124 list trim;
#X obj 316 104 list prepend;
#X obj 425 54 t a b;
#X msg 455 74 2;
#X obj 26 54 list split 1;
#X obj 171 110 t a b;
#X obj 379 54 t a b;
#X msg 409 74 1;
#X msg 44 280 \$1:\$2;
#X obj 44 260 list prepend \$4;
#X obj 26 141 list prepend \$4;
#X obj 26 121 b;
#X obj 26 101 moses -0.5;
#X obj 171 170 moses -0.5;
#X connect 0 0 23 0;
#X connect 1 0 14 0;
#X connect 2 0 6 1;
#X connect 3 0 4 0;
#X connect 5 0 6 0;
#X connect 6 0 2 0;
#X connect 6 0 3 1;
#X connect 7 0 11 0;
#X connect 9 0 19 0;
#X connect 9 1 6 0;
#X connect 10 0 9 0;
#X connect 11 0 10 0;
#X connect 12 0 8 0;
#X connect 12 1 13 0;
#X connect 13 0 11 1;
#X connect 14 0 22 0;
#X connect 14 1 15 0;
#X connect 15 0 0 0;
#X connect 15 1 6 1;
#X connect 15 1 3 1;
#X connect 16 0 8 0;
#X connect 16 1 17 0;
#X connect 17 0 11 1;
#X connect 18 0 3 0;
#X connect 19 0 18 0;
#X connect 20 0 3 0;
#X connect 21 0 20 0;
#X connect 22 0 21 0;
#X connect 22 1 16 0;
#X connect 23 0 5 0;
#X connect 23 1 12 0;
#X restore 168 366 pd list-find-and-replace;
#X obj 279 155 t a a;
#X obj 324 195 moses 9;
#X obj 15 457 outlet;
#X obj 161 156 list;
#X obj 131 26 inlet;
#X obj 373 346 list prepend output;
#X obj 373 366 outlet;
#X obj 373 386 inlet;
#X obj 279 35 route display;
#X obj 279 15 r \$1-\$2-admin;
#X obj 279 115 list prepend \$3;
#X obj 280 215 f;
#X obj 279 55 list split 1;
#X obj 198 129 t b a;
#X obj 304 276 list split 16;
#X obj 200 236 list split 0;
#X obj 415 187 * 16;
#X obj 239 256 route bang;
#X msg 239 316 \$1 \$1 \$1 \$1 \$1 \$1 \$1 \$1 \$1 \$1 \$1 \$1 \$1
\$1 \$1 \$1;
#X obj 161 216 list split 1;
#X obj 167 336 list append;
#X obj 213 176 >= 0;
#X obj 161 196 spigot;
#X obj 279 95 t a a;
#X obj 131 116 t a b a;
#N canvas 417 342 660 457 run 0;
#X obj 255 57 inlet sequence;
#X obj 14 177 list;
#X obj 14 124 t b f;
#X obj 14 197 list split;
#X obj 46 217 list split 1;
#X obj 14 64 sel 0;
#X obj 14 84 t b b;
#X obj 14 104 f 0;
#X obj 95 47 r \$1-mmm-pattern;
#X obj 162 376 outlet;
#X obj 372 364 outlet;
#X obj 255 94 list split 1;
#X obj 95 67 * 16;
#X obj 95 87 - 16;
#X obj 79 177 +;
#X obj 46 237 route bang;
#X msg 321 297 0;
#X obj 162 337 +;
#X obj 381 17 loadbang;
#X obj 381 37 t b b;
#X obj 224 236 spigot;
#X obj 177 98 == 1;
#X obj 140 118 spigot;
#X obj 14 17 r \$1-\$2-\$3-mmm-steps;
#X text 149 76 eigentlich sollte es nur auf pos 0 kommen;
#X msg 448 19 bang;
#X obj 381 298 -;
#X obj 258 179 t a a;
#X obj 381 197 t b b a;
#X obj 258 159 change 0;
#X obj 381 117 f 0;
#X obj 460 185 f 0;
#X obj 321 247 f 0;
#X obj 111 287 moses 0;
#X obj 162 357 clip 0 0;
#X obj 460 205 >= 0;
#X obj 321 277 moses 0;
#X connect 0 0 11 0;
#X connect 1 0 3 0;
#X connect 2 0 1 0;
#X connect 2 1 14 0;
#X connect 3 1 4 0;
#X connect 4 0 15 0;
#X connect 5 0 6 0;
#X connect 5 1 2 0;
#X connect 6 0 7 0;
#X connect 6 1 22 0;
#X connect 7 0 2 0;
#X connect 8 0 12 0;
#X connect 8 0 21 0;
#X connect 11 0 29 0;
#X connect 11 1 1 1;
#X connect 12 0 13 0;
#X connect 13 0 14 1;
#X connect 14 0 3 1;
#X connect 15 1 33 0;
#X connect 16 0 17 1;
#X connect 17 0 34 0;
#X connect 18 0 19 0;
#X connect 19 0 30 0;
#X connect 19 1 31 0;
#X connect 20 0 34 0;
#X connect 21 0 22 1;
#X connect 22 0 32 0;
#X connect 23 0 5 0;
#X connect 25 0 19 0;
#X connect 26 0 17 1;
#X connect 27 0 20 0;
#X connect 27 1 32 0;
#X connect 28 0 29 0;
#X connect 28 1 32 0;
#X connect 28 2 26 1;
#X connect 29 0 27 0;
#X connect 30 0 28 0;
#X connect 31 0 35 0;
#X connect 32 0 36 0;
#X connect 33 1 17 0;
#X connect 34 0 9 0;
#X connect 35 0 20 1;
#X connect 36 0 16 0;
#X connect 36 1 10 0;
#X connect 36 1 26 0;
#X restore 15 247 pd run with me;
#X obj 279 75 - 1;
#X obj 415 167 - 1;
#X obj 239 276 f -1;
#X connect 1 0 8 0;
#X connect 2 0 3 0;
#X connect 2 1 9 0;
#X connect 3 0 19 0;
#X connect 4 0 30 0;
#X connect 6 0 5 0;
#X connect 7 0 6 0;
#X connect 7 1 13 0;
#X connect 8 0 2 0;
#X connect 8 1 6 1;
#X connect 9 0 19 0;
#X connect 9 1 3 0;
#X connect 11 0 4 0;
#X connect 12 0 32 0;
#X connect 13 0 14 0;
#X connect 15 0 7 1;
#X connect 16 0 20 0;
#X connect 17 0 16 0;
#X connect 18 0 1 0;
#X connect 19 0 21 0;
#X connect 20 0 34 0;
#X connect 20 1 35 0;
#X connect 21 0 11 0;
#X connect 21 1 4 1;
#X connect 22 0 28 1;
#X connect 23 1 25 0;
#X connect 24 0 23 1;
#X connect 25 0 36 0;
#X connect 25 1 22 0;
#X connect 26 0 28 1;
#X connect 27 0 28 0;
#X connect 27 1 23 0;
#X connect 28 0 7 0;
#X connect 29 0 30 1;
#X connect 30 0 27 0;
#X connect 31 0 18 0;
#X connect 31 1 29 0;
#X connect 32 0 33 0;
#X connect 32 1 11 0;
#X connect 32 2 11 1;
#X connect 33 0 10 0;
#X connect 33 1 0 0;
#X connect 34 0 31 0;
#X connect 35 0 24 0;
#X connect 36 0 26 0;
#X restore 11 165 pd outputs;
#N canvas 452 272 805 576 inputs 0;
#X obj 56 269 list split 1;
#X obj 56 299 +;
#X obj 14 399 list append;
#X obj 14 209 list append;
#X obj 14 379 list;
#X obj 204 304 t a a;
#X obj 14 159 unpack f f;
#X obj 14 109 route seqadd ctrladd;
#X obj 204 324 outlet;
#X obj 274 19 inlet;
#X obj 304 89 list split 1;
#X obj 274 49 t a b;
#X obj 274 119 list append;
#X obj 304 69 list;
#X obj 411 472 s mmm-seq-slider-preview;
#X obj 505 172 list prepend input;
#X obj 411 452 list trim;
#X obj 14 179 t b a a;
#X obj 411 302 list prepend;
#X obj 505 192 outlet;
#X obj 505 212 inlet;
#X obj 411 322 route 0;
#X msg 483 402 0 \$1:\$2;
#X msg 375 116 0;
#N canvas 304 564 221 218 speedlimit 0;
#X obj 20 24 inlet;
#X obj 20 114 outlet;
#X obj 20 44 t b a;
#X obj 20 84 list;
#X obj 20 64 del 10;
#X connect 0 0 2 0;
#X connect 2 0 4 0;
#X connect 2 1 3 1;
#X connect 3 0 1 0;
#X connect 4 0 3 0;
#X restore 14 419 pd speedlimit;
#X msg 91 139 0 \$1;
#X msg 440 152 empty;
#X obj 411 342 route empty;
#X obj 14 19 r \$1-\$2-admin;
#X obj 411 362 list append 0 \$4;
#X obj 483 382 list prepend \$4;
#X obj 411 432 list prepend \$3;
#X obj 204 284 mmm-a \$1-\$2 \$4 empty;
#N canvas 91 41 440 451 append-pattern 0;
#X obj 244 20 inlet;
#X obj 109 391 outlet;
#X obj 254 50 mmm-length;
#X obj 17 50 route display;
#X obj 17 20 r \$1-\$2-admin;
#X obj 254 90 div 16;
#X obj 109 361 list prepend;
#X obj 254 70 - 1;
#X obj 17 150 - 1;
#X obj 17 190 moses 1;
#X obj 90 230 * 16;
#X obj 90 250 until;
#X obj 161 270 t a;
#X obj 89 290 list append;
#X obj 60 320 list append;
#X msg 17 110 \$2;
#X obj 264 180 s \$1-\$2-admin;
#X msg 254 160 patterncount \$1;
#X obj 254 120 list prepend \$3;
#X obj 254 140 route 1;
#X obj 60 210 t b a;
#X obj 17 80 t a b;
#X obj 254 200 s \$1-admin;
#X obj 90 270 f -1;
#X connect 0 0 2 0;
#X connect 0 0 6 1;
#X connect 2 0 7 0;
#X connect 3 0 21 0;
#X connect 4 0 3 0;
#X connect 5 0 8 1;
#X connect 5 0 18 0;
#X connect 6 0 1 0;
#X connect 7 0 5 0;
#X connect 8 0 9 0;
#X connect 9 1 20 0;
#X connect 10 0 11 0;
#X connect 11 0 23 0;
#X connect 12 0 13 1;
#X connect 13 0 12 0;
#X connect 13 0 14 1;
#X connect 14 0 6 0;
#X connect 15 0 8 0;
#X connect 17 0 16 0;
#X connect 17 0 22 0;
#X connect 18 0 19 0;
#X connect 19 0 17 0;
#X connect 20 0 14 0;
#X connect 20 1 10 0;
#X connect 21 0 15 0;
#X connect 21 1 12 0;
#X connect 23 0 13 0;
#X restore 260 304 pd append-pattern;
#X obj 597 322 list prepend \$3;
#X obj 597 392 -;
#N canvas 0 22 420 251 init 0;
#X obj 21 161 outlet;
#X obj 21 121 list prepend set;
#X obj 21 141 list trim;
#X obj 21 61 - 1;
#X obj 21 21 loadbang;
#X msg 21 101 \$1 \$2 \$2 \$2 \$2 \$2 \$2 \$2 \$2 \$2 \$2 \$2 \$2 \$2
\$2 \$2 \$2;
#X obj 21 41 f \$5;
#X obj 21 81 list prepend \$7;
#X connect 1 0 2 0;
#X connect 2 0 0 0;
#X connect 3 0 7 0;
#X connect 4 0 6 0;
#X connect 5 0 1 0;
#X connect 6 0 3 0;
#X connect 7 0 5 0;
#X restore 181 245 pd init;
#X msg 174 117 \$2;
#X obj 174 89 route display;
#X obj 14 49 route \$3;
#X obj 174 159 * 16;
#X obj 14 249 list split;
#X obj 79 229 + 0;
#X obj 91 159 unpack f f;
#X obj 91 179 t b a a;
#X msg 597 282 \$1;
#X obj 597 302 - 1;
#X obj 173 137 - 1;
#X obj 447 122 moses -0.5;
#X obj 56 353 clip -1 0;
#X obj 113 296 r \$0-min;
#X connect 0 0 1 0;
#X connect 0 1 2 1;
#X connect 1 0 49 0;
#X connect 2 0 24 0;
#X connect 2 0 3 1;
#X connect 3 0 41 0;
#X connect 4 0 2 0;
#X connect 5 0 8 0;
#X connect 5 1 3 1;
#X connect 5 1 13 1;
#X connect 5 1 33 0;
#X connect 6 0 17 0;
#X connect 6 1 1 1;
#X connect 7 0 6 0;
#X connect 7 1 25 0;
#X connect 9 0 11 0;
#X connect 10 1 12 1;
#X connect 10 1 23 0;
#X connect 11 0 12 0;
#X connect 11 1 13 0;
#X connect 12 0 13 1;
#X connect 12 0 32 0;
#X connect 12 0 48 0;
#X connect 13 0 10 0;
#X connect 15 0 19 0;
#X connect 16 0 14 0;
#X connect 17 0 3 0;
#X connect 17 1 42 0;
#X connect 17 2 18 1;
#X connect 18 0 21 0;
#X connect 20 0 18 0;
#X connect 21 0 27 0;
#X connect 21 1 31 0;
#X connect 22 0 31 0;
#X connect 23 0 18 1;
#X connect 24 0 32 0;
#X connect 25 0 43 0;
#X connect 26 0 18 0;
#X connect 27 0 29 0;
#X connect 27 1 30 0;
#X connect 28 0 39 0;
#X connect 29 0 31 0;
#X connect 30 0 22 0;
#X connect 31 0 16 0;
#X connect 32 0 5 0;
#X connect 33 0 32 0;
#X connect 34 0 35 0;
#X connect 35 0 31 1;
#X connect 36 0 32 0;
#X connect 37 0 47 0;
#X connect 38 0 37 0;
#X connect 38 0 45 0;
#X connect 39 0 7 0;
#X connect 39 1 38 0;
#X connect 40 0 42 1;
#X connect 41 0 4 0;
#X connect 41 1 0 0;
#X connect 42 0 41 1;
#X connect 43 0 44 0;
#X connect 43 1 1 1;
#X connect 44 0 3 0;
#X connect 44 1 41 1;
#X connect 44 2 18 1;
#X connect 45 0 46 0;
#X connect 46 0 34 0;
#X connect 47 0 40 0;
#X connect 48 0 26 0;
#X connect 48 1 15 0;
#X connect 49 0 4 1;
#X connect 49 0 48 0;
#X connect 50 0 49 2;
#X restore 11 145 pd inputs;
#X obj 129 82 list split 1;
#X obj 129 102 list append;
#X obj 129 122 list trim;
#X obj 129 142 route input output;
#X msg 100 52 version 0.3.15;
#X obj 569 181 mmm-length;
#X connect 1 0 22 0;
#X connect 3 0 9 0;
#X connect 5 0 7 0;
#X connect 6 0 7 1;
#X connect 7 0 8 0;
#X connect 7 0 13 1;
#X connect 7 0 14 1;
#X connect 7 0 31 0;
#X connect 8 0 7 1;
#X connect 9 0 4 0;
#X connect 9 1 10 0;
#X connect 12 0 9 0;
#X connect 13 0 27 1;
#X connect 14 0 20 0;
#X connect 16 0 17 0;
#X connect 17 0 18 0;
#X connect 19 0 15 0;
#X connect 19 1 17 1;
#X connect 20 0 0 0;
#X connect 20 0 21 0;
#X connect 20 1 19 0;
#X connect 21 0 1 0;
#X connect 23 0 25 0;
#X connect 24 0 14 0;
#X connect 24 1 14 0;
#X connect 24 2 26 0;
#X connect 25 0 24 0;
#X connect 25 1 26 0;
#X connect 26 0 27 0;
#X connect 26 1 13 0;
#X connect 27 0 28 0;
#X connect 28 0 29 0;
#X connect 29 0 25 1;
#X connect 29 1 24 1;
#X connect 31 0 11 0;
