#N canvas 451 35 261 343 10;
#X obj 50 18 inlet;
#X obj 100 266 outlet;
#X msg 99 91 clear \, \$1;
#X msg 157 236 0;
#X obj 100 236 spigot 1;
#X obj 50 48 t a a;
#X obj 99 151 t b a b;
#X msg 145 206 1;
#X msg 61 227 bang;
#X msg 17 182 bang \, clear;
#X obj 17 160 del \$1;
#X obj 98 120 pipe \$1;
#X msg 123 18 version 0.4.2;
#X connect 0 0 5 0;
#X connect 2 0 11 0;
#X connect 3 0 4 1;
#X connect 4 0 3 0;
#X connect 4 0 8 0;
#X connect 4 0 1 0;
#X connect 5 0 2 0;
#X connect 5 1 4 0;
#X connect 6 0 7 0;
#X connect 6 1 4 0;
#X connect 6 2 7 0;
#X connect 7 0 4 1;
#X connect 8 0 10 0;
#X connect 9 0 11 0;
#X connect 10 0 9 0;
#X connect 11 0 6 0;
