#N canvas 0 22 919 491 10;
#X obj 557 282 r data.dump;
#X obj 715 252 r data.getpreset;
#X obj 715 352 s data.preset;
#X obj 557 422 s netpd-send;
#X obj 557 302 route \$1;
#X obj 557 322 t b f;
#X obj 557 382 list prepend;
#X obj 715 272 sel \$1;
#X obj 557 362 list prepend \$1 \$2;
#X obj 715 312 list prepend \$1 \$2;
#N canvas 26 22 280 261 _______delay 0;
#X obj 19 21 inlet;
#X obj 19 141 outlet;
#X obj 106 21 inlet;
#X obj 99 111 del 50;
#X obj 56 91 == 0;
#X obj 19 111 spigot;
#X obj 99 91 spigot;
#X obj 136 71 != 0;
#X obj 106 41 f \$5;
#X connect 0 0 5 0;
#X connect 0 0 6 0;
#X connect 2 0 8 0;
#X connect 3 0 1 0;
#X connect 4 0 5 1;
#X connect 5 0 1 0;
#X connect 6 0 3 0;
#X connect 7 0 6 1;
#X connect 8 0 7 0;
#X connect 8 0 3 1;
#X connect 8 0 4 0;
#X restore 49 293 pd _______delay;
#X msg 87 313 set \$1;
#X obj 557 402 list trim;
#X obj 715 332 list trim;
#X obj 149 112 spigot 1;
#X msg 212 112 0;
#X text 232 92 INIT;
#X text 835 252 PRESET;
#X text 641 282 DUMP;
#X msg 304 330 0;
#X msg 336 330 1;
#X msg 253 330 set \$1;
#X obj 408 81 r netpd-receive;
#X obj 49 393 s netpd-broadcast;
#X obj 476 237 outlet;
#X text 51 87 LOCAL;
#X obj 408 121 route \$2 \$2-nogui;
#X obj 177 188 s netpd-receive;
#X obj 49 133 t a b;
#X obj 49 373 list trim;
#X obj 177 168 list trim;
#X obj 253 350 spigot 1;
#X obj 336 310 del 1000;
#X obj 476 177 t a a;
#X obj 253 310 list;
#X obj 49 353 list prepend \$1 \$2;
#X obj 408 101 route \$1;
#X text 521 81 RECEIVE;
#X obj 49 313 f;
#X obj 49 273 t b f;
#X obj 476 217 f;
#X text 15 12 [mmm-f <parent> <name> <obj> <init> (<del>)];
#X obj 49 103 r \$3;
#X obj 253 370 s \$3-r;
#X obj 49 333 change \$4;
#X obj 557 342 f \$4;
#X obj 177 148 list prepend \$1 \$2 \$4;
#X obj 715 292 f \$4;
#X obj 149 92 loadbang;
#X msg 18 32 version 0.1.4;
#X connect 0 0 4 0;
#X connect 1 0 7 0;
#X connect 4 0 5 0;
#X connect 5 0 45 0;
#X connect 5 1 6 1;
#X connect 6 0 12 0;
#X connect 7 0 47 0;
#X connect 8 0 6 0;
#X connect 9 0 13 0;
#X connect 10 0 38 0;
#X connect 11 0 44 0;
#X connect 12 0 3 0;
#X connect 13 0 2 0;
#X connect 14 0 15 0;
#X connect 14 0 10 1;
#X connect 14 0 46 0;
#X connect 15 0 14 1;
#X connect 19 0 31 1;
#X connect 20 0 31 1;
#X connect 21 0 31 0;
#X connect 22 0 36 0;
#X connect 26 0 33 0;
#X connect 26 0 34 0;
#X connect 26 0 11 0;
#X connect 26 1 33 0;
#X connect 28 0 39 0;
#X connect 28 1 19 0;
#X connect 28 1 32 0;
#X connect 29 0 23 0;
#X connect 30 0 27 0;
#X connect 31 0 43 0;
#X connect 32 0 20 0;
#X connect 33 0 40 0;
#X connect 33 1 11 0;
#X connect 33 1 45 1;
#X connect 33 1 47 1;
#X connect 34 0 21 0;
#X connect 35 0 29 0;
#X connect 36 0 26 0;
#X connect 38 0 44 0;
#X connect 39 0 10 0;
#X connect 39 1 38 1;
#X connect 40 0 24 0;
#X connect 42 0 28 0;
#X connect 44 0 35 0;
#X connect 45 0 8 0;
#X connect 46 0 30 0;
#X connect 47 0 9 0;
#X connect 48 0 14 0;
