#N canvas 78 168 1015 623 10;
#X msg 82 157 1 \$1;
#X msg 122 177 2 \$1;
#X msg 162 197 3 \$1;
#X msg 202 217 4 \$1;
#X msg 242 237 5 \$1;
#X msg 282 257 6 \$1;
#X msg 322 277 7 \$1;
#X msg 362 297 8 \$1;
#X msg 402 317 9 \$1;
#X msg 442 337 10 \$1;
#X msg 492 357 11 \$1;
#X msg 542 377 12 \$1;
#X msg 592 397 13 \$1;
#X msg 642 417 14 \$1;
#X msg 692 437 15 \$1;
#X msg 742 457 16 \$1;
#X obj 32 370 t a;
#X obj 209 17 r mmm-seq-slider;
#X obj 209 37 route \$1;
#X obj 209 57 list split 1;
#X obj 248 77 list split 1;
#X obj 287 97 list split 1;
#X obj 326 117 list split 1;
#X obj 365 137 list split 1;
#X obj 404 157 list split 1;
#X obj 443 177 list split 1;
#X obj 482 197 list split 1;
#X obj 521 217 list split 1;
#X obj 560 237 list split 1;
#X obj 599 257 list split 1;
#X obj 638 277 list split 1;
#X obj 677 297 list split 1;
#X obj 716 317 list split 1;
#X obj 755 337 list split 1;
#X obj 794 357 list split 1;
#X obj 905 397 loadbang;
#X msg 905 417 set %d;
#X obj 833 377 list split 1;
#X obj 16 37 route \$1;
#X obj 16 17 r mmm-ctrl-slider;
#X obj 445 57 route 0 1 2 3 4 5 6 7 8 9 10 11 12 13 14 15 16;
#X obj 445 17 r mmm-seq-slider-preview;
#X obj 445 37 route \$1;
#X obj 82 137 mmm-slider \$1-1-seq 15;
#X obj 16 87 mmm-slider \$1-controller;
#X obj 122 157 mmm-slider \$1-2-seq 30;
#X obj 162 177 mmm-slider \$1-3-seq 45;
#X obj 202 197 mmm-slider \$1-4-seq 60;
#X obj 242 217 mmm-slider \$1-5-seq 75;
#X obj 282 237 mmm-slider \$1-6-seq 90;
#X obj 322 257 mmm-slider \$1-7-seq 105;
#X obj 362 277 mmm-slider \$1-8-seq 120;
#X obj 402 297 mmm-slider \$1-9-seq 135;
#X obj 442 317 mmm-slider \$1-10-seq 150;
#X obj 492 337 mmm-slider \$1-11-seq 165;
#X obj 542 357 mmm-slider \$1-12-seq 180;
#X obj 592 377 mmm-slider \$1-13-seq 195;
#X obj 642 397 mmm-slider \$1-14-seq 210;
#X obj 692 417 mmm-slider \$1-15-seq 225;
#X obj 742 437 mmm-slider \$1-16-seq 240;
#X obj 32 390 list prepend seqadd;
#X obj 16 107 list prepend ctrladd;
#X obj 116 440 value mmm-ctrl-scroll;
#X obj 16 510 list prepend \$1;
#X obj 116 460 + \$1;
#X obj 16 410 t a b;
#X obj 116 480 - 1;
#X msg 334 17 version 0.3.7;
#X obj 16 553 outlet;
#X connect 0 0 16 0;
#X connect 1 0 16 0;
#X connect 2 0 16 0;
#X connect 3 0 16 0;
#X connect 4 0 16 0;
#X connect 5 0 16 0;
#X connect 6 0 16 0;
#X connect 7 0 16 0;
#X connect 8 0 16 0;
#X connect 9 0 16 0;
#X connect 10 0 16 0;
#X connect 11 0 16 0;
#X connect 12 0 16 0;
#X connect 13 0 16 0;
#X connect 14 0 16 0;
#X connect 15 0 16 0;
#X connect 16 0 60 0;
#X connect 17 0 18 0;
#X connect 18 0 19 0;
#X connect 19 0 44 0;
#X connect 19 1 20 0;
#X connect 20 0 43 0;
#X connect 20 1 21 0;
#X connect 21 0 45 0;
#X connect 21 1 22 0;
#X connect 22 0 46 0;
#X connect 22 1 23 0;
#X connect 23 0 47 0;
#X connect 23 1 24 0;
#X connect 24 0 48 0;
#X connect 24 1 25 0;
#X connect 25 0 49 0;
#X connect 25 1 26 0;
#X connect 26 0 50 0;
#X connect 26 1 27 0;
#X connect 27 0 51 0;
#X connect 27 1 28 0;
#X connect 28 0 52 0;
#X connect 28 1 29 0;
#X connect 29 0 53 0;
#X connect 29 1 30 0;
#X connect 30 0 54 0;
#X connect 30 1 31 0;
#X connect 31 0 55 0;
#X connect 31 1 32 0;
#X connect 32 0 56 0;
#X connect 32 1 33 0;
#X connect 33 0 57 0;
#X connect 33 1 34 0;
#X connect 34 0 58 0;
#X connect 34 1 37 0;
#X connect 35 0 36 0;
#X connect 36 0 43 1;
#X connect 36 0 45 1;
#X connect 36 0 46 1;
#X connect 36 0 47 1;
#X connect 36 0 48 1;
#X connect 36 0 49 1;
#X connect 36 0 50 1;
#X connect 36 0 51 1;
#X connect 36 0 52 1;
#X connect 36 0 53 1;
#X connect 36 0 54 1;
#X connect 36 0 55 1;
#X connect 36 0 56 1;
#X connect 36 0 57 1;
#X connect 36 0 58 1;
#X connect 36 0 59 1;
#X connect 37 0 59 0;
#X connect 38 0 44 0;
#X connect 39 0 38 0;
#X connect 40 0 44 1;
#X connect 40 1 43 1;
#X connect 40 2 45 1;
#X connect 40 3 46 1;
#X connect 40 4 47 1;
#X connect 40 5 48 1;
#X connect 40 6 49 1;
#X connect 40 7 50 1;
#X connect 40 8 51 1;
#X connect 40 9 52 1;
#X connect 40 10 53 1;
#X connect 40 11 54 1;
#X connect 40 12 55 1;
#X connect 40 13 56 1;
#X connect 40 14 57 1;
#X connect 40 15 58 1;
#X connect 40 16 59 1;
#X connect 41 0 42 0;
#X connect 42 0 40 0;
#X connect 43 0 0 0;
#X connect 44 0 61 0;
#X connect 45 0 1 0;
#X connect 46 0 2 0;
#X connect 47 0 3 0;
#X connect 48 0 4 0;
#X connect 49 0 5 0;
#X connect 50 0 6 0;
#X connect 51 0 7 0;
#X connect 52 0 8 0;
#X connect 53 0 9 0;
#X connect 54 0 10 0;
#X connect 55 0 11 0;
#X connect 56 0 12 0;
#X connect 57 0 13 0;
#X connect 58 0 14 0;
#X connect 59 0 15 0;
#X connect 60 0 65 0;
#X connect 61 0 65 0;
#X connect 62 0 64 0;
#X connect 63 0 68 0;
#X connect 64 0 66 0;
#X connect 65 0 63 0;
#X connect 65 1 62 0;
#X connect 66 0 63 1;
