#N canvas 293 215 625 569 10;
#X obj 33 64 r mmm;
#X obj 33 87 route module;
#X obj 33 109 route activate;
#X obj 33 130 unpack f f;
#X text 257 32 tastatursteuerungscode \, soll auf dem channelraster
navigieren koennen;
#N canvas 0 0 450 300 richtung 0;
#X obj 142 47 keyname;
#X obj 148 97 symbol;
#X obj 142 71 sel 1;
#X msg 148 146 0 -1;
#X msg 184 147 -1 0;
#X msg 220 146 0 1;
#X msg 256 146 1 0;
#X obj 148 203 outlet;
#X obj 148 118 select Up Left Down Right;
#X connect 0 0 2 0;
#X connect 0 1 1 1;
#X connect 1 0 8 0;
#X connect 2 0 1 0;
#X connect 3 0 7 0;
#X connect 4 0 7 0;
#X connect 5 0 7 0;
#X connect 6 0 7 0;
#X connect 8 0 3 0;
#X connect 8 1 4 0;
#X connect 8 2 5 0;
#X connect 8 3 6 0;
#X restore 131 155 pd richtung;
#X obj 131 177 unpack;
#X obj 100 208 +;
#X obj 88 155 t b f;
#X msg 88 177 0;
#X obj 45 207 +;
#X obj 33 154 t b f;
#X msg 33 176 0;
#X obj 130 208 f;
#X obj 71 207 f;
#X obj 100 232 clip 1 8;
#X obj 45 232 clip 1 8;
#X obj 45 256 pack f f;
#X obj 45 316 unpack f f;
#X obj 100 336 makefilename %%d-%d-module-r;
#X msg 100 356 set \$1;
#X obj 45 376 makefilename;
#X obj 70 400 symbol;
#X obj 45 295 t a b;
#X msg 70 476 \; \$1 color 0 0 22;
#X msg 45 500 \; \$1 color 4 4 22;
#N canvas 380 155 450 399 dont 0;
#X obj 196 56 r mmm;
#X obj 196 79 route module;
#X obj 196 101 route activate;
#X obj 196 125 unpack f f;
#X obj 251 145 makefilename %%d-%d-module-r;
#X msg 251 165 set \$1;
#X obj 196 185 makefilename;
#X obj 40 55 inlet;
#X obj 40 87 t a a;
#X obj 65 215 select symbol;
#X msg 65 244 0;
#X msg 138 243 1;
#X obj 40 274 spigot;
#X obj 40 304 outlet;
#X connect 0 0 1 0;
#X connect 1 0 2 0;
#X connect 2 0 3 0;
#X connect 3 0 6 0;
#X connect 3 1 4 0;
#X connect 4 0 5 0;
#X connect 5 0 6 0;
#X connect 6 0 9 1;
#X connect 7 0 8 0;
#X connect 8 0 12 0;
#X connect 8 1 9 0;
#X connect 9 0 10 0;
#X connect 9 1 11 0;
#X connect 10 0 12 1;
#X connect 11 0 12 1;
#X connect 12 0 13 0;
#X restore 70 423 pd dont touch the active one;
#N canvas 380 155 450 399 dont 0;
#X obj 196 56 r mmm;
#X obj 196 79 route module;
#X obj 196 101 route activate;
#X obj 196 125 unpack f f;
#X obj 251 145 makefilename %%d-%d-module-r;
#X msg 251 165 set \$1;
#X obj 196 185 makefilename;
#X obj 40 55 inlet;
#X obj 40 87 t a a;
#X obj 65 215 select symbol;
#X msg 65 244 0;
#X msg 138 243 1;
#X obj 40 274 spigot;
#X obj 40 304 outlet;
#X connect 0 0 1 0;
#X connect 1 0 2 0;
#X connect 2 0 3 0;
#X connect 3 0 6 0;
#X connect 3 1 4 0;
#X connect 4 0 5 0;
#X connect 5 0 6 0;
#X connect 6 0 9 1;
#X connect 7 0 8 0;
#X connect 8 0 12 0;
#X connect 8 1 9 0;
#X connect 9 0 10 0;
#X connect 9 1 11 0;
#X connect 10 0 12 1;
#X connect 11 0 12 1;
#X connect 12 0 13 0;
#X restore 45 446 pd dont touch the active one;
#X obj 234 241 key;
#X obj 234 263 select 32;
#N canvas 0 0 450 418 aktivieren 0;
#X obj 155 119 inlet trigger;
#X obj 78 97 inlet auswahl;
#X obj 276 104 r mmm;
#X obj 276 127 route module;
#X obj 276 149 route activate;
#X obj 276 170 unpack f f;
#X obj 155 148 t b b;
#X obj 78 192 unpack f f;
#X obj 155 347 s mmm;
#X msg 155 303 module activate \$1 \$2;
#X obj 155 277 pack f f;
#X obj 155 255 f;
#X obj 180 205 f;
#X obj 180 232 pack f f;
#X msg 180 324 module deactivate \$1 \$2;
#X connect 0 0 6 0;
#X connect 1 0 7 0;
#X connect 2 0 3 0;
#X connect 3 0 4 0;
#X connect 4 0 5 0;
#X connect 5 0 12 1;
#X connect 5 1 13 1;
#X connect 6 0 11 0;
#X connect 6 1 12 0;
#X connect 7 0 11 1;
#X connect 7 1 10 1;
#X connect 9 0 8 0;
#X connect 10 0 9 0;
#X connect 11 0 10 0;
#X connect 12 0 13 0;
#X connect 13 0 14 0;
#X connect 14 0 8 0;
#X restore 161 288 pd aktivieren;
#X text 297 260 leertaste;
#X msg 456 68 version 0.0.3;
#X connect 0 0 1 0;
#X connect 1 0 2 0;
#X connect 2 0 3 0;
#X connect 3 0 11 0;
#X connect 3 1 8 0;
#X connect 5 0 6 0;
#X connect 6 0 10 0;
#X connect 6 1 7 0;
#X connect 7 0 15 0;
#X connect 8 0 9 0;
#X connect 8 1 7 1;
#X connect 9 0 7 0;
#X connect 10 0 16 0;
#X connect 11 0 12 0;
#X connect 11 1 10 1;
#X connect 12 0 10 0;
#X connect 13 0 7 1;
#X connect 14 0 10 1;
#X connect 15 0 17 1;
#X connect 15 0 13 0;
#X connect 16 0 17 0;
#X connect 16 0 14 0;
#X connect 17 0 23 0;
#X connect 17 0 30 0;
#X connect 18 0 21 0;
#X connect 18 1 19 0;
#X connect 19 0 20 0;
#X connect 20 0 21 0;
#X connect 21 0 22 1;
#X connect 21 0 27 0;
#X connect 22 0 26 0;
#X connect 23 0 18 0;
#X connect 23 1 22 0;
#X connect 26 0 24 0;
#X connect 27 0 25 0;
#X connect 28 0 29 0;
#X connect 29 0 30 1;
