#N canvas 137 243 499 328 10;
#N canvas 604 86 265 220 view_source 0;
#X obj 16 39 t b b;
#X obj 16 109 pack f f;
#X obj 16 69 value mmm-active-row;
#X obj 66 89 value mmm-active-col;
#X obj 16 19 inlet;
#X msg 16 129 \; \$1-\$2-mmm-module findparent;
#X connect 0 0 2 0;
#X connect 0 1 3 0;
#X connect 1 0 5 0;
#X connect 2 0 1 0;
#X connect 3 0 1 1;
#X connect 4 0 0 0;
#X restore 236 240 pd view_source;
#X obj 93 150 inlet;
#X obj 93 170 spigot;
#X obj 230 100 r mmm-select;
#X msg 230 140 0;
#X obj 230 120 route 0;
#X msg 198 130 1;
#X obj 198 20 r mmm-edit;
#X msg 129 60 \; mmm-select 0 \, edit copy paste delete source;
#X obj 93 190 sel copy paste delete source;
#N canvas 172 22 861 707 copy 0;
#X obj 303 63 r data.preset;
#X obj 303 143 route mmm-xxx;
#X obj 325 366 list trim;
#X obj 389 163 list split 1;
#X obj 34 200 t a a;
#X obj 224 231 s data.getstate;
#X obj 224 251 r data.state;
#X obj 224 271 spigot;
#X obj 202 191 t b a b;
#X obj 301 271 f 1;
#X obj 273 271 f 0;
#X obj 224 291 list split 2;
#X obj 34 270 s data.getpreset;
#X obj 318 406 textfile;
#X obj 325 346 list prepend add;
#X obj 303 123 spigot;
#X obj 17 50 t b b b b b b;
#X msg 340 103 1;
#X msg 310 103 0;
#X msg 157 375 clear \, add type module;
#X obj 217 514 until;
#X msg 404 376 rewind;
#X msg 267 599 instant-msg mmm rebuild-dsp-chain;
#X obj 34 160 value mmm-active-row;
#X obj 85 140 value mmm-active-col;
#X obj 34 180 pack f f;
#X msg 34 250 symbol \$1-\$2;
#X obj 475 501 route channel;
#X obj 475 521 route insert;
#X obj 475 541 list prepend;
#X obj 576 589 list prepend;
#X obj 576 609 list trim;
#X obj 603 407 value mmm-active-row;
#X obj 655 427 value mmm-active-col;
#X obj 604 447 pack f f;
#X obj 603 387 t b b;
#X obj 576 629 s netpd-broadcast;
#X msg 655 569 \$1-\$2;
#X obj 267 579 t b b b b;
#X obj 674 41 inlet paste;
#X obj 17 20 inlet copy;
#X msg 263 311 channel insert \$1;
#X msg 224 211 \$1--2 \$2-channel;
#X msg 475 561 \$1--2 \$2-channel \$3;
#X connect 0 0 15 0;
#X connect 1 1 3 0;
#X connect 2 0 13 0;
#X connect 3 1 14 0;
#X connect 4 0 26 0;
#X connect 4 1 8 0;
#X connect 6 0 7 0;
#X connect 7 0 11 0;
#X connect 8 0 10 0;
#X connect 8 1 42 0;
#X connect 8 2 9 0;
#X connect 9 0 7 1;
#X connect 10 0 7 1;
#X connect 11 1 41 0;
#X connect 13 0 27 0;
#X connect 13 1 20 1;
#X connect 14 0 2 0;
#X connect 15 0 1 0;
#X connect 16 0 18 0;
#X connect 16 1 23 0;
#X connect 16 2 24 0;
#X connect 16 4 19 0;
#X connect 16 5 17 0;
#X connect 17 0 15 1;
#X connect 18 0 15 1;
#X connect 19 0 13 0;
#X connect 20 0 13 0;
#X connect 21 0 13 0;
#X connect 22 0 36 0;
#X connect 23 0 25 0;
#X connect 24 0 25 1;
#X connect 25 0 4 0;
#X connect 26 0 12 0;
#X connect 27 0 28 0;
#X connect 27 1 30 0;
#X connect 28 0 29 0;
#X connect 29 0 43 0;
#X connect 30 0 31 0;
#X connect 31 0 36 0;
#X connect 32 0 34 0;
#X connect 33 0 34 1;
#X connect 34 0 29 1;
#X connect 34 0 37 0;
#X connect 35 0 32 0;
#X connect 35 1 33 0;
#X connect 37 0 30 1;
#X connect 38 0 22 0;
#X connect 38 1 20 0;
#X connect 38 2 21 0;
#X connect 38 3 35 0;
#X connect 39 0 38 0;
#X connect 40 0 16 0;
#X connect 41 0 14 0;
#X connect 42 0 5 0;
#X connect 43 0 36 0;
#X restore 30 256 pd copy n paste;
#X msg 188 260 \; mmm module create empty \; mmm-modules bang;
#X obj 316 180 r mmm-source;
#N canvas 483 194 156 193 once 0;
#X obj 16 19 inlet;
#X obj 16 149 outlet;
#X obj 16 109 spigot 1;
#X msg 97 79 0;
#X obj 67 39 del 500;
#X msg 67 59 1;
#X connect 0 0 2 0;
#X connect 2 0 4 0;
#X connect 2 0 3 0;
#X connect 2 0 1 0;
#X connect 3 0 2 1;
#X connect 4 0 5 0;
#X connect 5 0 2 1;
#X restore 316 200 pd once in a while;
#X msg 18 19 version 0.3.4;
#X connect 1 0 2 0;
#X connect 2 0 9 0;
#X connect 3 0 5 0;
#X connect 4 0 2 1;
#X connect 5 0 4 0;
#X connect 6 0 2 1;
#X connect 7 0 8 0;
#X connect 7 0 6 0;
#X connect 9 0 10 0;
#X connect 9 1 10 1;
#X connect 9 2 11 0;
#X connect 9 3 0 0;
#X connect 12 0 13 0;
#X connect 13 0 0 0;
