#N canvas 907 23 355 293 10;
#X obj 40 52 r netpd-receive;
#X obj 40 92 route mmm;
#X obj 40 112 route bpm;
#X obj 48 72 r data.state;
#X obj 40 152 /;
#X obj 20 22 inlet;
#X obj 20 232 outlet;
#X obj 40 172 t b f;
#X obj 20 202 *;
#X msg 40 132 15000 \$1;
#X obj 161 51 loadbang;
#X msg 161 71 \; data.getstate mmm bpm;
#X msg 114 22 version 0.1.0;
#X connect 0 0 1 0;
#X connect 1 0 2 0;
#X connect 2 0 9 0;
#X connect 3 0 1 0;
#X connect 4 0 7 0;
#X connect 5 0 8 0;
#X connect 7 0 8 0;
#X connect 7 1 8 1;
#X connect 8 0 6 0;
#X connect 9 0 4 0;
#X connect 10 0 11 0;
