#N canvas -5 22 1226 748 10;
#N canvas 406 22 559 571 hot-controller 0;
#X obj 26 168 route info;
#N canvas 0 22 213 244 sroute 0;
#X obj 98 91 inlet;
#X obj 40 61 list split 1;
#X obj 40 31 inlet;
#X obj 40 181 outlet;
#X obj 40 151 list;
#X obj 40 121 select 1;
#X connect 0 0 5 1;
#X connect 1 0 5 0;
#X connect 1 1 4 1;
#X connect 2 0 1 0;
#X connect 4 0 3 0;
#X connect 5 0 4 0;
#X restore 26 188 pd sroute 1;
#X msg 195 261 bang;
#X obj 225 301 == 0;
#X obj 195 301 f 0;
#X obj 195 321 sel 0 1;
#X msg 195 371 0;
#X obj 195 451 list trim;
#X obj 195 491 s netpd-broadcast;
#X obj 299 25 r mmm;
#X obj 299 45 route module;
#X obj 299 65 route activate deactivate;
#X obj 299 285 route \$1;
#X obj 195 241 spigot 1;
#X obj 208 351 route 0;
#X obj 229 371 f 50;
#X msg 211 281 0;
#X obj 280 351 spigot;
#X obj 317 331 f 0;
#X obj 344 331 f 1;
#X obj 344 311 del 500;
#X obj 229 391 t a b;
#X obj 299 135 list append 1;
#X obj 396 135 list append 0;
#N canvas 0 22 221 252 sroute 0;
#X obj 119 91 inlet;
#X obj 40 61 list split 1;
#X obj 40 31 inlet;
#X obj 40 181 outlet;
#X obj 40 151 list;
#X obj 40 121 select empty;
#X connect 0 0 5 1;
#X connect 1 0 5 0;
#X connect 1 1 4 1;
#X connect 2 0 1 0;
#X connect 4 0 3 0;
#X connect 5 0 4 0;
#X restore 75 278 pd sroute;
#X obj 195 471 route empty;
#X obj 26 208 unpack s f f f;
#X obj 73 371 list prepend \$1;
#X obj 338 185 makefilename %%d-%d;
#X obj 299 165 unpack f f f;
#X msg 338 205 set \$1;
#X obj 299 225 makefilename;
#X obj 299 245 pack s f;
#X obj 299 265 list trim;
#X obj 299 85 list;
#X obj 299 105 route symbol;
#X msg 246 135 0;
#X obj 389 85 list;
#X obj 389 105 route symbol;
#X obj 195 431 list prepend \$1-\$2 empty;
#X obj 75 258 r \$1-\$2;
#X obj 195 221 r \$1-\$2-module;
#X connect 0 0 1 0;
#X connect 1 0 26 0;
#X connect 2 0 4 0;
#X connect 3 0 4 1;
#X connect 4 0 3 0;
#X connect 4 0 5 0;
#X connect 5 0 6 0;
#X connect 5 1 15 0;
#X connect 6 0 39 0;
#X connect 7 0 25 0;
#X connect 10 0 11 0;
#X connect 11 0 34 0;
#X connect 11 1 37 0;
#X connect 12 0 13 1;
#X connect 13 0 2 0;
#X connect 14 1 15 1;
#X connect 14 1 17 0;
#X connect 15 0 21 0;
#X connect 16 0 4 1;
#X connect 17 0 16 0;
#X connect 18 0 17 1;
#X connect 19 0 17 1;
#X connect 20 0 19 0;
#X connect 21 0 39 0;
#X connect 21 1 18 0;
#X connect 21 1 20 0;
#X connect 22 0 29 0;
#X connect 23 0 29 0;
#X connect 24 0 14 0;
#X connect 26 0 24 1;
#X connect 26 0 27 0;
#X connect 27 0 39 1;
#X connect 28 0 30 0;
#X connect 29 0 31 0;
#X connect 29 1 28 0;
#X connect 29 2 32 1;
#X connect 30 0 31 0;
#X connect 31 0 32 0;
#X connect 32 0 33 0;
#X connect 33 0 12 0;
#X connect 34 0 35 0;
#X connect 35 0 36 0;
#X connect 35 1 22 0;
#X connect 36 0 13 1;
#X connect 37 0 38 0;
#X connect 38 0 36 0;
#X connect 38 1 23 0;
#X connect 39 0 7 0;
#X connect 40 0 24 0;
#X restore 224 73 pd hot-controller;
#X text 17 14 [mmm-module <row> <col> <name> <#controllers>];
#X obj 19 44 namecanvas \$1-\$2-mmm-module;
#X obj 20 563 s \$1-\$2-admin;
#X obj 20 73 r \$1-\$2-admin;
#X msg 64 193 \; seq-modulename-r label \$1 \, color 18 18 0;
#X obj 64 173 list append \$3;
#X obj 39 233 f \$4;
#X obj 39 253 moses 8.5;
#X msg 107 273 color 8 8 22;
#X msg 39 293 color 8 8 20;
#X obj 39 313 s mmm-controller-scroll-r;
#X obj 97 363 +;
#X obj 97 383 clip 0;
#X obj 238 293 loadbang;
#X obj 238 313 f \$4;
#X obj 238 333 - 8;
#X obj 97 343 list split 1;
#X msg 20 533 display \$1 \$2;
#X msg 20 363 0;
#X obj 20 513 list append 0;
#X obj 164 403 +;
#X obj 20 103 route activate scroll patterncount;
#X obj 215 383 + 1;
#X obj 164 423 clip 1 2;
#X obj 97 463 value mmm-ctrl-scroll;
#X obj 164 483 value mmm-ptn-scroll;
#X obj 106 493 - 1;
#X obj 238 353 max 0;
#X msg 297 429 0;
#X obj 215 403 pipe 50;
#X obj 239 243 value mmm-ptn-scroll;
#X obj 20 133 t b b b b;
#X obj 239 263 min 1;
#X obj 320 503 s mmm;
#X msg 320 483 pattern scroll \$1;
#X msg 287 44 version 0.3.6;
#X obj 407 86 r mmm-steps;
#X obj 444 106 r \$1-mmm-pattern;
#X obj 444 126 > 0;
#X obj 407 146 spigot;
#X obj 445 467 s;
#X obj 385 347 until;
#X obj 385 297 f \$4;
#X obj 395 267 t b a;
#X obj 405 397 t b a;
#X obj 445 437 f;
#X obj 484 427 makefilename \$1-\$2-%d-mmm-steps;
#X obj 413 367 - 1;
#X obj 385 317 t a a;
#X obj 385 367 f;
#X msg 432 204 1;
#X obj 431 229 t b a b;
#X obj 442 255 realtime;
#X floatatom 445 279 9 0 0 0 - - -;
#X obj 570 330 s;
#X obj 549 193 t b a;
#X obj 530 260 t b a;
#X obj 570 300 f;
#X obj 609 290 makefilename \$1-\$2-%d-mmm-steps;
#X msg 590 132 1;
#X obj 589 157 t b a b;
#X obj 600 183 realtime;
#X floatatom 603 207 9 0 0 0 - - -;
#X msg 533 234 4 \, 3 \, 2 \, 1;
#X obj 684 190 s;
#X msg 697 44 1;
#X obj 696 69 t b a b;
#X obj 707 95 realtime;
#X floatatom 710 119 9 0 0 0 - - -;
#X obj 675 171 unpack f s;
#X msg 674 139 \$1 1-1-4-mmm-steps \, \$1 1-1-3-mmm-steps \, \$1 1-1-2-mmm-steps
\, \$1 1-1-1-mmm-steps;
#X msg 733 324 1;
#X obj 732 349 t b a b;
#X obj 743 375 realtime;
#X floatatom 746 399 9 0 0 0 - - -;
#X msg 718 422 \; 1-1-4-mmm-steps \$1 \; 1-1-3-mmm-steps \$1 \; 1-1-2-mmm-steps
\$1 \; 1-1-1-mmm-steps \$1;
#X obj 725 510 r 1-1-3-mmm-steps;
#X obj 725 530 r 1-1-2-mmm-steps;
#X obj 725 550 r 1-1-1-mmm-steps;
#X obj 463 587 makefilename \$1-\$2-%d-mmm-steps;
#X msg 662 646 set;
#X msg 493 460 bang;
#X obj 493 480 t b b b;
#X msg 283 586 set set \, adddollsym \$1;
#X msg 304 566 symbol 2;
#X obj 463 547 until;
#X obj 463 507 f \$4;
#X obj 491 567 - 1;
#X obj 463 567 f;
#X obj 238 655 t b a b;
#X obj 249 681 realtime;
#X floatatom 252 705 9 0 0 0 - - -;
#X floatatom 242 632 5 0 0 0 - - -;
#X floatatom 735 577 5 0 0 0 - - -;
#X msg 422 704 symbol 1-1-4-mmm-steps \, symbol 1-1-3-mmm-steps \,
symbol 1-1-2-mmm-steps \, symbol 1-1-1-mmm-steps;
#X floatatom 805 581 5 0 0 0 - - -;
#X floatatom 846 581 5 0 0 0 - - -;
#X msg 894 336 \; \$1 \$2;
#X obj 883 236 t b a;
#X msg 924 175 1;
#X obj 923 200 t b a b;
#X obj 934 226 realtime;
#X floatatom 937 250 9 0 0 0 - - -;
#X obj 893 311 pack s f;
#X msg 853 269 1-1-4-mmm-steps \, 1-1-3-mmm-steps \, 1-1-2-mmm-steps
\, 1-1-1-mmm-steps;
#X obj 926 438 t b a;
#X msg 967 377 1;
#X obj 966 402 t b a b;
#X obj 977 428 realtime;
#X floatatom 980 452 9 0 0 0 - - -;
#X obj 912 539 s;
#X obj 898 502 t b a;
#X obj 898 520 f;
#X msg 897 471 symbol 1-1-4-mmm-steps \, symbol 1-1-3-mmm-steps \,
symbol 1-1-2-mmm-steps \, symbol 1-1-1-mmm-steps;
#X obj 934 577 t b a;
#X msg 975 516 1;
#X obj 974 541 t b a b;
#X obj 985 567 realtime;
#X floatatom 988 591 9 0 0 0 - - -;
#X obj 920 678 s;
#X obj 906 641 t b a;
#X obj 906 659 f;
#X msg 895 609 1-1-4-mmm-steps \, 1-1-3-mmm-steps \, 1-1-2-mmm-steps
\, 1-1-1-mmm-steps;
#X obj 937 659 symbol;
#X obj 463 527 t a a a;
#X msg 463 647 set addcomma;
#X msg 483 671 addcomma;
#X obj 463 607 t b a b;
#X msg 485 627 add2 symbol \$1;
#X connect 4 0 22 0;
#X connect 6 0 5 0;
#X connect 7 0 8 0;
#X connect 8 0 10 0;
#X connect 8 1 9 0;
#X connect 9 0 11 0;
#X connect 10 0 11 0;
#X connect 12 0 13 0;
#X connect 13 0 12 1;
#X connect 13 0 20 0;
#X connect 13 0 25 0;
#X connect 14 0 15 0;
#X connect 14 0 29 0;
#X connect 15 0 16 0;
#X connect 16 0 28 0;
#X connect 17 0 12 0;
#X connect 17 1 21 0;
#X connect 18 0 3 0;
#X connect 19 0 20 0;
#X connect 20 0 18 0;
#X connect 21 0 24 0;
#X connect 22 0 32 0;
#X connect 22 1 17 0;
#X connect 22 2 23 0;
#X connect 22 2 33 1;
#X connect 23 0 30 0;
#X connect 24 0 21 1;
#X connect 24 0 26 0;
#X connect 24 0 27 0;
#X connect 24 0 35 0;
#X connect 27 0 20 1;
#X connect 28 0 13 2;
#X connect 29 0 25 0;
#X connect 29 0 26 0;
#X connect 30 0 24 2;
#X connect 31 0 33 0;
#X connect 32 0 19 0;
#X connect 32 1 7 0;
#X connect 32 2 6 0;
#X connect 32 3 31 0;
#X connect 33 0 24 0;
#X connect 35 0 34 0;
#X connect 37 0 40 0;
#X connect 38 0 39 0;
#X connect 39 0 40 1;
#X connect 42 0 50 0;
#X connect 43 0 49 0;
#X connect 44 0 43 0;
#X connect 44 1 46 1;
#X connect 45 0 46 0;
#X connect 45 1 47 0;
#X connect 46 0 41 0;
#X connect 47 0 41 1;
#X connect 48 0 50 1;
#X connect 49 0 42 0;
#X connect 49 1 50 1;
#X connect 50 0 45 0;
#X connect 50 0 48 0;
#X connect 51 0 52 0;
#X connect 52 0 53 1;
#X connect 52 1 44 0;
#X connect 52 2 53 0;
#X connect 53 0 54 0;
#X connect 56 0 64 0;
#X connect 56 1 58 1;
#X connect 57 0 58 0;
#X connect 57 1 59 0;
#X connect 58 0 55 0;
#X connect 59 0 55 1;
#X connect 60 0 61 0;
#X connect 61 0 62 1;
#X connect 61 1 56 0;
#X connect 61 2 62 0;
#X connect 62 0 63 0;
#X connect 64 0 57 0;
#X connect 66 0 67 0;
#X connect 67 0 68 1;
#X connect 67 1 71 0;
#X connect 67 2 68 0;
#X connect 68 0 69 0;
#X connect 70 0 65 0;
#X connect 70 1 65 1;
#X connect 71 0 70 0;
#X connect 72 0 73 0;
#X connect 73 0 74 1;
#X connect 73 1 76 0;
#X connect 73 2 74 0;
#X connect 74 0 75 0;
#X connect 77 0 97 0;
#X connect 78 0 96 0;
#X connect 79 0 94 0;
#X connect 80 0 128 0;
#X connect 81 0 95 0;
#X connect 81 0 127 0;
#X connect 82 0 83 0;
#X connect 83 0 87 0;
#X connect 83 2 81 0;
#X connect 84 0 95 0;
#X connect 85 0 84 0;
#X connect 86 0 89 0;
#X connect 87 0 125 0;
#X connect 88 0 89 1;
#X connect 89 0 88 0;
#X connect 89 0 80 0;
#X connect 90 0 91 1;
#X connect 90 1 95 0;
#X connect 90 2 91 0;
#X connect 91 0 92 0;
#X connect 93 0 90 0;
#X connect 99 0 105 0;
#X connect 99 1 104 1;
#X connect 100 0 101 0;
#X connect 101 0 102 1;
#X connect 101 1 99 0;
#X connect 101 2 102 0;
#X connect 102 0 103 0;
#X connect 104 0 98 0;
#X connect 105 0 104 0;
#X connect 106 0 114 0;
#X connect 106 1 113 1;
#X connect 107 0 108 0;
#X connect 108 0 109 1;
#X connect 108 1 106 0;
#X connect 108 2 109 0;
#X connect 109 0 110 0;
#X connect 112 0 113 0;
#X connect 112 1 111 1;
#X connect 113 0 111 0;
#X connect 114 0 112 0;
#X connect 115 0 123 0;
#X connect 115 1 122 1;
#X connect 116 0 117 0;
#X connect 117 0 118 1;
#X connect 117 1 115 0;
#X connect 117 2 118 0;
#X connect 118 0 119 0;
#X connect 121 0 122 0;
#X connect 121 1 124 0;
#X connect 122 0 120 0;
#X connect 123 0 121 0;
#X connect 124 0 120 1;
#X connect 125 0 86 0;
#X connect 125 1 89 1;
#X connect 126 0 127 0;
#X connect 127 0 95 0;
#X connect 128 0 126 0;
#X connect 128 1 129 0;
#X connect 128 2 127 0;
#X connect 129 0 95 0;
