#N canvas 450 22 581 610 10;
#N canvas 732 22 517 237 gem 0;
#X obj 17 17 inlet;
#X obj 17 127 outlet;
#X msg 17 47 <Gem> gemwin gemhead camera light spot_light world_light
2d_objects cone cube cuboid curve curve3d cylinder disk primTri rectangle
sphere torus tube accumrotate colorHSV colorRGB rotateXYZ scaleXYZ
shear translateXYZ pix_set pix_snap pix_snap2tex pix_texture pix_write
pix_record;
#X connect 0 0 2 0;
#X connect 2 0 1 0;
#X restore 165 264 pd gem;
#N canvas 0 22 652 452 basic 0;
#X obj 16 12 inlet;
#X obj 16 331 outlet;
#X obj 16 42 t b b b b b;
#X msg 147 93 <generator> sinus sinus2 triangle square sawtooth beating
fuzzed-FM mod-formant noise tangent bentsaw rmpt rmpt2 sig~ wavepackets
samplehold slopes;
#X msg 157 183 <envelope> ar line~ vadsr vead t3_adsr;
#X msg 16 221 <sequencer> notes notes2 notes3 newton motor apreciator
transport;
#X connect 0 0 2 0;
#X connect 2 0 5 0;
#X connect 2 1 4 0;
#X connect 2 2 3 0;
#X connect 3 0 1 0;
#X connect 4 0 1 0;
#X connect 5 0 1 0;
#X restore 423 264 pd basic;
#N canvas 0 22 502 352 tools 0;
#X obj 17 17 inlet;
#X obj 17 177 outlet;
#X msg 33 115 wavelooper;
#X msg 17 67 <tools> midiIN audioIN audioOUT waveplayer recorder mp3player
mp3stream oscilloscope;
#X connect 0 0 3 0;
#X connect 3 0 1 0;
#X restore 213 264 pd tools;
#N canvas 340 22 702 711 abslist 0;
#X msg 31 26 4m-sinusblip;
#X msg 161 26 4m-distort;
#X msg 161 46 4m-sender;
#X msg 161 66 4m-rcomp;
#X msg 161 86 4m-rphase;
#X msg 161 106 4m-zlimit;
#X msg 291 166 4m-sinus;
#X msg 291 526 4m-ar;
#X msg 161 446 4m-2rect;
#X msg 161 126 4m-pitchshifter;
#X msg 291 286 4m-bentsaw;
#X msg 161 426 4m-panner;
#X msg 291 206 4m-sawtooth;
#X msg 291 226 4m-square;
#X msg 291 306 4m-tangent;
#X msg 291 326 4m-triangle;
#X msg 411 46 4m-gemhead;
#X msg 411 26 4m-gemwin;
#X msg 291 26 4m-notes;
#X msg 291 146 4m-transport;
#X msg 291 266 4m-noise;
#X msg 291 346 4m-rmpt;
#X msg 291 186 4m-sinus2;
#X msg 291 366 4m-rmpt2;
#X msg 31 236 4m-drumdelta;
#X msg 541 26 4m-accumrotate;
#X msg 541 66 4m-colorRGB;
#X msg 411 196 4m-cube;
#X msg 541 86 4m-rotateXYZ;
#X msg 541 106 4m-scaleXYZ;
#X msg 411 356 4m-sphere;
#X msg 541 146 4m-translateXYZ;
#X msg 411 66 4m-camera;
#X msg 411 176 4m-cone;
#X msg 411 216 4m-cuboid;
#X msg 411 236 4m-curve;
#X msg 411 256 4m-curve3d;
#X msg 411 156 4m-2d_objects;
#X msg 411 376 4m-torus;
#X msg 411 126 4m-world_light;
#X msg 411 106 4m-spot_light;
#X msg 411 396 4m-tube;
#X msg 411 276 4m-cylinder;
#X msg 541 46 4m-colorHSV;
#X msg 411 296 4m-disk;
#X msg 411 86 4m-light;
#X msg 541 176 4m-pix_set;
#X msg 411 336 4m-rectangle;
#X msg 541 126 4m-shear;
#X msg 411 316 4m-primTri;
#X msg 31 186 4m-karplusstrong;
#X msg 31 206 4m-PD-303s;
#X msg 161 146 4m-erosion;
#X msg 541 196 4m-pix_snap2tex;
#X msg 541 216 4m-pix_texture;
#X msg 541 236 4m-pix_write;
#X msg 291 566 4m-vadsr;
#X msg 291 546 4m-t3_adsr;
#X msg 291 586 4m-vead;
#X msg 31 316 4m-kicksnare;
#X msg 31 106 4m-gbuzz;
#X msg 31 416 4m-ddrum;
#X msg 291 486 4m-sig~;
#X msg 291 506 4m-line~;
#X msg 31 356 4m-onehandclap;
#X msg 291 246 4m-mod-formant;
#X msg 31 126 4m-oxygen;
#X msg 31 166 4m-daisy;
#X msg 161 166 4m-reverb1;
#X msg 161 226 4m-reverb2;
#X msg 161 246 4m-reverb3;
#X msg 161 186 4m-reverb1-stage;
#X msg 161 206 4m-reverb1-final;
#X msg 291 46 4m-notes2;
#X msg 291 126 4m-apreciator;
#X msg 161 326 4m-delay;
#X msg 161 366 4m-multitapdelay;
#X msg 291 86 4m-newton;
#X msg 291 106 4m-motor;
#X msg 161 386 4m-pingpongdelay;
#X msg 161 346 4m-delay-2;
#X msg 31 376 4m-ps-drums;
#X msg 31 396 4m-kick-it;
#X msg 161 406 4m-waveshape-1;
#X msg 291 386 4m-beating;
#X msg 161 526 4m-butterworth3~;
#X msg 161 266 4m-piano-reverb;
#X msg 161 286 4m-reverberator;
#X msg 161 306 4m-reverb-echo;
#X msg 291 426 4m-wavepackets;
#X msg 291 446 4m-samplehold;
#X msg 291 466 4m-slopes;
#X msg 161 546 4m-octaver;
#X msg 541 316 4m-audioIN;
#X msg 541 336 4m-audioOUT;
#X msg 161 566 4m-2p2z-filter;
#X msg 161 586 4m-spectralgate;
#X msg 541 486 4m-loop;
#X msg 541 356 4m-waveplayer;
#X msg 541 396 4m-mp3player;
#X msg 541 416 4m-mp3stream;
#X msg 161 606 4m-shaper;
#X msg 541 506 4m-sampler;
#X msg 541 526 4m-rockafella;
#X msg 541 376 4m-wavelooper;
#X msg 291 406 4m-fuzzed-FM;
#X msg 31 256 4m-delta-kick;
#X msg 31 276 4m-delta-snare;
#X msg 31 296 4m-delta-hihat;
#X msg 161 626 4m-3-band-eq;
#X msg 31 436 4m-dkick;
#X msg 31 456 4m-dsnare;
#X msg 31 476 4m-dhihat;
#X msg 31 496 4m-dclap;
#X msg 31 516 4m-dtom;
#X msg 161 466 4m-highpass;
#X msg 161 486 4m-lowpass;
#X msg 161 506 4m-bandpass;
#X msg 31 66 4m-addsynth;
#X msg 31 46 4m-subsynth;
#X msg 31 86 4m-padsynth;
#X msg 31 566 4m-kilo-kick;
#X msg 31 586 4m-kilo-hat;
#X msg 31 606 4m-kilo-snare;
#X msg 31 626 4m-kilo-clap;
#X msg 31 646 4m-kilo-clave;
#X msg 541 436 4m-midiIN;
#X msg 31 146 4m-oxygen2;
#X msg 541 556 4m-master;
#X msg 541 576 4m-i2mx~;
#X msg 541 596 4m-mx2mMm;
#X msg 541 616 4m-mMm2mx;
#X msg 541 636 4m-qseq2;
#X msg 161 646 4m-oscilloscope;
#X msg 541 456 4m-recorder;
#X msg 541 276 4m-pix_record;
#X msg 541 256 4m-pix_snap;
#X msg 291 66 4m-notes3;
#X restore 244 23 pd abslist;
#N canvas 0 22 502 352 sampling 0;
#X obj 17 17 inlet;
#X obj 17 177 outlet;
#X msg 17 67 <sampling> loop sampler rockafella;
#X connect 0 0 2 0;
#X connect 2 0 1 0;
#X restore 275 264 pd sampling;
#N canvas 531 67 541 261 effects 0;
#X obj 17 17 inlet;
#X obj 17 127 outlet;
#X msg 17 47 <effects> distort sender delay multitapdelay pingpongdelay
reverb1 reverb2 reverb3 piano-reverb reverberator rphase rcomp zlimit
pitchshifter erosion panner 2rect highpass lowpass bandpass waveshape-1
butterworth3~ 2p2z-filter spectralgate shaper 3-band-eq;
#X connect 0 0 2 0;
#X connect 2 0 1 0;
#X restore 89 264 pd effects;
#X obj 21 398 spigot 1;
#X msg 205 129 1;
#X obj 21 83 t b b b b b b b b b b;
#X obj 51 438 spigot 1;
#X msg 213 438 0;
#X obj 213 338 r mmm;
#X obj 213 388 route module;
#X obj 213 408 route create;
#X obj 213 368 spigot 1;
#X obj 51 458 value mmm-active-row;
#X obj 21 418 t a b;
#X obj 21 23 loadbang;
#X obj 21 338 inlet;
#X obj 81 298 s mmm-select;
#X msg 21 538 \; mmm module create \$1;
#X obj 72 338 r mmm-select;
#X msg 72 378 0;
#X msg 241 133 \; mmm-select 0;
#X obj 72 358 route 0;
#X obj 30 43 r mmm-modules;
#X msg 51 478 \; netpd-broadcast \$1--1 arrangement 1 0 0 0 0 0 0 0
0 0 0 0 0 0 0 0;
#X obj 131 53 route reset_all;
#X obj 131 33 r mmm;
#N canvas 0 22 510 360 netpd 0;
#X obj 17 17 inlet;
#X obj 17 177 outlet;
#X msg 17 67 <netpd> master i2mx~ mx2mMm mMm2mx qseq2;
#X connect 0 0 2 0;
#X connect 2 0 1 0;
#X restore 359 264 pd netpd;
#X msg 37 168 <drums> kilo-kick kilo-snare kilo-hat kilo-clap kilo-clave
delta-kick delta-snare delta-hihat dkick dsnare dhihat dclap kicksnare
onehandclap ps-drums kick-it;
#X msg 21 222 <synths> sinusblip subsynth addsynth padsynth gbuzz daisy
oxygen oxygen2;
#X msg 333 23 version 0.3.14;
#X connect 0 0 19 0;
#X connect 1 0 19 0;
#X connect 2 0 19 0;
#X connect 4 0 19 0;
#X connect 5 0 19 0;
#X connect 6 0 16 0;
#X connect 7 0 6 1;
#X connect 8 0 31 0;
#X connect 8 1 30 0;
#X connect 8 2 5 0;
#X connect 8 3 0 0;
#X connect 8 4 2 0;
#X connect 8 5 4 0;
#X connect 8 6 29 0;
#X connect 8 7 1 0;
#X connect 8 8 7 0;
#X connect 8 9 23 0;
#X connect 9 0 10 0;
#X connect 9 0 15 0;
#X connect 10 0 9 1;
#X connect 10 0 14 1;
#X connect 11 0 14 0;
#X connect 12 0 13 0;
#X connect 13 0 10 0;
#X connect 14 0 12 0;
#X connect 15 0 26 0;
#X connect 16 0 20 0;
#X connect 16 1 9 0;
#X connect 17 0 8 0;
#X connect 18 0 6 0;
#X connect 21 0 24 0;
#X connect 22 0 6 1;
#X connect 24 0 22 0;
#X connect 25 0 8 0;
#X connect 27 0 8 0;
#X connect 28 0 27 0;
#X connect 29 0 19 0;
#X connect 30 0 19 0;
#X connect 31 0 19 0;
