#N canvas 357 22 307 158 10;
#X obj 16 58 inlet;
#N canvas 183 24 495 566 postload 0;
#X obj 192 77 s netpd-getsocket;
#X obj 192 97 r netpd-socket;
#X obj 162 57 t b b;
#X obj 162 127 f 0;
#X obj 26 350 r netpd-receive;
#X obj 274 216 r netpd-receive;
#X obj 274 316 s netpd-send;
#X obj 42 510 s netpd-send;
#X obj 270 391 r netpd-receive;
#X obj 26 390 sel;
#X obj 26 260 s netpd-broadcast;
#X obj 42 410 spigot 1;
#X obj 42 430 t f b;
#X obj 162 147 t f f;
#X obj 26 370 route \$1.dumpreqreq;
#X obj 274 236 route \$1.dumpreqreqreq;
#X obj 120 420 f 0;
#X obj 270 411 route \$1.dumpreq;
#X obj 270 471 s data.dump;
#X text 26 180 local 1;
#X text 274 196 remote 2;
#X text 26 330 local 3;
#X text 270 371 remote 4;
#X obj 270 431 list prepend \$1;
#X obj 42 450 list append \$1.dumpreq;
#X obj 42 470 list append;
#X obj 274 276 list append;
#X obj 274 256 list append \$1.dumpreqreq;
#X obj 26 220 list prepend \$1.dumpreqreqreq;
#X obj 26 240 list trim;
#X obj 274 296 list trim;
#X obj 270 451 list trim;
#X obj 42 490 list trim;
#X obj 162 37 spigot 1;
#X msg 225 37 0;
#X obj 162 17 inlet;
#X connect 1 0 3 1;
#X connect 2 0 3 0;
#X connect 2 1 0 0;
#X connect 3 0 13 0;
#X connect 4 0 14 0;
#X connect 5 0 15 0;
#X connect 8 0 17 0;
#X connect 9 1 11 0;
#X connect 11 0 12 0;
#X connect 12 0 24 0;
#X connect 12 1 16 0;
#X connect 13 0 28 0;
#X connect 13 1 9 1;
#X connect 13 1 25 1;
#X connect 13 1 26 1;
#X connect 14 0 9 0;
#X connect 15 0 27 0;
#X connect 16 0 11 1;
#X connect 17 0 23 0;
#X connect 23 0 31 0;
#X connect 24 0 25 0;
#X connect 25 0 32 0;
#X connect 26 0 30 0;
#X connect 27 0 26 0;
#X connect 28 0 29 0;
#X connect 29 0 10 0;
#X connect 30 0 6 0;
#X connect 31 0 18 0;
#X connect 32 0 7 0;
#X connect 33 0 34 0;
#X connect 33 0 2 0;
#X connect 34 0 33 1;
#X connect 35 0 33 0;
#X restore 160 98 pd postload;
#X obj 16 78 route -load -save;
#N canvas 620 284 244 290 load 0;
#X obj 20 19 inlet;
#X obj 78 179 textfile;
#X msg 58 99 read \$1;
#X msg 39 119 rewind;
#X obj 20 139 until;
#X obj 20 39 symbol;
#X msg 78 79 clear;
#X obj 78 239 s data.preload;
#X obj 78 199 list prepend \$1;
#X obj 78 219 list trim;
#X obj 20 59 t b b a b;
#X connect 0 0 5 0;
#X connect 1 0 8 0;
#X connect 1 1 4 1;
#X connect 2 0 1 0;
#X connect 3 0 1 0;
#X connect 4 0 1 0;
#X connect 5 0 10 0;
#X connect 6 0 1 0;
#X connect 8 0 9 0;
#X connect 9 0 7 0;
#X connect 10 0 4 0;
#X connect 10 1 3 0;
#X connect 10 2 2 0;
#X connect 10 3 6 0;
#X restore 16 98 pd load;
#N canvas 30 22 270 330 save 0;
#X obj 20 19 inlet;
#X obj 141 285 textfile;
#X msg 208 101 clear;
#X msg 20 259 write \$1;
#X obj 42 95 s data.getpreset;
#X obj 42 115 r data.preset;
#X obj 20 239 symbol;
#X obj 20 39 t a b b;
#X obj 42 75 symbol \$1;
#X obj 42 175 list prepend add;
#X obj 42 195 list trim;
#X obj 42 135 list trim;
#X obj 42 155 route \$1;
#X connect 0 0 7 0;
#X connect 2 0 1 0;
#X connect 3 0 1 0;
#X connect 5 0 11 0;
#X connect 6 0 3 0;
#X connect 7 0 6 0;
#X connect 7 1 8 0;
#X connect 7 2 2 0;
#X connect 8 0 4 0;
#X connect 9 0 10 0;
#X connect 10 0 1 0;
#X connect 11 0 12 0;
#X connect 12 0 9 0;
#X restore 73 98 pd save;
#N canvas 19 22 341 342 netcheck 0;
#X obj 150 96 t b b;
#X obj 113 235 spigot;
#X obj 150 215 == -1;
#X obj 120 16 inlet;
#X obj 18 186 r netpd-send;
#X obj 150 156 f -1;
#X obj 113 186 r netpd-broadcast;
#X obj 113 285 s netpd-receive;
#X obj 80 46 f 1;
#X obj 120 56 t b f;
#X obj 120 36 value data.onlyone;
#X obj 18 206 list split 1;
#X obj 113 255 list trim;
#X obj 150 76 sel 0;
#X obj 180 116 s netpd-getstatus;
#X obj 173 136 r netpd-status;
#X connect 0 0 5 0;
#X connect 0 1 14 0;
#X connect 1 0 12 0;
#X connect 2 0 1 1;
#X connect 3 0 10 0;
#X connect 4 0 11 0;
#X connect 5 0 2 0;
#X connect 6 0 1 0;
#X connect 8 0 10 0;
#X connect 9 0 8 0;
#X connect 9 1 13 0;
#X connect 10 0 9 0;
#X connect 11 1 1 0;
#X connect 12 0 7 0;
#X connect 13 0 0 0;
#X connect 15 0 5 1;
#X restore 190 78 pd netcheck;
#X obj 160 58 t b b;
#X obj 160 38 loadbang;
#X msg 16 18 version 0.3.4;
#X connect 0 0 2 0;
#X connect 2 0 3 0;
#X connect 2 1 4 0;
#X connect 6 0 1 0;
#X connect 6 1 5 0;
#X connect 7 0 6 0;
