#N canvas 414 62 774 559 10;
#X obj 95 278 value mmm-active-row;
#X obj 160 298 value mmm-active-col;
#X obj 75 258 unpack f f;
#X obj 95 328 pack f f;
#X obj 95 298 route 0;
#X obj 322 28 r mmm-font>;
#X msg 322 128 \; \$1-\$2-module-r \$3 \$4 \$5 \; \$1-\$2-module-r
set 0;
#X msg 324 237 \; seq-modulename-r label empty \, color 0 0 0;
#X text 28 78 [speedlimit];
#X msg 33 404 activate;
#X obj 33 444 s;
#X obj 17 178 t a a a a b b b b;
#X obj 33 384 t b a;
#X msg 63 424 symbol \$1-\$2-admin;
#N canvas 366 22 603 567 highlight 0;
#X obj 19 71 r mmm;
#X obj 19 91 route module;
#X obj 183 17 r netpd-receive;
#N canvas 0 22 247 302 !sroute 0;
#X obj 131 41 inlet;
#X obj 20 81 list split 1;
#X obj 50 21 inlet;
#X obj 85 214 outlet;
#X obj 85 184 list;
#X obj 20 144 select 1-1;
#X obj 50 51 t a a;
#X obj 85 164 b;
#X obj 131 81 list;
#X connect 0 0 8 0;
#X connect 1 0 5 0;
#X connect 2 0 6 0;
#X connect 4 0 3 0;
#X connect 5 1 7 0;
#X connect 6 0 1 0;
#X connect 6 1 4 1;
#X connect 7 0 4 0;
#X connect 8 0 5 1;
#X restore 245 214 pd !sroute;
#X obj 19 111 route activate;
#X obj 19 141 t a a;
#X obj 245 234 list split 1;
#X msg 245 404 \; \$1-module-r color 4 4 22;
#X obj 275 284 pipe s 900;
#X obj 245 264 t a a;
#N canvas 0 22 235 290 !sroute 0;
#X obj 131 41 inlet;
#X obj 20 81 list split 1;
#X obj 50 21 inlet;
#X obj 85 214 outlet;
#X obj 85 184 list;
#X obj 20 144 select 1-1;
#X obj 50 51 t a a;
#X obj 85 164 b;
#X obj 131 81 list;
#X connect 0 0 8 0;
#X connect 1 0 5 0;
#X connect 2 0 6 0;
#X connect 4 0 3 0;
#X connect 5 1 7 0;
#X connect 6 0 1 0;
#X connect 6 1 4 1;
#X connect 7 0 4 0;
#X connect 8 0 5 1;
#X restore 275 304 pd !sroute;
#X msg 19 271 \; \$1-module-r color 14 14 22;
#X obj 19 251 list;
#X obj 275 384 s;
#X msg 275 344 color 0 0 22;
#X msg 305 364 \$1-module-r;
#X obj 275 324 t b a;
#X obj 116 473 s;
#X msg 146 453 \$1-module-r;
#X obj 116 413 t b a;
#X msg 116 433 color 4 4 22;
#X msg 243 457 \; \$1-module-r color 0 0 22;
#X obj 183 57 route \$1-1 \$1-2 \$1-3 \$1-4 \$1-5 \$1-6 \$1-7 \$1-8
;
#X obj 183 37 spigot 1;
#X msg 183 77 1;
#X obj 183 127 list prepend \$1;
#X msg 183 147 \$1-\$2;
#X msg 221 77 2;
#X msg 260 77 3;
#X msg 299 77 4;
#X msg 338 77 5;
#X msg 376 77 6;
#X msg 415 77 7;
#X msg 454 77 8;
#X connect 1 0 4 0;
#X connect 3 0 6 0;
#X connect 4 0 5 0;
#X connect 5 1 3 1;
#X connect 5 1 10 1;
#X connect 6 0 9 0;
#X connect 8 0 10 0;
#X connect 9 0 7 0;
#X connect 9 1 8 0;
#X connect 10 0 21 0;
#X connect 12 0 11 0;
#X connect 14 0 13 0;
#X connect 15 0 13 1;
#X connect 16 0 14 0;
#X connect 16 1 15 0;
#X connect 18 0 17 1;
#X connect 19 0 20 0;
#X connect 19 1 18 0;
#X connect 20 0 17 0;
#X connect 22 0 24 0;
#X connect 22 1 27 0;
#X connect 22 2 28 0;
#X connect 22 3 29 0;
#X connect 22 4 30 0;
#X connect 22 5 31 0;
#X connect 22 6 32 0;
#X connect 22 7 33 0;
#X connect 23 0 22 0;
#X connect 24 0 25 0;
#X connect 25 0 26 0;
#X connect 26 0 3 0;
#X connect 27 0 25 0;
#X connect 28 0 25 0;
#X connect 29 0 25 0;
#X connect 30 0 25 0;
#X connect 31 0 25 0;
#X connect 32 0 25 0;
#X connect 33 0 25 0;
#X restore 17 18 pd highlight user action;
#X msg 324 289 1 \, 2 \, 3 \, 4 \, 5 \, 6 \, 7 \, 8;
#X msg 323 349 \; mmm-seq-slider \$1 empty empty empty empty empty
empty empty empty empty empty empty empty empty empty empty empty empty
;
#X msg 333 310 \; \$1-controller-r label empty;
#X msg 131 394 display -1 -1;
#X msg 95 348 \; \$1-\$2-module-r color 0 0 22;
#X msg 195 18 version 0.3.5;
#X msg 17 464 \; mmm module activate \$1-\$2 \; mmm-controller-scroll
0 \; \$1-\$2-module-r set 0 \, color 18 18 0;
#N canvas 0 22 902 450 all_modules 0;
#X msg 27 38 2;
#X msg 37 58 3;
#X msg 47 78 4;
#X msg 57 98 5;
#X msg 67 118 6;
#X msg 77 138 7;
#X msg 87 158 8;
#X msg 17 18 1;
#X obj 55 18 r 1-1-module;
#X obj 65 38 r 1-2-module;
#X obj 75 58 r 1-3-module;
#X obj 85 78 r 1-4-module;
#X obj 95 98 r 1-5-module;
#X obj 105 118 r 1-6-module;
#X obj 115 138 r 1-7-module;
#X obj 125 158 r 1-8-module;
#X msg 17 178 1 \$1;
#X msg 227 38 2;
#X msg 237 58 3;
#X msg 247 78 4;
#X msg 257 98 5;
#X msg 267 118 6;
#X msg 277 138 7;
#X msg 287 158 8;
#X msg 217 18 1;
#X msg 217 178 2 \$1;
#X obj 255 18 r 2-1-module;
#X obj 265 38 r 2-2-module;
#X obj 275 58 r 2-3-module;
#X obj 285 78 r 2-4-module;
#X obj 295 98 r 2-5-module;
#X obj 305 118 r 2-6-module;
#X obj 315 138 r 2-7-module;
#X obj 325 158 r 2-8-module;
#X msg 427 38 2;
#X msg 437 58 3;
#X msg 447 78 4;
#X msg 457 98 5;
#X msg 467 118 6;
#X msg 477 138 7;
#X msg 487 158 8;
#X msg 417 18 1;
#X msg 627 38 2;
#X msg 637 58 3;
#X msg 647 78 4;
#X msg 657 98 5;
#X msg 667 118 6;
#X msg 677 138 7;
#X msg 687 158 8;
#X msg 617 18 1;
#X obj 455 18 r 3-1-module;
#X obj 465 38 r 3-2-module;
#X obj 475 58 r 3-3-module;
#X obj 485 78 r 3-4-module;
#X obj 495 98 r 3-5-module;
#X obj 505 118 r 3-6-module;
#X obj 515 138 r 3-7-module;
#X obj 525 158 r 3-8-module;
#X msg 417 178 3 \$1;
#X obj 655 18 r 4-1-module;
#X obj 665 38 r 4-2-module;
#X obj 675 58 r 4-3-module;
#X obj 685 78 r 4-4-module;
#X obj 695 98 r 4-5-module;
#X obj 705 118 r 4-6-module;
#X obj 715 138 r 4-7-module;
#X obj 725 158 r 4-8-module;
#X msg 617 178 4 \$1;
#X msg 77 238 2;
#X msg 87 258 3;
#X msg 97 278 4;
#X msg 107 298 5;
#X msg 117 318 6;
#X msg 127 338 7;
#X msg 137 358 8;
#X msg 67 218 1;
#X msg 277 238 2;
#X msg 287 258 3;
#X msg 297 278 4;
#X msg 307 298 5;
#X msg 317 318 6;
#X msg 327 338 7;
#X msg 337 358 8;
#X msg 267 218 1;
#X msg 477 238 2;
#X msg 487 258 3;
#X msg 497 278 4;
#X msg 507 298 5;
#X msg 517 318 6;
#X msg 527 338 7;
#X msg 537 358 8;
#X msg 467 218 1;
#X msg 677 238 2;
#X msg 687 258 3;
#X msg 697 278 4;
#X msg 707 298 5;
#X msg 717 318 6;
#X msg 727 338 7;
#X msg 737 358 8;
#X msg 667 218 1;
#X obj 17 408 outlet;
#X obj 17 208 t a;
#X msg 67 378 5 \$1;
#X msg 267 378 6 \$1;
#X msg 467 378 7 \$1;
#X msg 667 378 8 \$1;
#X obj 775 358 r 8-8-module;
#X obj 765 338 r 8-7-module;
#X obj 755 318 r 8-6-module;
#X obj 745 298 r 8-5-module;
#X obj 735 278 r 8-4-module;
#X obj 725 258 r 8-3-module;
#X obj 715 238 r 8-2-module;
#X obj 705 218 r 8-1-module;
#X obj 505 218 r 7-1-module;
#X obj 515 238 r 7-2-module;
#X obj 525 258 r 7-3-module;
#X obj 535 278 r 7-4-module;
#X obj 545 298 r 7-5-module;
#X obj 555 318 r 7-6-module;
#X obj 565 338 r 7-7-module;
#X obj 575 358 r 7-8-module;
#X obj 305 218 r 6-1-module;
#X obj 315 238 r 6-2-module;
#X obj 325 258 r 6-3-module;
#X obj 335 278 r 6-4-module;
#X obj 345 298 r 6-5-module;
#X obj 355 318 r 6-6-module;
#X obj 365 338 r 6-7-module;
#X obj 375 358 r 6-8-module;
#X obj 105 218 r 5-1-module;
#X obj 115 238 r 5-2-module;
#X obj 125 258 r 5-3-module;
#X obj 135 278 r 5-4-module;
#X obj 145 298 r 5-5-module;
#X obj 155 318 r 5-6-module;
#X obj 165 338 r 5-7-module;
#X obj 175 358 r 5-8-module;
#X connect 0 0 16 0;
#X connect 1 0 16 0;
#X connect 2 0 16 0;
#X connect 3 0 16 0;
#X connect 4 0 16 0;
#X connect 5 0 16 0;
#X connect 6 0 16 0;
#X connect 7 0 16 0;
#X connect 8 0 7 0;
#X connect 9 0 0 0;
#X connect 10 0 1 0;
#X connect 11 0 2 0;
#X connect 12 0 3 0;
#X connect 13 0 4 0;
#X connect 14 0 5 0;
#X connect 15 0 6 0;
#X connect 16 0 101 0;
#X connect 17 0 25 0;
#X connect 18 0 25 0;
#X connect 19 0 25 0;
#X connect 20 0 25 0;
#X connect 21 0 25 0;
#X connect 22 0 25 0;
#X connect 23 0 25 0;
#X connect 24 0 25 0;
#X connect 25 0 101 0;
#X connect 26 0 24 0;
#X connect 27 0 17 0;
#X connect 28 0 18 0;
#X connect 29 0 19 0;
#X connect 30 0 20 0;
#X connect 31 0 21 0;
#X connect 32 0 22 0;
#X connect 33 0 23 0;
#X connect 34 0 58 0;
#X connect 35 0 58 0;
#X connect 36 0 58 0;
#X connect 37 0 58 0;
#X connect 38 0 58 0;
#X connect 39 0 58 0;
#X connect 40 0 58 0;
#X connect 41 0 58 0;
#X connect 42 0 67 0;
#X connect 43 0 67 0;
#X connect 44 0 67 0;
#X connect 45 0 67 0;
#X connect 46 0 67 0;
#X connect 47 0 67 0;
#X connect 48 0 67 0;
#X connect 49 0 67 0;
#X connect 50 0 41 0;
#X connect 51 0 34 0;
#X connect 52 0 35 0;
#X connect 53 0 36 0;
#X connect 54 0 37 0;
#X connect 55 0 38 0;
#X connect 56 0 39 0;
#X connect 57 0 40 0;
#X connect 58 0 101 0;
#X connect 59 0 49 0;
#X connect 60 0 42 0;
#X connect 61 0 43 0;
#X connect 62 0 44 0;
#X connect 63 0 45 0;
#X connect 64 0 46 0;
#X connect 65 0 47 0;
#X connect 66 0 48 0;
#X connect 67 0 101 0;
#X connect 68 0 102 0;
#X connect 69 0 102 0;
#X connect 70 0 102 0;
#X connect 71 0 102 0;
#X connect 72 0 102 0;
#X connect 73 0 102 0;
#X connect 74 0 102 0;
#X connect 75 0 102 0;
#X connect 76 0 103 0;
#X connect 77 0 103 0;
#X connect 78 0 103 0;
#X connect 79 0 103 0;
#X connect 80 0 103 0;
#X connect 81 0 103 0;
#X connect 82 0 103 0;
#X connect 83 0 103 0;
#X connect 84 0 104 0;
#X connect 85 0 104 0;
#X connect 86 0 104 0;
#X connect 87 0 104 0;
#X connect 88 0 104 0;
#X connect 89 0 104 0;
#X connect 90 0 104 0;
#X connect 91 0 104 0;
#X connect 92 0 105 0;
#X connect 93 0 105 0;
#X connect 94 0 105 0;
#X connect 95 0 105 0;
#X connect 96 0 105 0;
#X connect 97 0 105 0;
#X connect 98 0 105 0;
#X connect 99 0 105 0;
#X connect 101 0 100 0;
#X connect 102 0 100 0;
#X connect 103 0 100 0;
#X connect 104 0 100 0;
#X connect 105 0 100 0;
#X connect 106 0 98 0;
#X connect 107 0 97 0;
#X connect 108 0 96 0;
#X connect 109 0 95 0;
#X connect 110 0 94 0;
#X connect 111 0 93 0;
#X connect 112 0 92 0;
#X connect 113 0 99 0;
#X connect 114 0 91 0;
#X connect 115 0 84 0;
#X connect 116 0 85 0;
#X connect 117 0 86 0;
#X connect 118 0 87 0;
#X connect 119 0 88 0;
#X connect 120 0 89 0;
#X connect 121 0 90 0;
#X connect 122 0 83 0;
#X connect 123 0 76 0;
#X connect 124 0 77 0;
#X connect 125 0 78 0;
#X connect 126 0 79 0;
#X connect 127 0 80 0;
#X connect 128 0 81 0;
#X connect 129 0 82 0;
#X connect 130 0 75 0;
#X connect 131 0 68 0;
#X connect 132 0 69 0;
#X connect 133 0 70 0;
#X connect 134 0 71 0;
#X connect 135 0 72 0;
#X connect 136 0 73 0;
#X connect 137 0 74 0;
#X restore 17 58 pd all_modules;
#X obj 322 108 list append;
#X obj 322 48 t b a;
#X msg 322 68 1 \, 2 \, 3 \, 4 \, 5 \, 6 \, 7 \, 8;
#X msg 322 88 1 \$1 \, 2 \$1 \, 3 \$1 \, 4 \$1 \, 5 \$1 \, 6 \$1 \,
7 \$1 \, 8 \$1;
#X msg 179 94 1;
#X obj 179 74 loadbang;
#X obj 31 128 route reset_all;
#X obj 31 108 r mmm;
#X msg 31 148 1 1;
#X connect 0 0 4 0;
#X connect 1 0 3 1;
#X connect 2 0 0 0;
#X connect 2 1 1 0;
#X connect 3 0 19 0;
#X connect 4 1 3 0;
#X connect 5 0 24 0;
#X connect 9 0 10 0;
#X connect 11 0 21 0;
#X connect 11 1 12 0;
#X connect 11 3 2 0;
#X connect 11 4 0 0;
#X connect 11 5 1 0;
#X connect 11 6 15 0;
#X connect 11 7 7 0;
#X connect 11 7 18 0;
#X connect 12 0 9 0;
#X connect 12 1 13 0;
#X connect 13 0 10 1;
#X connect 15 0 17 0;
#X connect 15 0 16 0;
#X connect 18 0 10 0;
#X connect 22 0 11 0;
#X connect 23 0 6 0;
#X connect 24 0 25 0;
#X connect 24 1 23 1;
#X connect 25 0 26 0;
#X connect 26 0 23 0;
#X connect 27 0 1 0;
#X connect 27 0 0 0;
#X connect 28 0 27 0;
#X connect 29 0 31 0;
#X connect 30 0 29 0;
#X connect 31 0 11 0;
