#N canvas 358 219 708 496 10;
#N canvas 114 460 484 243 bpm 0;
#X obj 33 62 +;
#N canvas 0 22 458 308 localsmooth 0;
#X text 153 34 ein delay \, wie ihn mmm-f auch hat \, um lokale slider-bewegungen
schn schmoof zu halten;
#X obj 98 95 inlet;
#X obj 205 94 inlet;
#X obj 98 130 t a b;
#X msg 236 165 0;
#X msg 123 176 1;
#X obj 123 157 delay 1000;
#X obj 98 272 outlet;
#X obj 205 219 spigot 1;
#X connect 1 0 3 0;
#X connect 2 0 8 0;
#X connect 3 0 7 0;
#X connect 3 1 4 0;
#X connect 3 1 6 0;
#X connect 4 0 8 1;
#X connect 5 0 8 1;
#X connect 6 0 5 0;
#X connect 8 0 7 0;
#X restore 99 120 pd localsmooth;
#X obj 99 215 s mmm-bpm-r;
#X msg 99 194 label \$1;
#X obj 99 173 makefilename bpm:%d;
#X obj 33 82 clip 6 240;
#X obj 33 36 mmm-seq-slider mmm-bpm;
#X obj 178 85 mmm-a mmm bpm 126;
#X obj 301 185 outlet;
#X floatatom 340 104 5 0 0 0 - - -;
#X obj 361 177 print;
#X msg 325 44 0 \, 1;
#X floatatom 400 168 5 0 0 0 - - -;
#X obj 315 138 mmm-speedlimit 500;
#X connect 0 0 5 0;
#X connect 1 0 0 1;
#X connect 1 0 4 0;
#X connect 3 0 2 0;
#X connect 4 0 3 0;
#X connect 5 0 1 0;
#X connect 5 0 7 0;
#X connect 6 0 0 0;
#X connect 7 0 1 1;
#X connect 7 0 8 0;
#X connect 9 0 13 0;
#X connect 11 0 13 0;
#X connect 13 0 10 0;
#X connect 13 0 12 0;
#X restore 168 49 pd bpm;
#N canvas 269 263 600 320 tpp 0;
#X obj 33 62 +;
#N canvas 0 22 450 300 localsmooth 0;
#X text 153 34 ein delay \, wie ihn mmm-f auch hat \, um lokale slider-bewegungen
schn schmoof zu halten;
#X obj 98 95 inlet;
#X obj 325 94 inlet;
#X obj 98 130 t a b;
#X msg 356 165 0;
#X msg 123 176 1;
#X obj 123 157 delay 1000;
#X obj 98 272 outlet;
#X obj 325 219 spigot 1;
#X connect 1 0 3 0;
#X connect 2 0 8 0;
#X connect 3 0 7 0;
#X connect 3 1 4 0;
#X connect 3 1 6 0;
#X connect 4 0 8 1;
#X connect 5 0 8 1;
#X connect 6 0 5 0;
#X connect 8 0 7 0;
#X restore 99 120 pd localsmooth;
#X msg 99 194 label \$1;
#X obj 33 82 clip 1 16;
#X obj 99 173 makefilename tpp:%d;
#X msg 33 240 \; netpd-broadcast mmm tpp \$1;
#X obj 99 215 s mmm-tpp-r;
#X obj 438 163 s mmm-tpp-r;
#X obj 438 137 r mmm-font>;
#X obj 33 36 mmm-seq-slider mmm-tpp;
#X obj 178 85 mmm-a mmm tpp 16;
#X connect 0 0 3 0;
#X connect 1 0 0 1;
#X connect 1 0 4 0;
#X connect 3 0 1 0;
#X connect 3 0 5 0;
#X connect 4 0 2 0;
#X connect 8 0 7 0;
#X connect 9 0 0 0;
#X connect 10 0 1 1;
#X restore 17 71 pd tpp;
#N canvas 231 224 592 356 playpausestoprewind 0;
#X obj 35 33 r mmm-playpause;
#X msg 44 147 set \$1;
#X msg 264 146 set \$1;
#X obj 255 32 r mmm-stoprewind;
#X obj 317 140 b;
#N canvas 619 464 454 304 label 0;
#X obj 116 42 inlet;
#X obj 116 67 sel 0 1;
#X msg 134 139 label pause;
#X obj 116 166 s mmm-playpause-r;
#X msg 116 110 label play;
#X connect 0 0 1 0;
#X connect 1 0 4 0;
#X connect 1 1 2 0;
#X connect 2 0 3 0;
#X connect 4 0 3 0;
#X restore 143 146 pd label;
#X msg 35 253 \; netpd-broadcast mmm-live play \$1;
#X msg 255 214 \; netpd-broadcast mmm-live stop \$1;
#X obj 317 188 s mmm-transport>;
#X msg 317 166 stoprewind \, play 0;
#X msg 87 182 play \$1;
#X obj 87 203 s mmm-transport>;
#X msg 297 279 \; netpd-receive mmm-live play 0;
#X text 306 264 by eni;
#X obj 87 117 mmm-a mmm-live play 0;
#X obj 317 116 mmm-a mmm-live stop 0;
#N canvas 766 22 204 183 bit 0;
#X obj 20 27 inlet;
#X obj 20 127 outlet;
#X obj 70 97 == 0;
#X obj 20 97 f 1;
#X obj 20 57 route set;
#X connect 0 0 4 0;
#X connect 2 0 3 1;
#X connect 3 0 2 0;
#X connect 3 0 1 0;
#X connect 4 0 2 0;
#X connect 4 1 3 0;
#X restore 35 167 pd bit;
#N canvas 766 22 200 179 bit 0;
#X obj 20 27 inlet;
#X obj 20 127 outlet;
#X obj 70 97 == 0;
#X obj 20 97 f 1;
#X obj 20 57 route set;
#X connect 0 0 4 0;
#X connect 2 0 3 1;
#X connect 3 0 2 0;
#X connect 3 0 1 0;
#X connect 4 0 2 0;
#X connect 4 1 3 0;
#X restore 255 166 pd bit;
#X obj 35 115 b;
#X msg 118 224 1;
#X obj 255 115 b;
#X obj 255 93 mmm-speedlimit 200;
#X obj 35 93 mmm-speedlimit 55;
#X connect 0 0 22 0;
#X connect 1 0 16 0;
#X connect 2 0 17 0;
#X connect 3 0 21 0;
#X connect 4 0 9 0;
#X connect 4 0 12 0;
#X connect 9 0 8 0;
#X connect 10 0 11 0;
#X connect 14 0 1 0;
#X connect 14 0 10 0;
#X connect 14 0 5 0;
#X connect 15 0 2 0;
#X connect 15 0 4 0;
#X connect 16 0 6 0;
#X connect 17 0 7 0;
#X connect 18 0 16 0;
#X connect 19 0 6 0;
#X connect 20 0 17 0;
#X connect 21 0 20 0;
#X connect 22 0 18 0;
#X restore 17 91 pd playpausestoprewind;
#X obj 230 145 metro 100;
#X obj 272 79 pow -1;
#X obj 272 102 * 15000;
#X obj 230 205 f;
#X msg 326 151 0;
#X obj 258 205 + 1;
#N canvas 0 22 474 425 formattimecode 0;
#X obj 135 28 inlet;
#X obj 135 63 t f f;
#X obj 205 125 mod 16;
#X obj 135 125 div 16;
#N canvas 0 22 450 300 2digit 0;
#X obj 261 27 inlet;
#X obj 261 236 outlet;
#X obj 261 70 moses 10;
#X obj 261 142 makefilename :0%d;
#X obj 304 102 makefilename :%d;
#X connect 0 0 2 0;
#X connect 2 0 3 0;
#X connect 2 1 4 0;
#X connect 3 0 1 0;
#X connect 4 0 1 0;
#X restore 205 153 pd 2digit;
#N canvas 0 22 491 301 3digit 0;
#X obj 261 27 inlet;
#X obj 261 236 outlet;
#X obj 261 70 moses 10;
#X obj 261 192 makefilename :00%d;
#X obj 304 152 makefilename :0%d;
#X obj 347 122 makefilename :%d;
#X obj 304 91 moses 100;
#X connect 0 0 2 0;
#X connect 2 0 3 0;
#X connect 2 1 6 0;
#X connect 3 0 1 0;
#X connect 4 0 1 0;
#X connect 5 0 1 0;
#X connect 6 0 4 0;
#X connect 6 1 5 0;
#X restore 135 209 pd 3digit;
#X obj 205 234 makefilename pos%%s%s;
#X msg 205 257 set \$1;
#X obj 135 307 makefilename;
#X obj 135 340 outlet;
#X obj 236 61 inlet tpp;
#X connect 0 0 1 0;
#X connect 1 0 3 0;
#X connect 1 1 2 0;
#X connect 2 0 4 0;
#X connect 3 0 5 0;
#X connect 4 0 6 0;
#X connect 5 0 8 0;
#X connect 6 0 7 0;
#X connect 7 0 8 0;
#X connect 8 0 9 0;
#X connect 10 0 2 1;
#X connect 10 0 3 1;
#X restore 230 291 pd formattimecode;
#X msg 230 313 label \$1;
#X obj 230 357 s mmm-timecode-r;
#N canvas 269 263 604 324 shuffle 0;
#X obj 33 62 +;
#N canvas 0 22 479 338 localsmooth 0;
#X text 153 34 ein delay \, wie ihn mmm-f auch hat \, um lokale slider-bewegungen
schn schmoof zu halten;
#X obj 98 95 inlet;
#X obj 325 94 inlet;
#X obj 98 130 t a b;
#X msg 356 165 0;
#X msg 123 176 1;
#X obj 123 157 delay 1000;
#X obj 98 272 outlet;
#X obj 325 219 spigot 1;
#X connect 1 0 3 0;
#X connect 2 0 8 0;
#X connect 3 0 7 0;
#X connect 3 1 4 0;
#X connect 3 1 6 0;
#X connect 4 0 8 1;
#X connect 5 0 8 1;
#X connect 6 0 5 0;
#X connect 8 0 7 0;
#X restore 99 120 pd localsmooth;
#X msg 99 194 label \$1;
#X obj 312 151 f 126;
#X obj 312 130 b;
#X obj 99 215 s mmm-shuffle-r;
#X msg 33 240 \; netpd-broadcast mmm shuffle \$1;
#X obj 312 110 route getshuffle;
#X obj 33 82 clip 0 99;
#X obj 312 87 r >mmm-transport;
#X obj 312 196 s mmm-transport>;
#X msg 312 173 shuffle \$1;
#X obj 33 36 mmm-seq-slider mmm-shuffle;
#X obj 99 173 makefilename shuffle:%02d;
#X obj 160 83 mmm-a mmm shuffle 0;
#X connect 0 0 8 0;
#X connect 1 0 0 1;
#X connect 1 0 11 0;
#X connect 1 0 13 0;
#X connect 2 0 5 0;
#X connect 3 0 11 0;
#X connect 4 0 3 0;
#X connect 7 0 4 0;
#X connect 8 0 1 0;
#X connect 8 0 6 0;
#X connect 9 0 7 0;
#X connect 11 0 10 0;
#X connect 12 0 0 0;
#X connect 13 0 2 0;
#X connect 14 0 1 1;
#X restore 17 151 pd shuffle;
#X obj 230 52 route play bpm stoprewind tpp shuffle;
#N canvas 88 22 466 316 shuffle 0;
#X obj 83 44 inlet tick;
#X obj 216 43 inlet time;
#X obj 347 49 inlet shuffle;
#X obj 347 77 * 0.01;
#X obj 338 129 t b f;
#X obj 336 159 *;
#X obj 83 225 outlet;
#X obj 109 80 t f f;
#X obj 134 101 mod 2;
#X obj 134 127 *;
#X obj 109 163 pipe;
#X connect 0 0 7 0;
#X connect 1 0 5 0;
#X connect 2 0 3 0;
#X connect 3 0 4 0;
#X connect 4 0 5 0;
#X connect 4 1 5 1;
#X connect 5 0 9 1;
#X connect 7 0 10 0;
#X connect 7 1 8 0;
#X connect 8 0 9 0;
#X connect 9 0 10 1;
#X connect 10 0 6 0;
#X restore 230 249 pd shuffle;
#N canvas 493 295 597 304 loopstart 0;
#X obj 33 62 +;
#N canvas 0 22 450 300 localsmooth 0;
#X text 153 34 ein delay \, wie ihn mmm-f auch hat \, um lokale slider-bewegungen
schn schmoof zu halten;
#X obj 98 95 inlet;
#X obj 325 94 inlet;
#X obj 98 130 t a b;
#X msg 356 165 0;
#X msg 123 176 1;
#X obj 123 157 delay 1000;
#X obj 98 272 outlet;
#X obj 325 219 spigot 1;
#X connect 1 0 3 0;
#X connect 2 0 8 0;
#X connect 3 0 7 0;
#X connect 3 1 4 0;
#X connect 3 1 6 0;
#X connect 4 0 8 1;
#X connect 5 0 8 1;
#X connect 6 0 5 0;
#X connect 8 0 7 0;
#X restore 99 120 pd localsmooth;
#X msg 99 194 label \$1;
#X obj 312 110 b;
#X obj 312 151 f 16;
#X obj 33 82 clip 0 15;
#X obj 99 173 makefilename loopstart:%d;
#X obj 99 215 s mmm-loopstart-r;
#X msg 33 240 \; netpd-broadcast mmm loopstart \$1;
#X obj 312 90 route getloopstart;
#X obj 450 132 s mmm-loopstart-r;
#X obj 450 111 r mmm-font>;
#X obj 312 68 r >mmm-transport;
#X obj 312 197 s mmm-transport>;
#X msg 312 173 loopstart \$1;
#X obj 33 36 mmm-seq-slider mmm-loopstart;
#X obj 178 85 mmm-a mmm loopstart 0;
#X connect 0 0 5 0;
#X connect 1 0 0 1;
#X connect 1 0 4 0;
#X connect 1 0 6 0;
#X connect 2 0 7 0;
#X connect 3 0 4 0;
#X connect 4 0 14 0;
#X connect 5 0 1 0;
#X connect 5 0 8 0;
#X connect 6 0 2 0;
#X connect 9 0 3 0;
#X connect 11 0 10 0;
#X connect 12 0 9 0;
#X connect 14 0 13 0;
#X connect 15 0 0 0;
#X connect 16 0 1 1;
#X restore 17 111 pd loopstart;
#N canvas 493 295 607 374 looplength 0;
#X obj 33 62 +;
#N canvas 0 22 450 300 localsmooth 0;
#X text 153 34 ein delay \, wie ihn mmm-f auch hat \, um lokale slider-bewegungen
schn schmoof zu halten;
#X obj 98 95 inlet;
#X obj 325 94 inlet;
#X obj 98 130 t a b;
#X msg 356 165 0;
#X msg 123 176 1;
#X obj 123 157 delay 1000;
#X obj 98 272 outlet;
#X obj 325 219 spigot 1;
#X connect 1 0 3 0;
#X connect 2 0 8 0;
#X connect 3 0 7 0;
#X connect 3 1 4 0;
#X connect 3 1 6 0;
#X connect 4 0 8 1;
#X connect 5 0 8 1;
#X connect 6 0 5 0;
#X connect 8 0 7 0;
#X restore 99 120 pd localsmooth;
#X msg 124 224 label \$1;
#X obj 312 110 b;
#X obj 312 151 f 16;
#X obj 33 82 clip 0 15;
#X obj 312 90 route getlooplength;
#X obj 450 132 s mmm-looplength-r;
#X obj 124 203 makefilename looplength:%d;
#X obj 124 245 s mmm-looplength-r;
#X msg 33 298 \; netpd-broadcast mmm looplength \$1;
#X obj 99 150 sel 0;
#X msg 99 175 label loop_off;
#X obj 450 112 r mmm-font>;
#X obj 312 200 s mmm-transport>;
#X msg 312 173 looplength \$1;
#X obj 312 50 r >mmm-transport;
#X obj 33 36 mmm-seq-slider mmm-looplength;
#X obj 178 65 mmm-a mmm looplength 1;
#X connect 0 0 5 0;
#X connect 1 0 0 1;
#X connect 1 0 4 0;
#X connect 1 0 11 0;
#X connect 2 0 9 0;
#X connect 3 0 4 0;
#X connect 4 0 15 0;
#X connect 5 0 1 0;
#X connect 5 0 10 0;
#X connect 6 0 3 0;
#X connect 8 0 2 0;
#X connect 11 0 12 0;
#X connect 11 1 8 0;
#X connect 12 0 9 0;
#X connect 13 0 7 0;
#X connect 15 0 14 0;
#X connect 16 0 6 0;
#X connect 17 0 0 0;
#X connect 18 0 1 1;
#X restore 17 131 pd looplength;
#N canvas 273 188 500 544 loop 0;
#X obj 60 27 inlet;
#X obj 75 396 outlet;
#X obj 121 173 mod 16;
#X obj 92 123 div 16;
#X obj 253 57 route tpp loopstart looplength;
#X obj 121 194 == 0;
#X obj 105 150 +;
#X obj 320 87 t b f;
#X obj 388 146 != 0;
#X obj 92 171 >=;
#X obj 75 358 spigot;
#X obj 234 264 * 16;
#X obj 233 233 t b f;
#X obj 221 315 f;
#X obj 108 273 sel 3;
#X obj 60 62 t b f f f;
#X msg 60 218 1;
#X msg 118 309 0;
#X obj 221 389 outlet;
#X text 36 427 hoffe \, das funktioniert so mit ner feedback-schleife
;
#X obj 108 244 + 1;
#X obj 108 217 + 0;
#X obj 253 35 r mmm-transport>;
#X connect 0 0 15 0;
#X connect 2 0 5 0;
#X connect 3 0 9 0;
#X connect 4 0 2 1;
#X connect 4 0 3 1;
#X connect 4 0 12 0;
#X connect 4 1 6 0;
#X connect 4 1 11 0;
#X connect 4 2 7 0;
#X connect 4 2 8 0;
#X connect 5 0 21 1;
#X connect 6 0 9 1;
#X connect 7 0 6 0;
#X connect 7 1 6 1;
#X connect 8 0 20 1;
#X connect 9 0 21 0;
#X connect 10 0 1 0;
#X connect 11 0 13 1;
#X connect 12 0 11 0;
#X connect 12 1 11 1;
#X connect 13 0 18 0;
#X connect 14 0 13 0;
#X connect 14 0 17 0;
#X connect 15 0 16 0;
#X connect 15 1 10 0;
#X connect 15 2 3 0;
#X connect 15 3 2 0;
#X connect 16 0 10 1;
#X connect 17 0 10 1;
#X connect 20 0 14 0;
#X connect 21 0 20 0;
#X connect 22 0 4 0;
#X restore 230 225 pd loop;
#X obj 478 86 r mmm;
#X obj 230 22 r mmm-transport>;
#X obj 340 312 r mmm-font>;
#X obj 541 193 b;
#N canvas 0 22 450 300 slim200 0;
#X obj 62 45 inlet;
#X obj 87 206 outlet;
#X obj 62 78 t b a;
#X obj 87 171 spigot 1;
#X msg 130 111 0;
#X msg 62 135 1;
#X text 187 89 simple message speedlimit;
#X obj 62 111 delay 200;
#X connect 0 0 2 0;
#X connect 2 0 4 0;
#X connect 2 0 7 0;
#X connect 2 1 3 0;
#X connect 3 0 1 0;
#X connect 4 0 3 1;
#X connect 5 0 3 1;
#X connect 7 0 5 0;
#X restore 541 213 pd slim200;
#X obj 553 285 r mmm-globalgui>;
#X obj 553 305 route animation;
#X obj 556 347 sel 0;
#X obj 541 255 s >mmm-globalgui;
#X msg 541 234 toggle_animation;
#X msg 556 367 label pos:-;
#X obj 541 173 r mmm-timecode;
#X obj 230 334 spigot 1;
#X obj 230 271 spigot;
#X obj 230 175 spigot 1;
#X msg 339 336 set 0;
#X obj 62 397 outlet timecode;
#X msg 159 154 bang;
#X obj 32 297 mod 16;
#X obj 62 337 sel 0;
#X obj 62 357 f;
#X obj 62 377 div 16;
#X obj 32 417 s mmm-steps;
#X obj 32 317 t a a;
#X obj 439 152 route play pos;
#X obj 478 106 route reset_all preferences;
#N canvas 45 386 462 312 minilauflicht 0;
#X floatatom 18 58 5 0 0 0 - - -;
#X obj 18 37 mod 16;
#X obj 17 16 inlet;
#X floatatom 92 55 5 0 0 0 - - -;
#X obj 181 67 r mmm;
#X obj 181 87 route pattern;
#X obj 181 107 route scroll;
#X obj 100 171 moses;
#X obj 181 127 * 16;
#X floatatom 142 106 5 0 0 0 - - -;
#X floatatom 61 137 5 0 0 0 - - -;
#X floatatom 132 236 5 0 0 0 - - -;
#X obj 136 254 bng 15 250 50 0 empty empty empty 17 7 0 10 -262144
-1 -1;
#X floatatom 218 210 5 0 0 0 - - -;
#X obj 222 228 bng 15 250 50 0 empty empty empty 17 7 0 10 -262144
-1 -1;
#X obj 131 215 moses 16;
#X floatatom 184 158 5 0 0 0 - - -;
#X floatatom 73 218 5 0 0 0 - - -;
#X obj 77 236 bng 15 250 50 0 empty empty empty 17 7 0 10 -262144 -1
-1;
#X obj 130 194 - 0;
#X connect 1 0 0 0;
#X connect 2 0 3 0;
#X connect 4 0 5 0;
#X connect 5 0 6 0;
#X connect 6 0 8 0;
#X connect 7 1 17 0;
#X connect 7 1 19 0;
#X connect 8 0 7 1;
#X connect 8 0 16 0;
#X connect 8 0 19 1;
#X connect 9 0 8 0;
#X connect 10 0 7 0;
#X connect 11 0 12 0;
#X connect 13 0 14 0;
#X connect 15 0 11 0;
#X connect 17 0 18 0;
#X connect 19 0 15 0;
#X restore 245 440 pd minilauflicht;
#X obj 32 277 t a a a;
#N canvas 0 22 466 316 benchmarks 0;
#X obj 113 157 + 1;
#X obj 73 157 f 0;
#X obj 148 158 mod 16;
#X obj 65 208 t b a b;
#X obj 158 248 realtime;
#X floatatom 145 111 5 0 0 0 - - -;
#X obj 46 252 outlet;
#X obj 106 110 bng 15 250 50 0 empty empty empty 17 7 0 10 -262144
-1 -1;
#X obj 41 66 inlet;
#X connect 0 0 2 0;
#X connect 1 0 0 0;
#X connect 1 0 3 0;
#X connect 2 0 1 1;
#X connect 3 0 4 1;
#X connect 3 1 6 0;
#X connect 3 2 4 0;
#X connect 4 0 5 0;
#X connect 7 0 1 0;
#X connect 8 0 3 0;
#X coords 0 -1 1 1 85 33 2 100 100;
#X restore 38 223 pd benchmarks;
#X msg 37 179 0;
#X msg 97 179 16;
#X msg 67 179 1;
#X floatatom 96 203 5 0 0 0 - - -;
#X msg 17 21 version 0.3.20;
#X connect 0 0 4 0;
#X connect 3 0 32 0;
#X connect 4 0 5 0;
#X connect 5 0 14 1;
#X connect 5 0 3 1;
#X connect 6 0 8 0;
#X connect 6 0 17 0;
#X connect 7 0 6 1;
#X connect 7 0 9 0;
#X connect 8 0 6 1;
#X connect 9 0 10 0;
#X connect 10 0 30 0;
#X connect 13 0 3 0;
#X connect 13 2 7 0;
#X connect 13 3 9 1;
#X connect 13 4 14 2;
#X connect 14 0 45 0;
#X connect 17 0 14 0;
#X connect 17 1 6 0;
#X connect 18 0 43 0;
#X connect 19 0 13 0;
#X connect 20 0 11 0;
#X connect 20 0 33 0;
#X connect 21 0 22 0;
#X connect 21 0 33 0;
#X connect 22 0 27 0;
#X connect 23 0 24 0;
#X connect 24 0 25 0;
#X connect 24 0 30 1;
#X connect 25 0 28 0;
#X connect 27 0 26 0;
#X connect 28 0 11 0;
#X connect 29 0 21 0;
#X connect 30 0 11 0;
#X connect 31 0 9 0;
#X connect 32 0 6 0;
#X connect 33 0 11 0;
#X connect 35 0 6 0;
#X connect 36 0 41 0;
#X connect 37 0 38 0;
#X connect 38 0 39 0;
#X connect 39 0 34 0;
#X connect 41 0 40 0;
#X connect 41 1 37 0;
#X connect 42 0 32 1;
#X connect 42 1 31 1;
#X connect 42 1 25 0;
#X connect 43 0 7 0;
#X connect 43 1 42 0;
#X connect 45 0 36 0;
#X connect 45 1 38 1;
#X connect 45 2 44 0;
#X connect 46 0 45 0;
#X connect 47 0 46 0;
#X connect 48 0 46 0;
#X connect 49 0 46 0;
#X connect 50 0 46 0;
