#N canvas 302 22 513 328 10;
#X obj 18 24 loadbang;
#X obj 18 94 f \$2;
#X obj 281 24 inlet;
#X msg 389 204 resize \$1;
#X obj 18 114 sel 0;
#X obj 333 24 inlet resize;
#X obj 121 44 route \$1;
#X obj 121 24 r mmm-table-sizereq;
#X obj 190 214 list prepend \$1;
#X obj 190 254 s mmm-table-size;
#X obj 190 234 list trim;
#X obj 190 164 t a a;
#X obj 18 54 t b b;
#X obj 369 254 s \$1-L;
#X obj 389 234 s \$1-R;
#X obj 403 74 t a;
#X obj 389 184 change \$2;
#X obj 333 74 moses \$2;
#X obj 18 234 table \$1-L \$2;
#X obj 18 254 table \$1-R \$2;
#X obj 190 144 f \$2;
#N canvas 0 22 232 208 table 0;
#X obj 24 133 list append \$1;
#X obj 24 113 r mmm-table-namereq;
#X obj 24 153 s mmm-table-names;
#X obj 24 43 t b b;
#X obj 53 63 s mmm-table-name-reset;
#X obj 24 83 s mmm-table-namereq;
#X obj 24 23 inlet;
#X connect 0 0 2 0;
#X connect 1 0 0 0;
#X connect 3 0 5 0;
#X connect 3 1 4 0;
#X connect 6 0 3 0;
#X restore 48 74 pd table name register;
#X obj 18 144 f 22050;
#X msg 367 129 version 0.3.0;
#X connect 0 0 12 0;
#X connect 1 0 4 0;
#X connect 2 0 13 0;
#X connect 2 0 14 0;
#X connect 3 0 13 0;
#X connect 3 0 14 0;
#X connect 4 0 22 0;
#X connect 4 1 20 0;
#X connect 5 0 17 0;
#X connect 6 0 20 0;
#X connect 7 0 6 0;
#X connect 8 0 10 0;
#X connect 10 0 9 0;
#X connect 11 0 8 0;
#X connect 11 1 16 0;
#X connect 12 0 1 0;
#X connect 12 1 21 0;
#X connect 15 0 17 1;
#X connect 16 0 3 0;
#X connect 17 1 15 0;
#X connect 17 1 20 0;
#X connect 20 0 11 0;
#X connect 22 0 20 0;
