#N canvas 615 22 581 679 10;
#X obj 20 302 t a a;
#N canvas 62 22 561 435 module-scroll 0;
#X obj 156 147 f;
#X obj 188 147 +;
#N canvas 0 22 454 304 slim200 0;
#X obj 62 45 inlet;
#X obj 87 206 outlet;
#X obj 62 78 t b a;
#X obj 87 171 spigot 1;
#X msg 130 111 0;
#X msg 62 135 1;
#X text 187 89 simple message speedlimit;
#X obj 62 111 delay 200;
#X connect 0 0 2 0;
#X connect 2 0 4 0;
#X connect 2 0 7 0;
#X connect 2 1 3 0;
#X connect 3 0 1 0;
#X connect 4 0 3 1;
#X connect 5 0 3 1;
#X connect 7 0 5 0;
#X restore 260 78 pd slim200;
#X msg 260 138 0;
#X obj 188 207 clip 0 0;
#X obj 406 307 outlet;
#X obj 260 18 r mmm;
#X obj 384 27 inlet set;
#X obj 406 267 change -1;
#X msg 406 247 set -1;
#X obj 73 290 r mmm-font>;
#X obj 23 340 s module-selector-r;
#X obj 23 18 r module-selector;
#X obj 188 167 int;
#X obj 229 250 > 0;
#X obj 229 270 sel 0 1;
#X obj 384 67 t b b a a;
#X msg 23 290 set 0;
#X obj 260 38 route reset_all;
#X obj 260 58 b;
#X msg 251 290 color 8 8 22;
#X msg 229 310 color 8 8 20;
#X connect 0 0 1 1;
#X connect 1 0 13 0;
#X connect 2 0 3 0;
#X connect 3 0 4 0;
#X connect 4 0 0 0;
#X connect 4 0 8 0;
#X connect 6 0 18 0;
#X connect 7 0 16 0;
#X connect 8 0 5 0;
#X connect 9 0 8 0;
#X connect 10 0 11 0;
#X connect 12 0 1 0;
#X connect 12 0 17 0;
#X connect 13 0 4 0;
#X connect 14 0 15 0;
#X connect 15 0 21 0;
#X connect 15 1 20 0;
#X connect 16 0 3 0;
#X connect 16 1 9 0;
#X connect 16 2 4 2;
#X connect 16 3 14 0;
#X connect 17 0 11 0;
#X connect 18 0 19 0;
#X connect 19 0 2 0;
#X connect 20 0 11 0;
#X connect 21 0 11 0;
#X restore 20 442 pd module-scroll;
#X obj 20 482 list;
#X obj 20 502 list split;
#N canvas 222 147 691 433 get_selection 0;
#X obj 586 39 inlet;
#X obj 54 340 outlet;
#X obj 449 191 s 1-module-selector-r;
#X obj 449 211 s 2-module-selector-r;
#X obj 449 231 s 3-module-selector-r;
#X obj 449 251 s 4-module-selector-r;
#X obj 449 271 s 5-module-selector-r;
#X obj 449 291 s 6-module-selector-r;
#X obj 449 131 r mmm-font>;
#X obj 22 20 r 1-module-selector;
#X obj 162 20 r 2-module-selector;
#X obj 302 20 r 3-module-selector;
#X obj 442 20 r 4-module-selector;
#X obj 22 60 r 5-module-selector;
#X obj 162 60 r 6-module-selector;
#X msg 22 40 1;
#X msg 162 40 2;
#X msg 302 40 3;
#X msg 442 40 4;
#X msg 22 80 5;
#X msg 162 80 6;
#X obj 22 160 list;
#X obj 22 190 list split;
#X obj 54 210 list split 1;
#X obj 62 160 - 1;
#X obj 22 130 t b a a;
#X obj 83 250 list prepend;
#X obj 54 230 t a a;
#X msg 83 300 \; \$1-module-selector-r set 0 \, label \$2;
#N canvas 64 72 285 339 add 0;
#X obj 17 18 inlet;
#N canvas 0 22 533 407 drip 0;
#X obj 64 206 list split 1;
#X obj 64 123 until;
#X obj 64 181 list append;
#X obj 194 206 bang;
#X text 146 90 First store list \, then start the loop;
#X text 163 118 "until" bangs its output until told to stop by a "bang"
to its right inlet.;
#X text 182 160 Store the remaining list.;
#X text 239 205 third outlet of "split" tells us to stop.;
#X obj 64 243 outlet;
#X obj 64 57 inlet;
#X text 237 44 From list-help.pd;
#X obj 143 243 outlet;
#X obj 64 86 t b a;
#X connect 0 0 8 0;
#X connect 0 1 2 1;
#X connect 0 2 3 0;
#X connect 0 2 11 0;
#X connect 1 0 2 0;
#X connect 2 0 0 0;
#X connect 3 0 1 1;
#X connect 9 0 12 0;
#X connect 12 0 1 0;
#X connect 12 1 2 1;
#X restore 39 78 pd drip;
#X obj 17 48 t b a b;
#X obj 149 148 t b a;
#X obj 17 248 until;
#X msg 17 288 symbol empty;
#X obj 149 188 f;
#X obj 17 158 f;
#X obj 149 278 outlet;
#X obj 149 258 list append;
#X obj 149 228 t a a a;
#X obj 149 208 + 1;
#X msg 207 137 0;
#X obj 17 228 -;
#X obj 17 188 moses 8;
#X msg 17 208 8 \$1;
#X connect 0 0 2 0;
#X connect 1 0 3 0;
#X connect 2 0 7 0;
#X connect 2 1 1 0;
#X connect 2 2 12 0;
#X connect 3 0 6 0;
#X connect 3 1 9 1;
#X connect 4 0 5 0;
#X connect 5 0 3 0;
#X connect 6 0 11 0;
#X connect 7 0 14 0;
#X connect 9 0 8 0;
#X connect 10 0 9 0;
#X connect 10 1 7 1;
#X connect 10 2 6 1;
#X connect 11 0 10 0;
#X connect 12 0 6 1;
#X connect 13 0 4 0;
#X connect 14 0 15 0;
#X connect 15 0 13 0;
#X restore 185 250 pd add module-selector-no and emptys;
#X obj 130 133 t a a;
#X obj 449 311 s 7-module-selector-r;
#X obj 449 331 s 8-module-selector-r;
#X obj 302 60 r 7-module-selector;
#X msg 302 80 7;
#X obj 442 60 r 8-module-selector;
#X msg 442 80 8;
#X connect 0 0 30 0;
#X connect 8 0 2 0;
#X connect 8 0 3 0;
#X connect 8 0 4 0;
#X connect 8 0 5 0;
#X connect 8 0 6 0;
#X connect 8 0 7 0;
#X connect 8 0 31 0;
#X connect 8 0 32 0;
#X connect 9 0 15 0;
#X connect 10 0 16 0;
#X connect 11 0 17 0;
#X connect 12 0 18 0;
#X connect 13 0 19 0;
#X connect 14 0 20 0;
#X connect 15 0 25 0;
#X connect 16 0 25 0;
#X connect 17 0 25 0;
#X connect 18 0 25 0;
#X connect 19 0 25 0;
#X connect 20 0 25 0;
#X connect 21 0 22 0;
#X connect 22 1 23 0;
#X connect 23 0 27 0;
#X connect 24 0 22 1;
#X connect 25 0 21 0;
#X connect 25 1 24 0;
#X connect 25 2 26 1;
#X connect 26 0 28 0;
#X connect 27 0 1 0;
#X connect 27 1 26 0;
#X connect 29 0 28 0;
#X connect 30 0 21 1;
#X connect 30 1 29 0;
#X connect 33 0 34 0;
#X connect 34 0 25 0;
#X connect 35 0 36 0;
#X connect 36 0 25 0;
#X restore 52 562 pd get_selection;
#X obj 20 422 max 0;
#X obj 52 612 s mmm;
#X msg 52 592 module create \$1;
#X msg 243 542 symbol empty;
#X obj 20 282 list trim;
#N canvas 732 22 505 225 gem 0;
#X obj 17 17 inlet;
#X obj 17 177 outlet;
#X obj 17 37 t b b;
#X msg 17 67 gem gemwin gem gemhead gem camera gem light gem spot_light
gem world_light gem 2d_objects gem cone gem cube gem cuboid gem curve
gem curve3d gem cylinder gem disk gem primTri gem rectangle gem sphere
gem torus gem tube gem accumrotate gem colorHSV gem colorRGB gem rotateXYZ
gem scaleXYZ gem shear gem translateXYZ gem pix_set gem pix_snap2tex
gem pix_texture gem pix_write;
#X connect 0 0 2 0;
#X connect 2 0 3 0;
#X connect 3 0 1 0;
#X restore 211 211 pd gem;
#N canvas 0 22 636 436 basic 0;
#X obj 16 12 inlet;
#X obj 16 331 outlet;
#X msg 157 183 envelope ar envelope line~ envelope vadsr envelope vead
envelope t3_adsr;
#X obj 16 42 t b b b b b;
#X obj 16 301 list append;
#X obj 16 271 list append;
#X msg 16 221 sequencer notes sequencer notes2 sequencer newton sequencer
motor sequencer apreciator sequencer transport;
#X msg 147 93 generator sinus generator sinus2 generator triangle generator
square generator sawtooth generator beating generator fuzzed-FM generator
mod-formant generator noise generator tangent generator bentsaw generator
rmpt generator rmpt2 generator sig~ generator wavepackets generator
samplehold generator slopes;
#X connect 0 0 3 0;
#X connect 2 0 4 1;
#X connect 3 0 6 0;
#X connect 3 1 2 0;
#X connect 3 2 7 0;
#X connect 4 0 1 0;
#X connect 5 0 4 0;
#X connect 6 0 5 0;
#X connect 7 0 5 1;
#X restore 477 209 pd basic;
#N canvas 0 22 482 332 tools 0;
#X obj 17 17 inlet;
#X obj 17 177 outlet;
#X obj 17 37 t b b;
#X msg 17 67 tools audioIN tools audioOUT tools waveplayer tools wavelooper
tools mp3player tools mp3stream;
#X connect 0 0 2 0;
#X connect 2 0 3 0;
#X connect 3 0 1 0;
#X restore 262 210 pd tools;
#N canvas 531 67 529 249 fx 0;
#X obj 17 17 inlet;
#X obj 17 177 outlet;
#X obj 17 37 t b b;
#X msg 17 67 fx distort fx sender fx delay fx multitapdelay fx pingpongdelay
fx reverb1 fx reverb2 fx reverb3 fx piano-reverb fx reverberator fx
rphase fx rcomp fx zlimit fx pitchshifter fx erosion fx panner fx 2rect
fx highpass fx lowpass fx bandpass fx waveshape-1 fx butterworth3~
fx 2p2z-filter fx spectralgate fx shaper fx 3-band-eq;
#X connect 0 0 2 0;
#X connect 2 0 3 0;
#X connect 3 0 1 0;
#X restore 168 211 pd fx;
#N canvas 0 22 474 324 MIDI 0;
#X obj 17 17 inlet;
#X obj 17 177 outlet;
#X obj 17 37 t b b;
#X msg 17 67 MIDI MIDI_notein;
#X connect 0 0 2 0;
#X connect 2 0 3 0;
#X connect 3 0 1 0;
#X restore 412 210 pd MIDI;
#N canvas 10 22 690 680 abslist 0;
#X msg 31 26 4m-sinusblip;
#X msg 161 26 4m-distort;
#X msg 161 46 4m-sender;
#X msg 161 66 4m-rcomp;
#X msg 161 86 4m-rphase;
#X msg 161 106 4m-zlimit;
#X msg 291 146 4m-sinus;
#X msg 291 506 4m-ar;
#X msg 161 446 4m-2rect;
#X msg 161 126 4m-pitchshifter;
#X msg 291 266 4m-bentsaw;
#X msg 161 426 4m-panner;
#X msg 291 186 4m-sawtooth;
#X msg 291 206 4m-square;
#X msg 291 286 4m-tangent;
#X msg 291 306 4m-triangle;
#X msg 401 46 4m-gemhead;
#X msg 401 26 4m-gemwin;
#X msg 291 26 4m-notes;
#X msg 291 126 4m-transport;
#X msg 291 246 4m-noise;
#X msg 291 326 4m-rmpt;
#X msg 291 166 4m-sinus2;
#X msg 291 346 4m-rmpt2;
#X msg 31 336 4m-kilodrum;
#X msg 31 236 4m-drumdelta;
#X msg 531 26 4m-accumrotate;
#X msg 531 66 4m-colorRGB;
#X msg 401 196 4m-cube;
#X msg 531 86 4m-rotateXYZ;
#X msg 531 106 4m-scaleXYZ;
#X msg 401 356 4m-sphere;
#X msg 531 146 4m-translateXYZ;
#X msg 401 66 4m-camera;
#X msg 401 176 4m-cone;
#X msg 401 216 4m-cuboid;
#X msg 401 236 4m-curve;
#X msg 401 256 4m-curve3d;
#X msg 401 156 4m-2d_objects;
#X msg 401 376 4m-torus;
#X msg 401 126 4m-world_light;
#X msg 401 106 4m-spot_light;
#X msg 401 396 4m-tube;
#X msg 401 276 4m-cylinder;
#X msg 531 46 4m-colorHSV;
#X msg 401 296 4m-disk;
#X msg 401 86 4m-light;
#X msg 531 176 4m-pix_set;
#X msg 401 336 4m-rectangle;
#X msg 531 126 4m-shear;
#X msg 401 316 4m-primTri;
#X msg 31 166 4m-karplusstrong;
#X msg 31 186 4m-PD-303s;
#X msg 161 146 4m-erosion;
#X msg 531 196 4m-pix_snap2tex;
#X msg 531 216 4m-pix_texture;
#X msg 531 236 4m-pix_write;
#X msg 291 546 4m-vadsr;
#X msg 291 526 4m-t3_adsr;
#X msg 291 566 4m-vead;
#X msg 31 316 4m-kicksnare;
#X msg 31 106 4m-gbuzz;
#X msg 31 416 4m-ddrum;
#X msg 291 466 4m-sig~;
#X msg 291 486 4m-line~;
#X msg 31 356 4m-onehandclap;
#X msg 291 226 4m-mod-formant;
#X msg 31 126 4m-oxygen;
#X msg 31 146 4m-daisy;
#X msg 161 166 4m-reverb1;
#X msg 161 226 4m-reverb2;
#X msg 161 246 4m-reverb3;
#X msg 161 186 4m-reverb1-stage;
#X msg 161 206 4m-reverb1-final;
#X msg 291 46 4m-notes2;
#X msg 291 106 4m-apreciator;
#X msg 161 326 4m-delay;
#X msg 161 366 4m-multitapdelay;
#X msg 291 66 4m-newton;
#X msg 291 86 4m-motor;
#X msg 161 386 4m-pingpongdelay;
#X msg 161 346 4m-delay-2;
#X msg 31 376 4m-ps-drums;
#X msg 31 396 4m-kick-it;
#X msg 161 406 4m-waveshape-1;
#X msg 291 366 4m-beating;
#X msg 161 526 4m-butterworth3~;
#X msg 161 266 4m-piano-reverb;
#X msg 161 286 4m-reverberator;
#X msg 161 306 4m-reverb-echo;
#X msg 291 406 4m-wavepackets;
#X msg 291 426 4m-samplehold;
#X msg 291 446 4m-slopes;
#X msg 161 546 4m-octaver;
#X msg 531 266 4m-audioIN;
#X msg 531 286 4m-audioOUT;
#X msg 161 566 4m-2p2z-filter;
#X msg 161 586 4m-spectralgate;
#X msg 531 426 4m-loop;
#X msg 531 306 4m-waveplayer;
#X msg 531 346 4m-mp3player;
#X msg 531 366 4m-mp3stream;
#X msg 531 396 4m-MIDI_notein;
#X msg 161 606 4m-shaper;
#X msg 531 446 4m-sampler;
#X msg 531 466 4m-rockafella;
#X msg 531 326 4m-wavelooper;
#X msg 291 386 4m-fuzzed-FM;
#X msg 31 256 4m-delta-kick;
#X msg 31 276 4m-delta-snare;
#X msg 31 296 4m-delta-hihat;
#X msg 161 626 4m-3-band-eq;
#X msg 31 436 4m-dkick;
#X msg 31 456 4m-dsnare;
#X msg 31 476 4m-dhihat;
#X msg 31 496 4m-dclap;
#X msg 31 516 4m-dtom;
#X msg 161 466 4m-highpass;
#X msg 161 486 4m-lowpass;
#X msg 161 506 4m-bandpass;
#X msg 31 66 4m-addsynth;
#X msg 31 46 4m-subsynth;
#X msg 31 86 4m-padsynth;
#X restore 167 38 pd abslist;
#N canvas 0 22 490 340 Sampling 0;
#X obj 17 17 inlet;
#X obj 17 177 outlet;
#X obj 17 37 t b b;
#X msg 17 67 sampling loop sampling sampler sampling rockafella;
#X connect 0 0 2 0;
#X connect 2 0 3 0;
#X connect 3 0 1 0;
#X restore 322 210 pd Sampling;
#X obj 20 38 t b b b b b b b b;
#X obj 63 252 list append;
#X obj 20 222 list;
#X obj 105 222 t a a;
#X msg 36 78 drums kilodrum drums delta-kick drums delta-snare drums
delta-hihat drums dkick drums dsnare drums dhihat drums dclap drums
dtom drums kicksnare drums onehandclap drums ps-drums drums kick-it
;
#N canvas 193 22 349 410 get-instruments-of-cat 0;
#X obj 152 21 inlet liste;
#X obj 129 141 until;
#X obj 129 161 list append;
#X obj 129 181 list split 2;
#X obj 25 342 outlet;
#X obj 129 111 t b a b;
#X obj 25 312 list;
#X obj 48 272 list prepend;
#X obj 25 21 inlet kategorie;
#X obj 129 91 list;
#X obj 225 171 b;
#X obj 48 292 t a;
#N canvas 120 232 164 176 sroute 0;
#X obj 78 21 inlet;
#X obj 20 51 list split 1;
#X obj 20 21 inlet;
#X obj 20 121 outlet;
#X obj 20 91 list;
#X obj 20 71 sel empty;
#X connect 0 0 5 1;
#X connect 1 0 5 0;
#X connect 1 1 4 1;
#X connect 2 0 1 0;
#X connect 4 0 3 0;
#X connect 5 0 4 0;
#X restore 48 242 pd sroute;
#X obj 25 51 t b b a;
#X obj 265 171 b;
#X connect 0 0 9 1;
#X connect 1 0 2 0;
#X connect 2 0 3 0;
#X connect 3 0 12 0;
#X connect 3 1 2 1;
#X connect 3 2 10 0;
#X connect 5 0 1 0;
#X connect 5 1 2 1;
#X connect 5 2 14 0;
#X connect 6 0 4 0;
#X connect 7 0 11 0;
#X connect 8 0 13 0;
#X connect 9 0 5 0;
#X connect 10 0 1 1;
#X connect 11 0 6 1;
#X connect 11 0 7 1;
#X connect 12 0 7 0;
#X connect 13 0 6 0;
#X connect 13 1 9 0;
#X connect 13 2 12 1;
#X connect 14 0 11 0;
#X restore 20 342 pd get-instruments-of-cat;
#N canvas 267 155 508 370 get-and-scroll-cats 0;
#X obj 35 147 list;
#X obj 35 167 list split;
#X obj 66 187 list split 1;
#N canvas 24 22 427 365 kategorien_scroller 0;
#X obj 94 157 +;
#N canvas 0 22 454 304 slim200 0;
#X obj 62 45 inlet;
#X obj 87 206 outlet;
#X obj 62 78 t b a;
#X obj 87 171 spigot 1;
#X msg 130 111 0;
#X msg 62 135 1;
#X text 187 89 simple message speedlimit;
#X obj 62 111 delay 200;
#X connect 0 0 2 0;
#X connect 2 0 4 0;
#X connect 2 0 7 0;
#X connect 2 1 3 0;
#X connect 3 0 1 0;
#X connect 4 0 3 1;
#X connect 5 0 3 1;
#X connect 7 0 5 0;
#X restore 171 57 pd slim200;
#X msg 171 157 0;
#X obj 94 207 clip 0 0;
#X obj 288 280 outlet;
#X obj 171 17 r mmm;
#X obj 288 260 change -1;
#X obj 258 87 inlet set;
#X msg 288 240 set -1;
#X msg 23 261 set 0;
#X obj 94 177 int;
#X obj 302 169 - 1;
#X obj 258 107 t b b a;
#X obj 23 291 s categorie-selector-r;
#X obj 23 17 r categorie-selector;
#X obj 76 261 r mmm-font>;
#X obj 61 157 f 0;
#X obj 302 149 mmm-length;
#X obj 171 37 route reset_all;
#X connect 0 0 10 0;
#X connect 1 0 2 0;
#X connect 2 0 3 0;
#X connect 3 0 6 0;
#X connect 3 0 16 0;
#X connect 5 0 18 0;
#X connect 6 0 4 0;
#X connect 7 0 12 0;
#X connect 8 0 6 0;
#X connect 9 0 13 0;
#X connect 10 0 3 0;
#X connect 11 0 3 2;
#X connect 12 0 2 0;
#X connect 12 1 8 0;
#X connect 12 2 17 0;
#X connect 14 0 9 0;
#X connect 14 0 0 0;
#X connect 15 0 13 0;
#X connect 16 0 0 1;
#X connect 17 0 11 0;
#X connect 18 0 1 0;
#X restore 35 107 pd kategorien_scroller;
#X msg 116 217 label \$1;
#X obj 66 237 outlet;
#X text 35 257 die komplette moduleliste wird eingelesen \, der selector
darauf eingestellt und ab geht die post \, und bei bettigung des kategorienwaehlers
wird die aktuelle kategorie ausgegeben \, auch als label fuer den selector
;
#N canvas 0 22 384 261 list-reduce-doubles 0;
#N canvas 323 272 549 423 drip 0;
#X obj 64 206 list split 1;
#X obj 64 123 until;
#X obj 64 181 list append;
#X obj 64 243 outlet;
#X obj 64 57 inlet;
#X obj 64 86 t b a;
#X obj 194 206 b;
#X connect 0 0 3 0;
#X connect 0 1 2 1;
#X connect 0 2 6 0;
#X connect 1 0 2 0;
#X connect 2 0 0 0;
#X connect 4 0 5 0;
#X connect 5 0 1 0;
#X connect 5 1 2 1;
#X connect 6 0 1 1;
#X restore 52 73 pd drip;
#X obj 194 133 t a a a;
#X obj 22 123 list;
#X obj 22 53 t b a;
#X obj 22 23 inlet;
#X obj 22 153 outlet;
#X obj 193 23 inlet;
#N canvas 207 128 427 448 list-sieve-symbols 0;
#X obj 100 19 inlet;
#X obj 200 117 list;
#X obj 223 19 inlet;
#X obj 35 321 outlet;
#X obj 100 39 t b a b;
#X obj 248 351 spigot 1;
#X obj 35 281 t b b;
#X obj 248 371 outlet;
#X msg 332 120 1;
#X msg 284 311 0;
#N canvas 0 22 541 415 drip 0;
#X obj 64 206 list split 1;
#X obj 64 123 until;
#X obj 64 181 list append;
#X obj 194 206 bang;
#X text 146 90 First store list \, then start the loop;
#X text 163 118 "until" bangs its output until told to stop by a "bang"
to its right inlet.;
#X text 182 160 Store the remaining list.;
#X text 239 205 third outlet of "split" tells us to stop.;
#X obj 64 243 outlet;
#X obj 64 57 inlet;
#X text 237 44 From list-help.pd;
#X obj 143 243 outlet;
#X obj 64 86 t b a;
#X connect 0 0 8 0;
#X connect 0 1 2 1;
#X connect 0 2 3 0;
#X connect 0 2 11 0;
#X connect 1 0 2 0;
#X connect 2 0 0 0;
#X connect 3 0 1 1;
#X connect 9 0 12 0;
#X connect 12 0 1 0;
#X connect 12 1 2 1;
#X restore 200 137 pd drip;
#X obj 35 211 t b a a;
#X obj 35 261 select empty;
#X obj 35 241 list;
#X obj 248 331 list;
#X obj 35 301 list;
#X connect 0 0 4 0;
#X connect 1 0 10 0;
#X connect 2 0 1 1;
#X connect 4 0 1 0;
#X connect 4 1 14 1;
#X connect 4 1 13 1;
#X connect 4 2 8 0;
#X connect 5 0 7 0;
#X connect 6 0 15 0;
#X connect 6 1 9 0;
#X connect 8 0 5 1;
#X connect 9 0 5 1;
#X connect 10 0 11 0;
#X connect 10 1 14 0;
#X connect 11 0 13 0;
#X connect 11 1 12 1;
#X connect 11 2 15 1;
#X connect 12 0 6 0;
#X connect 13 0 12 0;
#X connect 14 0 5 0;
#X connect 15 0 3 0;
#X restore 52 93 pd list-sieve-symbols;
#X obj 194 113 list append;
#X connect 0 0 7 0;
#X connect 1 0 2 1;
#X connect 1 1 7 1;
#X connect 1 2 8 1;
#X connect 2 0 5 0;
#X connect 3 0 2 0;
#X connect 3 1 0 0;
#X connect 4 0 3 0;
#X connect 6 0 7 1;
#X connect 6 0 8 1;
#X connect 7 1 8 0;
#X connect 8 0 1 0;
#X restore 35 67 pd list-reduce-doubles;
#N canvas 228 70 290 339 list-remove-every-second-item 0;
#X obj 28 22 inlet liste;
#X obj 47 82 until;
#X obj 47 102 list append;
#X obj 47 122 list split 2;
#X obj 47 142 list split 1;
#X obj 28 232 outlet;
#X obj 28 202 list;
#X obj 157 82 b;
#X obj 47 182 t a;
#X obj 28 52 t b b a b;
#X obj 47 162 list append;
#X obj 138 22 inlet set;
#X connect 0 0 9 0;
#X connect 1 0 2 0;
#X connect 2 0 3 0;
#X connect 3 0 4 0;
#X connect 3 1 2 1;
#X connect 3 2 7 0;
#X connect 4 0 10 0;
#X connect 6 0 5 0;
#X connect 7 0 1 1;
#X connect 8 0 6 1;
#X connect 8 0 10 1;
#X connect 9 0 6 0;
#X connect 9 1 1 0;
#X connect 9 2 2 1;
#X connect 9 3 10 1;
#X connect 10 0 8 0;
#X connect 11 0 8 0;
#X restore 35 47 pd list-remove-every-second-item;
#X obj 35 127 t b a;
#X obj 35 27 inlet module-list;
#X obj 116 237 s categorie-selector-r;
#X obj 35 87 t a a;
#X obj 329 27 inlet reset;
#X connect 0 0 1 0;
#X connect 1 1 2 0;
#X connect 2 0 5 0;
#X connect 2 0 4 0;
#X connect 3 0 9 0;
#X connect 4 0 11 0;
#X connect 7 0 12 0;
#X connect 8 0 7 0;
#X connect 9 0 0 0;
#X connect 9 1 1 1;
#X connect 10 0 8 0;
#X connect 12 0 3 0;
#X connect 12 1 0 1;
#X connect 13 0 8 1;
#X connect 13 0 7 1;
#X connect 13 0 0 1;
#X restore 20 322 pd get-and-scroll-cats;
#X obj 20 362 t a a;
#X obj 243 502 r clear_module;
#X obj 152 444 t a;
#X obj 20 462 t b a;
#X obj 20 382 mmm-length;
#X obj 20 18 inlet;
#N canvas 0 22 458 308 speedlimit 0;
#X obj 62 45 inlet;
#X obj 87 206 outlet;
#X obj 62 78 t b a;
#X obj 87 171 spigot 1;
#X msg 130 111 0;
#X msg 62 135 1;
#X obj 62 111 delay 200;
#X connect 0 0 2 0;
#X connect 2 0 4 0;
#X connect 2 0 6 0;
#X connect 2 1 3 0;
#X connect 3 0 1 0;
#X connect 4 0 3 1;
#X connect 5 0 3 1;
#X connect 6 0 5 0;
#X restore 243 522 pd speedlimit;
#X msg 20 134 synths sinusblip synths subsynth synths addsynth synths
padsynth synths gbuzz synths oxygen synths daisy;
#X msg 167 18 version 0.3.1;
#X obj 52 522 list split 8;
#X obj 20 402 - 8;
#X connect 0 0 23 0;
#X connect 0 1 22 1;
#X connect 1 0 27 0;
#X connect 2 0 3 0;
#X connect 3 1 33 0;
#X connect 4 0 7 0;
#X connect 5 0 1 0;
#X connect 7 0 6 0;
#X connect 8 0 7 0;
#X connect 9 0 0 0;
#X connect 10 0 18 0;
#X connect 11 0 18 0;
#X connect 12 0 18 0;
#X connect 13 0 18 0;
#X connect 14 0 18 0;
#X connect 16 0 18 0;
#X connect 17 0 31 0;
#X connect 17 1 21 0;
#X connect 17 2 13 0;
#X connect 17 3 10 0;
#X connect 17 4 12 0;
#X connect 17 5 16 0;
#X connect 17 6 14 0;
#X connect 17 7 11 0;
#X connect 18 0 20 0;
#X connect 19 0 9 0;
#X connect 20 0 19 1;
#X connect 20 1 18 1;
#X connect 21 0 18 0;
#X connect 22 0 24 0;
#X connect 23 0 22 0;
#X connect 24 0 28 0;
#X connect 24 1 26 0;
#X connect 25 0 30 0;
#X connect 26 0 2 1;
#X connect 27 0 2 0;
#X connect 27 1 3 1;
#X connect 28 0 34 0;
#X connect 29 0 17 0;
#X connect 30 0 8 0;
#X connect 31 0 19 0;
#X connect 33 0 4 0;
#X connect 33 2 4 0;
#X connect 34 0 5 0;
