#N canvas 336 22 644 347 10;
#X text 17 14 [mmm-module-register \$1 <name> <#controllers>];
#X obj 19 144 b;
#X obj 208 164 loadbang;
#X obj 208 204 s >mmm-transport;
#X msg 208 184 gettpp \, getbpm;
#X obj 19 104 r \$1;
#X obj 19 124 route querymodule;
#X obj 19 204 s >mmm-sequencer;
#X msg 19 184 registermodule \$1 \$2;
#X obj 19 44 namecanvas \$1-mmm-module-register;
#N canvas 570 38 535 547 hot-controller 0;
#X obj 26 168 route info;
#N canvas 0 22 213 244 sroute 0;
#X obj 98 91 inlet;
#X obj 40 61 list split 1;
#X obj 40 31 inlet;
#X obj 40 181 outlet;
#X obj 40 151 list;
#X obj 40 121 select 1;
#X connect 0 0 5 1;
#X connect 1 0 5 0;
#X connect 1 1 4 1;
#X connect 2 0 1 0;
#X connect 4 0 3 0;
#X connect 5 0 4 0;
#X restore 26 188 pd sroute 1;
#X msg 195 261 bang;
#X obj 225 301 == 0;
#X obj 195 301 f 0;
#X obj 195 321 sel 0 1;
#X msg 195 371 0;
#X obj 195 441 list trim;
#X obj 195 481 s netpd-broadcast;
#X obj 289 25 r mmm;
#X obj 289 45 route module;
#X obj 289 65 route activate deactivate;
#X obj 289 285 route \$1;
#X obj 195 241 spigot 1;
#X obj 208 351 route 0;
#X obj 229 371 f 50;
#X msg 211 281 0;
#X obj 280 351 spigot;
#X obj 317 331 f 0;
#X obj 344 331 f 1;
#X obj 344 311 del 500;
#X obj 229 391 t a b;
#X obj 289 135 list append 1;
#X obj 386 135 list append 0;
#N canvas 0 22 217 248 sroute 0;
#X obj 119 91 inlet;
#X obj 40 61 list split 1;
#X obj 40 31 inlet;
#X obj 40 181 outlet;
#X obj 40 151 list;
#X obj 40 121 select empty;
#X connect 0 0 5 1;
#X connect 1 0 5 0;
#X connect 1 1 4 1;
#X connect 2 0 1 0;
#X connect 4 0 3 0;
#X connect 5 0 4 0;
#X restore 75 278 pd sroute;
#X obj 75 258 r \$1;
#X obj 195 461 route empty;
#X obj 26 208 unpack s f f f;
#X obj 73 371 list prepend \$1;
#X obj 195 421 list prepend \$1 empty;
#X obj 328 185 makefilename %%d-%d;
#X obj 289 165 unpack f f f;
#X msg 328 205 set \$1;
#X obj 289 225 makefilename;
#X obj 289 245 pack s f;
#X obj 289 265 list trim;
#X obj 195 221 r \$1-module;
#X obj 289 85 list;
#X obj 289 105 route symbol;
#X msg 246 135 0;
#X obj 379 85 list;
#X obj 379 105 route symbol;
#X obj 256 241 tgl 15 0 empty empty empty 17 7 0 10 -262144 -1 -1 0
1;
#X connect 0 0 1 0;
#X connect 1 0 27 0;
#X connect 2 0 4 0;
#X connect 3 0 4 1;
#X connect 4 0 3 0;
#X connect 4 0 5 0;
#X connect 5 0 6 0;
#X connect 5 1 15 0;
#X connect 6 0 29 0;
#X connect 7 0 26 0;
#X connect 9 0 10 0;
#X connect 10 0 11 0;
#X connect 11 0 37 0;
#X connect 11 1 40 0;
#X connect 12 0 13 1;
#X connect 12 0 42 0;
#X connect 13 0 2 0;
#X connect 14 1 15 1;
#X connect 14 1 17 0;
#X connect 15 0 21 0;
#X connect 16 0 4 1;
#X connect 17 0 16 0;
#X connect 18 0 17 1;
#X connect 19 0 17 1;
#X connect 20 0 19 0;
#X connect 21 0 29 0;
#X connect 21 1 18 0;
#X connect 21 1 20 0;
#X connect 22 0 31 0;
#X connect 23 0 31 0;
#X connect 24 0 14 0;
#X connect 25 0 24 0;
#X connect 26 1 8 0;
#X connect 27 0 24 1;
#X connect 27 0 28 0;
#X connect 28 0 29 1;
#X connect 29 0 7 0;
#X connect 30 0 32 0;
#X connect 31 0 33 0;
#X connect 31 1 30 0;
#X connect 31 2 34 1;
#X connect 32 0 33 0;
#X connect 33 0 34 0;
#X connect 34 0 35 0;
#X connect 35 0 12 0;
#X connect 36 0 13 0;
#X connect 37 0 38 0;
#X connect 38 0 39 0;
#X connect 38 1 22 0;
#X connect 39 0 13 1;
#X connect 39 0 42 0;
#X connect 40 0 41 0;
#X connect 41 0 39 0;
#X connect 41 1 23 0;
#X restore 19 74 pd hot-controller;
#X obj 19 164 list append \$2 \$3;
#X msg 257 44 version 0.2.2;
#X obj 366 73 r mmm;
#X obj 366 93 route module;
#X obj 366 113 route activate;
#X obj 366 133 t b b;
#X obj 366 203 pack f f;
#X obj 366 163 value mmm-active-row;
#X obj 416 183 value mmm-active-col;
#X obj 366 263 until;
#X msg 366 243 6;
#X obj 366 303 s;
#X obj 366 223 t b a b;
#X obj 19 244 loadbang;
#X obj 19 306 print warning;
#X msg 19 274 sorry: mmm-module-register depreciated please use mmm-module!
;
#X connect 1 0 11 0;
#X connect 2 0 4 0;
#X connect 4 0 3 0;
#X connect 5 0 6 0;
#X connect 6 0 1 0;
#X connect 8 0 7 0;
#X connect 11 0 8 0;
#X connect 13 0 14 0;
#X connect 14 0 15 0;
#X connect 15 0 16 0;
#X connect 16 0 18 0;
#X connect 16 1 19 0;
#X connect 17 0 23 0;
#X connect 18 0 17 0;
#X connect 19 0 17 1;
#X connect 21 0 20 0;
#X connect 23 0 21 0;
#X connect 24 0 26 0;
#X connect 26 0 25 0;
