#N canvas 202 22 545 362 10;
#X obj 18 269 mmm-x mmm-xxx;
#N canvas 522 22 663 587 dump 0;
#X obj 37 77 r data.dump;
#X obj 37 97 route mmm-xxx;
#X obj 127 464 s data.dump;
#X msg 157 36 bang;
#X text 153 17 dump an sich selbst test;
#N canvas 525 186 199 209 netpd-socket 0;
#X obj 15 15 inlet;
#X obj 15 75 s netpd-getsocket;
#X obj 15 95 r netpd-socket;
#X obj 15 115 spigot;
#X obj 15 35 t b b;
#X msg 45 55 1;
#X obj 15 135 t a b;
#X msg 74 124 0;
#X obj 15 155 outlet;
#X connect 0 0 4 0;
#X connect 2 0 3 0;
#X connect 3 0 6 0;
#X connect 4 0 1 0;
#X connect 4 1 5 0;
#X connect 5 0 3 1;
#X connect 6 0 8 0;
#X connect 6 1 7 0;
#X connect 7 0 3 1;
#X restore 157 56 pd netpd-socket;
#X text 73 151 sollte mal vielleicht etwas kuerzeres rausfinden;
#X msg 37 407 mmm \$1 \, mmm-live \$1;
#X obj 194 416 list trim;
#X text 199 209 module content;
#X text 52 389 mmm data;
#X obj 194 396 list append;
#X obj 194 226 t b b a;
#X msg 188 279 1-1 \, 2-1 \, 3-1 \, 4-1 \, 5-1 \, 6-1 \, 7-1 \, 8-1
\, 1-2 \, 2-2 \, 3-2 \, 4-2 \, 5-2 \, 6-2 \, 7-2 \, 8-2 \, 1-3 \, 2-3
\, 3-3 \, 4-3 \, 5-3 \, 6-3 \, 7-3 \, 8-3 \, 1-4 \, 2-4 \, 3-4 \, 4-4
\, 5-4 \, 6-4 \, 7-4 \, 8-4 \, 1-5 \, 2-5 \, 3-5 \, 4-5 \, 5-5 \, 6-5
\, 7-5 \, 8-5 \, 1-6 \, 2-6 \, 3-6 \, 4-6 \, 5-6 \, 6-6 \, 7-6 \, 8-6
\, 1-7 \, 2-7 \, 3-7 \, 4-7 \, 5-7 \, 6-7 \, 7-7 \, 8-7 \, 1-8 \, 2-8
\, 3-8 \, 4-8 \, 5-8 \, 6-8 \, 7-8 \, 8-8;
#X msg 216 246 1--2 \, 2--2 \, 3--2 \, 4--2 \, 5--2 \, 6--2 \, 7--2
\, 8--2 \, 1--1 \, 2--1 \, 3--1 \, 4--1 \, 5--1 \, 6--1 \, 7--1 \,
8--1;
#X obj 37 117 t a a a;
#X msg 66 167 \; netpd-send \$1 instant-msg mmm rebuild-dsp-chain;
#X connect 0 0 1 0;
#X connect 1 0 15 0;
#X connect 3 0 5 0;
#X connect 5 0 15 0;
#X connect 7 0 2 0;
#X connect 8 0 2 0;
#X connect 11 0 8 0;
#X connect 12 0 13 0;
#X connect 12 1 14 0;
#X connect 12 2 11 1;
#X connect 13 0 11 0;
#X connect 14 0 11 0;
#X connect 15 0 7 0;
#X connect 15 1 16 0;
#X connect 15 2 12 0;
#X restore 86 209 pd dump;
#N canvas 72 22 489 294 save 0;
#X obj 18 198 outlet;
#X obj 310 125 r data.getpreset;
#X obj 310 145 sel mmm-xxx;
#X obj 18 148 savepanel;
#X msg 18 168 -save \$1;
#X obj 18 68 t b b;
#X obj 112 68 t b b;
#X obj 206 68 t b b;
#N canvas 44 22 656 391 song 0;
#X obj 22 303 symbol;
#X obj 22 23 inlet;
#X obj 389 23 r data.preset;
#X obj 389 63 spigot;
#X obj 475 103 list prepend mmm-xxx;
#X obj 475 143 s data.preset;
#X obj 389 83 route mmm-xxx;
#X obj 475 123 list trim;
#X obj 22 323 s data.getpreset;
#X obj 83 23 inlet;
#X obj 22 93 spigot;
#X msg 71 93 0;
#X msg 66 133 type song \, version 0.3.x atlantis;
#X msg 44 163 mmm \, 1--2 \, 2--2 \, 3--2 \, 4--2 \, 5--2 \, 6--2 \,
7--2 \, 8--2 \, 1--1 \, 2--1 \, 3--1 \, 4--1 \, 5--1 \, 6--1 \, 7--1
\, 8--1;
#X msg 22 203 1-1 \, 2-1 \, 3-1 \, 4-1 \, 5-1 \, 6-1 \, 7-1 \, 8-1
\, 1-2 \, 2-2 \, 3-2 \, 4-2 \, 5-2 \, 6-2 \, 7-2 \, 8-2 \, 1-3 \, 2-3
\, 3-3 \, 4-3 \, 5-3 \, 6-3 \, 7-3 \, 8-3 \, 1-4 \, 2-4 \, 3-4 \, 4-4
\, 5-4 \, 6-4 \, 7-4 \, 8-4 \, 1-5 \, 2-5 \, 3-5 \, 4-5 \, 5-5 \, 6-5
\, 7-5 \, 8-5 \, 1-6 \, 2-6 \, 3-6 \, 4-6 \, 5-6 \, 6-6 \, 7-6 \, 8-6
\, 1-7 \, 2-7 \, 3-7 \, 4-7 \, 5-7 \, 6-7 \, 7-7 \, 8-7 \, 1-8 \, 2-8
\, 3-8 \, 4-8 \, 5-8 \, 6-8 \, 7-8 \, 8-8;
#X obj 22 113 t b b b;
#X connect 0 0 8 0;
#X connect 1 0 10 0;
#X connect 2 0 3 0;
#X connect 3 0 6 0;
#X connect 4 0 7 0;
#X connect 6 1 4 0;
#X connect 7 0 5 0;
#X connect 9 0 3 1;
#X connect 9 0 10 1;
#X connect 10 0 11 0;
#X connect 10 0 15 0;
#X connect 11 0 10 1;
#X connect 12 0 4 0;
#X connect 13 0 0 0;
#X connect 14 0 0 0;
#X connect 15 0 14 0;
#X connect 15 1 13 0;
#X connect 15 2 12 0;
#X restore 172 221 pd song;
#N canvas 342 22 757 586 channel 0;
#X obj 22 260 symbol;
#X obj 22 130 spigot;
#X msg 71 130 0;
#X obj 22 10 inlet;
#X obj 153 10 inlet;
#X obj 382 17 r data.preset;
#X obj 382 57 spigot;
#X obj 443 470 list prepend mmm-xxx;
#X obj 443 510 s data.preset;
#X obj 382 77 route mmm-xxx;
#X obj 443 490 list trim;
#X obj 22 280 s data.getpreset;
#X obj 644 100 t a;
#X obj 469 200 mmm-routeandpp 1;
#X obj 469 230 mmm-routeandpp 2;
#X obj 469 260 mmm-routeandpp 3;
#X obj 469 290 mmm-routeandpp 4;
#X obj 469 320 mmm-routeandpp 5;
#X obj 469 350 mmm-routeandpp 6;
#X obj 469 380 mmm-routeandpp 7;
#X obj 469 410 mmm-routeandpp 8;
#X obj 22 150 b;
#X obj 22 170 value mmm-active-row;
#X obj 469 170 mmm-routeandpp -1;
#X obj 22 190 t a b a;
#X msg 44 210 type channel \, version 0.3.x atlantis;
#X msg 22 240 \$1--2 \, \$1--1 \, \$1-1 \, \$1-2 \, \$1-3 \, \$1-4
\, \$1-5 \, \$1-6 \, \$1-7 \, \$1-8;
#X obj 469 140 mmm-routeandpp -2;
#X connect 0 0 11 0;
#X connect 1 0 2 0;
#X connect 1 0 21 0;
#X connect 2 0 1 1;
#X connect 3 0 1 0;
#X connect 4 0 6 1;
#X connect 4 0 1 1;
#X connect 5 0 6 0;
#X connect 6 0 9 0;
#X connect 7 0 10 0;
#X connect 9 1 27 0;
#X connect 10 0 8 0;
#X connect 12 0 13 1;
#X connect 12 0 14 1;
#X connect 12 0 15 1;
#X connect 12 0 16 1;
#X connect 12 0 17 1;
#X connect 12 0 18 1;
#X connect 12 0 19 1;
#X connect 12 0 20 1;
#X connect 12 0 23 1;
#X connect 12 0 27 1;
#X connect 13 0 7 0;
#X connect 13 1 14 0;
#X connect 14 0 7 0;
#X connect 14 1 15 0;
#X connect 15 0 7 0;
#X connect 15 1 16 0;
#X connect 16 0 7 0;
#X connect 16 1 17 0;
#X connect 17 0 7 0;
#X connect 17 1 18 0;
#X connect 18 0 7 0;
#X connect 18 1 19 0;
#X connect 19 0 7 0;
#X connect 19 1 20 0;
#X connect 20 0 7 0;
#X connect 21 0 22 0;
#X connect 22 0 24 0;
#X connect 23 0 7 0;
#X connect 23 1 13 0;
#X connect 24 0 26 0;
#X connect 24 1 25 0;
#X connect 24 2 12 0;
#X connect 25 0 7 0;
#X connect 26 0 0 0;
#X connect 27 0 7 0;
#X connect 27 1 23 0;
#X restore 230 221 pd channel;
#N canvas 505 114 660 537 module 0;
#X obj 16 48 spigot;
#X msg 65 48 0;
#X obj 16 18 inlet;
#X obj 82 18 inlet;
#X obj 232 113 r data.preset;
#X obj 232 153 spigot;
#X obj 357 413 list prepend mmm-xxx;
#X obj 357 453 s data.preset;
#X obj 232 173 route mmm-xxx;
#X obj 357 433 list trim;
#X obj 318 193 list split 1;
#X obj 16 202 t a a;
#X obj 410 284 s data.getstate;
#X obj 410 304 r data.state;
#X obj 410 324 spigot;
#X obj 388 244 t b a b;
#X obj 487 324 f 1;
#X obj 459 324 f 0;
#X obj 410 344 list split 2;
#X msg 449 364 channel insert \$1;
#X obj 16 452 s data.getpreset;
#X obj 16 68 t b b b;
#X obj 15 142 value mmm-active-row;
#X obj 67 162 value mmm-active-col;
#X obj 16 182 pack f f;
#X msg 16 222 symbol \$1-\$2;
#X msg 60 88 type module \, version 0.3.x atlantis;
#X msg 410 264 \$1--2 \$2-channel;
#X connect 0 0 1 0;
#X connect 0 0 21 0;
#X connect 1 0 0 1;
#X connect 2 0 0 0;
#X connect 3 0 0 1;
#X connect 3 0 5 1;
#X connect 4 0 5 0;
#X connect 5 0 8 0;
#X connect 6 0 9 0;
#X connect 8 1 10 0;
#X connect 9 0 7 0;
#X connect 10 1 6 0;
#X connect 11 0 25 0;
#X connect 11 1 15 0;
#X connect 13 0 14 0;
#X connect 14 0 18 0;
#X connect 15 0 17 0;
#X connect 15 1 27 0;
#X connect 15 2 16 0;
#X connect 16 0 14 1;
#X connect 17 0 14 1;
#X connect 18 1 19 0;
#X connect 19 0 6 0;
#X connect 21 0 22 0;
#X connect 21 1 23 0;
#X connect 21 2 26 0;
#X connect 22 0 24 0;
#X connect 23 0 24 1;
#X connect 24 0 11 0;
#X connect 25 0 20 0;
#X connect 26 0 6 0;
#X connect 27 0 12 0;
#X restore 310 221 pd module;
#X msg 48 88 1 0 0;
#X obj 152 159 unpack f f f;
#X msg 142 88 0 1 0;
#X msg 236 88 0 0 1;
#X obj 152 139 t a;
#X obj 18 18 inlet;
#X obj 18 48 select save_song save_channel save_module;
#X connect 1 0 2 0;
#X connect 2 0 8 0;
#X connect 2 0 9 0;
#X connect 2 0 10 0;
#X connect 3 0 4 0;
#X connect 4 0 0 0;
#X connect 5 0 3 0;
#X connect 5 1 11 0;
#X connect 6 0 3 0;
#X connect 6 1 13 0;
#X connect 7 0 3 0;
#X connect 7 1 14 0;
#X connect 11 0 15 0;
#X connect 12 0 8 1;
#X connect 12 1 9 1;
#X connect 12 2 10 1;
#X connect 13 0 15 0;
#X connect 14 0 15 0;
#X connect 15 0 12 0;
#X connect 16 0 17 0;
#X connect 17 0 5 0;
#X connect 17 1 6 0;
#X connect 17 2 7 0;
#X restore 69 239 pd save;
#N canvas 135 29 775 626 load 0;
#X obj 59 159 outlet;
#X obj 29 89 openpanel;
#X obj 29 49 t b b;
#X msg 176 174 1 0 0;
#X obj 176 204 unpack f f f;
#X msg 228 174 0 1 0;
#X msg 280 174 0 0 1;
#X msg 59 139 -load \$1;
#X obj 139 296 spigot;
#X obj 219 276 spigot;
#X obj 369 256 spigot;
#X obj 398 54 r data.preload;
#X obj 398 74 route mmm-xxx;
#X obj 219 296 list split 1;
#X obj 219 386 list append;
#X obj 219 406 list trim;
#X obj 369 306 route channel;
#X obj 369 326 route insert;
#X obj 369 346 list prepend;
#X obj 470 394 list prepend;
#X obj 470 414 list trim;
#X obj 139 516 s netpd-broadcast;
#X obj 548 54 r mmm-font>;
#X obj 219 346 list append;
#X obj 29 119 t b a;
#X msg 29 456 instant-msg mmm rebuild-dsp-chain;
#X obj 398 94 route type;
#X obj 176 134 symbol;
#X obj 176 154 sel song channel module;
#X obj 548 74 s load-r;
#X msg 549 374 symbol \$1-\$2;
#X obj 497 212 value mmm-active-row;
#X obj 549 232 value mmm-active-col;
#X obj 498 252 pack f f;
#X obj 497 192 t b b;
#X obj 29 19 inlet;
#X msg 219 366 symbol \$2-\$1;
#X msg 369 366 \$1--2 \$2-channel \$3;
#X connect 1 0 24 0;
#X connect 2 0 1 0;
#X connect 2 1 34 0;
#X connect 3 0 4 0;
#X connect 4 0 8 1;
#X connect 4 1 9 1;
#X connect 4 2 10 1;
#X connect 5 0 4 0;
#X connect 6 0 4 0;
#X connect 7 0 0 0;
#X connect 8 0 21 0;
#X connect 9 0 13 0;
#X connect 10 0 16 0;
#X connect 11 0 12 0;
#X connect 12 0 26 0;
#X connect 13 0 23 0;
#X connect 13 1 14 1;
#X connect 14 0 15 0;
#X connect 15 0 21 0;
#X connect 16 0 17 0;
#X connect 16 1 19 0;
#X connect 17 0 18 0;
#X connect 18 0 37 0;
#X connect 19 0 20 0;
#X connect 20 0 21 0;
#X connect 22 0 29 0;
#X connect 23 0 36 0;
#X connect 24 0 25 0;
#X connect 24 1 7 0;
#X connect 25 0 21 0;
#X connect 26 0 27 0;
#X connect 26 1 10 0;
#X connect 26 1 9 0;
#X connect 26 1 8 0;
#X connect 27 0 28 0;
#X connect 28 0 3 0;
#X connect 28 1 5 0;
#X connect 28 2 6 0;
#X connect 30 0 19 1;
#X connect 31 0 33 0;
#X connect 31 0 23 1;
#X connect 32 0 33 1;
#X connect 33 0 18 1;
#X connect 33 0 30 0;
#X connect 34 0 31 0;
#X connect 34 1 32 0;
#X connect 35 0 2 0;
#X connect 36 0 14 0;
#X connect 37 0 21 0;
#X restore 18 219 pd load;
#X obj 123 19 r mmm-file;
#X obj 18 149 inlet;
#X msg 54 59 \; mmm-select 0 \, file load save_song save_channel save_module
;
#X obj 18 169 spigot;
#X obj 155 99 r mmm-select;
#X msg 155 139 0;
#X obj 155 119 route 0;
#X msg 123 129 1;
#X obj 18 189 sel load;
#X msg 18 19 version 0.3.3;
#X connect 2 0 0 0;
#X connect 3 0 0 0;
#X connect 4 0 6 0;
#X connect 4 0 11 0;
#X connect 5 0 7 0;
#X connect 7 0 12 0;
#X connect 8 0 10 0;
#X connect 9 0 7 1;
#X connect 10 0 9 0;
#X connect 11 0 7 1;
#X connect 12 0 3 0;
#X connect 12 1 2 0;
