#N canvas 458 22 434 507 10;
#X obj 11 52 inlet ctrl;
#N canvas 610 269 611 507 outputs 0;
#X obj 139 456 outlet;
#X obj 279 135 -;
#X obj 280 175 moses 1;
#X msg 280 195 0;
#X obj 161 176 spigot;
#X obj 198 416 s mmm-seq-slider;
#X obj 198 386 list prepend;
#N canvas 645 334 608 434 list-find-and-replace 0;
#N canvas 0 22 549 423 drip 0;
#X obj 64 206 list split 1;
#X obj 64 123 until;
#X obj 64 181 list append;
#X obj 194 206 bang;
#X obj 64 243 outlet;
#X obj 64 57 inlet;
#X obj 143 243 outlet;
#X obj 64 86 t b a;
#X connect 0 0 4 0;
#X connect 0 1 2 1;
#X connect 0 2 3 0;
#X connect 0 2 6 0;
#X connect 1 0 2 0;
#X connect 2 0 0 0;
#X connect 3 0 1 1;
#X connect 5 0 7 0;
#X connect 7 0 1 0;
#X connect 7 1 2 1;
#X restore 171 130 pd drip;
#X obj 26 24 inlet;
#X obj 226 24 inlet;
#X obj 250 230 t a;
#X obj 25 306 list;
#X obj 25 336 outlet;
#X msg 171 190 empty;
#X obj 171 260 list prepend;
#X obj 316 24 inlet;
#X obj 425 304 outlet;
#X obj 316 144 route 1 2;
#X obj 316 124 list trim;
#X obj 316 104 list prepend;
#X obj 425 54 t a b;
#X msg 455 74 2;
#X obj 26 54 list split 1;
#X obj 171 110 t a b;
#X obj 379 54 t a b;
#X msg 409 74 1;
#X msg 44 280 \$1:\$2;
#X obj 25 146 list prepend \$4;
#X obj 44 260 list prepend \$4;
#X obj 171 170 moses -0.5;
#X obj 26 101 moses -0.5;
#X obj 27 121 b;
#X connect 0 0 22 0;
#X connect 1 0 15 0;
#X connect 2 0 22 1;
#X connect 2 0 23 1;
#X connect 3 0 7 1;
#X connect 4 0 5 0;
#X connect 6 0 7 0;
#X connect 7 0 3 0;
#X connect 7 0 4 1;
#X connect 8 0 12 0;
#X connect 10 0 21 0;
#X connect 10 1 7 0;
#X connect 11 0 10 0;
#X connect 12 0 11 0;
#X connect 13 0 9 0;
#X connect 13 1 14 0;
#X connect 14 0 12 1;
#X connect 15 0 23 0;
#X connect 15 1 16 0;
#X connect 16 0 0 0;
#X connect 16 1 7 1;
#X connect 16 1 4 1;
#X connect 17 0 9 0;
#X connect 17 1 18 0;
#X connect 18 0 12 1;
#X connect 19 0 4 0;
#X connect 20 0 4 0;
#X connect 21 0 19 0;
#X connect 22 0 6 0;
#X connect 22 1 13 0;
#X connect 23 0 24 0;
#X connect 23 1 17 0;
#X connect 24 0 20 0;
#X restore 168 356 pd list-find-and-replace;
#X obj 279 155 t a a;
#X obj 324 195 moses 9;
#X obj 15 457 outlet;
#X obj 161 156 list;
#X obj 410 246 loadbang;
#X obj 131 26 inlet;
#X obj 438 346 list prepend output;
#X obj 438 366 outlet;
#X obj 438 386 inlet;
#X obj 279 35 route display;
#X obj 279 15 r \$1-\$2-admin;
#X obj 279 115 list prepend \$3;
#X obj 410 266 f \$5;
#N canvas 436 95 409 411 run 0;
#X obj 105 104 inlet sequence;
#X obj 14 217 list;
#X obj 14 164 t b f;
#X obj 14 237 list split;
#X obj 46 257 list split 1;
#X obj 14 14 r mmm-steps;
#X obj 14 104 sel 0;
#X obj 14 124 t b b;
#X obj 14 144 f 0;
#X obj 184 227 f;
#X obj 46 277 moses \$5;
#N canvas 728 22 288 312 current 0;
#X obj 12 15 inlet;
#X obj 12 255 outlet;
#X obj 154 255 outlet;
#X obj 12 125 list split 1;
#X obj 100 45 t b a;
#X obj 130 115 * 16;
#X obj 154 195 list split 16;
#X obj 130 135 - 16;
#X obj 51 155 list split 0;
#X obj 12 105 list;
#X obj 12 45 t b a;
#X obj 89 175 route bang;
#X obj 89 195 f \$5;
#X obj 89 215 - 1;
#X obj 100 15 inlet;
#X connect 0 0 10 0;
#X connect 3 0 1 0;
#X connect 3 1 8 0;
#X connect 4 0 9 0;
#X connect 4 1 5 0;
#X connect 5 0 7 0;
#X connect 6 0 2 0;
#X connect 7 0 8 1;
#X connect 8 1 11 0;
#X connect 9 0 3 0;
#X connect 10 0 9 0;
#X connect 10 1 9 1;
#X connect 11 0 12 0;
#X connect 11 1 6 0;
#X connect 12 0 13 0;
#X connect 13 0 2 0;
#X connect 14 0 4 0;
#X restore 105 134 pd current pattern;
#X obj 187 14 r \$1-mmm-pattern;
#X obj 187 34 route \$3;
#X obj 14 84 spigot;
#X obj 51 64 > 0;
#X obj 14 324 outlet;
#X obj 184 324 outlet;
#X obj 184 257 moses \$5;
#X connect 0 0 11 0;
#X connect 1 0 3 0;
#X connect 2 0 1 0;
#X connect 2 1 3 1;
#X connect 3 1 4 0;
#X connect 4 0 10 0;
#X connect 5 0 14 0;
#X connect 6 0 7 0;
#X connect 6 1 2 0;
#X connect 7 0 8 0;
#X connect 7 1 9 0;
#X connect 8 0 2 0;
#X connect 9 0 18 0;
#X connect 10 1 16 0;
#X connect 11 0 9 0;
#X connect 11 1 1 1;
#X connect 12 0 13 0;
#X connect 13 0 15 0;
#X connect 13 0 11 1;
#X connect 14 0 6 0;
#X connect 15 0 14 1;
#X connect 18 1 17 0;
#X restore 15 247 pd run engine;
#X obj 280 215 f;
#X obj 279 55 list split 1;
#X obj 198 129 t b a;
#X obj 304 276 list split 16;
#X obj 200 236 list split 0;
#X obj 416 191 * 16;
#X obj 239 256 route bang;
#X obj 239 276 f \$5;
#X obj 239 296 - 1;
#X msg 239 316 \$1 \$1 \$1 \$1 \$1 \$1 \$1 \$1 \$1 \$1 \$1 \$1 \$1
\$1 \$1 \$1;
#X obj 161 216 list split 1;
#X obj 167 336 list append;
#X obj 213 176 >= 0;
#X obj 161 196 spigot;
#X obj 279 95 t a a;
#X obj 131 116 t a b a;
#X obj 410 286 - 0.5;
#X obj 416 165 - 1;
#X obj 279 75 - 1;
#X connect 1 0 8 0;
#X connect 2 0 3 0;
#X connect 2 1 9 0;
#X connect 3 0 22 0;
#X connect 4 0 35 0;
#X connect 6 0 5 0;
#X connect 7 0 6 0;
#X connect 7 1 14 0;
#X connect 8 0 2 0;
#X connect 8 1 6 1;
#X connect 9 0 22 0;
#X connect 9 1 3 0;
#X connect 11 0 4 0;
#X connect 12 0 20 0;
#X connect 13 0 37 0;
#X connect 14 0 15 0;
#X connect 16 0 7 2;
#X connect 17 0 23 0;
#X connect 18 0 17 0;
#X connect 19 0 1 0;
#X connect 20 0 38 0;
#X connect 21 0 10 0;
#X connect 21 1 0 0;
#X connect 22 0 24 0;
#X connect 23 0 40 0;
#X connect 23 1 39 0;
#X connect 24 0 11 0;
#X connect 24 1 4 1;
#X connect 25 0 33 1;
#X connect 26 1 28 0;
#X connect 27 0 26 1;
#X connect 28 0 29 0;
#X connect 28 1 25 0;
#X connect 29 0 30 0;
#X connect 30 0 31 0;
#X connect 31 0 33 1;
#X connect 32 0 33 0;
#X connect 32 1 26 0;
#X connect 33 0 7 0;
#X connect 34 0 35 1;
#X connect 35 0 32 0;
#X connect 36 0 19 0;
#X connect 36 1 34 0;
#X connect 37 0 21 0;
#X connect 37 1 11 0;
#X connect 37 2 11 1;
#X connect 38 0 7 1;
#X connect 39 0 27 0;
#X connect 40 0 36 0;
#X restore 11 345 pd outputs;
#N canvas 459 247 825 611 inputs 0;
#X obj 53 271 list split 1;
#X obj 85 341 - 1;
#X obj 85 301 loadbang;
#X obj 53 301 +;
#X obj 21 401 list append;
#X obj 21 211 list append;
#X obj 21 381 list;
#X obj 211 306 t a a;
#X obj 21 161 unpack f f;
#X obj 21 111 route seqadd ctrladd;
#X obj 211 326 outlet;
#X obj 281 21 inlet;
#X obj 311 91 list split 1;
#X obj 281 51 t a b;
#X obj 281 121 list append;
#X obj 311 71 list;
#X obj 418 474 s mmm-seq-slider-preview;
#X obj 516 174 list prepend input;
#X obj 418 454 list trim;
#X obj 21 181 t b a a;
#X obj 418 304 list prepend;
#X obj 516 194 outlet;
#X obj 516 214 inlet;
#X obj 418 324 route 0;
#X msg 490 404 0 \$1:\$2;
#X msg 382 118 0;
#X obj 516 94 loadbang;
#N canvas 304 564 209 206 speedlimit 0;
#X obj 20 24 inlet;
#X obj 20 114 outlet;
#X obj 20 44 t b a;
#X obj 20 84 list;
#X obj 20 64 del 100;
#X connect 0 0 2 0;
#X connect 2 0 4 0;
#X connect 2 1 3 1;
#X connect 3 0 1 0;
#X connect 4 0 3 0;
#X restore 21 421 pd speedlimit;
#X msg 98 141 0 \$1;
#X msg 387 284 empty;
#X obj 418 344 route empty;
#X obj 21 21 r \$1-\$2-admin;
#X obj 85 321 f \$5;
#X obj 53 361 clip \$5 \$6;
#X obj 418 364 list append 0 \$4;
#X obj 490 384 list prepend \$4;
#X obj 418 434 list prepend \$3;
#N canvas 530 57 428 439 append-pattern 0;
#X obj 244 20 inlet;
#X obj 109 381 outlet;
#X obj 254 50 mmm-length;
#X obj 17 50 route display;
#X obj 17 20 r \$1-\$2-admin;
#X obj 154 180 loadbang;
#X obj 154 200 f \$5;
#X obj 154 220 - 1;
#X obj 254 90 div 16;
#X obj 109 351 list prepend;
#X obj 254 70 - 1;
#X obj 17 130 - 1;
#X obj 17 180 moses 1;
#X obj 90 220 * 16;
#X obj 90 240 until;
#X obj 90 260 f;
#X obj 161 260 t a;
#X obj 89 280 list append;
#X obj 60 310 list append;
#X msg 17 110 \$2;
#X obj 264 180 s \$1-\$2-admin;
#X msg 254 160 patterncount \$1;
#X obj 254 120 list prepend \$3;
#X obj 254 140 route 1;
#X obj 60 200 t b a;
#X obj 17 80 t a b;
#X obj 254 200 s \$1-admin;
#X connect 0 0 2 0;
#X connect 0 0 9 1;
#X connect 2 0 10 0;
#X connect 3 0 25 0;
#X connect 4 0 3 0;
#X connect 5 0 6 0;
#X connect 6 0 7 0;
#X connect 7 0 15 1;
#X connect 8 0 11 1;
#X connect 8 0 22 0;
#X connect 9 0 1 0;
#X connect 10 0 8 0;
#X connect 11 0 12 0;
#X connect 12 1 24 0;
#X connect 13 0 14 0;
#X connect 14 0 15 0;
#X connect 15 0 17 0;
#X connect 16 0 17 1;
#X connect 17 0 16 0;
#X connect 17 0 18 1;
#X connect 18 0 9 0;
#X connect 19 0 11 0;
#X connect 21 0 20 0;
#X connect 21 0 26 0;
#X connect 22 0 23 0;
#X connect 23 0 21 0;
#X connect 24 0 18 0;
#X connect 24 1 13 0;
#X connect 25 0 19 0;
#X connect 25 1 16 0;
#X restore 267 306 pd append-pattern;
#X obj 516 114 f \$5;
#X obj 604 304 list prepend \$3;
#X obj 604 394 -;
#N canvas 192 32 444 275 init 0;
#X obj 21 121 outlet;
#X obj 21 61 - 1;
#X obj 21 21 loadbang;
#X obj 21 41 f \$5;
#X obj 21 81 list prepend \$7;
#X msg 21 101 set \$1 \$2 \$2 \$2 \$2 \$2 \$2 \$2 \$2 \$2 \$2 \$2 \$2
\$2 \$2 \$2 \$2;
#X connect 1 0 4 0;
#X connect 2 0 3 0;
#X connect 3 0 1 0;
#X connect 4 0 5 0;
#X connect 5 0 0 0;
#X restore 188 246 pd init;
#X msg 181 121 \$2;
#X obj 181 91 route display;
#X obj 21 51 route \$3;
#X obj 181 161 * 16;
#X obj 21 251 list split;
#X obj 86 231 + 0;
#X obj 98 161 unpack f f;
#X obj 98 181 t b a a;
#X obj 211 286 t a;
#X obj 211 266 route set;
#X obj 273 542 s data.preset;
#X obj 273 442 r data.getpreset;
#X obj 273 522 list trim;
#X obj 273 482 list append \$3;
#X obj 273 462 sel \$1-\$2;
#X obj 273 502 list prepend \$1-\$2 \$4;
#X obj 157 404 r data.setstate;
#X obj 157 424 route \$1-\$2;
#X obj 157 444 route \$4;
#X obj 516 134 - 0.5;
#X obj 458 154 moses 0.5;
#X msg 604 264 \$1;
#X obj 604 284 - 1;
#X obj 178 141 - 1;
#X connect 0 0 3 0;
#X connect 0 1 4 1;
#X connect 1 0 33 1;
#X connect 2 0 32 0;
#X connect 3 0 33 0;
#X connect 4 0 27 0;
#X connect 4 0 5 1;
#X connect 5 0 46 0;
#X connect 6 0 4 0;
#X connect 7 0 10 0;
#X connect 7 1 5 1;
#X connect 7 1 15 1;
#X connect 7 1 37 0;
#X connect 7 1 55 1;
#X connect 8 0 19 0;
#X connect 8 1 3 1;
#X connect 9 0 8 0;
#X connect 9 1 28 0;
#X connect 11 0 13 0;
#X connect 12 1 14 1;
#X connect 12 1 25 0;
#X connect 13 0 14 0;
#X connect 13 1 15 0;
#X connect 14 0 15 1;
#X connect 14 0 51 0;
#X connect 14 0 62 0;
#X connect 15 0 12 0;
#X connect 17 0 21 0;
#X connect 18 0 16 0;
#X connect 19 0 5 0;
#X connect 19 1 47 0;
#X connect 19 2 20 1;
#X connect 20 0 23 0;
#X connect 22 0 20 0;
#X connect 23 0 30 0;
#X connect 23 1 36 0;
#X connect 24 0 36 0;
#X connect 25 0 20 1;
#X connect 26 0 38 0;
#X connect 27 0 51 0;
#X connect 28 0 48 0;
#X connect 29 0 20 0;
#X connect 30 0 34 0;
#X connect 30 1 35 0;
#X connect 31 0 44 0;
#X connect 32 0 1 0;
#X connect 33 0 6 1;
#X connect 33 0 62 0;
#X connect 34 0 36 0;
#X connect 35 0 24 0;
#X connect 36 0 18 0;
#X connect 37 0 51 0;
#X connect 38 0 61 0;
#X connect 39 0 40 0;
#X connect 40 0 36 1;
#X connect 41 0 51 0;
#X connect 42 0 65 0;
#X connect 43 0 42 0;
#X connect 43 0 63 0;
#X connect 44 0 9 0;
#X connect 44 1 43 0;
#X connect 45 0 47 1;
#X connect 46 0 6 0;
#X connect 46 1 0 0;
#X connect 47 0 46 1;
#X connect 48 0 49 0;
#X connect 48 1 3 1;
#X connect 49 0 5 0;
#X connect 49 1 46 1;
#X connect 49 2 20 1;
#X connect 50 0 7 0;
#X connect 51 0 50 0;
#X connect 51 1 50 0;
#X connect 53 0 56 0;
#X connect 54 0 52 0;
#X connect 55 0 57 0;
#X connect 56 0 55 0;
#X connect 57 0 54 0;
#X connect 58 0 59 0;
#X connect 59 0 60 0;
#X connect 60 0 51 0;
#X connect 61 0 62 1;
#X connect 62 0 29 0;
#X connect 62 1 17 0;
#X connect 63 0 64 0;
#X connect 64 0 39 0;
#X connect 65 0 45 0;
#X restore 11 325 pd inputs;
#X obj 129 105 list split 1;
#X obj 129 255 list append;
#X obj 129 275 list trim;
#X obj 129 295 route input output;
#X obj 11 445 outlet seq;
#X obj 136 445 outlet ctrl;
#X obj 26 395 r \$1-\$2;
#X obj 26 415 route \$4;
#X text 10 8 [mmm-local \$1 \$2 <number> <name> <rangefrom> <rangeto>
<init> <type>];
#X obj 230 165 outlet ext;
#X obj 230 185 inlet ext;
#X obj 239 53 loadbang;
#X msg 239 113 1;
#X msg 283 113 1;
#X obj 239 93 sel int;
#X obj 230 145 spigot;
#X obj 181 145 spigot;
#X obj 239 73 list prepend \$8;
#X obj 201 215 route float;
#X obj 201 235 makefilename %d;
#X msg 100 52 version 0.3.10;
#X connect 0 0 2 0;
#X connect 1 0 7 0;
#X connect 1 1 8 0;
#X connect 1 2 3 0;
#X connect 2 0 1 0;
#X connect 2 1 3 0;
#X connect 3 0 4 0;
#X connect 3 1 19 0;
#X connect 3 1 18 0;
#X connect 4 0 5 0;
#X connect 5 0 6 0;
#X connect 6 0 2 1;
#X connect 6 1 1 1;
#X connect 9 0 10 0;
#X connect 10 0 7 0;
#X connect 13 0 21 0;
#X connect 14 0 20 0;
#X connect 15 0 19 1;
#X connect 16 0 18 1;
#X connect 17 0 15 0;
#X connect 17 1 16 0;
#X connect 18 0 12 0;
#X connect 19 0 21 0;
#X connect 20 0 17 0;
#X connect 21 0 22 0;
#X connect 21 1 4 1;
#X connect 22 0 4 1;
