#N canvas 55 199 418 315 10;
#X msg 228 205 \; \$1 clear;
#X obj 228 165 makefilename \$1-%d;
#X obj 228 185 makefilename pd-%s_box;
#X msg 228 145 1 \, 2 \, 3 \, 4 \, 5 \, 6 \, 7 \, 8;
#X msg 228 125 bang before save;
#X obj 18 275 outlet~;
#N canvas 350 60 859 640 management 0;
#X obj 12 15 r mmm;
#X obj 49 165 == \$1;
#X obj 12 185 spigot;
#X obj 42 265 route 1 2 3 4 5 6 7 8;
#X obj 12 245 t b a;
#X obj 21 95 loadbang;
#X obj 21 115 f 1;
#X obj 12 205 list prepend 1;
#X obj 540 61 list append 1;
#X obj 540 121 list append 2;
#X obj 540 181 list append 3;
#X obj 540 241 list append 4;
#X obj 540 301 list append 5;
#X obj 540 361 list append 6;
#X obj 540 421 list append 7;
#X obj 540 481 list append 8;
#X msg 12 375 \; netpd-broadcast instant-msg mmm rebuild-dsp-chain
;
#N canvas 192 86 510 493 init 0;
#X obj 14 55 loadbang;
#N canvas 0 22 454 304 for 0;
#X obj 26 84 until;
#X obj 26 112 f;
#X obj 26 133 + 1;
#X obj 108 126 sel 0;
#X obj 26 24 inlet;
#X obj 26 54 t f f;
#X obj 108 106 mod;
#X obj 26 156 outlet;
#X connect 0 0 1 0;
#X connect 1 0 2 0;
#X connect 2 0 6 0;
#X connect 2 0 7 0;
#X connect 3 0 0 1;
#X connect 4 0 5 0;
#X connect 5 0 0 0;
#X connect 5 1 6 1;
#X connect 6 0 1 1;
#X connect 6 0 3 0;
#X restore 220 146 pd for;
#X msg 220 126 8;
#X obj 220 226 makefilename pd-%s_box;
#X obj 220 186 makefilename \$1-%d;
#X obj 46 275 makefilename \$1-%d;
#X obj 46 255 + 1;
#X obj 79 235 makefilename \$1-%d;
#X obj 79 215 - 1;
#X obj 14 75 t b b;
#N canvas 0 22 454 304 for 0;
#X obj 26 84 until;
#X obj 26 112 f;
#X obj 26 133 + 1;
#X obj 108 126 sel 0;
#X obj 26 24 inlet;
#X obj 26 54 t f f;
#X obj 108 106 mod;
#X obj 26 156 outlet;
#X connect 0 0 1 0;
#X connect 1 0 2 0;
#X connect 2 0 6 0;
#X connect 2 0 7 0;
#X connect 3 0 0 1;
#X connect 4 0 5 0;
#X connect 5 0 0 0;
#X connect 5 1 6 1;
#X connect 6 0 1 1;
#X connect 6 0 3 0;
#X restore 14 175 pd for;
#X msg 14 155 8;
#X obj 14 295 makefilename \$1-%d;
#X obj 14 195 t a a a;
#X obj 14 315 pack s s s;
#X msg 14 335 \; \$2L-r set \$1L \; \$2R-r set \$1R \; \$1L-r set \$3L
\; \$1R-r set \$3R;
#X text 14 16 erst alle bypass einfuegen dann die r~ setzen sonst gibts
chruesimuesi. z.b. no matching s~.;
#X obj 220 206 t a a;
#X obj 220 246 pack s s \$1 f;
#X obj 220 166 t a a;
#X msg 220 266 \; \$1 clear \; \$1 obj 10 10 4m-empty \$3 \$4 \$2 \;
\$2-module-r label empty \; \$1 loadbang bang;
#X connect 0 0 9 0;
#X connect 1 0 19 0;
#X connect 2 0 1 0;
#X connect 3 0 18 0;
#X connect 4 0 17 0;
#X connect 5 0 14 1;
#X connect 6 0 5 0;
#X connect 7 0 14 2;
#X connect 8 0 7 0;
#X connect 9 0 11 0;
#X connect 9 1 2 0;
#X connect 10 0 13 0;
#X connect 11 0 10 0;
#X connect 12 0 14 0;
#X connect 13 0 12 0;
#X connect 13 1 6 0;
#X connect 13 2 8 0;
#X connect 14 0 15 0;
#X connect 17 0 3 0;
#X connect 17 1 18 1;
#X connect 18 0 20 0;
#X connect 19 0 4 0;
#X connect 19 1 18 3;
#X restore 12 417 pd init;
#X msg 154 155 \$1 empty;
#X msg 154 135 1 \, 2 \, 3 \, 4 \, 5 \, 6 \, 7 \, 8;
#N canvas 218 378 233 273 symbol-change 0;
#X obj 30 27 inlet;
#X obj 30 77 t a a;
#X obj 78 157 list;
#X obj 108 217 outlet;
#X obj 78 137 b;
#X obj 30 107 sel empty;
#X obj 108 187 t a a;
#X obj 30 57 list;
#X connect 0 0 7 0;
#X connect 1 0 5 0;
#X connect 1 1 2 1;
#X connect 2 0 6 0;
#X connect 4 0 2 0;
#X connect 5 1 4 0;
#X connect 6 0 3 0;
#X connect 6 1 5 1;
#X connect 7 0 1 0;
#X restore 540 41 pd symbol-change;
#N canvas 218 378 229 269 symbol-change 0;
#X obj 30 27 inlet;
#X obj 30 77 t a a;
#X obj 78 157 list;
#X obj 108 217 outlet;
#X obj 78 137 b;
#X obj 30 107 sel empty;
#X obj 108 187 t a a;
#X obj 30 57 list;
#X connect 0 0 7 0;
#X connect 1 0 5 0;
#X connect 1 1 2 1;
#X connect 2 0 6 0;
#X connect 4 0 2 0;
#X connect 5 1 4 0;
#X connect 6 0 3 0;
#X connect 6 1 5 1;
#X connect 7 0 1 0;
#X restore 540 101 pd symbol-change;
#N canvas 218 378 229 269 symbol-change 0;
#X obj 30 27 inlet;
#X obj 30 77 t a a;
#X obj 78 157 list;
#X obj 108 217 outlet;
#X obj 78 137 b;
#X obj 30 107 sel empty;
#X obj 108 187 t a a;
#X obj 30 57 list;
#X connect 0 0 7 0;
#X connect 1 0 5 0;
#X connect 1 1 2 1;
#X connect 2 0 6 0;
#X connect 4 0 2 0;
#X connect 5 1 4 0;
#X connect 6 0 3 0;
#X connect 6 1 5 1;
#X connect 7 0 1 0;
#X restore 540 161 pd symbol-change;
#N canvas 218 378 229 269 symbol-change 0;
#X obj 30 27 inlet;
#X obj 30 77 t a a;
#X obj 78 157 list;
#X obj 108 217 outlet;
#X obj 78 137 b;
#X obj 30 107 sel empty;
#X obj 108 187 t a a;
#X obj 30 57 list;
#X connect 0 0 7 0;
#X connect 1 0 5 0;
#X connect 1 1 2 1;
#X connect 2 0 6 0;
#X connect 4 0 2 0;
#X connect 5 1 4 0;
#X connect 6 0 3 0;
#X connect 6 1 5 1;
#X connect 7 0 1 0;
#X restore 540 221 pd symbol-change;
#N canvas 218 378 229 269 symbol-change 0;
#X obj 30 27 inlet;
#X obj 30 77 t a a;
#X obj 78 157 list;
#X obj 108 217 outlet;
#X obj 78 137 b;
#X obj 30 107 sel empty;
#X obj 108 187 t a a;
#X obj 30 57 list;
#X connect 0 0 7 0;
#X connect 1 0 5 0;
#X connect 1 1 2 1;
#X connect 2 0 6 0;
#X connect 4 0 2 0;
#X connect 5 1 4 0;
#X connect 6 0 3 0;
#X connect 6 1 5 1;
#X connect 7 0 1 0;
#X restore 540 281 pd symbol-change;
#N canvas 218 378 229 269 symbol-change 0;
#X obj 30 27 inlet;
#X obj 30 77 t a a;
#X obj 78 157 list;
#X obj 108 217 outlet;
#X obj 78 137 b;
#X obj 30 107 sel empty;
#X obj 108 187 t a a;
#X obj 30 57 list;
#X connect 0 0 7 0;
#X connect 1 0 5 0;
#X connect 1 1 2 1;
#X connect 2 0 6 0;
#X connect 4 0 2 0;
#X connect 5 1 4 0;
#X connect 6 0 3 0;
#X connect 6 1 5 1;
#X connect 7 0 1 0;
#X restore 540 341 pd symbol-change;
#N canvas 218 378 233 273 symbol-change 0;
#X obj 30 27 inlet;
#X obj 30 77 t a a;
#X obj 78 157 list;
#X obj 108 217 outlet;
#X obj 78 137 b;
#X obj 30 107 sel empty;
#X obj 108 187 t a a;
#X obj 30 57 list;
#X connect 0 0 7 0;
#X connect 1 0 5 0;
#X connect 1 1 2 1;
#X connect 2 0 6 0;
#X connect 4 0 2 0;
#X connect 5 1 4 0;
#X connect 6 0 3 0;
#X connect 6 1 5 1;
#X connect 7 0 1 0;
#X restore 540 401 pd symbol-change;
#N canvas 218 378 233 273 symbol-change 0;
#X obj 30 27 inlet;
#X obj 30 77 t a a;
#X obj 78 157 list;
#X obj 108 217 outlet;
#X obj 78 137 b;
#X obj 30 107 sel empty;
#X obj 108 187 t a a;
#X obj 30 57 list;
#X connect 0 0 7 0;
#X connect 1 0 5 0;
#X connect 1 1 2 1;
#X connect 2 0 6 0;
#X connect 4 0 2 0;
#X connect 5 1 4 0;
#X connect 6 0 3 0;
#X connect 6 1 5 1;
#X connect 7 0 1 0;
#X restore 540 461 pd symbol-change;
#X obj 12 35 route module reset_all;
#X obj 12 55 route create activate;
#X obj 83 115 value mmm-active-row;
#X obj 83 95 b;
#N canvas 446 22 574 678 creation 0;
#X obj 13 17 inlet;
#X obj 57 170 makefilename pd-%s_box;
#X obj 35 117 makefilename \$1-%d;
#X obj 114 137 makefilename 4m-%s;
#X obj 13 57 t b a;
#X obj 13 77 f;
#X obj 13 37 unpack s f;
#X obj 168 117 makefilename \$1-%d;
#X obj 168 97 + 1;
#X obj 303 116 makefilename \$1-%d;
#X obj 303 66 - 1;
#X obj 57 230 t a a;
#X msg 57 366 \; \$3L-r set \$6L \; \$3R-r set \$6R;
#X obj 57 210 pack s s s s s s \$1 f;
#X text 113 229 pd-1-1_box sinus440 1-1 4m-sinus440 1-2 1-0 1 1;
#X msg 87 250 \; \$5L-r set nothing \; \$5R-r set nothing \; \$1 clear
\; \$1 obj 10 10 \$4 \$7 \$8 \$3 \; \$3-module-r label \$2 \; \$1 loadbang
bang \; \$5L-r set \$3L \; \$5R-r set \$3R;
#X obj 35 137 t a a a;
#X obj 13 97 t a a a;
#X obj 13 410 list prepend \$1;
#X obj 35 450 value mmm-active-row;
#X obj 57 470 value mmm-active-col;
#X obj 13 430 t a b b;
#X obj 35 490 pack f f;
#X msg 35 510 symbol \$1-\$2;
#X obj 13 560 sel 1-1;
#X obj 13 580 list;
#X msg 13 530 symbol \$1-\$2;
#X msg 13 600 \; \$1-module-r bang;
#X connect 0 0 6 0;
#X connect 1 0 13 0;
#X connect 2 0 16 0;
#X connect 3 0 13 3;
#X connect 4 0 5 0;
#X connect 4 1 3 0;
#X connect 4 1 13 1;
#X connect 5 0 17 0;
#X connect 6 0 4 0;
#X connect 6 1 5 1;
#X connect 7 0 13 4;
#X connect 8 0 7 0;
#X connect 9 0 13 5;
#X connect 10 0 9 0;
#X connect 11 0 12 0;
#X connect 11 1 15 0;
#X connect 13 0 11 0;
#X connect 16 1 1 0;
#X connect 16 2 13 2;
#X connect 17 0 18 0;
#X connect 17 1 2 0;
#X connect 17 2 8 0;
#X connect 17 2 10 0;
#X connect 17 2 13 7;
#X connect 18 0 21 0;
#X connect 19 0 22 0;
#X connect 20 0 22 1;
#X connect 21 0 26 0;
#X connect 21 1 19 0;
#X connect 21 2 20 0;
#X connect 22 0 23 0;
#X connect 23 0 24 1;
#X connect 23 0 25 1;
#X connect 24 0 25 0;
#X connect 25 0 27 0;
#X connect 26 0 24 0;
#X restore 468 532 pd creation;
#X obj 12 75 t a b;
#X obj 105 185 value mmm-active-col;
#X obj 468 512 t a;
#X text 71 419 <- optimieren!;
#X obj 540 21 mmm-a \$1--2 1-channel empty;
#X obj 540 81 mmm-a \$1--2 2-channel empty;
#X obj 540 141 mmm-a \$1--2 3-channel empty;
#X obj 540 201 mmm-a \$1--2 4-channel empty;
#X obj 540 261 mmm-a \$1--2 5-channel empty;
#X obj 540 321 mmm-a \$1--2 6-channel empty;
#X obj 540 381 mmm-a \$1--2 7-channel empty;
#X obj 540 441 mmm-a \$1--2 8-channel empty;
#X connect 0 0 28 0;
#X connect 1 0 2 1;
#X connect 2 0 7 0;
#X connect 3 0 37 0;
#X connect 3 1 38 0;
#X connect 3 2 39 0;
#X connect 3 3 40 0;
#X connect 3 4 41 0;
#X connect 3 5 42 0;
#X connect 3 6 43 0;
#X connect 3 7 44 0;
#X connect 4 0 16 0;
#X connect 4 1 3 0;
#X connect 5 0 6 0;
#X connect 6 0 1 0;
#X connect 7 0 4 0;
#X connect 8 0 35 0;
#X connect 9 0 35 0;
#X connect 10 0 35 0;
#X connect 11 0 35 0;
#X connect 12 0 35 0;
#X connect 13 0 35 0;
#X connect 14 0 35 0;
#X connect 15 0 35 0;
#X connect 18 0 3 0;
#X connect 19 0 18 0;
#X connect 20 0 8 0;
#X connect 21 0 9 0;
#X connect 22 0 10 0;
#X connect 23 0 11 0;
#X connect 24 0 12 0;
#X connect 25 0 13 0;
#X connect 26 0 14 0;
#X connect 27 0 15 0;
#X connect 28 0 29 0;
#X connect 28 1 19 0;
#X connect 29 0 33 0;
#X connect 29 1 31 0;
#X connect 30 0 1 0;
#X connect 31 0 30 0;
#X connect 33 0 2 0;
#X connect 33 1 34 0;
#X connect 34 0 7 1;
#X connect 35 0 32 0;
#X connect 37 0 20 0;
#X connect 38 0 21 0;
#X connect 39 0 22 0;
#X connect 40 0 23 0;
#X connect 41 0 24 0;
#X connect 42 0 25 0;
#X connect 43 0 26 0;
#X connect 44 0 27 0;
#X restore 228 255 pd management;
#X obj 153 275 outlet~;
#N canvas 0 22 466 316 dummy-reads 0;
#X obj 40 31 r \$1-1;
#X obj 40 51 r \$1-2;
#X obj 40 71 r \$1-3;
#X obj 40 91 r \$1-4;
#X obj 40 111 r \$1-5;
#X obj 40 131 r \$1-6;
#X obj 40 151 r \$1-7;
#X obj 40 171 r \$1-8;
#X text 135 106 um no such object-errors vorzubeugen;
#X restore 228 275 pd dummy-reads;
#N canvas 371 62 459 287 1th 0;
#X obj 10 121 outlet~;
#X obj 10 11 inlet~;
#N canvas 145 35 416 246 \$1-1_box 0;
#X restore 214 51 pd \$1-1_box;
#X restore 18 85 pd 1th;
#N canvas 705 52 391 219 2th 0;
#X obj 10 121 outlet~;
#X obj 10 11 inlet~;
#N canvas 26 26 384 214 \$1-2_box 0;
#X restore 214 51 pd \$1-2_box;
#X restore 18 105 pd 2th;
#N canvas 834 40 391 219 3th 0;
#X obj 10 121 outlet~;
#X obj 10 11 inlet~;
#N canvas 26 26 416 246 \$1-3_box 0;
#X restore 214 51 pd \$1-3_box;
#X restore 18 125 pd 3th;
#N canvas 834 40 383 211 4th 0;
#X obj 10 121 outlet~;
#X obj 10 11 inlet~;
#N canvas 26 26 392 222 \$1-4_box 0;
#X restore 214 51 pd \$1-4_box;
#X restore 18 145 pd 4th;
#N canvas 834 40 379 207 5th 0;
#X obj 10 121 outlet~;
#X obj 10 11 inlet~;
#N canvas 26 26 368 198 \$1-5_box 0;
#X restore 214 51 pd \$1-5_box;
#X restore 18 165 pd 5th;
#N canvas 834 40 383 211 6th 0;
#X obj 10 121 outlet~;
#X obj 10 11 inlet~;
#N canvas 26 26 320 150 \$1-6_box 0;
#X restore 214 51 pd \$1-6_box;
#X restore 18 185 pd 6th;
#N canvas 834 40 387 215 7th 0;
#X obj 10 121 outlet~;
#X obj 10 11 inlet~;
#N canvas 26 26 312 142 \$1-7_box 0;
#X restore 214 51 pd \$1-7_box;
#X restore 18 205 pd 7th;
#N canvas 834 40 419 247 8th 0;
#X obj 10 121 outlet~;
#X obj 10 11 inlet~;
#N canvas 26 26 312 142 \$1-8_box 0;
#X restore 214 51 pd \$1-8_box;
#X restore 18 225 pd 8th;
#N canvas 38 22 522 449 channel_output 0;
#X obj 17 17 inlet~;
#X obj 17 379 outlet~;
#X obj 137 379 outlet~;
#X obj 33 279 r \$1-9L-r;
#X obj 153 279 r \$1-9R-r;
#X obj 33 299 r~ 1-nothing;
#X obj 153 299 r~ 1-nothing;
#X obj 137 319 *~;
#X obj 17 239 line~;
#X obj 17 319 *~;
#X obj 137 239 line~;
#X obj 17 199 *;
#X obj 137 199 *;
#X obj 203 112 * 1;
#X obj 273 32 == 0;
#X obj 273 52 t b f;
#X obj 203 162 t b f;
#X obj 203 142 * 1;
#X obj 333 52 t b f;
#N canvas 451 37 337 380 solomode 0;
#X obj 14 15 inlet;
#X obj 169 106 f;
#X obj 30 105 sel 1;
#X obj 75 125 f 0;
#X obj 30 125 f 1;
#X obj 14 155 f;
#X obj 14 215 sel 0 1;
#X obj 14 285 outlet;
#X obj 40 235 f;
#X obj 14 35 t b b b f;
#X obj 14 235 f 1;
#X obj 40 255 != 0;
#X obj 33 65 s mmm.getsolo;
#X obj 30 85 r mmm.setsolo;
#X obj 169 86 r mmm.getsolo;
#X obj 169 126 s mmm.setsolo;
#X obj 14 175 s mmm.solomode;
#X obj 14 195 r mmm.solomode;
#X connect 0 0 9 0;
#X connect 1 0 15 0;
#X connect 2 0 4 0;
#X connect 3 0 5 1;
#X connect 4 0 5 1;
#X connect 5 0 16 0;
#X connect 6 0 10 0;
#X connect 6 1 8 0;
#X connect 8 0 11 0;
#X connect 9 0 5 0;
#X connect 9 1 12 0;
#X connect 9 2 3 0;
#X connect 9 3 1 1;
#X connect 9 3 8 1;
#X connect 10 0 7 0;
#X connect 11 0 7 0;
#X connect 13 0 2 0;
#X connect 14 0 1 0;
#X connect 17 0 6 0;
#X restore 333 32 pd solomode;
#X obj 221 215 r mmm-font>;
#X obj 260 255 list prepend \$1;
#X obj 221 235 list split 1;
#X msg 17 219 \$1 16;
#X msg 137 219 \$1 16;
#N canvas 173 22 516 474 sender 0;
#N canvas 0 22 299 279 f2s 0;
#X obj 27 25 inlet;
#X obj 27 225 outlet;
#X msg 104 165 set \$1;
#X obj 27 195 makefilename;
#X obj 27 55 t f f f;
#X obj 50 95 -;
#X obj 50 115 sel 0;
#X msg 50 145 set %d;
#X obj 71 75 int;
#X msg 128 197 %d.35;
#X obj 105 125 * 100.001;
#X obj 104 145 makefilename %%d.%02d;
#X connect 0 0 4 0;
#X connect 2 0 3 0;
#X connect 2 0 9 0;
#X connect 3 0 1 0;
#X connect 4 0 3 0;
#X connect 4 1 5 0;
#X connect 4 2 8 0;
#X connect 5 0 6 0;
#X connect 6 0 7 0;
#X connect 6 1 10 0;
#X connect 7 0 3 0;
#X connect 8 0 5 1;
#X connect 10 0 11 0;
#X connect 11 0 2 0;
#X restore 377 82 pd f2s;
#X obj 425 82 * 0.05;
#X msg 59 372 set \$1-L;
#X msg 173 372 set \$1-R;
#X obj 149 252 * 0.01;
#X obj 19 332 *~;
#X obj 133 332 *~;
#X obj 149 302 line~;
#N canvas 174 326 340 180 delwrite______ 0;
#X obj 17 22 inlet~;
#X obj 97 22 inlet~;
#X obj 17 102 outlet~;
#X obj 17 74 delwrite~ \$1-channel-L 1000;
#X obj 97 54 delwrite~ \$1-channel-R 1000;
#X connect 0 0 3 0;
#X connect 1 0 4 0;
#X restore 19 52 pd delwrite______;
#N canvas 0 22 363 225 delread_______ 0;
#X obj 17 22 inlet~;
#X obj 17 92 outlet~;
#X obj 97 92 outlet~;
#X obj 164 22 inlet;
#X obj 17 52 delread~ \$1-channel-L 0;
#X obj 97 72 delread~ \$1-channel-R 0;
#X connect 3 0 4 0;
#X connect 3 0 5 0;
#X connect 4 0 1 0;
#X connect 5 0 2 0;
#X restore 19 222 pd delread_______;
#X obj 133 102 * 0.05;
#X msg 149 272 \$1 10;
#X obj 19 22 inlet~;
#X obj 133 22 inlet~;
#X obj 133 202 min 998;
#X obj 133 162 pipe 8;
#X obj 133 142 t f b;
#X obj 133 182 t f b;
#X obj 223 182 spigot 1;
#X msg 271 202 0;
#X msg 285 182 1;
#X obj 223 202 del 8;
#X msg 195 272 0 8;
#X obj 133 122 mmm-ticks2ms;
#X obj 19 402 throw~ 8-L;
#X obj 133 402 throw~ 8-R;
#X obj 173 342 mmm-ctrl \$1 -1 5 channel 1 8 8 int;
#X obj 133 82 mmm-ctrl \$1 -1 7 delay 0 160 0 ext;
#X obj 149 232 mmm-ctrl \$1 -1 6 amount 0 100 0 int;
#X connect 0 0 27 1;
#X connect 1 0 0 0;
#X connect 2 0 24 0;
#X connect 3 0 25 0;
#X connect 4 0 11 0;
#X connect 5 0 24 0;
#X connect 6 0 25 0;
#X connect 7 0 5 1;
#X connect 7 0 6 1;
#X connect 8 0 9 0;
#X connect 9 0 5 0;
#X connect 9 1 6 0;
#X connect 10 0 23 0;
#X connect 11 0 7 0;
#X connect 12 0 8 0;
#X connect 13 0 8 1;
#X connect 14 0 9 1;
#X connect 15 0 17 0;
#X connect 16 0 15 0;
#X connect 16 1 18 0;
#X connect 17 0 14 0;
#X connect 17 1 4 0;
#X connect 18 0 19 0;
#X connect 18 0 21 0;
#X connect 18 0 22 0;
#X connect 19 0 18 1;
#X connect 20 0 18 1;
#X connect 21 0 20 0;
#X connect 22 0 7 0;
#X connect 23 0 16 0;
#X connect 26 0 2 0;
#X connect 26 0 3 0;
#X connect 27 0 10 0;
#X connect 27 2 1 0;
#X connect 28 0 4 0;
#X restore 51 349 pd sender;
#N canvas 45 22 380 445 level 0;
#X obj 27 368 outlet;
#X msg 66 216 set \$1;
#X obj 66 156 spigot 1;
#X obj 222 106 del 1000;
#X msg 222 126 1;
#X msg 192 126 0;
#X obj 66 126 r netpd-receive;
#X obj 26 26 r \$1-level;
#X obj 66 196 route level;
#X obj 66 246 s \$1-level-r;
#X obj 66 176 route \$1--1;
#X obj 26 46 int;
#X obj 192 146 t a;
#X msg 212 235 activate;
#X obj 212 255 s \$1--1-module;
#X obj 212 175 sel 1;
#X msg 212 195 set 1;
#X obj 47 308 spigot 1;
#X obj 27 338 * 0.01;
#X obj 26 66 t a b b;
#X obj 212 215 change 1;
#X obj 47 278 mmm-ctrl \$1 -1 1 level 0 100 75 int;
#X connect 1 0 9 0;
#X connect 2 0 10 0;
#X connect 3 0 4 0;
#X connect 4 0 12 0;
#X connect 5 0 12 0;
#X connect 6 0 2 0;
#X connect 7 0 11 0;
#X connect 8 0 1 0;
#X connect 10 0 8 0;
#X connect 11 0 19 0;
#X connect 12 0 2 1;
#X connect 12 0 15 0;
#X connect 12 0 17 1;
#X connect 13 0 14 0;
#X connect 15 0 16 0;
#X connect 15 1 20 0;
#X connect 16 0 20 0;
#X connect 17 0 18 0;
#X connect 18 0 0 0;
#X connect 19 0 18 0;
#X connect 19 0 21 0;
#X connect 19 1 5 0;
#X connect 19 2 3 0;
#X connect 20 0 13 0;
#X connect 21 0 17 0;
#X restore 203 12 pd level;
#N canvas 416 22 366 460 mute 0;
#X obj 27 378 outlet;
#X obj 153 378 s \$1-mute-r;
#X obj 153 318 sel 0 1;
#X msg 153 338 color 8 22 22;
#X msg 175 358 color 18 18 0;
#X msg 66 216 set \$1;
#X obj 66 156 spigot 1;
#X obj 222 106 del 1000;
#X msg 222 126 1;
#X msg 192 126 0;
#X obj 66 126 r netpd-receive;
#X obj 66 176 route \$1--1;
#X obj 26 46 int;
#X obj 192 146 t a;
#X msg 212 235 activate;
#X obj 212 255 s \$1--1-module;
#X obj 212 175 sel 1;
#X msg 212 195 set 1;
#X obj 47 318 spigot 1;
#X obj 26 66 t a b b;
#X obj 212 215 change 1;
#X obj 66 196 route mute;
#X obj 66 246 s \$1-mute-r;
#X obj 26 26 r \$1-mute;
#X obj 47 278 mmm-ctrl \$1 -1 3 mute 0 1 0 int;
#X connect 2 0 3 0;
#X connect 2 1 4 0;
#X connect 3 0 1 0;
#X connect 4 0 1 0;
#X connect 5 0 22 0;
#X connect 6 0 11 0;
#X connect 7 0 8 0;
#X connect 8 0 13 0;
#X connect 9 0 13 0;
#X connect 10 0 6 0;
#X connect 11 0 21 0;
#X connect 12 0 19 0;
#X connect 13 0 6 1;
#X connect 13 0 16 0;
#X connect 13 0 18 1;
#X connect 14 0 15 0;
#X connect 16 0 17 0;
#X connect 16 1 20 0;
#X connect 17 0 20 0;
#X connect 18 0 0 0;
#X connect 19 0 0 0;
#X connect 19 0 24 0;
#X connect 19 1 9 0;
#X connect 19 2 7 0;
#X connect 20 0 14 0;
#X connect 21 0 5 0;
#X connect 23 0 12 0;
#X connect 24 0 18 0;
#X connect 24 0 2 0;
#X restore 273 12 pd mute;
#N canvas 423 22 375 459 solo 0;
#X obj 27 378 outlet;
#X obj 153 318 sel 0 1;
#X msg 153 338 color 8 22 22;
#X msg 175 358 color 18 18 0;
#X msg 66 216 set \$1;
#X obj 66 156 spigot 1;
#X obj 222 106 del 1000;
#X msg 222 126 1;
#X msg 192 126 0;
#X obj 66 126 r netpd-receive;
#X obj 66 176 route \$1--1;
#X obj 26 46 int;
#X obj 192 146 t a;
#X msg 212 235 activate;
#X obj 212 255 s \$1--1-module;
#X obj 212 175 sel 1;
#X msg 212 195 set 1;
#X obj 47 318 spigot 1;
#X obj 26 66 t a b b;
#X obj 212 215 change 1;
#X obj 26 26 r \$1-solo;
#X obj 153 378 s \$1-solo-r;
#X obj 66 196 route solo;
#X obj 66 246 s \$1-solo-r;
#X obj 47 278 mmm-ctrl \$1 -1 4 solo 0 1 0 int;
#X connect 1 0 2 0;
#X connect 1 1 3 0;
#X connect 2 0 21 0;
#X connect 3 0 21 0;
#X connect 4 0 23 0;
#X connect 5 0 10 0;
#X connect 6 0 7 0;
#X connect 7 0 12 0;
#X connect 8 0 12 0;
#X connect 9 0 5 0;
#X connect 10 0 22 0;
#X connect 11 0 18 0;
#X connect 12 0 5 1;
#X connect 12 0 15 0;
#X connect 12 0 17 1;
#X connect 13 0 14 0;
#X connect 15 0 16 0;
#X connect 15 1 19 0;
#X connect 16 0 19 0;
#X connect 17 0 0 0;
#X connect 18 0 0 0;
#X connect 18 0 24 0;
#X connect 18 1 8 0;
#X connect 18 2 6 0;
#X connect 19 0 13 0;
#X connect 20 0 11 0;
#X connect 22 0 4 0;
#X connect 24 0 17 0;
#X connect 24 0 1 0;
#X restore 333 12 pd solo;
#N canvas 664 23 334 410 pan 0;
#X obj 17 377 outlet;
#X msg 56 255 set \$1;
#X obj 56 195 spigot 1;
#X obj 212 125 del 1000;
#X msg 212 145 1;
#X msg 182 145 0;
#X obj 16 35 t a b;
#X obj 56 165 r netpd-receive;
#X obj 16 15 r \$1-pan;
#X obj 56 235 route pan;
#X obj 56 285 s \$1-pan-r;
#X obj 275 317 * 2;
#X obj 56 215 route \$1--1;
#X obj 37 347 spigot 1;
#X obj 182 165 t a;
#X msg 192 265 activate;
#X obj 192 285 s \$1--1-module;
#X obj 192 205 sel 1;
#X msg 192 225 set 1;
#X obj 192 245 change 1;
#X obj 37 317 mmm-ctrl \$1 -1 2 pan -50 50 0 ext;
#X connect 1 0 10 0;
#X connect 2 0 12 0;
#X connect 3 0 4 0;
#X connect 4 0 14 0;
#X connect 5 0 14 0;
#X connect 6 0 0 0;
#X connect 6 0 20 0;
#X connect 6 1 3 0;
#X connect 6 1 5 0;
#X connect 7 0 2 0;
#X connect 8 0 6 0;
#X connect 9 0 1 0;
#X connect 11 0 20 1;
#X connect 12 0 9 0;
#X connect 13 0 0 0;
#X connect 14 0 2 1;
#X connect 14 0 13 1;
#X connect 14 0 17 0;
#X connect 15 0 16 0;
#X connect 17 0 18 0;
#X connect 17 1 19 0;
#X connect 18 0 19 0;
#X connect 19 0 15 0;
#X connect 20 0 13 0;
#X connect 20 2 11 0;
#X restore 21 62 pd pan;
#X msg 260 275 \; \$1-level-r label_font \$2 \$3 \; \$1-pan-r label_font
\$2 \$3 \; \$1-mute-r label_font \$2 \$3 \; \$1-solo-r label_font \$2
\$3;
#X obj 74 17 inlet;
#N canvas 0 22 462 312 equal-pan 0;
#X obj 15 18 inlet;
#X obj 15 128 outlet;
#X obj 135 128 outlet;
#X obj 15 98 cos;
#X obj 135 98 sin;
#X obj 15 48 + 50;
#X obj 15 68 * 0.015708;
#X connect 0 0 5 0;
#X connect 3 0 1 0;
#X connect 4 0 2 0;
#X connect 5 0 6 0;
#X connect 6 0 4 0;
#X connect 6 0 3 0;
#X restore 95 67 pd equal-pan;
#X obj 21 82 + 50;
#X obj 20 102 * 0.01;
#X msg 56 131 1 \$1;
#X obj 56 151 -;
#X connect 3 0 5 0;
#X connect 4 0 6 0;
#X connect 5 0 9 1;
#X connect 6 0 7 1;
#X connect 7 0 2 0;
#X connect 7 0 25 1;
#X connect 8 0 9 0;
#X connect 9 0 1 0;
#X connect 9 0 25 0;
#X connect 10 0 7 0;
#X connect 11 0 23 0;
#X connect 12 0 24 0;
#X connect 13 0 17 0;
#X connect 14 0 15 0;
#X connect 15 0 13 0;
#X connect 15 1 13 1;
#X connect 16 0 11 0;
#X connect 16 0 12 0;
#X connect 16 1 11 1;
#X connect 16 1 12 1;
#X connect 17 0 16 0;
#X connect 18 0 17 0;
#X connect 18 1 17 1;
#X connect 19 0 18 0;
#X connect 20 0 22 0;
#X connect 21 0 30 0;
#X connect 22 1 21 0;
#X connect 23 0 8 0;
#X connect 24 0 10 0;
#X connect 26 0 13 0;
#X connect 27 0 14 0;
#X connect 28 0 19 0;
#X connect 29 0 33 0;
#X connect 33 0 34 0;
#X connect 34 0 35 0;
#X connect 34 0 11 0;
#X connect 35 0 36 0;
#X connect 36 0 12 0;
#X restore 18 245 pd channel_output;
#X obj 18 15 inlet~;
#X obj 153 15 inlet~;
#N canvas 34 485 499 373 channel_input____ 0;
#X obj 16 297 outlet~;
#X obj 16 17 inlet~;
#X obj 86 17 inlet~;
#X obj 16 267 s~ \$1-0L;
#X obj 86 267 s~ \$1-0R;
#X obj 16 197 *~;
#X obj 86 197 *~;
#X obj 156 207 *~;
#X obj 226 207 *~;
#X obj 156 297 outlet~;
#X obj 226 297 outlet~;
#X obj 303 297 outlet;
#X obj 29 237 catch~ \$1-L;
#X obj 124 237 catch~ \$1-R;
#X obj 205 36 * 0.01;
#X msg 241 65 1 \$1;
#X obj 241 85 -;
#X obj 205 16 mmm-ctrl \$1 -1 8 insert 0 100 0 int;
#X connect 1 0 5 0;
#X connect 1 0 7 0;
#X connect 2 0 6 0;
#X connect 2 0 8 0;
#X connect 5 0 3 0;
#X connect 6 0 4 0;
#X connect 7 0 9 0;
#X connect 8 0 10 0;
#X connect 12 0 3 0;
#X connect 13 0 4 0;
#X connect 14 0 15 0;
#X connect 14 0 6 1;
#X connect 14 0 5 1;
#X connect 15 0 16 0;
#X connect 16 0 8 1;
#X connect 16 0 7 1;
#X connect 17 0 14 0;
#X restore 18 65 pd channel_input____;
#N canvas 378 196 812 548 mmm-module 0;
#X obj 58 145 s seq-modulename-r;
#X obj 14 15 r \$1--1-module;
#X obj 36 255 s \$1--1-admin;
#X obj 14 45 b;
#X obj 14 65 list append \$1 -1;
#X msg 58 125 label \$1 \, color 18 18 0;
#X obj 14 85 t a b b;
#X obj 36 195 value mmm-ctrl-scroll;
#X obj 87 175 value mmm-ptn-scroll;
#X obj 36 165 t b b;
#X obj 36 215 pack f f;
#X msg 36 235 display \$1 \$2;
#X msg 14 285 \; mmm module activate \$1-\$2 \; mmm-controller-scroll-r
color 8 8 20;
#X obj 58 105 list append channel-\$1;
#X obj 304 505 s \$1-\$2-admin;
#X obj 522 235 loadbang;
#X obj 522 255 f \$4;
#X obj 381 285 list split 1;
#X msg 304 475 display \$1 \$2;
#X obj 448 345 +;
#X obj 304 45 route activate scroll patterncount;
#X obj 499 325 + 1;
#X obj 448 365 clip 1 2;
#X obj 381 405 value mmm-ctrl-scroll;
#X obj 448 425 value mmm-ptn-scroll;
#X obj 499 345 pipe 50;
#X obj 528 182 value mmm-ptn-scroll;
#X obj 304 75 t b b b b;
#X obj 528 202 min 1;
#X obj 604 445 s mmm;
#X msg 604 425 pattern scroll \$1;
#X msg 581 371 1;
#X obj 522 295 max 1;
#X msg 304 305 1;
#X obj 304 455 list append 1;
#X obj 522 275 - 7;
#X msg 572 268 bang;
#X obj 304 15 r \$1--1-admin;
#X msg 381 305 1;
#X connect 1 0 3 0;
#X connect 3 0 4 0;
#X connect 4 0 6 0;
#X connect 5 0 0 0;
#X connect 6 0 12 0;
#X connect 6 1 9 0;
#X connect 6 2 13 0;
#X connect 7 0 10 0;
#X connect 8 0 10 1;
#X connect 9 0 7 0;
#X connect 9 1 8 0;
#X connect 10 0 11 0;
#X connect 11 0 2 0;
#X connect 13 0 5 0;
#X connect 15 0 16 0;
#X connect 15 0 31 0;
#X connect 16 0 35 0;
#X connect 17 0 38 0;
#X connect 17 1 19 0;
#X connect 18 0 14 0;
#X connect 19 0 22 0;
#X connect 20 0 27 0;
#X connect 20 1 17 0;
#X connect 20 2 21 0;
#X connect 20 2 28 1;
#X connect 21 0 25 0;
#X connect 22 0 19 1;
#X connect 22 0 24 0;
#X connect 22 0 30 0;
#X connect 22 0 34 1;
#X connect 25 0 22 2;
#X connect 26 0 28 0;
#X connect 27 0 33 0;
#X connect 27 3 26 0;
#X connect 28 0 22 0;
#X connect 30 0 29 0;
#X connect 31 0 23 0;
#X connect 31 0 24 0;
#X connect 33 0 34 0;
#X connect 34 0 18 0;
#X connect 35 0 32 0;
#X connect 36 0 16 0;
#X connect 37 0 20 0;
#X connect 38 0 23 0;
#X connect 38 0 34 0;
#X restore 229 64 pd mmm-module;
#N canvas 721 408 486 318 reset 0;
#X obj 21 253 s netpd-broadcast;
#X obj 21 223 list trim;
#X obj 21 23 r mmm;
#X obj 21 53 route reset_all;
#X obj 21 203 list prepend \$1--1;
#X msg 21 83 level 75 -1 -1 -1 -1 -1 -1 -1 -1 -1 -1 -1 -1 -1 -1 -1
-1 \, pan 0 -51 -51 -51 -51 -51 -51 -51 -51 -51 -51 -51 -51 -51 -51
-51 -51 \, mute 0 -1 -1 -1 -1 -1 -1 -1 -1 -1 -1 -1 -1 -1 -1 -1 -1 \,
solo 0 -1 -1 -1 -1 -1 -1 -1 -1 -1 -1 -1 -1 -1 -1 -1 -1 \, delay 0 -1
-1 -1 -1 -1 -1 -1 -1 -1 -1 -1 -1 -1 -1 -1 -1 \, amount 0 -1 -1 -1 -1
-1 -1 -1 -1 -1 -1 -1 -1 -1 -1 -1 -1 \, channel 8 0 0 0 0 0 0 0 0 0
0 0 0 0 0 0 0 \, insert 0 -1 -1 -1 -1 -1 -1 -1 -1 -1 -1 -1 -1 -1 -1
-1 -1;
#X connect 1 0 0 0;
#X connect 2 0 3 0;
#X connect 3 0 5 0;
#X connect 4 0 1 0;
#X connect 5 0 4 0;
#X restore 329 64 pd reset;
#X msg 288 15 version 0.3.18;
#X connect 1 0 2 0;
#X connect 2 0 0 0;
#X connect 3 0 1 0;
#X connect 4 0 3 0;
#X connect 9 0 10 0;
#X connect 10 0 11 0;
#X connect 11 0 12 0;
#X connect 12 0 13 0;
#X connect 13 0 14 0;
#X connect 14 0 15 0;
#X connect 15 0 16 0;
#X connect 16 0 17 0;
#X connect 17 0 5 0;
#X connect 17 1 7 0;
#X connect 18 0 20 0;
#X connect 19 0 20 1;
#X connect 20 0 9 0;
#X connect 20 1 5 0;
#X connect 20 2 7 0;
#X connect 20 3 17 1;
