#N canvas 416 22 486 532 10;
#X obj 231 165 outlet ext;
#X obj 231 185 inlet ext;
#X obj 11 52 inlet ctrl;
#N canvas 16 22 675 555 outputs 1;
#X obj 139 456 outlet;
#X obj 279 135 -;
#X obj 280 175 moses 1;
#X msg 280 195 0;
#X obj 161 176 spigot;
#X obj 198 426 s mmm-seq-slider;
#X obj 198 396 list prepend;
#N canvas 33 320 537 396 list-find-and-replace 0;
#N canvas 0 22 549 423 drip 0;
#X obj 64 206 list split 1;
#X obj 64 123 until;
#X obj 64 181 list append;
#X obj 194 206 bang;
#X obj 64 243 outlet;
#X obj 64 57 inlet;
#X obj 64 86 t b a;
#X connect 0 0 4 0;
#X connect 0 1 2 1;
#X connect 0 2 3 0;
#X connect 1 0 2 0;
#X connect 2 0 0 0;
#X connect 3 0 1 1;
#X connect 5 0 6 0;
#X connect 6 0 1 0;
#X connect 6 1 2 1;
#X restore 171 130 pd drip;
#X obj 26 24 inlet;
#X obj 226 24 inlet;
#X obj 250 230 t a;
#X obj 25 306 list;
#X obj 25 336 outlet;
#X msg 171 190 empty;
#X obj 171 260 list prepend;
#X obj 316 24 inlet;
#X obj 425 304 outlet;
#X obj 316 144 route 1 2;
#X obj 316 124 list trim;
#X obj 316 104 list prepend;
#X obj 425 54 t a b;
#X msg 455 74 2;
#X obj 26 54 list split 1;
#X obj 171 110 t a b;
#X obj 379 54 t a b;
#X msg 409 74 1;
#X msg 44 280 \$1:\$2;
#X obj 44 260 list prepend \$4;
#X obj 26 141 list prepend \$4;
#X obj 26 121 b;
#X obj 26 101 moses -0.5;
#X obj 171 170 moses -0.5;
#X connect 0 0 24 0;
#X connect 1 0 15 0;
#X connect 2 0 23 1;
#X connect 2 0 24 1;
#X connect 3 0 7 1;
#X connect 4 0 5 0;
#X connect 6 0 7 0;
#X connect 7 0 3 0;
#X connect 7 0 4 1;
#X connect 8 0 12 0;
#X connect 10 0 20 0;
#X connect 10 1 7 0;
#X connect 11 0 10 0;
#X connect 12 0 11 0;
#X connect 13 0 9 0;
#X connect 13 1 14 0;
#X connect 14 0 12 1;
#X connect 15 0 23 0;
#X connect 15 1 16 0;
#X connect 16 0 0 0;
#X connect 16 1 7 1;
#X connect 16 1 4 1;
#X connect 17 0 9 0;
#X connect 17 1 18 0;
#X connect 18 0 12 1;
#X connect 19 0 4 0;
#X connect 20 0 19 0;
#X connect 21 0 4 0;
#X connect 22 0 21 0;
#X connect 23 0 22 0;
#X connect 23 1 17 0;
#X connect 24 0 6 0;
#X connect 24 1 13 0;
#X restore 168 366 pd list-find-and-replace;
#X obj 279 155 t a a;
#X obj 324 195 moses 9;
#X obj 15 457 outlet;
#X obj 161 156 list;
#X obj 410 246 loadbang;
#X obj 131 26 inlet;
#X obj 373 346 list prepend output;
#X obj 373 366 outlet;
#X obj 373 386 inlet;
#X obj 279 35 route display;
#X obj 279 15 r \$1-\$2-admin;
#X obj 279 115 list prepend \$3;
#X obj 410 266 f \$5;
#X obj 280 215 f;
#X obj 279 55 list split 1;
#X obj 198 129 t b a;
#X obj 304 276 list split 16;
#X obj 200 236 list split 0;
#X obj 415 187 * 16;
#X obj 239 256 route bang;
#X obj 239 276 f \$5;
#X obj 239 296 - 1;
#X msg 239 316 \$1 \$1 \$1 \$1 \$1 \$1 \$1 \$1 \$1 \$1 \$1 \$1 \$1
\$1 \$1 \$1;
#X obj 161 216 list split 1;
#X obj 167 336 list append;
#X obj 213 176 >= 0;
#X obj 161 196 spigot;
#X obj 279 95 t a a;
#X obj 131 116 t a b a;
#N canvas 417 342 656 453 run 0;
#X obj 255 57 inlet sequence;
#X obj 14 177 list;
#X obj 14 124 t b f;
#X obj 14 197 list split;
#X obj 46 217 list split 1;
#X obj 14 64 sel 0;
#X obj 14 84 t b b;
#X obj 14 104 f 0;
#X obj 111 287 moses \$5;
#X obj 95 47 r \$1-mmm-pattern;
#X obj 162 376 outlet;
#X obj 372 364 outlet;
#X obj 321 277 moses \$5;
#X obj 255 94 list split 1;
#X obj 95 67 * 16;
#X obj 95 87 - 16;
#X obj 79 177 +;
#X obj 46 237 route bang;
#X msg 391 57 bang;
#X msg 321 297 0;
#X obj 162 337 +;
#X obj 162 357 clip \$5 \$6;
#X obj 460 205 >= \$5;
#X obj 460 185 f \$7;
#X obj 381 17 loadbang;
#X obj 381 37 t b b;
#X obj 224 236 spigot;
#X obj 177 98 == 1;
#X obj 140 118 spigot;
#X obj 14 17 r \$1-\$2-\$3-mmm-steps;
#X obj 258 159 change \$7;
#X text 149 76 eigentlich sollte es nur auf pos 0 kommen;
#X msg 448 19 bang;
#X obj 321 247 f \$7;
#X obj 381 117 -;
#X obj 381 298 -;
#X obj 381 177 int;
#X obj 258 179 t a a;
#X obj 381 97 list append \$6 \$5;
#X obj 381 137 * 0.5;
#X obj 381 157 + \$5;
#X obj 381 197 t b b a;
#X connect 0 0 13 0;
#X connect 1 0 3 0;
#X connect 2 0 1 0;
#X connect 2 1 16 0;
#X connect 3 1 4 0;
#X connect 4 0 17 0;
#X connect 5 0 6 0;
#X connect 5 1 2 0;
#X connect 6 0 7 0;
#X connect 6 1 28 0;
#X connect 7 0 2 0;
#X connect 8 1 20 0;
#X connect 9 0 14 0;
#X connect 9 0 27 0;
#X connect 12 0 19 0;
#X connect 12 1 11 0;
#X connect 12 1 35 0;
#X connect 13 0 30 0;
#X connect 13 1 1 1;
#X connect 14 0 15 0;
#X connect 15 0 16 1;
#X connect 16 0 3 1;
#X connect 17 1 8 0;
#X connect 18 0 38 0;
#X connect 19 0 20 1;
#X connect 20 0 21 0;
#X connect 21 0 10 0;
#X connect 22 0 26 1;
#X connect 23 0 22 0;
#X connect 24 0 25 0;
#X connect 25 0 38 0;
#X connect 25 1 23 0;
#X connect 26 0 21 0;
#X connect 27 0 28 1;
#X connect 28 0 33 0;
#X connect 29 0 5 0;
#X connect 30 0 37 0;
#X connect 32 0 25 0;
#X connect 33 0 12 0;
#X connect 34 0 39 0;
#X connect 35 0 20 1;
#X connect 36 0 41 0;
#X connect 37 0 26 0;
#X connect 37 1 33 0;
#X connect 38 0 34 0;
#X connect 39 0 40 0;
#X connect 40 0 36 0;
#X connect 41 0 30 0;
#X connect 41 1 33 0;
#X connect 41 2 35 1;
#X restore 15 247 pd run with me;
#X obj 279 75 - 1;
#X obj 415 167 - 1;
#X obj 410 286 - 0.5;
#X connect 1 0 8 0;
#X connect 2 0 3 0;
#X connect 2 1 9 0;
#X connect 3 0 21 0;
#X connect 4 0 34 0;
#X connect 6 0 5 0;
#X connect 7 0 6 0;
#X connect 7 1 14 0;
#X connect 8 0 2 0;
#X connect 8 1 6 1;
#X connect 9 0 21 0;
#X connect 9 1 3 0;
#X connect 11 0 4 0;
#X connect 12 0 20 0;
#X connect 13 0 36 0;
#X connect 14 0 15 0;
#X connect 16 0 7 2;
#X connect 17 0 22 0;
#X connect 18 0 17 0;
#X connect 19 0 1 0;
#X connect 20 0 40 0;
#X connect 21 0 23 0;
#X connect 22 0 38 0;
#X connect 22 1 39 0;
#X connect 23 0 11 0;
#X connect 23 1 4 1;
#X connect 24 0 32 1;
#X connect 25 1 27 0;
#X connect 26 0 25 1;
#X connect 27 0 28 0;
#X connect 27 1 24 0;
#X connect 28 0 29 0;
#X connect 29 0 30 0;
#X connect 30 0 32 1;
#X connect 31 0 32 0;
#X connect 31 1 25 0;
#X connect 32 0 7 0;
#X connect 33 0 34 1;
#X connect 34 0 31 0;
#X connect 35 0 19 0;
#X connect 35 1 33 0;
#X connect 36 0 37 0;
#X connect 36 1 11 0;
#X connect 36 2 11 1;
#X connect 37 0 10 0;
#X connect 37 1 0 0;
#X connect 38 0 35 0;
#X connect 39 0 26 0;
#X connect 40 0 7 1;
#X restore 11 345 pd outputs;
#N canvas 466 42 785 556 inputs 0;
#X obj 56 269 list split 1;
#X obj 88 339 - 1;
#X obj 88 299 loadbang;
#X obj 56 299 +;
#X obj 14 399 list append;
#X obj 14 209 list append;
#X obj 14 379 list;
#X obj 204 304 t a a;
#X obj 14 159 unpack f f;
#X obj 14 109 route seqadd ctrladd;
#X obj 204 324 outlet;
#X obj 274 19 inlet;
#X obj 304 89 list split 1;
#X obj 274 49 t a b;
#X obj 274 119 list append;
#X obj 304 69 list;
#X obj 411 472 s mmm-seq-slider-preview;
#X obj 505 172 list prepend input;
#X obj 411 452 list trim;
#X obj 14 179 t b a a;
#X obj 411 302 list prepend;
#X obj 505 192 outlet;
#X obj 505 212 inlet;
#X obj 411 322 route 0;
#X msg 483 402 0 \$1:\$2;
#X msg 375 116 0;
#X obj 505 62 loadbang;
#N canvas 304 564 221 218 speedlimit 0;
#X obj 20 24 inlet;
#X obj 20 114 outlet;
#X obj 20 44 t b a;
#X obj 20 84 list;
#X obj 20 64 del 10;
#X connect 0 0 2 0;
#X connect 2 0 4 0;
#X connect 2 1 3 1;
#X connect 3 0 1 0;
#X connect 4 0 3 0;
#X restore 14 419 pd speedlimit;
#X msg 91 139 0 \$1;
#X msg 440 152 empty;
#X obj 411 342 route empty;
#X obj 14 19 r \$1-\$2-admin;
#X obj 88 319 f \$5;
#X obj 56 359 clip \$5 \$6;
#X obj 411 362 list append 0 \$4;
#X obj 483 382 list prepend \$4;
#X obj 411 432 list prepend \$3;
#X obj 204 284 mmm-a \$1-\$2 \$4 empty;
#N canvas 91 41 432 443 append-pattern 0;
#X obj 244 20 inlet;
#X obj 109 391 outlet;
#X obj 254 50 mmm-length;
#X obj 17 50 route display;
#X obj 17 20 r \$1-\$2-admin;
#X obj 154 190 loadbang;
#X obj 154 210 f \$5;
#X obj 154 230 - 1;
#X obj 254 90 div 16;
#X obj 109 361 list prepend;
#X obj 254 70 - 1;
#X obj 17 150 - 1;
#X obj 17 190 moses 1;
#X obj 90 230 * 16;
#X obj 90 250 until;
#X obj 90 270 f;
#X obj 161 270 t a;
#X obj 89 290 list append;
#X obj 60 320 list append;
#X msg 17 110 \$2;
#X obj 264 180 s \$1-\$2-admin;
#X msg 254 160 patterncount \$1;
#X obj 254 120 list prepend \$3;
#X obj 254 140 route 1;
#X obj 60 210 t b a;
#X obj 17 80 t a b;
#X obj 254 200 s \$1-admin;
#X connect 0 0 2 0;
#X connect 0 0 9 1;
#X connect 2 0 10 0;
#X connect 3 0 25 0;
#X connect 4 0 3 0;
#X connect 5 0 6 0;
#X connect 6 0 7 0;
#X connect 7 0 15 1;
#X connect 8 0 11 1;
#X connect 8 0 22 0;
#X connect 9 0 1 0;
#X connect 10 0 8 0;
#X connect 11 0 12 0;
#X connect 12 1 24 0;
#X connect 13 0 14 0;
#X connect 14 0 15 0;
#X connect 15 0 17 0;
#X connect 16 0 17 1;
#X connect 17 0 16 0;
#X connect 17 0 18 1;
#X connect 18 0 9 0;
#X connect 19 0 11 0;
#X connect 21 0 20 0;
#X connect 21 0 26 0;
#X connect 22 0 23 0;
#X connect 23 0 21 0;
#X connect 24 0 18 0;
#X connect 24 1 13 0;
#X connect 25 0 19 0;
#X connect 25 1 16 0;
#X restore 260 304 pd append-pattern;
#X obj 505 82 f \$5;
#X obj 597 322 list prepend \$3;
#X obj 597 392 -;
#N canvas 0 22 420 251 init 0;
#X obj 21 161 outlet;
#X obj 21 121 list prepend set;
#X obj 21 141 list trim;
#X obj 21 61 - 1;
#X obj 21 21 loadbang;
#X msg 21 101 \$1 \$2 \$2 \$2 \$2 \$2 \$2 \$2 \$2 \$2 \$2 \$2 \$2 \$2
\$2 \$2 \$2;
#X obj 21 41 f \$5;
#X obj 21 81 list prepend \$7;
#X connect 1 0 2 0;
#X connect 2 0 0 0;
#X connect 3 0 7 0;
#X connect 4 0 6 0;
#X connect 5 0 1 0;
#X connect 6 0 3 0;
#X connect 7 0 5 0;
#X restore 181 245 pd init;
#X msg 174 117 \$2;
#X obj 174 89 route display;
#X obj 14 49 route \$3;
#X obj 174 159 * 16;
#X obj 14 249 list split;
#X obj 79 229 + 0;
#X obj 91 159 unpack f f;
#X obj 91 179 t b a a;
#X msg 597 282 \$1;
#X obj 597 302 - 1;
#X obj 173 137 - 1;
#X obj 505 102 - 0.5;
#X obj 447 122 moses 0.5;
#X connect 0 0 3 0;
#X connect 0 1 4 1;
#X connect 1 0 33 1;
#X connect 2 0 32 0;
#X connect 3 0 33 0;
#X connect 4 0 27 0;
#X connect 4 0 5 1;
#X connect 5 0 47 0;
#X connect 6 0 4 0;
#X connect 7 0 10 0;
#X connect 7 1 5 1;
#X connect 7 1 15 1;
#X connect 7 1 38 0;
#X connect 8 0 19 0;
#X connect 8 1 3 1;
#X connect 9 0 8 0;
#X connect 9 1 28 0;
#X connect 11 0 13 0;
#X connect 12 1 14 1;
#X connect 12 1 25 0;
#X connect 13 0 14 0;
#X connect 13 1 15 0;
#X connect 14 0 15 1;
#X connect 14 0 37 0;
#X connect 14 0 55 0;
#X connect 15 0 12 0;
#X connect 17 0 21 0;
#X connect 18 0 16 0;
#X connect 19 0 5 0;
#X connect 19 1 48 0;
#X connect 19 2 20 1;
#X connect 20 0 23 0;
#X connect 22 0 20 0;
#X connect 23 0 30 0;
#X connect 23 1 36 0;
#X connect 24 0 36 0;
#X connect 25 0 20 1;
#X connect 26 0 39 0;
#X connect 27 0 37 0;
#X connect 28 0 49 0;
#X connect 29 0 20 0;
#X connect 30 0 34 0;
#X connect 30 1 35 0;
#X connect 31 0 45 0;
#X connect 32 0 1 0;
#X connect 33 0 6 1;
#X connect 33 0 55 0;
#X connect 34 0 36 0;
#X connect 35 0 24 0;
#X connect 36 0 18 0;
#X connect 37 0 7 0;
#X connect 38 0 37 0;
#X connect 39 0 54 0;
#X connect 40 0 41 0;
#X connect 41 0 36 1;
#X connect 42 0 37 0;
#X connect 43 0 53 0;
#X connect 44 0 43 0;
#X connect 44 0 51 0;
#X connect 45 0 9 0;
#X connect 45 1 44 0;
#X connect 46 0 48 1;
#X connect 47 0 6 0;
#X connect 47 1 0 0;
#X connect 48 0 47 1;
#X connect 49 0 50 0;
#X connect 49 1 3 1;
#X connect 50 0 5 0;
#X connect 50 1 47 1;
#X connect 50 2 20 1;
#X connect 51 0 52 0;
#X connect 52 0 40 0;
#X connect 53 0 46 0;
#X connect 54 0 55 1;
#X connect 55 0 29 0;
#X connect 55 1 17 0;
#X restore 11 325 pd inputs;
#X obj 129 105 list split 1;
#X obj 129 255 list append;
#X obj 129 275 list trim;
#X obj 129 295 route input output;
#X obj 240 53 loadbang;
#X msg 240 113 1;
#X msg 284 113 1;
#X obj 240 93 sel int;
#X obj 231 145 spigot;
#X obj 182 145 spigot;
#X obj 240 73 list prepend \$8;
#X obj 11 425 outlet seq;
#X obj 136 425 outlet ctrl;
#X obj 26 375 r \$1-\$2;
#X obj 26 395 route \$4;
#X text 10 8 [mmm-ctrl \$1 \$2 <number> <name> <rangefrom> <rangeto>
<init> <type>];
#X obj 202 215 route float;
#X obj 202 235 makefilename %d;
#X msg 100 52 version 0.3.15;
#X connect 1 0 21 0;
#X connect 2 0 4 0;
#X connect 3 0 16 0;
#X connect 3 1 17 0;
#X connect 3 2 5 0;
#X connect 4 0 3 0;
#X connect 4 1 5 0;
#X connect 5 0 6 0;
#X connect 5 1 14 0;
#X connect 5 1 13 0;
#X connect 6 0 7 0;
#X connect 7 0 8 0;
#X connect 8 0 4 1;
#X connect 8 1 3 1;
#X connect 9 0 15 0;
#X connect 10 0 14 1;
#X connect 11 0 13 1;
#X connect 12 0 10 0;
#X connect 12 1 11 0;
#X connect 13 0 0 0;
#X connect 14 0 21 0;
#X connect 15 0 12 0;
#X connect 18 0 19 0;
#X connect 19 0 16 0;
#X connect 21 0 22 0;
#X connect 21 1 6 1;
#X connect 22 0 6 1;
