#N canvas 706 576 344 161 10;
#N canvas 193 189 355 318 whichpartnow 0;
#X obj 24 23 inlet;
#X obj 86 163 outlet;
#X obj 98 23 inlet sequence;
#X obj 24 103 list split;
#X obj 24 53 t b f;
#X obj 56 123 list split 1;
#X obj 24 83 list append;
#X connect 0 0 4 0;
#X connect 2 0 6 1;
#X connect 3 1 5 0;
#X connect 4 0 6 0;
#X connect 4 1 3 1;
#X connect 5 0 1 0;
#X connect 6 0 3 0;
#X restore 24 81 pd whichpartnow;
#X obj 24 51 inlet timecode;
#N canvas 516 22 667 524 modify 0;
#X obj 16 449 outlet sequence;
#X obj 16 146 list split;
#X obj 48 166 list split 1;
#X obj 48 186 +;
#X obj 16 349 list;
#X obj 48 246 list;
#X obj 323 11 r mmm;
#X msg 323 51 0 0 0 0 0 0 0 0 0 0 0 0 0 0 0 0;
#X obj 45 56 unpack f f;
#X obj 110 96 - 1;
#X obj 16 36 t b a;
#X obj 48 226 t a a;
#X obj 226 426 pack f f;
#X obj 110 76 t a a;
#X obj 256 11 t a;
#N canvas 147 43 721 730 sliders 0;
#X obj 22 100 list split 16;
#X obj 22 70 list split 0;
#X obj 100 50 * 16;
#X obj 100 20 r mmm-arranger-view;
#X obj 22 181 route 1 2 3 4 5 6 7 8 9 10 11 12 13 14 15 16;
#X obj 22 20 inlet;
#X obj 261 20 inlet;
#X obj 557 611 * 16;
#X obj 461 591 unpack f f;
#X obj 557 591 r page;
#X obj 526 631 + 0;
#X obj 461 671 outlet;
#X obj 461 651 pack f f;
#X msg 22 680 \$1 1;
#X msg 39 640 \$1 2;
#X msg 56 600 \$1 3;
#X msg 74 560 \$1 4;
#X msg 91 520 \$1 5;
#X msg 109 480 \$1 6;
#X msg 127 440 \$1 7;
#X msg 143 400 \$1 8;
#X msg 463 250 \$1 16;
#X msg 445 290 \$1 15;
#X msg 428 330 \$1 14;
#X msg 410 370 \$1 13;
#X msg 393 410 \$1 12;
#X msg 376 450 \$1 11;
#X msg 358 490 \$1 10;
#X msg 341 530 \$1 9;
#X obj 623 185 loadbang;
#X msg 623 205 set p%02d;
#X obj 261 76 route 0;
#N canvas 323 406 223 300 list-find-and-replace 0;
#N canvas 0 22 541 415 drip 0;
#X obj 64 206 list split 1;
#X obj 64 123 until;
#X obj 64 181 list append;
#X obj 194 206 bang;
#X obj 64 243 outlet;
#X obj 64 57 inlet;
#X obj 143 243 outlet;
#X obj 64 86 t b a;
#X connect 0 0 4 0;
#X connect 0 1 2 1;
#X connect 0 2 3 0;
#X connect 0 2 6 0;
#X connect 1 0 2 0;
#X connect 2 0 0 0;
#X connect 3 0 1 1;
#X connect 5 0 7 0;
#X connect 7 0 1 0;
#X connect 7 1 2 1;
#X restore 26 94 pd drip;
#X obj 26 24 inlet;
#X obj 136 24 inlet;
#X obj 26 234 outlet;
#X obj 26 144 sel 0;
#X msg 26 164 empty;
#X obj 26 114 t a b;
#X obj 26 54 t a b;
#X obj 26 184 list prepend;
#X obj 26 204 list trim;
#X obj 133 154 + 1;
#X obj 105 154 f;
#X obj 121 124 f 1;
#X connect 0 0 6 0;
#X connect 1 0 7 0;
#X connect 2 0 4 1;
#X connect 4 0 5 0;
#X connect 4 1 8 0;
#X connect 5 0 8 0;
#X connect 6 0 4 0;
#X connect 6 1 11 0;
#X connect 7 0 0 0;
#X connect 7 1 12 0;
#X connect 8 0 9 0;
#X connect 9 0 3 0;
#X connect 10 0 11 1;
#X connect 11 0 8 1;
#X connect 11 0 10 0;
#X connect 12 0 11 1;
#X restore 22 120 pd list-find-and-replace;
#X msg 261 96 \$1 empty;
#X msg 304 116 \$2 \$1;
#X obj 22 660 mmm-slider \$1-1-arr 0;
#X obj 261 136 route 1 2 3 4 5 6 7 8 9 10 11 12 13 14 15 16;
#X obj 39 620 mmm-slider \$1-2-arr 10;
#X obj 56 580 mmm-slider \$1-3-arr 20;
#X obj 74 540 mmm-slider \$1-4-arr 30;
#X obj 91 500 mmm-slider \$1-5-arr 40;
#X obj 109 460 mmm-slider \$1-6-arr 50;
#X obj 127 420 mmm-slider \$1-7-arr 60;
#X obj 143 380 mmm-slider \$1-8-arr 70;
#X obj 341 510 mmm-slider \$1-9-arr 80;
#X obj 358 470 mmm-slider \$1-10-arr 90;
#X obj 376 430 mmm-slider \$1-11-arr 100;
#X obj 393 390 mmm-slider \$1-12-arr 110;
#X obj 410 350 mmm-slider \$1-13-arr 120;
#X obj 428 310 mmm-slider \$1-14-arr 130;
#X obj 445 270 mmm-slider \$1-15-arr 140;
#X obj 463 230 mmm-slider \$1-16-arr 150;
#X connect 0 0 32 0;
#X connect 1 1 0 0;
#X connect 2 0 1 1;
#X connect 3 0 2 0;
#X connect 4 0 35 0;
#X connect 4 1 37 0;
#X connect 4 2 38 0;
#X connect 4 3 39 0;
#X connect 4 4 40 0;
#X connect 4 5 41 0;
#X connect 4 6 42 0;
#X connect 4 7 43 0;
#X connect 4 8 44 0;
#X connect 4 9 45 0;
#X connect 4 10 46 0;
#X connect 4 11 47 0;
#X connect 4 12 48 0;
#X connect 4 13 49 0;
#X connect 4 14 50 0;
#X connect 4 15 51 0;
#X connect 5 0 1 0;
#X connect 6 0 31 0;
#X connect 7 0 10 1;
#X connect 8 0 12 0;
#X connect 8 1 10 0;
#X connect 9 0 7 0;
#X connect 10 0 12 1;
#X connect 12 0 11 0;
#X connect 13 0 8 0;
#X connect 14 0 8 0;
#X connect 15 0 8 0;
#X connect 16 0 8 0;
#X connect 17 0 8 0;
#X connect 18 0 8 0;
#X connect 19 0 8 0;
#X connect 20 0 8 0;
#X connect 21 0 8 0;
#X connect 22 0 8 0;
#X connect 23 0 8 0;
#X connect 24 0 8 0;
#X connect 25 0 8 0;
#X connect 26 0 8 0;
#X connect 27 0 8 0;
#X connect 28 0 8 0;
#X connect 29 0 30 0;
#X connect 30 0 35 1;
#X connect 30 0 37 1;
#X connect 30 0 38 1;
#X connect 30 0 39 1;
#X connect 30 0 40 1;
#X connect 30 0 41 1;
#X connect 30 0 42 1;
#X connect 30 0 43 1;
#X connect 30 0 44 1;
#X connect 30 0 45 1;
#X connect 30 0 46 1;
#X connect 30 0 47 1;
#X connect 30 0 48 1;
#X connect 30 0 49 1;
#X connect 30 0 50 1;
#X connect 30 0 51 1;
#X connect 31 0 33 0;
#X connect 31 1 34 0;
#X connect 32 0 4 0;
#X connect 33 0 36 0;
#X connect 34 0 36 0;
#X connect 35 0 13 0;
#X connect 36 0 35 1;
#X connect 36 1 37 1;
#X connect 36 2 38 1;
#X connect 36 3 39 1;
#X connect 36 4 40 1;
#X connect 36 5 41 1;
#X connect 36 6 42 1;
#X connect 36 7 43 1;
#X connect 36 8 44 1;
#X connect 36 9 45 1;
#X connect 36 10 46 1;
#X connect 36 11 47 1;
#X connect 36 12 48 1;
#X connect 36 13 49 1;
#X connect 36 14 50 1;
#X connect 36 15 51 1;
#X connect 37 0 14 0;
#X connect 38 0 15 0;
#X connect 39 0 16 0;
#X connect 40 0 17 0;
#X connect 41 0 18 0;
#X connect 42 0 19 0;
#X connect 43 0 20 0;
#X connect 44 0 28 0;
#X connect 45 0 27 0;
#X connect 46 0 26 0;
#X connect 47 0 25 0;
#X connect 48 0 24 0;
#X connect 49 0 23 0;
#X connect 50 0 22 0;
#X connect 51 0 21 0;
#X restore 162 446 pd sliders;
#N canvas 0 22 181 178 speedlimit 0;
#X obj 20 24 inlet;
#X obj 20 114 outlet;
#X obj 20 44 t b a;
#X obj 20 84 list;
#X obj 20 64 del 300;
#X connect 0 0 2 0;
#X connect 2 0 4 0;
#X connect 2 1 3 1;
#X connect 3 0 1 0;
#X connect 4 0 3 0;
#X restore 16 369 pd speedlimit;
#X obj 361 208 list prepend set;
#X obj 361 228 list trim;
#X msg 361 188 0 0 0 0 0 0 0 0 0 0 0 0 0 0 0 0;
#X obj 16 126 list append;
#X obj 317 215 t a;
#X obj 361 168 loadbang;
#X obj 16 409 t a a a a;
#N canvas 167 173 163 266 list-max 0;
#X obj 62 204 outlet;
#X obj 18 23 inlet;
#X obj 18 123 moses;
#N canvas 0 22 541 415 drip 0;
#X obj 64 206 list split 1;
#X obj 64 123 until;
#X obj 64 181 list append;
#X obj 194 206 bang;
#X text 146 90 First store list \, then start the loop;
#X text 163 118 "until" bangs its output until told to stop by a "bang"
to its right inlet.;
#X text 182 160 Store the remaining list.;
#X text 239 205 third outlet of "split" tells us to stop.;
#X obj 64 243 outlet;
#X obj 64 57 inlet;
#X text 237 44 From list-help.pd;
#X obj 143 243 outlet;
#X obj 64 86 t b a;
#X connect 0 0 8 0;
#X connect 0 1 2 1;
#X connect 0 2 3 0;
#X connect 1 0 2 0;
#X connect 2 0 0 0;
#X connect 3 0 1 1;
#X connect 3 0 11 0;
#X connect 9 0 12 0;
#X connect 12 0 1 0;
#X connect 12 1 2 1;
#X restore 18 83 pd drip;
#X obj 79 124 t a a;
#X msg 83 83 -1;
#X obj 18 53 t a b;
#X obj 62 154 b;
#X obj 62 174 f;
#X connect 1 0 6 0;
#X connect 2 1 4 0;
#X connect 2 1 8 1;
#X connect 3 0 2 0;
#X connect 3 1 7 0;
#X connect 4 1 2 1;
#X connect 5 0 2 1;
#X connect 6 0 3 0;
#X connect 6 1 5 0;
#X connect 7 0 8 0;
#X connect 8 0 0 0;
#X restore 365 353 pd list-max;
#X obj 48 206 clip 0 1;
#X obj 160 53 r \$1-admin;
#X obj 160 73 route patterncount;
#X obj 160 93 moses;
#X obj 202 93 + 0.5;
#X obj 323 31 route reset_all;
#X obj 16 389 mmm-a \$1--1 arrangement empty;
#X connect 1 0 4 0;
#X connect 1 1 2 0;
#X connect 2 0 3 0;
#X connect 2 1 5 1;
#X connect 3 0 25 0;
#X connect 4 0 16 0;
#X connect 4 0 21 0;
#X connect 5 0 4 1;
#X connect 6 0 30 0;
#X connect 7 0 4 0;
#X connect 8 0 3 1;
#X connect 8 1 13 0;
#X connect 9 0 1 1;
#X connect 10 0 20 0;
#X connect 10 1 8 0;
#X connect 11 0 5 0;
#X connect 11 1 12 0;
#X connect 12 0 15 1;
#X connect 13 0 9 0;
#X connect 13 1 12 1;
#X connect 14 0 10 0;
#X connect 15 0 14 0;
#X connect 16 0 31 0;
#X connect 17 0 18 0;
#X connect 18 0 31 0;
#X connect 19 0 17 0;
#X connect 19 0 21 0;
#X connect 20 0 1 0;
#X connect 21 0 20 1;
#X connect 22 0 19 0;
#X connect 23 0 0 0;
#X connect 23 1 21 0;
#X connect 23 2 15 0;
#X connect 25 0 11 0;
#X connect 26 0 27 0;
#X connect 27 0 28 0;
#X connect 28 1 29 0;
#X connect 28 1 25 2;
#X connect 29 0 28 1;
#X connect 30 0 7 0;
#X connect 31 0 23 0;
#X restore 144 51 pd modify arranger list;
#X obj 24 111 s \$1-mmm-pattern;
#X msg 24 21 version 0.3.12;
#X connect 0 0 3 0;
#X connect 1 0 0 0;
#X connect 2 0 0 1;
