#N canvas 404 29 973 666 10;
#X declare -path ./;
#X obj 86 330 vd~ test1 500;
#X obj 86 307 line~;
#X obj 263 380 delwrite~ test1 6000;
#X obj 86 227 + 1;
#X obj 263 318 soundinput;
#X text 173 401 create echo field with fixed delay;
#X obj 379 567 soundoutput;
#X msg 516 575 \; #transport play 1;
#X msg 86 288 \$1 1000;
#X obj 87 204 random 4;
#N canvas 0 22 450 300 noisy 0;
#X obj 128 55 env~;
#X obj 102 273 outlet;
#X obj 178 276 outlet;
#X obj 127 159 +;
#X obj 128 32 inlet~;
#X floatatom 42 208 5 0 0 0 - - -;
#X obj 168 162 * 0.98;
#X obj 126 185 * 0.02;
#X obj 192 33 inlet;
#X obj 192 86 f;
#X msg 193 58 bang;
#X obj 192 119 * 50;
#X obj 266 277 outlet;
#X obj 116 235 moses 80;
#X connect 0 0 3 0;
#X connect 0 0 9 1;
#X connect 3 0 6 0;
#X connect 3 0 7 0;
#X connect 4 0 0 0;
#X connect 6 0 3 1;
#X connect 7 0 5 0;
#X connect 7 0 12 0;
#X connect 7 0 13 0;
#X connect 8 0 10 0;
#X connect 9 0 11 0;
#X connect 10 0 9 0;
#X connect 11 0 3 1;
#X connect 13 0 1 0;
#X connect 13 1 2 0;
#X restore 226 153 pd noisy;
#X obj 248 444 delread~ test1 1000;
#X obj 86 268 + 1000;
#X obj 106 443 delread~ test1 1500;
#X obj 655 70 declare -path ./;
#X obj 306 149 rj/s_playtable;
#X obj 415 501 catch~ c1;
#X obj 491 501 catch~ c2;
#X obj 303 261 throw~ c1;
#X obj 396 266 throw~ c2;
#X obj 655 93 rj/u_samplebank jingle jingle.wav;
#X msg 305 121 jingle;
#X obj 84 475 throw~ c1;
#X obj 175 480 throw~ c2;
#X obj 304 237 *~;
#X obj 396 241 *~;
#X obj 424 149 osc~ 0.2;
#X obj 424 178 +~ 1;
#X obj 463 179 -~ 1;
#X obj 578 187 rj/s_playtable;
#X obj 530 259 throw~ c1;
#X obj 611 260 throw~ c2;
#X obj 530 240 *~;
#X obj 611 235 *~;
#X msg 577 159 hoho;
#X obj 656 116 rj/u_samplebank hoho hoho.wav;
#X obj 684 394 rj/s_playtable;
#X obj 684 459 throw~ c1;
#X obj 758 459 throw~ c2;
#X obj 657 161 rj/u_samplebank bells3 bells3.wav;
#X obj 655 139 rj/u_samplebank bells2 bells2.wav;
#X msg 798 414 amp 100;
#X obj 306 187 *~;
#X obj 369 77 loadbang;
#X msg 673 358 bells2 1 1;
#X obj 797 391 loadbang;
#X obj 683 224 r shake;
#X obj 761 218 bng 15 250 50 0 empty empty empty 17 7 0 10 -262144
-1 -1;
#X msg 761 359 bells2 1 2;
#X obj 483 386 osc~;
#X obj 484 360 mtof;
#X obj 489 467 throw~ c1;
#X obj 489 424 *~;
#X obj 563 466 throw~ c2;
#X obj 543 385 vline~;
#X obj 682 265 sel 0 1 2 3 4 5 6 7;
#X obj 682 244 random 8;
#X obj 754 567 m_getshake;
#X obj 463 13 r shake;
#X obj 464 39 float;
#X obj 370 123 vline~;
#X obj 760 240 s shake;
#X floatatom 567 10 5 0 0 0 - - -;
#X obj 527 12 + 1;
#X obj 489 444 rj/e_reverb;
#X msg 562 422 amp 100;
#X obj 561 399 loadbang;
#X obj 93 88 u_masterbeat 200;
#X obj 88 137 r tick;
#X obj 88 180 sel 0;
#X obj 88 158 % 12;
#X obj 306 55 r tick;
#X obj 306 98 sel 0;
#X obj 306 76 % 12;
#X obj 398 -2 r tick;
#X obj 398 41 sel 0;
#X floatatom 358 42 5 0 0 0 - - -;
#N canvas 174 394 625 372 seq 0;
#X obj 84 37 inlet;
#X obj 103 276 outlet;
#X obj 148 25 r tick;
#X obj 148 68 sel 0;
#X obj 148 46 % 6;
#X obj 147 123 f;
#X obj 191 122 + 1;
#X obj 146 100 spigot;
#X msg 192 67 0;
#X msg 85 67 1;
#X floatatom 59 126 5 0 0 0 - - -;
#X obj 189 147 % 16;
#X obj 102 185 sel 0 1 2 3 4 5 6 7 8 9 10 11 12 13 14 15;
#X msg 101 246 60;
#X msg 137 246 65;
#X msg 171 246 67;
#X msg 202 248 69;
#X connect 0 0 9 0;
#X connect 2 0 4 0;
#X connect 3 0 7 0;
#X connect 4 0 3 0;
#X connect 5 0 10 0;
#X connect 5 0 12 0;
#X connect 5 0 6 0;
#X connect 6 0 11 0;
#X connect 7 0 5 0;
#X connect 8 0 7 1;
#X connect 9 0 7 1;
#X connect 11 0 5 1;
#X connect 12 0 13 0;
#X connect 12 1 13 0;
#X connect 12 2 13 0;
#X connect 12 4 16 0;
#X connect 12 6 15 0;
#X connect 12 8 14 0;
#X connect 12 10 13 0;
#X connect 12 15 8 0;
#X connect 13 0 1 0;
#X connect 14 0 1 0;
#X connect 15 0 1 0;
#X connect 16 0 1 0;
#X restore 364 315 pd seq;
#X msg 363 295 bang;
#N canvas 174 394 625 372 seq 0;
#X obj 84 37 inlet;
#X obj 103 295 outlet;
#X obj 148 25 r tick;
#X obj 148 68 sel 0;
#X obj 148 46 % 6;
#X obj 147 123 f;
#X obj 191 122 + 1;
#X obj 146 100 spigot;
#X msg 192 67 0;
#X msg 85 67 1;
#X floatatom 59 126 5 0 0 0 - - -;
#X obj 189 147 % 16;
#X obj 102 185 sel 0 1 2 3 4 5 6 7 8 9 10 11 12 13 14 15;
#X msg 101 246 60;
#X msg 171 252 65;
#X msg 205 252 67;
#X msg 236 254 69;
#X msg 139 245 62;
#X connect 0 0 9 0;
#X connect 2 0 4 0;
#X connect 3 0 7 0;
#X connect 4 0 3 0;
#X connect 5 0 10 0;
#X connect 5 0 12 0;
#X connect 5 0 6 0;
#X connect 6 0 11 0;
#X connect 7 0 5 0;
#X connect 8 0 7 1;
#X connect 9 0 7 1;
#X connect 11 0 5 1;
#X connect 12 0 13 0;
#X connect 12 1 13 0;
#X connect 12 2 13 0;
#X connect 12 4 16 0;
#X connect 12 6 15 0;
#X connect 12 8 14 0;
#X connect 12 10 17 0;
#X connect 12 15 8 0;
#X connect 13 0 1 0;
#X connect 14 0 1 0;
#X connect 15 0 1 0;
#X connect 16 0 1 0;
#X connect 17 0 1 0;
#X restore 414 314 pd seq;
#X msg 413 294 bang;
#N canvas 174 394 625 372 seq 0;
#X obj 84 37 inlet;
#X obj 103 295 outlet;
#X obj 148 25 r tick;
#X obj 148 68 sel 0;
#X obj 148 46 % 6;
#X obj 147 123 f;
#X obj 191 122 + 1;
#X obj 146 100 spigot;
#X msg 192 67 0;
#X msg 85 67 1;
#X floatatom 59 126 5 0 0 0 - - -;
#X obj 189 147 % 16;
#X obj 102 185 sel 0 1 2 3 4 5 6 7 8 9 10 11 12 13 14 15;
#X msg 101 246 60;
#X msg 171 252 65;
#X msg 205 252 67;
#X msg 236 254 69;
#X msg 139 245 62;
#X msg 272 257 70;
#X msg 307 255 72;
#X connect 0 0 9 0;
#X connect 2 0 4 0;
#X connect 3 0 7 0;
#X connect 4 0 3 0;
#X connect 5 0 10 0;
#X connect 5 0 12 0;
#X connect 5 0 6 0;
#X connect 6 0 11 0;
#X connect 7 0 5 0;
#X connect 8 0 7 1;
#X connect 9 0 7 1;
#X connect 11 0 5 1;
#X connect 12 0 17 0;
#X connect 12 1 17 0;
#X connect 12 2 17 0;
#X connect 12 4 18 0;
#X connect 12 6 16 0;
#X connect 12 8 15 0;
#X connect 12 10 19 0;
#X connect 12 12 19 0;
#X connect 12 14 19 0;
#X connect 12 15 8 0;
#X connect 13 0 1 0;
#X connect 14 0 1 0;
#X connect 15 0 1 0;
#X connect 16 0 1 0;
#X connect 17 0 1 0;
#X connect 18 0 1 0;
#X connect 19 0 1 0;
#X restore 467 314 pd seq;
#X msg 466 294 bang;
#N canvas 174 394 625 372 seq 0;
#X obj 84 37 inlet;
#X obj 103 295 outlet;
#X obj 148 25 r tick;
#X obj 148 68 sel 0;
#X obj 148 46 % 6;
#X obj 147 123 f;
#X obj 191 122 + 1;
#X obj 146 100 spigot;
#X msg 192 67 0;
#X msg 85 67 1;
#X floatatom 59 126 5 0 0 0 - - -;
#X obj 189 147 % 16;
#X obj 102 185 sel 0 1 2 3 4 5 6 7 8 9 10 11 12 13 14 15;
#X msg 101 246 60;
#X msg 171 252 65;
#X msg 205 252 67;
#X msg 236 254 69;
#X msg 139 245 62;
#X msg 272 257 70;
#X msg 307 255 72;
#X msg 342 257 74;
#X connect 0 0 9 0;
#X connect 2 0 4 0;
#X connect 3 0 7 0;
#X connect 4 0 3 0;
#X connect 5 0 10 0;
#X connect 5 0 12 0;
#X connect 5 0 6 0;
#X connect 6 0 11 0;
#X connect 7 0 5 0;
#X connect 8 0 7 1;
#X connect 9 0 7 1;
#X connect 11 0 5 1;
#X connect 12 0 19 0;
#X connect 12 1 19 0;
#X connect 12 2 20 0;
#X connect 12 4 19 0;
#X connect 12 6 18 0;
#X connect 12 8 15 0;
#X connect 12 10 14 0;
#X connect 12 15 8 0;
#X connect 13 0 1 0;
#X connect 14 0 1 0;
#X connect 15 0 1 0;
#X connect 16 0 1 0;
#X connect 17 0 1 0;
#X connect 18 0 1 0;
#X connect 19 0 1 0;
#X connect 20 0 1 0;
#X restore 532 313 pd seq;
#X msg 531 293 bang;
#X msg 371 99 1 1000 \, 0 1000 10000;
#X msg 543 364 0.3 20 \, 0 600 20;
#X obj 527 31 % 128;
#X msg 727 337 bells2 1 3;
#X obj 217 215 bng 15 250 50 0 empty empty empty 17 7 0 10 -262144
-1 -1;
#X obj 232 117 loadbang;
#X obj 398 19 % 2000;
#X obj 146 375 lop~ 4000;
#X obj 684 426 rj/e_reverb;
#X obj 465 62 sel 0 2 32 48 64 80 96;
#X floatatom 157 173 5 0 0 0 - - -;
#X obj 86 247 * 40;
#X obj 191 341 line~;
#X obj 145 355 *~;
#X msg 226 285 0.2 100;
#X msg 163 285 0.7 100;
#X connect 0 0 10 0;
#X connect 0 0 22 0;
#X connect 0 0 23 0;
#X connect 0 0 98 0;
#X connect 1 0 0 0;
#X connect 3 0 96 0;
#X connect 4 0 2 0;
#X connect 4 1 2 0;
#X connect 8 0 1 0;
#X connect 9 0 3 0;
#X connect 10 0 100 0;
#X connect 10 0 89 0;
#X connect 10 1 99 0;
#X connect 11 0 23 0;
#X connect 12 0 8 0;
#X connect 13 0 22 0;
#X connect 15 0 42 0;
#X connect 16 0 6 0;
#X connect 17 0 6 1;
#X connect 21 0 15 0;
#X connect 24 0 18 0;
#X connect 25 0 19 0;
#X connect 26 0 27 0;
#X connect 26 0 28 0;
#X connect 27 0 24 1;
#X connect 27 0 32 1;
#X connect 28 0 25 1;
#X connect 28 0 33 1;
#X connect 29 0 64 0;
#X connect 32 0 30 0;
#X connect 33 0 31 0;
#X connect 34 0 29 0;
#X connect 36 0 93 0;
#X connect 41 0 93 1;
#X connect 42 0 24 0;
#X connect 42 0 25 0;
#X connect 43 0 85 0;
#X connect 44 0 36 0;
#X connect 45 0 41 0;
#X connect 46 0 56 0;
#X connect 47 0 61 0;
#X connect 48 0 36 0;
#X connect 49 0 52 0;
#X connect 50 0 49 0;
#X connect 50 0 86 0;
#X connect 52 0 64 0;
#X connect 54 0 52 1;
#X connect 55 0 44 0;
#X connect 55 1 88 0;
#X connect 55 2 44 0;
#X connect 55 3 48 0;
#X connect 55 4 44 0;
#X connect 55 5 44 0;
#X connect 56 0 55 0;
#X connect 58 0 59 0;
#X connect 59 0 62 0;
#X connect 59 0 63 0;
#X connect 59 0 94 0;
#X connect 60 0 42 1;
#X connect 63 0 87 0;
#X connect 64 0 51 0;
#X connect 64 1 53 0;
#X connect 65 0 64 1;
#X connect 66 0 65 0;
#X connect 68 0 70 0;
#X connect 69 0 9 0;
#X connect 70 0 69 0;
#X connect 71 0 73 0;
#X connect 72 0 21 0;
#X connect 73 0 72 0;
#X connect 74 0 91 0;
#X connect 75 0 85 0;
#X connect 77 0 50 0;
#X connect 78 0 77 0;
#X connect 79 0 50 0;
#X connect 80 0 79 0;
#X connect 81 0 50 0;
#X connect 82 0 81 0;
#X connect 83 0 50 0;
#X connect 84 0 83 0;
#X connect 85 0 60 0;
#X connect 86 0 54 0;
#X connect 87 0 59 1;
#X connect 88 0 36 0;
#X connect 90 0 10 1;
#X connect 90 0 100 0;
#X connect 91 0 75 0;
#X connect 91 0 76 0;
#X connect 92 0 2 0;
#X connect 93 0 37 0;
#X connect 93 0 2 0;
#X connect 93 1 38 0;
#X connect 94 0 85 0;
#X connect 94 2 78 0;
#X connect 94 3 80 0;
#X connect 94 4 82 0;
#X connect 94 5 84 0;
#X connect 94 6 34 0;
#X connect 95 0 96 1;
#X connect 96 0 12 0;
#X connect 97 0 98 1;
#X connect 98 0 92 0;
#X connect 99 0 97 0;
#X connect 100 0 97 0;
