#N canvas 264 428 450 300 10;
#X obj 81 122 osc~;
#X obj 194 127 osc~;
#X obj 80 147 clip~ -0.7 0.7;
#X obj 195 104 * 1.01;
#X obj 194 149 clip~ -0.7 0.7;
#X obj 87 225 outlet~;
#X obj 105 15 inlet;
#X obj 105 38 mtof;
#X connect 0 0 2 0;
#X connect 1 0 4 0;
#X connect 2 0 5 0;
#X connect 3 0 1 0;
#X connect 4 0 5 0;
#X connect 6 0 7 0;
#X connect 7 0 0 0;
#X connect 7 0 3 0;
