#N canvas 366 93 545 392 10;
#X obj 133 112 -;
#X obj 131 82 t f f;
#X obj 179 111 -;
#X obj 177 81 t f f;
#X obj 225 112 -;
#X obj 223 82 t f f;
#X obj 133 143 abs;
#X obj 178 146 abs;
#X obj 224 146 abs;
#X obj 177 186 +;
#X obj 160 216 +;
#X floatatom 160 238 5 0 0 0 - - -;
#X obj 161 280 change;
#X obj 160 324 s shake;
#X obj 160 302 sel 1;
#X obj 161 258 > 2;
#X obj 130 25 r #accelerate;
#X obj 134 49 unpack 0 0 0;
#X connect 0 0 6 0;
#X connect 1 0 0 1;
#X connect 1 1 0 0;
#X connect 2 0 7 0;
#X connect 3 0 2 1;
#X connect 3 1 2 0;
#X connect 4 0 8 0;
#X connect 5 0 4 1;
#X connect 5 1 4 0;
#X connect 6 0 10 0;
#X connect 7 0 9 0;
#X connect 8 0 9 1;
#X connect 9 0 10 1;
#X connect 10 0 11 0;
#X connect 11 0 15 0;
#X connect 12 0 14 0;
#X connect 14 0 13 0;
#X connect 15 0 12 0;
#X connect 16 0 17 0;
#X connect 17 0 1 0;
#X connect 17 1 3 0;
#X connect 17 2 5 0;
