#N canvas 0 22 926 406 10;
#X obj 58 196 f;
#X obj 91 197 + 1;
#X obj 57 217 s tick;
#X obj 109 133 /;
#X msg 109 114 5000 \$1;
#X floatatom 109 92 5 0 0 0 - - -;
#X floatatom 110 153 5 0 0 0 - - -;
#X obj 58 146 tgl 15 0 empty empty empty 17 7 0 10 -262144 -1 -1 0
1;
#X msg 147 174 0;
#X obj 27 69 loadbang;
#X obj 125 220 s ticktime;
#X obj 107 40 f \$1;
#X obj 107 14 inlet;
#X obj 108 61 moses 2;
#X obj 58 175 metro 41.66;
#X obj 213 174 * 12;
#X floatatom 213 199 5 0 0 0 - - -;
#X obj 28 92 del 200;
#X obj 192 25 inlet;
#X connect 0 0 1 0;
#X connect 0 0 2 0;
#X connect 1 0 0 1;
#X connect 3 0 6 0;
#X connect 4 0 3 0;
#X connect 5 0 4 0;
#X connect 6 0 10 0;
#X connect 6 0 14 1;
#X connect 6 0 15 0;
#X connect 7 0 14 0;
#X connect 8 0 0 1;
#X connect 9 0 17 0;
#X connect 9 0 11 0;
#X connect 11 0 13 0;
#X connect 12 0 11 0;
#X connect 13 1 5 0;
#X connect 14 0 0 0;
#X connect 15 0 16 0;
#X connect 17 0 14 0;
#X connect 18 0 8 0;
