#N canvas 157 78 1123 595 10;
#X msg 617 -61 set;
#X obj 442 -201 inlet;
#X obj 674 -17 loadbang;
#X msg 465 -140 32;
#X msg 442 70 0.83 0.02 0.69 0.94 0.16 0.74 0.33 0.18 0.97 0.85 0.25
0.31 0.4 0.05 0.67 0.48 0.29 0.59 0.73 0.76 0.9 0.22 0.73 0.59 0.64
0.18 0.39 0.28 0.83 0.22 0.04 0.48;
#N canvas 0 22 450 300 (subpatch) 0;
#X array \$1-prob 32 float 3;
#A 0 0.25 0.54 0.64 0.38 0.69 0.97 0.9 0.68 0.79 0.44 0.9 0.08 0.45
0.12 0.07 0.44 0.24 0.28 0.85 0.2 0.36 0.44 0.19 0.08 0.64 0.68 0.05
0.79 0.52 0.82 0.84 0;
#X coords 0 1 32 -1 200 140 1;
#X restore 870 -183 graph;
#X msg 465 20 add2 \$1;
#X obj 465 -76 random 100;
#X obj 465 -55 / 100;
#X obj 442 -176 t b b b;
#X obj 465 -119 until;
#X obj 465 -98 b;
#X obj 442 124 s \$1-prob;
#X connect 0 0 4 0;
#X connect 1 0 9 0;
#X connect 2 0 4 0;
#X connect 3 0 10 0;
#X connect 4 0 12 0;
#X connect 6 0 4 0;
#X connect 7 0 8 0;
#X connect 8 0 6 0;
#X connect 9 0 4 0;
#X connect 9 1 3 0;
#X connect 9 2 0 0;
#X connect 10 0 11 0;
#X connect 11 0 7 0;
