#N canvas 4 22 962 690 10;
#X obj -13 154 r #touch;
#X obj 117 154 r #accelerate;
#X obj -13 224 list prepend #touch;
#X obj 277 610 netsend;
#X msg 316 539 connect \$1 9876;
#X obj 277 400 list prepend send;
#X obj 277 374 spigot;
#X obj 316 471 netreceive 9878;
#X obj 335 374 r \$0.conn.state;
#X obj 277 642 s \$0.conn.state;
#X obj 316 515 list;
#X obj 418 495 sel 0;
#X msg 418 517 disconnect;
#X obj 277 427 list trim;
#X obj 117 224 list prepend #accelerate;
#X obj 663 456 soundinput;
#X obj 663 516 soundoutput;
#N canvas 0 22 438 286 INFO 1;
#X text 25 56 Version: 2008-07-11;
#X text 25 126 Version: 2011-03-30;
#X text 25 146 Author: Joe White;
#X text 25 103 ------------------------------------------------------------
;
#X text 25 33 ------------------------------------------------------------
;
#X text 25 193 ------------------------------------------------------------
;
#X text 25 166 Change: Added gyroscope \, time \, compass and location
send;
#X text 25 73 Original Author: Roman Haefeli;
#X restore -13 32 pd INFO;
#X obj 277 154 r #gyro;
#X obj 277 224 list prepend #gyro;
#X obj 499 34 loadbang;
#X obj 656 183 pack f f f f f f f f f f;
#X obj 407 184 pack f f f;
#X obj 407 224 list prepend #loc;
#X obj 499 64 metro 50;
#X obj 499 94 t b b b;
#X obj 656 223 list prepend #time;
#X obj 518 224 list prepend #compass;
#X text 39 31 send_sensors.rj;
#X obj 656 153 rj_time;
#X obj 518 154 rj_compass;
#X obj 407 154 rj_loc;
#X connect 0 0 2 0;
#X connect 1 0 14 0;
#X connect 2 0 6 0;
#X connect 3 0 9 0;
#X connect 4 0 3 0;
#X connect 5 0 13 0;
#X connect 6 0 5 0;
#X connect 7 0 10 0;
#X connect 7 1 11 0;
#X connect 8 0 6 1;
#X connect 10 0 4 0;
#X connect 11 0 12 0;
#X connect 12 0 3 0;
#X connect 13 0 3 0;
#X connect 14 0 6 0;
#X connect 18 0 19 0;
#X connect 19 0 6 0;
#X connect 20 0 24 0;
#X connect 21 0 26 0;
#X connect 22 0 23 0;
#X connect 23 0 6 0;
#X connect 24 0 25 0;
#X connect 25 0 31 0;
#X connect 25 1 30 0;
#X connect 25 2 29 0;
#X connect 26 0 6 0;
#X connect 27 0 6 0;
#X connect 29 0 21 0;
#X connect 29 1 21 1;
#X connect 29 2 21 2;
#X connect 29 3 21 3;
#X connect 29 4 21 4;
#X connect 29 5 21 5;
#X connect 29 6 21 6;
#X connect 29 7 21 7;
#X connect 29 8 21 8;
#X connect 29 9 21 9;
#X connect 30 0 27 0;
#X connect 31 0 22 0;
#X connect 31 1 22 1;
#X connect 31 2 22 2;
