#N canvas 193 199 463 292 10;
#N canvas 70 571 636 362 MODULE_INFO 0;
#X text 64 79 authors: Reality Jockey;
#X text 65 57 name: Drowning;
#X text 65 135 decorator: s1m1-s2m1;
#X text 66 160 tags:;
#X text 65 99 description: Drowning uses reverb and pitchshift to send
you deep underwater. Depth affects the amount of reverb. Pressure the
pitchshift and the pumping.;
#X restore 90 20 pd MODULE_INFO;
#N canvas 422 22 608 753 \$0-DSP 0;
#X obj 168 18 inlet~;
#X obj 170 490 lop~ 3000;
#X obj 256 490 lop~ 3000;
#X obj 170 699 outlet~;
#X obj 256 699 outlet~;
#X obj 241 188 loadbang;
#X obj 206 441 delwrite~ \$0-dell 2000;
#X obj 2 364 lop~ 3000;
#X obj 2 344 hip~ 150;
#X obj 2 386 *~ 0.3;
#X obj 178 186 *~ 0.3;
#X msg 284 323 dry \$1;
#X obj 2 303 - 10;
#X obj 2 409 *~ 0.4;
#X obj 189 207 *~ 0.4;
#X obj 176 101 + 10;
#X obj 284 298 + 1;
#X obj 284 274 * -1;
#X obj 284 250 r \$0-Depth;
#X obj 377 232 r \$0-tick;
#X obj 377 398 mod 8;
#X obj 377 419 sel 0;
#X obj 377 590 vline~;
#X obj 256 676 *~;
#X obj 170 674 *~;
#X obj 409 263 r \$0-Pressure;
#X obj 409 329 m_scale 0 1 32 2;
#X obj 409 350 int;
#X obj 409 372 t f b f;
#X obj 377 518 f;
#X obj 409 284 t f f;
#X msg 241 210 amp 90 \, hall 90 \, freq 2000 \, damp 60;
#X obj 2 23 r \$0-bpm;
#X obj 2 47 t f f;
#X obj 466 396 r \$0-bpm;
#X obj 466 417 / 8;
#X obj 432 441 * 1;
#X obj 432 462 / 2;
#X obj 432 483 t f f;
#X obj 377 544 pack f f f;
#X msg 377 568 3 \, \$3 \$2 0 \, 3 \$1 \$2;
#X obj 464 506 / 4;
#X obj 441 306 m_scale 0 1 2.5 1;
#X obj 168 349 e_reverb \$0-rev1;
#X obj 177 121 delread~ \$0-dell 520;
#X obj 206 417 *~ 0.5;
#X obj 178 144 hip~ 200;
#X obj 179 164 lop~ 3000;
#X obj -1 323 delread~ \$0-dell 490;
#X connect 0 0 43 0;
#X connect 1 0 24 0;
#X connect 2 0 23 0;
#X connect 5 0 31 0;
#X connect 7 0 9 0;
#X connect 8 0 7 0;
#X connect 9 0 13 0;
#X connect 9 0 43 0;
#X connect 10 0 14 0;
#X connect 10 0 43 0;
#X connect 11 0 43 1;
#X connect 12 0 48 0;
#X connect 13 0 1 0;
#X connect 14 0 2 0;
#X connect 15 0 44 0;
#X connect 16 0 11 0;
#X connect 17 0 16 0;
#X connect 18 0 17 0;
#X connect 19 0 20 0;
#X connect 20 0 21 0;
#X connect 21 0 29 0;
#X connect 22 0 23 1;
#X connect 22 0 24 1;
#X connect 23 0 4 0;
#X connect 24 0 3 0;
#X connect 25 0 30 0;
#X connect 26 0 27 0;
#X connect 27 0 28 0;
#X connect 28 0 20 1;
#X connect 28 1 36 0;
#X connect 28 2 36 1;
#X connect 29 0 39 0;
#X connect 30 0 26 0;
#X connect 30 1 42 0;
#X connect 31 0 43 1;
#X connect 32 0 33 0;
#X connect 33 0 12 0;
#X connect 33 1 15 0;
#X connect 34 0 35 0;
#X connect 35 0 36 0;
#X connect 36 0 37 0;
#X connect 37 0 38 0;
#X connect 38 0 29 1;
#X connect 38 1 41 0;
#X connect 39 0 40 0;
#X connect 40 0 22 0;
#X connect 41 0 39 1;
#X connect 42 0 39 2;
#X connect 43 0 1 0;
#X connect 43 0 45 0;
#X connect 43 1 2 0;
#X connect 43 1 45 0;
#X connect 44 0 46 0;
#X connect 45 0 6 0;
#X connect 46 0 47 0;
#X connect 47 0 10 0;
#X connect 48 0 8 0;
#X restore 90 164 pd \$0-DSP;
#X obj 90 58 inlet~;
#X obj 90 228 outlet~;
#X obj 150 228 outlet~;
#X obj 210 58 inlet;
#N canvas 221 116 362 345 \$0-PARAMETERS 0;
#X obj 106 132 cnv 15 187 97 empty empty RJC_Parameters 10 12 1 14
-162280 -262144 0;
#X obj 106 106 cnv 15 187 20 empty empty Drowning 57 11 1 14 -261234
-33289 0;
#X obj -19 49 inlet;
#X obj -19 71 route tick bpm;
#X obj 110 247 outlet;
#X obj -19 182 s \$0-tick;
#X obj 110 154 rjc_parameter_floatrange \$0 Depth 0.7;
#X obj 110 189 rjc_parameter_floatrange \$0 Pressure 0.4;
#X obj 28 157 s \$0-bpm;
#X obj 28 94 t b f;
#X obj 28 115 60000;
#X obj 28 136 /;
#X connect 2 0 3 0;
#X connect 3 0 5 0;
#X connect 3 1 9 0;
#X connect 3 2 6 0;
#X connect 6 0 7 0;
#X connect 7 0 4 0;
#X connect 9 0 10 0;
#X connect 9 1 11 1;
#X connect 10 0 11 0;
#X connect 11 0 8 0;
#X coords 0 -1 1 1 199 135 2 100 100;
#X restore 210 84 pd \$0-PARAMETERS;
#X obj 210 228 outlet;
#N canvas 273 462 339 493 \$0-INPUT 0;
#X obj 33 47 inlet~;
#X obj 26 376 outlet~;
#X msg 117 90 freq \$1;
#N canvas 1139 219 328 563 filter 0;
#X obj 80 296 unpack f f f;
#X obj 28 397 vcf~;
#X obj 68 461 *~;
#N canvas 212 108 119 261 clfo 0;
#X obj 24 127 * 6.2824;
#X obj 24 150 cos;
#X obj 24 173 + 1;
#X obj 24 218 outlet;
#X obj 24 196 * 0.5;
#X obj 24 55 inlet tick;
#X obj 24 80 mod 768;
#X obj 24 103 / 768;
#X connect 0 0 1 0;
#X connect 1 0 2 0;
#X connect 2 0 4 0;
#X connect 4 0 3 0;
#X connect 5 0 6 0;
#X connect 6 0 7 0;
#X connect 7 0 0 0;
#X restore 80 39 pd clfo;
#X obj 134 87 swap 1;
#X obj 134 108 -;
#X obj 134 130 t f f;
#X obj 80 60 t f f;
#X obj 80 270 pack f f f;
#X text 123 186 frequency;
#X text 160 212 resonance;
#X text 222 236 gain makeup;
#X obj 161 340 lop~ 0.2;
#X obj 80 340 lop~ 0.2;
#X obj 68 492 outlet~;
#X obj 28 18 inlet~;
#X obj 68 424 vcf~;
#X obj 80 18 inlet;
#X obj 80 155 * 1300;
#X obj 134 155 * 1.5;
#X obj 180 155 * 1.5;
#X obj 134 210 + 2;
#X obj 180 235 + 0.8;
#X obj 120 319 t f f;
#X obj 80 186 + 200;
#X connect 0 0 13 0;
#X connect 0 1 23 0;
#X connect 0 2 12 0;
#X connect 1 0 16 0;
#X connect 2 0 14 0;
#X connect 3 0 7 0;
#X connect 4 0 5 0;
#X connect 4 1 5 1;
#X connect 5 0 6 0;
#X connect 6 0 19 0;
#X connect 6 1 20 0;
#X connect 7 0 18 0;
#X connect 7 1 4 0;
#X connect 8 0 0 0;
#X connect 12 0 2 1;
#X connect 13 0 1 1;
#X connect 13 0 16 1;
#X connect 15 0 1 0;
#X connect 16 0 2 0;
#X connect 17 0 3 0;
#X connect 18 0 24 0;
#X connect 19 0 21 0;
#X connect 20 0 22 0;
#X connect 21 0 8 1;
#X connect 22 0 8 2;
#X connect 23 0 1 2;
#X connect 23 1 16 1;
#X connect 24 0 8 0;
#X restore 27 275 pd filter;
#X obj 43 112 e_freqshift;
#X obj 43 134 *~ 1.5;
#X obj 87 253 r \$0-tick;
#X obj 117 47 r \$0-Pressure;
#X obj 29 178 lop~ 3000;
#X obj 27 224 lop~ 3000;
#X obj 27 202 lop~ 3000;
#X obj 27 312 hip~ 80;
#X obj 27 332 hip~ 80;
#X obj 27 351 hip~ 80;
#X obj 117 68 m_scale 0 1 -200 -1000;
#X connect 0 0 4 0;
#X connect 0 0 8 0;
#X connect 2 0 4 1;
#X connect 3 0 11 0;
#X connect 4 0 5 0;
#X connect 5 0 8 0;
#X connect 6 0 3 1;
#X connect 7 0 14 0;
#X connect 8 0 10 0;
#X connect 9 0 3 0;
#X connect 10 0 9 0;
#X connect 11 0 12 0;
#X connect 12 0 13 0;
#X connect 13 0 1 0;
#X connect 14 0 2 0;
#X coords 0 0 1 1 85 40 0;
#X restore 90 107 pd \$0-INPUT;
#X connect 1 0 3 0;
#X connect 1 1 4 0;
#X connect 2 0 8 0;
#X connect 5 0 6 0;
#X connect 6 0 7 0;
#X connect 8 0 1 0;
#X coords 0 0 1 1 85 60 0;
