#N canvas 0 0 1205 681 10;
#X declare -path .;
#X declare -path rj;
#X obj 249 52 catch~ LEFT;
#X obj 343 50 catch~ RIGHT;
#X obj 367 150 soundoutput;
#X obj 44 83 soundinput;
#X obj 86 27 declare -path .;
#X obj 87 50 declare -path rj;
#N canvas 0 0 586 607 GUI 0;
#X obj 124 128 g_hsl pan-r 0 1;
#X obj 124 159 g_hsl vol 0 1;
#X obj 124 225 g_nbx delay;
#X obj 194 225 g_nbx delay-r;
#X obj 124 260 g_nbx size;
#X obj 194 260 g_nbx size-r;
#X obj 124 295 g_nbx bw;
#X obj 194 295 g_nbx grain-rate;
#X obj 124 190 g_hsl vol-r 0 1;
#X obj 124 68 inlet;
#X obj 194 369 outlet;
#X msg 124 405 phase-rand bang;
#X obj 124 326 bng 15 250 50 0 empty empty phase-rand 17 7 1 10 -262144
-1 -1;
#X text 267 132 random panning width;
#X text 267 162 base volume;
#X text 268 193 random volume width;
#X text 270 230 delay \, random delay variation;
#X text 272 266 grain size and its variation;
#X text 272 326 randomize the phase;
#X connect 0 0 1 0;
#X connect 1 0 8 0;
#X connect 2 0 3 0;
#X connect 3 0 5 0;
#X connect 4 0 6 0;
#X connect 5 0 4 0;
#X connect 6 0 7 0;
#X connect 7 0 10 0;
#X connect 8 0 2 0;
#X connect 9 0 0 0;
#X connect 11 0 10 0;
#X connect 12 0 11 0;
#X coords 0 -1 1 1 380 250 1 100 100;
#X restore 746 345 pd GUI;
#X obj 746 600 s \$0-GRAIN;
#X obj 624 285 r \$0-SET-GRAIN;
#X obj 82 447 e_graindelread TAG \$0-delay;
#X msg 279 417 help;
#X obj 268 361 r \$0-GRAIN;
#X msg 342 415 save;
#X obj 342 446 t a b;
#X obj 268 471 u_cocollect;
#X obj 268 554 s \$0-SET-GRAIN;
#X obj 373 579 r \$0-GRAIN;
#X obj 81 629 throw~ LEFT;
#X obj 372 631 throw~ RIGHT;
#X obj 82 472 throw~ LEFT;
#X obj 174 476 throw~ RIGHT;
#X msg 559 105 phase-rand bang;
#X obj 559 76 bng 15 250 50 0 empty empty phase-rand 17 7 1 10 -262144
-1 -1;
#X obj 559 126 s \$0-GRAIN;
#X msg 268 503 pan-r 0.228346 \, delay-r 1 \, delay 500 \, size-r 10
\, size 87 \, vol-r 0.102362 \, vol 0.251969 \, bw 5 \, phase 0.5068
\, grain-rate 11 \,;
#X obj 559 24 r \$0-SET-GRAIN;
#X obj 559 46 b;
#N canvas 217 174 960 629 settings 0;
#X msg 215 106 pan-r 0.582677 \, delay-r 1 \, delay 500 \, size-r 0
\, size 111 \, vol-r 0.133858 \, vol 0.181102 \, bw 1 \, grain-rate
19 \,;
#X msg 216 167 pan-r 0.582677 \, delay-r 72 \, delay 500 \, size-r
23.8498 \, size 111 \, vol-r 0.133858 \, vol 0.181102 \, bw 1.3 \,
grain-rate 19 \,;
#X obj 215 139 s \$0-SET-GRAIN;
#X obj 217 270 s \$0-SET-GRAIN;
#X obj 216 206 s \$0-SET-GRAIN;
#X obj 221 503 s \$0-SET-GRAIN;
#X obj 302 25 loadbang;
#X obj 219 433 s \$0-SET-GRAIN;
#X msg 219 382 pan-r 0.779528 \, delay-r 0 \, delay 100 \, size-r 0
\, size 52 \, vol-r 0.125984 \, vol 0.354331 \, bw 4 \, grain-rate
7 \,;
#X obj 216 354 s \$0-SET-GRAIN;
#X msg 216 303 pan-r 0.228346 \, delay-r 1 \, delay 500 \, size-r 10
\, size 87 \, vol-r 0.102362 \, vol 0.251969 \, bw 5 \, grain-rate
11 \,;
#X obj 45 71 random 6;
#X obj 45 47 b;
#X obj 45 11 inlet;
#X obj 45 99 select 0 1 2 3 4 5;
#X msg 167 54 1;
#X msg 135 53 0;
#X obj 135 11 t b b;
#X obj 39 248 outlet;
#X obj 167 80 metro 60000;
#X obj 167 33 delay 60000;
#X msg 217 231 pan-r 0.779528 \, delay-r 250 \, delay 500 \, size-r
14 \, size 33 \, vol-r 0.4 \, vol 0.283465 \, bw 4 \, grain-rate 40
\,;
#X msg 221 455 pan-r 0.787402 \, delay-r 400 \, delay 500 \, size-r
0 \, size 100 \, vol-r 0.133858 \, vol 0.409449 \, bw 1 \, grain-rate
30 \,;
#X connect 0 0 2 0;
#X connect 1 0 4 0;
#X connect 6 0 12 0;
#X connect 8 0 7 0;
#X connect 10 0 9 0;
#X connect 11 0 14 0;
#X connect 11 0 18 0;
#X connect 12 0 11 0;
#X connect 12 0 17 0;
#X connect 13 0 12 0;
#X connect 14 0 22 0;
#X connect 14 1 8 0;
#X connect 14 2 10 0;
#X connect 14 3 21 0;
#X connect 14 4 1 0;
#X connect 14 5 0 0;
#X connect 15 0 19 0;
#X connect 16 0 19 0;
#X connect 17 0 16 0;
#X connect 17 1 20 0;
#X connect 19 0 11 0;
#X connect 20 0 15 0;
#X connect 21 0 3 0;
#X connect 22 0 5 0;
#X restore 1025 225 pd settings;
#X obj 746 201 r \$0-SET-GRAIN;
#N canvas 412 216 384 416 accel 0;
#X obj 14 17 r #accelerate;
#X obj 14 88 unpack f f f;
#X obj 14 148 *;
#X obj 76 148 *;
#X obj 135 148 *;
#X obj 14 178 +;
#X obj 14 208 +;
#X obj 14 238 pow 0.5;
#X msg 14 118 \$1 \$1;
#X msg 76 118 \$1 \$1;
#X msg 135 118 \$1 \$1;
#X obj 14 298 outlet;
#X obj 14 50 m_speedlimit 50;
#X connect 0 0 12 0;
#X connect 1 0 8 0;
#X connect 1 1 9 0;
#X connect 1 2 10 0;
#X connect 2 0 5 0;
#X connect 3 0 5 1;
#X connect 4 0 6 1;
#X connect 5 0 6 0;
#X connect 6 0 7 0;
#X connect 7 0 11 0;
#X connect 8 0 2 0;
#X connect 9 0 3 0;
#X connect 10 0 4 0;
#X connect 12 0 1 0;
#X restore 1025 126 pd accel;
#X floatatom 1025 246 5 0 0 0 - - -;
#X text 118 204 feedback;
#X obj 44 269 delwrite~ \$0-delay 2000;
#X obj 65 205 *~ 0.5;
#X obj 713 24 loadbang;
#N canvas 0 0 986 698 net 0;
#X obj 103 97 list prepend LOAD;
#X obj 103 145 s NETPRINT;
#X obj 167 125 tgl 15 0 empty empty empty 17 7 0 10 -262144 -1 -1 0
1;
#N canvas 0 0 450 300 netprinter 0;
#X obj 138 55 inlet;
#X obj 138 159 spigot;
#X obj 138 190 netsend 1;
#X msg 219 159 connect 192.168.0.1 9000;
#X obj 219 128 loadbang;
#X obj 138 86 list prepend send;
#X obj 138 108 list trim;
#X obj 189 56 r NETPRINT;
#X obj 138 216 outlet;
#X floatatom 290 51 5 0 0 0 - - -;
#X msg 222 181 disconnect;
#X obj 341 68 inlet;
#X obj 334 101 select 1 0;
#X connect 0 0 5 0;
#X connect 1 0 2 0;
#X connect 2 0 1 1;
#X connect 2 0 8 0;
#X connect 3 0 2 0;
#X connect 5 0 6 0;
#X connect 6 0 1 0;
#X connect 7 0 5 0;
#X connect 9 0 5 0;
#X connect 10 0 2 0;
#X connect 11 0 12 0;
#X connect 12 0 3 0;
#X connect 12 1 10 0;
#X restore 102 167 pd netprinter;
#X obj 103 123 spigot 1;
#X obj 191 148 tgl 15 0 empty empty empty 17 7 0 10 -262144 -1 -1 0
1;
#X msg 194 125 0;
#X obj 242 99 loadbang;
#X msg 238 126 1;
#X obj 103 64 inlet;
#X connect 0 0 4 0;
#X connect 2 0 4 1;
#X connect 4 0 1 0;
#X connect 5 0 3 1;
#X connect 6 0 5 0;
#X connect 7 0 6 0;
#X connect 8 0 5 0;
#X connect 9 0 0 0;
#X restore 713 84 pd net;
#N canvas 0 0 450 300 meter 0;
#X obj 22 27 inlet~;
#X obj 26 69 env~;
#X obj 192 113 f;
#X msg 191 76 0;
#X obj 116 111 moses 0;
#X obj 162 174 outlet;
#X obj 194 51 del 1500;
#X msg 194 29 bang;
#X obj 89 28 inlet~;
#X obj 93 70 env~;
#X connect 0 0 1 0;
#X connect 1 0 4 0;
#X connect 2 0 4 1;
#X connect 3 0 4 1;
#X connect 4 1 2 0;
#X connect 4 1 5 0;
#X connect 4 1 7 0;
#X connect 6 0 3 0;
#X connect 7 0 6 0;
#X connect 8 0 9 0;
#X connect 9 0 4 0;
#X restore 345 208 pd meter;
#X floatatom 345 272 5 0 0 0 - - -;
#X obj 345 230 int;
#X obj 345 251 - 100;
#X obj 345 310 s NETPRINT;
#X msg 345 289 vol \$1;
#X obj 45 234 lop~ 1500;
#X obj 1025 169 change;
#X obj 1025 192 select 1;
#X obj 1025 266 bng 15 250 50 0 empty empty empty 17 7 0 10 -262144
-1 -1;
#X text 990 311 arg4: max stepsize/1000;
#X obj 713 52 u_loadmeter;
#X obj 1025 148 > 3;
#X obj 82 606 u_makepoly 4 1 e_graindelread TAG \$0-delay;
#N canvas 0 0 775 495 compress 0;
#X obj 333 117 loadbang;
#X obj 139 96 inlet~;
#X obj 138 344 outlet~;
#X obj 140 197 e_dynproc xxxxx;
#X text 268 199 noise gate;
#X msg 242 171 comp2 152 \, comp1 1 \, rel 200 \, att 20 \, thresh
60 \,;
#X connect 0 0 5 0;
#X connect 1 0 3 0;
#X connect 1 0 3 1;
#X connect 3 0 2 0;
#X connect 5 0 3 2;
#X restore 45 138 pd compress;
#X obj 746 227 drivedrunk pan-r 0 0.8;
#X obj 366 117 e_platereverb REV;
#X obj 898 44 drivedrunk size-r 0 100;
#X obj 746 249 drivedrunk vol 0.2 0.5;
#X obj 746 316 drivedrunk delay-r 0 200;
#X obj 746 272 drivedrunk vol-r 0 0.3;
#X obj 746 294 drivedrunk delay 30 700;
#X obj 898 66 drivedrunk size 30 200 2;
#X obj 898 88 drivedrunk grain-rate 0.1 100 10;
#N canvas 0 0 954 347 set 0;
#X obj 286 128 loadbang;
#X obj 286 217 outlet;
#X msg 463 63 dry 0.7 \, decay_diffusion2 0.68 \, decay_diffusion1
0.74 \, input_diffusion2 0.779 \, excursion 0.53761 \, input_diffusion1
0.685 \, decay 0.98 \, damping 4637 \, bandwidth 10000 \, predelay
0 \,;
#X text 470 40 large;
#X msg 286 153 dry 0.7;
#X connect 0 0 4 0;
#X connect 4 0 1 0;
#X restore 482 90 pd set;
#X connect 0 0 33 0;
#X connect 0 0 36 0;
#X connect 0 0 52 0;
#X connect 1 0 33 0;
#X connect 1 0 36 0;
#X connect 1 0 52 1;
#X connect 3 0 50 0;
#X connect 6 0 7 0;
#X connect 8 0 6 0;
#X connect 9 0 19 0;
#X connect 9 1 20 0;
#X connect 9 2 14 0;
#X connect 10 0 9 1;
#X connect 11 0 9 1;
#X connect 12 0 13 0;
#X connect 13 0 9 1;
#X connect 13 1 14 1;
#X connect 14 0 24 0;
#X connect 16 0 49 1;
#X connect 21 0 23 0;
#X connect 22 0 21 0;
#X connect 24 0 15 0;
#X connect 25 0 26 0;
#X connect 26 0 22 0;
#X connect 27 0 30 0;
#X connect 28 0 51 0;
#X connect 29 0 48 0;
#X connect 30 0 45 0;
#X connect 33 0 42 0;
#X connect 34 0 47 0;
#X connect 36 0 38 0;
#X connect 37 0 41 0;
#X connect 38 0 39 0;
#X connect 39 0 37 0;
#X connect 41 0 40 0;
#X connect 42 0 32 0;
#X connect 43 0 44 0;
#X connect 44 0 27 0;
#X connect 47 0 35 0;
#X connect 48 0 43 0;
#X connect 49 0 17 0;
#X connect 49 1 18 0;
#X connect 50 0 42 0;
#X connect 51 0 54 0;
#X connect 52 0 2 0;
#X connect 52 1 2 1;
#X connect 54 0 56 0;
#X connect 55 0 6 0;
#X connect 56 0 57 0;
#X connect 57 0 55 0;
#X connect 60 0 52 2;
