#N canvas 359 439 614 437 10;
#X obj 174 322 list prepend \$1;
#X obj 174 348 list trim;
#X obj 174 190 m_scale \$2 \$3 0 1000;
#X obj 174 78 list trim;
#X obj 174 169 route \$1;
#X obj 174 294 m_scale 0 1000 \$2 \$3;
#X obj 174 377 outlet;
#X obj 174 50 inlet;
#X msg 357 167 1;
#X msg 325 166 0;
#X obj 325 124 t b b;
#X obj 357 146 delay 400;
#X obj 174 246 c_drunk 1000 5;
#X obj 349 249 f \$4;
#X obj 349 275 select 0;
#X obj 349 297 5;
#X obj 349 226 loadbang;
#X obj 357 193 metro 350;
#X connect 0 0 1 0;
#X connect 1 0 6 0;
#X connect 2 0 12 0;
#X connect 3 0 4 0;
#X connect 4 0 2 0;
#X connect 4 0 10 0;
#X connect 4 1 6 0;
#X connect 5 0 0 0;
#X connect 7 0 3 0;
#X connect 8 0 17 0;
#X connect 9 0 17 0;
#X connect 10 0 9 0;
#X connect 10 1 11 0;
#X connect 11 0 8 0;
#X connect 12 0 5 0;
#X connect 13 0 14 0;
#X connect 14 0 15 0;
#X connect 14 1 12 2;
#X connect 15 0 12 2;
#X connect 16 0 13 0;
#X connect 17 0 12 0;
