#N canvas 180 203 1081 760 10;
#X obj 127 152 s_pinknoise;
#X obj 130 328 *~;
#X obj 127 279 e_beequad;
#X obj 192 224 mtof;
#X obj 193 247 u_bandpass2q 1000 2;
#X msg 191 178 85;
#X msg 322 225 51;
#X obj 125 92 loadbang;
#X msg 126 132 1;
#X obj 319 163 line;
#X obj 192 200 f;
#X obj 141 671 throw~ LEFT;
#X obj 154 649 throw~ RIGHT;
#X obj 317 24 r tick;
#X obj 318 68 sel 0;
#X obj 319 113 select 0 1 2 3;
#X msg 484 137 70 500;
#X obj 556 184 lop~ 20;
#X obj 556 136 select 0 1 2 3;
#X msg 556 158 0.8;
#X msg 590 158 0.5;
#X msg 622 157 0.65;
#X msg 663 157 0.3;
#X obj 556 111 random 6;
#X msg 429 138 65 500;
#X obj 317 46 mod 4;
#X obj 129 695 throw~ WIND;
#X obj 319 91 random 4;
#X obj 49 219 r~ INPUT;
#X obj 126 256 *~ 10;
#X obj 49 240 *~ 5;
#X obj 128 302 lop~ 1000;
#X obj 126 481 *~;
#X obj 233 453 lop~ 0.28;
#X msg 234 429 1;
#X msg 269 430 0;
#X msg 373 137 75 500;
#X msg 320 138 80 500;
#X obj 268 643 throw~ CIRCLEPAN;
#X text 210 283 Inspired by Chuck Wiggins wind synthesis in Wind Walker
;
#X obj 127 622 *~ 0.2;
#X obj 238 608 *~ 0.3;
#X obj 778 167 sel 0 1;
#X obj 342 519 r duckreality;
#X obj 414 579 loadbang;
#X obj 342 549 sel 0 1;
#X msg 342 579 0;
#X msg 377 579 1;
#X obj 127 523 *~;
#X obj 186 526 lop~ 0.3;
#X obj 765 267 switch~;
#X obj 756 212 del 1000;
#X msg 763 235 0;
#X msg 821 234 1;
#X text 836 262 switch on and off;
#X text 407 549 send message to duck other effects;
#X text 308 439 fade in off;
#X text 17 19 fw;
#X obj 776 142 r windnoise;
#X connect 0 0 29 0;
#X connect 1 0 32 0;
#X connect 2 0 31 0;
#X connect 3 0 4 0;
#X connect 4 0 2 1;
#X connect 5 0 10 0;
#X connect 6 0 4 1;
#X connect 7 0 8 0;
#X connect 7 0 5 0;
#X connect 7 0 6 0;
#X connect 8 0 0 0;
#X connect 9 0 10 0;
#X connect 10 0 3 0;
#X connect 13 0 25 0;
#X connect 14 0 23 0;
#X connect 14 0 27 0;
#X connect 15 0 37 0;
#X connect 15 1 36 0;
#X connect 15 2 24 0;
#X connect 15 3 16 0;
#X connect 16 0 9 0;
#X connect 17 0 1 1;
#X connect 18 0 19 0;
#X connect 18 1 20 0;
#X connect 18 2 21 0;
#X connect 18 3 22 0;
#X connect 19 0 17 0;
#X connect 20 0 17 0;
#X connect 21 0 17 0;
#X connect 22 0 17 0;
#X connect 23 0 18 0;
#X connect 24 0 9 0;
#X connect 25 0 14 0;
#X connect 27 0 15 0;
#X connect 28 0 30 0;
#X connect 29 0 2 0;
#X connect 30 0 2 0;
#X connect 31 0 1 0;
#X connect 32 0 48 0;
#X connect 33 0 32 1;
#X connect 34 0 33 0;
#X connect 35 0 33 0;
#X connect 36 0 9 0;
#X connect 37 0 9 0;
#X connect 40 0 11 0;
#X connect 40 0 12 0;
#X connect 40 0 26 0;
#X connect 41 0 38 0;
#X connect 42 0 35 0;
#X connect 42 0 51 0;
#X connect 42 1 34 0;
#X connect 42 1 53 0;
#X connect 43 0 45 0;
#X connect 44 0 47 0;
#X connect 45 0 46 0;
#X connect 45 1 47 0;
#X connect 46 0 49 0;
#X connect 47 0 49 0;
#X connect 48 0 40 0;
#X connect 48 0 41 0;
#X connect 49 0 48 1;
#X connect 51 0 52 0;
#X connect 52 0 50 0;
#X connect 53 0 50 0;
#X connect 58 0 42 0;
