#N canvas 422 61 440 319 10;
#N canvas 491 733 475 171 MODULE_INFO 0;
#X text 44 59 authors: Reality Jockey;
#X text 45 143 decorator: s1m1-s2m1;
#X text 45 163 tags:;
#X text 45 79 description: Based on the original 'Love by Air' App
- Papillon sends audio butterflies wooshing around you. Use the Flight
parameter to increase the spread and height \, Flutter increases their
speed and Pitch increases the range of their tones.;
#X text 46 37 name: AIR_Papillon;
#X restore 49 41 pd MODULE_INFO;
#X obj 49 69 inlet~ MIC;
#X obj 180 251 outlet;
#X obj 49 251 outlet~;
#X obj 109 251 outlet~;
#X obj 180 69 inlet;
#N canvas 483 144 517 322 \$0-PARAMETERS 0;
#X obj 111 252 outlet;
#X obj 27 110 s \$0-tick;
#X obj 27 45 inlet;
#X obj 106 132 cnv 15 187 107 empty empty empty 10 12 1 14 -162280
-262144 0;
#X obj 106 106 cnv 15 187 20 empty empty AIR_Papillon 50 11 1 14 -261234
-33289 0;
#X obj 27 77 route tick;
#X obj 111 136 rjc_parameter_floatrange \$0 Flight 0.5;
#X obj 111 206 rjc_parameter_floatrange \$0 Pitch 0.2;
#X obj 111 171 rjc_parameter_floatrange \$0 Flutter 0.5;
#X connect 2 0 5 0;
#X connect 5 0 1 0;
#X connect 5 1 6 0;
#X connect 6 0 8 0;
#X connect 7 0 0 0;
#X connect 8 0 7 0;
#X coords 0 -1 1 1 200 146 2 100 100;
#X restore 180 95 pd \$0-PARAMETERS;
#N canvas 135 22 484 437 \$0-DSP 0;
#N canvas 11 22 843 705 butterflies 0;
#X obj 120 237 e_repeater repea;
#N canvas 38 22 368 560 panner4 0;
#X obj 97 -115 e_pan;
#X obj 97 -303 inlet~;
#X obj 2077 -450;
#X obj 2077 -429;
#X obj 2077 -429;
#X obj 97 -72 outlet~;
#X obj 153 -72 outlet~;
#X obj 129 -260 sel 0;
#X obj 129 -239 random 4;
#X obj 129 -218 sel 0 1 2 3;
#X msg 129 -194 0;
#X msg 166 -194 0.25;
#X msg 212 -194 0.5;
#X msg 249 -194 1;
#X obj 129 -141 line;
#X msg 129 -165 \$1 250;
#X obj 129 -282 inlet;
#X connect 0 0 5 0;
#X connect 0 1 6 0;
#X connect 1 0 0 0;
#X connect 2 0 3 0;
#X connect 2 0 4 0;
#X connect 7 0 8 0;
#X connect 8 0 9 0;
#X connect 9 0 10 0;
#X connect 9 1 11 0;
#X connect 9 2 12 0;
#X connect 9 3 13 0;
#X connect 10 0 15 0;
#X connect 11 0 15 0;
#X connect 12 0 15 0;
#X connect 13 0 15 0;
#X connect 14 0 0 1;
#X connect 15 0 14 0;
#X connect 16 0 7 0;
#X restore 118 601 pd panner4;
#X text 26 -8 rmt;
#X obj 119 342 e_pitchshift;
#X obj 483 190 sel 0;
#X msg 503 287 0;
#X obj 483 254 sel 0 1 2 3 4 5;
#X msg 531 429 pitch \$1;
#X msg 537 286 1;
#X msg 568 286 2;
#X msg 469 287 -1;
#X msg 433 287 -2;
#X msg 398 286 -3;
#X obj 483 169 mod 2;
#X obj 120 207 *~;
#X obj 138 181 lop~ 80;
#X msg 138 158 1;
#X obj 178 136 del 600;
#X msg 178 157 0;
#X obj 135 422 vline~;
#X obj 118 442 *~;
#X obj 138 115 t b b b b;
#X msg 136 402 1 10 \, 1 0 1000 \, 0 3000 3000;
#X obj 120 264 hip~ 10000;
#X obj 118 465 lop~ 1800;
#X obj 483 150 r \$0-tick;
#X obj 120 56 inlet~;
#X obj 118 665 outlet~;
#X obj 185 665 outlet~;
#X obj 252 665 outlet~;
#X obj 138 95 inlet;
#X obj 118 490 *~ 0.7;
#X obj 185 577 mod 8;
#X obj 185 490 r \$0-tick;
#X obj 568 401 +;
#X obj 531 400 -;
#X obj 483 233 random 6;
#X obj 586 325 r \$0-Pitch;
#X obj 586 346 m_scale 0 1 0 24.99;
#X obj 586 367 int;
#X obj 247 149 r \$0-Flutter;
#X obj 229 211 f;
#X obj 247 191 int;
#X obj 217 515 r \$0-Flight;
#X obj 217 557 int;
#X obj 230 625 hip~;
#X obj 132 631 hip~;
#X obj 247 170 m_scale 0 1 400 1;
#X obj 255 600 m_scale 0 1 50 20000;
#X obj 217 536 m_scale 0 1 1 8.99;
#X obj 490 211 r \$0-SEED-0;
#X connect 0 0 23 0;
#X connect 1 0 29 0;
#X connect 1 0 46 0;
#X connect 1 1 29 0;
#X connect 1 1 45 0;
#X connect 3 0 20 0;
#X connect 4 0 36 0;
#X connect 5 0 34 0;
#X connect 6 0 12 0;
#X connect 6 1 11 0;
#X connect 6 2 10 0;
#X connect 6 3 5 0;
#X connect 6 4 8 0;
#X connect 6 5 9 0;
#X connect 7 0 3 1;
#X connect 8 0 34 0;
#X connect 9 0 34 0;
#X connect 10 0 35 0;
#X connect 11 0 35 0;
#X connect 12 0 35 0;
#X connect 13 0 4 0;
#X connect 14 0 0 0;
#X connect 15 0 14 1;
#X connect 16 0 15 0;
#X connect 17 0 18 0;
#X connect 18 0 15 0;
#X connect 19 0 20 1;
#X connect 20 0 24 0;
#X connect 21 0 16 0;
#X connect 21 1 41 0;
#X connect 21 2 17 0;
#X connect 21 3 22 0;
#X connect 22 0 19 0;
#X connect 23 0 3 0;
#X connect 24 0 31 0;
#X connect 25 0 13 0;
#X connect 26 0 14 0;
#X connect 30 0 21 0;
#X connect 31 0 1 0;
#X connect 32 0 1 1;
#X connect 33 0 32 0;
#X connect 34 0 7 0;
#X connect 35 0 7 0;
#X connect 36 0 6 0;
#X connect 37 0 38 0;
#X connect 38 0 39 0;
#X connect 39 0 34 1;
#X connect 39 0 35 1;
#X connect 40 0 47 0;
#X connect 41 0 0 1;
#X connect 42 0 41 1;
#X connect 43 0 48 0;
#X connect 43 0 49 0;
#X connect 44 0 32 1;
#X connect 45 0 28 0;
#X connect 46 0 27 0;
#X connect 47 0 42 0;
#X connect 48 0 45 1;
#X connect 48 0 46 1;
#X connect 49 0 44 0;
#X connect 50 0 36 0;
#X restore 105 190 pd butterflies;
#N canvas 0 22 758 516 reverb 0;
#X obj 114 171 e_reverb rev1;
#X text 344 217 hall: liveness \, 0-100 \, usually between 85 and 100
;
#X text 344 234 freq: crossover frequency in Hz. (3000 default);
#X text 344 254 damp: high frequency damping \, 0-100;
#X text 341 198 amp: output level \, dB \, 0-100;
#X obj 284 96 loadbang;
#X msg 284 129 dry 0;
#X obj 114 145 hip~ 300;
#X msg 334 129 amp 90;
#X msg 390 129 hall 90;
#X msg 530 127 damp 65;
#X msg 452 128 freq 3300;
#X obj 114 217 outlet~;
#X obj 208 217 outlet~;
#X obj 114 103 inlet~;
#X connect 0 0 12 0;
#X connect 0 1 13 0;
#X connect 5 0 6 0;
#X connect 5 0 8 0;
#X connect 5 0 9 0;
#X connect 5 0 11 0;
#X connect 5 0 10 0;
#X connect 6 0 0 1;
#X connect 7 0 0 0;
#X connect 8 0 0 1;
#X connect 9 0 0 1;
#X connect 10 0 0 1;
#X connect 11 0 0 1;
#X connect 14 0 7 0;
#X restore 200 221 pd reverb;
#X obj 105 273 outlet~;
#X obj 161 273 outlet~;
#X obj 105 132 inlet~;
#X obj 200 132 inlet;
#X connect 0 0 2 0;
#X connect 0 1 3 0;
#X connect 0 2 1 0;
#X connect 1 0 2 0;
#X connect 1 1 3 0;
#X connect 4 0 0 0;
#X connect 5 0 0 1;
#X restore 49 197 pd \$0-DSP;
#N canvas 591 97 459 308 \$0-INPUT 0;
#X obj 100 88 e_agc;
#N canvas 536 22 640 580 seeding 0;
#X obj 83 260 snapshot~;
#X obj 82 143 inlet~;
#X msg 83 356 seed \$1;
#X obj 262 230 + 1;
#X obj 196 183 pipe;
#X obj 196 160 unpack 0 0;
#X obj 83 310 abs;
#X obj 83 334 int;
#X obj 83 286 * 1e+07;
#X obj 228 230 f 0;
#X obj 196 97 sel 1;
#X obj 196 76 == 64;
#X obj 196 54 r \$0-tick;
#X msg 164 319 symbol SEED-\$1;
#X obj 197 204 t b b b;
#X obj 83 385 list prepend;
#X obj 83 419 list prepend;
#X msg 83 448 \; \$1-\$2 \$3 \$4 \;;
#X obj 243 385 \$0;
#X obj 228 256 mod 1;
#X msg 196 124 0 100;
#X connect 0 0 8 0;
#X connect 1 0 0 0;
#X connect 2 0 15 0;
#X connect 3 0 9 1;
#X connect 4 0 14 0;
#X connect 5 0 4 0;
#X connect 5 1 4 1;
#X connect 6 0 7 0;
#X connect 7 0 2 0;
#X connect 8 0 6 0;
#X connect 9 0 19 0;
#X connect 10 0 20 0;
#X connect 11 0 10 0;
#X connect 12 0 11 0;
#X connect 13 0 15 1;
#X connect 14 0 0 0;
#X connect 14 1 9 0;
#X connect 14 2 18 0;
#X connect 15 0 16 0;
#X connect 16 0 17 0;
#X connect 18 0 16 1;
#X connect 19 0 3 0;
#X connect 19 0 13 0;
#X connect 20 0 5 0;
#X restore 14 110 pd seeding;
#X obj 100 42 inlet~;
#X obj 100 110 outlet~;
#X obj 186 111 outlet;
#X obj 186 91 abs/onset_energylevel 128 11;
#X connect 0 0 3 0;
#X connect 2 0 0 0;
#X connect 2 0 1 0;
#X connect 2 0 5 0;
#X connect 5 0 4 0;
#X restore 49 131 pd \$0-INPUT;
#X connect 1 0 8 0;
#X connect 5 0 6 0;
#X connect 6 0 2 0;
#X connect 7 0 3 0;
#X connect 7 1 4 0;
#X connect 8 0 7 0;
#X connect 8 1 7 1;
