#N canvas 17 121 1101 558 10;
#N canvas 499 22 705 575 beat 0;
#X obj 129 44 notein 10;
#X obj 129 103 sel 60 61 62 63;
#X msg 99 312 trigger;
#X obj 129 81 stripnote;
#X obj 99 347 tr808-bd~;
#X obj 99 408 outlet~;
#X obj 28 109 loadbang;
#X obj 295 446 outlet~;
#X obj 259 345 d-808hh~;
#X obj 509 77 d-808brain;
#X obj 264 312 f;
#X obj 293 313 f;
#X obj 310 147 / 127;
#X msg 422 360 trigger;
#X obj 441 468 outlet~;
#X obj 267 376 *~;
#X obj 313 377 *~;
#X obj 441 408 *~;
#X obj 418 327 f;
#X obj 351 293 vsl 15 64 0 1 0 0 empty empty empty 0 -9 0 10 -262144
-1 -1 0 1;
#X text 340 262 OH decay time;
#X obj 574 293 vsl 15 64 0 1 0 0 empty empty empty 0 -9 0 10 -262144
-1 -1 0 1;
#X obj 507 291 vsl 15 64 0 1 0 0 empty empty empty 0 -9 0 10 -262144
-1 -1 0 1;
#X msg 506 362 decay \$1;
#X msg 579 363 tone \$1;
#X msg 443 291 dumpargs;
#X obj 440 385 d-808cy~ 0.333 0;
#X obj 441 440 *~ 0.0125;
#X obj 9 79 vsl 15 128 0.5 2 0 0 empty empty empty 0 -9 0 10 -262144
-1 -1 0 1;
#X msg 156 322 tune \$1;
#X floatatom 8 219 5 0 0 0 - - -;
#X obj -21 83 vsl 15 128 0 1 0 0 empty empty empty 0 -9 0 10 -262144
-1 -1 0 1;
#X msg 156 302 click \$1;
#X msg 25 138 decay 0.65 \, click 0.5 \, tune 0.76 \, gain 0.8;
#X obj 99 381 *~ 0.6;
#X obj 295 419 *~ 0.0125;
#X obj 32 426 s kickhit;
#X obj 235 282 spigot 1;
#X obj 289 282 spigot 1;
#X obj 386 297 spigot 1;
#X obj 98 256 spigot 1;
#X obj 437 139 route bd ch oh cy;
#X obj 437 111 r drumctl;
#X obj 94 229 pipe 15;
#X obj 239 49 midirecplay-chfilter 10;
#X connect 0 0 3 0;
#X connect 0 1 3 1;
#X connect 1 0 43 0;
#X connect 1 1 37 0;
#X connect 1 2 38 0;
#X connect 1 3 39 0;
#X connect 2 0 4 0;
#X connect 3 0 1 0;
#X connect 3 1 12 0;
#X connect 4 0 34 0;
#X connect 6 0 33 0;
#X connect 8 0 15 0;
#X connect 8 1 16 0;
#X connect 10 0 8 0;
#X connect 10 0 15 1;
#X connect 10 0 16 1;
#X connect 11 0 8 1;
#X connect 11 0 16 1;
#X connect 11 0 15 1;
#X connect 12 0 10 1;
#X connect 12 0 11 1;
#X connect 12 0 18 1;
#X connect 13 0 26 0;
#X connect 15 0 35 0;
#X connect 16 0 35 0;
#X connect 17 0 27 0;
#X connect 18 0 17 1;
#X connect 18 0 13 0;
#X connect 19 0 8 2;
#X connect 21 0 24 0;
#X connect 22 0 23 0;
#X connect 23 0 26 0;
#X connect 24 0 26 0;
#X connect 25 0 26 0;
#X connect 26 0 17 0;
#X connect 27 0 14 0;
#X connect 28 0 29 0;
#X connect 28 0 30 0;
#X connect 29 0 4 0;
#X connect 31 0 32 0;
#X connect 32 0 4 0;
#X connect 33 0 4 0;
#X connect 34 0 5 0;
#X connect 35 0 7 0;
#X connect 37 0 10 0;
#X connect 38 0 11 0;
#X connect 39 0 18 0;
#X connect 40 0 36 0;
#X connect 40 0 2 0;
#X connect 41 0 40 1;
#X connect 41 1 37 1;
#X connect 41 2 38 1;
#X connect 41 3 39 1;
#X connect 42 0 41 0;
#X connect 43 0 40 0;
#X connect 44 0 3 0;
#X connect 44 1 3 1;
#X restore 120 -5 pd beat;
#N canvas 300 51 701 621 bass 0;
#X obj 61 -32 notein 2;
#X obj 47 7 d-stripbassnote;
#X obj 65 496 outlet~;
#X obj 215 101 vsl 10 64 0 1 0 0 empty empty empty 0 -9 0 10 -262144
-1 -1 0 1;
#X msg 215 178 cutoff \$1;
#X obj 285 101 vsl 10 64 0 1 0 0 empty empty empty 0 -9 0 10 -262144
-1 -1 0 1;
#X obj 415 101 vsl 10 64 0 1 0 0 empty empty empty 0 -9 0 10 -262144
-1 -1 0 1;
#X obj 349 101 vsl 10 64 0 1 0 0 empty empty empty 0 -9 0 10 -262144
-1 -1 0 1;
#X msg 285 178 res \$1;
#X msg 415 178 envmod \$1;
#X msg 349 178 decay \$1;
#X text 201 81 Cutoff;
#X text 274 81 Resonance;
#X text 410 81 Env mod;
#X text 340 82 Decay;
#X obj 485 101 vsl 10 64 0 1 0 0 empty empty empty 0 -9 0 10 -262144
-1 -1 0 1;
#X text 476 82 Release;
#X msg 485 178 release \$1;
#X msg 141 154 dumpargs;
#X obj 61 249 d-bass~ 0.33 0.524 0.63 0.841 0.476;
#X obj 277 -66 r accelerate;
#X obj 180 35 clip 0 1;
#X obj 180 16 d-remap-lin -1 1 0 1;
#X obj 348 56 clip 0 1;
#X obj 348 37 d-remap-lin -1 1 1 0;
#X obj 467 44 clip 0 1;
#X obj 467 25 d-remap-lin -1 1 1 0;
#X obj 461 139 d-1-;
#X obj 63 360 *~ 0.2;
#X obj 277 -45 route y x z;
#X floatatom 116 338 5 0 0 0 - - -;
#X obj 65 298 hip~ 150;
#X obj 120 316 d-remap-log 0 1 0.3 0.05;
#X obj 192 -6 d-alpf;
#X obj 348 -2 d-alpf;
#X obj 466 2 d-alpf;
#X obj 64 470 *~;
#X obj 139 418 vline~;
#X obj 140 364 r kickhit;
#X obj 264 23 *;
#X obj 265 43 d-remap-lin -1 1 1 0;
#X obj 265 64 clip 0 1;
#X obj 136 438 *~ 2;
#X obj 307 356 loadbang;
#X msg 305 380 1;
#X msg 139 396 0.5 10 \, 1 400 10;
#X obj 21 -61 midirecplay-chfilter 2;
#X connect 0 0 1 0;
#X connect 0 1 1 1;
#X connect 1 0 19 0;
#X connect 1 1 19 1;
#X connect 3 0 4 0;
#X connect 4 0 19 2;
#X connect 5 0 8 0;
#X connect 6 0 9 0;
#X connect 7 0 10 0;
#X connect 8 0 19 2;
#X connect 9 0 19 2;
#X connect 10 0 19 2;
#X connect 15 0 17 0;
#X connect 17 0 19 2;
#X connect 18 0 19 2;
#X connect 19 0 31 0;
#X connect 20 0 29 0;
#X connect 21 0 4 0;
#X connect 21 0 27 0;
#X connect 21 0 3 0;
#X connect 22 0 21 0;
#X connect 23 0 8 0;
#X connect 23 0 10 0;
#X connect 23 0 7 0;
#X connect 23 0 32 0;
#X connect 24 0 23 0;
#X connect 25 0 9 0;
#X connect 25 0 6 0;
#X connect 26 0 25 0;
#X connect 27 0 17 0;
#X connect 27 0 15 0;
#X connect 28 0 36 0;
#X connect 29 0 33 0;
#X connect 29 1 34 0;
#X connect 29 2 35 0;
#X connect 31 0 28 0;
#X connect 32 0 28 1;
#X connect 32 0 30 0;
#X connect 33 0 22 0;
#X connect 33 0 39 0;
#X connect 34 0 24 0;
#X connect 34 0 39 1;
#X connect 35 0 26 0;
#X connect 36 0 2 0;
#X connect 37 0 42 0;
#X connect 38 0 45 0;
#X connect 39 0 40 0;
#X connect 40 0 41 0;
#X connect 41 0 5 0;
#X connect 42 0 36 1;
#X connect 43 0 44 0;
#X connect 44 0 37 0;
#X connect 45 0 37 0;
#X connect 46 0 1 0;
#X connect 46 1 1 1;
#X restore 81 -68 pd bass;
#N canvas 77 312 450 300 synth 0;
#X obj 35 39 notein 1;
#X obj 40 111 synth;
#X obj 32 221 outlet~;
#X obj 115 226 outlet~;
#X obj 104 172 hip~ 1000;
#X obj 35 176 hip~ 1000;
#X obj 108 198 *~ 0.26;
#X obj 38 196 *~ 0.26;
#X obj 121 48 midirecplay-chfilter 1;
#X connect 0 0 1 0;
#X connect 0 1 1 1;
#X connect 1 0 5 0;
#X connect 1 1 4 0;
#X connect 4 0 6 0;
#X connect 5 0 7 0;
#X connect 6 0 3 0;
#X connect 7 0 2 0;
#X connect 8 0 1 0;
#X connect 8 1 1 1;
#X restore 364 6 pd synth;
#X obj 339 352 d-reverb2-light~;
#X obj 383 57 d-fbdelay~ 394 1 0.82 339 5500 0.677 0.003 0.001;
#X obj 523 437 accelerate;
#N canvas 0 22 450 300 input 0;
#X obj 6 252 outlet~;
#X obj 21 36 soundinput;
#X obj 141 253 outlet~;
#X obj 56 211 *~;
#X obj 171 170 d-smooth~;
#X obj 205 111 / 100;
#X obj 102 112 mtof;
#X obj 59 170 bp~ 1000 10;
#X obj 56 139 hip~ 100;
#X obj 56 102 *~ 0.4;
#X obj 171 61 notein 15;
#X obj 266 63 midirecplay-chfilter 15;
#X connect 1 0 9 0;
#X connect 1 1 9 0;
#X connect 3 0 2 0;
#X connect 3 0 0 0;
#X connect 4 0 3 1;
#X connect 5 0 4 0;
#X connect 6 0 7 1;
#X connect 7 0 3 0;
#X connect 8 0 7 0;
#X connect 9 0 8 0;
#X connect 10 0 6 0;
#X connect 10 1 5 0;
#X connect 11 0 6 0;
#X connect 11 1 5 0;
#X restore 699 -29 pd input;
#X obj 90 264 *~ 4;
#X obj 46 370 d-compress~ 2 10 -3;
#X obj 188 370 d-compress~ 2 10 -3;
#X obj 280 -4 hip~ 500;
#X obj 533 314 *~;
#X obj 364 282 *~;
#X msg 692 265 0 \, 1 10000;
#X obj 690 288 line~;
#X obj 284 24 *~ 0.1;
#N canvas 557 148 511 532 sequence 0;
#X obj 204 267 tgl 15 0 empty empty empty 17 7 0 10 -262144 -1 -1 0
1;
#X obj 273 392 s drumctl;
#X obj 119 443 s notechan1;
#X obj 176 424 s notechan2;
#X obj 219 452 s notechan10;
#X obj 277 428 s notechan15;
#X msg 14 360 0;
#X msg 169 390 1;
#X msg 269 346 oh 0 \, ch 0 \, bd 0 \, cy 0;
#X obj 131 151 sel 0 1 2 3 4 5 6 7 8;
#X obj 130 128 f 0;
#X obj 156 128 + 1;
#X obj 183 128 % 16;
#X obj 278 150 sel 9 10 11 12 13 14 15;
#X msg 269 274 oh \$1;
#X msg 314 277 ch \$1;
#X msg 358 281 bd \$1;
#X msg 421 282 cy \$1;
#X obj 43 216 bang;
#X obj 41 179 loadbang;
#X msg 357 254 1;
#X msg 383 253 0;
#X msg 86 239 1;
#X msg 203 244 1;
#X msg 250 245 1;
#X msg 326 250 0;
#X msg 307 249 1;
#X floatatom 227 128 5 0 0 0 - - -;
#X msg 74 105 0;
#X msg 414 258 1;
#X msg 442 257 0;
#X msg 274 244 0;
#X msg 120 244 0;
#X obj 130 105 d-every 8;
#X msg 218 247 0;
#X obj 43 495 s synthctl;
#X msg 77 275 1;
#X msg 104 274 0;
#X msg 79 467 1 \$1;
#X msg 39 464 2 \$1;
#X obj 156 491 s notechan16;
#X obj 112 13 notein 16;
#X obj 183 14 midirecplay-chfilter 16;
#X obj 139 49 stripnote;
#X msg 146 80 bang;
#X connect 0 0 5 0;
#X connect 6 0 5 0;
#X connect 6 0 39 0;
#X connect 6 0 38 0;
#X connect 7 0 3 0;
#X connect 7 0 2 0;
#X connect 7 0 4 0;
#X connect 7 0 40 0;
#X connect 8 0 1 0;
#X connect 9 0 18 0;
#X connect 9 1 20 0;
#X connect 9 2 24 0;
#X connect 9 3 23 0;
#X connect 9 4 22 0;
#X connect 9 6 26 0;
#X connect 9 6 36 0;
#X connect 9 7 29 0;
#X connect 9 8 25 0;
#X connect 9 8 31 0;
#X connect 9 9 13 0;
#X connect 10 0 11 0;
#X connect 10 0 9 0;
#X connect 10 0 27 0;
#X connect 11 0 12 0;
#X connect 12 0 10 1;
#X connect 13 0 30 0;
#X connect 13 0 32 0;
#X connect 13 1 26 0;
#X connect 13 2 24 0;
#X connect 13 2 22 0;
#X connect 13 3 29 0;
#X connect 13 4 21 0;
#X connect 13 4 30 0;
#X connect 13 5 32 0;
#X connect 13 5 29 0;
#X connect 13 5 26 0;
#X connect 13 6 34 0;
#X connect 13 6 20 0;
#X connect 13 6 25 0;
#X connect 14 0 1 0;
#X connect 15 0 1 0;
#X connect 16 0 1 0;
#X connect 17 0 1 0;
#X connect 18 0 6 0;
#X connect 18 0 7 0;
#X connect 18 0 8 0;
#X connect 19 0 18 0;
#X connect 20 0 16 0;
#X connect 21 0 16 0;
#X connect 22 0 38 0;
#X connect 23 0 0 0;
#X connect 24 0 14 0;
#X connect 25 0 15 0;
#X connect 26 0 15 0;
#X connect 28 0 10 1;
#X connect 29 0 17 0;
#X connect 30 0 17 0;
#X connect 31 0 14 0;
#X connect 32 0 38 0;
#X connect 33 0 10 0;
#X connect 34 0 0 0;
#X connect 36 0 39 0;
#X connect 37 0 39 0;
#X connect 38 0 35 0;
#X connect 39 0 35 0;
#X connect 42 0 43 0;
#X connect 42 1 43 1;
#X connect 43 0 44 0;
#X connect 44 0 33 0;
#X restore 895 59 pd sequence;
#X obj 47 277 *~ 6;
#X obj 187 269 *~ 6;
#X obj 700 233 loadbang;
#X obj 518 366 midirecplay;
#X obj 86 464 soundoutput;
#X obj 57 433 d-anaclip~;
#X obj 162 433 d-anaclip~;
#X obj 162 405 *~ 1.5;
#X obj 57 403 *~ 1.5;
#X connect 0 0 7 0;
#X connect 0 0 17 0;
#X connect 0 0 18 0;
#X connect 0 1 3 0;
#X connect 0 1 3 1;
#X connect 0 1 17 0;
#X connect 0 1 18 0;
#X connect 0 2 3 0;
#X connect 0 2 3 1;
#X connect 0 2 17 0;
#X connect 0 2 18 0;
#X connect 1 0 10 0;
#X connect 1 0 17 0;
#X connect 1 0 18 0;
#X connect 2 0 4 0;
#X connect 2 1 4 1;
#X connect 3 0 17 0;
#X connect 3 1 18 0;
#X connect 4 0 12 0;
#X connect 4 1 11 0;
#X connect 6 0 4 0;
#X connect 6 1 4 1;
#X connect 7 0 8 1;
#X connect 7 0 9 1;
#X connect 8 0 25 0;
#X connect 9 0 24 0;
#X connect 10 0 15 0;
#X connect 11 0 3 1;
#X connect 11 0 18 0;
#X connect 12 0 3 0;
#X connect 12 0 17 0;
#X connect 13 0 14 0;
#X connect 14 0 11 1;
#X connect 14 0 12 1;
#X connect 15 0 4 0;
#X connect 15 0 4 1;
#X connect 17 0 8 0;
#X connect 18 0 9 0;
#X connect 19 0 13 0;
#X connect 22 0 21 0;
#X connect 23 0 21 1;
#X connect 24 0 23 0;
#X connect 25 0 22 0;
