#N canvas 530 356 524 364 10;
#X obj 131 291 *~;
#X obj 131 83 stripnote;
#X obj 131 56 unpack f f;
#X obj 131 23 inlet;
#X obj 132 316 outlet~;
#X obj 131 158 mtof;
#X obj 57 299 switch~;
#X msg 55 278 0;
#X msg 24 278 1;
#X msg 33 225 stop;
#X obj 131 113 + \$1;
#X text 85 112 detune;
#X obj 350 176 / 127;
#X obj 200 83 sel 0;
#X obj 33 251 del 500;
#X msg 210 116 0;
#X obj 350 198 d-adsr~ 1 10 50 80 500;
#X obj 207 228 osc~;
#X floatatom 182 187 5 0 0 0 - - -;
#X obj 133 183 sig~;
#X obj 108 228 phasor~;
#X obj 131 137 d-mjitter 0.1;
#X connect 0 0 4 0;
#X connect 1 0 8 0;
#X connect 1 0 9 0;
#X connect 1 0 10 0;
#X connect 2 0 1 0;
#X connect 2 1 1 1;
#X connect 2 1 13 0;
#X connect 3 0 2 0;
#X connect 5 0 19 0;
#X connect 7 0 6 0;
#X connect 8 0 6 0;
#X connect 9 0 14 0;
#X connect 10 0 21 0;
#X connect 12 0 16 0;
#X connect 13 0 14 0;
#X connect 13 0 15 0;
#X connect 13 1 12 0;
#X connect 14 0 7 0;
#X connect 15 0 12 0;
#X connect 16 0 0 1;
#X connect 17 0 0 0;
#X connect 19 0 17 0;
#X connect 19 0 20 0;
#X connect 20 0 0 0;
#X connect 21 0 18 0;
#X connect 21 0 5 0;
