#N canvas 504 161 575 431 10;
#X obj 173 86 pack f f f;
#X obj 144 367 outlet~;
#X obj 324 362 outlet~;
#X obj 174 126 route 1 2 3 4 5 6 7 8;
#X floatatom 129 81 5 0 0 0 - - -;
#X obj 173 5 inlet;
#X obj 312 38 r panic;
#X obj 312 68 d-for 0 127;
#X msg 312 89 \$1 0;
#X obj 239 328 d-pan~ 0.6;
#X obj 91 319 d-pan~ 0.4;
#X obj 218 5 inlet;
#X obj 173 30 unpack f f;
#X obj 174 60 poly 4 0;
#X obj 123 280 synthvoice;
#X obj 232 280 synthvoice;
#X msg 377 36 bang;
#X obj 229 190 spigot 1;
#X obj 123 183 spigot 1;
#X obj 265 213 unpack f f;
#X obj 250 236 f;
#X msg 240 256 \$1 0;
#X obj 297 190 sel 0;
#X obj 313 148 route 1 2;
#X obj 158 215 unpack f f;
#X obj 142 236 f;
#X msg 140 256 \$1 0;
#X obj 189 184 sel 0;
#X obj 318 124 r synthctl;
#X connect 0 0 3 0;
#X connect 3 1 18 0;
#X connect 3 2 17 0;
#X connect 5 0 12 0;
#X connect 6 0 7 0;
#X connect 7 0 8 0;
#X connect 8 0 12 0;
#X connect 9 0 1 0;
#X connect 9 1 2 0;
#X connect 10 0 1 0;
#X connect 10 1 2 0;
#X connect 11 0 13 1;
#X connect 12 0 13 0;
#X connect 12 1 13 1;
#X connect 13 0 0 0;
#X connect 13 0 4 0;
#X connect 13 1 0 1;
#X connect 13 2 0 2;
#X connect 14 0 10 0;
#X connect 15 0 9 0;
#X connect 16 0 7 0;
#X connect 17 0 19 0;
#X connect 17 0 15 0;
#X connect 18 0 14 0;
#X connect 18 0 24 0;
#X connect 19 0 20 1;
#X connect 20 0 21 0;
#X connect 21 0 15 0;
#X connect 22 0 20 0;
#X connect 23 0 18 1;
#X connect 23 0 27 0;
#X connect 23 1 17 1;
#X connect 23 1 22 0;
#X connect 24 0 25 1;
#X connect 25 0 26 0;
#X connect 26 0 14 0;
#X connect 27 0 25 0;
#X connect 28 0 23 0;
