#N canvas 602 67 529 501 10;
#X obj 15 11 netreceive 30321;
#X obj 268 357 loadbang;
#X msg 268 379 connect 127.0.0.1 30322;
#X obj 268 401 netsend;
#X obj 18 416 spigot 0;
#X obj 18 437 list prepend send;
#X obj 18 458 list trim;
#X obj 268 452 &&;
#X obj 268 427 t b f;
#X obj 18 393 r to-python;
#X obj 15 159 s pd;
#X obj 15 31 t a a;
#X obj 47 52 list prepend set;
#X obj 47 73 list trim;
#X msg 47 94 switch SLOT-0 0;
#X msg 324 459 \; to-python loaded;
#X obj 324 438 sel 1;
#X obj 268 472 t f f;
#X obj 68 160 outlet;
#X obj 15 137 route pd;
#X text 121 162 to be connected to RJC1000.master.pd;
#X connect 0 0 11 0;
#X connect 0 1 7 0;
#X connect 1 0 2 0;
#X connect 2 0 3 0;
#X connect 3 0 8 0;
#X connect 4 0 5 0;
#X connect 5 0 6 0;
#X connect 6 0 3 0;
#X connect 7 0 17 0;
#X connect 8 0 7 0;
#X connect 8 1 7 1;
#X connect 9 0 4 0;
#X connect 11 0 19 0;
#X connect 11 1 12 0;
#X connect 12 0 13 0;
#X connect 13 0 14 0;
#X connect 16 0 15 0;
#X connect 17 0 16 0;
#X connect 17 1 4 1;
#X connect 19 0 10 0;
#X connect 19 1 18 0;
