#N canvas 651 193 629 443 10;
#X obj 100 100 cnv 15 372 224 empty empty empty 20 12 0 14 -1 -66577
0;
#X obj 282 350 outlet;
#X text 98 9 YL;
#X text 198 64 args: \$0 octave-number;
#X obj 261 102 whitekey \$1 \$2 5;
#X obj 102 102 whitekey \$1 \$2 0;
#X obj 314 102 whitekey \$1 \$2 7;
#X obj 367 102 whitekey \$1 \$2 9;
#X obj 420 102 whitekey \$1 \$2 11;
#X obj 155 102 whitekey \$1 \$2 2;
#X obj 208 102 whitekey \$1 \$2 4;
#X obj 300 102 blackkey \$1 \$2 6;
#X obj 355 102 blackkey \$1 \$2 8;
#X obj 406 102 blackkey \$1 \$2 10;
#X obj 195 102 blackkey \$1 \$2 3;
#X obj 141 101 blackkey \$1 \$2 1;
#X connect 4 0 1 0;
#X connect 5 0 1 0;
#X connect 6 0 1 0;
#X connect 7 0 1 0;
#X connect 8 0 1 0;
#X connect 9 0 1 0;
#X connect 10 0 1 0;
#X connect 11 0 1 0;
#X connect 12 0 1 0;
#X connect 13 0 1 0;
#X connect 14 0 1 0;
#X connect 15 0 1 0;
#X coords 0 -1 1 1 372 224 1 100 100;
