#N canvas 5 135 435 665 10;
#N canvas 71 56 462 312 delwrite 0;
#X obj 31 29 inlet~;
#X obj 31 229 outlet~;
#X obj 31 162 delwrite~ \$0-delay-L 2000;
#X connect 0 0 2 0;
#X restore 92 517 pd delwrite;
#X obj 232 281 * 0.01;
#X obj 327 71 * 0.02;
#X obj 35 386 *~;
#X obj 232 321 line~;
#N canvas 0 22 352 234 delread_ 0;
#X obj 31 29 inlet~;
#X obj 31 139 outlet~;
#X obj 31 92 delread~ \$0-delay-L;
#X obj 91 29 inlet delay;
#X connect 2 0 1 0;
#X connect 3 0 2 0;
#X restore 92 537 pd delread_;
#X obj 35 366 delread~ \$0-delay-L;
#N canvas 514 142 307 287 f2s 0;
#X obj 27 25 inlet;
#X obj 27 225 outlet;
#X msg 104 165 set \$1;
#X obj 27 195 makefilename;
#X obj 27 55 t f f f;
#X obj 50 95 -;
#X obj 50 115 sel 0;
#X msg 50 145 set %d;
#X obj 71 75 int;
#X obj 105 125 * 100.001;
#X obj 104 145 makefilename %%d.%02d;
#X connect 0 0 4 0;
#X connect 2 0 3 0;
#X connect 3 0 1 0;
#X connect 4 0 3 0;
#X connect 4 1 5 0;
#X connect 4 2 8 0;
#X connect 5 0 6 0;
#X connect 6 0 7 0;
#X connect 6 1 9 0;
#X connect 7 0 3 0;
#X connect 8 0 5 1;
#X connect 9 0 10 0;
#X connect 10 0 2 0;
#X restore 279 71 pd f2s;
#X obj 203 536 line~;
#X obj 92 567 *~;
#X obj 181 171 * 0.02;
#X obj 181 231 pipe 8;
#X msg 318 282 0 8;
#X msg 232 301 \$1 14;
#X obj 181 211 t f b;
#X obj 181 251 t f b;
#X msg 203 516 1 14;
#X obj 96 489 *~;
#X obj 33 500 *~;
#X obj 152 281 cos;
#X obj 108 281 sin;
#X obj 98 181 * 0.015708;
#X obj 108 321 line~;
#X obj 152 321 line~;
#X msg 152 301 \$1 10;
#X msg 108 301 \$1 10;
#X obj 28 21 mmm-module \$1 \$2 delay 3;
#X obj 28 51 mmm-ctrl \$1 \$2 1 dry-wet 0 100 50 int;
#X obj 28 71 mmm-ctrl \$1 \$2 2 delay 1 800 50 ext;
#X msg 255 21 version 0.3.5;
#X obj 28 91 mmm-ctrl \$1 \$2 3 feedback 0 99 0 int;
#N canvas 0 22 450 300 asdf 0;
#X obj 40 52 r netpd-receive;
#X obj 40 92 route mmm;
#X obj 40 112 route bpm;
#X obj 48 72 r data.state;
#X obj 40 152 /;
#X obj 20 22 inlet;
#X obj 20 232 outlet;
#X obj 40 172 t b f;
#X obj 20 202 *;
#X msg 40 132 15000 \$1;
#X connect 0 0 1 0;
#X connect 1 0 2 0;
#X connect 2 0 9 0;
#X connect 3 0 1 0;
#X connect 4 0 7 0;
#X connect 5 0 8 0;
#X connect 7 0 8 0;
#X connect 7 1 8 1;
#X connect 8 0 6 0;
#X connect 9 0 4 0;
#X restore 181 191 pd asdf;
#X obj 28 432 inlet~;
#X obj 28 602 outlet~;
#X connect 0 0 5 0;
#X connect 1 0 13 0;
#X connect 2 0 7 0;
#X connect 3 0 0 0;
#X connect 4 0 3 1;
#X connect 5 0 9 0;
#X connect 6 0 3 0;
#X connect 7 0 28 1;
#X connect 8 0 9 1;
#X connect 9 0 33 0;
#X connect 10 0 31 0;
#X connect 11 0 15 0;
#X connect 12 0 4 0;
#X connect 12 0 8 0;
#X connect 13 0 4 0;
#X connect 14 0 11 0;
#X connect 14 1 12 0;
#X connect 15 0 5 1;
#X connect 15 0 6 0;
#X connect 15 1 1 0;
#X connect 15 1 16 0;
#X connect 16 0 8 0;
#X connect 17 0 0 0;
#X connect 18 0 33 0;
#X connect 19 0 24 0;
#X connect 20 0 25 0;
#X connect 21 0 20 0;
#X connect 21 0 19 0;
#X connect 22 0 17 1;
#X connect 23 0 18 1;
#X connect 24 0 23 0;
#X connect 25 0 22 0;
#X connect 27 0 21 0;
#X connect 28 0 10 0;
#X connect 28 2 2 0;
#X connect 30 0 1 0;
#X connect 31 0 14 0;
#X connect 32 0 17 0;
#X connect 32 0 18 0;
