#N canvas 303 22 522 366 10;
#N canvas 377 87 547 556 kick 0;
#X obj 102 369 osc~;
#X obj 102 329 line~;
#X obj 70 228 f;
#X obj 139 229 f;
#X obj 91 253 pack;
#X obj 102 349 mtof~;
#X obj 102 409 *~;
#X obj 239 376 lop~;
#X obj 102 479 lop~;
#X obj 102 509 *~;
#X obj 21 453 *;
#X obj 202 324 /;
#X obj 262 209 f;
#X msg 262 229 1 \, 0 \$1;
#X obj 262 249 line~;
#X obj 289 269 *~ 100;
#X obj 289 289 dbtorms~;
#X obj 262 341 *~;
#X obj 289 340 *~;
#X obj 372 277 * -1;
#X obj 372 297 + 1;
#X obj 102 529 outlet~;
#X obj 102 449 clip~ -1 1;
#X obj 228 79 * 2;
#X obj 372 257 * 0.01;
#X obj 471 390 mtof;
#X obj 410 162 del;
#X obj 410 182 f 0;
#X obj 440 182 f 1;
#X obj 102 429 *~ 1;
#X obj 410 212 switch~;
#X obj 410 122 t b b;
#X obj 28 139 t a b b b b;
#X obj 364 374 * 0.1;
#X obj 364 394 + 1;
#X msg 202 304 1000 \$1;
#X obj 21 473 / 10000;
#X msg 21 433 \$1 \$1;
#X obj 426 142 + 2;
#X obj 29 27 inlet;
#X obj 29 47 route level freq-A freq-B time attack decay log>lin distortion
lowpass;
#X connect 0 0 6 0;
#X connect 1 0 5 0;
#X connect 2 0 4 0;
#X connect 3 0 1 0;
#X connect 4 0 1 0;
#X connect 5 0 0 0;
#X connect 6 0 29 0;
#X connect 7 0 6 1;
#X connect 8 0 9 0;
#X connect 9 0 21 0;
#X connect 10 0 36 0;
#X connect 11 0 7 1;
#X connect 12 0 13 0;
#X connect 13 0 14 0;
#X connect 14 0 15 0;
#X connect 14 0 17 0;
#X connect 15 0 16 0;
#X connect 16 0 18 0;
#X connect 17 0 7 0;
#X connect 18 0 7 0;
#X connect 19 0 20 0;
#X connect 20 0 18 1;
#X connect 22 0 8 0;
#X connect 23 0 12 1;
#X connect 23 0 38 0;
#X connect 24 0 17 1;
#X connect 24 0 19 0;
#X connect 25 0 8 1;
#X connect 26 0 27 0;
#X connect 27 0 30 0;
#X connect 28 0 30 0;
#X connect 29 0 22 0;
#X connect 31 0 26 0;
#X connect 31 1 28 0;
#X connect 32 0 37 0;
#X connect 32 1 2 0;
#X connect 32 2 3 0;
#X connect 32 3 12 0;
#X connect 32 4 31 0;
#X connect 33 0 34 0;
#X connect 34 0 29 1;
#X connect 35 0 11 0;
#X connect 36 0 9 1;
#X connect 37 0 10 0;
#X connect 38 0 26 1;
#X connect 39 0 40 0;
#X connect 40 0 32 0;
#X connect 40 1 3 1;
#X connect 40 2 2 1;
#X connect 40 3 4 1;
#X connect 40 4 35 0;
#X connect 40 5 23 0;
#X connect 40 6 24 0;
#X connect 40 7 33 0;
#X connect 40 8 25 0;
#X restore 71 251 pd kick;
#X obj 28 21 mmm-module \$1 \$2 delta-kick 9;
#X obj 208 71 mmm-ctrl \$1 \$2 2 freq-A 0 127 72 int;
#X obj 208 91 mmm-ctrl \$1 \$2 3 freq-B 0 127 31 int;
#X obj 208 111 mmm-ctrl \$1 \$2 4 time 0 100 20 int;
#X obj 208 131 mmm-ctrl \$1 \$2 5 attack 0 100 1 int;
#X obj 208 151 mmm-ctrl \$1 \$2 6 decay 5 500 334 ext;
#X obj 208 171 mmm-ctrl \$1 \$2 7 log>lin 0 100 0 int;
#X obj 208 191 mmm-ctrl \$1 \$2 8 distortion 0 50 0 int;
#X obj 208 211 mmm-ctrl \$1 \$2 9 lowpass 0 127 127 int;
#X msg 111 71 level \$1;
#X msg 111 91 freq-A \$1;
#X msg 111 111 freq-B \$1;
#X msg 111 131 time \$1;
#X msg 111 151 attack \$1;
#X msg 111 171 decay \$1;
#X msg 111 191 log>lin \$1;
#X msg 111 211 distortion \$1;
#X msg 111 231 lowpass \$1;
#X obj 208 51 mmm-ctrl \$1 \$2 1 level 0 100 -1 int;
#X msg 304 21 version 0.3.3;
#X obj 28 320 outlet~;
#X connect 0 0 21 0;
#X connect 2 0 11 0;
#X connect 2 1 11 0;
#X connect 3 0 12 0;
#X connect 3 1 12 0;
#X connect 4 0 13 0;
#X connect 4 1 13 0;
#X connect 5 0 14 0;
#X connect 5 1 14 0;
#X connect 6 0 15 0;
#X connect 6 1 15 0;
#X connect 7 0 16 0;
#X connect 7 1 16 0;
#X connect 8 0 17 0;
#X connect 8 1 17 0;
#X connect 9 0 18 0;
#X connect 9 1 18 0;
#X connect 10 0 0 0;
#X connect 11 0 0 0;
#X connect 12 0 0 0;
#X connect 13 0 0 0;
#X connect 14 0 0 0;
#X connect 15 0 0 0;
#X connect 16 0 0 0;
#X connect 17 0 0 0;
#X connect 18 0 0 0;
#X connect 19 0 10 0;
