#N canvas 11 22 1051 664 10;
#X obj 270 441 *~;
#X obj 404 361 line~;
#N canvas 0 22 360 242 delread__1 0;
#X obj 31 29 inlet~;
#X obj 31 139 outlet~;
#X obj 91 29 inlet delay;
#X obj 31 92 delread~ \$0-delay-1-L;
#X connect 2 0 3 0;
#X connect 3 0 1 0;
#X restore 270 491 pd delread__1;
#N canvas 71 56 342 279 delwrite_1 0;
#X obj 31 29 inlet~;
#X obj 31 229 outlet~;
#X obj 31 162 delwrite~ \$0-delay-1-L 6000;
#X connect 0 0 2 0;
#X restore 270 471 pd delwrite_1;
#N canvas 71 56 338 275 delwrite_2 0;
#X obj 31 162 delwrite~ \$0-delay-2-L 2000;
#X obj 31 29 inlet~;
#X connect 1 0 0 0;
#X restore 270 605 pd delwrite_2;
#N canvas 0 22 364 246 delread__2 0;
#X obj 31 139 outlet~;
#X obj 91 29 inlet delay;
#X obj 31 92 delread~ \$0-delay-2-L;
#X connect 1 0 2 0;
#X connect 2 0 0 0;
#X restore 270 331 pd delread__2;
#X obj 573 422 cos;
#X obj 573 372 + 50;
#X obj 573 392 * 0.015708;
#X obj 240 571 *~;
#X obj 523 460 *;
#X obj 523 422 t b f;
#X obj 523 392 * 0.01;
#X obj 722 422 cos;
#X obj 722 372 + 50;
#X obj 722 392 * 0.015708;
#X obj 212 571 *~;
#X obj 672 460 *;
#X obj 672 422 t b f;
#X obj 672 392 * 0.01;
#N canvas 0 22 491 300 ticks2ms 0;
#X obj 60 51 r netpd-receive;
#X obj 60 91 route mmm;
#X obj 60 111 route bpm;
#X obj 68 71 r data.state;
#X obj 60 151 /;
#X obj 60 171 t b f;
#X msg 60 131 15000 \$1;
#X obj 30 21 inlet;
#X obj 30 231 outlet;
#X obj 30 201 *;
#X connect 0 0 1 0;
#X connect 1 0 2 0;
#X connect 2 0 6 0;
#X connect 3 0 1 0;
#X connect 4 0 5 0;
#X connect 5 0 9 0;
#X connect 5 1 9 1;
#X connect 6 0 4 0;
#X connect 7 0 9 0;
#X connect 9 0 8 0;
#X restore 222 141 pd ticks2ms;
#X msg 270 161 1 \$1;
#X obj 270 181 -;
#X obj 166 121 * 0.01;
#X obj 166 211 *;
#X obj 270 211 *;
#X obj 222 181 t b f;
#X obj 404 321 * 0.01;
#X obj 528 81 * 0.02;
#N canvas 0 22 295 275 f2s 0;
#X obj 27 25 inlet;
#X obj 27 225 outlet;
#X msg 104 165 set \$1;
#X obj 27 195 makefilename;
#X obj 27 55 t f f f;
#X obj 50 95 -;
#X obj 50 115 sel 0;
#X msg 50 145 set %d;
#X obj 71 75 int;
#X msg 128 197 %d.60;
#X obj 105 125 * 100.001;
#X obj 104 145 makefilename %%d.%02d;
#X connect 0 0 4 0;
#X connect 2 0 3 0;
#X connect 2 0 9 0;
#X connect 3 0 1 0;
#X connect 4 0 3 0;
#X connect 4 1 5 0;
#X connect 4 2 8 0;
#X connect 5 0 6 0;
#X connect 6 0 7 0;
#X connect 6 1 10 0;
#X connect 7 0 3 0;
#X connect 8 0 5 1;
#X connect 10 0 11 0;
#X connect 11 0 2 0;
#X restore 480 81 pd f2s;
#X obj 982 352 * 2;
#X obj 840 332 * 2;
#X obj 672 510 line~;
#X obj 523 510 line~;
#X obj 270 231 t f b;
#X obj 166 231 t f b;
#X obj 489 265 b;
#X obj 222 121 * 0.02;
#X obj 357 257 spigot 1;
#X msg 405 277 0;
#X msg 419 257 1;
#X obj 270 571 *~;
#X obj 297 528 line~;
#X obj 166 311 pipe 4;
#X obj 270 311 pipe 4;
#X msg 364 310 0 4;
#X obj 357 277 del 5;
#X msg 404 341 \$1 7;
#X msg 523 480 \$1 7;
#X msg 672 480 \$1 7;
#X msg 317 509 1 7;
#X obj 204 427 *~;
#X obj 165 461 *~;
#X obj 72 191 cos;
#X obj 28 191 sin;
#X obj 18 91 * 0.015708;
#X obj 28 231 line~;
#X obj 72 231 line~;
#X msg 72 211 \$1 10;
#X msg 28 211 \$1 10;
#X obj 602 156 mmm-module \$1 \$2 pingpongdelay 8;
#X obj 16 19 mmm-ctrl \$1 \$2 1 dry-wet 0 100 50 int;
#X obj 222 81 mmm-ctrl \$1 \$2 3 delay 1 800 150 ext;
#X obj 521 242 mmm-ctrl \$1 \$2 4 level-1 0 100 80 int;
#X obj 672 267 mmm-ctrl \$1 \$2 5 level-2 0 100 50 int;
#X obj 573 332 mmm-ctrl \$1 \$2 6 pan-1 -50 50 -14 ext;
#X obj 722 352 mmm-ctrl \$1 \$2 7 pan-2 -50 50 10 ext;
#X obj 404 301 mmm-ctrl \$1 \$2 8 feedback 0 99 0 int;
#X obj 166 61 mmm-ctrl \$1 \$2 2 pingpong 0 100 50 int;
#X msg 705 41 version 0.3.4;
#X obj 165 401 inlet~;
#X obj 165 606 outlet~;
#X connect 0 0 3 0;
#X connect 1 0 0 1;
#X connect 2 0 9 0;
#X connect 2 0 41 0;
#X connect 3 0 2 0;
#X connect 5 0 0 0;
#X connect 5 0 16 0;
#X connect 6 0 10 0;
#X connect 7 0 8 0;
#X connect 8 0 6 0;
#X connect 9 0 71 0;
#X connect 10 0 48 0;
#X connect 11 0 10 0;
#X connect 11 1 10 1;
#X connect 12 0 11 0;
#X connect 13 0 17 0;
#X connect 14 0 15 0;
#X connect 15 0 13 0;
#X connect 16 0 71 0;
#X connect 17 0 49 0;
#X connect 18 0 17 0;
#X connect 18 1 17 1;
#X connect 19 0 18 0;
#X connect 20 0 26 0;
#X connect 21 0 22 0;
#X connect 22 0 25 0;
#X connect 23 0 24 0;
#X connect 23 0 21 0;
#X connect 24 0 35 0;
#X connect 25 0 34 0;
#X connect 26 0 24 0;
#X connect 26 0 25 0;
#X connect 26 1 25 1;
#X connect 26 1 24 1;
#X connect 27 0 47 0;
#X connect 28 0 29 0;
#X connect 29 0 62 1;
#X connect 30 0 66 1;
#X connect 31 0 65 1;
#X connect 32 0 16 1;
#X connect 33 0 9 1;
#X connect 34 0 44 0;
#X connect 34 1 38 0;
#X connect 35 0 43 0;
#X connect 35 1 38 0;
#X connect 36 0 10 0;
#X connect 36 0 17 0;
#X connect 36 0 27 0;
#X connect 36 0 50 0;
#X connect 37 0 20 0;
#X connect 38 0 39 0;
#X connect 38 0 45 0;
#X connect 38 0 46 0;
#X connect 39 0 38 1;
#X connect 40 0 38 1;
#X connect 41 0 4 0;
#X connect 42 0 41 1;
#X connect 43 0 2 1;
#X connect 44 0 5 0;
#X connect 45 0 33 0;
#X connect 45 0 32 0;
#X connect 45 0 1 0;
#X connect 45 0 42 0;
#X connect 46 0 40 0;
#X connect 46 0 36 0;
#X connect 47 0 1 0;
#X connect 48 0 33 0;
#X connect 49 0 32 0;
#X connect 50 0 42 0;
#X connect 51 0 3 0;
#X connect 52 0 71 0;
#X connect 53 0 58 0;
#X connect 54 0 59 0;
#X connect 55 0 54 0;
#X connect 55 0 53 0;
#X connect 56 0 51 1;
#X connect 57 0 52 1;
#X connect 58 0 57 0;
#X connect 59 0 56 0;
#X connect 61 0 55 0;
#X connect 62 0 37 0;
#X connect 62 2 28 0;
#X connect 63 0 12 0;
#X connect 64 0 19 0;
#X connect 65 0 7 0;
#X connect 65 2 31 0;
#X connect 66 0 14 0;
#X connect 66 2 30 0;
#X connect 67 0 27 0;
#X connect 68 0 23 0;
#X connect 70 0 52 0;
#X connect 70 0 51 0;
