#N canvas 455 81 699 541 10;
#X declare -path ../rjlib;
#X obj 29 59 loadbang;
#X msg 50 93 \; pd dsp 1;
#X obj 29 29 declare -path ../rjlib;
#X obj 54 478 soundoutput;
#X obj 60 379 *~ 0.586;
#X obj 127 65 mmm preset.song;
#X obj 46 135 4m-delta-kick 1 1 1-1;
#X obj 65 164 4m-sinusblip 2 3 2-3;
#X obj 65 185 4m-pingpongdelay 2 6 2-6;
#X obj 88 215 4m-sinusblip 3 3 3-3;
#X obj 109 245 4m-daisy 4 2 4-2;
#X obj 130 303 4m-daisy 5 2 5-2;
#X obj 128 279 4m-notes2 5 1 5-1;
#X obj 261 279 4m-notes3 6 1 6-1;
#X obj 263 303 4m-sinusblip 6 2 6-2;
#X obj 452 285 4m-notes2 7 1 7-1;
#X obj 454 309 4m-sinusblip 7 2 7-2;
#X obj 54 402 4m-delay 8 1 8-1;
#X obj 526 224 s mmm-transport>;
#X msg 526 200 loopstart \$1;
#X floatatom 526 178 5 0 0 0 - - -;
#X obj 306 115 env~;
#X obj 306 145 moses;
#X obj 566 148 + 1;
#X obj 526 148 f 0;
#X obj 606 148 mod 16;
#X obj 387 198 line;
#X obj 396 85 t b b b;
#X obj 431 152 del 1200;
#X obj 422 133 + 1000;
#X msg 386 158 95;
#X obj 54 449 *~ 0.8;
#N canvas 6 361 679 439 controls 0;
#X msg 94 286 \; 8-1-delay-r \$1;
#X obj 93 266 f;
#X obj 270 151 r mmm-steps;
#X obj 310 174 + 1;
#X obj 270 174 f 0;
#X obj 350 174 mod 2;
#X obj 267 197 b;
#X msg 57 195 0;
#X obj 54 59 accelerate;
#X obj 56 82 r accelerate;
#X obj 58 145 moses 1;
#X msg 117 191 450;
#X msg 406 143 \; 4-2-envelope-r \$1;
#X obj 404 78 moses 1;
#X msg 405 100 -1;
#X obj 443 100 * 2;
#X obj 443 122 + 50;
#X floatatom 421 241 5 0 0 0 - - -;
#X obj 422 259 moses 1;
#X msg 424 324 \; 6-1-octave-r \$1;
#X msg 423 281 2;
#X obj 461 303 + 2;
#X obj 291 81 * 10;
#X obj 56 102 route magnitude pitch roll;
#X floatatom 300 306 5 0 0 0 - - -;
#X obj 358 217 * 10;
#X obj 361 264 abs;
#X text 61 38 i find rad very unusefull \, so i just map it somehow
;
#X connect 1 0 0 0;
#X connect 2 0 4 0;
#X connect 3 0 5 0;
#X connect 4 0 3 0;
#X connect 4 0 6 0;
#X connect 5 0 4 1;
#X connect 6 0 1 0;
#X connect 7 0 1 1;
#X connect 9 0 23 0;
#X connect 10 0 7 0;
#X connect 10 1 11 0;
#X connect 11 0 1 1;
#X connect 13 0 14 0;
#X connect 13 1 15 0;
#X connect 14 0 12 0;
#X connect 15 0 16 0;
#X connect 16 0 12 0;
#X connect 17 0 18 0;
#X connect 18 0 20 0;
#X connect 18 1 21 0;
#X connect 20 0 19 0;
#X connect 21 0 19 0;
#X connect 22 0 13 0;
#X connect 23 0 10 0;
#X connect 23 1 22 0;
#X connect 23 2 25 0;
#X connect 25 0 26 0;
#X connect 26 0 24 0;
#X connect 26 0 18 0;
#X restore 448 384 pd controls;
#X obj 290 79 soundinput;
#X floatatom 391 223 5 0 0 0 - - -;
#X obj 423 113 random 2000;
#X msg 431 171 64 2000;
#X connect 0 0 1 0;
#X connect 4 0 17 0;
#X connect 6 0 4 0;
#X connect 7 0 8 0;
#X connect 8 0 4 0;
#X connect 9 0 4 0;
#X connect 10 0 4 0;
#X connect 11 0 4 0;
#X connect 14 0 4 0;
#X connect 16 0 4 0;
#X connect 17 0 31 0;
#X connect 19 0 18 0;
#X connect 20 0 19 0;
#X connect 21 0 22 0;
#X connect 22 1 27 0;
#X connect 23 0 25 0;
#X connect 24 0 23 0;
#X connect 24 0 20 0;
#X connect 25 0 24 1;
#X connect 26 0 22 1;
#X connect 26 0 34 0;
#X connect 27 0 30 0;
#X connect 27 1 35 0;
#X connect 27 2 24 0;
#X connect 28 0 36 0;
#X connect 29 0 28 0;
#X connect 30 0 26 0;
#X connect 30 0 22 1;
#X connect 31 0 3 1;
#X connect 31 0 3 0;
#X connect 33 0 21 0;
#X connect 33 1 21 0;
#X connect 35 0 29 0;
#X connect 36 0 26 0;
