#N canvas 133 22 559 616 10;
#N canvas 406 22 559 571 hot-controller 0;
#X obj 26 168 route info;
#N canvas 0 22 213 244 sroute 0;
#X obj 98 91 inlet;
#X obj 40 61 list split 1;
#X obj 40 31 inlet;
#X obj 40 181 outlet;
#X obj 40 151 list;
#X obj 40 121 select 1;
#X connect 0 0 5 1;
#X connect 1 0 5 0;
#X connect 1 1 4 1;
#X connect 2 0 1 0;
#X connect 4 0 3 0;
#X connect 5 0 4 0;
#X restore 26 188 pd sroute 1;
#X msg 195 261 bang;
#X obj 225 301 == 0;
#X obj 195 301 f 0;
#X obj 195 321 sel 0 1;
#X msg 195 371 0;
#X obj 195 451 list trim;
#X obj 195 491 s netpd-broadcast;
#X obj 299 25 r mmm;
#X obj 299 45 route module;
#X obj 299 65 route activate deactivate;
#X obj 299 285 route \$1;
#X obj 195 241 spigot 1;
#X obj 208 351 route 0;
#X obj 229 371 f 50;
#X msg 211 281 0;
#X obj 280 351 spigot;
#X obj 317 331 f 0;
#X obj 344 331 f 1;
#X obj 344 311 del 500;
#X obj 229 391 t a b;
#X obj 299 135 list append 1;
#X obj 396 135 list append 0;
#N canvas 0 22 221 252 sroute 0;
#X obj 119 91 inlet;
#X obj 40 61 list split 1;
#X obj 40 31 inlet;
#X obj 40 181 outlet;
#X obj 40 151 list;
#X obj 40 121 select empty;
#X connect 0 0 5 1;
#X connect 1 0 5 0;
#X connect 1 1 4 1;
#X connect 2 0 1 0;
#X connect 4 0 3 0;
#X connect 5 0 4 0;
#X restore 75 278 pd sroute;
#X obj 195 471 route empty;
#X obj 26 208 unpack s f f f;
#X obj 73 371 list prepend \$1;
#X obj 338 185 makefilename %%d-%d;
#X obj 299 165 unpack f f f;
#X msg 338 205 set \$1;
#X obj 299 225 makefilename;
#X obj 299 245 pack s f;
#X obj 299 265 list trim;
#X obj 299 85 list;
#X obj 299 105 route symbol;
#X msg 246 135 0;
#X obj 389 85 list;
#X obj 389 105 route symbol;
#X obj 195 431 list prepend \$1-\$2 empty;
#X obj 75 258 r \$1-\$2;
#X obj 195 221 r \$1-\$2-module;
#X connect 0 0 1 0;
#X connect 1 0 26 0;
#X connect 2 0 4 0;
#X connect 3 0 4 1;
#X connect 4 0 3 0;
#X connect 4 0 5 0;
#X connect 5 0 6 0;
#X connect 5 1 15 0;
#X connect 6 0 39 0;
#X connect 7 0 25 0;
#X connect 10 0 11 0;
#X connect 11 0 34 0;
#X connect 11 1 37 0;
#X connect 12 0 13 1;
#X connect 13 0 2 0;
#X connect 14 1 15 1;
#X connect 14 1 17 0;
#X connect 15 0 21 0;
#X connect 16 0 4 1;
#X connect 17 0 16 0;
#X connect 18 0 17 1;
#X connect 19 0 17 1;
#X connect 20 0 19 0;
#X connect 21 0 39 0;
#X connect 21 1 18 0;
#X connect 21 1 20 0;
#X connect 22 0 29 0;
#X connect 23 0 29 0;
#X connect 24 0 14 0;
#X connect 26 0 24 1;
#X connect 26 0 27 0;
#X connect 27 0 39 1;
#X connect 28 0 30 0;
#X connect 29 0 31 0;
#X connect 29 1 28 0;
#X connect 29 2 32 1;
#X connect 30 0 31 0;
#X connect 31 0 32 0;
#X connect 32 0 33 0;
#X connect 33 0 12 0;
#X connect 34 0 35 0;
#X connect 35 0 36 0;
#X connect 35 1 22 0;
#X connect 36 0 13 1;
#X connect 37 0 38 0;
#X connect 38 0 36 0;
#X connect 38 1 23 0;
#X connect 39 0 7 0;
#X connect 40 0 24 0;
#X restore 224 73 pd hot-controller;
#X text 17 14 [mmm-module <row> <col> <name> <#controllers>];
#X obj 19 44 namecanvas \$1-\$2-mmm-module;
#X obj 20 563 s \$1-\$2-admin;
#X obj 20 73 r \$1-\$2-admin;
#X msg 64 193 \; seq-modulename-r label \$1 \, color 18 18 0;
#X obj 64 173 list append \$3;
#X obj 39 233 f \$4;
#X obj 39 253 moses 8.5;
#X msg 107 273 color 8 8 22;
#X msg 39 293 color 8 8 20;
#X obj 39 313 s mmm-controller-scroll-r;
#X obj 97 363 +;
#X obj 238 293 loadbang;
#X obj 238 313 f \$4;
#X obj 97 343 list split 1;
#X msg 20 533 display \$1 \$2;
#X obj 164 403 +;
#X obj 20 103 route activate scroll patterncount;
#X obj 215 383 + 1;
#X obj 164 423 clip 1 2;
#X obj 97 463 value mmm-ctrl-scroll;
#X obj 164 483 value mmm-ptn-scroll;
#X obj 215 403 pipe 50;
#X obj 244 240 value mmm-ptn-scroll;
#X obj 20 133 t b b b b;
#X obj 244 260 min 1;
#X obj 320 503 s mmm;
#X msg 320 483 pattern scroll \$1;
#X msg 392 44 before save \, set;
#N canvas 0 22 450 322 steps2modules 0;
#X obj 13 17 inlet;
#X obj 93 17 r mmm-steps;
#X obj 130 37 r \$1-mmm-pattern;
#X obj 130 57 > 0;
#X obj 93 97 spigot;
#X msg 93 157;
#X obj 93 117 t b a;
#X obj 93 267 s;
#X obj 93 227 t b a;
#X obj 93 247 f;
#N canvas 0 22 286 325 create-sends 0;
#X obj 16 99 makefilename \$1-\$2-%d-mmm-steps;
#X msg 165 189 set;
#X obj 16 59 until;
#X obj 44 79 - 1;
#X obj 16 79 f;
#X msg 16 149 set addcomma;
#X msg 16 219 addcomma;
#X obj 16 119 t b a b;
#X msg 38 189 add2 symbol \$1;
#X obj 16 39 t a a b;
#X obj 16 259 outlet;
#X obj 16 19 inlet;
#X connect 0 0 7 0;
#X connect 1 0 6 0;
#X connect 1 0 10 0;
#X connect 2 0 4 0;
#X connect 3 0 4 1;
#X connect 4 0 3 0;
#X connect 4 0 0 0;
#X connect 5 0 6 0;
#X connect 6 0 10 0;
#X connect 7 0 5 0;
#X connect 7 1 8 0;
#X connect 7 2 6 0;
#X connect 8 0 10 0;
#X connect 9 0 2 0;
#X connect 9 1 4 1;
#X connect 9 2 1 0;
#X connect 11 0 9 0;
#X restore 101 137 pd create-sends;
#X obj 172 77 f \$4;
#X obj 172 57 loadbang;
#X obj 130 77 &&;
#X connect 0 0 5 0;
#X connect 1 0 4 0;
#X connect 2 0 3 0;
#X connect 3 0 13 0;
#X connect 4 0 6 0;
#X connect 5 0 8 0;
#X connect 6 0 5 0;
#X connect 6 1 9 1;
#X connect 8 0 9 0;
#X connect 8 1 7 1;
#X connect 9 0 7 0;
#X connect 10 0 5 0;
#X connect 11 0 10 0;
#X connect 11 0 13 1;
#X connect 12 0 11 0;
#X connect 13 0 4 1;
#X restore 392 64 pd steps2modules;
#X msg 287 44 version 0.3.8;
#X msg 297 429 1;
#X obj 97 383 clip 1;
#X obj 238 353 max 1;
#X msg 20 363 1;
#X obj 20 513 list append 1;
#X obj 238 333 - 7;
#X msg 288 326 bang;
#X connect 4 0 18 0;
#X connect 6 0 5 0;
#X connect 7 0 8 0;
#X connect 8 0 10 0;
#X connect 8 1 9 0;
#X connect 9 0 11 0;
#X connect 10 0 11 0;
#X connect 12 0 33 0;
#X connect 13 0 14 0;
#X connect 13 0 32 0;
#X connect 14 0 37 0;
#X connect 15 0 12 0;
#X connect 15 1 17 0;
#X connect 16 0 3 0;
#X connect 17 0 20 0;
#X connect 18 0 25 0;
#X connect 18 1 15 0;
#X connect 18 2 19 0;
#X connect 18 2 26 1;
#X connect 19 0 23 0;
#X connect 20 0 17 1;
#X connect 20 0 22 0;
#X connect 20 0 28 0;
#X connect 20 0 36 1;
#X connect 23 0 20 2;
#X connect 24 0 26 0;
#X connect 25 0 35 0;
#X connect 25 1 7 0;
#X connect 25 2 6 0;
#X connect 25 3 24 0;
#X connect 26 0 20 0;
#X connect 28 0 27 0;
#X connect 29 0 30 0;
#X connect 32 0 21 0;
#X connect 32 0 22 0;
#X connect 33 0 12 1;
#X connect 33 0 21 0;
#X connect 33 0 36 0;
#X connect 34 0 33 2;
#X connect 35 0 36 0;
#X connect 36 0 16 0;
#X connect 37 0 34 0;
#X connect 38 0 14 0;
