#N canvas 177 39 420 321 10;
#X obj -64 53 inlet ctrl;
#X obj -49 261 outlet seq;
#X obj 76 261 outlet ctrl;
#X obj -34 211 r \$1-\$2;
#X obj -34 231 route \$4;
#X text -65 9 [mmm-ctrl \$1 \$2 <number> <name> <rangefrom> <rangeto>
<init> <type>];
#X msg 25 53 version 0.3.15;
#X obj -50 119 mmm-a \$1-\$2 \$4 empty;
#N canvas 249 280 656 453 run 0;
#X obj 255 57 inlet sequence;
#X obj 14 177 list;
#X obj 14 124 t b f;
#X obj 14 197 list split;
#X obj 46 217 list split 1;
#X obj 14 64 sel 0;
#X obj 14 84 t b b;
#X obj 14 104 f 0;
#X obj 111 287 moses \$5;
#X obj 95 47 r \$1-mmm-pattern;
#X obj 162 376 outlet;
#X obj 372 364 outlet;
#X obj 321 277 moses \$5;
#X obj 255 94 list split 1;
#X obj 95 67 * 16;
#X obj 95 87 - 16;
#X obj 79 177 +;
#X obj 46 237 route bang;
#X msg 391 57 bang;
#X msg 321 297 0;
#X obj 162 337 +;
#X obj 162 357 clip \$5 \$6;
#X obj 460 205 >= \$5;
#X obj 460 185 f \$7;
#X obj 381 17 loadbang;
#X obj 381 37 t b b;
#X obj 224 236 spigot;
#X obj 177 98 == 1;
#X obj 140 118 spigot;
#X obj 14 17 r \$1-\$2-\$3-mmm-steps;
#X obj 258 159 change \$7;
#X text 149 76 eigentlich sollte es nur auf pos 0 kommen;
#X msg 448 19 bang;
#X obj 321 247 f \$7;
#X obj 381 117 -;
#X obj 381 298 -;
#X obj 381 177 int;
#X obj 258 179 t a a;
#X obj 381 97 list append \$6 \$5;
#X obj 381 137 * 0.5;
#X obj 381 157 + \$5;
#X obj 381 197 t b b a;
#X obj 268 135 r \$1-\$2-\$4-r;
#X connect 0 0 13 0;
#X connect 1 0 3 0;
#X connect 2 0 1 0;
#X connect 2 1 16 0;
#X connect 3 1 4 0;
#X connect 4 0 17 0;
#X connect 5 0 6 0;
#X connect 5 1 2 0;
#X connect 6 0 7 0;
#X connect 6 1 28 0;
#X connect 7 0 2 0;
#X connect 8 1 20 0;
#X connect 9 0 14 0;
#X connect 9 0 27 0;
#X connect 12 0 19 0;
#X connect 12 1 11 0;
#X connect 12 1 35 0;
#X connect 13 0 30 0;
#X connect 13 1 1 1;
#X connect 14 0 15 0;
#X connect 15 0 16 1;
#X connect 16 0 3 1;
#X connect 17 1 8 0;
#X connect 18 0 38 0;
#X connect 19 0 20 1;
#X connect 20 0 21 0;
#X connect 21 0 10 0;
#X connect 22 0 26 1;
#X connect 23 0 22 0;
#X connect 24 0 25 0;
#X connect 25 0 38 0;
#X connect 25 1 23 0;
#X connect 26 0 21 0;
#X connect 27 0 28 1;
#X connect 28 0 33 0;
#X connect 29 0 5 0;
#X connect 30 0 37 0;
#X connect 32 0 25 0;
#X connect 33 0 12 0;
#X connect 34 0 39 0;
#X connect 35 0 20 1;
#X connect 36 0 41 0;
#X connect 37 0 26 0;
#X connect 37 1 33 0;
#X connect 38 0 34 0;
#X connect 39 0 40 0;
#X connect 40 0 36 0;
#X connect 41 0 30 0;
#X connect 41 1 33 0;
#X connect 41 2 35 1;
#X connect 42 0 30 0;
#X restore -47 157 pd run with me;
#X obj 127 118 inlet;
#X obj 193 213 outlet;
#X connect 3 0 4 0;
#X connect 4 0 1 0;
#X connect 7 0 8 0;
#X connect 8 0 1 0;
#X connect 8 1 2 0;
