#N canvas 364 22 510 443 10;
#X text 11 11 [mmm-a <parent> <name>];
#X obj 191 13 inlet;
#X obj 243 303 r netpd-receive;
#X obj 249 183 s netpd-broadcast;
#X obj 205 43 r data.preload;
#X obj 205 63 route \$1;
#X obj 205 83 route \$2;
#X obj 243 323 route \$1;
#X obj 243 343 route \$2;
#X obj 191 113 route set;
#X obj 243 363 outlet;
#X obj 249 143 list prepend \$1 \$2;
#X obj 249 163 list trim;
#X text 377 183 BROADCAST;
#X text 236 12 LOCAL;
#X text 304 253 SET LOCAL;
#X text 310 42 LOAD-PRESET;
#X obj 191 233 list trim;
#X obj 191 253 s netpd-receive;
#X obj 191 213 list prepend \$1 \$2;
#X msg 16 32 version 0.2.7;
#X text 356 303 RECEIVE;
#X connect 1 0 9 0;
#X connect 2 0 7 0;
#X connect 4 0 5 0;
#X connect 5 0 6 0;
#X connect 6 0 9 0;
#X connect 7 0 8 0;
#X connect 8 0 10 0;
#X connect 9 0 19 0;
#X connect 9 1 11 0;
#X connect 11 0 12 0;
#X connect 12 0 3 0;
#X connect 17 0 18 0;
#X connect 19 0 17 0;
