#N canvas 0 22 367 306 10;
#X obj 135 59 mmm-a \$1--1 arrangement empty;
#X obj 20 54 inlet timecode;
#X obj 71 224 s \$1-mmm-pattern;
#X msg 20 24 version 0.3.12;
#X obj 34 154 list split;
#X obj 34 104 t b f;
#X obj 66 174 list split 1;
#X obj 34 134 list append;
#X connect 0 0 7 1;
#X connect 1 0 5 0;
#X connect 4 1 6 0;
#X connect 5 0 7 0;
#X connect 5 1 4 1;
#X connect 6 0 2 0;
#X connect 7 0 4 0;
