#N canvas 222 314 248 216 10;
#X obj 19 50 t f f;
#X obj 64 80 div 12;
#X obj 64 100 makefilename %%s%d;
#X msg 64 120 set \$1;
#N canvas 380 110 320 329 n 0;
#X obj 31 31 inlet;
#X obj 31 57 mod 12;
#X obj 31 80 select 0 1 2 3 4 5 6 7 8 9 10 11;
#X msg 62 157 symbol d-;
#X msg 31 117 symbol c-;
#X msg 93 197 symbol e-;
#X msg 108 217 symbol f-;
#X msg 140 137 symbol g-;
#X msg 171 177 symbol a-;
#X msg 202 217 symbol b;
#X obj 58 262 outlet;
#X msg 46 137 symbol c*;
#X msg 124 117 symbol f*;
#X msg 155 156 symbol g*;
#X msg 77 177 symbol d*;
#X msg 187 197 symbol a*;
#X connect 0 0 1 0;
#X connect 1 0 2 0;
#X connect 2 0 4 0;
#X connect 2 1 11 0;
#X connect 2 2 3 0;
#X connect 2 3 14 0;
#X connect 2 4 5 0;
#X connect 2 5 6 0;
#X connect 2 6 12 0;
#X connect 2 7 7 0;
#X connect 2 8 13 0;
#X connect 2 9 8 0;
#X connect 2 10 15 0;
#X connect 2 11 9 0;
#X connect 3 0 10 0;
#X connect 4 0 10 0;
#X connect 5 0 10 0;
#X connect 6 0 10 0;
#X connect 7 0 10 0;
#X connect 8 0 10 0;
#X connect 9 0 10 0;
#X connect 11 0 10 0;
#X connect 12 0 10 0;
#X connect 13 0 10 0;
#X connect 14 0 10 0;
#X connect 15 0 10 0;
#X restore 19 80 pd n;
#X obj 19 150 makefilename;
#X obj 19 180 outlet;
#X obj 19 20 inlet;
#X msg 129 20 version 0.3.0;
#X connect 0 0 4 0;
#X connect 0 1 1 0;
#X connect 1 0 2 0;
#X connect 2 0 3 0;
#X connect 3 0 5 0;
#X connect 4 0 5 0;
#X connect 5 0 6 0;
#X connect 7 0 0 0;
