#N canvas 479 246 593 400 10;
#N canvas 199 22 561 508 transport 1;
#X obj 230 175 metro 100;
#X obj 272 109 pow -1;
#X obj 272 132 * 15000;
#X obj 230 225 f;
#X msg 326 181 0;
#X obj 268 225 + 1;
#X obj 230 52 route play bpm stoprewind tpp shuffle;
#N canvas 88 22 466 316 shuffle 0;
#X obj 83 44 inlet tick;
#X obj 216 43 inlet time;
#X obj 347 49 inlet shuffle;
#X obj 347 77 * 0.01;
#X obj 338 129 t b f;
#X obj 336 159 *;
#X obj 83 225 outlet;
#X obj 109 80 t f f;
#X obj 134 101 mod 2;
#X obj 134 127 *;
#X obj 109 163 pipe;
#X connect 0 0 7 0;
#X connect 1 0 5 0;
#X connect 2 0 3 0;
#X connect 3 0 4 0;
#X connect 4 0 5 0;
#X connect 4 1 5 1;
#X connect 5 0 9 1;
#X connect 7 0 10 0;
#X connect 7 1 8 0;
#X connect 8 0 9 0;
#X connect 9 0 10 1;
#X connect 10 0 6 0;
#X restore 230 279 pd shuffle;
#N canvas 493 295 597 304 loopstart 1;
#X obj 55 70 b;
#X obj 55 111 f 16;
#X obj 55 50 route getloopstart;
#X obj 55 28 r >mmm-transport;
#X obj 55 157 s mmm-transport>;
#X msg 55 133 loopstart \$1;
#X obj 86 74 mmm-a mmm loopstart 0;
#X connect 0 0 1 0;
#X connect 1 0 5 0;
#X connect 2 0 0 0;
#X connect 3 0 2 0;
#X connect 5 0 4 0;
#X connect 6 0 1 0;
#X restore 17 141 pd loopstart;
#N canvas 168 356 321 255 looplength 1;
#X obj 26 90 b;
#X obj 26 131 f 16;
#X obj 26 70 route getlooplength;
#X obj 26 180 s mmm-transport>;
#X msg 26 153 looplength \$1;
#X obj 26 30 r >mmm-transport;
#X obj 59 100 mmm-a mmm looplength 1;
#X connect 0 0 1 0;
#X connect 1 0 4 0;
#X connect 2 0 0 0;
#X connect 4 0 3 0;
#X connect 5 0 2 0;
#X connect 6 0 1 0;
#X restore 17 161 pd looplength;
#N canvas 273 188 500 544 loop 1;
#X obj 60 27 inlet;
#X obj 75 396 outlet;
#X obj 121 173 mod 16;
#X obj 92 123 div 16;
#X obj 253 57 route tpp loopstart looplength;
#X obj 121 194 == 0;
#X obj 105 150 +;
#X obj 320 87 t b f;
#X obj 388 146 != 0;
#X obj 92 171 >=;
#X obj 75 358 spigot;
#X obj 234 264 * 16;
#X obj 221 315 f;
#X obj 108 273 sel 3;
#X obj 60 62 t b f f f;
#X msg 60 218 1;
#X msg 118 309 0;
#X obj 221 389 outlet;
#X text 36 427 hoffe \, das funktioniert so mit ner feedback-schleife
;
#X obj 108 244 + 1;
#X obj 108 217 + 0;
#X obj 253 35 r mmm-transport>;
#X connect 0 0 14 0;
#X connect 2 0 5 0;
#X connect 3 0 9 0;
#X connect 4 1 6 0;
#X connect 4 1 11 0;
#X connect 4 2 7 0;
#X connect 4 2 8 0;
#X connect 5 0 20 1;
#X connect 6 0 9 1;
#X connect 7 0 6 0;
#X connect 7 1 6 1;
#X connect 8 0 19 1;
#X connect 9 0 20 0;
#X connect 10 0 1 0;
#X connect 11 0 12 1;
#X connect 12 0 17 0;
#X connect 13 0 12 0;
#X connect 13 0 16 0;
#X connect 14 0 15 0;
#X connect 14 1 10 0;
#X connect 14 2 3 0;
#X connect 14 3 2 0;
#X connect 15 0 10 1;
#X connect 16 0 10 1;
#X connect 19 0 13 0;
#X connect 20 0 19 0;
#X connect 21 0 4 0;
#X restore 230 255 pd loop;
#X obj 230 22 r mmm-transport>;
#X obj 259 425 outlet timecode;
#X obj 229 325 mod 16;
#X obj 259 365 sel 0;
#X obj 259 385 f;
#X obj 259 405 div 16;
#X obj 229 445 s mmm-steps;
#X obj 229 345 t a a;
#X obj 360 136 route reset_all preferences;
#X obj 229 305 t a a a;
#N canvas 0 22 466 316 benchmarks 0;
#X obj 113 157 + 1;
#X obj 73 157 f 0;
#X obj 148 158 mod 16;
#X obj 65 208 t b a b;
#X obj 158 248 realtime;
#X floatatom 145 111 5 0 0 0 - - -;
#X obj 46 252 outlet;
#X obj 106 110 bng 15 250 50 0 empty empty empty 17 7 0 10 -262144
-1 -1;
#X obj 41 66 inlet;
#X connect 0 0 2 0;
#X connect 1 0 0 0;
#X connect 1 0 3 0;
#X connect 2 0 1 1;
#X connect 3 0 4 1;
#X connect 3 1 6 0;
#X connect 3 2 4 0;
#X connect 4 0 5 0;
#X connect 7 0 1 0;
#X connect 8 0 3 0;
#X coords 0 -1 1 1 85 33 2 100 100;
#X restore 38 253 pd benchmarks;
#X msg 37 209 0;
#X msg 97 209 16;
#X msg 67 209 1;
#X floatatom 96 233 5 0 0 0 - - -;
#X msg 17 21 version 0.3.20;
#X obj 302 245 mmm-a mmm shuffle 0;
#X obj 271 80 mmm-a mmm bpm 126;
#X connect 0 0 3 0;
#X connect 1 0 2 0;
#X connect 2 0 7 1;
#X connect 2 0 0 1;
#X connect 3 0 5 0;
#X connect 3 0 10 0;
#X connect 4 0 3 1;
#X connect 5 0 3 1;
#X connect 6 0 0 0;
#X connect 6 2 4 0;
#X connect 7 0 20 0;
#X connect 10 0 7 0;
#X connect 10 1 3 0;
#X connect 11 0 6 0;
#X connect 13 0 18 0;
#X connect 14 0 15 0;
#X connect 15 0 16 0;
#X connect 16 0 12 0;
#X connect 18 0 17 0;
#X connect 18 1 14 0;
#X connect 19 0 4 0;
#X connect 20 0 13 0;
#X connect 20 1 15 1;
#X connect 21 0 20 0;
#X connect 22 0 21 0;
#X connect 23 0 21 0;
#X connect 24 0 21 0;
#X connect 25 0 21 0;
#X connect 27 0 7 2;
#X connect 28 0 1 0;
#X restore 75 45 pd transport;
#X obj 83 108 t a a a a a a a a;
#X obj 197 138 mmm-arranger 1;
#X obj 329 36 loadbang;
#X obj 409 246 textfile;
#X obj 351 206 until;
#X obj 409 266 list trim;
#N canvas 19 22 341 342 netcheck 0;
#X obj 150 96 t b b;
#X obj 113 235 spigot;
#X obj 150 215 == -1;
#X obj 120 16 inlet;
#X obj 18 186 r netpd-send;
#X obj 150 156 f -1;
#X obj 113 186 r netpd-broadcast;
#X obj 113 285 s netpd-receive;
#X obj 80 46 f 1;
#X obj 120 56 t b f;
#X obj 120 36 value data.onlyone;
#X obj 18 206 list split 1;
#X obj 113 255 list trim;
#X obj 150 76 sel 0;
#X obj 180 116 s netpd-getstatus;
#X obj 173 136 r netpd-status;
#X obj 181 240 tgl 15 0 empty empty empty 17 7 0 10 -262144 -1 -1 1
1;
#X connect 0 0 5 0;
#X connect 0 1 14 0;
#X connect 1 0 12 0;
#X connect 2 0 1 1;
#X connect 2 0 16 0;
#X connect 3 0 10 0;
#X connect 4 0 11 0;
#X connect 5 0 2 0;
#X connect 6 0 1 0;
#X connect 8 0 10 0;
#X connect 9 0 8 0;
#X connect 9 1 13 0;
#X connect 10 0 9 0;
#X connect 11 1 1 0;
#X connect 12 0 7 0;
#X connect 13 0 0 0;
#X connect 15 0 5 1;
#X restore 368 78 pd netcheck;
#X msg 195 42 \; mmm-load asdf;
#X obj 351 146 t b a;
#X msg 315 311 \; mmm-transport> play 1;
#X obj 329 57 t b b b;
#X msg 445 218 print;
#X msg 319 89 bang;
#X obj 351 116 list append \$1;
#X msg 399 176 clear \, read \$1 \, rewind;
#X obj 180 158 mmm-arranger 2;
#X obj 164 178 mmm-arranger 3;
#X obj 148 198 mmm-arranger 4;
#X obj 131 218 mmm-arranger 5;
#X obj 115 238 mmm-arranger 6;
#X obj 99 258 mmm-arranger 7;
#X obj 83 278 mmm-arranger 8;
#X obj 409 286 s netpd-broadcast;
#X connect 0 0 1 0;
#X connect 1 0 22 0;
#X connect 1 1 21 0;
#X connect 1 2 20 0;
#X connect 1 3 19 0;
#X connect 1 4 18 0;
#X connect 1 5 17 0;
#X connect 1 6 16 0;
#X connect 1 7 2 0;
#X connect 3 0 11 0;
#X connect 4 0 6 0;
#X connect 4 1 5 1;
#X connect 5 0 4 0;
#X connect 6 0 23 0;
#X connect 9 0 5 0;
#X connect 9 1 15 0;
#X connect 11 0 10 0;
#X connect 11 1 14 0;
#X connect 11 2 7 0;
#X connect 12 0 4 0;
#X connect 13 0 14 0;
#X connect 14 0 9 0;
#X connect 15 0 4 0;
