#N canvas 180 319 422 268 10;
#N canvas 77 321 497 180 MODULE_INFO 0;
#X text 66 78 authors: Reality Jockey;
#X text 66 57 name: Template;
#X text 65 118 decorator: s1m1-s2m1;
#X text 65 138 tags:;
#X text 65 98 description: Template module.;
#X restore 20 21 pd MODULE_INFO;
#X obj 20 218 outlet~;
#X obj 80 218 outlet~;
#X obj 161 218 outlet;
#X obj 161 47 inlet;
#N canvas 353 110 294 389 \$0-DSP 0;
#X obj 50 304 outlet~;
#X obj 111 305 outlet~;
#X obj 50 68 inlet~;
#X floatatom 94 201 5 0 0 0 - - -;
#X obj 94 180 r \$0-RJC_PARAM;
#X connect 2 0 0 0;
#X connect 2 0 1 0;
#X connect 4 0 3 0;
#X restore 20 158 pd \$0-DSP;
#N canvas 69 233 449 291 \$0-PARAMETERS 0;
#X obj 110 250 outlet;
#X obj -113 170 s \$0-tick;
#X obj -113 44 inlet;
#X obj 106 132 cnv 15 187 97 empty empty RJC_Parameters 10 12 1 14
-162280 -262144 0;
#X obj 106 106 cnv 15 187 20 empty empty Template 65 11 1 14 -261234
-33289 0;
#X obj 110 154 rjc_parameter_floatrange \$0 RJC_PARAM 0.5;
#X obj -61 145 s \$0-bpm;
#X obj -8 123 s \$0-rootnote;
#X obj -113 76 route tick bpm rootnote;
#X connect 2 0 8 0;
#X connect 5 0 0 0;
#X connect 8 0 1 0;
#X connect 8 1 6 0;
#X connect 8 2 7 0;
#X connect 8 3 5 0;
#X coords 0 -1 1 1 199 135 2 100 100;
#X restore 161 73 pd \$0-PARAMETERS;
#N canvas 0 22 807 334 \$0-INPUT 0;
#X obj 77 47 inlet~;
#X obj 77 216 outlet~;
#X connect 0 0 1 0;
#X coords 0 0 1 1 85 40 0;
#X restore 20 98 pd \$0-INPUT;
#X obj 20 47 inlet~ MIC;
#X connect 4 0 6 0;
#X connect 5 0 1 0;
#X connect 5 1 2 0;
#X connect 6 0 3 0;
#X connect 7 0 5 0;
#X connect 8 0 7 0;
