#N canvas 510 145 392 357 10;
#X obj -329 44 inlet~;
#X obj -329 280 outlet~;
#X obj -269 280 outlet~;
#N canvas 736 28 492 523 \$0-DSP 0;
#X obj 367 298 r \$0-Snare_Level;
#X obj 200 298 r \$0-HiHat_Level;
#N canvas 694 520 481 331 filtering 0;
#X obj 189 123 *~;
#X obj 207 102 line~;
#X msg 207 81 0 \, 1 200;
#X obj 207 59 loadbang;
#X obj 189 33 inlet~;
#X obj 52 181 lop~ 350;
#X obj 52 202 lop~ 330;
#X obj 52 160 lop~ 450;
#X obj 52 245 hip~ 80;
#X obj 52 224 hip~ 80;
#X obj 329 181 hip~ 800;
#X obj 329 224 hip~ 800;
#X obj 329 159 lop~ 3000;
#X obj 329 202 lop~ 3000;
#X obj 189 159 hip~ 6500;
#X obj 189 181 hip~ 6500;
#X obj 189 202 hip~ 6500;
#X obj 189 224 lop~ 8000;
#X obj 189 245 lop~ 8000;
#X obj 52 271 outlet~ BASSDRUM;
#X obj 189 271 outlet~ HHCLOSED;
#X obj 329 270 outlet~ SNARE;
#X connect 0 0 7 0;
#X connect 0 0 12 0;
#X connect 0 0 14 0;
#X connect 1 0 0 1;
#X connect 2 0 1 0;
#X connect 3 0 2 0;
#X connect 4 0 0 0;
#X connect 5 0 6 0;
#X connect 6 0 9 0;
#X connect 7 0 5 0;
#X connect 8 0 19 0;
#X connect 9 0 8 0;
#X connect 10 0 13 0;
#X connect 11 0 21 0;
#X connect 12 0 10 0;
#X connect 13 0 11 0;
#X connect 14 0 15 0;
#X connect 15 0 16 0;
#X connect 16 0 17 0;
#X connect 17 0 18 0;
#X connect 18 0 20 0;
#X restore 7 135 pd filtering;
#N canvas 390 52 489 552 onset 0;
#X obj 111 145 inlet~;
#X msg 95 408 bdonset;
#X msg 206 336 clear \, bang;
#X msg 143 310 bang;
#X obj 143 259 spigot 1;
#X msg 223 284 1;
#X msg 111 233 0;
#X obj 111 207 t b b;
#X msg 163 408 hhclosedonset;
#X obj 160 284 del 400;
#X obj 111 181 a_onset 128 15;
#X obj 143 372 sel 0 1 2;
#X obj 143 336 c_urn 3;
#X obj 163 454 outlet;
#X text 6 485 Detects onsets and sends a bang to one of the percussive
live-instruments. Time between two onsets need to be at least 400ms.
;
#X msg 274 408 snareonset;
#X obj 206 107 inlet;
#X obj 206 132 route sensitivity debounce;
#X connect 0 0 10 0;
#X connect 1 0 13 0;
#X connect 2 0 12 0;
#X connect 3 0 12 0;
#X connect 4 0 3 0;
#X connect 4 0 9 0;
#X connect 5 0 4 1;
#X connect 6 0 4 1;
#X connect 7 0 6 0;
#X connect 7 1 4 0;
#X connect 8 0 13 0;
#X connect 9 0 5 0;
#X connect 10 0 7 0;
#X connect 11 0 1 0;
#X connect 11 1 8 0;
#X connect 11 2 15 0;
#X connect 12 0 11 0;
#X connect 12 1 2 0;
#X connect 15 0 13 0;
#X connect 16 0 17 0;
#X connect 17 0 10 1;
#X connect 17 1 9 1;
#X restore 198 173 pd onset;
#N canvas 89 447 821 393 bassdrum 0;
#X msg 172 96 bang;
#X obj 22 44 clip~ -1 1;
#X msg 172 70 start;
#X msg 204 200 stop;
#X msg 172 174 normalize;
#X obj 172 148 t b b;
#X obj 299 154 sel 1;
#X obj 299 376 outlet~;
#X obj 317 262 s_fplaytable;
#X obj 299 288 *~;
#X obj 172 122 del 310;
#X obj 299 180 c_ead 1 300;
#N canvas 0 22 800 516 wql-tanh 0;
#X obj 241 65 inlet~;
#X text 493 89 __;
#X text 575 89 __;
#X text 527 89 __;
#X text 626 89 __;
#X text 493 106 1 +;
#X text 529 106 3 +;
#X text 577 106 5 +;
#X text 627 106 7 +;
#X text 443 32 As a continued fraction;
#X obj 240 148 *~;
#X obj 165 265 /~;
#X obj 165 350 /~;
#X obj 165 288 /~;
#X obj 165 321 /~;
#X text 427 78 tanh(z) = z z^2 4z^2 9z^2 ...;
#X obj 292 175 *~ 4;
#X obj 291 206 +~ 3;
#X obj 335 174 *~ 9;
#X obj 334 205 +~ 5;
#X obj 375 175 *~ 16;
#X obj 374 205 +~ 7;
#X obj 240 206 +~ 1;
#X obj 165 401 outlet~;
#X obj 165 372 *~ 576;
#X obj 241 89 *~ 0.308319;
#X text 276 114 1/pi;
#X text 217 381 ajf;
#X connect 0 0 25 0;
#X connect 10 0 16 0;
#X connect 10 0 18 0;
#X connect 10 0 20 0;
#X connect 10 0 22 0;
#X connect 11 0 13 0;
#X connect 12 0 24 0;
#X connect 13 0 14 0;
#X connect 14 0 12 0;
#X connect 16 0 17 0;
#X connect 17 0 13 1;
#X connect 18 0 19 0;
#X connect 19 0 14 1;
#X connect 20 0 21 0;
#X connect 21 0 12 1;
#X connect 22 0 11 1;
#X connect 24 0 23 0;
#X connect 25 0 10 1;
#X connect 25 0 10 0;
#X connect 25 0 11 0;
#X restore 299 340 pd wql-tanh;
#X obj 299 314 *~ 0.7;
#X obj 22 8 inlet~;
#X obj 299 8 inlet;
#X obj 172 8 inlet;
#X obj 172 44 route bdonset;
#X text 24 246 Records Bass Drum;
#X obj 22 225 u_record \$0-bd 315;
#X obj 317 209 list prepend \$0-bd;
#X obj 317 235 list trim;
#N canvas 208 352 525 525 restore 0;
#X text 43 -14 Kick Patterns;
#X obj 42 39 list prepend set;
#X obj 42 60 list trim;
#X obj 42 12 inlet;
#X obj 43 529 outlet;
#X obj 64 88 loadbang;
#X msg 42 126 0 0 0 0 0 0 0 0 0 0 0 0 0 0 0 0 0 0 0 0 0 0 0 0 0 0 0
0 0 0 0 0;
#X msg 74 428 1 0 0 0 1 0 0 0 0 0 0 0 0 0 0 0 1 0 0 0 0 0 0 0 0 0 1
0 1 0 0 0;
#X obj 43 304 int;
#X text 268 293 Saved Slots;
#X text 150 112 New patterns should be copied into saved slots;
#X obj 43 283 u_wrandom;
#X obj 43 264 bang;
#X obj 43 325 sel 0 1 2 3;
#X floatatom 3 304 5 0 0 0 - - -;
#X obj 43 244 sel 0;
#X msg 103 255 1 1 1 1;
#X msg 43 354 1 0 0 0 0 0 1 0 0 0 0 0 0 0 0 0 1 0 0 0 1 0 0 0 0 0 0
0 0 0 0 0;
#X msg 58 395 1 0 0 0 0 0 1 0 0 0 0 0 1 0 0 0 1 0 0 0 0 0 0 0 0 0 0
0 1 0 0 0;
#X obj 43 223 mod 128;
#X msg 90 464 1 0 0 0 1 0 0 0 0 0 0 0 0 0 0 0 1 0 0 0 0 0 0 0 0 0 1
0 1 0 1 0;
#X obj 43 162 r \$0-tick;
#X obj 103 235 loadbang;
#X obj 43 198 spigot 0;
#X obj 178 167 r \$0-Pattern;
#X obj 178 192 sel 0;
#X msg 178 213 1;
#X msg 210 213 0;
#X obj 250 192 * 10;
#X obj 250 213 int;
#X obj 250 235 sel 1 2 3 4 5 6 7 8 9 10;
#X connect 1 0 2 0;
#X connect 2 0 6 0;
#X connect 3 0 1 0;
#X connect 5 0 6 0;
#X connect 7 0 4 0;
#X connect 8 0 13 0;
#X connect 11 0 8 0;
#X connect 11 0 14 0;
#X connect 12 0 11 0;
#X connect 13 0 17 0;
#X connect 13 1 18 0;
#X connect 13 2 7 0;
#X connect 13 3 20 0;
#X connect 15 0 12 0;
#X connect 16 0 11 1;
#X connect 17 0 4 0;
#X connect 18 0 4 0;
#X connect 19 0 15 0;
#X connect 20 0 4 0;
#X connect 21 0 23 0;
#X connect 22 0 16 0;
#X connect 23 0 19 0;
#X connect 24 0 25 0;
#X connect 24 0 28 0;
#X connect 25 0 26 0;
#X connect 25 1 27 0;
#X connect 26 0 23 1;
#X connect 27 0 23 1;
#X connect 28 0 29 0;
#X connect 29 0 30 0;
#X connect 30 0 17 0;
#X connect 30 1 18 0;
#X connect 30 2 7 0;
#X connect 30 3 20 0;
#X connect 30 4 17 0;
#X connect 30 5 18 0;
#X connect 30 6 7 0;
#X connect 30 7 20 0;
#X connect 30 8 17 0;
#X connect 30 9 18 0;
#X restore 661 86 pd restore;
#X obj 299 44 g_pattern32 \$0-bdpattern;
#X connect 0 0 10 0;
#X connect 1 0 19 0;
#X connect 2 0 0 0;
#X connect 2 0 19 1;
#X connect 3 0 19 1;
#X connect 4 0 19 1;
#X connect 5 0 4 0;
#X connect 5 1 3 0;
#X connect 6 0 11 0;
#X connect 6 0 20 0;
#X connect 8 0 9 1;
#X connect 9 0 13 0;
#X connect 10 0 5 0;
#X connect 11 0 9 0;
#X connect 12 0 7 0;
#X connect 13 0 12 0;
#X connect 14 0 1 0;
#X connect 15 0 23 0;
#X connect 16 0 17 0;
#X connect 17 0 2 0;
#X connect 20 0 21 0;
#X connect 21 0 8 0;
#X connect 22 0 23 1;
#X connect 23 0 6 0;
#X connect 23 1 22 0;
#X restore 7 268 pd bassdrum;
#N canvas 431 256 849 388 snare 0;
#X msg 220 100 start;
#X msg 220 126 bang;
#X msg 252 230 stop;
#X msg 220 204 normalize;
#X obj 220 178 t b b;
#X obj 355 349 outlet~;
#X obj 355 184 sel 1;
#X obj 373 287 s_fplaytable;
#X obj 355 313 *~;
#X obj 220 152 del 210;
#X obj 355 210 c_ead 1 200;
#X obj 97 40 inlet~;
#X obj 355 38 inlet;
#X obj 220 38 inlet;
#X obj 220 74 route snareonset;
#X text 118 278 Records Snare;
#X obj 97 256 u_record \$0-snare 210;
#X obj 373 262 list trim;
#X obj 373 235 list prepend \$0-snare;
#X obj 97 210 clip~ -1 1;
#N canvas 731 24 513 567 restore 0;
#X obj 42 39 list prepend set;
#X obj 42 60 list trim;
#X obj 42 12 inlet;
#X obj 43 529 outlet;
#X obj 64 88 loadbang;
#X msg 42 128 0 0 0 0 1 0 0 0 1 0 0 0 0 0 0 0 0 0 0 0 0 0 0 0 1 0 0
0 1 0 1 0;
#X obj 43 304 int;
#X text 268 333 Saved Slots;
#X text 150 112 New patterns should be copied into saved slots;
#X obj 43 283 u_wrandom;
#X obj 43 264 bang;
#X obj 43 244 sel 0;
#X msg 43 354 0 0 0 0 0 0 0 0 1 0 0 0 0 0 0 0 0 0 0 0 0 0 0 0 1 0 0
0 0 0 0 0;
#X msg 58 395 0 0 0 0 0 0 0 0 1 0 0 0 0 0 1 0 0 0 0 0 0 0 0 0 1 0 0
0 0 0 0 0;
#X msg 74 428 0 0 0 0 1 0 0 0 1 0 0 0 0 0 0 0 0 0 0 0 0 0 0 0 1 0 0
0 1 0 1 0;
#X obj 43 325 sel 0 1 2;
#X msg 103 264 1 1 1;
#X text 43 -14 Snare patterns;
#X obj 43 223 mod 128;
#X obj 43 172 r \$0-tick;
#X obj 250 192 * 10;
#X obj 250 213 int;
#X obj 250 235 sel 1 2 3 4 5 6 7 8 9 10;
#X obj 103 244 loadbang;
#X obj 43 198 spigot 0;
#X obj 178 167 r \$0-Pattern;
#X obj 178 192 sel 0;
#X msg 178 213 1;
#X msg 210 213 0;
#X connect 0 0 1 0;
#X connect 1 0 5 0;
#X connect 2 0 0 0;
#X connect 4 0 5 0;
#X connect 6 0 15 0;
#X connect 9 0 6 0;
#X connect 10 0 9 0;
#X connect 11 0 10 0;
#X connect 12 0 3 0;
#X connect 13 0 3 0;
#X connect 14 0 3 0;
#X connect 15 0 12 0;
#X connect 15 1 13 0;
#X connect 15 2 14 0;
#X connect 16 0 9 1;
#X connect 18 0 11 0;
#X connect 19 0 24 0;
#X connect 20 0 21 0;
#X connect 21 0 22 0;
#X connect 22 0 12 0;
#X connect 22 1 12 0;
#X connect 22 2 12 0;
#X connect 22 3 13 0;
#X connect 22 4 13 0;
#X connect 22 5 13 0;
#X connect 22 6 13 0;
#X connect 22 7 14 0;
#X connect 22 8 14 0;
#X connect 22 9 14 0;
#X connect 23 0 16 0;
#X connect 24 0 18 0;
#X connect 25 0 26 0;
#X connect 25 0 20 0;
#X connect 26 0 27 0;
#X connect 26 1 28 0;
#X connect 27 0 24 1;
#X connect 28 0 24 1;
#X restore 711 116 pd restore;
#X obj 355 74 g_pattern32 \$0-snrpattern;
#X connect 0 0 1 0;
#X connect 0 0 16 1;
#X connect 1 0 9 0;
#X connect 2 0 16 1;
#X connect 3 0 16 1;
#X connect 4 0 3 0;
#X connect 4 1 2 0;
#X connect 6 0 10 0;
#X connect 6 0 18 0;
#X connect 7 0 8 1;
#X connect 8 0 5 0;
#X connect 9 0 4 0;
#X connect 10 0 8 0;
#X connect 11 0 19 0;
#X connect 12 0 21 0;
#X connect 13 0 14 0;
#X connect 14 0 0 0;
#X connect 17 0 7 0;
#X connect 18 0 17 0;
#X connect 19 0 16 0;
#X connect 20 0 21 1;
#X connect 21 0 6 0;
#X connect 21 1 20 0;
#X restore 328 268 pd snare;
#N canvas 254 402 920 400 hhclosed 0;
#X obj 340 17 inlet;
#X msg 216 105 bang;
#X obj 51 188 clip~ -1 1;
#X msg 216 79 start;
#X msg 248 209 stop;
#X msg 216 183 normalize;
#X obj 216 157 t b b;
#X obj 51 17 inlet~;
#X obj 216 17 inlet;
#X obj 216 53 route bdonset;
#X obj 340 163 sel 1;
#X obj 340 359 outlet~;
#X obj 358 271 s_fplaytable;
#X obj 340 297 *~;
#X obj 340 189 c_ead 15 62;
#X obj 340 323 *~ 0.3;
#X obj 216 131 del 80;
#X text 79 253 Records HiHat;
#X obj 51 234 u_record \$0-hhclosed 100;
#X obj 358 246 list trim;
#X obj 358 220 list prepend \$0-hhclosed;
#N canvas 17 28 524 590 restore 0;
#X obj 42 39 list prepend set;
#X obj 42 60 list trim;
#X obj 42 12 inlet;
#X obj 43 593 outlet;
#X obj 64 88 loadbang;
#X msg 42 128 1 0 1 0 1 0 1 0 1 0 0 0 1 0 0 0 1 0 0 0 1 0 0 0 1 0 0
0 1 0 0 0;
#X obj 43 334 int;
#X text 268 363 Saved Slots;
#X text 150 112 New patterns should be copied into saved slots;
#X obj 43 313 u_wrandom;
#X obj 43 294 bang;
#X floatatom 3 334 5 0 0 0 - - -;
#X obj 43 274 sel 0;
#X msg 43 384 1 0 0 0 1 0 0 0 1 0 0 0 1 0 0 0 1 0 0 0 1 0 0 0 1 0 0
0 1 0 0 0;
#X text 43 -14 Hi-hat Patterns;
#X msg 58 425 1 0 1 0 1 0 1 0 1 0 1 0 1 0 1 0 1 0 1 0 1 0 1 0 1 0 1
0 1 0 1 0;
#X msg 75 462 1 0 0 0 1 0 1 0 1 0 0 0 1 0 0 0 0 0 1 0 1 0 1 0 1 0 1
0 1 0 1 0;
#X msg 84 501 1 0 0 0 1 0 1 0 1 0 0 0 1 0 1 0 1 0 0 0 1 0 1 0 1 0 0
0 1 0 1 0;
#X msg 94 540 1 0 1 0 1 0 1 0 1 0 0 0 1 0 0 0 1 0 0 0 1 0 0 0 1 0 0
0 1 0 0 0;
#X obj 43 355 sel 0 1 2 3 4;
#X msg 103 285 2 1 2 2 2;
#X obj 43 162 r \$0-tick;
#X obj 103 263 loadbang;
#X obj 43 253 mod 256;
#X obj 43 228 + 128;
#X obj 43 198 spigot 0;
#X obj 178 167 r \$0-Pattern;
#X obj 178 192 sel 0;
#X msg 178 213 1;
#X msg 210 213 0;
#X obj 250 192 * 10;
#X obj 250 213 int;
#X obj 250 235 sel 1 2 3 4 5 6 7 8 9 10;
#X connect 0 0 1 0;
#X connect 1 0 5 0;
#X connect 2 0 0 0;
#X connect 4 0 5 0;
#X connect 6 0 19 0;
#X connect 9 0 6 0;
#X connect 9 0 11 0;
#X connect 10 0 9 0;
#X connect 12 0 10 0;
#X connect 13 0 3 0;
#X connect 15 0 3 0;
#X connect 16 0 3 0;
#X connect 17 0 3 0;
#X connect 18 0 3 0;
#X connect 19 0 13 0;
#X connect 19 1 15 0;
#X connect 19 2 16 0;
#X connect 19 3 17 0;
#X connect 19 4 18 0;
#X connect 20 0 9 1;
#X connect 21 0 25 0;
#X connect 22 0 20 0;
#X connect 23 0 12 0;
#X connect 24 0 23 0;
#X connect 25 0 24 0;
#X connect 26 0 27 0;
#X connect 26 0 30 0;
#X connect 27 0 28 0;
#X connect 27 1 29 0;
#X connect 28 0 25 1;
#X connect 29 0 25 1;
#X connect 30 0 31 0;
#X connect 31 0 32 0;
#X connect 32 0 13 0;
#X connect 32 1 13 0;
#X connect 32 2 15 0;
#X connect 32 3 16 0;
#X connect 32 4 16 0;
#X connect 32 5 16 0;
#X connect 32 6 17 0;
#X connect 32 7 18 0;
#X connect 32 8 18 0;
#X connect 32 9 16 0;
#X restore 698 99 pd restore;
#X obj 340 53 g_pattern32 \$0-hhpattern;
#X connect 0 0 22 0;
#X connect 1 0 16 0;
#X connect 2 0 18 0;
#X connect 3 0 1 0;
#X connect 3 0 18 1;
#X connect 4 0 18 1;
#X connect 5 0 18 1;
#X connect 6 0 5 0;
#X connect 6 1 4 0;
#X connect 7 0 2 0;
#X connect 8 0 9 0;
#X connect 9 0 3 0;
#X connect 10 0 14 0;
#X connect 10 0 20 0;
#X connect 12 0 13 1;
#X connect 13 0 15 0;
#X connect 14 0 13 0;
#X connect 15 0 11 0;
#X connect 16 0 6 0;
#X connect 19 0 12 0;
#X connect 20 0 19 0;
#X connect 21 0 22 1;
#X connect 22 0 10 0;
#X connect 22 1 21 0;
#X restore 161 268 pd hhclosed;
#X obj 7 318 *~ 0.9;
#X obj 7 497 outlet~ LEFT;
#X obj 328 497 outlet~ RIGHT;
#X obj 161 348 *~ 0.6;
#X obj 339 348 *~ 0.8;
#X obj 161 318 *~ 0.6;
#X obj 328 318 *~ 0.8;
#X obj 7 477 *~ 0.9;
#X obj 328 477 *~ 0.9;
#X obj 381 248 r \$0-tick;
#X obj 81 248 r \$0-tick;
#X obj 235 248 r \$0-tick;
#X obj 367 427 r \$0-Volume;
#X obj 367 447 * 2;
#X obj 46 427 r \$0-Volume;
#X obj 46 447 * 2;
#X obj 46 298 r \$0-Kick_Level;
#X obj 198 153 inlet~;
#X obj 7 105 inlet~;
#X connect 0 0 13 1;
#X connect 1 0 12 1;
#X connect 2 0 4 0;
#X connect 2 1 6 0;
#X connect 2 2 5 0;
#X connect 3 0 4 1;
#X connect 3 0 5 1;
#X connect 3 0 6 1;
#X connect 4 0 7 0;
#X connect 5 0 13 0;
#X connect 6 0 12 0;
#X connect 7 0 14 0;
#X connect 7 0 15 0;
#X connect 10 0 15 0;
#X connect 11 0 14 0;
#X connect 12 0 10 0;
#X connect 12 0 14 0;
#X connect 13 0 11 0;
#X connect 13 0 15 0;
#X connect 14 0 8 0;
#X connect 15 0 9 0;
#X connect 16 0 5 2;
#X connect 17 0 4 2;
#X connect 18 0 6 2;
#X connect 19 0 20 0;
#X connect 20 0 15 1;
#X connect 21 0 22 0;
#X connect 22 0 14 1;
#X connect 23 0 7 1;
#X connect 24 0 3 0;
#X connect 25 0 2 0;
#X restore -329 224 pd \$0-DSP;
#N canvas 210 59 231 172 \$0-INPUT 0;
#X obj 14 86 e_agc;
#X obj 14 106 lop~ 2000;
#X obj 14 36 *~ 0.6;
#X obj 14 56 hip~ 50;
#X obj 14 126 outlet~ FILTERING;
#X obj 124 106 outlet~ ONSET;
#X obj 14 16 inlet~ MIC;
#X connect 0 0 1 0;
#X connect 1 0 4 0;
#X connect 2 0 3 0;
#X connect 3 0 0 0;
#X connect 3 0 5 0;
#X connect 6 0 2 0;
#X restore -329 108 pd \$0-INPUT;
#X obj -204 54 inlet;
#X obj -204 280 outlet;
#N canvas 586 153 502 243 MODULE_INFO 0;
#X text 57 35 authors: Reality Jockey \, Roman Haefeli;
#X text 57 13 name: World Quantizer;
#X text 58 160 decorator: s1m1-s2m1;
#X text 58 182 tags:;
#X text 58 55 description: From the scene made by Roman Haefeli. World
Quantizer takes sounds from your world and plays them back to you rhythmically.
The Sensitivity threshold controls the modules response to onsets.
Lower settings detect hits more easily than higher ones. Debounce sets
the minimum period between each onset. Pattern cycles through some
preset patterns. Setting this parameter to zero cylces through random
patterns automatically.;
#X restore -329 13 pd MODULE_INFO;
#N canvas 230 66 602 502 \$0-PARAMETERS 0;
#X obj -25 127 s \$0-tick;
#X obj -25 -11 inlet;
#X obj -25 77 route tick;
#X obj 106 132 cnv 15 187 170 empty empty RJC_Parameters 10 12 1 14
-162280 -262144 0;
#X obj 106 106 cnv 15 187 20 empty empty World_Quantizer 35 11 1 14
-261234 -33289 0;
#X obj 110 158 rjc_parameter_floatrange \$0 Kick_Level 0.9;
#X obj 110 192 rjc_parameter_floatrange \$0 Snare_Level 0.8;
#X obj 110 226 rjc_parameter_floatrange \$0 HiHat_Level 0.7;
#X obj 110 386 outlet;
#X obj 110 260 rjc_parameter_floatrange \$0 Pattern 0.1;
#X connect 1 0 2 0;
#X connect 2 0 0 0;
#X connect 2 1 5 0;
#X connect 5 0 6 0;
#X connect 6 0 7 0;
#X connect 7 0 9 0;
#X connect 9 0 8 0;
#X coords 0 -1 1 1 199 210 2 100 100;
#X restore -204 70 pd \$0-PARAMETERS;
#X connect 0 0 4 0;
#X connect 3 0 1 0;
#X connect 3 1 2 0;
#X connect 4 0 3 0;
#X connect 4 1 3 1;
#X connect 5 0 8 0;
#X connect 8 0 6 0;
