#N canvas 1 22 314 298 10;
#X obj 210 248 outlet;
#X obj 17 66 inlet~ MIC;
#X obj 210 66 inlet;
#N canvas 188 423 539 249 MODULE_INFO 0;
#X text 64 79 authors: Reality Jockey;
#X text 66 57 name: RJ303;
#X text 65 149 decorator: s1m1-s2m1;
#X text 65 171 tags:;
#X text 65 99 description: Roland tb303 emulation. The pattern parameter
selects between five different preset patterns. The Acid! parameter
increase the squelch by changing the filter/distortion control.;
#X restore 28 20 pd MODULE_INFO;
#N canvas 562 203 344 313 \$0-MODULE 0;
#X obj -18 62 inlet~;
#X obj -18 274 outlet~;
#X obj 42 274 outlet~;
#X obj 100 275 outlet;
#X obj 100 60 inlet;
#N canvas 422 429 572 451 \$0-PARAMETERS 0;
#X obj 110 275 outlet;
#X obj -48 408 s \$0-tick;
#X obj -48 45 inlet;
#X obj -48 77 route tick bpm rootnote;
#X obj 106 132 cnv 15 187 127 empty empty RJC_Parameters 10 12 1 14
-162280 -262144 0;
#X obj 106 106 cnv 15 187 20 empty empty RJ303 73 11 1 14 -261234 -33289
0;
#X obj 4 362 / 4;
#X obj 4 384 s \$0-bpm;
#X obj 57 295 s \$0-rootnote;
#X obj 110 201 rjc_parameter_floatrange \$0 Acid! 0.3;
#X obj 110 163 rjc_parameter_floatrange \$0 Pattern 0.2;
#X obj 4 310 60000;
#X obj 4 336 /;
#X obj 4 284 t b f;
#X connect 2 0 3 0;
#X connect 3 0 1 0;
#X connect 3 1 13 0;
#X connect 3 2 8 0;
#X connect 3 3 10 0;
#X connect 6 0 7 0;
#X connect 9 0 0 0;
#X connect 10 0 9 0;
#X connect 11 0 12 0;
#X connect 12 0 6 0;
#X connect 13 0 11 0;
#X connect 13 1 12 1;
#X coords 0 -1 1 1 200 165 2 100 100;
#X restore 100 100 pd \$0-PARAMETERS;
#N canvas 173 271 352 344 \$0-DSP 0;
#N canvas 0 30 1023 873 tb303 0;
#X obj 50 557 sig~;
#X msg 29 511 1;
#X obj 36 933 loadbang;
#X obj 430 592 wrap~;
#X obj 430 612 cos~;
#X obj 413 638 *~;
#X obj 413 683 +~;
#X obj 430 572 *~;
#X obj 417 190 phasor~ 100;
#X obj 413 661 -~ 2;
#X obj 330 225 -~;
#X obj 331 197 sig~ 1;
#X obj 341 581 *~;
#X obj 415 706 +~ 1.5;
#X obj 341 552 *~;
#X obj 340 603 min~ 1;
#X obj 185 427 line~;
#X obj 64 490 del;
#X obj 80 468 *;
#X msg 91 523 0;
#X obj 171 399 pack f f;
#X obj 171 376 mtof;
#X obj 255 373 *;
#X obj 223 347 *;
#X obj 159 259 t f f;
#X obj 437 963 *~;
#X obj 454 943 lop~ 100;
#X obj 34 421 t b b f;
#X obj 447 453 *~;
#X obj 665 372 vline~;
#X obj 665 402 *~;
#X obj 91 279 t f b;
#X msg 665 348 1 0 0 \, 0 600 2;
#X text 823 995 TB303 Acid. Andy Farnell 2008;
#N canvas 0 22 914 567 tanh-special 0;
#X obj 241 65 inlet~;
#X text 493 89 __;
#X text 575 89 __;
#X text 527 89 __;
#X text 626 89 __;
#X text 493 106 1 +;
#X text 529 106 3 +;
#X text 577 106 5 +;
#X text 627 106 7 +;
#X text 443 32 As a continued fraction;
#X obj 240 148 *~;
#X obj 165 265 /~;
#X obj 165 350 /~;
#X obj 165 288 /~;
#X obj 165 321 /~;
#X text 427 78 tanh(z) = z z^2 4z^2 9z^2 ...;
#X obj 322 175 *~ 4;
#X obj 321 206 +~ 3;
#X obj 385 174 *~ 9;
#X obj 455 175 *~ 16;
#X obj 454 205 +~ 7;
#X obj 165 401 outlet~;
#X obj 165 372 *~ 576;
#X obj 241 89 *~ 0.308319;
#X text 276 114 1/pi;
#X text 217 335 coefficients tweakd for super juicy 303 sound \, Andy
Farnell 2009;
#X obj 240 206 +~ 1.14;
#X obj 384 205 +~ 5.222;
#X text 683 107 ajf;
#X connect 0 0 23 0;
#X connect 10 0 16 0;
#X connect 10 0 18 0;
#X connect 10 0 19 0;
#X connect 10 0 26 0;
#X connect 11 0 13 0;
#X connect 12 0 22 0;
#X connect 13 0 14 0;
#X connect 14 0 12 0;
#X connect 16 0 17 0;
#X connect 17 0 13 1;
#X connect 18 0 27 0;
#X connect 19 0 20 0;
#X connect 20 0 12 1;
#X connect 22 0 21 0;
#X connect 23 0 10 1;
#X connect 23 0 10 0;
#X connect 23 0 11 0;
#X connect 26 0 11 1;
#X connect 27 0 14 1;
#X restore 422 801 pd tanh-special;
#X text 501 154 Modified for hard old-skool acid sound (project Little
Boots RjDj 20009 ajf);
#X obj 666 426 +~ 0.5;
#X obj 361 446 sig~;
#X obj 445 406 sig~;
#X obj 513 352 swap 1;
#X obj 514 374 -;
#X obj 420 781 *~;
#X obj 503 586 * 1.2;
#X obj 440 352 * 16;
#X obj 440 373 + 10;
#X obj 372 385 + 0.4;
#X obj 371 362 * 1;
#X obj 364 496 *~;
#X obj 449 502 *~;
#X obj 559 467 sig~;
#X obj 610 518 * 1.3;
#X obj 585 574 + 0.4;
#X obj 502 608 + 0.4;
#X obj 585 553 * 1;
#X text 232 426 slide;
#X obj 505 403 *~ 2048;
#X obj 420 730 hip~ 200;
#X obj 419 754 hip~ 200;
#X obj 430 899 vcf~;
#X obj 486 843 loadbang;
#X msg 487 867 1.5;
#X obj 526 705 sig~;
#X obj 525 732 lop~ 2;
#X obj 570 350 * 3000;
#X obj 526 677 + 150;
#X obj 438 993 outlet~;
#X obj 711 204 inlet acidfilter;
#X msg 36 962 sinesum 2051 1 0.5 0.33 0.25 0.2 0.16 0.14 0.12 0.11
;
#X obj 36 988 s \$0-saw1;
#X obj 503 426 tabread4~ \$0-saw1;
#X obj 113 988 table \$0-saw1;
#X obj 247 85 inlet notelength;
#X obj 98 27 inlet noteparams;
#X obj 98 56 list split 1;
#X obj 84 113 > 0;
#X obj 104 168 list;
#X obj 58 88 t f f;
#X obj 80 140 sel 1;
#X obj 46 249 moses 0;
#X obj 140 211 unpack f f f;
#X connect 0 0 26 0;
#X connect 1 0 0 0;
#X connect 2 0 67 0;
#X connect 3 0 4 0;
#X connect 4 0 5 1;
#X connect 5 0 9 0;
#X connect 6 0 13 0;
#X connect 7 0 3 0;
#X connect 8 0 7 0;
#X connect 8 0 10 1;
#X connect 8 0 55 0;
#X connect 9 0 6 0;
#X connect 10 0 14 0;
#X connect 11 0 10 0;
#X connect 12 0 15 0;
#X connect 13 0 56 0;
#X connect 14 0 12 0;
#X connect 14 0 12 1;
#X connect 15 0 5 0;
#X connect 16 0 8 0;
#X connect 17 0 19 0;
#X connect 18 0 17 1;
#X connect 19 0 0 0;
#X connect 20 0 16 0;
#X connect 21 0 20 0;
#X connect 22 0 20 1;
#X connect 23 0 22 0;
#X connect 24 0 27 0;
#X connect 24 1 23 0;
#X connect 25 0 65 0;
#X connect 26 0 25 1;
#X connect 27 0 1 0;
#X connect 27 1 17 0;
#X connect 27 2 18 0;
#X connect 28 0 48 0;
#X connect 29 0 30 0;
#X connect 29 0 30 1;
#X connect 30 0 36 0;
#X connect 31 0 21 0;
#X connect 31 1 32 0;
#X connect 32 0 29 0;
#X connect 34 0 58 0;
#X connect 36 0 28 1;
#X connect 37 0 47 0;
#X connect 38 0 28 0;
#X connect 39 0 40 0;
#X connect 39 1 40 1;
#X connect 40 0 42 0;
#X connect 41 0 34 0;
#X connect 42 0 52 0;
#X connect 43 0 44 0;
#X connect 44 0 38 0;
#X connect 45 0 37 0;
#X connect 46 0 45 0;
#X connect 47 0 14 1;
#X connect 48 0 7 1;
#X connect 49 0 48 1;
#X connect 49 0 47 1;
#X connect 50 0 49 0;
#X connect 50 0 53 0;
#X connect 51 0 52 1;
#X connect 52 0 41 1;
#X connect 53 0 51 0;
#X connect 55 0 69 0;
#X connect 56 0 57 0;
#X connect 57 0 41 0;
#X connect 58 0 25 0;
#X connect 59 0 60 0;
#X connect 60 0 58 2;
#X connect 61 0 62 0;
#X connect 62 0 58 1;
#X connect 63 0 64 0;
#X connect 64 0 61 0;
#X connect 66 0 50 0;
#X connect 67 0 68 0;
#X connect 69 0 6 1;
#X connect 71 0 18 1;
#X connect 71 0 23 1;
#X connect 72 0 73 0;
#X connect 73 0 76 0;
#X connect 73 1 75 1;
#X connect 74 0 77 0;
#X connect 75 0 79 0;
#X connect 76 0 78 0;
#X connect 76 1 74 0;
#X connect 77 0 75 0;
#X connect 78 1 31 0;
#X connect 79 0 24 0;
#X connect 79 1 22 1;
#X connect 79 2 46 0;
#X connect 79 2 43 0;
#X connect 79 2 39 0;
#X connect 79 2 63 0;
#X restore 13 97 pd tb303;
#X obj 142 248 delwrite~ \$0-303del 1000;
#X obj 84 158 delread~ \$0-303del 1000;
#X obj 84 134 r \$0-bpm;
#X obj 142 200 *~ 0.5;
#X obj 84 200 *~ 0.03;
#X obj 66 69 r \$0-Acid!;
#X obj 39 47 r \$0-bpm;
#X obj 13 19 inlet;
#X obj 84 276 outlet~;
#X obj 13 300 outlet~;
#X connect 0 0 1 0;
#X connect 0 0 9 0;
#X connect 0 0 10 0;
#X connect 2 0 4 0;
#X connect 2 0 5 0;
#X connect 3 0 2 0;
#X connect 4 0 1 0;
#X connect 5 0 9 0;
#X connect 5 0 10 0;
#X connect 6 0 0 2;
#X connect 7 0 0 1;
#X connect 8 0 0 0;
#X restore -18 203 pd \$0-DSP;
#N canvas 373 281 351 522 \$0-INPUT 0;
#X obj 13 37 inlet~;
#N canvas 143 28 656 787 tb303 0;
#X obj 197 177 until;
#X obj 197 201 f;
#X obj 239 199 + 1;
#X obj 197 132 t b 1;
#X msg 240 177 1;
#X msg 197 156 32;
#X obj 113 45 inlet;
#X obj 113 66 t f b;
#X obj 83 734 outlet;
#X obj 113 105 sel 0 1 2 3 4;
#X msg 113 632 1 0 0.25 0 1 \, 2 1 0.25 0 0 \, 3 1 0.75 0 0 \, 4 0
0.25 0 1 \, 5 0 0.25 0 0 \, 6 1 0.75 0 0 \, 7 0 0.25 0 1 \, 8 1 0.25
0 0 \, 9 1 0.75 0 0 \, 10 0 0.25 0 1 \, 11 1 0.25 0 0 \, 12 1 0.75
0 0 \, 15 1 0.25 0 0 \, 17 0 0.25 0 1 \, 18 1 0.25 0 0 \, 19 1 0.75
0 0 \, 20 0 0.25 0 1 \, 21 1 0.25 0 0 \, 22 1 0.75 0 0 \, 23 0 0.25
0 1 \, 24 1 0.25 0 0 \, 25 1 0.75 0 0 \, 26 0 0.25 0 1 \, 27 1 0.25
0 0 \, 28 1 0.75 0 0 \, 31 1 4 0 0;
#X msg 196 222 \$1 -128;
#X msg 130 510 1 1 0.2 5 0.3 \, 2 12 0.75 0.5 0.6 \, 3 1 0.2 5 0.3
\, 4 12 0.75 0.5 0.6 \, 5 -24 2 0 0 \, 6 -24 0 0 0 \, 7 -24 0.1 0 0
\, 8 -12 0.1 0 0 \, 9 -12 0.2 0 0 \, 10 -12 0.33 0 0 \, 10 -12 0.5
1 0.2 \, 11 0.5 1 0.2 \, 12 0 0 0.2 \, 13 12 0 0.3 \, 14 12 0 0.3 \,
15 -12 0.88 0.3 \, 17 1 0.2 5 0.3 \, 18 12 0.75 0.5 0.6 \, 19 1 0.2
5 0.3 \, 20 12 0.75 0.5 0.6 \, 21 -24 2 0 0 \, 22 -24 0 0 0 \, 23 -24
0.1 0 0 \, 24 -12 0.1 0 0 \, 25 -12 0.2 0 0 \, 26 -12 0.33 0 0 \, 27
-12 0.5 1 0.2 \, 28 0.5 1 0.2 \, 29 0 0 0.2 \, 30 12 0 0.3 \, 31 12
0 0.3 \, 32 -12 0.88 0.3 \,;
#X msg 148 458 1 0 0.5 0 0.2 \, 7 1 0.5 0 0.2 \, 8 0 0.5 0 0.2 \, 15
1 0.5 0 0.2 \, 23 2 0.5 0 0.2 \, 24 4 0.5 0 0.2 \, 25 -1 0.5 0 0.2
\, 26 -2 0.5 0 0.2 \, 27 0 0.5 -5 0.2 \, 30 11 0.5 1 1.2 \,;
#X msg 165 339 1 12 0.2 1 0.2 \, 2 0 0.2 1 0.2 \, 3 -12 0.99 1 0.2
\, 4 12 0.2 1 0.2 \, 5 0 0.2 1 0.2 \, 6 -12 0.99 1 0.2 \, 8 -12 0.2
1 0.2 \, 9 0 0.2 1 0.2 \, 10 12 0.99 1 0.2 \, 11 -12 0.2 1 0.2 \, 12
0 0.2 1 0.2 \, 13 12 0.99 1 0.2 \, 14 -24 0.99 1 0 \, 17 12 0.2 1 0.2
\, 18 0 0 1 0.2 \, 19 -12 0.99 1 0.2 \, 20 12 0 1 0.2 \, 21 0 0.2 1
0.2 \, 22 -12 0.99 1 0.2 \, 23 -12 0.2 1 0.2 \, 24 0 0.2 1 0.2 \, 25
12 0.99 1 0.2 \, 26 -12 0.2 1 0.2 \, 27 0 0.2 1 0.2 \, 28 12 0.99 1
0.2 \, 29 -24 2 1 0 \,;
#X msg 183 248 1 0 0.2 0 0.25 \, 2 -1 0.2 0 0.25 \, 3 -2 0.2 0 0.25
\, 4 -3 0.2 0 0.25 \, 7 -4 0.2 0 0.25 \, 8 -5 0.2 0 0.25 \, 9 -6 0.2
0 0.25 \, 12 -7 0.2 0 0.25 \, 13 -8 0.2 0 0.25 \, 14 4 0.2 0 0.25 \,
15 3 0.3 0 0.25 \, 17 2 0.2 0 0.25 \, 18 1 0.2 0 0.25 \, 20 1 0.2 0
0.25 \, 23 -12 2 0 0 \, 26 -13 0.3 0 0.1 \, 28 -14 0.3 0 0.1 \, 30
-14 0.3 0 0.1 \, 31 -15 0.5 0 0.1;
#X connect 0 0 1 0;
#X connect 1 0 2 0;
#X connect 1 0 11 0;
#X connect 2 0 1 1;
#X connect 3 0 5 0;
#X connect 3 1 4 0;
#X connect 4 0 1 1;
#X connect 5 0 0 0;
#X connect 6 0 7 0;
#X connect 7 0 9 0;
#X connect 7 1 3 0;
#X connect 9 0 10 0;
#X connect 9 1 12 0;
#X connect 9 2 13 0;
#X connect 9 3 14 0;
#X connect 9 4 15 0;
#X connect 10 0 8 0;
#X connect 11 0 8 0;
#X connect 12 0 8 0;
#X connect 13 0 8 0;
#X connect 14 0 8 0;
#X connect 15 0 8 0;
#X restore 77 106 pd tb303 pattern;
#X obj 77 36 r \$0-Pattern;
#X obj 77 57 m_scale 0 1 0 4.9;
#X obj 77 81 int;
#X obj 77 465 outlet;
#N canvas 0 22 1200 876 lseq32-special 0;
#X obj -63 90 route 1 2 3 4 5 6 7 8 9 10 11 12 13 14 15 16;
#X obj 33 730 list;
#X obj 50 710 list;
#X obj 68 690 list;
#X obj 85 670 list;
#X obj 103 650 list;
#X obj 121 629 list;
#X obj 138 609 list;
#X obj 156 588 list;
#X obj 174 567 list;
#X obj 191 546 list;
#X obj 209 526 list;
#X obj 226 506 list;
#X obj 244 486 list;
#X obj 262 465 list;
#X obj 279 445 list;
#X obj 297 424 list;
#X obj 759 768 list trim;
#X obj 338 88 mod 32;
#X obj 338 117 sel 0 1 2 3 4 5 6 7 8 9 10 11 12 13 14 15 16 17 18 19
20 21 22 23 24 25 26 27 28 29 30 31;
#X obj 494 509 list;
#X obj 511 489 list;
#X obj 529 469 list;
#X obj 552 445 list;
#X obj 564 429 list;
#X obj 582 408 list;
#X obj 599 388 list;
#X obj 617 367 list;
#X obj 635 346 list;
#X obj 652 325 list;
#X obj 670 305 list;
#X obj 687 285 list;
#X obj 705 265 list;
#X obj 723 244 list;
#X obj 740 224 list;
#X obj 758 203 list;
#X obj 362 42 route 17 18 19 20 21 22 23 24 25 26 27 28 29 30 31 32
;
#X obj 327 12 inlet acid-tick;
#X obj -45 49 inlet;
#X obj 749 817 outlet;
#X connect 0 0 1 1;
#X connect 0 1 2 1;
#X connect 0 2 3 1;
#X connect 0 3 4 1;
#X connect 0 4 5 1;
#X connect 0 5 6 1;
#X connect 0 6 7 1;
#X connect 0 7 8 1;
#X connect 0 8 9 1;
#X connect 0 9 10 1;
#X connect 0 10 11 1;
#X connect 0 11 12 1;
#X connect 0 12 13 1;
#X connect 0 13 14 1;
#X connect 0 14 15 1;
#X connect 0 15 16 1;
#X connect 0 16 36 0;
#X connect 1 0 17 0;
#X connect 2 0 17 0;
#X connect 3 0 17 0;
#X connect 4 0 17 0;
#X connect 5 0 17 0;
#X connect 6 0 17 0;
#X connect 7 0 17 0;
#X connect 8 0 17 0;
#X connect 9 0 17 0;
#X connect 10 0 17 0;
#X connect 11 0 17 0;
#X connect 12 0 17 0;
#X connect 13 0 17 0;
#X connect 14 0 17 0;
#X connect 15 0 17 0;
#X connect 16 0 17 0;
#X connect 17 0 39 0;
#X connect 18 0 19 0;
#X connect 19 0 1 0;
#X connect 19 1 2 0;
#X connect 19 2 3 0;
#X connect 19 3 4 0;
#X connect 19 4 5 0;
#X connect 19 5 6 0;
#X connect 19 6 7 0;
#X connect 19 7 8 0;
#X connect 19 8 9 0;
#X connect 19 9 10 0;
#X connect 19 10 11 0;
#X connect 19 11 12 0;
#X connect 19 12 13 0;
#X connect 19 13 14 0;
#X connect 19 14 15 0;
#X connect 19 15 16 0;
#X connect 19 16 20 0;
#X connect 19 17 21 0;
#X connect 19 18 22 0;
#X connect 19 19 23 0;
#X connect 19 20 24 0;
#X connect 19 21 25 0;
#X connect 19 22 26 0;
#X connect 19 23 27 0;
#X connect 19 24 28 0;
#X connect 19 25 29 0;
#X connect 19 26 30 0;
#X connect 19 27 31 0;
#X connect 19 28 32 0;
#X connect 19 29 33 0;
#X connect 19 30 34 0;
#X connect 19 31 35 0;
#X connect 20 0 17 0;
#X connect 21 0 17 0;
#X connect 22 0 17 0;
#X connect 23 0 17 0;
#X connect 24 0 17 0;
#X connect 25 0 17 0;
#X connect 26 0 17 0;
#X connect 27 0 17 0;
#X connect 28 0 17 0;
#X connect 29 0 17 0;
#X connect 30 0 17 0;
#X connect 31 0 17 0;
#X connect 32 0 17 0;
#X connect 33 0 17 0;
#X connect 34 0 17 0;
#X connect 35 0 17 0;
#X connect 36 0 20 1;
#X connect 36 1 21 1;
#X connect 36 2 22 1;
#X connect 36 3 23 1;
#X connect 36 4 24 1;
#X connect 36 5 25 1;
#X connect 36 6 26 1;
#X connect 36 7 27 1;
#X connect 36 8 28 1;
#X connect 36 9 29 1;
#X connect 36 10 30 1;
#X connect 36 11 31 1;
#X connect 36 12 32 1;
#X connect 36 13 33 1;
#X connect 36 14 34 1;
#X connect 36 15 35 1;
#X connect 37 0 18 0;
#X connect 38 0 0 0;
#X restore 77 237 pd lseq32-special;
#X obj 193 173 / 2;
#X obj 193 194 int;
#X obj 193 215 change;
#X obj 193 151 r \$0-tick;
#X obj 77 311 unpack f f f f f;
#X obj 77 435 pack f f f f f;
#X obj 77 392 + 60;
#X obj 198 346 r \$0-rootnote;
#X connect 1 0 6 0;
#X connect 2 0 3 0;
#X connect 3 0 4 0;
#X connect 4 0 1 0;
#X connect 6 0 11 0;
#X connect 7 0 8 0;
#X connect 8 0 9 0;
#X connect 9 0 6 1;
#X connect 10 0 7 0;
#X connect 11 0 13 0;
#X connect 11 1 12 1;
#X connect 11 2 12 2;
#X connect 11 3 12 3;
#X connect 11 4 12 4;
#X connect 12 0 5 0;
#X connect 13 0 12 0;
#X connect 14 0 13 1;
#X restore -18 126 pd \$0-INPUT;
#X connect 4 0 5 0;
#X connect 5 0 3 0;
#X connect 6 0 1 0;
#X connect 6 1 2 0;
#X connect 7 0 6 0;
#X coords 0 -1 1 1 200 165 2 100 100;
#X restore 17 82 pd \$0-MODULE;
#X obj 17 247 outlet~;
#X obj 113 247 outlet~;
#X connect 1 0 4 0;
#X connect 2 0 4 1;
#X connect 4 0 5 0;
#X connect 4 1 6 0;
#X connect 4 2 0 0;
