#N canvas 77 42 629 362 10;
#X obj 13 12 inlet;
#X obj 13 34 list trim;
#X obj 399 10 loadbang;
#X msg 398 108 \; to-python image create \$1 \$2 \;;
#X obj 398 85 pack f s;
#X obj 399 36 t b b;
#X obj 431 58 symbol \$1;
#X obj 398 58 \$0;
#X msg 63 163 \; to-python image move \$1 \$2 \$3;
#X obj 63 139 list prepend \$0;
#X obj 13 200 list prepend \$0;
#X msg 13 220 \; to-python image visible \$1 \$2;
#X obj 13 55 route visible move ref;
#X obj 113 77 list prepend \$0;
#X msg 113 101 \; to-python image ref \$1 \$2;
#X connect 0 0 1 0;
#X connect 1 0 12 0;
#X connect 2 0 5 0;
#X connect 4 0 3 0;
#X connect 5 0 7 0;
#X connect 5 1 6 0;
#X connect 6 0 4 1;
#X connect 7 0 4 0;
#X connect 9 0 8 0;
#X connect 10 0 11 0;
#X connect 12 0 10 0;
#X connect 12 1 9 0;
#X connect 12 2 13 0;
#X connect 13 0 14 0;
