#N canvas 175 22 1143 763 10;
#X obj 228 721 soundoutput;
#X obj -205 63 soundinput;
#X obj -131 40 hsl 128 15 0 4 0 0 empty empty 0-1 -2 -8 0 10 -257985
-1 -1 3175 1;
#X text -94 53 slide to 0 to loop soundfile;
#X text -92 65 above 0 to play live input;
#X obj -139 12 r inputvolume;
#X obj 371 78 loadbang;
#X obj 611 18 loadbang;
#N canvas 0 22 450 300 inits 0;
#X msg 112 160 bpm \$1;
#X floatatom 109 138 5 0 0 0 - - -;
#X msg 176 155 measures \$1;
#X floatatom 178 139 5 0 0 0 - - -;
#X floatatom 231 118 5 0 0 0 - - -;
#X msg 229 134 feedback \$1;
#X msg 108 116 120;
#X obj 121 45 inlet;
#X obj 127 233 outlet;
#X msg 233 97 1;
#X msg 180 118 4;
#X connect 0 0 8 0;
#X connect 1 0 0 0;
#X connect 2 0 8 0;
#X connect 3 0 2 0;
#X connect 4 0 5 0;
#X connect 5 0 8 0;
#X connect 6 0 1 0;
#X connect 7 0 6 0;
#X connect 7 0 10 0;
#X connect 7 0 9 0;
#X connect 9 0 4 0;
#X connect 10 0 3 0;
#X restore 370 236 pd inits;
#X obj 619 45 s trig_low;
#X obj 612 66 s trig_high;
#X obj 169 174 mtof;
#N canvas 0 22 450 300 inits 0;
#X msg 112 160 bpm \$1;
#X floatatom 109 138 5 0 0 0 - - -;
#X msg 176 155 measures \$1;
#X floatatom 178 139 5 0 0 0 - - -;
#X floatatom 231 118 5 0 0 0 - - -;
#X msg 229 134 feedback \$1;
#X obj 121 45 inlet;
#X obj 127 233 outlet;
#X msg 233 97 1;
#X msg 108 116 240;
#X msg 193 98 0.5;
#X msg 240 66 4;
#X msg 180 118 0.5;
#X connect 0 0 7 0;
#X connect 1 0 0 0;
#X connect 2 0 7 0;
#X connect 3 0 2 0;
#X connect 4 0 5 0;
#X connect 5 0 7 0;
#X connect 6 0 9 0;
#X connect 6 0 12 0;
#X connect 6 0 8 0;
#X connect 8 0 4 0;
#X connect 9 0 1 0;
#X connect 10 0 3 0;
#X connect 11 0 3 0;
#X connect 12 0 3 0;
#X restore 421 102 pd inits;
#X obj -166 291 nm_count_bang 4;
#X obj -161 263 route bang;
#X obj -229 528 s highs;
#X obj -175 474 route bang;
#N canvas 323 22 601 315 nm_accelerometer_processing 0;
#X obj 17 72 r accelerate;
#X obj 17 101 route magnitude;
#X obj 14 253 outlet;
#X obj 12 14 accelerate;
#X text 101 16 <- put this in your scene patch to access data;
#X obj 155 244 s \$0-special-hit;
#X msg 162 222 bang;
#X obj 137 224 bng 15 250 50 0 empty empty empty 17 7 0 10 -262144
-1 -1;
#X obj 18 143 lop~ 4;
#X obj 18 122 sig~;
#X obj 18 171 snapshot~;
#X msg 136 105 1;
#X obj 137 80 loadbang;
#X obj 135 129 metro 100;
#X obj 17 199 nm_threshold 1.6;
#X obj 77 251 bng 15 250 50 0 empty empty empty 17 7 0 10 -262144 -1
-1;
#X obj 11 222 nm_debounce 200;
#X obj 190 170 s nm_magnitude;
#X obj 152 200 nm_threshold 2.7;
#X connect 0 0 1 0;
#X connect 1 0 9 0;
#X connect 6 0 5 0;
#X connect 8 0 10 0;
#X connect 9 0 8 0;
#X connect 10 0 14 0;
#X connect 10 0 17 0;
#X connect 10 0 18 0;
#X connect 11 0 13 0;
#X connect 12 0 11 0;
#X connect 13 0 10 0;
#X connect 14 0 16 0;
#X connect 16 0 2 0;
#X connect 16 0 15 0;
#X connect 18 0 5 0;
#X connect 18 0 7 0;
#X restore 661 107 pd nm_accelerometer_processing;
#X obj 661 170 nm_tap_bpm;
#X obj 595 128 loadbang;
#X msg 595 149 120;
#X obj 661 212 nm_control_lop 0.1;
#X obj -219 291 s mids;
#X obj -164 358 s trig_mid;
#X obj 169 132 r mids;
#X obj 169 153 f;
#N canvas 0 22 450 300 rhythm-quantise 0;
#X obj 51 41 inlet;
#X obj 57 176 outlet;
#X obj 56 145 nm_debounce;
#X text 185 45 eventually make abstraction;
#X text 181 68 takes bpm and fractions of measure;
#X obj 132 97 nm_bpm2ms 4;
#X text 237 99 in this case 1/4 notes;
#X obj 131 73 r \$0-bpm;
#X connect 0 0 2 0;
#X connect 2 0 1 0;
#X connect 5 0 2 1;
#X connect 7 0 5 0;
#X restore -166 311 pd rhythm-quantise;
#N canvas 0 22 450 300 rhythm-quantise 0;
#X obj 51 41 inlet;
#X obj 57 176 outlet;
#X obj 56 145 nm_debounce;
#X text 185 45 eventually make abstraction;
#X text 181 68 takes bpm and fractions of measure;
#X text 237 99 in this case 1/16th notes;
#X obj 132 97 nm_bpm2ms 16;
#X obj 131 73 r \$0-bpm;
#X connect 0 0 2 0;
#X connect 2 0 1 0;
#X connect 6 0 2 1;
#X connect 7 0 6 0;
#X restore -175 495 pd rhythm-quantise;
#X msg 701 45 1;
#X obj 701 66 s load1;
#X msg 661 128 bang;
#X msg 435 145 measures \$1;
#X msg 402 124 1;
#X msg 435 124 0.5;
#X msg 479 125 4;
#N canvas 0 22 450 300 rhythm-quantise 0;
#X obj 51 41 inlet;
#X obj 57 176 outlet;
#X obj 56 145 nm_debounce;
#X text 185 45 eventually make abstraction;
#X text 181 68 takes bpm and fractions of measure;
#X obj 129 101 r \$0-ms-per-beat;
#X obj 130 123 / 2;
#X connect 0 0 2 0;
#X connect 2 0 1 0;
#X connect 5 0 6 0;
#X connect 6 0 2 1;
#X restore -30 311 pd rhythm-quantise;
#X obj -30 332 s lows;
#X obj 219 389 r lows;
#X obj 436 82 r trig_fast;
#X obj 479 104 r trig_slow;
#X text -203 596 poor attempt at phases;
#X obj 580 519 dd.bd;
#X obj 623 519 dd.hh;
#X obj 661 149 nm_debounce 250;
#X floatatom -127 61 5 0 0 0 - - -;
#X obj -161 221 env~ 2048;
#X msg 769 41 \; pd dsp 1 \; inputvolume 1;
#X obj 126 350 r trig_fast;
#X obj 156 370 r trig_slow;
#X obj 138 419 * 2;
#N canvas 38 482 273 350 basslines 0;
#X obj 134 285 *~;
#X obj 134 257 osc~;
#X obj 173 101 mtof;
#X obj 90 210 osc~;
#X obj 134 150 +~;
#X obj 25 257 osc~;
#X obj 25 235 *~ 2;
#X obj 25 282 *~;
#X obj 25 302 outlet~;
#X obj 134 306 outlet~;
#X obj 91 18 inlet;
#X obj 90 258 +~ 1;
#X obj 173 19 inlet;
#X connect 0 0 9 0;
#X connect 1 0 0 0;
#X connect 2 0 4 1;
#X connect 3 0 11 0;
#X connect 4 0 1 0;
#X connect 4 0 6 0;
#X connect 5 0 7 0;
#X connect 6 0 5 0;
#X connect 7 0 8 0;
#X connect 10 0 3 0;
#X connect 11 0 0 1;
#X connect 11 0 7 1;
#X connect 12 0 2 0;
#X restore 138 440 pd basslines;
#N canvas 0 22 1029 633 bpm 0;
#X obj 53 102 expr 1000/$f1;
#X obj 52 70 nm_bpm2ms 1;
#X obj 53 39 r \$0-bpm;
#X obj 41 148 s \$0-ms-per-beat;
#X obj 53 125 s \$0-beats-per-sec;
#X obj 403 39 r \$0-beats-per-sec;
#X obj 452 61 r \$0-ms-per-beat;
#X text 38 439 Nick Mariette - perform all manner of bpm related calculations
here;
#X obj 219 39 r \$0-beats-per-bar;
#X floatatom 166 70 5 0 0 0 - - -;
#X floatatom 174 91 5 0 0 0 - - -;
#X obj 219 62 * 4;
#X obj 219 85 s \$0-beats-in-4-bars;
#X msg 767 114 120;
#X obj 767 137 s \$0-bpm;
#X msg 842 114 4;
#X obj 842 137 s \$0-beats-per-bar;
#X obj 735 50 loadbang;
#X msg 735 73 bang;
#X text 728 23 initialise everything;
#X obj 735 162 s \$0-startbang;
#X obj 190 249 metro;
#X obj 190 182 r \$0-startbang;
#X obj 221 205 r \$0-ms-per-beat;
#X text 38 471 all beats are 1-n (ie start at 1 \, not 0);
#X obj 221 228 / 32;
#X obj 773 262 bng 15 250 50 0 empty empty empty 17 7 0 10 -262144
-1 -1;
#X obj 33 383 s \$0-bang-whole-beats;
#X obj 33 406 s \$0-bang-whole-bars;
#X obj 748 214 r \$0-bang-whole-bars;
#X obj 773 239 r \$0-bang-whole-beats;
#X obj 748 237 bng 15 250 50 0 empty empty empty 17 7 0 10 -262144
-1 -1;
#X obj 735 96 t b b;
#X obj 33 360 s \$0-bang-1/2-beats;
#X obj 33 337 s \$0-bang-1/4-beats;
#X obj 32 272 s \$0-bang-1/32-beats;
#X obj 841 364 r \$0-bang-1/32-beats;
#X obj 430 346 r \$0-bang-1/32-beats;
#X obj 189 338 nm_oneinx 2;
#X obj 277 360 r \$0-beats-per-bar;
#X obj 843 339 r \$0-bang-1/16-beats;
#X text 36 496 don't know whether it's cheaper on cpu to have multiple
metros or multiple beat dividers....;
#X obj 429 369 nm_counter 32;
#X text 29 210 create bangs at;
#X text 28 230 different rates;
#X obj 429 422 r \$0-bang-1/4-beats;
#X obj 428 445 nm_counter 4;
#X obj 432 127 r \$0-bang-whole-bars;
#X obj 431 150 nm_counter 4;
#X obj 431 173 s \$0-num-bar-4bars;
#X obj 429 392 s \$0-num-1/32-beats-1bar;
#X obj 428 468 s \$0-num-1/4-beats-1bar;
#X obj 431 218 nm_counter 4;
#X obj 432 195 r \$0-bang-whole-beats;
#X obj 821 287 r \$0-bang-1/4-beats;
#X obj 797 262 r \$0-bang-1/2-beats;
#X obj 458 550 nm_counter;
#X obj 524 528 r \$0-beats-in-4-bars;
#X obj 458 507 r \$0-bang-whole-beats;
#X obj 32 294 s \$0-bang-1/16-beats;
#X obj 33 314 s \$0-bang-1/8-beats;
#X obj 845 311 r \$0-bang-1/8-beats;
#X obj 646 32 inlet;
#X obj 771 404 r \$0-num-bar-4bars;
#X obj 431 241 s \$0-num-beat-1bar;
#X obj 772 428 r \$0-num-beat-1bar;
#X obj 772 450 r \$0-num-beat-4bars;
#X obj 459 572 s \$0-num-beat-4bars;
#X floatatom 728 405 5 0 0 0 - - -;
#X floatatom 728 427 5 0 0 0 - - -;
#X floatatom 727 452 5 0 0 0 - - -;
#X obj 770 474 r \$0-num-1/4-beats-1bar;
#X obj 770 498 r \$0-num-1/32-beats-1bar;
#X floatatom 578 171 5 0 0 0 - - -;
#X obj 189 361 nm_oneinx 2;
#X obj 189 272 nm_oneinx 2;
#X obj 189 315 nm_oneinx 2;
#X obj 188 295 nm_oneinx 2;
#X obj 189 384 nm_oneinx;
#X obj 432 270 r \$0-bang-whole-beats;
#X obj 431 316 s \$0-num-beat-2bars;
#X obj 431 293 nm_counter 8;
#X connect 0 0 4 0;
#X connect 1 0 0 0;
#X connect 1 0 3 0;
#X connect 2 0 1 0;
#X connect 8 0 9 0;
#X connect 8 0 11 0;
#X connect 11 0 10 0;
#X connect 11 0 12 0;
#X connect 13 0 14 0;
#X connect 15 0 16 0;
#X connect 17 0 18 0;
#X connect 18 0 32 0;
#X connect 21 0 35 0;
#X connect 21 0 75 0;
#X connect 22 0 21 0;
#X connect 23 0 25 0;
#X connect 25 0 21 1;
#X connect 29 0 31 0;
#X connect 30 0 26 0;
#X connect 32 0 20 0;
#X connect 32 1 13 0;
#X connect 32 1 15 0;
#X connect 37 0 42 0;
#X connect 38 0 33 0;
#X connect 38 0 74 0;
#X connect 39 0 78 1;
#X connect 42 0 50 0;
#X connect 45 0 46 0;
#X connect 46 0 51 0;
#X connect 47 0 48 0;
#X connect 47 0 73 0;
#X connect 48 0 49 0;
#X connect 52 0 64 0;
#X connect 53 0 52 0;
#X connect 56 0 67 0;
#X connect 57 0 56 1;
#X connect 58 0 56 0;
#X connect 62 0 18 0;
#X connect 63 0 68 0;
#X connect 65 0 69 0;
#X connect 66 0 70 0;
#X connect 74 0 27 0;
#X connect 74 0 78 0;
#X connect 75 0 59 0;
#X connect 75 0 77 0;
#X connect 76 0 34 0;
#X connect 76 0 38 0;
#X connect 77 0 60 0;
#X connect 77 0 76 0;
#X connect 78 0 28 0;
#X connect 79 0 81 0;
#X connect 81 0 80 0;
#X restore 74 19 pd bpm calculations;
#X obj 681 669 nm_pan;
#X obj 678 615 random 5;
#X obj 681 637 / 4;
#X obj 228 664 hilbert~;
#X obj 661 254 s \$0-bpm;
#X obj 571 366 r \$0-bang-whole-beats;
#X obj 319 211 throw~ reverb-l;
#X obj 421 191 throw~ reverb-r;
#X obj 346 553 catch~ reverb-l;
#X obj 359 572 catch~ reverb-r;
#X obj 269 298 throw~ reverb-l;
#X obj 371 278 throw~ reverb-r;
#X obj 634 539 *~ 1;
#X obj 254 690 catch~ mono;
#X obj 139 328 r \$0-beats-per-sec;
#N canvas 0 22 450 300 humanise-beat-1/32time 0;
#X obj 88 151 delay;
#X obj 121 130 random;
#X obj 161 86 r \$0-ms-per-beat;
#X msg 89 109 bang;
#X obj 160 110 / 32;
#X obj 84 45 inlet;
#X obj 77 206 outlet;
#X connect 0 0 6 0;
#X connect 1 0 0 1;
#X connect 2 0 4 0;
#X connect 3 0 0 0;
#X connect 3 0 1 0;
#X connect 4 0 1 1;
#X connect 5 0 3 0;
#X restore 620 431 pd humanise-beat-1/32time;
#X obj 621 410 r \$0-bang-1/4-beats;
#X obj 661 233 clip 30 240;
#X obj 661 191 moses 30;
#X obj 227 18 r \$0-bang-1/2-beats;
#N canvas 0 22 450 300 damian-modes 0;
#X msg 88 143 1;
#X msg 111 173 5;
#X msg 119 145 3;
#X msg 185 171 6;
#X msg 189 147 2;
#X obj 92 114 sel 0 1 2 3 4 5 6;
#X msg 83 63 bang;
#X obj 228 168 bng 15 250 50 0 empty empty empty 17 7 0 10 -262144
-1 -1;
#X obj 228 148 print oops;
#X obj 92 86 d-random-fibo 7;
#X msg 156 144 4;
#X msg 151 172 7;
#X obj 73 203 d-modes lydian 48;
#X msg 329 151 lydian;
#X obj 314 270 symbol;
#X msg 341 199 locrian;
#X msg 334 175 dorian;
#X msg 323 127 mixolydian;
#X msg 318 103 ionian;
#X msg 354 221 phrygian;
#X msg 375 241 aeolian;
#X obj 152 26 inlet;
#X obj 118 258 outlet;
#X obj 314 25 inlet;
#X obj 318 61 sel 1 2 3 4 5 6 7;
#X connect 0 0 12 2;
#X connect 1 0 12 2;
#X connect 2 0 12 2;
#X connect 3 0 12 2;
#X connect 4 0 12 2;
#X connect 5 0 0 0;
#X connect 5 1 1 0;
#X connect 5 2 2 0;
#X connect 5 3 11 0;
#X connect 5 4 10 0;
#X connect 5 5 3 0;
#X connect 5 6 4 0;
#X connect 5 7 7 0;
#X connect 5 7 8 0;
#X connect 6 0 9 0;
#X connect 9 0 5 0;
#X connect 10 0 12 2;
#X connect 11 0 12 2;
#X connect 12 8 22 0;
#X connect 13 0 14 0;
#X connect 14 0 12 1;
#X connect 15 0 14 0;
#X connect 16 0 14 0;
#X connect 17 0 14 0;
#X connect 18 0 14 0;
#X connect 19 0 14 0;
#X connect 20 0 14 0;
#X connect 21 0 9 0;
#X connect 23 0 24 0;
#X connect 24 0 18 0;
#X connect 24 1 17 0;
#X connect 24 2 13 0;
#X connect 24 3 16 0;
#X connect 24 4 15 0;
#X connect 24 5 19 0;
#X connect 24 6 20 0;
#X restore 228 40 pd damian-modes;
#X obj 229 62 s \$0-damian-modes-1;
#X obj 204 172 r \$0-bpm;
#X obj -203 83 nmg_compress~ 50 2 9 90;
#X obj -166 444 nm_threshold 60;
#X obj -203 130 s~ \$0-in;
#X obj 98 173 r~ \$0-in;
#X obj 324 144 r~ \$0-in;
#X obj 269 235 r~ \$0-in;
#X obj -161 179 r~ \$0-in;
#X obj -154 381 r~ \$0-in;
#X obj -192 659 t b b;
#X obj -192 726 s trig_slow;
#X obj -161 683 s trig_fast;
#N canvas 0 22 450 300 damian-modes 0;
#X msg 88 143 1;
#X msg 111 173 5;
#X msg 119 145 3;
#X msg 185 171 6;
#X msg 189 147 2;
#X obj 92 114 sel 0 1 2 3 4 5 6;
#X msg 83 63 bang;
#X obj 228 168 bng 15 250 50 0 empty empty empty 17 7 0 10 -262144
-1 -1;
#X obj 228 148 print oops;
#X obj 92 86 d-random-fibo 7;
#X msg 156 144 4;
#X msg 151 172 7;
#X obj 73 203 d-modes lydian 48;
#X msg 329 151 lydian;
#X obj 314 270 symbol;
#X msg 341 199 locrian;
#X msg 334 175 dorian;
#X msg 323 127 mixolydian;
#X msg 318 103 ionian;
#X msg 354 221 phrygian;
#X msg 375 241 aeolian;
#X obj 152 26 inlet;
#X obj 118 258 outlet;
#X obj 314 25 inlet;
#X obj 318 61 sel 1 2 3 4 5 6 7;
#X connect 0 0 12 2;
#X connect 1 0 12 2;
#X connect 2 0 12 2;
#X connect 3 0 12 2;
#X connect 4 0 12 2;
#X connect 5 0 0 0;
#X connect 5 1 1 0;
#X connect 5 2 2 0;
#X connect 5 3 11 0;
#X connect 5 4 10 0;
#X connect 5 5 3 0;
#X connect 5 6 4 0;
#X connect 5 7 7 0;
#X connect 5 7 8 0;
#X connect 6 0 9 0;
#X connect 9 0 5 0;
#X connect 10 0 12 2;
#X connect 11 0 12 2;
#X connect 12 8 22 0;
#X connect 13 0 14 0;
#X connect 14 0 12 1;
#X connect 15 0 14 0;
#X connect 16 0 14 0;
#X connect 17 0 14 0;
#X connect 18 0 14 0;
#X connect 19 0 14 0;
#X connect 20 0 14 0;
#X connect 21 0 9 0;
#X connect 23 0 24 0;
#X connect 24 0 18 0;
#X connect 24 1 17 0;
#X connect 24 2 13 0;
#X connect 24 3 16 0;
#X connect 24 4 15 0;
#X connect 24 5 19 0;
#X connect 24 6 20 0;
#X restore 424 36 pd damian-modes;
#X obj 425 58 s \$0-damian-modes-2;
#X obj 423 13 r \$0-bang-whole-beats;
#X msg 645 500 toxy \$1;
#X obj 228 643 catch~ hilbert;
#X obj 681 710 throw~ reverb-l;
#X obj 720 690 throw~ reverb-r;
#N canvas 0 22 455 512 bassnotes 0;
#X obj 81 109 f;
#X obj 98 68 r \$0-damian-modes-1;
#X obj 136 87 r \$0-num-beat-4bars;
#X obj 136 158 sel 1 5 7 12;
#X obj 80 380 + 0;
#X obj 81 26 inlet;
#X obj 80 406 outlet;
#X msg 136 179 0;
#X obj 96 324 f;
#X obj 97 346 t b f;
#X floatatom 45 348 5 0 0 0 - - -;
#X obj 318 31 r \$0-num-bar-4bars;
#X floatatom 269 54 5 0 0 0 - - -;
#X obj 319 52 sel 4;
#X obj 320 73 nm_oneinx 4;
#X msg 153 204 -5;
#X msg 170 229 -7;
#X obj 270 132 spigot;
#X msg 340 111 1;
#X msg 309 111 0;
#X obj 153 135 spigot;
#X msg 223 114 1;
#X msg 192 114 0;
#X msg 266 196 -12;
#X obj 266 158 sel 1 2 3 12;
#X msg 188 251 -12;
#X msg 216 182 0;
#X obj 99 88 - 24;
#X msg 339 194 12;
#X floatatom 34 402 5 0 0 0 - - -;
#X connect 0 0 4 0;
#X connect 1 0 27 0;
#X connect 2 0 20 0;
#X connect 2 0 17 0;
#X connect 3 0 7 0;
#X connect 3 1 15 0;
#X connect 3 2 16 0;
#X connect 3 3 25 0;
#X connect 3 4 26 0;
#X connect 4 0 6 0;
#X connect 4 0 29 0;
#X connect 5 0 0 0;
#X connect 7 0 8 0;
#X connect 8 0 9 0;
#X connect 8 0 10 0;
#X connect 9 0 4 0;
#X connect 9 1 4 1;
#X connect 11 0 12 0;
#X connect 11 0 13 0;
#X connect 13 0 14 0;
#X connect 13 1 21 0;
#X connect 13 1 19 0;
#X connect 14 0 18 0;
#X connect 14 0 22 0;
#X connect 15 0 8 0;
#X connect 16 0 8 0;
#X connect 17 0 24 0;
#X connect 18 0 17 1;
#X connect 19 0 17 1;
#X connect 20 0 3 0;
#X connect 21 0 20 1;
#X connect 22 0 20 1;
#X connect 23 0 8 0;
#X connect 24 0 23 0;
#X connect 24 1 23 0;
#X connect 24 2 23 0;
#X connect 24 3 23 0;
#X connect 24 4 28 0;
#X connect 25 0 8 0;
#X connect 26 0 8 0;
#X connect 27 0 0 1;
#X connect 28 0 8 0;
#X restore 218 419 pd bassnotes;
#X obj -191 639 nm_oneinx 4;
#X obj -191 704 nm_oneinx 2;
#X obj 571 435 delay;
#X obj 584 386 r \$0-ms-per-beat;
#X obj 583 410 / 2;
#X obj -166 402 bp~ 8000 10;
#X obj -166 423 env~ 512;
#X msg 125 392 4;
#X msg 156 391 2;
#X obj 346 595 d-reverb2~ 30 85;
#X msg 629 149 60;
#N canvas 0 22 503 394 special-hit 0;
#X obj 99 317 throw~ hilbert;
#X msg 250 228 delay \$1;
#X obj 249 187 r \$0-ms-per-beat;
#X obj 249 208 / 4;
#X obj 196 25 r \$0-special-hit;
#X obj 99 47 r~ \$0-in;
#X obj 328 230 loadbang;
#X msg 306 154 1;
#X obj 307 45 r \$0-num-beat-2bars;
#X obj 306 78 sel 1 3 6;
#X obj 99 69 nm_adsr_env~ 30 250 0.4 1000;
#X obj 99 275 rj/e_fbdelay mydelay 1000;
#X msg 328 251 feedback 0.95;
#X obj 48 99 catch~ special;
#X obj 71 147 *~;
#X msg 134 123 1;
#X msg 174 122 0;
#X obj 173 100 delay;
#X obj 221 101 * 3;
#X obj 114 222 catch~ delays;
#X obj 113 243 *~ 0.3;
#X msg 326 135 2.05;
#X msg 345 111 4.07;
#X obj 99 296 *~ 1;
#X connect 1 0 11 2;
#X connect 2 0 3 0;
#X connect 2 0 18 0;
#X connect 3 0 1 0;
#X connect 4 0 10 1;
#X connect 4 0 15 0;
#X connect 4 0 17 0;
#X connect 5 0 10 0;
#X connect 6 0 12 0;
#X connect 7 0 3 1;
#X connect 8 0 9 0;
#X connect 9 0 7 0;
#X connect 9 1 21 0;
#X connect 9 2 22 0;
#X connect 9 3 7 0;
#X connect 10 0 11 0;
#X connect 11 0 23 0;
#X connect 12 0 11 2;
#X connect 13 0 14 0;
#X connect 14 0 11 0;
#X connect 15 0 14 1;
#X connect 16 0 14 1;
#X connect 17 0 16 0;
#X connect 18 0 17 1;
#X connect 19 0 20 0;
#X connect 20 0 11 0;
#X connect 21 0 3 1;
#X connect 22 0 3 1;
#X connect 23 0 0 0;
#X restore 602 316 pd special-hit;
#X obj 221 110 r \$0-damian-modes-2;
#X obj -161 242 nm_threshold 60;
#X msg 646 475 110;
#X obj 648 457 loadbang;
#X obj 347 530 catch~ reverb-mono;
#X obj 111 236 throw~ reverb-mono;
#X obj 97 259 throw~ mono;
#X msg 732 580 decay \$1;
#X obj 732 538 sel 4;
#X msg 770 560 10;
#X obj 732 517 r \$0-num-beat-4bars;
#X msg 733 560 100;
#X obj -39 262 s \$0-special-hit;
#X text 543 298 this dub effect for a high threshold jerk;
#X obj 594 672 throw~ mono;
#X obj -164 336 nm_count_bang 4;
#X obj 806 559 nm_oneinx 4;
#X msg 805 579 125;
#X obj 750 637 throw~ special;
#N canvas 777 22 601 315 nm_accelerometer_processing 0;
#X obj 17 72 r accelerate;
#X obj 17 151 outlet;
#X obj 17 101 route magnitude pitch roll;
#X obj 78 215 outlet;
#X obj 152 249 outlet;
#X obj 77 131 / 1.571;
#X obj 148 137 / 1.571;
#X text 19 29 already have accelerate subpatch elsewhere in this patch
;
#X connect 0 0 2 0;
#X connect 2 0 1 0;
#X connect 2 1 5 0;
#X connect 2 2 6 0;
#X connect 5 0 3 0;
#X connect 6 0 4 0;
#X restore 484 340 pd nm_accelerometer_processing mag pitch roll;
#X obj 795 360 clip -1 1;
#X obj 795 380 + 1.5;
#X obj 794 402 * 50;
#X msg 521 466 dist \$1;
#X obj 495 368 clip -1 1;
#X obj 495 388 + 1;
#X obj -68 528 nm_oneinx 4;
#X obj -171 528 nm_oneinx 16;
#X obj -67 550 s trig_highs2;
#X obj -171 549 s trig_highs1;
#X obj 438 213 throw~ delays;
#X obj -33 285 bng 15 250 50 0 empty empty empty 17 7 0 10 -262144
-1 -1;
#X obj -187 359 bng 15 250 50 0 empty empty empty 17 7 0 10 -262144
-1 -1;
#X obj -40 240 nm_threshold 87;
#X obj -161 200 bp~ 220 8;
#X obj -190 619 r trig_highs2;
#X obj 138 461 nm_adsr_env~ 50 250 0.5 1000;
#X obj 523 522 dd.sn;
#X obj 580 545 *~ 0.5;
#X obj 139 484 *~ 0.5;
#X obj 666 519 / 4;
#X obj 111 217 *~ 0.03;
#X obj 598 652 *~ 0.6;
#X obj -84 473 r \$0-special-hit;
#X obj 219 482 clip~ -0.2 0.2;
#N canvas 0 22 473 362 loopy-mids 0;
#X obj 56 70 lop~ 500;
#N canvas 0 22 450 300 inits 0;
#X msg 112 160 bpm \$1;
#X floatatom 109 138 5 0 0 0 - - -;
#X msg 176 155 measures \$1;
#X floatatom 178 139 5 0 0 0 - - -;
#X floatatom 231 118 5 0 0 0 - - -;
#X msg 229 134 feedback \$1;
#X msg 108 116 120;
#X msg 180 118 8;
#X obj 121 45 inlet;
#X obj 127 233 outlet;
#X msg 233 97 1;
#X connect 0 0 9 0;
#X connect 1 0 0 0;
#X connect 2 0 9 0;
#X connect 3 0 2 0;
#X connect 4 0 5 0;
#X connect 5 0 9 0;
#X connect 6 0 1 0;
#X connect 7 0 3 0;
#X connect 8 0 6 0;
#X connect 8 0 7 0;
#X connect 8 0 10 0;
#X connect 10 0 4 0;
#X restore 186 99 pd inits;
#X obj 235 79 bng 15 250 50 0 empty empty empty 17 7 0 10 -262144 -1
-1;
#X obj 57 49 inlet~;
#X obj 103 291 outlet~;
#X obj 278 55 inlet;
#X obj 186 34 inlet;
#X msg 187 78 bang;
#X obj 131 123 r mids;
#X obj 184 124 r trig_mid;
#X obj 327 55 inlet;
#X text 340 75 bpm;
#X obj 106 249 nmv-looper1~ 8000;
#X obj 359 177 loadbang;
#X msg 232 192 delayfreq \$1;
#X obj 130 222 rj/e_fbdelay mydelay 250;
#X msg 359 198 feedback 0.999;
#X obj 55 157 nm_adsr_env~ 10 250 0.8 1000;
#X msg 287 262 measures 8;
#X msg 339 224 feedback 0.9;
#X connect 0 0 17 0;
#X connect 1 0 12 1;
#X connect 2 0 1 0;
#X connect 3 0 0 0;
#X connect 5 0 14 0;
#X connect 6 0 7 0;
#X connect 7 0 1 0;
#X connect 7 0 19 0;
#X connect 8 0 17 1;
#X connect 9 0 12 1;
#X connect 10 0 12 2;
#X connect 12 0 4 0;
#X connect 13 0 16 0;
#X connect 13 0 19 0;
#X connect 13 0 18 0;
#X connect 14 0 15 2;
#X connect 15 0 12 0;
#X connect 16 0 15 2;
#X connect 17 0 12 0;
#X connect 17 0 15 0;
#X connect 18 0 12 1;
#X connect 19 0 12 1;
#X restore 110 195 pd loopy-mids;
#N canvas 408 22 453 333 loopy-highs2 0;
#X obj 58 269 nm_pan;
#X obj 123 28 r highs;
#X obj 189 227 random 4;
#X obj 190 249 / 4;
#X obj 58 95 hip~ 4000;
#X obj 234 100 + 50;
#X obj 233 81 random 100;
#X obj 58 73 inlet~;
#X obj 58 301 outlet~;
#X obj 122 299 outlet~;
#X obj 341 93 inlet;
#X text 340 115 for defaults;
#X obj 243 188 r \$0-bpm;
#X obj 159 168 r trig_highs2;
#X obj 58 227 nmv-looper1~ 8000;
#X obj 170 72 delay;
#X obj 200 24 r \$0-ms-per-beat;
#X obj 199 48 * 3;
#X obj 58 123 nm_adsr_env~ 10 20 0.7 250;
#X connect 0 0 8 0;
#X connect 0 1 9 0;
#X connect 1 0 2 0;
#X connect 1 0 6 0;
#X connect 1 0 15 0;
#X connect 1 0 18 1;
#X connect 2 0 3 0;
#X connect 3 0 0 1;
#X connect 4 0 18 0;
#X connect 5 0 18 2;
#X connect 6 0 5 0;
#X connect 7 0 4 0;
#X connect 10 0 14 1;
#X connect 12 0 14 2;
#X connect 13 0 14 1;
#X connect 14 0 0 0;
#X connect 15 0 18 1;
#X connect 16 0 17 0;
#X connect 17 0 15 1;
#X connect 18 0 14 0;
#X restore 319 171 pd loopy-highs2;
#N canvas 0 22 451 323 loopy-highs1 0;
#X obj 85 92 hip~ 1000;
#X obj 89 262 nm_pan;
#X obj 165 88 r highs;
#X obj 221 219 random 4;
#X obj 222 241 / 4;
#X obj 261 72 random 300;
#X obj 262 92 + 100;
#X obj 86 65 inlet~;
#X obj 89 291 outlet~;
#X obj 155 292 outlet~;
#X obj 341 93 inlet;
#X text 340 115 for defaults;
#X obj 281 165 r \$0-bpm;
#X obj 143 178 r trig_highs1;
#X obj 85 114 nm_adsr_env~ 10 80 0.7 500;
#X obj 89 218 nmv-looper1~ 8000;
#X connect 0 0 14 0;
#X connect 1 0 8 0;
#X connect 1 1 9 0;
#X connect 2 0 3 0;
#X connect 2 0 5 0;
#X connect 2 0 14 1;
#X connect 3 0 4 0;
#X connect 4 0 1 1;
#X connect 5 0 6 0;
#X connect 6 0 14 2;
#X connect 7 0 0 0;
#X connect 10 0 15 1;
#X connect 12 0 15 2;
#X connect 13 0 15 1;
#X connect 14 0 15 0;
#X connect 15 0 1 0;
#X restore 269 256 pd loopy-highs1;
#X obj 134 507 throw~ mono;
#X obj 220 525 throw~ hilbert;
#X text 585 582 earcandy section;
#X obj 580 568 throw~ mono;
#X obj 532 409 f;
#X obj 494 410 * 12;
#N canvas 0 22 557 446 bd.decay 0;
#X msg 59 258 decay \$1;
#X obj 59 328 outlet;
#X obj 168 69 r \$0-num-bar-4bars;
#X obj 169 90 sel 4;
#X obj 170 111 nm_oneinx 4;
#X msg 60 230 100;
#X obj 105 45 r \$0-special-hit;
#X msg 103 229 10;
#X obj 49 176 delay;
#X obj 82 134 r \$0-ms-per-beat;
#X obj 57 24 loadbang;
#X obj 100 86 bang;
#X obj 81 155 * 16;
#X obj 169 172 s lows;
#X text 221 173 special to start up the bass;
#X msg 140 258 dist 1;
#X text 148 278 reset distortion in case user was playing with it;
#X connect 0 0 1 0;
#X connect 2 0 3 0;
#X connect 3 0 4 0;
#X connect 4 0 11 0;
#X connect 4 0 13 0;
#X connect 5 0 0 0;
#X connect 6 0 11 0;
#X connect 7 0 0 0;
#X connect 8 0 5 0;
#X connect 8 0 15 0;
#X connect 9 0 12 0;
#X connect 10 0 5 0;
#X connect 11 0 7 0;
#X connect 11 0 8 0;
#X connect 12 0 8 1;
#X connect 15 0 1 0;
#X restore 544 493 pd bd.decay;
#N canvas 0 22 550 342 sn.control 0;
#X obj 38 39 r \$0-num-beat-4bars;
#X msg 180 217 noise \$1;
#X obj 67 61 r \$0-ms-per-beat;
#X obj 166 154 r nm_magnitude;
#X obj 165 174 clip 1 3;
#X obj 170 196 * 43;
#X obj 38 137 bang;
#X obj 44 158 delay;
#X msg 89 137 0;
#X obj 48 240 outlet;
#X obj 66 84 / 32;
#X obj 219 73 r \$0-num-bar-4bars;
#X obj 212 97 sel 2;
#X obj 37 105 sel 1 3 9 11 13;
#X connect 0 0 13 0;
#X connect 1 0 9 0;
#X connect 2 0 10 0;
#X connect 3 0 4 0;
#X connect 4 0 5 0;
#X connect 5 0 1 0;
#X connect 6 0 7 0;
#X connect 6 0 9 0;
#X connect 7 0 9 0;
#X connect 8 0 7 1;
#X connect 10 0 7 1;
#X connect 11 0 12 0;
#X connect 12 0 9 0;
#X connect 13 0 6 0;
#X connect 13 1 6 0;
#X connect 13 2 6 0;
#X connect 13 3 6 0;
#X connect 13 4 6 0;
#X connect 13 5 8 0;
#X restore 437 494 pd sn.control;
#X obj 219 503 *~ 0.15;
#X msg 347 481 0;
#X msg 382 481 0.15;
#X obj 70 529 throw~ reverb-mono;
#X obj 70 510 *~ 0.03;
#X obj 327 371 r \$0-num-bar-4bars;
#X obj 367 441 delay;
#X obj 413 438 r \$0-ms-per-beat;
#X obj 333 395 sel 4;
#X obj 354 415 nm_oneinx 8;
#X obj 332 442 bng 15 250 50 0 empty empty empty 17 7 0 10 -262144
-1 -1;
#X obj 411 461 * 16;
#X connect 1 0 75 0;
#X connect 1 1 75 0;
#X connect 2 0 1 1;
#X connect 2 0 44 0;
#X connect 5 0 2 0;
#X connect 6 0 8 0;
#X connect 6 0 12 0;
#X connect 6 0 151 1;
#X connect 7 0 9 0;
#X connect 7 0 10 0;
#X connect 7 0 28 0;
#X connect 7 0 46 0;
#X connect 8 0 153 1;
#X connect 11 0 151 2;
#X connect 12 0 152 1;
#X connect 13 0 26 0;
#X connect 13 0 35 0;
#X connect 14 0 13 0;
#X connect 14 0 22 0;
#X connect 16 0 27 0;
#X connect 17 0 30 0;
#X connect 18 0 70 0;
#X connect 19 0 20 0;
#X connect 20 0 70 0;
#X connect 21 0 69 0;
#X connect 24 0 25 0;
#X connect 25 0 11 0;
#X connect 26 0 121 0;
#X connect 27 0 15 0;
#X connect 27 0 132 0;
#X connect 27 0 133 0;
#X connect 28 0 29 0;
#X connect 30 0 43 0;
#X connect 31 0 152 1;
#X connect 32 0 31 0;
#X connect 33 0 31 0;
#X connect 34 0 31 0;
#X connect 35 0 36 0;
#X connect 37 0 93 0;
#X connect 37 0 142 1;
#X connect 38 0 33 0;
#X connect 39 0 34 0;
#X connect 41 0 144 0;
#X connect 42 0 64 0;
#X connect 43 0 18 0;
#X connect 45 0 107 0;
#X connect 45 0 139 0;
#X connect 47 0 101 0;
#X connect 48 0 102 0;
#X connect 49 0 50 0;
#X connect 50 0 142 0;
#X connect 50 0 166 0;
#X connect 50 1 150 0;
#X connect 52 0 91 0;
#X connect 52 1 92 0;
#X connect 53 0 54 0;
#X connect 53 0 146 0;
#X connect 54 0 52 1;
#X connect 55 0 0 0;
#X connect 55 1 0 1;
#X connect 57 0 96 0;
#X connect 57 0 158 0;
#X connect 60 0 103 0;
#X connect 61 0 103 1;
#X connect 64 0 52 0;
#X connect 64 0 124 0;
#X connect 64 0 148 0;
#X connect 65 0 0 0;
#X connect 65 0 0 1;
#X connect 66 0 49 0;
#X connect 67 0 42 0;
#X connect 67 0 53 0;
#X connect 68 0 67 0;
#X connect 69 0 56 0;
#X connect 70 1 21 0;
#X connect 71 0 72 0;
#X connect 72 0 73 0;
#X connect 74 0 151 3;
#X connect 75 0 77 0;
#X connect 76 0 16 0;
#X connect 78 0 151 0;
#X connect 79 0 152 0;
#X connect 80 0 153 0;
#X connect 81 0 140 0;
#X connect 82 0 99 0;
#X connect 83 0 95 0;
#X connect 83 1 85 0;
#X connect 86 0 87 0;
#X connect 88 0 86 0;
#X connect 89 0 42 0;
#X connect 90 0 55 0;
#X connect 93 0 50 1;
#X connect 94 0 83 0;
#X connect 95 0 84 0;
#X connect 96 0 41 0;
#X connect 97 0 98 0;
#X connect 98 0 96 1;
#X connect 99 0 100 0;
#X connect 100 0 76 0;
#X connect 101 0 49 1;
#X connect 102 0 49 1;
#X connect 103 0 0 0;
#X connect 103 1 0 1;
#X connect 104 0 70 0;
#X connect 106 0 25 1;
#X connect 107 0 14 0;
#X connect 108 0 89 0;
#X connect 109 0 108 0;
#X connect 110 0 103 0;
#X connect 110 0 103 1;
#X connect 113 0 42 0;
#X connect 114 0 117 0;
#X connect 114 0 122 0;
#X connect 114 1 115 0;
#X connect 115 0 113 0;
#X connect 116 0 114 0;
#X connect 117 0 113 0;
#X connect 121 0 23 0;
#X connect 121 0 138 0;
#X connect 122 0 123 0;
#X connect 123 0 113 0;
#X connect 125 1 130 0;
#X connect 125 2 126 0;
#X connect 126 0 127 0;
#X connect 127 0 128 0;
#X connect 128 0 89 0;
#X connect 129 0 41 0;
#X connect 130 0 131 0;
#X connect 131 0 159 0;
#X connect 132 0 134 0;
#X connect 133 0 135 0;
#X connect 139 0 118 0;
#X connect 139 0 137 0;
#X connect 140 0 45 0;
#X connect 141 0 94 0;
#X connect 142 0 145 0;
#X connect 143 0 52 0;
#X connect 143 0 144 0;
#X connect 143 0 153 0;
#X connect 144 0 157 0;
#X connect 145 0 154 0;
#X connect 146 0 64 1;
#X connect 147 0 111 0;
#X connect 147 0 112 0;
#X connect 148 0 120 0;
#X connect 149 0 135 0;
#X connect 150 0 162 0;
#X connect 151 0 147 0;
#X connect 152 0 58 0;
#X connect 152 0 136 0;
#X connect 152 1 59 0;
#X connect 153 0 62 0;
#X connect 153 1 63 0;
#X connect 158 0 129 0;
#X connect 159 0 158 1;
#X connect 160 0 41 0;
#X connect 161 0 143 0;
#X connect 162 0 155 0;
#X connect 163 0 162 1;
#X connect 164 0 162 1;
#X connect 166 0 165 0;
#X connect 167 0 170 0;
#X connect 168 0 164 0;
#X connect 169 0 173 0;
#X connect 170 0 171 0;
#X connect 171 0 163 0;
#X connect 171 0 168 0;
#X connect 172 0 168 0;
#X connect 172 0 163 0;
#X connect 173 0 168 1;
