#N canvas 661 212 623 549 10;
#X obj 59 322 + 1;
#X msg 19 288 bang;
#X obj 20 238 f;
#X obj 34 322 f 0;
#X obj 66 290 t b b;
#X obj 20 131 random \$1;
#X obj 18 450 outlet;
#X obj 78 46 d-default \$1 10;
#X obj 78 86 d-fibo;
#X obj 77 22 inlet;
#X obj 20 21 inlet;
#X text 224 95 random number \, fibonacci distribution;
#X text 218 119 right inlet sets upper limit for output;
#X obj 104 254 d-fibo;
#X obj 18 345 f 0;
#X obj 20 178 t a b;
#X obj 98 387 pack f f;
#X obj 98 430 -;
#X msg 98 408 \$2 \$1;
#X obj 19 261 moses 0;
#X obj 255 260 print tt;
#X obj 254 224 d-fibo;
#X msg 253 203 reset \, bang;
#X msg 342 204 bang;
#X msg 103 234 reset \, bang;
#X floatatom 168 401 5 0 0 0 - - -;
#X floatatom 109 117 5 0 0 0 - - -;
#X msg 278 172 8;
#X msg 34 205 0;
#X msg 45 225 0;
#X obj 21 153 + 1;
#X obj 76 112 - 1;
#X obj 79 65 + 1;
#X obj 18 367 - 1;
#X obj 153 359 - 1;
#X connect 0 0 3 1;
#X connect 1 0 14 0;
#X connect 2 0 19 0;
#X connect 3 0 0 0;
#X connect 3 0 14 1;
#X connect 4 0 2 0;
#X connect 4 1 3 0;
#X connect 4 1 13 0;
#X connect 5 0 30 0;
#X connect 7 0 32 0;
#X connect 7 0 34 0;
#X connect 8 0 26 0;
#X connect 8 0 31 0;
#X connect 9 0 7 0;
#X connect 10 0 5 0;
#X connect 13 0 19 1;
#X connect 14 0 33 0;
#X connect 15 0 2 0;
#X connect 15 1 28 0;
#X connect 15 1 24 0;
#X connect 15 1 29 0;
#X connect 16 0 18 0;
#X connect 17 0 6 0;
#X connect 18 0 17 0;
#X connect 19 0 1 0;
#X connect 19 1 4 0;
#X connect 21 0 20 0;
#X connect 22 0 21 0;
#X connect 23 0 21 0;
#X connect 24 0 13 0;
#X connect 27 0 21 0;
#X connect 28 0 14 1;
#X connect 29 0 3 1;
#X connect 30 0 15 0;
#X connect 31 0 5 1;
#X connect 32 0 8 0;
#X connect 33 0 16 0;
#X connect 34 0 16 1;
#X connect 34 0 25 0;
