#N canvas 47 22 924 717 10;
#X obj 124 79 inlet;
#X obj 41 53 inlet;
#X obj 201 530 pack 0 50;
#X obj 345 184 f \$3;
#X obj 483 183 f \$4;
#X obj 485 369 clip 0 100;
#X obj 356 378 f;
#X obj 335 71 inlet;
#X obj 473 75 inlet;
#X obj 485 392 f;
#X obj 485 415 * 0.01;
#X obj 485 439 pack 0 50;
#X text 336 585 4: high frequency damping \, 0-100;
#X text 337 552 2: liveness \, 0-100 \, usually between 85 and 100
;
#N canvas 169 22 983 869 doit 0;
#X obj 218 386 *~;
#X obj 341 396 *~;
#X obj 267 389 *~;
#X obj 305 392 *~;
#X obj 15 372 *~;
#X obj 169 383 *~;
#X obj 67 376 *~;
#X obj 115 380 *~;
#X obj 524 407 *~;
#X obj 631 409 *~;
#X obj 560 408 *~;
#X obj 595 409 *~;
#X obj 377 399 *~;
#X obj 488 406 *~;
#X obj 414 402 *~;
#X obj 451 405 *~;
#X obj 654 354 line~;
#X obj 708 387 r \$0-fb;
#X obj 69 440 +~;
#X obj 105 440 -~;
#X obj 141 440 +~;
#X obj 177 440 -~;
#X obj 214 440 +~;
#X obj 250 440 -~;
#X obj 286 440 +~;
#X obj 322 440 -~;
#X obj 359 440 +~;
#X obj 395 440 -~;
#X obj 431 440 +~;
#X obj 467 440 -~;
#X obj 504 440 +~;
#X obj 540 440 -~;
#X obj 576 440 +~;
#X obj 612 440 -~;
#X obj 69 474 +~;
#X obj 177 474 -~;
#X obj 105 474 +~;
#X obj 141 474 -~;
#X obj 214 474 +~;
#X obj 322 474 -~;
#X obj 250 474 +~;
#X obj 286 474 -~;
#X obj 359 474 +~;
#X obj 467 474 -~;
#X obj 395 474 +~;
#X obj 431 474 -~;
#X obj 504 474 +~;
#X obj 612 474 -~;
#X obj 540 474 +~;
#X obj 576 474 -~;
#X obj 69 518 +~;
#X obj 105 518 +~;
#X obj 322 518 -~;
#X obj 286 518 -~;
#X obj 141 518 +~;
#X obj 177 518 +~;
#X obj 214 518 -~;
#X obj 250 518 -~;
#X obj 360 518 +~;
#X obj 396 518 +~;
#X obj 613 518 -~;
#X obj 577 518 -~;
#X obj 432 518 +~;
#X obj 468 518 +~;
#X obj 505 518 -~;
#X obj 541 518 -~;
#X obj 70 575 +~;
#X obj 106 575 +~;
#X obj 469 575 -~;
#X obj 433 575 -~;
#X obj 142 575 +~;
#X obj 178 575 +~;
#X obj 361 575 -~;
#X obj 397 575 -~;
#X obj 215 575 +~;
#X obj 251 575 +~;
#X obj 287 575 +~;
#X obj 323 575 +~;
#X obj 614 575 -~;
#X obj 578 575 -~;
#X obj 506 575 -~;
#X obj 542 575 -~;
#X obj 628 606 outlet~;
#X obj 698 606 outlet~;
#X obj 768 607 outlet~;
#X obj 838 607 outlet~;
#X obj 614 629 delwrite~ \$0-del16 130.502;
#X obj 361 776 delwrite~ \$0-del9 46.6838;
#X obj 398 755 delwrite~ \$0-del10 55.4567;
#X obj 434 734 delwrite~ \$0-del11 65.1755;
#X obj 470 713 delwrite~ \$0-del12 76.8243;
#X obj 506 692 delwrite~ \$0-del13 88.5623;
#X obj 542 671 delwrite~ \$0-del14 101.278;
#X obj 579 650 delwrite~ \$0-del15 115.397;
#X obj 323 606 delwrite~ \$0-del8 38.2944;
#X obj 287 628 delwrite~ \$0-del7 31.4693;
#X obj 252 650 delwrite~ \$0-del6 25.7417;
#X obj 215 672 delwrite~ \$0-del5 20.1862;
#X obj 71 761 delwrite~ \$0-del1 10;
#X obj 106 737 delwrite~ \$0-del2 11.6356;
#X obj 141 715 delwrite~ \$0-del3 13.4567;
#X obj 179 693 delwrite~ \$0-del4 16.7345;
#X obj 304 142 d-reverb2-revunit~ \$0-del7 31.4693 \$0;
#X obj 341 164 d-reverb2-revunit~ \$0-del8 38.2944 \$0;
#X obj 68 35 d-reverb2-revunit~ \$0-del2 11.6356 \$0;
#X obj 21 10 d-reverb2-revunit~ \$0-del1 10 \$0;
#X obj 118 56 d-reverb2-revunit~ \$0-del3 13.4567 \$0;
#X obj 171 78 d-reverb2-revunit~ \$0-del4 16.7345 \$0;
#X obj 219 100 d-reverb2-revunit~ \$0-del5 20.1862 \$0;
#X obj 267 121 d-reverb2-revunit~ \$0-del6 25.7417 \$0;
#X obj 377 185 d-reverb2-revunit~ \$0-del9 46.6838 \$0;
#X obj 414 206 d-reverb2-revunit~ \$0-del10 55.4567 \$0;
#X obj 451 226 d-reverb2-revunit~ \$0-del11 65.1755 \$0;
#X obj 488 247 d-reverb2-revunit~ \$0-del12 76.8243 \$0;
#X obj 525 268 d-reverb2-revunit~ \$0-del13 88.5623 \$0;
#X obj 562 290 d-reverb2-revunit~ \$0-del14 101.278 \$0;
#X obj 596 311 d-reverb2-revunit~ \$0-del15 115.397 \$0;
#X obj 632 331 d-reverb2-revunit~ \$0-del16 130.502 \$0;
#X obj 856 842 0;
#X obj 872 772 0;
#X obj 875 862 0;
#X obj 33 245 inlet~;
#X obj 40 299 *~ 0.125;
#X obj 152 230 inlet~;
#X obj 150 274 *~ 0.125;
#X connect 0 0 22 0;
#X connect 0 0 23 0;
#X connect 1 0 24 1;
#X connect 1 0 25 1;
#X connect 2 0 22 1;
#X connect 2 0 23 1;
#X connect 3 0 24 0;
#X connect 3 0 25 0;
#X connect 4 0 18 0;
#X connect 4 0 19 0;
#X connect 5 0 20 1;
#X connect 5 0 21 1;
#X connect 6 0 19 1;
#X connect 6 0 18 1;
#X connect 7 0 20 0;
#X connect 7 0 21 0;
#X connect 8 0 30 0;
#X connect 8 0 31 0;
#X connect 9 0 32 1;
#X connect 9 0 33 1;
#X connect 10 0 30 1;
#X connect 10 0 31 1;
#X connect 11 0 32 0;
#X connect 11 0 33 0;
#X connect 12 0 26 0;
#X connect 12 0 27 0;
#X connect 13 0 28 1;
#X connect 13 0 29 1;
#X connect 14 0 26 1;
#X connect 14 0 27 1;
#X connect 15 0 28 0;
#X connect 15 0 29 0;
#X connect 16 0 2 1;
#X connect 16 0 0 1;
#X connect 16 0 3 1;
#X connect 16 0 1 1;
#X connect 16 0 5 1;
#X connect 16 0 7 1;
#X connect 16 0 6 1;
#X connect 16 0 4 1;
#X connect 16 0 12 1;
#X connect 16 0 15 1;
#X connect 16 0 13 1;
#X connect 16 0 8 1;
#X connect 16 0 10 1;
#X connect 16 0 11 1;
#X connect 16 0 9 1;
#X connect 16 0 14 1;
#X connect 17 0 16 0;
#X connect 18 0 34 0;
#X connect 18 0 37 0;
#X connect 19 0 36 0;
#X connect 19 0 35 0;
#X connect 20 0 34 1;
#X connect 20 0 37 1;
#X connect 21 0 36 1;
#X connect 21 0 35 1;
#X connect 22 0 38 0;
#X connect 22 0 41 0;
#X connect 23 0 40 0;
#X connect 23 0 39 0;
#X connect 24 0 38 1;
#X connect 24 0 41 1;
#X connect 25 0 40 1;
#X connect 25 0 39 1;
#X connect 26 0 42 0;
#X connect 26 0 45 0;
#X connect 27 0 44 0;
#X connect 27 0 43 0;
#X connect 28 0 42 1;
#X connect 28 0 45 1;
#X connect 29 0 44 1;
#X connect 29 0 43 1;
#X connect 30 0 46 0;
#X connect 30 0 49 0;
#X connect 31 0 48 0;
#X connect 31 0 47 0;
#X connect 32 0 46 1;
#X connect 32 0 49 1;
#X connect 33 0 48 1;
#X connect 33 0 47 1;
#X connect 34 0 50 0;
#X connect 34 0 56 0;
#X connect 35 0 55 0;
#X connect 35 0 52 0;
#X connect 36 0 51 0;
#X connect 36 0 57 0;
#X connect 37 0 54 0;
#X connect 37 0 53 0;
#X connect 38 0 50 1;
#X connect 38 0 56 1;
#X connect 39 0 55 1;
#X connect 39 0 52 1;
#X connect 40 0 51 1;
#X connect 40 0 57 1;
#X connect 41 0 54 1;
#X connect 41 0 53 1;
#X connect 42 0 58 0;
#X connect 42 0 64 0;
#X connect 43 0 63 0;
#X connect 43 0 60 0;
#X connect 44 0 59 0;
#X connect 44 0 65 0;
#X connect 45 0 62 0;
#X connect 45 0 61 0;
#X connect 46 0 58 1;
#X connect 46 0 64 1;
#X connect 47 0 63 1;
#X connect 47 0 60 1;
#X connect 48 0 59 1;
#X connect 48 0 65 1;
#X connect 49 0 62 1;
#X connect 49 0 61 1;
#X connect 50 0 66 0;
#X connect 50 0 72 0;
#X connect 51 0 67 0;
#X connect 51 0 73 0;
#X connect 52 0 77 0;
#X connect 52 0 78 0;
#X connect 53 0 76 0;
#X connect 53 0 79 0;
#X connect 54 0 70 0;
#X connect 54 0 69 0;
#X connect 55 0 71 0;
#X connect 55 0 68 0;
#X connect 56 0 74 0;
#X connect 56 0 80 0;
#X connect 57 0 75 0;
#X connect 57 0 81 0;
#X connect 58 0 72 1;
#X connect 58 0 66 1;
#X connect 59 0 73 1;
#X connect 59 0 67 1;
#X connect 60 0 78 1;
#X connect 60 0 77 1;
#X connect 61 0 79 1;
#X connect 61 0 76 1;
#X connect 62 0 69 1;
#X connect 62 0 70 1;
#X connect 63 0 68 1;
#X connect 63 0 71 1;
#X connect 64 0 80 1;
#X connect 64 0 74 1;
#X connect 65 0 81 1;
#X connect 65 0 75 1;
#X connect 66 0 98 0;
#X connect 67 0 99 0;
#X connect 68 0 90 0;
#X connect 69 0 89 0;
#X connect 70 0 100 0;
#X connect 71 0 101 0;
#X connect 72 0 87 0;
#X connect 73 0 88 0;
#X connect 74 0 97 0;
#X connect 75 0 96 0;
#X connect 76 0 95 0;
#X connect 77 0 94 0;
#X connect 78 0 85 0;
#X connect 78 0 86 0;
#X connect 79 0 84 0;
#X connect 79 0 93 0;
#X connect 80 0 82 0;
#X connect 80 0 91 0;
#X connect 81 0 83 0;
#X connect 81 0 92 0;
#X connect 102 0 3 0;
#X connect 103 0 1 0;
#X connect 104 0 6 0;
#X connect 105 0 4 0;
#X connect 106 0 7 0;
#X connect 107 0 5 0;
#X connect 108 0 0 0;
#X connect 109 0 2 0;
#X connect 110 0 12 0;
#X connect 111 0 14 0;
#X connect 112 0 15 0;
#X connect 113 0 13 0;
#X connect 114 0 8 0;
#X connect 115 0 10 0;
#X connect 116 0 11 0;
#X connect 117 0 9 0;
#X connect 121 0 122 0;
#X connect 122 0 98 0;
#X connect 122 0 100 0;
#X connect 122 0 97 0;
#X connect 122 0 95 0;
#X connect 122 0 87 0;
#X connect 122 0 89 0;
#X connect 122 0 91 0;
#X connect 122 0 93 0;
#X connect 123 0 124 0;
#X connect 124 0 99 0;
#X connect 124 0 101 0;
#X connect 124 0 96 0;
#X connect 124 0 94 0;
#X connect 124 0 88 0;
#X connect 124 0 90 0;
#X connect 124 0 92 0;
#X connect 124 0 86 0;
#X restore 31 471 pd doit;
#X obj -3 411 inlet~;
#X obj 14 391 inlet~;
#X obj 201 560 s \$0-fb;
#X text 42 647 rev3 - 16-delay reverberator. Like rev2~ but presumably
higher-quality and takes two audio inputs.;
#X obj 356 402 s \$0-hc;
#X obj 485 466 s \$0-hd;
#X obj 726 367 clip 0 100;
#X obj 708 75 inlet;
#X obj 726 390 f;
#X obj 726 413 * 0.01;
#X obj 726 437 pack 0 50;
#X obj 618 342 moses 1;
#X msg 618 368 3000;
#X obj 603 393 f;
#X obj 602 76 inlet;
#X obj 619 185 f \$5;
#X obj 729 204 f \$6;
#X text 337 568 3: high crossover frequency in Hz. (3000 default);
#X text 336 599 5 & 6: like 3&4 but low;
#X obj 610 420 s \$0-lc;
#X obj 728 464 s \$0-ld;
#X obj 57 273 vsl 8 70 0 1 0 0 empty empty empty 0 -9 0 10 -262144
-1 -1 5700 1;
#X obj 65 273 vsl 8 70 1 0.01 1 0 empty empty empty 0 -9 0 10 -262144
-1 -1 2400 1;
#X obj 77 273 vsl 8 70 1 22050 1 0 empty empty empty 0 -9 0 10 -262144
-1 -1 5524 1;
#X obj 85 273 vsl 8 70 0 127 0 0 empty empty empty 0 -9 0 10 -262144
-1 -1 543 1;
#X obj 97 273 vsl 8 70 1 22050 1 0 empty empty empty 0 -9 0 10 -262144
-1 -1 4134 1;
#X obj 105 273 vsl 8 70 0 127 0 0 empty empty empty 0 -9 0 10 -262144
-1 -1 1630 1;
#X text 60 344 o;
#X obj 201 481 clip 0 1;
#X obj 201 507 / 4;
#X obj 201 461 d-1-;
#X obj 123 189 f 85;
#X text 340 516 control inlets/arguments:;
#X obj 124 226 d-1-;
#X obj 124 207 / 100;
#X text 80 345 h;
#X text 99 346 l;
#X obj 22 551 outlet~;
#X obj 92 557 outlet~;
#X obj 9 527 d-drywet~;
#X obj 88 534 d-drywet~;
#X obj 39 210 f 1;
#X obj 127 150 d-default \$2 85;
#X obj 345 143 d-default \$3 3000;
#X obj 484 146 d-default \$4 10;
#X obj 619 124 d-default \$5 400;
#X obj 729 174 d-default \$6 30;
#X obj 23 120 d-default \$1 100;
#X obj 36 182 / 127;
#X obj 821 7 inlet;
#X text 337 534 1: output level \, dB \, 0-100 (dry/wet balance);
#X obj 571 35 route output liveness hf hd lf ld dumpvals;
#X obj 716 570 pack f f f f f f;
#X obj 716 588 print d-reverb2;
#X obj 705 547 f;
#X obj 738 526 d-1-;
#X obj 738 546 * 100;
#X obj 290 434 * 127;
#X msg 801 93 bang;
#X obj 201 440 * 1;
#X connect 0 0 46 0;
#X connect 1 0 63 0;
#X connect 2 0 17 0;
#X connect 3 0 38 0;
#X connect 4 0 5 0;
#X connect 4 0 39 0;
#X connect 5 0 9 0;
#X connect 6 0 19 0;
#X connect 6 0 67 2;
#X connect 7 0 3 0;
#X connect 8 0 4 0;
#X connect 9 0 10 0;
#X connect 9 0 67 3;
#X connect 10 0 11 0;
#X connect 11 0 20 0;
#X connect 14 0 54 1;
#X connect 14 1 54 1;
#X connect 14 2 55 1;
#X connect 14 3 55 1;
#X connect 15 0 14 0;
#X connect 15 0 54 0;
#X connect 16 0 14 1;
#X connect 16 0 55 0;
#X connect 21 0 23 0;
#X connect 22 0 31 0;
#X connect 23 0 24 0;
#X connect 23 0 67 5;
#X connect 24 0 25 0;
#X connect 25 0 35 0;
#X connect 26 0 27 0;
#X connect 26 1 28 0;
#X connect 27 0 28 0;
#X connect 28 0 34 0;
#X connect 28 0 67 4;
#X connect 29 0 28 0;
#X connect 30 0 40 0;
#X connect 30 0 26 0;
#X connect 31 0 21 0;
#X connect 31 0 41 0;
#X connect 36 0 54 2;
#X connect 36 0 55 2;
#X connect 36 0 72 0;
#X connect 37 0 70 0;
#X connect 37 0 74 0;
#X connect 38 0 6 0;
#X connect 39 0 5 0;
#X connect 40 0 28 0;
#X connect 41 0 21 0;
#X connect 43 0 44 0;
#X connect 44 0 2 0;
#X connect 45 0 43 0;
#X connect 46 0 49 0;
#X connect 48 0 37 0;
#X connect 49 0 48 0;
#X connect 54 0 52 0;
#X connect 55 0 53 0;
#X connect 56 0 36 0;
#X connect 57 0 46 0;
#X connect 58 0 3 0;
#X connect 59 0 4 0;
#X connect 60 0 30 0;
#X connect 61 0 31 0;
#X connect 62 0 63 0;
#X connect 63 0 56 0;
#X connect 64 0 66 0;
#X connect 66 0 63 0;
#X connect 66 1 46 0;
#X connect 66 2 3 0;
#X connect 66 3 4 0;
#X connect 66 4 30 0;
#X connect 66 5 31 0;
#X connect 66 6 73 0;
#X connect 67 0 68 0;
#X connect 69 0 67 0;
#X connect 70 0 71 0;
#X connect 71 0 67 1;
#X connect 72 0 69 1;
#X connect 73 0 69 0;
#X connect 74 0 45 0;
#X coords 0 -1 1 1 70 120 1 50 240;
