#N canvas 269 147 950 753 10;
#X obj 107 470 osc~;
#X obj 107 417 line~;
#X obj 82 305 f;
#X obj 117 307 f;
#X obj 82 334 pack;
#X obj 107 442 mtof~;
#X obj 105 501 *~;
#X obj 222 468 lop~;
#X obj 104 549 min~ 1;
#X obj 104 571 max~ -1;
#X obj 105 525 *~;
#X obj 104 601 lop~;
#X text 151 526 von [*~] an passiert distortion;
#X text 162 631 daist der ausgang;
#X obj 105 661 *~;
#X obj 392 568 *;
#X obj 392 546 t f f;
#X obj 388 442 t b f;
#X obj 388 463 1000;
#X obj 388 484 /;
#X obj 572 465 switch~;
#N canvas 690 540 208 156 kick.switch 0;
#X obj 15 56 del;
#X obj 15 35 t b f b;
#X obj 52 73 1;
#X obj 15 76 0;
#X obj 15 97 f;
#X obj 15 11 inlet;
#X obj 15 128 outlet;
#X obj 83 127 s \$0-kick.switch;
#X connect 0 0 3 0;
#X connect 1 0 0 0;
#X connect 1 1 0 1;
#X connect 1 2 2 0;
#X connect 2 0 4 0;
#X connect 3 0 4 0;
#X connect 4 0 6 0;
#X connect 4 0 7 0;
#X connect 5 0 1 0;
#X restore 572 443 pd kick.switch;
#X obj 245 301 f;
#X msg 245 320 1 \, 0 \$1;
#X obj 245 343 line~;
#X obj 272 369 *~ 100;
#X obj 272 389 dbtorms~;
#X obj 245 413 *~;
#X obj 272 412 *~;
#X obj 347 373 * -1;
#X obj 347 393 + 1;
#X obj 347 351 f;
#X obj 86 124 / 127;
#X obj 392 609 line~;
#X obj 392 589 pack 0 50;
#X obj 105 686 outlet~;
#X obj 380 141 + 15;
#X obj 454 142 + 15;
#X obj 32 22 inlet;
#X obj 67 198 t b b b;
#X obj 523 150 exp;
#X obj 523 129 * 0.054;
#X obj 161 175 exp;
#X obj 161 124 * 0.054;
#X obj 161 150 + 2.31;
#X obj 572 419 f;
#X obj 230 125 / 127;
#X obj 306 142 exp;
#X obj 306 121 * 0.054;
#X obj 681 215 exp;
#X obj 681 164 * 0.054;
#X obj 681 190 + 3;
#X obj 681 120 * -1;
#X obj 681 141 + 127;
#X obj 599 149 exp;
#X obj 599 126 * 0.031;
#N canvas 335 128 104 155 init 0;
#X obj 22 13 loadbang;
#X obj 22 35 \$1;
#X obj 22 61 sel 0;
#X obj 22 83 75;
#X obj 22 107 outlet;
#X connect 0 0 1 0;
#X connect 1 0 2 0;
#X connect 2 0 3 0;
#X connect 2 1 4 0;
#X connect 3 0 4 0;
#X restore 103 83 pd init;
#N canvas 446 132 104 155 init 0;
#X obj 22 13 loadbang;
#X obj 22 61 sel 0;
#X obj 22 107 outlet;
#X obj 22 35 \$2;
#X obj 22 83 60;
#X connect 0 0 3 0;
#X connect 1 0 4 0;
#X connect 1 1 2 0;
#X connect 3 0 1 0;
#X connect 4 0 2 0;
#X restore 192 82 pd init;
#N canvas 405 179 104 155 init 0;
#X obj 22 13 loadbang;
#X obj 22 61 sel 0;
#X obj 22 107 outlet;
#X obj 22 35 \$3;
#X obj 22 83 0;
#X connect 0 0 3 0;
#X connect 1 0 4 0;
#X connect 1 1 2 0;
#X connect 3 0 1 0;
#X connect 4 0 2 0;
#X restore 266 79 pd init;
#N canvas 405 179 104 155 init 0;
#X obj 22 13 loadbang;
#X obj 22 61 sel 0;
#X obj 22 107 outlet;
#X obj 22 35 \$4;
#X obj 22 83 0;
#X connect 0 0 3 0;
#X connect 1 0 4 0;
#X connect 1 1 2 0;
#X connect 3 0 1 0;
#X connect 4 0 2 0;
#X restore 328 81 pd init;
#N canvas 405 179 104 155 init 0;
#X obj 22 13 loadbang;
#X obj 22 61 sel 0;
#X obj 22 107 outlet;
#X obj 22 35 \$5;
#X obj 22 83 36;
#X connect 0 0 3 0;
#X connect 1 0 4 0;
#X connect 1 1 2 0;
#X connect 3 0 1 0;
#X connect 4 0 2 0;
#X restore 396 83 pd init;
#N canvas 405 179 104 155 init 0;
#X obj 22 13 loadbang;
#X obj 22 61 sel 0;
#X obj 22 107 outlet;
#X obj 22 35 \$6;
#X obj 22 83 24;
#X connect 0 0 3 0;
#X connect 1 0 4 0;
#X connect 1 1 2 0;
#X connect 3 0 1 0;
#X connect 4 0 2 0;
#X restore 465 83 pd init;
#N canvas 405 179 104 155 init 0;
#X obj 22 13 loadbang;
#X obj 22 61 sel 0;
#X obj 22 107 outlet;
#X obj 22 83 53;
#X obj 22 37 \$8;
#X connect 0 0 4 0;
#X connect 1 0 3 0;
#X connect 1 1 2 0;
#X connect 3 0 2 0;
#X connect 4 0 1 0;
#X restore 540 86 pd init;
#N canvas 405 179 104 155 init 0;
#X obj 22 13 loadbang;
#X obj 22 61 sel 0;
#X obj 22 107 outlet;
#X obj 22 83 0;
#X obj 22 35 \$8;
#X connect 0 0 4 0;
#X connect 1 0 3 0;
#X connect 1 1 2 0;
#X connect 3 0 2 0;
#X connect 4 0 1 0;
#X restore 609 85 pd init;
#N canvas 405 179 104 155 init 0;
#X obj 22 13 loadbang;
#X obj 22 61 sel 0;
#X obj 22 107 outlet;
#X obj 22 35 \$9;
#X obj 23 83 0;
#X connect 0 0 3 0;
#X connect 1 0 4 0;
#X connect 1 1 2 0;
#X connect 3 0 1 0;
#X connect 4 0 2 0;
#X restore 695 88 pd init;
#X obj 443 340 print dd.bd;
#X obj 34 48 route bang vol decay curv att afk efk time dist damp help
;
#X msg 442 264 -- dd.bd methods: --(range: 0-127)---- \, bang: trigger
the drum \, vol: volume \, decay: decay \, curv: lin/log decay \, att:
attack time \, afk: start frequency \, efk: end frequency \, time:
sweep time \, dist: distortion \, damp: damp;
#X obj 638 500 outlet;
#X obj 380 121 * 1;
#X obj 454 121 * 1;
#X connect 0 0 6 0;
#X connect 1 0 5 0;
#X connect 2 0 4 0;
#X connect 3 0 1 0;
#X connect 4 0 1 0;
#X connect 5 0 0 0;
#X connect 6 0 10 0;
#X connect 7 0 6 1;
#X connect 8 0 9 0;
#X connect 9 0 11 0;
#X connect 10 0 8 0;
#X connect 11 0 14 0;
#X connect 14 0 35 0;
#X connect 15 0 34 0;
#X connect 16 0 15 0;
#X connect 16 1 15 1;
#X connect 17 0 18 0;
#X connect 17 1 19 1;
#X connect 18 0 19 0;
#X connect 19 0 7 1;
#X connect 21 0 20 0;
#X connect 21 0 68 0;
#X connect 22 0 23 0;
#X connect 23 0 24 0;
#X connect 24 0 25 0;
#X connect 24 0 27 0;
#X connect 25 0 26 0;
#X connect 26 0 28 0;
#X connect 27 0 7 0;
#X connect 28 0 7 0;
#X connect 29 0 30 0;
#X connect 30 0 28 1;
#X connect 31 0 29 0;
#X connect 31 0 27 1;
#X connect 32 0 16 0;
#X connect 33 0 14 1;
#X connect 34 0 33 0;
#X connect 36 0 3 1;
#X connect 37 0 2 1;
#X connect 38 0 66 0;
#X connect 39 0 2 0;
#X connect 39 1 3 0;
#X connect 39 2 22 0;
#X connect 39 2 45 0;
#X connect 40 0 4 1;
#X connect 41 0 40 0;
#X connect 42 0 22 1;
#X connect 42 0 45 1;
#X connect 43 0 44 0;
#X connect 44 0 42 0;
#X connect 45 0 21 0;
#X connect 46 0 31 0;
#X connect 47 0 17 0;
#X connect 48 0 47 0;
#X connect 49 0 11 1;
#X connect 50 0 51 0;
#X connect 51 0 49 0;
#X connect 52 0 53 0;
#X connect 53 0 50 0;
#X connect 54 0 10 1;
#X connect 55 0 54 0;
#X connect 56 0 32 0;
#X connect 57 0 43 0;
#X connect 58 0 46 0;
#X connect 59 0 48 0;
#X connect 60 0 69 0;
#X connect 61 0 70 0;
#X connect 62 0 41 0;
#X connect 63 0 55 0;
#X connect 64 0 52 0;
#X connect 66 0 39 0;
#X connect 66 1 32 0;
#X connect 66 2 43 0;
#X connect 66 3 46 0;
#X connect 66 4 48 0;
#X connect 66 5 69 0;
#X connect 66 6 70 0;
#X connect 66 7 41 0;
#X connect 66 8 55 0;
#X connect 66 9 52 0;
#X connect 66 10 67 0;
#X connect 67 0 65 0;
#X connect 69 0 36 0;
#X connect 70 0 37 0;
