#N canvas 502 38 663 728 10;
#N canvas 0 0 790 530 (subpatch) 0;
#X array \$0.table24 259 float 0;
#X coords 0 1.02 258 -1.02 258 130 1;
#X restore 231 503 graph;
#X obj 18 158 *~;
#X obj 35 110 30000;
#X obj 18 28 loadbang;
#X obj 231 380 loadbang;
#X obj 346 314 line~;
#X obj 43 372 *~;
#X obj 346 336 dbtorms~;
#X obj 18 60 19572;
#X obj 43 398 hip~;
#X obj 43 421 hip~;
#X obj 255 304 *;
#X obj 255 285 t f f;
#X msg 346 292 \$1 \, 0 \$2;
#N canvas 690 540 208 156 hihat.switch 0;
#X obj 15 56 del;
#X obj 15 35 t b f b;
#X obj 52 73 1;
#X obj 15 76 0;
#X obj 15 97 f;
#X obj 15 11 inlet;
#X obj 15 128 outlet;
#X connect 0 0 3 0;
#X connect 1 0 0 0;
#X connect 1 1 0 1;
#X connect 1 2 2 0;
#X connect 2 0 4 0;
#X connect 3 0 4 0;
#X connect 4 0 6 0;
#X connect 5 0 1 0;
#X restore 512 296 pd hihat.switch;
#X obj 43 448 outlet~;
#X obj 512 318 switch~;
#X msg 512 274 \$2;
#X obj 96 391 t a;
#X obj 254 3 inlet;
#X obj 255 232 b;
#X obj 231 401 \$0;
#X msg 231 422 \; \$1.table24 sinesum 256 1 1 1 1 0 0 0 0 1 0 0 0 0
0 0 1 0 0 0 0 0 0 1 0 0 0 0 0 0 1 0 0 0 0 1 0 0 0 0 0 1 0 0 0 0 1 \,
normalize 1;
#X obj 18 85 tabosc4~ \$0.table24;
#X obj 35 132 tabosc4~ \$0.table24;
#X obj 504 233 mtof;
#X obj 255 327 rmstodb;
#X obj 297 231 / 127;
#X obj 255 258 f;
#X obj 404 202 exp;
#X obj 404 181 + 4.37;
#X obj 404 160 * 0.02;
#X obj 346 242 pack f f;
#N canvas 405 179 104 155 init 0;
#X obj 22 13 loadbang;
#X obj 22 35 \$1;
#X obj 22 61 sel 0;
#X obj 22 107 outlet;
#X obj 22 83 60;
#X connect 0 0 1 0;
#X connect 1 0 2 0;
#X connect 2 0 4 0;
#X connect 2 1 3 0;
#X connect 4 0 3 0;
#X restore 313 137 pd init;
#N canvas 405 179 104 155 init 0;
#X obj 22 13 loadbang;
#X obj 22 61 sel 0;
#X obj 22 107 outlet;
#X obj 22 35 \$2;
#X obj 22 83 40;
#X connect 0 0 3 0;
#X connect 1 0 4 0;
#X connect 1 1 2 0;
#X connect 3 0 1 0;
#X connect 4 0 2 0;
#X restore 412 132 pd init;
#N canvas 405 179 104 155 init 0;
#X obj 22 13 loadbang;
#X obj 22 61 sel 0;
#X obj 22 107 outlet;
#X obj 22 35 \$3;
#X obj 22 83 10;
#X connect 0 0 3 0;
#X connect 1 0 4 0;
#X connect 1 1 2 0;
#X connect 3 0 1 0;
#X connect 4 0 2 0;
#X restore 514 173 pd init;
#X obj 254 27 route bang vol decay toxy help;
#X msg 367 57 -- dd.hh methods: --(range: 0-127)----- \, vol: volume
\, decay: decay \, toxy: 'brightness' filter;
#X obj 369 94 print dd.hh;
#X obj 568 345 outlet;
#X connect 1 0 6 0;
#X connect 2 0 24 0;
#X connect 3 0 8 0;
#X connect 3 0 2 0;
#X connect 4 0 21 0;
#X connect 5 0 7 0;
#X connect 6 0 9 0;
#X connect 7 0 6 1;
#X connect 8 0 23 0;
#X connect 9 0 10 0;
#X connect 10 0 15 0;
#X connect 11 0 26 0;
#X connect 12 0 11 0;
#X connect 12 1 11 1;
#X connect 13 0 5 0;
#X connect 14 0 16 0;
#X connect 14 0 39 0;
#X connect 17 0 14 0;
#X connect 18 0 9 1;
#X connect 18 0 10 1;
#X connect 19 0 36 0;
#X connect 20 0 28 0;
#X connect 21 0 22 0;
#X connect 23 0 1 0;
#X connect 24 0 1 1;
#X connect 25 0 18 0;
#X connect 26 0 32 0;
#X connect 27 0 28 1;
#X connect 28 0 12 0;
#X connect 29 0 32 1;
#X connect 30 0 29 0;
#X connect 31 0 30 0;
#X connect 32 0 13 0;
#X connect 32 0 17 0;
#X connect 33 0 27 0;
#X connect 34 0 31 0;
#X connect 35 0 25 0;
#X connect 36 0 20 0;
#X connect 36 1 27 0;
#X connect 36 2 31 0;
#X connect 36 3 25 0;
#X connect 36 4 37 0;
#X connect 37 0 38 0;
