#N canvas 626 109 814 748 10;
#X obj 27 421 line~;
#X obj 27 444 dbtorms~;
#X obj 14 474 *~;
#X msg 27 399 \$2 \, 0 \$1;
#X obj 211 312 noise~;
#X obj 224 466 line~;
#X obj 224 489 dbtorms~;
#X obj 211 514 *~;
#X msg 224 444 \$2 \, 0 \$1;
#X obj 322 525 line~;
#X obj 322 548 dbtorms~;
#X obj 296 572 *~;
#X msg 322 503 \$2 \, 0 \$1;
#X obj 114 453 line~;
#X obj 114 476 dbtorms~;
#X obj 101 506 *~;
#X msg 114 431 \$2 \, 0 \$1;
#X obj 114 411 pack 0 100;
#X obj 101 313 * 0.560606;
#X obj 128 367 * 0.5;
#X obj 27 378 pack 0 80;
#X obj 200 666 *~;
#X obj 323 483 pack 0 94;
#X obj 336 440 * 0.4;
#X obj 249 376 * 0.2;
#X obj 225 424 pack 0 94;
#X obj 27 313 f;
#X obj 14 343 osc~;
#X obj 101 347 osc~;
#X obj 114 391 f;
#X obj 211 335 lop~;
#X obj 211 356 lop~;
#X obj 224 398 f;
#X obj 296 412 hip~;
#X obj 296 434 hip~;
#X obj 323 462 f;
#X obj 384 270 exp;
#X obj 384 248 min 10;
#X obj 432 248 max 10;
#X obj 432 269 - 9;
#X obj 432 292 * 4;
#X obj 432 314 exp;
#X obj 384 224 + 6;
#X obj 239 545 * 2;
#X msg 185 569 2;
#X obj 185 591 -;
#X obj 172 635 *~;
#X obj 225 635 *~;
#X obj 185 613 min 1;
#X obj 239 595 min 1;
#X obj 60 316 0.25;
#X obj 227 209 t b f;
#X obj 73 208 * 0.5;
#X obj 464 492 switch~;
#N canvas 690 540 212 160 snare.switch 0;
#X obj 15 56 del;
#X obj 15 35 t b f b;
#X obj 52 73 1;
#X obj 15 76 0;
#X obj 15 97 f;
#X obj 15 11 inlet;
#X obj 15 128 outlet;
#X obj 83 127 s \$0-snare.switch;
#X connect 0 0 3 0;
#X connect 1 0 0 0;
#X connect 1 1 0 1;
#X connect 1 2 2 0;
#X connect 2 0 4 0;
#X connect 3 0 4 0;
#X connect 4 0 6 0;
#X connect 4 0 7 0;
#X connect 5 0 1 0;
#X restore 464 451 pd snare.switch;
#X obj 201 691 outlet~;
#X obj 227 166 exp;
#X obj 227 146 + 5.4;
#X obj 227 125 * 0.0206;
#X obj 157 164 exp;
#X obj 157 144 + 4.61;
#X obj 157 123 * 0.019;
#X obj 158 193 t a;
#X obj 73 136 / 127;
#X obj 306 112 / 127;
#X obj 384 113 / 127;
#X obj 384 137 * 5.5;
#X obj 22 183 b;
#X obj 22 28 inlet;
#X obj 257 259 f;
#N canvas 405 179 104 155 init 0;
#X obj 22 13 loadbang;
#X obj 22 35 \$1;
#X obj 22 61 sel 0;
#X obj 22 107 outlet;
#X obj 22 83 60;
#X connect 0 0 1 0;
#X connect 1 0 2 0;
#X connect 2 0 4 0;
#X connect 2 1 3 0;
#X connect 4 0 3 0;
#X restore 90 85 pd init;
#N canvas 405 179 104 155 init 0;
#X obj 22 13 loadbang;
#X obj 22 61 sel 0;
#X obj 22 107 outlet;
#X obj 22 35 \$2;
#X obj 22 83 60;
#X connect 0 0 3 0;
#X connect 1 0 4 0;
#X connect 1 1 2 0;
#X connect 3 0 1 0;
#X connect 4 0 2 0;
#X restore 179 84 pd init;
#N canvas 405 179 104 155 init 0;
#X obj 22 13 loadbang;
#X obj 22 61 sel 0;
#X obj 22 107 outlet;
#X obj 22 35 \$3;
#X obj 22 83 20;
#X connect 0 0 3 0;
#X connect 1 0 4 0;
#X connect 1 1 2 0;
#X connect 3 0 1 0;
#X connect 4 0 2 0;
#X restore 253 81 pd init;
#N canvas 405 179 104 155 init 0;
#X obj 22 13 loadbang;
#X obj 22 61 sel 0;
#X obj 22 107 outlet;
#X obj 22 35 \$4;
#X obj 22 83 50;
#X connect 0 0 3 0;
#X connect 1 0 4 0;
#X connect 1 1 2 0;
#X connect 3 0 1 0;
#X connect 4 0 2 0;
#X restore 315 83 pd init;
#N canvas 405 179 104 155 init 0;
#X obj 22 13 loadbang;
#X obj 22 61 sel 0;
#X obj 22 107 outlet;
#X obj 22 35 \$5;
#X obj 22 82 60;
#X connect 0 0 3 0;
#X connect 1 0 4 0;
#X connect 1 1 2 0;
#X connect 3 0 1 0;
#X connect 4 0 2 0;
#X restore 398 83 pd init;
#X obj 22 51 route bang vol dec tun mix noise help;
#X obj 443 220 print dd.sn;
#X msg 444 170 -- dd.sn-methods -- (range: 0-127) \, vol: volume \,
dec: decay \, tun: tune of the membrane \, mix: mix between snappy
and membrane \, noise: ?;
#X obj 544 496 outlet;
#X connect 0 0 1 0;
#X connect 1 0 2 1;
#X connect 2 0 46 0;
#X connect 3 0 0 0;
#X connect 4 0 30 0;
#X connect 5 0 6 0;
#X connect 6 0 7 1;
#X connect 7 0 47 0;
#X connect 8 0 5 0;
#X connect 9 0 10 0;
#X connect 10 0 11 1;
#X connect 11 0 47 0;
#X connect 12 0 9 0;
#X connect 13 0 14 0;
#X connect 14 0 15 1;
#X connect 15 0 46 0;
#X connect 16 0 13 0;
#X connect 17 0 16 0;
#X connect 18 0 28 0;
#X connect 19 0 29 1;
#X connect 20 0 3 0;
#X connect 21 0 55 0;
#X connect 22 0 12 0;
#X connect 23 0 35 1;
#X connect 24 0 32 1;
#X connect 25 0 8 0;
#X connect 26 0 20 0;
#X connect 27 0 2 0;
#X connect 28 0 15 0;
#X connect 29 0 17 0;
#X connect 30 0 31 0;
#X connect 31 0 7 0;
#X connect 31 0 33 0;
#X connect 32 0 25 0;
#X connect 33 0 34 0;
#X connect 34 0 11 0;
#X connect 35 0 22 0;
#X connect 36 0 31 1;
#X connect 36 0 30 1;
#X connect 37 0 36 0;
#X connect 38 0 39 0;
#X connect 39 0 40 0;
#X connect 40 0 41 0;
#X connect 41 0 33 1;
#X connect 41 0 34 1;
#X connect 42 0 37 0;
#X connect 42 0 38 0;
#X connect 43 0 45 1;
#X connect 43 0 44 0;
#X connect 43 0 49 0;
#X connect 44 0 45 0;
#X connect 45 0 48 0;
#X connect 46 0 21 0;
#X connect 47 0 21 0;
#X connect 48 0 46 1;
#X connect 49 0 47 1;
#X connect 50 0 27 1;
#X connect 50 0 28 1;
#X connect 51 1 27 0;
#X connect 51 1 18 0;
#X connect 52 0 21 1;
#X connect 54 0 53 0;
#X connect 54 0 78 0;
#X connect 56 0 51 0;
#X connect 57 0 56 0;
#X connect 58 0 57 0;
#X connect 59 0 62 0;
#X connect 60 0 59 0;
#X connect 61 0 60 0;
#X connect 62 0 26 1;
#X connect 62 0 19 0;
#X connect 62 0 24 0;
#X connect 62 0 23 0;
#X connect 62 0 69 1;
#X connect 63 0 52 0;
#X connect 64 0 43 0;
#X connect 65 0 66 0;
#X connect 66 0 42 0;
#X connect 67 0 26 0;
#X connect 67 0 50 0;
#X connect 67 0 29 0;
#X connect 67 0 32 0;
#X connect 67 0 35 0;
#X connect 67 0 69 0;
#X connect 68 0 75 0;
#X connect 69 0 54 0;
#X connect 70 0 63 0;
#X connect 71 0 61 0;
#X connect 72 0 58 0;
#X connect 73 0 64 0;
#X connect 74 0 65 0;
#X connect 75 0 67 0;
#X connect 75 1 63 0;
#X connect 75 2 61 0;
#X connect 75 3 58 0;
#X connect 75 4 64 0;
#X connect 75 5 65 0;
#X connect 75 6 77 0;
#X connect 77 0 76 0;
