#N canvas 601 22 745 732 10;
#X msg 261 57 phrygian;
#X msg 330 33 pentatonic;
#X msg 328 59 mixolydian;
#X obj 300 144 s mode;
#X msg 262 30 aeolian;
#X msg 242 80 ionian;
#X msg 326 83 dorian;
#X msg 324 103 lydian;
#X obj 188 184 r mode;
#X obj 284 176 + 1;
#X obj 311 176 % 8;
#X obj 253 151 bng 15 250 50 0 empty empty empty 17 7 0 10 -262144
-1 -1;
#X obj 258 175 f 0;
#X obj 257 200 + 1;
#X obj 41 335 moses;
#X obj 76 284 +;
#X obj 72 310 / 2;
#X obj 71 355 moses;
#X obj 106 284 +;
#X obj 102 310 / 2;
#X obj 111 335 moses;
#X obj 146 284 +;
#X obj 142 310 / 2;
#X obj 141 357 moses;
#X obj 176 284 +;
#X obj 172 310 / 2;
#X obj 181 335 moses;
#X obj 212 284 +;
#X obj 212 310 / 2;
#X obj 211 357 moses;
#X obj 242 284 +;
#X obj 242 310 / 2;
#X msg 31 422 1;
#X msg 70 420 2;
#X msg 104 422 3;
#X msg 148 422 4;
#X msg 185 423 5;
#X msg 218 423 6;
#X obj 25 232 t f f;
#X obj 24 261 -;
#X obj 29 207 / 12;
#X obj 54 250 int;
#X obj 24 283 * 12;
#X obj 29 165 ftom;
#X obj 28 143 change;
#X obj 96 481 f;
#X obj 106 505 change;
#X obj 81 523 t b f;
#X obj 79 582 f;
#X obj 142 191 f;
#X floatatom 139 157 5 0 0 0 - - -;
#X msg 235 109 locrian;
#X msg 418 176 1;
#X obj 143 116 loadbang;
#X msg 141 137 6;
#X obj 141 223 d-modes aeolian;
#X obj 226 6 loadbang;
#X obj 84 73 unpack;
#X obj 82 551 nm_debounce 50;
#X obj 26 21 inlet~;
#X obj 290 321 outlet;
#X obj 17 51 fiddle~ 2048 1 6 1;
#X obj 305 300 change;
#X connect 0 0 3 0;
#X connect 1 0 3 0;
#X connect 2 0 3 0;
#X connect 4 0 3 0;
#X connect 5 0 3 0;
#X connect 6 0 3 0;
#X connect 7 0 3 0;
#X connect 8 0 55 1;
#X connect 9 0 10 0;
#X connect 10 0 12 1;
#X connect 11 0 12 0;
#X connect 12 0 9 0;
#X connect 12 0 13 0;
#X connect 13 0 55 2;
#X connect 14 0 32 0;
#X connect 14 1 17 0;
#X connect 15 0 16 0;
#X connect 16 0 14 1;
#X connect 17 0 33 0;
#X connect 17 1 20 0;
#X connect 18 0 19 0;
#X connect 19 0 17 1;
#X connect 20 0 34 0;
#X connect 20 1 23 0;
#X connect 21 0 22 0;
#X connect 22 0 20 1;
#X connect 23 0 35 0;
#X connect 23 1 26 0;
#X connect 24 0 25 0;
#X connect 25 0 23 1;
#X connect 26 0 36 0;
#X connect 26 1 29 0;
#X connect 27 0 28 0;
#X connect 28 0 26 1;
#X connect 29 0 37 0;
#X connect 30 0 31 0;
#X connect 31 0 29 1;
#X connect 32 0 45 0;
#X connect 33 0 45 0;
#X connect 34 0 45 0;
#X connect 35 0 45 0;
#X connect 36 0 45 0;
#X connect 37 0 45 0;
#X connect 38 0 39 0;
#X connect 38 1 41 0;
#X connect 39 0 42 0;
#X connect 40 0 38 0;
#X connect 41 0 39 1;
#X connect 42 0 14 0;
#X connect 43 0 40 0;
#X connect 44 0 43 0;
#X connect 45 0 46 0;
#X connect 45 0 47 0;
#X connect 46 0 48 0;
#X connect 47 0 58 0;
#X connect 47 1 48 1;
#X connect 48 0 55 2;
#X connect 49 0 55 0;
#X connect 50 0 49 0;
#X connect 51 0 3 0;
#X connect 52 0 55 2;
#X connect 53 0 54 0;
#X connect 54 0 50 0;
#X connect 55 0 15 0;
#X connect 55 1 15 1;
#X connect 55 1 18 0;
#X connect 55 2 18 1;
#X connect 55 2 21 0;
#X connect 55 3 21 1;
#X connect 55 3 24 0;
#X connect 55 4 24 1;
#X connect 55 4 27 0;
#X connect 55 5 27 1;
#X connect 55 5 30 0;
#X connect 55 6 30 1;
#X connect 55 8 62 0;
#X connect 56 0 4 0;
#X connect 57 0 44 0;
#X connect 58 0 48 0;
#X connect 59 0 61 0;
#X connect 61 2 57 0;
#X connect 62 0 60 0;
