#N canvas 15 22 787 660 10;
#X obj 24 28 inlet~;
#X obj 24 519 outlet~;
#X obj 136 505 *~;
#X obj 69 200 tgl 15 0 empty empty empty 0 -6 0 8 -262144 -1 -1 0 1
;
#X obj 69 290 select 0 1;
#X msg 69 327 1;
#X msg 101 327 0;
#X msg 164 327 1;
#X msg 132 327 0;
#X obj 53 376 *~;
#X obj 90 376 *~;
#X obj 53 401 +~;
#X obj 152 28 inlet;
#X obj 84 28 inlet;
#N canvas 0 22 507 270 xfade~ 0;
#X obj 33 26 inlet~;
#X obj 27 188 outlet~;
#X obj 33 128 *~;
#X obj 110 126 *~;
#X obj 126 102 clip 0 1;
#X obj 59 102 clip 0 1;
#X obj 110 25 inlet~;
#X obj 174 25 inlet;
#X text 172 50 0 to 1 xfade amount;
#X text 213 118 with 2 different ins;
#X text 212 104 for even centre level;
#X text 212 132 need 0.707 at centre;
#X text 212 147 but for even level for;
#X text 212 161 each input \, need 1 at centre;
#X text 101 191 for the delay application \, 0.707 works well;
#X text 249 222 17/3/2007;
#X text 222 207 nick mariette;
#X floatatom 327 19 5 0 0 0 - - -;
#X floatatom 321 73 5 0 0 0 - - -;
#X obj 320 48 expr sin($f1*0.5*3.14159);
#X obj 376 69 expr sqrt($f1);
#X floatatom 378 90 5 0 0 0 - - -;
#X obj 126 65 expr sin($f1*1.57);
#X obj 59 84 expr sin((1-$f1)*1.57);
#X connect 0 0 2 0;
#X connect 2 0 1 0;
#X connect 3 0 1 0;
#X connect 4 0 3 1;
#X connect 5 0 2 1;
#X connect 6 0 3 0;
#X connect 7 0 22 0;
#X connect 7 0 23 0;
#X connect 17 0 19 0;
#X connect 17 0 20 0;
#X connect 19 0 18 0;
#X connect 20 0 21 0;
#X connect 22 0 4 0;
#X connect 23 0 5 0;
#X restore 24 489 pd xfade~;
#X text 297 98 this can't have smooth variable loopsize while it uses
delwrite and delread because those objects only take control data input
for the length of the delay. to get a smooth variable loopsize requires
the use of a tabwrite tabread pair - both of which can use audio rate
control inputs - in a phasor form \, but that's fine \, just means
some further manipulation to massage the control signals as desired.
;
#X obj 359 505 *~;
#X msg 208 327 1;
#X msg 240 327 0;
#X msg 306 327 1;
#X msg 273 327 0;
#X obj 192 376 *~;
#X obj 229 376 *~;
#X obj 192 401 +~;
#X obj 208 290 select 1 0;
#X obj 85 441 *~;
#X obj 53 441 *~;
#X msg 69 175 bang;
#X text 297 62 always has a complete new loop;
#X text 196 27 delay time;
#X obj 285 27 inlet;
#X text 331 28 xfade amount;
#X text 95 473 xfade between passthrough and delay;
#X text 387 203 Nick Mariette;
#X text 388 218 17/3/2007;
#X text 88 5 bang to get new loop;
#X obj 505 325 clip 0 1;
#X obj 528 25 inlet;
#X text 578 25 feedback 0-1;
#X text 301 552 10 seconds memory;
#X obj 518 297 1;
#X obj 531 257 loadbang;
#X obj 136 530 delwrite~ \$0-delayline \$1;
#X obj 359 530 delwrite~ \$0-delayline2 \$1;
#X obj 153 180 sig~;
#X obj 229 265 vd~ \$0-delayline2;
#X obj 90 241 vd~ \$0-delayline;
#X connect 0 0 9 0;
#X connect 0 0 21 0;
#X connect 0 0 14 0;
#X connect 2 0 42 0;
#X connect 3 0 4 0;
#X connect 3 0 24 0;
#X connect 4 0 5 0;
#X connect 4 0 8 0;
#X connect 4 1 6 0;
#X connect 4 1 7 0;
#X connect 5 0 9 1;
#X connect 5 0 25 1;
#X connect 6 0 9 1;
#X connect 6 0 25 1;
#X connect 7 0 10 1;
#X connect 7 0 26 1;
#X connect 8 0 10 1;
#X connect 8 0 26 1;
#X connect 9 0 11 0;
#X connect 10 0 11 1;
#X connect 11 0 2 0;
#X connect 11 0 26 0;
#X connect 12 0 44 0;
#X connect 13 0 27 0;
#X connect 14 0 1 0;
#X connect 16 0 43 0;
#X connect 17 0 21 1;
#X connect 18 0 21 1;
#X connect 19 0 22 1;
#X connect 20 0 22 1;
#X connect 21 0 23 0;
#X connect 22 0 23 1;
#X connect 23 0 16 0;
#X connect 23 0 25 0;
#X connect 24 0 17 0;
#X connect 24 0 20 0;
#X connect 24 1 18 0;
#X connect 24 1 19 0;
#X connect 25 0 14 1;
#X connect 26 0 14 1;
#X connect 27 0 3 0;
#X connect 30 0 14 2;
#X connect 36 0 16 1;
#X connect 36 0 2 1;
#X connect 37 0 36 0;
#X connect 40 0 36 0;
#X connect 41 0 40 0;
#X connect 44 0 46 0;
#X connect 44 0 45 0;
#X connect 45 0 22 0;
#X connect 46 0 10 0;
