#N canvas 0 22 586 314 10;
#X obj 115 23 inlet~;
#X obj 107 278 outlet~;
#X obj 126 208 line~;
#X obj 236 35 route bang;
#X obj 236 13 inlet;
#X msg 133 186 1 \$1;
#X obj 108 252 *~;
#X msg 338 184 0 \$1;
#X text 12 64 arguments:;
#X text 413 196 to fix up envelope;
#X obj 135 136 f \$1;
#X msg 184 191 \$1 \$2;
#X obj 183 166 pack \$3 \$2;
#X obj 341 159 f \$4;
#X obj 186 141 delay;
#X obj 185 120 f \$2;
#X obj 335 133 delay;
#X obj 315 82 f \$2;
#X obj 338 109 +;
#X obj 354 83 f \$1;
#X obj 326 59 t b b;
#X obj 508 20 inlet;
#X text 9 121 3 <sustain level 0-1>;
#X text 8 85 1 <attack time ms>;
#X text 8 102 2 <decay time ms>;
#X text 9 140 3 <release time ms>;
#X obj 129 229 *~;
#X text 177 233 square to make cheap curved envelope;
#X connect 0 0 6 0;
#X connect 2 0 26 0;
#X connect 2 0 26 1;
#X connect 3 0 15 0;
#X connect 3 0 10 0;
#X connect 3 0 20 0;
#X connect 4 0 3 0;
#X connect 5 0 2 0;
#X connect 6 0 1 0;
#X connect 7 0 2 0;
#X connect 10 0 5 0;
#X connect 11 0 2 0;
#X connect 12 0 11 0;
#X connect 13 0 7 0;
#X connect 14 0 12 0;
#X connect 15 0 14 0;
#X connect 16 0 13 0;
#X connect 17 0 18 0;
#X connect 18 0 16 0;
#X connect 19 0 18 1;
#X connect 20 0 17 0;
#X connect 20 1 19 0;
#X connect 21 0 13 1;
#X connect 26 0 6 1;
