#N canvas 12 22 463 473 10;
#X obj 115 16 inlet~;
#X obj 147 435 outlet~;
#X obj 245 82 env~;
#X floatatom 150 88 5 0 0 0 - - -;
#X floatatom 296 88 5 0 0 0 - - -;
#X obj 178 11 inlet;
#X obj 126 203 expr 1000 / $f1;
#X text 129 184 frequency to ms;
#X text 167 31 was doing fm synth then adding an osc;
#X obj 239 291 *~ 0.9;
#X obj 102 265 clip~ -1 1;
#X obj 148 379 *~;
#X obj 171 334 dbtorms;
#X obj 169 358 clip 0 1;
#X obj 246 110 * 6;
#X obj 83 135 *~ 2;
#X obj 100 289 bp~ 440 2;
#X obj 118 229 delread~ \$1 100;
#X obj 237 310 delwrite~ \$1 1000;
#X connect 0 0 2 0;
#X connect 0 0 15 0;
#X connect 2 0 14 0;
#X connect 3 0 15 1;
#X connect 4 0 14 1;
#X connect 5 0 6 0;
#X connect 6 0 17 0;
#X connect 9 0 18 0;
#X connect 10 0 9 0;
#X connect 10 0 16 0;
#X connect 11 0 1 0;
#X connect 12 0 13 0;
#X connect 13 0 11 1;
#X connect 14 0 12 0;
#X connect 14 0 16 1;
#X connect 15 0 10 0;
#X connect 16 0 11 0;
#X connect 17 0 10 0;
