#N canvas 240 22 797 296 10;
#X obj 78 123 f;
#X obj 109 123 + 1;
#X msg 66 102 0;
#X obj 78 168 route 1;
#X obj 84 26 inlet;
#X obj 77 218 outlet;
#X text 163 36 takes 1s and 0s in;
#X text 164 52 counts 1s;
#X text 163 67 bangs output when over <threshold> of 1s;
#X obj 78 146 > \$1;
#X obj 68 49 route float bang;
#X obj 73 76 route 1;
#X connect 0 0 1 0;
#X connect 0 0 9 0;
#X connect 1 0 0 1;
#X connect 2 0 0 0;
#X connect 3 0 2 0;
#X connect 3 0 5 0;
#X connect 4 0 10 0;
#X connect 9 0 3 0;
#X connect 10 0 11 0;
#X connect 10 1 0 0;
#X connect 11 0 0 0;
