#N canvas 0 22 450 300 10;
#X obj 96 84 + 1;
#X obj 65 84 f 1;
#X obj 67 111 + 1;
#X obj 64 37 inlet;
#X msg 66 58 bang;
#X obj 127 84 mod \$1;
#X obj 163 38 inlet;
#X obj 68 154 outlet;
#X text 61 200 counter 1-n;
#X text 60 236 1 bang for next number;
#X text 62 220 inlets;
#X text 62 253 2 max number to count to (also argument 1);
#X text 188 200 Nick Mariette nmariette@gmail.com;
#X connect 0 0 5 0;
#X connect 1 0 0 0;
#X connect 1 0 2 0;
#X connect 2 0 7 0;
#X connect 3 0 4 0;
#X connect 4 0 1 0;
#X connect 5 0 1 1;
#X connect 6 0 5 1;
