#N canvas 0 22 450 300 10;
#X obj 118 79 + 1;
#X msg 9 81 0;
#X obj 89 226 route 1;
#X msg 83 53 bang;
#X obj 83 80 f 0;
#X obj 91 205 == 0;
#X obj 71 21 inlet;
#X obj 88 253 outlet;
#X text 137 53 bangs once out for every x bangs in;
#X obj 125 19 inlet;
#X obj 8 61 sel \$1;
#X connect 0 0 4 1;
#X connect 1 0 4 0;
#X connect 2 0 7 0;
#X connect 3 0 4 0;
#X connect 4 0 0 0;
#X connect 4 0 5 0;
#X connect 4 0 10 0;
#X connect 5 0 2 0;
#X connect 6 0 3 0;
#X connect 9 0 10 1;
#X connect 10 0 1 0;
