#N canvas 0 22 450 300 10;
#X obj 119 47 inlet~;
#X obj 198 48 inlet;
#X obj 120 184 outlet~;
#X obj 213 186 outlet~;
#X obj 128 134 *~;
#X obj 199 86 * -1;
#X obj 203 112 + 1;
#X obj 200 146 *~;
#X connect 0 0 4 0;
#X connect 0 0 7 0;
#X connect 1 0 5 0;
#X connect 1 0 4 1;
#X connect 4 0 2 0;
#X connect 5 0 6 0;
#X connect 6 0 7 1;
#X connect 7 0 3 0;
