#N canvas 277 194 454 304 12;
#X obj 114 33 bng 30 250 50 0 empty empty empty 0 -6 0 8 -241291 -1
-1;
#X obj 114 95 timer;
#X obj 114 69 t b b;
#X obj 114 173 /;
#X msg 76 148 1;
#X floatatom 114 225 5 0 0 0 - - -;
#X obj 114 147 / 1000;
#X obj 114 199 * 60;
#X text 176 229 bpm;
#X text 171 38 tap;
#N canvas 0 22 513 443 mavg3 0;
#X obj 187 14 inlet;
#X obj 187 392 outlet;
#X msg 290 84 bang;
#X obj 309 129 + 1;
#X msg 201 159 0;
#X obj 271 129 f 0;
#X obj 203 115 route 3;
#X obj 202 138 == 1;
#X obj 348 200 == 0;
#X msg 347 246 bang;
#X obj 347 223 route 1;
#X msg 195 239 bang;
#X obj 195 216 route 1;
#X msg 270 243 bang;
#X obj 270 220 route 1;
#X obj 196 193 == 1;
#X obj 271 197 == 2;
#X obj 186 367 expr ($f1+$f2+$f3)/3;
#X obj 185 42 t b f b;
#X obj 197 262 f 0;
#X obj 270 266 f 0;
#X obj 350 267 f 0;
#X obj 199 314 f 0;
#X obj 242 314 f 0;
#X obj 278 314 f 0;
#X obj 227 342 t b f;
#X obj 281 342 t b f;
#X connect 0 0 18 0;
#X connect 2 0 5 0;
#X connect 2 0 22 0;
#X connect 2 0 23 0;
#X connect 2 0 24 0;
#X connect 3 0 5 1;
#X connect 4 0 5 0;
#X connect 5 0 3 0;
#X connect 5 0 6 0;
#X connect 5 0 8 0;
#X connect 5 0 15 0;
#X connect 5 0 16 0;
#X connect 6 0 7 0;
#X connect 7 0 4 0;
#X connect 8 0 10 0;
#X connect 9 0 21 0;
#X connect 10 0 9 0;
#X connect 11 0 19 0;
#X connect 12 0 11 0;
#X connect 13 0 20 0;
#X connect 14 0 13 0;
#X connect 15 0 12 0;
#X connect 16 0 14 0;
#X connect 17 0 1 0;
#X connect 18 0 2 0;
#X connect 18 1 19 1;
#X connect 18 1 20 1;
#X connect 18 1 21 1;
#X connect 19 0 22 1;
#X connect 20 0 23 1;
#X connect 21 0 24 1;
#X connect 22 0 17 0;
#X connect 23 0 25 0;
#X connect 24 0 26 0;
#X connect 25 0 17 0;
#X connect 25 1 17 1;
#X connect 26 0 17 0;
#X connect 26 1 17 2;
#X restore 115 120 pd mavg3;
#X obj 58 21 inlet;
#X msg 58 45 bang;
#X obj 104 267 outlet;
#X connect 0 0 2 0;
#X connect 1 0 10 0;
#X connect 2 0 1 0;
#X connect 2 0 4 0;
#X connect 2 1 1 1;
#X connect 3 0 7 0;
#X connect 4 0 3 0;
#X connect 6 0 3 1;
#X connect 7 0 5 0;
#X connect 7 0 13 0;
#X connect 10 0 6 0;
#X connect 11 0 12 0;
#X connect 12 0 2 0;
