#N canvas 0 22 815 800 10;
#X obj 77 25 inlet~;
#X obj 77 632 outlet~;
#X obj 77 526 *~;
#X obj 306 333 moses 1;
#X obj 306 377 pack 0 20;
#X obj 382 377 pack 0 200;
#X obj 88 53 env~;
#X obj 482 245 / 100;
#X msg 482 266 1 \$1;
#X obj 331 245 line;
#X msg 331 224 \$1 50;
#X obj 306 439 vline~;
#X obj 515 435 vline~;
#X obj 482 287 -;
#X obj 522 308 *;
#X obj 529 287 t b f;
#X obj 522 329 t b f;
#X obj 515 351 +;
#X msg 515 372 1 \$1;
#X obj 515 393 /;
#X msg 529 245 1 \$1;
#X obj 529 266 /;
#X msg 515 414 \$1 50;
#X text 359 465 compensate for thresh & ratio;
#X obj 349 153 f \$1;
#X obj 394 153 f \$2;
#X obj 443 153 f \$3;
#X obj 493 153 f \$4;
#N canvas 0 22 656 407 compress 0;
#X obj 80 107 - 80;
#X obj 80 131 moses 0;
#X obj 126 154 / 4;
#X floatatom 164 69 5 0 0 2 thresh - -;
#X floatatom 212 68 5 1 100 2 ratio - -;
#X obj 126 175 + 80;
#X obj 126 196 -;
#X obj 126 237 dbtorms;
#X obj 126 216 + 100;
#X obj 80 81 t f f;
#X obj 164 15 inlet;
#X obj 212 14 inlet;
#X msg 80 255 1;
#X text 13 160 linear;
#X obj 80 315 outlet;
#X obj 80 23 inlet;
#X text 128 108 calculate the compression factor;
#X text 164 153 apply the ratio;
#X text 151 130 compress if we are over 0;
#X text 161 196 get the difference in level to the original;
#X text 180 218 convert dB to factor (in pd 0 dB == 100);
#X text 154 306 http://lists.puredata.info/pipermail/pd-list/2008-10/065509.html
;
#X text 154 284 by Gunter Geiger \, reference:;
#X connect 0 0 1 0;
#X connect 1 0 12 0;
#X connect 1 1 2 0;
#X connect 2 0 5 0;
#X connect 3 0 0 1;
#X connect 3 0 5 1;
#X connect 4 0 2 1;
#X connect 5 0 6 0;
#X connect 6 0 8 0;
#X connect 7 0 14 0;
#X connect 8 0 7 0;
#X connect 9 0 0 0;
#X connect 9 1 6 1;
#X connect 10 0 3 0;
#X connect 11 0 4 0;
#X connect 12 0 14 0;
#X connect 15 0 9 0;
#X restore 306 270 pd compress;
#X msg 349 76 bang;
#X obj 349 53 route bang float;
#X obj 349 25 inlet;
#X obj 394 25 inlet;
#X obj 443 25 inlet;
#X obj 493 25 inlet;
#X text 343 680 nmariette@gmail.com;
#X text 343 696 October 2008;
#X text 344 644 Nick Mariette;
#X text 343 662 http://soundsorange.net;
#X text 345 723 based on underlying compress patch by Gunter Geiger
;
#X obj 101 113 cnv 15 218 25 empty empty empty 5 45 1 8 -233017 -1
0;
#X floatatom 151 125 5 1 100 2 ratio - -;
#X floatatom 106 125 5 1 100 2 thresh - -;
#X floatatom 192 125 5 1 100 2 attack - -;
#X floatatom 236 125 5 1 200 2 decay - -;
#X obj 284 24 loadbang;
#X obj 287 125 bng 15 250 50 0 empty empty reset 0 -6 0 8 -262144 -1
-1;
#X obj 306 460 *~;
#X obj 284 50 t b b;
#X connect 0 0 6 0;
#X connect 0 0 2 0;
#X connect 2 0 1 0;
#X connect 3 0 4 0;
#X connect 3 1 5 0;
#X connect 4 0 11 0;
#X connect 5 0 11 0;
#X connect 6 0 28 0;
#X connect 7 0 8 0;
#X connect 7 0 17 0;
#X connect 8 0 13 0;
#X connect 9 0 28 1;
#X connect 10 0 9 0;
#X connect 11 0 47 0;
#X connect 12 0 47 1;
#X connect 13 0 14 0;
#X connect 14 0 16 0;
#X connect 15 0 14 0;
#X connect 15 1 14 1;
#X connect 16 0 17 0;
#X connect 16 1 17 1;
#X connect 17 0 18 0;
#X connect 18 0 19 0;
#X connect 19 0 22 0;
#X connect 20 0 21 0;
#X connect 21 0 15 0;
#X connect 22 0 12 0;
#X connect 24 0 42 0;
#X connect 25 0 41 0;
#X connect 26 0 43 0;
#X connect 27 0 44 0;
#X connect 28 0 3 0;
#X connect 29 0 24 0;
#X connect 29 0 25 0;
#X connect 29 0 26 0;
#X connect 29 0 27 0;
#X connect 30 0 29 0;
#X connect 30 1 42 0;
#X connect 31 0 30 0;
#X connect 32 0 41 0;
#X connect 33 0 43 0;
#X connect 34 0 44 0;
#X connect 41 0 20 0;
#X connect 41 0 28 2;
#X connect 42 0 10 0;
#X connect 42 0 7 0;
#X connect 43 0 4 1;
#X connect 44 0 5 1;
#X connect 45 0 48 0;
#X connect 46 0 29 0;
#X connect 47 0 2 1;
#X connect 48 0 29 0;
#X coords 0 -1 1 1 220 40 1 100 100;
