#N canvas 309 22 448 498 10;
#N canvas 323 629 347 233 bpm-to-ms 0;
#X obj 22 13 inlet;
#X obj 22 173 outlet;
#X obj 22 88 /;
#X obj 22 38 t b f;
#X msg 22 63 60000;
#X text 84 172 ms per bar;
#X text 73 12 bpm;
#X obj 123 13 inlet;
#X text 170 12 beats per bar;
#X obj 22 113 t b f;
#X obj 22 138 /;
#X connect 0 0 3 0;
#X connect 2 0 10 0;
#X connect 3 0 4 0;
#X connect 3 1 2 1;
#X connect 4 0 2 0;
#X connect 7 0 9 0;
#X connect 9 0 10 0;
#X connect 9 1 10 1;
#X connect 10 0 1 0;
#X restore 62 322 pd bpm-to-ms;
#X obj 298 403 *;
#X obj 298 378 t b f;
#X obj 81 387 *;
#X obj 81 362 t b f;
#X obj 62 297 r \$0-bpm;
#X obj 298 428 s \$0-loopsize;
#X obj 80 341 r \$0-loopsize;
#X obj 41 89 inlet~;
#X obj 38 435 outlet~;
#X obj 253 13 loadbang;
#X obj 99 88 inlet;
#X obj 98 110 route bang bpm measures feedback;
#X obj 314 83 inlet;
#X obj 38 414 nm-looper~ \$1;
#X msg 99 141 bang;
#X msg 120 385 1;
#X msg 145 269 4;
#X msg 90 278 120;
#X msg 350 402 4;
#X msg 321 356 4;
#X obj 178 377 loadbang;
#X msg 173 399 1;
#X connect 0 0 3 0;
#X connect 1 0 6 0;
#X connect 2 0 1 0;
#X connect 2 1 1 1;
#X connect 3 0 14 2;
#X connect 4 0 3 0;
#X connect 4 1 3 1;
#X connect 5 0 0 0;
#X connect 7 0 4 0;
#X connect 8 0 14 0;
#X connect 10 0 16 0;
#X connect 10 0 17 0;
#X connect 10 0 18 0;
#X connect 10 0 19 0;
#X connect 10 0 20 0;
#X connect 10 0 15 0;
#X connect 11 0 12 0;
#X connect 12 0 15 0;
#X connect 12 1 0 0;
#X connect 12 2 1 0;
#X connect 12 3 14 4;
#X connect 13 0 0 0;
#X connect 14 0 9 0;
#X connect 15 0 14 1;
#X connect 16 0 14 3;
#X connect 17 0 0 1;
#X connect 17 0 2 0;
#X connect 18 0 0 0;
#X connect 19 0 6 0;
#X connect 20 0 1 0;
#X connect 21 0 22 0;
#X connect 22 0 14 4;
#X coords 0 0 1 1 220 80 0;
