#N canvas 54 117 493 484 10;
#X obj 54 65 inlet~;
#X obj 54 197 -;
#X obj 54 337 sel 1;
#X obj 54 151 t f f;
#X obj 54 408 outlet;
#X obj 54 315 change;
#X obj 281 19 inlet;
#X obj 54 130 env~ \$1;
#X obj 143 31 loadbang;
#X obj 143 56 f \$2;
#X obj 143 81 select 0;
#X msg 143 106 25;
#X obj 54 273 > 25;
#X msg 97 290 set -1;
#X text 120 312 also reset on changes;
#X obj 137 246 t b f;
#X obj 54 223 t f f;
#X obj 54 371 f;
#X obj 281 44 route float compensate;
#X connect 0 0 7 0;
#X connect 1 0 16 0;
#X connect 2 0 17 0;
#X connect 3 0 1 1;
#X connect 3 1 1 0;
#X connect 5 0 2 0;
#X connect 6 0 18 0;
#X connect 7 0 3 0;
#X connect 8 0 9 0;
#X connect 9 0 10 0;
#X connect 10 0 11 0;
#X connect 10 1 12 1;
#X connect 11 0 12 1;
#X connect 12 0 5 0;
#X connect 13 0 5 0;
#X connect 15 0 13 0;
#X connect 15 1 12 1;
#X connect 16 0 12 0;
#X connect 16 1 17 1;
#X connect 17 0 4 0;
#X connect 18 0 15 0;
