#N canvas 300 64 395 246 10;
#N canvas 473 269 496 154 MODULE_INFO 0;
#X text 64 49 authors: Reality Jockey;
#X text 65 89 decorator: s1m1-s2m1;
#X text 65 110 tags:;
#X text 66 27 name: Sirensynth;
#X text 65 69 description: Shaking the device sets off a siren.;
#X restore 22 21 pd MODULE_INFO;
#X obj 23 69 inlet~ MIC;
#X obj 155 182 outlet;
#X obj 22 182 outlet~;
#X obj 82 182 outlet~;
#X obj 155 91 inlet;
#N canvas 605 166 393 323 \$0-PARAMETERS 0;
#X obj 19 187 outlet;
#X obj -48 107 s \$0-tick;
#X obj -48 45 inlet;
#X obj 106 132 cnv 15 187 37 empty empty empty 10 12 1 14 -162280 -262144
0;
#X obj 106 106 cnv 15 187 20 empty empty Sirensynth 55 11 1 14 -261234
-33289 0;
#X obj -48 77 route tick;
#X connect 2 0 5 0;
#X connect 5 0 1 0;
#X connect 5 1 0 0;
#X coords 0 -1 1 1 200 75 2 100 100;
#X restore 155 107 pd \$0-PARAMETERS;
#N canvas 147 36 543 381 \$0-DSP 0;
#N canvas 394 22 719 686 sirensynth 0;
#X obj 181 272 mtof;
#X obj 428 88 < 1.1;
#X obj 485 88 >= 1.2;
#X obj 546 88 <= 1.5;
#X obj 69 75 loadbang;
#X obj 181 155 line;
#X obj 254 274 mtof;
#X obj 254 251 + 7;
#X obj 181 379 *~;
#X obj 428 263 line;
#X msg 428 194 0;
#X obj 428 240 pack \$1 800;
#X obj 428 287 lop~ 80;
#X obj 428 168 sel 1;
#X obj 521 116 &&;
#X obj 521 168 sel 1;
#X obj 612 168 sel 1;
#X obj 181 127 pack \$1 3000;
#X obj 236 417 lop~ 20;
#X obj 181 95 + 30;
#X msg 69 108 30 10;
#X obj 612 88 > 1.5;
#X obj 428 137 change;
#X obj 612 137 change;
#X obj 521 137 change;
#X obj 181 299 phasor~;
#X obj 254 299 phasor~;
#X obj 181 195 clip 30 81;
#X obj 217 548 lop~ 20;
#X obj 182 600 *~;
#N canvas 0 22 450 300 megahip 0;
#X obj 73 100 hip~ 15000;
#X obj 73 122 hip~ 15000;
#X obj 73 149 hip~ 15000;
#X obj 73 51 inlet~;
#X obj 73 187 outlet~;
#X obj 304 51 inlet;
#X connect 0 0 1 0;
#X connect 1 0 2 0;
#X connect 2 0 4 0;
#X connect 3 0 0 0;
#X connect 5 0 0 1;
#X connect 5 0 1 1;
#X connect 5 0 2 1;
#X restore 182 487 pd megahip;
#X obj 262 444 loadbang;
#X msg 262 464 20;
#X obj 428 28 inlet;
#X obj 128 640 outlet~;
#X obj 182 640 outlet~;
#X msg 521 194 0.5;
#X msg 612 194 1;
#X obj 236 395 m_scale 0 1 0.01 1;
#X obj 181 57 m_scale 0 1 0 42;
#N canvas 0 22 648 647 explosion 0;
#X obj 114 55 bng 20 400 50 0 empty empty boom 0 -6 1 8 -262144 -33289
-33289;
#N canvas 131 35 293 592 pressurewave 0;
#X obj 149 525 *~;
#X obj 31 270 sig~ 1;
#X obj 31 292 -~;
#X obj 31 393 *~;
#X obj 1 462 lop~ 10000;
#X obj 31 313 *~ 500;
#X obj 31 415 hip~ 10;
#X obj 1 1 r~ \$0-feedback;
#X obj 1 25 delwrite~ \$0-variabledelay 10000;
#X obj 31 361 vd~ \$0-variabledelay;
#X obj 149 546 s~ \$0-feedback;
#X obj 91 245 -~ 0.0001;
#X obj 91 144 del 3;
#X obj 141 143 * 8000;
#X obj 1 246 inlet~ sound;
#X obj 121 73 inlet delay;
#X obj 141 119 inlet sweep;
#X obj 91 52 inlet trigger;
#X obj 165 478 inlet feedback;
#X obj 1 546 outlet~;
#X obj 121 97 * 100;
#X msg 91 202 1 \, 0 \$1;
#X obj 91 224 vline~;
#X obj 91 181 f 1000;
#X obj 165 502 * 0.99;
#X connect 0 0 10 0;
#X connect 1 0 2 0;
#X connect 2 0 5 0;
#X connect 3 0 6 0;
#X connect 4 0 0 0;
#X connect 4 0 19 0;
#X connect 5 0 9 0;
#X connect 6 0 4 0;
#X connect 7 0 8 0;
#X connect 9 0 3 0;
#X connect 11 0 2 1;
#X connect 11 0 3 1;
#X connect 12 0 23 0;
#X connect 13 0 23 1;
#X connect 14 0 4 0;
#X connect 15 0 20 0;
#X connect 16 0 13 0;
#X connect 17 0 12 0;
#X connect 18 0 24 0;
#X connect 20 0 12 1;
#X connect 21 0 22 0;
#X connect 22 0 11 0;
#X connect 23 0 21 0;
#X connect 24 0 0 1;
#X restore 113 353 pd pressurewave;
#X obj 216 336 hsl 64 12 0 1 0 1 empty empty feedback 15 6 1 8 -262144
-1 -1 4600 1;
#X obj 414 126 hsl 64 12 0 1 0 1 empty empty vol 15 6 1 8 -262144 -1
-1 3000 1;
#X obj 395 143 *~;
#X obj 395 165 throw~ out;
#X obj 398 187 hsl 64 12 0 1 0 1 empty empty fx 15 6 1 8 -262144 -1
-1 6300 1;
#X obj 379 204 *~;
#X obj 246 123 hsl 64 12 0 1 0 1 empty empty vol 15 6 1 8 -262144 -1
-1 6300 1;
#X obj 227 140 *~;
#X obj 227 162 throw~ out;
#X obj 220 187 hsl 64 12 0 1 0 1 empty empty fx 15 6 1 8 -262144 -1
-1 2400 1;
#X obj 201 204 *~;
#X obj 396 81 del 30;
#X obj 449 41 hsl 64 12 0 1 0 1 empty empty delay 15 6 1 8 -262144
-1 -1 1600 1;
#N canvas 329 191 208 358 fireball 0;
#X obj -36 130 noise~;
#X obj -36 256 *~;
#X obj 39 -52 inlet trigger;
#X obj -36 276 outlet~;
#X obj -36 172 lop~ 70;
#X obj -36 193 lop~ 70;
#X obj -36 151 bp~ 70 1;
#X obj 71 102 *~;
#X obj -36 235 hip~ 5;
#X obj 71 58 line;
#X obj 71 79 sig~;
#X obj 71 144 lop~ 5;
#X obj 39 -31 trigger b b;
#X obj 31 123 + 40;
#X msg 111 28 1 100;
#X obj 39 -8 del 100;
#X msg 39 29 0 8000;
#X obj 31 102 * 100;
#X obj 71 124 *~;
#X obj -36 214 *~ 10;
#X connect 0 0 6 0;
#X connect 1 0 3 0;
#X connect 2 0 12 0;
#X connect 4 0 5 0;
#X connect 5 0 19 0;
#X connect 6 0 4 0;
#X connect 7 0 18 0;
#X connect 7 0 18 1;
#X connect 8 0 1 0;
#X connect 9 0 10 0;
#X connect 9 0 17 0;
#X connect 10 0 7 0;
#X connect 10 0 7 1;
#X connect 11 0 1 1;
#X connect 12 0 15 0;
#X connect 12 1 14 0;
#X connect 13 0 5 1;
#X connect 13 0 4 1;
#X connect 13 0 6 1;
#X connect 14 0 9 0;
#X connect 15 0 16 0;
#X connect 16 0 9 0;
#X connect 17 0 13 0;
#X connect 18 0 11 0;
#X connect 19 0 8 0;
#X restore 396 103 pd fireball;
#N canvas 449 297 190 229 shockwave 0;
#X obj 2 170 cos~;
#X obj 2 87 line~;
#X obj 2 150 wrap~;
#X obj 2 110 *~;
#X obj 2 32 t b b;
#X msg 2 58 0 10;
#X obj 2 190 hip~ 1;
#X obj 2 3 inlet trigger;
#X obj 2 210 outlet~;
#X msg 37 59 1 0;
#X obj 2 130 *~ 5;
#X connect 0 0 6 0;
#X connect 1 0 3 0;
#X connect 1 0 3 1;
#X connect 2 0 0 0;
#X connect 3 0 10 0;
#X connect 4 0 5 0;
#X connect 4 1 9 0;
#X connect 5 0 1 0;
#X connect 6 0 8 0;
#X connect 7 0 4 0;
#X connect 9 0 1 0;
#X connect 10 0 2 0;
#X restore 113 165 pd shockwave;
#X obj 131 187 hsl 64 12 0 1 0 1 empty empty vol 15 6 1 8 -262144 -1
-1 6200 1;
#X obj 112 204 *~;
#X obj 112 226 throw~ out;
#X obj 191 318 hsl 64 12 0 1 0 1 empty empty sweep 15 6 1 8 -262144
-1 -1 4700 1;
#X obj 166 301 hsl 64 12 0 1 0 1 empty empty delay 15 6 1 8 -262144
-1 -1 3800 1;
#X obj 338 41 hsl 64 12 0 1 0 1 empty empty spread 15 6 1 8 -262144
-1 -1 2300 1;
#N canvas 143 170 222 478 blast 0;
#X obj 3 -21 noise~;
#X obj 4 211 *~;
#X obj 4 90 clip~ -1 1;
#X obj 4 46 hip~ 20;
#X obj 4 191 bp~ 6000 1;
#X obj 105 97 *~;
#X obj 4 171 cos~;
#X obj 76 -67 -;
#X obj 28 -62 * 7000;
#X obj 76 -94 swap 1;
#X obj 4 271 hip~ 20;
#X obj 4 251 hip~ 20;
#X obj 4 231 hip~ 20;
#X obj 4 151 *~;
#X obj 20 131 +~ 0.5;
#X obj 4 24 vcf~ 7000 2;
#X obj 40 0 line~;
#X obj 6 -145 inlet;
#X obj 6 -124 t b f f;
#X msg 28 -41 \$1 30;
#X obj 4 68 *~ 50;
#X obj 76 -22 + 1.5;
#X obj 76 -43 * 3.5;
#X obj 4 311 outlet~;
#X obj 4 291 *~ 0.3;
#X obj 105 71 vline~;
#X msg 105 48 1 \, 0 \$1;
#X obj 105 24 f;
#X obj 137 -142 inlet decay;
#X obj 137 -41 * 7000;
#X obj 121 2 *;
#X obj 28 -92 pow 2;
#X connect 0 0 15 0;
#X connect 1 0 12 0;
#X connect 2 0 13 0;
#X connect 3 0 20 0;
#X connect 4 0 1 0;
#X connect 5 0 1 1;
#X connect 5 0 14 0;
#X connect 6 0 4 0;
#X connect 7 0 22 0;
#X connect 7 0 30 0;
#X connect 8 0 19 0;
#X connect 9 0 7 0;
#X connect 9 1 7 1;
#X connect 10 0 24 0;
#X connect 11 0 10 0;
#X connect 12 0 11 0;
#X connect 13 0 6 0;
#X connect 14 0 13 1;
#X connect 15 0 3 0;
#X connect 16 0 15 1;
#X connect 17 0 18 0;
#X connect 18 0 27 0;
#X connect 18 1 31 0;
#X connect 18 2 9 0;
#X connect 19 0 16 0;
#X connect 20 0 2 0;
#X connect 21 0 15 2;
#X connect 22 0 21 0;
#X connect 24 0 23 0;
#X connect 25 0 5 0;
#X connect 25 0 5 1;
#X connect 26 0 25 0;
#X connect 27 0 26 0;
#X connect 28 0 29 0;
#X connect 29 0 30 1;
#X connect 30 0 27 1;
#X connect 31 0 8 0;
#X restore 228 96 pd blast;
#X obj 201 226 throw~ fx;
#X obj 379 226 throw~ fx;
#X obj 113 258 catch~ fx;
#X obj 113 390 *~;
#X obj 131 375 hsl 64 12 0 1 0 1 empty empty vol 15 6 1 8 -262144 -1
-1 2400 1;
#X obj 282 80 hsl 64 12 0 1 0 1 empty empty decay 15 6 1 8 -262144
-1 -1 2600 1;
#X obj 446 58 * 500;
#N canvas 509 110 245 430 blast 0;
#X obj 16 111 / 200;
#X obj 44 -71 del 80;
#X obj 120 11 random 5;
#X obj 120 33 + 25;
#X obj 120 -15 del 80;
#X obj 16 -131 random 8;
#X obj 16 -109 + 8;
#X obj 44 -48 random 10;
#X obj 44 -26 + 15;
#X obj 157 -132 random 100;
#X obj 81 -131 random 50;
#X obj 75 -173 t b b b b b;
#X obj 75 -202 del 30;
#X obj 112 -222 + 5;
#X obj 16 135 outlet noiseval;
#X obj 11 -272 inlet trigger;
#X obj 112 -273 inlet spread;
#X obj 158 -173 * 300;
#X obj 112 -243 * 100;
#X connect 0 0 14 0;
#X connect 1 0 4 0;
#X connect 1 0 7 0;
#X connect 2 0 3 0;
#X connect 3 0 0 0;
#X connect 4 0 2 0;
#X connect 5 0 6 0;
#X connect 6 0 0 0;
#X connect 7 0 8 0;
#X connect 8 0 0 0;
#X connect 9 0 4 1;
#X connect 10 0 1 1;
#X connect 11 0 1 0;
#X connect 11 1 5 0;
#X connect 11 2 10 0;
#X connect 11 3 9 0;
#X connect 12 0 11 0;
#X connect 13 0 12 1;
#X connect 15 0 12 0;
#X connect 16 0 17 0;
#X connect 16 0 18 0;
#X connect 17 0 10 1;
#X connect 17 0 9 1;
#X connect 18 0 13 0;
#X restore 228 59 pd blast control;
#X obj 114 79 s \$0-trig;
#X obj 228 35 r \$0-trig;
#X obj 376 58 r \$0-trig;
#X obj 113 143 r \$0-trig;
#X obj 138 277 r \$0-trig;
#X obj 322 328 clip~ -1 1;
#X obj 322 304 catch~ out;
#X obj 113 423 throw~ out;
#X obj 64 27 inlet;
#X obj 271 406 delread~ \$0-delay 200;
#X obj 271 429 e_pan 0.8;
#X obj 89 530 catch~ panl;
#X obj 179 530 catch~ panr;
#X obj 322 349 throw~ panl;
#X obj 332 369 throw~ panr;
#X obj 271 451 throw~ panl;
#X obj 355 451 throw~ panr;
#X obj 271 521 throw~ panl;
#X obj 355 521 throw~ panr;
#X obj 441 451 throw~ panl;
#X obj 525 451 throw~ panr;
#X obj 441 521 throw~ panl;
#X obj 525 521 throw~ panr;
#X obj 89 625 throw~ booml;
#X obj 179 625 throw~ boomr;
#X obj 441 429 e_pan 0.2;
#X obj 271 499 e_pan 0.4;
#X obj 441 499 e_pan 0.6;
#X obj 179 556 hip~ 80;
#X obj 89 556 hip~ 80;
#X obj 179 583 *~ 0.8;
#X obj 89 583 *~ 0.8;
#X obj 271 476 delread~ \$0-delay 800;
#X obj 441 406 delread~ \$0-delay 1200;
#X obj 441 476 delread~ \$0-delay 1600;
#X obj 443 358 delwrite~ \$0-delay 1600;
#X connect 0 0 32 0;
#X connect 1 0 27 0;
#X connect 2 0 1 4;
#X connect 3 0 4 1;
#X connect 4 0 5 0;
#X connect 6 0 7 1;
#X connect 7 0 25 0;
#X connect 8 0 9 1;
#X connect 9 0 10 0;
#X connect 11 0 12 1;
#X connect 12 0 24 0;
#X connect 13 0 15 0;
#X connect 14 0 30 0;
#X connect 15 0 4 0;
#X connect 15 0 7 0;
#X connect 16 0 18 0;
#X connect 17 0 18 1;
#X connect 18 0 19 0;
#X connect 20 0 1 3;
#X connect 21 0 1 2;
#X connect 22 0 31 1;
#X connect 23 0 9 0;
#X connect 23 0 12 0;
#X connect 26 0 1 0;
#X connect 27 0 39 0;
#X connect 28 0 27 1;
#X connect 29 0 23 1;
#X connect 30 0 13 1;
#X connect 31 0 23 0;
#X connect 33 0 31 0;
#X connect 34 0 13 0;
#X connect 35 0 16 0;
#X connect 36 0 1 1;
#X connect 37 0 45 0;
#X connect 37 0 46 0;
#X connect 37 0 67 0;
#X connect 38 0 37 0;
#X connect 40 0 0 0;
#X connect 41 0 42 0;
#X connect 42 0 47 0;
#X connect 42 1 48 0;
#X connect 43 0 61 0;
#X connect 44 0 60 0;
#X connect 57 0 51 0;
#X connect 57 1 52 0;
#X connect 58 0 49 0;
#X connect 58 1 50 0;
#X connect 59 0 53 0;
#X connect 59 1 54 0;
#X connect 60 0 62 0;
#X connect 61 0 63 0;
#X connect 62 0 56 0;
#X connect 63 0 55 0;
#X connect 64 0 58 0;
#X connect 65 0 57 0;
#X connect 66 0 59 0;
#X restore 482 531 pd explosion;
#X obj 182 451 *~;
#X obj 482 405 == 72;
#X obj 428 52 t f f f f;
#X obj 217 523 m_scale 0 1 0 0.5;
#X obj 482 465 sel 1;
#X obj 482 504 delay 800;
#X obj 482 426 change;
#X obj 128 600 *~ 0.4;
#X connect 0 0 25 0;
#X connect 1 0 22 0;
#X connect 2 0 14 0;
#X connect 3 0 14 1;
#X connect 4 0 20 0;
#X connect 5 0 27 0;
#X connect 5 0 42 0;
#X connect 6 0 26 0;
#X connect 7 0 6 0;
#X connect 8 0 41 0;
#X connect 9 0 12 0;
#X connect 9 0 38 0;
#X connect 9 0 39 0;
#X connect 9 0 44 0;
#X connect 10 0 11 0;
#X connect 11 0 9 0;
#X connect 12 0 8 1;
#X connect 13 0 10 0;
#X connect 14 0 24 0;
#X connect 15 0 36 0;
#X connect 16 0 37 0;
#X connect 17 0 5 0;
#X connect 18 0 41 1;
#X connect 19 0 17 0;
#X connect 20 0 5 0;
#X connect 21 0 23 0;
#X connect 22 0 13 0;
#X connect 23 0 16 0;
#X connect 24 0 15 0;
#X connect 25 0 8 0;
#X connect 26 0 8 0;
#X connect 27 0 0 0;
#X connect 27 0 7 0;
#X connect 28 0 29 1;
#X connect 29 0 35 0;
#X connect 30 0 29 0;
#X connect 30 0 48 0;
#X connect 31 0 32 0;
#X connect 32 0 30 1;
#X connect 33 0 43 0;
#X connect 36 0 11 0;
#X connect 37 0 11 0;
#X connect 38 0 18 0;
#X connect 39 0 19 0;
#X connect 41 0 30 0;
#X connect 42 0 47 0;
#X connect 43 0 1 0;
#X connect 43 1 2 0;
#X connect 43 2 3 0;
#X connect 43 3 21 0;
#X connect 44 0 28 0;
#X connect 45 0 46 0;
#X connect 46 0 40 0;
#X connect 47 0 45 0;
#X connect 48 0 34 0;
#X restore 105 86 pd sirensynth;
#N canvas 247 93 885 440 reverb 0;
#X text 316 170 hall: liveness \, 0-100 \, usually between 85 and 100
;
#X text 316 187 freq: crossover frequency in Hz. (3000 default);
#X text 316 207 damp: high frequency damping \, 0-100;
#X text 313 151 amp: output level \, dB \, 0-100;
#X obj 158 105 loadbang;
#X obj 48 141 hip~ 200;
#X msg 158 126 dry 0 \, amp 90 \, hall 85 \, freq 3000 \, damp 70;
#X obj 49 230 outlet~;
#X obj 158 230 outlet~;
#X obj 48 32 inlet~;
#X obj 49 191 e_reverb \$0-rev1;
#X connect 4 0 6 0;
#X connect 5 0 10 0;
#X connect 6 0 10 1;
#X connect 9 0 5 0;
#X connect 10 0 7 0;
#X connect 10 1 8 0;
#X restore 193 110 pd reverb;
#X obj 105 265 outlet~;
#X obj 253 265 outlet~;
#X obj 330 218 catch~ booml;
#X obj 289 175 catch~ boomr;
#X obj 105 48 inlet;
#X connect 0 0 2 0;
#X connect 0 0 3 0;
#X connect 0 1 1 0;
#X connect 1 0 2 0;
#X connect 1 1 3 0;
#X connect 4 0 3 0;
#X connect 5 0 2 0;
#X connect 6 0 0 0;
#X restore 22 138 pd \$0-DSP;
#N canvas 794 111 382 298 \$0-INPUT 0;
#X obj 139 40 m_accel_magnitude;
#X msg 139 94 1;
#X obj 121 186 f;
#X obj 121 230 line;
#X obj 121 207 pack \$1 500;
#X obj 121 260 outlet;
#X obj 139 72 moses 1.2;
#X obj 66 132 r \$0-tick;
#X obj 66 153 b;
#X connect 0 0 6 0;
#X connect 1 0 2 1;
#X connect 2 0 4 0;
#X connect 3 0 5 0;
#X connect 4 0 3 0;
#X connect 6 0 1 0;
#X connect 6 1 2 1;
#X connect 7 0 8 0;
#X connect 8 0 2 0;
#X restore 22 105 pd \$0-INPUT;
#X connect 5 0 6 0;
#X connect 6 0 2 0;
#X connect 7 0 3 0;
#X connect 7 1 4 0;
#X connect 8 0 7 0;
