#N canvas 58 146 549 403 10;
#X obj 22 87 inlet~ MIC;
#X obj 215 260 outlet;
#X obj 22 260 outlet~;
#X obj 82 260 outlet~;
#X obj 215 39 inlet;
#N canvas 401 105 552 472 \$0-PARAMETERS 0;
#X obj 110 320 outlet;
#X obj -108 45 inlet;
#X obj -108 77 route tick bpm rootnote;
#X obj 106 132 cnv 15 187 167 empty empty RJC_Parameters 10 12 1 14
-162280 -262144 0;
#X obj 106 106 cnv 15 187 20 empty empty Delay 70 11 1 14 -261234 -33289
0;
#X obj -56 187 s \$0-bpm;
#X obj -3 164 s \$0-rootnote;
#X obj -56 123 t b f;
#X obj -56 165 /;
#X obj -56 144 60000;
#X obj 110 157 rjc_parameter_floatrange \$0 DelayL 0.25;
#X obj 110 192 rjc_parameter_floatrange \$0 DelayR 0.4;
#X obj 110 227 rjc_parameter_floatrange \$0 Feedback 0.5;
#X obj 110 262 rjc_parameter_floatrange \$0 Wet/Dry 0.2;
#X connect 1 0 2 0;
#X connect 2 1 7 0;
#X connect 2 3 10 0;
#X connect 7 0 9 0;
#X connect 7 1 8 1;
#X connect 8 0 5 0;
#X connect 9 0 8 0;
#X connect 10 0 11 0;
#X connect 11 0 12 0;
#X connect 12 0 13 0;
#X connect 13 0 0 0;
#X coords 0 -1 1 1 200 205 2 100 100;
#X restore 215 55 pd \$0-PARAMETERS;
#N canvas 147 35 679 504 \$0-DSP 0;
#X obj 72 262 inlet~;
#X obj 72 442 outlet~;
#X obj 130 442 outlet~;
#X obj 188 40 r \$0-DelayL;
#X obj 248 80 r \$0-DelayR;
#X obj 308 124 r \$0-bpm;
#X msg 188 262 dell \$1;
#X msg 248 262 delr \$1;
#X msg 308 262 basedur \$1;
#X obj 72 383 e_dubdel \$0-delay;
#X obj 388 145 r \$0-Wet/Dry;
#X msg 388 262 dry \$1;
#X obj 440 186 r \$0-Feedback;
#X msg 440 262 feedback \$1;
#X obj 188 201 int;
#X obj 248 201 int;
#X obj 188 222 + 0.5;
#X obj 440 207 m_scale 0 1 0 0.999;
#X obj 248 101 m_scale 0 1 10 1;
#X obj 188 61 m_scale 0 1 10 1;
#X obj 388 166 m_scale 0 1 1 0;
#X connect 0 0 9 0;
#X connect 0 0 9 1;
#X connect 3 0 19 0;
#X connect 4 0 18 0;
#X connect 5 0 8 0;
#X connect 6 0 9 2;
#X connect 7 0 9 2;
#X connect 8 0 9 2;
#X connect 9 0 1 0;
#X connect 9 1 2 0;
#X connect 10 0 20 0;
#X connect 11 0 9 2;
#X connect 12 0 17 0;
#X connect 13 0 9 2;
#X connect 14 0 16 0;
#X connect 15 0 7 0;
#X connect 16 0 6 0;
#X connect 17 0 13 0;
#X connect 18 0 15 0;
#X connect 19 0 14 0;
#X connect 20 0 11 0;
#X restore 22 206 pd \$0-DSP;
#N canvas 221 88 370 279 \$0-INPUT 0;
#X obj 66 47 inlet~;
#X obj 66 203 outlet~;
#X obj 66 88 hip~ 100;
#X obj 66 109 hip~ 100;
#X obj 66 130 lop~ 5000;
#X obj 66 151 lop~ 5000;
#X connect 0 0 2 0;
#X connect 2 0 3 0;
#X connect 3 0 4 0;
#X connect 4 0 5 0;
#X connect 5 0 1 0;
#X restore 22 139 pd \$0-INPUT;
#N canvas 351 186 528 200 MODULE_INFO 0;
#X text 64 49 authors: Reality Jockey;
#X text 65 130 decorator: s1m1-s2m1;
#X text 65 150 tags:;
#X text 66 27 name: Delay;
#X text 65 69 description: Delay is a BPM-synced ping-pong delay unit
with individual controls for the left and right delay times. Wet/dry
controls the level of the delay heard.;
#X restore 22 21 pd MODULE_INFO;
#X connect 0 0 7 0;
#X connect 4 0 5 0;
#X connect 5 0 1 0;
#X connect 6 0 2 0;
#X connect 6 1 3 0;
#X connect 7 0 6 0;
