#N canvas 0 22 450 300 10;
#X obj 0 0 cnv 15 25 130 empty blackkey empty 20 12 0 14 -1 -66577
0;
#X obj 160 195 s \$0-r;
#X msg 160 174 color \$1;
#X obj 160 78 bang;
#X obj 160 56 r \$0-btn-s;
#X obj 160 119 sel 0 1;
#X msg 192 145 4;
#X obj 160 99 tgl 15 0 empty empty empty 17 7 0 10 -262144 -1 -1 0
1;
#X msg 240 162 0;
#X obj 366 127 * 12;
#X obj 329 76 t b b;
#X floatatom 390 220 5 0 0 0 - - -;
#X obj 348 172 +;
#X obj 366 148 + 12;
#X obj 366 104 \$2;
#X obj 329 127 \$3;
#X obj 330 199 f;
#X obj 326 49 loadbang;
#X obj 330 249 outlet;
#X floatatom 286 234 5 0 0 0 - - -;
#X obj 1 86 vsl 23 40 0 1 0 0 \$0-btn-s \$0-dum empty 0 -9 0 10 -262130
-262130 -1 0 1;
#X obj 1 83 cnv 15 23 46 \$0-s \$0-r empty 20 12 0 14 -1 -262144 0
;
#X msg 160 145 22;
#X obj 244 47 r \$1-clear;
#X msg 244 68 0;
#X connect 2 0 1 0;
#X connect 3 0 7 0;
#X connect 4 0 3 0;
#X connect 5 0 22 0;
#X connect 5 0 8 0;
#X connect 5 1 6 0;
#X connect 5 1 16 0;
#X connect 6 0 2 0;
#X connect 7 0 5 0;
#X connect 9 0 13 0;
#X connect 10 0 15 0;
#X connect 10 1 14 0;
#X connect 12 0 16 1;
#X connect 12 0 11 0;
#X connect 13 0 12 1;
#X connect 14 0 9 0;
#X connect 15 0 12 0;
#X connect 16 0 18 0;
#X connect 16 0 19 0;
#X connect 17 0 10 0;
#X connect 22 0 2 0;
#X connect 23 0 24 0;
#X connect 24 0 7 0;
#X coords 0 -1 1 1 25 130 2 0 0;
