#N canvas 125 224 1155 598 10;
#X obj 142 400 u_collect;
#X obj 110 364 t b f;
#X obj 100 100 octave \$1 -2;
#X obj 471 100 octave \$1 -1;
#X obj 216 375 r \$1-clear;
#X obj 142 468 s \$1-notes;
#X msg 261 420 set 0 0 0 0 0;
#X obj 216 396 t b b b;
#X msg 216 420 set;
#X connect 0 0 5 0;
#X connect 1 0 5 0;
#X connect 1 1 0 0;
#X connect 2 0 1 0;
#X connect 3 0 1 0;
#X connect 4 0 7 0;
#X connect 6 0 5 0;
#X connect 7 0 8 0;
#X connect 7 1 5 0;
#X connect 7 2 6 0;
#X connect 8 0 5 0;
#X coords 0 -1 1 1 744 224 1 100 100;
