#N canvas 147 45 591 360 10;
#X obj 0 0 cnv 15 50 220 empty empty empty 20 12 0 14 -262144 -66577
0;
#X obj 100 236 s \$0-r;
#X msg 100 215 color \$1;
#X obj 1 156 vsl 48 60 0 1 0 0 \$0-btn-s \$0-dum empty 0 -9 0 10 -262130
-262130 -1 0 1;
#X obj 100 119 bang;
#X obj 100 97 r \$0-btn-s;
#X obj 100 160 sel 0 1;
#X msg 132 186 4;
#X obj 100 140 tgl 15 0 empty empty empty 17 7 0 10 -262144 -1 -1 0
1;
#X obj 1 153 cnv 15 48 66 \$0-s \$0-r empty 20 12 0 14 -262144 -262144
0;
#X msg 100 186 30;
#X obj 306 168 * 12;
#X obj 269 117 t b b;
#X obj 288 213 +;
#X obj 306 189 + 12;
#X obj 306 145 \$2;
#X obj 269 168 \$3;
#X obj 270 240 f;
#X obj 269 96 loadbang;
#X obj 270 290 outlet;
#X obj 178 97 r \$1-clear;
#X msg 178 118 0;
#X obj 72 6 loadbang;
#X obj 72 76 sel \$3;
#X text 156 27 INIT;
#X obj 72 27 t b b b b b;
#X msg 168 50 5;
#X msg 72 50 -7;
#X msg 104 50 -5;
#X msg 135 50 0;
#X msg 199 50 7;
#X connect 2 0 1 0;
#X connect 4 0 8 0;
#X connect 5 0 4 0;
#X connect 6 0 10 0;
#X connect 6 1 7 0;
#X connect 6 1 17 0;
#X connect 7 0 2 0;
#X connect 8 0 6 0;
#X connect 10 0 2 0;
#X connect 11 0 14 0;
#X connect 12 0 16 0;
#X connect 12 1 15 0;
#X connect 13 0 17 1;
#X connect 14 0 13 1;
#X connect 15 0 11 0;
#X connect 16 0 13 0;
#X connect 17 0 19 0;
#X connect 18 0 12 0;
#X connect 20 0 21 0;
#X connect 21 0 8 0;
#X connect 22 0 25 0;
#X connect 23 0 7 0;
#X connect 25 0 27 0;
#X connect 25 1 28 0;
#X connect 25 2 29 0;
#X connect 25 3 26 0;
#X connect 25 4 30 0;
#X connect 26 0 23 0;
#X connect 27 0 23 0;
#X connect 28 0 23 0;
#X connect 29 0 23 0;
#X connect 30 0 23 0;
#X coords 0 -1 1 1 50 220 2 0 0;
