#N canvas 49 143 543 291 10;
#N canvas 5 201 506 226 MODULE_INFO 0;
#X text 64 162 decorator: s1m1-s2m1;
#X text 65 182 tags:;
#X text 66 58 name: Mozart's Ghost;
#X text 64 79 authors: Andy Farnell \, Reality Jockey;
#X text 65 99 description: Trippy blips inspired by the works of Mozart.
Experiment with all the parameters to get a feel for the generative-ness.
;
#X restore -164 -12 pd MODULE_INFO;
#X obj -163 29 inlet~;
#X obj -163 236 outlet~;
#X obj -103 236 outlet~;
#N canvas 246 67 413 816 \$0-DSP 0;
#N canvas 318 131 723 573 freq 0;
#X obj -21 240 /;
#X obj -21 213 t b f;
#X obj -21 161 /;
#X obj 34 487 mtof;
#X obj 34 517 outlet f1;
#X obj 118 516 outlet f2;
#X obj -21 105 mod;
#X obj 39 106 mod;
#X obj -21 135 + 1;
#X obj 39 134 + 1;
#X obj -79 59 t f f f;
#X obj 200 344 m_majorscale 32;
#X obj 200 406 int;
#X obj 200 289 change;
#X obj 200 183 int;
#X obj 200 205 change;
#X obj 218 64 / 127;
#X obj 218 88 swap 1;
#X obj 218 115 -;
#X obj -21 187 change;
#N canvas 0 22 178 171 span11 0;
#X obj 38 30 inlet;
#X obj 38 127 outlet;
#X obj 100 127 outlet;
#X obj 38 69 t f f;
#X obj 38 98 mod 11;
#X obj 100 99 div 11;
#X connect 0 0 3 0;
#X connect 3 0 4 0;
#X connect 3 1 5 0;
#X connect 4 0 1 0;
#X connect 5 0 2 0;
#X restore -3 59 pd span11;
#X obj 200 317 mod 24;
#X obj -21 263 ftom;
#X obj -21 288 int;
#X obj 118 490 mtof;
#X obj 200 228 *;
#X obj 200 255 mod;
#X obj 200 159 /;
#X obj 284 156 t f f;
#X obj 284 176 mod 7;
#X obj 326 176 div 7;
#X obj 34 435 t b f;
#X obj 118 435 t b f;
#X obj 86 108 t f f;
#X obj 86 82 mod 12;
#X obj 86 58 / 12;
#X obj 118 463 +;
#X obj 34 462 +;
#X obj 200 384 + 0;
#X obj 312 323 int;
#X obj 312 344 * 12;
#X obj 133 386 + 0;
#X obj 200 15 r \$0-tick;
#X obj -79 9 r \$0-tick;
#X obj 284 99 inlet Shift;
#X obj -3 9 inlet Tmod;
#X obj 86 9 inlet Xpose;
#X obj 312 285 inlet Octave;
#X obj 455 39 inlet Divide;
#X connect 0 0 22 0;
#X connect 1 0 0 0;
#X connect 1 1 0 1;
#X connect 2 0 19 0;
#X connect 3 0 0 0;
#X connect 3 0 4 0;
#X connect 6 0 8 0;
#X connect 7 0 9 0;
#X connect 8 0 2 0;
#X connect 9 0 2 1;
#X connect 10 0 6 0;
#X connect 10 1 7 0;
#X connect 11 0 38 0;
#X connect 12 0 31 0;
#X connect 13 0 21 0;
#X connect 14 0 15 0;
#X connect 15 0 25 0;
#X connect 16 0 17 0;
#X connect 17 0 18 0;
#X connect 17 1 18 1;
#X connect 18 0 27 1;
#X connect 19 0 1 0;
#X connect 20 0 6 1;
#X connect 20 1 7 1;
#X connect 21 0 11 0;
#X connect 22 0 23 0;
#X connect 23 0 41 0;
#X connect 24 0 5 0;
#X connect 25 0 26 0;
#X connect 26 0 13 0;
#X connect 27 0 14 0;
#X connect 28 0 29 0;
#X connect 28 1 30 0;
#X connect 29 0 25 1;
#X connect 30 0 26 1;
#X connect 31 0 37 0;
#X connect 31 1 37 1;
#X connect 32 0 36 0;
#X connect 32 1 36 1;
#X connect 33 0 37 0;
#X connect 33 1 36 0;
#X connect 34 0 33 0;
#X connect 35 0 34 0;
#X connect 36 0 24 0;
#X connect 37 0 3 0;
#X connect 38 0 12 0;
#X connect 39 0 40 0;
#X connect 40 0 38 1;
#X connect 40 0 41 1;
#X connect 41 0 32 0;
#X connect 42 0 27 0;
#X connect 43 0 10 0;
#X connect 44 0 28 0;
#X connect 45 0 20 0;
#X connect 46 0 35 0;
#X connect 47 0 39 0;
#X connect 48 0 16 0;
#X restore -1 466 pd freq seq;
#N canvas 8 107 388 433 synth 0;
#X obj 136 125 cos~;
#X obj 40 125 cos~;
#X obj 40 94 phasor~ 1200;
#X obj 136 93 phasor~ 800;
#X text 2 410 ajf;
#X obj 40 11 inlet f1;
#X obj 136 10 inlet f2;
#N canvas 264 88 616 321 source1 0;
#X obj 106 269 *~;
#X obj 238 233 *~;
#X obj 74 204 cos~;
#X obj 74 230 hip~ 50;
#X obj 106 294 outlet~;
#X obj 73 155 inlet~ a;
#X obj 240 185 vline~;
#X obj 239 209 *~;
#X msg 240 161 1 5 \, 0 \$1 5;
#X obj 240 123 inlet trigdecay;
#X connect 0 0 4 0;
#X connect 1 0 0 1;
#X connect 2 0 3 0;
#X connect 3 0 0 0;
#X connect 5 0 2 0;
#X connect 6 0 7 0;
#X connect 6 0 7 1;
#X connect 7 0 1 0;
#X connect 7 0 1 1;
#X connect 8 0 6 0;
#X connect 9 0 8 0;
#X restore 40 178 pd source1;
#N canvas 0 22 1024 516 source3 0;
#X obj 128 396 *~;
#X obj 260 360 *~;
#X obj 96 331 cos~;
#X obj 96 310 +~;
#X obj 96 357 hip~ 50;
#X obj 129 433 outlet~;
#X obj 114 144 inlet~ a;
#X obj 52 119 inlet~ b;
#X obj 262 312 vline~;
#X obj 261 336 *~;
#X obj 180 243 *~ 0.25;
#X obj 179 268 +~ 0.5;
#N canvas 0 22 450 300 xf 0;
#X obj 76 87 inlet~;
#X obj 142 87 inlet~;
#X obj 77 198 outlet~;
#X obj 141 136 -~;
#X obj 141 156 *~;
#X obj 201 127 inlet~;
#X connect 0 0 3 1;
#X connect 0 0 2 0;
#X connect 1 0 3 0;
#X connect 3 0 4 0;
#X connect 4 0 2 0;
#X connect 5 0 4 1;
#X restore 75 259 pd xf;
#N canvas 0 22 600 458 cheb3 0;
#X obj 197 191 *~ 0.333333;
#X obj 165 130 *~ 4;
#X obj 173 91 *~;
#X obj 161 61 *~;
#X obj 198 165 -~;
#X obj 208 129 *~ 3;
#X obj 160 34 inlet~;
#X obj 196 213 outlet~;
#X connect 0 0 7 0;
#X connect 1 0 4 0;
#X connect 2 0 1 0;
#X connect 3 0 2 0;
#X connect 4 0 0 0;
#X connect 5 0 4 1;
#X connect 6 0 3 0;
#X connect 6 0 3 1;
#X connect 6 0 2 1;
#X connect 6 0 5 0;
#X restore 113 206 pd cheb3;
#N canvas 0 22 450 300 fd 0;
#X obj 116 48 inlet~;
#X obj 113 173 outlet~;
#X obj 116 85 *~;
#X obj 115 110 -~ 0.5;
#X obj 116 137 *~ 2;
#X connect 0 0 2 0;
#X connect 0 0 2 1;
#X connect 2 0 3 0;
#X connect 3 0 4 0;
#X connect 4 0 1 0;
#X restore 113 178 pd fd;
#N canvas 0 22 450 300 fd 0;
#X obj 116 48 inlet~;
#X obj 113 173 outlet~;
#X obj 116 85 *~;
#X obj 115 110 -~ 0.5;
#X obj 116 137 *~ 2;
#X connect 0 0 2 0;
#X connect 0 0 2 1;
#X connect 2 0 3 0;
#X connect 3 0 4 0;
#X connect 4 0 1 0;
#X restore 53 199 pd fd;
#N canvas 0 22 450 300 fd 0;
#X obj 116 48 inlet~;
#X obj 113 173 outlet~;
#X obj 116 85 *~;
#X obj 115 110 -~ 0.5;
#X obj 116 137 *~ 2;
#X connect 0 0 2 0;
#X connect 0 0 2 1;
#X connect 2 0 3 0;
#X connect 3 0 4 0;
#X connect 4 0 1 0;
#X restore 52 223 pd fd;
#X msg 262 288 1 5 \, 0 \$1 6;
#X obj 259 385 *~;
#X obj 262 249 inlet trigdecay;
#X connect 0 0 5 0;
#X connect 1 0 18 1;
#X connect 1 0 18 0;
#X connect 2 0 4 0;
#X connect 3 0 2 0;
#X connect 4 0 0 0;
#X connect 6 0 14 0;
#X connect 7 0 15 0;
#X connect 8 0 9 0;
#X connect 8 0 9 1;
#X connect 8 0 10 0;
#X connect 8 0 12 2;
#X connect 9 0 1 0;
#X connect 9 0 1 1;
#X connect 10 0 11 0;
#X connect 11 0 3 1;
#X connect 12 0 3 0;
#X connect 13 0 12 1;
#X connect 14 0 13 0;
#X connect 15 0 16 0;
#X connect 16 0 12 0;
#X connect 17 0 8 0;
#X connect 18 0 0 1;
#X connect 19 0 17 0;
#X restore 136 180 pd source3;
#N canvas 0 22 896 495 source2 0;
#X obj 106 282 *~;
#X obj 238 246 *~;
#X obj 74 217 cos~;
#X obj 74 243 hip~ 50;
#X obj 106 307 outlet~;
#X obj 74 152 inlet~ b;
#X obj 240 198 vline~;
#X obj 239 222 *~;
#N canvas 0 22 450 300 fd 0;
#X obj 116 48 inlet~;
#X obj 113 173 outlet~;
#X obj 116 85 *~;
#X obj 115 110 -~ 0.5;
#X obj 116 137 *~ 2;
#X connect 0 0 2 0;
#X connect 0 0 2 1;
#X connect 2 0 3 0;
#X connect 3 0 4 0;
#X connect 4 0 1 0;
#X restore 74 175 pd fd;
#X msg 240 174 1 5 \, 0 \$1 5;
#X obj 240 139 inlet trigdecay;
#X connect 0 0 4 0;
#X connect 1 0 0 1;
#X connect 2 0 3 0;
#X connect 3 0 0 0;
#X connect 5 0 8 0;
#X connect 6 0 7 0;
#X connect 6 0 7 1;
#X connect 7 0 1 0;
#X connect 7 0 1 1;
#X connect 8 0 2 0;
#X connect 9 0 6 0;
#X connect 10 0 9 0;
#X restore 226 180 pd source2;
#N canvas 0 22 450 300 ppdly 0;
#X obj 125 173 delread~ \$0-aaa;
#X obj 145 203 s~ \$0-fbaaa;
#X obj 155 31 r~ \$0-fbaaa;
#X obj 115 241 outlet~;
#X obj 104 29 inlet~;
#X obj 123 142 inlet;
#X obj 129 94 delwrite~ \$0-aaa 2000;
#X obj 155 56 *~ 0.6;
#X connect 0 0 1 0;
#X connect 0 0 3 0;
#X connect 2 0 7 0;
#X connect 4 0 6 0;
#X connect 5 0 0 0;
#X connect 7 0 6 0;
#X restore 244 355 pd ppdly;
#N canvas 0 22 115 188 fd 0;
#X obj 15 18 inlet~;
#X obj 15 135 outlet~;
#X obj 15 55 *~;
#X obj 15 81 -~ 0.5;
#X obj 15 108 *~ 2;
#X connect 0 0 2 0;
#X connect 0 0 2 1;
#X connect 2 0 3 0;
#X connect 3 0 4 0;
#X connect 4 0 1 0;
#X restore 40 235 pd fd;
#X obj 297 309 r \$0-period;
#N canvas 0 22 450 300 ppdly 0;
#X obj 155 56 *~ 0.33;
#X obj 115 241 outlet~;
#X obj 104 29 inlet~;
#X obj 123 142 inlet;
#X obj 125 173 delread~ \$0-aab;
#X obj 145 203 s~ \$0-fbaab;
#X obj 156 31 r~ \$0-fbaab;
#X obj 130 94 delwrite~ \$0-aab 2000;
#X connect 0 0 7 0;
#X connect 2 0 7 0;
#X connect 3 0 4 0;
#X connect 4 0 1 0;
#X connect 4 0 5 0;
#X connect 6 0 0 0;
#X restore 109 358 pd ppdly;
#X obj 162 309 r \$0-period;
#X obj 278 286 catch~ \$0-ping;
#X obj 190 263 phasor~ 0.1;
#X obj 244 382 *~ 0.3;
#X obj 109 383 *~ 0.3;
#X obj 40 36 change;
#X obj 136 36 change;
#X obj 136 60 t f b;
#X obj 40 60 t f b;
#X obj 231 94 f 200;
#X obj 109 285 abs/c_mfade3;
#X obj 109 405 outlet~;
#X obj 244 405 outlet~;
#X obj 162 331 * 8;
#X obj 297 332 * 6;
#X obj 263 57 inlet Decay;
#X connect 0 0 9 0;
#X connect 0 0 8 0;
#X connect 1 0 7 0;
#X connect 1 0 8 1;
#X connect 2 0 1 0;
#X connect 3 0 0 0;
#X connect 5 0 19 0;
#X connect 6 0 20 0;
#X connect 7 0 11 0;
#X connect 7 0 24 0;
#X connect 8 0 24 1;
#X connect 9 0 24 0;
#X connect 9 0 24 2;
#X connect 10 0 17 0;
#X connect 11 0 24 2;
#X connect 12 0 28 0;
#X connect 13 0 18 0;
#X connect 14 0 27 0;
#X connect 15 0 10 0;
#X connect 16 0 24 3;
#X connect 17 0 26 0;
#X connect 18 0 25 0;
#X connect 19 0 22 0;
#X connect 20 0 21 0;
#X connect 21 0 3 0;
#X connect 21 1 23 0;
#X connect 22 0 2 0;
#X connect 22 1 23 0;
#X connect 23 0 8 2;
#X connect 23 0 9 1;
#X connect 23 0 7 1;
#X connect 24 0 10 0;
#X connect 24 0 13 0;
#X connect 27 0 13 1;
#X connect 28 0 10 1;
#X connect 29 0 23 1;
#X restore -1 722 pd synth;
#X obj 52 678 * 30;
#X obj 52 701 + 50;
#X obj -1 605 spigot;
#X obj 86 604 spigot;
#X obj 125 554 mod 3;
#X obj 125 578 == 0;
#X obj 38 579 == 0;
#X obj 38 555 mod 4;
#X obj 125 525 div 9;
#X obj 157 500 mod 9;
#X obj 125 477 t f f;
#X obj 73 426 t f f;
#X text -138 100 Andy Farnell 2009;
#X text -138 71 Collapsed space closed group generative sequences;
#X obj 73 382 r \$0-Division;
#X obj 36 243 r \$0-Shift;
#X obj 52 635 r \$0-Decay;
#X obj -1 126 m_scale 0 1 0 127;
#X obj 73 403 m_scale 0 1 0 127;
#X obj 17 195 m_scale 0 1 0 127;
#X obj 52 656 m_scale 0 1 0 127;
#X obj -1 771 outlet~;
#X obj 52 747 outlet~;
#X obj 17 174 r \$0-Transpose;
#X obj -1 105 r \$0-Irritability;
#X obj 38 494 r \$0-tick;
#X obj 38 518 t f f;
#X obj 36 264 m_scale 0 1 0 127;
#X obj 54 313 r \$0-Octave;
#X obj 54 334 m_scale 0 1 -4 4;
#X text -138 45 The Ghost of Mozart part 3;
#X connect 0 0 4 0;
#X connect 0 1 5 0;
#X connect 1 0 23 0;
#X connect 1 1 24 0;
#X connect 2 0 3 0;
#X connect 3 0 1 2;
#X connect 4 0 1 0;
#X connect 5 0 1 1;
#X connect 6 0 7 0;
#X connect 7 0 5 1;
#X connect 8 0 4 1;
#X connect 9 0 8 0;
#X connect 10 0 9 1;
#X connect 11 0 6 1;
#X connect 12 0 10 0;
#X connect 12 1 11 0;
#X connect 13 0 0 4;
#X connect 13 1 12 0;
#X connect 16 0 20 0;
#X connect 17 0 29 0;
#X connect 18 0 22 0;
#X connect 19 0 0 0;
#X connect 20 0 13 0;
#X connect 21 0 0 1;
#X connect 22 0 2 0;
#X connect 25 0 21 0;
#X connect 26 0 19 0;
#X connect 27 0 28 0;
#X connect 28 0 9 0;
#X connect 28 1 6 0;
#X connect 29 0 0 2;
#X connect 30 0 31 0;
#X connect 31 0 0 3;
#X restore -163 169 pd \$0-DSP;
#N canvas 770 22 376 255 \$0-INPUT 0;
#X obj 15 53 inlet~;
#X obj 15 196 outlet~;
#X connect 0 0 1 0;
#X restore -163 103 pd \$0-INPUT;
#X obj -38 29 inlet;
#X obj -38 236 outlet;
#N canvas 51 483 711 386 \$0-PARAMETERS 0;
#X obj -98 354 s \$0-tick;
#X obj -98 49 inlet;
#X obj -46 336 s \$0-rootnote;
#X obj 106 132 cnv 15 187 132 empty empty RJC_Parameters 10 12 1 14
-162280 -262144 0;
#X obj 106 106 cnv 15 380 20 empty empty Mozart's_Ghost 135 11 1 14
-261234 -33289 0;
#X obj 298 132 cnv 15 187 132 empty empty empty 10 12 1 14 -162280
-262144 0;
#X obj 302 275 outlet;
#X obj -98 77 route tick rootnote bpm;
#X obj 7 318 s \$0-tempo;
#X obj 110 156 rjc_parameter_floatrange \$0 Irritability 0.963;
#X obj 110 192 rjc_parameter_floatrange \$0 Division 0.062;
#X obj 110 229 rjc_parameter_floatrange \$0 Shift 0.736;
#X obj 302 157 rjc_parameter_floatrange \$0 Transpose 0.198;
#X obj 302 193 rjc_parameter_floatrange \$0 Decay 0.784;
#X obj 302 228 rjc_parameter_floatrange \$0 Octave 0.4;
#X obj -98 187 int;
#X obj -98 208 change;
#X obj -98 166 / 4;
#X obj 17 247 swap 60000;
#X obj 17 270 /;
#X obj 17 221 * 32;
#X obj 17 291 s \$0-period;
#X connect 1 0 7 0;
#X connect 7 0 17 0;
#X connect 7 1 2 0;
#X connect 7 2 8 0;
#X connect 7 2 20 0;
#X connect 7 3 9 0;
#X connect 9 0 10 0;
#X connect 10 0 11 0;
#X connect 11 0 12 0;
#X connect 12 0 13 0;
#X connect 13 0 14 0;
#X connect 14 0 6 0;
#X connect 15 0 16 0;
#X connect 16 0 0 0;
#X connect 17 0 15 0;
#X connect 18 0 19 0;
#X connect 18 1 19 1;
#X connect 19 0 21 0;
#X connect 20 0 18 0;
#X coords 0 -1 1 1 392 170 2 100 100;
#X restore -38 57 pd \$0-PARAMETERS;
#X connect 1 0 5 0;
#X connect 4 0 2 0;
#X connect 4 1 3 0;
#X connect 6 0 8 0;
#X connect 8 0 7 0;
