#N canvas 211 42 729 631 10;
#X obj 112 106 mtof;
#X floatatom 112 88 5 0 0 0 - - -;
#X obj 13 588 soundoutput;
#X obj 292 153 line~;
#X obj 248 176 rj/s_blsquare;
#X obj 131 249 rj/s_blsaw;
#X obj 423 117 mtof;
#X obj 13 435 rj/e_beequad;
#X obj 112 67 r note;
#N canvas 10 142 1188 409 input 0;
#X obj 9 279 s note;
#X obj 217 260 s freq;
#X obj 1007 250 s synth;
#X text 978 265 square / saw / pwm square;
#X obj 217 182 / 320;
#X obj 217 201 * 127;
#X obj 217 220 int;
#X obj 697 240 s filter;
#X text 633 263 bandpass / lowpass / highpass;
#X text 399 15 input comes here \, see the mockup for how it should
work;
#X obj 430 261 s touching;
#X obj 430 204 tgl 15 0 empty empty empty 17 7 0 10 -262144 -1 -1 0
1;
#X text 212 22 y-coordinate;
#X text 7 8 x-coordinate;
#X text 7 22 maps to selected notes;
#X text 7 37 multiple octaves;
#X obj 430 89 r #touch;
#X obj 430 110 route up down;
#X msg 430 129 0;
#X msg 513 173 1;
#X obj 217 240 change;
#X obj 75 59 r #touch;
#X obj 75 101 list split 1;
#X obj 115 121 unpack 0 0;
#X obj 17 333 loadbang;
#X msg 17 354 1;
#X msg 122 303 text \$1 \$2;
#X obj 122 283 pack f f;
#X obj 17 375 -rj/g_showtext hello 160 160;
#N canvas 626 53 485 685 buttons 0;
#X obj 11 10 inlet;
#X obj 9 666 outlet;
#X text 20 61 note buttons;
#X msg 394 503 0;
#X obj 105 348 loadbang;
#X msg 105 369 1;
#X msg 393 476 1;
#X obj 12 80 toggleimgbutton note-c 23 23 304 304 selnote 0;
#X obj 27 466 - radioimgbutton synth synth-pwm 23 23 70 18 2;
#X obj 11 412 radioimgbutton synth synth-square 23 23 70 18 0;
#X obj 12 101 toggleimgbutton note-c# 23 23 304 278 selnote 1;
#X obj 12 122 toggleimgbutton note-d 23 23 304 252 selnote 2;
#X obj 12 143 toggleimgbutton note-d# 23 23 304 226 selnote 3;
#X obj 12 164 toggleimgbutton note-e 23 23 304 200 selnote 4;
#X obj 12 184 toggleimgbutton note-f 23 23 304 174 selnote 5;
#X obj 12 204 toggleimgbutton note-f# 23 23 304 148 selnote 6;
#X obj 12 224 toggleimgbutton note-g 23 23 304 122 selnote 7;
#X obj 12 244 toggleimgbutton note-g# 23 23 304 96 selnote 8;
#X obj 12 264 toggleimgbutton note-a 23 23 304 70 selnote 9;
#X obj 12 284 toggleimgbutton note-a# 23 23 304 44 selnote 10;
#X obj 12 304 toggleimgbutton note-b 23 23 304 18 selnote 11;
#X obj 11 433 radioimgbutton synth synth-saw 23 23 96 18 1;
#X obj 10 603 radioimgbutton filter filter-hp 23 23 200 18 2;
#X obj 10 582 radioimgbutton filter filter-lp 23 23 174 18 1;
#X obj 10 561 radioimgbutton filter filter-bp 23 23 148 18 0;
#X connect 0 0 7 0;
#X connect 3 0 22 2;
#X connect 3 0 23 2;
#X connect 3 0 24 2;
#X connect 4 0 5 0;
#X connect 5 0 9 1;
#X connect 5 0 24 1;
#X connect 6 0 22 2;
#X connect 6 0 23 2;
#X connect 6 0 24 2;
#X connect 7 0 10 0;
#X connect 8 2 3 0;
#X connect 9 0 21 0;
#X connect 9 2 6 0;
#X connect 10 0 11 0;
#X connect 11 0 12 0;
#X connect 12 0 13 0;
#X connect 13 0 14 0;
#X connect 14 0 15 0;
#X connect 15 0 16 0;
#X connect 16 0 17 0;
#X connect 17 0 18 0;
#X connect 18 0 19 0;
#X connect 19 0 20 0;
#X connect 20 0 9 0;
#X connect 21 0 24 0;
#X connect 21 2 6 0;
#X connect 22 0 1 0;
#X connect 23 0 22 0;
#X connect 24 0 23 0;
#X restore 513 152 pd buttons;
#X obj 474 130 list split 1;
#X obj 75 80 route xy down;
#X obj 105 143 moses 320;
#X obj 182 143 moses 310;
#N canvas 767 83 458 351 note-lookup 0;
#X obj 313 7 r selnote;
#X obj 3 5 inlet;
#X obj 4 302 outlet;
#X obj 173 72 r total-notes;
#X obj 345 70 s total-notes;
#N canvas 0 22 450 300 total 0;
#X obj 10 8 inlet;
#X obj 14 275 outlet;
#X obj 28 188 +;
#X obj 56 188 0;
#X msg 57 136 1;
#X msg 18 134 -1;
#X obj 10 33 unpack f f;
#X obj 10 55 sel 0 1;
#X connect 0 0 6 0;
#X connect 2 0 3 0;
#X connect 3 0 2 1;
#X connect 3 0 1 0;
#X connect 4 0 2 0;
#X connect 5 0 2 0;
#X connect 6 0 7 0;
#X connect 7 0 5 0;
#X connect 7 1 4 0;
#X restore 345 49 pd total;
#X obj 4 150 / 40;
#X obj 4 170 int;
#X obj 4 190 * 12;
#X text 9 132 eight octaves;
#X obj 3 27 t f f;
#X obj 4 236 +;
#X obj 122 66 % 40;
#X obj 122 85 / 40;
#X obj 4 282 spigot;
#X obj 42 260 > 0;
#X obj 42 239 r total-notes;
#X obj 122 114 *;
#X obj 122 140 int;
#X obj 313 101 route 0 1;
#X obj 175 112 r all-notes;
#X obj 314 302 s all-notes;
#X obj 122 162 lookup;
#N canvas 257 299 450 300 add-to-list 0;
#X obj 6 9 inlet;
#X obj 7 277 outlet;
#X obj 6 118 list append;
#X obj 37 53 list;
#X obj 61 31 r all-notes;
#X obj 6 31 t f b;
#X connect 0 0 5 0;
#X connect 2 0 1 0;
#X connect 3 0 2 1;
#X connect 4 0 3 1;
#X connect 5 0 2 0;
#X connect 5 1 3 0;
#X restore 343 125 pd add-to-list;
#N canvas 189 107 450 300 del-from-list 0;
#X obj 6 9 inlet;
#X obj 7 277 outlet;
#X obj 7 80 list;
#X obj 31 58 r all-notes;
#X obj 7 206 list-filter;
#X obj 6 31 t b f;
#X obj 104 207 != -1;
#X connect 0 0 5 0;
#X connect 2 0 4 0;
#X connect 3 0 2 1;
#X connect 4 0 1 0;
#X connect 4 1 6 0;
#X connect 5 0 2 0;
#X connect 5 1 6 1;
#X connect 6 0 4 1;
#X restore 313 149 pd del-from-list;
#X obj 346 281 list-sort asc;
#X obj 314 28 t a a;
#X obj 313 192 list-len;
#X obj 313 171 t a a;
#X obj 313 212 sel 0;
#X obj 346 261 list;
#X msg 345 231 bang;
#X obj 4 213 + 24;
#X connect 0 0 26 0;
#X connect 1 0 10 0;
#X connect 3 0 17 1;
#X connect 5 0 4 0;
#X connect 6 0 7 0;
#X connect 7 0 8 0;
#X connect 8 0 32 0;
#X connect 10 0 6 0;
#X connect 10 1 12 0;
#X connect 11 0 14 0;
#X connect 12 0 13 0;
#X connect 13 0 17 0;
#X connect 14 0 2 0;
#X connect 15 0 14 1;
#X connect 16 0 15 0;
#X connect 17 0 18 0;
#X connect 18 0 22 0;
#X connect 19 0 24 0;
#X connect 19 1 23 0;
#X connect 20 0 22 1;
#X connect 22 0 11 1;
#X connect 23 0 28 0;
#X connect 24 0 28 0;
#X connect 25 0 21 0;
#X connect 26 0 19 0;
#X connect 26 1 5 0;
#X connect 27 0 29 0;
#X connect 28 0 27 0;
#X connect 28 1 30 1;
#X connect 29 0 21 0;
#X connect 29 1 31 0;
#X connect 30 0 25 0;
#X connect 31 0 30 0;
#X connect 32 0 11 0;
#X restore 9 260 pd note-lookup;
#X connect 4 0 5 0;
#X connect 5 0 6 0;
#X connect 6 0 20 0;
#X connect 11 0 10 0;
#X connect 16 0 17 0;
#X connect 17 0 18 0;
#X connect 17 1 30 0;
#X connect 18 0 11 0;
#X connect 19 0 11 0;
#X connect 20 0 1 0;
#X connect 21 0 31 0;
#X connect 22 1 23 0;
#X connect 23 0 32 0;
#X connect 23 1 33 0;
#X connect 24 0 25 0;
#X connect 25 0 28 0;
#X connect 26 0 28 1;
#X connect 27 0 26 0;
#X connect 29 0 19 0;
#X connect 30 1 29 0;
#X connect 31 0 22 0;
#X connect 31 1 22 0;
#X connect 32 0 34 0;
#X connect 33 0 4 0;
#X connect 34 0 0 0;
#X restore 663 6 pd input;
#X obj 419 223 rj/u_lowpassq 1000 2;
#X obj 444 267 rj/u_highpassq 1000 2;
#X obj 405 180 rj/u_bandpass2q 1000 2;
#X obj 423 97 r freq;
#X obj 292 110 / 127;
#X obj 292 89 r freq;
#X text 9 0 moonboot;
#X obj 13 270 synth.sel~ 0;
#X obj 405 160 filter.sel 0;
#X obj 31 459 r touching;
#X obj 13 487 *~;
#X text 8 13 synthpad <-- by Chris McCormick \, Copyright 2009;
#X obj 297 295 r note;
#X obj 297 316 mtof;
#X obj 348 317 mtof;
#X obj 348 294 r freq;
#X obj 298 372 vcf~ 5;
#X obj 298 392 *~ 5;
#X obj 298 411 *~ 1;
#X obj 419 204 filter.sel 1;
#X obj 444 247 filter.sel 2;
#X obj 298 351 rj/s_blsquare;
#X obj 57 205 loadbang;
#X obj 407 300 loadbang;
#X msg 407 322 1;
#X msg 57 227 0.5;
#X msg 292 132 \$1 10;
#X obj 448 424 loadbang;
#X msg 448 445 1;
#X obj 111 329 ||;
#X obj 131 270 synth.sel~ 1;
#X obj 248 443 synth.sel~ 2;
#X obj 13 515 *~;
#X obj 266 468 r touching;
#X obj 248 496 *~;
#X obj 13 249 rj/s_blsquare;
#X obj 250 70 loadbang;
#X msg 249 90 0.5;
#X obj 558 348 r selnote;
#X msg 553 394 text \$1 \$2;
#X obj 337 579 r all-notes;
#X msg 506 538 \; selnote 0 3;
#X msg 506 504 \; selnote 1 3;
#X msg 418 504 \; selnote 1 5;
#X msg 419 538 \; selnote 0 5;
#X msg 324 508 \; selnote 1 8;
#X msg 325 542 \; selnote 0 8;
#X obj 337 599 print notes;
#X obj 448 464 - rj/g_showtext hello 160 160;
#X obj 54 515 > 0;
#X obj 54 494 r total-notes;
#X obj 13 536 *~;
#N canvas 25 333 528 398 network 0;
#X obj 79 160 loadbang;
#X obj 321 223 list prepend send;
#X obj 82 58 metaize touching;
#X obj 321 243 list trim;
#X obj 189 18 metaize note;
#X obj 295 16 metaize freq;
#X obj 319 44 metaize all-notes;
#X obj 10 281 list split 1;
#X obj 32 372 s;
#X obj 10 323 list;
#X obj 10 302 t b a;
#X obj 50 323 symbol;
#X obj 321 263 netsend;
#X obj 10 259 netreceive 10124;
#X msg 79 182 connect 255.255.255.255 10123;
#X connect 0 0 14 0;
#X connect 1 0 3 0;
#X connect 2 0 1 0;
#X connect 3 0 12 0;
#X connect 4 0 1 0;
#X connect 5 0 1 0;
#X connect 6 0 1 0;
#X connect 7 0 10 0;
#X connect 7 1 9 1;
#X connect 9 0 8 0;
#X connect 10 0 9 0;
#X connect 10 1 11 0;
#X connect 11 0 8 1;
#X connect 13 0 7 0;
#X connect 14 0 12 0;
#X restore 582 6 pd network;
#X connect 0 0 4 0;
#X connect 0 0 5 0;
#X connect 0 0 45 0;
#X connect 1 0 0 0;
#X connect 3 0 4 1;
#X connect 4 0 41 0;
#X connect 5 0 40 0;
#X connect 6 0 18 0;
#X connect 6 0 29 0;
#X connect 6 0 30 0;
#X connect 7 0 20 0;
#X connect 8 0 1 0;
#X connect 10 0 7 1;
#X connect 11 0 7 1;
#X connect 12 0 7 1;
#X connect 13 0 6 0;
#X connect 14 0 36 0;
#X connect 15 0 14 0;
#X connect 17 0 7 0;
#X connect 17 1 39 0;
#X connect 18 0 12 0;
#X connect 19 0 20 1;
#X connect 20 0 42 0;
#X connect 22 0 23 0;
#X connect 23 0 31 0;
#X connect 24 0 26 1;
#X connect 25 0 24 0;
#X connect 26 0 27 0;
#X connect 27 0 28 0;
#X connect 29 0 10 0;
#X connect 30 0 11 0;
#X connect 31 0 26 0;
#X connect 32 0 35 0;
#X connect 33 0 34 0;
#X connect 34 0 31 1;
#X connect 35 0 45 1;
#X connect 36 0 3 0;
#X connect 37 0 38 0;
#X connect 38 0 58 0;
#X connect 39 0 42 1;
#X connect 40 0 7 0;
#X connect 40 1 39 1;
#X connect 41 0 44 0;
#X connect 42 0 61 0;
#X connect 43 0 44 1;
#X connect 44 0 2 1;
#X connect 44 0 2 0;
#X connect 45 0 17 0;
#X connect 46 0 47 0;
#X connect 47 0 3 0;
#X connect 48 0 49 0;
#X connect 49 0 58 1;
#X connect 50 0 57 0;
#X connect 59 0 61 1;
#X connect 60 0 59 0;
#X connect 61 0 2 0;
#X connect 61 0 2 1;
