#N canvas 9 62 450 300 10;
#X obj 44 50 == \$1;
#X obj 6 7 inlet;
#X obj 5 90 outlet;
#X obj 5 70 spigot;
#X obj 44 28 r filter;
#X connect 0 0 3 1;
#X connect 1 0 3 0;
#X connect 3 0 2 0;
#X connect 4 0 0 0;
