#N canvas 235 103 646 378 10;
#X msg 72 204 move 500 500;
#X obj 72 45 inlet;
#X obj 72 169 select 0 1;
#X obj 189 202 list append \$2 \$3;
#X msg 189 231 move \$1 \$2;
#X obj 305 173 r \$0-pos;
#X obj 119 43 r \$0-show;
#X obj 189 149 r \$0-move;
#X obj 189 172 t b a;
#X obj 72 295 outlet;
#X obj 119 114 0;
#X obj 9 74 loadbang;
#X obj 9 99 \$4;
#X connect 0 0 9 0;
#X connect 1 0 2 0;
#X connect 2 0 0 0;
#X connect 2 1 3 0;
#X connect 3 0 4 0;
#X connect 4 0 9 0;
#X connect 5 0 3 1;
#X connect 6 0 10 0;
#X connect 7 0 8 0;
#X connect 8 0 3 0;
#X connect 8 1 3 1;
#X connect 10 0 2 0;
#X connect 11 0 12 0;
#X connect 12 0 2 0;
