#N canvas 22 36 647 711 10;
#X obj 76 483 outlet;
#X obj 53 127 unpack 0 0;
#X obj 53 153 t f f;
#X obj 120 153 t f f;
#X obj 53 221 &&;
#X obj 121 221 &&;
#X obj 53 258 &&;
#X obj 203 28 loadbang;
#X obj 205 116 / 2;
#X obj 173 75 t b b;
#X obj 174 142 -;
#X obj 205 142 +;
#X obj 203 48 t b b;
#X obj 267 116 / 2;
#X obj 235 75 t b b;
#X obj 236 142 -;
#X obj 267 142 +;
#X obj 108 379 == 0;
#X obj 76 379 1;
#X obj 98 426 == 0;
#X obj 157 306 inlet;
#X obj 76 321 t b b;
#X obj 157 350 outlet;
#X text 203 308 Set state;
#X text 209 350 Bang on touch;
#X text 127 483 output state;
#X obj 153 187 <=;
#X obj 120 187 >=;
#X obj 85 187 <=;
#X obj 53 187 >=;
#X obj 13 28 inlet;
#X obj 53 301 sel 0 1;
#X obj 18 633 outlet;
#X obj 19 334 list;
#X obj 13 70 t a a;
#X obj 18 613 list trim;
#X obj 205 96 \$3;
#X obj 174 116 \$5;
#X obj 267 96 \$4;
#X obj 235 117 \$6;
#X obj 236 495 rj_image \$2.png;
#X obj 234 690 rj_image \$2-on.png;
#X obj 181 241 r \$1/set;
#X obj 280 637 s \$1/set;
#X obj 280 546 sel 1;
#X msg 280 616 0;
#X obj 280 568 t b b;
#X obj 181 266 spigot;
#X text 239 265 ignore messages from myself;
#X obj 515 16 inlet;
#X obj 515 37 s \$0/onoff;
#X obj 66 29 r \$0/onoff;
#X obj 295 376 r \$0/onoff;
#X obj 295 396 sel 0 1;
#X msg 294 427 0;
#X obj 234 526 t f b f;
#X msg 248 546 1;
#X msg 312 587 0;
#X obj 13 50 spigot 1;
#X obj 236 472 g_showimage2 \$2.png \$5 \$6 1;
#X obj 234 667 g_showimage2 \$2-on.png \$5 \$6 0;
#X obj 76 399 t b f f;
#X obj 76 460 \$7;
#X text 9 4 args: group name width height pos-x pos-y value;
#X obj 46 506 s \$1;
#X msg 158 329 bang;
#X msg 75 341 1;
#X obj 181 218 r \$2;
#X obj 269 241 print net;
#X connect 1 0 2 0;
#X connect 1 1 3 0;
#X connect 2 0 29 0;
#X connect 2 1 28 0;
#X connect 3 0 27 0;
#X connect 3 1 26 0;
#X connect 4 0 6 0;
#X connect 5 0 6 1;
#X connect 6 0 31 0;
#X connect 7 0 12 0;
#X connect 8 0 11 1;
#X connect 8 0 10 1;
#X connect 9 0 37 0;
#X connect 9 1 36 0;
#X connect 10 0 29 1;
#X connect 11 0 28 1;
#X connect 12 0 9 0;
#X connect 12 1 14 0;
#X connect 13 0 16 1;
#X connect 13 0 15 1;
#X connect 14 0 39 0;
#X connect 14 1 38 0;
#X connect 15 0 27 1;
#X connect 16 0 26 1;
#X connect 17 0 18 1;
#X connect 18 0 17 0;
#X connect 18 0 61 0;
#X connect 19 0 59 0;
#X connect 20 0 18 0;
#X connect 20 0 65 0;
#X connect 21 0 66 0;
#X connect 21 1 22 0;
#X connect 26 0 5 1;
#X connect 27 0 5 0;
#X connect 28 0 4 1;
#X connect 29 0 4 0;
#X connect 30 0 58 0;
#X connect 31 0 33 0;
#X connect 31 1 21 0;
#X connect 33 0 35 0;
#X connect 34 0 1 0;
#X connect 34 1 33 1;
#X connect 35 0 32 0;
#X connect 36 0 8 0;
#X connect 37 0 10 0;
#X connect 37 0 11 0;
#X connect 38 0 13 0;
#X connect 39 0 15 0;
#X connect 39 0 16 0;
#X connect 42 0 47 0;
#X connect 44 0 46 0;
#X connect 45 0 43 0;
#X connect 46 0 45 0;
#X connect 46 1 57 0;
#X connect 47 0 18 0;
#X connect 49 0 50 0;
#X connect 51 0 58 1;
#X connect 52 0 53 0;
#X connect 53 0 54 0;
#X connect 53 1 18 0;
#X connect 54 0 59 0;
#X connect 54 0 60 0;
#X connect 55 0 60 0;
#X connect 55 1 56 0;
#X connect 55 2 44 0;
#X connect 56 0 47 1;
#X connect 57 0 47 1;
#X connect 58 0 34 0;
#X connect 59 0 40 0;
#X connect 60 0 41 0;
#X connect 61 0 62 0;
#X connect 61 1 19 0;
#X connect 61 2 55 0;
#X connect 62 0 0 0;
#X connect 62 0 64 0;
#X connect 65 0 22 0;
#X connect 66 0 18 0;
#X connect 67 0 21 0;
#X connect 67 0 68 0;
