#N canvas 9 62 450 300 10;
#X obj 29 34 r synth;
#X obj 29 56 == \$1;
#X obj 11 163 outlet~;
#X obj 29 118 line~;
#X msg 29 97 \$1 3;
#X obj 11 11 inlet~;
#X obj 11 141 *~;
#X obj 103 164 outlet;
#X obj 29 76 t f f;
#X connect 0 0 1 0;
#X connect 1 0 8 0;
#X connect 3 0 6 1;
#X connect 4 0 3 0;
#X connect 5 0 6 0;
#X connect 6 0 2 0;
#X connect 8 0 4 0;
#X connect 8 1 7 0;
