#N canvas 151 82 629 659 10;
#X obj 53 127 unpack 0 0;
#X obj 53 153 t f f;
#X obj 120 153 t f f;
#X obj 53 221 &&;
#X obj 121 221 &&;
#X obj 53 258 &&;
#X obj 203 28 loadbang;
#X obj 205 96 \$2;
#X obj 205 116 / 2;
#X obj 173 75 t b b;
#X obj 174 142 -;
#X obj 173 117 \$4;
#X obj 205 142 +;
#X obj 203 48 t b b;
#X obj 267 116 / 2;
#X obj 235 75 t b b;
#X obj 236 142 -;
#X obj 267 142 +;
#X obj 267 96 \$3;
#X obj 235 117 \$5;
#X obj 108 350 == 0;
#X obj 76 350 1;
#X obj 76 370 t f f f;
#X obj 98 417 == 0;
#X obj 171 312 inlet;
#X text 217 313 Set state;
#X obj 236 537 rj_image \$1.png;
#X obj 234 636 rj_image \$1-on.png;
#X obj 153 187 <=;
#X obj 120 187 >=;
#X obj 85 187 <=;
#X obj 53 187 >=;
#X obj 13 28 inlet;
#X obj 53 301 sel 0 1;
#X obj 18 633 outlet;
#X obj 19 334 list;
#X obj 13 48 t a a;
#X obj 236 472 g_showimage2 \$1.png \$4 \$5 1;
#X obj 234 571 g_showimage2 \$1-on.png \$4 \$5 0;
#X obj 18 613 list trim;
#X text 10 5 args: name width height pos-x pos-y send value;
#X obj 75 535 s \$6;
#X text 127 483 send state;
#X obj 75 515 list append \$7;
#X obj 172 288 r \$1;
#X obj 297 359 print net;
#X connect 0 0 1 0;
#X connect 0 1 2 0;
#X connect 1 0 31 0;
#X connect 1 1 30 0;
#X connect 2 0 29 0;
#X connect 2 1 28 0;
#X connect 3 0 5 0;
#X connect 4 0 5 1;
#X connect 5 0 33 0;
#X connect 6 0 13 0;
#X connect 7 0 8 0;
#X connect 8 0 12 1;
#X connect 8 0 10 1;
#X connect 9 0 11 0;
#X connect 9 1 7 0;
#X connect 10 0 31 1;
#X connect 11 0 10 0;
#X connect 11 0 12 0;
#X connect 12 0 30 1;
#X connect 13 0 9 0;
#X connect 13 1 15 0;
#X connect 14 0 17 1;
#X connect 14 0 16 1;
#X connect 15 0 19 0;
#X connect 15 1 18 0;
#X connect 16 0 29 1;
#X connect 17 0 28 1;
#X connect 18 0 14 0;
#X connect 19 0 16 0;
#X connect 19 0 17 0;
#X connect 20 0 21 1;
#X connect 21 0 20 0;
#X connect 21 0 22 0;
#X connect 22 0 43 0;
#X connect 22 1 23 0;
#X connect 22 2 38 0;
#X connect 23 0 37 0;
#X connect 24 0 21 0;
#X connect 28 0 4 1;
#X connect 29 0 4 0;
#X connect 30 0 3 1;
#X connect 31 0 3 0;
#X connect 32 0 36 0;
#X connect 33 0 35 0;
#X connect 33 1 21 0;
#X connect 35 0 39 0;
#X connect 36 0 0 0;
#X connect 36 1 35 1;
#X connect 37 0 26 0;
#X connect 38 0 27 0;
#X connect 39 0 34 0;
#X connect 43 0 41 0;
#X connect 44 0 21 0;
#X connect 44 0 45 0;
