#N struct 1010-symarray float x array symbols 1010-sym;
#N struct 1010-sym symbol name float on;
#N canvas 383 271 617 286 10;
#X declare -path .;
#X declare -path rj;
#X declare -path rjc-modules;
#X declare -path utils;
#X declare -path d;
#X declare -path ../../modules;
#X declare -path rjc_gui;
#N canvas 0 22 443 303 declarations 0;
#X obj 59 62 declare -path .;
#X obj 59 86 declare -path rj;
#X obj 59 110 declare -path rjc-modules;
#X obj 59 178 declare -path utils;
#X obj 59 154 declare -path d;
#X obj 59 202 declare -path ../../modules;
#X obj 60 131 declare -path rjc_gui;
#X restore 28 38 pd declarations;
#N canvas 496 140 432 469 init 0;
#X obj -29 17 loadbang;
#X msg 6 313 \; pd dsp 1 \; #transport play 1 \; #volume 1 \;;
#X obj 139 441 outlet;
#X msg 41 107 meta loadconfig init.txt \;;
#X msg 59 69 \; DEBUGS start init;
#X msg -12 375 \; DEBUGS end init;
#X msg 73 159 \; DEBUGS loadconfig;
#X obj 41 133 t a b;
#X obj 23 223 t a b;
#X msg 55 249 \; DEBUGS modules pages;
#X msg 23 197 meta loadpage 0 \, modules ALL page 0 \, system pdgui
0;
#X obj -29 43 t b b b b b b;
#X msg -29 413 system timebase init bang;
#X connect 0 0 11 0;
#X connect 3 0 7 0;
#X connect 7 0 2 0;
#X connect 7 1 6 0;
#X connect 8 0 2 0;
#X connect 8 1 9 0;
#X connect 10 0 8 0;
#X connect 11 0 12 0;
#X connect 11 1 5 0;
#X connect 11 2 1 0;
#X connect 11 3 10 0;
#X connect 11 4 3 0;
#X connect 11 5 4 0;
#X connect 12 0 2 0;
#X restore 28 66 pd init;
#X text 87 68 loadbangs;
#X obj 28 259 RJC-1000.master;
#X obj 94 142 tgl 15 0 empty empty empty 17 7 0 10 -262144 -1 -1 1
1;
#X text 139 118 messages from remotely connected RJC;
#X obj 48 183 r #RJC1000-control;
#X text 196 182 global receiver for client control through the App
;
#X obj 38 119 rjc_lanparty;
#N canvas 655 146 595 249 meta 0;
#X obj 8 9 inlet;
#X obj 76 217 outlet;
#X obj 8 53 route meta;
#N canvas 485 112 450 300 swipe 0;
#X obj 6 10 inlet;
#X obj 6 279 outlet;
#X obj 6 113 rj_swipe;
#X obj 5 79 route swipe;
#X msg 6 137 meta loadpage \$1 \, modules ALL page \$1 \;;
#X connect 0 0 3 0;
#X connect 2 0 4 0;
#X connect 3 0 2 0;
#X connect 3 1 1 0;
#X connect 4 0 1 0;
#X restore 94 120 pd swipe;
#N canvas 0 22 450 300 loadconfig 0;
#X obj 11 13 inlet;
#X obj 120 275 outlet;
#X obj 11 34 route loadconfig;
#N canvas 333 108 890 553 config-from-file 0;
#X obj 119 388 print DUMP;
#X msg 168 300 print;
#X obj 96 423 outlet;
#X text 82 20 Examples how to load a configuration from a file. A config
file is assumed to be sorted: The first line will always describe what's
in slot-0 \, the second what's in slot-1 and so on.;
#X obj 96 91 inlet;
#N canvas 0 22 692 366 suspend-dsp 0;
#X obj 106 197 s pd;
#X msg 106 125 dsp 1;
#X msg 213 124 dsp 0;
#X obj 151 65 inlet;
#X obj 174 197 outlet;
#X obj 151 91 t b a b;
#X text 214 155 This will suspend dsp \, until the middle trigger outlet's
operation has finished.;
#X connect 1 0 0 0;
#X connect 2 0 0 0;
#X connect 3 0 5 0;
#X connect 5 0 1 0;
#X connect 5 1 4 0;
#X connect 5 2 2 0;
#X restore 96 114 pd suspend-dsp;
#X obj 96 147 list;
#X text 196 189 symbols are assumed to be filenames;
#X obj 96 340 u_dumpfile;
#X msg 96 241 dump;
#X msg 163 266 read \$1 cr \, dump;
#X obj 96 192 route bang;
#X obj 210 388 list prepend loadconfig-DUMP;
#X obj 210 409 s DEBUGS;
#X connect 1 0 8 0;
#X connect 4 0 5 0;
#X connect 5 0 6 0;
#X connect 6 0 11 0;
#X connect 8 0 0 0;
#X connect 8 0 2 0;
#X connect 8 0 12 0;
#X connect 9 0 8 0;
#X connect 10 0 8 0;
#X connect 11 0 9 0;
#X connect 11 1 10 0;
#X connect 12 0 13 0;
#X restore 11 186 pd config-from-file;
#X obj 22 160 bng 15 250 50 0 empty empty build! 17 7 1 10 -4034 -1
-1;
#X connect 0 0 2 0;
#X connect 2 0 3 0;
#X connect 2 1 1 0;
#X connect 3 0 1 0;
#X connect 4 0 3 0;
#X restore 92 93 pd loadconfig;
#X text 192 88 loadconfig has to come before everything as it produces
messages for everything to consume \, including meta.;
#N canvas 485 112 450 300 loadpage 0;
#X obj 6 10 inlet;
#X obj 6 279 outlet;
#X obj 5 79 route loadpage;
#X msg 5 101 system statefile page-\$1.txt;
#X connect 0 0 2 0;
#X connect 2 0 3 0;
#X connect 2 1 1 0;
#X connect 3 0 1 0;
#X restore 94 149 pd loadpage;
#X text 105 63 hmmm \, probably there's a better way of doing this?
;
#X connect 0 0 2 0;
#X connect 2 0 4 0;
#X connect 2 0 3 0;
#X connect 2 0 6 0;
#X connect 2 1 1 0;
#X connect 3 0 2 0;
#X connect 4 0 2 0;
#X connect 6 0 1 0;
#X restore 28 222 pd meta;
#X text 89 222 catches/sends swipe metamessages to and from rj_swipe
;
#X obj 119 141 s \$0-lanparty-connect;
#X obj 38 98 r \$0-LANPARTY-DEBUG;
#N canvas 595 87 645 546 lanparty-debug 0;
#X obj 30 13 r DEBUGS;
#X obj 30 36 t a b;
#X obj 30 81 list prepend;
#X obj 63 58 realtime;
#X obj 29 432 textfile;
#X obj 30 189 t a a;
#X obj 30 319 spigot 1;
#X obj 170 288 spigot 0;
#X obj 30 341 list prepend add;
#X obj 170 189 r \$0-lanparty-connect;
#X obj 83 299 == 0;
#X obj 170 210 t a a a;
#X msg 281 348 rewind;
#X obj 248 372 until;
#X obj 249 303 sel 1;
#X msg 209 343 bang;
#X obj 30 405 list trim;
#X obj 170 507 s \$0-LANPARTY-DEBUG;
#X obj 170 465 list prepend debug;
#X obj 170 486 list trim;
#X obj 249 327 t b b;
#X obj 82 454 t b b;
#X msg 82 475 clear;
#X connect 0 0 1 0;
#X connect 1 0 2 0;
#X connect 1 1 3 1;
#X connect 2 0 5 0;
#X connect 3 0 2 1;
#X connect 4 0 18 0;
#X connect 4 1 21 0;
#X connect 5 0 6 0;
#X connect 5 1 7 0;
#X connect 6 0 8 0;
#X connect 7 0 18 0;
#X connect 8 0 16 0;
#X connect 9 0 11 0;
#X connect 10 0 6 1;
#X connect 11 0 10 0;
#X connect 11 1 7 1;
#X connect 11 2 14 0;
#X connect 12 0 4 0;
#X connect 13 0 4 0;
#X connect 14 0 20 0;
#X connect 15 0 13 0;
#X connect 16 0 4 0;
#X connect 18 0 19 0;
#X connect 19 0 17 0;
#X connect 20 0 13 0;
#X connect 20 1 12 0;
#X connect 21 0 22 0;
#X connect 21 1 13 1;
#X connect 22 0 4 0;
#X restore 180 98 pd lanparty-debug;
#X text 156 38 declare and stuff;
#X connect 1 0 9 0;
#X connect 6 0 9 0;
#X connect 8 0 9 0;
#X connect 8 2 4 0;
#X connect 8 2 11 0;
#X connect 9 0 3 0;
#X connect 12 0 8 0;
