#N canvas 109 68 994 758 10;
#X obj 780 443 lanparty;
#N canvas 148 422 687 373 timebase 0;
#X obj 157 187 s \$0-pos;
#X obj 321 101 loadbang;
#X obj 321 150 s \$0-BPM;
#X msg 321 126 120 8;
#N canvas 87 281 691 427 timebase 0;
#X obj 192 307 f;
#X obj 224 308 + 1;
#X obj 192 234 loadbang;
#X obj 192 274 metro 60;
#X obj 166 13 inlet;
#X obj 166 38 list trim;
#X obj 166 182 m_bpm2ms;
#X obj 166 153 unpack 0 0;
#X obj 166 211 / 1;
#X obj 192 254 tgl 15 0 empty empty empty 17 7 0 10 -262144 -1 -1 1
1;
#X floatatom 141 248 5 0 0 0 - - -;
#X obj 192 371 outlet;
#X text 241 371 tick;
#X obj 166 84 list split 2;
#X obj 247 107 pack 0 8;
#X msg 74 38 120;
#X msg 109 36 120 4;
#X text 247 154 <bpm> <divisor> i.e. "120 8" to tick in eighth notes.
Default is eighth.;
#X obj 166 61 route bpm pos;
#X obj 254 216 route sync;
#X obj 254 238 t b a;
#X text 337 216 hard sync;
#X obj 321 324 outlet;
#X connect 0 0 1 0;
#X connect 0 0 11 0;
#X connect 1 0 0 1;
#X connect 2 0 9 0;
#X connect 3 0 0 0;
#X connect 4 0 5 0;
#X connect 5 0 18 0;
#X connect 6 0 8 0;
#X connect 7 0 6 0;
#X connect 7 1 8 1;
#X connect 8 0 3 1;
#X connect 8 0 10 0;
#X connect 9 0 3 0;
#X connect 13 0 7 0;
#X connect 13 2 14 0;
#X connect 14 0 7 0;
#X connect 15 0 13 0;
#X connect 16 0 13 0;
#X connect 18 0 13 0;
#X connect 18 1 0 1;
#X connect 18 2 19 0;
#X connect 19 0 20 0;
#X connect 19 1 22 0;
#X connect 20 0 3 0;
#X connect 20 1 0 1;
#X restore 157 158 pd timebase;
#X obj 157 105 r \$0-BPM;
#X msg 157 131 bpm \$1 \$2;
#X text 387 125 bpm is <bpm> <divisor>;
#X connect 1 0 3 0;
#X connect 3 0 2 0;
#X connect 4 0 0 0;
#X connect 5 0 6 0;
#X connect 6 0 4 0;
#X restore 523 374 pd timebase;
#X msg 513 423 28;
#X msg 558 435 31;
#X msg 606 433 33;
#X obj 86 57 g_pad 0;
#X obj 191 57 g_pad 1;
#X obj 295 56 g_pad 2;
#X obj 401 57 g_pad 3;
#X obj 85 192 g_pad 4;
#X obj 190 192 g_pad 5;
#X obj 295 192 g_pad 6;
#X obj 400 192 g_pad 7;
#X obj 84 327 g_pad 8;
#X obj 189 327 g_pad 9;
#X obj 294 327 g_pad 10;
#X obj 399 327 g_pad 11;
#X obj 80 463 g_pad 12;
#X obj 185 463 g_pad 13;
#X obj 290 463 g_pad 14;
#X obj 396 464 g_pad 15;
#X text 97 38 Drums;
#X text 202 39 Percussion;
#X msg 561 407 48;
#X msg 606 405 51;
#X text 305 38 Bass;
#X text 407 37 Melody;
#X text 94 170 Swell;
#X text 192 173 timedisplacer;
#X text 303 173 Doppel;
#X text 417 173 Circle;
#X text 94 307 Cuttingres;
#X text 202 307 Drowning;
#X text 313 307 Dynmicsynth;
#X text 420 308 Eargasm;
#X text 93 437 Quantized;
#X text 207 443 Glicther;
#X text 302 443 PItcher;
#X msg 396 582 switch TEST\$1 \$2;
#X msg 529 485 ALL 0 rootnote \$1;
#X obj 780 393 r \$0-tolan;
#X obj 780 489 s \$0-fromlan;
#N canvas 0 0 567 445 watch-lan 0;
#X text 107 45 This watches the LAN for new clients;
#X obj 133 150 route id;
#X obj 133 128 route server connected;
#X obj 133 102 r \$0-fromlan;
#X obj 268 254 outlet;
#X floatatom 133 185 5 0 0 0 my_id - -;
#X obj 208 201 select -1;
#X obj 208 150 f;
#X text 246 277 id of new client;
#X msg 84 127 id 12;
#X connect 1 0 5 0;
#X connect 1 0 6 1;
#X connect 2 0 1 0;
#X connect 2 1 7 0;
#X connect 3 0 2 0;
#X connect 6 1 4 0;
#X connect 7 0 6 0;
#X connect 9 0 1 0;
#X restore 560 175 pd watch-lan;
#N canvas 0 0 815 526 initialize-new-client 0;
#X obj 68 32 inlet;
#X text 125 32 bang for each new client;
#X text 236 61 Init client: Put whatever you need here:;
#X obj 225 114 r \$0-BPM;
#X obj 200 164 list;
#X obj 68 55 t b b b b b b;
#X obj 200 218 s \$0-tolan;
#X msg 200 191 bpm \$1 \$2;
#X obj 138 122 r \$0-pos;
#X obj 120 156 f;
#X obj 103 316 f;
#X obj 103 380 s \$0-tolan;
#X obj 121 287 r \$0-pos;
#X msg 120 185 sync \$1;
#X msg 103 351 pos \$1;
#X text 84 260 or soft sync:;
#X msg 58 184 metro 1;
#X connect 0 0 5 0;
#X connect 3 0 4 1;
#X connect 4 0 7 0;
#X connect 5 2 16 0;
#X connect 5 3 9 0;
#X connect 5 5 4 0;
#X connect 7 0 6 0;
#X connect 8 0 9 1;
#X connect 9 0 13 0;
#X connect 10 0 14 0;
#X connect 12 0 10 1;
#X connect 13 0 6 0;
#X connect 14 0 11 0;
#X connect 16 0 6 0;
#X restore 560 249 pd initialize-new-client;
#X text 532 273 Init client: Put whatever you need here:;
#X obj 663 33 nbx 4 45 20 480 0 0 empty empty BPM -80 20 1 40 -86277
-228856 -1 20 256;
#X obj 706 81 pack 0 8;
#X obj 706 106 s \$0-BPM;
#X obj 662 81 t b a;
#X msg 662 203 manual init;
#X text 538 144 Watch the LAN for new clients \, send new ids for further
action.;
#X obj 529 512 s \$0-tolan;
#X obj 396 609 s \$0-tolan;
#X obj 789 414 print TO-LAN;
#X obj 790 467 print FROM-LAN;
#X text 513 352 The metro is here.- It's always on.;
#X text 526 585 message formating is done here.;
#X obj 638 685 s \$0-tolan;
#X msg 638 663 metro \$1;
#X obj 638 643 tgl 15 0 empty empty empty 17 7 0 10 -262144 -1 -1 0
1;
#X obj 737 648 spigot;
#X msg 737 678 tick \$1;
#X obj 737 712 s \$0-tolan;
#X obj 795 646 tgl 15 0 empty empty test_netsync 17 7 1 10 -262144
-1 -1 1 1;
#X obj 737 625 r \$0-pos;
#X text 616 624 metro on/off;
#X connect 0 0 41 0;
#X connect 0 0 54 0;
#X connect 2 0 39 0;
#X connect 3 0 39 0;
#X connect 4 0 39 0;
#X connect 5 0 6 0;
#X connect 6 0 7 0;
#X connect 7 0 8 0;
#X connect 8 0 9 0;
#X connect 9 0 10 0;
#X connect 10 0 11 0;
#X connect 11 0 12 0;
#X connect 12 0 13 0;
#X connect 13 0 14 0;
#X connect 14 0 15 0;
#X connect 15 0 16 0;
#X connect 16 0 17 0;
#X connect 17 0 18 0;
#X connect 18 0 19 0;
#X connect 19 0 20 0;
#X connect 20 0 38 0;
#X connect 23 0 39 0;
#X connect 24 0 39 0;
#X connect 38 0 52 0;
#X connect 39 0 51 0;
#X connect 40 0 0 0;
#X connect 40 0 53 0;
#X connect 42 0 43 0;
#X connect 45 0 48 0;
#X connect 46 0 47 0;
#X connect 48 0 49 0;
#X connect 48 1 46 0;
#X connect 49 0 43 0;
#X connect 58 0 57 0;
#X connect 59 0 58 0;
#X connect 60 0 61 0;
#X connect 61 0 62 0;
#X connect 63 0 60 1;
#X connect 64 0 60 0;
