#N canvas 186 42 1048 721 10;
#X obj 124 290 \$2;
#X text 181 289 The actual object is passed as \$2;
#X obj 449 104 switch~;
#X obj 449 30 r \$0-switch;
#N canvas 0 22 540 378 switch~ 0;
#X obj 93 160 line~;
#X obj 74 187 *~;
#X obj 93 110 r \$0-switch;
#X obj 74 81 inlet~;
#X obj 73 212 outlet~;
#X msg 93 135 \$1 5;
#X connect 0 0 1 1;
#X connect 1 0 4 0;
#X connect 2 0 5 0;
#X connect 3 0 1 0;
#X connect 5 0 0 0;
#X restore 124 101 pd switch~;
#X obj 449 69 pipe 10;
#X text 512 70 wait for audio to mute so no leftover DC is at the outlet
;
#X obj 526 490 s RJC1000-M-OUT;
#X obj 526 463 list trim;
#N canvas 0 22 540 378 switch~ 0;
#X obj 93 160 line~;
#X obj 74 187 *~;
#X obj 93 110 r \$0-switch;
#X obj 74 81 inlet~;
#X obj 73 212 outlet~;
#X msg 93 135 \$1 5;
#X connect 0 0 1 1;
#X connect 1 0 4 0;
#X connect 2 0 5 0;
#X connect 3 0 1 0;
#X connect 5 0 0 0;
#X restore 124 412 pd switch~;
#N canvas 0 22 540 378 switch~ 0;
#X obj 93 160 line~;
#X obj 74 187 *~;
#X obj 93 110 r \$0-switch;
#X obj 74 81 inlet~;
#X obj 73 212 outlet~;
#X msg 93 135 \$1 5;
#X connect 0 0 1 1;
#X connect 1 0 4 0;
#X connect 2 0 5 0;
#X connect 3 0 1 0;
#X connect 5 0 0 0;
#X restore 310 420 pd switch~;
#X obj 311 528 throw~ RJC1000-S-OUT-1;
#X obj 124 528 throw~ RJC1000-S-OUT-0;
#X obj 140 496 s~ \$1-S-OUT-0;
#X obj 331 504 s~ \$1-S-OUT-1;
#X text 128 12 global audio in;
#X text 134 48 my audio in;
#N canvas 0 22 540 378 switch~ 0;
#X obj 93 160 line~;
#X obj 74 187 *~;
#X obj 93 110 r \$0-switch;
#X obj 74 81 inlet~;
#X obj 73 212 outlet~;
#X msg 93 135 \$1 5;
#X connect 0 0 1 1;
#X connect 1 0 4 0;
#X connect 2 0 5 0;
#X connect 3 0 1 0;
#X connect 5 0 0 0;
#X restore 280 103 pd switch~;
#X obj 294 67 catch~ \$1-S-IN-1;
#X text 284 14 global audio in;
#X text 290 50 my audio in;
#X obj 138 65 catch~ \$1-S-IN-0;
#X obj 125 27 r~ RJC1000-S-IN-0;
#X obj 281 29 r~ RJC1000-S-IN-1;
#X obj 526 430 list prepend \$1;
#X text 662 432 prepend argument.;
#N canvas 208 59 425 369 vol 0;
#X obj 70 42 inlet~;
#X obj 71 270 outlet~;
#X obj 71 241 *~;
#X obj 121 221 line~;
#X obj 121 198 pack 0 10;
#X obj 121 42 r \$0-rjc_volume;
#X obj 277 42 inlet;
#X obj 121 176 * 0.5;
#X obj 277 66 t b a;
#X obj 121 66 m_scale 0 1 0 1 dB;
#X msg 121 108 0;
#X obj 121 87 moses 0.011;
#X connect 0 0 2 0;
#X connect 2 0 1 0;
#X connect 3 0 2 1;
#X connect 4 0 3 0;
#X connect 5 0 9 0;
#X connect 6 0 8 0;
#X connect 7 0 4 0;
#X connect 8 0 7 0;
#X connect 8 1 7 1;
#X connect 9 0 11 0;
#X connect 10 0 7 0;
#X connect 11 0 10 0;
#X connect 11 1 7 0;
#X restore 124 371 pd vol;
#N canvas 0 22 409 326 vol 0;
#X obj 70 42 inlet~;
#X obj 71 243 outlet~;
#X obj 71 211 *~;
#X obj 121 42 r \$0-rjc_volume;
#X obj 266 44 inlet;
#X obj 121 191 line~;
#X obj 121 168 pack 0 10;
#X obj 121 142 * 0.5;
#X obj 266 66 t b a;
#X obj 121 67 m_scale 0 1 0 1 dB;
#X msg 121 108 0;
#X obj 121 87 moses 0.011;
#X connect 0 0 2 0;
#X connect 2 0 1 0;
#X connect 3 0 9 0;
#X connect 4 0 8 0;
#X connect 5 0 2 1;
#X connect 6 0 5 0;
#X connect 7 0 6 0;
#X connect 8 0 7 0;
#X connect 8 1 7 1;
#X connect 9 0 11 0;
#X connect 10 0 7 0;
#X connect 11 0 10 0;
#X connect 11 1 7 0;
#X restore 310 366 pd vol;
#N canvas 0 22 807 408 panning 0;
#X obj 55 222 outlet;
#X obj 147 224 outlet;
#X obj 55 110 swap 1;
#X obj 55 135 -;
#X obj 55 71 t f f;
#X obj 248 44 r \$0-rjc_panning;
#X obj 248 111 * 1.5708;
#X obj 208 140 cos;
#X obj 297 142 sin;
#X text 99 70 linear;
#X text 246 23 cospan: constant power;
#X msg 373 69 0.5;
#X obj 373 47 loadbang;
#X connect 2 0 3 0;
#X connect 2 1 3 1;
#X connect 3 0 0 0;
#X connect 4 0 2 0;
#X connect 4 1 1 0;
#X connect 5 0 6 0;
#X connect 6 0 7 0;
#X connect 6 0 8 0;
#X connect 7 0 0 0;
#X connect 8 0 1 0;
#X connect 11 0 6 0;
#X connect 12 0 11 0;
#X restore 282 313 pd panning;
#X obj 277 162 list trim;
#X text 378 185 route by argument;
#X obj 277 185 route \$1 ALL;
#X obj 277 137 r RJC1000-M-IN;
#N canvas 483 301 706 297 decor-messages 0;
#X obj 66 27 inlet;
#X obj 66 201 outlet;
#X obj 66 54 rjc1000-route \$0 rjc_volume;
#X obj 66 77 rjc1000-route \$0 rjc_panning;
#X obj 66 98 rjc1000-route \$0 switch;
#X connect 0 0 2 0;
#X connect 2 0 3 0;
#X connect 3 0 4 0;
#X connect 4 0 1 0;
#X restore 277 216 pd decor-messages;
#N canvas 0 22 450 300 special-messages 0;
#X obj 131 96 r \$0-switch;
#X msg 131 118 switch \$1;
#X text 124 70 pass along switch messages to modules;
#X obj 102 35 inlet;
#X obj 102 216 outlet;
#X connect 0 0 1 0;
#X connect 1 0 4 0;
#X connect 3 0 4 0;
#X restore 277 240 pd special-messages;
#X obj 459 387 route self;
#N canvas 551 234 729 468 audio-routing 0;
#X obj 40 44 inlet~;
#X obj 68 76 inlet~;
#X obj 227 108 inlet;
#X obj 433 276 catch~ \$0-DUMMY;
#X obj 227 135 list trim;
#X obj 94 182 unpack 0 0 0 0;
#N canvas 0 22 933 380 set-throws 0;
#X obj 54 121 select SLOT-0 SLOT-1 SLOT-2 SLOT-3;
#X obj 302 121 select SLOT-4 SLOT-5 SLOT-6 SLOT-7;
#X obj 552 120 select SLOT-8 SLOT-9 SLOT-10 SLOT-11;
#X msg 302 145 8 9 10 11;
#X msg 552 149 12 13 14 15;
#X msg 54 154 4 5 6 7;
#X obj 54 70 list append \$1;
#X text 172 70 "SLOT-X";
#X obj 54 27 inlet;
#X obj 54 50 b;
#X obj 54 297 outlet;
#X msg 257 68 symbol SLOT-5;
#X connect 0 0 5 0;
#X connect 0 1 5 0;
#X connect 0 2 5 0;
#X connect 0 3 5 0;
#X connect 0 4 1 0;
#X connect 1 0 3 0;
#X connect 1 1 3 0;
#X connect 1 2 3 0;
#X connect 1 3 3 0;
#X connect 1 4 2 0;
#X connect 2 0 4 0;
#X connect 2 1 4 0;
#X connect 2 2 4 0;
#X connect 2 3 4 0;
#X connect 3 0 10 0;
#X connect 4 0 10 0;
#X connect 5 0 10 0;
#X connect 6 0 0 0;
#X connect 8 0 9 0;
#X connect 9 0 6 0;
#X connect 11 0 0 0;
#X restore 94 155 pd set-throws;
#X msg 125 128 bang;
#N canvas 113 338 764 482 throwthem 0;
#X obj 33 331 throw~ \$0-DUMMY;
#X obj 188 332 throw~ \$0-DUMMY;
#X obj 33 34 inlet~;
#X obj 188 33 inlet~;
#X obj 289 33 inlet;
#X text 346 34 set throw;
#X obj 289 91 t a a;
#X msg 46 306 set SLOT-\$1-S-IN-0;
#X msg 199 307 set SLOT-\$1-S-IN-1;
#X text 344 307 names of catch~es in decorators;
#X obj 42 61 outlet~;
#X obj 202 60 outlet~;
#X obj 305 384 outlet;
#X text 299 413 makes a nicer layout;
#X obj 32 261 *~;
#X obj 188 256 *~;
#X obj 468 32 inlet;
#X obj 485 388 outlet;
#X obj 468 53 lop~ 10;
#X obj 579 175 line~;
#X obj 579 144 pack 0 10;
#X obj 579 93 t a a;
#X obj 579 117 *;
#X obj 579 71 * 0.01;
#X connect 2 0 10 0;
#X connect 2 0 14 0;
#X connect 3 0 11 0;
#X connect 3 0 15 0;
#X connect 4 0 6 0;
#X connect 6 0 7 0;
#X connect 6 1 8 0;
#X connect 7 0 0 0;
#X connect 8 0 1 0;
#X connect 14 0 0 0;
#X connect 15 0 1 0;
#X connect 16 0 18 0;
#X connect 18 0 15 1;
#X connect 18 0 14 1;
#X connect 20 0 19 0;
#X connect 21 0 22 0;
#X connect 21 1 22 1;
#X connect 22 0 20 0;
#X connect 23 0 21 0;
#X restore 40 244 pd throwthem;
#N canvas 314 418 764 482 throwthem 0;
#X obj 33 331 throw~ \$0-DUMMY;
#X obj 188 332 throw~ \$0-DUMMY;
#X obj 33 34 inlet~;
#X obj 188 33 inlet~;
#X obj 289 33 inlet;
#X text 346 34 set throw;
#X obj 289 91 t a a;
#X msg 46 306 set SLOT-\$1-S-IN-0;
#X msg 199 307 set SLOT-\$1-S-IN-1;
#X text 344 307 names of catch~es in decorators;
#X obj 42 61 outlet~;
#X obj 202 60 outlet~;
#X obj 305 384 outlet;
#X text 299 413 makes a nicer layout;
#X obj 32 261 *~;
#X obj 188 256 *~;
#X obj 468 32 inlet;
#X obj 485 388 outlet;
#X floatatom 54 122 5 0 0 0 - - -;
#X obj 53 102 env~;
#X obj 468 53 lop~ 10;
#X obj 523 173 line~;
#X obj 523 142 pack 0 10;
#X obj 523 91 t a a;
#X obj 523 115 *;
#X obj 523 69 * 0.01;
#X connect 2 0 10 0;
#X connect 2 0 14 0;
#X connect 2 0 19 0;
#X connect 3 0 11 0;
#X connect 3 0 15 0;
#X connect 4 0 6 0;
#X connect 6 0 7 0;
#X connect 6 1 8 0;
#X connect 7 0 0 0;
#X connect 8 0 1 0;
#X connect 14 0 0 0;
#X connect 15 0 1 0;
#X connect 16 0 20 0;
#X connect 19 0 18 0;
#X connect 20 0 15 1;
#X connect 20 0 14 1;
#X connect 22 0 21 0;
#X connect 23 0 24 0;
#X connect 23 1 24 1;
#X connect 24 0 22 0;
#X connect 25 0 23 0;
#X restore 40 271 pd throwthem;
#N canvas 314 472 764 482 throwthem 0;
#X obj 33 331 throw~ \$0-DUMMY;
#X obj 188 332 throw~ \$0-DUMMY;
#X obj 33 34 inlet~;
#X obj 188 33 inlet~;
#X obj 289 33 inlet;
#X text 346 34 set throw;
#X obj 289 91 t a a;
#X msg 46 306 set SLOT-\$1-S-IN-0;
#X msg 199 307 set SLOT-\$1-S-IN-1;
#X text 344 307 names of catch~es in decorators;
#X obj 42 61 outlet~;
#X obj 202 60 outlet~;
#X obj 305 384 outlet;
#X text 299 413 makes a nicer layout;
#X obj 32 261 *~;
#X obj 188 256 *~;
#X obj 536 175 line~;
#X obj 536 144 pack 0 10;
#X obj 536 93 t a a;
#X obj 536 117 *;
#X obj 536 71 * 0.01;
#X obj 468 32 inlet;
#X obj 485 388 outlet;
#X obj 468 53 lop~ 10;
#X connect 2 0 10 0;
#X connect 2 0 14 0;
#X connect 3 0 11 0;
#X connect 3 0 15 0;
#X connect 4 0 6 0;
#X connect 6 0 7 0;
#X connect 6 1 8 0;
#X connect 7 0 0 0;
#X connect 8 0 1 0;
#X connect 14 0 0 0;
#X connect 15 0 1 0;
#X connect 17 0 16 0;
#X connect 18 0 19 0;
#X connect 18 1 19 1;
#X connect 19 0 17 0;
#X connect 20 0 18 0;
#X connect 21 0 23 0;
#X connect 23 0 15 1;
#X connect 23 0 14 1;
#X restore 40 298 pd throwthem;
#N canvas 314 418 764 482 throwthem 0;
#X obj 33 331 throw~ \$0-DUMMY;
#X obj 188 332 throw~ \$0-DUMMY;
#X obj 33 34 inlet~;
#X obj 188 33 inlet~;
#X obj 289 33 inlet;
#X text 346 34 set throw;
#X obj 289 91 t a a;
#X msg 46 306 set SLOT-\$1-S-IN-0;
#X msg 199 307 set SLOT-\$1-S-IN-1;
#X text 344 307 names of catch~es in decorators;
#X obj 42 61 outlet~;
#X obj 202 60 outlet~;
#X obj 305 384 outlet;
#X text 299 413 makes a nicer layout;
#X obj 32 261 *~;
#X obj 188 256 *~;
#X obj 468 32 inlet;
#X obj 485 388 outlet;
#X obj 513 173 line~;
#X obj 513 142 pack 0 10;
#X obj 513 91 t a a;
#X obj 513 115 *;
#X obj 513 69 * 0.01;
#X obj 468 53 lop~ 10;
#X connect 2 0 10 0;
#X connect 2 0 14 0;
#X connect 3 0 11 0;
#X connect 3 0 15 0;
#X connect 4 0 6 0;
#X connect 6 0 7 0;
#X connect 6 1 8 0;
#X connect 7 0 0 0;
#X connect 8 0 1 0;
#X connect 14 0 0 0;
#X connect 15 0 1 0;
#X connect 16 0 23 0;
#X connect 19 0 18 0;
#X connect 20 0 21 0;
#X connect 20 1 21 1;
#X connect 21 0 19 0;
#X connect 22 0 20 0;
#X connect 23 0 15 1;
#X connect 23 0 14 1;
#X restore 40 325 pd throwthem;
#X text 284 107 volume;
#X obj 94 109 loadbang;
#X text 223 36 Route audio to four throws in the next row. Stereo only!
;
#X text 452 89 names of catch~es in decorators:;
#X msg 466 132 SLOT-XXXX-S-IN-1;
#X msg 466 110 SLOT-XXXX-S-IN-0;
#X obj 227 190 route vol-0 vol-1 vol-2 vol-3;
#X connect 0 0 8 0;
#X connect 1 0 8 1;
#X connect 2 0 4 0;
#X connect 4 0 18 0;
#X connect 5 0 8 2;
#X connect 5 1 9 2;
#X connect 5 2 10 2;
#X connect 5 3 11 2;
#X connect 6 0 5 0;
#X connect 7 0 6 0;
#X connect 8 0 9 0;
#X connect 8 1 9 1;
#X connect 9 0 10 0;
#X connect 9 1 10 1;
#X connect 10 0 11 0;
#X connect 10 1 11 1;
#X connect 13 0 6 0;
#X connect 18 0 8 3;
#X connect 18 1 9 3;
#X connect 18 2 10 3;
#X connect 18 3 11 3;
#X restore 186 390 pd audio-routing;
#X text 547 386 filter messages to my own decorator.;
#X obj 459 366 list trim;
#X connect 0 0 26 0;
#X connect 0 0 36 0;
#X connect 0 1 27 0;
#X connect 0 1 36 1;
#X connect 0 2 38 0;
#X connect 3 0 5 0;
#X connect 4 0 0 0;
#X connect 5 0 2 0;
#X connect 8 0 7 0;
#X connect 9 0 13 0;
#X connect 9 0 12 0;
#X connect 10 0 14 0;
#X connect 10 0 11 0;
#X connect 17 0 0 1;
#X connect 18 0 17 0;
#X connect 21 0 4 0;
#X connect 22 0 4 0;
#X connect 23 0 17 0;
#X connect 24 0 8 0;
#X connect 26 0 9 0;
#X connect 27 0 10 0;
#X connect 28 0 26 1;
#X connect 28 1 27 1;
#X connect 29 0 31 0;
#X connect 31 0 33 0;
#X connect 31 1 33 0;
#X connect 32 0 29 0;
#X connect 33 0 34 0;
#X connect 34 0 0 2;
#X connect 35 0 36 2;
#X connect 35 1 24 0;
#X connect 38 0 35 0;
