#N canvas 326 399 954 562 10;
#X obj 494 469 s RJC1000-M-OUT;
#X obj 494 442 list trim;
#X text 181 289 The actual object is passed as \$2;
#X obj 415 107 switch~;
#X obj 415 33 r \$0-switch;
#N canvas 0 22 540 378 switch~ 0;
#X obj 93 160 line~;
#X obj 74 187 *~;
#X obj 93 110 r \$0-switch;
#X obj 74 81 inlet~;
#X obj 73 212 outlet~;
#X msg 93 135 \$1 5;
#X connect 0 0 1 1;
#X connect 1 0 4 0;
#X connect 2 0 5 0;
#X connect 3 0 1 0;
#X connect 5 0 0 0;
#X restore 124 101 pd switch~;
#N canvas 0 22 540 378 switch~ 0;
#X obj 93 160 line~;
#X obj 74 187 *~;
#X obj 74 81 inlet~;
#X obj 73 212 outlet~;
#X msg 93 135 \$1 5;
#X obj 93 110 inlet;
#X connect 0 0 1 1;
#X connect 1 0 3 0;
#X connect 2 0 1 0;
#X connect 4 0 0 0;
#X connect 5 0 4 0;
#X restore 124 412 pd switch~;
#X obj 415 72 pipe 10;
#X text 478 73 wait for audio to mute so no leftover DC is at the outlet
;
#N canvas 0 22 540 378 switch~ 0;
#X obj 93 160 line~;
#X obj 74 187 *~;
#X obj 74 81 inlet~;
#X obj 73 212 outlet~;
#X msg 93 135 \$1 5;
#X obj 93 110 inlet;
#X connect 0 0 1 1;
#X connect 1 0 3 0;
#X connect 2 0 1 0;
#X connect 4 0 0 0;
#X connect 5 0 4 0;
#X restore 300 422 pd switch~;
#X obj 301 470 throw~ RJC1000-S-OUT-1;
#X obj 124 468 throw~ RJC1000-S-OUT-0;
#X obj 125 27 r~ RJC1000-S-IN;
#X text 240 27 global mono audio in;
#X obj 138 65 catch~ \$1-S-IN;
#X text 253 65 my mono audio in;
#X obj 140 436 s~ \$1-S-OUT-0;
#X obj 321 446 s~ \$1-S-OUT-1;
#X obj 124 290 \$2;
#X obj 494 409 list prepend \$1;
#X text 629 411 prepend argument;
#N canvas 0 22 367 290 vol 0;
#X obj 40 42 inlet~;
#X obj 41 250 outlet~;
#X obj 41 221 *~;
#X obj 91 171 line~;
#X obj 91 148 pack 0 10;
#X obj 91 42 r \$0-rjc_volume;
#X obj 236 42 inlet;
#X obj 91 122 * 0.5;
#X obj 236 66 t b a;
#X obj 91 67 m_scale 0 1 0 1 dB;
#X connect 0 0 2 0;
#X connect 2 0 1 0;
#X connect 3 0 2 1;
#X connect 4 0 3 0;
#X connect 5 0 9 0;
#X connect 6 0 8 0;
#X connect 7 0 4 0;
#X connect 8 0 7 0;
#X connect 8 1 7 1;
#X connect 9 0 7 0;
#X restore 124 371 pd vol;
#N canvas 0 22 709 502 vol 0;
#X obj 70 42 inlet~;
#X obj 70 240 outlet~;
#X obj 121 171 line~;
#X obj 121 148 pack 0 10;
#X obj 121 42 r \$0-rjc_volume;
#X obj 71 192 *~;
#X obj 246 42 inlet;
#X obj 121 122 * 0.5;
#X obj 246 66 t b a;
#X obj 121 93 m_scale 0 1 0 1 dB;
#X connect 0 0 5 0;
#X connect 2 0 5 1;
#X connect 3 0 2 0;
#X connect 4 0 9 0;
#X connect 5 0 1 0;
#X connect 6 0 8 0;
#X connect 7 0 3 0;
#X connect 8 0 7 0;
#X connect 8 1 7 1;
#X connect 9 0 7 0;
#X restore 300 373 pd vol;
#N canvas 0 22 807 408 panning 0;
#X obj 55 222 outlet;
#X obj 147 224 outlet;
#X obj 55 110 swap 1;
#X obj 55 135 -;
#X obj 55 71 t f f;
#X obj 248 44 r \$0-rjc_panning;
#X obj 248 111 * 1.5708;
#X obj 208 140 cos;
#X obj 297 142 sin;
#X text 99 70 linear;
#X text 246 23 cospan: constant power;
#X msg 373 69 0.5;
#X obj 373 47 loadbang;
#X connect 2 0 3 0;
#X connect 2 1 3 1;
#X connect 3 0 0 0;
#X connect 4 0 2 0;
#X connect 4 1 1 0;
#X connect 5 0 6 0;
#X connect 6 0 7 0;
#X connect 6 0 8 0;
#X connect 7 0 0 0;
#X connect 8 0 1 0;
#X connect 11 0 6 0;
#X connect 12 0 11 0;
#X restore 272 314 pd panning;
#X obj 142 175 list trim;
#X text 243 198 route by argument;
#X obj 142 198 route \$1 ALL;
#X obj 142 150 r RJC1000-M-IN;
#N canvas 483 301 706 297 decor-messages 0;
#X obj 66 27 inlet;
#X obj 66 201 outlet;
#X obj 66 54 rjc1000-route \$0 rjc_volume;
#X obj 66 77 rjc1000-route \$0 rjc_panning;
#X obj 66 98 rjc1000-route \$0 switch;
#X connect 0 0 2 0;
#X connect 2 0 3 0;
#X connect 3 0 4 0;
#X connect 4 0 1 0;
#X restore 142 229 pd decor-messages;
#N canvas 0 22 450 300 special-messages 0;
#X obj 131 106 r \$0-switch;
#X msg 163 172 switch \$1;
#X text 124 70 pass along switch messages to modules;
#X obj 102 35 inlet;
#X obj 102 216 outlet;
#X obj 131 127 t f f;
#X obj 131 149 outlet;
#X connect 0 0 5 0;
#X connect 1 0 4 0;
#X connect 3 0 4 0;
#X connect 5 0 6 0;
#X connect 5 1 1 0;
#X restore 142 253 pd special-messages;
#X connect 1 0 0 0;
#X connect 4 0 7 0;
#X connect 5 0 18 0;
#X connect 6 0 11 0;
#X connect 6 0 16 0;
#X connect 7 0 3 0;
#X connect 9 0 10 0;
#X connect 9 0 17 0;
#X connect 12 0 5 0;
#X connect 14 0 5 0;
#X connect 18 0 21 0;
#X connect 18 1 22 0;
#X connect 18 2 19 0;
#X connect 19 0 1 0;
#X connect 21 0 6 0;
#X connect 22 0 9 0;
#X connect 23 0 21 1;
#X connect 23 1 22 1;
#X connect 24 0 26 0;
#X connect 26 0 28 0;
#X connect 26 1 28 0;
#X connect 27 0 24 0;
#X connect 28 0 29 0;
#X connect 29 0 18 1;
#X connect 29 1 6 1;
#X connect 29 1 9 1;
