#N canvas 344 281 813 368 10;
#X obj 124 272 s RJC1000-M-OUT;
#X obj 124 93 list trim;
#X obj 124 245 list trim;
#X text 286 58 decorator for a module with one message inlet and one
message outlet. Messages;
#X text 222 116 route by argument;
#X text 200 148 route by inlet;
#X obj 124 213 list prepend \$1 0;
#X text 260 215 prepend argument and outlet number;
#X obj 124 180 \$2;
#X text 181 179 The actual object is passed as \$2;
#X obj 124 147 route 0 1;
#X obj 124 42 r RJC1000-M-IN;
#N canvas 0 0 464 397 switch 0;
#X obj 99 145 s \$0-switch;
#X text 189 268 0 or 1;
#X obj 99 81 route switch;
#X obj 99 45 inlet;
#X obj 180 232 outlet;
#X obj 180 200 spigot;
#X obj 219 175 r \$0-switch;
#X obj 235 200 tgl 15 0 empty empty empty 17 7 0 10 -262144 -1 -1 1
1;
#X obj 99 108 route \$1 ALL;
#X connect 2 0 8 0;
#X connect 2 1 5 0;
#X connect 3 0 2 0;
#X connect 5 0 4 0;
#X connect 6 0 5 1;
#X connect 6 0 7 0;
#X connect 8 0 0 0;
#X connect 8 1 0 0;
#X restore 124 64 pd switch;
#X obj 124 116 route \$1 ALL;
#X connect 1 0 13 0;
#X connect 2 0 0 0;
#X connect 6 0 2 0;
#X connect 8 0 6 0;
#X connect 10 0 8 0;
#X connect 10 1 8 1;
#X connect 11 0 12 0;
#X connect 12 0 1 0;
#X connect 13 0 10 0;
#X connect 13 1 10 0;
