#N canvas 333 240 450 300 10;
#X obj 214 66 inlet;
#X obj 211 185 outlet;
#X obj 99 65 inlet~;
#X obj 99 185 outlet~;
#X obj 99 126 osc~;
#X obj 214 115 mtof;
#X obj 100 162 *~ 0.4;
#X obj 214 92 route float;
#X connect 0 0 7 0;
#X connect 4 0 6 0;
#X connect 5 0 4 0;
#X connect 6 0 3 0;
#X connect 7 0 5 0;
