#N canvas 195 22 858 557 10;
#X declare -path .;
#X declare -path .;
#X declare -path rj;
#X declare -path .;
#X declare -path rj;
#X declare -path res;
#X declare -path .;
#X declare -path rj;
#X declare -path utils;
#X declare -path .;
#X declare -path rj;
#X declare -path d;
#X declare -path .;
#X declare -path rj;
#X declare -path .;
#X declare -path rj;
#X declare -path rjc-modules;
#X declare -path utils;
#X declare -path d;
#X obj 117 437 catch~ RJC1000-S-OUT;
#X obj 69 503 soundoutput;
#X obj 171 464 catch~ RJC1000-S-OUT-1;
#X obj 68 408 catch~ RJC1000-S-OUT-0;
#X text 233 408 left;
#X text 273 437 both;
#X text 339 467 right;
#X obj 645 67 declare -path .;
#N canvas 140 80 535 442 \$0-STRUCTURE 0;
#X obj 20 20 decor-s1m1-s2m1 TEST4 rjc_swell;
#X obj 20 40 decor-s1m1-s2m1 TEST5 rjc_timedisplacer;
#X obj 20 60 decor-s1m1-s2m1 TEST6 rjc_doppelganger;
#X obj 20 80 decor-s1m1-s2m1 TEST7 rjc_circlepan/circlepan;
#X obj 20 100 decor-s1m1-s2m1 TEST8 rjc_cuttingres/rjc_cuttingresonator
;
#X obj 20 120 decor-s1m1-s2m1 TEST9 rjc_drowningeffect/drowning;
#X obj 20 140 decor-s1m1-s2m1 TEST10 rjc_dynamicsynth/rjc-dynamicssynth
;
#X obj 20 160 decor-s1m1-s2m1 TEST11 rjc_eargasm/eargasm;
#X obj 20 180 decor-s1m1-s2m1 TEST12 rjc_quantized/quantized;
#X obj 20 200 decor-s1m1-s2m1 TEST13 rjc_realityglitcher;
#X obj 20 220 decor-s1m1-s1m1 TEST14 rjc_realitypitcher;
#X obj 20 240 decor-s1m1-s2m1 TEST15 rjc_doppeldrums;
#X restore 36 83 pd \$0-STRUCTURE;
#N canvas 267 22 733 484 TODO 0;
#X text 129 114 TODO: Example how one module (e.g. a score) can control
another module (e.g. a synth);
#X text 130 171 What about deletion or updates of a module config?
Should we use (16) separate subpatches?;
#X text 123 218 TODO: Send something to ALL;
#X restore 644 33 pd TODO;
#X obj 644 88 declare -path rj;
#X obj 643 111 declare -path rjc-modules;
#N canvas 108 55 974 730 controls-docs 0;
#X obj 55 515 s RJC1000-M-IN;
#X floatatom 55 436 5 0 0 0 - - -;
#X obj 55 491 list trim;
#X obj 55 465 list prepend TEST1 0;
#X text 207 466 tag and inlet-id;
#X obj 70 596 r RJC1000-M-OUT;
#X obj 70 625 print OUT;
#X obj 452 115 s RJC1000-M-IN;
#X floatatom 452 36 5 0 0 0 - - -;
#X obj 452 91 list trim;
#X text 605 64 tag and inlet-id;
#X obj 452 65 list prepend TEST2 1;
#X obj 376 511 s RJC1000-M-IN;
#X floatatom 376 432 5 0 0 0 osc-midi - -;
#X obj 376 487 list trim;
#X obj 376 461 list prepend TEST4 0;
#X obj 414 305 s RJC1000-M-IN;
#X obj 414 281 list trim;
#X obj 414 228 tgl 15 0 empty empty empty 17 7 0 10 -262144 -1 -1 0
1;
#X obj 414 255 list prepend switch TEST4;
#X msg 48 256 switch TEST1 \$1 \, switch TEST2 \$1 \, switch TEST3
\$1;
#X obj 48 278 s RJC1000-M-IN;
#X obj 48 235 tgl 15 0 empty empty empty 17 7 0 10 -262144 -1 -1 0
1;
#X obj 47 190 s RJC1000-M-IN;
#X obj 47 147 tgl 15 0 empty empty empty 17 7 0 10 -204786 -1 -1 0
1;
#X msg 47 168 switch ALL \$1;
#X obj 569 533 s RJC1000-M-IN;
#X floatatom 569 454 5 0 0 0 - - -;
#X obj 569 509 list trim;
#X obj 569 483 list prepend TEST5 0;
#X obj 572 431 hsl 128 15 0 1 0 0 empty empty empty -2 -8 0 10 -262144
-1 -1 0 1;
#X obj 665 273 s RJC1000-M-IN;
#X obj 665 230 tgl 15 0 empty empty empty 17 7 0 10 -262144 -1 -1 0
1;
#X msg 665 252 switch TEST5 \$1;
#X obj 41 36 s RJC1000-M-IN;
#X text 38 16 Messages to all decorators are sent to:;
#X text 38 68 By default \, all modules are off (message and dsp).
;
#X msg 41 92 switch <target> 0/1;
#X text 189 94 messages switch them on.;
#X text 47 214 Else use the first argument to select the target:;
#X text 49 341 When switched on \, modules accept further messages
using this format:;
#X msg 55 374 <target> <inlet-id> <data ...>;
#X text 55 397 Inlet numbering starts at 0 for each message inlet.
Examples:;
#X text 57 567 Receiving messages:;
#X msg 398 597 dry 0.2 \, bq 2 \, basedur 500 \, bpitch 83 \, feedback
0.99 \, dell 2 \, delr 3 \,;
#X obj 398 684 s RJC1000-M-IN;
#X obj 398 660 list trim;
#X obj 571 683 s RJC1000-M-IN;
#X obj 571 640 tgl 15 0 empty empty empty 17 7 0 10 -262144 -1 -1 0
1;
#X obj 398 634 list prepend DUBDEL 0;
#X msg 571 662 switch DUBDEL \$1;
#X obj 641 383 s RJC1000-M-IN;
#X obj 641 335 c_multimetro 0 200;
#X obj 641 314 tgl 15 0 empty empty empty 17 7 0 10 -262144 -1 -1 0
1;
#X text 759 384 TODO: Send something to ALL;
#X text 33 122 "switch" target "ALL" is special to switch everything
on:;
#X msg 641 362 ALL 0 tick \$1;
#X connect 1 0 3 0;
#X connect 2 0 0 0;
#X connect 3 0 2 0;
#X connect 5 0 6 0;
#X connect 8 0 11 0;
#X connect 9 0 7 0;
#X connect 11 0 9 0;
#X connect 13 0 15 0;
#X connect 14 0 12 0;
#X connect 15 0 14 0;
#X connect 17 0 16 0;
#X connect 18 0 19 0;
#X connect 19 0 17 0;
#X connect 20 0 21 0;
#X connect 22 0 20 0;
#X connect 24 0 25 0;
#X connect 25 0 23 0;
#X connect 27 0 29 0;
#X connect 28 0 26 0;
#X connect 29 0 28 0;
#X connect 30 0 27 0;
#X connect 32 0 33 0;
#X connect 33 0 31 0;
#X connect 44 0 49 0;
#X connect 46 0 45 0;
#X connect 48 0 50 0;
#X connect 49 0 46 0;
#X connect 50 0 47 0;
#X connect 52 0 56 0;
#X connect 53 0 52 0;
#X connect 56 0 51 0;
#X restore 265 59 pd controls-docs;
#N canvas 494 212 786 504 builder 0;
#X obj 83 327 s pd;
#X text 127 326 restart audio;
#X msg 175 104 numdump;
#X obj 175 169 list split 1;
#X msg 415 138 clear;
#X msg 83 37 BUILD!;
#N canvas 493 43 621 522 builder 0;
#X obj 126 38 inlet;
#X text 122 18 objects with arguments;
#X obj 52 38 inlet;
#X obj 52 186 list append;
#X obj 52 224 list prepend obj 20;
#X obj 52 248 list trim;
#X obj 52 314 outlet;
#X obj 52 135 * 20;
#X obj 52 160 + 20;
#X text 48 18 id;
#X connect 0 0 3 1;
#X connect 2 0 7 0;
#X connect 3 0 4 0;
#X connect 4 0 5 0;
#X connect 5 0 6 0;
#X connect 7 0 8 0;
#X connect 8 0 3 0;
#X restore 175 201 pd builder;
#X msg 103 201 loadbang;
#X obj 83 57 t b b b b;
#X obj 103 250 s pd-\$0-STRUCTURE;
#X obj 83 17 bng 15 250 50 0 empty empty empty 17 7 0 10 -4034 -1 -1
;
#X msg 290 90 read \$1 cr;
#X obj 290 67 symbol;
#X obj 290 44 openpanel;
#X msg 290 21 bang;
#X obj 340 68 bng 15 250 50 0 empty empty reload 17 7 1 10 -262144
-1 -1;
#X msg 83 301 dsp 1;
#X msg 486 138 dsp 0;
#X obj 133 412 f;
#X obj 133 438 s \$0-build-GUI;
#X text 171 416 hack: send number of modules to GUI builder;
#X obj 110 16 inlet;
#X obj 175 133 u_dumpfile flo.txt cr;
#X connect 2 0 22 0;
#X connect 3 0 6 0;
#X connect 3 0 18 1;
#X connect 3 1 6 1;
#X connect 4 0 9 0;
#X connect 5 0 8 0;
#X connect 6 0 9 0;
#X connect 7 0 9 0;
#X connect 8 0 16 0;
#X connect 8 1 7 0;
#X connect 8 1 18 0;
#X connect 8 2 2 0;
#X connect 8 3 4 0;
#X connect 8 3 17 0;
#X connect 10 0 5 0;
#X connect 11 0 22 0;
#X connect 12 0 11 0;
#X connect 13 0 12 0;
#X connect 14 0 13 0;
#X connect 15 0 12 0;
#X connect 16 0 0 0;
#X connect 17 0 0 0;
#X connect 18 0 19 0;
#X connect 21 0 5 0;
#X connect 22 0 3 0;
#X restore 411 58 pd builder;
#N canvas 0 22 1016 585 build-GUI 0;
#N canvas 493 43 621 522 builder-idx 0;
#X obj 156 42 inlet;
#X obj 52 38 inlet;
#X text 48 18 how many;
#N canvas 0 22 450 300 countto 0;
#X obj 99 58 inlet;
#X obj 99 177 f 0;
#X obj 127 177 + 1;
#X msg 142 143 0;
#X obj 99 208 outlet;
#X obj 99 142 until;
#X obj 99 117 t a b;
#X obj 99 96 max;
#X connect 0 0 7 0;
#X connect 1 0 2 0;
#X connect 1 0 4 0;
#X connect 2 0 1 1;
#X connect 3 0 1 1;
#X connect 5 0 1 0;
#X connect 6 0 5 0;
#X connect 6 1 3 0;
#X connect 7 0 6 0;
#X restore 52 84 pd countto;
#X obj 52 286 list append;
#X obj 52 348 list trim;
#X obj 52 414 outlet;
#X msg 228 326 clear;
#X obj 52 57 t a b;
#X obj 156 71 list split 1;
#X text 152 6 objects with arguments. First argument will become second
\, new second arg will be the index number;
#X obj 52 195 * 105;
#X obj 52 136 t a a a;
#X obj 102 197 * 105;
#X obj 52 170 mod 4;
#X obj 101 169 div 4;
#X obj 52 324 list prepend obj;
#X obj 52 254 pack 0 0 s 0;
#X obj 52 220 + 50;
#X obj 102 222 + 80;
#X connect 0 0 9 0;
#X connect 1 0 8 0;
#X connect 3 0 12 0;
#X connect 4 0 16 0;
#X connect 5 0 6 0;
#X connect 7 0 6 0;
#X connect 8 0 3 0;
#X connect 9 0 17 2;
#X connect 9 1 4 1;
#X connect 11 0 18 0;
#X connect 12 0 14 0;
#X connect 12 1 15 0;
#X connect 12 2 17 3;
#X connect 13 0 19 0;
#X connect 14 0 11 0;
#X connect 15 0 13 0;
#X connect 16 0 5 0;
#X connect 17 0 4 0;
#X connect 18 0 17 0;
#X connect 19 0 17 1;
#X restore 552 312 pd builder-idx;
#N canvas 0 22 450 300 connector 0;
#N canvas 0 22 450 300 countto 0;
#X obj 99 58 inlet;
#X obj 99 177 f 0;
#X obj 127 177 + 1;
#X msg 142 143 0;
#X obj 99 208 outlet;
#X obj 99 142 until;
#X obj 99 117 t a b;
#X obj 99 96 max;
#X connect 0 0 7 0;
#X connect 1 0 2 0;
#X connect 1 0 4 0;
#X connect 2 0 1 1;
#X connect 3 0 1 1;
#X connect 5 0 1 0;
#X connect 6 0 5 0;
#X connect 6 1 3 0;
#X connect 7 0 6 0;
#X restore 120 124 pd countto;
#X obj 120 240 outlet;
#X obj 120 150 list;
#X obj 120 179 list split 2;
#X obj 120 38 inlet;
#X obj 120 67 t f b;
#X msg 120 208 connect \$2 0 \$1 0;
#X connect 0 0 2 0;
#X connect 2 0 3 0;
#X connect 3 0 2 1;
#X connect 3 0 6 0;
#X connect 3 2 2 1;
#X connect 4 0 5 0;
#X connect 5 0 0 0;
#X connect 5 1 2 1;
#X connect 6 0 1 0;
#X restore 235 325 pd connector;
#X text 227 275 connect x first in/outlets;
#X obj 552 348 s pd-\$0-GUI;
#X msg 647 279 g_pad;
#X obj 233 300 + 2;
#X obj 536 216 t f b f b b;
#X msg 561 191 16;
#X msg 718 282 clear \, obj 10 10 r TOGUI;
#X obj 517 121 r \$0-build-GUI;
#X obj 517 151 max 1;
#X obj 517 174 + 1;
#X text 430 177 zero based;
#X msg 379 314 obj 600 600 s FROMGUI;
#X connect 0 0 3 0;
#X connect 1 0 3 0;
#X connect 4 0 0 1;
#X connect 5 0 1 0;
#X connect 6 0 5 0;
#X connect 6 1 13 0;
#X connect 6 2 0 0;
#X connect 6 3 4 0;
#X connect 6 4 8 0;
#X connect 7 0 6 0;
#X connect 8 0 3 0;
#X connect 9 0 10 0;
#X connect 10 0 11 0;
#X connect 11 0 6 0;
#X connect 13 0 3 0;
#X restore 411 79 pd build-GUI;
#X obj 411 37 bng 15 250 50 0 empty empty build! 17 7 1 10 -4034 -1
-1;
#X obj 40 182 cnv 15 400 200 empty empty empty 20 12 0 14 -261682 -66577
0;
#X text 51 184 Add whatever landparty logic you need here:;
#X obj 650 249 soundinput;
#X obj 651 338 s~ RJC1000-S-IN;
#X obj 651 296 e_agc;
#N canvas 371 279 563 484 timebase 0;
#N canvas 87 281 843 452 timebase 0;
#X obj 113 382 f;
#X obj 145 383 + 1;
#X obj 61 252 loadbang;
#X obj 113 319 metro 60;
#X obj 166 13 inlet;
#X obj 166 38 list trim;
#X obj 166 182 m_bpm2ms;
#X obj 166 153 unpack 0 0;
#X obj 166 211 / 1;
#X obj 61 272 tgl 15 0 empty empty empty 17 7 0 10 -262144 -1 -1 1
1;
#X floatatom 174 232 5 0 0 0 - - -;
#X obj 113 416 outlet;
#X text 162 416 tick;
#X obj 166 84 list split 2;
#X obj 247 107 pack 0 8;
#X msg 74 38 120;
#X msg 109 36 120 4;
#X text 247 154 <bpm> <divisor> i.e. "120 8" to tick in eighth notes.
Default is eighth.;
#X obj 113 295 t b a;
#X obj 457 362 outlet;
#X obj 165 62 route bpm;
#X text 434 219 hard or soft sync. Hard sync also syncs metro \, soft
only sets beat position.;
#X obj 253 216 route sync pos;
#X obj 348 285 route metro tick;
#X text 476 283 these may go away later.;
#X connect 0 0 1 0;
#X connect 0 0 11 0;
#X connect 1 0 0 1;
#X connect 2 0 9 0;
#X connect 3 0 0 0;
#X connect 4 0 5 0;
#X connect 5 0 20 0;
#X connect 6 0 8 0;
#X connect 7 0 6 0;
#X connect 7 1 8 1;
#X connect 8 0 3 1;
#X connect 8 0 10 0;
#X connect 9 0 3 0;
#X connect 13 0 7 0;
#X connect 13 2 14 0;
#X connect 14 0 7 0;
#X connect 15 0 13 0;
#X connect 16 0 13 0;
#X connect 18 0 3 0;
#X connect 18 1 0 1;
#X connect 20 0 13 0;
#X connect 20 1 22 0;
#X connect 22 0 18 0;
#X connect 22 1 0 1;
#X connect 22 2 23 0;
#X connect 23 0 3 0;
#X connect 23 1 11 0;
#X connect 23 2 19 0;
#X restore 157 158 pd timebase;
#X obj 157 110 inlet lanparty;
#X obj 157 259 s RJC1000-M-IN;
#X msg 157 235 ALL 0 tick \$1;
#X msg 58 126 pos 20;
#X msg 87 87 sync 100;
#X msg 61 157 bpm 60;
#X msg 62 183 bpm 120 2;
#X msg 62 210 bpm 120 8;
#X obj 231 302 outlet;
#X text 222 321 not for me;
#X text 175 138 bpm <bpm> <div> \, pos <tickpos> \, on 0/1;
#X connect 0 0 3 0;
#X connect 0 1 9 0;
#X connect 1 0 0 0;
#X connect 3 0 2 0;
#X connect 4 0 0 0;
#X connect 5 0 0 0;
#X connect 6 0 0 0;
#X connect 7 0 0 0;
#X connect 8 0 0 0;
#X restore 108 280 pd timebase;
#X obj 651 317 *~ 0.7;
#X obj 644 156 declare -path utils;
#X obj 644 133 declare -path d;
#N canvas 0 22 620 262 everything 0;
#X obj 78 44 inlet;
#X obj 78 75 s RJC1000-M-IN;
#X text 193 77 everything else is sent to the main module receiver
;
#X connect 0 0 1 0;
#X restore 108 314 pd everything else;
#X text 205 283 handle time: bpm \, pos \, sync;
#X obj 271 316 u_show;
#X msg 271 340 ALL 0 rootnote 28;
#X text 60 23 DESKTOP LANPARTY MASTER;
#N canvas 584 170 1230 764 controlclients 0;
#X obj 780 443 lanparty;
#N canvas 148 422 687 373 timebase 0;
#X obj 157 187 s \$0-pos;
#X obj 321 101 loadbang;
#X obj 321 150 s \$0-BPM;
#X msg 321 126 120 8;
#N canvas 87 281 691 427 timebase 0;
#X obj 192 307 f;
#X obj 224 308 + 1;
#X obj 192 234 loadbang;
#X obj 192 274 metro 60;
#X obj 166 13 inlet;
#X obj 166 38 list trim;
#X obj 166 182 m_bpm2ms;
#X obj 166 153 unpack 0 0;
#X obj 166 211 / 1;
#X obj 192 254 tgl 15 0 empty empty empty 17 7 0 10 -262144 -1 -1 1
1;
#X floatatom 141 248 5 0 0 0 - - -;
#X obj 192 371 outlet;
#X text 241 371 tick;
#X obj 166 84 list split 2;
#X obj 247 107 pack 0 8;
#X msg 74 38 120;
#X msg 109 36 120 4;
#X text 247 154 <bpm> <divisor> i.e. "120 8" to tick in eighth notes.
Default is eighth.;
#X obj 166 61 route bpm pos;
#X obj 254 216 route sync;
#X obj 254 238 t b a;
#X text 337 216 hard sync;
#X obj 321 324 outlet;
#X connect 0 0 1 0;
#X connect 0 0 11 0;
#X connect 1 0 0 1;
#X connect 2 0 9 0;
#X connect 3 0 0 0;
#X connect 4 0 5 0;
#X connect 5 0 18 0;
#X connect 6 0 8 0;
#X connect 7 0 6 0;
#X connect 7 1 8 1;
#X connect 8 0 3 1;
#X connect 8 0 10 0;
#X connect 9 0 3 0;
#X connect 13 0 7 0;
#X connect 13 2 14 0;
#X connect 14 0 7 0;
#X connect 15 0 13 0;
#X connect 16 0 13 0;
#X connect 18 0 13 0;
#X connect 18 1 0 1;
#X connect 18 2 19 0;
#X connect 19 0 20 0;
#X connect 19 1 22 0;
#X connect 20 0 3 0;
#X connect 20 1 0 1;
#X restore 157 158 pd timebase;
#X obj 157 105 r \$0-BPM;
#X msg 157 131 bpm \$1 \$2;
#X text 387 125 bpm is <bpm> <divisor>;
#X connect 1 0 3 0;
#X connect 3 0 2 0;
#X connect 4 0 0 0;
#X connect 5 0 6 0;
#X connect 6 0 4 0;
#X restore 523 374 pd timebase;
#X msg 513 423 28;
#X msg 558 435 31;
#X obj 86 57 g_pad 0;
#X obj 191 57 g_pad 1;
#X obj 295 56 g_pad 2;
#X obj 401 57 g_pad 3;
#X obj 85 192 g_pad 4;
#X obj 190 192 g_pad 5;
#X obj 295 192 g_pad 6;
#X obj 400 192 g_pad 7;
#X obj 84 327 g_pad 8;
#X obj 189 327 g_pad 9;
#X obj 294 327 g_pad 10;
#X obj 399 327 g_pad 11;
#X obj 80 463 g_pad 12;
#X obj 185 463 g_pad 13;
#X obj 290 463 g_pad 14;
#X obj 396 464 g_pad 15;
#X text 97 38 Drums;
#X text 202 39 Percussion;
#X msg 606 405 51;
#X text 305 38 Bass;
#X text 407 37 Melody;
#X text 94 170 Swell;
#X text 192 173 timedisplacer;
#X text 303 173 Doppel;
#X text 417 173 Circle;
#X text 94 307 Cuttingres;
#X text 202 307 Drowning;
#X text 313 307 Dynmicsynth;
#X text 420 308 Eargasm;
#X text 93 437 Quantized;
#X text 207 443 Glicther;
#X text 302 443 PItcher;
#X msg 396 582 switch TEST\$1 \$2;
#X msg 529 485 ALL 0 rootnote \$1;
#N canvas 0 22 567 445 watch-lan 0;
#X text 107 45 This watches the LAN for new clients;
#X obj 133 150 route id;
#X obj 133 128 route server connected;
#X obj 133 102 r \$0-fromlan;
#X obj 268 254 outlet;
#X floatatom 133 185 5 0 0 0 my_id - -;
#X obj 208 201 select -1;
#X obj 208 150 f;
#X text 246 277 id of new client;
#X msg 84 127 id 12;
#X connect 1 0 5 0;
#X connect 1 0 6 1;
#X connect 2 0 1 0;
#X connect 2 1 7 0;
#X connect 3 0 2 0;
#X connect 6 1 4 0;
#X connect 7 0 6 0;
#X connect 9 0 1 0;
#X restore 560 175 pd watch-lan;
#N canvas 0 22 815 526 initialize-new-client 0;
#X obj 68 32 inlet;
#X text 125 32 bang for each new client;
#X text 236 61 Init client: Put whatever you need here:;
#X obj 225 114 r \$0-BPM;
#X obj 200 164 list;
#X obj 68 55 t b b b b b b;
#X msg 200 191 bpm \$1 \$2;
#X obj 138 122 r \$0-pos;
#X obj 120 156 f;
#X obj 103 316 f;
#X obj 121 287 r \$0-pos;
#X msg 120 185 sync \$1;
#X msg 103 351 pos \$1;
#X text 84 260 or soft sync:;
#X msg 58 184 metro 1;
#X obj 103 380 s tolan;
#X obj 200 218 s tolan;
#X connect 0 0 5 0;
#X connect 3 0 4 1;
#X connect 4 0 6 0;
#X connect 5 2 14 0;
#X connect 5 3 8 0;
#X connect 5 5 4 0;
#X connect 6 0 16 0;
#X connect 7 0 8 1;
#X connect 8 0 11 0;
#X connect 9 0 12 0;
#X connect 10 0 9 1;
#X connect 11 0 16 0;
#X connect 12 0 15 0;
#X connect 14 0 16 0;
#X restore 560 249 pd initialize-new-client;
#X text 532 273 Init client: Put whatever you need here:;
#X obj 663 33 nbx 4 45 20 480 0 0 empty empty BPM -80 20 1 40 -86277
-228856 -1 20 256;
#X obj 706 81 pack 0 8;
#X obj 706 106 s \$0-BPM;
#X obj 662 81 t b a;
#X msg 662 203 manual init;
#X text 538 144 Watch the LAN for new clients \, send new ids for further
action.;
#X obj 789 414 print TO-LAN;
#X obj 790 467 print FROM-LAN;
#X text 513 352 The metro is here.- It's always on.;
#X text 526 585 message formating is done here.;
#X msg 638 663 metro \$1;
#X obj 638 643 tgl 15 0 empty empty empty 17 7 0 10 -262144 -1 -1 0
1;
#X obj 737 648 spigot;
#X msg 737 678 tick \$1;
#X obj 795 646 tgl 15 0 empty empty test_netsync 17 7 1 10 -262144
-1 -1 0 1;
#X obj 737 625 r \$0-pos;
#X text 616 624 metro on/off;
#X obj 780 393 r tolan;
#X obj 780 489 s fromlan;
#X obj 737 711 s tolan;
#X obj 638 685 s tolan;
#X obj 396 609 s tolan;
#X obj 574 544 s tolan;
#X text 840 392 \$0 removed to make communication from python easier
;
#X msg 561 407 44;
#X msg 604 433 34;
#X connect 0 0 48 0;
#X connect 0 0 59 0;
#X connect 2 0 37 0;
#X connect 3 0 37 0;
#X connect 4 0 5 0;
#X connect 5 0 6 0;
#X connect 6 0 7 0;
#X connect 7 0 8 0;
#X connect 8 0 9 0;
#X connect 9 0 10 0;
#X connect 10 0 11 0;
#X connect 11 0 12 0;
#X connect 12 0 13 0;
#X connect 13 0 14 0;
#X connect 14 0 15 0;
#X connect 15 0 16 0;
#X connect 16 0 17 0;
#X connect 17 0 18 0;
#X connect 18 0 19 0;
#X connect 19 0 36 0;
#X connect 22 0 37 0;
#X connect 36 0 62 0;
#X connect 37 0 63 0;
#X connect 38 0 39 0;
#X connect 41 0 44 0;
#X connect 42 0 43 0;
#X connect 44 0 45 0;
#X connect 44 1 42 0;
#X connect 45 0 39 0;
#X connect 51 0 61 0;
#X connect 52 0 51 0;
#X connect 53 0 54 0;
#X connect 54 0 60 0;
#X connect 55 0 53 1;
#X connect 56 0 53 0;
#X connect 58 0 0 0;
#X connect 58 0 47 0;
#X connect 65 0 37 0;
#X connect 66 0 37 0;
#X restore 648 436 pd controlclients;
#X obj 109 222 r tolan;
#X obj 482 17 loadbang;
#X connect 0 0 1 0;
#X connect 0 0 1 1;
#X connect 2 0 1 1;
#X connect 3 0 1 0;
#X connect 15 0 13 0;
#X connect 18 0 20 0;
#X connect 20 0 22 0;
#X connect 21 0 25 0;
#X connect 22 0 19 0;
#X connect 27 0 28 0;
#X connect 31 0 21 0;
#X connect 31 0 27 0;
#X connect 32 0 15 0;
