#N struct 1011-symarray float x array symbols 1011-sym;
#N struct 1011-sym symbol name float on;
#N struct 1251rect float s float e float l;
#N struct 1251lines float x;
#N struct 1251cursor float x;
#N canvas 246 61 829 458 10;
#X declare -path .;
#X declare -path rj;
#X declare -path rjc-modules;
#X declare -path utils;
#X declare -path d;
#X declare -path ../../modules;
#X declare -path ../../modules-internal;
#X declare -path rjc_gui;
#X obj 78 35 cnv 15 300 250 empty empty empty 20 12 0 14 -228856 -66577
0;
#N canvas 85 270 443 303 declarations 0;
#X obj 59 62 declare -path .;
#X obj 59 86 declare -path rj;
#X obj 59 110 declare -path rjc-modules;
#X obj 59 183 declare -path utils;
#X obj 59 159 declare -path d;
#X obj 59 207 declare -path ../../modules;
#X obj 59 231 declare -path ../../modules-internal;
#X obj 59 134 declare -path rjc_gui;
#X restore 107 107 pd declarations;
#N canvas 636 569 532 261 init 0;
#X obj 11 37 loadbang;
#X msg 34 158 symbol module_list.txt;
#X obj 34 180 s \$0-config-filename;
#X text 8 12 for testing \, allow time for all other systems to start
;
#X text 187 182 in slot-manager;
#X msg 57 84 \; pd dsp 1 \; #transport play 1 \; #volume 1 \; pd-RJC_main.pd
vis 0 \;;
#X obj 11 58 t b b b;
#X msg 11 206 system timebase init bang;
#X obj 11 227 outlet;
#X text 200 207 Joe: added message to start metro on load;
#X text 211 90 Martin: removed delay;
#X connect 0 0 6 0;
#X connect 1 0 2 0;
#X connect 6 0 7 0;
#X connect 6 1 1 0;
#X connect 6 2 5 0;
#X connect 7 0 8 0;
#X restore 107 143 pd init;
#X text 227 142 loadbangs;
#X obj 117 186 python-interface;
#X obj 226 206 tgl 15 0 empty empty connected 20 7 0 10 -262144 -1
-1 1 1;
#X obj 107 226 RJC-1000.master;
#N canvas 122 230 450 300 meta 0;
#X obj 13 10 inlet;
#X obj 156 185 outlet;
#X obj 188 161 print DEBUG;
#X obj 188 140 spigot 0;
#X obj 12 71 route debug;
#X obj 156 111 t a a;
#X obj 13 38 route meta;
#X obj 12 119 route vis;
#N canvas 527 237 450 300 vis 0;
#X msg 124 146 \; pd-\$1.pd vis \$2 \;;
#X obj 17 9 inlet;
#X obj 17 55 route master;
#X obj 17 30 list trim;
#X msg 17 80 RJC_main \$1;
#X obj 124 124 list;
#X connect 1 0 3 0;
#X connect 2 0 4 0;
#X connect 2 1 5 0;
#X connect 3 0 2 0;
#X connect 4 0 5 0;
#X connect 5 0 0 0;
#X restore 11 204 pd vis;
#X obj 72 258 print discarded-meta-message;
#X obj 12 174 t a a;
#X obj 63 204 print VIS;
#X obj 12 142 list;
#X connect 0 0 6 0;
#X connect 3 0 2 0;
#X connect 4 0 3 1;
#X connect 4 1 7 0;
#X connect 5 0 1 0;
#X connect 5 1 3 0;
#X connect 6 0 4 0;
#X connect 6 1 5 0;
#X connect 7 0 12 0;
#X connect 7 1 9 0;
#X connect 10 0 8 0;
#X connect 10 1 11 0;
#X connect 12 0 10 0;
#X restore 107 206 pd meta;
#X obj 107 247 s \$0-loopback;
#X obj 117 164 r \$0-loopback;
#X text 226 108 declare and stuff;
#X text 146 59 !!! DO NOT TOUCH !!!;
#X text 400 106 Welcome to the Pd interface of the RJC.;
#X text 400 130 If you would like to edit your modules \, select;
#X text 400 152 Edit > Edit Module... from the menubar.;
#X text 399 174 That interface directly exposes the wiring of the;
#X text 400 197 module which you can then change however you like.
;
#X text 400 223 DO NOT TOUCH the modules on the left!!!;
#X text 399 246 Doing so may render the RJC inoperable.;
#X connect 2 0 7 0;
#X connect 4 0 7 0;
#X connect 4 1 5 0;
#X connect 6 0 8 0;
#X connect 7 0 6 0;
#X connect 9 0 4 0;
