#N canvas 51 109 581 313 10;
#X obj 13 64 lanparty;
#X obj 13 26 inlet tcp;
#X obj 88 26 inlet udp;
#X obj 88 138 == 0;
#X obj 13 278 outlet tcp;
#X obj 39 253 outlet udp;
#X text 99 51 TODO: when you touch the connect symbol show the messages
coming in.;
#X obj 66 86 t f f f;
#X obj 112 111 outlet connected;
#X obj 88 181 rj_image disconnected.png;
#X obj 66 227 rj_image connected.png;
#X obj 88 160 showimage disconnected.png 308 12 1 1;
#X obj 66 206 showimage connected.png 308 12 0 1;
#N canvas 0 22 449 178 touch_accelerate 0;
#X obj 52 113 r #touch;
#X obj 72 69 r #accelerate;
#X obj 52 132 list prepend #touch;
#X obj 72 88 list prepend #accelerate;
#X obj 52 152 outlet;
#X text 12 22 Yuli: Sends touch and accelerometer data from the device
to the RJC-1000;
#X connect 0 0 2 0;
#X connect 1 0 3 0;
#X connect 2 0 4 0;
#X connect 3 0 4 0;
#X restore 29 2 pd touch_accelerate;
#X text 169 4 Yuli: To be connected to lanparty once the Python side
can push these messages to Pd.;
#X connect 0 0 4 0;
#X connect 0 1 5 0;
#X connect 0 2 7 0;
#X connect 1 0 0 0;
#X connect 2 0 0 1;
#X connect 3 0 11 0;
#X connect 7 0 12 0;
#X connect 7 1 3 0;
#X connect 7 2 8 0;
#X connect 11 0 9 0;
#X connect 12 0 10 0;
