#N canvas 426 230 805 486 10;
#X obj 34 35 inlet;
#X obj 34 391 outlet;
#X obj 55 199 loadbang;
#X msg 200 151 set \$1;
#X obj 201 296 list trim;
#X obj 200 175 s \$0-in;
#X obj 201 247 r \$0-out;
#X obj 201 276 list prepend \$2;
#X obj 34 344 u_dispatch \$1 \$2;
#X obj 200 123 r \$1-\$2;
#X obj 55 233 list prepend \$2 \$3;
#X obj 201 201 cnv 15 177 28 empty empty empty 0 0 1 4 -191407 -1 0
;
#X obj 208 205 hsl 100 20 0 1 0 0 \$0-out \$0-in \$2 10 12 1 12 -227289
-1 -262144 0 1;
#X obj 315 205 nbx 5 20 0 1 0 0 \$0-numbox-out \$0-numbox-in empty
0 -8 1 12 -262144 -227289 -1 0 256;
#X obj 262 175 loadbang;
#X text 409 49 \$1: \$0 of parent;
#X text 409 64 \$2: param name;
#X text 409 79 \$3: default value;
#X text 409 94 \$4: limit low;
#X text 409 109 \$5: limit high;
#N canvas 0 0 744 475 range-from-args 0;
#X msg 188 299 range \$1 \$2;
#X obj 203 330 s \$0-numbox-in;
#X obj 188 355 s \$0-in;
#X obj 188 35 loadbang;
#X obj 188 62 list append \$4 \$5;
#X obj 188 159 unpack 0 0;
#X obj 188 191 == 0;
#X obj 255 190 == 0;
#X obj 188 213 &&;
#X msg 188 264 0 1;
#X obj 188 238 select 1 0;
#X obj 221 265 list append \$4 \$5;
#X obj 188 126 t a a;
#X msg 316 78 0 1;
#X msg 358 82 0 0;
#X msg 391 79 0 100;
#X msg 436 81 -100 0;
#X msg 357 58 2 0;
#X obj 115 367 u_show;
#X msg 115 389 range 0 1;
#X text 304 190 if both are zero \, use (0 \, 1) \, else use args.
;
#X msg 274 33 bang;
#X connect 0 0 1 0;
#X connect 0 0 2 0;
#X connect 0 0 18 0;
#X connect 3 0 4 0;
#X connect 4 0 12 0;
#X connect 5 0 6 0;
#X connect 5 1 7 0;
#X connect 6 0 8 0;
#X connect 7 0 8 1;
#X connect 8 0 10 0;
#X connect 9 0 0 0;
#X connect 10 0 9 0;
#X connect 10 1 11 0;
#X connect 11 0 0 0;
#X connect 12 0 5 0;
#X connect 12 1 11 1;
#X connect 13 0 12 0;
#X connect 14 0 12 0;
#X connect 15 0 12 0;
#X connect 16 0 12 0;
#X connect 17 0 12 0;
#X connect 18 0 19 0;
#X connect 21 0 4 0;
#X restore 408 136 pd range-from-args;
#X connect 0 0 8 0;
#X connect 2 0 10 0;
#X connect 3 0 5 0;
#X connect 4 0 8 0;
#X connect 4 0 1 0;
#X connect 6 0 7 0;
#X connect 7 0 4 0;
#X connect 8 0 1 0;
#X connect 9 0 3 0;
#X connect 10 0 8 0;
#X connect 12 0 13 0;
#X connect 14 0 12 0;
#X coords 0 -1 1 1 179 30 2 200 200;
