#N canvas 113 85 1087 732 10;
#N canvas 438 178 716 306 builders 0;
#N canvas 561 204 598 357 builder 0;
#X obj 126 38 inlet;
#X text 122 18 objects with arguments;
#X obj 52 38 inlet;
#X text 48 18 how many;
#N canvas 0 0 450 300 countto 0;
#X obj 99 58 inlet;
#X obj 99 177 f 0;
#X obj 127 177 + 1;
#X msg 142 143 0;
#X obj 99 208 outlet;
#X obj 99 142 until;
#X obj 99 117 t a b;
#X obj 99 96 max;
#X connect 0 0 7 0;
#X connect 1 0 2 0;
#X connect 1 0 4 0;
#X connect 2 0 1 1;
#X connect 3 0 1 1;
#X connect 5 0 1 0;
#X connect 6 0 5 0;
#X connect 6 1 3 0;
#X connect 7 0 6 0;
#X restore 52 114 pd countto;
#X obj 52 186 list append;
#X obj 52 224 list prepend obj 20;
#X obj 52 248 list trim;
#X obj 52 314 outlet;
#X msg 228 226 clear;
#X obj 52 135 * 20;
#X obj 52 160 + 20;
#X obj 52 57 t a b;
#X connect 0 0 5 1;
#X connect 2 0 12 0;
#X connect 4 0 10 0;
#X connect 5 0 6 0;
#X connect 6 0 7 0;
#X connect 7 0 8 0;
#X connect 9 0 8 0;
#X connect 10 0 11 0;
#X connect 11 0 5 0;
#X connect 12 0 4 0;
#X connect 12 1 9 0;
#X restore 95 123 pd builder;
#X obj 95 159 s pd-\$0-xxx;
#N canvas 0 0 450 300 \$0-xxx 0;
#X restore 185 158 pd \$0-xxx;
#X msg 162 96 osc~ 440;
#X msg 95 96 5;
#X msg 174 123 clear;
#X msg 283 92 5;
#X msg 392 116 clear;
#N canvas 0 0 450 300 \$0-yyy 0;
#X restore 373 154 pd \$0-yyy;
#X obj 283 155 s pd-\$0-yyy;
#N canvas 493 43 621 522 builder-idx 0;
#X obj 156 42 inlet;
#X obj 52 38 inlet;
#X text 48 18 how many;
#N canvas 0 0 450 300 countto 0;
#X obj 99 58 inlet;
#X obj 99 177 f 0;
#X obj 127 177 + 1;
#X msg 142 143 0;
#X obj 99 208 outlet;
#X obj 99 142 until;
#X obj 99 117 t a b;
#X obj 99 96 max;
#X connect 0 0 7 0;
#X connect 1 0 2 0;
#X connect 1 0 4 0;
#X connect 2 0 1 1;
#X connect 3 0 1 1;
#X connect 5 0 1 0;
#X connect 6 0 5 0;
#X connect 6 1 3 0;
#X connect 7 0 6 0;
#X restore 52 84 pd countto;
#X obj 52 226 list append;
#X obj 52 264 list prepend obj 20;
#X obj 52 288 list trim;
#X obj 52 354 outlet;
#X msg 228 266 clear;
#X obj 52 57 t a b;
#X obj 52 135 * 20;
#X obj 52 160 + 20;
#X obj 52 106 t a a;
#X obj 156 71 list split 1;
#X obj 52 194 pack 0 s 0;
#X text 152 6 objects with arguments. First argument will become second
\, new second arg will be the index number;
#X connect 0 0 13 0;
#X connect 1 0 9 0;
#X connect 3 0 12 0;
#X connect 4 0 5 0;
#X connect 5 0 6 0;
#X connect 6 0 7 0;
#X connect 8 0 7 0;
#X connect 9 0 3 0;
#X connect 9 1 8 0;
#X connect 10 0 11 0;
#X connect 11 0 14 0;
#X connect 12 0 10 0;
#X connect 12 1 14 2;
#X connect 13 0 14 1;
#X connect 13 1 4 1;
#X connect 14 0 4 0;
#X restore 283 119 pd builder-idx;
#X msg 378 86 pack a b c;
#N canvas 0 0 450 300 connector 0;
#N canvas 0 0 450 300 countto 0;
#X obj 99 58 inlet;
#X obj 99 177 f 0;
#X obj 127 177 + 1;
#X msg 142 143 0;
#X obj 99 208 outlet;
#X obj 99 142 until;
#X obj 99 117 t a b;
#X obj 99 96 max;
#X connect 0 0 7 0;
#X connect 1 0 2 0;
#X connect 1 0 4 0;
#X connect 2 0 1 1;
#X connect 3 0 1 1;
#X connect 5 0 1 0;
#X connect 6 0 5 0;
#X connect 6 1 3 0;
#X connect 7 0 6 0;
#X restore 120 124 pd countto;
#X obj 120 240 outlet;
#X obj 120 150 list;
#X obj 120 179 list split 2;
#X obj 120 38 inlet;
#X obj 120 67 t f b;
#X msg 120 208 connect \$2 0 \$1 0;
#X connect 0 0 2 0;
#X connect 2 0 3 0;
#X connect 3 0 2 1;
#X connect 3 0 6 0;
#X connect 3 2 2 1;
#X connect 4 0 5 0;
#X connect 5 0 0 0;
#X connect 5 1 2 1;
#X connect 6 0 1 0;
#X restore 493 115 pd connector;
#X msg 493 85 5;
#X text 485 65 connect x first in/outlets;
#X connect 0 0 1 0;
#X connect 3 0 0 1;
#X connect 4 0 0 0;
#X connect 5 0 1 0;
#X connect 6 0 10 0;
#X connect 7 0 9 0;
#X connect 10 0 9 0;
#X connect 11 0 10 1;
#X connect 12 0 9 0;
#X connect 13 0 12 0;
#X restore 333 27 pd builders;
#X obj 125 115 s RJC1000-M-IN;
#X floatatom 125 36 5 0 0 0 - - -;
#X obj 125 91 list trim;
#X obj 125 65 list prepend TEST1 0;
#X text 278 64 tag and inlet-id;
#X obj 57 232 r RJC1000-M-OUT;
#X obj 57 261 print OUT;
#X obj 452 115 s RJC1000-M-IN;
#X floatatom 452 36 5 0 0 0 - - -;
#X obj 452 91 list trim;
#X text 605 64 tag and inlet-id;
#X obj 452 65 list prepend TEST2 1;
#X obj 195 177 decor-m2-m1 TEST2 module-m2-m1;
#X obj 195 157 decor-m1-m1 TEST1 module-m1-m1;
#X obj 195 197 decor-m2-m2 TEST3 module-m2-m2;
#X obj 194 221 decor-s1m1-s1m1 TEST4 module-s1m1-s1m1;
#X obj 124 330 catch~ RJC1000-S-OUT;
#X obj 87 376 soundoutput;
#X obj 549 310 s RJC1000-M-IN;
#X floatatom 549 231 5 0 0 0 - - -;
#X obj 549 286 list trim;
#X obj 549 260 list prepend TEST4 0;
#X obj 715 315 s RJC1000-M-IN;
#X obj 715 291 list trim;
#X obj 715 238 tgl 15 0 empty empty empty 17 7 0 10 -262144 -1 -1 0
1;
#X obj 258 359 env~;
#X floatatom 258 389 5 0 0 0 - - -;
#X msg 82 574 dsp 0 \, dsp 1;
#X obj 82 600 s pd;
#X text 126 599 restart audio;
#X obj 715 265 list prepend switch TEST4;
#X text 758 240 reverse!;
#X msg 544 161 switch TEST1 \$1 \, switch TEST2 \$1 \, switch TEST3
\$1;
#X obj 544 183 s RJC1000-M-IN;
#X obj 544 140 tgl 15 0 empty empty empty 17 7 0 10 -262144 -1 -1 0
1;
#X obj 612 127 s RJC1000-M-IN;
#X obj 612 84 tgl 15 0 empty empty empty 17 7 0 10 -262144 -1 -1 0
1;
#X msg 612 105 switch ALL \$1;
#X text 722 106 "ALL" is special;
#X obj 194 243 decor-s1m1-s2m1 TEST5 module-s1m1-s2m1;
#X obj 289 322 catch~ RJC1000-S-OUT-1;
#X obj 32 298 catch~ RJC1000-S-OUT-0;
#X obj 588 582 s RJC1000-M-IN;
#X floatatom 588 503 5 0 0 0 - - -;
#X obj 588 558 list trim;
#X obj 588 532 list prepend TEST5 0;
#X obj 591 480 hsl 128 15 0 1 0 0 empty empty empty -2 -8 0 10 -262144
-1 -1 5200 1;
#X obj 747 525 s RJC1000-M-IN;
#X obj 747 482 tgl 15 0 empty empty empty 17 7 0 10 -262144 -1 -1 1
1;
#X msg 747 504 switch TEST5 \$1;
#X connect 2 0 4 0;
#X connect 3 0 1 0;
#X connect 4 0 3 0;
#X connect 6 0 7 0;
#X connect 9 0 12 0;
#X connect 10 0 8 0;
#X connect 12 0 10 0;
#X connect 17 0 18 0;
#X connect 17 0 18 1;
#X connect 17 0 26 0;
#X connect 20 0 22 0;
#X connect 21 0 19 0;
#X connect 22 0 21 0;
#X connect 24 0 23 0;
#X connect 25 0 31 0;
#X connect 26 0 27 0;
#X connect 28 0 29 0;
#X connect 31 0 24 0;
#X connect 33 0 34 0;
#X connect 35 0 33 0;
#X connect 37 0 38 0;
#X connect 38 0 36 0;
#X connect 41 0 18 1;
#X connect 42 0 18 0;
#X connect 44 0 46 0;
#X connect 45 0 43 0;
#X connect 46 0 45 0;
#X connect 47 0 44 0;
#X connect 49 0 50 0;
#X connect 50 0 48 0;
