#N canvas 291 384 850 512 10;
#X declare -path .;
#X declare -path /rjc-modules/;
#X declare -path .;
#X declare -path rj;
#X declare -path .;
#X declare -path rj;
#X declare -path res;
#X declare -path .;
#X declare -path rj;
#X declare -path utils;
#X declare -path .;
#X declare -path rj;
#X declare -path d;
#X declare -path .;
#X declare -path rj;
#X declare -path .;
#X declare -path . -path rj -path rjc-modules;
#N canvas 0 0 535 470 \$0-slots 0;
#N canvas 449 120 450 300 0-slot 0;
#X obj 20 20 decor-s1m1-s1m1 TEST0 rjc_drums/rjc_drums;
#X restore 20 20 pd 0-slot;
#N canvas 0 0 450 300 1-slot 0;
#X obj 20 20 decor-s1m1-s1m1 TEST1 rjc_percussion;
#X restore 20 40 pd 1-slot;
#N canvas 0 0 450 300 2-slot 0;
#X obj 20 20 decor-s1m1-s1m1 TEST2 rjc_bass;
#X restore 20 60 pd 2-slot;
#N canvas 0 0 450 300 3-slot 0;
#X obj 20 20 decor-s1m1-s1m1 TEST3 rjc_melody;
#X restore 20 80 pd 3-slot;
#N canvas 0 0 450 300 4-slot 0;
#X obj 20 20 decor-s1m1-s2m1 TEST4 rjc_swell;
#X restore 20 100 pd 4-slot;
#N canvas 0 0 450 300 5-slot 0;
#X obj 20 20 decor-s1m1-s2m1 TEST5 rjc_timedisplacer;
#X restore 20 120 pd 5-slot;
#N canvas 0 0 450 300 6-slot 0;
#X obj 20 20 decor-s1m1-s2m1 TEST6 rjc_doppelganger;
#X restore 20 140 pd 6-slot;
#N canvas 0 0 450 300 7-slot 0;
#X obj 20 20 decor-s1m1-s2m1 TEST7 rjc_circlepan/circlepan;
#X restore 20 160 pd 7-slot;
#N canvas 0 0 450 300 8-slot 0;
#X obj 20 20 decor-s1m1-s2m1 TEST8 rjc_cuttingres/rjc_cuttingresonator
;
#X restore 20 180 pd 8-slot;
#N canvas 0 0 450 300 9-slot 0;
#X obj 20 20 decor-s1m1-s2m1 TEST9 rjc_drowningeffect/drowning;
#X restore 20 200 pd 9-slot;
#N canvas 0 0 450 300 10-slot 0;
#X obj 20 20 decor-s1m1-s2m1 TEST10 rjc_dynamicsynth/rjc-dynamicssynth
;
#X restore 20 220 pd 10-slot;
#N canvas 0 0 450 300 11-slot 0;
#X obj 20 20 decor-s1m1-s2m1 TEST11 rjc_eargasm/eargasm;
#X restore 20 240 pd 11-slot;
#N canvas 0 0 450 300 12-slot 0;
#X obj 20 20 decor-s1m1-s2m1 TEST12 rjc_quantized/quantized;
#X restore 20 260 pd 12-slot;
#N canvas 0 0 450 300 13-slot 0;
#X obj 20 20 decor-s1m1-s2m1 TEST13 rjc_realityglitcher;
#X restore 20 280 pd 13-slot;
#N canvas 0 0 450 300 14-slot 0;
#X obj 20 20 decor-s1m1-s1m1 TEST14 rjc_realitypitcher;
#X restore 20 300 pd 14-slot;
#N canvas 0 0 450 300 15-slot 0;
#X obj 20 20 decor-s1m1-s2m1 TEST15 rjc_doppeldrums;
#X restore 20 320 pd 15-slot;
#X restore 103 75 pd \$0-slots;
#N canvas 0 0 830 530 put-module-into-slot 0;
#X obj 250 366 send;
#X obj 173 135 list split 1;
#X msg 499 282 symbol pd-\$1-slot;
#X obj 250 285 list prepend obj 20 20;
#X obj 250 306 list trim;
#X msg 421 283 clear;
#X obj 173 66 inlet;
#X msg 277 80 12 decor-s1m1-s1m1 BLABLA rjc_drums/rjc_drums;
#X text 272 57 <slot-id> <decorator> <receive-tag> <module>;
#X text 508 258 assumes subpatches named [pd <slot-id>-slot];
#X msg 173 290 loadbang;
#X obj 173 176 t b b b a;
#X obj 250 246 list append;
#X connect 1 0 11 0;
#X connect 1 1 12 1;
#X connect 2 0 0 1;
#X connect 3 0 4 0;
#X connect 4 0 0 0;
#X connect 5 0 0 0;
#X connect 6 0 1 0;
#X connect 7 0 1 0;
#X connect 10 0 0 0;
#X connect 11 0 10 0;
#X connect 11 1 12 0;
#X connect 11 2 5 0;
#X connect 11 3 2 0;
#X connect 12 0 3 0;
#X restore 103 186 pd put-module-into-slot;
#X text 98 108 <slot-id> <decorator> <receive-tag> <module>;
#N canvas 0 0 420 256 make-slots 0;
#X msg 220 87 clear;
#N canvas 493 43 621 522 builder-idx 0;
#X obj 156 42 inlet;
#X obj 52 38 inlet;
#X text 48 18 how many;
#N canvas 0 0 450 300 countto 0;
#X obj 99 58 inlet;
#X obj 99 177 f 0;
#X obj 127 177 + 1;
#X msg 142 143 0;
#X obj 99 208 outlet;
#X obj 99 142 until;
#X obj 99 117 t a b;
#X obj 99 96 max;
#X connect 0 0 7 0;
#X connect 1 0 2 0;
#X connect 1 0 4 0;
#X connect 2 0 1 1;
#X connect 3 0 1 1;
#X connect 5 0 1 0;
#X connect 6 0 5 0;
#X connect 6 1 3 0;
#X connect 7 0 6 0;
#X restore 52 84 pd countto;
#X obj 52 226 list append;
#X obj 52 294 list prepend obj 20;
#X obj 52 318 list trim;
#X obj 52 384 outlet;
#X msg 228 296 clear;
#X obj 52 57 t a b;
#X obj 52 135 * 20;
#X obj 52 160 + 20;
#X obj 52 106 t a a;
#X obj 156 71 list split 1;
#X text 152 6 objects with arguments. First argument will become second
\, new second arg will be the index number;
#X obj 52 194 pack 0 s 0;
#X msg 52 256 \$1 \$2 \$3-\$4;
#X connect 0 0 13 0;
#X connect 1 0 9 0;
#X connect 3 0 12 0;
#X connect 4 0 16 0;
#X connect 5 0 6 0;
#X connect 6 0 7 0;
#X connect 8 0 7 0;
#X connect 9 0 3 0;
#X connect 9 1 8 0;
#X connect 10 0 11 0;
#X connect 11 0 15 0;
#X connect 12 0 10 0;
#X connect 12 1 15 2;
#X connect 13 0 15 1;
#X connect 13 1 4 1;
#X connect 15 0 4 0;
#X connect 16 0 5 0;
#X restore 111 90 pd builder-idx;
#X obj 111 126 s pd-\$0-slots;
#X msg 111 63 16;
#X msg 206 57 pd slot;
#X text 113 46 make slots;
#X connect 0 0 2 0;
#X connect 1 0 2 0;
#X connect 3 0 1 0;
#X connect 4 0 1 1;
#X restore 714 451 pd make-slots;
#X msg 103 131 0 decor-s1m1-s1m1 TEST0 rjc_drums/rjc_drums;
#N canvas 355 77 830 530 put-module-into-slot 0;
#X obj 211 435 send;
#X msg 602 296 symbol pd-\$1-slot;
#X obj 211 354 list prepend obj 20 20;
#X obj 211 375 list trim;
#X msg 511 295 clear;
#X obj 126 49 inlet;
#X text 225 40 <slot-id> <decorator> <receive-tag> <module>;
#X text 448 169 assumes subpatches named [pd <slot-id>-slot];
#X msg 230 63 12 decor-s1m1-s1m1 rjc_drums/rjc_drums;
#X obj 126 108 unpack f s s;
#X msg 211 243 symbol SLOT-\$1;
#X obj 211 275 pack s s s;
#X msg 211 322 \$2 \$1 \$3;
#X obj 211 295 list;
#X obj 126 159 t b a b a;
#X msg 126 357 loadbang;
#X connect 1 0 0 1;
#X connect 2 0 3 0;
#X connect 3 0 0 0;
#X connect 4 0 0 0;
#X connect 5 0 9 0;
#X connect 8 0 9 0;
#X connect 9 0 14 0;
#X connect 9 1 11 1;
#X connect 9 2 11 2;
#X connect 10 0 11 0;
#X connect 11 0 13 0;
#X connect 12 0 2 0;
#X connect 13 0 12 0;
#X connect 14 0 15 0;
#X connect 14 1 10 0;
#X connect 14 2 4 0;
#X connect 14 3 1 0;
#X connect 15 0 0 0;
#X restore 101 370 pd put-module-into-slot;
#X text 97 304 <slot-id> <decorator> <module>;
#X text 98 269 Alternate implementation: Here the <slot-id> is used
as <receive-tag> as well:;
#X msg 101 325 1 decor-s1m1-s1m1 rjc_drums/rjc_drums;
#X text 284 367 In the end this will create [decor-s1m1-s1m1 SLOT-<id>
rjc_drums/rjc_drums];
#X msg 640 110 \; pd-\$1-slot clear;
#N canvas 0 0 450 300 countto 0;
#X obj 99 58 inlet;
#X obj 99 177 f 0;
#X obj 127 177 + 1;
#X msg 142 143 0;
#X obj 99 208 outlet;
#X obj 99 142 until;
#X obj 99 117 t a b;
#X obj 99 96 max;
#X connect 0 0 7 0;
#X connect 1 0 2 0;
#X connect 1 0 4 0;
#X connect 2 0 1 1;
#X connect 3 0 1 1;
#X connect 5 0 1 0;
#X connect 6 0 5 0;
#X connect 6 1 3 0;
#X connect 7 0 6 0;
#X restore 640 88 pd countto;
#X msg 640 67 16;
#X text 678 68 clear all slots;
#X obj 424 152 u_dumpfile flo.txt cr;
#X obj 424 175 print DUMP;
#X msg 424 129 numdump;
#X obj 513 477 declare -path . -path rj -path rjc-modules;
#X text 419 195 This version can be used with the existing files.;
#X connect 4 0 1 0;
#X connect 8 0 5 0;
#X connect 11 0 10 0;
#X connect 12 0 11 0;
#X connect 14 0 1 0;
#X connect 14 0 15 0;
#X connect 16 0 14 0;
