#N canvas 492 294 450 300 10;
#X obj 126 77 inlet~;
#X obj 226 189 outlet~;
#X obj 227 157 catch~ \$1;
#X obj 127 110 s~ \$1;
#X obj 226 76 inlet~;
#X obj 126 189 outlet~;
#X obj 126 154 r~ \$1;
#X obj 227 104 throw~ \$1;
#X connect 0 0 3 0;
#X connect 2 0 1 0;
#X connect 4 0 7 0;
#X connect 6 0 5 0;
