#N canvas 12 40 873 650 10;
#X obj 303 586 soundoutput;
#X obj 103 89 accelerate;
#X floatatom 430 434 5 0 100 0 - - -;
#X obj 420 453 / 100;
#X obj 401 480 *~ 0.03;
#N canvas 685 0 711 844 myfantasygame.com 1;
#X obj 357 763 outlet~;
#X obj 414 371 osc~ 400;
#X floatatom 411 741 5 0 10 0 - - -;
#X obj 411 763 / 100;
#X obj 376 582 *~;
#X obj 377 642 delwrite~ pads 2000;
#X obj 436 344 mtof;
#X floatatom 471 289 5 0 0 0 - - -;
#X obj 407 716 *~ 0.5;
#X obj 471 344 mtof;
#N canvas 227 451 392 339 simplescale 0;
#X msg 34 248 0;
#X msg 64 248 2;
#X msg 94 248 4;
#X msg 154 248 7;
#X msg 184 248 9;
#X msg 214 248 11;
#X obj 154 311 outlet;
#X obj 90 12 inlet;
#X obj 92 168 bng 15 250 50 0 empty empty empty 17 7 0 10 -262144 -1
-1;
#X obj 92 213 select 0 1 2 3 4 5 6 7 8;
#X msg 244 248 12;
#X obj 137 65 tgl 15 0 empty empty empty 17 7 0 10 -262144 -1 -1 0
1;
#X obj 137 135 select 0;
#X msg 137 159 5000;
#X msg 182 159 9000;
#X obj 137 111 random 2;
#X obj 137 88 metro 5000;
#X obj 137 40 loadbang;
#X msg 124 248 14;
#X msg 274 248 16;
#X obj 92 188 random 9;
#N canvas 119 89 412 340 zerostate 0;
#X obj 113 104 line;
#X floatatom 113 153 10 0 0 0 - - -;
#X obj 81 33 bng 15 250 50 0 empty empty empty 17 7 0 10 -262144 -1
-1;
#X obj 113 128 * 100;
#X obj 113 175 select 0;
#X obj 79 226 bng 15 250 50 0 empty empty empty 17 7 0 10 -262144 -1
-1;
#X obj 113 56 inlet;
#X obj 113 200 outlet;
#X obj 207 150 line;
#X floatatom 207 223 10 0 0 0 - - -;
#X obj 207 174 * 100;
#X obj 207 270 outlet;
#X obj 207 198 spigot 0;
#X msg 280 73 1;
#X msg 316 73 0;
#X obj 323 106 bng 15 250 50 0 empty empty empty 17 7 0 10 -262144
-1 -1;
#X obj 291 194 line;
#X obj 289 30 inlet;
#X obj 305 140 f;
#X floatatom 361 228 5 0 0 0 - - -;
#X obj 207 100 del 12000;
#X msg 113 80 1 0 \, 0 5000;
#X msg 207 126 0.3 0 \, 0 10000;
#X msg 194 44 stop;
#X msg 296 163 \$1 0.01 \, 30 600;
#X connect 0 0 3 0;
#X connect 1 0 4 0;
#X connect 2 0 21 0;
#X connect 3 0 1 0;
#X connect 4 0 5 0;
#X connect 4 0 7 0;
#X connect 4 0 20 0;
#X connect 6 0 21 0;
#X connect 6 0 14 0;
#X connect 6 0 23 0;
#X connect 8 0 10 0;
#X connect 9 0 11 0;
#X connect 10 0 12 0;
#X connect 12 0 9 0;
#X connect 13 0 12 1;
#X connect 14 0 12 1;
#X connect 14 0 15 0;
#X connect 15 0 18 0;
#X connect 16 0 9 0;
#X connect 17 0 18 1;
#X connect 18 0 24 0;
#X connect 18 0 19 0;
#X connect 20 0 13 0;
#X connect 20 0 22 0;
#X connect 21 0 0 0;
#X connect 22 0 8 0;
#X connect 23 0 20 0;
#X connect 24 0 16 0;
#X restore 34 69 pd zerostate;
#X obj 34 99 bng 15 250 50 0 empty empty empty 17 7 0 10 -262144 -1
-1;
#N canvas 0 0 450 300 once 0;
#X obj 89 162 spigot;
#X obj 34 59 inlet;
#X obj 89 111 t a b;
#X obj 126 140 f 1;
#X obj 89 194 t a b;
#X obj 119 216 f 0;
#X obj 89 247 outlet;
#X obj 207 56 inlet;
#X obj 207 79 bang;
#X obj 207 102 f 1;
#X obj 34 80 route bang;
#X obj 34 110 t b b;
#X obj 34 162 spigot;
#X obj 34 194 t b b;
#X connect 0 0 4 0;
#X connect 1 0 10 0;
#X connect 2 0 0 0;
#X connect 2 1 3 0;
#X connect 3 0 0 1;
#X connect 3 0 12 1;
#X connect 4 0 6 0;
#X connect 4 1 5 0;
#X connect 5 0 3 1;
#X connect 7 0 8 0;
#X connect 8 0 9 0;
#X connect 9 0 3 1;
#X connect 10 0 11 0;
#X connect 10 1 2 0;
#X connect 11 0 12 0;
#X connect 11 1 3 0;
#X connect 12 0 13 0;
#X connect 13 0 6 0;
#X connect 13 1 5 0;
#X restore 231 78 pd once;
#X obj 231 29 t b b;
#X obj 231 102 1;
#X obj 62 97 0;
#X obj 286 139 inlet;
#X obj 250 177 -;
#X floatatom 276 205 5 0 0 0 - - -;
#X obj 282 311 outlet;
#X obj 276 285 t b b;
#X obj 294 181 sel 0;
#X obj 248 121 print norepeat;
#X obj 342 305 outlet;
#X obj 306 17 inlet;
#X obj 258 53 del 2500;
#X connect 0 0 6 0;
#X connect 0 0 28 0;
#X connect 1 0 6 0;
#X connect 1 0 28 0;
#X connect 2 0 6 0;
#X connect 2 0 28 0;
#X connect 3 0 6 0;
#X connect 3 0 28 0;
#X connect 4 0 6 0;
#X connect 4 0 28 0;
#X connect 5 0 6 0;
#X connect 5 0 28 0;
#X connect 7 0 21 0;
#X connect 7 0 24 0;
#X connect 8 0 31 0;
#X connect 9 0 0 0;
#X connect 9 1 1 0;
#X connect 9 2 2 0;
#X connect 9 3 18 0;
#X connect 9 4 3 0;
#X connect 9 5 4 0;
#X connect 9 6 5 0;
#X connect 9 7 10 0;
#X connect 9 8 19 0;
#X connect 10 0 6 0;
#X connect 10 0 28 0;
#X connect 11 0 16 0;
#X connect 12 0 13 0;
#X connect 12 1 14 0;
#X connect 13 0 16 1;
#X connect 14 0 16 1;
#X connect 15 0 12 0;
#X connect 16 0 8 0;
#X connect 16 0 15 0;
#X connect 17 0 11 0;
#X connect 18 0 6 0;
#X connect 18 0 28 0;
#X connect 19 0 6 0;
#X connect 19 0 28 0;
#X connect 20 0 9 0;
#X connect 21 0 22 0;
#X connect 21 0 26 0;
#X connect 21 1 34 0;
#X connect 23 0 25 0;
#X connect 24 0 23 0;
#X connect 24 1 36 0;
#X connect 25 0 11 0;
#X connect 26 0 11 0;
#X connect 27 0 28 1;
#X connect 28 0 29 0;
#X connect 28 0 32 0;
#X connect 28 0 33 0;
#X connect 31 0 20 0;
#X connect 31 1 30 0;
#X connect 32 0 8 0;
#X connect 35 0 21 1;
#X connect 36 0 23 1;
#X restore 471 263 pd simplescale;
#X obj 403 34 r accelerate;
#X obj 403 59 route magnitude;
#X floatatom 403 85 5 0 0 0 - - -;
#X obj 388 153 * 10;
#X obj 406 667 delread~ pads 2000;
#X obj 435 424 +~;
#X obj 436 320 + 60;
#X obj 471 320 + 67;
#X obj 268 402 delread~ pads 500;
#X obj 376 235 print bang;
#X obj 388 178 int;
#X obj 388 203 change;
#X obj 436 505 +~;
#X floatatom 447 110 5 0 0 0 - - -;
#X obj 471 371 osc~ 600;
#N canvas 217 222 297 287 sawline 0;
#X obj 90 224 outlet~;
#X obj 91 196 line~;
#X obj 138 54 tgl 15 0 empty empty empty 17 7 0 10 -262144 -1 -1 1
1;
#X obj 138 77 metro 6000;
#X msg 91 107 1 3000;
#X obj 138 107 del 3000;
#X msg 138 132 0 3000;
#X obj 138 29 loadbang;
#X connect 1 0 0 0;
#X connect 2 0 3 0;
#X connect 3 0 4 0;
#X connect 3 0 5 0;
#X connect 4 0 1 0;
#X connect 5 0 6 0;
#X connect 6 0 1 0;
#X connect 7 0 2 0;
#X restore 390 543 pd sawline;
#X floatatom 302 450 5 0 0 0 - - -;
#X obj 506 344 mtof;
#X obj 436 450 +~;
#X obj 531 371 osc~ 200;
#X obj 506 320 + 36;
#X obj 566 344 mtof;
#X obj 591 371 osc~ 100;
#X obj 566 320 + 24;
#X obj 436 477 +~;
#X floatatom 440 693 5 0 0 0 - - -;
#X obj 357 665 +~;
#X obj 357 698 +~;
#X obj 269 470 *~ 0.8;
#X obj 302 427 line;
#X obj 334 286 spigot 1;
#X msg 401 286 0;
#X msg 401 305 1;
#X obj 334 311 t b b b;
#X obj 204 353 print on;
#X obj 204 385 print off;
#X obj 274 353 del 1000;
#X msg 274 378 0.8 3000;
#X obj 307 260 t b b;
#N canvas 262 441 365 262 simplescale2 0;
#X msg 53 138 0;
#X msg 83 138 2;
#X msg 113 138 4;
#X msg 143 138 6;
#X msg 173 138 7;
#X msg 203 138 9;
#X msg 233 138 11;
#X obj 143 201 outlet;
#X obj 95 32 inlet;
#X obj 95 56 bng 15 250 50 0 empty empty empty 17 7 0 10 -262144 -1
-1;
#X msg 263 138 12;
#X obj 95 78 random 8;
#X obj 95 103 select 0 1 2 3 4 5 6 7;
#X connect 0 0 7 0;
#X connect 1 0 7 0;
#X connect 2 0 7 0;
#X connect 3 0 7 0;
#X connect 4 0 7 0;
#X connect 5 0 7 0;
#X connect 6 0 7 0;
#X connect 8 0 9 0;
#X connect 9 0 11 0;
#X connect 10 0 7 0;
#X connect 11 0 12 0;
#X connect 12 0 0 0;
#X connect 12 1 1 0;
#X connect 12 2 2 0;
#X connect 12 3 3 0;
#X connect 12 4 4 0;
#X connect 12 5 5 0;
#X connect 12 6 6 0;
#X connect 12 7 10 0;
#X restore 555 441 pd simplescale2;
#X obj 555 419 bng 15 250 50 0 empty empty empty 17 7 0 10 -262144
-1 -1;
#X floatatom 555 466 5 0 0 0 - - -;
#X obj 555 513 mtof;
#X obj 377 612 *~ 0.8;
#N canvas 299 465 265 296 wait 0;
#X obj 49 31 inlet;
#X obj 49 56 spigot 1;
#X obj 49 80 t b b b;
#X msg 120 65 0;
#X msg 68 126 1;
#X obj 23 135 line~;
#X obj 50 163 outlet~;
#X obj 17 86 bng 15 250 50 0 empty empty empty 17 7 0 10 -262144 -1
-1;
#X obj 147 181 outlet;
#X msg 12 111 0 \, 1 80;
#X obj 68 105 del 100;
#X obj 99 208 del 80;
#X msg 39 205 0.7 20;
#X obj 187 108 line;
#X floatatom 179 151 5 0 0 0 - - -;
#X connect 0 0 1 0;
#X connect 1 0 2 0;
#X connect 1 0 7 0;
#X connect 2 0 9 0;
#X connect 2 1 10 0;
#X connect 2 1 11 0;
#X connect 2 2 3 0;
#X connect 3 0 1 1;
#X connect 3 0 8 0;
#X connect 4 0 1 1;
#X connect 4 0 8 0;
#X connect 5 0 6 0;
#X connect 9 0 5 0;
#X connect 9 0 13 0;
#X connect 10 0 4 0;
#X connect 11 0 12 0;
#X connect 12 0 5 0;
#X connect 13 0 14 0;
#X restore 500 464 pd wait;
#X obj 534 609 *~;
#X obj 555 488 + 84;
#X obj 533 559 osc~ 1600;
#X obj 533 536 spigot 1;
#X obj 529 505 tgl 15 0 empty empty empty 17 7 0 10 -262144 -1 -1 1
1;
#X obj 549 657 line;
#X msg 545 632 0 12;
#X obj 596 513 mtof;
#X obj 596 559 osc~ 1600;
#X obj 596 536 spigot 1;
#X obj 596 488 + 96;
#X obj 534 584 +~;
#X floatatom 643 583 5 0 0 0 - - -;
#X msg 583 632 0.9 12;
#X obj 2 7 r OSC;
#X obj 3 59 print 0sc;
#X obj 2 35 s #accelerate;
#X msg 334 378 0.6 1000;
#X obj 534 682 *~ 0;
#N canvas 52 216 590 498 bass 0;
#X msg 386 220 mod \$1;
#X msg 320 220 freq \$1;
#X obj 386 198 / 100;
#X floatatom 386 178 5 0 0 2 mod - -;
#X obj 320 198 / 100;
#X floatatom 320 178 5 0 0 2 freq - -;
#X floatatom 205 178 5 0 0 2 pitch - -;
#N canvas 606 206 690 655 guitar 0;
#X obj 132 187 vline~;
#X obj 150 209 noise~;
#X obj 131 311 *~;
#X msg 274 296 delayfreq \$1;
#X obj 274 255 mtof;
#X obj 132 77 inlet;
#X obj 130 426 outlet~;
#X obj 299 332 loadbang;
#X obj 150 238 bp~ 3000 7;
#X obj 164 266 bp~ 5107 10;
#X obj 132 99 t b a;
#X text 316 76 Karplus-Strong pluck;
#X msg 299 357 feedback 0.99999 \, lpfreq 3200;
#X msg 132 162 0.1 4000 \, 0 3000 4000;
#X obj 130 397 rj/e_fbdelay guitar 2000;
#X connect 0 0 2 0;
#X connect 1 0 8 0;
#X connect 1 0 9 0;
#X connect 2 0 14 0;
#X connect 3 0 14 2;
#X connect 4 0 3 0;
#X connect 5 0 10 0;
#X connect 7 0 12 0;
#X connect 8 0 2 1;
#X connect 9 0 2 1;
#X connect 10 0 13 0;
#X connect 10 1 4 0;
#X connect 12 0 14 2;
#X connect 13 0 0 0;
#X connect 14 0 6 0;
#X restore 205 195 pd guitar;
#X obj 459 200 loadbang;
#X floatatom 159 204 5 0 0 2 pitch - -;
#N canvas 700 128 690 655 guitar 0;
#X obj 132 187 vline~;
#X obj 150 209 noise~;
#X obj 131 311 *~;
#X msg 274 296 delayfreq \$1;
#X obj 274 255 mtof;
#X obj 132 77 inlet;
#X obj 130 426 outlet~;
#X obj 299 332 loadbang;
#X obj 150 238 bp~ 3000 7;
#X obj 164 266 bp~ 5107 10;
#X obj 132 99 t b a;
#X text 316 76 Karplus-Strong pluck;
#X msg 299 357 feedback 0.99999 \, lpfreq 3200;
#X msg 132 162 0.1 4000 \, 0 6000 4000;
#X obj 130 397 rj/e_fbdelay guitar 2000;
#X connect 0 0 2 0;
#X connect 1 0 8 0;
#X connect 1 0 9 0;
#X connect 2 0 14 0;
#X connect 3 0 14 2;
#X connect 4 0 3 0;
#X connect 5 0 10 0;
#X connect 7 0 12 0;
#X connect 8 0 2 1;
#X connect 9 0 2 1;
#X connect 10 0 13 0;
#X connect 10 1 4 0;
#X connect 12 0 14 2;
#X connect 13 0 0 0;
#X connect 14 0 6 0;
#X restore 159 221 pd guitar;
#X floatatom 238 108 5 0 0 0 - - -;
#X floatatom 185 49 5 0 0 0 - - -;
#X floatatom 257 219 5 0 0 0 - - -;
#X msg 459 220 freq 0.36 \, mod 3.18;
#X obj 75 109 line;
#X floatatom 75 134 5 0 0 0 - - -;
#X obj 75 63 bng 15 250 50 0 empty empty empty 17 7 0 10 -262144 -1
-1;
#X obj 205 253 lop~ 600;
#X obj 88 253 delread~ del1 600;
#X obj 65 420 delwrite~ del1 600;
#X obj 54 207 line;
#X floatatom 22 327 5 0 0 0 - - -;
#X msg 49 176 0 0 \, 0.98 4000;
#X obj 159 141 + 0.01;
#X obj 205 141 - 0.01;
#X obj 203 429 outlet~;
#X obj 253 429 outlet~;
#X obj 185 25 inlet;
#X obj 205 333 *~;
#X obj 88 278 *~ 0.98;
#X msg 283 253 80;
#X msg 75 84 400 0 \, 600 4000;
#X obj 242 278 rj/c_adsrj bass_adsr;
#X obj 204 362 rj/e_chorus mychorus;
#X obj 455 102 loadbang;
#X msg 388 135 A 194;
#X msg 434 135 D 158;
#X msg 480 135 S 74;
#X msg 526 135 R 418;
#X obj 454 58 bng 15 250 50 0 empty empty empty 17 7 0 10 -262144 -1
-1;
#X connect 0 0 34 1;
#X connect 1 0 34 1;
#X connect 2 0 0 0;
#X connect 3 0 2 0;
#X connect 4 0 1 0;
#X connect 5 0 4 0;
#X connect 6 0 7 0;
#X connect 7 0 18 0;
#X connect 8 0 14 0;
#X connect 9 0 10 0;
#X connect 10 0 18 0;
#X connect 11 0 24 1;
#X connect 11 0 25 1;
#X connect 12 0 17 0;
#X connect 12 0 24 0;
#X connect 12 0 25 0;
#X connect 13 0 18 1;
#X connect 14 0 34 1;
#X connect 15 0 16 0;
#X connect 15 0 18 1;
#X connect 17 0 32 0;
#X connect 17 0 31 0;
#X connect 18 0 29 0;
#X connect 19 0 30 0;
#X connect 21 0 22 0;
#X connect 21 0 30 1;
#X connect 23 0 21 0;
#X connect 24 0 9 0;
#X connect 25 0 6 0;
#X connect 28 0 12 0;
#X connect 29 0 20 0;
#X connect 29 0 34 0;
#X connect 30 0 26 0;
#X connect 30 0 27 0;
#X connect 31 0 33 0;
#X connect 32 0 15 0;
#X connect 33 0 29 1;
#X connect 34 0 26 0;
#X connect 34 1 27 0;
#X connect 35 0 36 0;
#X connect 35 0 37 0;
#X connect 35 0 38 0;
#X connect 35 0 39 0;
#X connect 36 0 33 1;
#X connect 37 0 33 1;
#X connect 38 0 33 1;
#X connect 39 0 33 1;
#X connect 40 0 36 0;
#X connect 40 0 37 0;
#X connect 40 0 38 0;
#X connect 40 0 39 0;
#X restore 51 513 pd bass;
#N canvas 3 243 338 339 simplescale3 0;
#X msg 34 228 0;
#X msg 94 228 4;
#X obj 154 291 outlet;
#X obj 92 126 inlet;
#X obj 92 148 bng 15 250 50 0 empty empty empty 17 7 0 10 -262144 -1
-1;
#X obj 92 193 select 0 1 2 3 4 5 6 7 8;
#X obj 137 45 tgl 15 0 empty empty empty 17 7 0 10 -262144 -1 -1 0
1;
#X obj 137 115 select 0;
#X obj 137 91 random 2;
#X obj 137 20 loadbang;
#X msg 137 139 15000;
#X msg 182 139 27000;
#X obj 137 68 metro 15000;
#X msg 124 228 9;
#X msg 184 228 7;
#X msg 64 228 11;
#X obj 92 168 random 4;
#X msg 154 228 2;
#X obj 213 23 inlet;
#X connect 0 0 2 0;
#X connect 1 0 2 0;
#X connect 3 0 4 0;
#X connect 4 0 16 0;
#X connect 5 0 0 0;
#X connect 5 1 15 0;
#X connect 5 2 1 0;
#X connect 5 3 13 0;
#X connect 5 4 17 0;
#X connect 5 5 14 0;
#X connect 6 0 12 0;
#X connect 7 0 10 0;
#X connect 7 1 11 0;
#X connect 8 0 7 0;
#X connect 9 0 6 0;
#X connect 10 0 12 1;
#X connect 11 0 12 1;
#X connect 12 0 4 0;
#X connect 12 0 8 0;
#X connect 13 0 2 0;
#X connect 14 0 2 0;
#X connect 15 0 2 0;
#X connect 16 0 5 0;
#X connect 17 0 2 0;
#X connect 18 0 6 0;
#X restore 51 459 pd simplescale3;
#X obj 51 486 + 24;
#X obj 304 763 outlet~;
#X floatatom 105 537 5 0 100 0 - - -;
#X obj 95 556 / 100;
#X obj 109 691 outlet~;
#X obj 56 691 outlet~;
#X floatatom 446 176 5 0 0 0 - - -;
#X obj 357 738 *~ 0.3;
#X obj 593 597 *~ 0.8;
#X obj 593 198 metro 220;
#X obj 593 175 tgl 15 0 empty empty empty 17 7 0 10 -262144 -1 -1 0
1;
#X obj 593 84 loadbang;
#X obj 593 152 1;
#X obj 538 120 del 1000;
#X obj 566 152 0;
#X obj 397 493 *~ 0;
#X msg 520 187 1 4000;
#X obj 525 213 line;
#X obj 593 247 + 1;
#X obj 593 221 f;
#X msg 17 429 0 0;
#X obj 117 510 line;
#X floatatom 603 466 5 0 0 0 - - -;
#X obj 531 290 f 0;
#X obj 108 590 *~ 0.15;
#X obj 56 592 *~ 0.15;
#X obj 92 163 f;
#X obj 107 140 0;
#X obj 121 163 + 1;
#X floatatom 59 191 5 0 0 0 - - -;
#X obj 107 98 tgl 15 0 empty empty empty 17 7 0 10 -262144 -1 -1 1
1;
#X obj 81 141 bng 15 250 50 0 empty empty empty 17 7 0 10 -262144 -1
-1;
#X obj 83 258 bng 15 250 50 0 empty empty empty 17 7 0 10 -262144 -1
-1;
#X obj 33 212 spigot 1;
#X obj 47 258 0;
#X obj 17 404 loadbang;
#X obj 175 446 select 0;
#X obj 140 399 1;
#X obj 185 500 f;
#X msg 178 537 \$1 0 \, 0 20000;
#X obj 90 400 f;
#X obj 173 476 bng 15 250 50 0 empty empty empty 17 7 0 10 -262144
-1 -1;
#X obj 127 480 0;
#X obj 47 326 1;
#X obj 492 771 outlet;
#N canvas 0 0 450 300 once 0;
#X obj 89 162 spigot;
#X obj 34 59 inlet;
#X obj 89 111 t a b;
#X obj 126 140 f 1;
#X obj 89 194 t a b;
#X obj 119 216 f 0;
#X obj 89 247 outlet;
#X obj 207 56 inlet;
#X obj 207 79 bang;
#X obj 207 102 f 1;
#X obj 34 80 route bang;
#X obj 34 110 t b b;
#X obj 34 162 spigot;
#X obj 34 194 t b b;
#X connect 0 0 4 0;
#X connect 1 0 10 0;
#X connect 2 0 0 0;
#X connect 2 1 3 0;
#X connect 3 0 0 1;
#X connect 3 0 12 1;
#X connect 4 0 6 0;
#X connect 4 1 5 0;
#X connect 5 0 3 1;
#X connect 7 0 8 0;
#X connect 8 0 9 0;
#X connect 9 0 3 1;
#X connect 10 0 11 0;
#X connect 10 1 2 0;
#X connect 11 0 12 0;
#X connect 11 1 3 0;
#X connect 12 0 13 0;
#X connect 13 0 6 0;
#X connect 13 1 5 0;
#X restore 566 744 pd once;
#X obj 570 787 outlet;
#X msg 72 431 \$1 0 \, 10 20000;
#X obj 240 718 spigot 0;
#X obj 230 636 loadbang;
#X obj 232 660 del 10000;
#X obj 236 684 1;
#X obj 571 767 spigot 0;
#X obj 624 699 loadbang;
#X obj 624 721 del 10000;
#X obj 624 743 1;
#X obj 107 75 loadbang;
#X obj 139 49 bng 15 250 50 0 empty empty empty 17 7 0 10 -262144 -1
-1;
#X obj 107 117 metro 10000;
#X obj 33 236 moses 32;
#X obj 363 105 moses 1.3;
#X obj 388 130 moses 1.6;
#X obj 282 38 inlet;
#N canvas 0 0 450 300 nomic_fix 0;
#X obj 97 34 inlet;
#X obj 131 140 del 27000;
#X obj 117 80 t b b b;
#X obj 173 109 f;
#X msg 136 109 stop;
#X obj 215 44 inlet;
#X obj 131 198 outlet;
#X obj 131 169 random 100;
#X floatatom 254 158 5 0 0 0 - - -;
#X obj 244 84 bng 15 250 50 0 empty empty empty 17 7 0 10 -262144 -1
-1;
#X obj 117 56 spigot 0;
#X obj 169 14 inlet;
#X obj 163 34 tgl 15 0 empty empty empty 17 7 0 10 -262144 -1 -1 1
1;
#X connect 0 0 10 0;
#X connect 1 0 7 0;
#X connect 2 0 1 0;
#X connect 2 1 4 0;
#X connect 2 2 3 0;
#X connect 3 0 1 1;
#X connect 3 0 8 0;
#X connect 4 0 1 0;
#X connect 5 0 3 1;
#X connect 7 0 6 0;
#X connect 9 0 3 0;
#X connect 10 0 2 0;
#X connect 11 0 12 0;
#X connect 12 0 10 1;
#X restore 254 136 pd nomic_fix;
#X msg 163 215 47000;
#X msg 163 237 27000;
#X obj 253 226 print;
#X obj 282 66 t b b;
#X obj 280 98 random 100;
#X connect 1 0 16 1;
#X connect 2 0 3 0;
#X connect 2 0 10 2;
#X connect 2 0 113 0;
#X connect 3 0 84 1;
#X connect 4 0 54 0;
#X connect 6 0 1 0;
#X connect 7 0 17 0;
#X connect 7 0 18 0;
#X connect 7 0 31 0;
#X connect 7 0 34 0;
#X connect 8 0 38 1;
#X connect 9 0 25 0;
#X connect 10 0 7 0;
#X connect 10 0 100 1;
#X connect 10 1 100 0;
#X connect 10 2 2 0;
#X connect 11 0 12 0;
#X connect 12 0 13 0;
#X connect 13 0 137 0;
#X connect 14 0 21 0;
#X connect 15 0 8 0;
#X connect 16 0 29 0;
#X connect 17 0 6 0;
#X connect 18 0 9 0;
#X connect 19 0 37 1;
#X connect 19 0 39 0;
#X connect 21 0 22 0;
#X connect 22 0 49 0;
#X connect 22 0 51 0;
#X connect 22 0 10 0;
#X connect 22 0 108 0;
#X connect 22 0 122 0;
#X connect 22 0 140 0;
#X connect 23 0 4 0;
#X connect 24 0 138 1;
#X connect 25 0 16 0;
#X connect 26 0 4 1;
#X connect 27 0 39 1;
#X connect 28 0 30 0;
#X connect 29 0 35 0;
#X connect 30 0 29 1;
#X connect 31 0 28 0;
#X connect 32 0 33 0;
#X connect 33 0 35 1;
#X connect 34 0 32 0;
#X connect 35 0 92 0;
#X connect 36 0 8 1;
#X connect 37 0 38 0;
#X connect 38 0 84 0;
#X connect 39 0 5 0;
#X connect 40 0 27 0;
#X connect 40 0 54 1;
#X connect 41 0 44 0;
#X connect 42 0 41 1;
#X connect 43 0 41 1;
#X connect 44 0 73 0;
#X connect 44 0 45 0;
#X connect 44 1 69 0;
#X connect 44 2 42 0;
#X connect 47 0 48 0;
#X connect 47 0 43 0;
#X connect 47 0 46 0;
#X connect 47 0 62 0;
#X connect 48 0 40 0;
#X connect 49 0 47 0;
#X connect 49 1 41 0;
#X connect 50 0 52 0;
#X connect 51 0 50 0;
#X connect 51 0 55 0;
#X connect 52 0 57 0;
#X connect 52 0 66 0;
#X connect 53 0 59 0;
#X connect 54 0 37 0;
#X connect 54 0 5 0;
#X connect 55 0 56 1;
#X connect 55 1 59 1;
#X connect 55 1 60 0;
#X connect 55 1 65 1;
#X connect 56 0 74 0;
#X connect 57 0 53 0;
#X connect 58 0 67 0;
#X connect 59 0 58 0;
#X connect 61 0 74 1;
#X connect 62 0 61 0;
#X connect 63 0 65 0;
#X connect 64 0 85 0;
#X connect 65 0 64 0;
#X connect 66 0 63 0;
#X connect 67 0 56 0;
#X connect 68 0 85 1;
#X connect 69 0 61 0;
#X connect 70 0 72 0;
#X connect 73 0 40 0;
#X connect 74 0 23 1;
#X connect 75 0 102 0;
#X connect 75 1 101 0;
#X connect 76 0 77 0;
#X connect 77 0 75 0;
#X connect 79 0 80 0;
#X connect 79 0 115 1;
#X connect 79 0 117 1;
#X connect 80 0 101 1;
#X connect 80 0 102 1;
#X connect 83 0 22 0;
#X connect 83 0 96 1;
#X connect 84 0 0 0;
#X connect 84 0 78 0;
#X connect 85 0 67 1;
#X connect 86 0 96 0;
#X connect 87 0 86 0;
#X connect 88 0 89 0;
#X connect 88 0 90 0;
#X connect 88 0 93 0;
#X connect 89 0 87 0;
#X connect 90 0 91 0;
#X connect 91 0 87 0;
#X connect 92 0 23 0;
#X connect 93 0 94 0;
#X connect 94 0 92 1;
#X connect 95 0 83 0;
#X connect 96 0 95 0;
#X connect 97 0 98 0;
#X connect 98 0 79 0;
#X connect 99 0 57 1;
#X connect 100 0 10 1;
#X connect 101 0 81 0;
#X connect 102 0 82 0;
#X connect 103 0 105 0;
#X connect 103 0 106 0;
#X connect 104 0 103 0;
#X connect 105 0 103 1;
#X connect 106 0 110 0;
#X connect 107 0 135 0;
#X connect 108 0 103 0;
#X connect 109 0 111 0;
#X connect 109 0 117 0;
#X connect 109 0 120 0;
#X connect 110 0 136 0;
#X connect 111 0 110 1;
#X connect 111 0 141 0;
#X connect 112 0 97 0;
#X connect 113 0 114 0;
#X connect 113 0 118 0;
#X connect 114 0 110 1;
#X connect 114 0 142 0;
#X connect 115 0 116 0;
#X connect 116 0 98 0;
#X connect 117 0 124 0;
#X connect 118 0 115 0;
#X connect 118 0 119 0;
#X connect 118 0 122 1;
#X connect 118 0 125 0;
#X connect 119 0 76 1;
#X connect 120 0 76 1;
#X connect 122 0 129 0;
#X connect 124 0 98 0;
#X connect 125 0 121 0;
#X connect 126 0 127 0;
#X connect 127 0 128 0;
#X connect 128 0 125 1;
#X connect 129 0 123 0;
#X connect 130 0 131 0;
#X connect 131 0 132 0;
#X connect 132 0 129 1;
#X connect 133 0 107 0;
#X connect 134 0 107 0;
#X connect 135 0 104 0;
#X connect 136 1 109 0;
#X connect 137 1 138 0;
#X connect 138 0 14 0;
#X connect 139 0 144 0;
#X connect 140 0 143 0;
#X connect 140 0 22 0;
#X connect 141 0 140 2;
#X connect 142 0 140 2;
#X connect 144 0 145 0;
#X connect 144 1 140 1;
#X connect 145 0 22 0;
#X restore 309 236 pd myfantasygame.com;
#X obj 338 480 *~ 0.03;
#X obj 630 160 r~ realcuts;
#X obj 470 162 r~ realcuts;
#X obj 561 160 del 1000;
#X obj 548 106 bng 15 250 50 0 empty empty empty 17 7 0 10 -262144
-1 -1;
#X obj 482 212 slowdown;
#X obj 499 274 throw~ slow_r;
#X obj 601 274 throw~ slow_l;
#X obj 7 119 catch~ slow_r;
#X obj 116 121 catch~ slow_l;
#X floatatom 150 391 5 0 100 0 - - -;
#X obj 151 410 / 100;
#X obj 645 60 soundinput;
#X obj 646 108 s~ realcuts;
#X obj 607 208 slowdown;
#X obj 130 440 *~ 0.98;
#X obj 78 442 *~ 0.98;
#X obj 17 142 hip~ 1400;
#X obj 126 144 hip~ 1400;
#X obj 7 165 lop~ 2000;
#X obj 116 167 lop~ 2000;
#X obj 7 191 rj/e_chorus adc_chorus_r;
#X obj 116 222 rj/e_chorus adc_chorus_l;
#X obj 192 69 loadbang;
#X obj 334 71 loadbang;
#X obj 150 341 loadbang;
#X obj 229 316 line;
#X msg 229 293 0 0 \, 98 8000;
#X msg 192 89 freq 1 \, mod 20;
#X msg 334 91 freq 0.8 \, mod 100;
#X obj 229 369 line;
#X msg 229 347 98 0 \, 0 14000;
#X msg 150 366 0;
#X obj 404 560 *~ 10;
#X obj 303 556 *~ 10;
#X obj 748 222 moses 1;
#X obj 782 262 print more;
#X obj 732 294 print less;
#X obj 782 190 spigot 0;
#X obj 792 80 bng 15 250 50 0 empty empty empty 17 7 0 10 -262144 -1
-1;
#X obj 786 126 1;
#X obj 818 128 0;
#X obj 760 20 loadbang;
#X obj 810 100 del 13;
#X obj 754 264 bng 15 250 50 0 empty empty empty 17 7 0 10 -262144
-1 -1;
#X obj 784 154 t b f;
#X obj 762 46 del 5000;
#X obj 720 124 env~;
#X floatatom 720 178 5 0 0 0 - - -;
#X obj 720 148 snapshot~;
#X connect 2 0 3 0;
#X connect 3 0 4 1;
#X connect 3 0 6 1;
#X connect 4 0 39 0;
#X connect 5 0 40 0;
#X connect 5 1 39 0;
#X connect 5 2 6 0;
#X connect 5 3 4 0;
#X connect 5 4 33 0;
#X connect 5 5 37 0;
#X connect 6 0 40 0;
#X connect 7 0 20 1;
#X connect 7 0 20 2;
#X connect 7 0 20 3;
#X connect 7 0 20 4;
#X connect 8 0 11 1;
#X connect 8 0 11 2;
#X connect 8 0 11 3;
#X connect 8 0 11 4;
#X connect 9 0 11 0;
#X connect 10 0 9 0;
#X connect 10 0 20 0;
#X connect 11 0 13 0;
#X connect 11 1 13 0;
#X connect 11 2 13 0;
#X connect 11 3 13 0;
#X connect 14 0 23 0;
#X connect 14 0 25 0;
#X connect 15 0 24 0;
#X connect 15 0 26 0;
#X connect 16 0 17 0;
#X connect 17 0 21 1;
#X connect 17 0 22 1;
#X connect 18 0 19 0;
#X connect 18 0 53 0;
#X connect 18 1 19 0;
#X connect 18 1 53 0;
#X connect 20 0 12 0;
#X connect 20 1 12 0;
#X connect 20 2 12 0;
#X connect 20 3 12 0;
#X connect 21 0 39 0;
#X connect 22 0 40 0;
#X connect 25 0 27 0;
#X connect 26 0 28 0;
#X connect 27 0 22 0;
#X connect 28 0 21 0;
#X connect 29 0 34 0;
#X connect 30 0 35 0;
#X connect 31 0 38 0;
#X connect 32 0 16 0;
#X connect 33 0 32 0;
#X connect 34 0 27 1;
#X connect 35 0 28 1;
#X connect 36 0 16 0;
#X connect 37 0 36 0;
#X connect 38 0 16 0;
#X connect 39 0 0 1;
#X connect 40 0 0 0;
#X connect 41 0 43 0;
#X connect 41 0 50 0;
#X connect 41 1 42 0;
#X connect 41 1 10 0;
#X connect 44 0 41 0;
#X connect 45 0 46 0;
#X connect 45 0 49 0;
#X connect 46 0 51 0;
#X connect 47 0 44 1;
#X connect 48 0 52 0;
#X connect 49 0 47 0;
#X connect 50 0 5 0;
#X connect 51 0 55 0;
#X connect 51 1 44 1;
#X connect 52 0 45 0;
#X connect 53 0 55 0;
#X connect 55 0 54 0;
#X connect 55 0 44 0;
