#N canvas 543 55 859 657 10;
#X floatatom 107 370 0 0 0 0 - - -;
#X obj 76 450 +~ 1;
#X obj 76 343 phasor~ 0;
#X obj 76 319 line;
#X obj 88 250 list split 2;
#X obj 76 283 unpack;
#X obj 121 319 del;
#X obj 138 283 list;
#X obj 76 574 outlet~;
#X obj 78 149 inlet~;
#X obj 108 51 tgl 15 0 empty empty empty 17 7 0 10 -262144 -1 -1 1
1;
#X obj 122 103 del 1000;
#X msg 122 161 stop;
#X obj 108 72 metro 8000;
#X msg 27 215 1 0 0.2 5000 1.8 1000 0.8 700 1 300;
#X obj 76 423 *~ 22050;
#X obj 107 396 * 220.5;
#X obj 76 479 tabread4~ \$0slow1;
#X obj 77 184 tabwrite~ \$0slow1;
#X obj 73 503 table \$0slow1 22050;
#X floatatom 287 410 0 0 0 0 - - -;
#X obj 256 490 +~ 1;
#X obj 256 383 phasor~ 0;
#X obj 256 359 line;
#X obj 268 290 list split 2;
#X obj 256 323 unpack;
#X obj 301 359 del;
#X obj 318 323 list;
#X obj 256 614 outlet~;
#X obj 258 189 inlet~;
#X obj 288 91 tgl 15 0 empty empty empty 17 7 0 10 -262144 -1 -1 1
1;
#X obj 302 143 del 1000;
#X msg 302 201 stop;
#X obj 288 112 metro 8000;
#X obj 256 463 *~ 22050;
#X obj 287 436 * 220.5;
#X floatatom 477 370 0 0 0 0 - - -;
#X obj 446 450 +~ 1;
#X obj 446 343 phasor~ 0;
#X obj 446 319 line;
#X obj 458 250 list split 2;
#X obj 446 283 unpack;
#X obj 491 319 del;
#X obj 508 283 list;
#X obj 446 574 outlet~;
#X obj 448 149 inlet~;
#X obj 478 61 tgl 15 0 empty empty empty 17 7 0 10 -262144 -1 -1 1
1;
#X obj 492 113 del 1000;
#X msg 492 161 stop;
#X obj 478 82 metro 8000;
#X msg 397 215 1 0 0.2 5000 1.8 1000 0.8 700 1 300;
#X obj 446 423 *~ 22050;
#X obj 477 396 * 220.5;
#X obj 257 224 tabwrite~ \$0slow2;
#X obj 256 519 tabread4~ \$0slow2;
#X obj 253 543 table \$0slow2 22050;
#X obj 447 184 tabwrite~ \$0slow3;
#X obj 446 479 tabread4~ \$0slow3;
#X obj 443 503 table \$0slow3 22050;
#X floatatom 657 410 0 0 0 0 - - -;
#X obj 626 490 +~ 1;
#X obj 626 383 phasor~ 0;
#X obj 626 359 line;
#X obj 638 290 list split 2;
#X obj 626 323 unpack;
#X obj 671 359 del;
#X obj 688 323 list;
#X obj 626 614 outlet~;
#X obj 628 189 inlet~;
#X obj 658 89 tgl 15 0 empty empty empty 17 7 0 10 -262144 -1 -1 1
1;
#X obj 672 141 del 1000;
#X msg 672 201 stop;
#X obj 658 110 metro 8000;
#X obj 626 463 *~ 22050;
#X obj 657 436 * 220.5;
#X obj 627 224 tabwrite~ \$0slow4;
#X obj 626 519 tabread4~ \$0slow4;
#X obj 623 543 table \$0slow4 22050;
#X obj 320 8 bng 15 250 50 0 empty empty empty 17 7 0 10 -262144 -1
-1;
#X obj 296 63 del 2000;
#X obj 466 33 del 4000;
#X obj 620 54 del 6000;
#X obj 32 11 inlet;
#X msg 207 255 1 0 0.5 5000 1.8 1000 0.8 700 1 300;
#X msg 577 255 1 0 0.5 5000 1.8 1000 0.8 700 1 300;
#N canvas 365 472 400 205 norm2 0;
#X obj 89 40 inlet;
#X obj 89 65 f \$0;
#X msg 89 119 \; 1243slow2 normalize 1 \;;
#X msg 89 91 set \, add \, add \$1slow2 normalize 1 \, bang;
#X connect 0 0 1 0;
#X connect 1 0 3 0;
#X connect 3 0 2 0;
#X restore 341 201 pd norm2;
#N canvas 365 472 400 205 norm3 0;
#X obj 89 40 inlet;
#X obj 89 65 f \$0;
#X msg 89 119 \; 1243slow3 normalize 1 \;;
#X msg 89 91 set \, add \, add \$1slow3 normalize 1 \, bang;
#X connect 0 0 1 0;
#X connect 1 0 3 0;
#X connect 3 0 2 0;
#X restore 530 161 pd norm3;
#N canvas 365 472 400 205 norm4 0;
#X obj 89 40 inlet;
#X obj 89 65 f \$0;
#X msg 89 119 \; 1243slow4 normalize 1 \;;
#X msg 89 91 set \, add \, add \$1slow4 normalize 1 \, bang;
#X connect 0 0 1 0;
#X connect 1 0 3 0;
#X connect 3 0 2 0;
#X restore 715 201 pd norm4;
#X obj 122 128 t b b b;
#X obj 302 167 t b b b;
#X obj 492 135 t b b b;
#X obj 672 165 t b b b;
#N canvas 365 472 400 205 norm1 0;
#X obj 89 40 inlet;
#X obj 89 65 f \$0;
#X msg 89 119 \; 1243slow2 normalize 1 \;;
#X msg 89 91 set \, add \, add \$1slow2 normalize 1 \, bang;
#X connect 0 0 1 0;
#X connect 1 0 3 0;
#X connect 3 0 2 0;
#X restore 159 161 pd norm1;
#X connect 0 0 16 0;
#X connect 1 0 17 0;
#X connect 2 0 15 0;
#X connect 3 0 2 0;
#X connect 4 0 5 0;
#X connect 4 0 3 0;
#X connect 4 1 7 1;
#X connect 5 1 6 0;
#X connect 6 0 7 0;
#X connect 7 0 4 0;
#X connect 9 0 18 0;
#X connect 10 0 13 0;
#X connect 11 0 88 0;
#X connect 12 0 18 0;
#X connect 13 0 11 0;
#X connect 13 0 18 0;
#X connect 14 0 4 0;
#X connect 15 0 1 0;
#X connect 16 0 15 1;
#X connect 17 0 8 0;
#X connect 20 0 35 0;
#X connect 21 0 54 0;
#X connect 22 0 34 0;
#X connect 23 0 22 0;
#X connect 24 0 25 0;
#X connect 24 0 23 0;
#X connect 24 1 27 1;
#X connect 25 1 26 0;
#X connect 26 0 27 0;
#X connect 27 0 24 0;
#X connect 29 0 53 0;
#X connect 30 0 33 0;
#X connect 31 0 89 0;
#X connect 32 0 53 0;
#X connect 33 0 31 0;
#X connect 33 0 53 0;
#X connect 34 0 21 0;
#X connect 35 0 34 1;
#X connect 36 0 52 0;
#X connect 37 0 57 0;
#X connect 38 0 51 0;
#X connect 39 0 38 0;
#X connect 40 0 41 0;
#X connect 40 0 39 0;
#X connect 40 1 43 1;
#X connect 41 1 42 0;
#X connect 42 0 43 0;
#X connect 43 0 40 0;
#X connect 45 0 56 0;
#X connect 46 0 49 0;
#X connect 47 0 90 0;
#X connect 48 0 56 0;
#X connect 49 0 47 0;
#X connect 49 0 56 0;
#X connect 50 0 40 0;
#X connect 51 0 37 0;
#X connect 52 0 51 1;
#X connect 54 0 28 0;
#X connect 57 0 44 0;
#X connect 59 0 74 0;
#X connect 60 0 76 0;
#X connect 61 0 73 0;
#X connect 62 0 61 0;
#X connect 63 0 64 0;
#X connect 63 0 62 0;
#X connect 63 1 66 1;
#X connect 64 1 65 0;
#X connect 65 0 66 0;
#X connect 66 0 63 0;
#X connect 68 0 75 0;
#X connect 69 0 72 0;
#X connect 70 0 91 0;
#X connect 71 0 75 0;
#X connect 72 0 70 0;
#X connect 72 0 75 0;
#X connect 73 0 60 0;
#X connect 74 0 73 1;
#X connect 76 0 67 0;
#X connect 78 0 10 0;
#X connect 78 0 79 0;
#X connect 78 0 80 0;
#X connect 78 0 81 0;
#X connect 79 0 30 0;
#X connect 80 0 46 0;
#X connect 81 0 69 0;
#X connect 82 0 10 0;
#X connect 82 0 79 0;
#X connect 82 0 80 0;
#X connect 82 0 81 0;
#X connect 83 0 24 0;
#X connect 84 0 63 0;
#X connect 88 0 14 0;
#X connect 88 2 12 0;
#X connect 89 0 83 0;
#X connect 89 2 32 0;
#X connect 90 0 50 0;
#X connect 90 2 48 0;
#X connect 91 0 84 0;
#X connect 91 2 71 0;
