#N canvas 655 646 429 272 10;
#N canvas 18 241 623 335 MODULE_INFO 0;
#X text 89 232 decorator: s1m1-s2m1;
#X text 89 252 tags:;
#X text 92 103 authors: Reality Jockey;
#X text 93 81 name: CutUp;
#X text 90 124 description: Takes mic input and puts it into five delays
with differnt delay times up to 18sec. It then randomly fades between
the delay lines. What you end up hearing is a non-linear cut-up of
reality. Good fun in conversations. Tangle defines how often fades
between the differnt delay lines happen. Daze defines the speed of
the panning. Hard left means no panning. After firing it up it takes
a bit until all the delay lines are feeded.;
#X restore 29 -39 pd MODULE_INFO;
#X obj 31 191 outlet~;
#X obj 91 191 outlet~;
#N canvas 32 22 1031 744 \$0-DSP 0;
#X obj 412 49 t b;
#X obj 412 30 sel 0;
#X obj 413 88 sel 0 1 2 3 4 5;
#X obj 168 280 lop~ 80;
#X obj 150 301 *~;
#X obj 198 301 lop~ 80;
#X obj 180 322 *~;
#X obj 138 254 lop~ 80;
#X obj 119 275 *~;
#X obj 231 325 lop~ 80;
#X obj 215 345 *~;
#X obj 270 346 lop~ 80;
#X obj 247 366 *~;
#X obj 307 368 lop~ 80;
#X obj 288 388 *~;
#X obj 414 228 unpack 0 0 0 0 0 0;
#X msg 413 110 1 0 0 0 0 0;
#X msg 460 170 0 0 0 1 0 0;
#X msg 475 191 0 0 0 0 1 0;
#X msg 487 209 0 0 0 0 0 1;
#X msg 446 150 0 0 1 0 0 0;
#X msg 429 129 0 1 0 0 0 0;
#X obj 412 69 random 6;
#X obj 182 145 e_sdelay 2856;
#X obj 412 11 mod 8;
#X obj 152 166 e_sdelay 5712;
#X obj 219 123 e_sdelay 11424;
#X obj 252 102 e_sdelay 17136;
#X obj 292 81 e_sdelay 8568;
#X obj 428 411 mod 16;
#X obj 118 658 outlet~ LEFT;
#X obj 221 657 outlet~ RIGHT;
#N canvas 0 22 748 481 tanh 0;
#X obj 264 69 inlet~;
#X text 516 93 __;
#X text 550 93 __;
#X text 516 110 1 +;
#X text 552 110 3 +;
#X text 466 36 As a continued fraction;
#X obj 263 152 *~;
#X obj 188 269 /~;
#X obj 188 354 /~;
#X obj 188 292 /~;
#X obj 188 325 /~;
#X text 450 82 tanh(z) = z z^2 4z^2 9z^2 ...;
#X obj 315 179 *~ 4;
#X obj 314 210 +~ 3;
#X obj 358 178 *~ 9;
#X obj 357 209 +~ 5;
#X obj 398 179 *~ 16;
#X obj 397 209 +~ 7;
#X obj 263 210 +~ 1;
#X obj 188 405 outlet~;
#X obj 188 376 *~ 576;
#X obj 264 93 *~ 0.308319;
#X text 299 118 1/pi;
#X connect 0 0 21 0;
#X connect 6 0 12 0;
#X connect 6 0 14 0;
#X connect 6 0 16 0;
#X connect 6 0 18 0;
#X connect 7 0 9 0;
#X connect 8 0 20 0;
#X connect 9 0 10 0;
#X connect 10 0 8 0;
#X connect 12 0 13 0;
#X connect 13 0 9 1;
#X connect 14 0 15 0;
#X connect 15 0 10 1;
#X connect 16 0 17 0;
#X connect 17 0 8 1;
#X connect 18 0 7 1;
#X connect 20 0 19 0;
#X connect 21 0 6 1;
#X connect 21 0 6 0;
#X connect 21 0 7 0;
#X restore 118 519 pd tanh;
#X obj 430 340 r \$0-tick;
#X obj 123 -47 inlet~ MICROPHONE;
#X obj 122 17 lop~ 4000;
#X obj 123 -4 hip~ 100;
#X obj 124 -25 hip~ 100;
#X obj 117 496 *~ 1;
#X obj 30 173 snapshot~;
#X msg 28 253 seed \$1;
#X obj 29 212 abs;
#X obj 28 233 int;
#X obj 29 193 * 1e+07;
#X obj 31 134 loadbang;
#X obj 446 454 loadbang;
#X obj 32 154 del 1500;
#X obj 119 625 e_pan;
#X obj 431 625 line;
#X obj 192 457 r \$0-p0;
#X obj 192 478 * 2;
#X obj 766 200 int;
#X msg 496 523 0.3;
#X msg 531 523 0.7;
#X msg 568 524 0.5;
#X obj 429 497 sel 0 1 2 3 4;
#X obj 429 473 random 5;
#X msg 811 525 100;
#X msg 858 525 200;
#X obj 431 603 pack 0 100;
#X msg 911 524 500;
#X obj 766 179 * 16;
#X obj 766 220 * 2;
#X obj 764 243 moses 1;
#X msg 764 264 1;
#X obj 765 469 moses 2;
#X obj 812 488 moses 8;
#X obj 860 506 moses 16;
#X msg 764 525 50;
#X obj 428 433 sel 0;
#X obj 625 41 int;
#X obj 625 61 * 2;
#X obj 626 80 moses 1;
#X msg 626 101 1;
#X obj 625 22 * 8;
#X obj 763 290 t f;
#X obj 767 120 r \$0-Daze;
#X obj 411 -8 r \$0-tick;
#X obj 626 -37 r \$0-Tangle;
#X obj 626 -16 * -1;
#X obj 626 3 + 1;
#X obj 767 140 * -1;
#X obj 767 159 + 1;
#X obj 840 357 t b b;
#X obj 430 380 spigot 1;
#X obj 789 357 t f b;
#X msg 872 378 0;
#X msg 821 378 1;
#X msg 430 524 0.8;
#X msg 462 524 0.2;
#X obj 789 336 moses 28;
#X connect 0 0 22 0;
#X connect 1 0 0 0;
#X connect 2 0 16 0;
#X connect 2 1 21 0;
#X connect 2 2 20 0;
#X connect 2 3 17 0;
#X connect 2 4 18 0;
#X connect 2 5 19 0;
#X connect 3 0 4 1;
#X connect 4 0 38 0;
#X connect 5 0 6 1;
#X connect 6 0 38 0;
#X connect 7 0 8 1;
#X connect 8 0 38 0;
#X connect 9 0 10 1;
#X connect 10 0 38 0;
#X connect 11 0 12 1;
#X connect 12 0 38 0;
#X connect 13 0 14 1;
#X connect 14 0 38 0;
#X connect 15 0 7 0;
#X connect 15 1 3 0;
#X connect 15 2 5 0;
#X connect 15 3 9 0;
#X connect 15 4 11 0;
#X connect 15 5 13 0;
#X connect 16 0 15 0;
#X connect 17 0 15 0;
#X connect 18 0 15 0;
#X connect 19 0 15 0;
#X connect 20 0 15 0;
#X connect 21 0 15 0;
#X connect 22 0 2 0;
#X connect 23 0 6 0;
#X connect 24 0 1 0;
#X connect 25 0 4 0;
#X connect 26 0 10 0;
#X connect 27 0 12 0;
#X connect 28 0 14 0;
#X connect 29 0 69 0;
#X connect 32 0 47 0;
#X connect 33 0 84 0;
#X connect 34 0 37 0;
#X connect 35 0 25 0;
#X connect 35 0 23 0;
#X connect 35 0 26 0;
#X connect 35 0 27 0;
#X connect 35 0 28 0;
#X connect 35 0 8 0;
#X connect 35 0 39 0;
#X connect 36 0 35 0;
#X connect 37 0 36 0;
#X connect 38 0 32 0;
#X connect 39 0 43 0;
#X connect 40 0 56 0;
#X connect 41 0 42 0;
#X connect 42 0 40 0;
#X connect 43 0 41 0;
#X connect 44 0 46 0;
#X connect 45 0 56 0;
#X connect 46 0 39 0;
#X connect 47 0 30 0;
#X connect 47 1 31 0;
#X connect 48 0 47 1;
#X connect 49 0 50 0;
#X connect 50 0 38 1;
#X connect 51 0 62 0;
#X connect 52 0 59 0;
#X connect 53 0 59 0;
#X connect 54 0 59 0;
#X connect 55 0 88 0;
#X connect 55 1 89 0;
#X connect 55 2 52 0;
#X connect 55 3 53 0;
#X connect 55 4 54 0;
#X connect 56 0 55 0;
#X connect 57 0 59 1;
#X connect 58 0 59 1;
#X connect 59 0 48 0;
#X connect 60 0 59 1;
#X connect 61 0 51 0;
#X connect 62 0 63 0;
#X connect 63 0 64 0;
#X connect 63 1 75 0;
#X connect 64 0 75 0;
#X connect 65 0 68 0;
#X connect 65 1 66 0;
#X connect 66 0 57 0;
#X connect 66 1 67 0;
#X connect 67 0 58 0;
#X connect 67 1 60 0;
#X connect 68 0 59 1;
#X connect 69 0 56 0;
#X connect 70 0 71 0;
#X connect 71 0 72 0;
#X connect 72 0 73 0;
#X connect 72 1 24 1;
#X connect 73 0 24 1;
#X connect 74 0 70 0;
#X connect 75 0 65 0;
#X connect 75 0 90 0;
#X connect 76 0 81 0;
#X connect 77 0 24 0;
#X connect 78 0 79 0;
#X connect 79 0 80 0;
#X connect 80 0 74 0;
#X connect 81 0 82 0;
#X connect 82 0 61 0;
#X connect 83 0 54 0;
#X connect 83 1 86 0;
#X connect 84 0 29 0;
#X connect 85 0 29 1;
#X connect 85 1 87 0;
#X connect 86 0 84 1;
#X connect 87 0 84 1;
#X connect 88 0 59 0;
#X connect 89 0 59 0;
#X connect 90 0 85 0;
#X connect 90 1 83 0;
#X restore 31 127 pd \$0-DSP;
#X obj 31 -7 inlet~ MIC;
#N canvas 0 22 314 337 \$0-INPUT 0;
#X obj 76 47 inlet~;
#X obj 76 216 outlet~;
#X connect 0 0 1 0;
#X coords 0 0 1 1 85 40 0;
#X restore 31 80 pd \$0-INPUT;
#X obj 200 192 outlet;
#X obj 200 -9 inlet;
#N canvas 316 298 530 426 \$0-PARAMETERS 0;
#X obj 110 275 outlet;
#X obj -48 340 s \$0-tick;
#X obj -48 45 inlet;
#X obj -48 77 route tick bpm rootnote;
#X obj 106 132 cnv 15 187 127 empty empty RJC_Parameters 10 12 1 14
-162280 -262144 0;
#X obj 106 106 cnv 15 187 20 empty empty CutUp 65 11 1 14 -261234 -33289
0;
#X obj 57 300 s \$0-rootnote;
#X obj 4 319 s \$0-bpm;
#X obj 110 156 rjc_parameter_floatrange \$0 Tangle 0.7;
#X obj 110 189 rjc_parameter_floatrange \$0 Daze 0;
#X connect 2 0 3 0;
#X connect 3 0 1 0;
#X connect 3 1 7 0;
#X connect 3 2 6 0;
#X connect 3 3 8 0;
#X connect 8 0 9 0;
#X connect 9 0 0 0;
#X coords 0 -1 1 1 200 165 2 100 100;
#X restore 200 17 pd \$0-PARAMETERS;
#X connect 3 0 1 0;
#X connect 3 1 2 0;
#X connect 4 0 5 0;
#X connect 5 0 3 0;
#X connect 7 0 8 0;
#X connect 8 0 6 0;
