#N canvas 277 95 417 261 10;
#N canvas 374 168 528 200 MODULE_INFO 0;
#X text 64 79 authors: Reality Jockey;
#X text 65 120 decorator: s1m1-s2m1;
#X text 65 140 tags:;
#X text 66 57 name: Submerged;
#X text 65 99 description: Gives the impression of being underwater.
;
#X restore 22 21 pd MODULE_INFO;
#X obj 185 202 outlet;
#X obj 22 202 outlet~;
#X obj 82 202 outlet~;
#X obj 185 111 inlet;
#N canvas 588 137 393 323 \$0-PARAMETERS 0;
#X obj -48 211 outlet;
#X obj -48 45 inlet;
#X obj 106 132 cnv 15 187 37 empty empty empty 10 12 1 14 -162280 -262144
0;
#X obj 106 106 cnv 15 187 20 empty empty Submerged 55 11 1 14 -261234
-33289 0;
#X connect 1 0 0 0;
#X coords 0 -1 1 1 200 75 2 100 100;
#X restore 185 127 pd \$0-PARAMETERS;
#N canvas 147 36 1067 630 \$0-DSP 0;
#X obj 600 68 noise~;
#X obj 564 269 vd~ \$0-bubbleubble;
#X obj 206 247 delwrite~ \$0-bubbleubble 800;
#X obj 600 94 lop~ 2;
#X obj 600 117 lop~ 2;
#X obj 599 162 hip~ 1;
#X obj 599 140 *~ 100;
#X obj 623 214 -~;
#X obj 637 190 rzero~ 1;
#X obj 623 236 max~ 0;
#X obj 565 305 *~;
#X obj 747 68 noise~;
#X obj 711 269 vd~ \$0-bubbleubble;
#X obj 747 94 lop~ 2;
#X obj 747 117 lop~ 2;
#X obj 746 162 hip~ 1;
#X obj 746 140 *~ 100;
#X obj 770 214 -~;
#X obj 784 190 rzero~ 1;
#X obj 770 236 max~ 0;
#X obj 712 305 *~;
#X obj 912 64 noise~;
#X obj 876 265 vd~ \$0-bubbleubble;
#X obj 912 90 lop~ 2;
#X obj 912 113 lop~ 2;
#X obj 911 158 hip~ 1;
#X obj 911 136 *~ 100;
#X obj 935 210 -~;
#X obj 949 186 rzero~ 1;
#X obj 935 232 max~ 0;
#X obj 877 301 *~;
#X obj 875 231 +~ 30;
#X obj 710 235 +~ 60;
#X obj 563 235 +~ 90;
#X obj 450 61 noise~;
#X obj 414 262 vd~ \$0-bubbleubble;
#X obj 450 87 lop~ 2;
#X obj 450 110 lop~ 2;
#X obj 449 155 hip~ 1;
#X obj 449 133 *~ 100;
#X obj 473 207 -~;
#X obj 478 189 rzero~ 1;
#X obj 473 229 max~ 0;
#X obj 415 298 *~;
#X obj 413 228 +~ 120;
#X obj 741 426 delwrite~ \$0-fbd 300;
#X obj 742 382 r~ \$0-fbdf;
#X obj 939 474 s~ \$0-fbdf;
#X obj 929 451 vd~ \$0-fbd 300;
#X obj 931 291 noise~;
#X obj 931 317 lop~ 2;
#X obj 931 340 lop~ 2;
#X obj 930 385 hip~ 1;
#X obj 930 363 *~ 100;
#X obj 931 428 +~ 150;
#X obj 30 230 r~ \$0-fbcf;
#X obj 20 276 delwrite~ \$0-fbc 200;
#X obj 220 31 noise~;
#X obj 220 57 lop~ 2;
#X obj 220 80 lop~ 2;
#X obj 219 125 hip~ 1;
#X obj 219 103 *~ 100;
#X obj 220 168 +~ 150;
#X obj 218 191 vd~ \$0-fbc 300;
#X obj 228 214 s~ \$0-fbcf;
#X obj 219 145 *~ 1;
#X obj 930 406 *~ 1;
#X obj 30 251 *~ 0.5;
#X obj 742 403 *~ 0.8;
#X obj 929 516 s~ \$0-xfb;
#X obj 414 198 *~ 8;
#X obj 564 205 *~ 9;
#X obj 711 205 *~ 10;
#X obj 876 201 *~ 11;
#X obj 21 28 inlet~;
#X obj 596 591 outlet~;
#X obj 656 591 outlet~;
#X obj 539 454 *~ 0.7;
#X obj 656 544 lop~ 1500;
#X obj 596 521 lop~ 1500;
#X obj 598 387 hip~ 300;
#X connect 0 0 3 0;
#X connect 1 0 10 0;
#X connect 3 0 4 0;
#X connect 4 0 6 0;
#X connect 5 0 7 0;
#X connect 5 0 8 0;
#X connect 5 0 71 0;
#X connect 6 0 5 0;
#X connect 7 0 9 0;
#X connect 8 0 7 1;
#X connect 9 0 10 1;
#X connect 10 0 80 0;
#X connect 11 0 13 0;
#X connect 12 0 20 0;
#X connect 13 0 14 0;
#X connect 14 0 16 0;
#X connect 15 0 17 0;
#X connect 15 0 18 0;
#X connect 15 0 72 0;
#X connect 16 0 15 0;
#X connect 17 0 19 0;
#X connect 18 0 17 1;
#X connect 19 0 20 1;
#X connect 20 0 80 0;
#X connect 21 0 23 0;
#X connect 22 0 30 0;
#X connect 23 0 24 0;
#X connect 24 0 26 0;
#X connect 25 0 27 0;
#X connect 25 0 28 0;
#X connect 25 0 73 0;
#X connect 26 0 25 0;
#X connect 27 0 29 0;
#X connect 28 0 27 1;
#X connect 29 0 30 1;
#X connect 30 0 80 0;
#X connect 31 0 22 0;
#X connect 32 0 12 0;
#X connect 33 0 1 0;
#X connect 34 0 36 0;
#X connect 35 0 43 0;
#X connect 36 0 37 0;
#X connect 37 0 39 0;
#X connect 38 0 40 0;
#X connect 38 0 41 0;
#X connect 38 0 70 0;
#X connect 39 0 38 0;
#X connect 40 0 42 0;
#X connect 41 0 40 1;
#X connect 42 0 43 1;
#X connect 43 0 80 0;
#X connect 44 0 35 0;
#X connect 46 0 68 0;
#X connect 48 0 47 0;
#X connect 48 0 69 0;
#X connect 48 0 78 0;
#X connect 48 0 79 0;
#X connect 49 0 50 0;
#X connect 50 0 51 0;
#X connect 51 0 53 0;
#X connect 52 0 66 0;
#X connect 53 0 52 0;
#X connect 54 0 48 0;
#X connect 55 0 67 0;
#X connect 57 0 58 0;
#X connect 58 0 59 0;
#X connect 59 0 61 0;
#X connect 60 0 65 0;
#X connect 61 0 60 0;
#X connect 62 0 63 0;
#X connect 63 0 64 0;
#X connect 63 0 2 0;
#X connect 65 0 62 0;
#X connect 66 0 54 0;
#X connect 67 0 56 0;
#X connect 68 0 45 0;
#X connect 70 0 44 0;
#X connect 71 0 33 0;
#X connect 72 0 32 0;
#X connect 73 0 31 0;
#X connect 74 0 56 0;
#X connect 74 0 77 0;
#X connect 77 0 76 0;
#X connect 77 0 75 0;
#X connect 78 0 76 0;
#X connect 79 0 75 0;
#X connect 80 0 45 0;
#X connect 80 0 78 0;
#X connect 80 0 79 0;
#X restore 22 148 pd \$0-DSP;
#N canvas 221 88 370 279 \$0-INPUT 0;
#X obj 58 230 hip~ 80;
#N canvas 0 22 520 372 cheapcompressor 0;
#X obj 240 62 env~;
#X obj 240 86 lop~ 0.2;
#X obj 195 134 -~;
#X obj 195 112 sig~ 100;
#X obj 176 183 *~;
#X obj 194 155 *~ 0.4;
#X obj 176 288 outlet~;
#X obj 176 5 inlet~;
#X obj 176 39 *~ 1;
#X obj 176 209 *~ 0.05;
#N canvas 0 22 450 300 wql-tanh 0;
#X obj 241 65 inlet~;
#X text 493 89 __;
#X text 575 89 __;
#X text 527 89 __;
#X text 626 89 __;
#X text 493 106 1 +;
#X text 529 106 3 +;
#X text 577 106 5 +;
#X text 627 106 7 +;
#X text 443 32 As a continued fraction;
#X obj 240 148 *~;
#X obj 165 265 /~;
#X obj 165 350 /~;
#X obj 165 288 /~;
#X obj 165 321 /~;
#X text 427 78 tanh(z) = z z^2 4z^2 9z^2 ...;
#X obj 292 175 *~ 4;
#X obj 291 206 +~ 3;
#X obj 335 174 *~ 9;
#X obj 334 205 +~ 5;
#X obj 375 175 *~ 16;
#X obj 374 205 +~ 7;
#X obj 240 206 +~ 1;
#X obj 165 401 outlet~;
#X obj 165 372 *~ 576;
#X obj 241 89 *~ 0.308319;
#X text 276 114 1/pi;
#X connect 0 0 25 0;
#X connect 10 0 16 0;
#X connect 10 0 18 0;
#X connect 10 0 20 0;
#X connect 10 0 22 0;
#X connect 11 0 13 0;
#X connect 12 0 24 0;
#X connect 13 0 14 0;
#X connect 14 0 12 0;
#X connect 16 0 17 0;
#X connect 17 0 13 1;
#X connect 18 0 19 0;
#X connect 19 0 14 1;
#X connect 20 0 21 0;
#X connect 21 0 12 1;
#X connect 22 0 11 1;
#X connect 24 0 23 0;
#X connect 25 0 10 1;
#X connect 25 0 10 0;
#X connect 25 0 11 0;
#X restore 176 242 pd wql-tanh;
#X connect 0 0 1 0;
#X connect 1 0 2 1;
#X connect 2 0 5 0;
#X connect 3 0 2 0;
#X connect 4 0 9 0;
#X connect 5 0 4 1;
#X connect 7 0 8 0;
#X connect 8 0 0 0;
#X connect 8 0 4 0;
#X connect 9 0 10 0;
#X connect 10 0 6 0;
#X restore 58 80 pd cheapcompressor;
#X obj 58 40 *~ 2;
#X obj 179 122 bp~ 2000 30;
#X obj 58 122 bp~ 1000 15;
#X obj 74 145 bp~ 500 8;
#X obj 74 166 *~ 0.3;
#X obj 106 40 r~ \$0-xfb;
#X obj 58 257 outlet~;
#X obj 58 11 inlet~;
#X connect 0 0 8 0;
#X connect 1 0 3 0;
#X connect 1 0 4 0;
#X connect 1 0 5 0;
#X connect 2 0 1 0;
#X connect 3 0 0 0;
#X connect 4 0 0 0;
#X connect 5 0 6 0;
#X connect 6 0 0 0;
#X connect 7 0 1 0;
#X connect 9 0 2 0;
#X restore 22 101 pd \$0-INPUT;
#X obj 22 59 inlet~;
#X connect 4 0 5 0;
#X connect 5 0 1 0;
#X connect 6 0 2 0;
#X connect 6 1 3 0;
#X connect 7 0 6 0;
#X connect 8 0 7 0;
