#N canvas 142 128 707 357 10;
#N canvas 0 0 450 300 xf 0;
#X obj 76 87 inlet~;
#X obj 142 87 inlet~;
#X obj 77 198 outlet~;
#X obj 141 136 -~;
#X obj 141 156 *~;
#X obj 201 127 inlet~;
#X connect 0 0 3 1;
#X connect 0 0 2 0;
#X connect 1 0 3 0;
#X connect 3 0 4 0;
#X connect 4 0 2 0;
#X connect 5 0 4 1;
#X restore 182 221 pd xf;
#N canvas 0 0 450 300 xf 0;
#X obj 76 87 inlet~;
#X obj 142 87 inlet~;
#X obj 77 198 outlet~;
#X obj 141 136 -~;
#X obj 141 156 *~;
#X obj 201 127 inlet~;
#X connect 0 0 3 1;
#X connect 0 0 2 0;
#X connect 1 0 3 0;
#X connect 3 0 4 0;
#X connect 4 0 2 0;
#X connect 5 0 4 1;
#X restore 181 249 pd xf;
#X obj 209 81 min~ 0.33333;
#X obj 209 103 *~ 3;
#X obj 290 105 -~ 0.33333;
#X obj 290 129 *~ 3;
#X obj 423 129 *~ 3;
#X obj 290 82 clip~ 0.3333 0.66666;
#X obj 422 81 max~ 0.666666;
#X obj 422 105 -~ 0.666666;
#N canvas 0 0 450 300 xf 0;
#X obj 76 87 inlet~;
#X obj 142 87 inlet~;
#X obj 77 198 outlet~;
#X obj 141 136 -~;
#X obj 141 156 *~;
#X obj 201 127 inlet~;
#X connect 0 0 3 1;
#X connect 0 0 2 0;
#X connect 1 0 3 0;
#X connect 3 0 4 0;
#X connect 4 0 2 0;
#X connect 5 0 4 1;
#X restore 182 273 pd xf;
#X obj 69 36 inlet~ a;
#X obj 195 37 inlet~ c;
#X obj 131 37 inlet~ b;
#X obj 182 301 outlet~ xfade abca;
#X obj 290 40 inlet~ controlsig;
#X text 233 276 3 way wrapped xfader \, ajf 2009;
#X connect 0 0 1 0;
#X connect 1 0 10 0;
#X connect 2 0 3 0;
#X connect 3 0 0 2;
#X connect 4 0 5 0;
#X connect 5 0 1 2;
#X connect 6 0 10 2;
#X connect 7 0 4 0;
#X connect 8 0 9 0;
#X connect 9 0 6 0;
#X connect 10 0 14 0;
#X connect 11 0 0 0;
#X connect 11 0 10 1;
#X connect 12 0 1 1;
#X connect 13 0 0 1;
#X connect 15 0 2 0;
#X connect 15 0 7 0;
#X connect 15 0 8 0;
