#N canvas 62 57 955 580 10;
#X obj 34 42 adc~ 1;
#X obj 34 72 env~;
#X obj 98 100 moses;
#X obj 403 50 + 1;
#X obj 363 50 f 0;
#X obj 213 150 line;
#X msg 213 110 99;
#X obj 225 52 t b b b;
#X floatatom 496 76 5 0 0 0 - - -;
#N canvas 303 58 856 631 rockafella 0;
#X obj 46 581 hip~ 5;
#X obj 47 528 *~;
#X obj 47 430 +~;
#X obj 46 382 samphold~;
#X obj 47 406 *~;
#X obj 212 437 r~ phase;
#X obj 134 383 r~ phase;
#X obj 82 407 r~ phase;
#X obj 212 461 -~ 0.5;
#X obj 212 485 *~ 0.5;
#X obj 212 508 cos~;
#N canvas 429 317 661 304 table 0;
#X obj 35 36 adc~ 1;
#X obj 35 66 hip~ 5;
#X obj 35 214 tabwrite~ table23;
#X obj 82 24 table table23 441003;
#X obj 82 157 loadbang;
#X obj 82 187 metro 10000;
#X obj 55 96 delwrite~ delay7 5000;
#X obj 55 127 delread~ delay7 5000;
#X connect 0 0 1 0;
#X connect 1 0 2 0;
#X connect 1 0 6 0;
#X connect 4 0 5 0;
#X connect 5 0 2 0;
#X connect 7 0 2 0;
#X restore 598 512 pd table;
#X obj 85 430 r~ read-pt;
#X obj 46 557 +~;
#X obj 47 504 tabread4~ table23;
#X obj 46 357 r chunk-size;
#X obj 46 480 +~ 1;
#X obj 298 537 *~;
#X obj 298 439 +~;
#X obj 297 391 samphold~;
#X obj 298 415 *~;
#X obj 463 470 -~ 0.5;
#X obj 463 494 *~ 0.5;
#X obj 463 517 cos~;
#X obj 336 439 r~ read-pt;
#X obj 298 513 tabread4~ table23;
#X obj 295 368 r chunk-size;
#X obj 297 489 +~ 1;
#X obj 385 392 r~ phase2;
#X obj 333 416 r~ phase2;
#X obj 463 446 r~ phase2;
#X floatatom 31 215 4 0 100 0 - - -;
#X floatatom 256 191 0 0 200 0 - - -;
#X obj 568 347 s~ phase;
#X obj 31 258 s chunk-size;
#X floatatom 568 179 0 0 0 0 - - -;
#X text 147 250 chunk size;
#X text 144 264 in seconds;
#X obj 580 216 r chunk-size;
#X obj 580 241 t b f;
#X obj 568 321 phasor~;
#X obj 256 331 s~ read-pt;
#X obj 655 340 +~ 0.5;
#X obj 656 366 wrap~;
#X obj 656 391 s~ phase2;
#X text 602 180 <-- transposition \, halftones/10;
#X obj 31 235 * 0.001;
#X obj 256 283 phasor~;
#X obj 264 237 s precession;
#X obj 693 240 t b f;
#X obj 693 215 r precession;
#X obj 256 214 * 0.01;
#X text 286 191 <-- precession \, percent;
#X floatatom 388 260 5 0 10000 0 - - -;
#X obj 388 280 * 0.001;
#X text 71 215 <-- chunk size (msec);
#X obj 568 273 expr (pow(2 \, $f1/120)-$f3)/$f2;
#X obj 388 305 t b f;
#X obj 388 214 loadbang;
#X text 431 256 <-- loop length;
#X text 472 271 (msec);
#X obj 256 307 *~;
#X obj 256 259 /;
#X obj 111 26 inlet;
#X obj 111 64 route chunk precession transposition;
#X obj 111 114 line;
#X obj 191 114 line;
#X obj 251 114 line;
#X msg 388 238 10000;
#X obj 298 463 *~ 44100;
#X obj 47 454 *~ 44100;
#X obj 54 607 outlet~;
#X msg 191 94 \$1 5000;
#X msg 111 94 \$1 100;
#X msg 251 94 \$1 200;
#X obj 116 589 adc~;
#X connect 0 0 71 0;
#X connect 1 0 13 0;
#X connect 2 0 70 0;
#X connect 3 0 4 0;
#X connect 4 0 2 0;
#X connect 5 0 8 0;
#X connect 6 0 3 1;
#X connect 7 0 4 1;
#X connect 8 0 9 0;
#X connect 9 0 10 0;
#X connect 10 0 1 1;
#X connect 12 0 2 1;
#X connect 13 0 0 0;
#X connect 14 0 1 0;
#X connect 15 0 3 0;
#X connect 16 0 14 0;
#X connect 17 0 13 1;
#X connect 18 0 69 0;
#X connect 19 0 20 0;
#X connect 20 0 18 0;
#X connect 21 0 22 0;
#X connect 22 0 23 0;
#X connect 23 0 17 1;
#X connect 24 0 18 1;
#X connect 25 0 17 0;
#X connect 26 0 19 0;
#X connect 27 0 25 0;
#X connect 28 0 19 1;
#X connect 29 0 20 1;
#X connect 30 0 21 0;
#X connect 31 0 46 0;
#X connect 32 0 51 0;
#X connect 35 0 56 0;
#X connect 38 0 39 0;
#X connect 39 0 56 0;
#X connect 39 1 56 1;
#X connect 40 0 33 0;
#X connect 40 0 42 0;
#X connect 42 0 43 0;
#X connect 43 0 44 0;
#X connect 46 0 34 0;
#X connect 47 0 61 0;
#X connect 49 0 56 0;
#X connect 49 1 56 2;
#X connect 50 0 49 0;
#X connect 51 0 48 0;
#X connect 51 0 62 0;
#X connect 53 0 54 0;
#X connect 54 0 57 0;
#X connect 54 0 61 1;
#X connect 56 0 40 0;
#X connect 57 0 62 0;
#X connect 57 1 62 1;
#X connect 58 0 68 0;
#X connect 61 0 41 0;
#X connect 62 0 47 0;
#X connect 63 0 64 0;
#X connect 64 0 73 0;
#X connect 64 1 72 0;
#X connect 64 2 74 0;
#X connect 65 0 46 0;
#X connect 66 0 51 0;
#X connect 67 0 56 0;
#X connect 68 0 53 0;
#X connect 69 0 27 0;
#X connect 70 0 16 0;
#X connect 72 0 66 0;
#X connect 73 0 65 0;
#X connect 74 0 67 0;
#X connect 75 0 0 0;
#X restore 341 278 pd rockafella;
#X msg 369 200 chunk 93 \, precession 9 \, transposition -28;
#X msg 388 228 chunk 63 \, precession 27 \, transposition 0;
#X obj 523 457 loadbang;
#X msg 527 480 \; pd dsp 1;
#X msg 342 176 chunk 25 \, precession 18 \, transposition -120;
#X msg 310 145 transposition 60 \, precession 50 \, chunk 12;
#X obj 447 355 + 1;
#X obj 407 355 f 0;
#X obj 177 437 == 0;
#N canvas 0 22 274 215 effectA 0;
#X obj 24 30 inlet~;
#X obj 144 36 inlet;
#X obj 24 160 outlet~;
#N canvas 373 34 630 575 delay 0;
#N canvas 71 56 462 312 delwrite 0;
#X obj 31 29 inlet~;
#X obj 31 229 outlet~;
#X obj 31 162 delwrite~ \$0-delay-L 2000;
#X connect 0 0 2 0;
#X restore 92 420 pd delwrite;
#X obj 232 184 * 0.01;
#X obj 35 289 *~;
#X obj 232 224 line~;
#N canvas 0 22 352 234 delread_ 0;
#X obj 31 29 inlet~;
#X obj 31 139 outlet~;
#X obj 31 92 delread~ \$0-delay-L;
#X obj 91 29 inlet delay;
#X connect 2 0 1 0;
#X connect 3 0 2 0;
#X restore 92 440 pd delread_;
#X obj 35 239 delread~ \$0-delay-L;
#X obj 203 439 line~;
#X obj 92 470 *~;
#X obj 181 74 * 0.02;
#X obj 181 134 pipe 8;
#X msg 318 185 0 8;
#X msg 232 204 \$1 14;
#X obj 181 114 t f b;
#X obj 181 154 t f b;
#X obj 118 54 route dry-wet delay feedback;
#X msg 203 419 1 14;
#X obj 28 505 outlet~;
#X obj 28 335 inlet~;
#X obj 181 94 * 125;
#X obj 379 60 inlet;
#X obj 379 82 select 0 1;
#X msg 378 113 delay 15 \, feedback 50;
#X connect 0 0 4 0;
#X connect 1 0 11 0;
#X connect 2 0 0 0;
#X connect 3 0 2 1;
#X connect 4 0 7 0;
#X connect 5 0 2 0;
#X connect 6 0 7 1;
#X connect 7 0 16 0;
#X connect 8 0 18 0;
#X connect 9 0 13 0;
#X connect 10 0 3 0;
#X connect 10 0 6 0;
#X connect 11 0 3 0;
#X connect 12 0 9 0;
#X connect 12 1 10 0;
#X connect 13 0 4 1;
#X connect 13 0 5 0;
#X connect 13 1 1 0;
#X connect 13 1 15 0;
#X connect 14 1 8 0;
#X connect 14 2 1 0;
#X connect 15 0 6 0;
#X connect 17 0 0 0;
#X connect 17 0 16 0;
#X connect 18 0 12 0;
#X connect 19 0 20 0;
#X connect 20 1 21 0;
#X connect 21 0 14 0;
#X restore 27 91 pd delay;
#N canvas 518 22 450 300 filter 0;
#X obj 104 30 inlet;
#X obj 284 191 switch~;
#X obj 24 131 *~;
#X obj 217 91 select 0 1;
#X msg 290 160 1;
#X msg 56 64 \$1 50;
#X obj 55 85 line~;
#X msg 212 157 0;
#X obj 212 137 delay 50;
#X obj 58 211 line~;
#X msg 55 162 0 \, 1000 2000;
#X obj 40 233 vcf~ 5;
#X obj 23 19 inlet~;
#X obj 42 255 outlet~;
#X connect 0 0 3 0;
#X connect 0 0 5 0;
#X connect 2 0 11 0;
#X connect 3 0 8 0;
#X connect 3 1 4 0;
#X connect 3 1 10 0;
#X connect 4 0 1 0;
#X connect 5 0 6 0;
#X connect 6 0 2 1;
#X connect 7 0 1 0;
#X connect 8 0 7 0;
#X connect 9 0 11 1;
#X connect 10 0 9 0;
#X connect 11 0 13 0;
#X connect 12 0 2 0;
#X restore 26 123 pd filter;
#X connect 0 0 3 0;
#X connect 1 0 3 1;
#X connect 1 0 4 1;
#X connect 3 0 4 0;
#X connect 4 0 2 0;
#X restore 112 458 pd effectA;
#X obj 268 442 == 1;
#N canvas 0 22 450 300 effectB 0;
#X obj 24 30 inlet~;
#X obj 144 36 inlet;
#X obj 30 258 outlet~;
#N canvas 518 22 450 300 AM 0;
#X obj 208 22 inlet;
#X obj 24 131 *~;
#X obj 23 19 inlet~;
#X obj 33 231 outlet~;
#X obj 89 27 loadbang;
#X obj 95 122 line~;
#X obj 87 71 spigot;
#X msg 162 30 1;
#X obj 92 47 metro 150;
#X msg 91 99 1 \, 0.4 97;
#X connect 0 0 6 1;
#X connect 1 0 3 0;
#X connect 2 0 1 0;
#X connect 4 0 8 0;
#X connect 5 0 1 1;
#X connect 6 0 9 0;
#X connect 7 0 8 0;
#X connect 8 0 6 0;
#X connect 9 0 5 0;
#X restore 26 123 pd AM;
#X obj 26 184 lop~;
#X floatatom 78 160 5 0 0 0 - - -;
#X obj 78 180 mtof;
#X obj 224 187 switch~;
#X obj 217 91 select 0 1;
#X msg 290 148 1;
#X msg 212 145 0;
#X obj 212 125 delay 75;
#X msg 105 126 76;
#X obj 106 106 loadbang;
#X connect 0 0 3 0;
#X connect 1 0 3 1;
#X connect 1 0 8 0;
#X connect 3 0 4 0;
#X connect 4 0 2 0;
#X connect 5 0 6 0;
#X connect 6 0 4 1;
#X connect 8 0 11 0;
#X connect 8 1 9 0;
#X connect 9 0 7 0;
#X connect 10 0 7 0;
#X connect 11 0 10 0;
#X connect 12 0 5 0;
#X connect 13 0 12 0;
#X restore 202 463 pd effectB;
#X floatatom 423 384 5 0 0 0 - - -;
#X obj 758 221 random 240;
#X obj 758 242 - 120;
#X obj 688 264 pack f f f;
#X obj 724 202 random 44;
#X obj 724 223 + 3;
#X obj 686 162 t b b b;
#X obj 688 183 random 44;
#X obj 688 204 + 12;
#X obj 35 314 moses;
#X obj 150 364 line;
#X msg 150 324 99;
#X obj 162 266 t b b b;
#X obj 195 308 del 2500;
#X msg 195 337 75 10000;
#N canvas 19 397 612 427 rcomp 0;
#X obj 7 271 *~;
#N canvas 283 384 336 370 amp-factor 0;
#X obj 19 22 inlet~;
#X obj 84 23 inlet;
#X text 120 23 Ratio;
#X obj 168 26 inlet;
#X text 204 26 Threshold;
#X obj 200 54 loadbang;
#X msg 200 78 100;
#X obj 200 102 sig~;
#X obj 168 102 sig~;
#X obj 168 134 +~;
#X obj 155 161 -~;
#X obj 155 206 /~;
#X obj 155 184 max~ 0;
#X obj 142 262 -~;
#X obj 142 286 dbtorms~;
#X obj 142 311 outlet~;
#X obj 84 179 sig~;
#X obj 97 129 - 1;
#X obj 84 156 /;
#X obj 19 68 rmstodb~;
#X obj 19 45 abs~;
#X text 18 4 Signal;
#X text 189 310 Factor in RMS;
#X connect 0 0 20 0;
#X connect 1 0 17 0;
#X connect 1 0 18 0;
#X connect 3 0 8 0;
#X connect 5 0 6 0;
#X connect 6 0 7 0;
#X connect 7 0 9 1;
#X connect 7 0 13 0;
#X connect 8 0 9 0;
#X connect 9 0 10 1;
#X connect 10 0 12 0;
#X connect 11 0 13 1;
#X connect 12 0 11 0;
#X connect 13 0 14 0;
#X connect 14 0 15 0;
#X connect 16 0 11 1;
#X connect 17 0 18 1;
#X connect 18 0 16 0;
#X connect 19 0 10 0;
#X connect 20 0 19 0;
#X restore 143 129 pd amp-factor;
#X obj 294 132 /;
#X obj 294 111 57;
#X obj 294 90 t b f;
#X obj 333 132 /;
#X obj 333 111 57;
#X obj 333 90 t b f;
#X obj 7 31 inlet~;
#X obj 7 350 outlet~;
#X obj 101 93 *~ 0.707946;
#X text 119 75 -3dB;
#N canvas 582 376 506 356 att-rel-filtering 0;
#N canvas 385 385 585 414 a-r-det 0;
#X obj 43 51 inlet~;
#X obj 43 200 outlet~;
#X obj 94 200 outlet~;
#X obj 43 145 max~ 0;
#X obj 94 171 -~;
#X obj 94 121 loadbang;
#X msg 94 146 1;
#X obj 105 50 inlet~;
#X obj 43 97 -~;
#X text 7 33 vgl.: "soll" mit "ist";
#X obj 43 121 sgn~;
#X text 33 218 Attack / Release;
#X connect 0 0 8 1;
#X connect 3 0 4 1;
#X connect 3 0 1 0;
#X connect 4 0 2 0;
#X connect 5 0 6 0;
#X connect 6 0 4 0;
#X connect 7 0 8 0;
#X connect 8 0 10 0;
#X connect 10 0 3 0;
#X restore 50 86 pd a-r-det;
#X text 26 99 att;
#X text 111 101 rel;
#X obj 22 195 vcf~;
#X msg 134 162 0.4;
#X obj 50 126 *~;
#X obj 105 128 *~;
#X obj 75 163 +~;
#X obj 134 138 loadbang;
#X obj 22 26 inlet~;
#X text 67 26 amp-factor;
#X obj 164 84 inlet;
#X text 200 85 attack;
#X text 237 104 release;
#X obj 196 106 inlet;
#X obj 22 272 outlet~;
#X obj 290 47 block~ 2;
#N canvas 0 22 450 300 (subpatch) 0;
#X array \$0-factor 16 float 0;
#X coords 0 100 15 0 20 20 1;
#X restore 287 169 graph;
#X obj 22 239 *~ 0.971042;
#X obj 109 233 tabsend~ \$0-factor;
#X obj 105 62 tabreceive~ \$0-factor;
#X connect 0 0 5 0;
#X connect 0 1 6 0;
#X connect 3 0 18 0;
#X connect 3 0 19 0;
#X connect 4 0 3 2;
#X connect 5 0 7 0;
#X connect 6 0 7 1;
#X connect 7 0 3 1;
#X connect 8 0 4 0;
#X connect 9 0 3 0;
#X connect 9 0 0 0;
#X connect 11 0 5 1;
#X connect 14 0 6 1;
#X connect 18 0 15 0;
#X connect 20 0 0 1;
#X restore 143 168 pd att-rel-filtering;
#X obj 216 36 inlet;
#X obj 226 243 *~ 2;
#X obj 216 66 route ratio threshold attack release gain;
#X connect 0 0 9 0;
#X connect 1 0 12 0;
#X connect 2 0 12 1;
#X connect 3 0 2 0;
#X connect 4 0 3 0;
#X connect 4 1 2 1;
#X connect 5 0 12 2;
#X connect 6 0 5 0;
#X connect 7 0 6 0;
#X connect 7 1 5 1;
#X connect 8 0 0 0;
#X connect 8 0 10 0;
#X connect 10 0 1 0;
#X connect 12 0 14 0;
#X connect 13 0 15 0;
#X connect 14 0 0 1;
#X connect 15 0 1 1;
#X connect 15 1 1 2;
#X connect 15 2 4 0;
#X connect 15 3 7 0;
#X connect 15 4 14 1;
#X restore 129 511 pd rcomp;
#X obj 360 443 == 2;
#N canvas 0 22 450 300 effectC 0;
#X obj 24 30 inlet~;
#X obj 144 36 inlet;
#X obj 30 258 outlet~;
#N canvas 782 22 450 300 filter 0;
#X obj 104 30 inlet;
#X obj 284 191 switch~;
#X obj 24 131 *~;
#X obj 217 91 select 0 1;
#X msg 290 160 1;
#X msg 56 64 \$1 50;
#X obj 55 85 line~;
#X msg 212 157 0;
#X obj 212 137 delay 50;
#X obj 23 19 inlet~;
#X obj 42 255 outlet~;
#X obj 71 188 +~ 600;
#X obj 70 146 osc~ 0.1;
#X obj 40 233 vcf~ 7;
#X obj 71 167 *~ 300;
#X connect 0 0 3 0;
#X connect 0 0 5 0;
#X connect 2 0 13 0;
#X connect 3 0 8 0;
#X connect 3 1 4 0;
#X connect 4 0 1 0;
#X connect 5 0 6 0;
#X connect 6 0 2 1;
#X connect 7 0 1 0;
#X connect 8 0 7 0;
#X connect 9 0 2 0;
#X connect 11 0 13 1;
#X connect 12 0 14 0;
#X connect 13 0 10 0;
#X connect 14 0 11 0;
#X restore 26 123 pd filter;
#X connect 0 0 3 0;
#X connect 1 0 3 1;
#X connect 3 0 2 0;
#X restore 300 463 pd effectC;
#X msg 409 327 bang;
#N canvas 0 22 450 300 effectD 0;
#X obj 24 30 inlet~;
#X obj 144 36 inlet;
#X obj 30 258 outlet~;
#N canvas 782 22 435 433 s2rect 0;
#X obj 104 30 inlet;
#X obj 284 191 switch~;
#X obj 38 340 *~;
#X obj 217 91 select 0 1;
#X msg 290 160 1;
#X msg 167 279 \$1 50;
#X obj 166 300 line~;
#X msg 212 157 0;
#X obj 212 137 delay 50;
#X obj 36 292 *~;
#X obj 124 232 sgn~;
#X obj 36 272 /~;
#N canvas 476 243 215 177 s2sLeft~ 0;
#X obj 18 126 outlet~;
#X obj 18 86 *~;
#X obj 18 106 +~;
#X obj 85 16 inlet~;
#X obj 137 16 inlet~;
#X obj 18 46 sig~ 1;
#X obj 18 66 -~;
#X obj 137 75 *~;
#X obj 34 16 inlet~;
#X connect 1 0 2 0;
#X connect 2 0 0 0;
#X connect 3 0 1 1;
#X connect 4 0 7 0;
#X connect 5 0 6 0;
#X connect 6 0 1 0;
#X connect 7 0 2 1;
#X connect 8 0 6 1;
#X connect 8 0 7 1;
#X restore 52 252 pd s2sLeft~;
#X obj 21 69 inlet~;
#X obj 34 372 outlet~;
#X obj 52 232 line~;
#X msg 97 165 0.1 \, 0.005 1000;
#X obj 167 257 * 0.01;
#X connect 0 0 3 0;
#X connect 0 0 17 0;
#X connect 2 0 14 0;
#X connect 3 0 8 0;
#X connect 3 1 4 0;
#X connect 3 1 16 0;
#X connect 4 0 1 0;
#X connect 5 0 6 0;
#X connect 6 0 2 1;
#X connect 7 0 1 0;
#X connect 8 0 7 0;
#X connect 9 0 2 0;
#X connect 10 0 9 1;
#X connect 10 0 12 2;
#X connect 11 0 9 0;
#X connect 12 0 11 1;
#X connect 13 0 10 0;
#X connect 13 0 12 1;
#X connect 13 0 11 0;
#X connect 15 0 12 0;
#X connect 16 0 15 0;
#X connect 17 0 5 0;
#X restore 26 123 pd s2rect;
#X connect 0 0 3 0;
#X connect 1 0 3 1;
#X connect 3 0 2 0;
#X restore 394 472 pd effectD;
#X obj 454 452 == 3;
#X obj 487 354 mod 4;
#X msg 650 96 bang;
#X obj 443 50 mod 7;
#X obj 362 84 sel 0 1 2 3 4 5 6;
#X msg 484 526 ratio 8 \, threshold -40 \, attack 5 \, release 24 \,
gain 4;
#X msg 620 286 chunk \$1 \, precession \$2 \, transposition \$3;
#X obj 258 94 del 500;
#X msg 258 123 75 3000;
#X obj 126 549 soundoutput;
#X connect 0 0 1 0;
#X connect 1 0 2 0;
#X connect 1 0 31 0;
#X connect 2 1 7 0;
#X connect 3 0 45 0;
#X connect 4 0 3 0;
#X connect 4 0 8 0;
#X connect 4 0 46 0;
#X connect 5 0 2 1;
#X connect 6 0 5 0;
#X connect 6 0 2 1;
#X connect 7 0 6 0;
#X connect 7 1 49 0;
#X connect 7 2 4 0;
#X connect 9 0 19 0;
#X connect 9 0 21 0;
#X connect 9 0 39 0;
#X connect 9 0 41 0;
#X connect 10 0 9 0;
#X connect 11 0 9 0;
#X connect 12 0 13 0;
#X connect 12 0 47 0;
#X connect 14 0 9 0;
#X connect 15 0 9 0;
#X connect 16 0 43 0;
#X connect 17 0 16 0;
#X connect 17 0 18 0;
#X connect 17 0 20 0;
#X connect 17 0 22 0;
#X connect 17 0 38 0;
#X connect 17 0 42 0;
#X connect 18 0 19 1;
#X connect 19 0 37 0;
#X connect 20 0 21 1;
#X connect 21 0 37 0;
#X connect 23 0 24 0;
#X connect 24 0 25 2;
#X connect 25 0 48 0;
#X connect 26 0 27 0;
#X connect 27 0 25 1;
#X connect 28 0 29 0;
#X connect 28 1 26 0;
#X connect 28 2 23 0;
#X connect 29 0 30 0;
#X connect 30 0 25 0;
#X connect 31 1 34 0;
#X connect 32 0 31 1;
#X connect 33 0 32 0;
#X connect 33 0 31 1;
#X connect 34 0 33 0;
#X connect 34 1 35 0;
#X connect 34 2 17 0;
#X connect 35 0 36 0;
#X connect 36 0 32 0;
#X connect 37 0 51 1;
#X connect 37 0 51 0;
#X connect 38 0 39 1;
#X connect 39 0 37 0;
#X connect 40 0 17 0;
#X connect 41 0 37 0;
#X connect 42 0 41 1;
#X connect 43 0 17 1;
#X connect 44 0 28 0;
#X connect 45 0 4 1;
#X connect 46 0 15 0;
#X connect 46 1 14 0;
#X connect 46 2 28 0;
#X connect 46 3 10 0;
#X connect 46 4 28 0;
#X connect 46 5 11 0;
#X connect 46 6 28 0;
#X connect 47 0 37 1;
#X connect 48 0 9 0;
#X connect 49 0 50 0;
#X connect 50 0 5 0;
